<?xml version="1.0" encoding="utf-8" standalone="no"?>
<!DOCTYPE svg PUBLIC "-//W3C//DTD SVG 1.1//EN"
  "http://www.w3.org/Graphics/SVG/1.1/DTD/svg11.dtd">
<!-- Created with matplotlib (https://matplotlib.org/) -->
<svg height="345.6pt" version="1.1" viewBox="0 0 460.8 345.6" width="460.8pt" xmlns="http://www.w3.org/2000/svg" xmlns:xlink="http://www.w3.org/1999/xlink">
 <defs>
  <style type="text/css">
*{stroke-linecap:butt;stroke-linejoin:round;}
  </style>
 </defs>
 <g id="figure_1">
  <g id="patch_1">
   <path d="M 0 345.6 
L 460.8 345.6 
L 460.8 0 
L 0 0 
z
" style="fill:#ffffff;"/>
  </g>
  <g id="axes_1">
   <g id="patch_2">
    <path d="M 57.6 307.584 
L 414.72 307.584 
L 414.72 41.472 
L 57.6 41.472 
z
" style="fill:#ffffff;"/>
   </g>
   <g id="matplotlib.axis_1">
    <g id="xtick_1">
     <g id="line2d_1">
      <path clip-path="url(#pa2f23de524)" d="M 73.832727 307.584 
L 73.832727 41.472 
" style="fill:none;stroke:#b0b0b0;stroke-linecap:square;stroke-width:0.8;"/>
     </g>
     <g id="line2d_2">
      <defs>
       <path d="M 0 0 
L 0 3.5 
" id="me43394e393" style="stroke:#000000;stroke-width:0.8;"/>
      </defs>
      <g>
       <use style="stroke:#000000;stroke-width:0.8;" x="73.832727" xlink:href="#me43394e393" y="307.584"/>
      </g>
     </g>
     <g id="text_1">
      <!-- 0 -->
      <defs>
       <path d="M 31.78125 66.40625 
Q 24.171875 66.40625 20.328125 58.90625 
Q 16.5 51.421875 16.5 36.375 
Q 16.5 21.390625 20.328125 13.890625 
Q 24.171875 6.390625 31.78125 6.390625 
Q 39.453125 6.390625 43.28125 13.890625 
Q 47.125 21.390625 47.125 36.375 
Q 47.125 51.421875 43.28125 58.90625 
Q 39.453125 66.40625 31.78125 66.40625 
z
M 31.78125 74.21875 
Q 44.046875 74.21875 50.515625 64.515625 
Q 56.984375 54.828125 56.984375 36.375 
Q 56.984375 17.96875 50.515625 8.265625 
Q 44.046875 -1.421875 31.78125 -1.421875 
Q 19.53125 -1.421875 13.0625 8.265625 
Q 6.59375 17.96875 6.59375 36.375 
Q 6.59375 54.828125 13.0625 64.515625 
Q 19.53125 74.21875 31.78125 74.21875 
z
" id="DejaVuSans-48"/>
      </defs>
      <g transform="translate(70.651477 322.182437)scale(0.1 -0.1)">
       <use xlink:href="#DejaVuSans-48"/>
      </g>
     </g>
    </g>
    <g id="xtick_2">
     <g id="line2d_3">
      <path clip-path="url(#pa2f23de524)" d="M 138.893758 307.584 
L 138.893758 41.472 
" style="fill:none;stroke:#b0b0b0;stroke-linecap:square;stroke-width:0.8;"/>
     </g>
     <g id="line2d_4">
      <g>
       <use style="stroke:#000000;stroke-width:0.8;" x="138.893758" xlink:href="#me43394e393" y="307.584"/>
      </g>
     </g>
     <g id="text_2">
      <!-- 100 -->
      <defs>
       <path d="M 12.40625 8.296875 
L 28.515625 8.296875 
L 28.515625 63.921875 
L 10.984375 60.40625 
L 10.984375 69.390625 
L 28.421875 72.90625 
L 38.28125 72.90625 
L 38.28125 8.296875 
L 54.390625 8.296875 
L 54.390625 0 
L 12.40625 0 
z
" id="DejaVuSans-49"/>
      </defs>
      <g transform="translate(129.350008 322.182437)scale(0.1 -0.1)">
       <use xlink:href="#DejaVuSans-49"/>
       <use x="63.623047" xlink:href="#DejaVuSans-48"/>
       <use x="127.246094" xlink:href="#DejaVuSans-48"/>
      </g>
     </g>
    </g>
    <g id="xtick_3">
     <g id="line2d_5">
      <path clip-path="url(#pa2f23de524)" d="M 203.95479 307.584 
L 203.95479 41.472 
" style="fill:none;stroke:#b0b0b0;stroke-linecap:square;stroke-width:0.8;"/>
     </g>
     <g id="line2d_6">
      <g>
       <use style="stroke:#000000;stroke-width:0.8;" x="203.95479" xlink:href="#me43394e393" y="307.584"/>
      </g>
     </g>
     <g id="text_3">
      <!-- 200 -->
      <defs>
       <path d="M 19.1875 8.296875 
L 53.609375 8.296875 
L 53.609375 0 
L 7.328125 0 
L 7.328125 8.296875 
Q 12.9375 14.109375 22.625 23.890625 
Q 32.328125 33.6875 34.8125 36.53125 
Q 39.546875 41.84375 41.421875 45.53125 
Q 43.3125 49.21875 43.3125 52.78125 
Q 43.3125 58.59375 39.234375 62.25 
Q 35.15625 65.921875 28.609375 65.921875 
Q 23.96875 65.921875 18.8125 64.3125 
Q 13.671875 62.703125 7.8125 59.421875 
L 7.8125 69.390625 
Q 13.765625 71.78125 18.9375 73 
Q 24.125 74.21875 28.421875 74.21875 
Q 39.75 74.21875 46.484375 68.546875 
Q 53.21875 62.890625 53.21875 53.421875 
Q 53.21875 48.921875 51.53125 44.890625 
Q 49.859375 40.875 45.40625 35.40625 
Q 44.1875 33.984375 37.640625 27.21875 
Q 31.109375 20.453125 19.1875 8.296875 
z
" id="DejaVuSans-50"/>
      </defs>
      <g transform="translate(194.41104 322.182437)scale(0.1 -0.1)">
       <use xlink:href="#DejaVuSans-50"/>
       <use x="63.623047" xlink:href="#DejaVuSans-48"/>
       <use x="127.246094" xlink:href="#DejaVuSans-48"/>
      </g>
     </g>
    </g>
    <g id="xtick_4">
     <g id="line2d_7">
      <path clip-path="url(#pa2f23de524)" d="M 269.015821 307.584 
L 269.015821 41.472 
" style="fill:none;stroke:#b0b0b0;stroke-linecap:square;stroke-width:0.8;"/>
     </g>
     <g id="line2d_8">
      <g>
       <use style="stroke:#000000;stroke-width:0.8;" x="269.015821" xlink:href="#me43394e393" y="307.584"/>
      </g>
     </g>
     <g id="text_4">
      <!-- 300 -->
      <defs>
       <path d="M 40.578125 39.3125 
Q 47.65625 37.796875 51.625 33 
Q 55.609375 28.21875 55.609375 21.1875 
Q 55.609375 10.40625 48.1875 4.484375 
Q 40.765625 -1.421875 27.09375 -1.421875 
Q 22.515625 -1.421875 17.65625 -0.515625 
Q 12.796875 0.390625 7.625 2.203125 
L 7.625 11.71875 
Q 11.71875 9.328125 16.59375 8.109375 
Q 21.484375 6.890625 26.8125 6.890625 
Q 36.078125 6.890625 40.9375 10.546875 
Q 45.796875 14.203125 45.796875 21.1875 
Q 45.796875 27.640625 41.28125 31.265625 
Q 36.765625 34.90625 28.71875 34.90625 
L 20.21875 34.90625 
L 20.21875 43.015625 
L 29.109375 43.015625 
Q 36.375 43.015625 40.234375 45.921875 
Q 44.09375 48.828125 44.09375 54.296875 
Q 44.09375 59.90625 40.109375 62.90625 
Q 36.140625 65.921875 28.71875 65.921875 
Q 24.65625 65.921875 20.015625 65.03125 
Q 15.375 64.15625 9.8125 62.3125 
L 9.8125 71.09375 
Q 15.4375 72.65625 20.34375 73.4375 
Q 25.25 74.21875 29.59375 74.21875 
Q 40.828125 74.21875 47.359375 69.109375 
Q 53.90625 64.015625 53.90625 55.328125 
Q 53.90625 49.265625 50.4375 45.09375 
Q 46.96875 40.921875 40.578125 39.3125 
z
" id="DejaVuSans-51"/>
      </defs>
      <g transform="translate(259.472071 322.182437)scale(0.1 -0.1)">
       <use xlink:href="#DejaVuSans-51"/>
       <use x="63.623047" xlink:href="#DejaVuSans-48"/>
       <use x="127.246094" xlink:href="#DejaVuSans-48"/>
      </g>
     </g>
    </g>
    <g id="xtick_5">
     <g id="line2d_9">
      <path clip-path="url(#pa2f23de524)" d="M 334.076852 307.584 
L 334.076852 41.472 
" style="fill:none;stroke:#b0b0b0;stroke-linecap:square;stroke-width:0.8;"/>
     </g>
     <g id="line2d_10">
      <g>
       <use style="stroke:#000000;stroke-width:0.8;" x="334.076852" xlink:href="#me43394e393" y="307.584"/>
      </g>
     </g>
     <g id="text_5">
      <!-- 400 -->
      <defs>
       <path d="M 37.796875 64.3125 
L 12.890625 25.390625 
L 37.796875 25.390625 
z
M 35.203125 72.90625 
L 47.609375 72.90625 
L 47.609375 25.390625 
L 58.015625 25.390625 
L 58.015625 17.1875 
L 47.609375 17.1875 
L 47.609375 0 
L 37.796875 0 
L 37.796875 17.1875 
L 4.890625 17.1875 
L 4.890625 26.703125 
z
" id="DejaVuSans-52"/>
      </defs>
      <g transform="translate(324.533102 322.182437)scale(0.1 -0.1)">
       <use xlink:href="#DejaVuSans-52"/>
       <use x="63.623047" xlink:href="#DejaVuSans-48"/>
       <use x="127.246094" xlink:href="#DejaVuSans-48"/>
      </g>
     </g>
    </g>
    <g id="xtick_6">
     <g id="line2d_11">
      <path clip-path="url(#pa2f23de524)" d="M 399.137883 307.584 
L 399.137883 41.472 
" style="fill:none;stroke:#b0b0b0;stroke-linecap:square;stroke-width:0.8;"/>
     </g>
     <g id="line2d_12">
      <g>
       <use style="stroke:#000000;stroke-width:0.8;" x="399.137883" xlink:href="#me43394e393" y="307.584"/>
      </g>
     </g>
     <g id="text_6">
      <!-- 500 -->
      <defs>
       <path d="M 10.796875 72.90625 
L 49.515625 72.90625 
L 49.515625 64.59375 
L 19.828125 64.59375 
L 19.828125 46.734375 
Q 21.96875 47.46875 24.109375 47.828125 
Q 26.265625 48.1875 28.421875 48.1875 
Q 40.625 48.1875 47.75 41.5 
Q 54.890625 34.8125 54.890625 23.390625 
Q 54.890625 11.625 47.5625 5.09375 
Q 40.234375 -1.421875 26.90625 -1.421875 
Q 22.3125 -1.421875 17.546875 -0.640625 
Q 12.796875 0.140625 7.71875 1.703125 
L 7.71875 11.625 
Q 12.109375 9.234375 16.796875 8.0625 
Q 21.484375 6.890625 26.703125 6.890625 
Q 35.15625 6.890625 40.078125 11.328125 
Q 45.015625 15.765625 45.015625 23.390625 
Q 45.015625 31 40.078125 35.4375 
Q 35.15625 39.890625 26.703125 39.890625 
Q 22.75 39.890625 18.8125 39.015625 
Q 14.890625 38.140625 10.796875 36.28125 
z
" id="DejaVuSans-53"/>
      </defs>
      <g transform="translate(389.594133 322.182437)scale(0.1 -0.1)">
       <use xlink:href="#DejaVuSans-53"/>
       <use x="63.623047" xlink:href="#DejaVuSans-48"/>
       <use x="127.246094" xlink:href="#DejaVuSans-48"/>
      </g>
     </g>
    </g>
    <g id="text_7">
     <!-- Generations -->
     <defs>
      <path d="M 59.515625 10.40625 
L 59.515625 29.984375 
L 43.40625 29.984375 
L 43.40625 38.09375 
L 69.28125 38.09375 
L 69.28125 6.78125 
Q 63.578125 2.734375 56.6875 0.65625 
Q 49.8125 -1.421875 42 -1.421875 
Q 24.90625 -1.421875 15.25 8.5625 
Q 5.609375 18.5625 5.609375 36.375 
Q 5.609375 54.25 15.25 64.234375 
Q 24.90625 74.21875 42 74.21875 
Q 49.125 74.21875 55.546875 72.453125 
Q 61.96875 70.703125 67.390625 67.28125 
L 67.390625 56.78125 
Q 61.921875 61.421875 55.765625 63.765625 
Q 49.609375 66.109375 42.828125 66.109375 
Q 29.4375 66.109375 22.71875 58.640625 
Q 16.015625 51.171875 16.015625 36.375 
Q 16.015625 21.625 22.71875 14.15625 
Q 29.4375 6.6875 42.828125 6.6875 
Q 48.046875 6.6875 52.140625 7.59375 
Q 56.25 8.5 59.515625 10.40625 
z
" id="DejaVuSans-71"/>
      <path d="M 56.203125 29.59375 
L 56.203125 25.203125 
L 14.890625 25.203125 
Q 15.484375 15.921875 20.484375 11.0625 
Q 25.484375 6.203125 34.421875 6.203125 
Q 39.59375 6.203125 44.453125 7.46875 
Q 49.3125 8.734375 54.109375 11.28125 
L 54.109375 2.78125 
Q 49.265625 0.734375 44.1875 -0.34375 
Q 39.109375 -1.421875 33.890625 -1.421875 
Q 20.796875 -1.421875 13.15625 6.1875 
Q 5.515625 13.8125 5.515625 26.8125 
Q 5.515625 40.234375 12.765625 48.109375 
Q 20.015625 56 32.328125 56 
Q 43.359375 56 49.78125 48.890625 
Q 56.203125 41.796875 56.203125 29.59375 
z
M 47.21875 32.234375 
Q 47.125 39.59375 43.09375 43.984375 
Q 39.0625 48.390625 32.421875 48.390625 
Q 24.90625 48.390625 20.390625 44.140625 
Q 15.875 39.890625 15.1875 32.171875 
z
" id="DejaVuSans-101"/>
      <path d="M 54.890625 33.015625 
L 54.890625 0 
L 45.90625 0 
L 45.90625 32.71875 
Q 45.90625 40.484375 42.875 44.328125 
Q 39.84375 48.1875 33.796875 48.1875 
Q 26.515625 48.1875 22.3125 43.546875 
Q 18.109375 38.921875 18.109375 30.90625 
L 18.109375 0 
L 9.078125 0 
L 9.078125 54.6875 
L 18.109375 54.6875 
L 18.109375 46.1875 
Q 21.34375 51.125 25.703125 53.5625 
Q 30.078125 56 35.796875 56 
Q 45.21875 56 50.046875 50.171875 
Q 54.890625 44.34375 54.890625 33.015625 
z
" id="DejaVuSans-110"/>
      <path d="M 41.109375 46.296875 
Q 39.59375 47.171875 37.8125 47.578125 
Q 36.03125 48 33.890625 48 
Q 26.265625 48 22.1875 43.046875 
Q 18.109375 38.09375 18.109375 28.8125 
L 18.109375 0 
L 9.078125 0 
L 9.078125 54.6875 
L 18.109375 54.6875 
L 18.109375 46.1875 
Q 20.953125 51.171875 25.484375 53.578125 
Q 30.03125 56 36.53125 56 
Q 37.453125 56 38.578125 55.875 
Q 39.703125 55.765625 41.0625 55.515625 
z
" id="DejaVuSans-114"/>
      <path d="M 34.28125 27.484375 
Q 23.390625 27.484375 19.1875 25 
Q 14.984375 22.515625 14.984375 16.5 
Q 14.984375 11.71875 18.140625 8.90625 
Q 21.296875 6.109375 26.703125 6.109375 
Q 34.1875 6.109375 38.703125 11.40625 
Q 43.21875 16.703125 43.21875 25.484375 
L 43.21875 27.484375 
z
M 52.203125 31.203125 
L 52.203125 0 
L 43.21875 0 
L 43.21875 8.296875 
Q 40.140625 3.328125 35.546875 0.953125 
Q 30.953125 -1.421875 24.3125 -1.421875 
Q 15.921875 -1.421875 10.953125 3.296875 
Q 6 8.015625 6 15.921875 
Q 6 25.140625 12.171875 29.828125 
Q 18.359375 34.515625 30.609375 34.515625 
L 43.21875 34.515625 
L 43.21875 35.40625 
Q 43.21875 41.609375 39.140625 45 
Q 35.0625 48.390625 27.6875 48.390625 
Q 23 48.390625 18.546875 47.265625 
Q 14.109375 46.140625 10.015625 43.890625 
L 10.015625 52.203125 
Q 14.9375 54.109375 19.578125 55.046875 
Q 24.21875 56 28.609375 56 
Q 40.484375 56 46.34375 49.84375 
Q 52.203125 43.703125 52.203125 31.203125 
z
" id="DejaVuSans-97"/>
      <path d="M 18.3125 70.21875 
L 18.3125 54.6875 
L 36.8125 54.6875 
L 36.8125 47.703125 
L 18.3125 47.703125 
L 18.3125 18.015625 
Q 18.3125 11.328125 20.140625 9.421875 
Q 21.96875 7.515625 27.59375 7.515625 
L 36.8125 7.515625 
L 36.8125 0 
L 27.59375 0 
Q 17.1875 0 13.234375 3.875 
Q 9.28125 7.765625 9.28125 18.015625 
L 9.28125 47.703125 
L 2.6875 47.703125 
L 2.6875 54.6875 
L 9.28125 54.6875 
L 9.28125 70.21875 
z
" id="DejaVuSans-116"/>
      <path d="M 9.421875 54.6875 
L 18.40625 54.6875 
L 18.40625 0 
L 9.421875 0 
z
M 9.421875 75.984375 
L 18.40625 75.984375 
L 18.40625 64.59375 
L 9.421875 64.59375 
z
" id="DejaVuSans-105"/>
      <path d="M 30.609375 48.390625 
Q 23.390625 48.390625 19.1875 42.75 
Q 14.984375 37.109375 14.984375 27.296875 
Q 14.984375 17.484375 19.15625 11.84375 
Q 23.34375 6.203125 30.609375 6.203125 
Q 37.796875 6.203125 41.984375 11.859375 
Q 46.1875 17.53125 46.1875 27.296875 
Q 46.1875 37.015625 41.984375 42.703125 
Q 37.796875 48.390625 30.609375 48.390625 
z
M 30.609375 56 
Q 42.328125 56 49.015625 48.375 
Q 55.71875 40.765625 55.71875 27.296875 
Q 55.71875 13.875 49.015625 6.21875 
Q 42.328125 -1.421875 30.609375 -1.421875 
Q 18.84375 -1.421875 12.171875 6.21875 
Q 5.515625 13.875 5.515625 27.296875 
Q 5.515625 40.765625 12.171875 48.375 
Q 18.84375 56 30.609375 56 
z
" id="DejaVuSans-111"/>
      <path d="M 44.28125 53.078125 
L 44.28125 44.578125 
Q 40.484375 46.53125 36.375 47.5 
Q 32.28125 48.484375 27.875 48.484375 
Q 21.1875 48.484375 17.84375 46.4375 
Q 14.5 44.390625 14.5 40.28125 
Q 14.5 37.15625 16.890625 35.375 
Q 19.28125 33.59375 26.515625 31.984375 
L 29.59375 31.296875 
Q 39.15625 29.25 43.1875 25.515625 
Q 47.21875 21.78125 47.21875 15.09375 
Q 47.21875 7.46875 41.1875 3.015625 
Q 35.15625 -1.421875 24.609375 -1.421875 
Q 20.21875 -1.421875 15.453125 -0.5625 
Q 10.6875 0.296875 5.421875 2 
L 5.421875 11.28125 
Q 10.40625 8.6875 15.234375 7.390625 
Q 20.0625 6.109375 24.8125 6.109375 
Q 31.15625 6.109375 34.5625 8.28125 
Q 37.984375 10.453125 37.984375 14.40625 
Q 37.984375 18.0625 35.515625 20.015625 
Q 33.0625 21.96875 24.703125 23.78125 
L 21.578125 24.515625 
Q 13.234375 26.265625 9.515625 29.90625 
Q 5.8125 33.546875 5.8125 39.890625 
Q 5.8125 47.609375 11.28125 51.796875 
Q 16.75 56 26.8125 56 
Q 31.78125 56 36.171875 55.265625 
Q 40.578125 54.546875 44.28125 53.078125 
z
" id="DejaVuSans-115"/>
     </defs>
     <g transform="translate(205.662344 335.860562)scale(0.1 -0.1)">
      <use xlink:href="#DejaVuSans-71"/>
      <use x="77.490234" xlink:href="#DejaVuSans-101"/>
      <use x="139.013672" xlink:href="#DejaVuSans-110"/>
      <use x="202.392578" xlink:href="#DejaVuSans-101"/>
      <use x="263.916016" xlink:href="#DejaVuSans-114"/>
      <use x="305.029297" xlink:href="#DejaVuSans-97"/>
      <use x="366.308594" xlink:href="#DejaVuSans-116"/>
      <use x="405.517578" xlink:href="#DejaVuSans-105"/>
      <use x="433.300781" xlink:href="#DejaVuSans-111"/>
      <use x="494.482422" xlink:href="#DejaVuSans-110"/>
      <use x="557.861328" xlink:href="#DejaVuSans-115"/>
     </g>
    </g>
   </g>
   <g id="matplotlib.axis_2">
    <g id="ytick_1">
     <g id="line2d_13">
      <path clip-path="url(#pa2f23de524)" d="M 57.6 275.937973 
L 414.72 275.937973 
" style="fill:none;stroke:#b0b0b0;stroke-linecap:square;stroke-width:0.8;"/>
     </g>
     <g id="line2d_14">
      <defs>
       <path d="M 0 0 
L -3.5 0 
" id="m3bb9c8882d" style="stroke:#000000;stroke-width:0.8;"/>
      </defs>
      <g>
       <use style="stroke:#000000;stroke-width:0.8;" x="57.6" xlink:href="#m3bb9c8882d" y="275.937973"/>
      </g>
     </g>
     <g id="text_8">
      <!-- 10 -->
      <g transform="translate(37.875 279.737192)scale(0.1 -0.1)">
       <use xlink:href="#DejaVuSans-49"/>
       <use x="63.623047" xlink:href="#DejaVuSans-48"/>
      </g>
     </g>
    </g>
    <g id="ytick_2">
     <g id="line2d_15">
      <path clip-path="url(#pa2f23de524)" d="M 57.6 241.192665 
L 414.72 241.192665 
" style="fill:none;stroke:#b0b0b0;stroke-linecap:square;stroke-width:0.8;"/>
     </g>
     <g id="line2d_16">
      <g>
       <use style="stroke:#000000;stroke-width:0.8;" x="57.6" xlink:href="#m3bb9c8882d" y="241.192665"/>
      </g>
     </g>
     <g id="text_9">
      <!-- 20 -->
      <g transform="translate(37.875 244.991884)scale(0.1 -0.1)">
       <use xlink:href="#DejaVuSans-50"/>
       <use x="63.623047" xlink:href="#DejaVuSans-48"/>
      </g>
     </g>
    </g>
    <g id="ytick_3">
     <g id="line2d_17">
      <path clip-path="url(#pa2f23de524)" d="M 57.6 206.447357 
L 414.72 206.447357 
" style="fill:none;stroke:#b0b0b0;stroke-linecap:square;stroke-width:0.8;"/>
     </g>
     <g id="line2d_18">
      <g>
       <use style="stroke:#000000;stroke-width:0.8;" x="57.6" xlink:href="#m3bb9c8882d" y="206.447357"/>
      </g>
     </g>
     <g id="text_10">
      <!-- 30 -->
      <g transform="translate(37.875 210.246575)scale(0.1 -0.1)">
       <use xlink:href="#DejaVuSans-51"/>
       <use x="63.623047" xlink:href="#DejaVuSans-48"/>
      </g>
     </g>
    </g>
    <g id="ytick_4">
     <g id="line2d_19">
      <path clip-path="url(#pa2f23de524)" d="M 57.6 171.702048 
L 414.72 171.702048 
" style="fill:none;stroke:#b0b0b0;stroke-linecap:square;stroke-width:0.8;"/>
     </g>
     <g id="line2d_20">
      <g>
       <use style="stroke:#000000;stroke-width:0.8;" x="57.6" xlink:href="#m3bb9c8882d" y="171.702048"/>
      </g>
     </g>
     <g id="text_11">
      <!-- 40 -->
      <g transform="translate(37.875 175.501267)scale(0.1 -0.1)">
       <use xlink:href="#DejaVuSans-52"/>
       <use x="63.623047" xlink:href="#DejaVuSans-48"/>
      </g>
     </g>
    </g>
    <g id="ytick_5">
     <g id="line2d_21">
      <path clip-path="url(#pa2f23de524)" d="M 57.6 136.95674 
L 414.72 136.95674 
" style="fill:none;stroke:#b0b0b0;stroke-linecap:square;stroke-width:0.8;"/>
     </g>
     <g id="line2d_22">
      <g>
       <use style="stroke:#000000;stroke-width:0.8;" x="57.6" xlink:href="#m3bb9c8882d" y="136.95674"/>
      </g>
     </g>
     <g id="text_12">
      <!-- 50 -->
      <g transform="translate(37.875 140.755959)scale(0.1 -0.1)">
       <use xlink:href="#DejaVuSans-53"/>
       <use x="63.623047" xlink:href="#DejaVuSans-48"/>
      </g>
     </g>
    </g>
    <g id="ytick_6">
     <g id="line2d_23">
      <path clip-path="url(#pa2f23de524)" d="M 57.6 102.211432 
L 414.72 102.211432 
" style="fill:none;stroke:#b0b0b0;stroke-linecap:square;stroke-width:0.8;"/>
     </g>
     <g id="line2d_24">
      <g>
       <use style="stroke:#000000;stroke-width:0.8;" x="57.6" xlink:href="#m3bb9c8882d" y="102.211432"/>
      </g>
     </g>
     <g id="text_13">
      <!-- 60 -->
      <defs>
       <path d="M 33.015625 40.375 
Q 26.375 40.375 22.484375 35.828125 
Q 18.609375 31.296875 18.609375 23.390625 
Q 18.609375 15.53125 22.484375 10.953125 
Q 26.375 6.390625 33.015625 6.390625 
Q 39.65625 6.390625 43.53125 10.953125 
Q 47.40625 15.53125 47.40625 23.390625 
Q 47.40625 31.296875 43.53125 35.828125 
Q 39.65625 40.375 33.015625 40.375 
z
M 52.59375 71.296875 
L 52.59375 62.3125 
Q 48.875 64.0625 45.09375 64.984375 
Q 41.3125 65.921875 37.59375 65.921875 
Q 27.828125 65.921875 22.671875 59.328125 
Q 17.53125 52.734375 16.796875 39.40625 
Q 19.671875 43.65625 24.015625 45.921875 
Q 28.375 48.1875 33.59375 48.1875 
Q 44.578125 48.1875 50.953125 41.515625 
Q 57.328125 34.859375 57.328125 23.390625 
Q 57.328125 12.15625 50.6875 5.359375 
Q 44.046875 -1.421875 33.015625 -1.421875 
Q 20.359375 -1.421875 13.671875 8.265625 
Q 6.984375 17.96875 6.984375 36.375 
Q 6.984375 53.65625 15.1875 63.9375 
Q 23.390625 74.21875 37.203125 74.21875 
Q 40.921875 74.21875 44.703125 73.484375 
Q 48.484375 72.75 52.59375 71.296875 
z
" id="DejaVuSans-54"/>
      </defs>
      <g transform="translate(37.875 106.01065)scale(0.1 -0.1)">
       <use xlink:href="#DejaVuSans-54"/>
       <use x="63.623047" xlink:href="#DejaVuSans-48"/>
      </g>
     </g>
    </g>
    <g id="ytick_7">
     <g id="line2d_25">
      <path clip-path="url(#pa2f23de524)" d="M 57.6 67.466123 
L 414.72 67.466123 
" style="fill:none;stroke:#b0b0b0;stroke-linecap:square;stroke-width:0.8;"/>
     </g>
     <g id="line2d_26">
      <g>
       <use style="stroke:#000000;stroke-width:0.8;" x="57.6" xlink:href="#m3bb9c8882d" y="67.466123"/>
      </g>
     </g>
     <g id="text_14">
      <!-- 70 -->
      <defs>
       <path d="M 8.203125 72.90625 
L 55.078125 72.90625 
L 55.078125 68.703125 
L 28.609375 0 
L 18.3125 0 
L 43.21875 64.59375 
L 8.203125 64.59375 
z
" id="DejaVuSans-55"/>
      </defs>
      <g transform="translate(37.875 71.265342)scale(0.1 -0.1)">
       <use xlink:href="#DejaVuSans-55"/>
       <use x="63.623047" xlink:href="#DejaVuSans-48"/>
      </g>
     </g>
    </g>
    <g id="text_15">
     <!-- Fitness -->
     <defs>
      <path d="M 9.8125 72.90625 
L 51.703125 72.90625 
L 51.703125 64.59375 
L 19.671875 64.59375 
L 19.671875 43.109375 
L 48.578125 43.109375 
L 48.578125 34.8125 
L 19.671875 34.8125 
L 19.671875 0 
L 9.8125 0 
z
" id="DejaVuSans-70"/>
     </defs>
     <g transform="translate(31.795312 192.202219)rotate(-90)scale(0.1 -0.1)">
      <use xlink:href="#DejaVuSans-70"/>
      <use x="57.410156" xlink:href="#DejaVuSans-105"/>
      <use x="85.193359" xlink:href="#DejaVuSans-116"/>
      <use x="124.402344" xlink:href="#DejaVuSans-110"/>
      <use x="187.78125" xlink:href="#DejaVuSans-101"/>
      <use x="249.304688" xlink:href="#DejaVuSans-115"/>
      <use x="301.404297" xlink:href="#DejaVuSans-115"/>
     </g>
    </g>
   </g>
   <g id="line2d_27">
    <path clip-path="url(#pa2f23de524)" d="M 73.832727 295.488 
L 74.483338 289.46548 
L 75.133948 281.763603 
L 77.085779 221.318349 
L 77.736389 208.983764 
L 78.386999 221.283603 
L 79.03761 217.484783 
L 79.68822 236.363067 
L 80.33883 231.86934 
L 80.989441 222.407035 
L 81.640051 219.569501 
L 82.290661 208.798456 
L 82.941272 207.119099 
L 83.591882 208.098047 
L 84.242492 196.91556 
L 84.893103 190.070735 
L 85.543713 190.858295 
L 86.194323 194.048278 
L 87.495544 210.2124 
L 88.146154 188.482057 
L 88.796764 207.016761 
L 89.447375 208.717383 
L 90.097985 197.900011 
L 90.748595 204.906981 
L 91.399206 189.422155 
L 92.049816 196.151164 
L 92.700426 191.356311 
L 93.351037 204.791164 
L 94.001647 200.471164 
L 94.652257 214.959957 
L 95.302868 207.481581 
L 95.953478 207.365376 
L 96.604088 202.949662 
L 97.254698 213.790198 
L 97.905309 198.687571 
L 98.555919 194.610788 
L 99.206529 194.519689 
L 99.85714 187.575657 
L 100.50775 198.652826 
L 101.15836 193.70741 
L 101.808971 186.005534 
L 102.459581 192.918619 
L 103.110191 191.129408 
L 103.760802 191.530038 
L 104.411412 199.706074 
L 105.062022 189.966499 
L 105.712633 191.41422 
L 106.363243 186.932075 
L 107.013853 187.123886 
L 107.664463 190.406606 
L 108.315074 189.688536 
L 108.965684 192.421834 
L 109.616294 193.278885 
L 110.266905 193.429448 
L 110.917515 211.253791 
L 112.218736 201.241371 
L 112.869346 202.008324 
L 114.170567 183.538617 
L 114.821177 182.681566 
L 115.471787 186.932075 
L 116.122398 185.286418 
L 116.773008 197.598885 
L 117.423618 189.723282 
L 118.074228 207.339153 
L 118.724839 201.328214 
L 119.375449 196.869233 
L 120.026059 188.565105 
L 120.67667 183.260654 
L 121.32728 187.592236 
L 121.97789 182.264622 
L 122.628501 179.102799 
L 123.279111 197.656794 
L 123.929721 191.750091 
L 124.580332 187.719635 
L 125.881552 202.914917 
L 126.532163 187.603818 
L 127.182773 180.701083 
L 127.833383 192.39867 
L 128.483993 184.731539 
L 129.134604 200.193201 
L 129.785214 185.310627 
L 130.435824 181.199099 
L 131.086435 188.426123 
L 131.737045 185.530681 
L 132.387655 184.27985 
L 133.038266 202.961244 
L 133.688876 199.695185 
L 134.339486 198.525426 
L 134.990097 187.643334 
L 135.640707 189.31792 
L 136.291317 188.75149 
L 136.941927 180.527357 
L 137.592538 185.519099 
L 138.243148 179.274448 
L 138.893758 196.35852 
L 139.544369 176.088499 
L 140.194979 180.728902 
L 140.845589 187.308579 
L 141.4962 181.419153 
L 142.14681 192.607142 
L 142.79742 178.697437 
L 143.448031 196.602853 
L 144.098641 180.816901 
L 144.749251 173.879421 
L 145.399862 177.597169 
L 146.050472 178.176257 
L 146.701082 190.290788 
L 147.351692 180.73118 
L 148.002303 183.735507 
L 148.652913 189.468483 
L 149.303523 187.001566 
L 149.954134 188.540159 
L 150.604744 182.753148 
L 151.255354 179.464545 
L 151.905965 185.287464 
L 152.556575 183.920815 
L 153.207185 181.152772 
L 153.857796 174.504836 
L 154.508406 177.296043 
L 155.159016 183.075346 
L 155.809627 184.013469 
L 156.460237 181.523389 
L 157.110847 187.904944 
L 157.761457 180.955882 
L 158.412068 187.244783 
L 159.062678 181.812933 
L 159.713288 186.793094 
L 160.363899 182.345694 
L 161.014509 180.307303 
L 161.665119 176.716954 
L 162.31573 177.93304 
L 162.96634 183.330145 
L 163.61695 178.245748 
L 164.267561 184.676708 
L 164.918171 180.382565 
L 165.568781 179.948268 
L 166.219392 180.724247 
L 166.870002 190.10548 
L 167.520612 186.619367 
L 168.171222 183.88607 
L 168.821833 185.773898 
L 169.472443 186.422477 
L 170.123053 192.306016 
L 170.773664 189.422155 
L 171.424274 188.889394 
L 172.074884 182.542584 
L 172.725495 172.246391 
L 173.376105 178.813255 
L 174.026715 191.680601 
L 174.677326 174.817544 
L 175.327936 180.87481 
L 175.978546 177.66666 
L 176.629156 171.91052 
L 177.279767 175.489287 
L 177.930377 170.694434 
L 178.580987 187.140547 
L 179.231598 173.172933 
L 179.882208 175.871485 
L 180.532818 175.801995 
L 181.183429 180.538938 
L 181.834039 177.435024 
L 182.484649 182.64682 
L 183.13526 175.060761 
L 183.78587 183.063764 
L 184.43648 179.774542 
L 185.087091 183.608107 
L 185.737701 166.513416 
L 186.388311 183.781834 
L 187.038921 182.009823 
L 187.689532 182.009823 
L 188.340142 172.790735 
L 188.990752 181.233845 
L 189.641363 174.111056 
L 190.291973 181.743442 
L 190.942583 181.511807 
L 191.593194 171.111378 
L 192.243804 179.102799 
L 192.894414 170.323818 
L 193.545025 173.207678 
L 194.195635 172.176901 
L 194.846245 172.894971 
L 195.496856 177.724568 
L 196.147466 180.921137 
L 196.798076 175.211324 
L 197.448686 177.423442 
L 198.099297 191.877491 
L 198.749907 182.658402 
L 199.400517 183.341727 
L 200.051128 188.136579 
L 200.701738 183.851324 
L 201.352348 175.327142 
L 202.002959 174.157383 
L 202.653569 174.875453 
L 203.304179 178.581619 
L 203.95479 173.670949 
L 204.6054 160.896257 
L 205.25601 174.018402 
L 205.906621 176.184193 
L 206.557231 174.273201 
L 207.207841 181.558134 
L 207.858451 177.203389 
L 208.509062 177.967786 
L 209.159672 175.280815 
L 209.810282 174.968107 
L 210.460893 169.116351 
L 211.111503 178.998563 
L 211.762113 166.663979 
L 212.412724 180.515775 
L 213.063334 183.078522 
L 213.713944 184.763495 
L 214.364555 175.998885 
L 215.015165 164.741405 
L 215.665775 178.697437 
L 216.316385 179.878777 
L 216.966996 179.078212 
L 217.617606 182.633546 
L 218.268216 171.933684 
L 219.569437 188.028857 
L 220.220047 179.95985 
L 220.870658 177.04748 
L 221.521268 182.137223 
L 222.171878 173.619431 
L 222.822489 171.771308 
L 223.473099 175.130252 
L 224.123709 180.967464 
L 224.77432 177.423442 
L 225.42493 178.014113 
L 226.07554 176.161029 
L 226.72615 169.930038 
L 227.376761 178.477383 
L 228.027371 179.125962 
L 228.677981 166.467088 
L 229.328592 175.025513 
L 229.979202 174.377437 
L 230.629812 172.23481 
L 231.280423 165.71108 
L 231.931033 181.836097 
L 232.581643 174.862825 
L 233.232254 177.585587 
L 233.882864 169.246713 
L 234.533474 184.47674 
L 235.184085 178.824836 
L 235.834695 174.342692 
L 236.485305 171.886741 
L 237.135915 179.83245 
L 237.786526 174.620654 
L 238.437136 174.701727 
L 239.087746 177.562424 
L 239.738357 177.092766 
L 240.388967 168.227517 
L 241.039577 166.992385 
L 242.340798 190.649823 
L 242.991408 177.314752 
L 243.642019 179.557509 
L 244.292629 178.836418 
L 244.943239 169.924111 
L 245.59385 179.793896 
L 246.24446 180.510391 
L 246.89507 180.399957 
L 247.54568 173.636204 
L 248.196291 173.983657 
L 248.846901 174.470091 
L 249.497511 171.424086 
L 250.148122 167.592636 
L 250.798732 178.593393 
L 251.449342 182.915835 
L 252.099953 191.008858 
L 252.750563 184.198777 
L 253.401173 198.259046 
L 254.051784 193.186231 
L 254.702394 185.947625 
L 255.353004 182.392021 
L 256.003615 191.750091 
L 256.654225 174.991271 
L 257.304835 185.06741 
L 257.955445 175.303979 
L 258.606056 181.257008 
L 259.256666 179.102799 
L 259.907276 170.752343 
L 260.557887 180.735828 
L 261.208497 172.744408 
L 261.859107 174.076311 
L 262.509718 178.315239 
L 263.160328 179.728214 
L 263.810938 182.368858 
L 264.461549 181.847678 
L 265.112159 182.890038 
L 265.762769 176.659046 
L 266.413379 172.732826 
L 267.06399 189.5843 
L 267.7146 184.754702 
L 268.36521 175.558777 
L 269.015821 173.242424 
L 269.666431 192.340761 
L 270.317041 180.979046 
L 270.967652 179.299689 
L 271.618262 173.115024 
L 272.268872 181.33808 
L 272.919483 183.932397 
L 273.570093 173.02237 
L 274.220703 177.075989 
L 274.871314 172.69808 
L 275.521924 173.520386 
L 276.172534 183.272236 
L 276.823144 171.435668 
L 277.473755 172.408536 
L 278.124365 175.790413 
L 278.774975 171.667303 
L 279.425586 173.450895 
L 280.076196 179.76296 
L 280.726806 174.528 
L 281.377417 176.774863 
L 282.028027 172.952879 
L 282.678637 173.392987 
L 283.329248 169.478349 
L 283.979858 175.558777 
L 284.630468 165.413147 
L 285.281079 178.928149 
L 285.931689 179.378337 
L 286.582299 171.875775 
L 287.232909 173.921565 
L 287.88352 168.806606 
L 288.53413 170.775507 
L 289.18474 169.81422 
L 289.835351 180.03395 
L 290.485961 165.216257 
L 291.136571 184.488322 
L 291.787182 177.698229 
L 292.437792 176.175942 
L 293.088402 176.722106 
L 293.739013 176.531646 
L 294.389623 170.81889 
L 295.040233 180.782155 
L 295.690844 184.101127 
L 296.341454 181.627625 
L 296.992064 180.527357 
L 297.642674 175.755668 
L 298.293285 178.048858 
L 298.943895 186.723603 
L 299.594505 174.863871 
L 300.245116 173.450895 
L 300.895726 172.339046 
L 301.546336 181.098288 
L 302.196947 177.759314 
L 302.847557 182.067538 
L 303.498167 171.044081 
L 304.148778 178.396311 
L 304.799388 180.816901 
L 305.449998 193.223223 
L 306.100608 182.613702 
L 306.751219 189.491646 
L 307.401829 180.967464 
L 308.052439 180.446284 
L 308.70305 161.788054 
L 309.35366 178.177835 
L 310.00427 184.341953 
L 310.654881 179.43867 
L 311.305491 177.210167 
L 311.956101 178.153094 
L 312.606712 183.121673 
L 313.257322 179.394822 
L 313.907932 178.790091 
L 314.558543 186.295078 
L 315.859763 171.586615 
L 316.510373 182.021405 
L 317.160984 182.451015 
L 317.811594 177.977121 
L 318.462204 170.173255 
L 319.112815 181.010072 
L 319.763425 185.299046 
L 320.414035 182.64682 
L 321.064646 173.867839 
L 321.715256 171.215614 
L 322.365866 175.037598 
L 323.016477 167.880064 
L 323.667087 173.277169 
L 324.317697 166.548161 
L 324.968308 176.94859 
L 325.618918 182.645089 
L 326.269528 170.928648 
L 326.920138 185.092267 
L 327.570749 178.349984 
L 328.221359 180.527357 
L 328.871969 169.872129 
L 329.52258 175.547196 
L 330.17319 183.967142 
L 330.8238 172.281137 
L 331.474411 173.54355 
L 332.125021 181.500225 
L 332.775631 181.291753 
L 333.426242 177.041244 
L 334.076852 174.145802 
L 334.727462 184.569394 
L 335.378073 174.307946 
L 336.028683 180.457866 
L 336.679293 173.196097 
L 337.329903 175.801995 
L 337.980514 172.443282 
L 338.631124 173.647786 
L 339.281734 179.844032 
L 339.932345 167.775828 
L 340.582955 179.276525 
L 341.233565 176.994917 
L 341.884176 161.278456 
L 342.534786 172.420118 
L 343.185396 177.990949 
L 343.836007 174.910198 
L 344.486617 174.180547 
L 345.137227 171.157705 
L 346.438448 175.466123 
L 347.089058 180.173396 
L 347.739668 172.837062 
L 348.390279 177.296043 
L 349.040889 172.385373 
L 349.691499 166.073308 
L 350.34211 182.438349 
L 350.99272 175.292397 
L 351.64333 165.378402 
L 352.293941 180.902052 
L 352.944551 162.755997 
L 353.595161 179.195453 
L 354.245772 173.189473 
L 354.896382 170.935095 
L 355.546992 171.215614 
L 356.197602 171.27209 
L 356.848213 170.016728 
L 357.498823 175.973066 
L 358.149433 175.661397 
L 358.800044 180.423121 
L 359.450654 182.18355 
L 360.101264 180.631592 
L 360.751875 176.763282 
L 361.402485 185.519099 
L 362.053095 177.724568 
L 362.703706 175.431378 
L 363.354316 174.111056 
L 364.004926 159.425373 
L 364.655537 180.399957 
L 365.306147 178.593201 
L 365.956757 181.094863 
L 366.607367 172.371559 
L 367.257978 174.414722 
L 367.908588 181.928751 
L 368.559198 182.727893 
L 369.209809 171.632558 
L 369.860419 189.5843 
L 370.511029 169.02666 
L 371.16164 174.853367 
L 371.81225 178.32682 
L 372.46286 182.679719 
L 373.113471 179.76296 
L 373.764081 180.02934 
L 374.414691 184.326177 
L 375.065302 184.99792 
L 375.715912 181.581298 
L 376.366522 173.578295 
L 377.017132 185.125319 
L 377.667743 184.557812 
L 378.318353 185.78548 
L 378.968963 178.848 
L 379.619574 178.45422 
L 380.270184 175.361272 
L 380.920794 175.037598 
L 381.571405 169.070178 
L 382.222015 183.995654 
L 382.872625 179.705051 
L 383.523236 182.924783 
L 384.173846 178.500547 
L 384.824456 181.708697 
L 385.475066 178.500547 
L 386.125677 171.086162 
L 386.776287 181.509754 
L 387.426897 169.505773 
L 388.077508 185.565426 
L 388.728118 179.160708 
L 389.378728 176.971753 
L 390.029339 169.478349 
L 390.679949 166.415221 
L 391.330559 183.909233 
L 391.98117 177.608751 
L 392.63178 173.526467 
L 393.28239 171.065051 
L 393.933001 174.153975 
L 394.583611 171.344206 
L 395.234221 174.748054 
L 395.884831 178.790091 
L 396.535442 176.11784 
L 397.186052 163.177866 
L 397.836662 171.539903 
L 398.487273 184.048214 
L 398.487273 184.048214 
" style="fill:none;stroke:#0000ff;stroke-linecap:square;stroke-width:1.5;"/>
   </g>
   <g id="line2d_28">
    <path clip-path="url(#pa2f23de524)" d="M 73.832727 271.725167 
L 74.483338 256.177258 
L 75.133948 236.637648 
L 75.784558 197.131888 
L 77.085779 136.402616 
L 77.736389 124.22773 
L 78.386999 136.469191 
L 79.03761 130.381028 
L 79.68822 152.747495 
L 80.33883 147.419199 
L 80.989441 135.846254 
L 81.640051 133.968542 
L 82.290661 122.523764 
L 82.941272 120.967832 
L 83.591882 121.733479 
L 84.893103 106.976076 
L 85.543713 108.46112 
L 86.844934 118.203396 
L 87.495544 124.77058 
L 88.146154 105.845676 
L 88.796764 121.517768 
L 89.447375 123.327782 
L 90.097985 114.518867 
L 90.748595 118.623801 
L 91.399206 105.914064 
L 92.049816 111.624415 
L 92.700426 109.15651 
L 93.351037 118.852209 
L 94.001647 117.42128 
L 94.652257 128.918186 
L 95.302868 122.014342 
L 95.953478 121.075465 
L 96.604088 117.451258 
L 97.254698 126.651684 
L 97.905309 112.757788 
L 98.555919 111.217129 
L 99.206529 110.536211 
L 99.85714 104.592358 
L 100.50775 112.70535 
L 101.15836 109.627433 
L 101.808971 103.161245 
L 102.459581 109.508094 
L 103.110191 108.870733 
L 103.760802 106.628592 
L 104.411412 113.699868 
L 105.062022 107.538979 
L 105.712633 108.581816 
L 106.363243 104.72266 
L 107.013853 105.18535 
L 107.664463 107.642504 
L 108.315074 106.786775 
L 108.965684 107.802777 
L 109.616294 109.878619 
L 110.266905 108.862682 
L 110.917515 126.021981 
L 111.568125 120.080548 
L 112.218736 116.137661 
L 112.869346 116.018435 
L 114.170567 102.602583 
L 114.821177 99.993494 
L 115.471787 103.610701 
L 116.122398 103.627573 
L 116.773008 113.923423 
L 117.423618 106.711428 
L 118.074228 121.847515 
L 119.375449 111.864276 
L 120.026059 105.513509 
L 120.67667 102.62409 
L 121.32728 103.779574 
L 121.97789 100.88305 
L 122.628501 99.504963 
L 123.279111 112.850542 
L 123.929721 107.799806 
L 124.580332 104.793187 
L 125.230942 109.506769 
L 125.881552 115.549311 
L 126.532163 102.610696 
L 127.182773 97.928801 
L 127.833383 107.246802 
L 128.483993 100.644961 
L 129.134604 114.108471 
L 129.785214 101.862813 
L 130.435824 98.872838 
L 131.086435 102.899117 
L 131.737045 102.058044 
L 132.387655 101.430276 
L 133.038266 114.893254 
L 133.688876 114.004013 
L 134.339486 112.421421 
L 134.990097 101.697307 
L 135.640707 103.754225 
L 136.291317 103.690495 
L 136.941927 99.012138 
L 137.592538 100.342093 
L 138.243148 97.828294 
L 138.893758 109.145221 
L 139.544369 94.75619 
L 140.845589 103.89646 
L 141.4962 98.577371 
L 142.14681 106.571295 
L 142.79742 96.802137 
L 143.448031 110.321158 
L 144.098641 97.510133 
L 144.749251 93.673133 
L 145.399862 96.618137 
L 146.050472 98.672645 
L 146.701082 106.039266 
L 147.351692 97.185266 
L 148.652913 104.727402 
L 149.303523 103.289598 
L 149.954134 103.978511 
L 150.604744 99.482089 
L 151.255354 96.202368 
L 151.905965 101.769839 
L 152.556575 100.520273 
L 153.207185 100.505107 
L 153.857796 95.522403 
L 154.508406 96.944592 
L 155.159016 100.311081 
L 155.809627 101.794382 
L 156.460237 100.551913 
L 157.110847 102.483526 
L 157.761457 99.5779 
L 158.412068 102.530622 
L 159.062678 98.811012 
L 159.713288 101.81503 
L 160.363899 98.669884 
L 161.014509 99.45473 
L 161.665119 96.756926 
L 162.31573 97.083864 
L 162.96634 100.001761 
L 163.61695 97.549588 
L 164.267561 101.963889 
L 164.918171 98.311851 
L 165.568781 97.707709 
L 166.219392 97.490026 
L 166.870002 104.79918 
L 167.520612 101.240078 
L 168.171222 101.615962 
L 168.821833 102.520328 
L 169.472443 101.745992 
L 170.123053 106.438103 
L 170.773664 105.757598 
L 171.424274 104.838502 
L 172.725495 94.11511 
L 173.376105 97.242067 
L 174.026715 108.07348 
L 174.677326 95.707074 
L 175.327936 99.088871 
L 175.978546 96.648995 
L 176.629156 90.702843 
L 177.279767 94.82264 
L 177.930377 93.877759 
L 178.580987 103.197714 
L 179.231598 92.912214 
L 179.882208 95.110751 
L 180.532818 96.44153 
L 181.183429 97.0146 
L 181.834039 95.902102 
L 182.484649 99.864893 
L 183.13526 94.806954 
L 183.78587 100.298638 
L 184.43648 98.093345 
L 185.087091 100.816668 
L 185.737701 90.254789 
L 186.388311 100.162059 
L 187.038921 100.869381 
L 187.689532 100.810881 
L 188.340142 93.832312 
L 188.990752 98.784847 
L 189.641363 94.206469 
L 190.291973 99.0123 
L 190.942583 99.133513 
L 191.593194 94.724275 
L 192.243804 98.460261 
L 192.894414 91.708819 
L 193.545025 92.70055 
L 194.195635 94.533407 
L 195.496856 93.944735 
L 196.147466 98.474894 
L 196.798076 94.585994 
L 197.448686 95.824338 
L 198.099297 107.240319 
L 198.749907 100.567523 
L 199.400517 100.387894 
L 200.051128 102.792423 
L 201.352348 95.028027 
L 202.002959 93.737646 
L 202.653569 94.786765 
L 203.304179 97.998497 
L 203.95479 93.739201 
L 204.6054 87.656595 
L 205.25601 95.1696 
L 205.906621 96.585386 
L 206.557231 95.694573 
L 207.207841 99.080891 
L 207.858451 96.550625 
L 208.509062 96.547684 
L 209.159672 96.955834 
L 209.810282 95.769908 
L 210.460893 91.336465 
L 211.111503 98.650711 
L 211.762113 93.366955 
L 212.412724 97.284842 
L 213.063334 100.032441 
L 213.713944 99.943038 
L 214.364555 95.607672 
L 215.015165 88.859954 
L 215.665775 98.422503 
L 216.316385 97.181891 
L 216.966996 96.551388 
L 217.617606 100.64572 
L 218.268216 94.109708 
L 218.918827 98.047296 
L 219.569437 104.612787 
L 220.220047 98.336118 
L 220.870658 96.294102 
L 221.521268 99.225909 
L 222.171878 94.944856 
L 222.822489 93.508573 
L 223.473099 96.89492 
L 224.123709 99.475415 
L 224.77432 96.0431 
L 225.42493 96.127419 
L 226.07554 95.829226 
L 226.72615 94.014661 
L 227.376761 99.285452 
L 228.027371 98.894791 
L 228.677981 90.129876 
L 229.328592 94.591226 
L 229.979202 96.319457 
L 230.629812 91.810879 
L 231.280423 91.18044 
L 231.931033 97.681909 
L 232.581643 92.862046 
L 233.232254 96.97952 
L 233.882864 93.212369 
L 234.533474 99.639436 
L 235.184085 98.637098 
L 235.834695 92.976647 
L 236.485305 93.992504 
L 237.135915 97.489901 
L 237.786526 96.232097 
L 238.437136 95.250772 
L 239.087746 98.122828 
L 239.738357 95.031378 
L 241.039577 90.256575 
L 241.690188 99.194303 
L 242.340798 105.543356 
L 242.991408 96.11351 
L 243.642019 97.248808 
L 244.292629 97.283535 
L 244.943239 93.08964 
L 245.59385 98.417667 
L 246.24446 99.272956 
L 246.89507 97.832014 
L 247.54568 93.104495 
L 248.196291 91.99218 
L 248.846901 94.871581 
L 249.497511 94.039469 
L 250.148122 91.687141 
L 250.798732 97.611308 
L 251.449342 101.053539 
L 252.099953 106.278726 
L 252.750563 98.665031 
L 253.401173 111.016988 
L 254.051784 108.123141 
L 254.702394 103.121776 
L 255.353004 99.879111 
L 256.003615 106.768359 
L 256.654225 94.925849 
L 257.304835 100.735518 
L 257.955445 94.90766 
L 258.606056 98.707281 
L 259.256666 98.112206 
L 259.907276 93.371495 
L 260.557887 99.672708 
L 261.859107 93.623372 
L 262.509718 95.651047 
L 263.810938 99.0826 
L 264.461549 98.681199 
L 265.112159 99.14604 
L 266.413379 94.14578 
L 267.06399 104.191965 
L 267.7146 101.519747 
L 268.36521 96.457572 
L 269.015821 92.387063 
L 269.666431 106.495021 
L 270.317041 99.321822 
L 271.618262 92.635713 
L 272.268872 99.394483 
L 272.919483 100.702362 
L 273.570093 94.329889 
L 274.220703 95.716961 
L 274.871314 94.631796 
L 275.521924 94.08173 
L 276.172534 100.385841 
L 276.823144 92.299401 
L 277.473755 94.338321 
L 278.124365 96.987309 
L 278.774975 94.359455 
L 280.076196 97.892396 
L 280.726806 95.304241 
L 281.377417 96.586054 
L 282.028027 94.681249 
L 282.678637 94.912432 
L 283.329248 92.925274 
L 283.979858 96.433157 
L 284.630468 92.784047 
L 285.281079 98.078613 
L 285.931689 97.89735 
L 286.582299 93.795341 
L 287.232909 94.62971 
L 287.88352 91.069807 
L 288.53413 94.399906 
L 289.18474 92.312595 
L 289.835351 98.984787 
L 290.485961 91.808302 
L 291.136571 101.237886 
L 291.787182 97.499945 
L 292.437792 95.901737 
L 293.088402 96.764751 
L 293.739013 97.893213 
L 294.389623 93.684954 
L 295.040233 100.299154 
L 295.690844 100.610444 
L 296.341454 99.157252 
L 296.992064 98.460606 
L 297.642674 97.516293 
L 298.293285 98.286619 
L 298.943895 103.06707 
L 299.594505 94.447541 
L 300.245116 96.797517 
L 300.895726 95.541456 
L 301.546336 99.125355 
L 302.196947 96.123553 
L 302.847557 100.275215 
L 303.498167 93.306773 
L 304.148778 97.724223 
L 304.799388 100.339577 
L 305.449998 107.644982 
L 306.100608 99.971996 
L 306.751219 105.488517 
L 307.401829 99.470477 
L 308.052439 95.822871 
L 308.70305 87.428346 
L 309.35366 97.307633 
L 310.00427 100.826927 
L 310.654881 96.620211 
L 311.305491 95.433232 
L 311.956101 98.296604 
L 312.606712 100.197171 
L 313.257322 96.750136 
L 313.907932 97.567896 
L 314.558543 102.046004 
L 315.859763 94.134768 
L 316.510373 100.76077 
L 317.160984 98.340718 
L 317.811594 97.338712 
L 318.462204 93.324592 
L 319.112815 99.035242 
L 319.763425 102.148616 
L 320.414035 99.504981 
L 321.064646 94.098676 
L 321.715256 92.874865 
L 322.365866 96.434955 
L 323.016477 93.163647 
L 323.667087 93.913645 
L 324.317697 89.88273 
L 324.968308 97.310562 
L 325.618918 97.833684 
L 326.269528 92.382974 
L 326.920138 100.050093 
L 327.570749 96.754529 
L 328.221359 97.709885 
L 328.871969 91.796711 
L 329.52258 95.545771 
L 330.17319 102.214272 
L 330.8238 93.809115 
L 331.474411 93.478233 
L 332.125021 98.728986 
L 332.775631 99.763158 
L 333.426242 95.941249 
L 334.076852 95.964844 
L 334.727462 100.063595 
L 335.378073 95.363361 
L 336.028683 99.058158 
L 336.679293 95.292309 
L 337.329903 95.945141 
L 337.980514 93.515495 
L 338.631124 93.574631 
L 339.281734 97.296892 
L 339.932345 91.851187 
L 340.582955 96.31832 
L 341.233565 98.082302 
L 341.884176 89.106838 
L 342.534786 93.564549 
L 343.185396 96.509393 
L 343.836007 93.628147 
L 344.486617 94.278589 
L 345.787837 93.625096 
L 347.089058 97.597794 
L 347.739668 92.984313 
L 348.390279 96.618223 
L 349.040889 95.360059 
L 349.691499 91.452368 
L 350.34211 98.417284 
L 350.99272 95.830738 
L 351.64333 91.448888 
L 352.293941 99.180998 
L 352.944551 89.512536 
L 353.595161 99.260692 
L 354.245772 94.986593 
L 354.896382 93.811433 
L 355.546992 91.340158 
L 356.197602 93.083353 
L 356.848213 92.029341 
L 357.498823 95.739749 
L 358.149433 97.011101 
L 358.800044 97.936615 
L 359.450654 99.93743 
L 360.751875 95.813812 
L 361.402485 102.438609 
L 362.053095 97.261189 
L 362.703706 97.04229 
L 363.354316 94.965498 
L 364.004926 90.295693 
L 364.655537 98.816031 
L 365.306147 99.437696 
L 365.956757 99.257898 
L 366.607367 93.183909 
L 367.908588 99.493225 
L 368.559198 98.841899 
L 369.209809 92.968412 
L 369.860419 103.811571 
L 370.511029 93.537028 
L 371.16164 94.758585 
L 371.81225 98.128761 
L 372.46286 99.196679 
L 373.113471 97.984362 
L 373.764081 98.172413 
L 374.414691 101.087733 
L 375.065302 102.06283 
L 375.715912 99.527023 
L 376.366522 95.35619 
L 377.017132 103.229663 
L 377.667743 102.484569 
L 378.318353 102.762574 
L 378.968963 98.882436 
L 379.619574 96.683802 
L 380.270184 95.732101 
L 380.920794 95.429249 
L 381.571405 92.147914 
L 382.222015 100.097963 
L 382.872625 98.964401 
L 383.523236 99.629925 
L 384.173846 98.780332 
L 384.824456 98.166235 
L 385.475066 98.457422 
L 386.125677 94.997594 
L 386.776287 97.072176 
L 387.426897 94.188978 
L 388.077508 101.63867 
L 388.728118 99.370079 
L 389.378728 95.116517 
L 390.029339 92.739415 
L 390.679949 91.161873 
L 391.330559 101.792867 
L 391.98117 95.652775 
L 392.63178 96.630052 
L 393.28239 93.705181 
L 393.933001 95.187377 
L 394.583611 94.582569 
L 395.234221 95.184475 
L 395.884831 98.731613 
L 396.535442 96.495673 
L 397.186052 89.691649 
L 397.836662 94.04012 
L 398.487273 101.538008 
L 398.487273 101.538008 
" style="fill:none;stroke:#008000;stroke-dasharray:9.6,2.4,1.5,2.4;stroke-dashoffset:0;stroke-width:1.5;"/>
   </g>
   <g id="line2d_29">
    <path clip-path="url(#pa2f23de524)" d="M 73.832727 116.109555 
L 74.483338 95.26237 
L 75.133948 109.160493 
L 75.784558 67.466123 
L 76.435169 88.313308 
L 77.085779 77.889716 
L 77.736389 81.364247 
L 78.386999 88.313308 
L 79.03761 88.313308 
L 79.68822 84.838777 
L 80.33883 77.889716 
L 80.989441 84.838777 
L 81.640051 70.940654 
L 82.290661 74.415185 
L 82.941272 84.838777 
L 83.591882 81.364247 
L 84.242492 88.313308 
L 84.893103 84.838777 
L 85.543713 91.787839 
L 86.194323 91.787839 
L 86.844934 77.889716 
L 87.495544 84.838777 
L 88.146154 77.889716 
L 88.796764 88.313308 
L 89.447375 74.415185 
L 90.097985 95.26237 
L 90.748595 74.415185 
L 91.399206 70.940654 
L 92.049816 88.313308 
L 92.700426 81.364247 
L 93.351037 91.787839 
L 94.001647 95.26237 
L 94.652257 84.838777 
L 95.302868 88.313308 
L 95.953478 88.313308 
L 96.604088 81.364247 
L 97.254698 77.889716 
L 97.905309 88.313308 
L 99.206529 81.364247 
L 99.85714 81.364247 
L 100.50775 84.838777 
L 101.15836 84.838777 
L 101.808971 63.991592 
L 102.459581 81.364247 
L 103.110191 81.364247 
L 103.760802 77.889716 
L 104.411412 81.364247 
L 105.712633 81.364247 
L 106.363243 88.313308 
L 107.013853 77.889716 
L 107.664463 84.838777 
L 108.315074 81.364247 
L 108.965684 74.415185 
L 109.616294 88.313308 
L 110.266905 74.415185 
L 112.218736 95.26237 
L 112.869346 88.313308 
L 113.519956 74.415185 
L 114.170567 81.364247 
L 114.821177 77.889716 
L 115.471787 77.889716 
L 116.122398 74.415185 
L 116.773008 74.415185 
L 117.423618 77.889716 
L 118.074228 91.787839 
L 119.375449 84.838777 
L 120.026059 88.313308 
L 120.67667 88.313308 
L 121.32728 74.415185 
L 122.628501 67.466123 
L 123.279111 77.889716 
L 123.929721 84.838777 
L 124.580332 81.364247 
L 125.230942 74.415185 
L 125.881552 70.940654 
L 126.532163 81.364247 
L 127.182773 77.889716 
L 127.833383 81.364247 
L 128.483993 70.940654 
L 129.134604 88.313308 
L 129.785214 84.838777 
L 130.435824 77.889716 
L 131.086435 88.313308 
L 132.387655 88.313308 
L 133.038266 81.364247 
L 133.688876 88.313308 
L 134.339486 81.364247 
L 134.990097 81.364247 
L 135.640707 67.466123 
L 136.291317 84.838777 
L 136.941927 88.313308 
L 137.592538 77.889716 
L 138.243148 63.991592 
L 138.893758 81.364247 
L 139.544369 70.940654 
L 140.194979 70.940654 
L 140.845589 84.838777 
L 141.4962 63.991592 
L 142.14681 81.364247 
L 142.79742 77.889716 
L 143.448031 77.889716 
L 144.098641 91.787839 
L 144.749251 81.364247 
L 145.399862 84.838777 
L 146.701082 84.838777 
L 147.351692 81.364247 
L 148.002303 88.313308 
L 148.652913 81.364247 
L 149.303523 81.364247 
L 149.954134 74.415185 
L 150.604744 70.940654 
L 151.255354 81.364247 
L 151.905965 74.415185 
L 152.556575 84.838777 
L 153.207185 88.313308 
L 153.857796 74.415185 
L 154.508406 77.889716 
L 155.159016 77.889716 
L 155.809627 88.313308 
L 156.460237 88.313308 
L 157.110847 74.415185 
L 157.761457 84.838777 
L 158.412068 81.364247 
L 159.713288 81.364247 
L 160.363899 77.889716 
L 161.014509 81.364247 
L 161.665119 81.364247 
L 162.96634 67.466123 
L 163.61695 84.838777 
L 164.267561 81.364247 
L 164.918171 74.415185 
L 165.568781 70.940654 
L 166.870002 77.889716 
L 167.520612 74.415185 
L 168.171222 84.838777 
L 168.821833 74.415185 
L 169.472443 88.313308 
L 170.123053 77.889716 
L 171.424274 84.838777 
L 172.074884 81.364247 
L 172.725495 81.364247 
L 173.376105 74.415185 
L 174.026715 84.838777 
L 174.677326 70.940654 
L 175.327936 63.991592 
L 175.978546 74.415185 
L 176.629156 77.889716 
L 177.279767 74.415185 
L 177.930377 74.415185 
L 178.580987 77.889716 
L 179.231598 70.940654 
L 180.532818 77.889716 
L 181.183429 70.940654 
L 181.834039 84.838777 
L 182.484649 74.415185 
L 183.13526 74.415185 
L 183.78587 81.364247 
L 184.43648 74.415185 
L 185.087091 81.364247 
L 185.737701 74.415185 
L 186.388311 84.838777 
L 187.038921 81.364247 
L 187.689532 88.313308 
L 188.340142 81.364247 
L 188.990752 77.889716 
L 189.641363 84.838777 
L 190.291973 84.838777 
L 190.942583 81.364247 
L 191.593194 74.415185 
L 192.243804 84.838777 
L 192.894414 67.466123 
L 193.545025 67.466123 
L 194.195635 77.889716 
L 194.846245 84.838777 
L 195.496856 70.940654 
L 196.147466 77.889716 
L 196.798076 81.364247 
L 197.448686 70.940654 
L 198.099297 74.415185 
L 198.749907 81.364247 
L 200.051128 81.364247 
L 200.701738 77.889716 
L 201.352348 81.364247 
L 202.002959 74.415185 
L 202.653569 74.415185 
L 203.304179 77.889716 
L 203.95479 74.415185 
L 204.6054 81.364247 
L 205.25601 70.940654 
L 205.906621 88.313308 
L 206.557231 74.415185 
L 207.207841 81.364247 
L 207.858451 81.364247 
L 208.509062 84.838777 
L 209.159672 84.838777 
L 209.810282 74.415185 
L 210.460893 53.568 
L 211.111503 81.364247 
L 211.762113 81.364247 
L 212.412724 88.313308 
L 213.063334 84.838777 
L 213.713944 74.415185 
L 214.364555 84.838777 
L 215.015165 77.889716 
L 215.665775 84.838777 
L 216.316385 77.889716 
L 216.966996 77.889716 
L 217.617606 84.838777 
L 218.268216 77.889716 
L 218.918827 81.364247 
L 219.569437 74.415185 
L 220.220047 60.517062 
L 220.870658 77.889716 
L 221.521268 77.889716 
L 222.171878 84.838777 
L 222.822489 60.517062 
L 223.473099 74.415185 
L 224.123709 70.940654 
L 224.77432 60.517062 
L 225.42493 88.313308 
L 226.07554 77.889716 
L 226.72615 84.838777 
L 227.376761 81.364247 
L 228.027371 81.364247 
L 228.677981 74.415185 
L 229.979202 81.364247 
L 230.629812 74.415185 
L 231.280423 74.415185 
L 231.931033 77.889716 
L 232.581643 53.568 
L 233.232254 77.889716 
L 234.533474 84.838777 
L 235.184085 67.466123 
L 235.834695 77.889716 
L 236.485305 57.042531 
L 237.135915 81.364247 
L 237.786526 88.313308 
L 238.437136 84.838777 
L 239.087746 91.787839 
L 239.738357 67.466123 
L 240.388967 84.838777 
L 241.039577 70.940654 
L 241.690188 77.889716 
L 242.340798 81.364247 
L 243.642019 81.364247 
L 244.292629 77.889716 
L 244.943239 88.313308 
L 245.59385 70.940654 
L 246.24446 77.889716 
L 246.89507 81.364247 
L 247.54568 74.415185 
L 248.196291 60.517062 
L 248.846901 67.466123 
L 249.497511 60.517062 
L 250.148122 81.364247 
L 250.798732 81.364247 
L 251.449342 84.838777 
L 252.099953 84.838777 
L 252.750563 74.415185 
L 253.401173 81.364247 
L 254.051784 70.940654 
L 254.702394 74.415185 
L 255.353004 81.364247 
L 256.003615 77.889716 
L 256.654225 63.991592 
L 257.304835 88.313308 
L 257.955445 70.940654 
L 258.606056 70.940654 
L 259.256666 81.364247 
L 259.907276 81.364247 
L 260.557887 84.838777 
L 261.208497 91.787839 
L 261.859107 74.415185 
L 263.160328 74.415185 
L 263.810938 77.889716 
L 264.461549 74.415185 
L 265.112159 74.415185 
L 265.762769 81.364247 
L 266.413379 74.415185 
L 267.06399 74.415185 
L 267.7146 84.838777 
L 269.015821 70.940654 
L 269.666431 84.838777 
L 270.317041 81.364247 
L 270.967652 84.838777 
L 271.618262 81.364247 
L 272.268872 81.364247 
L 272.919483 84.838777 
L 273.570093 81.364247 
L 274.220703 84.838777 
L 275.521924 84.838777 
L 276.172534 77.889716 
L 276.823144 74.415185 
L 277.473755 74.415185 
L 278.124365 84.838777 
L 278.774975 88.313308 
L 279.425586 88.313308 
L 280.076196 81.364247 
L 280.726806 88.313308 
L 281.377417 77.889716 
L 282.028027 70.940654 
L 282.678637 91.787839 
L 283.329248 67.466123 
L 283.979858 84.838777 
L 284.630468 81.364247 
L 285.281079 84.838777 
L 285.931689 77.889716 
L 286.582299 77.889716 
L 287.232909 88.313308 
L 287.88352 67.466123 
L 288.53413 81.364247 
L 289.18474 84.838777 
L 289.835351 84.838777 
L 290.485961 81.364247 
L 291.136571 63.991592 
L 291.787182 81.364247 
L 292.437792 77.889716 
L 293.088402 84.838777 
L 294.389623 84.838777 
L 295.040233 74.415185 
L 295.690844 57.042531 
L 296.341454 77.889716 
L 296.992064 70.940654 
L 297.642674 81.364247 
L 298.293285 77.889716 
L 298.943895 70.940654 
L 299.594505 84.838777 
L 300.245116 84.838777 
L 300.895726 88.313308 
L 301.546336 77.889716 
L 302.196947 77.889716 
L 302.847557 70.940654 
L 303.498167 77.889716 
L 304.148778 70.940654 
L 304.799388 88.313308 
L 305.449998 74.415185 
L 306.100608 81.364247 
L 307.401829 88.313308 
L 308.052439 74.415185 
L 308.70305 81.364247 
L 309.35366 70.940654 
L 310.00427 81.364247 
L 310.654881 84.838777 
L 311.305491 74.415185 
L 311.956101 84.838777 
L 312.606712 81.364247 
L 313.257322 67.466123 
L 313.907932 84.838777 
L 314.558543 77.889716 
L 315.859763 77.889716 
L 316.510373 84.838777 
L 317.160984 77.889716 
L 317.811594 81.364247 
L 318.462204 88.313308 
L 319.763425 81.364247 
L 320.414035 81.364247 
L 321.064646 84.838777 
L 321.715256 77.889716 
L 322.365866 77.889716 
L 323.016477 70.940654 
L 324.968308 91.787839 
L 325.618918 67.466123 
L 326.269528 70.940654 
L 326.920138 70.940654 
L 327.570749 74.415185 
L 328.221359 88.313308 
L 328.871969 77.889716 
L 329.52258 74.415185 
L 330.17319 81.364247 
L 330.8238 81.364247 
L 331.474411 84.838777 
L 332.125021 77.889716 
L 332.775631 84.838777 
L 333.426242 81.364247 
L 334.076852 88.313308 
L 334.727462 88.313308 
L 335.378073 77.889716 
L 336.028683 84.838777 
L 336.679293 88.313308 
L 337.329903 84.838777 
L 337.980514 77.889716 
L 338.631124 77.889716 
L 339.281734 67.466123 
L 339.932345 77.889716 
L 340.582955 70.940654 
L 341.233565 88.313308 
L 341.884176 81.364247 
L 343.185396 81.364247 
L 343.836007 70.940654 
L 344.486617 74.415185 
L 345.137227 70.940654 
L 346.438448 84.838777 
L 347.089058 74.415185 
L 347.739668 81.364247 
L 348.390279 81.364247 
L 349.040889 91.787839 
L 349.691499 70.940654 
L 350.34211 70.940654 
L 350.99272 67.466123 
L 351.64333 81.364247 
L 352.293941 84.838777 
L 352.944551 70.940654 
L 353.595161 84.838777 
L 354.245772 81.364247 
L 354.896382 84.838777 
L 355.546992 74.415185 
L 356.197602 84.838777 
L 356.848213 74.415185 
L 357.498823 88.313308 
L 358.149433 81.364247 
L 359.450654 88.313308 
L 360.101264 77.889716 
L 360.751875 70.940654 
L 361.402485 84.838777 
L 362.053095 77.889716 
L 362.703706 84.838777 
L 363.354316 77.889716 
L 364.004926 84.838777 
L 364.655537 77.889716 
L 365.306147 74.415185 
L 365.956757 77.889716 
L 366.607367 70.940654 
L 367.257978 84.838777 
L 367.908588 81.364247 
L 368.559198 81.364247 
L 369.860419 74.415185 
L 370.511029 74.415185 
L 371.16164 81.364247 
L 371.81225 77.889716 
L 372.46286 70.940654 
L 373.113471 84.838777 
L 373.764081 91.787839 
L 374.414691 88.313308 
L 375.065302 63.991592 
L 375.715912 70.940654 
L 376.366522 81.364247 
L 377.017132 84.838777 
L 377.667743 77.889716 
L 378.318353 88.313308 
L 378.968963 84.838777 
L 379.619574 70.940654 
L 380.270184 88.313308 
L 380.920794 67.466123 
L 381.571405 63.991592 
L 382.222015 77.889716 
L 382.872625 74.415185 
L 383.523236 81.364247 
L 384.173846 84.838777 
L 384.824456 81.364247 
L 385.475066 84.838777 
L 386.125677 81.364247 
L 386.776287 74.415185 
L 387.426897 88.313308 
L 388.077508 84.838777 
L 388.728118 88.313308 
L 390.029339 81.364247 
L 390.679949 81.364247 
L 391.330559 77.889716 
L 391.98117 84.838777 
L 392.63178 81.364247 
L 393.28239 70.940654 
L 393.933001 84.838777 
L 394.583611 88.313308 
L 395.234221 77.889716 
L 395.884831 77.889716 
L 396.535442 88.313308 
L 397.186052 67.466123 
L 397.836662 60.517062 
L 398.487273 88.313308 
L 398.487273 88.313308 
" style="fill:none;stroke:#ff0000;stroke-linecap:square;stroke-width:1.5;"/>
   </g>
   <g id="patch_3">
    <path d="M 57.6 307.584 
L 57.6 41.472 
" style="fill:none;stroke:#000000;stroke-linecap:square;stroke-linejoin:miter;stroke-width:0.8;"/>
   </g>
   <g id="patch_4">
    <path d="M 414.72 307.584 
L 414.72 41.472 
" style="fill:none;stroke:#000000;stroke-linecap:square;stroke-linejoin:miter;stroke-width:0.8;"/>
   </g>
   <g id="patch_5">
    <path d="M 57.6 307.584 
L 414.72 307.584 
" style="fill:none;stroke:#000000;stroke-linecap:square;stroke-linejoin:miter;stroke-width:0.8;"/>
   </g>
   <g id="patch_6">
    <path d="M 57.6 41.472 
L 414.72 41.472 
" style="fill:none;stroke:#000000;stroke-linecap:square;stroke-linejoin:miter;stroke-width:0.8;"/>
   </g>
   <g id="text_16">
    <!-- Population's average and best fitness -->
    <defs>
     <path d="M 19.671875 64.796875 
L 19.671875 37.40625 
L 32.078125 37.40625 
Q 38.96875 37.40625 42.71875 40.96875 
Q 46.484375 44.53125 46.484375 51.125 
Q 46.484375 57.671875 42.71875 61.234375 
Q 38.96875 64.796875 32.078125 64.796875 
z
M 9.8125 72.90625 
L 32.078125 72.90625 
Q 44.34375 72.90625 50.609375 67.359375 
Q 56.890625 61.8125 56.890625 51.125 
Q 56.890625 40.328125 50.609375 34.8125 
Q 44.34375 29.296875 32.078125 29.296875 
L 19.671875 29.296875 
L 19.671875 0 
L 9.8125 0 
z
" id="DejaVuSans-80"/>
     <path d="M 18.109375 8.203125 
L 18.109375 -20.796875 
L 9.078125 -20.796875 
L 9.078125 54.6875 
L 18.109375 54.6875 
L 18.109375 46.390625 
Q 20.953125 51.265625 25.265625 53.625 
Q 29.59375 56 35.59375 56 
Q 45.5625 56 51.78125 48.09375 
Q 58.015625 40.1875 58.015625 27.296875 
Q 58.015625 14.40625 51.78125 6.484375 
Q 45.5625 -1.421875 35.59375 -1.421875 
Q 29.59375 -1.421875 25.265625 0.953125 
Q 20.953125 3.328125 18.109375 8.203125 
z
M 48.6875 27.296875 
Q 48.6875 37.203125 44.609375 42.84375 
Q 40.53125 48.484375 33.40625 48.484375 
Q 26.265625 48.484375 22.1875 42.84375 
Q 18.109375 37.203125 18.109375 27.296875 
Q 18.109375 17.390625 22.1875 11.75 
Q 26.265625 6.109375 33.40625 6.109375 
Q 40.53125 6.109375 44.609375 11.75 
Q 48.6875 17.390625 48.6875 27.296875 
z
" id="DejaVuSans-112"/>
     <path d="M 8.5 21.578125 
L 8.5 54.6875 
L 17.484375 54.6875 
L 17.484375 21.921875 
Q 17.484375 14.15625 20.5 10.265625 
Q 23.53125 6.390625 29.59375 6.390625 
Q 36.859375 6.390625 41.078125 11.03125 
Q 45.3125 15.671875 45.3125 23.6875 
L 45.3125 54.6875 
L 54.296875 54.6875 
L 54.296875 0 
L 45.3125 0 
L 45.3125 8.40625 
Q 42.046875 3.421875 37.71875 1 
Q 33.40625 -1.421875 27.6875 -1.421875 
Q 18.265625 -1.421875 13.375 4.4375 
Q 8.5 10.296875 8.5 21.578125 
z
M 31.109375 56 
z
" id="DejaVuSans-117"/>
     <path d="M 9.421875 75.984375 
L 18.40625 75.984375 
L 18.40625 0 
L 9.421875 0 
z
" id="DejaVuSans-108"/>
     <path d="M 17.921875 72.90625 
L 17.921875 45.796875 
L 9.625 45.796875 
L 9.625 72.90625 
z
" id="DejaVuSans-39"/>
     <path id="DejaVuSans-32"/>
     <path d="M 2.984375 54.6875 
L 12.5 54.6875 
L 29.59375 8.796875 
L 46.6875 54.6875 
L 56.203125 54.6875 
L 35.6875 0 
L 23.484375 0 
z
" id="DejaVuSans-118"/>
     <path d="M 45.40625 27.984375 
Q 45.40625 37.75 41.375 43.109375 
Q 37.359375 48.484375 30.078125 48.484375 
Q 22.859375 48.484375 18.828125 43.109375 
Q 14.796875 37.75 14.796875 27.984375 
Q 14.796875 18.265625 18.828125 12.890625 
Q 22.859375 7.515625 30.078125 7.515625 
Q 37.359375 7.515625 41.375 12.890625 
Q 45.40625 18.265625 45.40625 27.984375 
z
M 54.390625 6.78125 
Q 54.390625 -7.171875 48.1875 -13.984375 
Q 42 -20.796875 29.203125 -20.796875 
Q 24.46875 -20.796875 20.265625 -20.09375 
Q 16.0625 -19.390625 12.109375 -17.921875 
L 12.109375 -9.1875 
Q 16.0625 -11.328125 19.921875 -12.34375 
Q 23.78125 -13.375 27.78125 -13.375 
Q 36.625 -13.375 41.015625 -8.765625 
Q 45.40625 -4.15625 45.40625 5.171875 
L 45.40625 9.625 
Q 42.625 4.78125 38.28125 2.390625 
Q 33.9375 0 27.875 0 
Q 17.828125 0 11.671875 7.65625 
Q 5.515625 15.328125 5.515625 27.984375 
Q 5.515625 40.671875 11.671875 48.328125 
Q 17.828125 56 27.875 56 
Q 33.9375 56 38.28125 53.609375 
Q 42.625 51.21875 45.40625 46.390625 
L 45.40625 54.6875 
L 54.390625 54.6875 
z
" id="DejaVuSans-103"/>
     <path d="M 45.40625 46.390625 
L 45.40625 75.984375 
L 54.390625 75.984375 
L 54.390625 0 
L 45.40625 0 
L 45.40625 8.203125 
Q 42.578125 3.328125 38.25 0.953125 
Q 33.9375 -1.421875 27.875 -1.421875 
Q 17.96875 -1.421875 11.734375 6.484375 
Q 5.515625 14.40625 5.515625 27.296875 
Q 5.515625 40.1875 11.734375 48.09375 
Q 17.96875 56 27.875 56 
Q 33.9375 56 38.25 53.625 
Q 42.578125 51.265625 45.40625 46.390625 
z
M 14.796875 27.296875 
Q 14.796875 17.390625 18.875 11.75 
Q 22.953125 6.109375 30.078125 6.109375 
Q 37.203125 6.109375 41.296875 11.75 
Q 45.40625 17.390625 45.40625 27.296875 
Q 45.40625 37.203125 41.296875 42.84375 
Q 37.203125 48.484375 30.078125 48.484375 
Q 22.953125 48.484375 18.875 42.84375 
Q 14.796875 37.203125 14.796875 27.296875 
z
" id="DejaVuSans-100"/>
     <path d="M 48.6875 27.296875 
Q 48.6875 37.203125 44.609375 42.84375 
Q 40.53125 48.484375 33.40625 48.484375 
Q 26.265625 48.484375 22.1875 42.84375 
Q 18.109375 37.203125 18.109375 27.296875 
Q 18.109375 17.390625 22.1875 11.75 
Q 26.265625 6.109375 33.40625 6.109375 
Q 40.53125 6.109375 44.609375 11.75 
Q 48.6875 17.390625 48.6875 27.296875 
z
M 18.109375 46.390625 
Q 20.953125 51.265625 25.265625 53.625 
Q 29.59375 56 35.59375 56 
Q 45.5625 56 51.78125 48.09375 
Q 58.015625 40.1875 58.015625 27.296875 
Q 58.015625 14.40625 51.78125 6.484375 
Q 45.5625 -1.421875 35.59375 -1.421875 
Q 29.59375 -1.421875 25.265625 0.953125 
Q 20.953125 3.328125 18.109375 8.203125 
L 18.109375 0 
L 9.078125 0 
L 9.078125 75.984375 
L 18.109375 75.984375 
z
" id="DejaVuSans-98"/>
     <path d="M 37.109375 75.984375 
L 37.109375 68.5 
L 28.515625 68.5 
Q 23.6875 68.5 21.796875 66.546875 
Q 19.921875 64.59375 19.921875 59.515625 
L 19.921875 54.6875 
L 34.71875 54.6875 
L 34.71875 47.703125 
L 19.921875 47.703125 
L 19.921875 0 
L 10.890625 0 
L 10.890625 47.703125 
L 2.296875 47.703125 
L 2.296875 54.6875 
L 10.890625 54.6875 
L 10.890625 58.5 
Q 10.890625 67.625 15.140625 71.796875 
Q 19.390625 75.984375 28.609375 75.984375 
z
" id="DejaVuSans-102"/>
    </defs>
    <g transform="translate(123.315 35.472)scale(0.12 -0.12)">
     <use xlink:href="#DejaVuSans-80"/>
     <use x="60.255859" xlink:href="#DejaVuSans-111"/>
     <use x="121.4375" xlink:href="#DejaVuSans-112"/>
     <use x="184.914062" xlink:href="#DejaVuSans-117"/>
     <use x="248.292969" xlink:href="#DejaVuSans-108"/>
     <use x="276.076172" xlink:href="#DejaVuSans-97"/>
     <use x="337.355469" xlink:href="#DejaVuSans-116"/>
     <use x="376.564453" xlink:href="#DejaVuSans-105"/>
     <use x="404.347656" xlink:href="#DejaVuSans-111"/>
     <use x="465.529297" xlink:href="#DejaVuSans-110"/>
     <use x="528.908203" xlink:href="#DejaVuSans-39"/>
     <use x="556.398438" xlink:href="#DejaVuSans-115"/>
     <use x="608.498047" xlink:href="#DejaVuSans-32"/>
     <use x="640.285156" xlink:href="#DejaVuSans-97"/>
     <use x="701.564453" xlink:href="#DejaVuSans-118"/>
     <use x="760.744141" xlink:href="#DejaVuSans-101"/>
     <use x="822.267578" xlink:href="#DejaVuSans-114"/>
     <use x="863.380859" xlink:href="#DejaVuSans-97"/>
     <use x="924.660156" xlink:href="#DejaVuSans-103"/>
     <use x="988.136719" xlink:href="#DejaVuSans-101"/>
     <use x="1049.660156" xlink:href="#DejaVuSans-32"/>
     <use x="1081.447266" xlink:href="#DejaVuSans-97"/>
     <use x="1142.726562" xlink:href="#DejaVuSans-110"/>
     <use x="1206.105469" xlink:href="#DejaVuSans-100"/>
     <use x="1269.582031" xlink:href="#DejaVuSans-32"/>
     <use x="1301.369141" xlink:href="#DejaVuSans-98"/>
     <use x="1364.845703" xlink:href="#DejaVuSans-101"/>
     <use x="1426.369141" xlink:href="#DejaVuSans-115"/>
     <use x="1478.46875" xlink:href="#DejaVuSans-116"/>
     <use x="1517.677734" xlink:href="#DejaVuSans-32"/>
     <use x="1549.464844" xlink:href="#DejaVuSans-102"/>
     <use x="1584.669922" xlink:href="#DejaVuSans-105"/>
     <use x="1612.453125" xlink:href="#DejaVuSans-116"/>
     <use x="1651.662109" xlink:href="#DejaVuSans-110"/>
     <use x="1715.041016" xlink:href="#DejaVuSans-101"/>
     <use x="1776.564453" xlink:href="#DejaVuSans-115"/>
     <use x="1828.664062" xlink:href="#DejaVuSans-115"/>
    </g>
   </g>
   <g id="legend_1">
    <g id="patch_7">
     <path d="M 334.779375 302.584 
L 407.72 302.584 
Q 409.72 302.584 409.72 300.584 
L 409.72 257.549625 
Q 409.72 255.549625 407.72 255.549625 
L 334.779375 255.549625 
Q 332.779375 255.549625 332.779375 257.549625 
L 332.779375 300.584 
Q 332.779375 302.584 334.779375 302.584 
z
" style="fill:#ffffff;opacity:0.8;stroke:#cccccc;stroke-linejoin:miter;"/>
    </g>
    <g id="line2d_30">
     <path d="M 336.779375 263.648062 
L 356.779375 263.648062 
" style="fill:none;stroke:#0000ff;stroke-linecap:square;stroke-width:1.5;"/>
    </g>
    <g id="line2d_31"/>
    <g id="text_17">
     <!-- average -->
     <g transform="translate(364.779375 267.148062)scale(0.1 -0.1)">
      <use xlink:href="#DejaVuSans-97"/>
      <use x="61.279297" xlink:href="#DejaVuSans-118"/>
      <use x="120.458984" xlink:href="#DejaVuSans-101"/>
      <use x="181.982422" xlink:href="#DejaVuSans-114"/>
      <use x="223.095703" xlink:href="#DejaVuSans-97"/>
      <use x="284.375" xlink:href="#DejaVuSans-103"/>
      <use x="347.851562" xlink:href="#DejaVuSans-101"/>
     </g>
    </g>
    <g id="line2d_32">
     <path d="M 336.779375 278.326188 
L 356.779375 278.326188 
" style="fill:none;stroke:#008000;stroke-dasharray:9.6,2.4,1.5,2.4;stroke-dashoffset:0;stroke-width:1.5;"/>
    </g>
    <g id="line2d_33"/>
    <g id="text_18">
     <!-- +1 sd -->
     <defs>
      <path d="M 46 62.703125 
L 46 35.5 
L 73.1875 35.5 
L 73.1875 27.203125 
L 46 27.203125 
L 46 0 
L 37.796875 0 
L 37.796875 27.203125 
L 10.59375 27.203125 
L 10.59375 35.5 
L 37.796875 35.5 
L 37.796875 62.703125 
z
" id="DejaVuSans-43"/>
     </defs>
     <g transform="translate(364.779375 281.826188)scale(0.1 -0.1)">
      <use xlink:href="#DejaVuSans-43"/>
      <use x="83.789062" xlink:href="#DejaVuSans-49"/>
      <use x="147.412109" xlink:href="#DejaVuSans-32"/>
      <use x="179.199219" xlink:href="#DejaVuSans-115"/>
      <use x="231.298828" xlink:href="#DejaVuSans-100"/>
     </g>
    </g>
    <g id="line2d_34">
     <path d="M 336.779375 293.004312 
L 356.779375 293.004312 
" style="fill:none;stroke:#ff0000;stroke-linecap:square;stroke-width:1.5;"/>
    </g>
    <g id="line2d_35"/>
    <g id="text_19">
     <!-- best -->
     <g transform="translate(364.779375 296.504312)scale(0.1 -0.1)">
      <use xlink:href="#DejaVuSans-98"/>
      <use x="63.476562" xlink:href="#DejaVuSans-101"/>
      <use x="125" xlink:href="#DejaVuSans-115"/>
      <use x="177.099609" xlink:href="#DejaVuSans-116"/>
     </g>
    </g>
   </g>
  </g>
 </g>
 <defs>
  <clipPath id="pa2f23de524">
   <rect height="266.112" width="357.12" x="57.6" y="41.472"/>
  </clipPath>
 </defs>
</svg>
