<?xml version="1.0" encoding="utf-8" standalone="no"?>
<!DOCTYPE svg PUBLIC "-//W3C//DTD SVG 1.1//EN"
  "http://www.w3.org/Graphics/SVG/1.1/DTD/svg11.dtd">
<!-- Created with matplotlib (https://matplotlib.org/) -->
<svg height="345.6pt" version="1.1" viewBox="0 0 460.8 345.6" width="460.8pt" xmlns="http://www.w3.org/2000/svg" xmlns:xlink="http://www.w3.org/1999/xlink">
 <defs>
  <style type="text/css">
*{stroke-linecap:butt;stroke-linejoin:round;}
  </style>
 </defs>
 <g id="figure_1">
  <g id="patch_1">
   <path d="M 0 345.6 
L 460.8 345.6 
L 460.8 0 
L 0 0 
z
" style="fill:#ffffff;"/>
  </g>
  <g id="axes_1">
   <g id="patch_2">
    <path d="M 57.6 307.584 
L 414.72 307.584 
L 414.72 41.472 
L 57.6 41.472 
z
" style="fill:#ffffff;"/>
   </g>
   <g id="matplotlib.axis_1">
    <g id="xtick_1">
     <g id="line2d_1">
      <path clip-path="url(#p2c0ef8c492)" d="M 73.832727 307.584 
L 73.832727 41.472 
" style="fill:none;stroke:#b0b0b0;stroke-linecap:square;stroke-width:0.8;"/>
     </g>
     <g id="line2d_2">
      <defs>
       <path d="M 0 0 
L 0 3.5 
" id="mf477b4d9a0" style="stroke:#000000;stroke-width:0.8;"/>
      </defs>
      <g>
       <use style="stroke:#000000;stroke-width:0.8;" x="73.832727" xlink:href="#mf477b4d9a0" y="307.584"/>
      </g>
     </g>
     <g id="text_1">
      <!-- 0 -->
      <defs>
       <path d="M 31.78125 66.40625 
Q 24.171875 66.40625 20.328125 58.90625 
Q 16.5 51.421875 16.5 36.375 
Q 16.5 21.390625 20.328125 13.890625 
Q 24.171875 6.390625 31.78125 6.390625 
Q 39.453125 6.390625 43.28125 13.890625 
Q 47.125 21.390625 47.125 36.375 
Q 47.125 51.421875 43.28125 58.90625 
Q 39.453125 66.40625 31.78125 66.40625 
z
M 31.78125 74.21875 
Q 44.046875 74.21875 50.515625 64.515625 
Q 56.984375 54.828125 56.984375 36.375 
Q 56.984375 17.96875 50.515625 8.265625 
Q 44.046875 -1.421875 31.78125 -1.421875 
Q 19.53125 -1.421875 13.0625 8.265625 
Q 6.59375 17.96875 6.59375 36.375 
Q 6.59375 54.828125 13.0625 64.515625 
Q 19.53125 74.21875 31.78125 74.21875 
z
" id="DejaVuSans-48"/>
      </defs>
      <g transform="translate(70.651477 322.182437)scale(0.1 -0.1)">
       <use xlink:href="#DejaVuSans-48"/>
      </g>
     </g>
    </g>
    <g id="xtick_2">
     <g id="line2d_3">
      <path clip-path="url(#p2c0ef8c492)" d="M 138.893758 307.584 
L 138.893758 41.472 
" style="fill:none;stroke:#b0b0b0;stroke-linecap:square;stroke-width:0.8;"/>
     </g>
     <g id="line2d_4">
      <g>
       <use style="stroke:#000000;stroke-width:0.8;" x="138.893758" xlink:href="#mf477b4d9a0" y="307.584"/>
      </g>
     </g>
     <g id="text_2">
      <!-- 100 -->
      <defs>
       <path d="M 12.40625 8.296875 
L 28.515625 8.296875 
L 28.515625 63.921875 
L 10.984375 60.40625 
L 10.984375 69.390625 
L 28.421875 72.90625 
L 38.28125 72.90625 
L 38.28125 8.296875 
L 54.390625 8.296875 
L 54.390625 0 
L 12.40625 0 
z
" id="DejaVuSans-49"/>
      </defs>
      <g transform="translate(129.350008 322.182437)scale(0.1 -0.1)">
       <use xlink:href="#DejaVuSans-49"/>
       <use x="63.623047" xlink:href="#DejaVuSans-48"/>
       <use x="127.246094" xlink:href="#DejaVuSans-48"/>
      </g>
     </g>
    </g>
    <g id="xtick_3">
     <g id="line2d_5">
      <path clip-path="url(#p2c0ef8c492)" d="M 203.95479 307.584 
L 203.95479 41.472 
" style="fill:none;stroke:#b0b0b0;stroke-linecap:square;stroke-width:0.8;"/>
     </g>
     <g id="line2d_6">
      <g>
       <use style="stroke:#000000;stroke-width:0.8;" x="203.95479" xlink:href="#mf477b4d9a0" y="307.584"/>
      </g>
     </g>
     <g id="text_3">
      <!-- 200 -->
      <defs>
       <path d="M 19.1875 8.296875 
L 53.609375 8.296875 
L 53.609375 0 
L 7.328125 0 
L 7.328125 8.296875 
Q 12.9375 14.109375 22.625 23.890625 
Q 32.328125 33.6875 34.8125 36.53125 
Q 39.546875 41.84375 41.421875 45.53125 
Q 43.3125 49.21875 43.3125 52.78125 
Q 43.3125 58.59375 39.234375 62.25 
Q 35.15625 65.921875 28.609375 65.921875 
Q 23.96875 65.921875 18.8125 64.3125 
Q 13.671875 62.703125 7.8125 59.421875 
L 7.8125 69.390625 
Q 13.765625 71.78125 18.9375 73 
Q 24.125 74.21875 28.421875 74.21875 
Q 39.75 74.21875 46.484375 68.546875 
Q 53.21875 62.890625 53.21875 53.421875 
Q 53.21875 48.921875 51.53125 44.890625 
Q 49.859375 40.875 45.40625 35.40625 
Q 44.1875 33.984375 37.640625 27.21875 
Q 31.109375 20.453125 19.1875 8.296875 
z
" id="DejaVuSans-50"/>
      </defs>
      <g transform="translate(194.41104 322.182437)scale(0.1 -0.1)">
       <use xlink:href="#DejaVuSans-50"/>
       <use x="63.623047" xlink:href="#DejaVuSans-48"/>
       <use x="127.246094" xlink:href="#DejaVuSans-48"/>
      </g>
     </g>
    </g>
    <g id="xtick_4">
     <g id="line2d_7">
      <path clip-path="url(#p2c0ef8c492)" d="M 269.015821 307.584 
L 269.015821 41.472 
" style="fill:none;stroke:#b0b0b0;stroke-linecap:square;stroke-width:0.8;"/>
     </g>
     <g id="line2d_8">
      <g>
       <use style="stroke:#000000;stroke-width:0.8;" x="269.015821" xlink:href="#mf477b4d9a0" y="307.584"/>
      </g>
     </g>
     <g id="text_4">
      <!-- 300 -->
      <defs>
       <path d="M 40.578125 39.3125 
Q 47.65625 37.796875 51.625 33 
Q 55.609375 28.21875 55.609375 21.1875 
Q 55.609375 10.40625 48.1875 4.484375 
Q 40.765625 -1.421875 27.09375 -1.421875 
Q 22.515625 -1.421875 17.65625 -0.515625 
Q 12.796875 0.390625 7.625 2.203125 
L 7.625 11.71875 
Q 11.71875 9.328125 16.59375 8.109375 
Q 21.484375 6.890625 26.8125 6.890625 
Q 36.078125 6.890625 40.9375 10.546875 
Q 45.796875 14.203125 45.796875 21.1875 
Q 45.796875 27.640625 41.28125 31.265625 
Q 36.765625 34.90625 28.71875 34.90625 
L 20.21875 34.90625 
L 20.21875 43.015625 
L 29.109375 43.015625 
Q 36.375 43.015625 40.234375 45.921875 
Q 44.09375 48.828125 44.09375 54.296875 
Q 44.09375 59.90625 40.109375 62.90625 
Q 36.140625 65.921875 28.71875 65.921875 
Q 24.65625 65.921875 20.015625 65.03125 
Q 15.375 64.15625 9.8125 62.3125 
L 9.8125 71.09375 
Q 15.4375 72.65625 20.34375 73.4375 
Q 25.25 74.21875 29.59375 74.21875 
Q 40.828125 74.21875 47.359375 69.109375 
Q 53.90625 64.015625 53.90625 55.328125 
Q 53.90625 49.265625 50.4375 45.09375 
Q 46.96875 40.921875 40.578125 39.3125 
z
" id="DejaVuSans-51"/>
      </defs>
      <g transform="translate(259.472071 322.182437)scale(0.1 -0.1)">
       <use xlink:href="#DejaVuSans-51"/>
       <use x="63.623047" xlink:href="#DejaVuSans-48"/>
       <use x="127.246094" xlink:href="#DejaVuSans-48"/>
      </g>
     </g>
    </g>
    <g id="xtick_5">
     <g id="line2d_9">
      <path clip-path="url(#p2c0ef8c492)" d="M 334.076852 307.584 
L 334.076852 41.472 
" style="fill:none;stroke:#b0b0b0;stroke-linecap:square;stroke-width:0.8;"/>
     </g>
     <g id="line2d_10">
      <g>
       <use style="stroke:#000000;stroke-width:0.8;" x="334.076852" xlink:href="#mf477b4d9a0" y="307.584"/>
      </g>
     </g>
     <g id="text_5">
      <!-- 400 -->
      <defs>
       <path d="M 37.796875 64.3125 
L 12.890625 25.390625 
L 37.796875 25.390625 
z
M 35.203125 72.90625 
L 47.609375 72.90625 
L 47.609375 25.390625 
L 58.015625 25.390625 
L 58.015625 17.1875 
L 47.609375 17.1875 
L 47.609375 0 
L 37.796875 0 
L 37.796875 17.1875 
L 4.890625 17.1875 
L 4.890625 26.703125 
z
" id="DejaVuSans-52"/>
      </defs>
      <g transform="translate(324.533102 322.182437)scale(0.1 -0.1)">
       <use xlink:href="#DejaVuSans-52"/>
       <use x="63.623047" xlink:href="#DejaVuSans-48"/>
       <use x="127.246094" xlink:href="#DejaVuSans-48"/>
      </g>
     </g>
    </g>
    <g id="xtick_6">
     <g id="line2d_11">
      <path clip-path="url(#p2c0ef8c492)" d="M 399.137883 307.584 
L 399.137883 41.472 
" style="fill:none;stroke:#b0b0b0;stroke-linecap:square;stroke-width:0.8;"/>
     </g>
     <g id="line2d_12">
      <g>
       <use style="stroke:#000000;stroke-width:0.8;" x="399.137883" xlink:href="#mf477b4d9a0" y="307.584"/>
      </g>
     </g>
     <g id="text_6">
      <!-- 500 -->
      <defs>
       <path d="M 10.796875 72.90625 
L 49.515625 72.90625 
L 49.515625 64.59375 
L 19.828125 64.59375 
L 19.828125 46.734375 
Q 21.96875 47.46875 24.109375 47.828125 
Q 26.265625 48.1875 28.421875 48.1875 
Q 40.625 48.1875 47.75 41.5 
Q 54.890625 34.8125 54.890625 23.390625 
Q 54.890625 11.625 47.5625 5.09375 
Q 40.234375 -1.421875 26.90625 -1.421875 
Q 22.3125 -1.421875 17.546875 -0.640625 
Q 12.796875 0.140625 7.71875 1.703125 
L 7.71875 11.625 
Q 12.109375 9.234375 16.796875 8.0625 
Q 21.484375 6.890625 26.703125 6.890625 
Q 35.15625 6.890625 40.078125 11.328125 
Q 45.015625 15.765625 45.015625 23.390625 
Q 45.015625 31 40.078125 35.4375 
Q 35.15625 39.890625 26.703125 39.890625 
Q 22.75 39.890625 18.8125 39.015625 
Q 14.890625 38.140625 10.796875 36.28125 
z
" id="DejaVuSans-53"/>
      </defs>
      <g transform="translate(389.594133 322.182437)scale(0.1 -0.1)">
       <use xlink:href="#DejaVuSans-53"/>
       <use x="63.623047" xlink:href="#DejaVuSans-48"/>
       <use x="127.246094" xlink:href="#DejaVuSans-48"/>
      </g>
     </g>
    </g>
    <g id="text_7">
     <!-- Generations -->
     <defs>
      <path d="M 59.515625 10.40625 
L 59.515625 29.984375 
L 43.40625 29.984375 
L 43.40625 38.09375 
L 69.28125 38.09375 
L 69.28125 6.78125 
Q 63.578125 2.734375 56.6875 0.65625 
Q 49.8125 -1.421875 42 -1.421875 
Q 24.90625 -1.421875 15.25 8.5625 
Q 5.609375 18.5625 5.609375 36.375 
Q 5.609375 54.25 15.25 64.234375 
Q 24.90625 74.21875 42 74.21875 
Q 49.125 74.21875 55.546875 72.453125 
Q 61.96875 70.703125 67.390625 67.28125 
L 67.390625 56.78125 
Q 61.921875 61.421875 55.765625 63.765625 
Q 49.609375 66.109375 42.828125 66.109375 
Q 29.4375 66.109375 22.71875 58.640625 
Q 16.015625 51.171875 16.015625 36.375 
Q 16.015625 21.625 22.71875 14.15625 
Q 29.4375 6.6875 42.828125 6.6875 
Q 48.046875 6.6875 52.140625 7.59375 
Q 56.25 8.5 59.515625 10.40625 
z
" id="DejaVuSans-71"/>
      <path d="M 56.203125 29.59375 
L 56.203125 25.203125 
L 14.890625 25.203125 
Q 15.484375 15.921875 20.484375 11.0625 
Q 25.484375 6.203125 34.421875 6.203125 
Q 39.59375 6.203125 44.453125 7.46875 
Q 49.3125 8.734375 54.109375 11.28125 
L 54.109375 2.78125 
Q 49.265625 0.734375 44.1875 -0.34375 
Q 39.109375 -1.421875 33.890625 -1.421875 
Q 20.796875 -1.421875 13.15625 6.1875 
Q 5.515625 13.8125 5.515625 26.8125 
Q 5.515625 40.234375 12.765625 48.109375 
Q 20.015625 56 32.328125 56 
Q 43.359375 56 49.78125 48.890625 
Q 56.203125 41.796875 56.203125 29.59375 
z
M 47.21875 32.234375 
Q 47.125 39.59375 43.09375 43.984375 
Q 39.0625 48.390625 32.421875 48.390625 
Q 24.90625 48.390625 20.390625 44.140625 
Q 15.875 39.890625 15.1875 32.171875 
z
" id="DejaVuSans-101"/>
      <path d="M 54.890625 33.015625 
L 54.890625 0 
L 45.90625 0 
L 45.90625 32.71875 
Q 45.90625 40.484375 42.875 44.328125 
Q 39.84375 48.1875 33.796875 48.1875 
Q 26.515625 48.1875 22.3125 43.546875 
Q 18.109375 38.921875 18.109375 30.90625 
L 18.109375 0 
L 9.078125 0 
L 9.078125 54.6875 
L 18.109375 54.6875 
L 18.109375 46.1875 
Q 21.34375 51.125 25.703125 53.5625 
Q 30.078125 56 35.796875 56 
Q 45.21875 56 50.046875 50.171875 
Q 54.890625 44.34375 54.890625 33.015625 
z
" id="DejaVuSans-110"/>
      <path d="M 41.109375 46.296875 
Q 39.59375 47.171875 37.8125 47.578125 
Q 36.03125 48 33.890625 48 
Q 26.265625 48 22.1875 43.046875 
Q 18.109375 38.09375 18.109375 28.8125 
L 18.109375 0 
L 9.078125 0 
L 9.078125 54.6875 
L 18.109375 54.6875 
L 18.109375 46.1875 
Q 20.953125 51.171875 25.484375 53.578125 
Q 30.03125 56 36.53125 56 
Q 37.453125 56 38.578125 55.875 
Q 39.703125 55.765625 41.0625 55.515625 
z
" id="DejaVuSans-114"/>
      <path d="M 34.28125 27.484375 
Q 23.390625 27.484375 19.1875 25 
Q 14.984375 22.515625 14.984375 16.5 
Q 14.984375 11.71875 18.140625 8.90625 
Q 21.296875 6.109375 26.703125 6.109375 
Q 34.1875 6.109375 38.703125 11.40625 
Q 43.21875 16.703125 43.21875 25.484375 
L 43.21875 27.484375 
z
M 52.203125 31.203125 
L 52.203125 0 
L 43.21875 0 
L 43.21875 8.296875 
Q 40.140625 3.328125 35.546875 0.953125 
Q 30.953125 -1.421875 24.3125 -1.421875 
Q 15.921875 -1.421875 10.953125 3.296875 
Q 6 8.015625 6 15.921875 
Q 6 25.140625 12.171875 29.828125 
Q 18.359375 34.515625 30.609375 34.515625 
L 43.21875 34.515625 
L 43.21875 35.40625 
Q 43.21875 41.609375 39.140625 45 
Q 35.0625 48.390625 27.6875 48.390625 
Q 23 48.390625 18.546875 47.265625 
Q 14.109375 46.140625 10.015625 43.890625 
L 10.015625 52.203125 
Q 14.9375 54.109375 19.578125 55.046875 
Q 24.21875 56 28.609375 56 
Q 40.484375 56 46.34375 49.84375 
Q 52.203125 43.703125 52.203125 31.203125 
z
" id="DejaVuSans-97"/>
      <path d="M 18.3125 70.21875 
L 18.3125 54.6875 
L 36.8125 54.6875 
L 36.8125 47.703125 
L 18.3125 47.703125 
L 18.3125 18.015625 
Q 18.3125 11.328125 20.140625 9.421875 
Q 21.96875 7.515625 27.59375 7.515625 
L 36.8125 7.515625 
L 36.8125 0 
L 27.59375 0 
Q 17.1875 0 13.234375 3.875 
Q 9.28125 7.765625 9.28125 18.015625 
L 9.28125 47.703125 
L 2.6875 47.703125 
L 2.6875 54.6875 
L 9.28125 54.6875 
L 9.28125 70.21875 
z
" id="DejaVuSans-116"/>
      <path d="M 9.421875 54.6875 
L 18.40625 54.6875 
L 18.40625 0 
L 9.421875 0 
z
M 9.421875 75.984375 
L 18.40625 75.984375 
L 18.40625 64.59375 
L 9.421875 64.59375 
z
" id="DejaVuSans-105"/>
      <path d="M 30.609375 48.390625 
Q 23.390625 48.390625 19.1875 42.75 
Q 14.984375 37.109375 14.984375 27.296875 
Q 14.984375 17.484375 19.15625 11.84375 
Q 23.34375 6.203125 30.609375 6.203125 
Q 37.796875 6.203125 41.984375 11.859375 
Q 46.1875 17.53125 46.1875 27.296875 
Q 46.1875 37.015625 41.984375 42.703125 
Q 37.796875 48.390625 30.609375 48.390625 
z
M 30.609375 56 
Q 42.328125 56 49.015625 48.375 
Q 55.71875 40.765625 55.71875 27.296875 
Q 55.71875 13.875 49.015625 6.21875 
Q 42.328125 -1.421875 30.609375 -1.421875 
Q 18.84375 -1.421875 12.171875 6.21875 
Q 5.515625 13.875 5.515625 27.296875 
Q 5.515625 40.765625 12.171875 48.375 
Q 18.84375 56 30.609375 56 
z
" id="DejaVuSans-111"/>
      <path d="M 44.28125 53.078125 
L 44.28125 44.578125 
Q 40.484375 46.53125 36.375 47.5 
Q 32.28125 48.484375 27.875 48.484375 
Q 21.1875 48.484375 17.84375 46.4375 
Q 14.5 44.390625 14.5 40.28125 
Q 14.5 37.15625 16.890625 35.375 
Q 19.28125 33.59375 26.515625 31.984375 
L 29.59375 31.296875 
Q 39.15625 29.25 43.1875 25.515625 
Q 47.21875 21.78125 47.21875 15.09375 
Q 47.21875 7.46875 41.1875 3.015625 
Q 35.15625 -1.421875 24.609375 -1.421875 
Q 20.21875 -1.421875 15.453125 -0.5625 
Q 10.6875 0.296875 5.421875 2 
L 5.421875 11.28125 
Q 10.40625 8.6875 15.234375 7.390625 
Q 20.0625 6.109375 24.8125 6.109375 
Q 31.15625 6.109375 34.5625 8.28125 
Q 37.984375 10.453125 37.984375 14.40625 
Q 37.984375 18.0625 35.515625 20.015625 
Q 33.0625 21.96875 24.703125 23.78125 
L 21.578125 24.515625 
Q 13.234375 26.265625 9.515625 29.90625 
Q 5.8125 33.546875 5.8125 39.890625 
Q 5.8125 47.609375 11.28125 51.796875 
Q 16.75 56 26.8125 56 
Q 31.78125 56 36.171875 55.265625 
Q 40.578125 54.546875 44.28125 53.078125 
z
" id="DejaVuSans-115"/>
     </defs>
     <g transform="translate(205.662344 335.860562)scale(0.1 -0.1)">
      <use xlink:href="#DejaVuSans-71"/>
      <use x="77.490234" xlink:href="#DejaVuSans-101"/>
      <use x="139.013672" xlink:href="#DejaVuSans-110"/>
      <use x="202.392578" xlink:href="#DejaVuSans-101"/>
      <use x="263.916016" xlink:href="#DejaVuSans-114"/>
      <use x="305.029297" xlink:href="#DejaVuSans-97"/>
      <use x="366.308594" xlink:href="#DejaVuSans-116"/>
      <use x="405.517578" xlink:href="#DejaVuSans-105"/>
      <use x="433.300781" xlink:href="#DejaVuSans-111"/>
      <use x="494.482422" xlink:href="#DejaVuSans-110"/>
      <use x="557.861328" xlink:href="#DejaVuSans-115"/>
     </g>
    </g>
   </g>
   <g id="matplotlib.axis_2">
    <g id="ytick_1">
     <g id="line2d_13">
      <path clip-path="url(#p2c0ef8c492)" d="M 57.6 282.155057 
L 414.72 282.155057 
" style="fill:none;stroke:#b0b0b0;stroke-linecap:square;stroke-width:0.8;"/>
     </g>
     <g id="line2d_14">
      <defs>
       <path d="M 0 0 
L -3.5 0 
" id="mc13818ad23" style="stroke:#000000;stroke-width:0.8;"/>
      </defs>
      <g>
       <use style="stroke:#000000;stroke-width:0.8;" x="57.6" xlink:href="#mc13818ad23" y="282.155057"/>
      </g>
     </g>
     <g id="text_8">
      <!-- 20 -->
      <g transform="translate(37.875 285.954276)scale(0.1 -0.1)">
       <use xlink:href="#DejaVuSans-50"/>
       <use x="63.623047" xlink:href="#DejaVuSans-48"/>
      </g>
     </g>
    </g>
    <g id="ytick_2">
     <g id="line2d_15">
      <path clip-path="url(#p2c0ef8c492)" d="M 57.6 230.203453 
L 414.72 230.203453 
" style="fill:none;stroke:#b0b0b0;stroke-linecap:square;stroke-width:0.8;"/>
     </g>
     <g id="line2d_16">
      <g>
       <use style="stroke:#000000;stroke-width:0.8;" x="57.6" xlink:href="#mc13818ad23" y="230.203453"/>
      </g>
     </g>
     <g id="text_9">
      <!-- 25 -->
      <g transform="translate(37.875 234.002672)scale(0.1 -0.1)">
       <use xlink:href="#DejaVuSans-50"/>
       <use x="63.623047" xlink:href="#DejaVuSans-53"/>
      </g>
     </g>
    </g>
    <g id="ytick_3">
     <g id="line2d_17">
      <path clip-path="url(#p2c0ef8c492)" d="M 57.6 178.251849 
L 414.72 178.251849 
" style="fill:none;stroke:#b0b0b0;stroke-linecap:square;stroke-width:0.8;"/>
     </g>
     <g id="line2d_18">
      <g>
       <use style="stroke:#000000;stroke-width:0.8;" x="57.6" xlink:href="#mc13818ad23" y="178.251849"/>
      </g>
     </g>
     <g id="text_10">
      <!-- 30 -->
      <g transform="translate(37.875 182.051068)scale(0.1 -0.1)">
       <use xlink:href="#DejaVuSans-51"/>
       <use x="63.623047" xlink:href="#DejaVuSans-48"/>
      </g>
     </g>
    </g>
    <g id="ytick_4">
     <g id="line2d_19">
      <path clip-path="url(#p2c0ef8c492)" d="M 57.6 126.300245 
L 414.72 126.300245 
" style="fill:none;stroke:#b0b0b0;stroke-linecap:square;stroke-width:0.8;"/>
     </g>
     <g id="line2d_20">
      <g>
       <use style="stroke:#000000;stroke-width:0.8;" x="57.6" xlink:href="#mc13818ad23" y="126.300245"/>
      </g>
     </g>
     <g id="text_11">
      <!-- 35 -->
      <g transform="translate(37.875 130.099464)scale(0.1 -0.1)">
       <use xlink:href="#DejaVuSans-51"/>
       <use x="63.623047" xlink:href="#DejaVuSans-53"/>
      </g>
     </g>
    </g>
    <g id="ytick_5">
     <g id="line2d_21">
      <path clip-path="url(#p2c0ef8c492)" d="M 57.6 74.348642 
L 414.72 74.348642 
" style="fill:none;stroke:#b0b0b0;stroke-linecap:square;stroke-width:0.8;"/>
     </g>
     <g id="line2d_22">
      <g>
       <use style="stroke:#000000;stroke-width:0.8;" x="57.6" xlink:href="#mc13818ad23" y="74.348642"/>
      </g>
     </g>
     <g id="text_12">
      <!-- 40 -->
      <g transform="translate(37.875 78.14786)scale(0.1 -0.1)">
       <use xlink:href="#DejaVuSans-52"/>
       <use x="63.623047" xlink:href="#DejaVuSans-48"/>
      </g>
     </g>
    </g>
    <g id="text_13">
     <!-- Fitness -->
     <defs>
      <path d="M 9.8125 72.90625 
L 51.703125 72.90625 
L 51.703125 64.59375 
L 19.671875 64.59375 
L 19.671875 43.109375 
L 48.578125 43.109375 
L 48.578125 34.8125 
L 19.671875 34.8125 
L 19.671875 0 
L 9.8125 0 
z
" id="DejaVuSans-70"/>
     </defs>
     <g transform="translate(31.795312 192.202219)rotate(-90)scale(0.1 -0.1)">
      <use xlink:href="#DejaVuSans-70"/>
      <use x="57.410156" xlink:href="#DejaVuSans-105"/>
      <use x="85.193359" xlink:href="#DejaVuSans-116"/>
      <use x="124.402344" xlink:href="#DejaVuSans-110"/>
      <use x="187.78125" xlink:href="#DejaVuSans-101"/>
      <use x="249.304688" xlink:href="#DejaVuSans-115"/>
      <use x="301.404297" xlink:href="#DejaVuSans-115"/>
     </g>
    </g>
   </g>
   <g id="line2d_23">
    <path clip-path="url(#p2c0ef8c492)" d="M 73.832727 289.038645 
L 74.483338 295.488 
L 75.133948 294.298583 
L 76.435169 288.872032 
L 77.085779 289.76413 
L 77.736389 289.895846 
L 78.386999 285.164848 
L 79.03761 289.316306 
L 79.68822 288.65223 
L 80.33883 286.672588 
L 80.989441 290.731606 
L 81.640051 285.919292 
L 82.941272 283.9825 
L 83.591882 283.765557 
L 84.242492 287.231244 
L 84.893103 287.521197 
L 85.543713 283.873558 
L 86.194323 282.776922 
L 86.844934 288.184673 
L 87.495544 282.667826 
L 88.146154 285.80499 
L 88.796764 285.364219 
L 89.447375 281.21293 
L 90.097985 287.948126 
L 90.748595 286.707517 
L 91.399206 281.255108 
L 92.049816 281.993549 
L 93.351037 280.210202 
L 94.001647 285.662787 
L 94.652257 284.719922 
L 95.302868 284.300322 
L 95.953478 281.787722 
L 96.604088 280.280515 
L 97.254698 281.337545 
L 97.905309 280.915603 
L 98.555919 276.972983 
L 100.50775 284.631374 
L 101.15836 283.562613 
L 101.808971 280.568749 
L 102.459581 282.233573 
L 103.110191 285.416829 
L 103.760802 279.249955 
L 104.411412 275.459073 
L 105.062022 276.530222 
L 105.712633 276.672727 
L 106.363243 274.336341 
L 107.013853 279.550967 
L 107.664463 278.993912 
L 108.315074 272.910536 
L 108.965684 273.733974 
L 109.616294 275.95188 
L 110.266905 271.427051 
L 110.917515 270.210075 
L 111.568125 270.391452 
L 112.218736 266.78982 
L 112.869346 266.945286 
L 113.519956 274.342786 
L 114.170567 266.790924 
L 114.821177 268.050197 
L 115.471787 271.73889 
L 116.122398 265.001959 
L 116.773008 265.001959 
L 117.423618 266.530709 
L 118.074228 265.228469 
L 118.724839 263.535811 
L 119.375449 264.924877 
L 120.026059 259.599185 
L 120.67667 262.725157 
L 121.32728 267.385773 
L 121.97789 266.673479 
L 122.628501 261.400327 
L 123.279111 252.62057 
L 123.929721 255.425957 
L 124.580332 260.439287 
L 125.230942 258.387198 
L 125.881552 253.963863 
L 126.532163 261.843152 
L 127.182773 264.517488 
L 127.833383 256.387062 
L 128.483993 253.989774 
L 129.785214 258.848448 
L 130.435824 260.257456 
L 131.086435 257.114384 
L 131.737045 260.621117 
L 132.387655 260.127577 
L 133.038266 259.114521 
L 133.688876 261.556246 
L 134.339486 263.244673 
L 134.990097 258.595005 
L 135.640707 257.426094 
L 136.941927 262.569302 
L 137.592538 258.595005 
L 138.243148 257.14036 
L 138.893758 262.906988 
L 139.544369 257.348166 
L 140.194979 259.919771 
L 140.845589 260.491238 
L 141.4962 260.387335 
L 142.14681 258.646956 
L 142.79742 260.72502 
L 143.448031 256.802674 
L 144.098641 257.088408 
L 144.749251 258.205368 
L 145.399862 257.478045 
L 146.050472 258.491101 
L 146.701082 260.595141 
L 147.351692 255.114247 
L 148.002303 261.997835 
L 148.652913 262.049786 
L 149.303523 261.919907 
L 149.954134 260.569166 
L 150.604744 252.204957 
L 151.255354 261.84198 
L 151.905965 263.478455 
L 152.556575 254.23107 
L 153.207185 255.815594 
L 153.857796 253.192038 
L 154.508406 261.296488 
L 155.159016 266.102011 
L 155.809627 254.308997 
L 156.460237 251.529587 
L 157.110847 260.984778 
L 157.761457 258.880739 
L 158.412068 259.140497 
L 159.062678 255.374005 
L 159.713288 249.243716 
L 160.363899 248.646273 
L 161.014509 250.464579 
L 161.665119 255.088271 
L 162.31573 247.815047 
L 162.96634 246.957845 
L 163.61695 239.528766 
L 164.267561 243.373185 
L 164.918171 243.71087 
L 165.568781 242.230249 
L 166.219392 235.242759 
L 166.870002 241.399024 
L 168.171222 232.281517 
L 168.821833 230.9048 
L 169.472443 238.749492 
L 170.123053 238.489734 
L 170.773664 237.346799 
L 171.424274 238.723516 
L 172.074884 237.788387 
L 172.725495 240.022306 
L 173.376105 232.956888 
L 174.026715 231.502243 
L 174.677326 236.827283 
L 175.327936 238.879371 
L 175.978546 235.554468 
L 176.629156 241.866588 
L 177.279767 244.412217 
L 177.930377 236.437646 
L 178.580987 239.866451 
L 179.231598 237.554605 
L 179.882208 232.852985 
L 180.532818 234.047872 
L 181.183429 234.359581 
L 181.834039 231.476267 
L 182.484649 236.775331 
L 183.13526 234.879098 
L 183.78587 239.580718 
L 184.43648 238.983274 
L 185.087091 238.957298 
L 185.737701 234.021896 
L 186.388311 236.853258 
L 187.038921 234.515436 
L 187.689532 230.930776 
L 188.340142 233.476404 
L 188.990752 228.437099 
L 189.641363 234.905073 
L 190.291973 235.268735 
L 190.942583 233.762138 
L 191.593194 237.113016 
L 192.243804 232.307493 
L 192.894414 234.463485 
L 193.545025 237.009113 
L 194.195635 236.489597 
L 194.846245 240.12621 
L 195.496856 236.255815 
L 196.147466 239.658645 
L 196.798076 247.243579 
L 197.448686 235.424589 
L 198.099297 234.697267 
L 198.749907 235.996057 
L 199.400517 238.307903 
L 200.051128 243.191354 
L 200.701738 234.723243 
L 201.352348 234.411533 
L 202.002959 236.827283 
L 202.653569 232.489324 
L 203.304179 237.788387 
L 203.95479 226.177204 
L 204.6054 230.956751 
L 205.25601 238.827419 
L 205.906621 240.957435 
L 206.557231 239.970355 
L 207.207841 238.463758 
L 207.858451 236.333742 
L 208.509062 230.852848 
L 209.159672 235.320686 
L 209.810282 236.177888 
L 210.460893 235.216783 
L 211.111503 233.268598 
L 211.762113 238.723516 
L 212.412724 233.112743 
L 213.063334 238.152049 
L 213.713944 231.554195 
L 214.364555 233.554332 
L 215.015165 233.632259 
L 215.665775 238.775468 
L 216.316385 234.853122 
L 216.966996 236.177888 
L 217.617606 234.905073 
L 218.268216 232.619203 
L 218.918827 234.333606 
L 219.569437 234.879098 
L 220.220047 229.320276 
L 220.870658 231.164558 
L 221.521268 235.268735 
L 222.171878 234.853122 
L 222.822489 234.203727 
L 223.473099 236.723379 
L 224.123709 235.190807 
L 224.77432 234.983001 
L 226.07554 241.970491 
L 226.72615 236.281791 
L 227.376761 233.788114 
L 228.027371 232.723106 
L 228.677981 240.230113 
L 229.328592 235.762275 
L 229.979202 232.5153 
L 230.629812 234.541412 
L 231.280423 235.502517 
L 231.931033 235.788251 
L 232.581643 239.632669 
L 233.232254 234.177751 
L 233.882864 236.463621 
L 234.533474 233.969944 
L 235.184085 237.71046 
L 235.834695 235.840202 
L 236.485305 233.00884 
L 237.135915 237.242896 
L 237.786526 229.528082 
L 239.738357 239.840476 
L 240.388967 231.372364 
L 241.039577 243.451112 
L 241.690188 242.230249 
L 242.340798 234.255678 
L 242.991408 237.554605 
L 243.642019 234.437509 
L 244.292629 233.294574 
L 244.943239 234.437509 
L 245.59385 236.5935 
L 246.24446 231.839929 
L 246.89507 234.463485 
L 247.54568 236.41167 
L 248.196291 236.255815 
L 248.846901 237.242896 
L 249.497511 241.373048 
L 250.148122 233.632259 
L 250.798732 237.346799 
L 251.449342 237.554605 
L 252.099953 239.528766 
L 252.750563 230.203453 
L 253.401173 235.320686 
L 254.702394 239.918403 
L 255.353004 233.917993 
L 256.003615 229.554058 
L 256.654225 232.930912 
L 257.304835 230.021623 
L 257.955445 235.372638 
L 258.606056 234.437509 
L 259.256666 239.658645 
L 259.907276 233.242622 
L 260.557887 234.125799 
L 261.208497 235.502517 
L 261.859107 238.931323 
L 262.509718 238.619613 
L 263.160328 236.437646 
L 263.810938 243.035499 
L 264.461549 241.191217 
L 265.112159 236.619476 
L 265.762769 238.307903 
L 266.413379 234.541412 
L 267.06399 234.905073 
L 267.7146 235.710323 
L 268.36521 228.852711 
L 269.015821 237.268871 
L 269.666431 235.996057 
L 270.317041 235.788251 
L 270.967652 236.022033 
L 271.618262 234.047872 
L 272.268872 239.476814 
L 272.919483 233.086767 
L 273.570093 241.866588 
L 274.220703 235.190807 
L 274.871314 234.957025 
L 276.172534 234.021896 
L 276.823144 233.060791 
L 277.473755 237.528629 
L 278.124365 235.762275 
L 279.425586 241.892564 
L 280.076196 236.645452 
L 280.726806 239.450839 
L 281.377417 241.476951 
L 282.028027 240.567798 
L 282.678637 244.20441 
L 283.329248 234.61934 
L 283.979858 233.450428 
L 284.630468 233.762138 
L 285.281079 237.164968 
L 285.931689 237.580581 
L 286.582299 241.450975 
L 287.232909 240.80158 
L 287.88352 234.671291 
L 288.53413 237.294847 
L 289.18474 241.217193 
L 289.835351 239.580718 
L 290.485961 243.009524 
L 291.136571 237.39875 
L 291.787182 235.29471 
L 292.437792 243.087451 
L 293.088402 230.125526 
L 293.739013 234.515436 
L 294.389623 236.41167 
L 295.040233 227.060381 
L 295.690844 235.658372 
L 296.341454 238.359855 
L 296.992064 233.969944 
L 297.642674 233.632259 
L 298.293285 229.086494 
L 299.594505 233.060791 
L 300.245116 236.255815 
L 300.895726 242.178298 
L 301.546336 236.229839 
L 302.847557 228.930639 
L 303.498167 239.243032 
L 304.148778 242.671838 
L 304.799388 232.5153 
L 305.449998 233.969944 
L 306.100608 236.775331 
L 306.751219 234.203727 
L 307.401829 235.372638 
L 308.052439 232.567251 
L 308.70305 234.749219 
L 309.35366 238.489734 
L 310.00427 234.879098 
L 310.654881 237.502654 
L 311.305491 232.177614 
L 311.956101 237.39875 
L 312.606712 234.879098 
L 313.257322 235.502517 
L 313.907932 229.761865 
L 314.558543 233.866041 
L 315.209153 233.138719 
L 315.859763 229.008566 
L 316.510373 236.983137 
L 317.160984 236.385694 
L 317.811594 240.437919 
L 318.462204 233.606283 
L 319.112815 240.645726 
L 319.763425 233.866041 
L 320.414035 236.671428 
L 321.064646 236.463621 
L 321.715256 231.89188 
L 322.365866 234.437509 
L 323.016477 235.398614 
L 323.667087 237.242896 
L 324.317697 242.204274 
L 324.968308 232.878961 
L 325.618918 233.99592 
L 326.269528 237.190944 
L 326.920138 230.800897 
L 327.570749 235.736299 
L 328.221359 236.879234 
L 328.871969 232.307493 
L 329.52258 243.555015 
L 330.17319 237.268871 
L 330.8238 238.879371 
L 331.474411 239.269008 
L 332.125021 235.398614 
L 332.775631 239.087177 
L 334.076852 235.11288 
L 334.727462 234.957025 
L 335.378073 242.697814 
L 336.028683 231.632122 
L 336.679293 233.632259 
L 337.329903 239.165105 
L 337.980514 232.593227 
L 338.631124 235.164831 
L 339.281734 234.697267 
L 339.932345 236.125936 
L 340.582955 228.255268 
L 341.233565 233.00884 
L 341.884176 231.242485 
L 342.534786 232.723106 
L 343.185396 240.489871 
L 343.836007 232.930912 
L 344.486617 231.736025 
L 345.137227 234.463485 
L 345.787837 233.450428 
L 346.438448 244.671975 
L 347.089058 247.42541 
L 347.739668 236.385694 
L 348.390279 237.242896 
L 349.040889 240.178161 
L 349.691499 242.048419 
L 350.34211 236.203863 
L 350.99272 239.970355 
L 351.64333 238.879371 
L 352.293941 238.69754 
L 352.944551 235.944105 
L 353.595161 237.918266 
L 354.245772 235.710323 
L 354.896382 234.957025 
L 355.546992 236.333742 
L 356.197602 240.827556 
L 356.848213 235.11288 
L 357.498823 238.879371 
L 358.149433 236.022033 
L 358.800044 234.905073 
L 359.450654 234.073848 
L 360.101264 232.125663 
L 360.751875 235.892154 
L 361.402485 235.814226 
L 362.053095 238.671565 
L 362.703706 238.983274 
L 363.354316 233.50238 
L 364.004926 234.125799 
L 364.655537 231.787977 
L 365.306147 236.541549 
L 365.956757 234.515436 
L 366.607367 241.191217 
L 367.257978 236.125936 
L 367.908588 234.723243 
L 368.559198 238.152049 
L 369.209809 224.90439 
L 369.860419 237.502654 
L 370.511029 233.762138 
L 371.16164 238.411807 
L 371.81225 226.488913 
L 372.46286 238.333879 
L 373.113471 229.865768 
L 373.764081 234.61934 
L 374.414691 237.113016 
L 375.065302 238.229976 
L 375.715912 231.372364 
L 376.366522 233.892017 
L 377.017132 232.489324 
L 377.667743 238.100097 
L 378.318353 235.398614 
L 378.968963 233.424453 
L 380.270184 231.112606 
L 380.920794 235.060928 
L 381.571405 235.164831 
L 382.222015 231.372364 
L 382.872625 225.112196 
L 383.523236 235.814226 
L 384.173846 235.736299 
L 384.824456 234.411533 
L 385.475066 237.918266 
L 386.125677 237.866315 
L 386.776287 233.580307 
L 387.426897 243.243306 
L 388.077508 232.567251 
L 388.728118 240.100234 
L 389.378728 234.177751 
L 390.029339 231.112606 
L 390.679949 237.424726 
L 391.330559 237.138992 
L 391.98117 233.99592 
L 392.63178 229.450155 
L 393.28239 237.242896 
L 393.933001 236.723379 
L 394.583611 233.19067 
L 395.234221 239.658645 
L 395.884831 235.814226 
L 396.535442 234.177751 
L 397.186052 244.100507 
L 397.836662 232.411396 
L 398.487273 239.191081 
L 398.487273 239.191081 
" style="fill:none;stroke:#0000ff;stroke-linecap:square;stroke-width:1.5;"/>
   </g>
   <g id="line2d_24">
    <path clip-path="url(#p2c0ef8c492)" d="M 73.832727 249.571023 
L 74.483338 250.811173 
L 75.133948 248.451138 
L 75.784558 247.378677 
L 76.435169 242.632997 
L 77.085779 245.325631 
L 77.736389 244.314449 
L 78.386999 235.409201 
L 79.03761 243.667529 
L 79.68822 244.326145 
L 80.33883 240.021563 
L 80.989441 243.603719 
L 81.640051 239.173287 
L 82.290661 238.786259 
L 82.941272 236.660394 
L 83.591882 235.754882 
L 84.893103 241.311896 
L 85.543713 235.796225 
L 86.194323 232.085461 
L 86.844934 241.735776 
L 87.495544 235.959949 
L 88.146154 233.394841 
L 88.796764 238.12634 
L 89.447375 231.489947 
L 90.097985 239.856361 
L 90.748595 237.287955 
L 91.399206 228.359922 
L 92.049816 227.038818 
L 92.700426 227.149649 
L 93.351037 226.247857 
L 94.001647 232.382385 
L 94.652257 230.052478 
L 95.302868 234.675684 
L 95.953478 228.72114 
L 96.604088 228.138135 
L 97.254698 230.128162 
L 97.905309 226.036472 
L 98.555919 223.214855 
L 99.206529 222.378192 
L 99.85714 229.404636 
L 100.50775 231.098364 
L 101.15836 230.41292 
L 101.808971 225.53131 
L 102.459581 225.068427 
L 103.110191 232.707721 
L 103.760802 222.087216 
L 104.411412 216.549358 
L 105.062022 217.196857 
L 105.712633 216.053258 
L 106.363243 215.701188 
L 107.013853 223.077689 
L 107.664463 219.913833 
L 108.315074 212.510367 
L 108.965684 216.678334 
L 109.616294 217.288048 
L 110.917515 208.990214 
L 111.568125 209.886042 
L 112.218736 203.123084 
L 112.869346 199.095053 
L 113.519956 210.681451 
L 114.170567 204.924827 
L 114.821177 203.088092 
L 115.471787 208.140987 
L 116.122398 201.6042 
L 116.773008 199.154536 
L 117.423618 201.165211 
L 118.074228 196.422585 
L 118.724839 201.892804 
L 119.375449 198.444269 
L 120.026059 193.929659 
L 120.67667 200.203307 
L 121.32728 198.997935 
L 121.97789 199.63787 
L 122.628501 190.058359 
L 123.279111 184.314429 
L 124.580332 194.678406 
L 125.230942 192.382205 
L 125.881552 185.970352 
L 126.532163 194.031317 
L 127.182773 199.004069 
L 127.833383 189.763631 
L 128.483993 184.236401 
L 129.134604 190.035176 
L 129.785214 188.891508 
L 130.435824 194.781167 
L 131.086435 189.105865 
L 131.737045 189.965222 
L 132.387655 190.082942 
L 133.038266 190.518575 
L 134.339486 193.985099 
L 134.990097 191.077149 
L 135.640707 184.371276 
L 136.291317 192.363872 
L 136.941927 197.051121 
L 137.592538 191.121135 
L 138.243148 190.832166 
L 138.893758 196.587154 
L 139.544369 186.787756 
L 140.194979 192.103205 
L 140.845589 193.396974 
L 141.4962 191.468897 
L 142.79742 191.914268 
L 143.448031 190.279138 
L 144.098641 189.970359 
L 144.749251 191.551662 
L 145.399862 189.507258 
L 146.050472 190.297428 
L 146.701082 192.902879 
L 147.351692 188.207928 
L 148.002303 191.721773 
L 148.652913 193.824235 
L 149.303523 195.049702 
L 149.954134 192.256071 
L 150.604744 181.563235 
L 151.255354 194.158809 
L 151.905965 196.252603 
L 152.556575 187.473891 
L 153.207185 191.640095 
L 153.857796 185.86521 
L 154.508406 192.667303 
L 155.159016 198.013315 
L 155.809627 187.042122 
L 156.460237 184.72803 
L 157.110847 193.438827 
L 157.761457 189.236596 
L 158.412068 190.612589 
L 159.062678 187.829732 
L 159.713288 180.432297 
L 161.014509 185.574967 
L 161.665119 189.691973 
L 162.31573 179.56086 
L 162.96634 181.761299 
L 163.61695 177.323803 
L 164.267561 177.097969 
L 164.918171 176.113868 
L 165.568781 177.083109 
L 166.219392 170.802014 
L 166.870002 174.802422 
L 167.520612 172.485485 
L 168.171222 168.88353 
L 168.821833 163.010637 
L 169.472443 177.914192 
L 170.123053 174.852523 
L 170.773664 173.651638 
L 171.424274 173.382028 
L 172.074884 172.010927 
L 172.725495 175.671924 
L 173.376105 169.977679 
L 174.026715 169.577871 
L 174.677326 171.128656 
L 175.327936 172.289837 
L 175.978546 171.897513 
L 176.629156 176.889694 
L 177.279767 175.090442 
L 177.930377 172.0009 
L 178.580987 174.465098 
L 179.231598 173.145557 
L 179.882208 167.06496 
L 180.532818 169.570845 
L 181.183429 169.588619 
L 181.834039 166.039933 
L 182.484649 172.693544 
L 183.13526 171.790511 
L 183.78587 174.420901 
L 184.43648 172.834396 
L 185.087091 173.310783 
L 185.737701 168.248257 
L 186.388311 173.864943 
L 187.038921 170.093122 
L 187.689532 164.526058 
L 188.340142 170.552073 
L 188.990752 165.242847 
L 189.641363 169.617186 
L 190.291973 169.748024 
L 190.942583 165.699435 
L 191.593194 173.449278 
L 192.243804 169.498461 
L 192.894414 170.970293 
L 193.545025 171.228473 
L 194.195635 170.293407 
L 194.846245 171.756655 
L 195.496856 170.728226 
L 196.147466 172.782663 
L 196.798076 181.238131 
L 197.448686 171.374356 
L 198.099297 173.275227 
L 198.749907 173.358972 
L 199.400517 170.629817 
L 200.051128 177.192367 
L 200.701738 169.420449 
L 201.352348 168.91049 
L 202.002959 174.311481 
L 202.653569 168.239996 
L 203.304179 172.397764 
L 203.95479 163.716472 
L 204.6054 168.168563 
L 205.25601 173.864146 
L 205.906621 173.245719 
L 206.557231 178.560658 
L 207.207841 174.049656 
L 207.858451 171.778235 
L 208.509062 167.375221 
L 209.159672 170.888177 
L 209.810282 172.716606 
L 210.460893 168.455682 
L 211.111503 171.045431 
L 211.762113 175.259491 
L 212.412724 171.090621 
L 213.063334 176.62084 
L 213.713944 166.381865 
L 214.364555 166.830596 
L 215.015165 169.404359 
L 215.665775 174.645742 
L 216.316385 170.389371 
L 216.966996 170.193726 
L 217.617606 171.987632 
L 218.268216 170.60418 
L 218.918827 170.199572 
L 219.569437 172.293045 
L 220.220047 163.933223 
L 220.870658 165.623996 
L 221.521268 170.547925 
L 222.171878 171.351136 
L 222.822489 169.443786 
L 223.473099 175.788118 
L 224.123709 170.863392 
L 224.77432 173.505658 
L 225.42493 174.417171 
L 226.07554 175.606557 
L 227.376761 170.512873 
L 228.027371 170.503653 
L 228.677981 173.203463 
L 229.328592 170.329008 
L 229.979202 168.847136 
L 230.629812 170.674152 
L 231.280423 166.898934 
L 231.931033 173.668735 
L 232.581643 172.940937 
L 233.232254 170.748954 
L 233.882864 173.467514 
L 234.533474 168.390561 
L 235.184085 171.419323 
L 236.485305 167.519232 
L 237.135915 171.52176 
L 237.786526 167.441438 
L 238.437136 169.048516 
L 239.087746 173.796342 
L 239.738357 173.821254 
L 240.388967 166.93575 
L 241.039577 177.532429 
L 241.690188 178.575059 
L 242.340798 172.446019 
L 242.991408 174.334012 
L 243.642019 169.158965 
L 244.292629 168.229265 
L 245.59385 173.952037 
L 246.24446 167.897069 
L 246.89507 168.714917 
L 247.54568 171.229076 
L 248.196291 169.310217 
L 248.846901 173.837676 
L 249.497511 176.170681 
L 250.148122 169.270029 
L 250.798732 174.836394 
L 251.449342 172.511742 
L 252.099953 174.291125 
L 252.750563 169.324685 
L 253.401173 167.385193 
L 254.051784 171.748184 
L 254.702394 176.882651 
L 255.353004 169.910164 
L 256.003615 168.283231 
L 257.304835 167.630196 
L 257.955445 170.647533 
L 258.606056 167.051297 
L 259.256666 176.110217 
L 259.907276 167.276813 
L 260.557887 168.45684 
L 261.859107 173.666873 
L 262.509718 175.022786 
L 263.160328 174.447386 
L 263.810938 181.477978 
L 264.461549 176.341802 
L 265.112159 172.779267 
L 265.762769 171.073937 
L 266.413379 170.949429 
L 267.06399 168.198127 
L 267.7146 170.289164 
L 268.36521 164.761948 
L 269.015821 172.842515 
L 269.666431 169.241425 
L 270.317041 172.221398 
L 270.967652 171.450223 
L 271.618262 169.957109 
L 272.268872 174.763428 
L 272.919483 168.737628 
L 273.570093 175.708311 
L 274.220703 170.257869 
L 274.871314 170.958895 
L 275.521924 169.715364 
L 276.172534 172.313149 
L 276.823144 168.448888 
L 277.473755 172.472463 
L 278.124365 169.423697 
L 278.774975 173.67498 
L 279.425586 175.014584 
L 280.076196 171.520765 
L 280.726806 174.927951 
L 281.377417 179.353802 
L 282.028027 175.495438 
L 282.678637 179.253067 
L 283.329248 171.255951 
L 283.979858 167.962681 
L 284.630468 166.017411 
L 285.281079 172.463964 
L 285.931689 170.850854 
L 286.582299 178.001332 
L 287.232909 176.402878 
L 287.88352 168.813458 
L 288.53413 166.163487 
L 289.18474 174.337579 
L 289.835351 174.296757 
L 290.485961 176.516793 
L 291.136571 172.980485 
L 291.787182 170.925101 
L 292.437792 179.17017 
L 293.088402 167.075501 
L 293.739013 172.305457 
L 294.389623 172.075114 
L 295.040233 160.282061 
L 295.690844 172.235378 
L 296.341454 172.123068 
L 296.992064 171.800483 
L 297.642674 171.985951 
L 298.293285 165.263409 
L 298.943895 168.563785 
L 299.594505 167.458133 
L 300.245116 169.674048 
L 300.895726 178.568449 
L 301.546336 170.091061 
L 302.196947 169.946961 
L 302.847557 162.629731 
L 303.498167 172.974205 
L 304.148778 174.064242 
L 304.799388 172.078818 
L 305.449998 168.848992 
L 306.100608 171.359664 
L 306.751219 169.895468 
L 307.401829 169.699569 
L 308.052439 167.770672 
L 308.70305 167.191281 
L 309.35366 171.61408 
L 310.00427 171.61962 
L 310.654881 173.259716 
L 311.305491 167.867572 
L 311.956101 176.481917 
L 312.606712 167.300065 
L 313.257322 173.290693 
L 313.907932 166.773298 
L 314.558543 171.154414 
L 315.209153 168.678778 
L 315.859763 162.744891 
L 316.510373 173.545363 
L 317.160984 172.494958 
L 317.811594 174.281861 
L 318.462204 169.64439 
L 319.112815 177.19244 
L 319.763425 168.157433 
L 321.064646 174.99849 
L 321.715256 166.970171 
L 322.365866 169.36602 
L 323.016477 169.368963 
L 323.667087 173.646413 
L 324.317697 180.274148 
L 324.968308 166.632054 
L 325.618918 170.27794 
L 326.269528 172.607562 
L 326.920138 169.108115 
L 327.570749 173.058508 
L 328.221359 174.580883 
L 328.871969 171.14433 
L 329.52258 178.092882 
L 330.17319 169.745695 
L 330.8238 175.40244 
L 331.474411 174.622136 
L 332.125021 171.138029 
L 332.775631 177.006445 
L 333.426242 170.667291 
L 334.076852 172.477906 
L 334.727462 170.03357 
L 335.378073 179.802898 
L 336.028683 166.596189 
L 336.679293 168.947943 
L 337.329903 173.501406 
L 337.980514 168.012473 
L 338.631124 171.233116 
L 339.281734 171.320191 
L 339.932345 169.908445 
L 340.582955 163.883609 
L 341.233565 169.989082 
L 341.884176 165.67635 
L 342.534786 168.876556 
L 343.185396 178.265034 
L 344.486617 163.435377 
L 345.137227 171.396805 
L 345.787837 171.164946 
L 346.438448 176.670168 
L 347.089058 183.789302 
L 347.739668 168.251032 
L 348.390279 171.022638 
L 349.040889 174.334017 
L 349.691499 178.399414 
L 350.34211 171.196654 
L 350.99272 177.817995 
L 351.64333 172.362833 
L 352.293941 172.16768 
L 352.944551 175.258722 
L 353.595161 175.122384 
L 354.245772 169.984584 
L 354.896382 166.472913 
L 355.546992 168.975207 
L 356.197602 175.676853 
L 356.848213 173.062354 
L 357.498823 172.986569 
L 358.149433 173.717871 
L 358.800044 168.628391 
L 359.450654 171.491035 
L 360.101264 168.078984 
L 360.751875 169.395932 
L 361.402485 172.426116 
L 362.053095 173.211905 
L 362.703706 176.497804 
L 363.354316 166.224196 
L 364.655537 170.393363 
L 365.306147 171.249398 
L 365.956757 167.630677 
L 366.607367 177.297762 
L 367.257978 172.206375 
L 367.908588 172.493309 
L 368.559198 173.963093 
L 369.209809 164.829014 
L 369.860419 172.707532 
L 370.511029 168.633643 
L 371.16164 174.133668 
L 371.81225 164.58606 
L 372.46286 177.543671 
L 373.113471 166.509136 
L 374.414691 173.951509 
L 375.065302 172.80746 
L 375.715912 169.644026 
L 376.366522 172.713428 
L 377.017132 171.273137 
L 377.667743 171.89296 
L 378.318353 166.735965 
L 378.968963 167.049167 
L 379.619574 168.585031 
L 380.270184 169.009385 
L 380.920794 172.073861 
L 381.571405 169.438768 
L 382.222015 166.269029 
L 382.872625 159.484426 
L 383.523236 170.216485 
L 384.173846 174.083123 
L 384.824456 170.18794 
L 385.475066 171.569585 
L 386.125677 170.562541 
L 386.776287 168.830704 
L 387.426897 174.196536 
L 388.077508 167.920796 
L 388.728118 174.480407 
L 389.378728 169.34332 
L 390.029339 168.047687 
L 390.679949 174.830503 
L 391.330559 171.534221 
L 391.98117 171.674108 
L 392.63178 168.228992 
L 393.28239 172.853504 
L 393.933001 172.484854 
L 394.583611 168.611802 
L 395.234221 173.415237 
L 395.884831 170.52993 
L 396.535442 171.201611 
L 397.186052 177.660443 
L 397.836662 167.115572 
L 398.487273 171.8607 
L 398.487273 171.8607 
" style="fill:none;stroke:#008000;stroke-dasharray:9.6,2.4,1.5,2.4;stroke-dashoffset:0;stroke-width:1.5;"/>
   </g>
   <g id="line2d_25">
    <path clip-path="url(#p2c0ef8c492)" d="M 73.832727 157.471208 
L 74.483338 188.64217 
L 75.133948 105.519604 
L 75.784558 126.300245 
L 76.435169 115.909925 
L 77.085779 157.471208 
L 77.736389 126.300245 
L 78.386999 126.300245 
L 79.03761 157.471208 
L 79.68822 126.300245 
L 80.33883 115.909925 
L 80.989441 115.909925 
L 81.640051 105.519604 
L 82.290661 136.690566 
L 82.941272 136.690566 
L 84.242492 115.909925 
L 84.893103 126.300245 
L 85.543713 95.129283 
L 86.194323 105.519604 
L 86.844934 136.690566 
L 87.495544 136.690566 
L 88.146154 115.909925 
L 88.796764 126.300245 
L 89.447375 147.080887 
L 90.097985 115.909925 
L 90.748595 115.909925 
L 91.399206 95.129283 
L 92.049816 126.300245 
L 92.700426 84.738962 
L 93.351037 126.300245 
L 94.001647 95.129283 
L 94.652257 95.129283 
L 95.302868 136.690566 
L 95.953478 105.519604 
L 97.254698 126.300245 
L 98.555919 105.519604 
L 99.206529 126.300245 
L 99.85714 126.300245 
L 100.50775 95.129283 
L 101.15836 105.519604 
L 101.808971 136.690566 
L 102.459581 95.129283 
L 103.110191 126.300245 
L 103.760802 115.909925 
L 104.411412 95.129283 
L 105.062022 95.129283 
L 105.712633 105.519604 
L 106.363243 126.300245 
L 107.013853 115.909925 
L 107.664463 115.909925 
L 108.315074 126.300245 
L 108.965684 126.300245 
L 109.616294 115.909925 
L 110.266905 95.129283 
L 110.917515 84.738962 
L 111.568125 115.909925 
L 112.218736 115.909925 
L 112.869346 63.958321 
L 113.519956 105.519604 
L 114.170567 115.909925 
L 114.821177 115.909925 
L 115.471787 84.738962 
L 116.122398 115.909925 
L 116.773008 95.129283 
L 117.423618 105.519604 
L 118.074228 105.519604 
L 118.724839 115.909925 
L 119.375449 95.129283 
L 120.67667 115.909925 
L 121.32728 84.738962 
L 121.97789 74.348642 
L 122.628501 84.738962 
L 123.279111 105.519604 
L 123.929721 95.129283 
L 124.580332 115.909925 
L 125.230942 105.519604 
L 125.881552 105.519604 
L 126.532163 95.129283 
L 127.182773 63.958321 
L 127.833383 95.129283 
L 128.483993 105.519604 
L 129.134604 84.738962 
L 129.785214 95.129283 
L 131.086435 95.129283 
L 131.737045 115.909925 
L 132.387655 84.738962 
L 133.038266 105.519604 
L 133.688876 95.129283 
L 134.339486 105.519604 
L 134.990097 84.738962 
L 135.640707 53.568 
L 136.291317 105.519604 
L 137.592538 105.519604 
L 138.243148 84.738962 
L 138.893758 105.519604 
L 139.544369 95.129283 
L 140.194979 74.348642 
L 141.4962 95.129283 
L 142.14681 84.738962 
L 142.79742 105.519604 
L 143.448031 115.909925 
L 144.098641 95.129283 
L 144.749251 95.129283 
L 145.399862 84.738962 
L 146.050472 115.909925 
L 146.701082 63.958321 
L 147.351692 126.300245 
L 148.002303 115.909925 
L 148.652913 74.348642 
L 149.303523 105.519604 
L 149.954134 126.300245 
L 150.604744 105.519604 
L 151.255354 126.300245 
L 151.905965 63.958321 
L 152.556575 95.129283 
L 153.207185 95.129283 
L 153.857796 115.909925 
L 154.508406 105.519604 
L 155.159016 115.909925 
L 155.809627 115.909925 
L 156.460237 95.129283 
L 157.110847 115.909925 
L 157.761457 95.129283 
L 158.412068 115.909925 
L 159.062678 84.738962 
L 159.713288 105.519604 
L 160.363899 84.738962 
L 161.014509 126.300245 
L 162.31573 84.738962 
L 162.96634 74.348642 
L 163.61695 105.519604 
L 164.267561 105.519604 
L 164.918171 84.738962 
L 165.568781 84.738962 
L 166.219392 95.129283 
L 166.870002 115.909925 
L 167.520612 53.568 
L 168.171222 105.519604 
L 168.821833 84.738962 
L 169.472443 115.909925 
L 170.123053 105.519604 
L 170.773664 105.519604 
L 171.424274 95.129283 
L 172.074884 95.129283 
L 172.725495 74.348642 
L 173.376105 105.519604 
L 174.026715 105.519604 
L 174.677326 95.129283 
L 175.327936 105.519604 
L 175.978546 95.129283 
L 176.629156 95.129283 
L 177.279767 74.348642 
L 177.930377 105.519604 
L 178.580987 84.738962 
L 179.231598 84.738962 
L 179.882208 95.129283 
L 180.532818 115.909925 
L 181.834039 95.129283 
L 182.484649 105.519604 
L 183.13526 105.519604 
L 184.43648 63.958321 
L 185.087091 95.129283 
L 185.737701 84.738962 
L 186.388311 105.519604 
L 187.689532 84.738962 
L 188.340142 95.129283 
L 188.990752 95.129283 
L 189.641363 63.958321 
L 190.942583 105.519604 
L 191.593194 115.909925 
L 193.545025 84.738962 
L 194.195635 105.519604 
L 195.496856 84.738962 
L 196.147466 63.958321 
L 196.798076 95.129283 
L 197.448686 84.738962 
L 198.749907 84.738962 
L 199.400517 95.129283 
L 200.051128 74.348642 
L 200.701738 95.129283 
L 202.002959 74.348642 
L 202.653569 84.738962 
L 203.304179 105.519604 
L 203.95479 95.129283 
L 205.25601 95.129283 
L 205.906621 105.519604 
L 206.557231 95.129283 
L 207.207841 105.519604 
L 207.858451 95.129283 
L 208.509062 95.129283 
L 209.810282 74.348642 
L 210.460893 95.129283 
L 211.111503 84.738962 
L 211.762113 95.129283 
L 212.412724 84.738962 
L 213.713944 105.519604 
L 214.364555 63.958321 
L 215.015165 105.519604 
L 215.665775 84.738962 
L 216.316385 74.348642 
L 216.966996 95.129283 
L 217.617606 74.348642 
L 218.268216 105.519604 
L 218.918827 74.348642 
L 219.569437 115.909925 
L 220.220047 95.129283 
L 220.870658 84.738962 
L 221.521268 84.738962 
L 222.171878 105.519604 
L 222.822489 84.738962 
L 224.77432 115.909925 
L 225.42493 84.738962 
L 226.72615 105.519604 
L 227.376761 84.738962 
L 228.027371 84.738962 
L 228.677981 95.129283 
L 229.328592 115.909925 
L 229.979202 74.348642 
L 230.629812 95.129283 
L 231.280423 84.738962 
L 231.931033 84.738962 
L 232.581643 105.519604 
L 233.232254 95.129283 
L 234.533474 95.129283 
L 235.184085 84.738962 
L 235.834695 63.958321 
L 236.485305 84.738962 
L 237.135915 95.129283 
L 238.437136 95.129283 
L 239.087746 105.519604 
L 240.388967 84.738962 
L 241.690188 84.738962 
L 242.340798 105.519604 
L 242.991408 95.129283 
L 243.642019 105.519604 
L 244.292629 84.738962 
L 244.943239 95.129283 
L 245.59385 115.909925 
L 246.24446 115.909925 
L 246.89507 105.519604 
L 247.54568 74.348642 
L 248.196291 95.129283 
L 248.846901 105.519604 
L 249.497511 84.738962 
L 250.148122 84.738962 
L 250.798732 95.129283 
L 251.449342 74.348642 
L 252.099953 105.519604 
L 252.750563 74.348642 
L 254.702394 105.519604 
L 255.353004 105.519604 
L 256.003615 74.348642 
L 256.654225 105.519604 
L 257.304835 105.519604 
L 257.955445 95.129283 
L 258.606056 105.519604 
L 259.256666 105.519604 
L 259.907276 74.348642 
L 260.557887 105.519604 
L 261.208497 84.738962 
L 261.859107 105.519604 
L 262.509718 115.909925 
L 263.160328 84.738962 
L 263.810938 105.519604 
L 264.461549 105.519604 
L 265.112159 115.909925 
L 265.762769 74.348642 
L 266.413379 105.519604 
L 267.06399 74.348642 
L 267.7146 95.129283 
L 268.36521 84.738962 
L 269.015821 105.519604 
L 269.666431 84.738962 
L 270.317041 95.129283 
L 270.967652 115.909925 
L 271.618262 95.129283 
L 272.268872 95.129283 
L 272.919483 84.738962 
L 273.570093 105.519604 
L 274.220703 84.738962 
L 274.871314 84.738962 
L 276.172534 105.519604 
L 276.823144 95.129283 
L 277.473755 74.348642 
L 278.124365 74.348642 
L 278.774975 105.519604 
L 279.425586 74.348642 
L 280.076196 95.129283 
L 280.726806 74.348642 
L 281.377417 105.519604 
L 282.028027 63.958321 
L 282.678637 105.519604 
L 283.329248 105.519604 
L 283.979858 84.738962 
L 284.630468 84.738962 
L 285.281079 95.129283 
L 285.931689 95.129283 
L 286.582299 84.738962 
L 287.232909 84.738962 
L 287.88352 95.129283 
L 288.53413 74.348642 
L 289.18474 74.348642 
L 289.835351 105.519604 
L 290.485961 74.348642 
L 291.136571 95.129283 
L 291.787182 95.129283 
L 292.437792 115.909925 
L 293.088402 105.519604 
L 293.739013 74.348642 
L 294.389623 95.129283 
L 295.040233 74.348642 
L 295.690844 105.519604 
L 296.341454 95.129283 
L 298.293285 95.129283 
L 298.943895 84.738962 
L 299.594505 84.738962 
L 300.245116 95.129283 
L 300.895726 115.909925 
L 302.196947 95.129283 
L 302.847557 74.348642 
L 303.498167 95.129283 
L 304.148778 84.738962 
L 304.799388 105.519604 
L 305.449998 84.738962 
L 306.751219 84.738962 
L 307.401829 105.519604 
L 308.052439 74.348642 
L 308.70305 84.738962 
L 309.35366 84.738962 
L 310.00427 105.519604 
L 310.654881 115.909925 
L 311.305491 84.738962 
L 311.956101 105.519604 
L 312.606712 84.738962 
L 313.257322 84.738962 
L 313.907932 95.129283 
L 314.558543 95.129283 
L 315.209153 115.909925 
L 315.859763 95.129283 
L 316.510373 95.129283 
L 317.160984 105.519604 
L 318.462204 84.738962 
L 319.112815 105.519604 
L 320.414035 105.519604 
L 321.064646 115.909925 
L 321.715256 105.519604 
L 322.365866 63.958321 
L 323.016477 84.738962 
L 323.667087 63.958321 
L 324.317697 115.909925 
L 325.618918 74.348642 
L 326.269528 74.348642 
L 326.920138 105.519604 
L 327.570749 95.129283 
L 328.221359 115.909925 
L 328.871969 84.738962 
L 329.52258 95.129283 
L 330.17319 84.738962 
L 330.8238 105.519604 
L 331.474411 95.129283 
L 332.125021 95.129283 
L 332.775631 105.519604 
L 333.426242 105.519604 
L 334.076852 95.129283 
L 334.727462 95.129283 
L 335.378073 105.519604 
L 336.679293 105.519604 
L 337.329903 84.738962 
L 337.980514 115.909925 
L 338.631124 84.738962 
L 339.281734 105.519604 
L 339.932345 105.519604 
L 340.582955 95.129283 
L 341.233565 95.129283 
L 341.884176 105.519604 
L 343.185396 105.519604 
L 343.836007 95.129283 
L 344.486617 105.519604 
L 345.137227 74.348642 
L 346.438448 95.129283 
L 347.089058 74.348642 
L 347.739668 105.519604 
L 349.040889 84.738962 
L 349.691499 105.519604 
L 350.34211 84.738962 
L 350.99272 95.129283 
L 351.64333 95.129283 
L 352.293941 63.958321 
L 352.944551 95.129283 
L 353.595161 95.129283 
L 354.245772 84.738962 
L 354.896382 95.129283 
L 355.546992 95.129283 
L 356.197602 105.519604 
L 357.498823 105.519604 
L 358.149433 84.738962 
L 358.800044 105.519604 
L 359.450654 95.129283 
L 360.751875 95.129283 
L 361.402485 63.958321 
L 362.053095 105.519604 
L 362.703706 95.129283 
L 363.354316 95.129283 
L 364.004926 105.519604 
L 364.655537 84.738962 
L 365.306147 105.519604 
L 365.956757 95.129283 
L 367.257978 95.129283 
L 367.908588 115.909925 
L 369.209809 95.129283 
L 369.860419 74.348642 
L 370.511029 95.129283 
L 371.16164 84.738962 
L 371.81225 95.129283 
L 372.46286 74.348642 
L 374.414691 105.519604 
L 375.065302 63.958321 
L 375.715912 95.129283 
L 377.667743 95.129283 
L 378.318353 74.348642 
L 378.968963 105.519604 
L 380.920794 105.519604 
L 381.571405 84.738962 
L 382.222015 95.129283 
L 382.872625 84.738962 
L 383.523236 84.738962 
L 384.173846 95.129283 
L 384.824456 95.129283 
L 385.475066 105.519604 
L 386.125677 84.738962 
L 386.776287 105.519604 
L 387.426897 95.129283 
L 388.077508 63.958321 
L 388.728118 84.738962 
L 389.378728 74.348642 
L 391.98117 115.909925 
L 392.63178 74.348642 
L 393.28239 84.738962 
L 393.933001 74.348642 
L 394.583611 95.129283 
L 395.234221 105.519604 
L 395.884831 84.738962 
L 396.535442 74.348642 
L 397.186052 105.519604 
L 397.836662 84.738962 
L 398.487273 105.519604 
L 398.487273 105.519604 
" style="fill:none;stroke:#ff0000;stroke-linecap:square;stroke-width:1.5;"/>
   </g>
   <g id="patch_3">
    <path d="M 57.6 307.584 
L 57.6 41.472 
" style="fill:none;stroke:#000000;stroke-linecap:square;stroke-linejoin:miter;stroke-width:0.8;"/>
   </g>
   <g id="patch_4">
    <path d="M 414.72 307.584 
L 414.72 41.472 
" style="fill:none;stroke:#000000;stroke-linecap:square;stroke-linejoin:miter;stroke-width:0.8;"/>
   </g>
   <g id="patch_5">
    <path d="M 57.6 307.584 
L 414.72 307.584 
" style="fill:none;stroke:#000000;stroke-linecap:square;stroke-linejoin:miter;stroke-width:0.8;"/>
   </g>
   <g id="patch_6">
    <path d="M 57.6 41.472 
L 414.72 41.472 
" style="fill:none;stroke:#000000;stroke-linecap:square;stroke-linejoin:miter;stroke-width:0.8;"/>
   </g>
   <g id="text_14">
    <!-- Population's average and best fitness -->
    <defs>
     <path d="M 19.671875 64.796875 
L 19.671875 37.40625 
L 32.078125 37.40625 
Q 38.96875 37.40625 42.71875 40.96875 
Q 46.484375 44.53125 46.484375 51.125 
Q 46.484375 57.671875 42.71875 61.234375 
Q 38.96875 64.796875 32.078125 64.796875 
z
M 9.8125 72.90625 
L 32.078125 72.90625 
Q 44.34375 72.90625 50.609375 67.359375 
Q 56.890625 61.8125 56.890625 51.125 
Q 56.890625 40.328125 50.609375 34.8125 
Q 44.34375 29.296875 32.078125 29.296875 
L 19.671875 29.296875 
L 19.671875 0 
L 9.8125 0 
z
" id="DejaVuSans-80"/>
     <path d="M 18.109375 8.203125 
L 18.109375 -20.796875 
L 9.078125 -20.796875 
L 9.078125 54.6875 
L 18.109375 54.6875 
L 18.109375 46.390625 
Q 20.953125 51.265625 25.265625 53.625 
Q 29.59375 56 35.59375 56 
Q 45.5625 56 51.78125 48.09375 
Q 58.015625 40.1875 58.015625 27.296875 
Q 58.015625 14.40625 51.78125 6.484375 
Q 45.5625 -1.421875 35.59375 -1.421875 
Q 29.59375 -1.421875 25.265625 0.953125 
Q 20.953125 3.328125 18.109375 8.203125 
z
M 48.6875 27.296875 
Q 48.6875 37.203125 44.609375 42.84375 
Q 40.53125 48.484375 33.40625 48.484375 
Q 26.265625 48.484375 22.1875 42.84375 
Q 18.109375 37.203125 18.109375 27.296875 
Q 18.109375 17.390625 22.1875 11.75 
Q 26.265625 6.109375 33.40625 6.109375 
Q 40.53125 6.109375 44.609375 11.75 
Q 48.6875 17.390625 48.6875 27.296875 
z
" id="DejaVuSans-112"/>
     <path d="M 8.5 21.578125 
L 8.5 54.6875 
L 17.484375 54.6875 
L 17.484375 21.921875 
Q 17.484375 14.15625 20.5 10.265625 
Q 23.53125 6.390625 29.59375 6.390625 
Q 36.859375 6.390625 41.078125 11.03125 
Q 45.3125 15.671875 45.3125 23.6875 
L 45.3125 54.6875 
L 54.296875 54.6875 
L 54.296875 0 
L 45.3125 0 
L 45.3125 8.40625 
Q 42.046875 3.421875 37.71875 1 
Q 33.40625 -1.421875 27.6875 -1.421875 
Q 18.265625 -1.421875 13.375 4.4375 
Q 8.5 10.296875 8.5 21.578125 
z
M 31.109375 56 
z
" id="DejaVuSans-117"/>
     <path d="M 9.421875 75.984375 
L 18.40625 75.984375 
L 18.40625 0 
L 9.421875 0 
z
" id="DejaVuSans-108"/>
     <path d="M 17.921875 72.90625 
L 17.921875 45.796875 
L 9.625 45.796875 
L 9.625 72.90625 
z
" id="DejaVuSans-39"/>
     <path id="DejaVuSans-32"/>
     <path d="M 2.984375 54.6875 
L 12.5 54.6875 
L 29.59375 8.796875 
L 46.6875 54.6875 
L 56.203125 54.6875 
L 35.6875 0 
L 23.484375 0 
z
" id="DejaVuSans-118"/>
     <path d="M 45.40625 27.984375 
Q 45.40625 37.75 41.375 43.109375 
Q 37.359375 48.484375 30.078125 48.484375 
Q 22.859375 48.484375 18.828125 43.109375 
Q 14.796875 37.75 14.796875 27.984375 
Q 14.796875 18.265625 18.828125 12.890625 
Q 22.859375 7.515625 30.078125 7.515625 
Q 37.359375 7.515625 41.375 12.890625 
Q 45.40625 18.265625 45.40625 27.984375 
z
M 54.390625 6.78125 
Q 54.390625 -7.171875 48.1875 -13.984375 
Q 42 -20.796875 29.203125 -20.796875 
Q 24.46875 -20.796875 20.265625 -20.09375 
Q 16.0625 -19.390625 12.109375 -17.921875 
L 12.109375 -9.1875 
Q 16.0625 -11.328125 19.921875 -12.34375 
Q 23.78125 -13.375 27.78125 -13.375 
Q 36.625 -13.375 41.015625 -8.765625 
Q 45.40625 -4.15625 45.40625 5.171875 
L 45.40625 9.625 
Q 42.625 4.78125 38.28125 2.390625 
Q 33.9375 0 27.875 0 
Q 17.828125 0 11.671875 7.65625 
Q 5.515625 15.328125 5.515625 27.984375 
Q 5.515625 40.671875 11.671875 48.328125 
Q 17.828125 56 27.875 56 
Q 33.9375 56 38.28125 53.609375 
Q 42.625 51.21875 45.40625 46.390625 
L 45.40625 54.6875 
L 54.390625 54.6875 
z
" id="DejaVuSans-103"/>
     <path d="M 45.40625 46.390625 
L 45.40625 75.984375 
L 54.390625 75.984375 
L 54.390625 0 
L 45.40625 0 
L 45.40625 8.203125 
Q 42.578125 3.328125 38.25 0.953125 
Q 33.9375 -1.421875 27.875 -1.421875 
Q 17.96875 -1.421875 11.734375 6.484375 
Q 5.515625 14.40625 5.515625 27.296875 
Q 5.515625 40.1875 11.734375 48.09375 
Q 17.96875 56 27.875 56 
Q 33.9375 56 38.25 53.625 
Q 42.578125 51.265625 45.40625 46.390625 
z
M 14.796875 27.296875 
Q 14.796875 17.390625 18.875 11.75 
Q 22.953125 6.109375 30.078125 6.109375 
Q 37.203125 6.109375 41.296875 11.75 
Q 45.40625 17.390625 45.40625 27.296875 
Q 45.40625 37.203125 41.296875 42.84375 
Q 37.203125 48.484375 30.078125 48.484375 
Q 22.953125 48.484375 18.875 42.84375 
Q 14.796875 37.203125 14.796875 27.296875 
z
" id="DejaVuSans-100"/>
     <path d="M 48.6875 27.296875 
Q 48.6875 37.203125 44.609375 42.84375 
Q 40.53125 48.484375 33.40625 48.484375 
Q 26.265625 48.484375 22.1875 42.84375 
Q 18.109375 37.203125 18.109375 27.296875 
Q 18.109375 17.390625 22.1875 11.75 
Q 26.265625 6.109375 33.40625 6.109375 
Q 40.53125 6.109375 44.609375 11.75 
Q 48.6875 17.390625 48.6875 27.296875 
z
M 18.109375 46.390625 
Q 20.953125 51.265625 25.265625 53.625 
Q 29.59375 56 35.59375 56 
Q 45.5625 56 51.78125 48.09375 
Q 58.015625 40.1875 58.015625 27.296875 
Q 58.015625 14.40625 51.78125 6.484375 
Q 45.5625 -1.421875 35.59375 -1.421875 
Q 29.59375 -1.421875 25.265625 0.953125 
Q 20.953125 3.328125 18.109375 8.203125 
L 18.109375 0 
L 9.078125 0 
L 9.078125 75.984375 
L 18.109375 75.984375 
z
" id="DejaVuSans-98"/>
     <path d="M 37.109375 75.984375 
L 37.109375 68.5 
L 28.515625 68.5 
Q 23.6875 68.5 21.796875 66.546875 
Q 19.921875 64.59375 19.921875 59.515625 
L 19.921875 54.6875 
L 34.71875 54.6875 
L 34.71875 47.703125 
L 19.921875 47.703125 
L 19.921875 0 
L 10.890625 0 
L 10.890625 47.703125 
L 2.296875 47.703125 
L 2.296875 54.6875 
L 10.890625 54.6875 
L 10.890625 58.5 
Q 10.890625 67.625 15.140625 71.796875 
Q 19.390625 75.984375 28.609375 75.984375 
z
" id="DejaVuSans-102"/>
    </defs>
    <g transform="translate(123.315 35.472)scale(0.12 -0.12)">
     <use xlink:href="#DejaVuSans-80"/>
     <use x="60.255859" xlink:href="#DejaVuSans-111"/>
     <use x="121.4375" xlink:href="#DejaVuSans-112"/>
     <use x="184.914062" xlink:href="#DejaVuSans-117"/>
     <use x="248.292969" xlink:href="#DejaVuSans-108"/>
     <use x="276.076172" xlink:href="#DejaVuSans-97"/>
     <use x="337.355469" xlink:href="#DejaVuSans-116"/>
     <use x="376.564453" xlink:href="#DejaVuSans-105"/>
     <use x="404.347656" xlink:href="#DejaVuSans-111"/>
     <use x="465.529297" xlink:href="#DejaVuSans-110"/>
     <use x="528.908203" xlink:href="#DejaVuSans-39"/>
     <use x="556.398438" xlink:href="#DejaVuSans-115"/>
     <use x="608.498047" xlink:href="#DejaVuSans-32"/>
     <use x="640.285156" xlink:href="#DejaVuSans-97"/>
     <use x="701.564453" xlink:href="#DejaVuSans-118"/>
     <use x="760.744141" xlink:href="#DejaVuSans-101"/>
     <use x="822.267578" xlink:href="#DejaVuSans-114"/>
     <use x="863.380859" xlink:href="#DejaVuSans-97"/>
     <use x="924.660156" xlink:href="#DejaVuSans-103"/>
     <use x="988.136719" xlink:href="#DejaVuSans-101"/>
     <use x="1049.660156" xlink:href="#DejaVuSans-32"/>
     <use x="1081.447266" xlink:href="#DejaVuSans-97"/>
     <use x="1142.726562" xlink:href="#DejaVuSans-110"/>
     <use x="1206.105469" xlink:href="#DejaVuSans-100"/>
     <use x="1269.582031" xlink:href="#DejaVuSans-32"/>
     <use x="1301.369141" xlink:href="#DejaVuSans-98"/>
     <use x="1364.845703" xlink:href="#DejaVuSans-101"/>
     <use x="1426.369141" xlink:href="#DejaVuSans-115"/>
     <use x="1478.46875" xlink:href="#DejaVuSans-116"/>
     <use x="1517.677734" xlink:href="#DejaVuSans-32"/>
     <use x="1549.464844" xlink:href="#DejaVuSans-102"/>
     <use x="1584.669922" xlink:href="#DejaVuSans-105"/>
     <use x="1612.453125" xlink:href="#DejaVuSans-116"/>
     <use x="1651.662109" xlink:href="#DejaVuSans-110"/>
     <use x="1715.041016" xlink:href="#DejaVuSans-101"/>
     <use x="1776.564453" xlink:href="#DejaVuSans-115"/>
     <use x="1828.664062" xlink:href="#DejaVuSans-115"/>
    </g>
   </g>
   <g id="legend_1">
    <g id="patch_7">
     <path d="M 334.779375 302.584 
L 407.72 302.584 
Q 409.72 302.584 409.72 300.584 
L 409.72 257.549625 
Q 409.72 255.549625 407.72 255.549625 
L 334.779375 255.549625 
Q 332.779375 255.549625 332.779375 257.549625 
L 332.779375 300.584 
Q 332.779375 302.584 334.779375 302.584 
z
" style="fill:#ffffff;opacity:0.8;stroke:#cccccc;stroke-linejoin:miter;"/>
    </g>
    <g id="line2d_26">
     <path d="M 336.779375 263.648062 
L 356.779375 263.648062 
" style="fill:none;stroke:#0000ff;stroke-linecap:square;stroke-width:1.5;"/>
    </g>
    <g id="line2d_27"/>
    <g id="text_15">
     <!-- average -->
     <g transform="translate(364.779375 267.148062)scale(0.1 -0.1)">
      <use xlink:href="#DejaVuSans-97"/>
      <use x="61.279297" xlink:href="#DejaVuSans-118"/>
      <use x="120.458984" xlink:href="#DejaVuSans-101"/>
      <use x="181.982422" xlink:href="#DejaVuSans-114"/>
      <use x="223.095703" xlink:href="#DejaVuSans-97"/>
      <use x="284.375" xlink:href="#DejaVuSans-103"/>
      <use x="347.851562" xlink:href="#DejaVuSans-101"/>
     </g>
    </g>
    <g id="line2d_28">
     <path d="M 336.779375 278.326188 
L 356.779375 278.326188 
" style="fill:none;stroke:#008000;stroke-dasharray:9.6,2.4,1.5,2.4;stroke-dashoffset:0;stroke-width:1.5;"/>
    </g>
    <g id="line2d_29"/>
    <g id="text_16">
     <!-- +1 sd -->
     <defs>
      <path d="M 46 62.703125 
L 46 35.5 
L 73.1875 35.5 
L 73.1875 27.203125 
L 46 27.203125 
L 46 0 
L 37.796875 0 
L 37.796875 27.203125 
L 10.59375 27.203125 
L 10.59375 35.5 
L 37.796875 35.5 
L 37.796875 62.703125 
z
" id="DejaVuSans-43"/>
     </defs>
     <g transform="translate(364.779375 281.826188)scale(0.1 -0.1)">
      <use xlink:href="#DejaVuSans-43"/>
      <use x="83.789062" xlink:href="#DejaVuSans-49"/>
      <use x="147.412109" xlink:href="#DejaVuSans-32"/>
      <use x="179.199219" xlink:href="#DejaVuSans-115"/>
      <use x="231.298828" xlink:href="#DejaVuSans-100"/>
     </g>
    </g>
    <g id="line2d_30">
     <path d="M 336.779375 293.004312 
L 356.779375 293.004312 
" style="fill:none;stroke:#ff0000;stroke-linecap:square;stroke-width:1.5;"/>
    </g>
    <g id="line2d_31"/>
    <g id="text_17">
     <!-- best -->
     <g transform="translate(364.779375 296.504312)scale(0.1 -0.1)">
      <use xlink:href="#DejaVuSans-98"/>
      <use x="63.476562" xlink:href="#DejaVuSans-101"/>
      <use x="125" xlink:href="#DejaVuSans-115"/>
      <use x="177.099609" xlink:href="#DejaVuSans-116"/>
     </g>
    </g>
   </g>
  </g>
 </g>
 <defs>
  <clipPath id="p2c0ef8c492">
   <rect height="266.112" width="357.12" x="57.6" y="41.472"/>
  </clipPath>
 </defs>
</svg>
