<?xml version="1.0" encoding="utf-8" standalone="no"?>
<!DOCTYPE svg PUBLIC "-//W3C//DTD SVG 1.1//EN"
  "http://www.w3.org/Graphics/SVG/1.1/DTD/svg11.dtd">
<!-- Created with matplotlib (https://matplotlib.org/) -->
<svg height="345.6pt" version="1.1" viewBox="0 0 460.8 345.6" width="460.8pt" xmlns="http://www.w3.org/2000/svg" xmlns:xlink="http://www.w3.org/1999/xlink">
 <defs>
  <style type="text/css">
*{stroke-linecap:butt;stroke-linejoin:round;}
  </style>
 </defs>
 <g id="figure_1">
  <g id="patch_1">
   <path d="M 0 345.6 
L 460.8 345.6 
L 460.8 0 
L 0 0 
z
" style="fill:#ffffff;"/>
  </g>
  <g id="axes_1">
   <g id="patch_2">
    <path d="M 57.6 307.584 
L 414.72 307.584 
L 414.72 41.472 
L 57.6 41.472 
z
" style="fill:#ffffff;"/>
   </g>
   <g id="matplotlib.axis_1">
    <g id="xtick_1">
     <g id="line2d_1">
      <path clip-path="url(#p69bba80a8a)" d="M 73.832727 307.584 
L 73.832727 41.472 
" style="fill:none;stroke:#b0b0b0;stroke-linecap:square;stroke-width:0.8;"/>
     </g>
     <g id="line2d_2">
      <defs>
       <path d="M 0 0 
L 0 3.5 
" id="m38d2705705" style="stroke:#000000;stroke-width:0.8;"/>
      </defs>
      <g>
       <use style="stroke:#000000;stroke-width:0.8;" x="73.832727" xlink:href="#m38d2705705" y="307.584"/>
      </g>
     </g>
     <g id="text_1">
      <!-- 0 -->
      <defs>
       <path d="M 31.78125 66.40625 
Q 24.171875 66.40625 20.328125 58.90625 
Q 16.5 51.421875 16.5 36.375 
Q 16.5 21.390625 20.328125 13.890625 
Q 24.171875 6.390625 31.78125 6.390625 
Q 39.453125 6.390625 43.28125 13.890625 
Q 47.125 21.390625 47.125 36.375 
Q 47.125 51.421875 43.28125 58.90625 
Q 39.453125 66.40625 31.78125 66.40625 
z
M 31.78125 74.21875 
Q 44.046875 74.21875 50.515625 64.515625 
Q 56.984375 54.828125 56.984375 36.375 
Q 56.984375 17.96875 50.515625 8.265625 
Q 44.046875 -1.421875 31.78125 -1.421875 
Q 19.53125 -1.421875 13.0625 8.265625 
Q 6.59375 17.96875 6.59375 36.375 
Q 6.59375 54.828125 13.0625 64.515625 
Q 19.53125 74.21875 31.78125 74.21875 
z
" id="DejaVuSans-48"/>
      </defs>
      <g transform="translate(70.651477 322.182437)scale(0.1 -0.1)">
       <use xlink:href="#DejaVuSans-48"/>
      </g>
     </g>
    </g>
    <g id="xtick_2">
     <g id="line2d_3">
      <path clip-path="url(#p69bba80a8a)" d="M 138.893758 307.584 
L 138.893758 41.472 
" style="fill:none;stroke:#b0b0b0;stroke-linecap:square;stroke-width:0.8;"/>
     </g>
     <g id="line2d_4">
      <g>
       <use style="stroke:#000000;stroke-width:0.8;" x="138.893758" xlink:href="#m38d2705705" y="307.584"/>
      </g>
     </g>
     <g id="text_2">
      <!-- 100 -->
      <defs>
       <path d="M 12.40625 8.296875 
L 28.515625 8.296875 
L 28.515625 63.921875 
L 10.984375 60.40625 
L 10.984375 69.390625 
L 28.421875 72.90625 
L 38.28125 72.90625 
L 38.28125 8.296875 
L 54.390625 8.296875 
L 54.390625 0 
L 12.40625 0 
z
" id="DejaVuSans-49"/>
      </defs>
      <g transform="translate(129.350008 322.182437)scale(0.1 -0.1)">
       <use xlink:href="#DejaVuSans-49"/>
       <use x="63.623047" xlink:href="#DejaVuSans-48"/>
       <use x="127.246094" xlink:href="#DejaVuSans-48"/>
      </g>
     </g>
    </g>
    <g id="xtick_3">
     <g id="line2d_5">
      <path clip-path="url(#p69bba80a8a)" d="M 203.95479 307.584 
L 203.95479 41.472 
" style="fill:none;stroke:#b0b0b0;stroke-linecap:square;stroke-width:0.8;"/>
     </g>
     <g id="line2d_6">
      <g>
       <use style="stroke:#000000;stroke-width:0.8;" x="203.95479" xlink:href="#m38d2705705" y="307.584"/>
      </g>
     </g>
     <g id="text_3">
      <!-- 200 -->
      <defs>
       <path d="M 19.1875 8.296875 
L 53.609375 8.296875 
L 53.609375 0 
L 7.328125 0 
L 7.328125 8.296875 
Q 12.9375 14.109375 22.625 23.890625 
Q 32.328125 33.6875 34.8125 36.53125 
Q 39.546875 41.84375 41.421875 45.53125 
Q 43.3125 49.21875 43.3125 52.78125 
Q 43.3125 58.59375 39.234375 62.25 
Q 35.15625 65.921875 28.609375 65.921875 
Q 23.96875 65.921875 18.8125 64.3125 
Q 13.671875 62.703125 7.8125 59.421875 
L 7.8125 69.390625 
Q 13.765625 71.78125 18.9375 73 
Q 24.125 74.21875 28.421875 74.21875 
Q 39.75 74.21875 46.484375 68.546875 
Q 53.21875 62.890625 53.21875 53.421875 
Q 53.21875 48.921875 51.53125 44.890625 
Q 49.859375 40.875 45.40625 35.40625 
Q 44.1875 33.984375 37.640625 27.21875 
Q 31.109375 20.453125 19.1875 8.296875 
z
" id="DejaVuSans-50"/>
      </defs>
      <g transform="translate(194.41104 322.182437)scale(0.1 -0.1)">
       <use xlink:href="#DejaVuSans-50"/>
       <use x="63.623047" xlink:href="#DejaVuSans-48"/>
       <use x="127.246094" xlink:href="#DejaVuSans-48"/>
      </g>
     </g>
    </g>
    <g id="xtick_4">
     <g id="line2d_7">
      <path clip-path="url(#p69bba80a8a)" d="M 269.015821 307.584 
L 269.015821 41.472 
" style="fill:none;stroke:#b0b0b0;stroke-linecap:square;stroke-width:0.8;"/>
     </g>
     <g id="line2d_8">
      <g>
       <use style="stroke:#000000;stroke-width:0.8;" x="269.015821" xlink:href="#m38d2705705" y="307.584"/>
      </g>
     </g>
     <g id="text_4">
      <!-- 300 -->
      <defs>
       <path d="M 40.578125 39.3125 
Q 47.65625 37.796875 51.625 33 
Q 55.609375 28.21875 55.609375 21.1875 
Q 55.609375 10.40625 48.1875 4.484375 
Q 40.765625 -1.421875 27.09375 -1.421875 
Q 22.515625 -1.421875 17.65625 -0.515625 
Q 12.796875 0.390625 7.625 2.203125 
L 7.625 11.71875 
Q 11.71875 9.328125 16.59375 8.109375 
Q 21.484375 6.890625 26.8125 6.890625 
Q 36.078125 6.890625 40.9375 10.546875 
Q 45.796875 14.203125 45.796875 21.1875 
Q 45.796875 27.640625 41.28125 31.265625 
Q 36.765625 34.90625 28.71875 34.90625 
L 20.21875 34.90625 
L 20.21875 43.015625 
L 29.109375 43.015625 
Q 36.375 43.015625 40.234375 45.921875 
Q 44.09375 48.828125 44.09375 54.296875 
Q 44.09375 59.90625 40.109375 62.90625 
Q 36.140625 65.921875 28.71875 65.921875 
Q 24.65625 65.921875 20.015625 65.03125 
Q 15.375 64.15625 9.8125 62.3125 
L 9.8125 71.09375 
Q 15.4375 72.65625 20.34375 73.4375 
Q 25.25 74.21875 29.59375 74.21875 
Q 40.828125 74.21875 47.359375 69.109375 
Q 53.90625 64.015625 53.90625 55.328125 
Q 53.90625 49.265625 50.4375 45.09375 
Q 46.96875 40.921875 40.578125 39.3125 
z
" id="DejaVuSans-51"/>
      </defs>
      <g transform="translate(259.472071 322.182437)scale(0.1 -0.1)">
       <use xlink:href="#DejaVuSans-51"/>
       <use x="63.623047" xlink:href="#DejaVuSans-48"/>
       <use x="127.246094" xlink:href="#DejaVuSans-48"/>
      </g>
     </g>
    </g>
    <g id="xtick_5">
     <g id="line2d_9">
      <path clip-path="url(#p69bba80a8a)" d="M 334.076852 307.584 
L 334.076852 41.472 
" style="fill:none;stroke:#b0b0b0;stroke-linecap:square;stroke-width:0.8;"/>
     </g>
     <g id="line2d_10">
      <g>
       <use style="stroke:#000000;stroke-width:0.8;" x="334.076852" xlink:href="#m38d2705705" y="307.584"/>
      </g>
     </g>
     <g id="text_5">
      <!-- 400 -->
      <defs>
       <path d="M 37.796875 64.3125 
L 12.890625 25.390625 
L 37.796875 25.390625 
z
M 35.203125 72.90625 
L 47.609375 72.90625 
L 47.609375 25.390625 
L 58.015625 25.390625 
L 58.015625 17.1875 
L 47.609375 17.1875 
L 47.609375 0 
L 37.796875 0 
L 37.796875 17.1875 
L 4.890625 17.1875 
L 4.890625 26.703125 
z
" id="DejaVuSans-52"/>
      </defs>
      <g transform="translate(324.533102 322.182437)scale(0.1 -0.1)">
       <use xlink:href="#DejaVuSans-52"/>
       <use x="63.623047" xlink:href="#DejaVuSans-48"/>
       <use x="127.246094" xlink:href="#DejaVuSans-48"/>
      </g>
     </g>
    </g>
    <g id="xtick_6">
     <g id="line2d_11">
      <path clip-path="url(#p69bba80a8a)" d="M 399.137883 307.584 
L 399.137883 41.472 
" style="fill:none;stroke:#b0b0b0;stroke-linecap:square;stroke-width:0.8;"/>
     </g>
     <g id="line2d_12">
      <g>
       <use style="stroke:#000000;stroke-width:0.8;" x="399.137883" xlink:href="#m38d2705705" y="307.584"/>
      </g>
     </g>
     <g id="text_6">
      <!-- 500 -->
      <defs>
       <path d="M 10.796875 72.90625 
L 49.515625 72.90625 
L 49.515625 64.59375 
L 19.828125 64.59375 
L 19.828125 46.734375 
Q 21.96875 47.46875 24.109375 47.828125 
Q 26.265625 48.1875 28.421875 48.1875 
Q 40.625 48.1875 47.75 41.5 
Q 54.890625 34.8125 54.890625 23.390625 
Q 54.890625 11.625 47.5625 5.09375 
Q 40.234375 -1.421875 26.90625 -1.421875 
Q 22.3125 -1.421875 17.546875 -0.640625 
Q 12.796875 0.140625 7.71875 1.703125 
L 7.71875 11.625 
Q 12.109375 9.234375 16.796875 8.0625 
Q 21.484375 6.890625 26.703125 6.890625 
Q 35.15625 6.890625 40.078125 11.328125 
Q 45.015625 15.765625 45.015625 23.390625 
Q 45.015625 31 40.078125 35.4375 
Q 35.15625 39.890625 26.703125 39.890625 
Q 22.75 39.890625 18.8125 39.015625 
Q 14.890625 38.140625 10.796875 36.28125 
z
" id="DejaVuSans-53"/>
      </defs>
      <g transform="translate(389.594133 322.182437)scale(0.1 -0.1)">
       <use xlink:href="#DejaVuSans-53"/>
       <use x="63.623047" xlink:href="#DejaVuSans-48"/>
       <use x="127.246094" xlink:href="#DejaVuSans-48"/>
      </g>
     </g>
    </g>
    <g id="text_7">
     <!-- Generations -->
     <defs>
      <path d="M 59.515625 10.40625 
L 59.515625 29.984375 
L 43.40625 29.984375 
L 43.40625 38.09375 
L 69.28125 38.09375 
L 69.28125 6.78125 
Q 63.578125 2.734375 56.6875 0.65625 
Q 49.8125 -1.421875 42 -1.421875 
Q 24.90625 -1.421875 15.25 8.5625 
Q 5.609375 18.5625 5.609375 36.375 
Q 5.609375 54.25 15.25 64.234375 
Q 24.90625 74.21875 42 74.21875 
Q 49.125 74.21875 55.546875 72.453125 
Q 61.96875 70.703125 67.390625 67.28125 
L 67.390625 56.78125 
Q 61.921875 61.421875 55.765625 63.765625 
Q 49.609375 66.109375 42.828125 66.109375 
Q 29.4375 66.109375 22.71875 58.640625 
Q 16.015625 51.171875 16.015625 36.375 
Q 16.015625 21.625 22.71875 14.15625 
Q 29.4375 6.6875 42.828125 6.6875 
Q 48.046875 6.6875 52.140625 7.59375 
Q 56.25 8.5 59.515625 10.40625 
z
" id="DejaVuSans-71"/>
      <path d="M 56.203125 29.59375 
L 56.203125 25.203125 
L 14.890625 25.203125 
Q 15.484375 15.921875 20.484375 11.0625 
Q 25.484375 6.203125 34.421875 6.203125 
Q 39.59375 6.203125 44.453125 7.46875 
Q 49.3125 8.734375 54.109375 11.28125 
L 54.109375 2.78125 
Q 49.265625 0.734375 44.1875 -0.34375 
Q 39.109375 -1.421875 33.890625 -1.421875 
Q 20.796875 -1.421875 13.15625 6.1875 
Q 5.515625 13.8125 5.515625 26.8125 
Q 5.515625 40.234375 12.765625 48.109375 
Q 20.015625 56 32.328125 56 
Q 43.359375 56 49.78125 48.890625 
Q 56.203125 41.796875 56.203125 29.59375 
z
M 47.21875 32.234375 
Q 47.125 39.59375 43.09375 43.984375 
Q 39.0625 48.390625 32.421875 48.390625 
Q 24.90625 48.390625 20.390625 44.140625 
Q 15.875 39.890625 15.1875 32.171875 
z
" id="DejaVuSans-101"/>
      <path d="M 54.890625 33.015625 
L 54.890625 0 
L 45.90625 0 
L 45.90625 32.71875 
Q 45.90625 40.484375 42.875 44.328125 
Q 39.84375 48.1875 33.796875 48.1875 
Q 26.515625 48.1875 22.3125 43.546875 
Q 18.109375 38.921875 18.109375 30.90625 
L 18.109375 0 
L 9.078125 0 
L 9.078125 54.6875 
L 18.109375 54.6875 
L 18.109375 46.1875 
Q 21.34375 51.125 25.703125 53.5625 
Q 30.078125 56 35.796875 56 
Q 45.21875 56 50.046875 50.171875 
Q 54.890625 44.34375 54.890625 33.015625 
z
" id="DejaVuSans-110"/>
      <path d="M 41.109375 46.296875 
Q 39.59375 47.171875 37.8125 47.578125 
Q 36.03125 48 33.890625 48 
Q 26.265625 48 22.1875 43.046875 
Q 18.109375 38.09375 18.109375 28.8125 
L 18.109375 0 
L 9.078125 0 
L 9.078125 54.6875 
L 18.109375 54.6875 
L 18.109375 46.1875 
Q 20.953125 51.171875 25.484375 53.578125 
Q 30.03125 56 36.53125 56 
Q 37.453125 56 38.578125 55.875 
Q 39.703125 55.765625 41.0625 55.515625 
z
" id="DejaVuSans-114"/>
      <path d="M 34.28125 27.484375 
Q 23.390625 27.484375 19.1875 25 
Q 14.984375 22.515625 14.984375 16.5 
Q 14.984375 11.71875 18.140625 8.90625 
Q 21.296875 6.109375 26.703125 6.109375 
Q 34.1875 6.109375 38.703125 11.40625 
Q 43.21875 16.703125 43.21875 25.484375 
L 43.21875 27.484375 
z
M 52.203125 31.203125 
L 52.203125 0 
L 43.21875 0 
L 43.21875 8.296875 
Q 40.140625 3.328125 35.546875 0.953125 
Q 30.953125 -1.421875 24.3125 -1.421875 
Q 15.921875 -1.421875 10.953125 3.296875 
Q 6 8.015625 6 15.921875 
Q 6 25.140625 12.171875 29.828125 
Q 18.359375 34.515625 30.609375 34.515625 
L 43.21875 34.515625 
L 43.21875 35.40625 
Q 43.21875 41.609375 39.140625 45 
Q 35.0625 48.390625 27.6875 48.390625 
Q 23 48.390625 18.546875 47.265625 
Q 14.109375 46.140625 10.015625 43.890625 
L 10.015625 52.203125 
Q 14.9375 54.109375 19.578125 55.046875 
Q 24.21875 56 28.609375 56 
Q 40.484375 56 46.34375 49.84375 
Q 52.203125 43.703125 52.203125 31.203125 
z
" id="DejaVuSans-97"/>
      <path d="M 18.3125 70.21875 
L 18.3125 54.6875 
L 36.8125 54.6875 
L 36.8125 47.703125 
L 18.3125 47.703125 
L 18.3125 18.015625 
Q 18.3125 11.328125 20.140625 9.421875 
Q 21.96875 7.515625 27.59375 7.515625 
L 36.8125 7.515625 
L 36.8125 0 
L 27.59375 0 
Q 17.1875 0 13.234375 3.875 
Q 9.28125 7.765625 9.28125 18.015625 
L 9.28125 47.703125 
L 2.6875 47.703125 
L 2.6875 54.6875 
L 9.28125 54.6875 
L 9.28125 70.21875 
z
" id="DejaVuSans-116"/>
      <path d="M 9.421875 54.6875 
L 18.40625 54.6875 
L 18.40625 0 
L 9.421875 0 
z
M 9.421875 75.984375 
L 18.40625 75.984375 
L 18.40625 64.59375 
L 9.421875 64.59375 
z
" id="DejaVuSans-105"/>
      <path d="M 30.609375 48.390625 
Q 23.390625 48.390625 19.1875 42.75 
Q 14.984375 37.109375 14.984375 27.296875 
Q 14.984375 17.484375 19.15625 11.84375 
Q 23.34375 6.203125 30.609375 6.203125 
Q 37.796875 6.203125 41.984375 11.859375 
Q 46.1875 17.53125 46.1875 27.296875 
Q 46.1875 37.015625 41.984375 42.703125 
Q 37.796875 48.390625 30.609375 48.390625 
z
M 30.609375 56 
Q 42.328125 56 49.015625 48.375 
Q 55.71875 40.765625 55.71875 27.296875 
Q 55.71875 13.875 49.015625 6.21875 
Q 42.328125 -1.421875 30.609375 -1.421875 
Q 18.84375 -1.421875 12.171875 6.21875 
Q 5.515625 13.875 5.515625 27.296875 
Q 5.515625 40.765625 12.171875 48.375 
Q 18.84375 56 30.609375 56 
z
" id="DejaVuSans-111"/>
      <path d="M 44.28125 53.078125 
L 44.28125 44.578125 
Q 40.484375 46.53125 36.375 47.5 
Q 32.28125 48.484375 27.875 48.484375 
Q 21.1875 48.484375 17.84375 46.4375 
Q 14.5 44.390625 14.5 40.28125 
Q 14.5 37.15625 16.890625 35.375 
Q 19.28125 33.59375 26.515625 31.984375 
L 29.59375 31.296875 
Q 39.15625 29.25 43.1875 25.515625 
Q 47.21875 21.78125 47.21875 15.09375 
Q 47.21875 7.46875 41.1875 3.015625 
Q 35.15625 -1.421875 24.609375 -1.421875 
Q 20.21875 -1.421875 15.453125 -0.5625 
Q 10.6875 0.296875 5.421875 2 
L 5.421875 11.28125 
Q 10.40625 8.6875 15.234375 7.390625 
Q 20.0625 6.109375 24.8125 6.109375 
Q 31.15625 6.109375 34.5625 8.28125 
Q 37.984375 10.453125 37.984375 14.40625 
Q 37.984375 18.0625 35.515625 20.015625 
Q 33.0625 21.96875 24.703125 23.78125 
L 21.578125 24.515625 
Q 13.234375 26.265625 9.515625 29.90625 
Q 5.8125 33.546875 5.8125 39.890625 
Q 5.8125 47.609375 11.28125 51.796875 
Q 16.75 56 26.8125 56 
Q 31.78125 56 36.171875 55.265625 
Q 40.578125 54.546875 44.28125 53.078125 
z
" id="DejaVuSans-115"/>
     </defs>
     <g transform="translate(205.662344 335.860562)scale(0.1 -0.1)">
      <use xlink:href="#DejaVuSans-71"/>
      <use x="77.490234" xlink:href="#DejaVuSans-101"/>
      <use x="139.013672" xlink:href="#DejaVuSans-110"/>
      <use x="202.392578" xlink:href="#DejaVuSans-101"/>
      <use x="263.916016" xlink:href="#DejaVuSans-114"/>
      <use x="305.029297" xlink:href="#DejaVuSans-97"/>
      <use x="366.308594" xlink:href="#DejaVuSans-116"/>
      <use x="405.517578" xlink:href="#DejaVuSans-105"/>
      <use x="433.300781" xlink:href="#DejaVuSans-111"/>
      <use x="494.482422" xlink:href="#DejaVuSans-110"/>
      <use x="557.861328" xlink:href="#DejaVuSans-115"/>
     </g>
    </g>
   </g>
   <g id="matplotlib.axis_2">
    <g id="ytick_1">
     <g id="line2d_13">
      <path clip-path="url(#p69bba80a8a)" d="M 57.6 300.937867 
L 414.72 300.937867 
" style="fill:none;stroke:#b0b0b0;stroke-linecap:square;stroke-width:0.8;"/>
     </g>
     <g id="line2d_14">
      <defs>
       <path d="M 0 0 
L -3.5 0 
" id="ma584c11368" style="stroke:#000000;stroke-width:0.8;"/>
      </defs>
      <g>
       <use style="stroke:#000000;stroke-width:0.8;" x="57.6" xlink:href="#ma584c11368" y="300.937867"/>
      </g>
     </g>
     <g id="text_8">
      <!-- 22 -->
      <g transform="translate(37.875 304.737086)scale(0.1 -0.1)">
       <use xlink:href="#DejaVuSans-50"/>
       <use x="63.623047" xlink:href="#DejaVuSans-50"/>
      </g>
     </g>
    </g>
    <g id="ytick_2">
     <g id="line2d_15">
      <path clip-path="url(#p69bba80a8a)" d="M 57.6 270.016634 
L 414.72 270.016634 
" style="fill:none;stroke:#b0b0b0;stroke-linecap:square;stroke-width:0.8;"/>
     </g>
     <g id="line2d_16">
      <g>
       <use style="stroke:#000000;stroke-width:0.8;" x="57.6" xlink:href="#ma584c11368" y="270.016634"/>
      </g>
     </g>
     <g id="text_9">
      <!-- 24 -->
      <g transform="translate(37.875 273.815853)scale(0.1 -0.1)">
       <use xlink:href="#DejaVuSans-50"/>
       <use x="63.623047" xlink:href="#DejaVuSans-52"/>
      </g>
     </g>
    </g>
    <g id="ytick_3">
     <g id="line2d_17">
      <path clip-path="url(#p69bba80a8a)" d="M 57.6 239.095401 
L 414.72 239.095401 
" style="fill:none;stroke:#b0b0b0;stroke-linecap:square;stroke-width:0.8;"/>
     </g>
     <g id="line2d_18">
      <g>
       <use style="stroke:#000000;stroke-width:0.8;" x="57.6" xlink:href="#ma584c11368" y="239.095401"/>
      </g>
     </g>
     <g id="text_10">
      <!-- 26 -->
      <defs>
       <path d="M 33.015625 40.375 
Q 26.375 40.375 22.484375 35.828125 
Q 18.609375 31.296875 18.609375 23.390625 
Q 18.609375 15.53125 22.484375 10.953125 
Q 26.375 6.390625 33.015625 6.390625 
Q 39.65625 6.390625 43.53125 10.953125 
Q 47.40625 15.53125 47.40625 23.390625 
Q 47.40625 31.296875 43.53125 35.828125 
Q 39.65625 40.375 33.015625 40.375 
z
M 52.59375 71.296875 
L 52.59375 62.3125 
Q 48.875 64.0625 45.09375 64.984375 
Q 41.3125 65.921875 37.59375 65.921875 
Q 27.828125 65.921875 22.671875 59.328125 
Q 17.53125 52.734375 16.796875 39.40625 
Q 19.671875 43.65625 24.015625 45.921875 
Q 28.375 48.1875 33.59375 48.1875 
Q 44.578125 48.1875 50.953125 41.515625 
Q 57.328125 34.859375 57.328125 23.390625 
Q 57.328125 12.15625 50.6875 5.359375 
Q 44.046875 -1.421875 33.015625 -1.421875 
Q 20.359375 -1.421875 13.671875 8.265625 
Q 6.984375 17.96875 6.984375 36.375 
Q 6.984375 53.65625 15.1875 63.9375 
Q 23.390625 74.21875 37.203125 74.21875 
Q 40.921875 74.21875 44.703125 73.484375 
Q 48.484375 72.75 52.59375 71.296875 
z
" id="DejaVuSans-54"/>
      </defs>
      <g transform="translate(37.875 242.894619)scale(0.1 -0.1)">
       <use xlink:href="#DejaVuSans-50"/>
       <use x="63.623047" xlink:href="#DejaVuSans-54"/>
      </g>
     </g>
    </g>
    <g id="ytick_4">
     <g id="line2d_19">
      <path clip-path="url(#p69bba80a8a)" d="M 57.6 208.174167 
L 414.72 208.174167 
" style="fill:none;stroke:#b0b0b0;stroke-linecap:square;stroke-width:0.8;"/>
     </g>
     <g id="line2d_20">
      <g>
       <use style="stroke:#000000;stroke-width:0.8;" x="57.6" xlink:href="#ma584c11368" y="208.174167"/>
      </g>
     </g>
     <g id="text_11">
      <!-- 28 -->
      <defs>
       <path d="M 31.78125 34.625 
Q 24.75 34.625 20.71875 30.859375 
Q 16.703125 27.09375 16.703125 20.515625 
Q 16.703125 13.921875 20.71875 10.15625 
Q 24.75 6.390625 31.78125 6.390625 
Q 38.8125 6.390625 42.859375 10.171875 
Q 46.921875 13.96875 46.921875 20.515625 
Q 46.921875 27.09375 42.890625 30.859375 
Q 38.875 34.625 31.78125 34.625 
z
M 21.921875 38.8125 
Q 15.578125 40.375 12.03125 44.71875 
Q 8.5 49.078125 8.5 55.328125 
Q 8.5 64.0625 14.71875 69.140625 
Q 20.953125 74.21875 31.78125 74.21875 
Q 42.671875 74.21875 48.875 69.140625 
Q 55.078125 64.0625 55.078125 55.328125 
Q 55.078125 49.078125 51.53125 44.71875 
Q 48 40.375 41.703125 38.8125 
Q 48.828125 37.15625 52.796875 32.3125 
Q 56.78125 27.484375 56.78125 20.515625 
Q 56.78125 9.90625 50.3125 4.234375 
Q 43.84375 -1.421875 31.78125 -1.421875 
Q 19.734375 -1.421875 13.25 4.234375 
Q 6.78125 9.90625 6.78125 20.515625 
Q 6.78125 27.484375 10.78125 32.3125 
Q 14.796875 37.15625 21.921875 38.8125 
z
M 18.3125 54.390625 
Q 18.3125 48.734375 21.84375 45.5625 
Q 25.390625 42.390625 31.78125 42.390625 
Q 38.140625 42.390625 41.71875 45.5625 
Q 45.3125 48.734375 45.3125 54.390625 
Q 45.3125 60.0625 41.71875 63.234375 
Q 38.140625 66.40625 31.78125 66.40625 
Q 25.390625 66.40625 21.84375 63.234375 
Q 18.3125 60.0625 18.3125 54.390625 
z
" id="DejaVuSans-56"/>
      </defs>
      <g transform="translate(37.875 211.973386)scale(0.1 -0.1)">
       <use xlink:href="#DejaVuSans-50"/>
       <use x="63.623047" xlink:href="#DejaVuSans-56"/>
      </g>
     </g>
    </g>
    <g id="ytick_5">
     <g id="line2d_21">
      <path clip-path="url(#p69bba80a8a)" d="M 57.6 177.252934 
L 414.72 177.252934 
" style="fill:none;stroke:#b0b0b0;stroke-linecap:square;stroke-width:0.8;"/>
     </g>
     <g id="line2d_22">
      <g>
       <use style="stroke:#000000;stroke-width:0.8;" x="57.6" xlink:href="#ma584c11368" y="177.252934"/>
      </g>
     </g>
     <g id="text_12">
      <!-- 30 -->
      <g transform="translate(37.875 181.052152)scale(0.1 -0.1)">
       <use xlink:href="#DejaVuSans-51"/>
       <use x="63.623047" xlink:href="#DejaVuSans-48"/>
      </g>
     </g>
    </g>
    <g id="ytick_6">
     <g id="line2d_23">
      <path clip-path="url(#p69bba80a8a)" d="M 57.6 146.3317 
L 414.72 146.3317 
" style="fill:none;stroke:#b0b0b0;stroke-linecap:square;stroke-width:0.8;"/>
     </g>
     <g id="line2d_24">
      <g>
       <use style="stroke:#000000;stroke-width:0.8;" x="57.6" xlink:href="#ma584c11368" y="146.3317"/>
      </g>
     </g>
     <g id="text_13">
      <!-- 32 -->
      <g transform="translate(37.875 150.130919)scale(0.1 -0.1)">
       <use xlink:href="#DejaVuSans-51"/>
       <use x="63.623047" xlink:href="#DejaVuSans-50"/>
      </g>
     </g>
    </g>
    <g id="ytick_7">
     <g id="line2d_25">
      <path clip-path="url(#p69bba80a8a)" d="M 57.6 115.410467 
L 414.72 115.410467 
" style="fill:none;stroke:#b0b0b0;stroke-linecap:square;stroke-width:0.8;"/>
     </g>
     <g id="line2d_26">
      <g>
       <use style="stroke:#000000;stroke-width:0.8;" x="57.6" xlink:href="#ma584c11368" y="115.410467"/>
      </g>
     </g>
     <g id="text_14">
      <!-- 34 -->
      <g transform="translate(37.875 119.209686)scale(0.1 -0.1)">
       <use xlink:href="#DejaVuSans-51"/>
       <use x="63.623047" xlink:href="#DejaVuSans-52"/>
      </g>
     </g>
    </g>
    <g id="ytick_8">
     <g id="line2d_27">
      <path clip-path="url(#p69bba80a8a)" d="M 57.6 84.489233 
L 414.72 84.489233 
" style="fill:none;stroke:#b0b0b0;stroke-linecap:square;stroke-width:0.8;"/>
     </g>
     <g id="line2d_28">
      <g>
       <use style="stroke:#000000;stroke-width:0.8;" x="57.6" xlink:href="#ma584c11368" y="84.489233"/>
      </g>
     </g>
     <g id="text_15">
      <!-- 36 -->
      <g transform="translate(37.875 88.288452)scale(0.1 -0.1)">
       <use xlink:href="#DejaVuSans-51"/>
       <use x="63.623047" xlink:href="#DejaVuSans-54"/>
      </g>
     </g>
    </g>
    <g id="ytick_9">
     <g id="line2d_29">
      <path clip-path="url(#p69bba80a8a)" d="M 57.6 53.568 
L 414.72 53.568 
" style="fill:none;stroke:#b0b0b0;stroke-linecap:square;stroke-width:0.8;"/>
     </g>
     <g id="line2d_30">
      <g>
       <use style="stroke:#000000;stroke-width:0.8;" x="57.6" xlink:href="#ma584c11368" y="53.568"/>
      </g>
     </g>
     <g id="text_16">
      <!-- 38 -->
      <g transform="translate(37.875 57.367219)scale(0.1 -0.1)">
       <use xlink:href="#DejaVuSans-51"/>
       <use x="63.623047" xlink:href="#DejaVuSans-56"/>
      </g>
     </g>
    </g>
    <g id="text_17">
     <!-- Fitness -->
     <defs>
      <path d="M 9.8125 72.90625 
L 51.703125 72.90625 
L 51.703125 64.59375 
L 19.671875 64.59375 
L 19.671875 43.109375 
L 48.578125 43.109375 
L 48.578125 34.8125 
L 19.671875 34.8125 
L 19.671875 0 
L 9.8125 0 
z
" id="DejaVuSans-70"/>
     </defs>
     <g transform="translate(31.795312 192.202219)rotate(-90)scale(0.1 -0.1)">
      <use xlink:href="#DejaVuSans-70"/>
      <use x="57.410156" xlink:href="#DejaVuSans-105"/>
      <use x="85.193359" xlink:href="#DejaVuSans-116"/>
      <use x="124.402344" xlink:href="#DejaVuSans-110"/>
      <use x="187.78125" xlink:href="#DejaVuSans-101"/>
      <use x="249.304688" xlink:href="#DejaVuSans-115"/>
      <use x="301.404297" xlink:href="#DejaVuSans-115"/>
     </g>
    </g>
   </g>
   <g id="line2d_31">
    <path clip-path="url(#p69bba80a8a)" d="M 73.832727 284.936129 
L 74.483338 283.351416 
L 75.133948 282.91343 
L 75.784558 284.425773 
L 76.435169 283.733572 
L 77.085779 283.356717 
L 78.386999 286.252219 
L 79.03761 286.907358 
L 79.68822 286.830055 
L 80.33883 282.071323 
L 80.989441 283.631207 
L 81.640051 284.540244 
L 82.290661 280.823682 
L 82.941272 286.248354 
L 83.591882 281.612097 
L 84.242492 281.514982 
L 84.893103 283.066313 
L 85.543713 283.152346 
L 86.194323 285.827743 
L 86.844934 285.438307 
L 87.495544 282.959491 
L 88.146154 281.796151 
L 88.796764 285.753333 
L 89.447375 281.513996 
L 90.097985 282.751197 
L 90.748595 282.495 
L 91.399206 286.055578 
L 92.049816 284.744703 
L 92.700426 281.709211 
L 93.351037 284.510962 
L 94.001647 283.564195 
L 95.302868 287.303002 
L 95.953478 283.323533 
L 96.604088 282.849707 
L 97.254698 290.069513 
L 97.905309 282.416126 
L 98.555919 283.009721 
L 99.206529 279.771088 
L 99.85714 284.317704 
L 100.50775 282.346476 
L 101.15836 283.274113 
L 101.808971 282.539734 
L 102.459581 279.834126 
L 103.110191 282.624169 
L 103.760802 282.771643 
L 104.411412 277.128518 
L 105.062022 286.479685 
L 105.712633 286.095675 
L 106.363243 283.927314 
L 107.013853 283.235461 
L 107.664463 284.702282 
L 108.315074 276.664699 
L 108.965684 287.525782 
L 109.616294 279.524913 
L 110.266905 285.747811 
L 110.917515 282.501082 
L 111.568125 280.568505 
L 112.218736 289.651617 
L 112.869346 289.071844 
L 113.519956 279.563565 
L 114.170567 283.776583 
L 114.821177 284.433659 
L 115.471787 283.892537 
L 116.122398 280.877717 
L 116.773008 284.317704 
L 117.423618 282.655688 
L 118.074228 285.052084 
L 118.724839 283.583325 
L 119.375449 291.700149 
L 120.026059 283.583325 
L 120.67667 283.969841 
L 121.32728 284.047144 
L 121.97789 282.346476 
L 122.628501 282.037263 
L 123.279111 283.931189 
L 123.929721 281.612097 
L 124.580332 283.003552 
L 125.230942 284.008492 
L 125.881552 286.095675 
L 126.532163 287.641737 
L 127.182773 284.240401 
L 127.833383 282.617037 
L 128.483993 284.240401 
L 129.134604 282.539734 
L 130.435824 283.621977 
L 131.086435 279.988732 
L 131.737045 284.047144 
L 132.387655 281.032323 
L 133.038266 291.004421 
L 133.688876 286.134327 
L 134.339486 282.9649 
L 135.640707 287.332525 
L 136.291317 286.21163 
L 136.941927 288.376116 
L 137.592538 283.969841 
L 138.243148 286.598145 
L 138.893758 284.008492 
L 139.544369 282.771643 
L 140.194979 285.438599 
L 140.845589 282.230521 
L 141.4962 282.385127 
L 142.14681 286.907358 
L 142.79742 281.302884 
L 143.448031 283.119507 
L 144.098641 282.346476 
L 144.749251 285.554554 
L 145.399862 279.834126 
L 146.050472 284.781523 
L 146.701082 284.008492 
L 147.351692 282.037263 
L 148.002303 281.728051 
L 148.652913 286.288933 
L 149.303523 287.525782 
L 149.954134 287.950949 
L 150.604744 279.524913 
L 151.255354 286.443539 
L 151.905965 278.906489 
L 152.556575 283.428719 
L 153.207185 285.399948 
L 153.857796 288.646677 
L 154.508406 284.897478 
L 155.159016 287.873646 
L 155.809627 288.917238 
L 156.460237 285.554554 
L 157.110847 287.680389 
L 157.761457 280.375247 
L 158.412068 286.172978 
L 159.062678 287.680389 
L 159.713288 285.747811 
L 160.363899 285.70916 
L 161.014509 287.912298 
L 161.665119 281.109626 
L 162.31573 283.042204 
L 162.96634 286.791403 
L 163.61695 282.771643 
L 164.267561 284.356356 
L 164.918171 293.864635 
L 165.568781 284.665568 
L 166.219392 283.390067 
L 166.870002 284.897478 
L 167.520612 281.844006 
L 168.171222 284.549614 
L 168.821833 282.269173 
L 169.472443 282.926249 
L 170.123053 282.9649 
L 170.773664 283.158158 
L 171.424274 286.018372 
L 172.074884 283.390067 
L 172.725495 281.882657 
L 173.376105 286.675448 
L 174.026715 284.588265 
L 174.677326 284.70422 
L 175.327936 286.907358 
L 175.978546 293.748681 
L 176.629156 287.487131 
L 177.279767 283.776583 
L 177.930377 286.946009 
L 178.580987 284.085795 
L 179.231598 284.626917 
L 179.882208 286.791403 
L 180.532818 284.240401 
L 181.183429 282.926249 
L 181.834039 280.993672 
L 182.484649 284.395008 
L 183.13526 279.679519 
L 183.78587 284.240401 
L 184.43648 281.148278 
L 185.087091 288.337465 
L 185.737701 290.076784 
L 186.388311 280.491202 
L 187.038921 284.510962 
L 187.689532 284.897478 
L 188.340142 282.114567 
L 188.990752 283.660628 
L 189.641363 286.675448 
L 190.291973 285.593205 
L 190.942583 282.230521 
L 191.593194 288.453419 
L 192.243804 280.143338 
L 192.894414 284.008492 
L 193.545025 280.568505 
L 194.195635 283.660628 
L 194.846245 288.569374 
L 195.496856 290.4633 
L 196.147466 282.153218 
L 196.798076 287.487131 
L 197.448686 288.801283 
L 198.099297 282.617037 
L 198.749907 279.834126 
L 199.400517 283.621977 
L 200.051128 286.559494 
L 200.701738 284.317704 
L 201.352348 285.593205 
L 202.002959 286.21163 
L 202.653569 283.312764 
L 203.304179 281.032323 
L 203.95479 283.621977 
L 204.6054 285.283993 
L 205.25601 280.297944 
L 205.906621 285.631857 
L 206.557231 289.419708 
L 207.207841 285.013432 
L 207.858451 290.888467 
L 208.509062 287.409828 
L 209.159672 287.139267 
L 209.810282 287.641737 
L 210.460893 281.6894 
L 211.111503 286.636797 
L 211.762113 281.496142 
L 212.412724 285.863766 
L 213.063334 283.312764 
L 213.713944 284.510962 
L 214.364555 282.9649 
L 215.015165 286.134327 
L 215.665775 284.163098 
L 216.316385 279.95008 
L 216.966996 284.008492 
L 217.617606 284.820174 
L 218.268216 283.390067 
L 218.918827 286.250282 
L 219.569437 283.158158 
L 220.220047 284.395008 
L 220.870658 283.815234 
L 221.521268 282.887597 
L 222.171878 285.786463 
L 222.822489 287.487131 
L 223.473099 285.941069 
L 224.123709 287.487131 
L 224.77432 285.554554 
L 225.42493 284.20175 
L 226.07554 280.413899 
L 226.72615 285.20669 
L 227.376761 286.675448 
L 228.027371 291.7388 
L 228.677981 283.390067 
L 229.328592 287.71904 
L 229.979202 283.312764 
L 230.629812 283.19681 
L 231.280423 286.057024 
L 231.931033 280.916369 
L 232.581643 285.631857 
L 233.232254 281.18693 
L 233.882864 286.327585 
L 234.533474 286.250282 
L 235.184085 285.747811 
L 235.834695 286.21163 
L 236.485305 283.351416 
L 237.135915 283.080855 
L 237.786526 287.564434 
L 238.437136 281.805354 
L 239.087746 284.665568 
L 239.738357 285.322645 
L 240.388967 289.497011 
L 241.039577 280.220641 
L 241.690188 282.539734 
L 242.340798 286.520842 
L 242.991408 285.090735 
L 244.292629 288.839935 
L 244.943239 289.497011 
L 245.59385 282.037263 
L 246.24446 286.675448 
L 246.89507 280.95502 
L 247.54568 281.921309 
L 248.196291 285.168038 
L 248.846901 283.428719 
L 249.497511 284.588265 
L 250.148122 284.936129 
L 250.798732 283.042204 
L 251.449342 290.308693 
L 252.099953 286.675448 
L 252.750563 286.172978 
L 253.401173 283.969841 
L 254.051784 283.158158 
L 254.702394 280.684459 
L 255.353004 283.621977 
L 256.003615 285.554554 
L 256.654225 282.269173 
L 257.304835 288.994541 
L 257.955445 288.260162 
L 258.606056 288.762632 
L 259.256666 285.515902 
L 259.907276 284.974781 
L 260.557887 283.776583 
L 261.208497 285.283993 
L 261.859107 282.153218 
L 262.509718 285.902418 
L 263.160328 287.525782 
L 263.810938 284.510962 
L 264.461549 286.7141 
L 265.112159 278.867837 
L 265.762769 282.075915 
L 266.413379 284.163098 
L 267.06399 285.322645 
L 267.7146 295.488 
L 268.36521 284.356356 
L 269.015821 286.134327 
L 269.666431 281.032323 
L 270.317041 279.795474 
L 270.967652 287.950949 
L 271.618262 280.916369 
L 272.268872 284.047144 
L 272.919483 289.767572 
L 273.570093 279.872777 
L 274.220703 284.588265 
L 274.871314 281.148278 
L 275.521924 287.680389 
L 276.172534 282.926249 
L 276.823144 285.168038 
L 277.473755 278.906489 
L 278.124365 291.352285 
L 278.774975 285.477251 
L 279.425586 285.554554 
L 280.076196 283.969841 
L 280.726806 280.45255 
L 281.377417 282.617037 
L 282.028027 283.815234 
L 282.678637 278.829185 
L 283.329248 285.322645 
L 283.979858 285.515902 
L 284.630468 278.404019 
L 285.281079 282.385127 
L 285.931689 280.181989 
L 286.582299 282.848946 
L 287.232909 287.71904 
L 287.88352 285.438599 
L 288.53413 285.013432 
L 289.18474 287.603085 
L 289.835351 285.747811 
L 290.485961 289.419708 
L 291.136571 287.332525 
L 291.787182 289.96083 
L 292.437792 288.260162 
L 293.088402 283.892537 
L 293.739013 281.18693 
L 294.389623 287.950949 
L 295.040233 286.095675 
L 295.690844 284.626917 
L 296.341454 282.423779 
L 296.992064 282.926249 
L 297.642674 286.636797 
L 298.293285 285.554554 
L 298.943895 278.249412 
L 299.594505 286.791403 
L 300.245116 290.115436 
L 300.895726 282.307824 
L 301.546336 287.409828 
L 302.196947 287.139267 
L 303.498167 284.897478 
L 304.148778 287.023312 
L 304.799388 285.593205 
L 305.449998 278.983792 
L 306.100608 287.989601 
L 306.751219 286.520842 
L 307.401829 286.868706 
L 308.052439 280.723111 
L 308.70305 283.390067 
L 309.35366 285.438599 
L 310.654881 282.346476 
L 311.305491 284.433659 
L 311.956101 291.46824 
L 312.606712 284.820174 
L 313.907932 281.882657 
L 314.558543 280.916369 
L 315.209153 285.941069 
L 315.859763 289.381056 
L 316.510373 281.418839 
L 317.160984 281.302884 
L 317.811594 280.993672 
L 318.462204 282.810294 
L 319.112815 285.013432 
L 319.763425 283.69928 
L 320.414035 288.414768 
L 321.064646 283.003552 
L 321.715256 281.95996 
L 322.365866 288.878586 
L 323.016477 282.037263 
L 323.667087 288.608026 
L 324.317697 287.487131 
L 324.968308 284.820174 
L 325.618918 289.806223 
L 326.269528 286.482191 
L 326.920138 288.182859 
L 327.570749 283.621977 
L 328.871969 285.129387 
L 329.52258 286.984661 
L 330.17319 286.984661 
L 330.8238 285.20669 
L 331.474411 282.075915 
L 332.125021 286.675448 
L 332.775631 285.283993 
L 333.426242 287.950949 
L 334.076852 282.075915 
L 334.727462 282.926249 
L 335.378073 288.260162 
L 336.028683 283.506022 
L 336.679293 282.46243 
L 337.329903 279.988732 
L 337.980514 283.467371 
L 338.631124 279.408959 
L 339.281734 281.766703 
L 339.932345 283.274113 
L 340.582955 290.540603 
L 341.233565 281.728051 
L 341.884176 279.988732 
L 342.534786 286.675448 
L 343.185396 289.342405 
L 343.836007 279.138398 
L 345.137227 286.018372 
L 345.787837 281.805354 
L 346.438448 282.075915 
L 347.089058 282.037263 
L 347.739668 279.563565 
L 348.390279 278.597276 
L 349.040889 285.438599 
L 349.691499 275.814365 
L 350.34211 283.080855 
L 350.99272 283.428719 
L 351.64333 276.973911 
L 352.293941 281.109626 
L 352.944551 277.283124 
L 353.595161 278.365367 
L 354.245772 279.138398 
L 354.896382 272.103817 
L 355.546992 274.191 
L 356.848213 284.20175 
L 358.149433 271.098877 
L 358.800044 273.92044 
L 359.450654 278.983792 
L 360.101264 272.567636 
L 360.751875 274.229652 
L 361.402485 271.601347 
L 362.053095 272.838197 
L 362.703706 276.93526 
L 363.354316 272.490333 
L 364.004926 276.626048 
L 364.655537 275.737062 
L 365.306147 277.553685 
L 365.956757 272.992803 
L 366.607367 271.369438 
L 367.257978 274.616167 
L 367.908588 271.871908 
L 368.559198 271.214832 
L 369.209809 269.398209 
L 369.860419 270.016634 
L 370.511029 277.089866 
L 371.16164 276.703351 
L 371.81225 276.046274 
L 372.46286 274.268304 
L 373.113471 274.500213 
L 373.764081 272.799545 
L 374.414691 277.9402 
L 375.065302 276.626048 
L 375.715912 275.93032 
L 376.366522 276.162229 
L 377.017132 277.901548 
L 377.667743 277.012563 
L 378.318353 273.456621 
L 378.968963 276.278184 
L 379.619574 272.9155 
L 380.270184 274.191 
L 381.571405 279.988732 
L 382.222015 281.998612 
L 383.523236 275.968971 
L 384.173846 280.491202 
L 384.824456 279.486262 
L 385.475066 271.524044 
L 386.125677 276.394138 
L 386.776287 275.582456 
L 387.426897 275.621108 
L 388.077508 278.983792 
L 388.728118 275.273244 
L 389.378728 273.68853 
L 390.029339 276.973911 
L 390.679949 276.43279 
L 391.98117 280.568505 
L 392.63178 280.104686 
L 393.28239 274.577516 
L 393.933001 274.732122 
L 394.583611 275.389198 
L 395.234221 281.496142 
L 395.884831 279.795474 
L 396.535442 273.302015 
L 397.186052 272.18112 
L 397.836662 277.9402 
L 398.487273 275.891668 
L 398.487273 275.891668 
" style="fill:none;stroke:#0000ff;stroke-linecap:square;stroke-width:1.5;"/>
   </g>
   <g id="line2d_32">
    <path clip-path="url(#p69bba80a8a)" d="M 73.832727 236.158496 
L 74.483338 227.696215 
L 75.133948 229.070781 
L 75.784558 229.223526 
L 76.435169 231.777976 
L 77.085779 227.567476 
L 77.736389 229.857639 
L 78.386999 230.961397 
L 79.03761 231.498906 
L 79.68822 234.252946 
L 80.33883 225.749724 
L 80.989441 229.586291 
L 81.640051 232.756295 
L 82.290661 227.989846 
L 82.941272 233.730799 
L 83.591882 222.694163 
L 84.242492 224.588338 
L 84.893103 223.369809 
L 85.543713 230.253737 
L 86.194323 230.431516 
L 86.844934 231.383217 
L 87.495544 227.782548 
L 88.146154 225.371783 
L 88.796764 229.514452 
L 89.447375 227.454506 
L 90.097985 225.008828 
L 90.748595 230.423462 
L 91.399206 233.860016 
L 92.049816 230.009065 
L 92.700426 228.617444 
L 93.351037 229.384391 
L 94.001647 229.3855 
L 95.302868 231.702164 
L 95.953478 230.289642 
L 96.604088 228.348497 
L 97.254698 235.7862 
L 97.905309 230.050316 
L 98.555919 229.464898 
L 99.206529 224.38978 
L 99.85714 229.909567 
L 100.50775 226.492136 
L 101.15836 225.898363 
L 101.808971 230.93994 
L 102.459581 227.173134 
L 103.110191 230.486281 
L 103.760802 231.193915 
L 104.411412 222.208716 
L 105.062022 232.235145 
L 105.712633 232.530941 
L 107.013853 227.482893 
L 107.664463 233.122367 
L 108.315074 224.76191 
L 108.965684 233.061508 
L 109.616294 224.348108 
L 110.266905 232.431782 
L 110.917515 226.638291 
L 111.568125 226.441564 
L 112.218736 236.40309 
L 112.869346 235.8203 
L 113.519956 227.474377 
L 114.170567 228.294937 
L 114.821177 232.789775 
L 115.471787 227.653296 
L 116.122398 226.547355 
L 116.773008 228.382366 
L 118.074228 234.262737 
L 118.724839 229.421508 
L 119.375449 238.691437 
L 120.026059 227.088586 
L 120.67667 229.138041 
L 121.32728 232.320015 
L 121.97789 229.708823 
L 122.628501 229.978371 
L 123.279111 230.6986 
L 123.929721 226.585548 
L 125.230942 232.069161 
L 125.881552 230.408689 
L 126.532163 232.554625 
L 127.182773 231.89394 
L 127.833383 227.833688 
L 128.483993 232.502515 
L 129.134604 226.573369 
L 129.785214 229.890997 
L 130.435824 232.425153 
L 131.086435 225.165692 
L 131.737045 230.715985 
L 132.387655 227.252831 
L 133.038266 234.020578 
L 134.339486 226.983176 
L 134.990097 229.179937 
L 135.640707 234.24472 
L 136.291317 232.353525 
L 136.941927 236.779927 
L 137.592538 225.796009 
L 138.243148 230.91364 
L 138.893758 233.374146 
L 139.544369 230.835993 
L 140.194979 234.33081 
L 140.845589 230.64926 
L 141.4962 224.578132 
L 142.14681 230.898206 
L 142.79742 224.524098 
L 143.448031 231.000385 
L 144.098641 229.121759 
L 144.749251 232.008621 
L 145.399862 225.850719 
L 146.050472 229.59129 
L 146.701082 227.116416 
L 147.351692 228.261883 
L 148.002303 227.442363 
L 148.652913 228.689589 
L 149.303523 233.006676 
L 149.954134 234.585164 
L 150.604744 224.576013 
L 151.255354 235.921154 
L 151.905965 224.873071 
L 152.556575 226.47582 
L 153.207185 229.484698 
L 153.857796 233.046518 
L 154.508406 231.831078 
L 155.159016 233.16627 
L 155.809627 234.216375 
L 156.460237 231.963999 
L 157.110847 233.277043 
L 157.761457 223.033031 
L 158.412068 235.652057 
L 159.062678 231.281564 
L 159.713288 233.450247 
L 160.363899 230.331279 
L 161.014509 233.113857 
L 161.665119 225.445622 
L 162.31573 232.250621 
L 162.96634 234.744494 
L 163.61695 226.996785 
L 164.267561 228.393528 
L 164.918171 235.495547 
L 165.568781 226.952215 
L 166.219392 229.728641 
L 166.870002 228.575205 
L 167.520612 229.210255 
L 168.171222 233.996943 
L 168.821833 229.037832 
L 169.472443 230.547434 
L 170.123053 227.218509 
L 170.773664 228.305642 
L 171.424274 231.942061 
L 172.074884 226.06729 
L 172.725495 227.630554 
L 173.376105 235.780907 
L 174.026715 231.357486 
L 174.677326 229.191132 
L 175.327936 229.946065 
L 175.978546 242.637895 
L 176.629156 232.448421 
L 177.279767 231.603243 
L 177.930377 229.323366 
L 178.580987 230.502099 
L 179.231598 232.616301 
L 179.882208 231.019974 
L 180.532818 232.885082 
L 181.183429 229.340601 
L 181.834039 223.298636 
L 182.484649 230.537222 
L 183.13526 226.831398 
L 183.78587 231.202148 
L 184.43648 227.29826 
L 185.087091 239.542683 
L 185.737701 236.088466 
L 186.388311 224.515028 
L 187.038921 231.046295 
L 188.340142 222.726488 
L 188.990752 229.452051 
L 189.641363 234.071864 
L 190.291973 229.704747 
L 190.942583 226.366754 
L 191.593194 234.52834 
L 192.243804 223.831928 
L 192.894414 228.920132 
L 193.545025 222.038903 
L 194.195635 232.212087 
L 194.846245 236.932303 
L 195.496856 236.842605 
L 196.147466 225.381431 
L 196.798076 235.450958 
L 197.448686 233.566026 
L 198.099297 227.964741 
L 198.749907 224.021995 
L 199.400517 230.986353 
L 200.701738 235.379602 
L 201.352348 228.269033 
L 202.002959 230.018629 
L 202.653569 229.221813 
L 203.304179 225.085301 
L 203.95479 229.763082 
L 204.6054 233.215115 
L 205.25601 226.712296 
L 205.906621 228.679049 
L 206.557231 233.0892 
L 207.207841 232.585982 
L 207.858451 237.62782 
L 208.509062 235.739496 
L 209.159672 234.321529 
L 209.810282 237.269064 
L 210.460893 229.374056 
L 211.111503 231.573609 
L 211.762113 229.338167 
L 212.412724 230.985382 
L 213.063334 227.879608 
L 213.713944 230.291583 
L 214.364555 230.441807 
L 215.015165 231.712311 
L 215.665775 230.122161 
L 216.316385 226.875574 
L 216.966996 229.960478 
L 217.617606 227.447549 
L 218.268216 229.395593 
L 218.918827 234.089313 
L 219.569437 229.483982 
L 220.870658 231.201541 
L 221.521268 230.619179 
L 222.171878 230.538603 
L 222.822489 233.257819 
L 223.473099 230.911046 
L 224.123709 233.767105 
L 224.77432 229.885652 
L 225.42493 228.908277 
L 226.07554 226.867366 
L 226.72615 233.912861 
L 227.376761 229.551673 
L 228.027371 237.382089 
L 228.677981 230.220885 
L 229.328592 234.22 
L 229.979202 225.329474 
L 230.629812 228.93964 
L 231.280423 230.439416 
L 231.931033 226.117315 
L 232.581643 229.813035 
L 233.232254 224.590737 
L 233.882864 237.273372 
L 234.533474 229.072122 
L 235.184085 231.586657 
L 235.834695 231.103165 
L 236.485305 228.758593 
L 237.135915 232.199275 
L 237.786526 234.070309 
L 238.437136 227.646627 
L 239.087746 231.299014 
L 239.738357 227.206559 
L 240.388967 236.551678 
L 241.039577 226.675992 
L 241.690188 225.999728 
L 242.340798 234.232991 
L 242.991408 229.315877 
L 243.642019 230.272218 
L 244.292629 233.50433 
L 244.943239 230.914941 
L 245.59385 227.009643 
L 246.24446 233.992405 
L 246.89507 226.816489 
L 247.54568 226.1299 
L 248.196291 231.824205 
L 248.846901 227.867333 
L 249.497511 231.706642 
L 250.148122 229.776655 
L 250.798732 225.905458 
L 251.449342 235.822699 
L 252.099953 230.447896 
L 252.750563 227.193259 
L 253.401173 227.866771 
L 254.051784 228.371046 
L 254.702394 228.337314 
L 255.353004 233.130339 
L 256.003615 229.25588 
L 256.654225 228.224545 
L 257.304835 238.09002 
L 257.955445 234.519005 
L 258.606056 233.508837 
L 259.256666 231.089933 
L 259.907276 228.102731 
L 260.557887 232.341502 
L 261.208497 233.896699 
L 261.859107 231.136053 
L 263.160328 233.259362 
L 263.810938 227.655411 
L 264.461549 230.695014 
L 265.112159 227.719724 
L 265.762769 225.561915 
L 266.413379 230.689085 
L 267.06399 233.098933 
L 267.7146 240.199824 
L 268.36521 230.051848 
L 269.015821 232.732064 
L 269.666431 227.553686 
L 270.317041 227.280687 
L 270.967652 232.735981 
L 271.618262 224.877285 
L 272.919483 232.635428 
L 273.570093 224.062106 
L 274.220703 229.666736 
L 274.871314 225.336522 
L 275.521924 230.179793 
L 276.823144 227.704023 
L 277.473755 221.370192 
L 278.124365 237.515585 
L 278.774975 228.002005 
L 279.425586 230.969654 
L 280.076196 229.663682 
L 280.726806 223.774311 
L 282.028027 227.951373 
L 282.678637 222.860258 
L 283.329248 230.160733 
L 283.979858 233.838357 
L 284.630468 225.990034 
L 285.281079 228.461032 
L 285.931689 223.914703 
L 286.582299 231.220902 
L 287.232909 236.491003 
L 287.88352 227.214455 
L 288.53413 231.013811 
L 289.18474 233.383706 
L 289.835351 228.257609 
L 290.485961 236.052635 
L 291.136571 233.307457 
L 291.787182 234.569731 
L 292.437792 233.658569 
L 293.739013 225.62436 
L 294.389623 233.1706 
L 295.040233 231.733632 
L 295.690844 227.230796 
L 296.341454 227.221596 
L 296.992064 228.940629 
L 297.642674 232.228659 
L 298.293285 231.431408 
L 298.943895 225.651622 
L 299.594505 231.245439 
L 300.245116 231.548465 
L 300.895726 227.20428 
L 301.546336 234.867894 
L 302.196947 236.469602 
L 302.847557 230.33716 
L 303.498167 231.181915 
L 304.148778 234.776492 
L 304.799388 229.619273 
L 305.449998 227.211267 
L 306.100608 238.633913 
L 306.751219 233.236765 
L 307.401829 231.303112 
L 308.052439 227.912161 
L 308.70305 226.738404 
L 309.35366 227.533494 
L 310.00427 227.260901 
L 310.654881 227.703543 
L 311.305491 231.724646 
L 311.956101 238.084667 
L 312.606712 232.286615 
L 313.257322 230.101733 
L 313.907932 225.481184 
L 314.558543 224.526485 
L 315.209153 230.943633 
L 315.859763 233.768499 
L 316.510373 225.924929 
L 317.160984 224.136013 
L 317.811594 231.12054 
L 318.462204 228.131831 
L 319.112815 228.865419 
L 319.763425 230.473931 
L 320.414035 234.216761 
L 321.715256 227.165773 
L 322.365866 234.851307 
L 323.016477 225.056985 
L 323.667087 235.394537 
L 324.317697 231.650755 
L 324.968308 232.263869 
L 325.618918 236.637434 
L 326.269528 234.462844 
L 326.920138 236.639901 
L 327.570749 230.658137 
L 328.221359 231.785158 
L 328.871969 229.060413 
L 329.52258 232.272874 
L 330.17319 232.131069 
L 330.8238 228.712586 
L 331.474411 225.901301 
L 332.125021 233.506898 
L 332.775631 230.246925 
L 333.426242 232.941997 
L 334.076852 226.061096 
L 334.727462 229.084721 
L 335.378073 234.674904 
L 336.028683 232.494787 
L 337.329903 227.06242 
L 337.980514 226.027278 
L 339.281734 228.945669 
L 339.932345 224.437998 
L 340.582955 230.263539 
L 341.233565 227.762539 
L 341.884176 228.215341 
L 342.534786 230.458525 
L 343.185396 233.443135 
L 343.836007 220.987362 
L 344.486617 225.673384 
L 345.137227 228.639329 
L 345.787837 226.037528 
L 346.438448 227.894008 
L 347.089058 226.104877 
L 347.739668 222.450879 
L 348.390279 222.945552 
L 349.040889 230.870082 
L 349.691499 214.516627 
L 350.34211 228.92239 
L 350.99272 225.756383 
L 351.64333 219.753962 
L 352.293941 219.795671 
L 352.944551 217.536091 
L 353.595161 220.945461 
L 354.245772 223.433171 
L 354.896382 216.98119 
L 355.546992 217.475398 
L 356.197602 225.523682 
L 356.848213 226.538222 
L 357.498823 217.399457 
L 358.149433 215.408242 
L 358.800044 220.556124 
L 359.450654 220.083915 
L 360.101264 216.774781 
L 360.751875 222.204634 
L 361.402485 215.277165 
L 362.053095 215.167415 
L 362.703706 219.393005 
L 363.354316 216.352325 
L 364.004926 222.613937 
L 364.655537 218.047827 
L 365.306147 225.147339 
L 365.956757 221.07771 
L 366.607367 215.390382 
L 367.257978 217.759776 
L 367.908588 214.718627 
L 369.209809 214.098888 
L 369.860419 215.126001 
L 370.511029 219.203959 
L 371.16164 218.68906 
L 371.81225 222.093595 
L 372.46286 218.686634 
L 373.113471 216.950364 
L 373.764081 214.043913 
L 374.414691 220.340648 
L 375.065302 218.0188 
L 375.715912 220.430811 
L 377.017132 222.880648 
L 377.667743 222.235828 
L 378.318353 216.44489 
L 378.968963 219.071865 
L 379.619574 214.784108 
L 380.920794 221.088378 
L 381.571405 225.724445 
L 382.222015 226.653977 
L 382.872625 224.551038 
L 383.523236 216.678413 
L 384.173846 225.256553 
L 384.824456 221.829678 
L 385.475066 214.648737 
L 386.125677 224.682261 
L 386.776287 219.463612 
L 387.426897 220.078761 
L 388.077508 223.759733 
L 388.728118 219.76683 
L 389.378728 214.399346 
L 390.029339 223.578796 
L 390.679949 222.958776 
L 391.330559 221.227621 
L 391.98117 226.707183 
L 392.63178 218.919418 
L 393.28239 220.205415 
L 393.933001 218.227904 
L 394.583611 220.745719 
L 395.234221 227.580483 
L 395.884831 224.293273 
L 396.535442 213.199489 
L 397.186052 214.362961 
L 397.836662 220.642304 
L 398.487273 218.135141 
L 398.487273 218.135141 
" style="fill:none;stroke:#008000;stroke-dasharray:9.6,2.4,1.5,2.4;stroke-dashoffset:0;stroke-width:1.5;"/>
   </g>
   <g id="line2d_33">
    <path clip-path="url(#p69bba80a8a)" d="M 73.832727 130.871084 
L 74.483338 130.871084 
L 75.133948 146.3317 
L 75.784558 146.3317 
L 77.085779 115.410467 
L 77.736389 115.410467 
L 78.386999 130.871084 
L 79.03761 130.871084 
L 79.68822 115.410467 
L 80.33883 146.3317 
L 80.989441 146.3317 
L 82.290661 115.410467 
L 82.941272 115.410467 
L 83.591882 130.871084 
L 84.242492 130.871084 
L 84.893103 115.410467 
L 85.543713 146.3317 
L 86.194323 99.94985 
L 86.844934 130.871084 
L 87.495544 146.3317 
L 88.146154 99.94985 
L 88.796764 69.028617 
L 89.447375 115.410467 
L 90.097985 69.028617 
L 90.748595 130.871084 
L 91.399206 99.94985 
L 92.049816 130.871084 
L 92.700426 146.3317 
L 93.351037 130.871084 
L 95.302868 130.871084 
L 95.953478 115.410467 
L 97.254698 115.410467 
L 97.905309 146.3317 
L 99.206529 146.3317 
L 99.85714 130.871084 
L 100.50775 84.489233 
L 101.15836 146.3317 
L 101.808971 161.792317 
L 102.459581 115.410467 
L 103.110191 115.410467 
L 103.760802 146.3317 
L 104.411412 130.871084 
L 105.062022 130.871084 
L 105.712633 146.3317 
L 106.363243 115.410467 
L 107.664463 115.410467 
L 108.315074 84.489233 
L 108.965684 146.3317 
L 109.616294 115.410467 
L 110.266905 130.871084 
L 110.917515 99.94985 
L 111.568125 115.410467 
L 112.218736 146.3317 
L 112.869346 115.410467 
L 114.170567 115.410467 
L 114.821177 146.3317 
L 115.471787 115.410467 
L 116.773008 115.410467 
L 117.423618 130.871084 
L 118.074228 161.792317 
L 118.724839 115.410467 
L 119.375449 130.871084 
L 120.026059 99.94985 
L 120.67667 130.871084 
L 121.32728 130.871084 
L 121.97789 115.410467 
L 122.628501 146.3317 
L 123.279111 130.871084 
L 123.929721 99.94985 
L 124.580332 130.871084 
L 125.230942 130.871084 
L 125.881552 115.410467 
L 126.532163 115.410467 
L 127.182773 69.028617 
L 127.833383 146.3317 
L 128.483993 146.3317 
L 129.134604 84.489233 
L 129.785214 130.871084 
L 131.737045 130.871084 
L 132.387655 146.3317 
L 133.038266 115.410467 
L 133.688876 115.410467 
L 134.339486 84.489233 
L 134.990097 130.871084 
L 135.640707 115.410467 
L 136.291317 146.3317 
L 136.941927 146.3317 
L 137.592538 99.94985 
L 138.893758 99.94985 
L 139.544369 161.792317 
L 140.194979 161.792317 
L 140.845589 146.3317 
L 141.4962 84.489233 
L 142.14681 130.871084 
L 142.79742 99.94985 
L 143.448031 130.871084 
L 145.399862 130.871084 
L 146.050472 115.410467 
L 146.701082 115.410467 
L 148.002303 146.3317 
L 148.652913 146.3317 
L 149.303523 115.410467 
L 150.604744 115.410467 
L 151.255354 161.792317 
L 151.905965 99.94985 
L 153.207185 130.871084 
L 153.857796 115.410467 
L 154.508406 130.871084 
L 155.159016 84.489233 
L 155.809627 115.410467 
L 156.460237 99.94985 
L 157.110847 99.94985 
L 157.761457 115.410467 
L 158.412068 146.3317 
L 159.062678 99.94985 
L 159.713288 84.489233 
L 160.363899 99.94985 
L 161.014509 146.3317 
L 161.665119 115.410467 
L 162.96634 146.3317 
L 163.61695 130.871084 
L 164.267561 130.871084 
L 164.918171 84.489233 
L 166.219392 115.410467 
L 166.870002 84.489233 
L 168.171222 146.3317 
L 168.821833 146.3317 
L 169.472443 130.871084 
L 170.123053 130.871084 
L 170.773664 84.489233 
L 171.424274 146.3317 
L 172.725495 115.410467 
L 173.376105 115.410467 
L 174.026715 99.94985 
L 174.677326 69.028617 
L 175.978546 130.871084 
L 176.629156 146.3317 
L 177.279767 115.410467 
L 177.930377 115.410467 
L 178.580987 146.3317 
L 179.231598 130.871084 
L 181.183429 130.871084 
L 181.834039 115.410467 
L 182.484649 115.410467 
L 183.13526 99.94985 
L 183.78587 130.871084 
L 184.43648 99.94985 
L 185.087091 130.871084 
L 185.737701 146.3317 
L 186.388311 115.410467 
L 187.689532 115.410467 
L 188.340142 69.028617 
L 188.990752 84.489233 
L 189.641363 146.3317 
L 190.291973 115.410467 
L 190.942583 130.871084 
L 191.593194 161.792317 
L 192.243804 115.410467 
L 192.894414 130.871084 
L 193.545025 130.871084 
L 194.195635 146.3317 
L 194.846245 115.410467 
L 195.496856 130.871084 
L 196.147466 130.871084 
L 196.798076 146.3317 
L 197.448686 69.028617 
L 198.099297 130.871084 
L 198.749907 146.3317 
L 200.051128 115.410467 
L 200.701738 130.871084 
L 201.352348 130.871084 
L 202.002959 115.410467 
L 202.653569 130.871084 
L 203.304179 130.871084 
L 203.95479 146.3317 
L 205.906621 146.3317 
L 206.557231 115.410467 
L 207.207841 130.871084 
L 207.858451 115.410467 
L 208.509062 115.410467 
L 209.810282 146.3317 
L 211.111503 146.3317 
L 212.412724 53.568 
L 213.063334 130.871084 
L 213.713944 115.410467 
L 214.364555 130.871084 
L 215.015165 99.94985 
L 215.665775 84.489233 
L 216.966996 146.3317 
L 217.617606 130.871084 
L 218.268216 99.94985 
L 218.918827 146.3317 
L 219.569437 115.410467 
L 220.220047 99.94985 
L 220.870658 115.410467 
L 221.521268 161.792317 
L 222.171878 115.410467 
L 224.123709 115.410467 
L 224.77432 146.3317 
L 225.42493 115.410467 
L 226.07554 115.410467 
L 227.376761 146.3317 
L 228.677981 115.410467 
L 229.328592 146.3317 
L 229.979202 130.871084 
L 230.629812 130.871084 
L 231.280423 146.3317 
L 232.581643 115.410467 
L 233.232254 146.3317 
L 233.882864 161.792317 
L 234.533474 115.410467 
L 235.184085 99.94985 
L 235.834695 146.3317 
L 236.485305 99.94985 
L 237.135915 99.94985 
L 237.786526 146.3317 
L 238.437136 99.94985 
L 239.087746 146.3317 
L 239.738357 115.410467 
L 240.388967 130.871084 
L 241.690188 130.871084 
L 242.340798 146.3317 
L 242.991408 84.489233 
L 243.642019 130.871084 
L 244.292629 115.410467 
L 244.943239 84.489233 
L 245.59385 130.871084 
L 246.24446 115.410467 
L 246.89507 130.871084 
L 248.196291 130.871084 
L 249.497511 99.94985 
L 250.148122 130.871084 
L 250.798732 99.94985 
L 251.449342 130.871084 
L 252.099953 115.410467 
L 252.750563 115.410467 
L 253.401173 130.871084 
L 254.702394 130.871084 
L 255.353004 146.3317 
L 256.003615 115.410467 
L 257.304835 146.3317 
L 257.955445 146.3317 
L 258.606056 115.410467 
L 259.256666 161.792317 
L 259.907276 115.410467 
L 260.557887 99.94985 
L 261.208497 130.871084 
L 261.859107 130.871084 
L 262.509718 146.3317 
L 263.160328 130.871084 
L 264.461549 130.871084 
L 265.112159 115.410467 
L 267.06399 115.410467 
L 267.7146 146.3317 
L 268.36521 115.410467 
L 269.015821 130.871084 
L 269.666431 115.410467 
L 270.317041 146.3317 
L 270.967652 146.3317 
L 271.618262 84.489233 
L 272.268872 115.410467 
L 272.919483 84.489233 
L 273.570093 115.410467 
L 274.871314 84.489233 
L 275.521924 84.489233 
L 276.172534 130.871084 
L 276.823144 130.871084 
L 277.473755 115.410467 
L 278.124365 130.871084 
L 279.425586 99.94985 
L 280.076196 130.871084 
L 281.377417 99.94985 
L 282.028027 146.3317 
L 282.678637 99.94985 
L 283.329248 146.3317 
L 283.979858 130.871084 
L 285.281079 130.871084 
L 285.931689 99.94985 
L 286.582299 130.871084 
L 287.232909 130.871084 
L 287.88352 115.410467 
L 288.53413 161.792317 
L 289.18474 115.410467 
L 289.835351 115.410467 
L 291.136571 146.3317 
L 291.787182 130.871084 
L 293.088402 130.871084 
L 293.739013 69.028617 
L 294.389623 146.3317 
L 295.040233 115.410467 
L 295.690844 130.871084 
L 296.341454 84.489233 
L 296.992064 130.871084 
L 297.642674 115.410467 
L 298.293285 115.410467 
L 298.943895 99.94985 
L 300.245116 130.871084 
L 300.895726 99.94985 
L 301.546336 99.94985 
L 302.196947 146.3317 
L 302.847557 130.871084 
L 303.498167 99.94985 
L 304.148778 161.792317 
L 304.799388 99.94985 
L 305.449998 130.871084 
L 306.100608 130.871084 
L 306.751219 146.3317 
L 307.401829 84.489233 
L 308.052439 115.410467 
L 309.35366 84.489233 
L 310.00427 146.3317 
L 310.654881 115.410467 
L 311.956101 146.3317 
L 312.606712 130.871084 
L 313.257322 99.94985 
L 313.907932 99.94985 
L 315.209153 130.871084 
L 315.859763 99.94985 
L 316.510373 84.489233 
L 317.160984 130.871084 
L 317.811594 146.3317 
L 318.462204 130.871084 
L 319.112815 99.94985 
L 319.763425 130.871084 
L 321.715256 130.871084 
L 322.365866 84.489233 
L 323.016477 84.489233 
L 323.667087 146.3317 
L 324.317697 130.871084 
L 324.968308 130.871084 
L 325.618918 115.410467 
L 326.269528 146.3317 
L 326.920138 146.3317 
L 327.570749 99.94985 
L 328.221359 115.410467 
L 328.871969 115.410467 
L 329.52258 99.94985 
L 330.17319 130.871084 
L 330.8238 99.94985 
L 331.474411 115.410467 
L 332.125021 146.3317 
L 332.775631 84.489233 
L 333.426242 130.871084 
L 334.076852 130.871084 
L 334.727462 115.410467 
L 335.378073 146.3317 
L 336.028683 146.3317 
L 336.679293 130.871084 
L 337.329903 130.871084 
L 337.980514 99.94985 
L 338.631124 130.871084 
L 339.281734 146.3317 
L 339.932345 146.3317 
L 340.582955 84.489233 
L 341.884176 115.410467 
L 342.534786 53.568 
L 343.185396 130.871084 
L 343.836007 130.871084 
L 344.486617 53.568 
L 345.137227 99.94985 
L 345.787837 99.94985 
L 346.438448 146.3317 
L 347.089058 115.410467 
L 347.739668 115.410467 
L 348.390279 130.871084 
L 349.040889 130.871084 
L 349.691499 115.410467 
L 351.64333 115.410467 
L 352.293941 69.028617 
L 352.944551 84.489233 
L 353.595161 130.871084 
L 354.245772 115.410467 
L 355.546992 115.410467 
L 356.197602 146.3317 
L 356.848213 84.489233 
L 357.498823 115.410467 
L 358.149433 130.871084 
L 358.800044 99.94985 
L 359.450654 130.871084 
L 360.751875 130.871084 
L 361.402485 115.410467 
L 362.053095 69.028617 
L 362.703706 84.489233 
L 363.354316 115.410467 
L 364.004926 99.94985 
L 365.306147 130.871084 
L 365.956757 130.871084 
L 366.607367 99.94985 
L 367.257978 84.489233 
L 367.908588 99.94985 
L 369.209809 99.94985 
L 369.860419 130.871084 
L 370.511029 84.489233 
L 371.16164 115.410467 
L 373.113471 115.410467 
L 373.764081 84.489233 
L 374.414691 84.489233 
L 375.065302 130.871084 
L 375.715912 99.94985 
L 376.366522 130.871084 
L 377.017132 130.871084 
L 377.667743 146.3317 
L 378.318353 99.94985 
L 379.619574 130.871084 
L 380.270184 99.94985 
L 380.920794 99.94985 
L 381.571405 146.3317 
L 382.222015 115.410467 
L 382.872625 130.871084 
L 383.523236 84.489233 
L 384.173846 115.410467 
L 385.475066 84.489233 
L 386.125677 130.871084 
L 386.776287 115.410467 
L 388.077508 115.410467 
L 388.728118 130.871084 
L 389.378728 99.94985 
L 390.029339 84.489233 
L 390.679949 130.871084 
L 391.330559 115.410467 
L 391.98117 146.3317 
L 392.63178 69.028617 
L 393.28239 99.94985 
L 393.933001 115.410467 
L 394.583611 146.3317 
L 395.234221 146.3317 
L 395.884831 130.871084 
L 396.535442 84.489233 
L 397.186052 99.94985 
L 397.836662 99.94985 
L 398.487273 115.410467 
L 398.487273 115.410467 
" style="fill:none;stroke:#ff0000;stroke-linecap:square;stroke-width:1.5;"/>
   </g>
   <g id="patch_3">
    <path d="M 57.6 307.584 
L 57.6 41.472 
" style="fill:none;stroke:#000000;stroke-linecap:square;stroke-linejoin:miter;stroke-width:0.8;"/>
   </g>
   <g id="patch_4">
    <path d="M 414.72 307.584 
L 414.72 41.472 
" style="fill:none;stroke:#000000;stroke-linecap:square;stroke-linejoin:miter;stroke-width:0.8;"/>
   </g>
   <g id="patch_5">
    <path d="M 57.6 307.584 
L 414.72 307.584 
" style="fill:none;stroke:#000000;stroke-linecap:square;stroke-linejoin:miter;stroke-width:0.8;"/>
   </g>
   <g id="patch_6">
    <path d="M 57.6 41.472 
L 414.72 41.472 
" style="fill:none;stroke:#000000;stroke-linecap:square;stroke-linejoin:miter;stroke-width:0.8;"/>
   </g>
   <g id="text_18">
    <!-- Population's average and best fitness -->
    <defs>
     <path d="M 19.671875 64.796875 
L 19.671875 37.40625 
L 32.078125 37.40625 
Q 38.96875 37.40625 42.71875 40.96875 
Q 46.484375 44.53125 46.484375 51.125 
Q 46.484375 57.671875 42.71875 61.234375 
Q 38.96875 64.796875 32.078125 64.796875 
z
M 9.8125 72.90625 
L 32.078125 72.90625 
Q 44.34375 72.90625 50.609375 67.359375 
Q 56.890625 61.8125 56.890625 51.125 
Q 56.890625 40.328125 50.609375 34.8125 
Q 44.34375 29.296875 32.078125 29.296875 
L 19.671875 29.296875 
L 19.671875 0 
L 9.8125 0 
z
" id="DejaVuSans-80"/>
     <path d="M 18.109375 8.203125 
L 18.109375 -20.796875 
L 9.078125 -20.796875 
L 9.078125 54.6875 
L 18.109375 54.6875 
L 18.109375 46.390625 
Q 20.953125 51.265625 25.265625 53.625 
Q 29.59375 56 35.59375 56 
Q 45.5625 56 51.78125 48.09375 
Q 58.015625 40.1875 58.015625 27.296875 
Q 58.015625 14.40625 51.78125 6.484375 
Q 45.5625 -1.421875 35.59375 -1.421875 
Q 29.59375 -1.421875 25.265625 0.953125 
Q 20.953125 3.328125 18.109375 8.203125 
z
M 48.6875 27.296875 
Q 48.6875 37.203125 44.609375 42.84375 
Q 40.53125 48.484375 33.40625 48.484375 
Q 26.265625 48.484375 22.1875 42.84375 
Q 18.109375 37.203125 18.109375 27.296875 
Q 18.109375 17.390625 22.1875 11.75 
Q 26.265625 6.109375 33.40625 6.109375 
Q 40.53125 6.109375 44.609375 11.75 
Q 48.6875 17.390625 48.6875 27.296875 
z
" id="DejaVuSans-112"/>
     <path d="M 8.5 21.578125 
L 8.5 54.6875 
L 17.484375 54.6875 
L 17.484375 21.921875 
Q 17.484375 14.15625 20.5 10.265625 
Q 23.53125 6.390625 29.59375 6.390625 
Q 36.859375 6.390625 41.078125 11.03125 
Q 45.3125 15.671875 45.3125 23.6875 
L 45.3125 54.6875 
L 54.296875 54.6875 
L 54.296875 0 
L 45.3125 0 
L 45.3125 8.40625 
Q 42.046875 3.421875 37.71875 1 
Q 33.40625 -1.421875 27.6875 -1.421875 
Q 18.265625 -1.421875 13.375 4.4375 
Q 8.5 10.296875 8.5 21.578125 
z
M 31.109375 56 
z
" id="DejaVuSans-117"/>
     <path d="M 9.421875 75.984375 
L 18.40625 75.984375 
L 18.40625 0 
L 9.421875 0 
z
" id="DejaVuSans-108"/>
     <path d="M 17.921875 72.90625 
L 17.921875 45.796875 
L 9.625 45.796875 
L 9.625 72.90625 
z
" id="DejaVuSans-39"/>
     <path id="DejaVuSans-32"/>
     <path d="M 2.984375 54.6875 
L 12.5 54.6875 
L 29.59375 8.796875 
L 46.6875 54.6875 
L 56.203125 54.6875 
L 35.6875 0 
L 23.484375 0 
z
" id="DejaVuSans-118"/>
     <path d="M 45.40625 27.984375 
Q 45.40625 37.75 41.375 43.109375 
Q 37.359375 48.484375 30.078125 48.484375 
Q 22.859375 48.484375 18.828125 43.109375 
Q 14.796875 37.75 14.796875 27.984375 
Q 14.796875 18.265625 18.828125 12.890625 
Q 22.859375 7.515625 30.078125 7.515625 
Q 37.359375 7.515625 41.375 12.890625 
Q 45.40625 18.265625 45.40625 27.984375 
z
M 54.390625 6.78125 
Q 54.390625 -7.171875 48.1875 -13.984375 
Q 42 -20.796875 29.203125 -20.796875 
Q 24.46875 -20.796875 20.265625 -20.09375 
Q 16.0625 -19.390625 12.109375 -17.921875 
L 12.109375 -9.1875 
Q 16.0625 -11.328125 19.921875 -12.34375 
Q 23.78125 -13.375 27.78125 -13.375 
Q 36.625 -13.375 41.015625 -8.765625 
Q 45.40625 -4.15625 45.40625 5.171875 
L 45.40625 9.625 
Q 42.625 4.78125 38.28125 2.390625 
Q 33.9375 0 27.875 0 
Q 17.828125 0 11.671875 7.65625 
Q 5.515625 15.328125 5.515625 27.984375 
Q 5.515625 40.671875 11.671875 48.328125 
Q 17.828125 56 27.875 56 
Q 33.9375 56 38.28125 53.609375 
Q 42.625 51.21875 45.40625 46.390625 
L 45.40625 54.6875 
L 54.390625 54.6875 
z
" id="DejaVuSans-103"/>
     <path d="M 45.40625 46.390625 
L 45.40625 75.984375 
L 54.390625 75.984375 
L 54.390625 0 
L 45.40625 0 
L 45.40625 8.203125 
Q 42.578125 3.328125 38.25 0.953125 
Q 33.9375 -1.421875 27.875 -1.421875 
Q 17.96875 -1.421875 11.734375 6.484375 
Q 5.515625 14.40625 5.515625 27.296875 
Q 5.515625 40.1875 11.734375 48.09375 
Q 17.96875 56 27.875 56 
Q 33.9375 56 38.25 53.625 
Q 42.578125 51.265625 45.40625 46.390625 
z
M 14.796875 27.296875 
Q 14.796875 17.390625 18.875 11.75 
Q 22.953125 6.109375 30.078125 6.109375 
Q 37.203125 6.109375 41.296875 11.75 
Q 45.40625 17.390625 45.40625 27.296875 
Q 45.40625 37.203125 41.296875 42.84375 
Q 37.203125 48.484375 30.078125 48.484375 
Q 22.953125 48.484375 18.875 42.84375 
Q 14.796875 37.203125 14.796875 27.296875 
z
" id="DejaVuSans-100"/>
     <path d="M 48.6875 27.296875 
Q 48.6875 37.203125 44.609375 42.84375 
Q 40.53125 48.484375 33.40625 48.484375 
Q 26.265625 48.484375 22.1875 42.84375 
Q 18.109375 37.203125 18.109375 27.296875 
Q 18.109375 17.390625 22.1875 11.75 
Q 26.265625 6.109375 33.40625 6.109375 
Q 40.53125 6.109375 44.609375 11.75 
Q 48.6875 17.390625 48.6875 27.296875 
z
M 18.109375 46.390625 
Q 20.953125 51.265625 25.265625 53.625 
Q 29.59375 56 35.59375 56 
Q 45.5625 56 51.78125 48.09375 
Q 58.015625 40.1875 58.015625 27.296875 
Q 58.015625 14.40625 51.78125 6.484375 
Q 45.5625 -1.421875 35.59375 -1.421875 
Q 29.59375 -1.421875 25.265625 0.953125 
Q 20.953125 3.328125 18.109375 8.203125 
L 18.109375 0 
L 9.078125 0 
L 9.078125 75.984375 
L 18.109375 75.984375 
z
" id="DejaVuSans-98"/>
     <path d="M 37.109375 75.984375 
L 37.109375 68.5 
L 28.515625 68.5 
Q 23.6875 68.5 21.796875 66.546875 
Q 19.921875 64.59375 19.921875 59.515625 
L 19.921875 54.6875 
L 34.71875 54.6875 
L 34.71875 47.703125 
L 19.921875 47.703125 
L 19.921875 0 
L 10.890625 0 
L 10.890625 47.703125 
L 2.296875 47.703125 
L 2.296875 54.6875 
L 10.890625 54.6875 
L 10.890625 58.5 
Q 10.890625 67.625 15.140625 71.796875 
Q 19.390625 75.984375 28.609375 75.984375 
z
" id="DejaVuSans-102"/>
    </defs>
    <g transform="translate(123.315 35.472)scale(0.12 -0.12)">
     <use xlink:href="#DejaVuSans-80"/>
     <use x="60.255859" xlink:href="#DejaVuSans-111"/>
     <use x="121.4375" xlink:href="#DejaVuSans-112"/>
     <use x="184.914062" xlink:href="#DejaVuSans-117"/>
     <use x="248.292969" xlink:href="#DejaVuSans-108"/>
     <use x="276.076172" xlink:href="#DejaVuSans-97"/>
     <use x="337.355469" xlink:href="#DejaVuSans-116"/>
     <use x="376.564453" xlink:href="#DejaVuSans-105"/>
     <use x="404.347656" xlink:href="#DejaVuSans-111"/>
     <use x="465.529297" xlink:href="#DejaVuSans-110"/>
     <use x="528.908203" xlink:href="#DejaVuSans-39"/>
     <use x="556.398438" xlink:href="#DejaVuSans-115"/>
     <use x="608.498047" xlink:href="#DejaVuSans-32"/>
     <use x="640.285156" xlink:href="#DejaVuSans-97"/>
     <use x="701.564453" xlink:href="#DejaVuSans-118"/>
     <use x="760.744141" xlink:href="#DejaVuSans-101"/>
     <use x="822.267578" xlink:href="#DejaVuSans-114"/>
     <use x="863.380859" xlink:href="#DejaVuSans-97"/>
     <use x="924.660156" xlink:href="#DejaVuSans-103"/>
     <use x="988.136719" xlink:href="#DejaVuSans-101"/>
     <use x="1049.660156" xlink:href="#DejaVuSans-32"/>
     <use x="1081.447266" xlink:href="#DejaVuSans-97"/>
     <use x="1142.726562" xlink:href="#DejaVuSans-110"/>
     <use x="1206.105469" xlink:href="#DejaVuSans-100"/>
     <use x="1269.582031" xlink:href="#DejaVuSans-32"/>
     <use x="1301.369141" xlink:href="#DejaVuSans-98"/>
     <use x="1364.845703" xlink:href="#DejaVuSans-101"/>
     <use x="1426.369141" xlink:href="#DejaVuSans-115"/>
     <use x="1478.46875" xlink:href="#DejaVuSans-116"/>
     <use x="1517.677734" xlink:href="#DejaVuSans-32"/>
     <use x="1549.464844" xlink:href="#DejaVuSans-102"/>
     <use x="1584.669922" xlink:href="#DejaVuSans-105"/>
     <use x="1612.453125" xlink:href="#DejaVuSans-116"/>
     <use x="1651.662109" xlink:href="#DejaVuSans-110"/>
     <use x="1715.041016" xlink:href="#DejaVuSans-101"/>
     <use x="1776.564453" xlink:href="#DejaVuSans-115"/>
     <use x="1828.664062" xlink:href="#DejaVuSans-115"/>
    </g>
   </g>
   <g id="legend_1">
    <g id="patch_7">
     <path d="M 334.779375 198.045187 
L 407.72 198.045187 
Q 409.72 198.045187 409.72 196.045187 
L 409.72 153.010812 
Q 409.72 151.010812 407.72 151.010812 
L 334.779375 151.010812 
Q 332.779375 151.010812 332.779375 153.010812 
L 332.779375 196.045187 
Q 332.779375 198.045187 334.779375 198.045187 
z
" style="fill:#ffffff;opacity:0.8;stroke:#cccccc;stroke-linejoin:miter;"/>
    </g>
    <g id="line2d_34">
     <path d="M 336.779375 159.10925 
L 356.779375 159.10925 
" style="fill:none;stroke:#0000ff;stroke-linecap:square;stroke-width:1.5;"/>
    </g>
    <g id="line2d_35"/>
    <g id="text_19">
     <!-- average -->
     <g transform="translate(364.779375 162.60925)scale(0.1 -0.1)">
      <use xlink:href="#DejaVuSans-97"/>
      <use x="61.279297" xlink:href="#DejaVuSans-118"/>
      <use x="120.458984" xlink:href="#DejaVuSans-101"/>
      <use x="181.982422" xlink:href="#DejaVuSans-114"/>
      <use x="223.095703" xlink:href="#DejaVuSans-97"/>
      <use x="284.375" xlink:href="#DejaVuSans-103"/>
      <use x="347.851562" xlink:href="#DejaVuSans-101"/>
     </g>
    </g>
    <g id="line2d_36">
     <path d="M 336.779375 173.787375 
L 356.779375 173.787375 
" style="fill:none;stroke:#008000;stroke-dasharray:9.6,2.4,1.5,2.4;stroke-dashoffset:0;stroke-width:1.5;"/>
    </g>
    <g id="line2d_37"/>
    <g id="text_20">
     <!-- +1 sd -->
     <defs>
      <path d="M 46 62.703125 
L 46 35.5 
L 73.1875 35.5 
L 73.1875 27.203125 
L 46 27.203125 
L 46 0 
L 37.796875 0 
L 37.796875 27.203125 
L 10.59375 27.203125 
L 10.59375 35.5 
L 37.796875 35.5 
L 37.796875 62.703125 
z
" id="DejaVuSans-43"/>
     </defs>
     <g transform="translate(364.779375 177.287375)scale(0.1 -0.1)">
      <use xlink:href="#DejaVuSans-43"/>
      <use x="83.789062" xlink:href="#DejaVuSans-49"/>
      <use x="147.412109" xlink:href="#DejaVuSans-32"/>
      <use x="179.199219" xlink:href="#DejaVuSans-115"/>
      <use x="231.298828" xlink:href="#DejaVuSans-100"/>
     </g>
    </g>
    <g id="line2d_38">
     <path d="M 336.779375 188.4655 
L 356.779375 188.4655 
" style="fill:none;stroke:#ff0000;stroke-linecap:square;stroke-width:1.5;"/>
    </g>
    <g id="line2d_39"/>
    <g id="text_21">
     <!-- best -->
     <g transform="translate(364.779375 191.9655)scale(0.1 -0.1)">
      <use xlink:href="#DejaVuSans-98"/>
      <use x="63.476562" xlink:href="#DejaVuSans-101"/>
      <use x="125" xlink:href="#DejaVuSans-115"/>
      <use x="177.099609" xlink:href="#DejaVuSans-116"/>
     </g>
    </g>
   </g>
  </g>
 </g>
 <defs>
  <clipPath id="p69bba80a8a">
   <rect height="266.112" width="357.12" x="57.6" y="41.472"/>
  </clipPath>
 </defs>
</svg>
