<?xml version="1.0" encoding="utf-8" standalone="no"?>
<!DOCTYPE svg PUBLIC "-//W3C//DTD SVG 1.1//EN"
  "http://www.w3.org/Graphics/SVG/1.1/DTD/svg11.dtd">
<!-- Created with matplotlib (https://matplotlib.org/) -->
<svg height="345.6pt" version="1.1" viewBox="0 0 460.8 345.6" width="460.8pt" xmlns="http://www.w3.org/2000/svg" xmlns:xlink="http://www.w3.org/1999/xlink">
 <defs>
  <style type="text/css">
*{stroke-linecap:butt;stroke-linejoin:round;}
  </style>
 </defs>
 <g id="figure_1">
  <g id="patch_1">
   <path d="M 0 345.6 
L 460.8 345.6 
L 460.8 0 
L 0 0 
z
" style="fill:#ffffff;"/>
  </g>
  <g id="axes_1">
   <g id="patch_2">
    <path d="M 57.6 307.584 
L 414.72 307.584 
L 414.72 41.472 
L 57.6 41.472 
z
" style="fill:#ffffff;"/>
   </g>
   <g id="matplotlib.axis_1">
    <g id="xtick_1">
     <g id="line2d_1">
      <path clip-path="url(#pf65eb99a3c)" d="M 73.832727 307.584 
L 73.832727 41.472 
" style="fill:none;stroke:#b0b0b0;stroke-linecap:square;stroke-width:0.8;"/>
     </g>
     <g id="line2d_2">
      <defs>
       <path d="M 0 0 
L 0 3.5 
" id="m1e77c342df" style="stroke:#000000;stroke-width:0.8;"/>
      </defs>
      <g>
       <use style="stroke:#000000;stroke-width:0.8;" x="73.832727" xlink:href="#m1e77c342df" y="307.584"/>
      </g>
     </g>
     <g id="text_1">
      <!-- 0 -->
      <defs>
       <path d="M 31.78125 66.40625 
Q 24.171875 66.40625 20.328125 58.90625 
Q 16.5 51.421875 16.5 36.375 
Q 16.5 21.390625 20.328125 13.890625 
Q 24.171875 6.390625 31.78125 6.390625 
Q 39.453125 6.390625 43.28125 13.890625 
Q 47.125 21.390625 47.125 36.375 
Q 47.125 51.421875 43.28125 58.90625 
Q 39.453125 66.40625 31.78125 66.40625 
z
M 31.78125 74.21875 
Q 44.046875 74.21875 50.515625 64.515625 
Q 56.984375 54.828125 56.984375 36.375 
Q 56.984375 17.96875 50.515625 8.265625 
Q 44.046875 -1.421875 31.78125 -1.421875 
Q 19.53125 -1.421875 13.0625 8.265625 
Q 6.59375 17.96875 6.59375 36.375 
Q 6.59375 54.828125 13.0625 64.515625 
Q 19.53125 74.21875 31.78125 74.21875 
z
" id="DejaVuSans-48"/>
      </defs>
      <g transform="translate(70.651477 322.182437)scale(0.1 -0.1)">
       <use xlink:href="#DejaVuSans-48"/>
      </g>
     </g>
    </g>
    <g id="xtick_2">
     <g id="line2d_3">
      <path clip-path="url(#pf65eb99a3c)" d="M 138.893758 307.584 
L 138.893758 41.472 
" style="fill:none;stroke:#b0b0b0;stroke-linecap:square;stroke-width:0.8;"/>
     </g>
     <g id="line2d_4">
      <g>
       <use style="stroke:#000000;stroke-width:0.8;" x="138.893758" xlink:href="#m1e77c342df" y="307.584"/>
      </g>
     </g>
     <g id="text_2">
      <!-- 100 -->
      <defs>
       <path d="M 12.40625 8.296875 
L 28.515625 8.296875 
L 28.515625 63.921875 
L 10.984375 60.40625 
L 10.984375 69.390625 
L 28.421875 72.90625 
L 38.28125 72.90625 
L 38.28125 8.296875 
L 54.390625 8.296875 
L 54.390625 0 
L 12.40625 0 
z
" id="DejaVuSans-49"/>
      </defs>
      <g transform="translate(129.350008 322.182437)scale(0.1 -0.1)">
       <use xlink:href="#DejaVuSans-49"/>
       <use x="63.623047" xlink:href="#DejaVuSans-48"/>
       <use x="127.246094" xlink:href="#DejaVuSans-48"/>
      </g>
     </g>
    </g>
    <g id="xtick_3">
     <g id="line2d_5">
      <path clip-path="url(#pf65eb99a3c)" d="M 203.95479 307.584 
L 203.95479 41.472 
" style="fill:none;stroke:#b0b0b0;stroke-linecap:square;stroke-width:0.8;"/>
     </g>
     <g id="line2d_6">
      <g>
       <use style="stroke:#000000;stroke-width:0.8;" x="203.95479" xlink:href="#m1e77c342df" y="307.584"/>
      </g>
     </g>
     <g id="text_3">
      <!-- 200 -->
      <defs>
       <path d="M 19.1875 8.296875 
L 53.609375 8.296875 
L 53.609375 0 
L 7.328125 0 
L 7.328125 8.296875 
Q 12.9375 14.109375 22.625 23.890625 
Q 32.328125 33.6875 34.8125 36.53125 
Q 39.546875 41.84375 41.421875 45.53125 
Q 43.3125 49.21875 43.3125 52.78125 
Q 43.3125 58.59375 39.234375 62.25 
Q 35.15625 65.921875 28.609375 65.921875 
Q 23.96875 65.921875 18.8125 64.3125 
Q 13.671875 62.703125 7.8125 59.421875 
L 7.8125 69.390625 
Q 13.765625 71.78125 18.9375 73 
Q 24.125 74.21875 28.421875 74.21875 
Q 39.75 74.21875 46.484375 68.546875 
Q 53.21875 62.890625 53.21875 53.421875 
Q 53.21875 48.921875 51.53125 44.890625 
Q 49.859375 40.875 45.40625 35.40625 
Q 44.1875 33.984375 37.640625 27.21875 
Q 31.109375 20.453125 19.1875 8.296875 
z
" id="DejaVuSans-50"/>
      </defs>
      <g transform="translate(194.41104 322.182437)scale(0.1 -0.1)">
       <use xlink:href="#DejaVuSans-50"/>
       <use x="63.623047" xlink:href="#DejaVuSans-48"/>
       <use x="127.246094" xlink:href="#DejaVuSans-48"/>
      </g>
     </g>
    </g>
    <g id="xtick_4">
     <g id="line2d_7">
      <path clip-path="url(#pf65eb99a3c)" d="M 269.015821 307.584 
L 269.015821 41.472 
" style="fill:none;stroke:#b0b0b0;stroke-linecap:square;stroke-width:0.8;"/>
     </g>
     <g id="line2d_8">
      <g>
       <use style="stroke:#000000;stroke-width:0.8;" x="269.015821" xlink:href="#m1e77c342df" y="307.584"/>
      </g>
     </g>
     <g id="text_4">
      <!-- 300 -->
      <defs>
       <path d="M 40.578125 39.3125 
Q 47.65625 37.796875 51.625 33 
Q 55.609375 28.21875 55.609375 21.1875 
Q 55.609375 10.40625 48.1875 4.484375 
Q 40.765625 -1.421875 27.09375 -1.421875 
Q 22.515625 -1.421875 17.65625 -0.515625 
Q 12.796875 0.390625 7.625 2.203125 
L 7.625 11.71875 
Q 11.71875 9.328125 16.59375 8.109375 
Q 21.484375 6.890625 26.8125 6.890625 
Q 36.078125 6.890625 40.9375 10.546875 
Q 45.796875 14.203125 45.796875 21.1875 
Q 45.796875 27.640625 41.28125 31.265625 
Q 36.765625 34.90625 28.71875 34.90625 
L 20.21875 34.90625 
L 20.21875 43.015625 
L 29.109375 43.015625 
Q 36.375 43.015625 40.234375 45.921875 
Q 44.09375 48.828125 44.09375 54.296875 
Q 44.09375 59.90625 40.109375 62.90625 
Q 36.140625 65.921875 28.71875 65.921875 
Q 24.65625 65.921875 20.015625 65.03125 
Q 15.375 64.15625 9.8125 62.3125 
L 9.8125 71.09375 
Q 15.4375 72.65625 20.34375 73.4375 
Q 25.25 74.21875 29.59375 74.21875 
Q 40.828125 74.21875 47.359375 69.109375 
Q 53.90625 64.015625 53.90625 55.328125 
Q 53.90625 49.265625 50.4375 45.09375 
Q 46.96875 40.921875 40.578125 39.3125 
z
" id="DejaVuSans-51"/>
      </defs>
      <g transform="translate(259.472071 322.182437)scale(0.1 -0.1)">
       <use xlink:href="#DejaVuSans-51"/>
       <use x="63.623047" xlink:href="#DejaVuSans-48"/>
       <use x="127.246094" xlink:href="#DejaVuSans-48"/>
      </g>
     </g>
    </g>
    <g id="xtick_5">
     <g id="line2d_9">
      <path clip-path="url(#pf65eb99a3c)" d="M 334.076852 307.584 
L 334.076852 41.472 
" style="fill:none;stroke:#b0b0b0;stroke-linecap:square;stroke-width:0.8;"/>
     </g>
     <g id="line2d_10">
      <g>
       <use style="stroke:#000000;stroke-width:0.8;" x="334.076852" xlink:href="#m1e77c342df" y="307.584"/>
      </g>
     </g>
     <g id="text_5">
      <!-- 400 -->
      <defs>
       <path d="M 37.796875 64.3125 
L 12.890625 25.390625 
L 37.796875 25.390625 
z
M 35.203125 72.90625 
L 47.609375 72.90625 
L 47.609375 25.390625 
L 58.015625 25.390625 
L 58.015625 17.1875 
L 47.609375 17.1875 
L 47.609375 0 
L 37.796875 0 
L 37.796875 17.1875 
L 4.890625 17.1875 
L 4.890625 26.703125 
z
" id="DejaVuSans-52"/>
      </defs>
      <g transform="translate(324.533102 322.182437)scale(0.1 -0.1)">
       <use xlink:href="#DejaVuSans-52"/>
       <use x="63.623047" xlink:href="#DejaVuSans-48"/>
       <use x="127.246094" xlink:href="#DejaVuSans-48"/>
      </g>
     </g>
    </g>
    <g id="xtick_6">
     <g id="line2d_11">
      <path clip-path="url(#pf65eb99a3c)" d="M 399.137883 307.584 
L 399.137883 41.472 
" style="fill:none;stroke:#b0b0b0;stroke-linecap:square;stroke-width:0.8;"/>
     </g>
     <g id="line2d_12">
      <g>
       <use style="stroke:#000000;stroke-width:0.8;" x="399.137883" xlink:href="#m1e77c342df" y="307.584"/>
      </g>
     </g>
     <g id="text_6">
      <!-- 500 -->
      <defs>
       <path d="M 10.796875 72.90625 
L 49.515625 72.90625 
L 49.515625 64.59375 
L 19.828125 64.59375 
L 19.828125 46.734375 
Q 21.96875 47.46875 24.109375 47.828125 
Q 26.265625 48.1875 28.421875 48.1875 
Q 40.625 48.1875 47.75 41.5 
Q 54.890625 34.8125 54.890625 23.390625 
Q 54.890625 11.625 47.5625 5.09375 
Q 40.234375 -1.421875 26.90625 -1.421875 
Q 22.3125 -1.421875 17.546875 -0.640625 
Q 12.796875 0.140625 7.71875 1.703125 
L 7.71875 11.625 
Q 12.109375 9.234375 16.796875 8.0625 
Q 21.484375 6.890625 26.703125 6.890625 
Q 35.15625 6.890625 40.078125 11.328125 
Q 45.015625 15.765625 45.015625 23.390625 
Q 45.015625 31 40.078125 35.4375 
Q 35.15625 39.890625 26.703125 39.890625 
Q 22.75 39.890625 18.8125 39.015625 
Q 14.890625 38.140625 10.796875 36.28125 
z
" id="DejaVuSans-53"/>
      </defs>
      <g transform="translate(389.594133 322.182437)scale(0.1 -0.1)">
       <use xlink:href="#DejaVuSans-53"/>
       <use x="63.623047" xlink:href="#DejaVuSans-48"/>
       <use x="127.246094" xlink:href="#DejaVuSans-48"/>
      </g>
     </g>
    </g>
    <g id="text_7">
     <!-- Generations -->
     <defs>
      <path d="M 59.515625 10.40625 
L 59.515625 29.984375 
L 43.40625 29.984375 
L 43.40625 38.09375 
L 69.28125 38.09375 
L 69.28125 6.78125 
Q 63.578125 2.734375 56.6875 0.65625 
Q 49.8125 -1.421875 42 -1.421875 
Q 24.90625 -1.421875 15.25 8.5625 
Q 5.609375 18.5625 5.609375 36.375 
Q 5.609375 54.25 15.25 64.234375 
Q 24.90625 74.21875 42 74.21875 
Q 49.125 74.21875 55.546875 72.453125 
Q 61.96875 70.703125 67.390625 67.28125 
L 67.390625 56.78125 
Q 61.921875 61.421875 55.765625 63.765625 
Q 49.609375 66.109375 42.828125 66.109375 
Q 29.4375 66.109375 22.71875 58.640625 
Q 16.015625 51.171875 16.015625 36.375 
Q 16.015625 21.625 22.71875 14.15625 
Q 29.4375 6.6875 42.828125 6.6875 
Q 48.046875 6.6875 52.140625 7.59375 
Q 56.25 8.5 59.515625 10.40625 
z
" id="DejaVuSans-71"/>
      <path d="M 56.203125 29.59375 
L 56.203125 25.203125 
L 14.890625 25.203125 
Q 15.484375 15.921875 20.484375 11.0625 
Q 25.484375 6.203125 34.421875 6.203125 
Q 39.59375 6.203125 44.453125 7.46875 
Q 49.3125 8.734375 54.109375 11.28125 
L 54.109375 2.78125 
Q 49.265625 0.734375 44.1875 -0.34375 
Q 39.109375 -1.421875 33.890625 -1.421875 
Q 20.796875 -1.421875 13.15625 6.1875 
Q 5.515625 13.8125 5.515625 26.8125 
Q 5.515625 40.234375 12.765625 48.109375 
Q 20.015625 56 32.328125 56 
Q 43.359375 56 49.78125 48.890625 
Q 56.203125 41.796875 56.203125 29.59375 
z
M 47.21875 32.234375 
Q 47.125 39.59375 43.09375 43.984375 
Q 39.0625 48.390625 32.421875 48.390625 
Q 24.90625 48.390625 20.390625 44.140625 
Q 15.875 39.890625 15.1875 32.171875 
z
" id="DejaVuSans-101"/>
      <path d="M 54.890625 33.015625 
L 54.890625 0 
L 45.90625 0 
L 45.90625 32.71875 
Q 45.90625 40.484375 42.875 44.328125 
Q 39.84375 48.1875 33.796875 48.1875 
Q 26.515625 48.1875 22.3125 43.546875 
Q 18.109375 38.921875 18.109375 30.90625 
L 18.109375 0 
L 9.078125 0 
L 9.078125 54.6875 
L 18.109375 54.6875 
L 18.109375 46.1875 
Q 21.34375 51.125 25.703125 53.5625 
Q 30.078125 56 35.796875 56 
Q 45.21875 56 50.046875 50.171875 
Q 54.890625 44.34375 54.890625 33.015625 
z
" id="DejaVuSans-110"/>
      <path d="M 41.109375 46.296875 
Q 39.59375 47.171875 37.8125 47.578125 
Q 36.03125 48 33.890625 48 
Q 26.265625 48 22.1875 43.046875 
Q 18.109375 38.09375 18.109375 28.8125 
L 18.109375 0 
L 9.078125 0 
L 9.078125 54.6875 
L 18.109375 54.6875 
L 18.109375 46.1875 
Q 20.953125 51.171875 25.484375 53.578125 
Q 30.03125 56 36.53125 56 
Q 37.453125 56 38.578125 55.875 
Q 39.703125 55.765625 41.0625 55.515625 
z
" id="DejaVuSans-114"/>
      <path d="M 34.28125 27.484375 
Q 23.390625 27.484375 19.1875 25 
Q 14.984375 22.515625 14.984375 16.5 
Q 14.984375 11.71875 18.140625 8.90625 
Q 21.296875 6.109375 26.703125 6.109375 
Q 34.1875 6.109375 38.703125 11.40625 
Q 43.21875 16.703125 43.21875 25.484375 
L 43.21875 27.484375 
z
M 52.203125 31.203125 
L 52.203125 0 
L 43.21875 0 
L 43.21875 8.296875 
Q 40.140625 3.328125 35.546875 0.953125 
Q 30.953125 -1.421875 24.3125 -1.421875 
Q 15.921875 -1.421875 10.953125 3.296875 
Q 6 8.015625 6 15.921875 
Q 6 25.140625 12.171875 29.828125 
Q 18.359375 34.515625 30.609375 34.515625 
L 43.21875 34.515625 
L 43.21875 35.40625 
Q 43.21875 41.609375 39.140625 45 
Q 35.0625 48.390625 27.6875 48.390625 
Q 23 48.390625 18.546875 47.265625 
Q 14.109375 46.140625 10.015625 43.890625 
L 10.015625 52.203125 
Q 14.9375 54.109375 19.578125 55.046875 
Q 24.21875 56 28.609375 56 
Q 40.484375 56 46.34375 49.84375 
Q 52.203125 43.703125 52.203125 31.203125 
z
" id="DejaVuSans-97"/>
      <path d="M 18.3125 70.21875 
L 18.3125 54.6875 
L 36.8125 54.6875 
L 36.8125 47.703125 
L 18.3125 47.703125 
L 18.3125 18.015625 
Q 18.3125 11.328125 20.140625 9.421875 
Q 21.96875 7.515625 27.59375 7.515625 
L 36.8125 7.515625 
L 36.8125 0 
L 27.59375 0 
Q 17.1875 0 13.234375 3.875 
Q 9.28125 7.765625 9.28125 18.015625 
L 9.28125 47.703125 
L 2.6875 47.703125 
L 2.6875 54.6875 
L 9.28125 54.6875 
L 9.28125 70.21875 
z
" id="DejaVuSans-116"/>
      <path d="M 9.421875 54.6875 
L 18.40625 54.6875 
L 18.40625 0 
L 9.421875 0 
z
M 9.421875 75.984375 
L 18.40625 75.984375 
L 18.40625 64.59375 
L 9.421875 64.59375 
z
" id="DejaVuSans-105"/>
      <path d="M 30.609375 48.390625 
Q 23.390625 48.390625 19.1875 42.75 
Q 14.984375 37.109375 14.984375 27.296875 
Q 14.984375 17.484375 19.15625 11.84375 
Q 23.34375 6.203125 30.609375 6.203125 
Q 37.796875 6.203125 41.984375 11.859375 
Q 46.1875 17.53125 46.1875 27.296875 
Q 46.1875 37.015625 41.984375 42.703125 
Q 37.796875 48.390625 30.609375 48.390625 
z
M 30.609375 56 
Q 42.328125 56 49.015625 48.375 
Q 55.71875 40.765625 55.71875 27.296875 
Q 55.71875 13.875 49.015625 6.21875 
Q 42.328125 -1.421875 30.609375 -1.421875 
Q 18.84375 -1.421875 12.171875 6.21875 
Q 5.515625 13.875 5.515625 27.296875 
Q 5.515625 40.765625 12.171875 48.375 
Q 18.84375 56 30.609375 56 
z
" id="DejaVuSans-111"/>
      <path d="M 44.28125 53.078125 
L 44.28125 44.578125 
Q 40.484375 46.53125 36.375 47.5 
Q 32.28125 48.484375 27.875 48.484375 
Q 21.1875 48.484375 17.84375 46.4375 
Q 14.5 44.390625 14.5 40.28125 
Q 14.5 37.15625 16.890625 35.375 
Q 19.28125 33.59375 26.515625 31.984375 
L 29.59375 31.296875 
Q 39.15625 29.25 43.1875 25.515625 
Q 47.21875 21.78125 47.21875 15.09375 
Q 47.21875 7.46875 41.1875 3.015625 
Q 35.15625 -1.421875 24.609375 -1.421875 
Q 20.21875 -1.421875 15.453125 -0.5625 
Q 10.6875 0.296875 5.421875 2 
L 5.421875 11.28125 
Q 10.40625 8.6875 15.234375 7.390625 
Q 20.0625 6.109375 24.8125 6.109375 
Q 31.15625 6.109375 34.5625 8.28125 
Q 37.984375 10.453125 37.984375 14.40625 
Q 37.984375 18.0625 35.515625 20.015625 
Q 33.0625 21.96875 24.703125 23.78125 
L 21.578125 24.515625 
Q 13.234375 26.265625 9.515625 29.90625 
Q 5.8125 33.546875 5.8125 39.890625 
Q 5.8125 47.609375 11.28125 51.796875 
Q 16.75 56 26.8125 56 
Q 31.78125 56 36.171875 55.265625 
Q 40.578125 54.546875 44.28125 53.078125 
z
" id="DejaVuSans-115"/>
     </defs>
     <g transform="translate(205.662344 335.860562)scale(0.1 -0.1)">
      <use xlink:href="#DejaVuSans-71"/>
      <use x="77.490234" xlink:href="#DejaVuSans-101"/>
      <use x="139.013672" xlink:href="#DejaVuSans-110"/>
      <use x="202.392578" xlink:href="#DejaVuSans-101"/>
      <use x="263.916016" xlink:href="#DejaVuSans-114"/>
      <use x="305.029297" xlink:href="#DejaVuSans-97"/>
      <use x="366.308594" xlink:href="#DejaVuSans-116"/>
      <use x="405.517578" xlink:href="#DejaVuSans-105"/>
      <use x="433.300781" xlink:href="#DejaVuSans-111"/>
      <use x="494.482422" xlink:href="#DejaVuSans-110"/>
      <use x="557.861328" xlink:href="#DejaVuSans-115"/>
     </g>
    </g>
   </g>
   <g id="matplotlib.axis_2">
    <g id="ytick_1">
     <g id="line2d_13">
      <path clip-path="url(#pf65eb99a3c)" d="M 57.6 281.659017 
L 414.72 281.659017 
" style="fill:none;stroke:#b0b0b0;stroke-linecap:square;stroke-width:0.8;"/>
     </g>
     <g id="line2d_14">
      <defs>
       <path d="M 0 0 
L -3.5 0 
" id="m578ff3de7d" style="stroke:#000000;stroke-width:0.8;"/>
      </defs>
      <g>
       <use style="stroke:#000000;stroke-width:0.8;" x="57.6" xlink:href="#m578ff3de7d" y="281.659017"/>
      </g>
     </g>
     <g id="text_8">
      <!-- 20 -->
      <g transform="translate(37.875 285.458235)scale(0.1 -0.1)">
       <use xlink:href="#DejaVuSans-50"/>
       <use x="63.623047" xlink:href="#DejaVuSans-48"/>
      </g>
     </g>
    </g>
    <g id="ytick_2">
     <g id="line2d_15">
      <path clip-path="url(#pf65eb99a3c)" d="M 57.6 232.074013 
L 414.72 232.074013 
" style="fill:none;stroke:#b0b0b0;stroke-linecap:square;stroke-width:0.8;"/>
     </g>
     <g id="line2d_16">
      <g>
       <use style="stroke:#000000;stroke-width:0.8;" x="57.6" xlink:href="#m578ff3de7d" y="232.074013"/>
      </g>
     </g>
     <g id="text_9">
      <!-- 25 -->
      <g transform="translate(37.875 235.873232)scale(0.1 -0.1)">
       <use xlink:href="#DejaVuSans-50"/>
       <use x="63.623047" xlink:href="#DejaVuSans-53"/>
      </g>
     </g>
    </g>
    <g id="ytick_3">
     <g id="line2d_17">
      <path clip-path="url(#pf65eb99a3c)" d="M 57.6 182.489009 
L 414.72 182.489009 
" style="fill:none;stroke:#b0b0b0;stroke-linecap:square;stroke-width:0.8;"/>
     </g>
     <g id="line2d_18">
      <g>
       <use style="stroke:#000000;stroke-width:0.8;" x="57.6" xlink:href="#m578ff3de7d" y="182.489009"/>
      </g>
     </g>
     <g id="text_10">
      <!-- 30 -->
      <g transform="translate(37.875 186.288228)scale(0.1 -0.1)">
       <use xlink:href="#DejaVuSans-51"/>
       <use x="63.623047" xlink:href="#DejaVuSans-48"/>
      </g>
     </g>
    </g>
    <g id="ytick_4">
     <g id="line2d_19">
      <path clip-path="url(#pf65eb99a3c)" d="M 57.6 132.904006 
L 414.72 132.904006 
" style="fill:none;stroke:#b0b0b0;stroke-linecap:square;stroke-width:0.8;"/>
     </g>
     <g id="line2d_20">
      <g>
       <use style="stroke:#000000;stroke-width:0.8;" x="57.6" xlink:href="#m578ff3de7d" y="132.904006"/>
      </g>
     </g>
     <g id="text_11">
      <!-- 35 -->
      <g transform="translate(37.875 136.703225)scale(0.1 -0.1)">
       <use xlink:href="#DejaVuSans-51"/>
       <use x="63.623047" xlink:href="#DejaVuSans-53"/>
      </g>
     </g>
    </g>
    <g id="ytick_5">
     <g id="line2d_21">
      <path clip-path="url(#pf65eb99a3c)" d="M 57.6 83.319002 
L 414.72 83.319002 
" style="fill:none;stroke:#b0b0b0;stroke-linecap:square;stroke-width:0.8;"/>
     </g>
     <g id="line2d_22">
      <g>
       <use style="stroke:#000000;stroke-width:0.8;" x="57.6" xlink:href="#m578ff3de7d" y="83.319002"/>
      </g>
     </g>
     <g id="text_12">
      <!-- 40 -->
      <g transform="translate(37.875 87.118221)scale(0.1 -0.1)">
       <use xlink:href="#DejaVuSans-52"/>
       <use x="63.623047" xlink:href="#DejaVuSans-48"/>
      </g>
     </g>
    </g>
    <g id="text_13">
     <!-- Fitness -->
     <defs>
      <path d="M 9.8125 72.90625 
L 51.703125 72.90625 
L 51.703125 64.59375 
L 19.671875 64.59375 
L 19.671875 43.109375 
L 48.578125 43.109375 
L 48.578125 34.8125 
L 19.671875 34.8125 
L 19.671875 0 
L 9.8125 0 
z
" id="DejaVuSans-70"/>
     </defs>
     <g transform="translate(31.795312 192.202219)rotate(-90)scale(0.1 -0.1)">
      <use xlink:href="#DejaVuSans-70"/>
      <use x="57.410156" xlink:href="#DejaVuSans-105"/>
      <use x="85.193359" xlink:href="#DejaVuSans-116"/>
      <use x="124.402344" xlink:href="#DejaVuSans-110"/>
      <use x="187.78125" xlink:href="#DejaVuSans-101"/>
      <use x="249.304688" xlink:href="#DejaVuSans-115"/>
      <use x="301.404297" xlink:href="#DejaVuSans-115"/>
     </g>
    </g>
   </g>
   <g id="line2d_23">
    <path clip-path="url(#pf65eb99a3c)" d="M 73.832727 291.650395 
L 74.483338 295.488 
L 75.133948 295.204795 
L 75.784558 287.25574 
L 76.435169 290.211516 
L 77.085779 287.502963 
L 77.736389 289.543032 
L 78.386999 288.196891 
L 79.03761 286.467259 
L 79.68822 288.3282 
L 80.33883 285.186706 
L 80.989441 288.640388 
L 81.640051 286.043912 
L 82.290661 290.695065 
L 82.941272 285.661055 
L 83.591882 288.338862 
L 84.242492 287.609217 
L 84.893103 288.631121 
L 85.543713 288.48171 
L 86.194323 288.691992 
L 86.844934 285.039247 
L 87.495544 288.72488 
L 88.146154 284.456119 
L 88.796764 289.436563 
L 89.447375 287.909434 
L 90.097985 280.4037 
L 90.748595 286.642434 
L 91.399206 290.176837 
L 92.049816 284.507241 
L 92.700426 277.291426 
L 93.351037 279.846773 
L 94.001647 283.602042 
L 94.652257 283.003265 
L 95.302868 283.459802 
L 95.953478 280.722973 
L 96.604088 284.998675 
L 97.254698 284.812238 
L 97.905309 281.306636 
L 98.555919 282.038494 
L 99.206529 281.583506 
L 99.85714 280.37622 
L 100.50775 280.548716 
L 101.15836 280.498248 
L 101.808971 281.561552 
L 102.459581 275.245036 
L 103.110191 277.359164 
L 103.760802 276.548725 
L 104.411412 283.111507 
L 105.062022 278.751024 
L 105.712633 276.50414 
L 106.363243 278.295645 
L 107.013853 279.117474 
L 107.664463 280.160226 
L 108.315074 275.56963 
L 108.965684 273.112456 
L 109.616294 280.816072 
L 110.266905 275.624732 
L 110.917515 274.351753 
L 111.568125 274.610774 
L 112.218736 265.428938 
L 112.869346 274.766701 
L 113.519956 275.535269 
L 114.170567 277.603186 
L 114.821177 272.810765 
L 115.471787 266.63476 
L 116.122398 269.125722 
L 116.773008 267.032686 
L 117.423618 266.100013 
L 118.074228 268.131337 
L 118.724839 269.157133 
L 119.375449 271.567596 
L 120.026059 275.928087 
L 120.67667 271.395786 
L 121.32728 275.516397 
L 121.97789 266.820797 
L 122.628501 263.8282 
L 123.279111 264.743235 
L 123.929721 267.414148 
L 124.580332 267.105818 
L 125.230942 261.453128 
L 125.881552 265.205246 
L 126.532163 265.652629 
L 127.182773 267.392454 
L 127.833383 262.49609 
L 128.483993 258.74304 
L 129.134604 259.563243 
L 129.785214 256.048362 
L 130.435824 256.978361 
L 131.086435 258.849915 
L 131.737045 258.164875 
L 132.387655 256.395457 
L 133.038266 259.147425 
L 133.688876 263.585283 
L 134.339486 252.353167 
L 134.990097 257.635082 
L 135.640707 255.147733 
L 136.291317 256.494627 
L 136.941927 251.660089 
L 137.592538 258.041222 
L 138.243148 254.628389 
L 138.893758 265.089464 
L 139.544369 260.461428 
L 140.194979 253.04847 
L 140.845589 249.825444 
L 141.4962 253.44515 
L 142.14681 251.486542 
L 142.79742 246.577627 
L 143.448031 252.255109 
L 144.098641 256.22191 
L 144.749251 249.056877 
L 145.399862 248.759367 
L 146.050472 237.305231 
L 146.701082 248.065177 
L 147.351692 250.023784 
L 148.002303 251.164239 
L 148.652913 245.883436 
L 149.303523 247.098269 
L 149.954134 248.759367 
L 150.604744 249.453557 
L 151.905965 247.172647 
L 152.556575 254.387265 
L 153.207185 248.412272 
L 153.857796 241.148069 
L 154.508406 251.387372 
L 155.159016 244.395886 
L 155.809627 245.362794 
L 156.460237 244.544641 
L 157.110847 252.354279 
L 157.761457 245.536341 
L 158.412068 244.371094 
L 159.062678 240.429086 
L 159.713288 242.883544 
L 160.363899 243.974414 
L 161.014509 243.602526 
L 161.665119 250.767559 
L 162.31573 251.238617 
L 162.96634 251.957599 
L 164.267561 245.214039 
L 164.918171 247.470157 
L 165.568781 246.255324 
L 166.219392 246.875137 
L 166.870002 245.437171 
L 167.520612 252.007184 
L 168.171222 245.114869 
L 168.821833 251.312994 
L 169.472443 251.114654 
L 170.123053 240.404294 
L 170.773664 249.875029 
L 171.424274 247.990799 
L 172.074884 254.015377 
L 172.725495 247.123062 
L 173.376105 246.230532 
L 174.026715 240.800974 
L 174.677326 249.527934 
L 175.327936 249.478349 
L 175.978546 240.949729 
L 176.629156 242.586034 
L 177.279767 245.065284 
L 177.930377 251.883222 
L 178.580987 244.891736 
L 179.231598 249.527934 
L 179.882208 245.759474 
L 180.532818 253.693075 
L 181.183429 249.899822 
L 181.834039 252.255109 
L 182.484649 246.726382 
L 183.13526 253.618697 
L 183.78587 249.280009 
L 184.43648 252.230317 
L 185.087091 250.073369 
L 185.737701 249.974199 
L 186.388311 252.899714 
L 187.038921 246.751174 
L 187.689532 243.974414 
L 188.340142 248.585819 
L 188.990752 245.982606 
L 189.641363 245.883436 
L 190.291973 247.569327 
L 190.942583 241.991014 
L 191.593194 246.775967 
L 192.243804 249.304802 
L 192.894414 249.403972 
L 193.545025 244.172754 
L 194.195635 246.180947 
L 194.846245 249.156047 
L 195.496856 246.428872 
L 196.147466 248.263517 
L 196.798076 241.470371 
L 197.448686 236.933343 
L 198.749907 253.494735 
L 199.400517 250.767559 
L 200.051128 254.089755 
L 200.701738 251.883222 
L 201.352348 251.213824 
L 202.002959 243.776074 
L 202.653569 239.908444 
L 203.304179 245.065284 
L 203.95479 246.106569 
L 204.6054 243.528149 
L 205.25601 239.486971 
L 205.906621 247.544534 
L 206.557231 245.238831 
L 207.207841 252.279902 
L 207.858451 246.528042 
L 208.509062 252.354279 
L 209.159672 250.098162 
L 209.810282 242.982714 
L 210.460893 243.924829 
L 211.111503 246.949514 
L 211.762113 245.164454 
L 212.412724 257.635082 
L 213.063334 248.139554 
L 213.713944 247.445364 
L 214.364555 245.164454 
L 215.015165 248.238724 
L 215.665775 247.966007 
L 216.316385 238.619233 
L 216.966996 240.999314 
L 217.617606 249.552727 
L 218.268216 234.280546 
L 218.918827 244.842151 
L 219.569437 242.288524 
L 220.220047 244.842151 
L 220.870658 245.833851 
L 221.521268 243.776074 
L 222.171878 242.090184 
L 222.822489 246.453664 
L 223.473099 243.577734 
L 224.123709 247.346194 
L 224.77432 248.139554 
L 225.42493 240.404294 
L 226.07554 237.949836 
L 226.72615 239.065498 
L 227.376761 238.197761 
L 228.027371 236.982928 
L 228.677981 236.288738 
L 229.328592 240.205954 
L 229.979202 238.693611 
L 230.629812 232.842581 
L 231.280423 239.115083 
L 231.931033 240.131576 
L 232.581643 235.867266 
L 233.232254 236.982928 
L 233.882864 240.875351 
L 234.533474 234.875566 
L 235.184085 239.239046 
L 235.834695 238.693611 
L 236.485305 239.387801 
L 237.135915 237.255646 
L 237.786526 242.214146 
L 238.437136 242.040599 
L 239.087746 238.470478 
L 239.738357 237.379608 
L 240.388967 240.478671 
L 241.039577 236.809381 
L 241.690188 244.693396 
L 242.340798 240.354709 
L 242.991408 229.619555 
L 243.642019 240.081991 
L 244.292629 231.05752 
L 244.943239 240.404294 
L 245.59385 245.511549 
L 246.24446 243.280224 
L 246.89507 234.131791 
L 247.54568 232.644241 
L 248.196291 237.007721 
L 248.846901 235.098698 
L 249.497511 235.272246 
L 250.148122 234.578056 
L 250.798732 230.412915 
L 251.449342 237.131683 
L 252.099953 236.735003 
L 252.750563 239.685311 
L 253.401173 235.495378 
L 254.051784 238.891951 
L 254.702394 240.106784 
L 255.353004 236.759796 
L 256.003615 245.214039 
L 256.654225 243.329809 
L 257.304835 239.784481 
L 257.955445 233.388016 
L 258.606056 233.511978 
L 259.256666 232.792996 
L 259.907276 238.520063 
L 260.557887 235.867266 
L 261.208497 236.685418 
L 261.859107 241.470371 
L 262.509718 239.338216 
L 263.160328 236.635833 
L 263.810938 242.238939 
L 264.461549 239.437386 
L 265.112159 239.338216 
L 265.762769 237.627533 
L 266.413379 236.511871 
L 267.06399 234.801188 
L 267.7146 237.156476 
L 268.36521 235.297038 
L 269.015821 239.437386 
L 269.666431 234.751603 
L 270.317041 242.660411 
L 270.967652 245.685096 
L 271.618262 238.520063 
L 272.268872 240.255539 
L 272.919483 236.338323 
L 273.570093 244.767774 
L 274.220703 238.792781 
L 274.871314 237.701911 
L 275.521924 234.999528 
L 276.172534 238.668818 
L 276.823144 235.098698 
L 277.473755 237.404401 
L 278.124365 233.338431 
L 278.774975 236.586248 
L 279.425586 242.486864 
L 280.076196 234.751603 
L 280.726806 231.826088 
L 281.377417 231.925258 
L 282.028027 235.346623 
L 282.678637 235.768096 
L 283.329248 238.916743 
L 284.630468 233.388016 
L 285.281079 229.27246 
L 285.931689 237.776288 
L 286.582299 238.842366 
L 287.232909 244.891736 
L 288.53413 231.801295 
L 289.18474 237.999421 
L 289.835351 236.834173 
L 290.485961 232.842581 
L 291.136571 238.024213 
L 291.787182 241.420786 
L 292.437792 241.098484 
L 293.088402 243.428979 
L 293.739013 235.073906 
L 294.389623 235.792888 
L 295.040233 240.032406 
L 295.690844 243.379394 
L 296.341454 233.834281 
L 296.992064 230.4625 
L 298.293285 240.404294 
L 298.943895 235.544963 
L 299.594505 232.520278 
L 300.245116 238.148176 
L 300.895726 236.759796 
L 301.546336 236.635833 
L 302.847557 245.090076 
L 303.498167 234.354923 
L 304.148778 236.511871 
L 304.799388 236.387908 
L 305.449998 236.412701 
L 306.100608 240.429086 
L 306.751219 241.073691 
L 307.401829 242.114976 
L 308.052439 234.032621 
L 308.70305 235.197868 
L 309.35366 238.470478 
L 310.00427 243.106676 
L 310.654881 242.114976 
L 311.305491 242.313316 
L 311.956101 242.759581 
L 312.606712 244.197546 
L 313.257322 240.478671 
L 313.907932 241.594334 
L 314.558543 241.148069 
L 315.209153 239.363009 
L 315.859763 238.396101 
L 316.510373 240.825766 
L 317.160984 235.495378 
L 318.462204 245.139661 
L 319.112815 237.379608 
L 319.763425 238.966328 
L 320.414035 236.090398 
L 321.064646 235.421001 
L 321.715256 237.701911 
L 322.365866 236.982928 
L 323.016477 235.520171 
L 323.667087 243.751281 
L 324.317697 236.858966 
L 324.968308 241.817466 
L 325.618918 236.735003 
L 326.269528 244.247131 
L 326.920138 238.867158 
L 327.570749 241.966221 
L 328.221359 243.999206 
L 328.871969 239.090291 
L 329.52258 240.701804 
L 330.17319 240.478671 
L 330.8238 237.751496 
L 331.474411 236.487078 
L 332.125021 234.553263 
L 332.775631 235.743303 
L 333.426242 240.280331 
L 334.076852 240.924936 
L 334.727462 237.404401 
L 335.378073 241.495164 
L 336.028683 234.255753 
L 336.679293 237.230853 
L 337.329903 243.230639 
L 337.980514 229.917065 
L 338.631124 237.528363 
L 339.281734 241.222446 
L 339.932345 233.685526 
L 340.582955 238.916743 
L 341.233565 241.792674 
L 341.884176 238.222553 
L 342.534786 235.594548 
L 343.185396 236.016021 
L 343.836007 237.974628 
L 344.486617 241.619126 
L 345.137227 236.933343 
L 345.787837 238.024213 
L 346.438448 234.503678 
L 347.089058 238.222553 
L 347.739668 244.222339 
L 348.390279 234.974736 
L 349.040889 237.528363 
L 349.691499 237.751496 
L 350.34211 239.561349 
L 350.99272 230.883973 
L 351.64333 237.627533 
L 352.293941 236.338323 
L 352.944551 236.933343 
L 353.595161 243.528149 
L 354.245772 233.090506 
L 354.896382 238.520063 
L 355.546992 237.825873 
L 356.197602 241.222446 
L 356.848213 236.313531 
L 357.498823 237.503571 
L 358.149433 233.859073 
L 358.800044 227.660948 
L 359.450654 234.850773 
L 360.101264 234.900358 
L 360.751875 234.528471 
L 361.402485 236.214361 
L 362.053095 236.735003 
L 362.703706 234.900358 
L 363.354316 235.867266 
L 364.004926 237.181268 
L 364.655537 235.941643 
L 365.306147 239.660519 
L 365.956757 233.983036 
L 366.607367 229.917065 
L 367.257978 234.602848 
L 367.908588 237.453986 
L 368.559198 239.734896 
L 369.209809 235.743303 
L 369.860419 239.115083 
L 370.511029 234.131791 
L 371.16164 231.007935 
L 371.81225 236.090398 
L 372.46286 234.106998 
L 373.113471 240.553049 
L 373.764081 236.363116 
L 374.414691 235.173076 
L 375.065302 235.792888 
L 375.715912 236.883758 
L 376.366522 244.767774 
L 377.017132 232.768203 
L 377.667743 237.751496 
L 378.318353 238.073798 
L 378.968963 238.842366 
L 379.619574 232.817788 
L 380.270184 233.016128 
L 381.571405 239.263839 
L 382.222015 232.098805 
L 382.872625 238.941536 
L 383.523236 239.015913 
L 384.173846 234.627641 
L 384.824456 235.520171 
L 385.475066 237.627533 
L 386.125677 233.388016 
L 386.776287 234.801188 
L 387.426897 232.619448 
L 388.077508 236.883758 
L 388.728118 233.983036 
L 389.378728 235.693718 
L 390.029339 238.470478 
L 390.679949 234.057413 
L 391.330559 237.453986 
L 391.98117 239.462179 
L 392.63178 240.652219 
L 393.28239 233.487186 
L 393.933001 236.561456 
L 394.583611 233.859073 
L 395.234221 229.049328 
L 395.884831 240.280331 
L 396.535442 236.685418 
L 397.186052 230.735218 
L 397.836662 233.586356 
L 398.487273 239.263839 
L 398.487273 239.263839 
" style="fill:none;stroke:#0000ff;stroke-linecap:square;stroke-width:1.5;"/>
   </g>
   <g id="line2d_24">
    <path clip-path="url(#pf65eb99a3c)" d="M 73.832727 252.856736 
L 74.483338 253.610737 
L 75.133948 252.831127 
L 75.784558 246.238128 
L 76.435169 250.323928 
L 77.085779 247.030794 
L 77.736389 248.243784 
L 78.386999 249.953318 
L 79.03761 242.525199 
L 79.68822 246.300419 
L 80.33883 242.591959 
L 80.989441 244.312907 
L 81.640051 241.836626 
L 82.290661 246.962977 
L 82.941272 241.926272 
L 83.591882 244.003423 
L 84.242492 244.570119 
L 84.893103 246.91356 
L 85.543713 243.478649 
L 86.194323 245.555286 
L 86.844934 240.551333 
L 87.495544 242.902494 
L 88.146154 238.489404 
L 88.796764 245.463213 
L 89.447375 241.526159 
L 90.097985 233.868318 
L 90.748595 239.616424 
L 91.399206 240.276284 
L 92.049816 234.89271 
L 92.700426 231.691742 
L 93.351037 233.265308 
L 94.001647 237.885112 
L 94.652257 236.197812 
L 95.302868 236.183038 
L 95.953478 228.801049 
L 96.604088 233.591514 
L 97.254698 239.326543 
L 97.905309 228.936738 
L 98.555919 231.793978 
L 99.206529 231.301219 
L 99.85714 230.360701 
L 100.50775 228.448399 
L 101.15836 225.98144 
L 101.808971 230.358338 
L 102.459581 218.504604 
L 103.110191 217.869609 
L 103.760802 218.844981 
L 104.411412 225.48492 
L 105.712633 214.957237 
L 106.363243 217.979237 
L 107.013853 223.310229 
L 107.664463 223.378833 
L 108.315074 215.95059 
L 108.965684 212.717235 
L 109.616294 221.905602 
L 110.266905 215.996053 
L 110.917515 212.762591 
L 111.568125 211.08503 
L 112.218736 203.809893 
L 112.869346 214.182044 
L 113.519956 215.016213 
L 114.170567 219.285768 
L 114.821177 211.263644 
L 115.471787 204.834438 
L 116.122398 206.146991 
L 116.773008 199.290476 
L 117.423618 200.720502 
L 118.074228 205.502984 
L 118.724839 205.572216 
L 120.026059 209.119116 
L 120.67667 208.777873 
L 121.32728 217.271892 
L 121.97789 205.987914 
L 122.628501 199.748553 
L 123.929721 204.637581 
L 125.230942 197.967982 
L 125.881552 201.082321 
L 126.532163 202.398712 
L 127.182773 205.414564 
L 127.833383 198.678468 
L 128.483993 195.976333 
L 129.134604 196.516808 
L 129.785214 189.539219 
L 130.435824 192.334671 
L 131.086435 194.565104 
L 131.737045 191.69793 
L 132.387655 189.942122 
L 133.038266 195.087054 
L 133.688876 195.94509 
L 134.339486 187.401929 
L 134.990097 192.973505 
L 135.640707 188.509746 
L 136.291317 193.493495 
L 136.941927 187.682463 
L 137.592538 191.860401 
L 138.243148 189.532629 
L 138.893758 198.956975 
L 139.544369 197.761514 
L 140.194979 186.703234 
L 140.845589 182.34909 
L 141.4962 190.74729 
L 142.14681 184.533423 
L 142.79742 182.251833 
L 144.098641 190.904493 
L 144.749251 182.082353 
L 145.399862 185.184745 
L 146.050472 174.718629 
L 146.701082 184.920787 
L 147.351692 185.259695 
L 148.002303 184.724498 
L 148.652913 181.607466 
L 149.303523 180.966093 
L 149.954134 184.63026 
L 150.604744 184.778862 
L 151.255354 183.278782 
L 151.905965 179.337539 
L 152.556575 188.498888 
L 153.207185 182.452479 
L 153.857796 174.790976 
L 154.508406 187.872297 
L 155.159016 182.346287 
L 155.809627 180.329344 
L 156.460237 182.802894 
L 157.110847 186.821005 
L 157.761457 177.368453 
L 158.412068 177.56377 
L 159.062678 177.616261 
L 159.713288 180.404944 
L 160.363899 179.965571 
L 161.014509 179.251894 
L 162.31573 190.329384 
L 162.96634 189.740788 
L 163.61695 182.693199 
L 164.267561 180.120146 
L 164.918171 184.189711 
L 165.568781 179.929863 
L 166.219392 181.807259 
L 166.870002 178.892143 
L 167.520612 185.763475 
L 168.171222 182.964641 
L 168.821833 183.971229 
L 169.472443 183.698303 
L 170.123053 175.837536 
L 170.773664 183.384535 
L 171.424274 180.570527 
L 172.074884 189.70583 
L 172.725495 183.022332 
L 173.376105 180.868736 
L 174.026715 176.584584 
L 174.677326 182.628668 
L 175.327936 182.210686 
L 175.978546 173.682796 
L 176.629156 176.534491 
L 177.279767 178.42636 
L 177.930377 187.738168 
L 178.580987 182.303013 
L 179.231598 185.62104 
L 179.882208 181.700255 
L 180.532818 190.113884 
L 181.183429 185.747869 
L 181.834039 187.248602 
L 182.484649 183.52194 
L 183.13526 189.550157 
L 183.78587 187.134529 
L 184.43648 188.254944 
L 185.087091 185.440862 
L 185.737701 184.88212 
L 186.388311 187.30492 
L 187.038921 184.317688 
L 187.689532 179.666659 
L 188.340142 186.974362 
L 188.990752 183.136284 
L 189.641363 183.093515 
L 190.291973 183.701922 
L 190.942583 179.502104 
L 191.593194 183.497502 
L 192.243804 183.460402 
L 192.894414 181.493336 
L 193.545025 180.962784 
L 194.195635 179.519819 
L 194.846245 184.500933 
L 195.496856 181.67743 
L 196.147466 183.568905 
L 196.798076 176.040902 
L 197.448686 172.928418 
L 198.099297 177.793085 
L 198.749907 184.417005 
L 199.400517 184.682245 
L 200.051128 187.807679 
L 200.701738 185.039037 
L 201.352348 183.363781 
L 202.002959 177.827944 
L 202.653569 173.286493 
L 203.304179 181.430973 
L 203.95479 176.381679 
L 204.6054 177.752955 
L 205.25601 172.748618 
L 205.906621 185.180554 
L 206.557231 180.485112 
L 207.207841 187.692818 
L 207.858451 180.859677 
L 208.509062 186.836013 
L 209.159672 185.825443 
L 209.810282 175.656576 
L 210.460893 177.257815 
L 211.111503 182.089752 
L 211.762113 182.874479 
L 212.412724 192.632192 
L 213.063334 181.458804 
L 213.713944 183.54224 
L 214.364555 180.606683 
L 215.015165 182.848079 
L 215.665775 181.666949 
L 216.316385 174.880301 
L 216.966996 175.686245 
L 217.617606 185.500805 
L 218.268216 170.392433 
L 218.918827 182.522782 
L 219.569437 176.023143 
L 220.220047 179.804586 
L 220.870658 181.253429 
L 221.521268 179.050947 
L 222.171878 179.056819 
L 222.822489 182.905496 
L 223.473099 180.388927 
L 224.123709 184.626829 
L 224.77432 183.237652 
L 225.42493 178.943367 
L 226.07554 173.595115 
L 226.72615 179.194425 
L 227.376761 175.968132 
L 228.027371 174.576719 
L 228.677981 174.604217 
L 229.328592 175.961238 
L 229.979202 176.609746 
L 230.629812 170.277785 
L 231.280423 174.194016 
L 231.931033 179.493886 
L 232.581643 172.463425 
L 233.232254 174.975915 
L 233.882864 179.162561 
L 234.533474 174.41626 
L 235.184085 179.960185 
L 235.834695 178.430433 
L 236.485305 176.020887 
L 237.135915 175.970913 
L 238.437136 183.45053 
L 239.087746 176.365207 
L 239.738357 175.175602 
L 240.388967 179.354826 
L 241.039577 174.969511 
L 241.690188 181.318995 
L 242.340798 178.029081 
L 242.991408 167.929558 
L 243.642019 179.466119 
L 244.292629 170.62319 
L 244.943239 178.46915 
L 245.59385 184.339669 
L 246.24446 181.592733 
L 246.89507 173.789108 
L 247.54568 172.147127 
L 248.196291 174.279266 
L 248.846901 174.591197 
L 249.497511 171.507016 
L 250.148122 174.982126 
L 250.798732 167.775107 
L 251.449342 173.080678 
L 252.099953 175.270316 
L 252.750563 174.223007 
L 253.401173 176.095959 
L 254.051784 179.88801 
L 254.702394 177.304758 
L 255.353004 176.238262 
L 256.003615 181.159599 
L 256.654225 178.925188 
L 257.304835 175.455324 
L 257.955445 176.040697 
L 259.256666 170.452009 
L 259.907276 178.052783 
L 261.208497 172.302179 
L 261.859107 177.346594 
L 262.509718 180.487736 
L 263.160328 174.800809 
L 263.810938 181.078796 
L 265.112159 175.544112 
L 265.762769 175.496594 
L 266.413379 174.415889 
L 267.06399 174.466711 
L 267.7146 177.977782 
L 268.36521 174.690146 
L 269.015821 177.967024 
L 269.666431 174.317186 
L 270.317041 180.655009 
L 270.967652 183.72666 
L 271.618262 176.705639 
L 272.268872 177.288929 
L 272.919483 175.290262 
L 273.570093 182.727759 
L 274.220703 177.460726 
L 274.871314 175.114366 
L 275.521924 175.038177 
L 276.172534 176.23677 
L 276.823144 175.413532 
L 277.473755 175.414346 
L 278.124365 172.382148 
L 278.774975 174.99858 
L 279.425586 179.862359 
L 280.076196 174.860718 
L 280.726806 171.757074 
L 281.377417 174.312882 
L 282.028027 174.608657 
L 282.678637 174.568273 
L 283.329248 177.037599 
L 283.979858 178.078955 
L 284.630468 172.038766 
L 285.281079 169.933737 
L 285.931689 176.07981 
L 286.582299 177.579944 
L 287.232909 183.894568 
L 287.88352 176.198982 
L 288.53413 171.526043 
L 289.18474 175.145275 
L 289.835351 174.0316 
L 290.485961 171.136444 
L 291.136571 173.472232 
L 291.787182 179.327219 
L 292.437792 177.593353 
L 293.088402 181.964392 
L 293.739013 174.271292 
L 294.389623 175.621634 
L 295.690844 180.693751 
L 296.341454 172.858036 
L 296.992064 169.671938 
L 297.642674 171.996171 
L 298.293285 177.203815 
L 299.594505 172.538428 
L 300.245116 178.372148 
L 300.895726 175.531456 
L 301.546336 174.034182 
L 302.847557 182.252088 
L 303.498167 173.474634 
L 304.148778 176.040733 
L 304.799388 176.203254 
L 305.449998 174.27409 
L 306.100608 180.607543 
L 306.751219 181.358075 
L 307.401829 179.502373 
L 308.052439 171.521293 
L 308.70305 176.147333 
L 309.35366 177.370989 
L 310.00427 178.959821 
L 310.654881 183.163146 
L 311.305491 179.878378 
L 311.956101 178.941933 
L 312.606712 179.233248 
L 313.257322 179.154033 
L 313.907932 182.404376 
L 314.558543 178.582266 
L 315.209153 177.845802 
L 315.859763 179.570568 
L 316.510373 180.773685 
L 317.160984 173.064747 
L 317.811594 177.186834 
L 318.462204 182.594361 
L 319.112815 176.007254 
L 319.763425 175.674436 
L 320.414035 178.583786 
L 321.064646 173.284368 
L 321.715256 175.10651 
L 322.365866 174.663455 
L 323.016477 175.187838 
L 323.667087 184.921652 
L 324.317697 176.05336 
L 324.968308 178.513751 
L 325.618918 175.22633 
L 326.269528 182.669229 
L 326.920138 176.138092 
L 327.570749 177.832667 
L 328.221359 180.536992 
L 328.871969 176.536932 
L 329.52258 179.010327 
L 330.17319 174.484594 
L 330.8238 177.241745 
L 331.474411 174.45073 
L 332.125021 174.102249 
L 332.775631 174.628423 
L 333.426242 178.017878 
L 334.076852 176.414146 
L 334.727462 175.200538 
L 335.378073 178.843182 
L 336.028683 171.291311 
L 336.679293 177.288675 
L 337.329903 180.754026 
L 337.980514 168.905187 
L 338.631124 173.767756 
L 339.281734 179.723852 
L 339.932345 171.046422 
L 341.233565 182.876508 
L 341.884176 174.916193 
L 342.534786 173.620057 
L 343.185396 174.355324 
L 343.836007 175.966822 
L 344.486617 180.594434 
L 345.137227 177.829433 
L 345.787837 176.116388 
L 346.438448 173.182463 
L 347.089058 178.35343 
L 347.739668 180.622444 
L 348.390279 174.516041 
L 349.040889 175.618552 
L 349.691499 174.209329 
L 350.34211 178.694893 
L 350.99272 171.22054 
L 351.64333 177.454625 
L 352.293941 173.876883 
L 353.595161 181.754726 
L 354.245772 172.749819 
L 354.896382 175.907338 
L 355.546992 177.630741 
L 356.197602 180.971877 
L 356.848213 179.314717 
L 358.800044 167.918138 
L 359.450654 172.668253 
L 360.101264 176.152047 
L 360.751875 171.4122 
L 361.402485 174.268267 
L 362.053095 175.921791 
L 362.703706 172.720072 
L 363.354316 174.496979 
L 364.004926 175.02392 
L 364.655537 174.963861 
L 365.306147 178.231303 
L 365.956757 174.712512 
L 366.607367 170.163376 
L 367.257978 173.732353 
L 367.908588 175.218826 
L 368.559198 178.690344 
L 369.209809 174.399539 
L 369.860419 176.629401 
L 370.511029 172.160895 
L 371.16164 172.488434 
L 371.81225 177.152223 
L 372.46286 171.423257 
L 373.113471 178.183096 
L 373.764081 174.502614 
L 374.414691 177.641783 
L 375.065302 176.86022 
L 375.715912 173.714118 
L 376.366522 181.046433 
L 377.017132 170.472307 
L 377.667743 175.148789 
L 378.318353 176.821586 
L 378.968963 176.957029 
L 379.619574 172.92093 
L 380.270184 175.994689 
L 380.920794 175.742513 
L 381.571405 178.705647 
L 382.222015 167.747103 
L 382.872625 179.457762 
L 383.523236 177.326908 
L 384.173846 175.597579 
L 384.824456 171.953245 
L 385.475066 175.623355 
L 386.125677 173.220383 
L 386.776287 173.80206 
L 387.426897 172.327693 
L 388.077508 173.202423 
L 388.728118 171.991513 
L 389.378728 176.124172 
L 390.679949 173.203057 
L 391.330559 176.827771 
L 391.98117 177.371953 
L 392.63178 178.973756 
L 393.28239 173.13004 
L 393.933001 174.291106 
L 394.583611 173.644338 
L 395.234221 168.140877 
L 395.884831 176.016373 
L 396.535442 175.541841 
L 397.186052 169.561087 
L 398.487273 177.071216 
L 398.487273 177.071216 
" style="fill:none;stroke:#008000;stroke-dasharray:9.6,2.4,1.5,2.4;stroke-dashoffset:0;stroke-width:1.5;"/>
   </g>
   <g id="line2d_25">
    <path clip-path="url(#pf65eb99a3c)" d="M 73.832727 182.489009 
L 74.483338 192.40601 
L 75.133948 152.738007 
L 75.784558 132.904006 
L 76.435169 142.821006 
L 77.736389 142.821006 
L 78.386999 172.572009 
L 79.03761 132.904006 
L 79.68822 152.738007 
L 80.33883 132.904006 
L 80.989441 132.904006 
L 81.640051 142.821006 
L 82.290661 162.655008 
L 82.941272 93.236003 
L 83.591882 122.987005 
L 84.242492 132.904006 
L 84.893103 152.738007 
L 85.543713 122.987005 
L 86.194323 152.738007 
L 86.844934 122.987005 
L 87.495544 132.904006 
L 88.796764 132.904006 
L 89.447375 113.070004 
L 90.097985 122.987005 
L 90.748595 122.987005 
L 91.399206 103.153004 
L 92.049816 113.070004 
L 92.700426 132.904006 
L 93.351037 93.236003 
L 94.001647 122.987005 
L 94.652257 122.987005 
L 95.302868 142.821006 
L 95.953478 132.904006 
L 96.604088 132.904006 
L 97.254698 103.153004 
L 97.905309 122.987005 
L 98.555919 122.987005 
L 99.206529 132.904006 
L 99.85714 122.987005 
L 100.50775 103.153004 
L 101.808971 103.153004 
L 102.459581 122.987005 
L 103.110191 113.070004 
L 103.760802 113.070004 
L 104.411412 122.987005 
L 105.062022 93.236003 
L 105.712633 122.987005 
L 106.363243 113.070004 
L 107.013853 122.987005 
L 107.664463 103.153004 
L 108.315074 122.987005 
L 108.965684 103.153004 
L 109.616294 113.070004 
L 110.917515 113.070004 
L 111.568125 93.236003 
L 112.218736 93.236003 
L 112.869346 103.153004 
L 113.519956 93.236003 
L 114.170567 113.070004 
L 114.821177 103.153004 
L 115.471787 113.070004 
L 116.773008 93.236003 
L 117.423618 103.153004 
L 118.074228 122.987005 
L 118.724839 113.070004 
L 121.32728 113.070004 
L 121.97789 83.319002 
L 122.628501 93.236003 
L 123.279111 113.070004 
L 123.929721 93.236003 
L 124.580332 113.070004 
L 125.230942 103.153004 
L 126.532163 103.153004 
L 127.182773 113.070004 
L 127.833383 113.070004 
L 128.483993 122.987005 
L 129.134604 113.070004 
L 130.435824 113.070004 
L 131.086435 103.153004 
L 131.737045 122.987005 
L 132.387655 93.236003 
L 133.038266 103.153004 
L 133.688876 83.319002 
L 134.339486 113.070004 
L 134.990097 113.070004 
L 135.640707 122.987005 
L 136.291317 113.070004 
L 136.941927 132.904006 
L 137.592538 103.153004 
L 138.243148 113.070004 
L 138.893758 103.153004 
L 139.544369 113.070004 
L 140.845589 93.236003 
L 141.4962 113.070004 
L 142.14681 103.153004 
L 142.79742 113.070004 
L 143.448031 103.153004 
L 144.749251 103.153004 
L 145.399862 122.987005 
L 146.050472 83.319002 
L 146.701082 103.153004 
L 147.351692 93.236003 
L 148.002303 103.153004 
L 148.652913 83.319002 
L 149.303523 113.070004 
L 149.954134 103.153004 
L 153.207185 103.153004 
L 153.857796 83.319002 
L 154.508406 113.070004 
L 155.159016 103.153004 
L 156.460237 122.987005 
L 157.761457 103.153004 
L 158.412068 103.153004 
L 159.062678 93.236003 
L 159.713288 103.153004 
L 160.363899 93.236003 
L 161.014509 113.070004 
L 161.665119 122.987005 
L 162.31573 103.153004 
L 162.96634 113.070004 
L 163.61695 103.153004 
L 164.267561 113.070004 
L 164.918171 93.236003 
L 165.568781 103.153004 
L 166.219392 83.319002 
L 166.870002 103.153004 
L 167.520612 103.153004 
L 168.171222 93.236003 
L 168.821833 113.070004 
L 169.472443 93.236003 
L 170.773664 73.402001 
L 171.424274 93.236003 
L 172.074884 83.319002 
L 172.725495 122.987005 
L 173.376105 103.153004 
L 174.026715 93.236003 
L 174.677326 103.153004 
L 175.327936 83.319002 
L 175.978546 103.153004 
L 176.629156 103.153004 
L 177.279767 93.236003 
L 178.580987 93.236003 
L 179.231598 122.987005 
L 179.882208 93.236003 
L 180.532818 103.153004 
L 181.183429 93.236003 
L 181.834039 103.153004 
L 182.484649 122.987005 
L 183.13526 113.070004 
L 183.78587 113.070004 
L 184.43648 83.319002 
L 185.087091 122.987005 
L 185.737701 93.236003 
L 187.038921 113.070004 
L 187.689532 103.153004 
L 188.340142 113.070004 
L 188.990752 93.236003 
L 189.641363 103.153004 
L 190.291973 103.153004 
L 190.942583 113.070004 
L 191.593194 103.153004 
L 192.243804 122.987005 
L 192.894414 93.236003 
L 193.545025 113.070004 
L 194.195635 93.236003 
L 195.496856 113.070004 
L 196.147466 93.236003 
L 196.798076 103.153004 
L 197.448686 93.236003 
L 198.099297 93.236003 
L 198.749907 73.402001 
L 199.400517 73.402001 
L 200.051128 122.987005 
L 201.352348 103.153004 
L 202.002959 122.987005 
L 202.653569 83.319002 
L 203.304179 103.153004 
L 203.95479 73.402001 
L 204.6054 63.485001 
L 205.25601 93.236003 
L 205.906621 103.153004 
L 206.557231 53.568 
L 207.207841 113.070004 
L 207.858451 122.987005 
L 208.509062 113.070004 
L 209.159672 83.319002 
L 209.810282 103.153004 
L 210.460893 103.153004 
L 211.111503 93.236003 
L 211.762113 103.153004 
L 212.412724 103.153004 
L 213.063334 93.236003 
L 213.713944 103.153004 
L 214.364555 103.153004 
L 215.015165 63.485001 
L 215.665775 93.236003 
L 216.316385 113.070004 
L 216.966996 113.070004 
L 217.617606 103.153004 
L 218.268216 83.319002 
L 218.918827 93.236003 
L 220.220047 93.236003 
L 220.870658 122.987005 
L 221.521268 93.236003 
L 222.171878 83.319002 
L 222.822489 113.070004 
L 223.473099 83.319002 
L 224.123709 73.402001 
L 224.77432 103.153004 
L 225.42493 83.319002 
L 226.07554 93.236003 
L 226.72615 93.236003 
L 228.027371 113.070004 
L 228.677981 93.236003 
L 229.979202 113.070004 
L 230.629812 73.402001 
L 231.280423 103.153004 
L 231.931033 103.153004 
L 232.581643 122.987005 
L 233.232254 93.236003 
L 233.882864 103.153004 
L 234.533474 103.153004 
L 235.184085 93.236003 
L 235.834695 93.236003 
L 236.485305 73.402001 
L 237.135915 113.070004 
L 237.786526 103.153004 
L 238.437136 113.070004 
L 240.388967 83.319002 
L 241.039577 113.070004 
L 241.690188 103.153004 
L 242.340798 113.070004 
L 242.991408 93.236003 
L 243.642019 103.153004 
L 244.943239 103.153004 
L 245.59385 113.070004 
L 246.24446 113.070004 
L 246.89507 83.319002 
L 247.54568 83.319002 
L 248.196291 73.402001 
L 248.846901 103.153004 
L 249.497511 83.319002 
L 250.148122 103.153004 
L 250.798732 113.070004 
L 251.449342 93.236003 
L 252.099953 103.153004 
L 252.750563 93.236003 
L 254.051784 113.070004 
L 254.702394 103.153004 
L 255.353004 103.153004 
L 256.003615 113.070004 
L 256.654225 83.319002 
L 257.304835 93.236003 
L 257.955445 122.987005 
L 258.606056 93.236003 
L 259.256666 73.402001 
L 259.907276 103.153004 
L 260.557887 103.153004 
L 261.208497 83.319002 
L 261.859107 83.319002 
L 262.509718 113.070004 
L 263.160328 63.485001 
L 263.810938 83.319002 
L 264.461549 113.070004 
L 265.112159 93.236003 
L 265.762769 103.153004 
L 266.413379 93.236003 
L 267.06399 93.236003 
L 267.7146 122.987005 
L 268.36521 103.153004 
L 269.015821 93.236003 
L 269.666431 103.153004 
L 270.317041 93.236003 
L 270.967652 103.153004 
L 271.618262 73.402001 
L 272.919483 113.070004 
L 273.570093 103.153004 
L 274.220703 113.070004 
L 274.871314 63.485001 
L 275.521924 113.070004 
L 276.172534 103.153004 
L 276.823144 113.070004 
L 278.124365 113.070004 
L 278.774975 93.236003 
L 280.076196 113.070004 
L 280.726806 103.153004 
L 282.678637 103.153004 
L 283.329248 93.236003 
L 283.979858 113.070004 
L 284.630468 103.153004 
L 285.281079 103.153004 
L 285.931689 93.236003 
L 286.582299 113.070004 
L 287.232909 93.236003 
L 287.88352 122.987005 
L 288.53413 103.153004 
L 290.485961 103.153004 
L 291.136571 93.236003 
L 291.787182 113.070004 
L 292.437792 103.153004 
L 293.088402 113.070004 
L 293.739013 113.070004 
L 295.040233 93.236003 
L 296.341454 93.236003 
L 296.992064 103.153004 
L 297.642674 83.319002 
L 298.943895 103.153004 
L 299.594505 103.153004 
L 300.245116 93.236003 
L 300.895726 113.070004 
L 301.546336 113.070004 
L 302.196947 93.236003 
L 302.847557 113.070004 
L 303.498167 93.236003 
L 304.148778 113.070004 
L 304.799388 103.153004 
L 305.449998 113.070004 
L 306.751219 113.070004 
L 307.401829 83.319002 
L 308.052439 113.070004 
L 308.70305 113.070004 
L 309.35366 103.153004 
L 310.00427 113.070004 
L 310.654881 103.153004 
L 311.305491 122.987005 
L 311.956101 113.070004 
L 312.606712 113.070004 
L 313.257322 93.236003 
L 313.907932 103.153004 
L 314.558543 83.319002 
L 315.209153 122.987005 
L 315.859763 113.070004 
L 316.510373 93.236003 
L 317.160984 63.485001 
L 317.811594 93.236003 
L 318.462204 83.319002 
L 319.112815 83.319002 
L 319.763425 103.153004 
L 320.414035 113.070004 
L 321.064646 83.319002 
L 321.715256 83.319002 
L 322.365866 103.153004 
L 323.016477 103.153004 
L 323.667087 93.236003 
L 324.317697 122.987005 
L 324.968308 93.236003 
L 325.618918 93.236003 
L 326.269528 122.987005 
L 326.920138 93.236003 
L 327.570749 113.070004 
L 328.221359 113.070004 
L 328.871969 103.153004 
L 330.17319 103.153004 
L 330.8238 113.070004 
L 332.125021 93.236003 
L 332.775631 113.070004 
L 333.426242 103.153004 
L 334.076852 103.153004 
L 334.727462 73.402001 
L 335.378073 103.153004 
L 336.028683 93.236003 
L 336.679293 113.070004 
L 337.980514 113.070004 
L 339.281734 93.236003 
L 339.932345 113.070004 
L 340.582955 122.987005 
L 341.233565 122.987005 
L 341.884176 103.153004 
L 342.534786 113.070004 
L 343.185396 113.070004 
L 343.836007 93.236003 
L 344.486617 113.070004 
L 345.137227 93.236003 
L 346.438448 113.070004 
L 347.089058 83.319002 
L 347.739668 113.070004 
L 348.390279 103.153004 
L 349.040889 103.153004 
L 349.691499 122.987005 
L 350.34211 103.153004 
L 350.99272 93.236003 
L 351.64333 113.070004 
L 352.293941 103.153004 
L 352.944551 113.070004 
L 353.595161 103.153004 
L 354.245772 103.153004 
L 354.896382 122.987005 
L 355.546992 122.987005 
L 356.197602 103.153004 
L 356.848213 103.153004 
L 357.498823 113.070004 
L 358.149433 103.153004 
L 358.800044 113.070004 
L 359.450654 113.070004 
L 360.101264 103.153004 
L 360.751875 103.153004 
L 361.402485 83.319002 
L 362.053095 93.236003 
L 362.703706 93.236003 
L 363.354316 103.153004 
L 364.004926 93.236003 
L 364.655537 122.987005 
L 365.306147 93.236003 
L 365.956757 113.070004 
L 366.607367 113.070004 
L 367.257978 103.153004 
L 367.908588 113.070004 
L 368.559198 93.236003 
L 369.209809 103.153004 
L 370.511029 103.153004 
L 371.16164 113.070004 
L 371.81225 103.153004 
L 372.46286 113.070004 
L 373.113471 93.236003 
L 373.764081 103.153004 
L 374.414691 122.987005 
L 375.065302 113.070004 
L 375.715912 93.236003 
L 376.366522 113.070004 
L 377.017132 103.153004 
L 377.667743 103.153004 
L 378.318353 122.987005 
L 378.968963 103.153004 
L 379.619574 113.070004 
L 380.270184 113.070004 
L 380.920794 103.153004 
L 381.571405 103.153004 
L 382.222015 83.319002 
L 383.523236 103.153004 
L 384.824456 103.153004 
L 385.475066 73.402001 
L 386.125677 113.070004 
L 386.776287 122.987005 
L 387.426897 113.070004 
L 388.077508 132.904006 
L 388.728118 103.153004 
L 389.378728 103.153004 
L 390.029339 93.236003 
L 390.679949 93.236003 
L 391.330559 103.153004 
L 391.98117 103.153004 
L 392.63178 83.319002 
L 393.28239 103.153004 
L 393.933001 93.236003 
L 394.583611 113.070004 
L 395.234221 73.402001 
L 396.535442 93.236003 
L 397.186052 93.236003 
L 397.836662 83.319002 
L 398.487273 103.153004 
L 398.487273 103.153004 
" style="fill:none;stroke:#ff0000;stroke-linecap:square;stroke-width:1.5;"/>
   </g>
   <g id="patch_3">
    <path d="M 57.6 307.584 
L 57.6 41.472 
" style="fill:none;stroke:#000000;stroke-linecap:square;stroke-linejoin:miter;stroke-width:0.8;"/>
   </g>
   <g id="patch_4">
    <path d="M 414.72 307.584 
L 414.72 41.472 
" style="fill:none;stroke:#000000;stroke-linecap:square;stroke-linejoin:miter;stroke-width:0.8;"/>
   </g>
   <g id="patch_5">
    <path d="M 57.6 307.584 
L 414.72 307.584 
" style="fill:none;stroke:#000000;stroke-linecap:square;stroke-linejoin:miter;stroke-width:0.8;"/>
   </g>
   <g id="patch_6">
    <path d="M 57.6 41.472 
L 414.72 41.472 
" style="fill:none;stroke:#000000;stroke-linecap:square;stroke-linejoin:miter;stroke-width:0.8;"/>
   </g>
   <g id="text_14">
    <!-- Population's average and best fitness -->
    <defs>
     <path d="M 19.671875 64.796875 
L 19.671875 37.40625 
L 32.078125 37.40625 
Q 38.96875 37.40625 42.71875 40.96875 
Q 46.484375 44.53125 46.484375 51.125 
Q 46.484375 57.671875 42.71875 61.234375 
Q 38.96875 64.796875 32.078125 64.796875 
z
M 9.8125 72.90625 
L 32.078125 72.90625 
Q 44.34375 72.90625 50.609375 67.359375 
Q 56.890625 61.8125 56.890625 51.125 
Q 56.890625 40.328125 50.609375 34.8125 
Q 44.34375 29.296875 32.078125 29.296875 
L 19.671875 29.296875 
L 19.671875 0 
L 9.8125 0 
z
" id="DejaVuSans-80"/>
     <path d="M 18.109375 8.203125 
L 18.109375 -20.796875 
L 9.078125 -20.796875 
L 9.078125 54.6875 
L 18.109375 54.6875 
L 18.109375 46.390625 
Q 20.953125 51.265625 25.265625 53.625 
Q 29.59375 56 35.59375 56 
Q 45.5625 56 51.78125 48.09375 
Q 58.015625 40.1875 58.015625 27.296875 
Q 58.015625 14.40625 51.78125 6.484375 
Q 45.5625 -1.421875 35.59375 -1.421875 
Q 29.59375 -1.421875 25.265625 0.953125 
Q 20.953125 3.328125 18.109375 8.203125 
z
M 48.6875 27.296875 
Q 48.6875 37.203125 44.609375 42.84375 
Q 40.53125 48.484375 33.40625 48.484375 
Q 26.265625 48.484375 22.1875 42.84375 
Q 18.109375 37.203125 18.109375 27.296875 
Q 18.109375 17.390625 22.1875 11.75 
Q 26.265625 6.109375 33.40625 6.109375 
Q 40.53125 6.109375 44.609375 11.75 
Q 48.6875 17.390625 48.6875 27.296875 
z
" id="DejaVuSans-112"/>
     <path d="M 8.5 21.578125 
L 8.5 54.6875 
L 17.484375 54.6875 
L 17.484375 21.921875 
Q 17.484375 14.15625 20.5 10.265625 
Q 23.53125 6.390625 29.59375 6.390625 
Q 36.859375 6.390625 41.078125 11.03125 
Q 45.3125 15.671875 45.3125 23.6875 
L 45.3125 54.6875 
L 54.296875 54.6875 
L 54.296875 0 
L 45.3125 0 
L 45.3125 8.40625 
Q 42.046875 3.421875 37.71875 1 
Q 33.40625 -1.421875 27.6875 -1.421875 
Q 18.265625 -1.421875 13.375 4.4375 
Q 8.5 10.296875 8.5 21.578125 
z
M 31.109375 56 
z
" id="DejaVuSans-117"/>
     <path d="M 9.421875 75.984375 
L 18.40625 75.984375 
L 18.40625 0 
L 9.421875 0 
z
" id="DejaVuSans-108"/>
     <path d="M 17.921875 72.90625 
L 17.921875 45.796875 
L 9.625 45.796875 
L 9.625 72.90625 
z
" id="DejaVuSans-39"/>
     <path id="DejaVuSans-32"/>
     <path d="M 2.984375 54.6875 
L 12.5 54.6875 
L 29.59375 8.796875 
L 46.6875 54.6875 
L 56.203125 54.6875 
L 35.6875 0 
L 23.484375 0 
z
" id="DejaVuSans-118"/>
     <path d="M 45.40625 27.984375 
Q 45.40625 37.75 41.375 43.109375 
Q 37.359375 48.484375 30.078125 48.484375 
Q 22.859375 48.484375 18.828125 43.109375 
Q 14.796875 37.75 14.796875 27.984375 
Q 14.796875 18.265625 18.828125 12.890625 
Q 22.859375 7.515625 30.078125 7.515625 
Q 37.359375 7.515625 41.375 12.890625 
Q 45.40625 18.265625 45.40625 27.984375 
z
M 54.390625 6.78125 
Q 54.390625 -7.171875 48.1875 -13.984375 
Q 42 -20.796875 29.203125 -20.796875 
Q 24.46875 -20.796875 20.265625 -20.09375 
Q 16.0625 -19.390625 12.109375 -17.921875 
L 12.109375 -9.1875 
Q 16.0625 -11.328125 19.921875 -12.34375 
Q 23.78125 -13.375 27.78125 -13.375 
Q 36.625 -13.375 41.015625 -8.765625 
Q 45.40625 -4.15625 45.40625 5.171875 
L 45.40625 9.625 
Q 42.625 4.78125 38.28125 2.390625 
Q 33.9375 0 27.875 0 
Q 17.828125 0 11.671875 7.65625 
Q 5.515625 15.328125 5.515625 27.984375 
Q 5.515625 40.671875 11.671875 48.328125 
Q 17.828125 56 27.875 56 
Q 33.9375 56 38.28125 53.609375 
Q 42.625 51.21875 45.40625 46.390625 
L 45.40625 54.6875 
L 54.390625 54.6875 
z
" id="DejaVuSans-103"/>
     <path d="M 45.40625 46.390625 
L 45.40625 75.984375 
L 54.390625 75.984375 
L 54.390625 0 
L 45.40625 0 
L 45.40625 8.203125 
Q 42.578125 3.328125 38.25 0.953125 
Q 33.9375 -1.421875 27.875 -1.421875 
Q 17.96875 -1.421875 11.734375 6.484375 
Q 5.515625 14.40625 5.515625 27.296875 
Q 5.515625 40.1875 11.734375 48.09375 
Q 17.96875 56 27.875 56 
Q 33.9375 56 38.25 53.625 
Q 42.578125 51.265625 45.40625 46.390625 
z
M 14.796875 27.296875 
Q 14.796875 17.390625 18.875 11.75 
Q 22.953125 6.109375 30.078125 6.109375 
Q 37.203125 6.109375 41.296875 11.75 
Q 45.40625 17.390625 45.40625 27.296875 
Q 45.40625 37.203125 41.296875 42.84375 
Q 37.203125 48.484375 30.078125 48.484375 
Q 22.953125 48.484375 18.875 42.84375 
Q 14.796875 37.203125 14.796875 27.296875 
z
" id="DejaVuSans-100"/>
     <path d="M 48.6875 27.296875 
Q 48.6875 37.203125 44.609375 42.84375 
Q 40.53125 48.484375 33.40625 48.484375 
Q 26.265625 48.484375 22.1875 42.84375 
Q 18.109375 37.203125 18.109375 27.296875 
Q 18.109375 17.390625 22.1875 11.75 
Q 26.265625 6.109375 33.40625 6.109375 
Q 40.53125 6.109375 44.609375 11.75 
Q 48.6875 17.390625 48.6875 27.296875 
z
M 18.109375 46.390625 
Q 20.953125 51.265625 25.265625 53.625 
Q 29.59375 56 35.59375 56 
Q 45.5625 56 51.78125 48.09375 
Q 58.015625 40.1875 58.015625 27.296875 
Q 58.015625 14.40625 51.78125 6.484375 
Q 45.5625 -1.421875 35.59375 -1.421875 
Q 29.59375 -1.421875 25.265625 0.953125 
Q 20.953125 3.328125 18.109375 8.203125 
L 18.109375 0 
L 9.078125 0 
L 9.078125 75.984375 
L 18.109375 75.984375 
z
" id="DejaVuSans-98"/>
     <path d="M 37.109375 75.984375 
L 37.109375 68.5 
L 28.515625 68.5 
Q 23.6875 68.5 21.796875 66.546875 
Q 19.921875 64.59375 19.921875 59.515625 
L 19.921875 54.6875 
L 34.71875 54.6875 
L 34.71875 47.703125 
L 19.921875 47.703125 
L 19.921875 0 
L 10.890625 0 
L 10.890625 47.703125 
L 2.296875 47.703125 
L 2.296875 54.6875 
L 10.890625 54.6875 
L 10.890625 58.5 
Q 10.890625 67.625 15.140625 71.796875 
Q 19.390625 75.984375 28.609375 75.984375 
z
" id="DejaVuSans-102"/>
    </defs>
    <g transform="translate(123.315 35.472)scale(0.12 -0.12)">
     <use xlink:href="#DejaVuSans-80"/>
     <use x="60.255859" xlink:href="#DejaVuSans-111"/>
     <use x="121.4375" xlink:href="#DejaVuSans-112"/>
     <use x="184.914062" xlink:href="#DejaVuSans-117"/>
     <use x="248.292969" xlink:href="#DejaVuSans-108"/>
     <use x="276.076172" xlink:href="#DejaVuSans-97"/>
     <use x="337.355469" xlink:href="#DejaVuSans-116"/>
     <use x="376.564453" xlink:href="#DejaVuSans-105"/>
     <use x="404.347656" xlink:href="#DejaVuSans-111"/>
     <use x="465.529297" xlink:href="#DejaVuSans-110"/>
     <use x="528.908203" xlink:href="#DejaVuSans-39"/>
     <use x="556.398438" xlink:href="#DejaVuSans-115"/>
     <use x="608.498047" xlink:href="#DejaVuSans-32"/>
     <use x="640.285156" xlink:href="#DejaVuSans-97"/>
     <use x="701.564453" xlink:href="#DejaVuSans-118"/>
     <use x="760.744141" xlink:href="#DejaVuSans-101"/>
     <use x="822.267578" xlink:href="#DejaVuSans-114"/>
     <use x="863.380859" xlink:href="#DejaVuSans-97"/>
     <use x="924.660156" xlink:href="#DejaVuSans-103"/>
     <use x="988.136719" xlink:href="#DejaVuSans-101"/>
     <use x="1049.660156" xlink:href="#DejaVuSans-32"/>
     <use x="1081.447266" xlink:href="#DejaVuSans-97"/>
     <use x="1142.726562" xlink:href="#DejaVuSans-110"/>
     <use x="1206.105469" xlink:href="#DejaVuSans-100"/>
     <use x="1269.582031" xlink:href="#DejaVuSans-32"/>
     <use x="1301.369141" xlink:href="#DejaVuSans-98"/>
     <use x="1364.845703" xlink:href="#DejaVuSans-101"/>
     <use x="1426.369141" xlink:href="#DejaVuSans-115"/>
     <use x="1478.46875" xlink:href="#DejaVuSans-116"/>
     <use x="1517.677734" xlink:href="#DejaVuSans-32"/>
     <use x="1549.464844" xlink:href="#DejaVuSans-102"/>
     <use x="1584.669922" xlink:href="#DejaVuSans-105"/>
     <use x="1612.453125" xlink:href="#DejaVuSans-116"/>
     <use x="1651.662109" xlink:href="#DejaVuSans-110"/>
     <use x="1715.041016" xlink:href="#DejaVuSans-101"/>
     <use x="1776.564453" xlink:href="#DejaVuSans-115"/>
     <use x="1828.664062" xlink:href="#DejaVuSans-115"/>
    </g>
   </g>
   <g id="legend_1">
    <g id="patch_7">
     <path d="M 334.779375 302.584 
L 407.72 302.584 
Q 409.72 302.584 409.72 300.584 
L 409.72 257.549625 
Q 409.72 255.549625 407.72 255.549625 
L 334.779375 255.549625 
Q 332.779375 255.549625 332.779375 257.549625 
L 332.779375 300.584 
Q 332.779375 302.584 334.779375 302.584 
z
" style="fill:#ffffff;opacity:0.8;stroke:#cccccc;stroke-linejoin:miter;"/>
    </g>
    <g id="line2d_26">
     <path d="M 336.779375 263.648062 
L 356.779375 263.648062 
" style="fill:none;stroke:#0000ff;stroke-linecap:square;stroke-width:1.5;"/>
    </g>
    <g id="line2d_27"/>
    <g id="text_15">
     <!-- average -->
     <g transform="translate(364.779375 267.148062)scale(0.1 -0.1)">
      <use xlink:href="#DejaVuSans-97"/>
      <use x="61.279297" xlink:href="#DejaVuSans-118"/>
      <use x="120.458984" xlink:href="#DejaVuSans-101"/>
      <use x="181.982422" xlink:href="#DejaVuSans-114"/>
      <use x="223.095703" xlink:href="#DejaVuSans-97"/>
      <use x="284.375" xlink:href="#DejaVuSans-103"/>
      <use x="347.851562" xlink:href="#DejaVuSans-101"/>
     </g>
    </g>
    <g id="line2d_28">
     <path d="M 336.779375 278.326188 
L 356.779375 278.326188 
" style="fill:none;stroke:#008000;stroke-dasharray:9.6,2.4,1.5,2.4;stroke-dashoffset:0;stroke-width:1.5;"/>
    </g>
    <g id="line2d_29"/>
    <g id="text_16">
     <!-- +1 sd -->
     <defs>
      <path d="M 46 62.703125 
L 46 35.5 
L 73.1875 35.5 
L 73.1875 27.203125 
L 46 27.203125 
L 46 0 
L 37.796875 0 
L 37.796875 27.203125 
L 10.59375 27.203125 
L 10.59375 35.5 
L 37.796875 35.5 
L 37.796875 62.703125 
z
" id="DejaVuSans-43"/>
     </defs>
     <g transform="translate(364.779375 281.826188)scale(0.1 -0.1)">
      <use xlink:href="#DejaVuSans-43"/>
      <use x="83.789062" xlink:href="#DejaVuSans-49"/>
      <use x="147.412109" xlink:href="#DejaVuSans-32"/>
      <use x="179.199219" xlink:href="#DejaVuSans-115"/>
      <use x="231.298828" xlink:href="#DejaVuSans-100"/>
     </g>
    </g>
    <g id="line2d_30">
     <path d="M 336.779375 293.004312 
L 356.779375 293.004312 
" style="fill:none;stroke:#ff0000;stroke-linecap:square;stroke-width:1.5;"/>
    </g>
    <g id="line2d_31"/>
    <g id="text_17">
     <!-- best -->
     <g transform="translate(364.779375 296.504312)scale(0.1 -0.1)">
      <use xlink:href="#DejaVuSans-98"/>
      <use x="63.476562" xlink:href="#DejaVuSans-101"/>
      <use x="125" xlink:href="#DejaVuSans-115"/>
      <use x="177.099609" xlink:href="#DejaVuSans-116"/>
     </g>
    </g>
   </g>
  </g>
 </g>
 <defs>
  <clipPath id="pf65eb99a3c">
   <rect height="266.112" width="357.12" x="57.6" y="41.472"/>
  </clipPath>
 </defs>
</svg>
