<?xml version="1.0" encoding="utf-8" standalone="no"?>
<!DOCTYPE svg PUBLIC "-//W3C//DTD SVG 1.1//EN"
  "http://www.w3.org/Graphics/SVG/1.1/DTD/svg11.dtd">
<!-- Created with matplotlib (https://matplotlib.org/) -->
<svg height="345.6pt" version="1.1" viewBox="0 0 460.8 345.6" width="460.8pt" xmlns="http://www.w3.org/2000/svg" xmlns:xlink="http://www.w3.org/1999/xlink">
 <defs>
  <style type="text/css">
*{stroke-linecap:butt;stroke-linejoin:round;}
  </style>
 </defs>
 <g id="figure_1">
  <g id="patch_1">
   <path d="M 0 345.6 
L 460.8 345.6 
L 460.8 0 
L 0 0 
z
" style="fill:#ffffff;"/>
  </g>
  <g id="axes_1">
   <g id="patch_2">
    <path d="M 57.6 307.584 
L 414.72 307.584 
L 414.72 41.472 
L 57.6 41.472 
z
" style="fill:#ffffff;"/>
   </g>
   <g id="matplotlib.axis_1">
    <g id="xtick_1">
     <g id="line2d_1">
      <path clip-path="url(#p6281fef1fb)" d="M 73.832727 307.584 
L 73.832727 41.472 
" style="fill:none;stroke:#b0b0b0;stroke-linecap:square;stroke-width:0.8;"/>
     </g>
     <g id="line2d_2">
      <defs>
       <path d="M 0 0 
L 0 3.5 
" id="m470ec6f40b" style="stroke:#000000;stroke-width:0.8;"/>
      </defs>
      <g>
       <use style="stroke:#000000;stroke-width:0.8;" x="73.832727" xlink:href="#m470ec6f40b" y="307.584"/>
      </g>
     </g>
     <g id="text_1">
      <!-- 0 -->
      <defs>
       <path d="M 31.78125 66.40625 
Q 24.171875 66.40625 20.328125 58.90625 
Q 16.5 51.421875 16.5 36.375 
Q 16.5 21.390625 20.328125 13.890625 
Q 24.171875 6.390625 31.78125 6.390625 
Q 39.453125 6.390625 43.28125 13.890625 
Q 47.125 21.390625 47.125 36.375 
Q 47.125 51.421875 43.28125 58.90625 
Q 39.453125 66.40625 31.78125 66.40625 
z
M 31.78125 74.21875 
Q 44.046875 74.21875 50.515625 64.515625 
Q 56.984375 54.828125 56.984375 36.375 
Q 56.984375 17.96875 50.515625 8.265625 
Q 44.046875 -1.421875 31.78125 -1.421875 
Q 19.53125 -1.421875 13.0625 8.265625 
Q 6.59375 17.96875 6.59375 36.375 
Q 6.59375 54.828125 13.0625 64.515625 
Q 19.53125 74.21875 31.78125 74.21875 
z
" id="DejaVuSans-48"/>
      </defs>
      <g transform="translate(70.651477 322.182437)scale(0.1 -0.1)">
       <use xlink:href="#DejaVuSans-48"/>
      </g>
     </g>
    </g>
    <g id="xtick_2">
     <g id="line2d_3">
      <path clip-path="url(#p6281fef1fb)" d="M 138.893758 307.584 
L 138.893758 41.472 
" style="fill:none;stroke:#b0b0b0;stroke-linecap:square;stroke-width:0.8;"/>
     </g>
     <g id="line2d_4">
      <g>
       <use style="stroke:#000000;stroke-width:0.8;" x="138.893758" xlink:href="#m470ec6f40b" y="307.584"/>
      </g>
     </g>
     <g id="text_2">
      <!-- 100 -->
      <defs>
       <path d="M 12.40625 8.296875 
L 28.515625 8.296875 
L 28.515625 63.921875 
L 10.984375 60.40625 
L 10.984375 69.390625 
L 28.421875 72.90625 
L 38.28125 72.90625 
L 38.28125 8.296875 
L 54.390625 8.296875 
L 54.390625 0 
L 12.40625 0 
z
" id="DejaVuSans-49"/>
      </defs>
      <g transform="translate(129.350008 322.182437)scale(0.1 -0.1)">
       <use xlink:href="#DejaVuSans-49"/>
       <use x="63.623047" xlink:href="#DejaVuSans-48"/>
       <use x="127.246094" xlink:href="#DejaVuSans-48"/>
      </g>
     </g>
    </g>
    <g id="xtick_3">
     <g id="line2d_5">
      <path clip-path="url(#p6281fef1fb)" d="M 203.95479 307.584 
L 203.95479 41.472 
" style="fill:none;stroke:#b0b0b0;stroke-linecap:square;stroke-width:0.8;"/>
     </g>
     <g id="line2d_6">
      <g>
       <use style="stroke:#000000;stroke-width:0.8;" x="203.95479" xlink:href="#m470ec6f40b" y="307.584"/>
      </g>
     </g>
     <g id="text_3">
      <!-- 200 -->
      <defs>
       <path d="M 19.1875 8.296875 
L 53.609375 8.296875 
L 53.609375 0 
L 7.328125 0 
L 7.328125 8.296875 
Q 12.9375 14.109375 22.625 23.890625 
Q 32.328125 33.6875 34.8125 36.53125 
Q 39.546875 41.84375 41.421875 45.53125 
Q 43.3125 49.21875 43.3125 52.78125 
Q 43.3125 58.59375 39.234375 62.25 
Q 35.15625 65.921875 28.609375 65.921875 
Q 23.96875 65.921875 18.8125 64.3125 
Q 13.671875 62.703125 7.8125 59.421875 
L 7.8125 69.390625 
Q 13.765625 71.78125 18.9375 73 
Q 24.125 74.21875 28.421875 74.21875 
Q 39.75 74.21875 46.484375 68.546875 
Q 53.21875 62.890625 53.21875 53.421875 
Q 53.21875 48.921875 51.53125 44.890625 
Q 49.859375 40.875 45.40625 35.40625 
Q 44.1875 33.984375 37.640625 27.21875 
Q 31.109375 20.453125 19.1875 8.296875 
z
" id="DejaVuSans-50"/>
      </defs>
      <g transform="translate(194.41104 322.182437)scale(0.1 -0.1)">
       <use xlink:href="#DejaVuSans-50"/>
       <use x="63.623047" xlink:href="#DejaVuSans-48"/>
       <use x="127.246094" xlink:href="#DejaVuSans-48"/>
      </g>
     </g>
    </g>
    <g id="xtick_4">
     <g id="line2d_7">
      <path clip-path="url(#p6281fef1fb)" d="M 269.015821 307.584 
L 269.015821 41.472 
" style="fill:none;stroke:#b0b0b0;stroke-linecap:square;stroke-width:0.8;"/>
     </g>
     <g id="line2d_8">
      <g>
       <use style="stroke:#000000;stroke-width:0.8;" x="269.015821" xlink:href="#m470ec6f40b" y="307.584"/>
      </g>
     </g>
     <g id="text_4">
      <!-- 300 -->
      <defs>
       <path d="M 40.578125 39.3125 
Q 47.65625 37.796875 51.625 33 
Q 55.609375 28.21875 55.609375 21.1875 
Q 55.609375 10.40625 48.1875 4.484375 
Q 40.765625 -1.421875 27.09375 -1.421875 
Q 22.515625 -1.421875 17.65625 -0.515625 
Q 12.796875 0.390625 7.625 2.203125 
L 7.625 11.71875 
Q 11.71875 9.328125 16.59375 8.109375 
Q 21.484375 6.890625 26.8125 6.890625 
Q 36.078125 6.890625 40.9375 10.546875 
Q 45.796875 14.203125 45.796875 21.1875 
Q 45.796875 27.640625 41.28125 31.265625 
Q 36.765625 34.90625 28.71875 34.90625 
L 20.21875 34.90625 
L 20.21875 43.015625 
L 29.109375 43.015625 
Q 36.375 43.015625 40.234375 45.921875 
Q 44.09375 48.828125 44.09375 54.296875 
Q 44.09375 59.90625 40.109375 62.90625 
Q 36.140625 65.921875 28.71875 65.921875 
Q 24.65625 65.921875 20.015625 65.03125 
Q 15.375 64.15625 9.8125 62.3125 
L 9.8125 71.09375 
Q 15.4375 72.65625 20.34375 73.4375 
Q 25.25 74.21875 29.59375 74.21875 
Q 40.828125 74.21875 47.359375 69.109375 
Q 53.90625 64.015625 53.90625 55.328125 
Q 53.90625 49.265625 50.4375 45.09375 
Q 46.96875 40.921875 40.578125 39.3125 
z
" id="DejaVuSans-51"/>
      </defs>
      <g transform="translate(259.472071 322.182437)scale(0.1 -0.1)">
       <use xlink:href="#DejaVuSans-51"/>
       <use x="63.623047" xlink:href="#DejaVuSans-48"/>
       <use x="127.246094" xlink:href="#DejaVuSans-48"/>
      </g>
     </g>
    </g>
    <g id="xtick_5">
     <g id="line2d_9">
      <path clip-path="url(#p6281fef1fb)" d="M 334.076852 307.584 
L 334.076852 41.472 
" style="fill:none;stroke:#b0b0b0;stroke-linecap:square;stroke-width:0.8;"/>
     </g>
     <g id="line2d_10">
      <g>
       <use style="stroke:#000000;stroke-width:0.8;" x="334.076852" xlink:href="#m470ec6f40b" y="307.584"/>
      </g>
     </g>
     <g id="text_5">
      <!-- 400 -->
      <defs>
       <path d="M 37.796875 64.3125 
L 12.890625 25.390625 
L 37.796875 25.390625 
z
M 35.203125 72.90625 
L 47.609375 72.90625 
L 47.609375 25.390625 
L 58.015625 25.390625 
L 58.015625 17.1875 
L 47.609375 17.1875 
L 47.609375 0 
L 37.796875 0 
L 37.796875 17.1875 
L 4.890625 17.1875 
L 4.890625 26.703125 
z
" id="DejaVuSans-52"/>
      </defs>
      <g transform="translate(324.533102 322.182437)scale(0.1 -0.1)">
       <use xlink:href="#DejaVuSans-52"/>
       <use x="63.623047" xlink:href="#DejaVuSans-48"/>
       <use x="127.246094" xlink:href="#DejaVuSans-48"/>
      </g>
     </g>
    </g>
    <g id="xtick_6">
     <g id="line2d_11">
      <path clip-path="url(#p6281fef1fb)" d="M 399.137883 307.584 
L 399.137883 41.472 
" style="fill:none;stroke:#b0b0b0;stroke-linecap:square;stroke-width:0.8;"/>
     </g>
     <g id="line2d_12">
      <g>
       <use style="stroke:#000000;stroke-width:0.8;" x="399.137883" xlink:href="#m470ec6f40b" y="307.584"/>
      </g>
     </g>
     <g id="text_6">
      <!-- 500 -->
      <defs>
       <path d="M 10.796875 72.90625 
L 49.515625 72.90625 
L 49.515625 64.59375 
L 19.828125 64.59375 
L 19.828125 46.734375 
Q 21.96875 47.46875 24.109375 47.828125 
Q 26.265625 48.1875 28.421875 48.1875 
Q 40.625 48.1875 47.75 41.5 
Q 54.890625 34.8125 54.890625 23.390625 
Q 54.890625 11.625 47.5625 5.09375 
Q 40.234375 -1.421875 26.90625 -1.421875 
Q 22.3125 -1.421875 17.546875 -0.640625 
Q 12.796875 0.140625 7.71875 1.703125 
L 7.71875 11.625 
Q 12.109375 9.234375 16.796875 8.0625 
Q 21.484375 6.890625 26.703125 6.890625 
Q 35.15625 6.890625 40.078125 11.328125 
Q 45.015625 15.765625 45.015625 23.390625 
Q 45.015625 31 40.078125 35.4375 
Q 35.15625 39.890625 26.703125 39.890625 
Q 22.75 39.890625 18.8125 39.015625 
Q 14.890625 38.140625 10.796875 36.28125 
z
" id="DejaVuSans-53"/>
      </defs>
      <g transform="translate(389.594133 322.182437)scale(0.1 -0.1)">
       <use xlink:href="#DejaVuSans-53"/>
       <use x="63.623047" xlink:href="#DejaVuSans-48"/>
       <use x="127.246094" xlink:href="#DejaVuSans-48"/>
      </g>
     </g>
    </g>
    <g id="text_7">
     <!-- Generations -->
     <defs>
      <path d="M 59.515625 10.40625 
L 59.515625 29.984375 
L 43.40625 29.984375 
L 43.40625 38.09375 
L 69.28125 38.09375 
L 69.28125 6.78125 
Q 63.578125 2.734375 56.6875 0.65625 
Q 49.8125 -1.421875 42 -1.421875 
Q 24.90625 -1.421875 15.25 8.5625 
Q 5.609375 18.5625 5.609375 36.375 
Q 5.609375 54.25 15.25 64.234375 
Q 24.90625 74.21875 42 74.21875 
Q 49.125 74.21875 55.546875 72.453125 
Q 61.96875 70.703125 67.390625 67.28125 
L 67.390625 56.78125 
Q 61.921875 61.421875 55.765625 63.765625 
Q 49.609375 66.109375 42.828125 66.109375 
Q 29.4375 66.109375 22.71875 58.640625 
Q 16.015625 51.171875 16.015625 36.375 
Q 16.015625 21.625 22.71875 14.15625 
Q 29.4375 6.6875 42.828125 6.6875 
Q 48.046875 6.6875 52.140625 7.59375 
Q 56.25 8.5 59.515625 10.40625 
z
" id="DejaVuSans-71"/>
      <path d="M 56.203125 29.59375 
L 56.203125 25.203125 
L 14.890625 25.203125 
Q 15.484375 15.921875 20.484375 11.0625 
Q 25.484375 6.203125 34.421875 6.203125 
Q 39.59375 6.203125 44.453125 7.46875 
Q 49.3125 8.734375 54.109375 11.28125 
L 54.109375 2.78125 
Q 49.265625 0.734375 44.1875 -0.34375 
Q 39.109375 -1.421875 33.890625 -1.421875 
Q 20.796875 -1.421875 13.15625 6.1875 
Q 5.515625 13.8125 5.515625 26.8125 
Q 5.515625 40.234375 12.765625 48.109375 
Q 20.015625 56 32.328125 56 
Q 43.359375 56 49.78125 48.890625 
Q 56.203125 41.796875 56.203125 29.59375 
z
M 47.21875 32.234375 
Q 47.125 39.59375 43.09375 43.984375 
Q 39.0625 48.390625 32.421875 48.390625 
Q 24.90625 48.390625 20.390625 44.140625 
Q 15.875 39.890625 15.1875 32.171875 
z
" id="DejaVuSans-101"/>
      <path d="M 54.890625 33.015625 
L 54.890625 0 
L 45.90625 0 
L 45.90625 32.71875 
Q 45.90625 40.484375 42.875 44.328125 
Q 39.84375 48.1875 33.796875 48.1875 
Q 26.515625 48.1875 22.3125 43.546875 
Q 18.109375 38.921875 18.109375 30.90625 
L 18.109375 0 
L 9.078125 0 
L 9.078125 54.6875 
L 18.109375 54.6875 
L 18.109375 46.1875 
Q 21.34375 51.125 25.703125 53.5625 
Q 30.078125 56 35.796875 56 
Q 45.21875 56 50.046875 50.171875 
Q 54.890625 44.34375 54.890625 33.015625 
z
" id="DejaVuSans-110"/>
      <path d="M 41.109375 46.296875 
Q 39.59375 47.171875 37.8125 47.578125 
Q 36.03125 48 33.890625 48 
Q 26.265625 48 22.1875 43.046875 
Q 18.109375 38.09375 18.109375 28.8125 
L 18.109375 0 
L 9.078125 0 
L 9.078125 54.6875 
L 18.109375 54.6875 
L 18.109375 46.1875 
Q 20.953125 51.171875 25.484375 53.578125 
Q 30.03125 56 36.53125 56 
Q 37.453125 56 38.578125 55.875 
Q 39.703125 55.765625 41.0625 55.515625 
z
" id="DejaVuSans-114"/>
      <path d="M 34.28125 27.484375 
Q 23.390625 27.484375 19.1875 25 
Q 14.984375 22.515625 14.984375 16.5 
Q 14.984375 11.71875 18.140625 8.90625 
Q 21.296875 6.109375 26.703125 6.109375 
Q 34.1875 6.109375 38.703125 11.40625 
Q 43.21875 16.703125 43.21875 25.484375 
L 43.21875 27.484375 
z
M 52.203125 31.203125 
L 52.203125 0 
L 43.21875 0 
L 43.21875 8.296875 
Q 40.140625 3.328125 35.546875 0.953125 
Q 30.953125 -1.421875 24.3125 -1.421875 
Q 15.921875 -1.421875 10.953125 3.296875 
Q 6 8.015625 6 15.921875 
Q 6 25.140625 12.171875 29.828125 
Q 18.359375 34.515625 30.609375 34.515625 
L 43.21875 34.515625 
L 43.21875 35.40625 
Q 43.21875 41.609375 39.140625 45 
Q 35.0625 48.390625 27.6875 48.390625 
Q 23 48.390625 18.546875 47.265625 
Q 14.109375 46.140625 10.015625 43.890625 
L 10.015625 52.203125 
Q 14.9375 54.109375 19.578125 55.046875 
Q 24.21875 56 28.609375 56 
Q 40.484375 56 46.34375 49.84375 
Q 52.203125 43.703125 52.203125 31.203125 
z
" id="DejaVuSans-97"/>
      <path d="M 18.3125 70.21875 
L 18.3125 54.6875 
L 36.8125 54.6875 
L 36.8125 47.703125 
L 18.3125 47.703125 
L 18.3125 18.015625 
Q 18.3125 11.328125 20.140625 9.421875 
Q 21.96875 7.515625 27.59375 7.515625 
L 36.8125 7.515625 
L 36.8125 0 
L 27.59375 0 
Q 17.1875 0 13.234375 3.875 
Q 9.28125 7.765625 9.28125 18.015625 
L 9.28125 47.703125 
L 2.6875 47.703125 
L 2.6875 54.6875 
L 9.28125 54.6875 
L 9.28125 70.21875 
z
" id="DejaVuSans-116"/>
      <path d="M 9.421875 54.6875 
L 18.40625 54.6875 
L 18.40625 0 
L 9.421875 0 
z
M 9.421875 75.984375 
L 18.40625 75.984375 
L 18.40625 64.59375 
L 9.421875 64.59375 
z
" id="DejaVuSans-105"/>
      <path d="M 30.609375 48.390625 
Q 23.390625 48.390625 19.1875 42.75 
Q 14.984375 37.109375 14.984375 27.296875 
Q 14.984375 17.484375 19.15625 11.84375 
Q 23.34375 6.203125 30.609375 6.203125 
Q 37.796875 6.203125 41.984375 11.859375 
Q 46.1875 17.53125 46.1875 27.296875 
Q 46.1875 37.015625 41.984375 42.703125 
Q 37.796875 48.390625 30.609375 48.390625 
z
M 30.609375 56 
Q 42.328125 56 49.015625 48.375 
Q 55.71875 40.765625 55.71875 27.296875 
Q 55.71875 13.875 49.015625 6.21875 
Q 42.328125 -1.421875 30.609375 -1.421875 
Q 18.84375 -1.421875 12.171875 6.21875 
Q 5.515625 13.875 5.515625 27.296875 
Q 5.515625 40.765625 12.171875 48.375 
Q 18.84375 56 30.609375 56 
z
" id="DejaVuSans-111"/>
      <path d="M 44.28125 53.078125 
L 44.28125 44.578125 
Q 40.484375 46.53125 36.375 47.5 
Q 32.28125 48.484375 27.875 48.484375 
Q 21.1875 48.484375 17.84375 46.4375 
Q 14.5 44.390625 14.5 40.28125 
Q 14.5 37.15625 16.890625 35.375 
Q 19.28125 33.59375 26.515625 31.984375 
L 29.59375 31.296875 
Q 39.15625 29.25 43.1875 25.515625 
Q 47.21875 21.78125 47.21875 15.09375 
Q 47.21875 7.46875 41.1875 3.015625 
Q 35.15625 -1.421875 24.609375 -1.421875 
Q 20.21875 -1.421875 15.453125 -0.5625 
Q 10.6875 0.296875 5.421875 2 
L 5.421875 11.28125 
Q 10.40625 8.6875 15.234375 7.390625 
Q 20.0625 6.109375 24.8125 6.109375 
Q 31.15625 6.109375 34.5625 8.28125 
Q 37.984375 10.453125 37.984375 14.40625 
Q 37.984375 18.0625 35.515625 20.015625 
Q 33.0625 21.96875 24.703125 23.78125 
L 21.578125 24.515625 
Q 13.234375 26.265625 9.515625 29.90625 
Q 5.8125 33.546875 5.8125 39.890625 
Q 5.8125 47.609375 11.28125 51.796875 
Q 16.75 56 26.8125 56 
Q 31.78125 56 36.171875 55.265625 
Q 40.578125 54.546875 44.28125 53.078125 
z
" id="DejaVuSans-115"/>
     </defs>
     <g transform="translate(205.662344 335.860562)scale(0.1 -0.1)">
      <use xlink:href="#DejaVuSans-71"/>
      <use x="77.490234" xlink:href="#DejaVuSans-101"/>
      <use x="139.013672" xlink:href="#DejaVuSans-110"/>
      <use x="202.392578" xlink:href="#DejaVuSans-101"/>
      <use x="263.916016" xlink:href="#DejaVuSans-114"/>
      <use x="305.029297" xlink:href="#DejaVuSans-97"/>
      <use x="366.308594" xlink:href="#DejaVuSans-116"/>
      <use x="405.517578" xlink:href="#DejaVuSans-105"/>
      <use x="433.300781" xlink:href="#DejaVuSans-111"/>
      <use x="494.482422" xlink:href="#DejaVuSans-110"/>
      <use x="557.861328" xlink:href="#DejaVuSans-115"/>
     </g>
    </g>
   </g>
   <g id="matplotlib.axis_2">
    <g id="ytick_1">
     <g id="line2d_13">
      <path clip-path="url(#p6281fef1fb)" d="M 57.6 285.250153 
L 414.72 285.250153 
" style="fill:none;stroke:#b0b0b0;stroke-linecap:square;stroke-width:0.8;"/>
     </g>
     <g id="line2d_14">
      <defs>
       <path d="M 0 0 
L -3.5 0 
" id="mba7fffc9b6" style="stroke:#000000;stroke-width:0.8;"/>
      </defs>
      <g>
       <use style="stroke:#000000;stroke-width:0.8;" x="57.6" xlink:href="#mba7fffc9b6" y="285.250153"/>
      </g>
     </g>
     <g id="text_8">
      <!-- 22.5 -->
      <defs>
       <path d="M 10.6875 12.40625 
L 21 12.40625 
L 21 0 
L 10.6875 0 
z
" id="DejaVuSans-46"/>
      </defs>
      <g transform="translate(28.334375 289.049372)scale(0.1 -0.1)">
       <use xlink:href="#DejaVuSans-50"/>
       <use x="63.623047" xlink:href="#DejaVuSans-50"/>
       <use x="127.246094" xlink:href="#DejaVuSans-46"/>
       <use x="159.033203" xlink:href="#DejaVuSans-53"/>
      </g>
     </g>
    </g>
    <g id="ytick_2">
     <g id="line2d_15">
      <path clip-path="url(#p6281fef1fb)" d="M 57.6 253.941754 
L 414.72 253.941754 
" style="fill:none;stroke:#b0b0b0;stroke-linecap:square;stroke-width:0.8;"/>
     </g>
     <g id="line2d_16">
      <g>
       <use style="stroke:#000000;stroke-width:0.8;" x="57.6" xlink:href="#mba7fffc9b6" y="253.941754"/>
      </g>
     </g>
     <g id="text_9">
      <!-- 25.0 -->
      <g transform="translate(28.334375 257.740973)scale(0.1 -0.1)">
       <use xlink:href="#DejaVuSans-50"/>
       <use x="63.623047" xlink:href="#DejaVuSans-53"/>
       <use x="127.246094" xlink:href="#DejaVuSans-46"/>
       <use x="159.033203" xlink:href="#DejaVuSans-48"/>
      </g>
     </g>
    </g>
    <g id="ytick_3">
     <g id="line2d_17">
      <path clip-path="url(#p6281fef1fb)" d="M 57.6 222.633355 
L 414.72 222.633355 
" style="fill:none;stroke:#b0b0b0;stroke-linecap:square;stroke-width:0.8;"/>
     </g>
     <g id="line2d_18">
      <g>
       <use style="stroke:#000000;stroke-width:0.8;" x="57.6" xlink:href="#mba7fffc9b6" y="222.633355"/>
      </g>
     </g>
     <g id="text_10">
      <!-- 27.5 -->
      <defs>
       <path d="M 8.203125 72.90625 
L 55.078125 72.90625 
L 55.078125 68.703125 
L 28.609375 0 
L 18.3125 0 
L 43.21875 64.59375 
L 8.203125 64.59375 
z
" id="DejaVuSans-55"/>
      </defs>
      <g transform="translate(28.334375 226.432574)scale(0.1 -0.1)">
       <use xlink:href="#DejaVuSans-50"/>
       <use x="63.623047" xlink:href="#DejaVuSans-55"/>
       <use x="127.246094" xlink:href="#DejaVuSans-46"/>
       <use x="159.033203" xlink:href="#DejaVuSans-53"/>
      </g>
     </g>
    </g>
    <g id="ytick_4">
     <g id="line2d_19">
      <path clip-path="url(#p6281fef1fb)" d="M 57.6 191.324956 
L 414.72 191.324956 
" style="fill:none;stroke:#b0b0b0;stroke-linecap:square;stroke-width:0.8;"/>
     </g>
     <g id="line2d_20">
      <g>
       <use style="stroke:#000000;stroke-width:0.8;" x="57.6" xlink:href="#mba7fffc9b6" y="191.324956"/>
      </g>
     </g>
     <g id="text_11">
      <!-- 30.0 -->
      <g transform="translate(28.334375 195.124175)scale(0.1 -0.1)">
       <use xlink:href="#DejaVuSans-51"/>
       <use x="63.623047" xlink:href="#DejaVuSans-48"/>
       <use x="127.246094" xlink:href="#DejaVuSans-46"/>
       <use x="159.033203" xlink:href="#DejaVuSans-48"/>
      </g>
     </g>
    </g>
    <g id="ytick_5">
     <g id="line2d_21">
      <path clip-path="url(#p6281fef1fb)" d="M 57.6 160.016557 
L 414.72 160.016557 
" style="fill:none;stroke:#b0b0b0;stroke-linecap:square;stroke-width:0.8;"/>
     </g>
     <g id="line2d_22">
      <g>
       <use style="stroke:#000000;stroke-width:0.8;" x="57.6" xlink:href="#mba7fffc9b6" y="160.016557"/>
      </g>
     </g>
     <g id="text_12">
      <!-- 32.5 -->
      <g transform="translate(28.334375 163.815776)scale(0.1 -0.1)">
       <use xlink:href="#DejaVuSans-51"/>
       <use x="63.623047" xlink:href="#DejaVuSans-50"/>
       <use x="127.246094" xlink:href="#DejaVuSans-46"/>
       <use x="159.033203" xlink:href="#DejaVuSans-53"/>
      </g>
     </g>
    </g>
    <g id="ytick_6">
     <g id="line2d_23">
      <path clip-path="url(#p6281fef1fb)" d="M 57.6 128.708158 
L 414.72 128.708158 
" style="fill:none;stroke:#b0b0b0;stroke-linecap:square;stroke-width:0.8;"/>
     </g>
     <g id="line2d_24">
      <g>
       <use style="stroke:#000000;stroke-width:0.8;" x="57.6" xlink:href="#mba7fffc9b6" y="128.708158"/>
      </g>
     </g>
     <g id="text_13">
      <!-- 35.0 -->
      <g transform="translate(28.334375 132.507377)scale(0.1 -0.1)">
       <use xlink:href="#DejaVuSans-51"/>
       <use x="63.623047" xlink:href="#DejaVuSans-53"/>
       <use x="127.246094" xlink:href="#DejaVuSans-46"/>
       <use x="159.033203" xlink:href="#DejaVuSans-48"/>
      </g>
     </g>
    </g>
    <g id="ytick_7">
     <g id="line2d_25">
      <path clip-path="url(#p6281fef1fb)" d="M 57.6 97.399759 
L 414.72 97.399759 
" style="fill:none;stroke:#b0b0b0;stroke-linecap:square;stroke-width:0.8;"/>
     </g>
     <g id="line2d_26">
      <g>
       <use style="stroke:#000000;stroke-width:0.8;" x="57.6" xlink:href="#mba7fffc9b6" y="97.399759"/>
      </g>
     </g>
     <g id="text_14">
      <!-- 37.5 -->
      <g transform="translate(28.334375 101.198978)scale(0.1 -0.1)">
       <use xlink:href="#DejaVuSans-51"/>
       <use x="63.623047" xlink:href="#DejaVuSans-55"/>
       <use x="127.246094" xlink:href="#DejaVuSans-46"/>
       <use x="159.033203" xlink:href="#DejaVuSans-53"/>
      </g>
     </g>
    </g>
    <g id="ytick_8">
     <g id="line2d_27">
      <path clip-path="url(#p6281fef1fb)" d="M 57.6 66.09136 
L 414.72 66.09136 
" style="fill:none;stroke:#b0b0b0;stroke-linecap:square;stroke-width:0.8;"/>
     </g>
     <g id="line2d_28">
      <g>
       <use style="stroke:#000000;stroke-width:0.8;" x="57.6" xlink:href="#mba7fffc9b6" y="66.09136"/>
      </g>
     </g>
     <g id="text_15">
      <!-- 40.0 -->
      <g transform="translate(28.334375 69.890578)scale(0.1 -0.1)">
       <use xlink:href="#DejaVuSans-52"/>
       <use x="63.623047" xlink:href="#DejaVuSans-48"/>
       <use x="127.246094" xlink:href="#DejaVuSans-46"/>
       <use x="159.033203" xlink:href="#DejaVuSans-48"/>
      </g>
     </g>
    </g>
    <g id="text_16">
     <!-- Fitness -->
     <defs>
      <path d="M 9.8125 72.90625 
L 51.703125 72.90625 
L 51.703125 64.59375 
L 19.671875 64.59375 
L 19.671875 43.109375 
L 48.578125 43.109375 
L 48.578125 34.8125 
L 19.671875 34.8125 
L 19.671875 0 
L 9.8125 0 
z
" id="DejaVuSans-70"/>
     </defs>
     <g transform="translate(22.254687 192.202219)rotate(-90)scale(0.1 -0.1)">
      <use xlink:href="#DejaVuSans-70"/>
      <use x="57.410156" xlink:href="#DejaVuSans-105"/>
      <use x="85.193359" xlink:href="#DejaVuSans-116"/>
      <use x="124.402344" xlink:href="#DejaVuSans-110"/>
      <use x="187.78125" xlink:href="#DejaVuSans-101"/>
      <use x="249.304688" xlink:href="#DejaVuSans-115"/>
      <use x="301.404297" xlink:href="#DejaVuSans-115"/>
     </g>
    </g>
   </g>
   <g id="line2d_29">
    <path clip-path="url(#p6281fef1fb)" d="M 73.832727 295.488 
L 74.483338 292.448743 
L 75.133948 286.983436 
L 75.784558 293.879434 
L 76.435169 289.536138 
L 77.085779 290.709054 
L 77.736389 290.074203 
L 78.386999 287.584755 
L 79.03761 289.445171 
L 79.68822 289.523012 
L 80.33883 293.033659 
L 81.640051 287.430838 
L 82.290661 290.668615 
L 82.941272 290.852709 
L 83.591882 288.56516 
L 84.242492 293.771688 
L 84.893103 291.416959 
L 85.543713 291.323039 
L 86.194323 292.528959 
L 86.844934 291.54322 
L 88.146154 285.982038 
L 88.796764 289.216977 
L 89.447375 289.926188 
L 90.748595 283.536599 
L 91.399206 287.997625 
L 92.049816 289.092176 
L 93.351037 290.155399 
L 94.001647 290.823049 
L 94.652257 288.389042 
L 95.302868 287.860521 
L 95.953478 288.493383 
L 96.604088 288.420826 
L 97.254698 286.93781 
L 97.905309 285.762897 
L 98.555919 286.541221 
L 99.206529 285.137475 
L 99.85714 285.710571 
L 100.50775 284.333431 
L 101.15836 290.319132 
L 101.808971 285.799424 
L 102.459581 282.813342 
L 103.110191 286.048211 
L 103.760802 282.677285 
L 104.411412 288.812563 
L 105.062022 287.627417 
L 105.712633 289.789871 
L 106.363243 285.327842 
L 107.664463 287.028161 
L 108.315074 286.166876 
L 108.965684 281.316938 
L 109.616294 280.272118 
L 110.266905 287.233279 
L 110.917515 282.849058 
L 111.568125 291.543142 
L 112.218736 279.829595 
L 112.869346 288.530081 
L 113.519956 283.267028 
L 114.821177 279.019782 
L 115.471787 276.546419 
L 116.122398 279.269547 
L 116.773008 286.552708 
L 117.423618 280.78202 
L 118.074228 278.705282 
L 118.724839 284.216976 
L 119.375449 282.158547 
L 120.026059 279.332866 
L 120.67667 283.204567 
L 121.32728 283.590808 
L 121.97789 280.019074 
L 122.628501 279.113395 
L 123.279111 282.369781 
L 123.929721 274.834841 
L 124.580332 271.474458 
L 125.230942 272.60156 
L 125.881552 276.108101 
L 126.532163 274.480064 
L 127.182773 273.97913 
L 127.833383 269.09502 
L 128.483993 275.607167 
L 129.134604 269.502029 
L 129.785214 271.474458 
L 130.435824 276.358568 
L 131.086435 278.393614 
L 131.737045 273.19642 
L 132.387655 273.352962 
L 133.038266 273.039878 
L 133.688876 274.323522 
L 134.339486 274.605298 
L 134.990097 273.634737 
L 135.640707 269.564646 
L 136.291317 268.50016 
L 136.941927 270.723056 
L 137.592538 275.043615 
L 138.243148 269.627262 
L 138.893758 274.354831 
L 139.544369 273.290345 
L 140.194979 276.233335 
L 140.845589 268.437543 
L 141.4962 268.531468 
L 142.79742 273.259037 
L 143.448031 269.439412 
L 144.098641 266.465114 
L 144.749251 270.754365 
L 145.399862 265.150161 
L 146.050472 276.640344 
L 146.701082 270.84829 
L 147.351692 269.564646 
L 148.002303 267.279132 
L 148.652913 272.60156 
L 149.303523 268.50016 
L 149.954134 269.502029 
L 150.604744 271.004832 
L 151.255354 273.071186 
L 151.905965 271.098757 
L 152.556575 268.625394 
L 153.207185 269.001094 
L 153.857796 262.488947 
L 155.159016 272.695485 
L 155.809627 267.873992 
L 156.460237 273.165111 
L 157.110847 269.909038 
L 157.761457 264.617918 
L 158.412068 270.06558 
L 159.062678 267.435674 
L 159.713288 269.502029 
L 160.363899 267.71745 
L 161.014509 269.87773 
L 162.31573 272.476327 
L 162.96634 270.472589 
L 163.61695 267.12259 
L 164.267561 265.870254 
L 164.918171 262.708106 
L 165.568781 266.715581 
L 166.219392 265.995488 
L 166.870002 266.872123 
L 167.520612 261.706237 
L 168.171222 265.36932 
L 168.821833 270.034272 
L 169.472443 269.721188 
L 170.773664 265.18147 
L 171.424274 272.914644 
L 172.074884 270.785673 
L 172.725495 270.347356 
L 173.376105 269.689879 
L 174.026715 277.329129 
L 174.677326 274.041747 
L 175.327936 272.695485 
L 175.978546 270.723056 
L 176.629156 272.570252 
L 177.279767 266.903432 
L 177.930377 273.478195 
L 179.231598 264.711844 
L 179.882208 266.872123 
L 180.532818 267.9053 
L 181.183429 268.093151 
L 181.834039 271.537075 
L 182.484649 267.12259 
L 183.13526 270.159505 
L 183.78587 274.260905 
L 184.43648 269.376795 
L 185.087091 267.279132 
L 185.737701 268.437543 
L 186.388311 267.247824 
L 187.038921 264.962311 
L 187.689532 271.631 
L 188.340142 271.443149 
L 188.990752 269.345487 
L 189.641363 268.124459 
L 190.291973 272.476327 
L 190.942583 273.102495 
L 191.593194 269.28287 
L 192.243804 270.159505 
L 192.894414 269.87773 
L 193.545025 273.885205 
L 194.195635 269.188945 
L 194.846245 271.161374 
L 195.496856 271.255299 
L 196.147466 268.374926 
L 196.798076 269.689879 
L 197.448686 267.967917 
L 198.099297 265.18147 
L 198.749907 270.347356 
L 199.400517 269.408104 
L 200.051128 270.566514 
L 200.701738 262.081938 
L 201.352348 263.678666 
L 202.002959 265.588479 
L 202.653569 264.179601 
L 203.304179 261.017453 
L 203.95479 267.059974 
L 204.6054 270.942215 
L 205.25601 263.61605 
L 205.906621 270.879598 
L 206.557231 271.787542 
L 207.207841 265.056236 
L 208.509062 270.159505 
L 209.159672 265.056236 
L 209.810282 264.77446 
L 210.460893 268.531468 
L 211.111503 263.365583 
L 211.762113 262.269789 
L 212.412724 274.292214 
L 213.063334 270.629131 
L 213.713944 271.81885 
L 214.364555 271.317916 
L 215.015165 275.325391 
L 216.316385 268.594085 
L 216.966996 270.503898 
L 218.268216 264.39876 
L 218.918827 265.901563 
L 219.569437 274.292214 
L 220.220047 265.36932 
L 220.870658 270.84829 
L 221.521268 271.161374 
L 222.171878 270.441281 
L 222.822489 261.299228 
L 223.473099 266.120722 
L 224.123709 262.05063 
L 224.77432 266.371189 
L 225.42493 267.341749 
L 226.07554 261.956705 
L 226.72615 270.660439 
L 227.376761 273.822588 
L 228.027371 265.870254 
L 228.677981 266.120722 
L 229.328592 263.365583 
L 229.979202 257.980538 
L 230.629812 260.359976 
L 231.280423 268.187076 
L 231.931033 263.302966 
L 232.581643 268.030534 
L 233.232254 258.951098 
L 233.882864 272.006701 
L 234.533474 269.909038 
L 235.184085 268.562777 
L 235.834695 273.728663 
L 236.485305 266.621656 
L 237.786526 264.868386 
L 238.437136 271.474458 
L 239.087746 274.16698 
L 239.738357 269.940346 
L 240.388967 271.944084 
L 241.039577 261.111378 
L 241.690188 267.341749 
L 242.340798 269.595954 
L 242.991408 271.286607 
L 243.642019 269.815113 
L 244.292629 267.592216 
L 244.943239 267.059974 
L 245.59385 270.034272 
L 246.24446 269.439412 
L 246.89507 269.502029 
L 247.54568 268.750627 
L 248.196291 271.662308 
L 248.846901 267.873992 
L 249.497511 272.914644 
L 250.148122 269.251562 
L 250.798732 269.032403 
L 251.449342 272.069317 
L 252.099953 269.345487 
L 252.750563 267.936609 
L 253.401173 268.061842 
L 254.051784 268.750627 
L 254.702394 269.188945 
L 255.353004 272.319785 
L 256.003615 273.071186 
L 256.654225 274.511373 
L 257.304835 272.507635 
L 257.955445 275.7324 
L 258.606056 270.06558 
L 259.256666 261.894088 
L 259.907276 272.883336 
L 260.557887 268.781936 
L 261.208497 262.927265 
L 261.859107 269.689879 
L 262.509718 267.404366 
L 263.160328 263.709975 
L 263.810938 269.376795 
L 264.461549 262.614181 
L 265.112159 269.063711 
L 265.762769 262.269789 
L 266.413379 265.807638 
L 267.06399 272.977261 
L 267.7146 268.969786 
L 268.36521 273.133803 
L 269.015821 264.868386 
L 269.666431 269.502029 
L 270.317041 265.306703 
L 270.967652 271.474458 
L 271.618262 270.190814 
L 272.268872 266.997357 
L 272.919483 269.721188 
L 273.570093 269.815113 
L 274.220703 269.220253 
L 274.871314 267.341749 
L 275.521924 269.627262 
L 276.172534 267.185207 
L 276.823144 266.74689 
L 277.473755 267.9053 
L 278.124365 266.903432 
L 278.774975 265.55717 
L 279.425586 268.468852 
L 280.076196 270.316047 
L 280.726806 266.997357 
L 281.377417 271.130065 
L 282.678637 268.030534 
L 283.329248 272.852027 
L 283.979858 268.844552 
L 284.630468 266.872123 
L 285.281079 274.073055 
L 285.931689 273.259037 
L 286.582299 269.721188 
L 287.232909 267.435674 
L 287.88352 269.09502 
L 288.53413 272.319785 
L 289.18474 274.104363 
L 289.835351 268.437543 
L 290.485961 271.380533 
L 291.136571 272.726794 
L 291.787182 267.873992 
L 292.437792 270.347356 
L 293.088402 271.537075 
L 293.739013 265.118853 
L 294.389623 267.654833 
L 295.040233 266.590348 
L 295.690844 265.244086 
L 296.341454 264.523993 
L 296.992064 266.903432 
L 297.642674 271.662308 
L 298.293285 271.067449 
L 298.943895 265.838946 
L 299.594505 269.376795 
L 300.245116 270.503898 
L 300.895726 267.404366 
L 301.546336 269.909038 
L 302.196947 269.752496 
L 302.847557 268.656702 
L 303.498167 269.87773 
L 304.148778 268.218384 
L 304.799388 269.783804 
L 305.449998 270.84829 
L 306.100608 267.12259 
L 306.751219 268.781936 
L 307.401829 268.155768 
L 308.052439 270.942215 
L 308.70305 267.404366 
L 309.35366 273.822588 
L 310.00427 269.09502 
L 310.654881 267.341749 
L 311.305491 271.505766 
L 311.956101 264.210909 
L 312.606712 272.507635 
L 313.257322 270.691748 
L 313.907932 269.783804 
L 314.558543 278.894548 
L 315.209153 267.654833 
L 315.859763 265.932871 
L 316.510373 265.682404 
L 317.160984 267.216516 
L 317.811594 270.84829 
L 318.462204 266.058105 
L 319.112815 267.279132 
L 319.763425 268.218384 
L 320.414035 263.772592 
L 321.064646 264.242218 
L 321.715256 267.404366 
L 322.365866 263.240349 
L 323.016477 272.006701 
L 323.667087 269.846421 
L 324.317697 268.781936 
L 324.968308 268.938478 
L 325.618918 268.437543 
L 326.269528 264.054367 
L 326.920138 270.128197 
L 327.570749 271.004832 
L 328.221359 270.190814 
L 328.871969 263.553433 
L 329.52258 266.496422 
L 330.17319 271.067449 
L 330.8238 271.756233 
L 332.125021 262.363714 
L 332.775631 269.063711 
L 333.426242 271.067449 
L 334.076852 267.780067 
L 334.727462 267.811375 
L 335.378073 268.844552 
L 336.028683 267.216516 
L 336.679293 267.247824 
L 337.329903 268.030534 
L 337.980514 266.621656 
L 338.631124 270.002963 
L 339.281734 265.619787 
L 339.932345 268.468852 
L 340.582955 269.126328 
L 341.233565 268.656702 
L 341.884176 269.502029 
L 342.534786 268.719319 
L 343.185396 273.259037 
L 343.836007 265.870254 
L 345.137227 266.465114 
L 345.787837 270.159505 
L 346.438448 267.71745 
L 347.089058 267.247824 
L 347.739668 263.61605 
L 348.390279 260.798294 
L 349.040889 266.74689 
L 349.691499 268.719319 
L 350.34211 269.126328 
L 350.99272 270.879598 
L 351.64333 268.124459 
L 352.293941 260.954836 
L 352.944551 267.686142 
L 353.595161 265.745021 
L 354.245772 265.056236 
L 354.896382 270.472589 
L 355.546992 266.559039 
L 356.197602 265.212778 
L 356.848213 265.494554 
L 357.498823 270.472589 
L 358.149433 263.897825 
L 358.800044 267.560908 
L 359.450654 267.404366 
L 360.101264 270.441281 
L 360.751875 271.724925 
L 361.402485 272.758102 
L 362.053095 263.741283 
L 362.703706 266.652964 
L 363.354316 272.100626 
L 364.004926 269.063711 
L 364.655537 270.06558 
L 365.306147 266.527731 
L 365.956757 270.409972 
L 366.607367 270.096888 
L 367.257978 278.612773 
L 367.908588 269.28287 
L 368.559198 269.721188 
L 369.209809 269.940346 
L 369.860419 270.347356 
L 370.511029 271.756233 
L 371.16164 271.81885 
L 371.81225 268.813244 
L 372.46286 267.153899 
L 373.113471 269.627262 
L 373.764081 272.789411 
L 374.414691 272.695485 
L 375.065302 268.468852 
L 375.715912 266.621656 
L 376.366522 272.852027 
L 377.017132 270.159505 
L 377.667743 264.336143 
L 378.318353 272.60156 
L 378.968963 267.780067 
L 379.619574 268.625394 
L 380.270184 267.873992 
L 380.920794 269.001094 
L 381.571405 266.058105 
L 382.222015 265.807638 
L 382.872625 270.378664 
L 383.523236 270.159505 
L 384.173846 267.12259 
L 384.824456 270.879598 
L 385.475066 263.678666 
L 386.125677 264.430068 
L 386.776287 265.651096 
L 387.426897 268.030534 
L 388.077508 264.77446 
L 388.728118 270.222122 
L 389.378728 265.55717 
L 390.029339 266.840815 
L 390.679949 269.595954 
L 391.330559 260.203434 
L 391.98117 270.25343 
L 392.63178 262.301097 
L 393.28239 269.439412 
L 393.933001 272.507635 
L 394.583611 268.155768 
L 395.234221 265.36932 
L 395.884831 266.15203 
L 396.535442 272.382401 
L 397.186052 269.439412 
L 397.836662 265.588479 
L 398.487273 267.654833 
L 398.487273 267.654833 
" style="fill:none;stroke:#0000ff;stroke-linecap:square;stroke-width:1.5;"/>
   </g>
   <g id="line2d_30">
    <path clip-path="url(#p6281fef1fb)" d="M 73.832727 250.192731 
L 74.483338 245.043951 
L 75.133948 241.814369 
L 75.784558 248.987372 
L 76.435169 242.076273 
L 77.085779 246.694654 
L 77.736389 242.808722 
L 78.386999 241.287096 
L 79.03761 242.711105 
L 79.68822 243.622145 
L 80.33883 247.568224 
L 80.989441 244.272163 
L 81.640051 242.275879 
L 82.290661 244.452653 
L 82.941272 245.530118 
L 83.591882 243.139855 
L 84.242492 248.227993 
L 84.893103 244.512471 
L 85.543713 247.149147 
L 86.194323 246.991726 
L 86.844934 244.205228 
L 87.495544 245.493148 
L 88.146154 241.850719 
L 89.447375 244.522877 
L 90.097985 239.090369 
L 90.748595 238.867816 
L 91.399206 243.797136 
L 93.351037 244.035118 
L 94.001647 243.702961 
L 94.652257 244.651379 
L 95.302868 244.253486 
L 95.953478 244.781776 
L 96.604088 239.532647 
L 97.254698 240.716148 
L 97.905309 238.854662 
L 98.555919 239.24146 
L 99.206529 237.101544 
L 99.85714 240.034512 
L 100.50775 233.48974 
L 101.15836 240.681381 
L 101.808971 241.056898 
L 102.459581 235.880558 
L 103.110191 236.555602 
L 103.760802 236.951492 
L 104.411412 239.816086 
L 105.062022 241.869243 
L 105.712633 244.456704 
L 106.363243 236.922525 
L 107.013853 241.499476 
L 107.664463 239.330128 
L 108.315074 239.46436 
L 108.965684 230.994945 
L 110.266905 239.456865 
L 110.917515 236.255575 
L 111.568125 244.148399 
L 112.218736 232.141299 
L 112.869346 242.859807 
L 113.519956 235.123644 
L 114.170567 232.246198 
L 114.821177 231.674702 
L 115.471787 229.309981 
L 116.122398 232.877829 
L 116.773008 243.987165 
L 117.423618 233.194426 
L 118.074228 230.845372 
L 118.724839 236.261839 
L 120.026059 227.999702 
L 120.67667 234.186249 
L 121.32728 235.319074 
L 121.97789 228.122207 
L 122.628501 230.197277 
L 123.279111 233.30905 
L 123.929721 225.548621 
L 124.580332 219.854512 
L 125.230942 220.332622 
L 125.881552 225.311866 
L 126.532163 226.130488 
L 127.182773 225.931191 
L 127.833383 218.992346 
L 128.483993 219.913968 
L 129.134604 216.364462 
L 129.785214 221.294995 
L 130.435824 229.198682 
L 131.086435 229.025133 
L 131.737045 223.254126 
L 132.387655 222.148652 
L 133.038266 220.271524 
L 133.688876 221.318865 
L 134.339486 224.68828 
L 134.990097 221.878639 
L 135.640707 220.297927 
L 136.291317 217.960849 
L 136.941927 218.567511 
L 137.592538 220.246547 
L 138.243148 219.653339 
L 138.893758 221.640411 
L 140.194979 219.862077 
L 140.845589 216.472853 
L 141.4962 218.77924 
L 142.14681 218.756888 
L 142.79742 215.518072 
L 144.098641 212.280776 
L 144.749251 218.921884 
L 145.399862 211.468937 
L 146.050472 225.574291 
L 146.701082 216.206388 
L 147.351692 216.452837 
L 148.002303 215.855871 
L 148.652913 221.393575 
L 149.303523 216.552978 
L 149.954134 217.884068 
L 150.604744 216.415202 
L 151.255354 220.459296 
L 151.905965 220.316418 
L 152.556575 215.121556 
L 153.207185 217.12884 
L 153.857796 210.676895 
L 155.159016 218.612557 
L 155.809627 216.368345 
L 156.460237 219.549956 
L 157.110847 220.94066 
L 157.761457 208.025712 
L 158.412068 215.722505 
L 159.062678 218.264152 
L 160.363899 216.486346 
L 161.014509 217.059068 
L 161.665119 218.113133 
L 162.31573 219.677926 
L 162.96634 217.573289 
L 163.61695 217.540929 
L 164.267561 214.70004 
L 164.918171 208.813991 
L 165.568781 210.270644 
L 166.219392 212.567405 
L 167.520612 206.63107 
L 168.171222 212.958134 
L 168.821833 217.692059 
L 169.472443 217.141865 
L 170.123053 213.373929 
L 170.773664 210.404126 
L 171.424274 220.548466 
L 172.074884 217.881371 
L 172.725495 216.937172 
L 173.376105 215.467646 
L 174.026715 224.145465 
L 174.677326 220.558093 
L 175.327936 218.976266 
L 175.978546 218.394891 
L 176.629156 218.92429 
L 177.279767 216.391 
L 177.930377 219.378731 
L 179.231598 215.25583 
L 179.882208 215.447842 
L 180.532818 217.388211 
L 181.183429 216.233587 
L 181.834039 221.106678 
L 182.484649 214.220113 
L 183.13526 219.284792 
L 183.78587 221.047687 
L 184.43648 218.733091 
L 185.087091 214.941414 
L 185.737701 216.344742 
L 186.388311 211.644116 
L 187.038921 209.83022 
L 187.689532 219.697028 
L 188.340142 218.808534 
L 188.990752 218.372028 
L 189.641363 211.098541 
L 190.291973 219.190057 
L 190.942583 217.034615 
L 191.593194 214.095655 
L 192.243804 213.730721 
L 192.894414 216.556676 
L 193.545025 223.089983 
L 194.195635 215.425659 
L 194.846245 220.161347 
L 195.496856 216.608096 
L 196.147466 216.468292 
L 196.798076 219.407079 
L 197.448686 214.350092 
L 198.099297 210.304008 
L 198.749907 214.293743 
L 199.400517 215.499768 
L 200.051128 214.378282 
L 200.701738 210.185492 
L 201.352348 211.91007 
L 202.002959 210.457099 
L 202.653569 207.846481 
L 203.304179 203.811909 
L 203.95479 214.193825 
L 204.6054 217.663166 
L 205.25601 210.756576 
L 205.906621 219.057634 
L 206.557231 220.214141 
L 207.207841 211.57864 
L 207.858451 217.487097 
L 208.509062 215.790273 
L 209.159672 210.966276 
L 209.810282 215.914456 
L 210.460893 215.144965 
L 211.111503 211.857804 
L 211.762113 209.251772 
L 212.412724 224.082482 
L 213.063334 217.74563 
L 213.713944 222.938036 
L 214.364555 217.050651 
L 215.015165 220.383735 
L 215.665775 219.941302 
L 216.316385 213.468395 
L 216.966996 214.985013 
L 217.617606 218.756558 
L 218.268216 211.707143 
L 218.918827 212.94985 
L 219.569437 223.910978 
L 220.220047 211.555519 
L 220.870658 214.385434 
L 221.521268 219.383112 
L 222.171878 217.041678 
L 222.822489 205.965895 
L 223.473099 212.611022 
L 224.123709 210.577879 
L 224.77432 212.183314 
L 225.42493 214.713681 
L 226.07554 211.30223 
L 226.72615 219.486346 
L 227.376761 222.054976 
L 228.027371 214.120975 
L 228.677981 212.567076 
L 229.328592 208.51778 
L 229.979202 203.380279 
L 230.629812 205.364253 
L 231.280423 213.000971 
L 231.931033 210.647125 
L 232.581643 219.102207 
L 233.232254 206.382814 
L 233.882864 217.158254 
L 234.533474 219.403437 
L 235.184085 215.831485 
L 235.834695 220.591234 
L 236.485305 212.571579 
L 237.135915 212.134561 
L 237.786526 212.649965 
L 238.437136 216.951081 
L 239.087746 220.110475 
L 239.738357 216.9331 
L 240.388967 218.83988 
L 241.039577 208.342476 
L 241.690188 211.405494 
L 242.340798 216.97176 
L 242.991408 219.278051 
L 244.292629 214.324639 
L 244.943239 214.075292 
L 245.59385 213.952862 
L 246.24446 212.839792 
L 246.89507 217.400196 
L 247.54568 214.422922 
L 248.196291 219.825923 
L 248.846901 214.293849 
L 249.497511 217.961812 
L 250.148122 216.828183 
L 250.798732 217.400344 
L 251.449342 216.446362 
L 252.099953 216.669759 
L 252.750563 218.761578 
L 253.401173 216.016405 
L 254.051784 211.362485 
L 254.702394 219.016993 
L 255.353004 221.074993 
L 256.003615 219.011099 
L 256.654225 222.800824 
L 257.304835 217.199321 
L 257.955445 222.390532 
L 258.606056 218.872996 
L 259.256666 208.634056 
L 259.907276 218.735417 
L 260.557887 216.324491 
L 261.208497 209.204105 
L 261.859107 214.635228 
L 262.509718 211.898362 
L 263.160328 210.849231 
L 263.810938 215.63065 
L 264.461549 209.117379 
L 265.112159 214.67794 
L 265.762769 209.563291 
L 267.06399 218.024679 
L 267.7146 212.851718 
L 268.36521 217.395786 
L 269.015821 213.819381 
L 269.666431 217.861285 
L 270.317041 210.084589 
L 270.967652 219.664969 
L 271.618262 216.824557 
L 272.268872 217.201144 
L 272.919483 214.871732 
L 273.570093 218.467897 
L 274.220703 214.393391 
L 274.871314 215.592687 
L 275.521924 215.997528 
L 276.172534 213.532887 
L 276.823144 214.904123 
L 277.473755 213.805293 
L 278.124365 210.738188 
L 278.774975 209.934215 
L 279.425586 213.295812 
L 280.076196 215.458666 
L 280.726806 211.228749 
L 281.377417 219.832049 
L 282.028027 219.667027 
L 282.678637 213.890535 
L 283.329248 219.374349 
L 283.979858 216.494662 
L 284.630468 211.018159 
L 285.281079 219.065071 
L 285.931689 219.484084 
L 287.232909 213.553938 
L 288.53413 219.544642 
L 289.18474 223.07586 
L 289.835351 216.767955 
L 290.485961 220.520513 
L 291.136571 217.866473 
L 291.787182 213.842053 
L 292.437792 216.389403 
L 293.088402 214.909917 
L 293.739013 211.727695 
L 294.389623 212.71456 
L 295.040233 212.820198 
L 295.690844 210.479628 
L 296.341454 209.633699 
L 296.992064 213.544844 
L 297.642674 220.80332 
L 298.293285 219.672149 
L 298.943895 213.716338 
L 299.594505 218.393579 
L 300.245116 219.559071 
L 301.546336 214.247846 
L 302.196947 213.475921 
L 302.847557 214.516703 
L 303.498167 219.118336 
L 304.148778 215.011936 
L 305.449998 219.728279 
L 306.100608 211.242939 
L 306.751219 211.748 
L 307.401829 214.660679 
L 308.052439 220.041738 
L 308.70305 212.323824 
L 309.35366 221.116732 
L 310.00427 216.176008 
L 310.654881 213.636975 
L 311.305491 216.637594 
L 311.956101 211.060201 
L 312.606712 218.796153 
L 313.257322 221.001314 
L 313.907932 215.911847 
L 314.558543 226.98308 
L 315.209153 213.788407 
L 315.859763 213.192286 
L 316.510373 215.818679 
L 317.160984 213.729307 
L 317.811594 215.232023 
L 318.462204 214.352485 
L 319.112815 214.90397 
L 320.414035 207.887283 
L 321.064646 209.316193 
L 321.715256 212.502073 
L 322.365866 211.202521 
L 323.016477 218.124673 
L 323.667087 213.120855 
L 324.317697 212.134286 
L 324.968308 215.779075 
L 325.618918 216.374857 
L 326.269528 209.768176 
L 326.920138 219.062758 
L 327.570749 216.978336 
L 328.221359 212.367336 
L 328.871969 206.515828 
L 329.52258 212.57686 
L 330.17319 216.74227 
L 330.8238 215.975956 
L 331.474411 213.76855 
L 332.125021 208.374751 
L 332.775631 213.55761 
L 333.426242 215.184008 
L 334.727462 212.22551 
L 335.378073 217.33273 
L 336.028683 213.385877 
L 336.679293 216.650361 
L 337.329903 212.109316 
L 337.980514 212.673232 
L 338.631124 216.228739 
L 339.281734 215.639274 
L 339.932345 213.423878 
L 340.582955 218.888541 
L 341.233565 215.525509 
L 341.884176 216.995398 
L 342.534786 215.723751 
L 343.185396 220.596569 
L 343.836007 211.332146 
L 344.486617 211.250762 
L 345.137227 215.710732 
L 345.787837 216.101259 
L 346.438448 219.190441 
L 347.089058 212.928203 
L 348.390279 206.465465 
L 349.040889 210.591115 
L 349.691499 215.620274 
L 350.34211 213.482089 
L 350.99272 216.107623 
L 351.64333 216.816966 
L 352.293941 205.651192 
L 352.944551 212.893053 
L 353.595161 210.119317 
L 354.245772 213.833026 
L 354.896382 216.837217 
L 355.546992 210.724734 
L 356.197602 210.145585 
L 356.848213 212.308605 
L 357.498823 218.372403 
L 358.149433 210.731812 
L 359.450654 214.376588 
L 360.101264 220.904002 
L 360.751875 220.526588 
L 361.402485 220.99405 
L 362.053095 209.665315 
L 362.703706 212.563104 
L 363.354316 217.681621 
L 364.004926 215.79239 
L 364.655537 217.051899 
L 365.306147 217.558392 
L 365.956757 217.617252 
L 366.607367 215.947439 
L 367.257978 224.902158 
L 367.908588 214.545079 
L 368.559198 214.090964 
L 369.209809 215.892953 
L 369.860419 215.940744 
L 370.511029 220.941641 
L 371.16164 219.131745 
L 371.81225 216.137153 
L 372.46286 214.567754 
L 373.764081 221.489512 
L 374.414691 215.48416 
L 375.065302 213.637985 
L 375.715912 214.793488 
L 376.366522 219.823473 
L 377.017132 217.008244 
L 377.667743 210.513226 
L 378.318353 220.731715 
L 378.968963 213.83654 
L 379.619574 213.911433 
L 380.270184 212.522947 
L 380.920794 215.748839 
L 381.571405 212.453673 
L 382.222015 210.648324 
L 382.872625 219.385604 
L 383.523236 216.304727 
L 384.173846 215.624709 
L 384.824456 221.142395 
L 385.475066 212.381796 
L 386.125677 211.681455 
L 386.776287 209.587866 
L 387.426897 213.414649 
L 388.077508 212.375348 
L 388.728118 216.393523 
L 389.378728 209.059961 
L 390.029339 211.974634 
L 390.679949 217.233183 
L 391.330559 206.968107 
L 391.98117 217.401004 
L 392.63178 210.853185 
L 393.28239 216.13623 
L 394.583611 211.382287 
L 395.234221 214.754424 
L 395.884831 213.951436 
L 396.535442 216.848335 
L 397.186052 215.376642 
L 397.836662 212.441459 
L 398.487273 215.579675 
L 398.487273 215.579675 
" style="fill:none;stroke:#008000;stroke-dasharray:9.6,2.4,1.5,2.4;stroke-dashoffset:0;stroke-width:1.5;"/>
   </g>
   <g id="line2d_31">
    <path clip-path="url(#p6281fef1fb)" d="M 73.832727 178.801596 
L 74.483338 141.231518 
L 75.133948 153.754877 
L 75.784558 141.231518 
L 77.736389 178.801596 
L 78.386999 141.231518 
L 79.03761 166.278237 
L 79.68822 153.754877 
L 80.33883 166.278237 
L 80.989441 141.231518 
L 81.640051 141.231518 
L 82.290661 128.708158 
L 82.941272 103.661439 
L 83.591882 141.231518 
L 84.242492 153.754877 
L 84.893103 141.231518 
L 85.543713 166.278237 
L 86.194323 128.708158 
L 86.844934 153.754877 
L 87.495544 166.278237 
L 88.146154 141.231518 
L 89.447375 141.231518 
L 90.097985 153.754877 
L 90.748595 153.754877 
L 91.399206 141.231518 
L 92.049816 166.278237 
L 92.700426 141.231518 
L 93.351037 141.231518 
L 94.001647 116.184798 
L 94.652257 153.754877 
L 95.953478 153.754877 
L 96.604088 141.231518 
L 97.254698 153.754877 
L 97.905309 153.754877 
L 98.555919 128.708158 
L 99.206529 153.754877 
L 99.85714 166.278237 
L 100.50775 141.231518 
L 101.15836 166.278237 
L 101.808971 178.801596 
L 102.459581 166.278237 
L 103.110191 116.184798 
L 103.760802 153.754877 
L 104.411412 128.708158 
L 105.062022 166.278237 
L 106.363243 91.138079 
L 107.013853 166.278237 
L 107.664463 141.231518 
L 108.315074 153.754877 
L 108.965684 128.708158 
L 109.616294 141.231518 
L 110.266905 116.184798 
L 110.917515 141.231518 
L 111.568125 153.754877 
L 112.218736 153.754877 
L 112.869346 128.708158 
L 113.519956 141.231518 
L 114.170567 141.231518 
L 114.821177 153.754877 
L 115.471787 153.754877 
L 116.122398 141.231518 
L 116.773008 166.278237 
L 117.423618 141.231518 
L 118.074228 153.754877 
L 118.724839 128.708158 
L 119.375449 153.754877 
L 120.026059 141.231518 
L 121.32728 141.231518 
L 121.97789 116.184798 
L 122.628501 116.184798 
L 123.279111 141.231518 
L 124.580332 91.138079 
L 125.230942 116.184798 
L 125.881552 91.138079 
L 126.532163 141.231518 
L 127.182773 141.231518 
L 127.833383 103.661439 
L 128.483993 78.614719 
L 129.134604 116.184798 
L 129.785214 103.661439 
L 130.435824 141.231518 
L 131.086435 141.231518 
L 131.737045 103.661439 
L 132.387655 116.184798 
L 134.990097 116.184798 
L 135.640707 128.708158 
L 136.291317 128.708158 
L 136.941927 116.184798 
L 137.592538 116.184798 
L 138.243148 103.661439 
L 138.893758 141.231518 
L 140.845589 103.661439 
L 141.4962 103.661439 
L 142.14681 128.708158 
L 142.79742 128.708158 
L 143.448031 116.184798 
L 144.098641 116.184798 
L 144.749251 103.661439 
L 145.399862 103.661439 
L 146.050472 141.231518 
L 146.701082 66.09136 
L 147.351692 116.184798 
L 148.002303 116.184798 
L 148.652913 128.708158 
L 149.303523 91.138079 
L 149.954134 128.708158 
L 151.255354 78.614719 
L 151.905965 116.184798 
L 152.556575 116.184798 
L 153.207185 128.708158 
L 153.857796 78.614719 
L 154.508406 116.184798 
L 155.159016 128.708158 
L 155.809627 116.184798 
L 156.460237 141.231518 
L 157.110847 141.231518 
L 157.761457 128.708158 
L 158.412068 128.708158 
L 159.062678 91.138079 
L 159.713288 91.138079 
L 160.363899 141.231518 
L 161.014509 141.231518 
L 162.31573 116.184798 
L 162.96634 116.184798 
L 164.267561 141.231518 
L 165.568781 116.184798 
L 166.219392 128.708158 
L 166.870002 91.138079 
L 167.520612 116.184798 
L 168.171222 91.138079 
L 168.821833 128.708158 
L 169.472443 141.231518 
L 170.123053 128.708158 
L 170.773664 141.231518 
L 171.424274 78.614719 
L 172.074884 91.138079 
L 172.725495 116.184798 
L 173.376105 91.138079 
L 174.026715 128.708158 
L 174.677326 141.231518 
L 175.327936 128.708158 
L 175.978546 103.661439 
L 177.279767 128.708158 
L 177.930377 128.708158 
L 178.580987 141.231518 
L 179.231598 116.184798 
L 179.882208 128.708158 
L 180.532818 128.708158 
L 181.183429 116.184798 
L 181.834039 116.184798 
L 182.484649 91.138079 
L 183.13526 116.184798 
L 183.78587 128.708158 
L 185.087091 128.708158 
L 185.737701 116.184798 
L 187.038921 66.09136 
L 187.689532 128.708158 
L 188.340142 153.754877 
L 188.990752 116.184798 
L 190.291973 141.231518 
L 190.942583 103.661439 
L 191.593194 128.708158 
L 192.243804 128.708158 
L 192.894414 116.184798 
L 193.545025 128.708158 
L 194.195635 103.661439 
L 194.846245 116.184798 
L 195.496856 53.568 
L 196.147466 141.231518 
L 196.798076 116.184798 
L 198.099297 91.138079 
L 198.749907 116.184798 
L 199.400517 128.708158 
L 200.051128 116.184798 
L 200.701738 141.231518 
L 201.352348 103.661439 
L 202.002959 103.661439 
L 203.304179 78.614719 
L 203.95479 103.661439 
L 204.6054 153.754877 
L 205.25601 103.661439 
L 205.906621 103.661439 
L 206.557231 141.231518 
L 207.858451 116.184798 
L 208.509062 128.708158 
L 209.810282 128.708158 
L 210.460893 103.661439 
L 211.111503 116.184798 
L 211.762113 103.661439 
L 212.412724 128.708158 
L 213.063334 66.09136 
L 213.713944 103.661439 
L 214.364555 116.184798 
L 215.015165 141.231518 
L 216.316385 116.184798 
L 216.966996 116.184798 
L 217.617606 128.708158 
L 218.268216 91.138079 
L 218.918827 128.708158 
L 219.569437 128.708158 
L 220.220047 91.138079 
L 220.870658 116.184798 
L 221.521268 103.661439 
L 222.171878 116.184798 
L 222.822489 116.184798 
L 223.473099 141.231518 
L 224.123709 128.708158 
L 224.77432 103.661439 
L 225.42493 128.708158 
L 226.07554 103.661439 
L 226.72615 128.708158 
L 227.376761 141.231518 
L 228.027371 116.184798 
L 228.677981 78.614719 
L 229.328592 78.614719 
L 229.979202 116.184798 
L 230.629812 91.138079 
L 231.280423 116.184798 
L 232.581643 116.184798 
L 233.232254 103.661439 
L 233.882864 141.231518 
L 235.184085 141.231518 
L 235.834695 116.184798 
L 236.485305 116.184798 
L 237.135915 128.708158 
L 237.786526 116.184798 
L 238.437136 141.231518 
L 239.087746 78.614719 
L 239.738357 141.231518 
L 240.388967 141.231518 
L 241.039577 116.184798 
L 241.690188 103.661439 
L 242.340798 116.184798 
L 242.991408 116.184798 
L 243.642019 128.708158 
L 244.292629 116.184798 
L 244.943239 116.184798 
L 245.59385 128.708158 
L 246.24446 103.661439 
L 246.89507 128.708158 
L 247.54568 116.184798 
L 248.196291 141.231518 
L 248.846901 116.184798 
L 249.497511 116.184798 
L 250.798732 66.09136 
L 251.449342 103.661439 
L 252.099953 128.708158 
L 253.401173 103.661439 
L 254.051784 116.184798 
L 255.353004 116.184798 
L 256.003615 103.661439 
L 256.654225 128.708158 
L 257.955445 128.708158 
L 258.606056 103.661439 
L 259.256666 128.708158 
L 261.208497 91.138079 
L 261.859107 116.184798 
L 263.160328 116.184798 
L 263.810938 128.708158 
L 264.461549 128.708158 
L 265.112159 116.184798 
L 265.762769 116.184798 
L 266.413379 128.708158 
L 267.06399 128.708158 
L 267.7146 116.184798 
L 268.36521 128.708158 
L 269.015821 116.184798 
L 269.666431 116.184798 
L 270.317041 103.661439 
L 270.967652 116.184798 
L 271.618262 141.231518 
L 272.268872 128.708158 
L 272.919483 103.661439 
L 273.570093 116.184798 
L 274.220703 116.184798 
L 274.871314 128.708158 
L 275.521924 116.184798 
L 276.172534 153.754877 
L 276.823144 103.661439 
L 278.124365 128.708158 
L 278.774975 103.661439 
L 279.425586 128.708158 
L 280.076196 103.661439 
L 281.377417 128.708158 
L 282.028027 128.708158 
L 282.678637 116.184798 
L 283.329248 128.708158 
L 283.979858 103.661439 
L 284.630468 116.184798 
L 285.281079 116.184798 
L 285.931689 128.708158 
L 286.582299 116.184798 
L 287.88352 116.184798 
L 288.53413 128.708158 
L 289.18474 128.708158 
L 289.835351 153.754877 
L 290.485961 128.708158 
L 291.787182 103.661439 
L 292.437792 128.708158 
L 293.088402 91.138079 
L 293.739013 103.661439 
L 294.389623 103.661439 
L 295.040233 141.231518 
L 295.690844 103.661439 
L 296.341454 116.184798 
L 296.992064 103.661439 
L 297.642674 141.231518 
L 298.943895 116.184798 
L 299.594505 141.231518 
L 300.245116 103.661439 
L 300.895726 141.231518 
L 301.546336 91.138079 
L 302.196947 103.661439 
L 302.847557 128.708158 
L 303.498167 78.614719 
L 304.148778 128.708158 
L 304.799388 128.708158 
L 305.449998 141.231518 
L 306.751219 91.138079 
L 307.401829 128.708158 
L 308.052439 91.138079 
L 308.70305 103.661439 
L 309.35366 141.231518 
L 310.00427 128.708158 
L 310.654881 128.708158 
L 311.305491 91.138079 
L 311.956101 91.138079 
L 312.606712 128.708158 
L 313.257322 128.708158 
L 313.907932 91.138079 
L 314.558543 116.184798 
L 315.209153 128.708158 
L 315.859763 116.184798 
L 316.510373 128.708158 
L 317.160984 116.184798 
L 317.811594 116.184798 
L 318.462204 128.708158 
L 319.112815 116.184798 
L 319.763425 53.568 
L 320.414035 103.661439 
L 321.064646 78.614719 
L 321.715256 116.184798 
L 322.365866 116.184798 
L 323.016477 103.661439 
L 323.667087 128.708158 
L 324.317697 116.184798 
L 325.618918 116.184798 
L 326.269528 103.661439 
L 326.920138 116.184798 
L 327.570749 141.231518 
L 328.221359 116.184798 
L 328.871969 103.661439 
L 329.52258 128.708158 
L 330.17319 128.708158 
L 330.8238 116.184798 
L 331.474411 116.184798 
L 332.125021 66.09136 
L 332.775631 116.184798 
L 333.426242 78.614719 
L 334.076852 128.708158 
L 334.727462 116.184798 
L 335.378073 141.231518 
L 336.028683 128.708158 
L 336.679293 141.231518 
L 337.329903 103.661439 
L 337.980514 128.708158 
L 339.281734 128.708158 
L 339.932345 91.138079 
L 340.582955 91.138079 
L 341.233565 116.184798 
L 342.534786 116.184798 
L 343.185396 153.754877 
L 343.836007 91.138079 
L 344.486617 103.661439 
L 345.137227 141.231518 
L 345.787837 141.231518 
L 346.438448 103.661439 
L 347.089058 128.708158 
L 348.390279 103.661439 
L 349.040889 78.614719 
L 349.691499 91.138079 
L 350.34211 128.708158 
L 350.99272 103.661439 
L 351.64333 141.231518 
L 352.293941 103.661439 
L 352.944551 103.661439 
L 353.595161 78.614719 
L 354.245772 116.184798 
L 356.197602 116.184798 
L 356.848213 128.708158 
L 357.498823 91.138079 
L 358.149433 128.708158 
L 358.800044 116.184798 
L 359.450654 128.708158 
L 360.101264 128.708158 
L 360.751875 153.754877 
L 361.402485 116.184798 
L 362.053095 116.184798 
L 362.703706 128.708158 
L 363.354316 103.661439 
L 364.004926 103.661439 
L 364.655537 116.184798 
L 365.306147 103.661439 
L 365.956757 103.661439 
L 366.607367 128.708158 
L 367.257978 116.184798 
L 367.908588 91.138079 
L 368.559198 116.184798 
L 369.209809 103.661439 
L 369.860419 141.231518 
L 370.511029 128.708158 
L 371.16164 128.708158 
L 371.81225 78.614719 
L 372.46286 91.138079 
L 373.113471 116.184798 
L 374.414691 116.184798 
L 375.065302 103.661439 
L 375.715912 128.708158 
L 376.366522 128.708158 
L 377.667743 78.614719 
L 378.318353 91.138079 
L 378.968963 116.184798 
L 379.619574 128.708158 
L 380.270184 116.184798 
L 380.920794 116.184798 
L 381.571405 128.708158 
L 382.222015 66.09136 
L 382.872625 116.184798 
L 383.523236 141.231518 
L 384.173846 141.231518 
L 384.824456 103.661439 
L 385.475066 128.708158 
L 386.776287 128.708158 
L 387.426897 116.184798 
L 388.077508 141.231518 
L 388.728118 141.231518 
L 390.029339 116.184798 
L 390.679949 116.184798 
L 391.330559 128.708158 
L 391.98117 116.184798 
L 392.63178 128.708158 
L 393.933001 128.708158 
L 394.583611 116.184798 
L 395.234221 128.708158 
L 395.884831 103.661439 
L 397.186052 103.661439 
L 397.836662 66.09136 
L 398.487273 103.661439 
L 398.487273 103.661439 
" style="fill:none;stroke:#ff0000;stroke-linecap:square;stroke-width:1.5;"/>
   </g>
   <g id="patch_3">
    <path d="M 57.6 307.584 
L 57.6 41.472 
" style="fill:none;stroke:#000000;stroke-linecap:square;stroke-linejoin:miter;stroke-width:0.8;"/>
   </g>
   <g id="patch_4">
    <path d="M 414.72 307.584 
L 414.72 41.472 
" style="fill:none;stroke:#000000;stroke-linecap:square;stroke-linejoin:miter;stroke-width:0.8;"/>
   </g>
   <g id="patch_5">
    <path d="M 57.6 307.584 
L 414.72 307.584 
" style="fill:none;stroke:#000000;stroke-linecap:square;stroke-linejoin:miter;stroke-width:0.8;"/>
   </g>
   <g id="patch_6">
    <path d="M 57.6 41.472 
L 414.72 41.472 
" style="fill:none;stroke:#000000;stroke-linecap:square;stroke-linejoin:miter;stroke-width:0.8;"/>
   </g>
   <g id="text_17">
    <!-- Population's average and best fitness -->
    <defs>
     <path d="M 19.671875 64.796875 
L 19.671875 37.40625 
L 32.078125 37.40625 
Q 38.96875 37.40625 42.71875 40.96875 
Q 46.484375 44.53125 46.484375 51.125 
Q 46.484375 57.671875 42.71875 61.234375 
Q 38.96875 64.796875 32.078125 64.796875 
z
M 9.8125 72.90625 
L 32.078125 72.90625 
Q 44.34375 72.90625 50.609375 67.359375 
Q 56.890625 61.8125 56.890625 51.125 
Q 56.890625 40.328125 50.609375 34.8125 
Q 44.34375 29.296875 32.078125 29.296875 
L 19.671875 29.296875 
L 19.671875 0 
L 9.8125 0 
z
" id="DejaVuSans-80"/>
     <path d="M 18.109375 8.203125 
L 18.109375 -20.796875 
L 9.078125 -20.796875 
L 9.078125 54.6875 
L 18.109375 54.6875 
L 18.109375 46.390625 
Q 20.953125 51.265625 25.265625 53.625 
Q 29.59375 56 35.59375 56 
Q 45.5625 56 51.78125 48.09375 
Q 58.015625 40.1875 58.015625 27.296875 
Q 58.015625 14.40625 51.78125 6.484375 
Q 45.5625 -1.421875 35.59375 -1.421875 
Q 29.59375 -1.421875 25.265625 0.953125 
Q 20.953125 3.328125 18.109375 8.203125 
z
M 48.6875 27.296875 
Q 48.6875 37.203125 44.609375 42.84375 
Q 40.53125 48.484375 33.40625 48.484375 
Q 26.265625 48.484375 22.1875 42.84375 
Q 18.109375 37.203125 18.109375 27.296875 
Q 18.109375 17.390625 22.1875 11.75 
Q 26.265625 6.109375 33.40625 6.109375 
Q 40.53125 6.109375 44.609375 11.75 
Q 48.6875 17.390625 48.6875 27.296875 
z
" id="DejaVuSans-112"/>
     <path d="M 8.5 21.578125 
L 8.5 54.6875 
L 17.484375 54.6875 
L 17.484375 21.921875 
Q 17.484375 14.15625 20.5 10.265625 
Q 23.53125 6.390625 29.59375 6.390625 
Q 36.859375 6.390625 41.078125 11.03125 
Q 45.3125 15.671875 45.3125 23.6875 
L 45.3125 54.6875 
L 54.296875 54.6875 
L 54.296875 0 
L 45.3125 0 
L 45.3125 8.40625 
Q 42.046875 3.421875 37.71875 1 
Q 33.40625 -1.421875 27.6875 -1.421875 
Q 18.265625 -1.421875 13.375 4.4375 
Q 8.5 10.296875 8.5 21.578125 
z
M 31.109375 56 
z
" id="DejaVuSans-117"/>
     <path d="M 9.421875 75.984375 
L 18.40625 75.984375 
L 18.40625 0 
L 9.421875 0 
z
" id="DejaVuSans-108"/>
     <path d="M 17.921875 72.90625 
L 17.921875 45.796875 
L 9.625 45.796875 
L 9.625 72.90625 
z
" id="DejaVuSans-39"/>
     <path id="DejaVuSans-32"/>
     <path d="M 2.984375 54.6875 
L 12.5 54.6875 
L 29.59375 8.796875 
L 46.6875 54.6875 
L 56.203125 54.6875 
L 35.6875 0 
L 23.484375 0 
z
" id="DejaVuSans-118"/>
     <path d="M 45.40625 27.984375 
Q 45.40625 37.75 41.375 43.109375 
Q 37.359375 48.484375 30.078125 48.484375 
Q 22.859375 48.484375 18.828125 43.109375 
Q 14.796875 37.75 14.796875 27.984375 
Q 14.796875 18.265625 18.828125 12.890625 
Q 22.859375 7.515625 30.078125 7.515625 
Q 37.359375 7.515625 41.375 12.890625 
Q 45.40625 18.265625 45.40625 27.984375 
z
M 54.390625 6.78125 
Q 54.390625 -7.171875 48.1875 -13.984375 
Q 42 -20.796875 29.203125 -20.796875 
Q 24.46875 -20.796875 20.265625 -20.09375 
Q 16.0625 -19.390625 12.109375 -17.921875 
L 12.109375 -9.1875 
Q 16.0625 -11.328125 19.921875 -12.34375 
Q 23.78125 -13.375 27.78125 -13.375 
Q 36.625 -13.375 41.015625 -8.765625 
Q 45.40625 -4.15625 45.40625 5.171875 
L 45.40625 9.625 
Q 42.625 4.78125 38.28125 2.390625 
Q 33.9375 0 27.875 0 
Q 17.828125 0 11.671875 7.65625 
Q 5.515625 15.328125 5.515625 27.984375 
Q 5.515625 40.671875 11.671875 48.328125 
Q 17.828125 56 27.875 56 
Q 33.9375 56 38.28125 53.609375 
Q 42.625 51.21875 45.40625 46.390625 
L 45.40625 54.6875 
L 54.390625 54.6875 
z
" id="DejaVuSans-103"/>
     <path d="M 45.40625 46.390625 
L 45.40625 75.984375 
L 54.390625 75.984375 
L 54.390625 0 
L 45.40625 0 
L 45.40625 8.203125 
Q 42.578125 3.328125 38.25 0.953125 
Q 33.9375 -1.421875 27.875 -1.421875 
Q 17.96875 -1.421875 11.734375 6.484375 
Q 5.515625 14.40625 5.515625 27.296875 
Q 5.515625 40.1875 11.734375 48.09375 
Q 17.96875 56 27.875 56 
Q 33.9375 56 38.25 53.625 
Q 42.578125 51.265625 45.40625 46.390625 
z
M 14.796875 27.296875 
Q 14.796875 17.390625 18.875 11.75 
Q 22.953125 6.109375 30.078125 6.109375 
Q 37.203125 6.109375 41.296875 11.75 
Q 45.40625 17.390625 45.40625 27.296875 
Q 45.40625 37.203125 41.296875 42.84375 
Q 37.203125 48.484375 30.078125 48.484375 
Q 22.953125 48.484375 18.875 42.84375 
Q 14.796875 37.203125 14.796875 27.296875 
z
" id="DejaVuSans-100"/>
     <path d="M 48.6875 27.296875 
Q 48.6875 37.203125 44.609375 42.84375 
Q 40.53125 48.484375 33.40625 48.484375 
Q 26.265625 48.484375 22.1875 42.84375 
Q 18.109375 37.203125 18.109375 27.296875 
Q 18.109375 17.390625 22.1875 11.75 
Q 26.265625 6.109375 33.40625 6.109375 
Q 40.53125 6.109375 44.609375 11.75 
Q 48.6875 17.390625 48.6875 27.296875 
z
M 18.109375 46.390625 
Q 20.953125 51.265625 25.265625 53.625 
Q 29.59375 56 35.59375 56 
Q 45.5625 56 51.78125 48.09375 
Q 58.015625 40.1875 58.015625 27.296875 
Q 58.015625 14.40625 51.78125 6.484375 
Q 45.5625 -1.421875 35.59375 -1.421875 
Q 29.59375 -1.421875 25.265625 0.953125 
Q 20.953125 3.328125 18.109375 8.203125 
L 18.109375 0 
L 9.078125 0 
L 9.078125 75.984375 
L 18.109375 75.984375 
z
" id="DejaVuSans-98"/>
     <path d="M 37.109375 75.984375 
L 37.109375 68.5 
L 28.515625 68.5 
Q 23.6875 68.5 21.796875 66.546875 
Q 19.921875 64.59375 19.921875 59.515625 
L 19.921875 54.6875 
L 34.71875 54.6875 
L 34.71875 47.703125 
L 19.921875 47.703125 
L 19.921875 0 
L 10.890625 0 
L 10.890625 47.703125 
L 2.296875 47.703125 
L 2.296875 54.6875 
L 10.890625 54.6875 
L 10.890625 58.5 
Q 10.890625 67.625 15.140625 71.796875 
Q 19.390625 75.984375 28.609375 75.984375 
z
" id="DejaVuSans-102"/>
    </defs>
    <g transform="translate(123.315 35.472)scale(0.12 -0.12)">
     <use xlink:href="#DejaVuSans-80"/>
     <use x="60.255859" xlink:href="#DejaVuSans-111"/>
     <use x="121.4375" xlink:href="#DejaVuSans-112"/>
     <use x="184.914062" xlink:href="#DejaVuSans-117"/>
     <use x="248.292969" xlink:href="#DejaVuSans-108"/>
     <use x="276.076172" xlink:href="#DejaVuSans-97"/>
     <use x="337.355469" xlink:href="#DejaVuSans-116"/>
     <use x="376.564453" xlink:href="#DejaVuSans-105"/>
     <use x="404.347656" xlink:href="#DejaVuSans-111"/>
     <use x="465.529297" xlink:href="#DejaVuSans-110"/>
     <use x="528.908203" xlink:href="#DejaVuSans-39"/>
     <use x="556.398438" xlink:href="#DejaVuSans-115"/>
     <use x="608.498047" xlink:href="#DejaVuSans-32"/>
     <use x="640.285156" xlink:href="#DejaVuSans-97"/>
     <use x="701.564453" xlink:href="#DejaVuSans-118"/>
     <use x="760.744141" xlink:href="#DejaVuSans-101"/>
     <use x="822.267578" xlink:href="#DejaVuSans-114"/>
     <use x="863.380859" xlink:href="#DejaVuSans-97"/>
     <use x="924.660156" xlink:href="#DejaVuSans-103"/>
     <use x="988.136719" xlink:href="#DejaVuSans-101"/>
     <use x="1049.660156" xlink:href="#DejaVuSans-32"/>
     <use x="1081.447266" xlink:href="#DejaVuSans-97"/>
     <use x="1142.726562" xlink:href="#DejaVuSans-110"/>
     <use x="1206.105469" xlink:href="#DejaVuSans-100"/>
     <use x="1269.582031" xlink:href="#DejaVuSans-32"/>
     <use x="1301.369141" xlink:href="#DejaVuSans-98"/>
     <use x="1364.845703" xlink:href="#DejaVuSans-101"/>
     <use x="1426.369141" xlink:href="#DejaVuSans-115"/>
     <use x="1478.46875" xlink:href="#DejaVuSans-116"/>
     <use x="1517.677734" xlink:href="#DejaVuSans-32"/>
     <use x="1549.464844" xlink:href="#DejaVuSans-102"/>
     <use x="1584.669922" xlink:href="#DejaVuSans-105"/>
     <use x="1612.453125" xlink:href="#DejaVuSans-116"/>
     <use x="1651.662109" xlink:href="#DejaVuSans-110"/>
     <use x="1715.041016" xlink:href="#DejaVuSans-101"/>
     <use x="1776.564453" xlink:href="#DejaVuSans-115"/>
     <use x="1828.664062" xlink:href="#DejaVuSans-115"/>
    </g>
   </g>
   <g id="legend_1">
    <g id="patch_7">
     <path d="M 199.689687 198.045187 
L 272.630313 198.045187 
Q 274.630313 198.045187 274.630313 196.045187 
L 274.630313 153.010812 
Q 274.630313 151.010812 272.630313 151.010812 
L 199.689687 151.010812 
Q 197.689687 151.010812 197.689687 153.010812 
L 197.689687 196.045187 
Q 197.689687 198.045187 199.689687 198.045187 
z
" style="fill:#ffffff;opacity:0.8;stroke:#cccccc;stroke-linejoin:miter;"/>
    </g>
    <g id="line2d_32">
     <path d="M 201.689687 159.10925 
L 221.689687 159.10925 
" style="fill:none;stroke:#0000ff;stroke-linecap:square;stroke-width:1.5;"/>
    </g>
    <g id="line2d_33"/>
    <g id="text_18">
     <!-- average -->
     <g transform="translate(229.689687 162.60925)scale(0.1 -0.1)">
      <use xlink:href="#DejaVuSans-97"/>
      <use x="61.279297" xlink:href="#DejaVuSans-118"/>
      <use x="120.458984" xlink:href="#DejaVuSans-101"/>
      <use x="181.982422" xlink:href="#DejaVuSans-114"/>
      <use x="223.095703" xlink:href="#DejaVuSans-97"/>
      <use x="284.375" xlink:href="#DejaVuSans-103"/>
      <use x="347.851562" xlink:href="#DejaVuSans-101"/>
     </g>
    </g>
    <g id="line2d_34">
     <path d="M 201.689687 173.787375 
L 221.689687 173.787375 
" style="fill:none;stroke:#008000;stroke-dasharray:9.6,2.4,1.5,2.4;stroke-dashoffset:0;stroke-width:1.5;"/>
    </g>
    <g id="line2d_35"/>
    <g id="text_19">
     <!-- +1 sd -->
     <defs>
      <path d="M 46 62.703125 
L 46 35.5 
L 73.1875 35.5 
L 73.1875 27.203125 
L 46 27.203125 
L 46 0 
L 37.796875 0 
L 37.796875 27.203125 
L 10.59375 27.203125 
L 10.59375 35.5 
L 37.796875 35.5 
L 37.796875 62.703125 
z
" id="DejaVuSans-43"/>
     </defs>
     <g transform="translate(229.689687 177.287375)scale(0.1 -0.1)">
      <use xlink:href="#DejaVuSans-43"/>
      <use x="83.789062" xlink:href="#DejaVuSans-49"/>
      <use x="147.412109" xlink:href="#DejaVuSans-32"/>
      <use x="179.199219" xlink:href="#DejaVuSans-115"/>
      <use x="231.298828" xlink:href="#DejaVuSans-100"/>
     </g>
    </g>
    <g id="line2d_36">
     <path d="M 201.689687 188.4655 
L 221.689687 188.4655 
" style="fill:none;stroke:#ff0000;stroke-linecap:square;stroke-width:1.5;"/>
    </g>
    <g id="line2d_37"/>
    <g id="text_20">
     <!-- best -->
     <g transform="translate(229.689687 191.9655)scale(0.1 -0.1)">
      <use xlink:href="#DejaVuSans-98"/>
      <use x="63.476562" xlink:href="#DejaVuSans-101"/>
      <use x="125" xlink:href="#DejaVuSans-115"/>
      <use x="177.099609" xlink:href="#DejaVuSans-116"/>
     </g>
    </g>
   </g>
  </g>
 </g>
 <defs>
  <clipPath id="p6281fef1fb">
   <rect height="266.112" width="357.12" x="57.6" y="41.472"/>
  </clipPath>
 </defs>
</svg>
