<?xml version="1.0" encoding="utf-8" standalone="no"?>
<!DOCTYPE svg PUBLIC "-//W3C//DTD SVG 1.1//EN"
  "http://www.w3.org/Graphics/SVG/1.1/DTD/svg11.dtd">
<!-- Created with matplotlib (https://matplotlib.org/) -->
<svg height="345.6pt" version="1.1" viewBox="0 0 460.8 345.6" width="460.8pt" xmlns="http://www.w3.org/2000/svg" xmlns:xlink="http://www.w3.org/1999/xlink">
 <defs>
  <style type="text/css">
*{stroke-linecap:butt;stroke-linejoin:round;}
  </style>
 </defs>
 <g id="figure_1">
  <g id="patch_1">
   <path d="M 0 345.6 
L 460.8 345.6 
L 460.8 0 
L 0 0 
z
" style="fill:#ffffff;"/>
  </g>
  <g id="axes_1">
   <g id="patch_2">
    <path d="M 57.6 307.584 
L 414.72 307.584 
L 414.72 41.472 
L 57.6 41.472 
z
" style="fill:#ffffff;"/>
   </g>
   <g id="matplotlib.axis_1">
    <g id="xtick_1">
     <g id="line2d_1">
      <path clip-path="url(#p8b0dc1146d)" d="M 73.832727 307.584 
L 73.832727 41.472 
" style="fill:none;stroke:#b0b0b0;stroke-linecap:square;stroke-width:0.8;"/>
     </g>
     <g id="line2d_2">
      <defs>
       <path d="M 0 0 
L 0 3.5 
" id="m5e0ded34ad" style="stroke:#000000;stroke-width:0.8;"/>
      </defs>
      <g>
       <use style="stroke:#000000;stroke-width:0.8;" x="73.832727" xlink:href="#m5e0ded34ad" y="307.584"/>
      </g>
     </g>
     <g id="text_1">
      <!-- 0 -->
      <defs>
       <path d="M 31.78125 66.40625 
Q 24.171875 66.40625 20.328125 58.90625 
Q 16.5 51.421875 16.5 36.375 
Q 16.5 21.390625 20.328125 13.890625 
Q 24.171875 6.390625 31.78125 6.390625 
Q 39.453125 6.390625 43.28125 13.890625 
Q 47.125 21.390625 47.125 36.375 
Q 47.125 51.421875 43.28125 58.90625 
Q 39.453125 66.40625 31.78125 66.40625 
z
M 31.78125 74.21875 
Q 44.046875 74.21875 50.515625 64.515625 
Q 56.984375 54.828125 56.984375 36.375 
Q 56.984375 17.96875 50.515625 8.265625 
Q 44.046875 -1.421875 31.78125 -1.421875 
Q 19.53125 -1.421875 13.0625 8.265625 
Q 6.59375 17.96875 6.59375 36.375 
Q 6.59375 54.828125 13.0625 64.515625 
Q 19.53125 74.21875 31.78125 74.21875 
z
" id="DejaVuSans-48"/>
      </defs>
      <g transform="translate(70.651477 322.182437)scale(0.1 -0.1)">
       <use xlink:href="#DejaVuSans-48"/>
      </g>
     </g>
    </g>
    <g id="xtick_2">
     <g id="line2d_3">
      <path clip-path="url(#p8b0dc1146d)" d="M 138.893758 307.584 
L 138.893758 41.472 
" style="fill:none;stroke:#b0b0b0;stroke-linecap:square;stroke-width:0.8;"/>
     </g>
     <g id="line2d_4">
      <g>
       <use style="stroke:#000000;stroke-width:0.8;" x="138.893758" xlink:href="#m5e0ded34ad" y="307.584"/>
      </g>
     </g>
     <g id="text_2">
      <!-- 100 -->
      <defs>
       <path d="M 12.40625 8.296875 
L 28.515625 8.296875 
L 28.515625 63.921875 
L 10.984375 60.40625 
L 10.984375 69.390625 
L 28.421875 72.90625 
L 38.28125 72.90625 
L 38.28125 8.296875 
L 54.390625 8.296875 
L 54.390625 0 
L 12.40625 0 
z
" id="DejaVuSans-49"/>
      </defs>
      <g transform="translate(129.350008 322.182437)scale(0.1 -0.1)">
       <use xlink:href="#DejaVuSans-49"/>
       <use x="63.623047" xlink:href="#DejaVuSans-48"/>
       <use x="127.246094" xlink:href="#DejaVuSans-48"/>
      </g>
     </g>
    </g>
    <g id="xtick_3">
     <g id="line2d_5">
      <path clip-path="url(#p8b0dc1146d)" d="M 203.95479 307.584 
L 203.95479 41.472 
" style="fill:none;stroke:#b0b0b0;stroke-linecap:square;stroke-width:0.8;"/>
     </g>
     <g id="line2d_6">
      <g>
       <use style="stroke:#000000;stroke-width:0.8;" x="203.95479" xlink:href="#m5e0ded34ad" y="307.584"/>
      </g>
     </g>
     <g id="text_3">
      <!-- 200 -->
      <defs>
       <path d="M 19.1875 8.296875 
L 53.609375 8.296875 
L 53.609375 0 
L 7.328125 0 
L 7.328125 8.296875 
Q 12.9375 14.109375 22.625 23.890625 
Q 32.328125 33.6875 34.8125 36.53125 
Q 39.546875 41.84375 41.421875 45.53125 
Q 43.3125 49.21875 43.3125 52.78125 
Q 43.3125 58.59375 39.234375 62.25 
Q 35.15625 65.921875 28.609375 65.921875 
Q 23.96875 65.921875 18.8125 64.3125 
Q 13.671875 62.703125 7.8125 59.421875 
L 7.8125 69.390625 
Q 13.765625 71.78125 18.9375 73 
Q 24.125 74.21875 28.421875 74.21875 
Q 39.75 74.21875 46.484375 68.546875 
Q 53.21875 62.890625 53.21875 53.421875 
Q 53.21875 48.921875 51.53125 44.890625 
Q 49.859375 40.875 45.40625 35.40625 
Q 44.1875 33.984375 37.640625 27.21875 
Q 31.109375 20.453125 19.1875 8.296875 
z
" id="DejaVuSans-50"/>
      </defs>
      <g transform="translate(194.41104 322.182437)scale(0.1 -0.1)">
       <use xlink:href="#DejaVuSans-50"/>
       <use x="63.623047" xlink:href="#DejaVuSans-48"/>
       <use x="127.246094" xlink:href="#DejaVuSans-48"/>
      </g>
     </g>
    </g>
    <g id="xtick_4">
     <g id="line2d_7">
      <path clip-path="url(#p8b0dc1146d)" d="M 269.015821 307.584 
L 269.015821 41.472 
" style="fill:none;stroke:#b0b0b0;stroke-linecap:square;stroke-width:0.8;"/>
     </g>
     <g id="line2d_8">
      <g>
       <use style="stroke:#000000;stroke-width:0.8;" x="269.015821" xlink:href="#m5e0ded34ad" y="307.584"/>
      </g>
     </g>
     <g id="text_4">
      <!-- 300 -->
      <defs>
       <path d="M 40.578125 39.3125 
Q 47.65625 37.796875 51.625 33 
Q 55.609375 28.21875 55.609375 21.1875 
Q 55.609375 10.40625 48.1875 4.484375 
Q 40.765625 -1.421875 27.09375 -1.421875 
Q 22.515625 -1.421875 17.65625 -0.515625 
Q 12.796875 0.390625 7.625 2.203125 
L 7.625 11.71875 
Q 11.71875 9.328125 16.59375 8.109375 
Q 21.484375 6.890625 26.8125 6.890625 
Q 36.078125 6.890625 40.9375 10.546875 
Q 45.796875 14.203125 45.796875 21.1875 
Q 45.796875 27.640625 41.28125 31.265625 
Q 36.765625 34.90625 28.71875 34.90625 
L 20.21875 34.90625 
L 20.21875 43.015625 
L 29.109375 43.015625 
Q 36.375 43.015625 40.234375 45.921875 
Q 44.09375 48.828125 44.09375 54.296875 
Q 44.09375 59.90625 40.109375 62.90625 
Q 36.140625 65.921875 28.71875 65.921875 
Q 24.65625 65.921875 20.015625 65.03125 
Q 15.375 64.15625 9.8125 62.3125 
L 9.8125 71.09375 
Q 15.4375 72.65625 20.34375 73.4375 
Q 25.25 74.21875 29.59375 74.21875 
Q 40.828125 74.21875 47.359375 69.109375 
Q 53.90625 64.015625 53.90625 55.328125 
Q 53.90625 49.265625 50.4375 45.09375 
Q 46.96875 40.921875 40.578125 39.3125 
z
" id="DejaVuSans-51"/>
      </defs>
      <g transform="translate(259.472071 322.182437)scale(0.1 -0.1)">
       <use xlink:href="#DejaVuSans-51"/>
       <use x="63.623047" xlink:href="#DejaVuSans-48"/>
       <use x="127.246094" xlink:href="#DejaVuSans-48"/>
      </g>
     </g>
    </g>
    <g id="xtick_5">
     <g id="line2d_9">
      <path clip-path="url(#p8b0dc1146d)" d="M 334.076852 307.584 
L 334.076852 41.472 
" style="fill:none;stroke:#b0b0b0;stroke-linecap:square;stroke-width:0.8;"/>
     </g>
     <g id="line2d_10">
      <g>
       <use style="stroke:#000000;stroke-width:0.8;" x="334.076852" xlink:href="#m5e0ded34ad" y="307.584"/>
      </g>
     </g>
     <g id="text_5">
      <!-- 400 -->
      <defs>
       <path d="M 37.796875 64.3125 
L 12.890625 25.390625 
L 37.796875 25.390625 
z
M 35.203125 72.90625 
L 47.609375 72.90625 
L 47.609375 25.390625 
L 58.015625 25.390625 
L 58.015625 17.1875 
L 47.609375 17.1875 
L 47.609375 0 
L 37.796875 0 
L 37.796875 17.1875 
L 4.890625 17.1875 
L 4.890625 26.703125 
z
" id="DejaVuSans-52"/>
      </defs>
      <g transform="translate(324.533102 322.182437)scale(0.1 -0.1)">
       <use xlink:href="#DejaVuSans-52"/>
       <use x="63.623047" xlink:href="#DejaVuSans-48"/>
       <use x="127.246094" xlink:href="#DejaVuSans-48"/>
      </g>
     </g>
    </g>
    <g id="xtick_6">
     <g id="line2d_11">
      <path clip-path="url(#p8b0dc1146d)" d="M 399.137883 307.584 
L 399.137883 41.472 
" style="fill:none;stroke:#b0b0b0;stroke-linecap:square;stroke-width:0.8;"/>
     </g>
     <g id="line2d_12">
      <g>
       <use style="stroke:#000000;stroke-width:0.8;" x="399.137883" xlink:href="#m5e0ded34ad" y="307.584"/>
      </g>
     </g>
     <g id="text_6">
      <!-- 500 -->
      <defs>
       <path d="M 10.796875 72.90625 
L 49.515625 72.90625 
L 49.515625 64.59375 
L 19.828125 64.59375 
L 19.828125 46.734375 
Q 21.96875 47.46875 24.109375 47.828125 
Q 26.265625 48.1875 28.421875 48.1875 
Q 40.625 48.1875 47.75 41.5 
Q 54.890625 34.8125 54.890625 23.390625 
Q 54.890625 11.625 47.5625 5.09375 
Q 40.234375 -1.421875 26.90625 -1.421875 
Q 22.3125 -1.421875 17.546875 -0.640625 
Q 12.796875 0.140625 7.71875 1.703125 
L 7.71875 11.625 
Q 12.109375 9.234375 16.796875 8.0625 
Q 21.484375 6.890625 26.703125 6.890625 
Q 35.15625 6.890625 40.078125 11.328125 
Q 45.015625 15.765625 45.015625 23.390625 
Q 45.015625 31 40.078125 35.4375 
Q 35.15625 39.890625 26.703125 39.890625 
Q 22.75 39.890625 18.8125 39.015625 
Q 14.890625 38.140625 10.796875 36.28125 
z
" id="DejaVuSans-53"/>
      </defs>
      <g transform="translate(389.594133 322.182437)scale(0.1 -0.1)">
       <use xlink:href="#DejaVuSans-53"/>
       <use x="63.623047" xlink:href="#DejaVuSans-48"/>
       <use x="127.246094" xlink:href="#DejaVuSans-48"/>
      </g>
     </g>
    </g>
    <g id="text_7">
     <!-- Generations -->
     <defs>
      <path d="M 59.515625 10.40625 
L 59.515625 29.984375 
L 43.40625 29.984375 
L 43.40625 38.09375 
L 69.28125 38.09375 
L 69.28125 6.78125 
Q 63.578125 2.734375 56.6875 0.65625 
Q 49.8125 -1.421875 42 -1.421875 
Q 24.90625 -1.421875 15.25 8.5625 
Q 5.609375 18.5625 5.609375 36.375 
Q 5.609375 54.25 15.25 64.234375 
Q 24.90625 74.21875 42 74.21875 
Q 49.125 74.21875 55.546875 72.453125 
Q 61.96875 70.703125 67.390625 67.28125 
L 67.390625 56.78125 
Q 61.921875 61.421875 55.765625 63.765625 
Q 49.609375 66.109375 42.828125 66.109375 
Q 29.4375 66.109375 22.71875 58.640625 
Q 16.015625 51.171875 16.015625 36.375 
Q 16.015625 21.625 22.71875 14.15625 
Q 29.4375 6.6875 42.828125 6.6875 
Q 48.046875 6.6875 52.140625 7.59375 
Q 56.25 8.5 59.515625 10.40625 
z
" id="DejaVuSans-71"/>
      <path d="M 56.203125 29.59375 
L 56.203125 25.203125 
L 14.890625 25.203125 
Q 15.484375 15.921875 20.484375 11.0625 
Q 25.484375 6.203125 34.421875 6.203125 
Q 39.59375 6.203125 44.453125 7.46875 
Q 49.3125 8.734375 54.109375 11.28125 
L 54.109375 2.78125 
Q 49.265625 0.734375 44.1875 -0.34375 
Q 39.109375 -1.421875 33.890625 -1.421875 
Q 20.796875 -1.421875 13.15625 6.1875 
Q 5.515625 13.8125 5.515625 26.8125 
Q 5.515625 40.234375 12.765625 48.109375 
Q 20.015625 56 32.328125 56 
Q 43.359375 56 49.78125 48.890625 
Q 56.203125 41.796875 56.203125 29.59375 
z
M 47.21875 32.234375 
Q 47.125 39.59375 43.09375 43.984375 
Q 39.0625 48.390625 32.421875 48.390625 
Q 24.90625 48.390625 20.390625 44.140625 
Q 15.875 39.890625 15.1875 32.171875 
z
" id="DejaVuSans-101"/>
      <path d="M 54.890625 33.015625 
L 54.890625 0 
L 45.90625 0 
L 45.90625 32.71875 
Q 45.90625 40.484375 42.875 44.328125 
Q 39.84375 48.1875 33.796875 48.1875 
Q 26.515625 48.1875 22.3125 43.546875 
Q 18.109375 38.921875 18.109375 30.90625 
L 18.109375 0 
L 9.078125 0 
L 9.078125 54.6875 
L 18.109375 54.6875 
L 18.109375 46.1875 
Q 21.34375 51.125 25.703125 53.5625 
Q 30.078125 56 35.796875 56 
Q 45.21875 56 50.046875 50.171875 
Q 54.890625 44.34375 54.890625 33.015625 
z
" id="DejaVuSans-110"/>
      <path d="M 41.109375 46.296875 
Q 39.59375 47.171875 37.8125 47.578125 
Q 36.03125 48 33.890625 48 
Q 26.265625 48 22.1875 43.046875 
Q 18.109375 38.09375 18.109375 28.8125 
L 18.109375 0 
L 9.078125 0 
L 9.078125 54.6875 
L 18.109375 54.6875 
L 18.109375 46.1875 
Q 20.953125 51.171875 25.484375 53.578125 
Q 30.03125 56 36.53125 56 
Q 37.453125 56 38.578125 55.875 
Q 39.703125 55.765625 41.0625 55.515625 
z
" id="DejaVuSans-114"/>
      <path d="M 34.28125 27.484375 
Q 23.390625 27.484375 19.1875 25 
Q 14.984375 22.515625 14.984375 16.5 
Q 14.984375 11.71875 18.140625 8.90625 
Q 21.296875 6.109375 26.703125 6.109375 
Q 34.1875 6.109375 38.703125 11.40625 
Q 43.21875 16.703125 43.21875 25.484375 
L 43.21875 27.484375 
z
M 52.203125 31.203125 
L 52.203125 0 
L 43.21875 0 
L 43.21875 8.296875 
Q 40.140625 3.328125 35.546875 0.953125 
Q 30.953125 -1.421875 24.3125 -1.421875 
Q 15.921875 -1.421875 10.953125 3.296875 
Q 6 8.015625 6 15.921875 
Q 6 25.140625 12.171875 29.828125 
Q 18.359375 34.515625 30.609375 34.515625 
L 43.21875 34.515625 
L 43.21875 35.40625 
Q 43.21875 41.609375 39.140625 45 
Q 35.0625 48.390625 27.6875 48.390625 
Q 23 48.390625 18.546875 47.265625 
Q 14.109375 46.140625 10.015625 43.890625 
L 10.015625 52.203125 
Q 14.9375 54.109375 19.578125 55.046875 
Q 24.21875 56 28.609375 56 
Q 40.484375 56 46.34375 49.84375 
Q 52.203125 43.703125 52.203125 31.203125 
z
" id="DejaVuSans-97"/>
      <path d="M 18.3125 70.21875 
L 18.3125 54.6875 
L 36.8125 54.6875 
L 36.8125 47.703125 
L 18.3125 47.703125 
L 18.3125 18.015625 
Q 18.3125 11.328125 20.140625 9.421875 
Q 21.96875 7.515625 27.59375 7.515625 
L 36.8125 7.515625 
L 36.8125 0 
L 27.59375 0 
Q 17.1875 0 13.234375 3.875 
Q 9.28125 7.765625 9.28125 18.015625 
L 9.28125 47.703125 
L 2.6875 47.703125 
L 2.6875 54.6875 
L 9.28125 54.6875 
L 9.28125 70.21875 
z
" id="DejaVuSans-116"/>
      <path d="M 9.421875 54.6875 
L 18.40625 54.6875 
L 18.40625 0 
L 9.421875 0 
z
M 9.421875 75.984375 
L 18.40625 75.984375 
L 18.40625 64.59375 
L 9.421875 64.59375 
z
" id="DejaVuSans-105"/>
      <path d="M 30.609375 48.390625 
Q 23.390625 48.390625 19.1875 42.75 
Q 14.984375 37.109375 14.984375 27.296875 
Q 14.984375 17.484375 19.15625 11.84375 
Q 23.34375 6.203125 30.609375 6.203125 
Q 37.796875 6.203125 41.984375 11.859375 
Q 46.1875 17.53125 46.1875 27.296875 
Q 46.1875 37.015625 41.984375 42.703125 
Q 37.796875 48.390625 30.609375 48.390625 
z
M 30.609375 56 
Q 42.328125 56 49.015625 48.375 
Q 55.71875 40.765625 55.71875 27.296875 
Q 55.71875 13.875 49.015625 6.21875 
Q 42.328125 -1.421875 30.609375 -1.421875 
Q 18.84375 -1.421875 12.171875 6.21875 
Q 5.515625 13.875 5.515625 27.296875 
Q 5.515625 40.765625 12.171875 48.375 
Q 18.84375 56 30.609375 56 
z
" id="DejaVuSans-111"/>
      <path d="M 44.28125 53.078125 
L 44.28125 44.578125 
Q 40.484375 46.53125 36.375 47.5 
Q 32.28125 48.484375 27.875 48.484375 
Q 21.1875 48.484375 17.84375 46.4375 
Q 14.5 44.390625 14.5 40.28125 
Q 14.5 37.15625 16.890625 35.375 
Q 19.28125 33.59375 26.515625 31.984375 
L 29.59375 31.296875 
Q 39.15625 29.25 43.1875 25.515625 
Q 47.21875 21.78125 47.21875 15.09375 
Q 47.21875 7.46875 41.1875 3.015625 
Q 35.15625 -1.421875 24.609375 -1.421875 
Q 20.21875 -1.421875 15.453125 -0.5625 
Q 10.6875 0.296875 5.421875 2 
L 5.421875 11.28125 
Q 10.40625 8.6875 15.234375 7.390625 
Q 20.0625 6.109375 24.8125 6.109375 
Q 31.15625 6.109375 34.5625 8.28125 
Q 37.984375 10.453125 37.984375 14.40625 
Q 37.984375 18.0625 35.515625 20.015625 
Q 33.0625 21.96875 24.703125 23.78125 
L 21.578125 24.515625 
Q 13.234375 26.265625 9.515625 29.90625 
Q 5.8125 33.546875 5.8125 39.890625 
Q 5.8125 47.609375 11.28125 51.796875 
Q 16.75 56 26.8125 56 
Q 31.78125 56 36.171875 55.265625 
Q 40.578125 54.546875 44.28125 53.078125 
z
" id="DejaVuSans-115"/>
     </defs>
     <g transform="translate(205.662344 335.860562)scale(0.1 -0.1)">
      <use xlink:href="#DejaVuSans-71"/>
      <use x="77.490234" xlink:href="#DejaVuSans-101"/>
      <use x="139.013672" xlink:href="#DejaVuSans-110"/>
      <use x="202.392578" xlink:href="#DejaVuSans-101"/>
      <use x="263.916016" xlink:href="#DejaVuSans-114"/>
      <use x="305.029297" xlink:href="#DejaVuSans-97"/>
      <use x="366.308594" xlink:href="#DejaVuSans-116"/>
      <use x="405.517578" xlink:href="#DejaVuSans-105"/>
      <use x="433.300781" xlink:href="#DejaVuSans-111"/>
      <use x="494.482422" xlink:href="#DejaVuSans-110"/>
      <use x="557.861328" xlink:href="#DejaVuSans-115"/>
     </g>
    </g>
   </g>
   <g id="matplotlib.axis_2">
    <g id="ytick_1">
     <g id="line2d_13">
      <path clip-path="url(#p8b0dc1146d)" d="M 57.6 297.710587 
L 414.72 297.710587 
" style="fill:none;stroke:#b0b0b0;stroke-linecap:square;stroke-width:0.8;"/>
     </g>
     <g id="line2d_14">
      <defs>
       <path d="M 0 0 
L -3.5 0 
" id="md6cc87a6fc" style="stroke:#000000;stroke-width:0.8;"/>
      </defs>
      <g>
       <use style="stroke:#000000;stroke-width:0.8;" x="57.6" xlink:href="#md6cc87a6fc" y="297.710587"/>
      </g>
     </g>
     <g id="text_8">
      <!-- 15 -->
      <g transform="translate(37.875 301.509805)scale(0.1 -0.1)">
       <use xlink:href="#DejaVuSans-49"/>
       <use x="63.623047" xlink:href="#DejaVuSans-53"/>
      </g>
     </g>
    </g>
    <g id="ytick_2">
     <g id="line2d_15">
      <path clip-path="url(#p8b0dc1146d)" d="M 57.6 262.833074 
L 414.72 262.833074 
" style="fill:none;stroke:#b0b0b0;stroke-linecap:square;stroke-width:0.8;"/>
     </g>
     <g id="line2d_16">
      <g>
       <use style="stroke:#000000;stroke-width:0.8;" x="57.6" xlink:href="#md6cc87a6fc" y="262.833074"/>
      </g>
     </g>
     <g id="text_9">
      <!-- 20 -->
      <g transform="translate(37.875 266.632293)scale(0.1 -0.1)">
       <use xlink:href="#DejaVuSans-50"/>
       <use x="63.623047" xlink:href="#DejaVuSans-48"/>
      </g>
     </g>
    </g>
    <g id="ytick_3">
     <g id="line2d_17">
      <path clip-path="url(#p8b0dc1146d)" d="M 57.6 227.955562 
L 414.72 227.955562 
" style="fill:none;stroke:#b0b0b0;stroke-linecap:square;stroke-width:0.8;"/>
     </g>
     <g id="line2d_18">
      <g>
       <use style="stroke:#000000;stroke-width:0.8;" x="57.6" xlink:href="#md6cc87a6fc" y="227.955562"/>
      </g>
     </g>
     <g id="text_10">
      <!-- 25 -->
      <g transform="translate(37.875 231.754781)scale(0.1 -0.1)">
       <use xlink:href="#DejaVuSans-50"/>
       <use x="63.623047" xlink:href="#DejaVuSans-53"/>
      </g>
     </g>
    </g>
    <g id="ytick_4">
     <g id="line2d_19">
      <path clip-path="url(#p8b0dc1146d)" d="M 57.6 193.078049 
L 414.72 193.078049 
" style="fill:none;stroke:#b0b0b0;stroke-linecap:square;stroke-width:0.8;"/>
     </g>
     <g id="line2d_20">
      <g>
       <use style="stroke:#000000;stroke-width:0.8;" x="57.6" xlink:href="#md6cc87a6fc" y="193.078049"/>
      </g>
     </g>
     <g id="text_11">
      <!-- 30 -->
      <g transform="translate(37.875 196.877268)scale(0.1 -0.1)">
       <use xlink:href="#DejaVuSans-51"/>
       <use x="63.623047" xlink:href="#DejaVuSans-48"/>
      </g>
     </g>
    </g>
    <g id="ytick_5">
     <g id="line2d_21">
      <path clip-path="url(#p8b0dc1146d)" d="M 57.6 158.200537 
L 414.72 158.200537 
" style="fill:none;stroke:#b0b0b0;stroke-linecap:square;stroke-width:0.8;"/>
     </g>
     <g id="line2d_22">
      <g>
       <use style="stroke:#000000;stroke-width:0.8;" x="57.6" xlink:href="#md6cc87a6fc" y="158.200537"/>
      </g>
     </g>
     <g id="text_12">
      <!-- 35 -->
      <g transform="translate(37.875 161.999756)scale(0.1 -0.1)">
       <use xlink:href="#DejaVuSans-51"/>
       <use x="63.623047" xlink:href="#DejaVuSans-53"/>
      </g>
     </g>
    </g>
    <g id="ytick_6">
     <g id="line2d_23">
      <path clip-path="url(#p8b0dc1146d)" d="M 57.6 123.323025 
L 414.72 123.323025 
" style="fill:none;stroke:#b0b0b0;stroke-linecap:square;stroke-width:0.8;"/>
     </g>
     <g id="line2d_24">
      <g>
       <use style="stroke:#000000;stroke-width:0.8;" x="57.6" xlink:href="#md6cc87a6fc" y="123.323025"/>
      </g>
     </g>
     <g id="text_13">
      <!-- 40 -->
      <g transform="translate(37.875 127.122243)scale(0.1 -0.1)">
       <use xlink:href="#DejaVuSans-52"/>
       <use x="63.623047" xlink:href="#DejaVuSans-48"/>
      </g>
     </g>
    </g>
    <g id="ytick_7">
     <g id="line2d_25">
      <path clip-path="url(#p8b0dc1146d)" d="M 57.6 88.445512 
L 414.72 88.445512 
" style="fill:none;stroke:#b0b0b0;stroke-linecap:square;stroke-width:0.8;"/>
     </g>
     <g id="line2d_26">
      <g>
       <use style="stroke:#000000;stroke-width:0.8;" x="57.6" xlink:href="#md6cc87a6fc" y="88.445512"/>
      </g>
     </g>
     <g id="text_14">
      <!-- 45 -->
      <g transform="translate(37.875 92.244731)scale(0.1 -0.1)">
       <use xlink:href="#DejaVuSans-52"/>
       <use x="63.623047" xlink:href="#DejaVuSans-53"/>
      </g>
     </g>
    </g>
    <g id="ytick_8">
     <g id="line2d_27">
      <path clip-path="url(#p8b0dc1146d)" d="M 57.6 53.568 
L 414.72 53.568 
" style="fill:none;stroke:#b0b0b0;stroke-linecap:square;stroke-width:0.8;"/>
     </g>
     <g id="line2d_28">
      <g>
       <use style="stroke:#000000;stroke-width:0.8;" x="57.6" xlink:href="#md6cc87a6fc" y="53.568"/>
      </g>
     </g>
     <g id="text_15">
      <!-- 50 -->
      <g transform="translate(37.875 57.367219)scale(0.1 -0.1)">
       <use xlink:href="#DejaVuSans-53"/>
       <use x="63.623047" xlink:href="#DejaVuSans-48"/>
      </g>
     </g>
    </g>
    <g id="text_16">
     <!-- Fitness -->
     <defs>
      <path d="M 9.8125 72.90625 
L 51.703125 72.90625 
L 51.703125 64.59375 
L 19.671875 64.59375 
L 19.671875 43.109375 
L 48.578125 43.109375 
L 48.578125 34.8125 
L 19.671875 34.8125 
L 19.671875 0 
L 9.8125 0 
z
" id="DejaVuSans-70"/>
     </defs>
     <g transform="translate(31.795312 192.202219)rotate(-90)scale(0.1 -0.1)">
      <use xlink:href="#DejaVuSans-70"/>
      <use x="57.410156" xlink:href="#DejaVuSans-105"/>
      <use x="85.193359" xlink:href="#DejaVuSans-116"/>
      <use x="124.402344" xlink:href="#DejaVuSans-110"/>
      <use x="187.78125" xlink:href="#DejaVuSans-101"/>
      <use x="249.304688" xlink:href="#DejaVuSans-115"/>
      <use x="301.404297" xlink:href="#DejaVuSans-115"/>
     </g>
    </g>
   </g>
   <g id="line2d_29">
    <path clip-path="url(#p8b0dc1146d)" d="M 73.832727 292.165062 
L 74.483338 294.450678 
L 75.133948 292.573455 
L 75.784558 293.449689 
L 76.435169 292.081234 
L 77.085779 292.871884 
L 77.736389 294.589518 
L 79.03761 293.694913 
L 79.68822 295.488 
L 80.989441 292.531804 
L 81.640051 292.283263 
L 82.290661 292.77033 
L 83.591882 292.28912 
L 84.242492 292.241928 
L 84.893103 291.815048 
L 85.543713 289.486273 
L 86.194323 293.74684 
L 86.844934 292.582556 
L 87.495544 292.144457 
L 88.146154 292.563269 
L 88.796764 291.91502 
L 89.447375 292.084036 
L 90.097985 291.755001 
L 90.748595 290.423022 
L 91.399206 290.212372 
L 92.049816 289.702347 
L 92.700426 287.669534 
L 93.351037 289.126743 
L 94.001647 287.632868 
L 94.652257 284.756082 
L 95.302868 283.420965 
L 95.953478 286.037657 
L 96.604088 285.903187 
L 97.254698 283.812426 
L 97.905309 285.885616 
L 98.555919 284.218729 
L 99.206529 285.852232 
L 99.85714 285.102366 
L 100.50775 282.508923 
L 101.15836 284.307026 
L 101.808971 282.072241 
L 102.459581 278.881975 
L 103.110191 278.154267 
L 104.411412 269.419082 
L 105.062022 271.350899 
L 105.712633 268.584804 
L 106.363243 264.656619 
L 107.013853 266.312171 
L 107.664463 269.393162 
L 108.315074 265.958237 
L 108.965684 258.38288 
L 109.616294 257.388355 
L 110.266905 253.352653 
L 110.917515 251.484869 
L 111.568125 252.865586 
L 112.218736 252.873028 
L 112.869346 260.167498 
L 114.170567 250.134529 
L 114.821177 253.462996 
L 115.471787 246.458082 
L 116.122398 244.542147 
L 116.773008 244.150556 
L 117.423618 239.314672 
L 118.074228 244.783962 
L 118.724839 237.756143 
L 119.375449 240.546344 
L 120.67667 238.366499 
L 121.32728 238.723233 
L 121.97789 230.477876 
L 122.628501 232.186318 
L 123.279111 230.728324 
L 123.929721 231.956473 
L 124.580332 224.572443 
L 125.230942 219.648054 
L 125.881552 226.871649 
L 126.532163 224.737437 
L 127.182773 209.161915 
L 127.833383 206.766817 
L 128.483993 215.910145 
L 129.134604 201.657918 
L 129.785214 212.151416 
L 130.435824 205.075914 
L 131.086435 210.255224 
L 131.737045 199.512951 
L 132.387655 199.389218 
L 133.038266 195.368252 
L 133.688876 194.455711 
L 134.339486 195.990322 
L 134.990097 193.984865 
L 135.640707 209.33097 
L 136.291317 204.43068 
L 136.941927 197.938174 
L 137.592538 205.163108 
L 138.243148 188.177759 
L 138.893758 187.396249 
L 139.544369 183.068203 
L 140.194979 185.404997 
L 140.845589 193.566335 
L 141.4962 192.851346 
L 142.14681 180.696533 
L 142.79742 193.322192 
L 143.448031 186.34669 
L 144.098641 182.004439 
L 144.749251 188.195198 
L 145.399862 176.057823 
L 146.050472 173.354816 
L 146.701082 186.276935 
L 147.351692 186.015353 
L 148.002303 181.638225 
L 148.652913 183.67856 
L 149.303523 181.42896 
L 149.954134 180.5919 
L 150.604744 175.778803 
L 151.255354 185.038783 
L 151.905965 183.207713 
L 152.556575 182.405531 
L 153.207185 183.835509 
L 153.857796 184.044774 
L 154.508406 190.375042 
L 155.159016 183.469295 
L 155.809627 186.834975 
L 156.460237 191.648071 
L 157.110847 200.489521 
L 157.761457 185.457313 
L 158.412068 176.284527 
L 159.062678 188.683483 
L 159.713288 183.713437 
L 160.363899 183.137958 
L 161.014509 176.860006 
L 161.665119 179.528136 
L 162.31573 176.790251 
L 162.96634 183.469295 
L 163.61695 180.783726 
L 164.267561 174.122121 
L 164.918171 180.434951 
L 165.568781 170.477421 
L 166.219392 170.756442 
L 167.520612 183.608805 
L 168.171222 180.975553 
L 168.821833 177.383169 
L 169.472443 184.620253 
L 170.123053 174.662723 
L 170.773664 180.434951 
L 171.424274 171.593502 
L 172.074884 174.174438 
L 172.725495 181.202257 
L 173.376105 178.935218 
L 174.026715 181.045308 
L 174.677326 184.812079 
L 175.327936 180.190809 
L 175.978546 180.644216 
L 176.629156 174.13956 
L 177.279767 179.179361 
L 177.930377 180.696533 
L 178.580987 187.218627 
L 179.882208 169.186953 
L 180.532818 176.232211 
L 181.183429 188.700922 
L 181.834039 189.607737 
L 182.484649 184.463304 
L 183.13526 185.614262 
L 183.78587 195.345088 
L 184.43648 194.176691 
L 185.087091 190.514552 
L 185.737701 180.87092 
L 186.388311 177.295975 
L 187.038921 178.987534 
L 187.689532 183.504172 
L 188.340142 179.371187 
L 188.990752 180.295441 
L 189.641363 179.1968 
L 190.291973 180.330319 
L 190.942583 179.1968 
L 191.593194 176.493792 
L 192.243804 182.318337 
L 192.894414 179.650207 
L 193.545025 176.441476 
L 194.195635 178.028403 
L 194.846245 181.760297 
L 195.496856 186.747781 
L 196.798076 175.865997 
L 197.448686 179.371187 
L 198.099297 184.864395 
L 198.749907 187.74179 
L 200.051128 176.040385 
L 200.701738 171.279604 
L 201.352348 177.888893 
L 202.653569 187.584841 
L 203.304179 183.033326 
L 203.95479 176.633302 
L 204.6054 179.266555 
L 205.25601 178.760831 
L 205.906621 179.493258 
L 206.557231 185.439874 
L 207.207841 178.970096 
L 207.858451 176.511231 
L 208.509062 182.213704 
L 209.159672 177.50524 
L 209.810282 171.820206 
L 210.460893 177.348291 
L 211.111503 171.645818 
L 211.762113 176.633302 
L 212.412724 180.278002 
L 213.063334 176.598425 
L 213.713944 179.929227 
L 214.364555 190.671501 
L 215.015165 177.679628 
L 215.665775 178.813147 
L 216.316385 186.538516 
L 216.966996 185.997914 
L 217.617606 183.015887 
L 218.268216 172.831654 
L 219.569437 189.694931 
L 220.220047 171.209849 
L 220.870658 187.04424 
L 221.521268 179.545575 
L 222.171878 185.963037 
L 222.822489 175.447467 
L 223.473099 179.266555 
L 224.123709 178.080719 
L 224.77432 188.753238 
L 225.42493 184.254039 
L 226.07554 184.201723 
L 226.72615 190.863327 
L 227.376761 186.503638 
L 228.027371 186.957046 
L 228.677981 186.085108 
L 229.328592 191.979408 
L 229.979202 183.765754 
L 230.629812 180.905798 
L 231.280423 177.261098 
L 231.931033 174.488335 
L 232.581643 186.869852 
L 233.232254 180.522145 
L 233.882864 177.016955 
L 234.533474 186.712903 
L 235.184085 182.754306 
L 235.834695 188.195198 
L 236.485305 179.371187 
L 237.135915 179.004973 
L 237.786526 178.778269 
L 238.437136 189.555421 
L 239.087746 177.400608 
L 239.738357 179.89435 
L 240.388967 189.450788 
L 241.039577 177.801699 
L 241.690188 176.424037 
L 242.340798 178.185352 
L 242.991408 180.400074 
L 243.642019 178.551566 
L 244.292629 181.84749 
L 244.943239 179.074728 
L 245.59385 181.84749 
L 246.89507 168.227822 
L 247.54568 170.268156 
L 248.196291 172.692143 
L 249.497511 186.747781 
L 250.148122 186.276935 
L 250.798732 175.639293 
L 251.449342 176.580986 
L 252.099953 178.935218 
L 252.750563 178.534127 
L 254.051784 179.440942 
L 254.702394 176.929761 
L 255.353004 177.22622 
L 256.003615 180.295441 
L 256.654225 185.21317 
L 257.304835 180.208247 
L 257.955445 169.971698 
L 258.606056 188.805554 
L 259.256666 197.054086 
L 259.907276 179.1968 
L 260.557887 194.211569 
L 261.208497 183.085642 
L 261.859107 200.681347 
L 262.509718 174.976621 
L 263.160328 181.097624 
L 263.810938 184.271478 
L 264.461549 183.294907 
L 265.112159 189.782125 
L 266.413379 179.702523 
L 267.06399 181.324328 
L 267.7146 178.464372 
L 268.36521 185.248048 
L 269.666431 174.436019 
L 270.317041 182.771745 
L 270.967652 177.64475 
L 271.618262 188.125443 
L 272.268872 181.062746 
L 272.919483 180.487268 
L 273.570093 173.197867 
L 274.220703 184.2366 
L 274.871314 187.968494 
L 275.521924 168.768423 
L 276.823144 177.679628 
L 277.473755 184.445865 
L 278.124365 172.012032 
L 278.774975 186.154863 
L 279.425586 184.707447 
L 280.076196 185.527068 
L 280.726806 186.800097 
L 281.377417 165.856151 
L 282.028027 174.122121 
L 282.678637 186.800097 
L 283.329248 180.992991 
L 283.979858 187.480209 
L 284.630468 182.597357 
L 285.931689 181.498715 
L 286.582299 177.208781 
L 287.232909 180.365196 
L 287.88352 181.830052 
L 288.53413 171.279604 
L 289.18474 180.155931 
L 289.835351 182.213704 
L 290.485961 172.413123 
L 291.136571 181.376644 
L 291.787182 180.766288 
L 292.437792 176.80769 
L 293.088402 179.510697 
L 293.739013 180.818604 
L 294.389623 179.911789 
L 295.040233 190.183216 
L 295.690844 192.22355 
L 296.341454 188.177759 
L 296.992064 180.73141 
L 297.642674 177.418046 
L 298.293285 172.273613 
L 298.943895 176.406599 
L 299.594505 170.058891 
L 300.895726 183.416979 
L 301.546336 175.953191 
L 302.196947 193.35707 
L 302.847557 179.824595 
L 303.498167 176.162456 
L 304.148778 176.860006 
L 304.799388 185.788649 
L 305.449998 176.38916 
L 306.100608 179.998982 
L 306.751219 190.026267 
L 307.401829 187.968494 
L 308.052439 177.64475 
L 308.70305 176.267089 
L 309.35366 176.022946 
L 310.00427 184.65513 
L 310.654881 173.912856 
L 311.305491 178.743392 
L 311.956101 181.42896 
L 312.606712 181.411522 
L 313.257322 180.190809 
L 313.907932 173.02348 
L 314.558543 179.004973 
L 315.209153 181.359205 
L 315.859763 176.424037 
L 316.510373 183.033326 
L 317.160984 186.242057 
L 317.811594 184.93415 
L 318.462204 194.368517 
L 319.112815 182.667112 
L 319.763425 184.637691 
L 320.414035 179.301432 
L 321.064646 181.987001 
L 321.715256 178.255107 
L 323.016477 187.985933 
L 323.667087 190.950521 
L 324.968308 173.686153 
L 325.618918 177.731944 
L 326.269528 180.243125 
L 327.570749 182.422969 
L 328.871969 200.995245 
L 329.52258 186.782658 
L 330.17319 188.997381 
L 330.8238 183.695999 
L 331.474411 185.858404 
L 332.125021 181.760297 
L 332.775631 171.820206 
L 333.426242 175.063814 
L 334.727462 184.445865 
L 335.378073 181.952123 
L 336.028683 176.24965 
L 336.679293 175.83112 
L 337.329903 177.470363 
L 337.980514 172.796776 
L 338.631124 183.155397 
L 339.281734 181.167379 
L 339.932345 185.701456 
L 340.582955 185.195732 
L 341.884176 178.499249 
L 342.534786 180.086176 
L 343.185396 173.738469 
L 343.836007 190.392481 
L 344.486617 184.341233 
L 345.137227 185.474752 
L 345.787837 198.013217 
L 346.438448 181.498715 
L 347.089058 176.66818 
L 347.739668 185.649139 
L 348.390279 181.673103 
L 349.040889 183.172836 
L 349.691499 189.049697 
L 350.34211 187.968494 
L 350.99272 170.63437 
L 351.64333 179.301432 
L 352.293941 178.429494 
L 352.944551 189.102013 
L 353.595161 184.37611 
L 354.245772 195.850812 
L 354.896382 187.113995 
L 355.546992 180.940675 
L 356.197602 190.218093 
L 356.848213 185.474752 
L 357.498823 185.701456 
L 358.149433 169.79731 
L 358.800044 174.27907 
L 359.450654 171.610941 
L 360.101264 195.955444 
L 360.751875 176.092701 
L 361.402485 190.078583 
L 362.053095 179.423503 
L 362.703706 189.014819 
L 363.354316 189.398472 
L 364.004926 183.207713 
L 364.655537 194.246446 
L 365.306147 187.288382 
L 365.956757 181.56847 
L 366.607367 179.214238 
L 367.257978 180.975553 
L 367.908588 183.591366 
L 368.559198 188.509095 
L 369.209809 178.20279 
L 369.860419 188.892748 
L 370.511029 182.824061 
L 371.16164 191.334174 
L 371.81225 180.888359 
L 373.113471 181.202257 
L 373.764081 185.997914 
L 374.414691 183.26003 
L 375.065302 183.713437 
L 375.715912 180.766288 
L 376.366522 186.20718 
L 377.017132 185.317803 
L 377.667743 177.243659 
L 378.318353 174.366264 
L 378.968963 182.858938 
L 379.619574 198.8154 
L 380.270184 190.444797 
L 380.920794 185.649139 
L 381.571405 187.759229 
L 382.222015 194.072059 
L 382.872625 175.151008 
L 383.523236 178.848024 
L 384.173846 183.486734 
L 384.824456 177.191343 
L 385.475066 180.992991 
L 386.125677 191.456245 
L 386.776287 184.131968 
L 387.426897 182.231143 
L 388.077508 175.395151 
L 388.728118 174.784794 
L 389.378728 185.108538 
L 390.029339 167.512833 
L 391.330559 181.097624 
L 391.98117 179.231677 
L 392.63178 179.318871 
L 393.28239 195.100945 
L 393.933001 182.562479 
L 394.583611 188.683483 
L 395.234221 182.405531 
L 395.884831 180.992991 
L 396.535442 185.858404 
L 397.186052 176.24965 
L 397.836662 189.956512 
L 398.487273 180.539584 
L 398.487273 180.539584 
" style="fill:none;stroke:#0000ff;stroke-linecap:square;stroke-width:1.5;"/>
   </g>
   <g id="line2d_30">
    <path clip-path="url(#p8b0dc1146d)" d="M 73.832727 270.075754 
L 74.483338 271.690951 
L 75.133948 268.077599 
L 75.784558 270.323599 
L 76.435169 268.375582 
L 77.085779 269.628037 
L 77.736389 271.249304 
L 78.386999 271.071778 
L 79.03761 269.069675 
L 79.68822 271.396864 
L 80.33883 269.642559 
L 80.989441 267.430843 
L 81.640051 266.022849 
L 82.941272 269.747489 
L 83.591882 267.135172 
L 84.242492 268.363795 
L 84.893103 267.734249 
L 85.543713 266.425315 
L 86.194323 270.311303 
L 86.844934 269.876578 
L 87.495544 267.337588 
L 88.146154 267.292404 
L 88.796764 267.90066 
L 89.447375 265.876864 
L 90.097985 266.886878 
L 90.748595 263.74508 
L 91.399206 266.313186 
L 92.049816 264.846095 
L 92.700426 259.727151 
L 93.351037 261.951446 
L 94.001647 260.526587 
L 94.652257 256.295413 
L 95.302868 255.559133 
L 95.953478 257.195936 
L 96.604088 258.251563 
L 97.254698 255.393415 
L 97.905309 257.096939 
L 98.555919 254.432727 
L 99.206529 255.615632 
L 99.85714 256.523703 
L 100.50775 251.167601 
L 101.15836 250.433665 
L 101.808971 243.270958 
L 102.459581 237.761016 
L 103.110191 233.734663 
L 103.760802 222.934169 
L 104.411412 216.180555 
L 105.062022 218.551911 
L 106.363243 201.989252 
L 107.013853 207.028547 
L 107.664463 210.301473 
L 108.315074 205.471 
L 108.965684 192.998439 
L 110.266905 181.492988 
L 110.917515 173.496357 
L 111.568125 180.283518 
L 112.218736 176.608946 
L 112.869346 192.306557 
L 113.519956 180.626982 
L 114.170567 173.576509 
L 114.821177 176.279008 
L 115.471787 167.529495 
L 116.122398 163.199537 
L 116.773008 165.920889 
L 117.423618 159.098371 
L 118.074228 166.483412 
L 118.724839 154.173445 
L 119.375449 160.424575 
L 120.026059 155.61528 
L 120.67667 159.179969 
L 121.32728 158.757025 
L 121.97789 141.494522 
L 122.628501 148.097117 
L 123.279111 144.58313 
L 123.929721 146.582561 
L 124.580332 132.345385 
L 125.230942 127.515694 
L 125.881552 138.676201 
L 126.532163 136.107227 
L 127.182773 109.781397 
L 127.833383 108.041432 
L 128.483993 120.02796 
L 129.134604 100.948933 
L 129.785214 115.508737 
L 130.435824 105.80993 
L 131.086435 110.185668 
L 131.737045 99.634937 
L 132.387655 97.876985 
L 133.038266 93.617471 
L 133.688876 92.545675 
L 134.339486 94.163946 
L 134.990097 90.24479 
L 135.640707 110.396531 
L 136.291317 104.891275 
L 136.941927 96.227961 
L 137.592538 101.432919 
L 138.243148 85.412959 
L 138.893758 86.537298 
L 139.544369 80.645645 
L 140.194979 83.086002 
L 140.845589 90.977797 
L 141.4962 88.577162 
L 142.14681 77.928091 
L 142.79742 91.857094 
L 143.448031 82.159492 
L 144.098641 78.629859 
L 144.749251 85.920201 
L 145.399862 73.480836 
L 146.050472 70.468462 
L 146.701082 85.113058 
L 147.351692 83.284093 
L 148.002303 78.175885 
L 148.652913 80.279413 
L 149.954134 76.425224 
L 150.604744 72.851819 
L 151.255354 80.823458 
L 151.905965 80.921352 
L 152.556575 79.548417 
L 153.207185 79.487173 
L 153.857796 83.539916 
L 154.508406 89.652713 
L 155.159016 80.817957 
L 155.809627 85.302714 
L 156.460237 91.667444 
L 157.110847 102.194668 
L 157.761457 82.709098 
L 158.412068 71.724923 
L 159.062678 85.284017 
L 159.713288 80.271135 
L 160.363899 80.195665 
L 161.014509 72.652822 
L 161.665119 77.440235 
L 162.31573 75.908525 
L 162.96634 82.063866 
L 163.61695 77.893033 
L 164.267561 70.465429 
L 164.918171 77.110983 
L 165.568781 65.351392 
L 166.219392 67.011231 
L 166.870002 74.118323 
L 167.520612 79.405048 
L 168.171222 78.719641 
L 168.821833 74.152213 
L 169.472443 81.579226 
L 170.123053 73.095383 
L 170.773664 77.073316 
L 171.424274 68.410611 
L 172.074884 70.459506 
L 172.725495 80.837648 
L 173.376105 72.690565 
L 174.026715 78.519806 
L 174.677326 82.4929 
L 175.327936 78.476538 
L 175.978546 76.205966 
L 176.629156 71.393753 
L 177.930377 80.074003 
L 178.580987 86.655346 
L 179.882208 64.887591 
L 180.532818 72.694093 
L 181.183429 87.198673 
L 181.834039 87.638871 
L 182.484649 83.364284 
L 183.13526 81.541238 
L 183.78587 95.552882 
L 184.43648 90.955117 
L 185.087091 87.541996 
L 185.737701 76.764613 
L 186.388311 74.914324 
L 187.038921 75.065516 
L 187.689532 81.641833 
L 188.340142 75.818737 
L 188.990752 77.664381 
L 189.641363 77.457261 
L 190.291973 75.908947 
L 190.942583 77.179056 
L 191.593194 75.133958 
L 192.243804 80.103256 
L 192.894414 74.127574 
L 193.545025 73.128238 
L 194.195635 74.694934 
L 194.846245 77.730553 
L 195.496856 82.301669 
L 196.798076 71.105899 
L 197.448686 75.392022 
L 198.099297 81.815424 
L 198.749907 84.728526 
L 200.701738 68.582208 
L 201.352348 72.885916 
L 202.002959 79.576232 
L 202.653569 83.978705 
L 203.304179 79.488482 
L 203.95479 72.685514 
L 204.6054 76.241524 
L 205.906621 75.595791 
L 206.557231 84.36704 
L 207.207841 75.422763 
L 207.858451 74.606952 
L 208.509062 80.048976 
L 209.159672 75.849779 
L 209.810282 67.771696 
L 210.460893 72.793682 
L 211.111503 67.779381 
L 211.762113 74.725367 
L 212.412724 79.110903 
L 213.063334 75.17474 
L 213.713944 77.012366 
L 214.364555 89.625148 
L 215.015165 74.100006 
L 215.665775 76.848341 
L 216.316385 84.647555 
L 216.966996 81.231818 
L 217.617606 80.528997 
L 218.268216 67.439684 
L 218.918827 77.036864 
L 219.569437 88.333949 
L 220.220047 69.276353 
L 220.870658 86.380035 
L 221.521268 77.781767 
L 222.171878 82.540868 
L 222.822489 74.133428 
L 223.473099 77.13686 
L 224.123709 75.757563 
L 224.77432 86.413892 
L 225.42493 78.887054 
L 226.07554 80.652921 
L 226.72615 88.213957 
L 227.376761 82.002744 
L 228.027371 83.757913 
L 228.677981 83.643141 
L 229.328592 91.774016 
L 229.979202 79.599808 
L 231.280423 74.345615 
L 231.931033 71.333937 
L 232.581643 83.18847 
L 233.232254 76.618763 
L 233.882864 74.146386 
L 234.533474 84.950663 
L 235.184085 79.915998 
L 235.834695 86.30032 
L 236.485305 76.257835 
L 237.135915 77.284018 
L 237.786526 75.254316 
L 238.437136 87.314927 
L 239.087746 72.281789 
L 239.738357 76.424368 
L 240.388967 86.082738 
L 241.039577 72.91628 
L 241.690188 72.182313 
L 242.340798 75.63674 
L 242.991408 78.14668 
L 243.642019 74.580141 
L 244.292629 77.440062 
L 244.943239 75.616611 
L 245.59385 78.504556 
L 246.24446 74.564036 
L 246.89507 65.080896 
L 247.54568 66.590481 
L 248.196291 71.085026 
L 249.497511 82.601416 
L 250.148122 84.576985 
L 250.798732 73.699061 
L 251.449342 72.779093 
L 252.099953 75.492551 
L 252.750563 74.306306 
L 253.401173 76.022456 
L 254.051784 76.127422 
L 254.702394 71.974344 
L 255.353004 72.949284 
L 256.654225 83.181991 
L 257.304835 76.139694 
L 257.955445 66.147994 
L 258.606056 86.687118 
L 259.256666 95.25593 
L 259.907276 76.46375 
L 260.557887 93.554779 
L 261.208497 81.86501 
L 261.859107 97.570797 
L 262.509718 71.341457 
L 263.160328 76.865154 
L 263.810938 81.298649 
L 264.461549 80.916369 
L 265.112159 90.722807 
L 265.762769 82.127308 
L 266.413379 77.87794 
L 267.06399 79.275379 
L 267.7146 74.490541 
L 268.36521 80.669586 
L 269.015821 76.862445 
L 269.666431 71.024285 
L 270.317041 77.641759 
L 270.967652 74.293708 
L 271.618262 85.213516 
L 272.268872 78.458702 
L 272.919483 80.023812 
L 273.570093 72.37169 
L 274.220703 81.081454 
L 274.871314 87.564636 
L 275.521924 65.11711 
L 276.172534 70.731775 
L 276.823144 74.881583 
L 277.473755 80.563303 
L 278.124365 68.42063 
L 278.774975 83.906644 
L 279.425586 80.475605 
L 280.076196 80.631955 
L 280.726806 83.470795 
L 281.377417 62.261603 
L 282.028027 71.71336 
L 282.678637 83.682917 
L 283.329248 78.382913 
L 283.979858 85.894164 
L 284.630468 81.310757 
L 285.281079 81.061071 
L 285.931689 77.811115 
L 286.582299 73.227136 
L 287.232909 78.837244 
L 287.88352 80.274223 
L 288.53413 69.773609 
L 289.18474 75.93442 
L 289.835351 78.462234 
L 290.485961 67.581719 
L 291.136571 79.78581 
L 291.787182 79.681707 
L 292.437792 74.889668 
L 293.088402 76.292828 
L 293.739013 75.812685 
L 294.389623 77.784419 
L 295.040233 87.643857 
L 295.690844 92.994118 
L 296.341454 86.372698 
L 296.992064 78.010866 
L 297.642674 74.48861 
L 298.293285 68.804973 
L 298.943895 75.038866 
L 299.594505 65.34849 
L 300.245116 73.824741 
L 300.895726 80.269892 
L 301.546336 73.218229 
L 302.196947 92.281244 
L 302.847557 78.699054 
L 303.498167 70.26928 
L 304.148778 72.307864 
L 304.799388 82.568188 
L 305.449998 73.855574 
L 306.100608 77.417732 
L 306.751219 89.662362 
L 307.401829 87.467759 
L 308.052439 74.265463 
L 308.70305 73.396305 
L 309.35366 72.742634 
L 310.00427 82.583853 
L 310.654881 70.620351 
L 311.305491 77.257148 
L 312.606712 81.503368 
L 313.257322 78.204229 
L 313.907932 69.513187 
L 314.558543 74.177955 
L 315.209153 76.994964 
L 315.859763 73.12244 
L 316.510373 79.502581 
L 317.160984 84.353244 
L 317.811594 83.237773 
L 318.462204 91.141503 
L 319.112815 80.095214 
L 319.763425 81.085917 
L 320.414035 77.244473 
L 321.064646 80.629109 
L 321.715256 74.057262 
L 322.365866 80.959496 
L 323.016477 86.633994 
L 323.667087 89.7151 
L 324.968308 69.528656 
L 325.618918 74.744609 
L 326.269528 77.09424 
L 326.920138 77.291139 
L 327.570749 80.613069 
L 328.221359 89.944494 
L 328.871969 101.811357 
L 329.52258 82.039039 
L 330.17319 85.436943 
L 330.8238 80.724971 
L 331.474411 84.028306 
L 332.125021 80.292509 
L 332.775631 68.390828 
L 333.426242 70.764727 
L 334.076852 78.818118 
L 334.727462 82.124233 
L 335.378073 76.9955 
L 336.028683 73.324381 
L 336.679293 74.518281 
L 337.329903 74.629336 
L 337.980514 69.684563 
L 338.631124 79.377597 
L 339.281734 76.289373 
L 339.932345 83.437355 
L 340.582955 83.880766 
L 341.233565 77.62326 
L 341.884176 75.396957 
L 342.534786 79.759245 
L 343.185396 73.057597 
L 343.836007 90.007808 
L 344.486617 79.641579 
L 345.137227 82.533043 
L 345.787837 98.038924 
L 346.438448 79.032549 
L 347.089058 73.374614 
L 347.739668 81.969429 
L 348.390279 81.158853 
L 349.040889 79.96637 
L 349.691499 85.893832 
L 350.34211 86.207186 
L 350.99272 67.61038 
L 351.64333 76.765253 
L 352.293941 73.66799 
L 352.944551 87.007938 
L 353.595161 82.468998 
L 354.245772 95.537 
L 355.546992 76.912708 
L 356.197602 87.99737 
L 356.848213 82.676125 
L 357.498823 83.720851 
L 358.149433 66.502484 
L 358.800044 72.361041 
L 359.450654 68.856203 
L 360.101264 92.99 
L 360.751875 72.800894 
L 361.402485 87.055796 
L 362.053095 74.825688 
L 362.703706 87.461183 
L 363.354316 88.374207 
L 364.004926 79.05695 
L 364.655537 92.054872 
L 365.306147 83.775334 
L 365.956757 77.294041 
L 366.607367 76.150784 
L 367.257978 75.737949 
L 367.908588 79.31626 
L 368.559198 86.972761 
L 369.209809 74.947694 
L 369.860419 87.335085 
L 370.511029 80.514791 
L 371.16164 88.280125 
L 371.81225 76.993467 
L 372.46286 77.260385 
L 373.113471 75.762744 
L 373.764081 83.558968 
L 374.414691 81.492626 
L 375.065302 80.871441 
L 375.715912 80.021635 
L 376.366522 81.351716 
L 377.017132 83.717067 
L 377.667743 75.410377 
L 378.318353 70.580798 
L 378.968963 78.972235 
L 379.619574 96.848681 
L 380.270184 88.225718 
L 380.920794 82.043371 
L 381.571405 85.34966 
L 382.222015 90.818788 
L 382.872625 70.867806 
L 383.523236 74.174015 
L 384.173846 80.641383 
L 384.824456 72.003288 
L 385.475066 76.909251 
L 386.125677 89.858239 
L 386.776287 79.966041 
L 387.426897 78.522996 
L 388.077508 71.653745 
L 388.728118 71.965321 
L 389.378728 82.652393 
L 390.029339 63.217343 
L 390.679949 72.722453 
L 391.330559 77.910231 
L 391.98117 77.464672 
L 392.63178 74.616197 
L 393.28239 92.026029 
L 393.933001 80.550688 
L 394.583611 86.134557 
L 395.234221 78.054928 
L 395.884831 79.173127 
L 396.535442 86.474316 
L 397.186052 73.014017 
L 397.836662 86.031534 
L 398.487273 76.08589 
L 398.487273 76.08589 
" style="fill:none;stroke:#008000;stroke-dasharray:9.6,2.4,1.5,2.4;stroke-dashoffset:0;stroke-width:1.5;"/>
   </g>
   <g id="line2d_31">
    <path clip-path="url(#p8b0dc1146d)" d="M 73.832727 220.980059 
L 75.133948 220.980059 
L 75.784558 227.955562 
L 76.435169 227.955562 
L 77.736389 214.004557 
L 78.386999 220.980059 
L 79.68822 220.980059 
L 80.33883 193.078049 
L 80.989441 207.029054 
L 81.640051 214.004557 
L 82.290661 179.127045 
L 82.941272 214.004557 
L 83.591882 227.955562 
L 84.242492 207.029054 
L 84.893103 207.029054 
L 85.543713 227.955562 
L 86.194323 214.004557 
L 88.146154 193.078049 
L 88.796764 207.029054 
L 89.447375 179.127045 
L 90.097985 214.004557 
L 90.748595 186.102547 
L 91.399206 207.029054 
L 92.049816 200.053552 
L 92.700426 207.029054 
L 93.351037 158.200537 
L 94.001647 214.004557 
L 94.652257 200.053552 
L 95.302868 193.078049 
L 97.254698 193.078049 
L 97.905309 200.053552 
L 98.555919 179.127045 
L 99.206529 179.127045 
L 99.85714 67.519005 
L 100.50775 81.47001 
L 101.15836 53.568 
L 104.411412 53.568 
L 105.062022 60.543502 
L 105.712633 53.568 
L 398.487273 53.568 
L 398.487273 53.568 
" style="fill:none;stroke:#ff0000;stroke-linecap:square;stroke-width:1.5;"/>
   </g>
   <g id="patch_3">
    <path d="M 57.6 307.584 
L 57.6 41.472 
" style="fill:none;stroke:#000000;stroke-linecap:square;stroke-linejoin:miter;stroke-width:0.8;"/>
   </g>
   <g id="patch_4">
    <path d="M 414.72 307.584 
L 414.72 41.472 
" style="fill:none;stroke:#000000;stroke-linecap:square;stroke-linejoin:miter;stroke-width:0.8;"/>
   </g>
   <g id="patch_5">
    <path d="M 57.6 307.584 
L 414.72 307.584 
" style="fill:none;stroke:#000000;stroke-linecap:square;stroke-linejoin:miter;stroke-width:0.8;"/>
   </g>
   <g id="patch_6">
    <path d="M 57.6 41.472 
L 414.72 41.472 
" style="fill:none;stroke:#000000;stroke-linecap:square;stroke-linejoin:miter;stroke-width:0.8;"/>
   </g>
   <g id="text_17">
    <!-- Population's average and best fitness -->
    <defs>
     <path d="M 19.671875 64.796875 
L 19.671875 37.40625 
L 32.078125 37.40625 
Q 38.96875 37.40625 42.71875 40.96875 
Q 46.484375 44.53125 46.484375 51.125 
Q 46.484375 57.671875 42.71875 61.234375 
Q 38.96875 64.796875 32.078125 64.796875 
z
M 9.8125 72.90625 
L 32.078125 72.90625 
Q 44.34375 72.90625 50.609375 67.359375 
Q 56.890625 61.8125 56.890625 51.125 
Q 56.890625 40.328125 50.609375 34.8125 
Q 44.34375 29.296875 32.078125 29.296875 
L 19.671875 29.296875 
L 19.671875 0 
L 9.8125 0 
z
" id="DejaVuSans-80"/>
     <path d="M 18.109375 8.203125 
L 18.109375 -20.796875 
L 9.078125 -20.796875 
L 9.078125 54.6875 
L 18.109375 54.6875 
L 18.109375 46.390625 
Q 20.953125 51.265625 25.265625 53.625 
Q 29.59375 56 35.59375 56 
Q 45.5625 56 51.78125 48.09375 
Q 58.015625 40.1875 58.015625 27.296875 
Q 58.015625 14.40625 51.78125 6.484375 
Q 45.5625 -1.421875 35.59375 -1.421875 
Q 29.59375 -1.421875 25.265625 0.953125 
Q 20.953125 3.328125 18.109375 8.203125 
z
M 48.6875 27.296875 
Q 48.6875 37.203125 44.609375 42.84375 
Q 40.53125 48.484375 33.40625 48.484375 
Q 26.265625 48.484375 22.1875 42.84375 
Q 18.109375 37.203125 18.109375 27.296875 
Q 18.109375 17.390625 22.1875 11.75 
Q 26.265625 6.109375 33.40625 6.109375 
Q 40.53125 6.109375 44.609375 11.75 
Q 48.6875 17.390625 48.6875 27.296875 
z
" id="DejaVuSans-112"/>
     <path d="M 8.5 21.578125 
L 8.5 54.6875 
L 17.484375 54.6875 
L 17.484375 21.921875 
Q 17.484375 14.15625 20.5 10.265625 
Q 23.53125 6.390625 29.59375 6.390625 
Q 36.859375 6.390625 41.078125 11.03125 
Q 45.3125 15.671875 45.3125 23.6875 
L 45.3125 54.6875 
L 54.296875 54.6875 
L 54.296875 0 
L 45.3125 0 
L 45.3125 8.40625 
Q 42.046875 3.421875 37.71875 1 
Q 33.40625 -1.421875 27.6875 -1.421875 
Q 18.265625 -1.421875 13.375 4.4375 
Q 8.5 10.296875 8.5 21.578125 
z
M 31.109375 56 
z
" id="DejaVuSans-117"/>
     <path d="M 9.421875 75.984375 
L 18.40625 75.984375 
L 18.40625 0 
L 9.421875 0 
z
" id="DejaVuSans-108"/>
     <path d="M 17.921875 72.90625 
L 17.921875 45.796875 
L 9.625 45.796875 
L 9.625 72.90625 
z
" id="DejaVuSans-39"/>
     <path id="DejaVuSans-32"/>
     <path d="M 2.984375 54.6875 
L 12.5 54.6875 
L 29.59375 8.796875 
L 46.6875 54.6875 
L 56.203125 54.6875 
L 35.6875 0 
L 23.484375 0 
z
" id="DejaVuSans-118"/>
     <path d="M 45.40625 27.984375 
Q 45.40625 37.75 41.375 43.109375 
Q 37.359375 48.484375 30.078125 48.484375 
Q 22.859375 48.484375 18.828125 43.109375 
Q 14.796875 37.75 14.796875 27.984375 
Q 14.796875 18.265625 18.828125 12.890625 
Q 22.859375 7.515625 30.078125 7.515625 
Q 37.359375 7.515625 41.375 12.890625 
Q 45.40625 18.265625 45.40625 27.984375 
z
M 54.390625 6.78125 
Q 54.390625 -7.171875 48.1875 -13.984375 
Q 42 -20.796875 29.203125 -20.796875 
Q 24.46875 -20.796875 20.265625 -20.09375 
Q 16.0625 -19.390625 12.109375 -17.921875 
L 12.109375 -9.1875 
Q 16.0625 -11.328125 19.921875 -12.34375 
Q 23.78125 -13.375 27.78125 -13.375 
Q 36.625 -13.375 41.015625 -8.765625 
Q 45.40625 -4.15625 45.40625 5.171875 
L 45.40625 9.625 
Q 42.625 4.78125 38.28125 2.390625 
Q 33.9375 0 27.875 0 
Q 17.828125 0 11.671875 7.65625 
Q 5.515625 15.328125 5.515625 27.984375 
Q 5.515625 40.671875 11.671875 48.328125 
Q 17.828125 56 27.875 56 
Q 33.9375 56 38.28125 53.609375 
Q 42.625 51.21875 45.40625 46.390625 
L 45.40625 54.6875 
L 54.390625 54.6875 
z
" id="DejaVuSans-103"/>
     <path d="M 45.40625 46.390625 
L 45.40625 75.984375 
L 54.390625 75.984375 
L 54.390625 0 
L 45.40625 0 
L 45.40625 8.203125 
Q 42.578125 3.328125 38.25 0.953125 
Q 33.9375 -1.421875 27.875 -1.421875 
Q 17.96875 -1.421875 11.734375 6.484375 
Q 5.515625 14.40625 5.515625 27.296875 
Q 5.515625 40.1875 11.734375 48.09375 
Q 17.96875 56 27.875 56 
Q 33.9375 56 38.25 53.625 
Q 42.578125 51.265625 45.40625 46.390625 
z
M 14.796875 27.296875 
Q 14.796875 17.390625 18.875 11.75 
Q 22.953125 6.109375 30.078125 6.109375 
Q 37.203125 6.109375 41.296875 11.75 
Q 45.40625 17.390625 45.40625 27.296875 
Q 45.40625 37.203125 41.296875 42.84375 
Q 37.203125 48.484375 30.078125 48.484375 
Q 22.953125 48.484375 18.875 42.84375 
Q 14.796875 37.203125 14.796875 27.296875 
z
" id="DejaVuSans-100"/>
     <path d="M 48.6875 27.296875 
Q 48.6875 37.203125 44.609375 42.84375 
Q 40.53125 48.484375 33.40625 48.484375 
Q 26.265625 48.484375 22.1875 42.84375 
Q 18.109375 37.203125 18.109375 27.296875 
Q 18.109375 17.390625 22.1875 11.75 
Q 26.265625 6.109375 33.40625 6.109375 
Q 40.53125 6.109375 44.609375 11.75 
Q 48.6875 17.390625 48.6875 27.296875 
z
M 18.109375 46.390625 
Q 20.953125 51.265625 25.265625 53.625 
Q 29.59375 56 35.59375 56 
Q 45.5625 56 51.78125 48.09375 
Q 58.015625 40.1875 58.015625 27.296875 
Q 58.015625 14.40625 51.78125 6.484375 
Q 45.5625 -1.421875 35.59375 -1.421875 
Q 29.59375 -1.421875 25.265625 0.953125 
Q 20.953125 3.328125 18.109375 8.203125 
L 18.109375 0 
L 9.078125 0 
L 9.078125 75.984375 
L 18.109375 75.984375 
z
" id="DejaVuSans-98"/>
     <path d="M 37.109375 75.984375 
L 37.109375 68.5 
L 28.515625 68.5 
Q 23.6875 68.5 21.796875 66.546875 
Q 19.921875 64.59375 19.921875 59.515625 
L 19.921875 54.6875 
L 34.71875 54.6875 
L 34.71875 47.703125 
L 19.921875 47.703125 
L 19.921875 0 
L 10.890625 0 
L 10.890625 47.703125 
L 2.296875 47.703125 
L 2.296875 54.6875 
L 10.890625 54.6875 
L 10.890625 58.5 
Q 10.890625 67.625 15.140625 71.796875 
Q 19.390625 75.984375 28.609375 75.984375 
z
" id="DejaVuSans-102"/>
    </defs>
    <g transform="translate(123.315 35.472)scale(0.12 -0.12)">
     <use xlink:href="#DejaVuSans-80"/>
     <use x="60.255859" xlink:href="#DejaVuSans-111"/>
     <use x="121.4375" xlink:href="#DejaVuSans-112"/>
     <use x="184.914062" xlink:href="#DejaVuSans-117"/>
     <use x="248.292969" xlink:href="#DejaVuSans-108"/>
     <use x="276.076172" xlink:href="#DejaVuSans-97"/>
     <use x="337.355469" xlink:href="#DejaVuSans-116"/>
     <use x="376.564453" xlink:href="#DejaVuSans-105"/>
     <use x="404.347656" xlink:href="#DejaVuSans-111"/>
     <use x="465.529297" xlink:href="#DejaVuSans-110"/>
     <use x="528.908203" xlink:href="#DejaVuSans-39"/>
     <use x="556.398438" xlink:href="#DejaVuSans-115"/>
     <use x="608.498047" xlink:href="#DejaVuSans-32"/>
     <use x="640.285156" xlink:href="#DejaVuSans-97"/>
     <use x="701.564453" xlink:href="#DejaVuSans-118"/>
     <use x="760.744141" xlink:href="#DejaVuSans-101"/>
     <use x="822.267578" xlink:href="#DejaVuSans-114"/>
     <use x="863.380859" xlink:href="#DejaVuSans-97"/>
     <use x="924.660156" xlink:href="#DejaVuSans-103"/>
     <use x="988.136719" xlink:href="#DejaVuSans-101"/>
     <use x="1049.660156" xlink:href="#DejaVuSans-32"/>
     <use x="1081.447266" xlink:href="#DejaVuSans-97"/>
     <use x="1142.726562" xlink:href="#DejaVuSans-110"/>
     <use x="1206.105469" xlink:href="#DejaVuSans-100"/>
     <use x="1269.582031" xlink:href="#DejaVuSans-32"/>
     <use x="1301.369141" xlink:href="#DejaVuSans-98"/>
     <use x="1364.845703" xlink:href="#DejaVuSans-101"/>
     <use x="1426.369141" xlink:href="#DejaVuSans-115"/>
     <use x="1478.46875" xlink:href="#DejaVuSans-116"/>
     <use x="1517.677734" xlink:href="#DejaVuSans-32"/>
     <use x="1549.464844" xlink:href="#DejaVuSans-102"/>
     <use x="1584.669922" xlink:href="#DejaVuSans-105"/>
     <use x="1612.453125" xlink:href="#DejaVuSans-116"/>
     <use x="1651.662109" xlink:href="#DejaVuSans-110"/>
     <use x="1715.041016" xlink:href="#DejaVuSans-101"/>
     <use x="1776.564453" xlink:href="#DejaVuSans-115"/>
     <use x="1828.664062" xlink:href="#DejaVuSans-115"/>
    </g>
   </g>
   <g id="legend_1">
    <g id="patch_7">
     <path d="M 334.779375 302.584 
L 407.72 302.584 
Q 409.72 302.584 409.72 300.584 
L 409.72 257.549625 
Q 409.72 255.549625 407.72 255.549625 
L 334.779375 255.549625 
Q 332.779375 255.549625 332.779375 257.549625 
L 332.779375 300.584 
Q 332.779375 302.584 334.779375 302.584 
z
" style="fill:#ffffff;opacity:0.8;stroke:#cccccc;stroke-linejoin:miter;"/>
    </g>
    <g id="line2d_32">
     <path d="M 336.779375 263.648062 
L 356.779375 263.648062 
" style="fill:none;stroke:#0000ff;stroke-linecap:square;stroke-width:1.5;"/>
    </g>
    <g id="line2d_33"/>
    <g id="text_18">
     <!-- average -->
     <g transform="translate(364.779375 267.148062)scale(0.1 -0.1)">
      <use xlink:href="#DejaVuSans-97"/>
      <use x="61.279297" xlink:href="#DejaVuSans-118"/>
      <use x="120.458984" xlink:href="#DejaVuSans-101"/>
      <use x="181.982422" xlink:href="#DejaVuSans-114"/>
      <use x="223.095703" xlink:href="#DejaVuSans-97"/>
      <use x="284.375" xlink:href="#DejaVuSans-103"/>
      <use x="347.851562" xlink:href="#DejaVuSans-101"/>
     </g>
    </g>
    <g id="line2d_34">
     <path d="M 336.779375 278.326188 
L 356.779375 278.326188 
" style="fill:none;stroke:#008000;stroke-dasharray:9.6,2.4,1.5,2.4;stroke-dashoffset:0;stroke-width:1.5;"/>
    </g>
    <g id="line2d_35"/>
    <g id="text_19">
     <!-- +1 sd -->
     <defs>
      <path d="M 46 62.703125 
L 46 35.5 
L 73.1875 35.5 
L 73.1875 27.203125 
L 46 27.203125 
L 46 0 
L 37.796875 0 
L 37.796875 27.203125 
L 10.59375 27.203125 
L 10.59375 35.5 
L 37.796875 35.5 
L 37.796875 62.703125 
z
" id="DejaVuSans-43"/>
     </defs>
     <g transform="translate(364.779375 281.826188)scale(0.1 -0.1)">
      <use xlink:href="#DejaVuSans-43"/>
      <use x="83.789062" xlink:href="#DejaVuSans-49"/>
      <use x="147.412109" xlink:href="#DejaVuSans-32"/>
      <use x="179.199219" xlink:href="#DejaVuSans-115"/>
      <use x="231.298828" xlink:href="#DejaVuSans-100"/>
     </g>
    </g>
    <g id="line2d_36">
     <path d="M 336.779375 293.004312 
L 356.779375 293.004312 
" style="fill:none;stroke:#ff0000;stroke-linecap:square;stroke-width:1.5;"/>
    </g>
    <g id="line2d_37"/>
    <g id="text_20">
     <!-- best -->
     <g transform="translate(364.779375 296.504312)scale(0.1 -0.1)">
      <use xlink:href="#DejaVuSans-98"/>
      <use x="63.476562" xlink:href="#DejaVuSans-101"/>
      <use x="125" xlink:href="#DejaVuSans-115"/>
      <use x="177.099609" xlink:href="#DejaVuSans-116"/>
     </g>
    </g>
   </g>
  </g>
 </g>
 <defs>
  <clipPath id="p8b0dc1146d">
   <rect height="266.112" width="357.12" x="57.6" y="41.472"/>
  </clipPath>
 </defs>
</svg>
