<?xml version="1.0" encoding="utf-8" standalone="no"?>
<!DOCTYPE svg PUBLIC "-//W3C//DTD SVG 1.1//EN"
  "http://www.w3.org/Graphics/SVG/1.1/DTD/svg11.dtd">
<!-- Created with matplotlib (https://matplotlib.org/) -->
<svg height="345.6pt" version="1.1" viewBox="0 0 460.8 345.6" width="460.8pt" xmlns="http://www.w3.org/2000/svg" xmlns:xlink="http://www.w3.org/1999/xlink">
 <defs>
  <style type="text/css">
*{stroke-linecap:butt;stroke-linejoin:round;}
  </style>
 </defs>
 <g id="figure_1">
  <g id="patch_1">
   <path d="M 0 345.6 
L 460.8 345.6 
L 460.8 0 
L 0 0 
z
" style="fill:#ffffff;"/>
  </g>
  <g id="axes_1">
   <g id="patch_2">
    <path d="M 57.6 307.584 
L 414.72 307.584 
L 414.72 41.472 
L 57.6 41.472 
z
" style="fill:#ffffff;"/>
   </g>
   <g id="matplotlib.axis_1">
    <g id="xtick_1">
     <g id="line2d_1">
      <path clip-path="url(#p599fafe778)" d="M 73.832727 307.584 
L 73.832727 41.472 
" style="fill:none;stroke:#b0b0b0;stroke-linecap:square;stroke-width:0.8;"/>
     </g>
     <g id="line2d_2">
      <defs>
       <path d="M 0 0 
L 0 3.5 
" id="mb9c6b628a4" style="stroke:#000000;stroke-width:0.8;"/>
      </defs>
      <g>
       <use style="stroke:#000000;stroke-width:0.8;" x="73.832727" xlink:href="#mb9c6b628a4" y="307.584"/>
      </g>
     </g>
     <g id="text_1">
      <!-- 0 -->
      <defs>
       <path d="M 31.78125 66.40625 
Q 24.171875 66.40625 20.328125 58.90625 
Q 16.5 51.421875 16.5 36.375 
Q 16.5 21.390625 20.328125 13.890625 
Q 24.171875 6.390625 31.78125 6.390625 
Q 39.453125 6.390625 43.28125 13.890625 
Q 47.125 21.390625 47.125 36.375 
Q 47.125 51.421875 43.28125 58.90625 
Q 39.453125 66.40625 31.78125 66.40625 
z
M 31.78125 74.21875 
Q 44.046875 74.21875 50.515625 64.515625 
Q 56.984375 54.828125 56.984375 36.375 
Q 56.984375 17.96875 50.515625 8.265625 
Q 44.046875 -1.421875 31.78125 -1.421875 
Q 19.53125 -1.421875 13.0625 8.265625 
Q 6.59375 17.96875 6.59375 36.375 
Q 6.59375 54.828125 13.0625 64.515625 
Q 19.53125 74.21875 31.78125 74.21875 
z
" id="DejaVuSans-48"/>
      </defs>
      <g transform="translate(70.651477 322.182437)scale(0.1 -0.1)">
       <use xlink:href="#DejaVuSans-48"/>
      </g>
     </g>
    </g>
    <g id="xtick_2">
     <g id="line2d_3">
      <path clip-path="url(#p599fafe778)" d="M 138.893758 307.584 
L 138.893758 41.472 
" style="fill:none;stroke:#b0b0b0;stroke-linecap:square;stroke-width:0.8;"/>
     </g>
     <g id="line2d_4">
      <g>
       <use style="stroke:#000000;stroke-width:0.8;" x="138.893758" xlink:href="#mb9c6b628a4" y="307.584"/>
      </g>
     </g>
     <g id="text_2">
      <!-- 100 -->
      <defs>
       <path d="M 12.40625 8.296875 
L 28.515625 8.296875 
L 28.515625 63.921875 
L 10.984375 60.40625 
L 10.984375 69.390625 
L 28.421875 72.90625 
L 38.28125 72.90625 
L 38.28125 8.296875 
L 54.390625 8.296875 
L 54.390625 0 
L 12.40625 0 
z
" id="DejaVuSans-49"/>
      </defs>
      <g transform="translate(129.350008 322.182437)scale(0.1 -0.1)">
       <use xlink:href="#DejaVuSans-49"/>
       <use x="63.623047" xlink:href="#DejaVuSans-48"/>
       <use x="127.246094" xlink:href="#DejaVuSans-48"/>
      </g>
     </g>
    </g>
    <g id="xtick_3">
     <g id="line2d_5">
      <path clip-path="url(#p599fafe778)" d="M 203.95479 307.584 
L 203.95479 41.472 
" style="fill:none;stroke:#b0b0b0;stroke-linecap:square;stroke-width:0.8;"/>
     </g>
     <g id="line2d_6">
      <g>
       <use style="stroke:#000000;stroke-width:0.8;" x="203.95479" xlink:href="#mb9c6b628a4" y="307.584"/>
      </g>
     </g>
     <g id="text_3">
      <!-- 200 -->
      <defs>
       <path d="M 19.1875 8.296875 
L 53.609375 8.296875 
L 53.609375 0 
L 7.328125 0 
L 7.328125 8.296875 
Q 12.9375 14.109375 22.625 23.890625 
Q 32.328125 33.6875 34.8125 36.53125 
Q 39.546875 41.84375 41.421875 45.53125 
Q 43.3125 49.21875 43.3125 52.78125 
Q 43.3125 58.59375 39.234375 62.25 
Q 35.15625 65.921875 28.609375 65.921875 
Q 23.96875 65.921875 18.8125 64.3125 
Q 13.671875 62.703125 7.8125 59.421875 
L 7.8125 69.390625 
Q 13.765625 71.78125 18.9375 73 
Q 24.125 74.21875 28.421875 74.21875 
Q 39.75 74.21875 46.484375 68.546875 
Q 53.21875 62.890625 53.21875 53.421875 
Q 53.21875 48.921875 51.53125 44.890625 
Q 49.859375 40.875 45.40625 35.40625 
Q 44.1875 33.984375 37.640625 27.21875 
Q 31.109375 20.453125 19.1875 8.296875 
z
" id="DejaVuSans-50"/>
      </defs>
      <g transform="translate(194.41104 322.182437)scale(0.1 -0.1)">
       <use xlink:href="#DejaVuSans-50"/>
       <use x="63.623047" xlink:href="#DejaVuSans-48"/>
       <use x="127.246094" xlink:href="#DejaVuSans-48"/>
      </g>
     </g>
    </g>
    <g id="xtick_4">
     <g id="line2d_7">
      <path clip-path="url(#p599fafe778)" d="M 269.015821 307.584 
L 269.015821 41.472 
" style="fill:none;stroke:#b0b0b0;stroke-linecap:square;stroke-width:0.8;"/>
     </g>
     <g id="line2d_8">
      <g>
       <use style="stroke:#000000;stroke-width:0.8;" x="269.015821" xlink:href="#mb9c6b628a4" y="307.584"/>
      </g>
     </g>
     <g id="text_4">
      <!-- 300 -->
      <defs>
       <path d="M 40.578125 39.3125 
Q 47.65625 37.796875 51.625 33 
Q 55.609375 28.21875 55.609375 21.1875 
Q 55.609375 10.40625 48.1875 4.484375 
Q 40.765625 -1.421875 27.09375 -1.421875 
Q 22.515625 -1.421875 17.65625 -0.515625 
Q 12.796875 0.390625 7.625 2.203125 
L 7.625 11.71875 
Q 11.71875 9.328125 16.59375 8.109375 
Q 21.484375 6.890625 26.8125 6.890625 
Q 36.078125 6.890625 40.9375 10.546875 
Q 45.796875 14.203125 45.796875 21.1875 
Q 45.796875 27.640625 41.28125 31.265625 
Q 36.765625 34.90625 28.71875 34.90625 
L 20.21875 34.90625 
L 20.21875 43.015625 
L 29.109375 43.015625 
Q 36.375 43.015625 40.234375 45.921875 
Q 44.09375 48.828125 44.09375 54.296875 
Q 44.09375 59.90625 40.109375 62.90625 
Q 36.140625 65.921875 28.71875 65.921875 
Q 24.65625 65.921875 20.015625 65.03125 
Q 15.375 64.15625 9.8125 62.3125 
L 9.8125 71.09375 
Q 15.4375 72.65625 20.34375 73.4375 
Q 25.25 74.21875 29.59375 74.21875 
Q 40.828125 74.21875 47.359375 69.109375 
Q 53.90625 64.015625 53.90625 55.328125 
Q 53.90625 49.265625 50.4375 45.09375 
Q 46.96875 40.921875 40.578125 39.3125 
z
" id="DejaVuSans-51"/>
      </defs>
      <g transform="translate(259.472071 322.182437)scale(0.1 -0.1)">
       <use xlink:href="#DejaVuSans-51"/>
       <use x="63.623047" xlink:href="#DejaVuSans-48"/>
       <use x="127.246094" xlink:href="#DejaVuSans-48"/>
      </g>
     </g>
    </g>
    <g id="xtick_5">
     <g id="line2d_9">
      <path clip-path="url(#p599fafe778)" d="M 334.076852 307.584 
L 334.076852 41.472 
" style="fill:none;stroke:#b0b0b0;stroke-linecap:square;stroke-width:0.8;"/>
     </g>
     <g id="line2d_10">
      <g>
       <use style="stroke:#000000;stroke-width:0.8;" x="334.076852" xlink:href="#mb9c6b628a4" y="307.584"/>
      </g>
     </g>
     <g id="text_5">
      <!-- 400 -->
      <defs>
       <path d="M 37.796875 64.3125 
L 12.890625 25.390625 
L 37.796875 25.390625 
z
M 35.203125 72.90625 
L 47.609375 72.90625 
L 47.609375 25.390625 
L 58.015625 25.390625 
L 58.015625 17.1875 
L 47.609375 17.1875 
L 47.609375 0 
L 37.796875 0 
L 37.796875 17.1875 
L 4.890625 17.1875 
L 4.890625 26.703125 
z
" id="DejaVuSans-52"/>
      </defs>
      <g transform="translate(324.533102 322.182437)scale(0.1 -0.1)">
       <use xlink:href="#DejaVuSans-52"/>
       <use x="63.623047" xlink:href="#DejaVuSans-48"/>
       <use x="127.246094" xlink:href="#DejaVuSans-48"/>
      </g>
     </g>
    </g>
    <g id="xtick_6">
     <g id="line2d_11">
      <path clip-path="url(#p599fafe778)" d="M 399.137883 307.584 
L 399.137883 41.472 
" style="fill:none;stroke:#b0b0b0;stroke-linecap:square;stroke-width:0.8;"/>
     </g>
     <g id="line2d_12">
      <g>
       <use style="stroke:#000000;stroke-width:0.8;" x="399.137883" xlink:href="#mb9c6b628a4" y="307.584"/>
      </g>
     </g>
     <g id="text_6">
      <!-- 500 -->
      <defs>
       <path d="M 10.796875 72.90625 
L 49.515625 72.90625 
L 49.515625 64.59375 
L 19.828125 64.59375 
L 19.828125 46.734375 
Q 21.96875 47.46875 24.109375 47.828125 
Q 26.265625 48.1875 28.421875 48.1875 
Q 40.625 48.1875 47.75 41.5 
Q 54.890625 34.8125 54.890625 23.390625 
Q 54.890625 11.625 47.5625 5.09375 
Q 40.234375 -1.421875 26.90625 -1.421875 
Q 22.3125 -1.421875 17.546875 -0.640625 
Q 12.796875 0.140625 7.71875 1.703125 
L 7.71875 11.625 
Q 12.109375 9.234375 16.796875 8.0625 
Q 21.484375 6.890625 26.703125 6.890625 
Q 35.15625 6.890625 40.078125 11.328125 
Q 45.015625 15.765625 45.015625 23.390625 
Q 45.015625 31 40.078125 35.4375 
Q 35.15625 39.890625 26.703125 39.890625 
Q 22.75 39.890625 18.8125 39.015625 
Q 14.890625 38.140625 10.796875 36.28125 
z
" id="DejaVuSans-53"/>
      </defs>
      <g transform="translate(389.594133 322.182437)scale(0.1 -0.1)">
       <use xlink:href="#DejaVuSans-53"/>
       <use x="63.623047" xlink:href="#DejaVuSans-48"/>
       <use x="127.246094" xlink:href="#DejaVuSans-48"/>
      </g>
     </g>
    </g>
    <g id="text_7">
     <!-- Generations -->
     <defs>
      <path d="M 59.515625 10.40625 
L 59.515625 29.984375 
L 43.40625 29.984375 
L 43.40625 38.09375 
L 69.28125 38.09375 
L 69.28125 6.78125 
Q 63.578125 2.734375 56.6875 0.65625 
Q 49.8125 -1.421875 42 -1.421875 
Q 24.90625 -1.421875 15.25 8.5625 
Q 5.609375 18.5625 5.609375 36.375 
Q 5.609375 54.25 15.25 64.234375 
Q 24.90625 74.21875 42 74.21875 
Q 49.125 74.21875 55.546875 72.453125 
Q 61.96875 70.703125 67.390625 67.28125 
L 67.390625 56.78125 
Q 61.921875 61.421875 55.765625 63.765625 
Q 49.609375 66.109375 42.828125 66.109375 
Q 29.4375 66.109375 22.71875 58.640625 
Q 16.015625 51.171875 16.015625 36.375 
Q 16.015625 21.625 22.71875 14.15625 
Q 29.4375 6.6875 42.828125 6.6875 
Q 48.046875 6.6875 52.140625 7.59375 
Q 56.25 8.5 59.515625 10.40625 
z
" id="DejaVuSans-71"/>
      <path d="M 56.203125 29.59375 
L 56.203125 25.203125 
L 14.890625 25.203125 
Q 15.484375 15.921875 20.484375 11.0625 
Q 25.484375 6.203125 34.421875 6.203125 
Q 39.59375 6.203125 44.453125 7.46875 
Q 49.3125 8.734375 54.109375 11.28125 
L 54.109375 2.78125 
Q 49.265625 0.734375 44.1875 -0.34375 
Q 39.109375 -1.421875 33.890625 -1.421875 
Q 20.796875 -1.421875 13.15625 6.1875 
Q 5.515625 13.8125 5.515625 26.8125 
Q 5.515625 40.234375 12.765625 48.109375 
Q 20.015625 56 32.328125 56 
Q 43.359375 56 49.78125 48.890625 
Q 56.203125 41.796875 56.203125 29.59375 
z
M 47.21875 32.234375 
Q 47.125 39.59375 43.09375 43.984375 
Q 39.0625 48.390625 32.421875 48.390625 
Q 24.90625 48.390625 20.390625 44.140625 
Q 15.875 39.890625 15.1875 32.171875 
z
" id="DejaVuSans-101"/>
      <path d="M 54.890625 33.015625 
L 54.890625 0 
L 45.90625 0 
L 45.90625 32.71875 
Q 45.90625 40.484375 42.875 44.328125 
Q 39.84375 48.1875 33.796875 48.1875 
Q 26.515625 48.1875 22.3125 43.546875 
Q 18.109375 38.921875 18.109375 30.90625 
L 18.109375 0 
L 9.078125 0 
L 9.078125 54.6875 
L 18.109375 54.6875 
L 18.109375 46.1875 
Q 21.34375 51.125 25.703125 53.5625 
Q 30.078125 56 35.796875 56 
Q 45.21875 56 50.046875 50.171875 
Q 54.890625 44.34375 54.890625 33.015625 
z
" id="DejaVuSans-110"/>
      <path d="M 41.109375 46.296875 
Q 39.59375 47.171875 37.8125 47.578125 
Q 36.03125 48 33.890625 48 
Q 26.265625 48 22.1875 43.046875 
Q 18.109375 38.09375 18.109375 28.8125 
L 18.109375 0 
L 9.078125 0 
L 9.078125 54.6875 
L 18.109375 54.6875 
L 18.109375 46.1875 
Q 20.953125 51.171875 25.484375 53.578125 
Q 30.03125 56 36.53125 56 
Q 37.453125 56 38.578125 55.875 
Q 39.703125 55.765625 41.0625 55.515625 
z
" id="DejaVuSans-114"/>
      <path d="M 34.28125 27.484375 
Q 23.390625 27.484375 19.1875 25 
Q 14.984375 22.515625 14.984375 16.5 
Q 14.984375 11.71875 18.140625 8.90625 
Q 21.296875 6.109375 26.703125 6.109375 
Q 34.1875 6.109375 38.703125 11.40625 
Q 43.21875 16.703125 43.21875 25.484375 
L 43.21875 27.484375 
z
M 52.203125 31.203125 
L 52.203125 0 
L 43.21875 0 
L 43.21875 8.296875 
Q 40.140625 3.328125 35.546875 0.953125 
Q 30.953125 -1.421875 24.3125 -1.421875 
Q 15.921875 -1.421875 10.953125 3.296875 
Q 6 8.015625 6 15.921875 
Q 6 25.140625 12.171875 29.828125 
Q 18.359375 34.515625 30.609375 34.515625 
L 43.21875 34.515625 
L 43.21875 35.40625 
Q 43.21875 41.609375 39.140625 45 
Q 35.0625 48.390625 27.6875 48.390625 
Q 23 48.390625 18.546875 47.265625 
Q 14.109375 46.140625 10.015625 43.890625 
L 10.015625 52.203125 
Q 14.9375 54.109375 19.578125 55.046875 
Q 24.21875 56 28.609375 56 
Q 40.484375 56 46.34375 49.84375 
Q 52.203125 43.703125 52.203125 31.203125 
z
" id="DejaVuSans-97"/>
      <path d="M 18.3125 70.21875 
L 18.3125 54.6875 
L 36.8125 54.6875 
L 36.8125 47.703125 
L 18.3125 47.703125 
L 18.3125 18.015625 
Q 18.3125 11.328125 20.140625 9.421875 
Q 21.96875 7.515625 27.59375 7.515625 
L 36.8125 7.515625 
L 36.8125 0 
L 27.59375 0 
Q 17.1875 0 13.234375 3.875 
Q 9.28125 7.765625 9.28125 18.015625 
L 9.28125 47.703125 
L 2.6875 47.703125 
L 2.6875 54.6875 
L 9.28125 54.6875 
L 9.28125 70.21875 
z
" id="DejaVuSans-116"/>
      <path d="M 9.421875 54.6875 
L 18.40625 54.6875 
L 18.40625 0 
L 9.421875 0 
z
M 9.421875 75.984375 
L 18.40625 75.984375 
L 18.40625 64.59375 
L 9.421875 64.59375 
z
" id="DejaVuSans-105"/>
      <path d="M 30.609375 48.390625 
Q 23.390625 48.390625 19.1875 42.75 
Q 14.984375 37.109375 14.984375 27.296875 
Q 14.984375 17.484375 19.15625 11.84375 
Q 23.34375 6.203125 30.609375 6.203125 
Q 37.796875 6.203125 41.984375 11.859375 
Q 46.1875 17.53125 46.1875 27.296875 
Q 46.1875 37.015625 41.984375 42.703125 
Q 37.796875 48.390625 30.609375 48.390625 
z
M 30.609375 56 
Q 42.328125 56 49.015625 48.375 
Q 55.71875 40.765625 55.71875 27.296875 
Q 55.71875 13.875 49.015625 6.21875 
Q 42.328125 -1.421875 30.609375 -1.421875 
Q 18.84375 -1.421875 12.171875 6.21875 
Q 5.515625 13.875 5.515625 27.296875 
Q 5.515625 40.765625 12.171875 48.375 
Q 18.84375 56 30.609375 56 
z
" id="DejaVuSans-111"/>
      <path d="M 44.28125 53.078125 
L 44.28125 44.578125 
Q 40.484375 46.53125 36.375 47.5 
Q 32.28125 48.484375 27.875 48.484375 
Q 21.1875 48.484375 17.84375 46.4375 
Q 14.5 44.390625 14.5 40.28125 
Q 14.5 37.15625 16.890625 35.375 
Q 19.28125 33.59375 26.515625 31.984375 
L 29.59375 31.296875 
Q 39.15625 29.25 43.1875 25.515625 
Q 47.21875 21.78125 47.21875 15.09375 
Q 47.21875 7.46875 41.1875 3.015625 
Q 35.15625 -1.421875 24.609375 -1.421875 
Q 20.21875 -1.421875 15.453125 -0.5625 
Q 10.6875 0.296875 5.421875 2 
L 5.421875 11.28125 
Q 10.40625 8.6875 15.234375 7.390625 
Q 20.0625 6.109375 24.8125 6.109375 
Q 31.15625 6.109375 34.5625 8.28125 
Q 37.984375 10.453125 37.984375 14.40625 
Q 37.984375 18.0625 35.515625 20.015625 
Q 33.0625 21.96875 24.703125 23.78125 
L 21.578125 24.515625 
Q 13.234375 26.265625 9.515625 29.90625 
Q 5.8125 33.546875 5.8125 39.890625 
Q 5.8125 47.609375 11.28125 51.796875 
Q 16.75 56 26.8125 56 
Q 31.78125 56 36.171875 55.265625 
Q 40.578125 54.546875 44.28125 53.078125 
z
" id="DejaVuSans-115"/>
     </defs>
     <g transform="translate(205.662344 335.860562)scale(0.1 -0.1)">
      <use xlink:href="#DejaVuSans-71"/>
      <use x="77.490234" xlink:href="#DejaVuSans-101"/>
      <use x="139.013672" xlink:href="#DejaVuSans-110"/>
      <use x="202.392578" xlink:href="#DejaVuSans-101"/>
      <use x="263.916016" xlink:href="#DejaVuSans-114"/>
      <use x="305.029297" xlink:href="#DejaVuSans-97"/>
      <use x="366.308594" xlink:href="#DejaVuSans-116"/>
      <use x="405.517578" xlink:href="#DejaVuSans-105"/>
      <use x="433.300781" xlink:href="#DejaVuSans-111"/>
      <use x="494.482422" xlink:href="#DejaVuSans-110"/>
      <use x="557.861328" xlink:href="#DejaVuSans-115"/>
     </g>
    </g>
   </g>
   <g id="matplotlib.axis_2">
    <g id="ytick_1">
     <g id="line2d_13">
      <path clip-path="url(#p599fafe778)" d="M 57.6 298.032679 
L 414.72 298.032679 
" style="fill:none;stroke:#b0b0b0;stroke-linecap:square;stroke-width:0.8;"/>
     </g>
     <g id="line2d_14">
      <defs>
       <path d="M 0 0 
L -3.5 0 
" id="mfb515bf877" style="stroke:#000000;stroke-width:0.8;"/>
      </defs>
      <g>
       <use style="stroke:#000000;stroke-width:0.8;" x="57.6" xlink:href="#mfb515bf877" y="298.032679"/>
      </g>
     </g>
     <g id="text_8">
      <!-- 15 -->
      <g transform="translate(37.875 301.831898)scale(0.1 -0.1)">
       <use xlink:href="#DejaVuSans-49"/>
       <use x="63.623047" xlink:href="#DejaVuSans-53"/>
      </g>
     </g>
    </g>
    <g id="ytick_2">
     <g id="line2d_15">
      <path clip-path="url(#p599fafe778)" d="M 57.6 263.109153 
L 414.72 263.109153 
" style="fill:none;stroke:#b0b0b0;stroke-linecap:square;stroke-width:0.8;"/>
     </g>
     <g id="line2d_16">
      <g>
       <use style="stroke:#000000;stroke-width:0.8;" x="57.6" xlink:href="#mfb515bf877" y="263.109153"/>
      </g>
     </g>
     <g id="text_9">
      <!-- 20 -->
      <g transform="translate(37.875 266.908372)scale(0.1 -0.1)">
       <use xlink:href="#DejaVuSans-50"/>
       <use x="63.623047" xlink:href="#DejaVuSans-48"/>
      </g>
     </g>
    </g>
    <g id="ytick_3">
     <g id="line2d_17">
      <path clip-path="url(#p599fafe778)" d="M 57.6 228.185628 
L 414.72 228.185628 
" style="fill:none;stroke:#b0b0b0;stroke-linecap:square;stroke-width:0.8;"/>
     </g>
     <g id="line2d_18">
      <g>
       <use style="stroke:#000000;stroke-width:0.8;" x="57.6" xlink:href="#mfb515bf877" y="228.185628"/>
      </g>
     </g>
     <g id="text_10">
      <!-- 25 -->
      <g transform="translate(37.875 231.984847)scale(0.1 -0.1)">
       <use xlink:href="#DejaVuSans-50"/>
       <use x="63.623047" xlink:href="#DejaVuSans-53"/>
      </g>
     </g>
    </g>
    <g id="ytick_4">
     <g id="line2d_19">
      <path clip-path="url(#p599fafe778)" d="M 57.6 193.262102 
L 414.72 193.262102 
" style="fill:none;stroke:#b0b0b0;stroke-linecap:square;stroke-width:0.8;"/>
     </g>
     <g id="line2d_20">
      <g>
       <use style="stroke:#000000;stroke-width:0.8;" x="57.6" xlink:href="#mfb515bf877" y="193.262102"/>
      </g>
     </g>
     <g id="text_11">
      <!-- 30 -->
      <g transform="translate(37.875 197.061321)scale(0.1 -0.1)">
       <use xlink:href="#DejaVuSans-51"/>
       <use x="63.623047" xlink:href="#DejaVuSans-48"/>
      </g>
     </g>
    </g>
    <g id="ytick_5">
     <g id="line2d_21">
      <path clip-path="url(#p599fafe778)" d="M 57.6 158.338577 
L 414.72 158.338577 
" style="fill:none;stroke:#b0b0b0;stroke-linecap:square;stroke-width:0.8;"/>
     </g>
     <g id="line2d_22">
      <g>
       <use style="stroke:#000000;stroke-width:0.8;" x="57.6" xlink:href="#mfb515bf877" y="158.338577"/>
      </g>
     </g>
     <g id="text_12">
      <!-- 35 -->
      <g transform="translate(37.875 162.137795)scale(0.1 -0.1)">
       <use xlink:href="#DejaVuSans-51"/>
       <use x="63.623047" xlink:href="#DejaVuSans-53"/>
      </g>
     </g>
    </g>
    <g id="ytick_6">
     <g id="line2d_23">
      <path clip-path="url(#p599fafe778)" d="M 57.6 123.415051 
L 414.72 123.415051 
" style="fill:none;stroke:#b0b0b0;stroke-linecap:square;stroke-width:0.8;"/>
     </g>
     <g id="line2d_24">
      <g>
       <use style="stroke:#000000;stroke-width:0.8;" x="57.6" xlink:href="#mfb515bf877" y="123.415051"/>
      </g>
     </g>
     <g id="text_13">
      <!-- 40 -->
      <g transform="translate(37.875 127.21427)scale(0.1 -0.1)">
       <use xlink:href="#DejaVuSans-52"/>
       <use x="63.623047" xlink:href="#DejaVuSans-48"/>
      </g>
     </g>
    </g>
    <g id="ytick_7">
     <g id="line2d_25">
      <path clip-path="url(#p599fafe778)" d="M 57.6 88.491526 
L 414.72 88.491526 
" style="fill:none;stroke:#b0b0b0;stroke-linecap:square;stroke-width:0.8;"/>
     </g>
     <g id="line2d_26">
      <g>
       <use style="stroke:#000000;stroke-width:0.8;" x="57.6" xlink:href="#mfb515bf877" y="88.491526"/>
      </g>
     </g>
     <g id="text_14">
      <!-- 45 -->
      <g transform="translate(37.875 92.290744)scale(0.1 -0.1)">
       <use xlink:href="#DejaVuSans-52"/>
       <use x="63.623047" xlink:href="#DejaVuSans-53"/>
      </g>
     </g>
    </g>
    <g id="ytick_8">
     <g id="line2d_27">
      <path clip-path="url(#p599fafe778)" d="M 57.6 53.568 
L 414.72 53.568 
" style="fill:none;stroke:#b0b0b0;stroke-linecap:square;stroke-width:0.8;"/>
     </g>
     <g id="line2d_28">
      <g>
       <use style="stroke:#000000;stroke-width:0.8;" x="57.6" xlink:href="#mfb515bf877" y="53.568"/>
      </g>
     </g>
     <g id="text_15">
      <!-- 50 -->
      <g transform="translate(37.875 57.367219)scale(0.1 -0.1)">
       <use xlink:href="#DejaVuSans-53"/>
       <use x="63.623047" xlink:href="#DejaVuSans-48"/>
      </g>
     </g>
    </g>
    <g id="text_16">
     <!-- Fitness -->
     <defs>
      <path d="M 9.8125 72.90625 
L 51.703125 72.90625 
L 51.703125 64.59375 
L 19.671875 64.59375 
L 19.671875 43.109375 
L 48.578125 43.109375 
L 48.578125 34.8125 
L 19.671875 34.8125 
L 19.671875 0 
L 9.8125 0 
z
" id="DejaVuSans-70"/>
     </defs>
     <g transform="translate(31.795312 192.202219)rotate(-90)scale(0.1 -0.1)">
      <use xlink:href="#DejaVuSans-70"/>
      <use x="57.410156" xlink:href="#DejaVuSans-105"/>
      <use x="85.193359" xlink:href="#DejaVuSans-116"/>
      <use x="124.402344" xlink:href="#DejaVuSans-110"/>
      <use x="187.78125" xlink:href="#DejaVuSans-101"/>
      <use x="249.304688" xlink:href="#DejaVuSans-115"/>
      <use x="301.404297" xlink:href="#DejaVuSans-115"/>
     </g>
    </g>
   </g>
   <g id="line2d_29">
    <path clip-path="url(#p599fafe778)" d="M 73.832727 294.680021 
L 74.483338 295.488 
L 75.133948 293.209083 
L 75.784558 294.053617 
L 76.435169 293.193154 
L 77.085779 293.563875 
L 77.736389 292.924462 
L 78.386999 294.298282 
L 79.03761 292.692431 
L 79.68822 293.228478 
L 80.33883 293.478219 
L 80.989441 295.442443 
L 81.640051 294.342306 
L 83.591882 292.367503 
L 84.242492 291.408364 
L 84.893103 292.662529 
L 85.543713 292.772377 
L 86.194323 291.535684 
L 86.844934 289.53031 
L 87.495544 288.650239 
L 88.146154 289.22979 
L 88.796764 289.610488 
L 89.447375 288.556035 
L 90.097985 288.587042 
L 90.748595 287.110168 
L 91.399206 287.876348 
L 92.049816 289.701308 
L 92.700426 287.069344 
L 93.351037 285.502864 
L 94.001647 285.738892 
L 95.302868 283.385142 
L 95.953478 283.719195 
L 96.604088 283.401377 
L 97.254698 279.301766 
L 97.905309 278.737431 
L 98.555919 274.904752 
L 99.206529 269.654016 
L 99.85714 271.036794 
L 101.15836 264.046342 
L 101.808971 266.092744 
L 102.459581 267.611984 
L 103.110191 258.528162 
L 103.760802 258.216314 
L 104.411412 258.64035 
L 105.062022 248.702105 
L 105.712633 243.9536 
L 106.363243 251.526039 
L 107.013853 250.216986 
L 107.664463 246.740956 
L 108.315074 249.490733 
L 108.965684 250.70165 
L 109.616294 251.497081 
L 110.266905 254.980551 
L 111.568125 240.264441 
L 112.218736 242.853509 
L 112.869346 237.230821 
L 113.519956 232.85371 
L 114.170567 233.898803 
L 114.821177 235.797389 
L 115.471787 224.336202 
L 116.122398 229.076178 
L 116.773008 224.334412 
L 117.423618 231.416054 
L 118.074228 219.888008 
L 118.724839 215.805238 
L 119.375449 214.146371 
L 120.026059 209.670063 
L 120.67667 203.03718 
L 121.32728 206.688841 
L 121.97789 208.596944 
L 122.628501 209.47222 
L 123.279111 215.106768 
L 123.929721 218.204989 
L 124.580332 216.410913 
L 125.230942 218.703891 
L 125.881552 209.18723 
L 126.532163 217.446644 
L 127.182773 214.478144 
L 128.483993 201.783443 
L 129.134604 214.111447 
L 129.785214 205.258333 
L 130.435824 194.100267 
L 131.086435 197.243384 
L 131.737045 196.440143 
L 132.387655 197.18334 
L 133.038266 192.354091 
L 133.688876 217.61277 
L 134.339486 207.877598 
L 134.990097 203.669313 
L 135.640707 184.181986 
L 136.291317 190.241217 
L 136.941927 183.196424 
L 137.592538 185.631312 
L 138.243148 180.599058 
L 138.893758 196.903252 
L 139.544369 193.331949 
L 140.194979 186.871097 
L 140.845589 199.266498 
L 141.4962 197.673495 
L 142.14681 189.961829 
L 142.79742 177.690216 
L 143.448031 178.021162 
L 144.098641 189.053817 
L 144.749251 194.449502 
L 145.399862 182.83743 
L 146.050472 184.094677 
L 146.701082 185.945624 
L 147.351692 189.403053 
L 148.002303 191.969932 
L 148.652913 176.341654 
L 149.303523 178.244986 
L 149.954134 178.856148 
L 150.604744 173.600157 
L 151.255354 184.112139 
L 151.905965 170.911046 
L 152.556575 182.977124 
L 153.207185 166.109061 
L 153.857796 185.980547 
L 154.508406 183.448592 
L 155.159016 183.13428 
L 155.809627 174.42086 
L 156.460237 181.143639 
L 157.110847 175.992419 
L 157.761457 172.866763 
L 158.412068 170.736428 
L 159.062678 184.61853 
L 159.713288 192.493785 
L 160.363899 185.788468 
L 161.665119 181.894495 
L 162.31573 173.565234 
L 162.96634 180.322936 
L 163.61695 180.183242 
L 164.267561 178.87361 
L 164.918171 183.675595 
L 165.568781 184.391527 
L 166.219392 178.803763 
L 166.870002 193.314488 
L 167.520612 176.813122 
L 168.171222 195.357514 
L 168.821833 174.228781 
L 169.472443 184.443912 
L 170.123053 177.651286 
L 170.773664 181.667492 
L 171.424274 187.569568 
L 172.725495 188.931585 
L 173.376105 185.142383 
L 174.026715 189.228435 
L 174.677326 183.867674 
L 175.327936 175.136793 
L 176.629156 185.142383 
L 177.279767 174.665325 
L 177.930377 188.442656 
L 179.231598 170.928508 
L 179.882208 179.903854 
L 181.183429 187.255256 
L 181.834039 183.186665 
L 182.484649 173.757313 
L 183.78587 187.883879 
L 184.43648 182.138959 
L 185.087091 180.619786 
L 185.737701 193.506567 
L 186.388311 187.115562 
L 187.038921 190.0666 
L 187.689532 179.711774 
L 188.340142 177.895751 
L 188.990752 172.866763 
L 189.641363 182.226268 
L 190.291973 173.320769 
L 190.942583 177.965598 
L 191.593194 169.950649 
L 192.243804 185.823391 
L 192.894414 171.207896 
L 193.545025 173.879546 
L 194.195635 182.592965 
L 194.846245 179.991163 
L 195.496856 173.338231 
L 196.147466 178.140216 
L 196.798076 189.752288 
L 197.448686 191.498464 
L 198.099297 189.28082 
L 198.749907 178.419604 
L 199.400517 184.828071 
L 200.051128 166.528143 
L 200.701738 169.950649 
L 201.352348 177.79098 
L 202.002959 183.83275 
L 202.653569 179.799083 
L 203.304179 173.23346 
L 203.95479 181.632568 
L 204.6054 194.065343 
L 205.25601 182.261192 
L 205.906621 188.949047 
L 206.557231 190.520606 
L 207.207841 184.758224 
L 207.858451 194.047882 
L 208.509062 175.835263 
L 209.159672 189.053817 
L 209.810282 182.697736 
L 210.460893 180.008624 
L 211.111503 181.999265 
L 211.762113 178.105292 
L 212.412724 184.740762 
L 213.063334 180.148318 
L 213.713944 174.543093 
L 214.364555 190.485682 
L 215.015165 181.318257 
L 215.665775 188.302962 
L 216.316385 174.630401 
L 216.966996 177.825904 
L 217.617606 192.476323 
L 218.268216 177.948136 
L 218.918827 187.237794 
L 219.569437 177.808442 
L 220.220047 185.840853 
L 220.870658 174.054163 
L 221.521268 176.778198 
L 222.171878 191.481002 
L 222.822489 184.286756 
L 223.473099 191.847699 
L 224.123709 182.313577 
L 224.77432 184.304218 
L 225.42493 183.570824 
L 226.07554 179.345077 
L 226.72615 179.013304 
L 227.376761 176.882969 
L 228.027371 185.089997 
L 228.677981 195.532131 
L 229.328592 175.852725 
L 229.979202 187.796571 
L 230.629812 172.552452 
L 231.280423 186.539324 
L 231.931033 175.433642 
L 232.581643 181.807186 
L 233.232254 194.606658 
L 233.882864 185.771006 
L 234.533474 191.725467 
L 235.184085 174.997098 
L 235.834695 184.985227 
L 236.485305 183.745442 
L 237.135915 193.017638 
L 237.786526 191.830238 
L 238.437136 181.405565 
L 239.087746 182.907277 
L 239.738357 188.337885 
L 240.388967 178.541836 
L 241.039577 171.592055 
L 241.690188 173.303307 
L 242.340798 178.471989 
L 242.991408 178.506913 
L 243.642019 184.548683 
L 244.292629 177.738595 
L 244.943239 178.891072 
L 245.59385 187.971188 
L 246.24446 184.02483 
L 246.89507 183.885136 
L 248.196291 190.136447 
L 248.846901 183.72798 
L 249.497511 178.646607 
L 250.148122 187.202871 
L 250.798732 185.282077 
L 251.449342 191.795314 
L 252.099953 195.706749 
L 252.750563 180.340398 
L 253.401173 186.417091 
L 254.051784 180.567401 
L 254.702394 171.469822 
L 255.353004 186.661556 
L 256.654225 177.267128 
L 257.304835 174.805019 
L 257.955445 178.751377 
L 258.606056 179.17046 
L 259.256666 186.783788 
L 259.907276 190.695223 
L 260.557887 180.724557 
L 261.208497 182.488195 
L 261.859107 180.602324 
L 262.509718 184.199447 
L 263.160328 181.580183 
L 264.461549 184.286756 
L 265.112159 166.458296 
L 266.413379 182.785045 
L 267.06399 184.793147 
L 267.7146 175.817801 
L 268.36521 174.508169 
L 269.015821 183.710518 
L 269.666431 183.902597 
L 270.317041 185.561465 
L 270.967652 185.753544 
L 272.268872 174.333551 
L 272.919483 184.793147 
L 273.570093 182.889815 
L 274.220703 186.486938 
L 274.871314 183.308897 
L 276.172534 192.179473 
L 276.823144 188.966509 
L 277.473755 182.680274 
L 278.124365 174.089087 
L 278.774975 186.486938 
L 279.425586 171.853981 
L 280.726806 181.94688 
L 281.377417 180.846789 
L 282.028027 181.108715 
L 282.678637 179.729236 
L 283.329248 191.393694 
L 283.979858 188.966509 
L 284.630468 176.882969 
L 285.281079 189.298282 
L 285.931689 181.248409 
L 286.582299 184.583606 
L 287.88352 178.698992 
L 288.53413 189.76975 
L 289.18474 187.726723 
L 289.835351 191.376232 
L 290.485961 182.645351 
L 291.136571 180.445168 
L 291.787182 190.799994 
L 292.437792 196.143293 
L 293.088402 187.569568 
L 293.739013 188.914123 
L 294.389623 183.797827 
L 295.040233 192.633479 
L 295.690844 190.485682 
L 296.341454 182.435809 
L 296.992064 183.693056 
L 297.642674 180.689633 
L 298.293285 178.367219 
L 298.943895 181.999265 
L 299.594505 183.291436 
L 300.245116 183.72798 
L 300.895726 190.677761 
L 301.546336 187.726723 
L 302.196947 182.994586 
L 302.847557 181.580183 
L 303.498167 177.319513 
L 304.148778 183.116818 
L 305.449998 185.072536 
L 306.100608 192.371552 
L 306.751219 183.151742 
L 307.401829 176.428963 
L 308.70305 192.266782 
L 309.35366 183.308897 
L 310.00427 180.724557 
L 310.654881 171.330128 
L 311.305491 176.271807 
L 311.956101 187.726723 
L 312.606712 177.703672 
L 313.257322 192.790635 
L 313.907932 180.829327 
L 314.558543 176.690889 
L 315.209153 180.305474 
L 315.859763 186.067856 
L 316.510373 190.642838 
L 317.160984 180.707095 
L 317.811594 187.779109 
L 319.112815 163.664414 
L 319.763425 177.441745 
L 320.414035 170.526887 
L 321.715256 192.371552 
L 322.365866 183.396206 
L 323.016477 190.36345 
L 324.317697 176.708351 
L 324.968308 177.633825 
L 325.618918 183.920059 
L 326.269528 196.230602 
L 326.920138 185.107459 
L 327.570749 178.244986 
L 328.221359 184.7233 
L 328.871969 172.604837 
L 329.52258 186.574247 
L 330.17319 180.672171 
L 330.8238 176.027342 
L 331.474411 188.756967 
L 332.125021 180.497554 
L 332.775631 186.993329 
L 333.426242 186.294859 
L 334.076852 169.095023 
L 334.727462 180.480092 
L 335.378073 189.333206 
L 336.028683 174.962175 
L 336.679293 186.836174 
L 337.329903 183.308897 
L 337.980514 173.512849 
L 339.281734 187.831494 
L 339.932345 185.666235 
L 340.582955 177.773519 
L 341.233565 188.407732 
L 341.884176 176.79566 
L 342.534786 175.870187 
L 343.185396 179.222845 
L 343.836007 183.640671 
L 344.486617 184.810609 
L 345.137227 188.512503 
L 345.787837 189.210973 
L 346.438448 186.679018 
L 347.089058 180.65471 
L 347.739668 180.637248 
L 348.390279 179.502233 
L 349.040889 178.838686 
L 349.691499 179.414924 
L 350.34211 180.322936 
L 350.99272 182.9422 
L 351.64333 183.43113 
L 352.293941 182.313577 
L 352.944551 177.98306 
L 353.595161 186.591709 
L 354.245772 178.297372 
L 354.896382 175.433642 
L 355.546992 171.94129 
L 356.197602 177.773519 
L 356.848213 190.555529 
L 357.498823 167.313923 
L 358.149433 172.622299 
L 358.800044 172.552452 
L 359.450654 181.021407 
L 360.101264 180.532477 
L 360.751875 175.852725 
L 361.402485 169.129946 
L 362.053095 190.188832 
L 362.703706 179.711774 
L 363.354316 182.121498 
L 364.004926 177.005201 
L 364.655537 181.283333 
L 365.956757 179.659389 
L 366.607367 181.440489 
L 367.257978 181.859571 
L 367.908588 181.894495 
L 368.559198 177.302051 
L 369.209809 181.527798 
L 369.860419 172.552452 
L 370.511029 181.492874 
L 371.16164 181.108715 
L 371.81225 181.283333 
L 372.46286 185.998009 
L 373.113471 179.624466 
L 373.764081 178.960919 
L 374.414691 174.927251 
L 375.715912 172.779455 
L 376.366522 179.414924 
L 377.017132 177.336975 
L 377.667743 182.697736 
L 378.318353 176.428963 
L 378.968963 165.969367 
L 380.270184 182.680274 
L 380.920794 180.183242 
L 381.571405 182.872353 
L 382.222015 187.272718 
L 382.872625 182.278653 
L 383.523236 181.143639 
L 384.173846 173.617619 
L 384.824456 182.138959 
L 385.475066 172.115908 
L 386.125677 194.03042 
L 386.776287 182.9422 
L 387.426897 187.028253 
L 388.077508 189.717364 
L 388.728118 181.213486 
L 389.378728 176.481348 
L 390.679949 185.421771 
L 391.330559 172.203216 
L 391.98117 189.123665 
L 392.63178 182.907277 
L 393.28239 175.224101 
L 394.583611 181.807186 
L 395.234221 179.205383 
L 395.884831 175.625722 
L 396.535442 182.732659 
L 397.186052 168.483861 
L 397.836662 189.57767 
L 398.487273 175.957495 
L 398.487273 175.957495 
" style="fill:none;stroke:#0000ff;stroke-linecap:square;stroke-width:1.5;"/>
   </g>
   <g id="line2d_30">
    <path clip-path="url(#p599fafe778)" d="M 73.832727 271.562229 
L 74.483338 272.700672 
L 75.133948 269.445622 
L 75.784558 270.547382 
L 76.435169 270.979464 
L 77.085779 270.798233 
L 77.736389 267.656595 
L 78.386999 270.352099 
L 79.03761 269.855847 
L 79.68822 269.690067 
L 80.33883 270.547076 
L 80.989441 272.683716 
L 81.640051 269.845259 
L 82.290661 269.707056 
L 82.941272 269.176033 
L 83.591882 268.460886 
L 84.242492 268.928335 
L 84.893103 268.709331 
L 85.543713 268.660871 
L 86.194323 267.309693 
L 86.844934 263.077809 
L 87.495544 261.440632 
L 88.146154 259.273971 
L 88.796764 256.536583 
L 89.447375 256.911111 
L 90.097985 258.362064 
L 90.748595 255.159815 
L 91.399206 256.793222 
L 92.049816 259.771798 
L 92.700426 252.227546 
L 93.351037 247.268284 
L 94.001647 249.390674 
L 94.652257 248.189671 
L 95.302868 244.162267 
L 95.953478 243.102484 
L 96.604088 241.626318 
L 97.254698 236.718335 
L 97.905309 230.023885 
L 98.555919 221.556595 
L 99.206529 210.095783 
L 99.85714 211.16692 
L 100.50775 203.040586 
L 101.15836 198.771506 
L 101.808971 204.024812 
L 102.459581 205.45656 
L 103.110191 191.029813 
L 103.760802 184.489478 
L 104.411412 182.365219 
L 105.062022 167.745958 
L 105.712633 158.541138 
L 106.363243 170.664562 
L 107.664463 163.709175 
L 108.315074 172.629472 
L 108.965684 175.912775 
L 109.616294 173.772472 
L 110.266905 179.787427 
L 111.568125 152.081217 
L 112.218736 157.049597 
L 112.869346 146.86645 
L 113.519956 142.529523 
L 114.170567 141.131432 
L 114.821177 144.424715 
L 115.471787 126.025954 
L 116.122398 133.488697 
L 116.773008 127.107378 
L 117.423618 136.736941 
L 118.074228 122.564059 
L 118.724839 117.531469 
L 119.375449 113.660057 
L 120.026059 112.630347 
L 120.67667 101.503913 
L 121.32728 104.864684 
L 121.97789 108.860681 
L 122.628501 107.814903 
L 123.279111 117.318091 
L 123.929721 119.394186 
L 124.580332 116.515064 
L 125.230942 120.828333 
L 125.881552 109.333645 
L 126.532163 121.410481 
L 127.833383 109.297713 
L 128.483993 99.927233 
L 129.134604 118.148671 
L 129.785214 107.537917 
L 130.435824 94.117537 
L 131.086435 96.748526 
L 131.737045 94.254844 
L 132.387655 96.044958 
L 133.038266 88.429025 
L 133.688876 120.340733 
L 134.339486 106.285802 
L 134.990097 101.861419 
L 135.640707 81.447444 
L 136.291317 85.759637 
L 136.941927 79.138197 
L 137.592538 81.608686 
L 138.243148 77.992118 
L 138.893758 96.1893 
L 139.544369 93.690314 
L 140.194979 82.909733 
L 140.845589 97.798673 
L 141.4962 95.767565 
L 142.14681 86.117504 
L 142.79742 73.061466 
L 143.448031 75.547855 
L 144.098641 84.523442 
L 144.749251 91.38164 
L 145.399862 77.301345 
L 147.351692 88.486211 
L 148.002303 90.119908 
L 148.652913 72.6396 
L 149.303523 72.980243 
L 149.954134 76.143312 
L 150.604744 71.964711 
L 151.255354 80.834375 
L 151.905965 68.753913 
L 152.556575 81.632869 
L 153.207185 62.623437 
L 153.857796 84.021628 
L 154.508406 81.207688 
L 155.159016 80.272195 
L 155.809627 70.845433 
L 156.460237 75.496707 
L 157.761457 68.705956 
L 158.412068 67.709216 
L 159.062678 81.90035 
L 159.713288 89.604337 
L 160.363899 81.523149 
L 161.014509 81.324537 
L 161.665119 80.558785 
L 162.31573 68.647476 
L 162.96634 78.969896 
L 164.267561 73.740131 
L 164.918171 79.124394 
L 165.568781 80.248637 
L 166.219392 76.493901 
L 166.870002 90.773059 
L 167.520612 74.849829 
L 168.171222 92.861875 
L 168.821833 71.857121 
L 169.472443 80.320583 
L 170.123053 72.787674 
L 170.773664 76.412737 
L 171.424274 84.286637 
L 172.074884 85.445999 
L 172.725495 85.984614 
L 173.376105 81.506894 
L 174.026715 86.848526 
L 174.677326 82.322222 
L 175.327936 72.798116 
L 175.978546 76.06828 
L 176.629156 84.004891 
L 177.279767 69.59284 
L 177.930377 85.228683 
L 179.231598 66.496423 
L 179.882208 76.90021 
L 180.532818 79.056694 
L 181.183429 84.275165 
L 181.834039 79.767805 
L 182.484649 68.834477 
L 183.78587 86.467957 
L 184.43648 78.327009 
L 185.087091 77.612813 
L 185.737701 94.017104 
L 186.388311 84.014689 
L 187.038921 88.67447 
L 187.689532 79.327103 
L 188.990752 69.552467 
L 189.641363 79.700028 
L 190.291973 70.824184 
L 190.942583 74.208303 
L 191.593194 66.511294 
L 192.243804 83.299013 
L 192.894414 69.454455 
L 193.545025 69.965917 
L 194.195635 78.712237 
L 194.846245 76.959067 
L 195.496856 69.643998 
L 196.147466 76.854098 
L 196.798076 87.422188 
L 197.448686 89.30224 
L 198.099297 85.786886 
L 198.749907 75.404231 
L 199.400517 81.567894 
L 200.051128 62.598467 
L 200.701738 65.5863 
L 201.352348 75.998932 
L 202.002959 79.118649 
L 202.653569 77.35171 
L 203.304179 69.582944 
L 203.95479 77.491862 
L 204.6054 92.252209 
L 205.25601 77.686515 
L 205.906621 84.972803 
L 206.557231 87.778123 
L 207.207841 80.631006 
L 207.858451 92.03535 
L 208.509062 72.240059 
L 209.159672 88.803346 
L 209.810282 77.898097 
L 210.460893 77.044738 
L 211.111503 80.123721 
L 211.762113 73.895903 
L 212.412724 82.84744 
L 213.063334 77.330115 
L 213.713944 69.540508 
L 214.364555 86.194773 
L 215.015165 76.890281 
L 215.665775 86.546355 
L 216.316385 71.709179 
L 216.966996 73.228715 
L 217.617606 89.285763 
L 218.268216 75.304943 
L 218.918827 84.787718 
L 219.569437 73.608125 
L 220.220047 81.234874 
L 220.870658 70.905534 
L 221.521268 75.141642 
L 222.171878 90.371521 
L 222.822489 81.326001 
L 223.473099 87.215396 
L 224.123709 79.960726 
L 224.77432 83.515457 
L 225.42493 81.97461 
L 226.07554 76.919088 
L 226.72615 76.519236 
L 227.376761 72.021403 
L 228.027371 81.697226 
L 228.677981 93.880223 
L 229.328592 69.909473 
L 229.979202 86.853639 
L 230.629812 68.117965 
L 231.280423 83.573281 
L 231.931033 70.31389 
L 232.581643 76.842289 
L 233.232254 92.943695 
L 233.882864 83.748337 
L 234.533474 91.174433 
L 235.184085 70.904655 
L 235.834695 81.53121 
L 236.485305 83.779671 
L 237.135915 89.743446 
L 237.786526 90.378033 
L 238.437136 78.879945 
L 239.087746 80.763351 
L 239.738357 85.893909 
L 240.388967 75.842692 
L 241.039577 68.961565 
L 241.690188 69.026972 
L 242.340798 74.529182 
L 242.991408 75.38138 
L 243.642019 79.70334 
L 244.292629 75.239864 
L 244.943239 75.543586 
L 245.59385 84.840014 
L 246.24446 82.168167 
L 246.89507 81.47159 
L 247.54568 82.979081 
L 248.196291 89.195436 
L 248.846901 78.21112 
L 249.497511 76.84014 
L 250.148122 84.959827 
L 250.798732 85.388048 
L 251.449342 90.427797 
L 252.099953 94.341254 
L 252.750563 75.548287 
L 253.401173 80.30942 
L 254.051784 78.060055 
L 254.702394 67.564123 
L 255.353004 83.204898 
L 256.003615 78.577185 
L 256.654225 72.0665 
L 257.304835 73.330764 
L 257.955445 75.353795 
L 258.606056 73.89536 
L 259.256666 83.496968 
L 259.907276 86.176995 
L 260.557887 77.841018 
L 261.208497 79.117345 
L 261.859107 78.468513 
L 262.509718 81.959016 
L 263.160328 75.844287 
L 263.810938 79.422305 
L 264.461549 81.646336 
L 265.112159 64.152967 
L 265.762769 72.888731 
L 266.413379 79.942525 
L 267.06399 82.821872 
L 267.7146 72.950382 
L 268.36521 73.04327 
L 269.015821 78.902127 
L 269.666431 77.169218 
L 270.317041 83.195138 
L 270.967652 83.177169 
L 271.618262 77.101675 
L 272.268872 67.912245 
L 272.919483 81.644555 
L 273.570093 80.732736 
L 274.220703 83.119414 
L 274.871314 80.815787 
L 276.172534 88.900038 
L 276.823144 86.915264 
L 278.124365 70.242241 
L 278.774975 83.1619 
L 279.425586 69.470074 
L 280.726806 78.101062 
L 281.377417 78.632844 
L 282.028027 78.375978 
L 282.678637 76.073154 
L 283.329248 90.164629 
L 283.979858 87.246856 
L 284.630468 73.829337 
L 285.281079 87.408827 
L 285.931689 77.566914 
L 286.582299 82.841913 
L 287.232909 79.317123 
L 287.88352 74.298613 
L 288.53413 88.44457 
L 289.18474 87.18349 
L 289.835351 89.228149 
L 290.485961 79.500954 
L 291.136571 79.333805 
L 291.787182 87.360722 
L 292.437792 92.706592 
L 293.088402 83.548857 
L 293.739013 86.984085 
L 294.389623 80.528312 
L 295.040233 91.511471 
L 295.690844 89.330489 
L 296.341454 81.745162 
L 296.992064 83.506208 
L 297.642674 76.199985 
L 298.293285 75.423957 
L 298.943895 79.299789 
L 299.594505 79.702173 
L 300.245116 79.45876 
L 300.895726 86.118546 
L 301.546336 85.844691 
L 302.196947 82.026548 
L 302.847557 80.419986 
L 303.498167 73.867401 
L 304.148778 81.393336 
L 304.799388 79.437357 
L 305.449998 82.883711 
L 306.100608 90.434036 
L 306.751219 80.41548 
L 307.401829 73.639374 
L 308.70305 88.764105 
L 309.35366 80.67903 
L 310.00427 77.638502 
L 310.654881 68.090988 
L 311.305491 73.139036 
L 311.956101 84.777657 
L 312.606712 73.76273 
L 313.257322 90.000798 
L 313.907932 77.627715 
L 314.558543 72.104698 
L 315.859763 83.51414 
L 316.510373 88.097381 
L 317.160984 79.150709 
L 317.811594 84.920278 
L 318.462204 75.541214 
L 319.112815 60.761171 
L 319.763425 72.487451 
L 320.414035 67.070701 
L 321.715256 92.610928 
L 322.365866 78.500598 
L 323.016477 89.048436 
L 323.667087 79.228943 
L 324.317697 73.093576 
L 324.968308 72.565403 
L 325.618918 81.229787 
L 326.269528 94.473163 
L 326.920138 80.862182 
L 327.570749 75.885688 
L 328.221359 81.891931 
L 328.871969 67.276805 
L 329.52258 83.512398 
L 330.17319 79.038473 
L 330.8238 73.773802 
L 331.474411 85.211459 
L 332.125021 77.784919 
L 332.775631 84.500786 
L 333.426242 81.677477 
L 334.076852 67.165366 
L 334.727462 78.843368 
L 335.378073 87.537007 
L 336.028683 72.014019 
L 336.679293 82.351522 
L 337.329903 80.446368 
L 337.980514 70.869109 
L 338.631124 79.79728 
L 339.281734 85.212651 
L 339.932345 82.344563 
L 340.582955 74.68339 
L 341.233565 86.895676 
L 341.884176 71.147592 
L 343.185396 76.559583 
L 343.836007 83.481365 
L 344.486617 81.332987 
L 345.137227 85.829593 
L 345.787837 85.871889 
L 346.438448 83.166443 
L 347.089058 75.539661 
L 347.739668 75.244448 
L 348.390279 76.451413 
L 349.040889 75.357557 
L 349.691499 75.369262 
L 350.34211 77.609589 
L 350.99272 78.317358 
L 351.64333 78.800004 
L 352.293941 78.55827 
L 352.944551 75.270521 
L 353.595161 83.922964 
L 354.245772 74.480545 
L 354.896382 70.869961 
L 355.546992 68.403845 
L 356.197602 72.891201 
L 356.848213 85.067439 
L 357.498823 65.732973 
L 358.149433 68.787668 
L 358.800044 68.171701 
L 359.450654 77.978364 
L 360.101264 76.256422 
L 360.751875 72.585343 
L 361.402485 64.601092 
L 362.053095 88.037335 
L 362.703706 76.117412 
L 363.354316 78.933034 
L 364.004926 75.275125 
L 364.655537 77.43442 
L 365.956757 75.793808 
L 366.607367 78.421903 
L 367.908588 80.312351 
L 368.559198 73.984172 
L 369.209809 78.152369 
L 369.860419 69.754112 
L 370.511029 77.753948 
L 371.16164 77.125151 
L 371.81225 77.342853 
L 372.46286 82.008346 
L 373.113471 76.75343 
L 373.764081 75.728904 
L 374.414691 69.386676 
L 375.065302 69.790865 
L 375.715912 69.474758 
L 376.366522 78.154237 
L 377.017132 73.188346 
L 377.667743 78.245483 
L 378.318353 73.122152 
L 378.968963 62.691593 
L 380.270184 79.132221 
L 380.920794 77.28826 
L 381.571405 79.134822 
L 382.222015 80.530701 
L 382.872625 80.661457 
L 383.523236 79.002082 
L 384.173846 70.24343 
L 384.824456 80.087794 
L 385.475066 71.398798 
L 386.125677 91.691284 
L 386.776287 81.840073 
L 387.426897 82.099256 
L 388.077508 87.093304 
L 388.728118 77.084117 
L 389.378728 72.451324 
L 390.029339 76.537512 
L 390.679949 83.737923 
L 391.330559 66.831404 
L 391.98117 89.508584 
L 393.28239 71.905179 
L 393.933001 77.028195 
L 394.583611 76.913192 
L 395.234221 76.403824 
L 395.884831 73.632434 
L 396.535442 79.259977 
L 397.186052 65.76529 
L 397.836662 88.806688 
L 398.487273 72.09667 
L 398.487273 72.09667 
" style="fill:none;stroke:#008000;stroke-dasharray:9.6,2.4,1.5,2.4;stroke-dashoffset:0;stroke-width:1.5;"/>
   </g>
   <g id="line2d_31">
    <path clip-path="url(#p599fafe778)" d="M 73.832727 207.231513 
L 74.483338 228.185628 
L 75.133948 207.231513 
L 75.784558 221.200923 
L 76.435169 193.262102 
L 77.085779 235.170333 
L 77.736389 193.262102 
L 78.386999 200.246807 
L 79.03761 214.216218 
L 79.68822 207.231513 
L 80.33883 228.185628 
L 80.989441 207.231513 
L 81.640051 214.216218 
L 82.290661 228.185628 
L 82.941272 228.185628 
L 83.591882 214.216218 
L 84.242492 235.170333 
L 84.893103 221.200923 
L 85.543713 214.216218 
L 86.194323 214.216218 
L 86.844934 81.50682 
L 87.495544 60.552705 
L 88.146154 53.568 
L 89.447375 53.568 
L 90.097985 67.53741 
L 90.748595 60.552705 
L 91.399206 60.552705 
L 92.049816 53.568 
L 93.351037 53.568 
L 94.001647 60.552705 
L 94.652257 53.568 
L 95.953478 53.568 
L 96.604088 60.552705 
L 97.254698 60.552705 
L 97.905309 53.568 
L 398.487273 53.568 
L 398.487273 53.568 
" style="fill:none;stroke:#ff0000;stroke-linecap:square;stroke-width:1.5;"/>
   </g>
   <g id="patch_3">
    <path d="M 57.6 307.584 
L 57.6 41.472 
" style="fill:none;stroke:#000000;stroke-linecap:square;stroke-linejoin:miter;stroke-width:0.8;"/>
   </g>
   <g id="patch_4">
    <path d="M 414.72 307.584 
L 414.72 41.472 
" style="fill:none;stroke:#000000;stroke-linecap:square;stroke-linejoin:miter;stroke-width:0.8;"/>
   </g>
   <g id="patch_5">
    <path d="M 57.6 307.584 
L 414.72 307.584 
" style="fill:none;stroke:#000000;stroke-linecap:square;stroke-linejoin:miter;stroke-width:0.8;"/>
   </g>
   <g id="patch_6">
    <path d="M 57.6 41.472 
L 414.72 41.472 
" style="fill:none;stroke:#000000;stroke-linecap:square;stroke-linejoin:miter;stroke-width:0.8;"/>
   </g>
   <g id="text_17">
    <!-- Population's average and best fitness -->
    <defs>
     <path d="M 19.671875 64.796875 
L 19.671875 37.40625 
L 32.078125 37.40625 
Q 38.96875 37.40625 42.71875 40.96875 
Q 46.484375 44.53125 46.484375 51.125 
Q 46.484375 57.671875 42.71875 61.234375 
Q 38.96875 64.796875 32.078125 64.796875 
z
M 9.8125 72.90625 
L 32.078125 72.90625 
Q 44.34375 72.90625 50.609375 67.359375 
Q 56.890625 61.8125 56.890625 51.125 
Q 56.890625 40.328125 50.609375 34.8125 
Q 44.34375 29.296875 32.078125 29.296875 
L 19.671875 29.296875 
L 19.671875 0 
L 9.8125 0 
z
" id="DejaVuSans-80"/>
     <path d="M 18.109375 8.203125 
L 18.109375 -20.796875 
L 9.078125 -20.796875 
L 9.078125 54.6875 
L 18.109375 54.6875 
L 18.109375 46.390625 
Q 20.953125 51.265625 25.265625 53.625 
Q 29.59375 56 35.59375 56 
Q 45.5625 56 51.78125 48.09375 
Q 58.015625 40.1875 58.015625 27.296875 
Q 58.015625 14.40625 51.78125 6.484375 
Q 45.5625 -1.421875 35.59375 -1.421875 
Q 29.59375 -1.421875 25.265625 0.953125 
Q 20.953125 3.328125 18.109375 8.203125 
z
M 48.6875 27.296875 
Q 48.6875 37.203125 44.609375 42.84375 
Q 40.53125 48.484375 33.40625 48.484375 
Q 26.265625 48.484375 22.1875 42.84375 
Q 18.109375 37.203125 18.109375 27.296875 
Q 18.109375 17.390625 22.1875 11.75 
Q 26.265625 6.109375 33.40625 6.109375 
Q 40.53125 6.109375 44.609375 11.75 
Q 48.6875 17.390625 48.6875 27.296875 
z
" id="DejaVuSans-112"/>
     <path d="M 8.5 21.578125 
L 8.5 54.6875 
L 17.484375 54.6875 
L 17.484375 21.921875 
Q 17.484375 14.15625 20.5 10.265625 
Q 23.53125 6.390625 29.59375 6.390625 
Q 36.859375 6.390625 41.078125 11.03125 
Q 45.3125 15.671875 45.3125 23.6875 
L 45.3125 54.6875 
L 54.296875 54.6875 
L 54.296875 0 
L 45.3125 0 
L 45.3125 8.40625 
Q 42.046875 3.421875 37.71875 1 
Q 33.40625 -1.421875 27.6875 -1.421875 
Q 18.265625 -1.421875 13.375 4.4375 
Q 8.5 10.296875 8.5 21.578125 
z
M 31.109375 56 
z
" id="DejaVuSans-117"/>
     <path d="M 9.421875 75.984375 
L 18.40625 75.984375 
L 18.40625 0 
L 9.421875 0 
z
" id="DejaVuSans-108"/>
     <path d="M 17.921875 72.90625 
L 17.921875 45.796875 
L 9.625 45.796875 
L 9.625 72.90625 
z
" id="DejaVuSans-39"/>
     <path id="DejaVuSans-32"/>
     <path d="M 2.984375 54.6875 
L 12.5 54.6875 
L 29.59375 8.796875 
L 46.6875 54.6875 
L 56.203125 54.6875 
L 35.6875 0 
L 23.484375 0 
z
" id="DejaVuSans-118"/>
     <path d="M 45.40625 27.984375 
Q 45.40625 37.75 41.375 43.109375 
Q 37.359375 48.484375 30.078125 48.484375 
Q 22.859375 48.484375 18.828125 43.109375 
Q 14.796875 37.75 14.796875 27.984375 
Q 14.796875 18.265625 18.828125 12.890625 
Q 22.859375 7.515625 30.078125 7.515625 
Q 37.359375 7.515625 41.375 12.890625 
Q 45.40625 18.265625 45.40625 27.984375 
z
M 54.390625 6.78125 
Q 54.390625 -7.171875 48.1875 -13.984375 
Q 42 -20.796875 29.203125 -20.796875 
Q 24.46875 -20.796875 20.265625 -20.09375 
Q 16.0625 -19.390625 12.109375 -17.921875 
L 12.109375 -9.1875 
Q 16.0625 -11.328125 19.921875 -12.34375 
Q 23.78125 -13.375 27.78125 -13.375 
Q 36.625 -13.375 41.015625 -8.765625 
Q 45.40625 -4.15625 45.40625 5.171875 
L 45.40625 9.625 
Q 42.625 4.78125 38.28125 2.390625 
Q 33.9375 0 27.875 0 
Q 17.828125 0 11.671875 7.65625 
Q 5.515625 15.328125 5.515625 27.984375 
Q 5.515625 40.671875 11.671875 48.328125 
Q 17.828125 56 27.875 56 
Q 33.9375 56 38.28125 53.609375 
Q 42.625 51.21875 45.40625 46.390625 
L 45.40625 54.6875 
L 54.390625 54.6875 
z
" id="DejaVuSans-103"/>
     <path d="M 45.40625 46.390625 
L 45.40625 75.984375 
L 54.390625 75.984375 
L 54.390625 0 
L 45.40625 0 
L 45.40625 8.203125 
Q 42.578125 3.328125 38.25 0.953125 
Q 33.9375 -1.421875 27.875 -1.421875 
Q 17.96875 -1.421875 11.734375 6.484375 
Q 5.515625 14.40625 5.515625 27.296875 
Q 5.515625 40.1875 11.734375 48.09375 
Q 17.96875 56 27.875 56 
Q 33.9375 56 38.25 53.625 
Q 42.578125 51.265625 45.40625 46.390625 
z
M 14.796875 27.296875 
Q 14.796875 17.390625 18.875 11.75 
Q 22.953125 6.109375 30.078125 6.109375 
Q 37.203125 6.109375 41.296875 11.75 
Q 45.40625 17.390625 45.40625 27.296875 
Q 45.40625 37.203125 41.296875 42.84375 
Q 37.203125 48.484375 30.078125 48.484375 
Q 22.953125 48.484375 18.875 42.84375 
Q 14.796875 37.203125 14.796875 27.296875 
z
" id="DejaVuSans-100"/>
     <path d="M 48.6875 27.296875 
Q 48.6875 37.203125 44.609375 42.84375 
Q 40.53125 48.484375 33.40625 48.484375 
Q 26.265625 48.484375 22.1875 42.84375 
Q 18.109375 37.203125 18.109375 27.296875 
Q 18.109375 17.390625 22.1875 11.75 
Q 26.265625 6.109375 33.40625 6.109375 
Q 40.53125 6.109375 44.609375 11.75 
Q 48.6875 17.390625 48.6875 27.296875 
z
M 18.109375 46.390625 
Q 20.953125 51.265625 25.265625 53.625 
Q 29.59375 56 35.59375 56 
Q 45.5625 56 51.78125 48.09375 
Q 58.015625 40.1875 58.015625 27.296875 
Q 58.015625 14.40625 51.78125 6.484375 
Q 45.5625 -1.421875 35.59375 -1.421875 
Q 29.59375 -1.421875 25.265625 0.953125 
Q 20.953125 3.328125 18.109375 8.203125 
L 18.109375 0 
L 9.078125 0 
L 9.078125 75.984375 
L 18.109375 75.984375 
z
" id="DejaVuSans-98"/>
     <path d="M 37.109375 75.984375 
L 37.109375 68.5 
L 28.515625 68.5 
Q 23.6875 68.5 21.796875 66.546875 
Q 19.921875 64.59375 19.921875 59.515625 
L 19.921875 54.6875 
L 34.71875 54.6875 
L 34.71875 47.703125 
L 19.921875 47.703125 
L 19.921875 0 
L 10.890625 0 
L 10.890625 47.703125 
L 2.296875 47.703125 
L 2.296875 54.6875 
L 10.890625 54.6875 
L 10.890625 58.5 
Q 10.890625 67.625 15.140625 71.796875 
Q 19.390625 75.984375 28.609375 75.984375 
z
" id="DejaVuSans-102"/>
    </defs>
    <g transform="translate(123.315 35.472)scale(0.12 -0.12)">
     <use xlink:href="#DejaVuSans-80"/>
     <use x="60.255859" xlink:href="#DejaVuSans-111"/>
     <use x="121.4375" xlink:href="#DejaVuSans-112"/>
     <use x="184.914062" xlink:href="#DejaVuSans-117"/>
     <use x="248.292969" xlink:href="#DejaVuSans-108"/>
     <use x="276.076172" xlink:href="#DejaVuSans-97"/>
     <use x="337.355469" xlink:href="#DejaVuSans-116"/>
     <use x="376.564453" xlink:href="#DejaVuSans-105"/>
     <use x="404.347656" xlink:href="#DejaVuSans-111"/>
     <use x="465.529297" xlink:href="#DejaVuSans-110"/>
     <use x="528.908203" xlink:href="#DejaVuSans-39"/>
     <use x="556.398438" xlink:href="#DejaVuSans-115"/>
     <use x="608.498047" xlink:href="#DejaVuSans-32"/>
     <use x="640.285156" xlink:href="#DejaVuSans-97"/>
     <use x="701.564453" xlink:href="#DejaVuSans-118"/>
     <use x="760.744141" xlink:href="#DejaVuSans-101"/>
     <use x="822.267578" xlink:href="#DejaVuSans-114"/>
     <use x="863.380859" xlink:href="#DejaVuSans-97"/>
     <use x="924.660156" xlink:href="#DejaVuSans-103"/>
     <use x="988.136719" xlink:href="#DejaVuSans-101"/>
     <use x="1049.660156" xlink:href="#DejaVuSans-32"/>
     <use x="1081.447266" xlink:href="#DejaVuSans-97"/>
     <use x="1142.726562" xlink:href="#DejaVuSans-110"/>
     <use x="1206.105469" xlink:href="#DejaVuSans-100"/>
     <use x="1269.582031" xlink:href="#DejaVuSans-32"/>
     <use x="1301.369141" xlink:href="#DejaVuSans-98"/>
     <use x="1364.845703" xlink:href="#DejaVuSans-101"/>
     <use x="1426.369141" xlink:href="#DejaVuSans-115"/>
     <use x="1478.46875" xlink:href="#DejaVuSans-116"/>
     <use x="1517.677734" xlink:href="#DejaVuSans-32"/>
     <use x="1549.464844" xlink:href="#DejaVuSans-102"/>
     <use x="1584.669922" xlink:href="#DejaVuSans-105"/>
     <use x="1612.453125" xlink:href="#DejaVuSans-116"/>
     <use x="1651.662109" xlink:href="#DejaVuSans-110"/>
     <use x="1715.041016" xlink:href="#DejaVuSans-101"/>
     <use x="1776.564453" xlink:href="#DejaVuSans-115"/>
     <use x="1828.664062" xlink:href="#DejaVuSans-115"/>
    </g>
   </g>
   <g id="legend_1">
    <g id="patch_7">
     <path d="M 334.779375 302.584 
L 407.72 302.584 
Q 409.72 302.584 409.72 300.584 
L 409.72 257.549625 
Q 409.72 255.549625 407.72 255.549625 
L 334.779375 255.549625 
Q 332.779375 255.549625 332.779375 257.549625 
L 332.779375 300.584 
Q 332.779375 302.584 334.779375 302.584 
z
" style="fill:#ffffff;opacity:0.8;stroke:#cccccc;stroke-linejoin:miter;"/>
    </g>
    <g id="line2d_32">
     <path d="M 336.779375 263.648062 
L 356.779375 263.648062 
" style="fill:none;stroke:#0000ff;stroke-linecap:square;stroke-width:1.5;"/>
    </g>
    <g id="line2d_33"/>
    <g id="text_18">
     <!-- average -->
     <g transform="translate(364.779375 267.148062)scale(0.1 -0.1)">
      <use xlink:href="#DejaVuSans-97"/>
      <use x="61.279297" xlink:href="#DejaVuSans-118"/>
      <use x="120.458984" xlink:href="#DejaVuSans-101"/>
      <use x="181.982422" xlink:href="#DejaVuSans-114"/>
      <use x="223.095703" xlink:href="#DejaVuSans-97"/>
      <use x="284.375" xlink:href="#DejaVuSans-103"/>
      <use x="347.851562" xlink:href="#DejaVuSans-101"/>
     </g>
    </g>
    <g id="line2d_34">
     <path d="M 336.779375 278.326188 
L 356.779375 278.326188 
" style="fill:none;stroke:#008000;stroke-dasharray:9.6,2.4,1.5,2.4;stroke-dashoffset:0;stroke-width:1.5;"/>
    </g>
    <g id="line2d_35"/>
    <g id="text_19">
     <!-- +1 sd -->
     <defs>
      <path d="M 46 62.703125 
L 46 35.5 
L 73.1875 35.5 
L 73.1875 27.203125 
L 46 27.203125 
L 46 0 
L 37.796875 0 
L 37.796875 27.203125 
L 10.59375 27.203125 
L 10.59375 35.5 
L 37.796875 35.5 
L 37.796875 62.703125 
z
" id="DejaVuSans-43"/>
     </defs>
     <g transform="translate(364.779375 281.826188)scale(0.1 -0.1)">
      <use xlink:href="#DejaVuSans-43"/>
      <use x="83.789062" xlink:href="#DejaVuSans-49"/>
      <use x="147.412109" xlink:href="#DejaVuSans-32"/>
      <use x="179.199219" xlink:href="#DejaVuSans-115"/>
      <use x="231.298828" xlink:href="#DejaVuSans-100"/>
     </g>
    </g>
    <g id="line2d_36">
     <path d="M 336.779375 293.004312 
L 356.779375 293.004312 
" style="fill:none;stroke:#ff0000;stroke-linecap:square;stroke-width:1.5;"/>
    </g>
    <g id="line2d_37"/>
    <g id="text_20">
     <!-- best -->
     <g transform="translate(364.779375 296.504312)scale(0.1 -0.1)">
      <use xlink:href="#DejaVuSans-98"/>
      <use x="63.476562" xlink:href="#DejaVuSans-101"/>
      <use x="125" xlink:href="#DejaVuSans-115"/>
      <use x="177.099609" xlink:href="#DejaVuSans-116"/>
     </g>
    </g>
   </g>
  </g>
 </g>
 <defs>
  <clipPath id="p599fafe778">
   <rect height="266.112" width="357.12" x="57.6" y="41.472"/>
  </clipPath>
 </defs>
</svg>
