<?xml version="1.0" encoding="utf-8" standalone="no"?>
<!DOCTYPE svg PUBLIC "-//W3C//DTD SVG 1.1//EN"
  "http://www.w3.org/Graphics/SVG/1.1/DTD/svg11.dtd">
<!-- Created with matplotlib (https://matplotlib.org/) -->
<svg height="345.6pt" version="1.1" viewBox="0 0 460.8 345.6" width="460.8pt" xmlns="http://www.w3.org/2000/svg" xmlns:xlink="http://www.w3.org/1999/xlink">
 <defs>
  <style type="text/css">
*{stroke-linecap:butt;stroke-linejoin:round;}
  </style>
 </defs>
 <g id="figure_1">
  <g id="patch_1">
   <path d="M 0 345.6 
L 460.8 345.6 
L 460.8 0 
L 0 0 
z
" style="fill:#ffffff;"/>
  </g>
  <g id="axes_1">
   <g id="patch_2">
    <path d="M 57.6 307.584 
L 414.72 307.584 
L 414.72 41.472 
L 57.6 41.472 
z
" style="fill:#ffffff;"/>
   </g>
   <g id="matplotlib.axis_1">
    <g id="xtick_1">
     <g id="line2d_1">
      <path clip-path="url(#pa5b998aae1)" d="M 73.832727 307.584 
L 73.832727 41.472 
" style="fill:none;stroke:#b0b0b0;stroke-linecap:square;stroke-width:0.8;"/>
     </g>
     <g id="line2d_2">
      <defs>
       <path d="M 0 0 
L 0 3.5 
" id="m2aab986159" style="stroke:#000000;stroke-width:0.8;"/>
      </defs>
      <g>
       <use style="stroke:#000000;stroke-width:0.8;" x="73.832727" xlink:href="#m2aab986159" y="307.584"/>
      </g>
     </g>
     <g id="text_1">
      <!-- 0 -->
      <defs>
       <path d="M 31.78125 66.40625 
Q 24.171875 66.40625 20.328125 58.90625 
Q 16.5 51.421875 16.5 36.375 
Q 16.5 21.390625 20.328125 13.890625 
Q 24.171875 6.390625 31.78125 6.390625 
Q 39.453125 6.390625 43.28125 13.890625 
Q 47.125 21.390625 47.125 36.375 
Q 47.125 51.421875 43.28125 58.90625 
Q 39.453125 66.40625 31.78125 66.40625 
z
M 31.78125 74.21875 
Q 44.046875 74.21875 50.515625 64.515625 
Q 56.984375 54.828125 56.984375 36.375 
Q 56.984375 17.96875 50.515625 8.265625 
Q 44.046875 -1.421875 31.78125 -1.421875 
Q 19.53125 -1.421875 13.0625 8.265625 
Q 6.59375 17.96875 6.59375 36.375 
Q 6.59375 54.828125 13.0625 64.515625 
Q 19.53125 74.21875 31.78125 74.21875 
z
" id="DejaVuSans-48"/>
      </defs>
      <g transform="translate(70.651477 322.182437)scale(0.1 -0.1)">
       <use xlink:href="#DejaVuSans-48"/>
      </g>
     </g>
    </g>
    <g id="xtick_2">
     <g id="line2d_3">
      <path clip-path="url(#pa5b998aae1)" d="M 138.893758 307.584 
L 138.893758 41.472 
" style="fill:none;stroke:#b0b0b0;stroke-linecap:square;stroke-width:0.8;"/>
     </g>
     <g id="line2d_4">
      <g>
       <use style="stroke:#000000;stroke-width:0.8;" x="138.893758" xlink:href="#m2aab986159" y="307.584"/>
      </g>
     </g>
     <g id="text_2">
      <!-- 100 -->
      <defs>
       <path d="M 12.40625 8.296875 
L 28.515625 8.296875 
L 28.515625 63.921875 
L 10.984375 60.40625 
L 10.984375 69.390625 
L 28.421875 72.90625 
L 38.28125 72.90625 
L 38.28125 8.296875 
L 54.390625 8.296875 
L 54.390625 0 
L 12.40625 0 
z
" id="DejaVuSans-49"/>
      </defs>
      <g transform="translate(129.350008 322.182437)scale(0.1 -0.1)">
       <use xlink:href="#DejaVuSans-49"/>
       <use x="63.623047" xlink:href="#DejaVuSans-48"/>
       <use x="127.246094" xlink:href="#DejaVuSans-48"/>
      </g>
     </g>
    </g>
    <g id="xtick_3">
     <g id="line2d_5">
      <path clip-path="url(#pa5b998aae1)" d="M 203.95479 307.584 
L 203.95479 41.472 
" style="fill:none;stroke:#b0b0b0;stroke-linecap:square;stroke-width:0.8;"/>
     </g>
     <g id="line2d_6">
      <g>
       <use style="stroke:#000000;stroke-width:0.8;" x="203.95479" xlink:href="#m2aab986159" y="307.584"/>
      </g>
     </g>
     <g id="text_3">
      <!-- 200 -->
      <defs>
       <path d="M 19.1875 8.296875 
L 53.609375 8.296875 
L 53.609375 0 
L 7.328125 0 
L 7.328125 8.296875 
Q 12.9375 14.109375 22.625 23.890625 
Q 32.328125 33.6875 34.8125 36.53125 
Q 39.546875 41.84375 41.421875 45.53125 
Q 43.3125 49.21875 43.3125 52.78125 
Q 43.3125 58.59375 39.234375 62.25 
Q 35.15625 65.921875 28.609375 65.921875 
Q 23.96875 65.921875 18.8125 64.3125 
Q 13.671875 62.703125 7.8125 59.421875 
L 7.8125 69.390625 
Q 13.765625 71.78125 18.9375 73 
Q 24.125 74.21875 28.421875 74.21875 
Q 39.75 74.21875 46.484375 68.546875 
Q 53.21875 62.890625 53.21875 53.421875 
Q 53.21875 48.921875 51.53125 44.890625 
Q 49.859375 40.875 45.40625 35.40625 
Q 44.1875 33.984375 37.640625 27.21875 
Q 31.109375 20.453125 19.1875 8.296875 
z
" id="DejaVuSans-50"/>
      </defs>
      <g transform="translate(194.41104 322.182437)scale(0.1 -0.1)">
       <use xlink:href="#DejaVuSans-50"/>
       <use x="63.623047" xlink:href="#DejaVuSans-48"/>
       <use x="127.246094" xlink:href="#DejaVuSans-48"/>
      </g>
     </g>
    </g>
    <g id="xtick_4">
     <g id="line2d_7">
      <path clip-path="url(#pa5b998aae1)" d="M 269.015821 307.584 
L 269.015821 41.472 
" style="fill:none;stroke:#b0b0b0;stroke-linecap:square;stroke-width:0.8;"/>
     </g>
     <g id="line2d_8">
      <g>
       <use style="stroke:#000000;stroke-width:0.8;" x="269.015821" xlink:href="#m2aab986159" y="307.584"/>
      </g>
     </g>
     <g id="text_4">
      <!-- 300 -->
      <defs>
       <path d="M 40.578125 39.3125 
Q 47.65625 37.796875 51.625 33 
Q 55.609375 28.21875 55.609375 21.1875 
Q 55.609375 10.40625 48.1875 4.484375 
Q 40.765625 -1.421875 27.09375 -1.421875 
Q 22.515625 -1.421875 17.65625 -0.515625 
Q 12.796875 0.390625 7.625 2.203125 
L 7.625 11.71875 
Q 11.71875 9.328125 16.59375 8.109375 
Q 21.484375 6.890625 26.8125 6.890625 
Q 36.078125 6.890625 40.9375 10.546875 
Q 45.796875 14.203125 45.796875 21.1875 
Q 45.796875 27.640625 41.28125 31.265625 
Q 36.765625 34.90625 28.71875 34.90625 
L 20.21875 34.90625 
L 20.21875 43.015625 
L 29.109375 43.015625 
Q 36.375 43.015625 40.234375 45.921875 
Q 44.09375 48.828125 44.09375 54.296875 
Q 44.09375 59.90625 40.109375 62.90625 
Q 36.140625 65.921875 28.71875 65.921875 
Q 24.65625 65.921875 20.015625 65.03125 
Q 15.375 64.15625 9.8125 62.3125 
L 9.8125 71.09375 
Q 15.4375 72.65625 20.34375 73.4375 
Q 25.25 74.21875 29.59375 74.21875 
Q 40.828125 74.21875 47.359375 69.109375 
Q 53.90625 64.015625 53.90625 55.328125 
Q 53.90625 49.265625 50.4375 45.09375 
Q 46.96875 40.921875 40.578125 39.3125 
z
" id="DejaVuSans-51"/>
      </defs>
      <g transform="translate(259.472071 322.182437)scale(0.1 -0.1)">
       <use xlink:href="#DejaVuSans-51"/>
       <use x="63.623047" xlink:href="#DejaVuSans-48"/>
       <use x="127.246094" xlink:href="#DejaVuSans-48"/>
      </g>
     </g>
    </g>
    <g id="xtick_5">
     <g id="line2d_9">
      <path clip-path="url(#pa5b998aae1)" d="M 334.076852 307.584 
L 334.076852 41.472 
" style="fill:none;stroke:#b0b0b0;stroke-linecap:square;stroke-width:0.8;"/>
     </g>
     <g id="line2d_10">
      <g>
       <use style="stroke:#000000;stroke-width:0.8;" x="334.076852" xlink:href="#m2aab986159" y="307.584"/>
      </g>
     </g>
     <g id="text_5">
      <!-- 400 -->
      <defs>
       <path d="M 37.796875 64.3125 
L 12.890625 25.390625 
L 37.796875 25.390625 
z
M 35.203125 72.90625 
L 47.609375 72.90625 
L 47.609375 25.390625 
L 58.015625 25.390625 
L 58.015625 17.1875 
L 47.609375 17.1875 
L 47.609375 0 
L 37.796875 0 
L 37.796875 17.1875 
L 4.890625 17.1875 
L 4.890625 26.703125 
z
" id="DejaVuSans-52"/>
      </defs>
      <g transform="translate(324.533102 322.182437)scale(0.1 -0.1)">
       <use xlink:href="#DejaVuSans-52"/>
       <use x="63.623047" xlink:href="#DejaVuSans-48"/>
       <use x="127.246094" xlink:href="#DejaVuSans-48"/>
      </g>
     </g>
    </g>
    <g id="xtick_6">
     <g id="line2d_11">
      <path clip-path="url(#pa5b998aae1)" d="M 399.137883 307.584 
L 399.137883 41.472 
" style="fill:none;stroke:#b0b0b0;stroke-linecap:square;stroke-width:0.8;"/>
     </g>
     <g id="line2d_12">
      <g>
       <use style="stroke:#000000;stroke-width:0.8;" x="399.137883" xlink:href="#m2aab986159" y="307.584"/>
      </g>
     </g>
     <g id="text_6">
      <!-- 500 -->
      <defs>
       <path d="M 10.796875 72.90625 
L 49.515625 72.90625 
L 49.515625 64.59375 
L 19.828125 64.59375 
L 19.828125 46.734375 
Q 21.96875 47.46875 24.109375 47.828125 
Q 26.265625 48.1875 28.421875 48.1875 
Q 40.625 48.1875 47.75 41.5 
Q 54.890625 34.8125 54.890625 23.390625 
Q 54.890625 11.625 47.5625 5.09375 
Q 40.234375 -1.421875 26.90625 -1.421875 
Q 22.3125 -1.421875 17.546875 -0.640625 
Q 12.796875 0.140625 7.71875 1.703125 
L 7.71875 11.625 
Q 12.109375 9.234375 16.796875 8.0625 
Q 21.484375 6.890625 26.703125 6.890625 
Q 35.15625 6.890625 40.078125 11.328125 
Q 45.015625 15.765625 45.015625 23.390625 
Q 45.015625 31 40.078125 35.4375 
Q 35.15625 39.890625 26.703125 39.890625 
Q 22.75 39.890625 18.8125 39.015625 
Q 14.890625 38.140625 10.796875 36.28125 
z
" id="DejaVuSans-53"/>
      </defs>
      <g transform="translate(389.594133 322.182437)scale(0.1 -0.1)">
       <use xlink:href="#DejaVuSans-53"/>
       <use x="63.623047" xlink:href="#DejaVuSans-48"/>
       <use x="127.246094" xlink:href="#DejaVuSans-48"/>
      </g>
     </g>
    </g>
    <g id="text_7">
     <!-- Generations -->
     <defs>
      <path d="M 59.515625 10.40625 
L 59.515625 29.984375 
L 43.40625 29.984375 
L 43.40625 38.09375 
L 69.28125 38.09375 
L 69.28125 6.78125 
Q 63.578125 2.734375 56.6875 0.65625 
Q 49.8125 -1.421875 42 -1.421875 
Q 24.90625 -1.421875 15.25 8.5625 
Q 5.609375 18.5625 5.609375 36.375 
Q 5.609375 54.25 15.25 64.234375 
Q 24.90625 74.21875 42 74.21875 
Q 49.125 74.21875 55.546875 72.453125 
Q 61.96875 70.703125 67.390625 67.28125 
L 67.390625 56.78125 
Q 61.921875 61.421875 55.765625 63.765625 
Q 49.609375 66.109375 42.828125 66.109375 
Q 29.4375 66.109375 22.71875 58.640625 
Q 16.015625 51.171875 16.015625 36.375 
Q 16.015625 21.625 22.71875 14.15625 
Q 29.4375 6.6875 42.828125 6.6875 
Q 48.046875 6.6875 52.140625 7.59375 
Q 56.25 8.5 59.515625 10.40625 
z
" id="DejaVuSans-71"/>
      <path d="M 56.203125 29.59375 
L 56.203125 25.203125 
L 14.890625 25.203125 
Q 15.484375 15.921875 20.484375 11.0625 
Q 25.484375 6.203125 34.421875 6.203125 
Q 39.59375 6.203125 44.453125 7.46875 
Q 49.3125 8.734375 54.109375 11.28125 
L 54.109375 2.78125 
Q 49.265625 0.734375 44.1875 -0.34375 
Q 39.109375 -1.421875 33.890625 -1.421875 
Q 20.796875 -1.421875 13.15625 6.1875 
Q 5.515625 13.8125 5.515625 26.8125 
Q 5.515625 40.234375 12.765625 48.109375 
Q 20.015625 56 32.328125 56 
Q 43.359375 56 49.78125 48.890625 
Q 56.203125 41.796875 56.203125 29.59375 
z
M 47.21875 32.234375 
Q 47.125 39.59375 43.09375 43.984375 
Q 39.0625 48.390625 32.421875 48.390625 
Q 24.90625 48.390625 20.390625 44.140625 
Q 15.875 39.890625 15.1875 32.171875 
z
" id="DejaVuSans-101"/>
      <path d="M 54.890625 33.015625 
L 54.890625 0 
L 45.90625 0 
L 45.90625 32.71875 
Q 45.90625 40.484375 42.875 44.328125 
Q 39.84375 48.1875 33.796875 48.1875 
Q 26.515625 48.1875 22.3125 43.546875 
Q 18.109375 38.921875 18.109375 30.90625 
L 18.109375 0 
L 9.078125 0 
L 9.078125 54.6875 
L 18.109375 54.6875 
L 18.109375 46.1875 
Q 21.34375 51.125 25.703125 53.5625 
Q 30.078125 56 35.796875 56 
Q 45.21875 56 50.046875 50.171875 
Q 54.890625 44.34375 54.890625 33.015625 
z
" id="DejaVuSans-110"/>
      <path d="M 41.109375 46.296875 
Q 39.59375 47.171875 37.8125 47.578125 
Q 36.03125 48 33.890625 48 
Q 26.265625 48 22.1875 43.046875 
Q 18.109375 38.09375 18.109375 28.8125 
L 18.109375 0 
L 9.078125 0 
L 9.078125 54.6875 
L 18.109375 54.6875 
L 18.109375 46.1875 
Q 20.953125 51.171875 25.484375 53.578125 
Q 30.03125 56 36.53125 56 
Q 37.453125 56 38.578125 55.875 
Q 39.703125 55.765625 41.0625 55.515625 
z
" id="DejaVuSans-114"/>
      <path d="M 34.28125 27.484375 
Q 23.390625 27.484375 19.1875 25 
Q 14.984375 22.515625 14.984375 16.5 
Q 14.984375 11.71875 18.140625 8.90625 
Q 21.296875 6.109375 26.703125 6.109375 
Q 34.1875 6.109375 38.703125 11.40625 
Q 43.21875 16.703125 43.21875 25.484375 
L 43.21875 27.484375 
z
M 52.203125 31.203125 
L 52.203125 0 
L 43.21875 0 
L 43.21875 8.296875 
Q 40.140625 3.328125 35.546875 0.953125 
Q 30.953125 -1.421875 24.3125 -1.421875 
Q 15.921875 -1.421875 10.953125 3.296875 
Q 6 8.015625 6 15.921875 
Q 6 25.140625 12.171875 29.828125 
Q 18.359375 34.515625 30.609375 34.515625 
L 43.21875 34.515625 
L 43.21875 35.40625 
Q 43.21875 41.609375 39.140625 45 
Q 35.0625 48.390625 27.6875 48.390625 
Q 23 48.390625 18.546875 47.265625 
Q 14.109375 46.140625 10.015625 43.890625 
L 10.015625 52.203125 
Q 14.9375 54.109375 19.578125 55.046875 
Q 24.21875 56 28.609375 56 
Q 40.484375 56 46.34375 49.84375 
Q 52.203125 43.703125 52.203125 31.203125 
z
" id="DejaVuSans-97"/>
      <path d="M 18.3125 70.21875 
L 18.3125 54.6875 
L 36.8125 54.6875 
L 36.8125 47.703125 
L 18.3125 47.703125 
L 18.3125 18.015625 
Q 18.3125 11.328125 20.140625 9.421875 
Q 21.96875 7.515625 27.59375 7.515625 
L 36.8125 7.515625 
L 36.8125 0 
L 27.59375 0 
Q 17.1875 0 13.234375 3.875 
Q 9.28125 7.765625 9.28125 18.015625 
L 9.28125 47.703125 
L 2.6875 47.703125 
L 2.6875 54.6875 
L 9.28125 54.6875 
L 9.28125 70.21875 
z
" id="DejaVuSans-116"/>
      <path d="M 9.421875 54.6875 
L 18.40625 54.6875 
L 18.40625 0 
L 9.421875 0 
z
M 9.421875 75.984375 
L 18.40625 75.984375 
L 18.40625 64.59375 
L 9.421875 64.59375 
z
" id="DejaVuSans-105"/>
      <path d="M 30.609375 48.390625 
Q 23.390625 48.390625 19.1875 42.75 
Q 14.984375 37.109375 14.984375 27.296875 
Q 14.984375 17.484375 19.15625 11.84375 
Q 23.34375 6.203125 30.609375 6.203125 
Q 37.796875 6.203125 41.984375 11.859375 
Q 46.1875 17.53125 46.1875 27.296875 
Q 46.1875 37.015625 41.984375 42.703125 
Q 37.796875 48.390625 30.609375 48.390625 
z
M 30.609375 56 
Q 42.328125 56 49.015625 48.375 
Q 55.71875 40.765625 55.71875 27.296875 
Q 55.71875 13.875 49.015625 6.21875 
Q 42.328125 -1.421875 30.609375 -1.421875 
Q 18.84375 -1.421875 12.171875 6.21875 
Q 5.515625 13.875 5.515625 27.296875 
Q 5.515625 40.765625 12.171875 48.375 
Q 18.84375 56 30.609375 56 
z
" id="DejaVuSans-111"/>
      <path d="M 44.28125 53.078125 
L 44.28125 44.578125 
Q 40.484375 46.53125 36.375 47.5 
Q 32.28125 48.484375 27.875 48.484375 
Q 21.1875 48.484375 17.84375 46.4375 
Q 14.5 44.390625 14.5 40.28125 
Q 14.5 37.15625 16.890625 35.375 
Q 19.28125 33.59375 26.515625 31.984375 
L 29.59375 31.296875 
Q 39.15625 29.25 43.1875 25.515625 
Q 47.21875 21.78125 47.21875 15.09375 
Q 47.21875 7.46875 41.1875 3.015625 
Q 35.15625 -1.421875 24.609375 -1.421875 
Q 20.21875 -1.421875 15.453125 -0.5625 
Q 10.6875 0.296875 5.421875 2 
L 5.421875 11.28125 
Q 10.40625 8.6875 15.234375 7.390625 
Q 20.0625 6.109375 24.8125 6.109375 
Q 31.15625 6.109375 34.5625 8.28125 
Q 37.984375 10.453125 37.984375 14.40625 
Q 37.984375 18.0625 35.515625 20.015625 
Q 33.0625 21.96875 24.703125 23.78125 
L 21.578125 24.515625 
Q 13.234375 26.265625 9.515625 29.90625 
Q 5.8125 33.546875 5.8125 39.890625 
Q 5.8125 47.609375 11.28125 51.796875 
Q 16.75 56 26.8125 56 
Q 31.78125 56 36.171875 55.265625 
Q 40.578125 54.546875 44.28125 53.078125 
z
" id="DejaVuSans-115"/>
     </defs>
     <g transform="translate(205.662344 335.860562)scale(0.1 -0.1)">
      <use xlink:href="#DejaVuSans-71"/>
      <use x="77.490234" xlink:href="#DejaVuSans-101"/>
      <use x="139.013672" xlink:href="#DejaVuSans-110"/>
      <use x="202.392578" xlink:href="#DejaVuSans-101"/>
      <use x="263.916016" xlink:href="#DejaVuSans-114"/>
      <use x="305.029297" xlink:href="#DejaVuSans-97"/>
      <use x="366.308594" xlink:href="#DejaVuSans-116"/>
      <use x="405.517578" xlink:href="#DejaVuSans-105"/>
      <use x="433.300781" xlink:href="#DejaVuSans-111"/>
      <use x="494.482422" xlink:href="#DejaVuSans-110"/>
      <use x="557.861328" xlink:href="#DejaVuSans-115"/>
     </g>
    </g>
   </g>
   <g id="matplotlib.axis_2">
    <g id="ytick_1">
     <g id="line2d_13">
      <path clip-path="url(#pa5b998aae1)" d="M 57.6 281.14909 
L 414.72 281.14909 
" style="fill:none;stroke:#b0b0b0;stroke-linecap:square;stroke-width:0.8;"/>
     </g>
     <g id="line2d_14">
      <defs>
       <path d="M 0 0 
L -3.5 0 
" id="md54c3d841e" style="stroke:#000000;stroke-width:0.8;"/>
      </defs>
      <g>
       <use style="stroke:#000000;stroke-width:0.8;" x="57.6" xlink:href="#md54c3d841e" y="281.14909"/>
      </g>
     </g>
     <g id="text_8">
      <!-- 20 -->
      <g transform="translate(37.875 284.948309)scale(0.1 -0.1)">
       <use xlink:href="#DejaVuSans-50"/>
       <use x="63.623047" xlink:href="#DejaVuSans-48"/>
      </g>
     </g>
    </g>
    <g id="ytick_2">
     <g id="line2d_15">
      <path clip-path="url(#pa5b998aae1)" d="M 57.6 231.67494 
L 414.72 231.67494 
" style="fill:none;stroke:#b0b0b0;stroke-linecap:square;stroke-width:0.8;"/>
     </g>
     <g id="line2d_16">
      <g>
       <use style="stroke:#000000;stroke-width:0.8;" x="57.6" xlink:href="#md54c3d841e" y="231.67494"/>
      </g>
     </g>
     <g id="text_9">
      <!-- 25 -->
      <g transform="translate(37.875 235.474159)scale(0.1 -0.1)">
       <use xlink:href="#DejaVuSans-50"/>
       <use x="63.623047" xlink:href="#DejaVuSans-53"/>
      </g>
     </g>
    </g>
    <g id="ytick_3">
     <g id="line2d_17">
      <path clip-path="url(#pa5b998aae1)" d="M 57.6 182.20079 
L 414.72 182.20079 
" style="fill:none;stroke:#b0b0b0;stroke-linecap:square;stroke-width:0.8;"/>
     </g>
     <g id="line2d_18">
      <g>
       <use style="stroke:#000000;stroke-width:0.8;" x="57.6" xlink:href="#md54c3d841e" y="182.20079"/>
      </g>
     </g>
     <g id="text_10">
      <!-- 30 -->
      <g transform="translate(37.875 186.000009)scale(0.1 -0.1)">
       <use xlink:href="#DejaVuSans-51"/>
       <use x="63.623047" xlink:href="#DejaVuSans-48"/>
      </g>
     </g>
    </g>
    <g id="ytick_4">
     <g id="line2d_19">
      <path clip-path="url(#pa5b998aae1)" d="M 57.6 132.72664 
L 414.72 132.72664 
" style="fill:none;stroke:#b0b0b0;stroke-linecap:square;stroke-width:0.8;"/>
     </g>
     <g id="line2d_20">
      <g>
       <use style="stroke:#000000;stroke-width:0.8;" x="57.6" xlink:href="#md54c3d841e" y="132.72664"/>
      </g>
     </g>
     <g id="text_11">
      <!-- 35 -->
      <g transform="translate(37.875 136.525859)scale(0.1 -0.1)">
       <use xlink:href="#DejaVuSans-51"/>
       <use x="63.623047" xlink:href="#DejaVuSans-53"/>
      </g>
     </g>
    </g>
    <g id="ytick_5">
     <g id="line2d_21">
      <path clip-path="url(#pa5b998aae1)" d="M 57.6 83.25249 
L 414.72 83.25249 
" style="fill:none;stroke:#b0b0b0;stroke-linecap:square;stroke-width:0.8;"/>
     </g>
     <g id="line2d_22">
      <g>
       <use style="stroke:#000000;stroke-width:0.8;" x="57.6" xlink:href="#md54c3d841e" y="83.25249"/>
      </g>
     </g>
     <g id="text_12">
      <!-- 40 -->
      <g transform="translate(37.875 87.051709)scale(0.1 -0.1)">
       <use xlink:href="#DejaVuSans-52"/>
       <use x="63.623047" xlink:href="#DejaVuSans-48"/>
      </g>
     </g>
    </g>
    <g id="text_13">
     <!-- Fitness -->
     <defs>
      <path d="M 9.8125 72.90625 
L 51.703125 72.90625 
L 51.703125 64.59375 
L 19.671875 64.59375 
L 19.671875 43.109375 
L 48.578125 43.109375 
L 48.578125 34.8125 
L 19.671875 34.8125 
L 19.671875 0 
L 9.8125 0 
z
" id="DejaVuSans-70"/>
     </defs>
     <g transform="translate(31.795312 192.202219)rotate(-90)scale(0.1 -0.1)">
      <use xlink:href="#DejaVuSans-70"/>
      <use x="57.410156" xlink:href="#DejaVuSans-105"/>
      <use x="85.193359" xlink:href="#DejaVuSans-116"/>
      <use x="124.402344" xlink:href="#DejaVuSans-110"/>
      <use x="187.78125" xlink:href="#DejaVuSans-101"/>
      <use x="249.304688" xlink:href="#DejaVuSans-115"/>
      <use x="301.404297" xlink:href="#DejaVuSans-115"/>
     </g>
    </g>
   </g>
   <g id="line2d_23">
    <path clip-path="url(#pa5b998aae1)" d="M 73.832727 286.319139 
L 74.483338 295.488 
L 75.133948 289.253901 
L 75.784558 289.208789 
L 76.435169 290.13129 
L 77.085779 287.318238 
L 77.736389 287.463881 
L 78.386999 287.3428 
L 79.03761 287.631063 
L 79.68822 284.513831 
L 80.33883 286.121119 
L 80.989441 286.008383 
L 81.640051 286.296401 
L 82.290661 282.339446 
L 82.941272 290.520516 
L 83.591882 285.591667 
L 84.242492 285.157122 
L 84.893103 282.798228 
L 85.543713 287.456743 
L 86.194323 283.57896 
L 86.844934 287.081065 
L 87.495544 286.629685 
L 88.146154 282.653716 
L 88.796764 285.525182 
L 89.447375 284.644407 
L 90.097985 281.791611 
L 90.748595 282.957545 
L 91.399206 281.532611 
L 92.049816 284.323371 
L 92.700426 282.016163 
L 93.351037 284.900565 
L 94.001647 285.299351 
L 94.652257 277.476009 
L 95.953478 279.86597 
L 96.604088 282.014888 
L 97.254698 286.185533 
L 97.905309 284.613527 
L 98.555919 284.397011 
L 99.206529 289.24486 
L 99.85714 285.951703 
L 100.50775 285.501803 
L 101.15836 290.389115 
L 101.808971 286.54627 
L 102.459581 289.010396 
L 103.110191 285.779675 
L 103.760802 284.430792 
L 104.411412 280.502694 
L 105.712633 286.034507 
L 106.363243 281.917861 
L 107.013853 278.831158 
L 107.664463 280.074651 
L 108.315074 279.401496 
L 108.965684 279.466969 
L 109.616294 272.706486 
L 110.266905 277.842649 
L 110.917515 276.572731 
L 111.568125 284.092802 
L 112.218736 272.948412 
L 112.869346 275.122915 
L 113.519956 272.565325 
L 114.170567 270.683881 
L 115.471787 273.080239 
L 116.122398 268.539968 
L 116.773008 271.204537 
L 117.423618 272.611406 
L 118.074228 273.307437 
L 118.724839 271.006889 
L 119.375449 270.983506 
L 120.026059 270.491226 
L 120.67667 268.120486 
L 121.32728 276.795365 
L 122.628501 266.059474 
L 123.929721 263.368155 
L 124.580332 262.723379 
L 125.230942 260.150336 
L 125.881552 258.094136 
L 126.532163 258.606733 
L 127.182773 260.051635 
L 127.833383 256.300976 
L 128.483993 258.250331 
L 129.134604 255.184461 
L 129.785214 253.225334 
L 130.435824 252.927745 
L 131.086435 256.573209 
L 131.737045 255.52148 
L 132.387655 252.132501 
L 133.038266 244.216637 
L 133.688876 254.358838 
L 134.339486 250.301957 
L 134.990097 243.77137 
L 135.640707 249.807216 
L 136.941927 246.739819 
L 137.592538 246.071918 
L 138.243148 249.411423 
L 138.893758 250.821436 
L 139.544369 244.365059 
L 140.194979 245.824547 
L 140.845589 246.937715 
L 141.4962 246.789293 
L 142.14681 246.195603 
L 142.79742 252.503557 
L 143.448031 246.344025 
L 144.098641 247.333508 
L 144.749251 243.400314 
L 145.399862 248.372466 
L 146.050472 247.308771 
L 146.701082 249.980376 
L 147.351692 247.580879 
L 148.652913 238.799218 
L 149.303523 251.489337 
L 149.954134 245.775073 
L 150.604744 243.548736 
L 151.255354 244.216637 
L 151.905965 247.754039 
L 152.556575 246.492448 
L 153.207185 248.496151 
L 153.857796 243.919792 
L 154.508406 245.478228 
L 155.159016 244.760853 
L 155.809627 241.9903 
L 156.460237 242.410831 
L 157.110847 242.658201 
L 158.412068 237.982894 
L 159.062678 241.866615 
L 159.713288 236.9192 
L 160.363899 241.124503 
L 161.014509 239.516593 
L 161.665119 234.198122 
L 162.96634 240.258705 
L 163.61695 236.102876 
L 164.267561 240.97608 
L 164.918171 239.417644 
L 165.568781 238.799218 
L 166.219392 243.053995 
L 166.870002 238.922903 
L 167.520612 236.078139 
L 168.171222 235.063919 
L 168.821833 239.862912 
L 169.472443 227.519111 
L 170.123053 237.587101 
L 170.773664 242.188197 
L 171.424274 232.614949 
L 172.074884 231.67494 
L 172.725495 235.583398 
L 173.376105 235.855506 
L 174.026715 233.134427 
L 174.677326 234.618652 
L 175.327936 234.544441 
L 175.978546 242.212934 
L 176.629156 236.177088 
L 177.279767 236.177088 
L 177.930377 233.381798 
L 178.580987 236.276036 
L 179.231598 237.562364 
L 179.882208 238.551847 
L 180.532818 235.707083 
L 181.183429 234.791811 
L 181.834039 235.90498 
L 183.13526 237.413941 
L 183.78587 238.898166 
L 184.43648 240.778184 
L 185.087091 240.778184 
L 185.737701 232.045996 
L 186.388311 235.954454 
L 187.038921 238.131317 
L 187.689532 237.488153 
L 188.340142 235.039182 
L 188.990752 236.844989 
L 189.641363 234.12391 
L 190.291973 240.877132 
L 190.942583 239.491856 
L 191.593194 243.499262 
L 192.243804 235.48445 
L 192.894414 236.003928 
L 193.545025 238.972377 
L 194.195635 237.661312 
L 194.846245 236.844989 
L 196.147466 232.68916 
L 196.798076 241.248188 
L 197.448686 238.304476 
L 198.099297 234.173385 
L 198.749907 233.926014 
L 199.400517 236.300773 
L 200.051128 243.17768 
L 200.701738 237.636575 
L 201.352348 235.855506 
L 202.002959 235.286553 
L 202.653569 243.77137 
L 203.304179 234.7176 
L 203.95479 244.290848 
L 204.6054 239.714489 
L 205.25601 242.608727 
L 205.906621 246.690345 
L 206.557231 241.940826 
L 207.207841 239.467119 
L 207.858451 236.49867 
L 208.509062 238.428161 
L 209.159672 232.367578 
L 209.810282 235.979191 
L 210.460893 237.240782 
L 211.111503 242.608727 
L 211.762113 235.410238 
L 212.412724 233.505484 
L 213.063334 236.993411 
L 213.713944 245.057698 
L 215.015165 236.399721 
L 215.665775 235.806032 
L 216.316385 237.33973 
L 216.966996 233.332324 
L 217.617606 233.678643 
L 218.268216 233.70338 
L 218.918827 235.979191 
L 219.569437 238.997114 
L 220.220047 236.226562 
L 220.870658 240.926606 
L 221.521268 238.279739 
L 222.171878 240.308179 
L 222.822489 235.138131 
L 223.473099 235.113393 
L 224.123709 240.852395 
L 224.77432 230.685457 
L 225.42493 236.968674 
L 226.07554 236.894463 
L 226.72615 240.110283 
L 227.376761 234.841286 
L 228.027371 234.396018 
L 228.677981 237.93342 
L 229.328592 234.29707 
L 229.979202 232.639686 
L 230.629812 235.138131 
L 231.280423 238.799218 
L 231.931033 237.191308 
L 232.581643 234.692863 
L 233.232254 238.304476 
L 233.882864 235.014445 
L 234.533474 234.000225 
L 235.184085 238.997114 
L 235.834695 236.721303 
L 236.485305 236.721303 
L 237.135915 234.618652 
L 237.786526 235.806032 
L 238.437136 237.686049 
L 239.087746 236.572881 
L 239.738357 232.540738 
L 240.388967 235.954454 
L 241.039577 245.775073 
L 241.690188 241.075029 
L 242.340798 233.060216 
L 242.991408 240.233968 
L 243.642019 244.092952 
L 244.292629 236.473933 
L 244.943239 237.710786 
L 245.59385 238.675532 
L 246.24446 241.9903 
L 246.89507 230.833879 
L 247.54568 236.74604 
L 248.196291 238.551847 
L 248.846901 238.52711 
L 249.497511 243.548736 
L 250.148122 240.827658 
L 250.798732 235.632872 
L 251.449342 234.12391 
L 252.099953 238.922903 
L 252.750563 237.166571 
L 253.401173 233.851803 
L 254.051784 234.12391 
L 254.702394 233.950751 
L 255.353004 238.650795 
L 256.003615 231.575992 
L 256.654225 234.272333 
L 257.304835 235.336027 
L 257.955445 239.096063 
L 258.606056 233.480746 
L 259.256666 240.308179 
L 259.907276 234.12391 
L 260.557887 235.31129 
L 261.208497 232.540738 
L 261.859107 238.922903 
L 262.509718 236.523407 
L 263.160328 236.943937 
L 263.810938 229.05281 
L 264.461549 238.52711 
L 265.112159 243.499262 
L 265.762769 238.428161 
L 266.413379 238.799218 
L 267.06399 233.381798 
L 267.7146 230.190716 
L 269.015821 240.55555 
L 269.666431 239.467119 
L 270.317041 239.1208 
L 270.967652 239.937123 
L 271.618262 243.895055 
L 272.268872 236.721303 
L 272.919483 241.520296 
L 273.570093 234.618652 
L 274.220703 238.725006 
L 274.871314 249.634056 
L 275.521924 240.184494 
L 276.172534 240.679235 
L 276.823144 237.018148 
L 277.473755 241.817141 
L 278.124365 241.173977 
L 278.774975 240.13502 
L 279.425586 244.340322 
L 280.076196 242.188197 
L 280.726806 235.187605 
L 281.377417 238.52711 
L 282.028027 236.968674 
L 282.678637 237.463416 
L 283.329248 233.530221 
L 283.979858 233.728117 
L 284.630468 241.347136 
L 285.281079 239.096063 
L 285.931689 238.52711 
L 286.582299 232.045996 
L 287.232909 241.000817 
L 287.88352 240.679235 
L 288.53413 242.287145 
L 289.18474 240.530813 
L 289.835351 239.986597 
L 290.485961 243.227154 
L 291.136571 247.877724 
L 291.787182 239.467119 
L 292.437792 238.898166 
L 293.088402 233.653906 
L 293.739013 231.724414 
L 294.389623 233.233376 
L 295.040233 235.929717 
L 295.690844 232.664423 
L 296.341454 232.961268 
L 296.992064 238.749743 
L 297.642674 237.240782 
L 298.293285 231.773888 
L 298.943895 232.120207 
L 299.594505 238.35395 
L 300.245116 233.134427 
L 300.895726 233.208639 
L 302.196947 238.873429 
L 302.847557 232.466526 
L 303.498167 235.830769 
L 304.148778 234.643389 
L 304.799388 239.986597 
L 305.449998 239.318696 
L 306.751219 233.975488 
L 307.401829 236.003928 
L 308.052439 241.025554 
L 308.70305 236.374984 
L 309.35366 239.318696 
L 310.00427 236.053402 
L 310.654881 236.32551 
L 311.305491 240.407127 
L 311.956101 240.506076 
L 313.257322 231.031776 
L 313.907932 231.749151 
L 314.558543 238.898166 
L 315.209153 239.615541 
L 315.859763 239.937123 
L 316.510373 233.752854 
L 317.160984 237.364467 
L 317.811594 230.858617 
L 318.462204 231.180199 
L 319.112815 241.792404 
L 319.763425 231.773888 
L 320.414035 232.194419 
L 321.064646 233.901277 
L 321.715256 238.848692 
L 322.365866 232.68916 
L 323.016477 237.240782 
L 324.317697 240.258705 
L 324.968308 239.862912 
L 325.618918 237.661312 
L 326.269528 242.089249 
L 326.920138 236.251299 
L 327.570749 240.877132 
L 328.221359 233.604432 
L 328.871969 235.632872 
L 329.52258 234.049699 
L 330.17319 236.894463 
L 330.8238 237.93342 
L 331.474411 237.141834 
L 332.125021 232.986005 
L 332.775631 238.650795 
L 333.426242 239.219748 
L 334.076852 238.205528 
L 334.727462 235.929717 
L 335.378073 242.460305 
L 336.028683 236.9192 
L 336.679293 237.191308 
L 337.329903 239.590804 
L 337.980514 237.042885 
L 338.631124 236.993411 
L 339.281734 240.951343 
L 339.932345 238.650795 
L 340.582955 237.018148 
L 341.233565 237.587101 
L 341.884176 234.074436 
L 342.534786 236.548144 
L 343.185396 234.668126 
L 343.836007 233.28285 
L 344.486617 234.692863 
L 345.137227 239.096063 
L 345.787837 234.989708 
L 346.438448 244.266111 
L 347.089058 240.011334 
L 347.739668 236.74604 
L 348.390279 237.117097 
L 349.040889 234.024962 
L 349.691499 238.032368 
L 350.34211 237.661312 
L 350.99272 238.057105 
L 351.64333 235.162868 
L 352.293941 238.725006 
L 352.944551 232.293367 
L 353.595161 233.134427 
L 354.245772 237.216045 
L 354.896382 234.173385 
L 355.546992 237.859209 
L 356.197602 231.947048 
L 356.848213 234.593915 
L 357.498823 234.099173 
L 358.149433 233.381798 
L 358.800044 240.308179 
L 359.450654 237.908683 
L 360.101264 236.424458 
L 360.751875 240.036071 
L 361.402485 233.752854 
L 362.053095 239.937123 
L 362.703706 232.243893 
L 363.354316 231.353358 
L 364.004926 239.293959 
L 364.655537 241.198714 
L 365.306147 242.410831 
L 365.956757 237.883946 
L 366.607367 240.184494 
L 367.257978 236.424458 
L 367.908588 233.579695 
L 368.559198 234.593915 
L 369.209809 242.410831 
L 369.860419 237.883946 
L 370.511029 237.661312 
L 371.16164 239.318696 
L 371.81225 239.739226 
L 372.46286 238.725006 
L 373.113471 234.396018 
L 373.764081 235.509187 
L 374.414691 240.431865 
L 375.065302 234.148648 
L 375.715912 233.975488 
L 376.366522 238.180791 
L 377.017132 239.96186 
L 377.667743 243.77137 
L 378.318353 240.258705 
L 378.968963 243.326102 
L 379.619574 241.248188 
L 380.270184 237.784998 
L 380.920794 229.770185 
L 381.571405 238.428161 
L 382.222015 243.622947 
L 382.872625 235.657609 
L 383.523236 240.332916 
L 384.173846 232.936531 
L 384.824456 235.187605 
L 385.475066 232.812845 
L 386.125677 235.212342 
L 386.776287 242.633464 
L 387.426897 243.919792 
L 388.077508 238.205528 
L 388.728118 242.089249 
L 389.378728 241.56977 
L 390.029339 242.089249 
L 390.679949 237.216045 
L 391.330559 239.36817 
L 391.98117 235.31129 
L 392.63178 234.049699 
L 393.28239 235.756557 
L 393.933001 235.583398 
L 394.583611 234.222859 
L 395.234221 233.777591 
L 395.884831 237.735523 
L 396.535442 235.830769 
L 397.186052 238.057105 
L 397.836662 234.346544 
L 398.487273 238.52711 
L 398.487273 238.52711 
" style="fill:none;stroke:#0000ff;stroke-linecap:square;stroke-width:1.5;"/>
   </g>
   <g id="line2d_24">
    <path clip-path="url(#pa5b998aae1)" d="M 73.832727 247.082059 
L 74.483338 252.655011 
L 75.133948 245.672331 
L 75.784558 245.909934 
L 76.435169 246.359484 
L 77.085779 245.744821 
L 77.736389 244.68294 
L 78.386999 244.359736 
L 79.03761 247.120309 
L 79.68822 241.440217 
L 80.33883 242.034145 
L 80.989441 243.879428 
L 81.640051 239.343093 
L 82.290661 233.541411 
L 82.941272 242.779302 
L 83.591882 239.275129 
L 84.242492 240.064949 
L 84.893103 236.667889 
L 85.543713 241.300694 
L 86.194323 237.11157 
L 86.844934 243.723756 
L 87.495544 236.988197 
L 88.146154 234.634096 
L 88.796764 238.250548 
L 89.447375 236.856816 
L 90.097985 230.757901 
L 90.748595 229.657369 
L 91.399206 232.008836 
L 92.049816 237.295528 
L 92.700426 233.528528 
L 93.351037 235.216604 
L 94.001647 234.753162 
L 94.652257 224.632343 
L 95.302868 223.987578 
L 95.953478 227.202301 
L 96.604088 231.396431 
L 97.254698 233.488684 
L 97.905309 234.917223 
L 98.555919 233.026427 
L 99.206529 240.546139 
L 99.85714 237.817224 
L 100.50775 234.117602 
L 101.15836 236.764412 
L 101.808971 234.62833 
L 102.459581 238.529363 
L 103.110191 230.930885 
L 103.760802 232.344969 
L 104.411412 225.320708 
L 105.062022 232.999554 
L 105.712633 232.043025 
L 106.363243 227.629831 
L 107.013853 217.542467 
L 107.664463 221.164852 
L 108.315074 221.220834 
L 108.965684 224.636663 
L 109.616294 211.427139 
L 110.266905 213.985922 
L 110.917515 215.190008 
L 111.568125 228.559093 
L 112.218736 215.207546 
L 112.869346 213.182953 
L 113.519956 212.532205 
L 114.170567 202.181202 
L 114.821177 204.82382 
L 115.471787 212.272145 
L 116.122398 206.816304 
L 116.773008 205.565931 
L 117.423618 209.786748 
L 118.074228 209.514981 
L 118.724839 202.984431 
L 119.375449 208.663038 
L 120.026059 205.594083 
L 120.67667 206.537503 
L 121.32728 212.075763 
L 121.97789 212.004905 
L 122.628501 202.401506 
L 123.279111 198.105805 
L 123.929721 199.356161 
L 124.580332 201.108307 
L 125.230942 195.363484 
L 125.881552 192.506936 
L 126.532163 192.350228 
L 127.182773 196.369018 
L 127.833383 195.706355 
L 128.483993 196.442502 
L 129.785214 192.273037 
L 130.435824 188.260303 
L 131.086435 194.624063 
L 131.737045 188.687855 
L 132.387655 193.091829 
L 133.038266 182.593257 
L 133.688876 189.881326 
L 134.339486 185.403116 
L 134.990097 179.498379 
L 135.640707 185.693265 
L 136.291317 187.693329 
L 136.941927 182.469494 
L 137.592538 178.992578 
L 138.243148 184.83718 
L 138.893758 188.416684 
L 139.544369 182.049078 
L 140.194979 182.308447 
L 140.845589 183.794128 
L 141.4962 186.439554 
L 142.14681 182.618765 
L 142.79742 188.746003 
L 143.448031 182.451695 
L 144.098641 183.853571 
L 144.749251 182.935878 
L 145.399862 184.848856 
L 146.050472 185.949974 
L 146.701082 189.15131 
L 147.351692 184.077618 
L 148.002303 180.54402 
L 148.652913 172.68013 
L 149.303523 187.771323 
L 149.954134 186.394241 
L 150.604744 182.380597 
L 151.255354 181.5417 
L 151.905965 183.823654 
L 153.207185 184.895404 
L 153.857796 181.193989 
L 154.508406 184.487235 
L 155.809627 180.307567 
L 156.460237 177.486286 
L 157.110847 178.507263 
L 157.761457 177.118876 
L 158.412068 178.844339 
L 159.062678 179.283008 
L 159.713288 175.639838 
L 160.363899 178.490952 
L 161.014509 179.512428 
L 161.665119 173.439535 
L 162.31573 172.911687 
L 162.96634 178.82309 
L 163.61695 172.059363 
L 164.267561 180.035333 
L 164.918171 173.236694 
L 166.219392 182.827472 
L 166.870002 176.302665 
L 167.520612 174.394389 
L 168.171222 170.91123 
L 168.821833 178.772658 
L 169.472443 165.218131 
L 170.123053 175.049354 
L 170.773664 179.981585 
L 171.424274 172.871169 
L 172.074884 171.271886 
L 172.725495 172.578908 
L 173.376105 172.124816 
L 174.026715 170.565181 
L 174.677326 176.897779 
L 175.327936 171.573429 
L 175.978546 179.347056 
L 176.629156 175.468475 
L 177.279767 174.373616 
L 177.930377 172.299558 
L 179.231598 175.653634 
L 179.882208 175.568339 
L 180.532818 173.92463 
L 181.183429 175.068684 
L 181.834039 174.207129 
L 182.484649 175.783838 
L 183.13526 174.818993 
L 183.78587 176.814829 
L 184.43648 178.249747 
L 185.087091 180.441136 
L 185.737701 172.040485 
L 186.388311 173.61275 
L 187.038921 174.092008 
L 187.689532 177.46123 
L 188.340142 172.934323 
L 188.990752 176.97146 
L 189.641363 173.420726 
L 190.291973 179.82106 
L 190.942583 178.251011 
L 191.593194 179.387196 
L 192.243804 173.693811 
L 192.894414 175.272646 
L 193.545025 176.451775 
L 194.195635 175.880815 
L 194.846245 175.589283 
L 195.496856 172.60635 
L 196.147466 170.232484 
L 196.798076 178.635377 
L 197.448686 180.569097 
L 198.099297 173.597349 
L 198.749907 173.017935 
L 199.400517 174.869939 
L 200.051128 182.575506 
L 200.701738 175.915124 
L 201.352348 175.202543 
L 202.002959 175.883137 
L 202.653569 181.67156 
L 203.304179 173.663257 
L 203.95479 182.328055 
L 204.6054 176.339402 
L 205.25601 182.275432 
L 205.906621 182.698486 
L 206.557231 181.613926 
L 207.207841 178.867974 
L 207.858451 174.051517 
L 208.509062 175.565462 
L 209.159672 171.427875 
L 209.810282 169.447385 
L 211.111503 180.283884 
L 211.762113 171.75564 
L 212.412724 168.899915 
L 213.063334 172.765679 
L 213.713944 180.735028 
L 214.364555 180.978372 
L 215.015165 175.540891 
L 215.665775 173.113718 
L 216.316385 174.736068 
L 216.966996 173.856704 
L 217.617606 171.801141 
L 218.268216 176.387647 
L 218.918827 176.051494 
L 219.569437 176.524446 
L 220.220047 173.417068 
L 220.870658 177.171509 
L 221.521268 175.991848 
L 222.171878 179.673582 
L 222.822489 172.119249 
L 223.473099 171.230986 
L 224.123709 178.682269 
L 224.77432 171.726052 
L 225.42493 176.944662 
L 226.07554 173.175104 
L 226.72615 181.500018 
L 227.376761 174.488825 
L 228.027371 171.585764 
L 228.677981 176.815366 
L 229.328592 170.569621 
L 229.979202 173.161144 
L 230.629812 172.987491 
L 231.280423 174.637825 
L 231.931033 174.727029 
L 232.581643 175.046671 
L 233.232254 176.182514 
L 233.882864 176.093583 
L 234.533474 174.421536 
L 235.184085 176.184503 
L 235.834695 171.595655 
L 236.485305 175.617303 
L 237.135915 171.637461 
L 237.786526 175.032767 
L 238.437136 175.204727 
L 239.087746 177.162707 
L 239.738357 169.796401 
L 240.388967 174.18468 
L 241.039577 184.12117 
L 242.340798 173.58381 
L 242.991408 178.836747 
L 243.642019 180.36919 
L 244.292629 174.63736 
L 244.943239 179.17812 
L 245.59385 175.898358 
L 246.24446 181.082262 
L 246.89507 171.863868 
L 247.54568 172.63942 
L 248.196291 178.362339 
L 248.846901 177.750019 
L 249.497511 182.013553 
L 250.148122 179.181696 
L 251.449342 170.738087 
L 252.099953 176.095841 
L 252.750563 174.878655 
L 253.401173 172.73843 
L 254.051784 174.30621 
L 254.702394 171.914744 
L 255.353004 175.140187 
L 256.003615 172.94138 
L 256.654225 173.27362 
L 257.304835 172.921607 
L 257.955445 178.138368 
L 258.606056 174.901018 
L 259.256666 178.107351 
L 259.907276 170.614637 
L 260.557887 174.510443 
L 261.208497 172.340765 
L 261.859107 179.586136 
L 262.509718 174.936614 
L 263.160328 177.115844 
L 263.810938 169.130014 
L 264.461549 176.097128 
L 265.112159 184.496717 
L 265.762769 175.678481 
L 266.413379 178.059467 
L 267.06399 173.575147 
L 267.7146 169.899201 
L 268.36521 171.517306 
L 269.015821 178.578839 
L 269.666431 178.381192 
L 270.317041 177.87968 
L 270.967652 180.044562 
L 271.618262 183.38287 
L 272.268872 175.56525 
L 272.919483 179.418925 
L 273.570093 172.877772 
L 274.220703 175.859854 
L 274.871314 186.729255 
L 275.521924 180.416608 
L 276.172534 177.563792 
L 276.823144 176.272917 
L 277.473755 178.591287 
L 278.124365 175.432232 
L 278.774975 177.188831 
L 279.425586 184.80123 
L 280.076196 180.614367 
L 280.726806 174.0443 
L 281.377417 175.897491 
L 282.028027 174.797342 
L 282.678637 175.486087 
L 283.329248 172.576667 
L 283.979858 171.615341 
L 284.630468 181.492007 
L 285.931689 176.407635 
L 286.582299 169.413916 
L 287.232909 179.861341 
L 287.88352 178.560583 
L 288.53413 179.944028 
L 289.18474 176.318036 
L 289.835351 176.818821 
L 290.485961 181.692413 
L 291.136571 185.606222 
L 291.787182 178.50955 
L 292.437792 175.627633 
L 293.088402 175.678308 
L 293.739013 170.205164 
L 294.389623 169.269829 
L 295.040233 174.191924 
L 295.690844 169.697998 
L 296.341454 173.109323 
L 296.992064 181.062991 
L 298.293285 170.378163 
L 298.943895 173.683738 
L 299.594505 175.774039 
L 300.245116 171.606608 
L 300.895726 173.085047 
L 301.546336 173.311937 
L 302.196947 174.023975 
L 302.847557 168.231168 
L 303.498167 175.275056 
L 304.148778 173.639535 
L 304.799388 174.311159 
L 305.449998 179.374689 
L 306.100608 176.423781 
L 307.401829 172.982255 
L 308.052439 179.433139 
L 308.70305 173.826372 
L 309.35366 179.423709 
L 310.00427 175.14456 
L 310.654881 174.608337 
L 311.305491 178.841169 
L 311.956101 180.195529 
L 312.606712 174.410402 
L 313.257322 170.244351 
L 313.907932 171.656941 
L 314.558543 176.649461 
L 315.209153 177.867129 
L 315.859763 175.77102 
L 316.510373 174.366643 
L 317.160984 175.901422 
L 317.811594 170.289086 
L 318.462204 170.050086 
L 319.112815 176.996758 
L 319.763425 172.108884 
L 320.414035 170.798817 
L 321.064646 171.863474 
L 321.715256 178.405635 
L 322.365866 170.811262 
L 323.016477 175.403166 
L 323.667087 178.08552 
L 324.317697 175.938547 
L 324.968308 176.421892 
L 325.618918 175.481949 
L 326.269528 180.586099 
L 326.920138 174.522631 
L 327.570749 179.628933 
L 328.221359 173.045991 
L 328.871969 174.733429 
L 329.52258 174.145186 
L 330.17319 177.402548 
L 330.8238 175.928714 
L 331.474411 173.875058 
L 332.125021 173.711973 
L 332.775631 179.23815 
L 333.426242 180.18061 
L 334.727462 174.505931 
L 335.378073 181.098874 
L 336.028683 175.988334 
L 336.679293 175.766251 
L 337.329903 178.775823 
L 337.980514 173.752166 
L 338.631124 175.882446 
L 339.281734 178.591463 
L 339.932345 174.423534 
L 340.582955 175.883311 
L 341.233565 176.767698 
L 341.884176 172.947372 
L 342.534786 174.786692 
L 343.185396 173.711641 
L 343.836007 170.179667 
L 344.486617 174.001187 
L 345.137227 177.024239 
L 345.787837 174.917597 
L 346.438448 182.712439 
L 347.739668 174.432298 
L 348.390279 177.750178 
L 349.040889 173.572414 
L 350.99272 175.126473 
L 351.64333 172.10458 
L 352.293941 175.390485 
L 352.944551 171.992846 
L 353.595161 172.121953 
L 354.245772 178.730652 
L 354.896382 174.419143 
L 355.546992 176.288733 
L 356.197602 171.985894 
L 356.848213 173.22365 
L 357.498823 172.843083 
L 358.149433 170.405466 
L 358.800044 178.975202 
L 359.450654 179.300627 
L 360.101264 177.092926 
L 360.751875 176.940739 
L 361.402485 173.426112 
L 362.053095 181.887456 
L 362.703706 172.133966 
L 363.354316 171.773298 
L 364.004926 180.996613 
L 364.655537 180.318491 
L 365.306147 182.936585 
L 365.956757 176.441319 
L 366.607367 176.283961 
L 367.257978 177.486146 
L 367.908588 172.571473 
L 368.559198 174.176294 
L 369.209809 181.176481 
L 369.860419 178.466547 
L 370.511029 174.096001 
L 371.16164 179.4605 
L 371.81225 175.712126 
L 372.46286 174.824899 
L 373.113471 171.550701 
L 373.764081 173.111049 
L 374.414691 178.486929 
L 375.065302 171.915358 
L 375.715912 173.448202 
L 376.366522 178.082267 
L 377.017132 178.644968 
L 377.667743 180.349451 
L 378.318353 175.991846 
L 378.968963 181.965395 
L 380.270184 172.989956 
L 380.920794 170.149878 
L 381.571405 176.839943 
L 382.222015 180.466763 
L 382.872625 174.999401 
L 383.523236 180.484018 
L 384.173846 170.988064 
L 384.824456 173.673129 
L 385.475066 173.96832 
L 386.125677 173.9365 
L 386.776287 180.240348 
L 387.426897 182.491229 
L 388.077508 179.487902 
L 388.728118 180.729539 
L 389.378728 178.926821 
L 390.029339 178.665979 
L 390.679949 177.088036 
L 391.330559 177.024464 
L 391.98117 174.466176 
L 392.63178 173.827322 
L 393.28239 171.835386 
L 393.933001 173.933783 
L 394.583611 171.197224 
L 395.234221 173.494324 
L 395.884831 176.709731 
L 396.535442 172.900428 
L 397.186052 175.180949 
L 397.836662 169.941081 
L 398.487273 176.601011 
L 398.487273 176.601011 
" style="fill:none;stroke:#008000;stroke-dasharray:9.6,2.4,1.5,2.4;stroke-dashoffset:0;stroke-width:1.5;"/>
   </g>
   <g id="line2d_25">
    <path clip-path="url(#pa5b998aae1)" d="M 73.832727 122.83181 
L 75.133948 142.62147 
L 75.784558 142.62147 
L 76.435169 132.72664 
L 77.085779 162.41113 
L 77.736389 152.5163 
L 78.386999 132.72664 
L 79.03761 162.41113 
L 79.68822 172.30596 
L 80.33883 132.72664 
L 80.989441 152.5163 
L 81.640051 122.83181 
L 82.290661 112.93698 
L 82.941272 132.72664 
L 83.591882 132.72664 
L 84.242492 142.62147 
L 84.893103 142.62147 
L 85.543713 83.25249 
L 86.194323 142.62147 
L 86.844934 132.72664 
L 87.495544 112.93698 
L 88.146154 103.04215 
L 88.796764 142.62147 
L 89.447375 132.72664 
L 90.097985 103.04215 
L 90.748595 103.04215 
L 91.399206 122.83181 
L 92.049816 122.83181 
L 92.700426 142.62147 
L 93.351037 122.83181 
L 94.001647 112.93698 
L 94.652257 122.83181 
L 95.302868 112.93698 
L 95.953478 132.72664 
L 96.604088 132.72664 
L 97.254698 142.62147 
L 97.905309 112.93698 
L 98.555919 142.62147 
L 99.206529 93.14732 
L 99.85714 152.5163 
L 100.50775 103.04215 
L 101.15836 122.83181 
L 101.808971 103.04215 
L 102.459581 142.62147 
L 103.110191 112.93698 
L 103.760802 122.83181 
L 104.411412 103.04215 
L 105.062022 122.83181 
L 107.664463 122.83181 
L 108.315074 103.04215 
L 108.965684 122.83181 
L 109.616294 112.93698 
L 110.266905 122.83181 
L 110.917515 142.62147 
L 111.568125 122.83181 
L 112.218736 112.93698 
L 112.869346 132.72664 
L 113.519956 132.72664 
L 114.170567 103.04215 
L 114.821177 103.04215 
L 115.471787 132.72664 
L 117.423618 103.04215 
L 118.074228 112.93698 
L 118.724839 93.14732 
L 119.375449 122.83181 
L 120.026059 112.93698 
L 120.67667 112.93698 
L 121.32728 132.72664 
L 121.97789 83.25249 
L 122.628501 132.72664 
L 123.279111 103.04215 
L 123.929721 103.04215 
L 124.580332 112.93698 
L 125.230942 112.93698 
L 125.881552 122.83181 
L 127.182773 103.04215 
L 127.833383 103.04215 
L 128.483993 122.83181 
L 129.785214 103.04215 
L 130.435824 112.93698 
L 131.086435 112.93698 
L 131.737045 103.04215 
L 132.387655 103.04215 
L 133.038266 112.93698 
L 134.339486 112.93698 
L 135.640707 93.14732 
L 136.291317 122.83181 
L 136.941927 93.14732 
L 137.592538 112.93698 
L 138.243148 103.04215 
L 138.893758 112.93698 
L 140.194979 112.93698 
L 140.845589 103.04215 
L 142.14681 122.83181 
L 142.79742 103.04215 
L 143.448031 93.14732 
L 144.098641 112.93698 
L 144.749251 122.83181 
L 145.399862 93.14732 
L 146.050472 93.14732 
L 146.701082 122.83181 
L 147.351692 122.83181 
L 148.002303 103.04215 
L 148.652913 112.93698 
L 149.303523 112.93698 
L 149.954134 103.04215 
L 150.604744 112.93698 
L 151.255354 73.35766 
L 151.905965 103.04215 
L 152.556575 103.04215 
L 153.207185 112.93698 
L 153.857796 112.93698 
L 155.159016 93.14732 
L 155.809627 112.93698 
L 157.110847 93.14732 
L 157.761457 112.93698 
L 158.412068 93.14732 
L 159.713288 112.93698 
L 160.363899 103.04215 
L 161.014509 112.93698 
L 161.665119 93.14732 
L 162.31573 93.14732 
L 162.96634 103.04215 
L 163.61695 83.25249 
L 164.267561 112.93698 
L 164.918171 93.14732 
L 165.568781 103.04215 
L 166.219392 93.14732 
L 166.870002 112.93698 
L 167.520612 112.93698 
L 168.171222 103.04215 
L 168.821833 103.04215 
L 169.472443 93.14732 
L 170.123053 73.35766 
L 170.773664 122.83181 
L 171.424274 83.25249 
L 172.074884 112.93698 
L 172.725495 122.83181 
L 173.376105 112.93698 
L 174.026715 53.568 
L 174.677326 112.93698 
L 175.327936 53.568 
L 175.978546 93.14732 
L 176.629156 122.83181 
L 177.279767 112.93698 
L 177.930377 112.93698 
L 178.580987 93.14732 
L 179.231598 93.14732 
L 179.882208 112.93698 
L 180.532818 112.93698 
L 181.183429 83.25249 
L 181.834039 112.93698 
L 182.484649 93.14732 
L 183.13526 103.04215 
L 183.78587 93.14732 
L 185.087091 93.14732 
L 185.737701 112.93698 
L 186.388311 93.14732 
L 187.038921 93.14732 
L 187.689532 103.04215 
L 188.340142 103.04215 
L 188.990752 112.93698 
L 190.291973 112.93698 
L 191.593194 93.14732 
L 192.243804 103.04215 
L 192.894414 63.46283 
L 194.195635 103.04215 
L 195.496856 103.04215 
L 196.147466 122.83181 
L 196.798076 93.14732 
L 197.448686 103.04215 
L 198.749907 103.04215 
L 199.400517 112.93698 
L 200.701738 93.14732 
L 201.352348 112.93698 
L 202.002959 83.25249 
L 202.653569 103.04215 
L 203.304179 83.25249 
L 203.95479 112.93698 
L 204.6054 103.04215 
L 205.25601 112.93698 
L 205.906621 93.14732 
L 206.557231 103.04215 
L 207.858451 103.04215 
L 208.509062 112.93698 
L 209.159672 83.25249 
L 209.810282 73.35766 
L 210.460893 93.14732 
L 211.111503 93.14732 
L 211.762113 103.04215 
L 212.412724 63.46283 
L 213.063334 93.14732 
L 213.713944 112.93698 
L 214.364555 93.14732 
L 215.015165 112.93698 
L 215.665775 93.14732 
L 216.316385 83.25249 
L 216.966996 103.04215 
L 217.617606 93.14732 
L 218.268216 93.14732 
L 218.918827 103.04215 
L 219.569437 93.14732 
L 221.521268 93.14732 
L 222.171878 112.93698 
L 222.822489 112.93698 
L 223.473099 83.25249 
L 224.123709 83.25249 
L 224.77432 112.93698 
L 225.42493 93.14732 
L 226.07554 93.14732 
L 226.72615 83.25249 
L 227.376761 103.04215 
L 228.027371 93.14732 
L 228.677981 112.93698 
L 229.328592 83.25249 
L 229.979202 73.35766 
L 230.629812 93.14732 
L 231.280423 103.04215 
L 232.581643 83.25249 
L 233.232254 83.25249 
L 235.184085 112.93698 
L 235.834695 83.25249 
L 236.485305 93.14732 
L 237.135915 93.14732 
L 237.786526 112.93698 
L 238.437136 122.83181 
L 239.087746 83.25249 
L 239.738357 83.25249 
L 240.388967 73.35766 
L 241.039577 93.14732 
L 241.690188 93.14732 
L 242.340798 103.04215 
L 242.991408 93.14732 
L 243.642019 93.14732 
L 244.292629 103.04215 
L 244.943239 103.04215 
L 245.59385 112.93698 
L 246.89507 93.14732 
L 247.54568 93.14732 
L 248.846901 112.93698 
L 249.497511 103.04215 
L 250.148122 103.04215 
L 250.798732 93.14732 
L 251.449342 103.04215 
L 252.099953 63.46283 
L 252.750563 93.14732 
L 253.401173 63.46283 
L 254.051784 103.04215 
L 254.702394 103.04215 
L 255.353004 93.14732 
L 256.003615 112.93698 
L 256.654225 93.14732 
L 257.955445 112.93698 
L 258.606056 103.04215 
L 259.256666 112.93698 
L 259.907276 83.25249 
L 260.557887 103.04215 
L 261.208497 112.93698 
L 261.859107 103.04215 
L 262.509718 63.46283 
L 263.160328 103.04215 
L 263.810938 83.25249 
L 264.461549 103.04215 
L 265.112159 112.93698 
L 265.762769 103.04215 
L 266.413379 73.35766 
L 267.06399 73.35766 
L 268.36521 112.93698 
L 269.015821 93.14732 
L 269.666431 112.93698 
L 270.317041 83.25249 
L 270.967652 103.04215 
L 271.618262 112.93698 
L 272.268872 93.14732 
L 272.919483 103.04215 
L 273.570093 93.14732 
L 274.220703 103.04215 
L 274.871314 93.14732 
L 275.521924 112.93698 
L 276.172534 93.14732 
L 276.823144 103.04215 
L 278.124365 83.25249 
L 278.774975 103.04215 
L 279.425586 103.04215 
L 280.076196 112.93698 
L 280.726806 93.14732 
L 281.377417 112.93698 
L 282.028027 103.04215 
L 282.678637 112.93698 
L 283.979858 93.14732 
L 285.281079 112.93698 
L 285.931689 112.93698 
L 286.582299 103.04215 
L 287.232909 83.25249 
L 287.88352 103.04215 
L 288.53413 83.25249 
L 289.18474 112.93698 
L 289.835351 93.14732 
L 290.485961 83.25249 
L 291.136571 103.04215 
L 291.787182 63.46283 
L 292.437792 103.04215 
L 293.088402 122.83181 
L 293.739013 93.14732 
L 294.389623 83.25249 
L 295.040233 83.25249 
L 295.690844 103.04215 
L 296.341454 83.25249 
L 296.992064 112.93698 
L 297.642674 112.93698 
L 298.293285 93.14732 
L 298.943895 93.14732 
L 299.594505 73.35766 
L 300.245116 103.04215 
L 300.895726 122.83181 
L 301.546336 93.14732 
L 302.196947 103.04215 
L 302.847557 103.04215 
L 303.498167 112.93698 
L 304.148778 103.04215 
L 304.799388 112.93698 
L 305.449998 112.93698 
L 306.100608 103.04215 
L 306.751219 112.93698 
L 307.401829 103.04215 
L 308.052439 103.04215 
L 308.70305 112.93698 
L 309.35366 103.04215 
L 310.00427 122.83181 
L 310.654881 103.04215 
L 312.606712 103.04215 
L 313.257322 93.14732 
L 313.907932 93.14732 
L 314.558543 103.04215 
L 316.510373 103.04215 
L 317.160984 112.93698 
L 317.811594 93.14732 
L 318.462204 93.14732 
L 319.763425 112.93698 
L 320.414035 103.04215 
L 322.365866 103.04215 
L 323.667087 122.83181 
L 324.317697 73.35766 
L 324.968308 103.04215 
L 325.618918 103.04215 
L 326.269528 112.93698 
L 326.920138 83.25249 
L 327.570749 103.04215 
L 328.221359 112.93698 
L 328.871969 103.04215 
L 329.52258 83.25249 
L 331.474411 112.93698 
L 332.125021 93.14732 
L 332.775631 103.04215 
L 334.727462 103.04215 
L 335.378073 93.14732 
L 336.028683 112.93698 
L 336.679293 83.25249 
L 337.329903 93.14732 
L 337.980514 83.25249 
L 338.631124 103.04215 
L 339.281734 112.93698 
L 339.932345 93.14732 
L 341.233565 112.93698 
L 341.884176 103.04215 
L 342.534786 103.04215 
L 343.185396 93.14732 
L 343.836007 93.14732 
L 344.486617 83.25249 
L 345.137227 112.93698 
L 347.089058 83.25249 
L 347.739668 103.04215 
L 348.390279 93.14732 
L 349.040889 112.93698 
L 349.691499 93.14732 
L 350.34211 112.93698 
L 350.99272 93.14732 
L 351.64333 112.93698 
L 352.293941 93.14732 
L 352.944551 112.93698 
L 354.245772 93.14732 
L 354.896382 103.04215 
L 355.546992 93.14732 
L 356.197602 103.04215 
L 356.848213 83.25249 
L 357.498823 103.04215 
L 358.149433 83.25249 
L 358.800044 122.83181 
L 359.450654 103.04215 
L 360.101264 112.93698 
L 360.751875 93.14732 
L 361.402485 122.83181 
L 362.053095 83.25249 
L 362.703706 112.93698 
L 363.354316 103.04215 
L 364.004926 112.93698 
L 364.655537 83.25249 
L 365.306147 122.83181 
L 366.607367 103.04215 
L 367.257978 112.93698 
L 367.908588 83.25249 
L 368.559198 103.04215 
L 369.209809 112.93698 
L 369.860419 103.04215 
L 370.511029 83.25249 
L 371.16164 93.14732 
L 371.81225 112.93698 
L 372.46286 103.04215 
L 373.113471 103.04215 
L 374.414691 83.25249 
L 375.065302 103.04215 
L 375.715912 103.04215 
L 376.366522 112.93698 
L 377.017132 63.46283 
L 377.667743 103.04215 
L 378.318353 73.35766 
L 378.968963 103.04215 
L 379.619574 112.93698 
L 380.270184 103.04215 
L 380.920794 103.04215 
L 381.571405 93.14732 
L 382.222015 122.83181 
L 382.872625 103.04215 
L 383.523236 93.14732 
L 384.173846 112.93698 
L 385.475066 93.14732 
L 386.125677 103.04215 
L 386.776287 93.14732 
L 388.728118 122.83181 
L 390.679949 93.14732 
L 391.330559 103.04215 
L 391.98117 93.14732 
L 392.63178 112.93698 
L 393.28239 103.04215 
L 393.933001 112.93698 
L 394.583611 93.14732 
L 395.234221 122.83181 
L 395.884831 93.14732 
L 396.535442 93.14732 
L 397.186052 103.04215 
L 397.836662 93.14732 
L 398.487273 93.14732 
L 398.487273 93.14732 
" style="fill:none;stroke:#ff0000;stroke-linecap:square;stroke-width:1.5;"/>
   </g>
   <g id="patch_3">
    <path d="M 57.6 307.584 
L 57.6 41.472 
" style="fill:none;stroke:#000000;stroke-linecap:square;stroke-linejoin:miter;stroke-width:0.8;"/>
   </g>
   <g id="patch_4">
    <path d="M 414.72 307.584 
L 414.72 41.472 
" style="fill:none;stroke:#000000;stroke-linecap:square;stroke-linejoin:miter;stroke-width:0.8;"/>
   </g>
   <g id="patch_5">
    <path d="M 57.6 307.584 
L 414.72 307.584 
" style="fill:none;stroke:#000000;stroke-linecap:square;stroke-linejoin:miter;stroke-width:0.8;"/>
   </g>
   <g id="patch_6">
    <path d="M 57.6 41.472 
L 414.72 41.472 
" style="fill:none;stroke:#000000;stroke-linecap:square;stroke-linejoin:miter;stroke-width:0.8;"/>
   </g>
   <g id="text_14">
    <!-- Population's average and best fitness -->
    <defs>
     <path d="M 19.671875 64.796875 
L 19.671875 37.40625 
L 32.078125 37.40625 
Q 38.96875 37.40625 42.71875 40.96875 
Q 46.484375 44.53125 46.484375 51.125 
Q 46.484375 57.671875 42.71875 61.234375 
Q 38.96875 64.796875 32.078125 64.796875 
z
M 9.8125 72.90625 
L 32.078125 72.90625 
Q 44.34375 72.90625 50.609375 67.359375 
Q 56.890625 61.8125 56.890625 51.125 
Q 56.890625 40.328125 50.609375 34.8125 
Q 44.34375 29.296875 32.078125 29.296875 
L 19.671875 29.296875 
L 19.671875 0 
L 9.8125 0 
z
" id="DejaVuSans-80"/>
     <path d="M 18.109375 8.203125 
L 18.109375 -20.796875 
L 9.078125 -20.796875 
L 9.078125 54.6875 
L 18.109375 54.6875 
L 18.109375 46.390625 
Q 20.953125 51.265625 25.265625 53.625 
Q 29.59375 56 35.59375 56 
Q 45.5625 56 51.78125 48.09375 
Q 58.015625 40.1875 58.015625 27.296875 
Q 58.015625 14.40625 51.78125 6.484375 
Q 45.5625 -1.421875 35.59375 -1.421875 
Q 29.59375 -1.421875 25.265625 0.953125 
Q 20.953125 3.328125 18.109375 8.203125 
z
M 48.6875 27.296875 
Q 48.6875 37.203125 44.609375 42.84375 
Q 40.53125 48.484375 33.40625 48.484375 
Q 26.265625 48.484375 22.1875 42.84375 
Q 18.109375 37.203125 18.109375 27.296875 
Q 18.109375 17.390625 22.1875 11.75 
Q 26.265625 6.109375 33.40625 6.109375 
Q 40.53125 6.109375 44.609375 11.75 
Q 48.6875 17.390625 48.6875 27.296875 
z
" id="DejaVuSans-112"/>
     <path d="M 8.5 21.578125 
L 8.5 54.6875 
L 17.484375 54.6875 
L 17.484375 21.921875 
Q 17.484375 14.15625 20.5 10.265625 
Q 23.53125 6.390625 29.59375 6.390625 
Q 36.859375 6.390625 41.078125 11.03125 
Q 45.3125 15.671875 45.3125 23.6875 
L 45.3125 54.6875 
L 54.296875 54.6875 
L 54.296875 0 
L 45.3125 0 
L 45.3125 8.40625 
Q 42.046875 3.421875 37.71875 1 
Q 33.40625 -1.421875 27.6875 -1.421875 
Q 18.265625 -1.421875 13.375 4.4375 
Q 8.5 10.296875 8.5 21.578125 
z
M 31.109375 56 
z
" id="DejaVuSans-117"/>
     <path d="M 9.421875 75.984375 
L 18.40625 75.984375 
L 18.40625 0 
L 9.421875 0 
z
" id="DejaVuSans-108"/>
     <path d="M 17.921875 72.90625 
L 17.921875 45.796875 
L 9.625 45.796875 
L 9.625 72.90625 
z
" id="DejaVuSans-39"/>
     <path id="DejaVuSans-32"/>
     <path d="M 2.984375 54.6875 
L 12.5 54.6875 
L 29.59375 8.796875 
L 46.6875 54.6875 
L 56.203125 54.6875 
L 35.6875 0 
L 23.484375 0 
z
" id="DejaVuSans-118"/>
     <path d="M 45.40625 27.984375 
Q 45.40625 37.75 41.375 43.109375 
Q 37.359375 48.484375 30.078125 48.484375 
Q 22.859375 48.484375 18.828125 43.109375 
Q 14.796875 37.75 14.796875 27.984375 
Q 14.796875 18.265625 18.828125 12.890625 
Q 22.859375 7.515625 30.078125 7.515625 
Q 37.359375 7.515625 41.375 12.890625 
Q 45.40625 18.265625 45.40625 27.984375 
z
M 54.390625 6.78125 
Q 54.390625 -7.171875 48.1875 -13.984375 
Q 42 -20.796875 29.203125 -20.796875 
Q 24.46875 -20.796875 20.265625 -20.09375 
Q 16.0625 -19.390625 12.109375 -17.921875 
L 12.109375 -9.1875 
Q 16.0625 -11.328125 19.921875 -12.34375 
Q 23.78125 -13.375 27.78125 -13.375 
Q 36.625 -13.375 41.015625 -8.765625 
Q 45.40625 -4.15625 45.40625 5.171875 
L 45.40625 9.625 
Q 42.625 4.78125 38.28125 2.390625 
Q 33.9375 0 27.875 0 
Q 17.828125 0 11.671875 7.65625 
Q 5.515625 15.328125 5.515625 27.984375 
Q 5.515625 40.671875 11.671875 48.328125 
Q 17.828125 56 27.875 56 
Q 33.9375 56 38.28125 53.609375 
Q 42.625 51.21875 45.40625 46.390625 
L 45.40625 54.6875 
L 54.390625 54.6875 
z
" id="DejaVuSans-103"/>
     <path d="M 45.40625 46.390625 
L 45.40625 75.984375 
L 54.390625 75.984375 
L 54.390625 0 
L 45.40625 0 
L 45.40625 8.203125 
Q 42.578125 3.328125 38.25 0.953125 
Q 33.9375 -1.421875 27.875 -1.421875 
Q 17.96875 -1.421875 11.734375 6.484375 
Q 5.515625 14.40625 5.515625 27.296875 
Q 5.515625 40.1875 11.734375 48.09375 
Q 17.96875 56 27.875 56 
Q 33.9375 56 38.25 53.625 
Q 42.578125 51.265625 45.40625 46.390625 
z
M 14.796875 27.296875 
Q 14.796875 17.390625 18.875 11.75 
Q 22.953125 6.109375 30.078125 6.109375 
Q 37.203125 6.109375 41.296875 11.75 
Q 45.40625 17.390625 45.40625 27.296875 
Q 45.40625 37.203125 41.296875 42.84375 
Q 37.203125 48.484375 30.078125 48.484375 
Q 22.953125 48.484375 18.875 42.84375 
Q 14.796875 37.203125 14.796875 27.296875 
z
" id="DejaVuSans-100"/>
     <path d="M 48.6875 27.296875 
Q 48.6875 37.203125 44.609375 42.84375 
Q 40.53125 48.484375 33.40625 48.484375 
Q 26.265625 48.484375 22.1875 42.84375 
Q 18.109375 37.203125 18.109375 27.296875 
Q 18.109375 17.390625 22.1875 11.75 
Q 26.265625 6.109375 33.40625 6.109375 
Q 40.53125 6.109375 44.609375 11.75 
Q 48.6875 17.390625 48.6875 27.296875 
z
M 18.109375 46.390625 
Q 20.953125 51.265625 25.265625 53.625 
Q 29.59375 56 35.59375 56 
Q 45.5625 56 51.78125 48.09375 
Q 58.015625 40.1875 58.015625 27.296875 
Q 58.015625 14.40625 51.78125 6.484375 
Q 45.5625 -1.421875 35.59375 -1.421875 
Q 29.59375 -1.421875 25.265625 0.953125 
Q 20.953125 3.328125 18.109375 8.203125 
L 18.109375 0 
L 9.078125 0 
L 9.078125 75.984375 
L 18.109375 75.984375 
z
" id="DejaVuSans-98"/>
     <path d="M 37.109375 75.984375 
L 37.109375 68.5 
L 28.515625 68.5 
Q 23.6875 68.5 21.796875 66.546875 
Q 19.921875 64.59375 19.921875 59.515625 
L 19.921875 54.6875 
L 34.71875 54.6875 
L 34.71875 47.703125 
L 19.921875 47.703125 
L 19.921875 0 
L 10.890625 0 
L 10.890625 47.703125 
L 2.296875 47.703125 
L 2.296875 54.6875 
L 10.890625 54.6875 
L 10.890625 58.5 
Q 10.890625 67.625 15.140625 71.796875 
Q 19.390625 75.984375 28.609375 75.984375 
z
" id="DejaVuSans-102"/>
    </defs>
    <g transform="translate(123.315 35.472)scale(0.12 -0.12)">
     <use xlink:href="#DejaVuSans-80"/>
     <use x="60.255859" xlink:href="#DejaVuSans-111"/>
     <use x="121.4375" xlink:href="#DejaVuSans-112"/>
     <use x="184.914062" xlink:href="#DejaVuSans-117"/>
     <use x="248.292969" xlink:href="#DejaVuSans-108"/>
     <use x="276.076172" xlink:href="#DejaVuSans-97"/>
     <use x="337.355469" xlink:href="#DejaVuSans-116"/>
     <use x="376.564453" xlink:href="#DejaVuSans-105"/>
     <use x="404.347656" xlink:href="#DejaVuSans-111"/>
     <use x="465.529297" xlink:href="#DejaVuSans-110"/>
     <use x="528.908203" xlink:href="#DejaVuSans-39"/>
     <use x="556.398438" xlink:href="#DejaVuSans-115"/>
     <use x="608.498047" xlink:href="#DejaVuSans-32"/>
     <use x="640.285156" xlink:href="#DejaVuSans-97"/>
     <use x="701.564453" xlink:href="#DejaVuSans-118"/>
     <use x="760.744141" xlink:href="#DejaVuSans-101"/>
     <use x="822.267578" xlink:href="#DejaVuSans-114"/>
     <use x="863.380859" xlink:href="#DejaVuSans-97"/>
     <use x="924.660156" xlink:href="#DejaVuSans-103"/>
     <use x="988.136719" xlink:href="#DejaVuSans-101"/>
     <use x="1049.660156" xlink:href="#DejaVuSans-32"/>
     <use x="1081.447266" xlink:href="#DejaVuSans-97"/>
     <use x="1142.726562" xlink:href="#DejaVuSans-110"/>
     <use x="1206.105469" xlink:href="#DejaVuSans-100"/>
     <use x="1269.582031" xlink:href="#DejaVuSans-32"/>
     <use x="1301.369141" xlink:href="#DejaVuSans-98"/>
     <use x="1364.845703" xlink:href="#DejaVuSans-101"/>
     <use x="1426.369141" xlink:href="#DejaVuSans-115"/>
     <use x="1478.46875" xlink:href="#DejaVuSans-116"/>
     <use x="1517.677734" xlink:href="#DejaVuSans-32"/>
     <use x="1549.464844" xlink:href="#DejaVuSans-102"/>
     <use x="1584.669922" xlink:href="#DejaVuSans-105"/>
     <use x="1612.453125" xlink:href="#DejaVuSans-116"/>
     <use x="1651.662109" xlink:href="#DejaVuSans-110"/>
     <use x="1715.041016" xlink:href="#DejaVuSans-101"/>
     <use x="1776.564453" xlink:href="#DejaVuSans-115"/>
     <use x="1828.664062" xlink:href="#DejaVuSans-115"/>
    </g>
   </g>
   <g id="legend_1">
    <g id="patch_7">
     <path d="M 334.779375 302.584 
L 407.72 302.584 
Q 409.72 302.584 409.72 300.584 
L 409.72 257.549625 
Q 409.72 255.549625 407.72 255.549625 
L 334.779375 255.549625 
Q 332.779375 255.549625 332.779375 257.549625 
L 332.779375 300.584 
Q 332.779375 302.584 334.779375 302.584 
z
" style="fill:#ffffff;opacity:0.8;stroke:#cccccc;stroke-linejoin:miter;"/>
    </g>
    <g id="line2d_26">
     <path d="M 336.779375 263.648062 
L 356.779375 263.648062 
" style="fill:none;stroke:#0000ff;stroke-linecap:square;stroke-width:1.5;"/>
    </g>
    <g id="line2d_27"/>
    <g id="text_15">
     <!-- average -->
     <g transform="translate(364.779375 267.148062)scale(0.1 -0.1)">
      <use xlink:href="#DejaVuSans-97"/>
      <use x="61.279297" xlink:href="#DejaVuSans-118"/>
      <use x="120.458984" xlink:href="#DejaVuSans-101"/>
      <use x="181.982422" xlink:href="#DejaVuSans-114"/>
      <use x="223.095703" xlink:href="#DejaVuSans-97"/>
      <use x="284.375" xlink:href="#DejaVuSans-103"/>
      <use x="347.851562" xlink:href="#DejaVuSans-101"/>
     </g>
    </g>
    <g id="line2d_28">
     <path d="M 336.779375 278.326188 
L 356.779375 278.326188 
" style="fill:none;stroke:#008000;stroke-dasharray:9.6,2.4,1.5,2.4;stroke-dashoffset:0;stroke-width:1.5;"/>
    </g>
    <g id="line2d_29"/>
    <g id="text_16">
     <!-- +1 sd -->
     <defs>
      <path d="M 46 62.703125 
L 46 35.5 
L 73.1875 35.5 
L 73.1875 27.203125 
L 46 27.203125 
L 46 0 
L 37.796875 0 
L 37.796875 27.203125 
L 10.59375 27.203125 
L 10.59375 35.5 
L 37.796875 35.5 
L 37.796875 62.703125 
z
" id="DejaVuSans-43"/>
     </defs>
     <g transform="translate(364.779375 281.826188)scale(0.1 -0.1)">
      <use xlink:href="#DejaVuSans-43"/>
      <use x="83.789062" xlink:href="#DejaVuSans-49"/>
      <use x="147.412109" xlink:href="#DejaVuSans-32"/>
      <use x="179.199219" xlink:href="#DejaVuSans-115"/>
      <use x="231.298828" xlink:href="#DejaVuSans-100"/>
     </g>
    </g>
    <g id="line2d_30">
     <path d="M 336.779375 293.004312 
L 356.779375 293.004312 
" style="fill:none;stroke:#ff0000;stroke-linecap:square;stroke-width:1.5;"/>
    </g>
    <g id="line2d_31"/>
    <g id="text_17">
     <!-- best -->
     <g transform="translate(364.779375 296.504312)scale(0.1 -0.1)">
      <use xlink:href="#DejaVuSans-98"/>
      <use x="63.476562" xlink:href="#DejaVuSans-101"/>
      <use x="125" xlink:href="#DejaVuSans-115"/>
      <use x="177.099609" xlink:href="#DejaVuSans-116"/>
     </g>
    </g>
   </g>
  </g>
 </g>
 <defs>
  <clipPath id="pa5b998aae1">
   <rect height="266.112" width="357.12" x="57.6" y="41.472"/>
  </clipPath>
 </defs>
</svg>
