<?xml version="1.0" encoding="utf-8" standalone="no"?>
<!DOCTYPE svg PUBLIC "-//W3C//DTD SVG 1.1//EN"
  "http://www.w3.org/Graphics/SVG/1.1/DTD/svg11.dtd">
<!-- Created with matplotlib (https://matplotlib.org/) -->
<svg height="345.6pt" version="1.1" viewBox="0 0 460.8 345.6" width="460.8pt" xmlns="http://www.w3.org/2000/svg" xmlns:xlink="http://www.w3.org/1999/xlink">
 <defs>
  <style type="text/css">
*{stroke-linecap:butt;stroke-linejoin:round;}
  </style>
 </defs>
 <g id="figure_1">
  <g id="patch_1">
   <path d="M 0 345.6 
L 460.8 345.6 
L 460.8 0 
L 0 0 
z
" style="fill:#ffffff;"/>
  </g>
  <g id="axes_1">
   <g id="patch_2">
    <path d="M 57.6 307.584 
L 414.72 307.584 
L 414.72 41.472 
L 57.6 41.472 
z
" style="fill:#ffffff;"/>
   </g>
   <g id="matplotlib.axis_1">
    <g id="xtick_1">
     <g id="line2d_1">
      <path clip-path="url(#p29a7fa4121)" d="M 73.832727 307.584 
L 73.832727 41.472 
" style="fill:none;stroke:#b0b0b0;stroke-linecap:square;stroke-width:0.8;"/>
     </g>
     <g id="line2d_2">
      <defs>
       <path d="M 0 0 
L 0 3.5 
" id="m76600b59d9" style="stroke:#000000;stroke-width:0.8;"/>
      </defs>
      <g>
       <use style="stroke:#000000;stroke-width:0.8;" x="73.832727" xlink:href="#m76600b59d9" y="307.584"/>
      </g>
     </g>
     <g id="text_1">
      <!-- 0 -->
      <defs>
       <path d="M 31.78125 66.40625 
Q 24.171875 66.40625 20.328125 58.90625 
Q 16.5 51.421875 16.5 36.375 
Q 16.5 21.390625 20.328125 13.890625 
Q 24.171875 6.390625 31.78125 6.390625 
Q 39.453125 6.390625 43.28125 13.890625 
Q 47.125 21.390625 47.125 36.375 
Q 47.125 51.421875 43.28125 58.90625 
Q 39.453125 66.40625 31.78125 66.40625 
z
M 31.78125 74.21875 
Q 44.046875 74.21875 50.515625 64.515625 
Q 56.984375 54.828125 56.984375 36.375 
Q 56.984375 17.96875 50.515625 8.265625 
Q 44.046875 -1.421875 31.78125 -1.421875 
Q 19.53125 -1.421875 13.0625 8.265625 
Q 6.59375 17.96875 6.59375 36.375 
Q 6.59375 54.828125 13.0625 64.515625 
Q 19.53125 74.21875 31.78125 74.21875 
z
" id="DejaVuSans-48"/>
      </defs>
      <g transform="translate(70.651477 322.182437)scale(0.1 -0.1)">
       <use xlink:href="#DejaVuSans-48"/>
      </g>
     </g>
    </g>
    <g id="xtick_2">
     <g id="line2d_3">
      <path clip-path="url(#p29a7fa4121)" d="M 138.893758 307.584 
L 138.893758 41.472 
" style="fill:none;stroke:#b0b0b0;stroke-linecap:square;stroke-width:0.8;"/>
     </g>
     <g id="line2d_4">
      <g>
       <use style="stroke:#000000;stroke-width:0.8;" x="138.893758" xlink:href="#m76600b59d9" y="307.584"/>
      </g>
     </g>
     <g id="text_2">
      <!-- 100 -->
      <defs>
       <path d="M 12.40625 8.296875 
L 28.515625 8.296875 
L 28.515625 63.921875 
L 10.984375 60.40625 
L 10.984375 69.390625 
L 28.421875 72.90625 
L 38.28125 72.90625 
L 38.28125 8.296875 
L 54.390625 8.296875 
L 54.390625 0 
L 12.40625 0 
z
" id="DejaVuSans-49"/>
      </defs>
      <g transform="translate(129.350008 322.182437)scale(0.1 -0.1)">
       <use xlink:href="#DejaVuSans-49"/>
       <use x="63.623047" xlink:href="#DejaVuSans-48"/>
       <use x="127.246094" xlink:href="#DejaVuSans-48"/>
      </g>
     </g>
    </g>
    <g id="xtick_3">
     <g id="line2d_5">
      <path clip-path="url(#p29a7fa4121)" d="M 203.95479 307.584 
L 203.95479 41.472 
" style="fill:none;stroke:#b0b0b0;stroke-linecap:square;stroke-width:0.8;"/>
     </g>
     <g id="line2d_6">
      <g>
       <use style="stroke:#000000;stroke-width:0.8;" x="203.95479" xlink:href="#m76600b59d9" y="307.584"/>
      </g>
     </g>
     <g id="text_3">
      <!-- 200 -->
      <defs>
       <path d="M 19.1875 8.296875 
L 53.609375 8.296875 
L 53.609375 0 
L 7.328125 0 
L 7.328125 8.296875 
Q 12.9375 14.109375 22.625 23.890625 
Q 32.328125 33.6875 34.8125 36.53125 
Q 39.546875 41.84375 41.421875 45.53125 
Q 43.3125 49.21875 43.3125 52.78125 
Q 43.3125 58.59375 39.234375 62.25 
Q 35.15625 65.921875 28.609375 65.921875 
Q 23.96875 65.921875 18.8125 64.3125 
Q 13.671875 62.703125 7.8125 59.421875 
L 7.8125 69.390625 
Q 13.765625 71.78125 18.9375 73 
Q 24.125 74.21875 28.421875 74.21875 
Q 39.75 74.21875 46.484375 68.546875 
Q 53.21875 62.890625 53.21875 53.421875 
Q 53.21875 48.921875 51.53125 44.890625 
Q 49.859375 40.875 45.40625 35.40625 
Q 44.1875 33.984375 37.640625 27.21875 
Q 31.109375 20.453125 19.1875 8.296875 
z
" id="DejaVuSans-50"/>
      </defs>
      <g transform="translate(194.41104 322.182437)scale(0.1 -0.1)">
       <use xlink:href="#DejaVuSans-50"/>
       <use x="63.623047" xlink:href="#DejaVuSans-48"/>
       <use x="127.246094" xlink:href="#DejaVuSans-48"/>
      </g>
     </g>
    </g>
    <g id="xtick_4">
     <g id="line2d_7">
      <path clip-path="url(#p29a7fa4121)" d="M 269.015821 307.584 
L 269.015821 41.472 
" style="fill:none;stroke:#b0b0b0;stroke-linecap:square;stroke-width:0.8;"/>
     </g>
     <g id="line2d_8">
      <g>
       <use style="stroke:#000000;stroke-width:0.8;" x="269.015821" xlink:href="#m76600b59d9" y="307.584"/>
      </g>
     </g>
     <g id="text_4">
      <!-- 300 -->
      <defs>
       <path d="M 40.578125 39.3125 
Q 47.65625 37.796875 51.625 33 
Q 55.609375 28.21875 55.609375 21.1875 
Q 55.609375 10.40625 48.1875 4.484375 
Q 40.765625 -1.421875 27.09375 -1.421875 
Q 22.515625 -1.421875 17.65625 -0.515625 
Q 12.796875 0.390625 7.625 2.203125 
L 7.625 11.71875 
Q 11.71875 9.328125 16.59375 8.109375 
Q 21.484375 6.890625 26.8125 6.890625 
Q 36.078125 6.890625 40.9375 10.546875 
Q 45.796875 14.203125 45.796875 21.1875 
Q 45.796875 27.640625 41.28125 31.265625 
Q 36.765625 34.90625 28.71875 34.90625 
L 20.21875 34.90625 
L 20.21875 43.015625 
L 29.109375 43.015625 
Q 36.375 43.015625 40.234375 45.921875 
Q 44.09375 48.828125 44.09375 54.296875 
Q 44.09375 59.90625 40.109375 62.90625 
Q 36.140625 65.921875 28.71875 65.921875 
Q 24.65625 65.921875 20.015625 65.03125 
Q 15.375 64.15625 9.8125 62.3125 
L 9.8125 71.09375 
Q 15.4375 72.65625 20.34375 73.4375 
Q 25.25 74.21875 29.59375 74.21875 
Q 40.828125 74.21875 47.359375 69.109375 
Q 53.90625 64.015625 53.90625 55.328125 
Q 53.90625 49.265625 50.4375 45.09375 
Q 46.96875 40.921875 40.578125 39.3125 
z
" id="DejaVuSans-51"/>
      </defs>
      <g transform="translate(259.472071 322.182437)scale(0.1 -0.1)">
       <use xlink:href="#DejaVuSans-51"/>
       <use x="63.623047" xlink:href="#DejaVuSans-48"/>
       <use x="127.246094" xlink:href="#DejaVuSans-48"/>
      </g>
     </g>
    </g>
    <g id="xtick_5">
     <g id="line2d_9">
      <path clip-path="url(#p29a7fa4121)" d="M 334.076852 307.584 
L 334.076852 41.472 
" style="fill:none;stroke:#b0b0b0;stroke-linecap:square;stroke-width:0.8;"/>
     </g>
     <g id="line2d_10">
      <g>
       <use style="stroke:#000000;stroke-width:0.8;" x="334.076852" xlink:href="#m76600b59d9" y="307.584"/>
      </g>
     </g>
     <g id="text_5">
      <!-- 400 -->
      <defs>
       <path d="M 37.796875 64.3125 
L 12.890625 25.390625 
L 37.796875 25.390625 
z
M 35.203125 72.90625 
L 47.609375 72.90625 
L 47.609375 25.390625 
L 58.015625 25.390625 
L 58.015625 17.1875 
L 47.609375 17.1875 
L 47.609375 0 
L 37.796875 0 
L 37.796875 17.1875 
L 4.890625 17.1875 
L 4.890625 26.703125 
z
" id="DejaVuSans-52"/>
      </defs>
      <g transform="translate(324.533102 322.182437)scale(0.1 -0.1)">
       <use xlink:href="#DejaVuSans-52"/>
       <use x="63.623047" xlink:href="#DejaVuSans-48"/>
       <use x="127.246094" xlink:href="#DejaVuSans-48"/>
      </g>
     </g>
    </g>
    <g id="xtick_6">
     <g id="line2d_11">
      <path clip-path="url(#p29a7fa4121)" d="M 399.137883 307.584 
L 399.137883 41.472 
" style="fill:none;stroke:#b0b0b0;stroke-linecap:square;stroke-width:0.8;"/>
     </g>
     <g id="line2d_12">
      <g>
       <use style="stroke:#000000;stroke-width:0.8;" x="399.137883" xlink:href="#m76600b59d9" y="307.584"/>
      </g>
     </g>
     <g id="text_6">
      <!-- 500 -->
      <defs>
       <path d="M 10.796875 72.90625 
L 49.515625 72.90625 
L 49.515625 64.59375 
L 19.828125 64.59375 
L 19.828125 46.734375 
Q 21.96875 47.46875 24.109375 47.828125 
Q 26.265625 48.1875 28.421875 48.1875 
Q 40.625 48.1875 47.75 41.5 
Q 54.890625 34.8125 54.890625 23.390625 
Q 54.890625 11.625 47.5625 5.09375 
Q 40.234375 -1.421875 26.90625 -1.421875 
Q 22.3125 -1.421875 17.546875 -0.640625 
Q 12.796875 0.140625 7.71875 1.703125 
L 7.71875 11.625 
Q 12.109375 9.234375 16.796875 8.0625 
Q 21.484375 6.890625 26.703125 6.890625 
Q 35.15625 6.890625 40.078125 11.328125 
Q 45.015625 15.765625 45.015625 23.390625 
Q 45.015625 31 40.078125 35.4375 
Q 35.15625 39.890625 26.703125 39.890625 
Q 22.75 39.890625 18.8125 39.015625 
Q 14.890625 38.140625 10.796875 36.28125 
z
" id="DejaVuSans-53"/>
      </defs>
      <g transform="translate(389.594133 322.182437)scale(0.1 -0.1)">
       <use xlink:href="#DejaVuSans-53"/>
       <use x="63.623047" xlink:href="#DejaVuSans-48"/>
       <use x="127.246094" xlink:href="#DejaVuSans-48"/>
      </g>
     </g>
    </g>
    <g id="text_7">
     <!-- Generations -->
     <defs>
      <path d="M 59.515625 10.40625 
L 59.515625 29.984375 
L 43.40625 29.984375 
L 43.40625 38.09375 
L 69.28125 38.09375 
L 69.28125 6.78125 
Q 63.578125 2.734375 56.6875 0.65625 
Q 49.8125 -1.421875 42 -1.421875 
Q 24.90625 -1.421875 15.25 8.5625 
Q 5.609375 18.5625 5.609375 36.375 
Q 5.609375 54.25 15.25 64.234375 
Q 24.90625 74.21875 42 74.21875 
Q 49.125 74.21875 55.546875 72.453125 
Q 61.96875 70.703125 67.390625 67.28125 
L 67.390625 56.78125 
Q 61.921875 61.421875 55.765625 63.765625 
Q 49.609375 66.109375 42.828125 66.109375 
Q 29.4375 66.109375 22.71875 58.640625 
Q 16.015625 51.171875 16.015625 36.375 
Q 16.015625 21.625 22.71875 14.15625 
Q 29.4375 6.6875 42.828125 6.6875 
Q 48.046875 6.6875 52.140625 7.59375 
Q 56.25 8.5 59.515625 10.40625 
z
" id="DejaVuSans-71"/>
      <path d="M 56.203125 29.59375 
L 56.203125 25.203125 
L 14.890625 25.203125 
Q 15.484375 15.921875 20.484375 11.0625 
Q 25.484375 6.203125 34.421875 6.203125 
Q 39.59375 6.203125 44.453125 7.46875 
Q 49.3125 8.734375 54.109375 11.28125 
L 54.109375 2.78125 
Q 49.265625 0.734375 44.1875 -0.34375 
Q 39.109375 -1.421875 33.890625 -1.421875 
Q 20.796875 -1.421875 13.15625 6.1875 
Q 5.515625 13.8125 5.515625 26.8125 
Q 5.515625 40.234375 12.765625 48.109375 
Q 20.015625 56 32.328125 56 
Q 43.359375 56 49.78125 48.890625 
Q 56.203125 41.796875 56.203125 29.59375 
z
M 47.21875 32.234375 
Q 47.125 39.59375 43.09375 43.984375 
Q 39.0625 48.390625 32.421875 48.390625 
Q 24.90625 48.390625 20.390625 44.140625 
Q 15.875 39.890625 15.1875 32.171875 
z
" id="DejaVuSans-101"/>
      <path d="M 54.890625 33.015625 
L 54.890625 0 
L 45.90625 0 
L 45.90625 32.71875 
Q 45.90625 40.484375 42.875 44.328125 
Q 39.84375 48.1875 33.796875 48.1875 
Q 26.515625 48.1875 22.3125 43.546875 
Q 18.109375 38.921875 18.109375 30.90625 
L 18.109375 0 
L 9.078125 0 
L 9.078125 54.6875 
L 18.109375 54.6875 
L 18.109375 46.1875 
Q 21.34375 51.125 25.703125 53.5625 
Q 30.078125 56 35.796875 56 
Q 45.21875 56 50.046875 50.171875 
Q 54.890625 44.34375 54.890625 33.015625 
z
" id="DejaVuSans-110"/>
      <path d="M 41.109375 46.296875 
Q 39.59375 47.171875 37.8125 47.578125 
Q 36.03125 48 33.890625 48 
Q 26.265625 48 22.1875 43.046875 
Q 18.109375 38.09375 18.109375 28.8125 
L 18.109375 0 
L 9.078125 0 
L 9.078125 54.6875 
L 18.109375 54.6875 
L 18.109375 46.1875 
Q 20.953125 51.171875 25.484375 53.578125 
Q 30.03125 56 36.53125 56 
Q 37.453125 56 38.578125 55.875 
Q 39.703125 55.765625 41.0625 55.515625 
z
" id="DejaVuSans-114"/>
      <path d="M 34.28125 27.484375 
Q 23.390625 27.484375 19.1875 25 
Q 14.984375 22.515625 14.984375 16.5 
Q 14.984375 11.71875 18.140625 8.90625 
Q 21.296875 6.109375 26.703125 6.109375 
Q 34.1875 6.109375 38.703125 11.40625 
Q 43.21875 16.703125 43.21875 25.484375 
L 43.21875 27.484375 
z
M 52.203125 31.203125 
L 52.203125 0 
L 43.21875 0 
L 43.21875 8.296875 
Q 40.140625 3.328125 35.546875 0.953125 
Q 30.953125 -1.421875 24.3125 -1.421875 
Q 15.921875 -1.421875 10.953125 3.296875 
Q 6 8.015625 6 15.921875 
Q 6 25.140625 12.171875 29.828125 
Q 18.359375 34.515625 30.609375 34.515625 
L 43.21875 34.515625 
L 43.21875 35.40625 
Q 43.21875 41.609375 39.140625 45 
Q 35.0625 48.390625 27.6875 48.390625 
Q 23 48.390625 18.546875 47.265625 
Q 14.109375 46.140625 10.015625 43.890625 
L 10.015625 52.203125 
Q 14.9375 54.109375 19.578125 55.046875 
Q 24.21875 56 28.609375 56 
Q 40.484375 56 46.34375 49.84375 
Q 52.203125 43.703125 52.203125 31.203125 
z
" id="DejaVuSans-97"/>
      <path d="M 18.3125 70.21875 
L 18.3125 54.6875 
L 36.8125 54.6875 
L 36.8125 47.703125 
L 18.3125 47.703125 
L 18.3125 18.015625 
Q 18.3125 11.328125 20.140625 9.421875 
Q 21.96875 7.515625 27.59375 7.515625 
L 36.8125 7.515625 
L 36.8125 0 
L 27.59375 0 
Q 17.1875 0 13.234375 3.875 
Q 9.28125 7.765625 9.28125 18.015625 
L 9.28125 47.703125 
L 2.6875 47.703125 
L 2.6875 54.6875 
L 9.28125 54.6875 
L 9.28125 70.21875 
z
" id="DejaVuSans-116"/>
      <path d="M 9.421875 54.6875 
L 18.40625 54.6875 
L 18.40625 0 
L 9.421875 0 
z
M 9.421875 75.984375 
L 18.40625 75.984375 
L 18.40625 64.59375 
L 9.421875 64.59375 
z
" id="DejaVuSans-105"/>
      <path d="M 30.609375 48.390625 
Q 23.390625 48.390625 19.1875 42.75 
Q 14.984375 37.109375 14.984375 27.296875 
Q 14.984375 17.484375 19.15625 11.84375 
Q 23.34375 6.203125 30.609375 6.203125 
Q 37.796875 6.203125 41.984375 11.859375 
Q 46.1875 17.53125 46.1875 27.296875 
Q 46.1875 37.015625 41.984375 42.703125 
Q 37.796875 48.390625 30.609375 48.390625 
z
M 30.609375 56 
Q 42.328125 56 49.015625 48.375 
Q 55.71875 40.765625 55.71875 27.296875 
Q 55.71875 13.875 49.015625 6.21875 
Q 42.328125 -1.421875 30.609375 -1.421875 
Q 18.84375 -1.421875 12.171875 6.21875 
Q 5.515625 13.875 5.515625 27.296875 
Q 5.515625 40.765625 12.171875 48.375 
Q 18.84375 56 30.609375 56 
z
" id="DejaVuSans-111"/>
      <path d="M 44.28125 53.078125 
L 44.28125 44.578125 
Q 40.484375 46.53125 36.375 47.5 
Q 32.28125 48.484375 27.875 48.484375 
Q 21.1875 48.484375 17.84375 46.4375 
Q 14.5 44.390625 14.5 40.28125 
Q 14.5 37.15625 16.890625 35.375 
Q 19.28125 33.59375 26.515625 31.984375 
L 29.59375 31.296875 
Q 39.15625 29.25 43.1875 25.515625 
Q 47.21875 21.78125 47.21875 15.09375 
Q 47.21875 7.46875 41.1875 3.015625 
Q 35.15625 -1.421875 24.609375 -1.421875 
Q 20.21875 -1.421875 15.453125 -0.5625 
Q 10.6875 0.296875 5.421875 2 
L 5.421875 11.28125 
Q 10.40625 8.6875 15.234375 7.390625 
Q 20.0625 6.109375 24.8125 6.109375 
Q 31.15625 6.109375 34.5625 8.28125 
Q 37.984375 10.453125 37.984375 14.40625 
Q 37.984375 18.0625 35.515625 20.015625 
Q 33.0625 21.96875 24.703125 23.78125 
L 21.578125 24.515625 
Q 13.234375 26.265625 9.515625 29.90625 
Q 5.8125 33.546875 5.8125 39.890625 
Q 5.8125 47.609375 11.28125 51.796875 
Q 16.75 56 26.8125 56 
Q 31.78125 56 36.171875 55.265625 
Q 40.578125 54.546875 44.28125 53.078125 
z
" id="DejaVuSans-115"/>
     </defs>
     <g transform="translate(205.662344 335.860562)scale(0.1 -0.1)">
      <use xlink:href="#DejaVuSans-71"/>
      <use x="77.490234" xlink:href="#DejaVuSans-101"/>
      <use x="139.013672" xlink:href="#DejaVuSans-110"/>
      <use x="202.392578" xlink:href="#DejaVuSans-101"/>
      <use x="263.916016" xlink:href="#DejaVuSans-114"/>
      <use x="305.029297" xlink:href="#DejaVuSans-97"/>
      <use x="366.308594" xlink:href="#DejaVuSans-116"/>
      <use x="405.517578" xlink:href="#DejaVuSans-105"/>
      <use x="433.300781" xlink:href="#DejaVuSans-111"/>
      <use x="494.482422" xlink:href="#DejaVuSans-110"/>
      <use x="557.861328" xlink:href="#DejaVuSans-115"/>
     </g>
    </g>
   </g>
   <g id="matplotlib.axis_2">
    <g id="ytick_1">
     <g id="line2d_13">
      <path clip-path="url(#p29a7fa4121)" d="M 57.6 282.23211 
L 414.72 282.23211 
" style="fill:none;stroke:#b0b0b0;stroke-linecap:square;stroke-width:0.8;"/>
     </g>
     <g id="line2d_14">
      <defs>
       <path d="M 0 0 
L -3.5 0 
" id="m6590331f65" style="stroke:#000000;stroke-width:0.8;"/>
      </defs>
      <g>
       <use style="stroke:#000000;stroke-width:0.8;" x="57.6" xlink:href="#m6590331f65" y="282.23211"/>
      </g>
     </g>
     <g id="text_8">
      <!-- 20 -->
      <g transform="translate(37.875 286.031328)scale(0.1 -0.1)">
       <use xlink:href="#DejaVuSans-50"/>
       <use x="63.623047" xlink:href="#DejaVuSans-48"/>
      </g>
     </g>
    </g>
    <g id="ytick_2">
     <g id="line2d_15">
      <path clip-path="url(#p29a7fa4121)" d="M 57.6 232.522521 
L 414.72 232.522521 
" style="fill:none;stroke:#b0b0b0;stroke-linecap:square;stroke-width:0.8;"/>
     </g>
     <g id="line2d_16">
      <g>
       <use style="stroke:#000000;stroke-width:0.8;" x="57.6" xlink:href="#m6590331f65" y="232.522521"/>
      </g>
     </g>
     <g id="text_9">
      <!-- 25 -->
      <g transform="translate(37.875 236.321739)scale(0.1 -0.1)">
       <use xlink:href="#DejaVuSans-50"/>
       <use x="63.623047" xlink:href="#DejaVuSans-53"/>
      </g>
     </g>
    </g>
    <g id="ytick_3">
     <g id="line2d_17">
      <path clip-path="url(#p29a7fa4121)" d="M 57.6 182.812932 
L 414.72 182.812932 
" style="fill:none;stroke:#b0b0b0;stroke-linecap:square;stroke-width:0.8;"/>
     </g>
     <g id="line2d_18">
      <g>
       <use style="stroke:#000000;stroke-width:0.8;" x="57.6" xlink:href="#m6590331f65" y="182.812932"/>
      </g>
     </g>
     <g id="text_10">
      <!-- 30 -->
      <g transform="translate(37.875 186.61215)scale(0.1 -0.1)">
       <use xlink:href="#DejaVuSans-51"/>
       <use x="63.623047" xlink:href="#DejaVuSans-48"/>
      </g>
     </g>
    </g>
    <g id="ytick_4">
     <g id="line2d_19">
      <path clip-path="url(#p29a7fa4121)" d="M 57.6 133.103342 
L 414.72 133.103342 
" style="fill:none;stroke:#b0b0b0;stroke-linecap:square;stroke-width:0.8;"/>
     </g>
     <g id="line2d_20">
      <g>
       <use style="stroke:#000000;stroke-width:0.8;" x="57.6" xlink:href="#m6590331f65" y="133.103342"/>
      </g>
     </g>
     <g id="text_11">
      <!-- 35 -->
      <g transform="translate(37.875 136.902561)scale(0.1 -0.1)">
       <use xlink:href="#DejaVuSans-51"/>
       <use x="63.623047" xlink:href="#DejaVuSans-53"/>
      </g>
     </g>
    </g>
    <g id="ytick_5">
     <g id="line2d_21">
      <path clip-path="url(#p29a7fa4121)" d="M 57.6 83.393753 
L 414.72 83.393753 
" style="fill:none;stroke:#b0b0b0;stroke-linecap:square;stroke-width:0.8;"/>
     </g>
     <g id="line2d_22">
      <g>
       <use style="stroke:#000000;stroke-width:0.8;" x="57.6" xlink:href="#m6590331f65" y="83.393753"/>
      </g>
     </g>
     <g id="text_12">
      <!-- 40 -->
      <g transform="translate(37.875 87.192972)scale(0.1 -0.1)">
       <use xlink:href="#DejaVuSans-52"/>
       <use x="63.623047" xlink:href="#DejaVuSans-48"/>
      </g>
     </g>
    </g>
    <g id="text_13">
     <!-- Fitness -->
     <defs>
      <path d="M 9.8125 72.90625 
L 51.703125 72.90625 
L 51.703125 64.59375 
L 19.671875 64.59375 
L 19.671875 43.109375 
L 48.578125 43.109375 
L 48.578125 34.8125 
L 19.671875 34.8125 
L 19.671875 0 
L 9.8125 0 
z
" id="DejaVuSans-70"/>
     </defs>
     <g transform="translate(31.795312 192.202219)rotate(-90)scale(0.1 -0.1)">
      <use xlink:href="#DejaVuSans-70"/>
      <use x="57.410156" xlink:href="#DejaVuSans-105"/>
      <use x="85.193359" xlink:href="#DejaVuSans-116"/>
      <use x="124.402344" xlink:href="#DejaVuSans-110"/>
      <use x="187.78125" xlink:href="#DejaVuSans-101"/>
      <use x="249.304688" xlink:href="#DejaVuSans-115"/>
      <use x="301.404297" xlink:href="#DejaVuSans-115"/>
     </g>
    </g>
   </g>
   <g id="line2d_23">
    <path clip-path="url(#p29a7fa4121)" d="M 73.832727 291.080416 
L 74.483338 295.488 
L 75.133948 294.243157 
L 75.784558 294.17725 
L 76.435169 288.925194 
L 77.085779 286.128942 
L 78.386999 289.07819 
L 79.03761 291.007374 
L 79.68822 287.659585 
L 80.33883 288.741396 
L 80.989441 291.197818 
L 81.640051 291.299738 
L 82.290661 292.711428 
L 82.941272 287.527805 
L 83.591882 291.433934 
L 84.242492 288.392593 
L 84.893103 290.156113 
L 85.543713 290.244269 
L 86.194323 287.431757 
L 86.844934 290.648288 
L 87.495544 288.509867 
L 88.146154 288.097315 
L 88.796764 286.545534 
L 89.447375 284.124607 
L 90.097985 285.716906 
L 90.748595 284.282792 
L 91.399206 283.161743 
L 92.049816 287.153359 
L 92.700426 290.35051 
L 93.351037 285.051084 
L 94.001647 283.720874 
L 94.652257 285.120122 
L 95.953478 289.408231 
L 96.604088 286.700951 
L 97.254698 284.772551 
L 97.905309 283.241067 
L 98.555919 283.348039 
L 99.206529 283.761635 
L 99.85714 288.146921 
L 100.50775 280.883206 
L 101.15836 283.581013 
L 101.808971 283.072968 
L 102.459581 277.999908 
L 103.110191 279.709533 
L 103.760802 280.550392 
L 104.411412 284.580201 
L 105.062022 279.150115 
L 105.712633 283.353379 
L 106.363243 278.021122 
L 107.013853 280.094597 
L 108.315074 286.41818 
L 108.965684 276.15234 
L 109.616294 275.212816 
L 110.266905 274.563344 
L 110.917515 277.012603 
L 111.568125 278.195541 
L 112.218736 276.227092 
L 112.869346 268.39772 
L 113.519956 267.541813 
L 114.170567 273.135255 
L 114.821177 264.709479 
L 115.471787 265.927364 
L 116.122398 262.796782 
L 116.773008 265.861583 
L 117.423618 264.65977 
L 118.074228 262.497776 
L 118.724839 261.851178 
L 119.375449 262.125139 
L 120.026059 263.786257 
L 121.32728 268.720027 
L 122.628501 269.786118 
L 123.279111 262.149436 
L 123.929721 268.338279 
L 124.580332 265.961252 
L 125.230942 259.862795 
L 125.881552 263.98869 
L 126.532163 264.65977 
L 127.182773 262.671386 
L 127.833383 270.276953 
L 128.483993 262.89645 
L 129.134604 259.482809 
L 129.785214 257.948975 
L 130.435824 262.348274 
L 131.086435 260.310181 
L 131.737045 260.111342 
L 132.387655 261.801468 
L 133.038266 263.145621 
L 133.688876 263.541304 
L 134.339486 251.188471 
L 134.990097 261.478356 
L 135.640707 258.073249 
L 136.291317 261.627485 
L 136.941927 256.855364 
L 137.592538 255.513205 
L 138.243148 250.194279 
L 138.893758 247.360833 
L 139.544369 247.584526 
L 140.194979 251.362455 
L 140.845589 252.729468 
L 141.4962 241.967342 
L 142.14681 246.093238 
L 142.79742 238.189414 
L 143.448031 239.755266 
L 144.098641 243.210082 
L 144.749251 238.68651 
L 145.399862 239.059332 
L 146.050472 240.476055 
L 146.701082 237.095803 
L 147.351692 234.858871 
L 148.652913 241.69394 
L 149.303523 238.935058 
L 149.954134 241.743649 
L 150.604744 237.742027 
L 151.255354 239.233315 
L 151.905965 236.946674 
L 152.556575 238.959912 
L 153.207185 240.078378 
L 153.857796 243.732033 
L 154.508406 236.449578 
L 155.159016 239.82983 
L 155.809627 237.220077 
L 156.460237 240.227507 
L 157.110847 239.457008 
L 157.761457 239.755266 
L 158.412068 241.147134 
L 159.062678 238.910203 
L 159.713288 238.984767 
L 160.363899 236.424723 
L 161.014509 240.948296 
L 161.665119 239.954104 
L 162.31573 241.793359 
L 162.96634 239.581282 
L 163.61695 234.38663 
L 164.267561 237.418915 
L 164.918171 233.665841 
L 165.568781 236.648416 
L 166.219392 237.170367 
L 166.870002 240.252362 
L 167.520612 235.380822 
L 168.171222 242.961534 
L 169.472443 230.981523 
L 170.123053 239.084186 
L 170.773664 241.594521 
L 172.074884 243.259792 
L 172.725495 243.085808 
L 173.376105 241.69394 
L 174.026715 235.703934 
L 174.677326 241.02286 
L 175.327936 241.992197 
L 175.978546 236.375014 
L 176.629156 245.447014 
L 177.279767 243.558049 
L 177.930377 233.317874 
L 178.580987 249.175233 
L 179.882208 236.126466 
L 180.532818 237.070948 
L 181.183429 236.524142 
L 181.834039 240.525764 
L 182.484649 242.613567 
L 183.13526 232.945052 
L 183.78587 244.229129 
L 184.43648 232.249118 
L 185.087091 239.382444 
L 185.737701 235.803353 
L 186.388311 242.787551 
L 187.038921 235.853063 
L 187.689532 237.369205 
L 188.340142 236.176175 
L 188.990752 235.803353 
L 189.641363 237.742027 
L 190.942583 246.118093 
L 191.593194 240.873732 
L 192.243804 243.160373 
L 192.894414 243.657468 
L 193.545025 244.601951 
L 194.195635 238.462816 
L 194.846245 239.009622 
L 195.496856 236.722981 
L 196.147466 248.056767 
L 196.798076 236.474433 
L 197.448686 237.046093 
L 198.099297 240.227507 
L 198.749907 242.166181 
L 199.400517 236.325304 
L 200.051128 238.835638 
L 200.701738 239.978959 
L 201.352348 238.835638 
L 202.002959 233.342729 
L 202.653569 232.124844 
L 203.304179 233.467003 
L 203.95479 236.399868 
L 204.6054 235.281403 
L 205.906621 239.034477 
L 206.557231 240.625184 
L 207.207841 237.493479 
L 207.858451 236.151321 
L 208.509062 230.80754 
L 209.159672 244.403112 
L 211.111503 233.839825 
L 211.762113 239.680701 
L 212.412724 235.181984 
L 213.063334 238.01543 
L 213.713944 232.149699 
L 214.364555 239.034477 
L 215.015165 234.883726 
L 215.665775 237.940866 
L 216.316385 238.984767 
L 216.966996 234.834016 
L 217.617606 239.059332 
L 218.268216 244.65166 
L 218.918827 239.506718 
L 219.569437 236.87211 
L 220.220047 237.940866 
L 220.870658 239.581282 
L 221.521268 237.866301 
L 222.171878 238.413107 
L 222.822489 243.930871 
L 223.473099 234.336921 
L 224.123709 240.824022 
L 224.77432 238.06514 
L 225.42493 236.25074 
L 226.07554 244.403112 
L 226.72615 239.506718 
L 227.376761 238.611945 
L 228.027371 238.01543 
L 228.677981 239.432153 
L 229.328592 238.512526 
L 230.629812 241.122279 
L 231.280423 233.640986 
L 231.931033 238.263978 
L 232.581643 233.094181 
L 233.232254 234.038663 
L 233.882864 241.793359 
L 234.533474 238.910203 
L 235.184085 243.135518 
L 235.834695 236.20103 
L 236.485305 237.717173 
L 237.135915 241.097425 
L 237.786526 238.313688 
L 238.437136 233.019616 
L 239.087746 239.307879 
L 239.738357 236.225885 
L 240.388967 238.58709 
L 241.039577 236.797545 
L 241.690188 243.060953 
L 242.340798 237.543189 
L 242.991408 240.650038 
L 243.642019 235.355967 
L 244.292629 238.6368 
L 244.943239 237.592899 
L 245.59385 239.084186 
L 246.24446 237.145512 
L 246.89507 247.037721 
L 248.196291 237.145512 
L 248.846901 234.684888 
L 249.497511 233.218455 
L 250.148122 242.812405 
L 250.798732 236.499288 
L 251.449342 236.847255 
L 252.099953 240.028668 
L 252.750563 239.432153 
L 253.401173 238.214268 
L 254.051784 234.486049 
L 254.702394 236.673271 
L 255.353004 234.709742 
L 256.003615 241.992197 
L 256.654225 239.655847 
L 257.304835 240.774312 
L 257.955445 239.059332 
L 258.606056 235.529951 
L 259.256666 239.382444 
L 259.907276 229.241688 
L 260.557887 239.133896 
L 261.208497 241.544811 
L 261.859107 240.998005 
L 262.509718 235.505096 
L 263.160328 240.824022 
L 263.810938 236.474433 
L 264.461549 237.319496 
L 265.112159 242.290455 
L 265.762769 236.399868 
L 266.413379 238.885348 
L 267.06399 232.795923 
L 267.7146 242.862115 
L 268.36521 247.112285 
L 269.015821 239.506718 
L 269.666431 238.089995 
L 270.967652 239.158751 
L 271.618262 234.461195 
L 272.268872 243.160373 
L 272.919483 232.646795 
L 273.570093 236.946674 
L 274.220703 235.803353 
L 274.871314 236.8224 
L 275.521924 236.424723 
L 276.172534 232.820778 
L 276.823144 235.405677 
L 277.473755 241.445392 
L 278.124365 233.839825 
L 278.774975 240.824022 
L 279.425586 240.724603 
L 280.076196 236.424723 
L 280.726806 245.84469 
L 281.377417 235.181984 
L 282.028027 230.75783 
L 282.678637 231.528329 
L 283.329248 235.430532 
L 283.979858 235.654225 
L 284.630468 240.525764 
L 285.931689 232.646795 
L 286.582299 237.692318 
L 287.232909 234.908581 
L 288.53413 239.233315 
L 289.18474 237.244932 
L 289.835351 243.160373 
L 290.485961 239.20846 
L 291.136571 249.324362 
L 291.787182 240.351781 
L 292.437792 239.705556 
L 293.088402 233.640986 
L 293.739013 236.698126 
L 294.389623 242.141326 
L 295.040233 235.778499 
L 296.341454 239.009622 
L 296.992064 242.290455 
L 297.642674 240.948296 
L 298.293285 241.867923 
L 298.943895 236.996384 
L 300.245116 245.919255 
L 300.895726 239.158751 
L 301.546336 238.462816 
L 302.196947 238.58709 
L 302.847557 233.715551 
L 303.498167 240.053523 
L 304.148778 235.728789 
L 304.799388 234.138082 
L 305.449998 236.698126 
L 306.751219 234.709742 
L 307.401829 233.76526 
L 308.052439 236.126466 
L 309.35366 231.578038 
L 310.00427 237.965721 
L 310.654881 237.468625 
L 311.305491 233.939244 
L 311.956101 237.742027 
L 312.606712 234.187792 
L 313.257322 235.679079 
L 313.907932 235.877918 
L 314.558543 240.525764 
L 315.209153 238.139704 
L 315.859763 233.541567 
L 316.510373 244.577096 
L 317.160984 235.57966 
L 317.811594 238.363397 
L 318.462204 235.082564 
L 319.763425 232.398247 
L 320.414035 236.176175 
L 321.064646 238.139704 
L 321.715256 231.503474 
L 322.365866 230.484427 
L 323.016477 237.568044 
L 323.667087 233.740405 
L 324.317697 237.742027 
L 324.968308 232.323682 
L 325.618918 237.543189 
L 326.269528 233.839825 
L 328.221359 241.395682 
L 328.871969 237.369205 
L 329.52258 236.225885 
L 330.17319 235.405677 
L 330.8238 238.06514 
L 331.474411 238.06514 
L 332.125021 231.304636 
L 332.775631 240.600329 
L 333.426242 232.522521 
L 334.076852 232.199408 
L 334.727462 238.711364 
L 336.028683 239.929249 
L 336.679293 243.160373 
L 337.329903 238.089995 
L 337.980514 237.940866 
L 338.631124 237.518334 
L 339.281734 229.365962 
L 339.932345 241.122279 
L 340.582955 240.053523 
L 341.233565 242.439584 
L 341.884176 238.164559 
L 342.534786 235.132274 
L 343.185396 240.948296 
L 343.836007 240.177797 
L 344.486617 239.87954 
L 345.137227 244.999627 
L 345.787837 243.607759 
L 346.438448 241.519956 
L 347.089058 236.598707 
L 347.739668 238.114849 
L 348.390279 240.351781 
L 349.040889 238.01543 
L 349.691499 245.496723 
L 350.34211 236.126466 
L 350.99272 233.690696 
L 351.64333 234.411485 
L 352.293941 238.537381 
L 352.944551 239.630992 
L 353.595161 242.514148 
L 354.245772 241.892778 
L 354.896382 236.524142 
L 355.546992 238.139704 
L 356.197602 233.218455 
L 356.848213 241.321118 
L 357.498823 238.711364 
L 358.149433 235.62937 
L 358.800044 236.350159 
L 359.450654 238.537381 
L 360.101264 244.03029 
L 360.751875 238.363397 
L 361.402485 238.984767 
L 362.053095 237.095803 
L 362.703706 242.414729 
L 363.354316 239.730411 
L 364.004926 240.376636 
L 364.655537 233.019616 
L 365.306147 231.553184 
L 365.956757 240.326926 
L 366.607367 234.287211 
L 367.257978 239.432153 
L 367.908588 238.984767 
L 368.559198 237.39406 
L 369.209809 242.141326 
L 369.860419 235.654225 
L 370.511029 235.753644 
L 371.16164 240.799167 
L 371.81225 238.114849 
L 372.46286 239.357589 
L 373.113471 238.487671 
L 374.414691 235.529951 
L 375.065302 235.803353 
L 375.715912 235.828208 
L 376.366522 236.87211 
L 377.017132 238.885348 
L 377.667743 239.20846 
L 378.318353 245.32274 
L 378.968963 242.663277 
L 379.619574 238.562236 
L 380.270184 242.88697 
L 380.920794 243.930871 
L 381.571405 240.4512 
L 382.222015 235.405677 
L 382.872625 239.87954 
L 383.523236 235.306258 
L 384.173846 236.87211 
L 384.824456 235.107419 
L 385.475066 234.660033 
L 386.125677 234.560614 
L 386.776287 238.736219 
L 387.426897 236.225885 
L 388.077508 234.237501 
L 388.728118 236.027047 
L 389.378728 236.350159 
L 390.029339 238.562236 
L 390.679949 237.170367 
L 391.330559 241.122279 
L 391.98117 234.635178 
L 392.63178 239.87954 
L 393.28239 236.126466 
L 393.933001 237.518334 
L 394.583611 236.424723 
L 395.234221 240.4512 
L 395.884831 241.793359 
L 396.535442 238.785929 
L 397.186052 237.44377 
L 397.836662 240.252362 
L 398.487273 240.898586 
L 398.487273 240.898586 
" style="fill:none;stroke:#0000ff;stroke-linecap:square;stroke-width:1.5;"/>
   </g>
   <g id="line2d_24">
    <path clip-path="url(#p29a7fa4121)" d="M 73.832727 254.318302 
L 75.133948 252.864987 
L 75.784558 253.769619 
L 76.435169 246.977482 
L 77.085779 243.670635 
L 77.736389 243.440418 
L 78.386999 245.60488 
L 79.03761 249.167702 
L 79.68822 245.142677 
L 80.33883 247.68392 
L 80.989441 246.580612 
L 81.640051 248.471423 
L 82.290661 248.952306 
L 82.941272 246.189107 
L 83.591882 248.186594 
L 84.242492 248.389072 
L 84.893103 249.472003 
L 85.543713 246.068523 
L 86.194323 241.662444 
L 86.844934 246.312083 
L 87.495544 243.77324 
L 88.146154 239.917161 
L 88.796764 239.381758 
L 89.447375 235.381452 
L 90.097985 237.584268 
L 91.399206 234.207714 
L 92.049816 238.901784 
L 92.700426 241.968559 
L 93.351037 234.470108 
L 94.652257 237.309509 
L 95.302868 238.130886 
L 95.953478 241.049768 
L 96.604088 237.582378 
L 97.254698 237.619237 
L 97.905309 231.484731 
L 98.555919 236.304315 
L 99.206529 234.56421 
L 99.85714 234.24893 
L 100.50775 231.825684 
L 101.15836 232.626358 
L 101.808971 226.655934 
L 102.459581 222.677015 
L 103.110191 226.087793 
L 103.760802 225.627572 
L 104.411412 231.120716 
L 105.062022 225.996732 
L 105.712633 226.474103 
L 106.363243 222.198015 
L 107.013853 224.772693 
L 107.664463 226.377363 
L 108.315074 235.089767 
L 108.965684 219.498105 
L 109.616294 215.377148 
L 110.266905 213.610042 
L 110.917515 219.944457 
L 111.568125 221.871437 
L 112.218736 218.304483 
L 112.869346 208.310765 
L 113.519956 206.307294 
L 114.170567 215.628522 
L 114.821177 202.788733 
L 115.471787 205.428201 
L 116.122398 202.712482 
L 116.773008 201.113843 
L 117.423618 203.419296 
L 118.074228 199.931759 
L 118.724839 199.9333 
L 119.375449 196.807355 
L 120.026059 199.26808 
L 120.67667 206.329835 
L 121.32728 209.524198 
L 121.97789 207.625339 
L 122.628501 208.288107 
L 123.279111 200.770995 
L 123.929721 207.040496 
L 125.230942 197.50747 
L 125.881552 200.369912 
L 126.532163 199.836145 
L 127.182773 199.847084 
L 127.833383 209.960973 
L 128.483993 200.705966 
L 129.134604 197.753975 
L 129.785214 193.778002 
L 130.435824 198.499021 
L 131.086435 199.320769 
L 131.737045 196.023073 
L 132.387655 196.153204 
L 133.038266 196.780073 
L 133.688876 197.927961 
L 134.339486 188.296514 
L 134.990097 197.105038 
L 135.640707 195.573369 
L 136.291317 198.020773 
L 137.592538 189.405175 
L 138.243148 184.432424 
L 138.893758 185.421054 
L 139.544369 184.104174 
L 140.194979 187.490778 
L 140.845589 186.957506 
L 141.4962 175.711714 
L 142.14681 180.637374 
L 142.79742 177.948365 
L 143.448031 179.803569 
L 144.098641 180.55677 
L 144.749251 173.644328 
L 145.399862 174.64737 
L 146.050472 174.949841 
L 146.701082 176.239895 
L 147.351692 174.001847 
L 148.652913 179.027126 
L 149.303523 175.975179 
L 149.954134 177.749629 
L 150.604744 177.157988 
L 151.255354 177.254108 
L 151.905965 177.115675 
L 152.556575 175.38351 
L 153.207185 176.935537 
L 153.857796 181.480824 
L 154.508406 175.80064 
L 155.159016 180.460867 
L 155.809627 173.429488 
L 156.460237 174.71685 
L 157.110847 174.308239 
L 157.761457 175.980948 
L 158.412068 178.469714 
L 159.062678 178.008597 
L 159.713288 176.443466 
L 160.363899 174.092432 
L 161.014509 179.501739 
L 161.665119 178.29518 
L 162.96634 178.36304 
L 163.61695 175.157206 
L 164.267561 177.420496 
L 164.918171 171.434061 
L 165.568781 175.562006 
L 166.219392 173.063154 
L 166.870002 178.445934 
L 167.520612 173.604906 
L 168.171222 181.488236 
L 168.821833 174.252511 
L 169.472443 168.382188 
L 170.123053 179.329704 
L 170.773664 179.245264 
L 171.424274 183.460339 
L 172.074884 178.69578 
L 172.725495 175.822585 
L 173.376105 180.137093 
L 174.026715 177.293496 
L 174.677326 178.476443 
L 175.327936 176.529939 
L 175.978546 175.919207 
L 176.629156 183.323948 
L 177.279767 183.738677 
L 177.930377 170.902264 
L 178.580987 186.98508 
L 179.231598 181.239011 
L 179.882208 173.986621 
L 180.532818 176.827361 
L 181.183429 177.121293 
L 181.834039 180.769152 
L 182.484649 179.71196 
L 183.13526 170.302533 
L 183.78587 181.815582 
L 184.43648 172.290415 
L 185.087091 178.570812 
L 185.737701 174.847883 
L 186.388311 178.424521 
L 187.038921 174.924618 
L 187.689532 174.259681 
L 188.340142 175.826651 
L 188.990752 172.975388 
L 190.291973 179.390101 
L 190.942583 183.95332 
L 191.593194 178.643838 
L 192.243804 177.4458 
L 192.894414 179.827104 
L 193.545025 181.106809 
L 194.195635 177.58491 
L 194.846245 177.000625 
L 195.496856 174.728133 
L 196.147466 181.85069 
L 196.798076 172.83102 
L 197.448686 179.612283 
L 198.099297 176.475565 
L 198.749907 179.387004 
L 199.400517 176.532133 
L 200.701738 176.484809 
L 201.352348 176.342341 
L 202.002959 171.24696 
L 202.653569 169.126181 
L 203.304179 170.43495 
L 203.95479 175.597177 
L 204.6054 170.700635 
L 205.25601 177.59799 
L 205.906621 176.522045 
L 206.557231 176.354876 
L 207.207841 176.05838 
L 207.858451 174.433888 
L 208.509062 172.278647 
L 209.159672 180.386135 
L 209.810282 181.408051 
L 210.460893 176.107388 
L 211.111503 173.308367 
L 211.762113 176.471993 
L 212.412724 172.843746 
L 213.063334 175.648421 
L 213.713944 171.690826 
L 214.364555 177.658955 
L 215.015165 174.773265 
L 216.316385 176.506715 
L 216.966996 172.055356 
L 217.617606 175.625382 
L 218.268216 183.469192 
L 218.918827 176.908947 
L 219.569437 174.81583 
L 220.220047 177.672853 
L 220.870658 176.131203 
L 221.521268 178.033965 
L 222.171878 177.652253 
L 222.822489 179.941871 
L 223.473099 172.238367 
L 224.123709 177.704372 
L 224.77432 174.782124 
L 225.42493 173.361233 
L 226.07554 182.857923 
L 226.72615 176.413523 
L 227.376761 178.221571 
L 228.027371 175.045137 
L 228.677981 178.715619 
L 229.328592 176.997442 
L 229.979202 178.039463 
L 230.629812 178.451301 
L 231.280423 174.702229 
L 231.931033 175.871815 
L 232.581643 171.9581 
L 233.232254 172.728988 
L 233.882864 180.79587 
L 234.533474 175.97724 
L 235.184085 180.310035 
L 235.834695 172.593653 
L 236.485305 176.089716 
L 237.135915 178.800703 
L 238.437136 171.994136 
L 239.087746 177.871417 
L 239.738357 175.118468 
L 240.388967 176.231448 
L 241.039577 173.90354 
L 241.690188 182.442642 
L 242.340798 177.552982 
L 242.991408 179.147247 
L 243.642019 173.317464 
L 244.292629 177.615956 
L 244.943239 174.765877 
L 245.59385 175.522434 
L 246.24446 176.017855 
L 246.89507 185.575759 
L 247.54568 179.712601 
L 248.196291 175.466528 
L 248.846901 172.422605 
L 249.497511 172.207067 
L 250.148122 182.192158 
L 250.798732 173.664322 
L 251.449342 177.623312 
L 252.099953 173.730182 
L 252.750563 177.742593 
L 253.401173 172.914905 
L 254.051784 170.063884 
L 254.702394 173.816135 
L 255.353004 174.83364 
L 256.003615 179.698133 
L 256.654225 178.375641 
L 257.304835 178.837601 
L 257.955445 178.674809 
L 258.606056 174.086008 
L 259.256666 175.813305 
L 259.907276 167.657064 
L 260.557887 176.159262 
L 261.208497 181.745234 
L 261.859107 178.189989 
L 262.509718 175.795623 
L 263.160328 177.391957 
L 263.810938 176.307762 
L 264.461549 173.835315 
L 265.112159 181.744915 
L 265.762769 173.668888 
L 266.413379 177.349454 
L 267.06399 170.231518 
L 267.7146 180.044141 
L 268.36521 183.383937 
L 269.015821 177.130398 
L 269.666431 178.391779 
L 270.317041 182.84521 
L 270.967652 175.957592 
L 271.618262 170.769281 
L 272.268872 179.827859 
L 272.919483 169.89656 
L 273.570093 175.719492 
L 274.220703 171.640539 
L 274.871314 174.385538 
L 275.521924 178.446681 
L 276.172534 174.054792 
L 276.823144 176.085743 
L 277.473755 183.519753 
L 278.124365 173.767319 
L 278.774975 180.658763 
L 279.425586 180.238531 
L 280.076196 174.986854 
L 280.726806 183.809673 
L 281.377417 171.436578 
L 282.028027 169.470931 
L 282.678637 169.484867 
L 283.329248 171.723126 
L 283.979858 170.289782 
L 284.630468 178.401127 
L 285.931689 169.743169 
L 286.582299 173.835634 
L 287.232909 173.459486 
L 287.88352 175.185183 
L 288.53413 179.293052 
L 289.18474 173.087297 
L 289.835351 179.307172 
L 290.485961 178.148374 
L 291.136571 188.245131 
L 291.787182 177.763208 
L 292.437792 177.063195 
L 293.088402 171.977173 
L 293.739013 178.83941 
L 294.389623 178.527467 
L 295.690844 172.436265 
L 296.992064 181.176204 
L 297.642674 176.533227 
L 298.293285 181.761321 
L 298.943895 176.634531 
L 299.594505 177.764349 
L 300.245116 184.430487 
L 300.895726 176.440342 
L 301.546336 175.16512 
L 302.196947 180.218718 
L 302.847557 171.623836 
L 303.498167 176.13179 
L 304.148778 174.435843 
L 304.799388 171.661142 
L 306.100608 176.223794 
L 306.751219 173.221091 
L 307.401829 171.100117 
L 308.052439 177.751156 
L 308.70305 170.503925 
L 309.35366 171.702451 
L 310.00427 175.685542 
L 310.654881 174.763574 
L 311.305491 173.039666 
L 311.956101 177.255956 
L 312.606712 174.998349 
L 313.257322 175.91443 
L 313.907932 172.675469 
L 314.558543 177.453737 
L 315.209153 177.13587 
L 315.859763 170.106215 
L 316.510373 183.402105 
L 317.160984 173.402566 
L 317.811594 178.309487 
L 318.462204 174.285324 
L 319.112815 169.081156 
L 319.763425 171.656998 
L 320.414035 174.73911 
L 321.064646 176.740191 
L 321.715256 170.547279 
L 322.365866 171.53466 
L 323.016477 174.450611 
L 323.667087 173.628793 
L 324.317697 174.578077 
L 324.968308 171.337005 
L 325.618918 176.617015 
L 326.269528 169.832137 
L 326.920138 172.509573 
L 327.570749 178.198742 
L 328.221359 180.553953 
L 328.871969 176.163927 
L 329.52258 175.544549 
L 330.17319 172.041333 
L 330.8238 172.518796 
L 331.474411 179.74014 
L 332.125021 167.345184 
L 332.775631 181.437694 
L 333.426242 170.658543 
L 334.076852 170.370236 
L 334.727462 175.484367 
L 335.378073 182.717151 
L 336.028683 177.500675 
L 336.679293 179.388491 
L 337.329903 177.377998 
L 337.980514 177.496806 
L 338.631124 177.912417 
L 339.281734 168.098661 
L 339.932345 178.557849 
L 340.582955 177.31404 
L 341.233565 179.890386 
L 341.884176 177.449271 
L 342.534786 174.170728 
L 343.185396 176.082144 
L 343.836007 178.885975 
L 344.486617 180.064712 
L 345.137227 179.866805 
L 345.787837 182.203417 
L 346.438448 181.36439 
L 347.089058 174.101357 
L 347.739668 174.404224 
L 348.390279 177.656701 
L 349.040889 176.177625 
L 349.691499 184.354353 
L 350.34211 176.226024 
L 350.99272 170.68788 
L 353.595161 182.425165 
L 354.245772 179.933654 
L 354.896382 174.182298 
L 355.546992 180.347502 
L 356.197602 169.547398 
L 356.848213 181.009004 
L 357.498823 175.860675 
L 358.149433 175.684598 
L 358.800044 172.650642 
L 359.450654 177.034766 
L 360.101264 180.128662 
L 360.751875 174.222736 
L 361.402485 178.410415 
L 362.053095 177.802952 
L 362.703706 179.238574 
L 363.354316 177.683464 
L 364.004926 178.555891 
L 364.655537 176.781833 
L 365.306147 172.356602 
L 365.956757 178.599885 
L 366.607367 175.067258 
L 367.257978 179.234703 
L 367.908588 179.054296 
L 368.559198 176.887137 
L 369.209809 179.561361 
L 369.860419 174.747684 
L 370.511029 172.648402 
L 371.16164 179.812617 
L 372.46286 174.122512 
L 373.113471 178.005174 
L 373.764081 174.011324 
L 374.414691 177.66919 
L 375.065302 173.121079 
L 375.715912 174.070615 
L 376.366522 177.331647 
L 377.017132 176.325954 
L 377.667743 177.592432 
L 378.318353 182.072415 
L 378.968963 180.979625 
L 379.619574 172.216455 
L 380.270184 183.976854 
L 380.920794 184.962019 
L 381.571405 180.204906 
L 382.222015 171.819437 
L 382.872625 177.34622 
L 383.523236 171.494478 
L 384.173846 174.50205 
L 384.824456 175.487072 
L 385.475066 172.892973 
L 386.125677 175.514514 
L 386.776287 175.341874 
L 387.426897 174.522893 
L 388.077508 174.216188 
L 388.728118 176.609431 
L 389.378728 175.446864 
L 390.029339 176.468258 
L 390.679949 175.824671 
L 391.330559 180.304248 
L 391.98117 174.351284 
L 392.63178 177.722752 
L 393.28239 173.776218 
L 393.933001 177.606426 
L 394.583611 175.76807 
L 395.234221 180.860624 
L 395.884831 180.420278 
L 396.535442 176.911487 
L 397.186052 176.137536 
L 397.836662 176.307979 
L 398.487273 178.491612 
L 398.487273 178.491612 
" style="fill:none;stroke:#008000;stroke-dasharray:9.6,2.4,1.5,2.4;stroke-dashoffset:0;stroke-width:1.5;"/>
   </g>
   <g id="line2d_25">
    <path clip-path="url(#p29a7fa4121)" d="M 73.832727 172.871014 
L 74.483338 162.929096 
L 75.133948 162.929096 
L 75.784558 143.04526 
L 76.435169 152.987178 
L 77.736389 113.219507 
L 78.386999 103.277589 
L 79.03761 123.161425 
L 79.68822 152.987178 
L 80.33883 123.161425 
L 80.989441 133.103342 
L 81.640051 133.103342 
L 82.290661 143.04526 
L 83.591882 123.161425 
L 84.242492 152.987178 
L 84.893103 103.277589 
L 85.543713 143.04526 
L 86.194323 113.219507 
L 87.495544 133.103342 
L 88.146154 73.451836 
L 88.796764 123.161425 
L 89.447375 133.103342 
L 90.097985 113.219507 
L 90.748595 133.103342 
L 91.399206 133.103342 
L 92.049816 123.161425 
L 92.700426 123.161425 
L 93.351037 113.219507 
L 94.001647 123.161425 
L 94.652257 113.219507 
L 95.302868 133.103342 
L 95.953478 133.103342 
L 96.604088 123.161425 
L 97.254698 143.04526 
L 97.905309 133.103342 
L 98.555919 143.04526 
L 99.206529 143.04526 
L 99.85714 123.161425 
L 100.50775 113.219507 
L 101.15836 143.04526 
L 101.808971 123.161425 
L 102.459581 123.161425 
L 103.760802 103.277589 
L 104.411412 133.103342 
L 105.062022 93.335671 
L 105.712633 113.219507 
L 106.363243 123.161425 
L 107.013853 93.335671 
L 107.664463 103.277589 
L 108.315074 123.161425 
L 109.616294 103.277589 
L 110.266905 103.277589 
L 110.917515 133.103342 
L 111.568125 113.219507 
L 112.218736 113.219507 
L 113.519956 93.335671 
L 114.170567 133.103342 
L 114.821177 93.335671 
L 115.471787 133.103342 
L 116.122398 123.161425 
L 116.773008 103.277589 
L 117.423618 113.219507 
L 118.074228 113.219507 
L 118.724839 103.277589 
L 119.375449 73.451836 
L 120.026059 103.277589 
L 120.67667 123.161425 
L 121.32728 103.277589 
L 121.97789 103.277589 
L 122.628501 133.103342 
L 123.279111 113.219507 
L 123.929721 103.277589 
L 124.580332 113.219507 
L 125.230942 93.335671 
L 125.881552 123.161425 
L 126.532163 93.335671 
L 127.182773 113.219507 
L 128.483993 133.103342 
L 129.134604 113.219507 
L 129.785214 73.451836 
L 130.435824 133.103342 
L 131.086435 103.277589 
L 131.737045 113.219507 
L 132.387655 83.393753 
L 133.688876 123.161425 
L 134.339486 103.277589 
L 134.990097 103.277589 
L 135.640707 123.161425 
L 136.291317 103.277589 
L 136.941927 113.219507 
L 137.592538 103.277589 
L 138.243148 103.277589 
L 138.893758 113.219507 
L 139.544369 103.277589 
L 140.194979 113.219507 
L 141.4962 113.219507 
L 142.14681 103.277589 
L 142.79742 113.219507 
L 143.448031 93.335671 
L 144.098641 103.277589 
L 145.399862 83.393753 
L 146.050472 83.393753 
L 147.351692 103.277589 
L 148.002303 123.161425 
L 148.652913 103.277589 
L 151.905965 103.277589 
L 152.556575 113.219507 
L 153.207185 83.393753 
L 153.857796 93.335671 
L 154.508406 123.161425 
L 155.159016 123.161425 
L 155.809627 113.219507 
L 156.460237 83.393753 
L 157.110847 103.277589 
L 157.761457 93.335671 
L 158.412068 93.335671 
L 159.062678 123.161425 
L 159.713288 73.451836 
L 161.014509 93.335671 
L 161.665119 113.219507 
L 162.96634 93.335671 
L 163.61695 113.219507 
L 164.267561 103.277589 
L 164.918171 83.393753 
L 166.219392 83.393753 
L 167.520612 103.277589 
L 168.171222 93.335671 
L 170.123053 93.335671 
L 170.773664 83.393753 
L 171.424274 93.335671 
L 172.074884 83.393753 
L 173.376105 103.277589 
L 174.026715 123.161425 
L 174.677326 103.277589 
L 175.327936 63.509918 
L 175.978546 113.219507 
L 176.629156 103.277589 
L 177.279767 113.219507 
L 177.930377 73.451836 
L 178.580987 113.219507 
L 179.231598 53.568 
L 179.882208 123.161425 
L 180.532818 103.277589 
L 181.183429 93.335671 
L 181.834039 113.219507 
L 182.484649 93.335671 
L 183.13526 93.335671 
L 183.78587 103.277589 
L 184.43648 83.393753 
L 185.087091 103.277589 
L 185.737701 93.335671 
L 186.388311 113.219507 
L 187.038921 113.219507 
L 187.689532 83.393753 
L 188.990752 103.277589 
L 189.641363 93.335671 
L 190.291973 113.219507 
L 192.243804 113.219507 
L 192.894414 93.335671 
L 194.195635 113.219507 
L 194.846245 103.277589 
L 195.496856 103.277589 
L 196.147466 113.219507 
L 197.448686 113.219507 
L 198.099297 93.335671 
L 198.749907 113.219507 
L 199.400517 113.219507 
L 200.051128 103.277589 
L 200.701738 103.277589 
L 201.352348 93.335671 
L 202.002959 113.219507 
L 202.653569 93.335671 
L 203.304179 83.393753 
L 203.95479 93.335671 
L 204.6054 93.335671 
L 205.25601 103.277589 
L 205.906621 93.335671 
L 206.557231 123.161425 
L 207.207841 103.277589 
L 207.858451 93.335671 
L 208.509062 93.335671 
L 209.159672 113.219507 
L 209.810282 113.219507 
L 210.460893 93.335671 
L 211.111503 113.219507 
L 211.762113 103.277589 
L 212.412724 113.219507 
L 213.713944 93.335671 
L 214.364555 103.277589 
L 215.015165 123.161425 
L 215.665775 103.277589 
L 216.316385 103.277589 
L 216.966996 73.451836 
L 217.617606 83.393753 
L 218.918827 123.161425 
L 220.870658 93.335671 
L 221.521268 103.277589 
L 222.171878 93.335671 
L 222.822489 93.335671 
L 223.473099 113.219507 
L 224.123709 103.277589 
L 224.77432 103.277589 
L 225.42493 93.335671 
L 226.07554 103.277589 
L 226.72615 93.335671 
L 227.376761 113.219507 
L 228.027371 83.393753 
L 228.677981 103.277589 
L 229.328592 93.335671 
L 230.629812 113.219507 
L 231.280423 93.335671 
L 231.931033 103.277589 
L 232.581643 83.393753 
L 233.232254 103.277589 
L 233.882864 73.451836 
L 234.533474 93.335671 
L 235.184085 103.277589 
L 235.834695 83.393753 
L 236.485305 93.335671 
L 237.135915 83.393753 
L 237.786526 113.219507 
L 239.087746 93.335671 
L 239.738357 93.335671 
L 240.388967 103.277589 
L 241.039577 83.393753 
L 241.690188 83.393753 
L 242.340798 93.335671 
L 242.991408 123.161425 
L 243.642019 83.393753 
L 244.292629 113.219507 
L 244.943239 63.509918 
L 245.59385 83.393753 
L 246.24446 123.161425 
L 246.89507 113.219507 
L 247.54568 93.335671 
L 248.196291 93.335671 
L 248.846901 103.277589 
L 249.497511 93.335671 
L 250.148122 123.161425 
L 251.449342 103.277589 
L 252.750563 103.277589 
L 253.401173 113.219507 
L 254.051784 113.219507 
L 254.702394 73.451836 
L 255.353004 83.393753 
L 256.003615 123.161425 
L 256.654225 113.219507 
L 257.304835 93.335671 
L 257.955445 93.335671 
L 258.606056 113.219507 
L 259.256666 123.161425 
L 259.907276 93.335671 
L 261.208497 113.219507 
L 261.859107 83.393753 
L 262.509718 113.219507 
L 263.810938 93.335671 
L 264.461549 93.335671 
L 265.112159 123.161425 
L 265.762769 103.277589 
L 266.413379 113.219507 
L 267.06399 113.219507 
L 267.7146 103.277589 
L 268.36521 103.277589 
L 269.015821 113.219507 
L 269.666431 103.277589 
L 270.967652 123.161425 
L 271.618262 113.219507 
L 272.268872 123.161425 
L 272.919483 103.277589 
L 273.570093 73.451836 
L 274.220703 103.277589 
L 274.871314 83.393753 
L 275.521924 123.161425 
L 276.172534 93.335671 
L 276.823144 73.451836 
L 277.473755 93.335671 
L 278.124365 73.451836 
L 278.774975 113.219507 
L 279.425586 103.277589 
L 280.076196 113.219507 
L 280.726806 93.335671 
L 281.377417 113.219507 
L 282.028027 113.219507 
L 282.678637 123.161425 
L 283.329248 103.277589 
L 283.979858 93.335671 
L 284.630468 93.335671 
L 285.281079 113.219507 
L 286.582299 93.335671 
L 287.232909 103.277589 
L 287.88352 73.451836 
L 288.53413 103.277589 
L 289.835351 123.161425 
L 290.485961 103.277589 
L 291.136571 113.219507 
L 291.787182 103.277589 
L 292.437792 103.277589 
L 293.088402 93.335671 
L 293.739013 113.219507 
L 295.040233 93.335671 
L 295.690844 103.277589 
L 296.341454 103.277589 
L 296.992064 93.335671 
L 297.642674 103.277589 
L 298.293285 103.277589 
L 298.943895 83.393753 
L 299.594505 113.219507 
L 300.245116 83.393753 
L 300.895726 113.219507 
L 302.196947 113.219507 
L 302.847557 93.335671 
L 303.498167 113.219507 
L 304.148778 83.393753 
L 304.799388 93.335671 
L 305.449998 93.335671 
L 306.100608 113.219507 
L 306.751219 113.219507 
L 307.401829 83.393753 
L 308.052439 103.277589 
L 308.70305 103.277589 
L 309.35366 93.335671 
L 310.00427 93.335671 
L 310.654881 113.219507 
L 311.956101 93.335671 
L 312.606712 103.277589 
L 313.257322 83.393753 
L 313.907932 103.277589 
L 314.558543 103.277589 
L 315.209153 83.393753 
L 315.859763 103.277589 
L 317.160984 103.277589 
L 317.811594 83.393753 
L 318.462204 93.335671 
L 319.112815 63.509918 
L 319.763425 93.335671 
L 320.414035 113.219507 
L 321.064646 83.393753 
L 322.365866 83.393753 
L 323.016477 93.335671 
L 323.667087 93.335671 
L 324.317697 113.219507 
L 324.968308 103.277589 
L 325.618918 113.219507 
L 326.269528 93.335671 
L 326.920138 83.393753 
L 327.570749 123.161425 
L 328.221359 103.277589 
L 328.871969 93.335671 
L 329.52258 103.277589 
L 330.17319 93.335671 
L 330.8238 103.277589 
L 331.474411 103.277589 
L 332.125021 83.393753 
L 332.775631 93.335671 
L 333.426242 73.451836 
L 334.076852 103.277589 
L 335.378073 123.161425 
L 336.028683 113.219507 
L 336.679293 73.451836 
L 337.329903 83.393753 
L 337.980514 103.277589 
L 338.631124 113.219507 
L 339.281734 93.335671 
L 339.932345 83.393753 
L 340.582955 123.161425 
L 341.884176 103.277589 
L 342.534786 103.277589 
L 343.185396 113.219507 
L 343.836007 113.219507 
L 345.137227 93.335671 
L 345.787837 113.219507 
L 347.089058 113.219507 
L 347.739668 93.335671 
L 348.390279 103.277589 
L 349.040889 123.161425 
L 349.691499 123.161425 
L 350.34211 113.219507 
L 350.99272 113.219507 
L 351.64333 123.161425 
L 352.293941 93.335671 
L 352.944551 113.219507 
L 353.595161 123.161425 
L 354.245772 83.393753 
L 354.896382 103.277589 
L 355.546992 93.335671 
L 356.197602 103.277589 
L 356.848213 93.335671 
L 357.498823 93.335671 
L 358.149433 113.219507 
L 358.800044 113.219507 
L 359.450654 103.277589 
L 360.101264 103.277589 
L 360.751875 93.335671 
L 361.402485 93.335671 
L 362.053095 113.219507 
L 362.703706 103.277589 
L 363.354316 83.393753 
L 364.004926 113.219507 
L 364.655537 103.277589 
L 365.306147 83.393753 
L 365.956757 103.277589 
L 366.607367 113.219507 
L 367.257978 113.219507 
L 367.908588 103.277589 
L 368.559198 83.393753 
L 369.209809 83.393753 
L 369.860419 103.277589 
L 370.511029 113.219507 
L 371.16164 103.277589 
L 371.81225 103.277589 
L 372.46286 93.335671 
L 373.113471 103.277589 
L 373.764081 103.277589 
L 374.414691 113.219507 
L 375.065302 93.335671 
L 375.715912 93.335671 
L 376.366522 103.277589 
L 377.017132 93.335671 
L 377.667743 73.451836 
L 378.318353 93.335671 
L 378.968963 103.277589 
L 379.619574 103.277589 
L 380.270184 63.509918 
L 380.920794 103.277589 
L 381.571405 103.277589 
L 382.222015 93.335671 
L 382.872625 73.451836 
L 383.523236 93.335671 
L 384.824456 113.219507 
L 386.125677 93.335671 
L 386.776287 113.219507 
L 387.426897 83.393753 
L 388.077508 83.393753 
L 388.728118 113.219507 
L 389.378728 83.393753 
L 390.029339 103.277589 
L 390.679949 83.393753 
L 391.330559 103.277589 
L 392.63178 83.393753 
L 393.28239 93.335671 
L 393.933001 113.219507 
L 394.583611 123.161425 
L 395.234221 123.161425 
L 395.884831 103.277589 
L 397.186052 123.161425 
L 398.487273 123.161425 
L 398.487273 123.161425 
" style="fill:none;stroke:#ff0000;stroke-linecap:square;stroke-width:1.5;"/>
   </g>
   <g id="patch_3">
    <path d="M 57.6 307.584 
L 57.6 41.472 
" style="fill:none;stroke:#000000;stroke-linecap:square;stroke-linejoin:miter;stroke-width:0.8;"/>
   </g>
   <g id="patch_4">
    <path d="M 414.72 307.584 
L 414.72 41.472 
" style="fill:none;stroke:#000000;stroke-linecap:square;stroke-linejoin:miter;stroke-width:0.8;"/>
   </g>
   <g id="patch_5">
    <path d="M 57.6 307.584 
L 414.72 307.584 
" style="fill:none;stroke:#000000;stroke-linecap:square;stroke-linejoin:miter;stroke-width:0.8;"/>
   </g>
   <g id="patch_6">
    <path d="M 57.6 41.472 
L 414.72 41.472 
" style="fill:none;stroke:#000000;stroke-linecap:square;stroke-linejoin:miter;stroke-width:0.8;"/>
   </g>
   <g id="text_14">
    <!-- Population's average and best fitness -->
    <defs>
     <path d="M 19.671875 64.796875 
L 19.671875 37.40625 
L 32.078125 37.40625 
Q 38.96875 37.40625 42.71875 40.96875 
Q 46.484375 44.53125 46.484375 51.125 
Q 46.484375 57.671875 42.71875 61.234375 
Q 38.96875 64.796875 32.078125 64.796875 
z
M 9.8125 72.90625 
L 32.078125 72.90625 
Q 44.34375 72.90625 50.609375 67.359375 
Q 56.890625 61.8125 56.890625 51.125 
Q 56.890625 40.328125 50.609375 34.8125 
Q 44.34375 29.296875 32.078125 29.296875 
L 19.671875 29.296875 
L 19.671875 0 
L 9.8125 0 
z
" id="DejaVuSans-80"/>
     <path d="M 18.109375 8.203125 
L 18.109375 -20.796875 
L 9.078125 -20.796875 
L 9.078125 54.6875 
L 18.109375 54.6875 
L 18.109375 46.390625 
Q 20.953125 51.265625 25.265625 53.625 
Q 29.59375 56 35.59375 56 
Q 45.5625 56 51.78125 48.09375 
Q 58.015625 40.1875 58.015625 27.296875 
Q 58.015625 14.40625 51.78125 6.484375 
Q 45.5625 -1.421875 35.59375 -1.421875 
Q 29.59375 -1.421875 25.265625 0.953125 
Q 20.953125 3.328125 18.109375 8.203125 
z
M 48.6875 27.296875 
Q 48.6875 37.203125 44.609375 42.84375 
Q 40.53125 48.484375 33.40625 48.484375 
Q 26.265625 48.484375 22.1875 42.84375 
Q 18.109375 37.203125 18.109375 27.296875 
Q 18.109375 17.390625 22.1875 11.75 
Q 26.265625 6.109375 33.40625 6.109375 
Q 40.53125 6.109375 44.609375 11.75 
Q 48.6875 17.390625 48.6875 27.296875 
z
" id="DejaVuSans-112"/>
     <path d="M 8.5 21.578125 
L 8.5 54.6875 
L 17.484375 54.6875 
L 17.484375 21.921875 
Q 17.484375 14.15625 20.5 10.265625 
Q 23.53125 6.390625 29.59375 6.390625 
Q 36.859375 6.390625 41.078125 11.03125 
Q 45.3125 15.671875 45.3125 23.6875 
L 45.3125 54.6875 
L 54.296875 54.6875 
L 54.296875 0 
L 45.3125 0 
L 45.3125 8.40625 
Q 42.046875 3.421875 37.71875 1 
Q 33.40625 -1.421875 27.6875 -1.421875 
Q 18.265625 -1.421875 13.375 4.4375 
Q 8.5 10.296875 8.5 21.578125 
z
M 31.109375 56 
z
" id="DejaVuSans-117"/>
     <path d="M 9.421875 75.984375 
L 18.40625 75.984375 
L 18.40625 0 
L 9.421875 0 
z
" id="DejaVuSans-108"/>
     <path d="M 17.921875 72.90625 
L 17.921875 45.796875 
L 9.625 45.796875 
L 9.625 72.90625 
z
" id="DejaVuSans-39"/>
     <path id="DejaVuSans-32"/>
     <path d="M 2.984375 54.6875 
L 12.5 54.6875 
L 29.59375 8.796875 
L 46.6875 54.6875 
L 56.203125 54.6875 
L 35.6875 0 
L 23.484375 0 
z
" id="DejaVuSans-118"/>
     <path d="M 45.40625 27.984375 
Q 45.40625 37.75 41.375 43.109375 
Q 37.359375 48.484375 30.078125 48.484375 
Q 22.859375 48.484375 18.828125 43.109375 
Q 14.796875 37.75 14.796875 27.984375 
Q 14.796875 18.265625 18.828125 12.890625 
Q 22.859375 7.515625 30.078125 7.515625 
Q 37.359375 7.515625 41.375 12.890625 
Q 45.40625 18.265625 45.40625 27.984375 
z
M 54.390625 6.78125 
Q 54.390625 -7.171875 48.1875 -13.984375 
Q 42 -20.796875 29.203125 -20.796875 
Q 24.46875 -20.796875 20.265625 -20.09375 
Q 16.0625 -19.390625 12.109375 -17.921875 
L 12.109375 -9.1875 
Q 16.0625 -11.328125 19.921875 -12.34375 
Q 23.78125 -13.375 27.78125 -13.375 
Q 36.625 -13.375 41.015625 -8.765625 
Q 45.40625 -4.15625 45.40625 5.171875 
L 45.40625 9.625 
Q 42.625 4.78125 38.28125 2.390625 
Q 33.9375 0 27.875 0 
Q 17.828125 0 11.671875 7.65625 
Q 5.515625 15.328125 5.515625 27.984375 
Q 5.515625 40.671875 11.671875 48.328125 
Q 17.828125 56 27.875 56 
Q 33.9375 56 38.28125 53.609375 
Q 42.625 51.21875 45.40625 46.390625 
L 45.40625 54.6875 
L 54.390625 54.6875 
z
" id="DejaVuSans-103"/>
     <path d="M 45.40625 46.390625 
L 45.40625 75.984375 
L 54.390625 75.984375 
L 54.390625 0 
L 45.40625 0 
L 45.40625 8.203125 
Q 42.578125 3.328125 38.25 0.953125 
Q 33.9375 -1.421875 27.875 -1.421875 
Q 17.96875 -1.421875 11.734375 6.484375 
Q 5.515625 14.40625 5.515625 27.296875 
Q 5.515625 40.1875 11.734375 48.09375 
Q 17.96875 56 27.875 56 
Q 33.9375 56 38.25 53.625 
Q 42.578125 51.265625 45.40625 46.390625 
z
M 14.796875 27.296875 
Q 14.796875 17.390625 18.875 11.75 
Q 22.953125 6.109375 30.078125 6.109375 
Q 37.203125 6.109375 41.296875 11.75 
Q 45.40625 17.390625 45.40625 27.296875 
Q 45.40625 37.203125 41.296875 42.84375 
Q 37.203125 48.484375 30.078125 48.484375 
Q 22.953125 48.484375 18.875 42.84375 
Q 14.796875 37.203125 14.796875 27.296875 
z
" id="DejaVuSans-100"/>
     <path d="M 48.6875 27.296875 
Q 48.6875 37.203125 44.609375 42.84375 
Q 40.53125 48.484375 33.40625 48.484375 
Q 26.265625 48.484375 22.1875 42.84375 
Q 18.109375 37.203125 18.109375 27.296875 
Q 18.109375 17.390625 22.1875 11.75 
Q 26.265625 6.109375 33.40625 6.109375 
Q 40.53125 6.109375 44.609375 11.75 
Q 48.6875 17.390625 48.6875 27.296875 
z
M 18.109375 46.390625 
Q 20.953125 51.265625 25.265625 53.625 
Q 29.59375 56 35.59375 56 
Q 45.5625 56 51.78125 48.09375 
Q 58.015625 40.1875 58.015625 27.296875 
Q 58.015625 14.40625 51.78125 6.484375 
Q 45.5625 -1.421875 35.59375 -1.421875 
Q 29.59375 -1.421875 25.265625 0.953125 
Q 20.953125 3.328125 18.109375 8.203125 
L 18.109375 0 
L 9.078125 0 
L 9.078125 75.984375 
L 18.109375 75.984375 
z
" id="DejaVuSans-98"/>
     <path d="M 37.109375 75.984375 
L 37.109375 68.5 
L 28.515625 68.5 
Q 23.6875 68.5 21.796875 66.546875 
Q 19.921875 64.59375 19.921875 59.515625 
L 19.921875 54.6875 
L 34.71875 54.6875 
L 34.71875 47.703125 
L 19.921875 47.703125 
L 19.921875 0 
L 10.890625 0 
L 10.890625 47.703125 
L 2.296875 47.703125 
L 2.296875 54.6875 
L 10.890625 54.6875 
L 10.890625 58.5 
Q 10.890625 67.625 15.140625 71.796875 
Q 19.390625 75.984375 28.609375 75.984375 
z
" id="DejaVuSans-102"/>
    </defs>
    <g transform="translate(123.315 35.472)scale(0.12 -0.12)">
     <use xlink:href="#DejaVuSans-80"/>
     <use x="60.255859" xlink:href="#DejaVuSans-111"/>
     <use x="121.4375" xlink:href="#DejaVuSans-112"/>
     <use x="184.914062" xlink:href="#DejaVuSans-117"/>
     <use x="248.292969" xlink:href="#DejaVuSans-108"/>
     <use x="276.076172" xlink:href="#DejaVuSans-97"/>
     <use x="337.355469" xlink:href="#DejaVuSans-116"/>
     <use x="376.564453" xlink:href="#DejaVuSans-105"/>
     <use x="404.347656" xlink:href="#DejaVuSans-111"/>
     <use x="465.529297" xlink:href="#DejaVuSans-110"/>
     <use x="528.908203" xlink:href="#DejaVuSans-39"/>
     <use x="556.398438" xlink:href="#DejaVuSans-115"/>
     <use x="608.498047" xlink:href="#DejaVuSans-32"/>
     <use x="640.285156" xlink:href="#DejaVuSans-97"/>
     <use x="701.564453" xlink:href="#DejaVuSans-118"/>
     <use x="760.744141" xlink:href="#DejaVuSans-101"/>
     <use x="822.267578" xlink:href="#DejaVuSans-114"/>
     <use x="863.380859" xlink:href="#DejaVuSans-97"/>
     <use x="924.660156" xlink:href="#DejaVuSans-103"/>
     <use x="988.136719" xlink:href="#DejaVuSans-101"/>
     <use x="1049.660156" xlink:href="#DejaVuSans-32"/>
     <use x="1081.447266" xlink:href="#DejaVuSans-97"/>
     <use x="1142.726562" xlink:href="#DejaVuSans-110"/>
     <use x="1206.105469" xlink:href="#DejaVuSans-100"/>
     <use x="1269.582031" xlink:href="#DejaVuSans-32"/>
     <use x="1301.369141" xlink:href="#DejaVuSans-98"/>
     <use x="1364.845703" xlink:href="#DejaVuSans-101"/>
     <use x="1426.369141" xlink:href="#DejaVuSans-115"/>
     <use x="1478.46875" xlink:href="#DejaVuSans-116"/>
     <use x="1517.677734" xlink:href="#DejaVuSans-32"/>
     <use x="1549.464844" xlink:href="#DejaVuSans-102"/>
     <use x="1584.669922" xlink:href="#DejaVuSans-105"/>
     <use x="1612.453125" xlink:href="#DejaVuSans-116"/>
     <use x="1651.662109" xlink:href="#DejaVuSans-110"/>
     <use x="1715.041016" xlink:href="#DejaVuSans-101"/>
     <use x="1776.564453" xlink:href="#DejaVuSans-115"/>
     <use x="1828.664062" xlink:href="#DejaVuSans-115"/>
    </g>
   </g>
   <g id="legend_1">
    <g id="patch_7">
     <path d="M 334.779375 302.584 
L 407.72 302.584 
Q 409.72 302.584 409.72 300.584 
L 409.72 257.549625 
Q 409.72 255.549625 407.72 255.549625 
L 334.779375 255.549625 
Q 332.779375 255.549625 332.779375 257.549625 
L 332.779375 300.584 
Q 332.779375 302.584 334.779375 302.584 
z
" style="fill:#ffffff;opacity:0.8;stroke:#cccccc;stroke-linejoin:miter;"/>
    </g>
    <g id="line2d_26">
     <path d="M 336.779375 263.648062 
L 356.779375 263.648062 
" style="fill:none;stroke:#0000ff;stroke-linecap:square;stroke-width:1.5;"/>
    </g>
    <g id="line2d_27"/>
    <g id="text_15">
     <!-- average -->
     <g transform="translate(364.779375 267.148062)scale(0.1 -0.1)">
      <use xlink:href="#DejaVuSans-97"/>
      <use x="61.279297" xlink:href="#DejaVuSans-118"/>
      <use x="120.458984" xlink:href="#DejaVuSans-101"/>
      <use x="181.982422" xlink:href="#DejaVuSans-114"/>
      <use x="223.095703" xlink:href="#DejaVuSans-97"/>
      <use x="284.375" xlink:href="#DejaVuSans-103"/>
      <use x="347.851562" xlink:href="#DejaVuSans-101"/>
     </g>
    </g>
    <g id="line2d_28">
     <path d="M 336.779375 278.326188 
L 356.779375 278.326188 
" style="fill:none;stroke:#008000;stroke-dasharray:9.6,2.4,1.5,2.4;stroke-dashoffset:0;stroke-width:1.5;"/>
    </g>
    <g id="line2d_29"/>
    <g id="text_16">
     <!-- +1 sd -->
     <defs>
      <path d="M 46 62.703125 
L 46 35.5 
L 73.1875 35.5 
L 73.1875 27.203125 
L 46 27.203125 
L 46 0 
L 37.796875 0 
L 37.796875 27.203125 
L 10.59375 27.203125 
L 10.59375 35.5 
L 37.796875 35.5 
L 37.796875 62.703125 
z
" id="DejaVuSans-43"/>
     </defs>
     <g transform="translate(364.779375 281.826188)scale(0.1 -0.1)">
      <use xlink:href="#DejaVuSans-43"/>
      <use x="83.789062" xlink:href="#DejaVuSans-49"/>
      <use x="147.412109" xlink:href="#DejaVuSans-32"/>
      <use x="179.199219" xlink:href="#DejaVuSans-115"/>
      <use x="231.298828" xlink:href="#DejaVuSans-100"/>
     </g>
    </g>
    <g id="line2d_30">
     <path d="M 336.779375 293.004312 
L 356.779375 293.004312 
" style="fill:none;stroke:#ff0000;stroke-linecap:square;stroke-width:1.5;"/>
    </g>
    <g id="line2d_31"/>
    <g id="text_17">
     <!-- best -->
     <g transform="translate(364.779375 296.504312)scale(0.1 -0.1)">
      <use xlink:href="#DejaVuSans-98"/>
      <use x="63.476562" xlink:href="#DejaVuSans-101"/>
      <use x="125" xlink:href="#DejaVuSans-115"/>
      <use x="177.099609" xlink:href="#DejaVuSans-116"/>
     </g>
    </g>
   </g>
  </g>
 </g>
 <defs>
  <clipPath id="p29a7fa4121">
   <rect height="266.112" width="357.12" x="57.6" y="41.472"/>
  </clipPath>
 </defs>
</svg>
