<?xml version="1.0" encoding="utf-8" standalone="no"?>
<!DOCTYPE svg PUBLIC "-//W3C//DTD SVG 1.1//EN"
  "http://www.w3.org/Graphics/SVG/1.1/DTD/svg11.dtd">
<!-- Created with matplotlib (https://matplotlib.org/) -->
<svg height="345.6pt" version="1.1" viewBox="0 0 460.8 345.6" width="460.8pt" xmlns="http://www.w3.org/2000/svg" xmlns:xlink="http://www.w3.org/1999/xlink">
 <defs>
  <style type="text/css">
*{stroke-linecap:butt;stroke-linejoin:round;}
  </style>
 </defs>
 <g id="figure_1">
  <g id="patch_1">
   <path d="M 0 345.6 
L 460.8 345.6 
L 460.8 0 
L 0 0 
z
" style="fill:#ffffff;"/>
  </g>
  <g id="axes_1">
   <g id="patch_2">
    <path d="M 57.6 307.584 
L 414.72 307.584 
L 414.72 41.472 
L 57.6 41.472 
z
" style="fill:#ffffff;"/>
   </g>
   <g id="matplotlib.axis_1">
    <g id="xtick_1">
     <g id="line2d_1">
      <path clip-path="url(#pf93c0c2cf8)" d="M 73.832727 307.584 
L 73.832727 41.472 
" style="fill:none;stroke:#b0b0b0;stroke-linecap:square;stroke-width:0.8;"/>
     </g>
     <g id="line2d_2">
      <defs>
       <path d="M 0 0 
L 0 3.5 
" id="md21964ae2b" style="stroke:#000000;stroke-width:0.8;"/>
      </defs>
      <g>
       <use style="stroke:#000000;stroke-width:0.8;" x="73.832727" xlink:href="#md21964ae2b" y="307.584"/>
      </g>
     </g>
     <g id="text_1">
      <!-- 0 -->
      <defs>
       <path d="M 31.78125 66.40625 
Q 24.171875 66.40625 20.328125 58.90625 
Q 16.5 51.421875 16.5 36.375 
Q 16.5 21.390625 20.328125 13.890625 
Q 24.171875 6.390625 31.78125 6.390625 
Q 39.453125 6.390625 43.28125 13.890625 
Q 47.125 21.390625 47.125 36.375 
Q 47.125 51.421875 43.28125 58.90625 
Q 39.453125 66.40625 31.78125 66.40625 
z
M 31.78125 74.21875 
Q 44.046875 74.21875 50.515625 64.515625 
Q 56.984375 54.828125 56.984375 36.375 
Q 56.984375 17.96875 50.515625 8.265625 
Q 44.046875 -1.421875 31.78125 -1.421875 
Q 19.53125 -1.421875 13.0625 8.265625 
Q 6.59375 17.96875 6.59375 36.375 
Q 6.59375 54.828125 13.0625 64.515625 
Q 19.53125 74.21875 31.78125 74.21875 
z
" id="DejaVuSans-48"/>
      </defs>
      <g transform="translate(70.651477 322.182437)scale(0.1 -0.1)">
       <use xlink:href="#DejaVuSans-48"/>
      </g>
     </g>
    </g>
    <g id="xtick_2">
     <g id="line2d_3">
      <path clip-path="url(#pf93c0c2cf8)" d="M 138.893758 307.584 
L 138.893758 41.472 
" style="fill:none;stroke:#b0b0b0;stroke-linecap:square;stroke-width:0.8;"/>
     </g>
     <g id="line2d_4">
      <g>
       <use style="stroke:#000000;stroke-width:0.8;" x="138.893758" xlink:href="#md21964ae2b" y="307.584"/>
      </g>
     </g>
     <g id="text_2">
      <!-- 100 -->
      <defs>
       <path d="M 12.40625 8.296875 
L 28.515625 8.296875 
L 28.515625 63.921875 
L 10.984375 60.40625 
L 10.984375 69.390625 
L 28.421875 72.90625 
L 38.28125 72.90625 
L 38.28125 8.296875 
L 54.390625 8.296875 
L 54.390625 0 
L 12.40625 0 
z
" id="DejaVuSans-49"/>
      </defs>
      <g transform="translate(129.350008 322.182437)scale(0.1 -0.1)">
       <use xlink:href="#DejaVuSans-49"/>
       <use x="63.623047" xlink:href="#DejaVuSans-48"/>
       <use x="127.246094" xlink:href="#DejaVuSans-48"/>
      </g>
     </g>
    </g>
    <g id="xtick_3">
     <g id="line2d_5">
      <path clip-path="url(#pf93c0c2cf8)" d="M 203.95479 307.584 
L 203.95479 41.472 
" style="fill:none;stroke:#b0b0b0;stroke-linecap:square;stroke-width:0.8;"/>
     </g>
     <g id="line2d_6">
      <g>
       <use style="stroke:#000000;stroke-width:0.8;" x="203.95479" xlink:href="#md21964ae2b" y="307.584"/>
      </g>
     </g>
     <g id="text_3">
      <!-- 200 -->
      <defs>
       <path d="M 19.1875 8.296875 
L 53.609375 8.296875 
L 53.609375 0 
L 7.328125 0 
L 7.328125 8.296875 
Q 12.9375 14.109375 22.625 23.890625 
Q 32.328125 33.6875 34.8125 36.53125 
Q 39.546875 41.84375 41.421875 45.53125 
Q 43.3125 49.21875 43.3125 52.78125 
Q 43.3125 58.59375 39.234375 62.25 
Q 35.15625 65.921875 28.609375 65.921875 
Q 23.96875 65.921875 18.8125 64.3125 
Q 13.671875 62.703125 7.8125 59.421875 
L 7.8125 69.390625 
Q 13.765625 71.78125 18.9375 73 
Q 24.125 74.21875 28.421875 74.21875 
Q 39.75 74.21875 46.484375 68.546875 
Q 53.21875 62.890625 53.21875 53.421875 
Q 53.21875 48.921875 51.53125 44.890625 
Q 49.859375 40.875 45.40625 35.40625 
Q 44.1875 33.984375 37.640625 27.21875 
Q 31.109375 20.453125 19.1875 8.296875 
z
" id="DejaVuSans-50"/>
      </defs>
      <g transform="translate(194.41104 322.182437)scale(0.1 -0.1)">
       <use xlink:href="#DejaVuSans-50"/>
       <use x="63.623047" xlink:href="#DejaVuSans-48"/>
       <use x="127.246094" xlink:href="#DejaVuSans-48"/>
      </g>
     </g>
    </g>
    <g id="xtick_4">
     <g id="line2d_7">
      <path clip-path="url(#pf93c0c2cf8)" d="M 269.015821 307.584 
L 269.015821 41.472 
" style="fill:none;stroke:#b0b0b0;stroke-linecap:square;stroke-width:0.8;"/>
     </g>
     <g id="line2d_8">
      <g>
       <use style="stroke:#000000;stroke-width:0.8;" x="269.015821" xlink:href="#md21964ae2b" y="307.584"/>
      </g>
     </g>
     <g id="text_4">
      <!-- 300 -->
      <defs>
       <path d="M 40.578125 39.3125 
Q 47.65625 37.796875 51.625 33 
Q 55.609375 28.21875 55.609375 21.1875 
Q 55.609375 10.40625 48.1875 4.484375 
Q 40.765625 -1.421875 27.09375 -1.421875 
Q 22.515625 -1.421875 17.65625 -0.515625 
Q 12.796875 0.390625 7.625 2.203125 
L 7.625 11.71875 
Q 11.71875 9.328125 16.59375 8.109375 
Q 21.484375 6.890625 26.8125 6.890625 
Q 36.078125 6.890625 40.9375 10.546875 
Q 45.796875 14.203125 45.796875 21.1875 
Q 45.796875 27.640625 41.28125 31.265625 
Q 36.765625 34.90625 28.71875 34.90625 
L 20.21875 34.90625 
L 20.21875 43.015625 
L 29.109375 43.015625 
Q 36.375 43.015625 40.234375 45.921875 
Q 44.09375 48.828125 44.09375 54.296875 
Q 44.09375 59.90625 40.109375 62.90625 
Q 36.140625 65.921875 28.71875 65.921875 
Q 24.65625 65.921875 20.015625 65.03125 
Q 15.375 64.15625 9.8125 62.3125 
L 9.8125 71.09375 
Q 15.4375 72.65625 20.34375 73.4375 
Q 25.25 74.21875 29.59375 74.21875 
Q 40.828125 74.21875 47.359375 69.109375 
Q 53.90625 64.015625 53.90625 55.328125 
Q 53.90625 49.265625 50.4375 45.09375 
Q 46.96875 40.921875 40.578125 39.3125 
z
" id="DejaVuSans-51"/>
      </defs>
      <g transform="translate(259.472071 322.182437)scale(0.1 -0.1)">
       <use xlink:href="#DejaVuSans-51"/>
       <use x="63.623047" xlink:href="#DejaVuSans-48"/>
       <use x="127.246094" xlink:href="#DejaVuSans-48"/>
      </g>
     </g>
    </g>
    <g id="xtick_5">
     <g id="line2d_9">
      <path clip-path="url(#pf93c0c2cf8)" d="M 334.076852 307.584 
L 334.076852 41.472 
" style="fill:none;stroke:#b0b0b0;stroke-linecap:square;stroke-width:0.8;"/>
     </g>
     <g id="line2d_10">
      <g>
       <use style="stroke:#000000;stroke-width:0.8;" x="334.076852" xlink:href="#md21964ae2b" y="307.584"/>
      </g>
     </g>
     <g id="text_5">
      <!-- 400 -->
      <defs>
       <path d="M 37.796875 64.3125 
L 12.890625 25.390625 
L 37.796875 25.390625 
z
M 35.203125 72.90625 
L 47.609375 72.90625 
L 47.609375 25.390625 
L 58.015625 25.390625 
L 58.015625 17.1875 
L 47.609375 17.1875 
L 47.609375 0 
L 37.796875 0 
L 37.796875 17.1875 
L 4.890625 17.1875 
L 4.890625 26.703125 
z
" id="DejaVuSans-52"/>
      </defs>
      <g transform="translate(324.533102 322.182437)scale(0.1 -0.1)">
       <use xlink:href="#DejaVuSans-52"/>
       <use x="63.623047" xlink:href="#DejaVuSans-48"/>
       <use x="127.246094" xlink:href="#DejaVuSans-48"/>
      </g>
     </g>
    </g>
    <g id="xtick_6">
     <g id="line2d_11">
      <path clip-path="url(#pf93c0c2cf8)" d="M 399.137883 307.584 
L 399.137883 41.472 
" style="fill:none;stroke:#b0b0b0;stroke-linecap:square;stroke-width:0.8;"/>
     </g>
     <g id="line2d_12">
      <g>
       <use style="stroke:#000000;stroke-width:0.8;" x="399.137883" xlink:href="#md21964ae2b" y="307.584"/>
      </g>
     </g>
     <g id="text_6">
      <!-- 500 -->
      <defs>
       <path d="M 10.796875 72.90625 
L 49.515625 72.90625 
L 49.515625 64.59375 
L 19.828125 64.59375 
L 19.828125 46.734375 
Q 21.96875 47.46875 24.109375 47.828125 
Q 26.265625 48.1875 28.421875 48.1875 
Q 40.625 48.1875 47.75 41.5 
Q 54.890625 34.8125 54.890625 23.390625 
Q 54.890625 11.625 47.5625 5.09375 
Q 40.234375 -1.421875 26.90625 -1.421875 
Q 22.3125 -1.421875 17.546875 -0.640625 
Q 12.796875 0.140625 7.71875 1.703125 
L 7.71875 11.625 
Q 12.109375 9.234375 16.796875 8.0625 
Q 21.484375 6.890625 26.703125 6.890625 
Q 35.15625 6.890625 40.078125 11.328125 
Q 45.015625 15.765625 45.015625 23.390625 
Q 45.015625 31 40.078125 35.4375 
Q 35.15625 39.890625 26.703125 39.890625 
Q 22.75 39.890625 18.8125 39.015625 
Q 14.890625 38.140625 10.796875 36.28125 
z
" id="DejaVuSans-53"/>
      </defs>
      <g transform="translate(389.594133 322.182437)scale(0.1 -0.1)">
       <use xlink:href="#DejaVuSans-53"/>
       <use x="63.623047" xlink:href="#DejaVuSans-48"/>
       <use x="127.246094" xlink:href="#DejaVuSans-48"/>
      </g>
     </g>
    </g>
    <g id="text_7">
     <!-- Generations -->
     <defs>
      <path d="M 59.515625 10.40625 
L 59.515625 29.984375 
L 43.40625 29.984375 
L 43.40625 38.09375 
L 69.28125 38.09375 
L 69.28125 6.78125 
Q 63.578125 2.734375 56.6875 0.65625 
Q 49.8125 -1.421875 42 -1.421875 
Q 24.90625 -1.421875 15.25 8.5625 
Q 5.609375 18.5625 5.609375 36.375 
Q 5.609375 54.25 15.25 64.234375 
Q 24.90625 74.21875 42 74.21875 
Q 49.125 74.21875 55.546875 72.453125 
Q 61.96875 70.703125 67.390625 67.28125 
L 67.390625 56.78125 
Q 61.921875 61.421875 55.765625 63.765625 
Q 49.609375 66.109375 42.828125 66.109375 
Q 29.4375 66.109375 22.71875 58.640625 
Q 16.015625 51.171875 16.015625 36.375 
Q 16.015625 21.625 22.71875 14.15625 
Q 29.4375 6.6875 42.828125 6.6875 
Q 48.046875 6.6875 52.140625 7.59375 
Q 56.25 8.5 59.515625 10.40625 
z
" id="DejaVuSans-71"/>
      <path d="M 56.203125 29.59375 
L 56.203125 25.203125 
L 14.890625 25.203125 
Q 15.484375 15.921875 20.484375 11.0625 
Q 25.484375 6.203125 34.421875 6.203125 
Q 39.59375 6.203125 44.453125 7.46875 
Q 49.3125 8.734375 54.109375 11.28125 
L 54.109375 2.78125 
Q 49.265625 0.734375 44.1875 -0.34375 
Q 39.109375 -1.421875 33.890625 -1.421875 
Q 20.796875 -1.421875 13.15625 6.1875 
Q 5.515625 13.8125 5.515625 26.8125 
Q 5.515625 40.234375 12.765625 48.109375 
Q 20.015625 56 32.328125 56 
Q 43.359375 56 49.78125 48.890625 
Q 56.203125 41.796875 56.203125 29.59375 
z
M 47.21875 32.234375 
Q 47.125 39.59375 43.09375 43.984375 
Q 39.0625 48.390625 32.421875 48.390625 
Q 24.90625 48.390625 20.390625 44.140625 
Q 15.875 39.890625 15.1875 32.171875 
z
" id="DejaVuSans-101"/>
      <path d="M 54.890625 33.015625 
L 54.890625 0 
L 45.90625 0 
L 45.90625 32.71875 
Q 45.90625 40.484375 42.875 44.328125 
Q 39.84375 48.1875 33.796875 48.1875 
Q 26.515625 48.1875 22.3125 43.546875 
Q 18.109375 38.921875 18.109375 30.90625 
L 18.109375 0 
L 9.078125 0 
L 9.078125 54.6875 
L 18.109375 54.6875 
L 18.109375 46.1875 
Q 21.34375 51.125 25.703125 53.5625 
Q 30.078125 56 35.796875 56 
Q 45.21875 56 50.046875 50.171875 
Q 54.890625 44.34375 54.890625 33.015625 
z
" id="DejaVuSans-110"/>
      <path d="M 41.109375 46.296875 
Q 39.59375 47.171875 37.8125 47.578125 
Q 36.03125 48 33.890625 48 
Q 26.265625 48 22.1875 43.046875 
Q 18.109375 38.09375 18.109375 28.8125 
L 18.109375 0 
L 9.078125 0 
L 9.078125 54.6875 
L 18.109375 54.6875 
L 18.109375 46.1875 
Q 20.953125 51.171875 25.484375 53.578125 
Q 30.03125 56 36.53125 56 
Q 37.453125 56 38.578125 55.875 
Q 39.703125 55.765625 41.0625 55.515625 
z
" id="DejaVuSans-114"/>
      <path d="M 34.28125 27.484375 
Q 23.390625 27.484375 19.1875 25 
Q 14.984375 22.515625 14.984375 16.5 
Q 14.984375 11.71875 18.140625 8.90625 
Q 21.296875 6.109375 26.703125 6.109375 
Q 34.1875 6.109375 38.703125 11.40625 
Q 43.21875 16.703125 43.21875 25.484375 
L 43.21875 27.484375 
z
M 52.203125 31.203125 
L 52.203125 0 
L 43.21875 0 
L 43.21875 8.296875 
Q 40.140625 3.328125 35.546875 0.953125 
Q 30.953125 -1.421875 24.3125 -1.421875 
Q 15.921875 -1.421875 10.953125 3.296875 
Q 6 8.015625 6 15.921875 
Q 6 25.140625 12.171875 29.828125 
Q 18.359375 34.515625 30.609375 34.515625 
L 43.21875 34.515625 
L 43.21875 35.40625 
Q 43.21875 41.609375 39.140625 45 
Q 35.0625 48.390625 27.6875 48.390625 
Q 23 48.390625 18.546875 47.265625 
Q 14.109375 46.140625 10.015625 43.890625 
L 10.015625 52.203125 
Q 14.9375 54.109375 19.578125 55.046875 
Q 24.21875 56 28.609375 56 
Q 40.484375 56 46.34375 49.84375 
Q 52.203125 43.703125 52.203125 31.203125 
z
" id="DejaVuSans-97"/>
      <path d="M 18.3125 70.21875 
L 18.3125 54.6875 
L 36.8125 54.6875 
L 36.8125 47.703125 
L 18.3125 47.703125 
L 18.3125 18.015625 
Q 18.3125 11.328125 20.140625 9.421875 
Q 21.96875 7.515625 27.59375 7.515625 
L 36.8125 7.515625 
L 36.8125 0 
L 27.59375 0 
Q 17.1875 0 13.234375 3.875 
Q 9.28125 7.765625 9.28125 18.015625 
L 9.28125 47.703125 
L 2.6875 47.703125 
L 2.6875 54.6875 
L 9.28125 54.6875 
L 9.28125 70.21875 
z
" id="DejaVuSans-116"/>
      <path d="M 9.421875 54.6875 
L 18.40625 54.6875 
L 18.40625 0 
L 9.421875 0 
z
M 9.421875 75.984375 
L 18.40625 75.984375 
L 18.40625 64.59375 
L 9.421875 64.59375 
z
" id="DejaVuSans-105"/>
      <path d="M 30.609375 48.390625 
Q 23.390625 48.390625 19.1875 42.75 
Q 14.984375 37.109375 14.984375 27.296875 
Q 14.984375 17.484375 19.15625 11.84375 
Q 23.34375 6.203125 30.609375 6.203125 
Q 37.796875 6.203125 41.984375 11.859375 
Q 46.1875 17.53125 46.1875 27.296875 
Q 46.1875 37.015625 41.984375 42.703125 
Q 37.796875 48.390625 30.609375 48.390625 
z
M 30.609375 56 
Q 42.328125 56 49.015625 48.375 
Q 55.71875 40.765625 55.71875 27.296875 
Q 55.71875 13.875 49.015625 6.21875 
Q 42.328125 -1.421875 30.609375 -1.421875 
Q 18.84375 -1.421875 12.171875 6.21875 
Q 5.515625 13.875 5.515625 27.296875 
Q 5.515625 40.765625 12.171875 48.375 
Q 18.84375 56 30.609375 56 
z
" id="DejaVuSans-111"/>
      <path d="M 44.28125 53.078125 
L 44.28125 44.578125 
Q 40.484375 46.53125 36.375 47.5 
Q 32.28125 48.484375 27.875 48.484375 
Q 21.1875 48.484375 17.84375 46.4375 
Q 14.5 44.390625 14.5 40.28125 
Q 14.5 37.15625 16.890625 35.375 
Q 19.28125 33.59375 26.515625 31.984375 
L 29.59375 31.296875 
Q 39.15625 29.25 43.1875 25.515625 
Q 47.21875 21.78125 47.21875 15.09375 
Q 47.21875 7.46875 41.1875 3.015625 
Q 35.15625 -1.421875 24.609375 -1.421875 
Q 20.21875 -1.421875 15.453125 -0.5625 
Q 10.6875 0.296875 5.421875 2 
L 5.421875 11.28125 
Q 10.40625 8.6875 15.234375 7.390625 
Q 20.0625 6.109375 24.8125 6.109375 
Q 31.15625 6.109375 34.5625 8.28125 
Q 37.984375 10.453125 37.984375 14.40625 
Q 37.984375 18.0625 35.515625 20.015625 
Q 33.0625 21.96875 24.703125 23.78125 
L 21.578125 24.515625 
Q 13.234375 26.265625 9.515625 29.90625 
Q 5.8125 33.546875 5.8125 39.890625 
Q 5.8125 47.609375 11.28125 51.796875 
Q 16.75 56 26.8125 56 
Q 31.78125 56 36.171875 55.265625 
Q 40.578125 54.546875 44.28125 53.078125 
z
" id="DejaVuSans-115"/>
     </defs>
     <g transform="translate(205.662344 335.860562)scale(0.1 -0.1)">
      <use xlink:href="#DejaVuSans-71"/>
      <use x="77.490234" xlink:href="#DejaVuSans-101"/>
      <use x="139.013672" xlink:href="#DejaVuSans-110"/>
      <use x="202.392578" xlink:href="#DejaVuSans-101"/>
      <use x="263.916016" xlink:href="#DejaVuSans-114"/>
      <use x="305.029297" xlink:href="#DejaVuSans-97"/>
      <use x="366.308594" xlink:href="#DejaVuSans-116"/>
      <use x="405.517578" xlink:href="#DejaVuSans-105"/>
      <use x="433.300781" xlink:href="#DejaVuSans-111"/>
      <use x="494.482422" xlink:href="#DejaVuSans-110"/>
      <use x="557.861328" xlink:href="#DejaVuSans-115"/>
     </g>
    </g>
   </g>
   <g id="matplotlib.axis_2">
    <g id="ytick_1">
     <g id="line2d_13">
      <path clip-path="url(#pf93c0c2cf8)" d="M 57.6 297.412082 
L 414.72 297.412082 
" style="fill:none;stroke:#b0b0b0;stroke-linecap:square;stroke-width:0.8;"/>
     </g>
     <g id="line2d_14">
      <defs>
       <path d="M 0 0 
L -3.5 0 
" id="m97bf3a74b9" style="stroke:#000000;stroke-width:0.8;"/>
      </defs>
      <g>
       <use style="stroke:#000000;stroke-width:0.8;" x="57.6" xlink:href="#m97bf3a74b9" y="297.412082"/>
      </g>
     </g>
     <g id="text_8">
      <!-- 15 -->
      <g transform="translate(37.875 301.211301)scale(0.1 -0.1)">
       <use xlink:href="#DejaVuSans-49"/>
       <use x="63.623047" xlink:href="#DejaVuSans-53"/>
      </g>
     </g>
    </g>
    <g id="ytick_2">
     <g id="line2d_15">
      <path clip-path="url(#pf93c0c2cf8)" d="M 57.6 259.311444 
L 414.72 259.311444 
" style="fill:none;stroke:#b0b0b0;stroke-linecap:square;stroke-width:0.8;"/>
     </g>
     <g id="line2d_16">
      <g>
       <use style="stroke:#000000;stroke-width:0.8;" x="57.6" xlink:href="#m97bf3a74b9" y="259.311444"/>
      </g>
     </g>
     <g id="text_9">
      <!-- 20 -->
      <g transform="translate(37.875 263.110663)scale(0.1 -0.1)">
       <use xlink:href="#DejaVuSans-50"/>
       <use x="63.623047" xlink:href="#DejaVuSans-48"/>
      </g>
     </g>
    </g>
    <g id="ytick_3">
     <g id="line2d_17">
      <path clip-path="url(#pf93c0c2cf8)" d="M 57.6 221.210807 
L 414.72 221.210807 
" style="fill:none;stroke:#b0b0b0;stroke-linecap:square;stroke-width:0.8;"/>
     </g>
     <g id="line2d_18">
      <g>
       <use style="stroke:#000000;stroke-width:0.8;" x="57.6" xlink:href="#m97bf3a74b9" y="221.210807"/>
      </g>
     </g>
     <g id="text_10">
      <!-- 25 -->
      <g transform="translate(37.875 225.010025)scale(0.1 -0.1)">
       <use xlink:href="#DejaVuSans-50"/>
       <use x="63.623047" xlink:href="#DejaVuSans-53"/>
      </g>
     </g>
    </g>
    <g id="ytick_4">
     <g id="line2d_19">
      <path clip-path="url(#pf93c0c2cf8)" d="M 57.6 183.110169 
L 414.72 183.110169 
" style="fill:none;stroke:#b0b0b0;stroke-linecap:square;stroke-width:0.8;"/>
     </g>
     <g id="line2d_20">
      <g>
       <use style="stroke:#000000;stroke-width:0.8;" x="57.6" xlink:href="#m97bf3a74b9" y="183.110169"/>
      </g>
     </g>
     <g id="text_11">
      <!-- 30 -->
      <g transform="translate(37.875 186.909387)scale(0.1 -0.1)">
       <use xlink:href="#DejaVuSans-51"/>
       <use x="63.623047" xlink:href="#DejaVuSans-48"/>
      </g>
     </g>
    </g>
    <g id="ytick_5">
     <g id="line2d_21">
      <path clip-path="url(#pf93c0c2cf8)" d="M 57.6 145.009531 
L 414.72 145.009531 
" style="fill:none;stroke:#b0b0b0;stroke-linecap:square;stroke-width:0.8;"/>
     </g>
     <g id="line2d_22">
      <g>
       <use style="stroke:#000000;stroke-width:0.8;" x="57.6" xlink:href="#m97bf3a74b9" y="145.009531"/>
      </g>
     </g>
     <g id="text_12">
      <!-- 35 -->
      <g transform="translate(37.875 148.80875)scale(0.1 -0.1)">
       <use xlink:href="#DejaVuSans-51"/>
       <use x="63.623047" xlink:href="#DejaVuSans-53"/>
      </g>
     </g>
    </g>
    <g id="ytick_6">
     <g id="line2d_23">
      <path clip-path="url(#pf93c0c2cf8)" d="M 57.6 106.908893 
L 414.72 106.908893 
" style="fill:none;stroke:#b0b0b0;stroke-linecap:square;stroke-width:0.8;"/>
     </g>
     <g id="line2d_24">
      <g>
       <use style="stroke:#000000;stroke-width:0.8;" x="57.6" xlink:href="#m97bf3a74b9" y="106.908893"/>
      </g>
     </g>
     <g id="text_13">
      <!-- 40 -->
      <g transform="translate(37.875 110.708112)scale(0.1 -0.1)">
       <use xlink:href="#DejaVuSans-52"/>
       <use x="63.623047" xlink:href="#DejaVuSans-48"/>
      </g>
     </g>
    </g>
    <g id="ytick_7">
     <g id="line2d_25">
      <path clip-path="url(#pf93c0c2cf8)" d="M 57.6 68.808255 
L 414.72 68.808255 
" style="fill:none;stroke:#b0b0b0;stroke-linecap:square;stroke-width:0.8;"/>
     </g>
     <g id="line2d_26">
      <g>
       <use style="stroke:#000000;stroke-width:0.8;" x="57.6" xlink:href="#m97bf3a74b9" y="68.808255"/>
      </g>
     </g>
     <g id="text_14">
      <!-- 45 -->
      <g transform="translate(37.875 72.607474)scale(0.1 -0.1)">
       <use xlink:href="#DejaVuSans-52"/>
       <use x="63.623047" xlink:href="#DejaVuSans-53"/>
      </g>
     </g>
    </g>
    <g id="text_15">
     <!-- Fitness -->
     <defs>
      <path d="M 9.8125 72.90625 
L 51.703125 72.90625 
L 51.703125 64.59375 
L 19.671875 64.59375 
L 19.671875 43.109375 
L 48.578125 43.109375 
L 48.578125 34.8125 
L 19.671875 34.8125 
L 19.671875 0 
L 9.8125 0 
z
" id="DejaVuSans-70"/>
     </defs>
     <g transform="translate(31.795312 192.202219)rotate(-90)scale(0.1 -0.1)">
      <use xlink:href="#DejaVuSans-70"/>
      <use x="57.410156" xlink:href="#DejaVuSans-105"/>
      <use x="85.193359" xlink:href="#DejaVuSans-116"/>
      <use x="124.402344" xlink:href="#DejaVuSans-110"/>
      <use x="187.78125" xlink:href="#DejaVuSans-101"/>
      <use x="249.304688" xlink:href="#DejaVuSans-115"/>
      <use x="301.404297" xlink:href="#DejaVuSans-115"/>
     </g>
    </g>
   </g>
   <g id="line2d_27">
    <path clip-path="url(#pf93c0c2cf8)" d="M 73.832727 293.221012 
L 74.483338 292.649502 
L 75.133948 289.887685 
L 75.784558 292.613513 
L 76.435169 291.854546 
L 77.085779 291.969134 
L 77.736389 291.80229 
L 78.386999 293.659169 
L 79.03761 291.173943 
L 79.68822 291.449332 
L 80.33883 289.887685 
L 80.989441 291.927899 
L 81.640051 290.927277 
L 82.290661 289.295405 
L 84.242492 293.148669 
L 84.893103 292.172045 
L 85.543713 291.810157 
L 86.194323 291.716037 
L 86.844934 294.222706 
L 87.495544 292.863333 
L 88.146154 290.598114 
L 88.796764 290.438392 
L 89.447375 292.675246 
L 90.097985 291.428871 
L 90.748595 291.292594 
L 91.399206 292.39487 
L 92.049816 290.129793 
L 92.700426 292.338331 
L 93.351037 291.132178 
L 94.001647 292.037685 
L 94.652257 290.138324 
L 95.302868 292.363988 
L 95.953478 289.753759 
L 96.604088 293.057724 
L 97.254698 290.790057 
L 97.905309 290.850306 
L 98.555919 290.746858 
L 99.85714 292.680382 
L 100.50775 291.521211 
L 101.15836 291.792238 
L 101.808971 292.862752 
L 102.459581 292.382798 
L 103.110191 291.3198 
L 103.760802 290.477766 
L 104.411412 292.236507 
L 105.062022 293.000429 
L 105.712633 291.33503 
L 106.363243 292.687603 
L 107.013853 292.268496 
L 107.664463 293.773471 
L 108.315074 293.08766 
L 108.965684 291.658886 
L 109.616294 291.792238 
L 110.266905 291.620785 
L 110.917515 293.4785 
L 111.568125 291.773188 
L 112.218736 288.687036 
L 112.869346 292.878106 
L 113.519956 292.058943 
L 114.170567 292.801905 
L 114.821177 291.220729 
L 115.471787 291.354081 
L 116.122398 289.734804 
L 116.773008 292.820955 
L 117.423618 292.325647 
L 118.074228 291.29693 
L 118.724839 289.830055 
L 119.375449 291.792238 
L 120.026059 290.382515 
L 121.32728 291.544584 
L 121.97789 293.049559 
L 122.628501 291.182628 
L 123.279111 291.754137 
L 123.929721 291.354081 
L 124.580332 289.5443 
L 125.230942 289.734804 
L 125.881552 290.896873 
L 126.532163 290.363464 
L 127.182773 291.33503 
L 127.833383 291.392181 
L 128.483993 292.439949 
L 129.134604 292.077993 
L 129.785214 290.401565 
L 130.435824 289.639552 
L 131.086435 292.306597 
L 131.737045 292.592352 
L 132.387655 291.696987 
L 133.038266 289.715753 
L 134.339486 293.221012 
L 134.990097 291.068326 
L 135.640707 292.020842 
L 136.291317 290.439665 
L 136.941927 292.039892 
L 137.592538 291.811288 
L 138.243148 292.268496 
L 139.544369 290.801622 
L 140.194979 292.077993 
L 140.845589 290.992125 
L 141.4962 290.820672 
L 142.14681 291.963691 
L 142.79742 289.410948 
L 143.448031 291.144527 
L 144.098641 291.430282 
L 144.749251 290.534917 
L 145.399862 293.201962 
L 146.050472 291.677936 
L 146.701082 292.001792 
L 147.351692 291.620785 
L 148.002303 292.801905 
L 148.652913 292.706653 
L 149.303523 290.09676 
L 149.954134 293.392465 
L 150.604744 289.811005 
L 151.255354 291.620785 
L 151.905965 292.401848 
L 152.556575 292.859056 
L 153.207185 291.106427 
L 153.857796 293.030509 
L 154.508406 289.982458 
L 155.159016 291.735087 
L 155.809627 291.239779 
L 156.460237 290.077709 
L 157.761457 291.201678 
L 158.412068 294.078276 
L 159.062678 290.858773 
L 159.713288 290.592068 
L 160.363899 292.020842 
L 161.014509 292.573301 
L 161.665119 289.5062 
L 162.31573 291.773188 
L 162.96634 292.077993 
L 163.61695 291.33503 
L 164.918171 293.506767 
L 165.568781 291.735087 
L 166.219392 291.33503 
L 166.870002 290.782571 
L 167.520612 292.363748 
L 168.171222 294.554534 
L 168.821833 290.896873 
L 169.472443 292.820955 
L 170.123053 291.90654 
L 170.773664 292.173245 
L 171.424274 291.011175 
L 172.074884 291.696987 
L 173.376105 289.563351 
L 174.026715 289.715753 
L 174.677326 291.92559 
L 175.327936 291.049276 
L 175.978546 289.582401 
L 176.629156 291.163578 
L 177.279767 290.611118 
L 177.930377 290.72542 
L 178.580987 292.230395 
L 179.231598 293.411515 
L 179.882208 291.011175 
L 180.532818 290.230112 
L 181.183429 290.249162 
L 181.834039 290.401565 
L 182.484649 292.268496 
L 183.13526 290.553967 
L 183.78587 291.754137 
L 184.43648 292.268496 
L 185.087091 292.382798 
L 185.737701 288.058376 
L 186.388311 290.344414 
L 187.038921 290.592068 
L 187.689532 290.649219 
L 188.340142 292.47805 
L 188.990752 291.506483 
L 189.641363 292.039892 
L 190.291973 290.230112 
L 190.942583 293.030509 
L 191.593194 291.620785 
L 192.243804 291.963691 
L 192.894414 290.515867 
L 193.545025 293.10671 
L 194.195635 292.192295 
L 194.846245 291.944641 
L 195.496856 291.563634 
L 196.147466 292.230395 
L 196.798076 290.306313 
L 198.099297 291.88749 
L 198.749907 293.811572 
L 199.400517 292.47805 
L 200.051128 292.649502 
L 200.701738 292.116094 
L 201.352348 292.840006 
L 202.653569 289.925307 
L 203.304179 292.630452 
L 203.95479 293.182911 
L 204.6054 292.287546 
L 205.25601 288.953741 
L 205.906621 289.696703 
L 206.557231 292.097043 
L 207.207841 290.420615 
L 207.858451 293.030509 
L 209.159672 292.859056 
L 209.810282 292.4971 
L 210.460893 292.935257 
L 211.111503 294.687887 
L 211.762113 292.077993 
L 212.412724 290.744471 
L 213.063334 294.764088 
L 213.713944 291.811288 
L 214.364555 289.811005 
L 215.015165 290.858773 
L 216.316385 291.582685 
L 216.966996 292.135144 
L 217.617606 288.515583 
L 218.918827 292.116094 
L 219.569437 291.087376 
L 220.220047 293.373415 
L 220.870658 291.468383 
L 221.521268 292.420899 
L 222.171878 289.582401 
L 222.822489 289.639552 
L 223.473099 292.249446 
L 224.123709 291.88749 
L 224.77432 291.982741 
L 225.42493 293.659169 
L 226.07554 291.144527 
L 227.376761 293.506767 
L 228.027371 290.973074 
L 229.328592 290.001508 
L 230.629812 291.735087 
L 231.280423 289.982458 
L 231.931033 292.51615 
L 232.581643 291.982741 
L 233.232254 290.668269 
L 233.882864 291.582685 
L 234.533474 290.039609 
L 235.184085 291.563634 
L 235.834695 290.992125 
L 236.485305 291.030225 
L 237.135915 292.801905 
L 237.786526 289.677653 
L 238.437136 291.716037 
L 239.087746 292.116094 
L 239.738357 292.325647 
L 240.388967 293.316264 
L 241.039577 292.001792 
L 241.690188 292.211345 
L 242.340798 290.363464 
L 242.991408 295.488 
L 243.642019 292.611402 
L 244.292629 292.992408 
L 244.943239 292.687603 
L 245.59385 291.011175 
L 246.24446 291.430282 
L 246.89507 292.973358 
L 247.54568 292.573301 
L 248.196291 291.773188 
L 248.846901 292.840006 
L 249.497511 291.506483 
L 250.148122 292.401848 
L 250.798732 289.5062 
L 251.449342 291.90654 
L 252.099953 290.877823 
L 252.750563 291.830339 
L 253.401173 290.153911 
L 254.051784 291.658886 
L 254.702394 291.811288 
L 255.353004 290.915923 
L 256.003615 291.258829 
L 256.654225 291.411232 
L 257.304835 292.878106 
L 257.955445 291.33503 
L 258.606056 292.287546 
L 259.256666 292.211345 
L 259.907276 293.163861 
L 261.208497 292.268496 
L 261.859107 293.12576 
L 262.509718 292.097043 
L 263.160328 293.10671 
L 263.810938 291.982741 
L 264.461549 292.268496 
L 265.112159 293.468666 
L 265.762769 290.058659 
L 266.413379 291.92559 
L 267.06399 292.611402 
L 267.7146 292.154194 
L 268.36521 292.344697 
L 269.015821 290.192011 
L 269.666431 289.925307 
L 270.317041 292.706653 
L 270.967652 290.72542 
L 271.618262 291.658886 
L 272.268872 291.144527 
L 272.919483 291.468383 
L 273.570093 292.268496 
L 274.220703 290.553967 
L 274.871314 291.354081 
L 275.521924 291.106427 
L 276.172534 292.916207 
L 276.823144 291.182628 
L 277.473755 294.002075 
L 278.124365 291.182628 
L 278.774975 292.039892 
L 279.425586 290.763521 
L 280.726806 291.220729 
L 281.377417 293.201962 
L 282.028027 290.020558 
L 282.678637 293.182911 
L 283.329248 292.954308 
L 283.979858 291.106427 
L 284.630468 290.72542 
L 285.281079 293.011459 
L 285.931689 290.249162 
L 286.582299 292.916207 
L 287.232909 292.668553 
L 287.88352 290.439665 
L 288.53413 292.287546 
L 289.18474 289.925307 
L 289.835351 293.944924 
L 290.485961 293.449616 
L 291.136571 291.27788 
L 291.787182 290.344414 
L 292.437792 288.30603 
L 293.088402 292.363748 
L 293.739013 292.51615 
L 294.389623 290.306313 
L 295.040233 291.696987 
L 295.690844 292.001792 
L 296.341454 291.696987 
L 296.992064 291.125477 
L 297.642674 291.525534 
L 298.293285 290.420615 
L 298.943895 294.002075 
L 299.594505 291.258829 
L 300.245116 289.639552 
L 300.895726 288.439382 
L 301.546336 291.201678 
L 302.196947 289.639552 
L 302.847557 293.69727 
L 303.498167 290.039609 
L 304.148778 293.201962 
L 304.799388 290.325364 
L 305.449998 292.287546 
L 306.100608 292.801905 
L 306.751219 290.820672 
L 307.401829 291.525534 
L 308.052439 293.182911 
L 308.70305 291.33503 
L 309.35366 291.92559 
L 310.00427 291.620785 
L 310.654881 292.344697 
L 311.305491 292.020842 
L 311.956101 289.144244 
L 313.907932 294.173528 
L 314.558543 289.582401 
L 315.209153 292.782855 
L 315.859763 290.896873 
L 316.510373 292.611402 
L 317.160984 292.458999 
L 317.811594 290.973074 
L 318.462204 292.801905 
L 319.112815 291.792238 
L 319.763425 289.791955 
L 320.414035 291.258829 
L 321.064646 294.154478 
L 321.715256 292.077993 
L 322.365866 291.449332 
L 323.016477 293.983025 
L 323.667087 292.687603 
L 324.317697 294.364031 
L 324.968308 291.29693 
L 325.618918 290.649219 
L 326.269528 292.058943 
L 326.920138 290.934974 
L 327.570749 288.667986 
L 328.221359 290.896873 
L 328.871969 289.620502 
L 329.52258 290.211062 
L 330.17319 289.620502 
L 330.8238 289.772904 
L 331.474411 290.077709 
L 332.125021 291.830339 
L 332.775631 288.763237 
L 333.426242 290.668269 
L 334.076852 289.029942 
L 334.727462 291.163578 
L 335.378073 288.30603 
L 336.028683 289.468099 
L 336.679293 290.344414 
L 337.329903 289.087093 
L 337.980514 286.439099 
L 338.631124 288.115527 
L 339.281734 283.981607 
L 339.932345 281.524116 
L 340.582955 271.846554 
L 341.233565 271.408397 
L 341.884176 270.074875 
L 342.534786 268.226994 
L 343.185396 265.731402 
L 343.836007 264.550282 
L 344.486617 259.501948 
L 345.137227 267.674534 
L 345.787837 265.407546 
L 346.438448 266.779169 
L 347.089058 266.417213 
L 347.739668 266.436264 
L 348.390279 267.903138 
L 349.040889 270.055824 
L 349.691499 265.883804 
L 350.34211 260.035356 
L 350.99272 265.02654 
L 351.64333 261.102174 
L 352.293941 263.769219 
L 352.944551 271.065491 
L 353.595161 266.664867 
L 354.245772 259.6734 
L 354.896382 268.150792 
L 355.546992 262.6262 
L 356.197602 265.04559 
L 356.848213 265.521848 
L 357.498823 261.940388 
L 358.149433 262.988156 
L 358.800044 263.25486 
L 359.450654 262.01659 
L 360.101264 259.616249 
L 360.751875 266.779169 
L 361.402485 266.283861 
L 362.053095 266.398163 
L 362.703706 262.454747 
L 363.354316 263.940672 
L 364.004926 265.102741 
L 364.655537 264.778886 
L 365.306147 259.902004 
L 365.956757 264.816987 
L 366.607367 258.45418 
L 367.257978 266.20766 
L 367.908588 261.997539 
L 368.559198 266.150509 
L 369.209809 259.825803 
L 369.860419 260.987872 
L 370.511029 258.187476 
L 371.16164 260.016306 
L 371.81225 261.121225 
L 372.46286 261.826086 
L 373.113471 257.463563 
L 373.764081 254.453613 
L 374.414691 262.378546 
L 375.065302 258.568482 
L 375.715912 256.911104 
L 376.366522 258.244627 
L 377.017132 255.253726 
L 377.667743 255.615682 
L 378.318353 259.65435 
L 378.968963 260.473514 
L 379.619574 263.997823 
L 380.270184 257.806469 
L 380.920794 264.43598 
L 381.571405 256.587249 
L 382.222015 259.730551 
L 382.872625 259.387646 
L 383.523236 260.702118 
L 384.173846 257.501664 
L 384.824456 263.82637 
L 385.475066 265.693301 
L 386.125677 264.988439 
L 386.776287 264.074024 
L 387.426897 259.540048 
L 388.077508 261.483181 
L 388.728118 257.787419 
L 389.378728 259.825803 
L 390.029339 259.6353 
L 391.330559 263.82637 
L 391.98117 259.959155 
L 392.63178 264.074024 
L 393.28239 265.426597 
L 393.933001 266.302911 
L 394.583611 260.892621 
L 395.234221 261.502231 
L 395.884831 262.778602 
L 396.535442 254.396462 
L 397.186052 260.911671 
L 397.836662 263.673967 
L 398.487273 260.683067 
L 398.487273 260.683067 
" style="fill:none;stroke:#0000ff;stroke-linecap:square;stroke-width:1.5;"/>
   </g>
   <g id="line2d_28">
    <path clip-path="url(#pf93c0c2cf8)" d="M 73.832727 269.448534 
L 74.483338 267.811656 
L 75.133948 264.948907 
L 75.784558 267.591759 
L 76.435169 265.688093 
L 77.085779 267.153847 
L 77.736389 266.675954 
L 78.386999 270.621741 
L 79.03761 265.464931 
L 79.68822 265.328636 
L 80.33883 264.50819 
L 80.989441 267.409023 
L 81.640051 264.54091 
L 82.290661 266.247024 
L 82.941272 265.293168 
L 83.591882 268.452146 
L 84.242492 267.242641 
L 84.893103 265.34843 
L 85.543713 267.723158 
L 86.194323 265.425223 
L 86.844934 268.714311 
L 87.495544 267.695019 
L 88.146154 264.841885 
L 89.447375 267.592734 
L 90.748595 265.00327 
L 91.399206 266.618189 
L 92.049816 265.454555 
L 92.700426 266.458804 
L 93.351037 267.030108 
L 94.001647 268.666307 
L 94.652257 265.271186 
L 95.302868 269.010603 
L 95.953478 264.225726 
L 96.604088 267.218826 
L 97.254698 265.82501 
L 97.905309 266.166107 
L 98.555919 263.60052 
L 99.206529 267.31171 
L 99.85714 268.945543 
L 100.50775 268.86012 
L 101.15836 266.229471 
L 101.808971 268.453962 
L 103.760802 264.679498 
L 104.411412 266.580676 
L 105.062022 268.990403 
L 105.712633 266.192658 
L 106.363243 268.505731 
L 107.013853 267.18638 
L 107.664463 268.477983 
L 108.315074 269.262793 
L 108.965684 266.100229 
L 109.616294 266.138771 
L 110.266905 267.472795 
L 110.917515 267.979672 
L 111.568125 266.041968 
L 112.218736 263.067112 
L 112.869346 268.683781 
L 114.170567 265.732776 
L 114.821177 267.265947 
L 115.471787 266.599835 
L 116.122398 264.292883 
L 116.773008 268.006359 
L 118.074228 265.581405 
L 118.724839 265.457586 
L 119.375449 264.361267 
L 120.67667 266.262878 
L 121.32728 267.032989 
L 121.97789 269.699439 
L 122.628501 267.10472 
L 123.279111 265.25713 
L 123.929721 265.481559 
L 125.230942 264.304298 
L 125.881552 266.223687 
L 126.532163 265.654532 
L 127.182773 268.657636 
L 127.833383 267.463404 
L 128.483993 267.599334 
L 129.134604 265.088323 
L 129.785214 265.858602 
L 130.435824 264.43593 
L 131.086435 267.938744 
L 131.737045 267.282004 
L 132.387655 267.345343 
L 133.038266 264.918238 
L 134.339486 269.411924 
L 134.990097 267.7746 
L 135.640707 267.771417 
L 136.291317 265.885851 
L 136.941927 266.603072 
L 137.592538 266.3325 
L 138.243148 268.226571 
L 138.893758 265.795609 
L 139.544369 264.7647 
L 140.194979 267.303787 
L 140.845589 266.086202 
L 141.4962 266.380635 
L 142.14681 267.778008 
L 142.79742 263.59513 
L 143.448031 267.625607 
L 144.098641 267.735759 
L 144.749251 266.579347 
L 145.399862 268.425127 
L 146.050472 265.970598 
L 147.351692 267.581245 
L 148.002303 267.639354 
L 148.652913 267.357622 
L 149.303523 265.524477 
L 149.954134 268.16047 
L 150.604744 262.996715 
L 151.255354 266.099159 
L 151.905965 266.837264 
L 152.556575 268.195852 
L 153.207185 266.084146 
L 153.857796 269.359769 
L 154.508406 264.756066 
L 155.159016 266.358832 
L 155.809627 265.939234 
L 156.460237 264.472387 
L 157.110847 264.6794 
L 157.761457 266.170081 
L 158.412068 270.131071 
L 159.062678 265.79863 
L 159.713288 265.702143 
L 160.363899 267.005292 
L 161.014509 266.747054 
L 161.665119 264.836405 
L 162.31573 267.44552 
L 162.96634 267.391837 
L 163.61695 266.506398 
L 164.267561 267.223258 
L 164.918171 268.844328 
L 165.568781 268.235949 
L 166.219392 267.35705 
L 166.870002 264.831477 
L 167.520612 269.677265 
L 168.171222 268.939824 
L 168.821833 265.665188 
L 169.472443 268.088395 
L 170.123053 267.073231 
L 170.773664 265.307735 
L 171.424274 265.911673 
L 172.074884 267.488835 
L 172.725495 265.948292 
L 173.376105 264.807786 
L 174.026715 265.337418 
L 174.677326 267.272858 
L 175.327936 265.470407 
L 175.978546 264.491757 
L 176.629156 266.716622 
L 177.279767 265.308228 
L 177.930377 266.018699 
L 178.580987 268.348133 
L 179.231598 267.632977 
L 179.882208 266.681121 
L 180.532818 265.101947 
L 181.183429 263.867229 
L 181.834039 266.036691 
L 182.484649 265.338729 
L 183.13526 265.447989 
L 184.43648 267.290774 
L 185.087091 267.127621 
L 185.737701 261.754314 
L 186.388311 265.87414 
L 187.038921 265.360383 
L 187.689532 265.124813 
L 188.340142 267.606481 
L 188.990752 265.331179 
L 189.641363 265.617739 
L 190.291973 263.3437 
L 190.942583 267.178868 
L 191.593194 267.049684 
L 192.243804 267.408695 
L 192.894414 263.937046 
L 193.545025 268.984733 
L 194.195635 266.27739 
L 194.846245 266.870259 
L 195.496856 264.993042 
L 196.147466 266.307846 
L 196.798076 265.94818 
L 197.448686 267.399607 
L 198.099297 267.863685 
L 198.749907 269.026536 
L 199.400517 267.120944 
L 200.051128 267.35989 
L 200.701738 266.487105 
L 201.352348 268.640851 
L 202.002959 265.656083 
L 202.653569 264.563679 
L 203.304179 268.960486 
L 203.95479 268.196357 
L 204.6054 267.813714 
L 205.25601 263.648606 
L 205.906621 263.424006 
L 206.557231 266.719623 
L 207.207841 265.279167 
L 207.858451 268.046976 
L 208.509062 269.396243 
L 209.159672 267.158213 
L 209.810282 268.239258 
L 210.460893 267.901841 
L 211.111503 269.651745 
L 211.762113 266.673123 
L 212.412724 266.325112 
L 213.063334 268.503108 
L 214.364555 264.06276 
L 215.015165 266.888172 
L 215.665775 266.437581 
L 216.316385 266.826328 
L 216.966996 268.86823 
L 217.617606 265.808826 
L 218.268216 265.205523 
L 218.918827 266.171853 
L 219.569437 266.049604 
L 220.220047 268.349561 
L 220.870658 266.969228 
L 221.521268 267.51698 
L 222.171878 264.12987 
L 222.822489 264.505141 
L 223.473099 265.733489 
L 224.123709 266.620848 
L 224.77432 267.279134 
L 225.42493 268.163102 
L 226.07554 266.217281 
L 226.72615 267.99223 
L 227.376761 268.615828 
L 228.027371 263.869645 
L 228.677981 265.358701 
L 229.328592 263.718426 
L 229.979202 266.416299 
L 230.629812 267.184584 
L 231.280423 264.993115 
L 231.931033 268.443669 
L 232.581643 264.907318 
L 233.232254 264.269421 
L 233.882864 267.216411 
L 234.533474 265.965017 
L 235.184085 266.738569 
L 235.834695 265.458791 
L 236.485305 266.19037 
L 237.135915 266.704804 
L 237.786526 264.387581 
L 238.437136 266.392731 
L 239.087746 266.823497 
L 239.738357 268.438104 
L 240.388967 268.415121 
L 241.039577 268.097292 
L 241.690188 268.142483 
L 242.340798 264.862351 
L 242.991408 270.732853 
L 243.642019 268.241166 
L 244.292629 267.646347 
L 244.943239 267.65041 
L 245.59385 266.443619 
L 246.24446 266.135619 
L 246.89507 268.448627 
L 247.54568 268.026583 
L 248.196291 266.815205 
L 248.846901 268.419904 
L 249.497511 265.54837 
L 250.148122 267.999356 
L 250.798732 262.883592 
L 251.449342 267.857227 
L 252.099953 266.271543 
L 252.750563 267.919714 
L 253.401173 264.78307 
L 254.051784 266.20267 
L 254.702394 267.95679 
L 255.353004 266.691894 
L 256.003615 268.455104 
L 256.654225 267.792101 
L 257.304835 268.912866 
L 257.955445 266.617735 
L 258.606056 265.687686 
L 259.256666 268.142483 
L 259.907276 266.350437 
L 260.557887 267.566783 
L 261.208497 266.47307 
L 261.859107 268.609436 
L 262.509718 267.304102 
L 263.160328 268.852699 
L 263.810938 266.61808 
L 264.461549 267.04786 
L 265.112159 269.705724 
L 265.762769 263.61915 
L 266.413379 267.640685 
L 267.06399 268.378557 
L 267.7146 267.534106 
L 268.36521 268.972169 
L 269.015821 265.20224 
L 269.666431 264.672667 
L 270.317041 268.446156 
L 270.967652 265.022318 
L 271.618262 266.645621 
L 272.268872 265.84158 
L 272.919483 266.424233 
L 273.570093 267.16324 
L 274.220703 264.124096 
L 274.871314 264.696728 
L 275.521924 265.527594 
L 276.172534 267.089819 
L 276.823144 265.31435 
L 277.473755 271.278957 
L 278.124365 266.042912 
L 278.774975 267.344359 
L 279.425586 264.730725 
L 280.076196 266.413446 
L 280.726806 265.739013 
L 281.377417 267.012387 
L 282.028027 264.045981 
L 282.678637 268.242879 
L 283.329248 267.31875 
L 283.979858 265.442607 
L 284.630468 264.674508 
L 285.281079 267.32361 
L 285.931689 264.934277 
L 286.582299 268.756797 
L 287.232909 267.935406 
L 287.88352 266.046002 
L 288.53413 266.373237 
L 289.18474 263.769066 
L 289.835351 269.580795 
L 290.485961 268.946906 
L 291.136571 268.105956 
L 291.787182 264.411066 
L 292.437792 263.354359 
L 293.088402 267.579473 
L 293.739013 266.94078 
L 294.389623 267.058125 
L 295.040233 266.588117 
L 295.690844 267.115454 
L 296.341454 265.078298 
L 297.642674 266.997784 
L 298.293285 265.710134 
L 298.943895 269.752291 
L 299.594505 266.332224 
L 300.245116 264.557176 
L 300.895726 263.564604 
L 301.546336 266.834213 
L 302.196947 265.33911 
L 302.847557 268.155808 
L 303.498167 266.323446 
L 304.148778 269.36272 
L 304.799388 265.323564 
L 306.100608 268.694135 
L 306.751219 264.532032 
L 308.052439 268.7783 
L 308.70305 265.341019 
L 309.35366 267.766541 
L 310.00427 266.070735 
L 310.654881 265.476021 
L 311.305491 266.442917 
L 311.956101 263.081876 
L 312.606712 265.608786 
L 313.907932 269.114573 
L 314.558543 264.033097 
L 315.209153 266.892981 
L 315.859763 266.495831 
L 316.510373 268.211401 
L 317.160984 267.852358 
L 317.811594 265.521421 
L 318.462204 268.484294 
L 319.112815 267.255198 
L 319.763425 264.564844 
L 320.414035 266.478245 
L 321.064646 269.310356 
L 321.715256 267.309648 
L 322.365866 267.172087 
L 323.016477 268.724285 
L 323.667087 267.408067 
L 324.317697 267.89574 
L 324.968308 264.984315 
L 325.618918 264.966061 
L 326.269528 266.609549 
L 326.920138 264.007228 
L 327.570749 260.477897 
L 328.221359 263.523772 
L 328.871969 263.872821 
L 329.52258 263.795502 
L 330.17319 261.833674 
L 330.8238 261.40648 
L 331.474411 261.225594 
L 332.125021 264.149295 
L 332.775631 260.259707 
L 333.426242 260.439525 
L 334.076852 256.481202 
L 334.727462 259.279376 
L 335.378073 254.832088 
L 336.028683 257.727095 
L 336.679293 256.529379 
L 337.329903 250.695 
L 337.980514 250.582856 
L 338.631124 250.212304 
L 339.281734 242.36211 
L 339.932345 239.156772 
L 340.582955 218.894083 
L 341.233565 215.250412 
L 341.884176 212.674348 
L 342.534786 212.521255 
L 343.185396 206.43981 
L 343.836007 201.722414 
L 344.486617 193.71929 
L 345.137227 208.906604 
L 345.787837 205.059215 
L 346.438448 205.621011 
L 347.089058 206.747214 
L 348.390279 211.151733 
L 349.040889 212.706125 
L 349.691499 205.061727 
L 350.34211 198.935914 
L 350.99272 203.476613 
L 351.64333 200.465982 
L 352.293941 202.911742 
L 352.944551 214.772811 
L 353.595161 206.541252 
L 354.245772 196.709174 
L 354.896382 209.783699 
L 355.546992 201.025221 
L 356.848213 206.634099 
L 357.498823 198.123935 
L 358.149433 200.708031 
L 358.800044 202.468069 
L 359.450654 199.907186 
L 360.101264 194.653422 
L 360.751875 207.467061 
L 361.402485 208.802246 
L 362.053095 209.481319 
L 362.703706 201.99474 
L 363.354316 200.510974 
L 364.004926 201.614044 
L 364.655537 204.970498 
L 365.306147 197.297894 
L 365.956757 202.303839 
L 366.607367 191.988562 
L 367.257978 203.439371 
L 367.908588 201.034974 
L 368.559198 204.506553 
L 369.209809 198.056716 
L 369.860419 202.232983 
L 370.511029 196.222322 
L 371.16164 195.878573 
L 371.81225 196.580906 
L 372.46286 198.251156 
L 373.113471 189.741378 
L 373.764081 188.031144 
L 374.414691 201.503076 
L 375.715912 190.916323 
L 376.366522 193.500263 
L 377.017132 192.391626 
L 377.667743 190.650006 
L 378.318353 199.523878 
L 378.968963 195.273873 
L 379.619574 204.802244 
L 380.270184 192.013168 
L 380.920794 206.295234 
L 381.571405 192.905731 
L 382.222015 198.997621 
L 382.872625 198.500538 
L 384.173846 192.866947 
L 384.824456 203.022028 
L 385.475066 204.026224 
L 386.125677 205.54413 
L 386.776287 200.781364 
L 387.426897 194.485354 
L 388.077508 197.01367 
L 388.728118 190.111848 
L 389.378728 196.788902 
L 390.029339 198.348582 
L 390.679949 197.988162 
L 391.330559 200.67512 
L 391.98117 195.932952 
L 392.63178 199.768827 
L 393.28239 205.712555 
L 393.933001 205.546695 
L 394.583611 199.024203 
L 395.234221 198.526662 
L 395.884831 200.287528 
L 396.535442 188.563245 
L 397.186052 198.42853 
L 397.836662 203.06892 
L 398.487273 195.406277 
L 398.487273 195.406277 
" style="fill:none;stroke:#008000;stroke-dasharray:9.6,2.4,1.5,2.4;stroke-dashoffset:0;stroke-width:1.5;"/>
   </g>
   <g id="line2d_29">
    <path clip-path="url(#pf93c0c2cf8)" d="M 73.832727 221.210807 
L 74.483338 221.210807 
L 75.133948 205.970551 
L 75.784558 221.210807 
L 77.085779 205.970551 
L 77.736389 213.590679 
L 78.386999 213.590679 
L 79.68822 198.350424 
L 80.989441 213.590679 
L 81.640051 205.970551 
L 82.290661 221.210807 
L 82.941272 213.590679 
L 83.591882 228.830934 
L 84.242492 198.350424 
L 85.543713 228.830934 
L 86.194323 205.970551 
L 86.844934 198.350424 
L 87.495544 228.830934 
L 88.146154 228.830934 
L 88.796764 205.970551 
L 89.447375 205.970551 
L 90.097985 213.590679 
L 90.748595 213.590679 
L 91.399206 221.210807 
L 92.049816 205.970551 
L 92.700426 205.970551 
L 93.351037 221.210807 
L 94.001647 228.830934 
L 94.652257 221.210807 
L 95.302868 221.210807 
L 95.953478 213.590679 
L 97.905309 213.590679 
L 98.555919 205.970551 
L 99.206529 221.210807 
L 99.85714 205.970551 
L 100.50775 221.210807 
L 101.15836 221.210807 
L 101.808971 228.830934 
L 102.459581 221.210807 
L 103.110191 205.970551 
L 103.760802 221.210807 
L 104.411412 213.590679 
L 105.062022 228.830934 
L 105.712633 221.210807 
L 106.363243 221.210807 
L 107.013853 228.830934 
L 107.664463 190.730296 
L 108.315074 213.590679 
L 108.965684 183.110169 
L 109.616294 205.970551 
L 110.917515 221.210807 
L 111.568125 221.210807 
L 112.218736 213.590679 
L 112.869346 228.830934 
L 114.170567 213.590679 
L 114.821177 198.350424 
L 115.471787 213.590679 
L 116.122398 205.970551 
L 116.773008 205.970551 
L 117.423618 198.350424 
L 118.074228 221.210807 
L 118.724839 205.970551 
L 119.375449 221.210807 
L 120.026059 190.730296 
L 120.67667 221.210807 
L 121.32728 205.970551 
L 121.97789 228.830934 
L 122.628501 213.590679 
L 123.279111 221.210807 
L 123.929721 205.970551 
L 124.580332 205.970551 
L 125.230942 221.210807 
L 125.881552 190.730296 
L 126.532163 228.830934 
L 127.182773 213.590679 
L 129.134604 213.590679 
L 129.785214 221.210807 
L 130.435824 205.970551 
L 131.086435 213.590679 
L 131.737045 198.350424 
L 132.387655 213.590679 
L 133.038266 213.590679 
L 133.688876 228.830934 
L 134.339486 221.210807 
L 134.990097 236.451062 
L 135.640707 213.590679 
L 136.941927 213.590679 
L 137.592538 228.830934 
L 138.243148 198.350424 
L 138.893758 221.210807 
L 139.544369 198.350424 
L 140.194979 213.590679 
L 141.4962 213.590679 
L 142.14681 228.830934 
L 142.79742 213.590679 
L 143.448031 228.830934 
L 144.098641 221.210807 
L 144.749251 228.830934 
L 145.399862 213.590679 
L 146.050472 213.590679 
L 148.002303 236.451062 
L 148.652913 205.970551 
L 149.303523 213.590679 
L 149.954134 213.590679 
L 150.604744 190.730296 
L 151.255354 213.590679 
L 151.905965 221.210807 
L 152.556575 205.970551 
L 154.508406 228.830934 
L 155.159016 213.590679 
L 155.809627 205.970551 
L 156.460237 221.210807 
L 157.110847 221.210807 
L 157.761457 213.590679 
L 158.412068 228.830934 
L 159.062678 221.210807 
L 159.713288 205.970551 
L 160.363899 213.590679 
L 161.014509 213.590679 
L 162.31573 228.830934 
L 162.96634 213.590679 
L 163.61695 221.210807 
L 164.267561 213.590679 
L 164.918171 221.210807 
L 166.219392 221.210807 
L 166.870002 213.590679 
L 167.520612 221.210807 
L 168.821833 221.210807 
L 169.472443 205.970551 
L 170.123053 213.590679 
L 170.773664 205.970551 
L 171.424274 213.590679 
L 172.074884 213.590679 
L 172.725495 198.350424 
L 173.376105 221.210807 
L 174.026715 228.830934 
L 175.327936 213.590679 
L 176.629156 228.830934 
L 177.279767 221.210807 
L 177.930377 221.210807 
L 178.580987 205.970551 
L 179.231598 213.590679 
L 180.532818 198.350424 
L 181.183429 213.590679 
L 181.834039 213.590679 
L 182.484649 205.970551 
L 183.78587 221.210807 
L 185.087091 221.210807 
L 185.737701 213.590679 
L 186.388311 221.210807 
L 187.038921 221.210807 
L 187.689532 205.970551 
L 188.340142 213.590679 
L 188.990752 213.590679 
L 190.291973 198.350424 
L 190.942583 228.830934 
L 191.593194 213.590679 
L 192.243804 213.590679 
L 192.894414 190.730296 
L 193.545025 228.830934 
L 194.195635 228.830934 
L 195.496856 213.590679 
L 196.147466 213.590679 
L 196.798076 221.210807 
L 197.448686 205.970551 
L 198.099297 228.830934 
L 198.749907 198.350424 
L 199.400517 213.590679 
L 200.051128 198.350424 
L 200.701738 213.590679 
L 202.653569 213.590679 
L 203.304179 221.210807 
L 203.95479 213.590679 
L 204.6054 213.590679 
L 205.25601 221.210807 
L 205.906621 205.970551 
L 206.557231 221.210807 
L 207.207841 213.590679 
L 207.858451 221.210807 
L 208.509062 205.970551 
L 209.159672 221.210807 
L 211.111503 221.210807 
L 211.762113 205.970551 
L 212.412724 213.590679 
L 213.063334 198.350424 
L 213.713944 213.590679 
L 214.364555 221.210807 
L 215.015165 221.210807 
L 215.665775 213.590679 
L 216.316385 213.590679 
L 216.966996 221.210807 
L 217.617606 221.210807 
L 218.268216 205.970551 
L 218.918827 205.970551 
L 219.569437 198.350424 
L 220.220047 228.830934 
L 220.870658 228.830934 
L 221.521268 213.590679 
L 222.171878 205.970551 
L 222.822489 213.590679 
L 223.473099 213.590679 
L 224.123709 221.210807 
L 224.77432 198.350424 
L 225.42493 213.590679 
L 226.07554 205.970551 
L 226.72615 213.590679 
L 227.376761 236.451062 
L 228.677981 205.970551 
L 229.328592 228.830934 
L 229.979202 213.590679 
L 230.629812 213.590679 
L 231.280423 221.210807 
L 231.931033 221.210807 
L 232.581643 213.590679 
L 233.232254 198.350424 
L 233.882864 221.210807 
L 234.533474 213.590679 
L 236.485305 213.590679 
L 237.135915 205.970551 
L 237.786526 221.210807 
L 238.437136 213.590679 
L 239.087746 221.210807 
L 239.738357 221.210807 
L 240.388967 228.830934 
L 241.039577 213.590679 
L 241.690188 228.830934 
L 242.340798 221.210807 
L 244.943239 221.210807 
L 245.59385 205.970551 
L 246.24446 228.830934 
L 246.89507 198.350424 
L 247.54568 221.210807 
L 248.196291 213.590679 
L 250.798732 213.590679 
L 251.449342 221.210807 
L 252.099953 221.210807 
L 252.750563 213.590679 
L 254.051784 213.590679 
L 254.702394 205.970551 
L 255.353004 221.210807 
L 256.003615 221.210807 
L 256.654225 228.830934 
L 257.304835 221.210807 
L 258.606056 221.210807 
L 259.256666 228.830934 
L 259.907276 221.210807 
L 260.557887 205.970551 
L 261.208497 198.350424 
L 261.859107 213.590679 
L 262.509718 205.970551 
L 263.160328 213.590679 
L 263.810938 213.590679 
L 265.112159 228.830934 
L 265.762769 221.210807 
L 266.413379 221.210807 
L 267.06399 236.451062 
L 267.7146 228.830934 
L 268.36521 228.830934 
L 269.015821 213.590679 
L 269.666431 221.210807 
L 270.317041 213.590679 
L 270.967652 228.830934 
L 271.618262 213.590679 
L 272.268872 205.970551 
L 272.919483 213.590679 
L 273.570093 228.830934 
L 274.220703 190.730296 
L 274.871314 205.970551 
L 276.172534 221.210807 
L 276.823144 213.590679 
L 277.473755 213.590679 
L 278.124365 221.210807 
L 278.774975 213.590679 
L 279.425586 183.110169 
L 280.076196 221.210807 
L 280.726806 221.210807 
L 281.377417 228.830934 
L 282.028027 213.590679 
L 282.678637 213.590679 
L 283.329248 221.210807 
L 283.979858 198.350424 
L 284.630468 198.350424 
L 285.281079 221.210807 
L 285.931689 221.210807 
L 286.582299 213.590679 
L 287.232909 228.830934 
L 287.88352 198.350424 
L 288.53413 213.590679 
L 289.18474 198.350424 
L 289.835351 228.830934 
L 290.485961 205.970551 
L 291.136571 213.590679 
L 291.787182 198.350424 
L 292.437792 213.590679 
L 293.088402 221.210807 
L 293.739013 221.210807 
L 294.389623 213.590679 
L 295.040233 228.830934 
L 296.341454 213.590679 
L 296.992064 221.210807 
L 298.293285 205.970551 
L 298.943895 213.590679 
L 299.594505 213.590679 
L 300.245116 205.970551 
L 300.895726 213.590679 
L 301.546336 228.830934 
L 302.196947 213.590679 
L 302.847557 213.590679 
L 303.498167 228.830934 
L 304.148778 213.590679 
L 304.799388 190.730296 
L 305.449998 213.590679 
L 306.100608 221.210807 
L 306.751219 213.590679 
L 307.401829 213.590679 
L 308.052439 221.210807 
L 308.70305 221.210807 
L 309.35366 213.590679 
L 310.00427 221.210807 
L 311.305491 221.210807 
L 311.956101 205.970551 
L 312.606712 221.210807 
L 313.907932 205.970551 
L 315.209153 205.970551 
L 315.859763 221.210807 
L 316.510373 228.830934 
L 317.160984 213.590679 
L 318.462204 228.830934 
L 319.112815 213.590679 
L 320.414035 213.590679 
L 321.715256 228.830934 
L 322.365866 198.350424 
L 323.016477 221.210807 
L 323.667087 205.970551 
L 324.317697 213.590679 
L 324.968308 167.869914 
L 325.618918 175.490041 
L 326.269528 145.009531 
L 327.570749 114.529021 
L 328.221359 160.249786 
L 328.871969 183.110169 
L 329.52258 122.149148 
L 330.17319 160.249786 
L 330.8238 122.149148 
L 331.474411 122.149148 
L 332.125021 145.009531 
L 332.775631 137.389403 
L 333.426242 137.389403 
L 334.076852 122.149148 
L 334.727462 129.769276 
L 335.378073 114.529021 
L 336.028683 114.529021 
L 336.679293 129.769276 
L 337.329903 106.908893 
L 337.980514 122.149148 
L 338.631124 114.529021 
L 339.281734 114.529021 
L 339.932345 91.668638 
L 340.582955 106.908893 
L 343.185396 76.428383 
L 343.836007 91.668638 
L 344.486617 91.668638 
L 345.137227 106.908893 
L 345.787837 84.04851 
L 346.438448 99.288765 
L 347.089058 91.668638 
L 347.739668 99.288765 
L 348.390279 91.668638 
L 349.040889 99.288765 
L 349.691499 91.668638 
L 350.34211 99.288765 
L 350.99272 99.288765 
L 351.64333 106.908893 
L 352.293941 53.568 
L 352.944551 76.428383 
L 353.595161 91.668638 
L 355.546992 91.668638 
L 356.197602 106.908893 
L 356.848213 106.908893 
L 357.498823 91.668638 
L 358.149433 84.04851 
L 358.800044 91.668638 
L 359.450654 106.908893 
L 360.101264 76.428383 
L 360.751875 99.288765 
L 361.402485 114.529021 
L 362.053095 91.668638 
L 362.703706 91.668638 
L 363.354316 99.288765 
L 364.004926 84.04851 
L 364.655537 106.908893 
L 365.306147 84.04851 
L 365.956757 99.288765 
L 366.607367 76.428383 
L 367.257978 91.668638 
L 367.908588 84.04851 
L 368.559198 61.188128 
L 369.209809 91.668638 
L 370.511029 106.908893 
L 371.16164 84.04851 
L 371.81225 91.668638 
L 372.46286 84.04851 
L 373.113471 91.668638 
L 373.764081 91.668638 
L 375.065302 106.908893 
L 375.715912 84.04851 
L 376.366522 76.428383 
L 377.017132 106.908893 
L 378.318353 91.668638 
L 378.968963 91.668638 
L 379.619574 106.908893 
L 380.270184 68.808255 
L 380.920794 91.668638 
L 382.222015 106.908893 
L 382.872625 68.808255 
L 383.523236 99.288765 
L 384.173846 99.288765 
L 384.824456 84.04851 
L 385.475066 99.288765 
L 386.125677 84.04851 
L 386.776287 99.288765 
L 387.426897 99.288765 
L 388.077508 91.668638 
L 388.728118 99.288765 
L 389.378728 84.04851 
L 390.029339 84.04851 
L 390.679949 91.668638 
L 391.330559 106.908893 
L 391.98117 76.428383 
L 392.63178 91.668638 
L 393.28239 84.04851 
L 393.933001 84.04851 
L 394.583611 99.288765 
L 395.234221 76.428383 
L 395.884831 99.288765 
L 397.186052 99.288765 
L 397.836662 84.04851 
L 398.487273 99.288765 
L 398.487273 99.288765 
" style="fill:none;stroke:#ff0000;stroke-linecap:square;stroke-width:1.5;"/>
   </g>
   <g id="patch_3">
    <path d="M 57.6 307.584 
L 57.6 41.472 
" style="fill:none;stroke:#000000;stroke-linecap:square;stroke-linejoin:miter;stroke-width:0.8;"/>
   </g>
   <g id="patch_4">
    <path d="M 414.72 307.584 
L 414.72 41.472 
" style="fill:none;stroke:#000000;stroke-linecap:square;stroke-linejoin:miter;stroke-width:0.8;"/>
   </g>
   <g id="patch_5">
    <path d="M 57.6 307.584 
L 414.72 307.584 
" style="fill:none;stroke:#000000;stroke-linecap:square;stroke-linejoin:miter;stroke-width:0.8;"/>
   </g>
   <g id="patch_6">
    <path d="M 57.6 41.472 
L 414.72 41.472 
" style="fill:none;stroke:#000000;stroke-linecap:square;stroke-linejoin:miter;stroke-width:0.8;"/>
   </g>
   <g id="text_16">
    <!-- Population's average and best fitness -->
    <defs>
     <path d="M 19.671875 64.796875 
L 19.671875 37.40625 
L 32.078125 37.40625 
Q 38.96875 37.40625 42.71875 40.96875 
Q 46.484375 44.53125 46.484375 51.125 
Q 46.484375 57.671875 42.71875 61.234375 
Q 38.96875 64.796875 32.078125 64.796875 
z
M 9.8125 72.90625 
L 32.078125 72.90625 
Q 44.34375 72.90625 50.609375 67.359375 
Q 56.890625 61.8125 56.890625 51.125 
Q 56.890625 40.328125 50.609375 34.8125 
Q 44.34375 29.296875 32.078125 29.296875 
L 19.671875 29.296875 
L 19.671875 0 
L 9.8125 0 
z
" id="DejaVuSans-80"/>
     <path d="M 18.109375 8.203125 
L 18.109375 -20.796875 
L 9.078125 -20.796875 
L 9.078125 54.6875 
L 18.109375 54.6875 
L 18.109375 46.390625 
Q 20.953125 51.265625 25.265625 53.625 
Q 29.59375 56 35.59375 56 
Q 45.5625 56 51.78125 48.09375 
Q 58.015625 40.1875 58.015625 27.296875 
Q 58.015625 14.40625 51.78125 6.484375 
Q 45.5625 -1.421875 35.59375 -1.421875 
Q 29.59375 -1.421875 25.265625 0.953125 
Q 20.953125 3.328125 18.109375 8.203125 
z
M 48.6875 27.296875 
Q 48.6875 37.203125 44.609375 42.84375 
Q 40.53125 48.484375 33.40625 48.484375 
Q 26.265625 48.484375 22.1875 42.84375 
Q 18.109375 37.203125 18.109375 27.296875 
Q 18.109375 17.390625 22.1875 11.75 
Q 26.265625 6.109375 33.40625 6.109375 
Q 40.53125 6.109375 44.609375 11.75 
Q 48.6875 17.390625 48.6875 27.296875 
z
" id="DejaVuSans-112"/>
     <path d="M 8.5 21.578125 
L 8.5 54.6875 
L 17.484375 54.6875 
L 17.484375 21.921875 
Q 17.484375 14.15625 20.5 10.265625 
Q 23.53125 6.390625 29.59375 6.390625 
Q 36.859375 6.390625 41.078125 11.03125 
Q 45.3125 15.671875 45.3125 23.6875 
L 45.3125 54.6875 
L 54.296875 54.6875 
L 54.296875 0 
L 45.3125 0 
L 45.3125 8.40625 
Q 42.046875 3.421875 37.71875 1 
Q 33.40625 -1.421875 27.6875 -1.421875 
Q 18.265625 -1.421875 13.375 4.4375 
Q 8.5 10.296875 8.5 21.578125 
z
M 31.109375 56 
z
" id="DejaVuSans-117"/>
     <path d="M 9.421875 75.984375 
L 18.40625 75.984375 
L 18.40625 0 
L 9.421875 0 
z
" id="DejaVuSans-108"/>
     <path d="M 17.921875 72.90625 
L 17.921875 45.796875 
L 9.625 45.796875 
L 9.625 72.90625 
z
" id="DejaVuSans-39"/>
     <path id="DejaVuSans-32"/>
     <path d="M 2.984375 54.6875 
L 12.5 54.6875 
L 29.59375 8.796875 
L 46.6875 54.6875 
L 56.203125 54.6875 
L 35.6875 0 
L 23.484375 0 
z
" id="DejaVuSans-118"/>
     <path d="M 45.40625 27.984375 
Q 45.40625 37.75 41.375 43.109375 
Q 37.359375 48.484375 30.078125 48.484375 
Q 22.859375 48.484375 18.828125 43.109375 
Q 14.796875 37.75 14.796875 27.984375 
Q 14.796875 18.265625 18.828125 12.890625 
Q 22.859375 7.515625 30.078125 7.515625 
Q 37.359375 7.515625 41.375 12.890625 
Q 45.40625 18.265625 45.40625 27.984375 
z
M 54.390625 6.78125 
Q 54.390625 -7.171875 48.1875 -13.984375 
Q 42 -20.796875 29.203125 -20.796875 
Q 24.46875 -20.796875 20.265625 -20.09375 
Q 16.0625 -19.390625 12.109375 -17.921875 
L 12.109375 -9.1875 
Q 16.0625 -11.328125 19.921875 -12.34375 
Q 23.78125 -13.375 27.78125 -13.375 
Q 36.625 -13.375 41.015625 -8.765625 
Q 45.40625 -4.15625 45.40625 5.171875 
L 45.40625 9.625 
Q 42.625 4.78125 38.28125 2.390625 
Q 33.9375 0 27.875 0 
Q 17.828125 0 11.671875 7.65625 
Q 5.515625 15.328125 5.515625 27.984375 
Q 5.515625 40.671875 11.671875 48.328125 
Q 17.828125 56 27.875 56 
Q 33.9375 56 38.28125 53.609375 
Q 42.625 51.21875 45.40625 46.390625 
L 45.40625 54.6875 
L 54.390625 54.6875 
z
" id="DejaVuSans-103"/>
     <path d="M 45.40625 46.390625 
L 45.40625 75.984375 
L 54.390625 75.984375 
L 54.390625 0 
L 45.40625 0 
L 45.40625 8.203125 
Q 42.578125 3.328125 38.25 0.953125 
Q 33.9375 -1.421875 27.875 -1.421875 
Q 17.96875 -1.421875 11.734375 6.484375 
Q 5.515625 14.40625 5.515625 27.296875 
Q 5.515625 40.1875 11.734375 48.09375 
Q 17.96875 56 27.875 56 
Q 33.9375 56 38.25 53.625 
Q 42.578125 51.265625 45.40625 46.390625 
z
M 14.796875 27.296875 
Q 14.796875 17.390625 18.875 11.75 
Q 22.953125 6.109375 30.078125 6.109375 
Q 37.203125 6.109375 41.296875 11.75 
Q 45.40625 17.390625 45.40625 27.296875 
Q 45.40625 37.203125 41.296875 42.84375 
Q 37.203125 48.484375 30.078125 48.484375 
Q 22.953125 48.484375 18.875 42.84375 
Q 14.796875 37.203125 14.796875 27.296875 
z
" id="DejaVuSans-100"/>
     <path d="M 48.6875 27.296875 
Q 48.6875 37.203125 44.609375 42.84375 
Q 40.53125 48.484375 33.40625 48.484375 
Q 26.265625 48.484375 22.1875 42.84375 
Q 18.109375 37.203125 18.109375 27.296875 
Q 18.109375 17.390625 22.1875 11.75 
Q 26.265625 6.109375 33.40625 6.109375 
Q 40.53125 6.109375 44.609375 11.75 
Q 48.6875 17.390625 48.6875 27.296875 
z
M 18.109375 46.390625 
Q 20.953125 51.265625 25.265625 53.625 
Q 29.59375 56 35.59375 56 
Q 45.5625 56 51.78125 48.09375 
Q 58.015625 40.1875 58.015625 27.296875 
Q 58.015625 14.40625 51.78125 6.484375 
Q 45.5625 -1.421875 35.59375 -1.421875 
Q 29.59375 -1.421875 25.265625 0.953125 
Q 20.953125 3.328125 18.109375 8.203125 
L 18.109375 0 
L 9.078125 0 
L 9.078125 75.984375 
L 18.109375 75.984375 
z
" id="DejaVuSans-98"/>
     <path d="M 37.109375 75.984375 
L 37.109375 68.5 
L 28.515625 68.5 
Q 23.6875 68.5 21.796875 66.546875 
Q 19.921875 64.59375 19.921875 59.515625 
L 19.921875 54.6875 
L 34.71875 54.6875 
L 34.71875 47.703125 
L 19.921875 47.703125 
L 19.921875 0 
L 10.890625 0 
L 10.890625 47.703125 
L 2.296875 47.703125 
L 2.296875 54.6875 
L 10.890625 54.6875 
L 10.890625 58.5 
Q 10.890625 67.625 15.140625 71.796875 
Q 19.390625 75.984375 28.609375 75.984375 
z
" id="DejaVuSans-102"/>
    </defs>
    <g transform="translate(123.315 35.472)scale(0.12 -0.12)">
     <use xlink:href="#DejaVuSans-80"/>
     <use x="60.255859" xlink:href="#DejaVuSans-111"/>
     <use x="121.4375" xlink:href="#DejaVuSans-112"/>
     <use x="184.914062" xlink:href="#DejaVuSans-117"/>
     <use x="248.292969" xlink:href="#DejaVuSans-108"/>
     <use x="276.076172" xlink:href="#DejaVuSans-97"/>
     <use x="337.355469" xlink:href="#DejaVuSans-116"/>
     <use x="376.564453" xlink:href="#DejaVuSans-105"/>
     <use x="404.347656" xlink:href="#DejaVuSans-111"/>
     <use x="465.529297" xlink:href="#DejaVuSans-110"/>
     <use x="528.908203" xlink:href="#DejaVuSans-39"/>
     <use x="556.398438" xlink:href="#DejaVuSans-115"/>
     <use x="608.498047" xlink:href="#DejaVuSans-32"/>
     <use x="640.285156" xlink:href="#DejaVuSans-97"/>
     <use x="701.564453" xlink:href="#DejaVuSans-118"/>
     <use x="760.744141" xlink:href="#DejaVuSans-101"/>
     <use x="822.267578" xlink:href="#DejaVuSans-114"/>
     <use x="863.380859" xlink:href="#DejaVuSans-97"/>
     <use x="924.660156" xlink:href="#DejaVuSans-103"/>
     <use x="988.136719" xlink:href="#DejaVuSans-101"/>
     <use x="1049.660156" xlink:href="#DejaVuSans-32"/>
     <use x="1081.447266" xlink:href="#DejaVuSans-97"/>
     <use x="1142.726562" xlink:href="#DejaVuSans-110"/>
     <use x="1206.105469" xlink:href="#DejaVuSans-100"/>
     <use x="1269.582031" xlink:href="#DejaVuSans-32"/>
     <use x="1301.369141" xlink:href="#DejaVuSans-98"/>
     <use x="1364.845703" xlink:href="#DejaVuSans-101"/>
     <use x="1426.369141" xlink:href="#DejaVuSans-115"/>
     <use x="1478.46875" xlink:href="#DejaVuSans-116"/>
     <use x="1517.677734" xlink:href="#DejaVuSans-32"/>
     <use x="1549.464844" xlink:href="#DejaVuSans-102"/>
     <use x="1584.669922" xlink:href="#DejaVuSans-105"/>
     <use x="1612.453125" xlink:href="#DejaVuSans-116"/>
     <use x="1651.662109" xlink:href="#DejaVuSans-110"/>
     <use x="1715.041016" xlink:href="#DejaVuSans-101"/>
     <use x="1776.564453" xlink:href="#DejaVuSans-115"/>
     <use x="1828.664062" xlink:href="#DejaVuSans-115"/>
    </g>
   </g>
   <g id="legend_1">
    <g id="patch_7">
     <path d="M 64.6 93.506375 
L 137.540625 93.506375 
Q 139.540625 93.506375 139.540625 91.506375 
L 139.540625 48.472 
Q 139.540625 46.472 137.540625 46.472 
L 64.6 46.472 
Q 62.6 46.472 62.6 48.472 
L 62.6 91.506375 
Q 62.6 93.506375 64.6 93.506375 
z
" style="fill:#ffffff;opacity:0.8;stroke:#cccccc;stroke-linejoin:miter;"/>
    </g>
    <g id="line2d_30">
     <path d="M 66.6 54.570438 
L 86.6 54.570438 
" style="fill:none;stroke:#0000ff;stroke-linecap:square;stroke-width:1.5;"/>
    </g>
    <g id="line2d_31"/>
    <g id="text_17">
     <!-- average -->
     <g transform="translate(94.6 58.070438)scale(0.1 -0.1)">
      <use xlink:href="#DejaVuSans-97"/>
      <use x="61.279297" xlink:href="#DejaVuSans-118"/>
      <use x="120.458984" xlink:href="#DejaVuSans-101"/>
      <use x="181.982422" xlink:href="#DejaVuSans-114"/>
      <use x="223.095703" xlink:href="#DejaVuSans-97"/>
      <use x="284.375" xlink:href="#DejaVuSans-103"/>
      <use x="347.851562" xlink:href="#DejaVuSans-101"/>
     </g>
    </g>
    <g id="line2d_32">
     <path d="M 66.6 69.248563 
L 86.6 69.248563 
" style="fill:none;stroke:#008000;stroke-dasharray:9.6,2.4,1.5,2.4;stroke-dashoffset:0;stroke-width:1.5;"/>
    </g>
    <g id="line2d_33"/>
    <g id="text_18">
     <!-- +1 sd -->
     <defs>
      <path d="M 46 62.703125 
L 46 35.5 
L 73.1875 35.5 
L 73.1875 27.203125 
L 46 27.203125 
L 46 0 
L 37.796875 0 
L 37.796875 27.203125 
L 10.59375 27.203125 
L 10.59375 35.5 
L 37.796875 35.5 
L 37.796875 62.703125 
z
" id="DejaVuSans-43"/>
     </defs>
     <g transform="translate(94.6 72.748563)scale(0.1 -0.1)">
      <use xlink:href="#DejaVuSans-43"/>
      <use x="83.789062" xlink:href="#DejaVuSans-49"/>
      <use x="147.412109" xlink:href="#DejaVuSans-32"/>
      <use x="179.199219" xlink:href="#DejaVuSans-115"/>
      <use x="231.298828" xlink:href="#DejaVuSans-100"/>
     </g>
    </g>
    <g id="line2d_34">
     <path d="M 66.6 83.926688 
L 86.6 83.926688 
" style="fill:none;stroke:#ff0000;stroke-linecap:square;stroke-width:1.5;"/>
    </g>
    <g id="line2d_35"/>
    <g id="text_19">
     <!-- best -->
     <g transform="translate(94.6 87.426688)scale(0.1 -0.1)">
      <use xlink:href="#DejaVuSans-98"/>
      <use x="63.476562" xlink:href="#DejaVuSans-101"/>
      <use x="125" xlink:href="#DejaVuSans-115"/>
      <use x="177.099609" xlink:href="#DejaVuSans-116"/>
     </g>
    </g>
   </g>
  </g>
 </g>
 <defs>
  <clipPath id="pf93c0c2cf8">
   <rect height="266.112" width="357.12" x="57.6" y="41.472"/>
  </clipPath>
 </defs>
</svg>
