<?xml version="1.0" encoding="utf-8" standalone="no"?>
<!DOCTYPE svg PUBLIC "-//W3C//DTD SVG 1.1//EN"
  "http://www.w3.org/Graphics/SVG/1.1/DTD/svg11.dtd">
<!-- Created with matplotlib (https://matplotlib.org/) -->
<svg height="345.6pt" version="1.1" viewBox="0 0 460.8 345.6" width="460.8pt" xmlns="http://www.w3.org/2000/svg" xmlns:xlink="http://www.w3.org/1999/xlink">
 <defs>
  <style type="text/css">
*{stroke-linecap:butt;stroke-linejoin:round;}
  </style>
 </defs>
 <g id="figure_1">
  <g id="patch_1">
   <path d="M 0 345.6 
L 460.8 345.6 
L 460.8 0 
L 0 0 
z
" style="fill:#ffffff;"/>
  </g>
  <g id="axes_1">
   <g id="patch_2">
    <path d="M 57.6 307.584 
L 414.72 307.584 
L 414.72 41.472 
L 57.6 41.472 
z
" style="fill:#ffffff;"/>
   </g>
   <g id="matplotlib.axis_1">
    <g id="xtick_1">
     <g id="line2d_1">
      <path clip-path="url(#p714a115bc6)" d="M 73.832727 307.584 
L 73.832727 41.472 
" style="fill:none;stroke:#b0b0b0;stroke-linecap:square;stroke-width:0.8;"/>
     </g>
     <g id="line2d_2">
      <defs>
       <path d="M 0 0 
L 0 3.5 
" id="m50ffeddf66" style="stroke:#000000;stroke-width:0.8;"/>
      </defs>
      <g>
       <use style="stroke:#000000;stroke-width:0.8;" x="73.832727" xlink:href="#m50ffeddf66" y="307.584"/>
      </g>
     </g>
     <g id="text_1">
      <!-- 0 -->
      <defs>
       <path d="M 31.78125 66.40625 
Q 24.171875 66.40625 20.328125 58.90625 
Q 16.5 51.421875 16.5 36.375 
Q 16.5 21.390625 20.328125 13.890625 
Q 24.171875 6.390625 31.78125 6.390625 
Q 39.453125 6.390625 43.28125 13.890625 
Q 47.125 21.390625 47.125 36.375 
Q 47.125 51.421875 43.28125 58.90625 
Q 39.453125 66.40625 31.78125 66.40625 
z
M 31.78125 74.21875 
Q 44.046875 74.21875 50.515625 64.515625 
Q 56.984375 54.828125 56.984375 36.375 
Q 56.984375 17.96875 50.515625 8.265625 
Q 44.046875 -1.421875 31.78125 -1.421875 
Q 19.53125 -1.421875 13.0625 8.265625 
Q 6.59375 17.96875 6.59375 36.375 
Q 6.59375 54.828125 13.0625 64.515625 
Q 19.53125 74.21875 31.78125 74.21875 
z
" id="DejaVuSans-48"/>
      </defs>
      <g transform="translate(70.651477 322.182437)scale(0.1 -0.1)">
       <use xlink:href="#DejaVuSans-48"/>
      </g>
     </g>
    </g>
    <g id="xtick_2">
     <g id="line2d_3">
      <path clip-path="url(#p714a115bc6)" d="M 138.893758 307.584 
L 138.893758 41.472 
" style="fill:none;stroke:#b0b0b0;stroke-linecap:square;stroke-width:0.8;"/>
     </g>
     <g id="line2d_4">
      <g>
       <use style="stroke:#000000;stroke-width:0.8;" x="138.893758" xlink:href="#m50ffeddf66" y="307.584"/>
      </g>
     </g>
     <g id="text_2">
      <!-- 100 -->
      <defs>
       <path d="M 12.40625 8.296875 
L 28.515625 8.296875 
L 28.515625 63.921875 
L 10.984375 60.40625 
L 10.984375 69.390625 
L 28.421875 72.90625 
L 38.28125 72.90625 
L 38.28125 8.296875 
L 54.390625 8.296875 
L 54.390625 0 
L 12.40625 0 
z
" id="DejaVuSans-49"/>
      </defs>
      <g transform="translate(129.350008 322.182437)scale(0.1 -0.1)">
       <use xlink:href="#DejaVuSans-49"/>
       <use x="63.623047" xlink:href="#DejaVuSans-48"/>
       <use x="127.246094" xlink:href="#DejaVuSans-48"/>
      </g>
     </g>
    </g>
    <g id="xtick_3">
     <g id="line2d_5">
      <path clip-path="url(#p714a115bc6)" d="M 203.95479 307.584 
L 203.95479 41.472 
" style="fill:none;stroke:#b0b0b0;stroke-linecap:square;stroke-width:0.8;"/>
     </g>
     <g id="line2d_6">
      <g>
       <use style="stroke:#000000;stroke-width:0.8;" x="203.95479" xlink:href="#m50ffeddf66" y="307.584"/>
      </g>
     </g>
     <g id="text_3">
      <!-- 200 -->
      <defs>
       <path d="M 19.1875 8.296875 
L 53.609375 8.296875 
L 53.609375 0 
L 7.328125 0 
L 7.328125 8.296875 
Q 12.9375 14.109375 22.625 23.890625 
Q 32.328125 33.6875 34.8125 36.53125 
Q 39.546875 41.84375 41.421875 45.53125 
Q 43.3125 49.21875 43.3125 52.78125 
Q 43.3125 58.59375 39.234375 62.25 
Q 35.15625 65.921875 28.609375 65.921875 
Q 23.96875 65.921875 18.8125 64.3125 
Q 13.671875 62.703125 7.8125 59.421875 
L 7.8125 69.390625 
Q 13.765625 71.78125 18.9375 73 
Q 24.125 74.21875 28.421875 74.21875 
Q 39.75 74.21875 46.484375 68.546875 
Q 53.21875 62.890625 53.21875 53.421875 
Q 53.21875 48.921875 51.53125 44.890625 
Q 49.859375 40.875 45.40625 35.40625 
Q 44.1875 33.984375 37.640625 27.21875 
Q 31.109375 20.453125 19.1875 8.296875 
z
" id="DejaVuSans-50"/>
      </defs>
      <g transform="translate(194.41104 322.182437)scale(0.1 -0.1)">
       <use xlink:href="#DejaVuSans-50"/>
       <use x="63.623047" xlink:href="#DejaVuSans-48"/>
       <use x="127.246094" xlink:href="#DejaVuSans-48"/>
      </g>
     </g>
    </g>
    <g id="xtick_4">
     <g id="line2d_7">
      <path clip-path="url(#p714a115bc6)" d="M 269.015821 307.584 
L 269.015821 41.472 
" style="fill:none;stroke:#b0b0b0;stroke-linecap:square;stroke-width:0.8;"/>
     </g>
     <g id="line2d_8">
      <g>
       <use style="stroke:#000000;stroke-width:0.8;" x="269.015821" xlink:href="#m50ffeddf66" y="307.584"/>
      </g>
     </g>
     <g id="text_4">
      <!-- 300 -->
      <defs>
       <path d="M 40.578125 39.3125 
Q 47.65625 37.796875 51.625 33 
Q 55.609375 28.21875 55.609375 21.1875 
Q 55.609375 10.40625 48.1875 4.484375 
Q 40.765625 -1.421875 27.09375 -1.421875 
Q 22.515625 -1.421875 17.65625 -0.515625 
Q 12.796875 0.390625 7.625 2.203125 
L 7.625 11.71875 
Q 11.71875 9.328125 16.59375 8.109375 
Q 21.484375 6.890625 26.8125 6.890625 
Q 36.078125 6.890625 40.9375 10.546875 
Q 45.796875 14.203125 45.796875 21.1875 
Q 45.796875 27.640625 41.28125 31.265625 
Q 36.765625 34.90625 28.71875 34.90625 
L 20.21875 34.90625 
L 20.21875 43.015625 
L 29.109375 43.015625 
Q 36.375 43.015625 40.234375 45.921875 
Q 44.09375 48.828125 44.09375 54.296875 
Q 44.09375 59.90625 40.109375 62.90625 
Q 36.140625 65.921875 28.71875 65.921875 
Q 24.65625 65.921875 20.015625 65.03125 
Q 15.375 64.15625 9.8125 62.3125 
L 9.8125 71.09375 
Q 15.4375 72.65625 20.34375 73.4375 
Q 25.25 74.21875 29.59375 74.21875 
Q 40.828125 74.21875 47.359375 69.109375 
Q 53.90625 64.015625 53.90625 55.328125 
Q 53.90625 49.265625 50.4375 45.09375 
Q 46.96875 40.921875 40.578125 39.3125 
z
" id="DejaVuSans-51"/>
      </defs>
      <g transform="translate(259.472071 322.182437)scale(0.1 -0.1)">
       <use xlink:href="#DejaVuSans-51"/>
       <use x="63.623047" xlink:href="#DejaVuSans-48"/>
       <use x="127.246094" xlink:href="#DejaVuSans-48"/>
      </g>
     </g>
    </g>
    <g id="xtick_5">
     <g id="line2d_9">
      <path clip-path="url(#p714a115bc6)" d="M 334.076852 307.584 
L 334.076852 41.472 
" style="fill:none;stroke:#b0b0b0;stroke-linecap:square;stroke-width:0.8;"/>
     </g>
     <g id="line2d_10">
      <g>
       <use style="stroke:#000000;stroke-width:0.8;" x="334.076852" xlink:href="#m50ffeddf66" y="307.584"/>
      </g>
     </g>
     <g id="text_5">
      <!-- 400 -->
      <defs>
       <path d="M 37.796875 64.3125 
L 12.890625 25.390625 
L 37.796875 25.390625 
z
M 35.203125 72.90625 
L 47.609375 72.90625 
L 47.609375 25.390625 
L 58.015625 25.390625 
L 58.015625 17.1875 
L 47.609375 17.1875 
L 47.609375 0 
L 37.796875 0 
L 37.796875 17.1875 
L 4.890625 17.1875 
L 4.890625 26.703125 
z
" id="DejaVuSans-52"/>
      </defs>
      <g transform="translate(324.533102 322.182437)scale(0.1 -0.1)">
       <use xlink:href="#DejaVuSans-52"/>
       <use x="63.623047" xlink:href="#DejaVuSans-48"/>
       <use x="127.246094" xlink:href="#DejaVuSans-48"/>
      </g>
     </g>
    </g>
    <g id="xtick_6">
     <g id="line2d_11">
      <path clip-path="url(#p714a115bc6)" d="M 399.137883 307.584 
L 399.137883 41.472 
" style="fill:none;stroke:#b0b0b0;stroke-linecap:square;stroke-width:0.8;"/>
     </g>
     <g id="line2d_12">
      <g>
       <use style="stroke:#000000;stroke-width:0.8;" x="399.137883" xlink:href="#m50ffeddf66" y="307.584"/>
      </g>
     </g>
     <g id="text_6">
      <!-- 500 -->
      <defs>
       <path d="M 10.796875 72.90625 
L 49.515625 72.90625 
L 49.515625 64.59375 
L 19.828125 64.59375 
L 19.828125 46.734375 
Q 21.96875 47.46875 24.109375 47.828125 
Q 26.265625 48.1875 28.421875 48.1875 
Q 40.625 48.1875 47.75 41.5 
Q 54.890625 34.8125 54.890625 23.390625 
Q 54.890625 11.625 47.5625 5.09375 
Q 40.234375 -1.421875 26.90625 -1.421875 
Q 22.3125 -1.421875 17.546875 -0.640625 
Q 12.796875 0.140625 7.71875 1.703125 
L 7.71875 11.625 
Q 12.109375 9.234375 16.796875 8.0625 
Q 21.484375 6.890625 26.703125 6.890625 
Q 35.15625 6.890625 40.078125 11.328125 
Q 45.015625 15.765625 45.015625 23.390625 
Q 45.015625 31 40.078125 35.4375 
Q 35.15625 39.890625 26.703125 39.890625 
Q 22.75 39.890625 18.8125 39.015625 
Q 14.890625 38.140625 10.796875 36.28125 
z
" id="DejaVuSans-53"/>
      </defs>
      <g transform="translate(389.594133 322.182437)scale(0.1 -0.1)">
       <use xlink:href="#DejaVuSans-53"/>
       <use x="63.623047" xlink:href="#DejaVuSans-48"/>
       <use x="127.246094" xlink:href="#DejaVuSans-48"/>
      </g>
     </g>
    </g>
    <g id="text_7">
     <!-- Generations -->
     <defs>
      <path d="M 59.515625 10.40625 
L 59.515625 29.984375 
L 43.40625 29.984375 
L 43.40625 38.09375 
L 69.28125 38.09375 
L 69.28125 6.78125 
Q 63.578125 2.734375 56.6875 0.65625 
Q 49.8125 -1.421875 42 -1.421875 
Q 24.90625 -1.421875 15.25 8.5625 
Q 5.609375 18.5625 5.609375 36.375 
Q 5.609375 54.25 15.25 64.234375 
Q 24.90625 74.21875 42 74.21875 
Q 49.125 74.21875 55.546875 72.453125 
Q 61.96875 70.703125 67.390625 67.28125 
L 67.390625 56.78125 
Q 61.921875 61.421875 55.765625 63.765625 
Q 49.609375 66.109375 42.828125 66.109375 
Q 29.4375 66.109375 22.71875 58.640625 
Q 16.015625 51.171875 16.015625 36.375 
Q 16.015625 21.625 22.71875 14.15625 
Q 29.4375 6.6875 42.828125 6.6875 
Q 48.046875 6.6875 52.140625 7.59375 
Q 56.25 8.5 59.515625 10.40625 
z
" id="DejaVuSans-71"/>
      <path d="M 56.203125 29.59375 
L 56.203125 25.203125 
L 14.890625 25.203125 
Q 15.484375 15.921875 20.484375 11.0625 
Q 25.484375 6.203125 34.421875 6.203125 
Q 39.59375 6.203125 44.453125 7.46875 
Q 49.3125 8.734375 54.109375 11.28125 
L 54.109375 2.78125 
Q 49.265625 0.734375 44.1875 -0.34375 
Q 39.109375 -1.421875 33.890625 -1.421875 
Q 20.796875 -1.421875 13.15625 6.1875 
Q 5.515625 13.8125 5.515625 26.8125 
Q 5.515625 40.234375 12.765625 48.109375 
Q 20.015625 56 32.328125 56 
Q 43.359375 56 49.78125 48.890625 
Q 56.203125 41.796875 56.203125 29.59375 
z
M 47.21875 32.234375 
Q 47.125 39.59375 43.09375 43.984375 
Q 39.0625 48.390625 32.421875 48.390625 
Q 24.90625 48.390625 20.390625 44.140625 
Q 15.875 39.890625 15.1875 32.171875 
z
" id="DejaVuSans-101"/>
      <path d="M 54.890625 33.015625 
L 54.890625 0 
L 45.90625 0 
L 45.90625 32.71875 
Q 45.90625 40.484375 42.875 44.328125 
Q 39.84375 48.1875 33.796875 48.1875 
Q 26.515625 48.1875 22.3125 43.546875 
Q 18.109375 38.921875 18.109375 30.90625 
L 18.109375 0 
L 9.078125 0 
L 9.078125 54.6875 
L 18.109375 54.6875 
L 18.109375 46.1875 
Q 21.34375 51.125 25.703125 53.5625 
Q 30.078125 56 35.796875 56 
Q 45.21875 56 50.046875 50.171875 
Q 54.890625 44.34375 54.890625 33.015625 
z
" id="DejaVuSans-110"/>
      <path d="M 41.109375 46.296875 
Q 39.59375 47.171875 37.8125 47.578125 
Q 36.03125 48 33.890625 48 
Q 26.265625 48 22.1875 43.046875 
Q 18.109375 38.09375 18.109375 28.8125 
L 18.109375 0 
L 9.078125 0 
L 9.078125 54.6875 
L 18.109375 54.6875 
L 18.109375 46.1875 
Q 20.953125 51.171875 25.484375 53.578125 
Q 30.03125 56 36.53125 56 
Q 37.453125 56 38.578125 55.875 
Q 39.703125 55.765625 41.0625 55.515625 
z
" id="DejaVuSans-114"/>
      <path d="M 34.28125 27.484375 
Q 23.390625 27.484375 19.1875 25 
Q 14.984375 22.515625 14.984375 16.5 
Q 14.984375 11.71875 18.140625 8.90625 
Q 21.296875 6.109375 26.703125 6.109375 
Q 34.1875 6.109375 38.703125 11.40625 
Q 43.21875 16.703125 43.21875 25.484375 
L 43.21875 27.484375 
z
M 52.203125 31.203125 
L 52.203125 0 
L 43.21875 0 
L 43.21875 8.296875 
Q 40.140625 3.328125 35.546875 0.953125 
Q 30.953125 -1.421875 24.3125 -1.421875 
Q 15.921875 -1.421875 10.953125 3.296875 
Q 6 8.015625 6 15.921875 
Q 6 25.140625 12.171875 29.828125 
Q 18.359375 34.515625 30.609375 34.515625 
L 43.21875 34.515625 
L 43.21875 35.40625 
Q 43.21875 41.609375 39.140625 45 
Q 35.0625 48.390625 27.6875 48.390625 
Q 23 48.390625 18.546875 47.265625 
Q 14.109375 46.140625 10.015625 43.890625 
L 10.015625 52.203125 
Q 14.9375 54.109375 19.578125 55.046875 
Q 24.21875 56 28.609375 56 
Q 40.484375 56 46.34375 49.84375 
Q 52.203125 43.703125 52.203125 31.203125 
z
" id="DejaVuSans-97"/>
      <path d="M 18.3125 70.21875 
L 18.3125 54.6875 
L 36.8125 54.6875 
L 36.8125 47.703125 
L 18.3125 47.703125 
L 18.3125 18.015625 
Q 18.3125 11.328125 20.140625 9.421875 
Q 21.96875 7.515625 27.59375 7.515625 
L 36.8125 7.515625 
L 36.8125 0 
L 27.59375 0 
Q 17.1875 0 13.234375 3.875 
Q 9.28125 7.765625 9.28125 18.015625 
L 9.28125 47.703125 
L 2.6875 47.703125 
L 2.6875 54.6875 
L 9.28125 54.6875 
L 9.28125 70.21875 
z
" id="DejaVuSans-116"/>
      <path d="M 9.421875 54.6875 
L 18.40625 54.6875 
L 18.40625 0 
L 9.421875 0 
z
M 9.421875 75.984375 
L 18.40625 75.984375 
L 18.40625 64.59375 
L 9.421875 64.59375 
z
" id="DejaVuSans-105"/>
      <path d="M 30.609375 48.390625 
Q 23.390625 48.390625 19.1875 42.75 
Q 14.984375 37.109375 14.984375 27.296875 
Q 14.984375 17.484375 19.15625 11.84375 
Q 23.34375 6.203125 30.609375 6.203125 
Q 37.796875 6.203125 41.984375 11.859375 
Q 46.1875 17.53125 46.1875 27.296875 
Q 46.1875 37.015625 41.984375 42.703125 
Q 37.796875 48.390625 30.609375 48.390625 
z
M 30.609375 56 
Q 42.328125 56 49.015625 48.375 
Q 55.71875 40.765625 55.71875 27.296875 
Q 55.71875 13.875 49.015625 6.21875 
Q 42.328125 -1.421875 30.609375 -1.421875 
Q 18.84375 -1.421875 12.171875 6.21875 
Q 5.515625 13.875 5.515625 27.296875 
Q 5.515625 40.765625 12.171875 48.375 
Q 18.84375 56 30.609375 56 
z
" id="DejaVuSans-111"/>
      <path d="M 44.28125 53.078125 
L 44.28125 44.578125 
Q 40.484375 46.53125 36.375 47.5 
Q 32.28125 48.484375 27.875 48.484375 
Q 21.1875 48.484375 17.84375 46.4375 
Q 14.5 44.390625 14.5 40.28125 
Q 14.5 37.15625 16.890625 35.375 
Q 19.28125 33.59375 26.515625 31.984375 
L 29.59375 31.296875 
Q 39.15625 29.25 43.1875 25.515625 
Q 47.21875 21.78125 47.21875 15.09375 
Q 47.21875 7.46875 41.1875 3.015625 
Q 35.15625 -1.421875 24.609375 -1.421875 
Q 20.21875 -1.421875 15.453125 -0.5625 
Q 10.6875 0.296875 5.421875 2 
L 5.421875 11.28125 
Q 10.40625 8.6875 15.234375 7.390625 
Q 20.0625 6.109375 24.8125 6.109375 
Q 31.15625 6.109375 34.5625 8.28125 
Q 37.984375 10.453125 37.984375 14.40625 
Q 37.984375 18.0625 35.515625 20.015625 
Q 33.0625 21.96875 24.703125 23.78125 
L 21.578125 24.515625 
Q 13.234375 26.265625 9.515625 29.90625 
Q 5.8125 33.546875 5.8125 39.890625 
Q 5.8125 47.609375 11.28125 51.796875 
Q 16.75 56 26.8125 56 
Q 31.78125 56 36.171875 55.265625 
Q 40.578125 54.546875 44.28125 53.078125 
z
" id="DejaVuSans-115"/>
     </defs>
     <g transform="translate(205.662344 335.860562)scale(0.1 -0.1)">
      <use xlink:href="#DejaVuSans-71"/>
      <use x="77.490234" xlink:href="#DejaVuSans-101"/>
      <use x="139.013672" xlink:href="#DejaVuSans-110"/>
      <use x="202.392578" xlink:href="#DejaVuSans-101"/>
      <use x="263.916016" xlink:href="#DejaVuSans-114"/>
      <use x="305.029297" xlink:href="#DejaVuSans-97"/>
      <use x="366.308594" xlink:href="#DejaVuSans-116"/>
      <use x="405.517578" xlink:href="#DejaVuSans-105"/>
      <use x="433.300781" xlink:href="#DejaVuSans-111"/>
      <use x="494.482422" xlink:href="#DejaVuSans-110"/>
      <use x="557.861328" xlink:href="#DejaVuSans-115"/>
     </g>
    </g>
   </g>
   <g id="matplotlib.axis_2">
    <g id="ytick_1">
     <g id="line2d_13">
      <path clip-path="url(#p714a115bc6)" d="M 57.6 296.587949 
L 414.72 296.587949 
" style="fill:none;stroke:#b0b0b0;stroke-linecap:square;stroke-width:0.8;"/>
     </g>
     <g id="line2d_14">
      <defs>
       <path d="M 0 0 
L -3.5 0 
" id="m11847ae4c6" style="stroke:#000000;stroke-width:0.8;"/>
      </defs>
      <g>
       <use style="stroke:#000000;stroke-width:0.8;" x="57.6" xlink:href="#m11847ae4c6" y="296.587949"/>
      </g>
     </g>
     <g id="text_8">
      <!-- 22.5 -->
      <defs>
       <path d="M 10.6875 12.40625 
L 21 12.40625 
L 21 0 
L 10.6875 0 
z
" id="DejaVuSans-46"/>
      </defs>
      <g transform="translate(28.334375 300.387168)scale(0.1 -0.1)">
       <use xlink:href="#DejaVuSans-50"/>
       <use x="63.623047" xlink:href="#DejaVuSans-50"/>
       <use x="127.246094" xlink:href="#DejaVuSans-46"/>
       <use x="159.033203" xlink:href="#DejaVuSans-53"/>
      </g>
     </g>
    </g>
    <g id="ytick_2">
     <g id="line2d_15">
      <path clip-path="url(#p714a115bc6)" d="M 57.6 261.870813 
L 414.72 261.870813 
" style="fill:none;stroke:#b0b0b0;stroke-linecap:square;stroke-width:0.8;"/>
     </g>
     <g id="line2d_16">
      <g>
       <use style="stroke:#000000;stroke-width:0.8;" x="57.6" xlink:href="#m11847ae4c6" y="261.870813"/>
      </g>
     </g>
     <g id="text_9">
      <!-- 25.0 -->
      <g transform="translate(28.334375 265.670032)scale(0.1 -0.1)">
       <use xlink:href="#DejaVuSans-50"/>
       <use x="63.623047" xlink:href="#DejaVuSans-53"/>
       <use x="127.246094" xlink:href="#DejaVuSans-46"/>
       <use x="159.033203" xlink:href="#DejaVuSans-48"/>
      </g>
     </g>
    </g>
    <g id="ytick_3">
     <g id="line2d_17">
      <path clip-path="url(#p714a115bc6)" d="M 57.6 227.153678 
L 414.72 227.153678 
" style="fill:none;stroke:#b0b0b0;stroke-linecap:square;stroke-width:0.8;"/>
     </g>
     <g id="line2d_18">
      <g>
       <use style="stroke:#000000;stroke-width:0.8;" x="57.6" xlink:href="#m11847ae4c6" y="227.153678"/>
      </g>
     </g>
     <g id="text_10">
      <!-- 27.5 -->
      <defs>
       <path d="M 8.203125 72.90625 
L 55.078125 72.90625 
L 55.078125 68.703125 
L 28.609375 0 
L 18.3125 0 
L 43.21875 64.59375 
L 8.203125 64.59375 
z
" id="DejaVuSans-55"/>
      </defs>
      <g transform="translate(28.334375 230.952896)scale(0.1 -0.1)">
       <use xlink:href="#DejaVuSans-50"/>
       <use x="63.623047" xlink:href="#DejaVuSans-55"/>
       <use x="127.246094" xlink:href="#DejaVuSans-46"/>
       <use x="159.033203" xlink:href="#DejaVuSans-53"/>
      </g>
     </g>
    </g>
    <g id="ytick_4">
     <g id="line2d_19">
      <path clip-path="url(#p714a115bc6)" d="M 57.6 192.436542 
L 414.72 192.436542 
" style="fill:none;stroke:#b0b0b0;stroke-linecap:square;stroke-width:0.8;"/>
     </g>
     <g id="line2d_20">
      <g>
       <use style="stroke:#000000;stroke-width:0.8;" x="57.6" xlink:href="#m11847ae4c6" y="192.436542"/>
      </g>
     </g>
     <g id="text_11">
      <!-- 30.0 -->
      <g transform="translate(28.334375 196.235761)scale(0.1 -0.1)">
       <use xlink:href="#DejaVuSans-51"/>
       <use x="63.623047" xlink:href="#DejaVuSans-48"/>
       <use x="127.246094" xlink:href="#DejaVuSans-46"/>
       <use x="159.033203" xlink:href="#DejaVuSans-48"/>
      </g>
     </g>
    </g>
    <g id="ytick_5">
     <g id="line2d_21">
      <path clip-path="url(#p714a115bc6)" d="M 57.6 157.719407 
L 414.72 157.719407 
" style="fill:none;stroke:#b0b0b0;stroke-linecap:square;stroke-width:0.8;"/>
     </g>
     <g id="line2d_22">
      <g>
       <use style="stroke:#000000;stroke-width:0.8;" x="57.6" xlink:href="#m11847ae4c6" y="157.719407"/>
      </g>
     </g>
     <g id="text_12">
      <!-- 32.5 -->
      <g transform="translate(28.334375 161.518625)scale(0.1 -0.1)">
       <use xlink:href="#DejaVuSans-51"/>
       <use x="63.623047" xlink:href="#DejaVuSans-50"/>
       <use x="127.246094" xlink:href="#DejaVuSans-46"/>
       <use x="159.033203" xlink:href="#DejaVuSans-53"/>
      </g>
     </g>
    </g>
    <g id="ytick_6">
     <g id="line2d_23">
      <path clip-path="url(#p714a115bc6)" d="M 57.6 123.002271 
L 414.72 123.002271 
" style="fill:none;stroke:#b0b0b0;stroke-linecap:square;stroke-width:0.8;"/>
     </g>
     <g id="line2d_24">
      <g>
       <use style="stroke:#000000;stroke-width:0.8;" x="57.6" xlink:href="#m11847ae4c6" y="123.002271"/>
      </g>
     </g>
     <g id="text_13">
      <!-- 35.0 -->
      <g transform="translate(28.334375 126.80149)scale(0.1 -0.1)">
       <use xlink:href="#DejaVuSans-51"/>
       <use x="63.623047" xlink:href="#DejaVuSans-53"/>
       <use x="127.246094" xlink:href="#DejaVuSans-46"/>
       <use x="159.033203" xlink:href="#DejaVuSans-48"/>
      </g>
     </g>
    </g>
    <g id="ytick_7">
     <g id="line2d_25">
      <path clip-path="url(#p714a115bc6)" d="M 57.6 88.285136 
L 414.72 88.285136 
" style="fill:none;stroke:#b0b0b0;stroke-linecap:square;stroke-width:0.8;"/>
     </g>
     <g id="line2d_26">
      <g>
       <use style="stroke:#000000;stroke-width:0.8;" x="57.6" xlink:href="#m11847ae4c6" y="88.285136"/>
      </g>
     </g>
     <g id="text_14">
      <!-- 37.5 -->
      <g transform="translate(28.334375 92.084354)scale(0.1 -0.1)">
       <use xlink:href="#DejaVuSans-51"/>
       <use x="63.623047" xlink:href="#DejaVuSans-55"/>
       <use x="127.246094" xlink:href="#DejaVuSans-46"/>
       <use x="159.033203" xlink:href="#DejaVuSans-53"/>
      </g>
     </g>
    </g>
    <g id="ytick_8">
     <g id="line2d_27">
      <path clip-path="url(#p714a115bc6)" d="M 57.6 53.568 
L 414.72 53.568 
" style="fill:none;stroke:#b0b0b0;stroke-linecap:square;stroke-width:0.8;"/>
     </g>
     <g id="line2d_28">
      <g>
       <use style="stroke:#000000;stroke-width:0.8;" x="57.6" xlink:href="#m11847ae4c6" y="53.568"/>
      </g>
     </g>
     <g id="text_15">
      <!-- 40.0 -->
      <g transform="translate(28.334375 57.367219)scale(0.1 -0.1)">
       <use xlink:href="#DejaVuSans-52"/>
       <use x="63.623047" xlink:href="#DejaVuSans-48"/>
       <use x="127.246094" xlink:href="#DejaVuSans-46"/>
       <use x="159.033203" xlink:href="#DejaVuSans-48"/>
      </g>
     </g>
    </g>
    <g id="text_16">
     <!-- Fitness -->
     <defs>
      <path d="M 9.8125 72.90625 
L 51.703125 72.90625 
L 51.703125 64.59375 
L 19.671875 64.59375 
L 19.671875 43.109375 
L 48.578125 43.109375 
L 48.578125 34.8125 
L 19.671875 34.8125 
L 19.671875 0 
L 9.8125 0 
z
" id="DejaVuSans-70"/>
     </defs>
     <g transform="translate(22.254687 192.202219)rotate(-90)scale(0.1 -0.1)">
      <use xlink:href="#DejaVuSans-70"/>
      <use x="57.410156" xlink:href="#DejaVuSans-105"/>
      <use x="85.193359" xlink:href="#DejaVuSans-116"/>
      <use x="124.402344" xlink:href="#DejaVuSans-110"/>
      <use x="187.78125" xlink:href="#DejaVuSans-101"/>
      <use x="249.304688" xlink:href="#DejaVuSans-115"/>
      <use x="301.404297" xlink:href="#DejaVuSans-115"/>
     </g>
    </g>
   </g>
   <g id="line2d_29">
    <path clip-path="url(#p714a115bc6)" d="M 73.832727 288.950179 
L 74.483338 289.123765 
L 75.133948 289.470936 
L 75.784558 295.488 
L 76.435169 290.234713 
L 77.085779 290.609365 
L 77.736389 291.423993 
L 78.386999 285.63737 
L 79.03761 289.644522 
L 79.68822 289.856535 
L 80.33883 291.437508 
L 80.989441 288.245342 
L 81.640051 287.197954 
L 82.290661 288.082251 
L 82.941272 286.015796 
L 83.591882 286.172808 
L 84.242492 287.160979 
L 84.893103 289.785505 
L 85.543713 287.218717 
L 86.194323 287.939119 
L 86.844934 284.319487 
L 87.495544 287.294439 
L 88.146154 288.989807 
L 88.796764 284.900135 
L 89.447375 291.088205 
L 90.097985 290.135471 
L 90.748595 289.4718 
L 91.399206 289.644522 
L 92.049816 286.802394 
L 92.700426 289.250822 
L 93.351037 287.990504 
L 94.001647 291.26583 
L 94.652257 289.820751 
L 95.302868 288.817513 
L 95.953478 285.074165 
L 96.604088 283.256569 
L 97.254698 284.117076 
L 97.905309 285.760327 
L 98.555919 287.790609 
L 99.206529 287.510773 
L 99.85714 284.061867 
L 100.50775 283.977846 
L 101.15836 283.453153 
L 101.808971 283.693013 
L 102.459581 286.450545 
L 103.110191 286.693565 
L 103.760802 283.275363 
L 104.411412 287.735079 
L 105.712633 284.117416 
L 106.363243 288.950179 
L 107.013853 286.407736 
L 107.664463 288.388424 
L 108.315074 282.110903 
L 108.965684 283.658209 
L 109.616294 283.326003 
L 110.266905 282.353923 
L 110.917515 279.333532 
L 111.568125 280.630248 
L 112.218736 282.249772 
L 112.869346 286.207525 
L 113.519956 276.969737 
L 114.170567 279.507118 
L 114.821177 276.347859 
L 115.471787 278.535038 
L 116.122398 279.715421 
L 116.773008 281.138824 
L 117.423618 277.354656 
L 118.074228 276.070122 
L 118.724839 280.791652 
L 119.375449 275.653516 
L 120.026059 279.090513 
L 120.67667 276.521445 
L 121.32728 278.847493 
L 122.628501 276.070122 
L 123.279111 275.757668 
L 123.929721 279.680704 
L 124.580332 278.673907 
L 125.230942 271.799914 
L 125.881552 280.201461 
L 126.532163 275.618799 
L 127.833383 283.812043 
L 128.483993 274.855022 
L 129.134604 281.034672 
L 129.785214 279.507118 
L 130.435824 279.437684 
L 131.086435 278.847493 
L 131.737045 278.951644 
L 132.387655 276.382576 
L 133.038266 283.187135 
L 133.688876 286.554697 
L 134.339486 278.673907 
L 134.990097 279.36825 
L 135.640707 274.542568 
L 136.291317 280.930521 
L 136.941927 278.187867 
L 137.592538 282.041469 
L 138.243148 279.402967 
L 138.893758 280.132027 
L 139.544369 280.097309 
L 140.194979 273.153882 
L 140.845589 281.034672 
L 141.4962 280.409764 
L 142.14681 282.527509 
L 142.79742 277.91013 
L 143.448031 283.256569 
L 144.098641 279.750138 
L 144.749251 279.680704 
L 145.399862 278.118433 
L 146.050472 281.937318 
L 146.701082 281.173541 
L 147.351692 279.750138 
L 148.002303 276.278425 
L 148.652913 282.215055 
L 149.303523 277.250504 
L 149.954134 279.229381 
L 150.604744 281.972035 
L 151.255354 278.187867 
L 151.905965 280.618066 
L 152.556575 277.944847 
L 153.207185 280.999955 
L 153.857796 278.88221 
L 154.508406 278.604473 
L 155.159016 275.688233 
L 155.809627 279.298815 
L 156.460237 273.917659 
L 157.110847 278.951644 
L 157.761457 281.555429 
L 158.412068 280.722218 
L 159.062678 280.270895 
L 159.713288 282.006752 
L 160.363899 282.076186 
L 161.014509 277.111636 
L 161.665119 277.805979 
L 162.31573 272.042934 
L 162.96634 270.723683 
L 163.61695 271.036137 
L 164.267561 271.209723 
L 164.918171 271.834631 
L 165.568781 270.168209 
L 166.219392 267.807443 
L 166.870002 268.224049 
L 167.520612 271.695763 
L 168.171222 269.612735 
L 168.821833 265.654981 
L 169.472443 266.904798 
L 170.123053 269.612735 
L 170.773664 275.931253 
L 171.424274 268.848958 
L 172.074884 272.008217 
L 172.725495 267.494989 
L 173.376105 264.474598 
L 174.026715 272.94558 
L 174.677326 270.584814 
L 175.327936 271.279157 
L 175.978546 264.960638 
L 176.629156 269.821037 
L 177.279767 271.626328 
L 177.930377 270.411229 
L 178.580987 267.425555 
L 179.231598 268.224049 
L 179.882208 264.57875 
L 180.532818 272.45954 
L 181.183429 268.189332 
L 181.834039 266.488192 
L 182.484649 267.564424 
L 183.13526 268.085181 
L 183.78587 268.918392 
L 184.43648 272.70256 
L 185.087091 270.793117 
L 185.737701 269.334997 
L 186.388311 265.759132 
L 187.038921 271.834631 
L 187.689532 271.695763 
L 188.340142 265.06479 
L 188.990752 272.320671 
L 189.641363 269.855754 
L 190.291973 271.175006 
L 190.942583 267.008949 
L 191.593194 267.911595 
L 192.243804 273.049731 
L 192.894414 269.5433 
L 193.545025 272.667842 
L 194.195635 271.626328 
L 194.846245 269.05726 
L 195.496856 268.987826 
L 196.147466 274.612002 
L 196.798076 269.716886 
L 197.448686 272.042934 
L 198.099297 268.675372 
L 198.749907 268.501786 
L 199.400517 268.050463 
L 200.051128 270.064057 
L 200.701738 270.7584 
L 201.352348 272.21652 
L 202.002959 266.314607 
L 202.653569 268.050463 
L 203.304179 268.050463 
L 203.95479 270.688966 
L 204.6054 269.855754 
L 205.25601 275.028608 
L 205.906621 271.418026 
L 206.557231 272.355388 
L 207.207841 271.24444 
L 207.858451 270.550097 
L 208.509062 262.808176 
L 209.159672 268.536503 
L 210.460893 273.639922 
L 211.111503 271.00142 
L 211.762113 273.084448 
L 212.412724 268.085181 
L 213.063334 270.098774 
L 213.713944 268.675372 
L 214.364555 271.452743 
L 215.015165 271.00142 
L 215.665775 268.918392 
L 216.316385 265.967435 
L 216.966996 270.897269 
L 217.617606 273.466337 
L 218.268216 268.883675 
L 218.918827 271.348591 
L 219.569437 272.806711 
L 220.220047 270.931986 
L 220.870658 266.557627 
L 221.521268 272.94558 
L 222.171878 270.827834 
L 222.822489 269.612735 
L 223.473099 267.286686 
L 224.123709 268.189332 
L 224.77432 266.939515 
L 225.42493 269.959906 
L 226.07554 272.21652 
L 226.72615 273.570488 
L 227.376761 268.015746 
L 228.027371 275.896536 
L 228.677981 269.091977 
L 229.328592 268.085181 
L 229.979202 267.703292 
L 230.629812 267.981029 
L 231.280423 271.105571 
L 231.931033 268.81424 
L 232.581643 270.931986 
L 233.232254 270.341794 
L 233.882864 266.27989 
L 234.533474 267.599141 
L 235.184085 272.806711 
L 235.834695 269.925189 
L 236.485305 272.45954 
L 237.135915 263.224782 
L 237.786526 264.301013 
L 239.087746 271.24444 
L 239.738357 268.675372 
L 240.388967 269.578017 
L 241.039577 265.759132 
L 241.690188 264.370447 
L 242.340798 270.654249 
L 242.991408 269.994623 
L 243.642019 265.759132 
L 244.292629 263.745539 
L 244.943239 265.342527 
L 245.59385 265.342527 
L 246.24446 270.202926 
L 246.89507 263.294216 
L 247.54568 269.05726 
L 248.196291 266.835364 
L 248.846901 268.258766 
L 249.497511 274.299548 
L 250.148122 267.286686 
L 250.798732 267.633858 
L 251.449342 267.286686 
L 252.099953 272.181803 
L 252.750563 268.779523 
L 253.401173 273.015014 
L 254.051784 270.098774 
L 254.702394 264.82177 
L 255.353004 269.890472 
L 256.003615 269.126695 
L 256.654225 265.273093 
L 257.304835 265.446678 
L 257.955445 272.633125 
L 258.606056 266.731212 
L 259.256666 269.994623 
L 259.907276 267.286686 
L 260.557887 270.619531 
L 261.208497 269.682169 
L 261.859107 271.591611 
L 262.509718 269.5433 
L 263.160328 273.709357 
L 263.810938 272.21652 
L 264.461549 273.674639 
L 265.112159 271.765197 
L 265.762769 268.605938 
L 266.413379 268.432352 
L 267.06399 271.799914 
L 267.7146 273.639922 
L 268.36521 272.494257 
L 269.015821 273.119165 
L 269.666431 270.445946 
L 270.317041 272.737277 
L 270.967652 268.015746 
L 271.618262 268.501786 
L 272.268872 263.641387 
L 272.919483 270.688966 
L 273.570093 270.723683 
L 274.220703 267.738009 
L 274.871314 268.015746 
L 275.521924 267.217252 
L 276.172534 267.321404 
L 276.823144 277.146353 
L 277.473755 273.570488 
L 278.124365 274.681436 
L 278.774975 277.319939 
L 279.425586 270.133492 
L 280.076196 271.626328 
L 280.726806 269.994623 
L 281.377417 273.119165 
L 282.028027 270.168209 
L 282.678637 270.237643 
L 283.329248 267.251969 
L 283.979858 266.314607 
L 284.630468 266.557627 
L 285.281079 270.584814 
L 286.582299 267.147818 
L 287.232909 266.765929 
L 287.88352 271.591611 
L 288.53413 270.202926 
L 289.18474 272.424823 
L 289.835351 272.737277 
L 290.485961 264.648184 
L 291.136571 269.265563 
L 291.787182 271.765197 
L 292.437792 266.627061 
L 293.088402 271.73048 
L 293.739013 270.480663 
L 294.389623 271.070854 
L 295.040233 274.889739 
L 295.690844 269.612735 
L 296.341454 272.077651 
L 296.992064 272.910862 
L 297.642674 271.036137 
L 298.293285 266.765929 
L 298.943895 266.522909 
L 299.594505 268.293483 
L 300.895726 266.106304 
L 301.546336 270.897269 
L 302.196947 271.48746 
L 302.847557 262.808176 
L 303.498167 262.565156 
L 304.148778 271.00142 
L 304.799388 267.182535 
L 305.449998 269.230846 
L 306.100608 269.959906 
L 306.751219 272.147085 
L 307.401829 272.251237 
L 308.052439 267.564424 
L 308.70305 272.598408 
L 309.35366 268.154615 
L 310.00427 269.473866 
L 310.654881 266.731212 
L 311.305491 272.320671 
L 311.956101 270.445946 
L 312.606712 272.841428 
L 313.257322 270.931986 
L 313.907932 271.73048 
L 314.558543 275.410496 
L 315.209153 268.605938 
L 315.859763 270.376512 
L 316.510373 270.723683 
L 317.160984 272.633125 
L 317.811594 271.661046 
L 318.462204 268.779523 
L 319.112815 268.501786 
L 319.763425 270.341794 
L 320.414035 268.119898 
L 321.064646 266.418758 
L 321.715256 269.230846 
L 322.365866 265.238375 
L 323.016477 272.285954 
L 323.667087 268.328201 
L 324.317697 266.03687 
L 324.968308 266.870081 
L 325.618918 266.27989 
L 326.269528 268.57122 
L 326.920138 268.744806 
L 327.570749 268.293483 
L 328.221359 270.723683 
L 328.871969 267.425555 
L 329.52258 272.008217 
L 330.17319 271.24444 
L 330.8238 268.362918 
L 331.474411 267.078384 
L 332.125021 271.556894 
L 332.775631 273.049731 
L 333.426242 266.731212 
L 334.727462 274.716153 
L 335.378073 267.946312 
L 336.028683 273.015014 
L 336.679293 264.266296 
L 337.329903 268.953109 
L 337.980514 266.349324 
L 338.631124 269.05726 
L 339.281734 274.612002 
L 339.932345 265.759132 
L 340.582955 275.028608 
L 341.233565 267.356121 
L 341.884176 270.27236 
L 342.534786 270.897269 
L 343.185396 267.981029 
L 343.836007 274.820305 
L 344.486617 271.765197 
L 345.137227 273.119165 
L 345.787837 268.258766 
L 346.438448 270.411229 
L 347.089058 268.605938 
L 347.739668 272.355388 
L 348.390279 272.008217 
L 349.040889 264.301013 
L 349.691499 268.119898 
L 350.34211 265.06479 
L 350.99272 266.03687 
L 351.64333 266.27989 
L 352.293941 268.81424 
L 352.944551 270.7584 
L 354.896382 265.967435 
L 355.546992 272.147085 
L 356.197602 267.113101 
L 356.848213 270.480663 
L 357.498823 267.772726 
L 358.149433 268.987826 
L 358.800044 268.467069 
L 359.450654 271.834631 
L 360.101264 267.911595 
L 360.751875 270.897269 
L 361.402485 272.21652 
L 362.053095 269.890472 
L 362.703706 270.654249 
L 363.354316 268.987826 
L 364.004926 271.661046 
L 364.655537 267.217252 
L 365.306147 268.501786 
L 365.956757 272.910862 
L 366.607367 271.834631 
L 367.257978 269.925189 
L 367.908588 266.835364 
L 368.559198 268.085181 
L 369.209809 269.05726 
L 369.860419 270.376512 
L 370.511029 264.301013 
L 371.16164 267.876878 
L 371.81225 272.147085 
L 372.46286 267.564424 
L 373.113471 264.682901 
L 373.764081 268.81424 
L 374.414691 271.036137 
L 375.065302 272.21652 
L 375.715912 270.376512 
L 376.366522 266.314607 
L 377.017132 268.258766 
L 377.667743 268.710089 
L 378.318353 267.425555 
L 379.619574 270.51538 
L 380.270184 268.779523 
L 381.571405 266.384041 
L 382.222015 265.932718 
L 382.872625 268.154615 
L 383.523236 268.918392 
L 384.173846 266.488192 
L 384.824456 267.356121 
L 385.475066 264.370447 
L 386.125677 268.362918 
L 386.776287 268.848958 
L 387.426897 269.821037 
L 388.077508 266.349324 
L 388.728118 269.959906 
L 389.378728 269.751603 
L 390.029339 265.585547 
L 390.679949 268.779523 
L 391.330559 269.05726 
L 391.98117 271.48746 
L 392.63178 262.113833 
L 393.28239 271.626328 
L 393.933001 271.348591 
L 394.583611 268.224049 
L 395.234221 270.51538 
L 395.884831 267.182535 
L 396.535442 266.661778 
L 397.186052 265.134224 
L 397.836662 266.210455 
L 398.487273 265.689698 
L 398.487273 265.689698 
" style="fill:none;stroke:#0000ff;stroke-linecap:square;stroke-width:1.5;"/>
   </g>
   <g id="line2d_30">
    <path clip-path="url(#p714a115bc6)" d="M 73.832727 238.914126 
L 74.483338 243.728206 
L 75.133948 235.943744 
L 75.784558 247.2514 
L 77.085779 240.125318 
L 77.736389 242.299591 
L 78.386999 236.61068 
L 79.03761 239.629242 
L 79.68822 239.343269 
L 80.33883 243.370538 
L 80.989441 234.710871 
L 81.640051 239.771246 
L 82.290661 239.300351 
L 82.941272 237.61498 
L 83.591882 236.886035 
L 84.242492 237.847328 
L 84.893103 238.337034 
L 85.543713 237.178472 
L 86.194323 241.672324 
L 86.844934 236.111989 
L 87.495544 237.368915 
L 88.146154 238.306864 
L 88.796764 235.862994 
L 89.447375 240.706553 
L 90.097985 239.806182 
L 90.748595 239.599129 
L 91.399206 241.972718 
L 92.049816 238.588868 
L 92.700426 241.661155 
L 93.351037 240.283166 
L 94.001647 241.418316 
L 94.652257 238.367632 
L 95.302868 241.13883 
L 95.953478 235.483426 
L 96.604088 232.349551 
L 97.254698 234.952036 
L 97.905309 231.125311 
L 98.555919 236.121735 
L 99.206529 239.346631 
L 100.50775 233.565361 
L 101.15836 234.955039 
L 101.808971 233.939345 
L 102.459581 237.42759 
L 103.110191 236.417507 
L 103.760802 236.447423 
L 104.411412 235.973064 
L 105.062022 238.249829 
L 105.712633 234.084462 
L 106.363243 240.301573 
L 107.013853 239.63011 
L 107.664463 238.160476 
L 108.315074 232.84056 
L 108.965684 232.34488 
L 109.616294 237.06386 
L 110.266905 231.208854 
L 110.917515 229.377143 
L 111.568125 232.610868 
L 112.218736 232.558999 
L 112.869346 233.673272 
L 113.519956 224.687203 
L 114.170567 228.074927 
L 114.821177 224.34035 
L 115.471787 230.700923 
L 116.122398 229.42703 
L 116.773008 230.518728 
L 117.423618 228.165436 
L 118.074228 226.392836 
L 118.724839 230.767946 
L 119.375449 221.650892 
L 120.026059 228.56564 
L 120.67667 227.814454 
L 121.32728 228.369219 
L 121.97789 224.86038 
L 122.628501 225.033346 
L 123.279111 226.660224 
L 123.929721 229.269905 
L 124.580332 226.814547 
L 125.230942 220.046876 
L 125.881552 228.730852 
L 126.532163 226.797272 
L 127.182773 230.054091 
L 127.833383 231.808416 
L 128.483993 221.529185 
L 129.134604 232.628277 
L 129.785214 228.103056 
L 130.435824 225.897107 
L 131.086435 230.267327 
L 131.737045 230.492492 
L 132.387655 226.858902 
L 133.038266 233.013919 
L 133.688876 237.265179 
L 134.339486 227.150309 
L 134.990097 226.877778 
L 135.640707 223.813063 
L 136.291317 229.047286 
L 136.941927 225.547026 
L 137.592538 228.93856 
L 138.243148 226.062994 
L 138.893758 231.239698 
L 139.544369 227.657481 
L 140.194979 222.258337 
L 140.845589 233.462112 
L 141.4962 231.631953 
L 142.14681 229.248581 
L 142.79742 227.799988 
L 143.448031 235.52658 
L 144.098641 231.785491 
L 144.749251 226.596047 
L 145.399862 228.637367 
L 146.050472 232.425327 
L 146.701082 231.475091 
L 147.351692 231.19608 
L 148.002303 227.771554 
L 148.652913 233.306952 
L 149.303523 227.72105 
L 149.954134 228.031316 
L 150.604744 231.209468 
L 151.255354 226.536283 
L 151.905965 228.366759 
L 152.556575 224.842029 
L 153.207185 229.030838 
L 153.857796 226.268852 
L 154.508406 225.610201 
L 155.159016 225.647411 
L 155.809627 227.311183 
L 156.460237 223.302135 
L 157.110847 229.9582 
L 157.761457 232.984792 
L 158.412068 230.393734 
L 159.062678 231.16486 
L 159.713288 232.640011 
L 160.363899 233.367216 
L 161.014509 227.151772 
L 161.665119 223.48593 
L 162.31573 222.649942 
L 162.96634 221.028738 
L 163.61695 220.01371 
L 164.267561 222.279015 
L 164.918171 222.214249 
L 165.568781 218.767159 
L 166.219392 216.774919 
L 166.870002 215.356896 
L 167.520612 219.76943 
L 168.171222 219.674684 
L 168.821833 212.997898 
L 169.472443 218.07104 
L 170.123053 219.232548 
L 170.773664 223.800321 
L 171.424274 217.140246 
L 172.074884 222.00185 
L 172.725495 220.155326 
L 173.376105 212.094563 
L 174.026715 222.384282 
L 174.677326 219.346756 
L 175.327936 221.540769 
L 175.978546 214.225147 
L 177.279767 221.414271 
L 177.930377 218.050652 
L 178.580987 216.914807 
L 179.231598 216.462779 
L 179.882208 211.06123 
L 180.532818 222.042238 
L 181.183429 218.481037 
L 181.834039 215.707204 
L 182.484649 218.77846 
L 183.13526 216.746542 
L 183.78587 217.951662 
L 184.43648 223.123184 
L 185.087091 220.570116 
L 185.737701 220.743718 
L 186.388311 217.540343 
L 187.038921 220.317034 
L 187.689532 220.517582 
L 188.340142 214.616885 
L 188.990752 220.219526 
L 189.641363 214.596587 
L 190.291973 221.238102 
L 190.942583 215.706279 
L 191.593194 215.571279 
L 192.243804 223.091833 
L 192.894414 223.199383 
L 193.545025 220.860395 
L 194.195635 222.032575 
L 194.846245 219.520506 
L 195.496856 220.463565 
L 196.147466 221.685606 
L 196.798076 218.8717 
L 197.448686 221.435031 
L 198.099297 219.558489 
L 198.749907 220.207281 
L 199.400517 220.313253 
L 200.051128 220.630172 
L 200.701738 219.686862 
L 201.352348 221.391819 
L 202.002959 215.059885 
L 202.653569 216.994834 
L 203.304179 216.142645 
L 203.95479 219.756621 
L 204.6054 220.798833 
L 205.25601 224.137988 
L 205.906621 219.765566 
L 206.557231 221.199763 
L 207.207841 223.020102 
L 207.858451 218.768003 
L 208.509062 212.684627 
L 209.159672 218.074266 
L 209.810282 218.248063 
L 210.460893 224.113778 
L 211.111503 222.4864 
L 211.762113 223.081274 
L 212.412724 215.622557 
L 213.063334 220.132252 
L 213.713944 221.226001 
L 214.364555 219.718106 
L 215.015165 221.075922 
L 215.665775 215.045373 
L 216.316385 214.740234 
L 217.617606 223.76813 
L 218.268216 216.360928 
L 218.918827 219.945291 
L 219.569437 221.130922 
L 220.220047 219.350698 
L 220.870658 216.442446 
L 221.521268 222.699929 
L 222.171878 223.238302 
L 222.822489 220.837062 
L 223.473099 214.924038 
L 224.123709 215.240567 
L 224.77432 214.828135 
L 225.42493 219.816643 
L 226.07554 223.632422 
L 226.72615 222.400316 
L 227.376761 218.145321 
L 228.027371 223.862695 
L 228.677981 218.097528 
L 229.328592 215.594996 
L 229.979202 215.063871 
L 230.629812 218.16921 
L 231.280423 220.40852 
L 231.931033 216.650661 
L 232.581643 221.919566 
L 233.232254 220.391762 
L 233.882864 217.811598 
L 234.533474 217.208142 
L 235.184085 223.773443 
L 235.834695 218.405895 
L 236.485305 223.418897 
L 237.135915 213.332513 
L 237.786526 214.619106 
L 238.437136 220.012914 
L 239.087746 221.630507 
L 239.738357 218.269917 
L 240.388967 219.293078 
L 241.039577 215.937249 
L 241.690188 213.645207 
L 242.340798 221.995845 
L 242.991408 216.819077 
L 243.642019 210.478637 
L 244.292629 215.938089 
L 244.943239 215.89772 
L 245.59385 216.338457 
L 246.24446 218.671656 
L 246.89507 212.475171 
L 247.54568 215.489823 
L 248.196291 213.956357 
L 249.497511 221.485712 
L 250.148122 220.44474 
L 250.798732 217.587641 
L 251.449342 213.02497 
L 252.099953 219.464418 
L 252.750563 218.002238 
L 253.401173 221.664638 
L 254.051784 221.047614 
L 254.702394 214.670527 
L 255.353004 217.747241 
L 256.003615 218.000258 
L 256.654225 213.82614 
L 257.304835 212.747587 
L 257.955445 222.305252 
L 258.606056 218.152027 
L 259.256666 221.325656 
L 259.907276 218.13448 
L 260.557887 224.066247 
L 261.208497 217.368906 
L 261.859107 222.30795 
L 262.509718 219.768576 
L 263.160328 223.879454 
L 263.810938 219.164056 
L 264.461549 224.171364 
L 265.112159 221.975753 
L 265.762769 218.962085 
L 266.413379 218.993895 
L 267.06399 223.437013 
L 267.7146 222.184969 
L 268.36521 225.055301 
L 269.015821 223.157552 
L 269.666431 222.801297 
L 270.317041 221.685012 
L 270.967652 217.292229 
L 271.618262 220.057771 
L 272.268872 210.786911 
L 272.919483 220.06043 
L 273.570093 220.315944 
L 274.220703 213.929372 
L 274.871314 218.738554 
L 275.521924 220.978459 
L 276.172534 217.709281 
L 276.823144 225.409667 
L 278.124365 222.413535 
L 278.774975 227.802361 
L 279.425586 218.24611 
L 280.076196 222.776975 
L 280.726806 221.276152 
L 281.377417 223.652132 
L 282.028027 223.269496 
L 282.678637 216.805738 
L 283.329248 215.037871 
L 283.979858 213.74117 
L 284.630468 214.461386 
L 285.281079 218.442046 
L 285.931689 219.653429 
L 286.582299 217.250513 
L 287.232909 215.859207 
L 287.88352 221.957034 
L 288.53413 220.850836 
L 289.18474 222.158247 
L 289.835351 222.359962 
L 290.485961 214.858437 
L 291.136571 218.348046 
L 291.787182 220.770286 
L 292.437792 213.920652 
L 293.088402 218.09791 
L 293.739013 220.48683 
L 294.389623 221.477879 
L 295.040233 225.706756 
L 295.690844 218.30331 
L 296.341454 218.321398 
L 296.992064 223.758509 
L 297.642674 221.189487 
L 298.293285 214.301468 
L 299.594505 218.554901 
L 300.245116 215.51665 
L 300.895726 215.525022 
L 301.546336 221.219001 
L 302.196947 223.106282 
L 302.847557 210.694633 
L 303.498167 211.830603 
L 304.148778 223.227425 
L 304.799388 214.804616 
L 305.449998 218.227888 
L 306.100608 219.376301 
L 306.751219 220.826938 
L 307.401829 221.381463 
L 308.052439 213.643179 
L 308.70305 224.421343 
L 309.35366 216.366248 
L 310.00427 218.719848 
L 310.654881 216.167996 
L 311.305491 224.484049 
L 311.956101 220.114588 
L 312.606712 221.702911 
L 313.257322 222.762927 
L 313.907932 224.116792 
L 314.558543 224.340894 
L 315.209153 215.626588 
L 315.859763 218.887652 
L 316.510373 218.957011 
L 317.160984 221.224796 
L 317.811594 222.040117 
L 318.462204 218.517563 
L 319.112815 215.769223 
L 319.763425 221.42556 
L 320.414035 216.893591 
L 321.064646 216.939361 
L 321.715256 220.440534 
L 322.365866 217.629156 
L 323.016477 220.414324 
L 323.667087 220.225182 
L 324.317697 216.27618 
L 324.968308 220.550812 
L 325.618918 214.261258 
L 326.269528 214.182077 
L 326.920138 217.391649 
L 327.570749 216.197243 
L 328.221359 217.496811 
L 328.871969 215.941085 
L 329.52258 220.510451 
L 330.17319 222.040325 
L 330.8238 216.17357 
L 331.474411 217.406181 
L 332.125021 221.920386 
L 332.775631 223.440463 
L 333.426242 217.120924 
L 334.076852 219.718772 
L 334.727462 226.401924 
L 335.378073 217.395313 
L 336.028683 224.058202 
L 336.679293 214.152751 
L 337.329903 214.307147 
L 337.980514 214.933269 
L 339.281734 224.243301 
L 339.932345 214.638153 
L 340.582955 222.405412 
L 341.233565 215.742633 
L 341.884176 222.774091 
L 342.534786 220.967316 
L 343.185396 218.76315 
L 343.836007 223.857359 
L 344.486617 224.133401 
L 345.137227 222.419974 
L 345.787837 215.71138 
L 346.438448 218.811193 
L 347.089058 218.932959 
L 347.739668 221.237474 
L 348.390279 220.044469 
L 349.040889 215.106697 
L 349.691499 216.921833 
L 350.34211 213.203199 
L 350.99272 216.577439 
L 351.64333 218.705112 
L 352.293941 220.091366 
L 352.944551 222.893252 
L 353.595161 217.010284 
L 354.245772 219.357506 
L 354.896382 216.434027 
L 355.546992 224.570877 
L 356.197602 215.741136 
L 356.848213 221.195828 
L 357.498823 219.839186 
L 358.149433 215.971964 
L 358.800044 220.242731 
L 359.450654 220.102243 
L 360.101264 217.428009 
L 360.751875 218.581413 
L 361.402485 221.098606 
L 362.053095 219.996271 
L 362.703706 216.982961 
L 363.354316 221.103658 
L 364.655537 216.674492 
L 365.306147 217.915703 
L 365.956757 224.779388 
L 366.607367 223.683691 
L 367.257978 219.771531 
L 367.908588 214.755599 
L 368.559198 214.612237 
L 369.209809 219.666708 
L 369.860419 221.068706 
L 370.511029 211.358804 
L 371.16164 215.509545 
L 371.81225 223.399677 
L 372.46286 214.517549 
L 373.113471 214.668063 
L 373.764081 217.602052 
L 374.414691 219.693449 
L 375.065302 220.722733 
L 375.715912 216.768319 
L 376.366522 217.418679 
L 377.017132 217.617615 
L 377.667743 218.085041 
L 378.318353 215.151186 
L 378.968963 219.439579 
L 379.619574 220.764392 
L 380.270184 218.335645 
L 380.920794 216.354308 
L 381.571405 215.390017 
L 382.222015 213.821026 
L 382.872625 218.060314 
L 383.523236 214.457939 
L 384.173846 218.872391 
L 384.824456 218.883291 
L 385.475066 212.628915 
L 386.125677 218.847093 
L 386.776287 221.065275 
L 387.426897 220.060845 
L 388.077508 215.413725 
L 388.728118 220.846373 
L 390.029339 212.768117 
L 390.679949 221.360453 
L 391.330559 219.142386 
L 391.98117 222.139387 
L 392.63178 214.265219 
L 393.28239 218.657501 
L 393.933001 221.915108 
L 394.583611 217.412215 
L 395.234221 222.994748 
L 395.884831 213.76561 
L 396.535442 215.759353 
L 397.186052 215.909733 
L 397.836662 215.338596 
L 398.487273 213.030544 
L 398.487273 213.030544 
" style="fill:none;stroke:#008000;stroke-dasharray:9.6,2.4,1.5,2.4;stroke-dashoffset:0;stroke-width:1.5;"/>
   </g>
   <g id="line2d_31">
    <path clip-path="url(#p714a115bc6)" d="M 73.832727 123.002271 
L 74.483338 178.549688 
L 75.133948 136.889125 
L 75.784558 164.662834 
L 76.435169 150.77598 
L 77.085779 178.549688 
L 79.03761 136.889125 
L 79.68822 136.889125 
L 80.33883 164.662834 
L 80.989441 123.002271 
L 81.640051 164.662834 
L 82.290661 164.662834 
L 82.941272 136.889125 
L 83.591882 150.77598 
L 84.242492 150.77598 
L 84.893103 109.115417 
L 86.844934 150.77598 
L 87.495544 150.77598 
L 88.146154 164.662834 
L 88.796764 136.889125 
L 90.097985 136.889125 
L 90.748595 123.002271 
L 91.399206 136.889125 
L 92.049816 123.002271 
L 92.700426 150.77598 
L 93.351037 150.77598 
L 94.001647 123.002271 
L 95.302868 150.77598 
L 95.953478 123.002271 
L 96.604088 123.002271 
L 97.254698 136.889125 
L 97.905309 123.002271 
L 99.206529 150.77598 
L 99.85714 109.115417 
L 100.50775 150.77598 
L 101.15836 150.77598 
L 101.808971 109.115417 
L 102.459581 150.77598 
L 103.110191 136.889125 
L 103.760802 136.889125 
L 105.062022 109.115417 
L 105.712633 150.77598 
L 106.363243 136.889125 
L 107.013853 150.77598 
L 108.315074 150.77598 
L 108.965684 136.889125 
L 109.616294 150.77598 
L 110.266905 123.002271 
L 110.917515 136.889125 
L 111.568125 136.889125 
L 112.218736 150.77598 
L 112.869346 136.889125 
L 113.519956 95.228563 
L 114.170567 109.115417 
L 114.821177 136.889125 
L 115.471787 136.889125 
L 116.122398 95.228563 
L 116.773008 150.77598 
L 117.423618 123.002271 
L 118.074228 136.889125 
L 118.724839 123.002271 
L 119.375449 95.228563 
L 120.026059 136.889125 
L 120.67667 164.662834 
L 121.32728 95.228563 
L 121.97789 136.889125 
L 122.628501 109.115417 
L 123.279111 136.889125 
L 123.929721 95.228563 
L 124.580332 136.889125 
L 125.230942 136.889125 
L 125.881552 109.115417 
L 127.182773 109.115417 
L 127.833383 150.77598 
L 128.483993 95.228563 
L 129.134604 136.889125 
L 129.785214 123.002271 
L 130.435824 136.889125 
L 131.086435 123.002271 
L 131.737045 150.77598 
L 132.387655 136.889125 
L 134.339486 136.889125 
L 134.990097 150.77598 
L 135.640707 109.115417 
L 136.291317 109.115417 
L 136.941927 136.889125 
L 137.592538 150.77598 
L 138.243148 136.889125 
L 138.893758 150.77598 
L 139.544369 123.002271 
L 140.194979 150.77598 
L 140.845589 150.77598 
L 141.4962 164.662834 
L 142.14681 164.662834 
L 142.79742 136.889125 
L 143.448031 164.662834 
L 144.749251 109.115417 
L 145.399862 123.002271 
L 146.701082 123.002271 
L 147.351692 136.889125 
L 148.002303 136.889125 
L 148.652913 109.115417 
L 149.303523 136.889125 
L 149.954134 136.889125 
L 150.604744 150.77598 
L 151.255354 123.002271 
L 151.905965 136.889125 
L 152.556575 136.889125 
L 153.207185 150.77598 
L 153.857796 136.889125 
L 154.508406 150.77598 
L 155.809627 123.002271 
L 156.460237 123.002271 
L 157.761457 150.77598 
L 158.412068 123.002271 
L 159.062678 150.77598 
L 159.713288 109.115417 
L 160.363899 150.77598 
L 161.014509 123.002271 
L 162.31573 123.002271 
L 162.96634 150.77598 
L 163.61695 109.115417 
L 164.267561 109.115417 
L 164.918171 81.341708 
L 165.568781 109.115417 
L 166.219392 123.002271 
L 168.821833 123.002271 
L 169.472443 136.889125 
L 170.773664 109.115417 
L 171.424274 123.002271 
L 172.074884 123.002271 
L 172.725495 136.889125 
L 173.376105 136.889125 
L 174.026715 109.115417 
L 174.677326 109.115417 
L 175.327936 123.002271 
L 175.978546 123.002271 
L 176.629156 136.889125 
L 177.279767 123.002271 
L 177.930377 95.228563 
L 178.580987 109.115417 
L 179.231598 109.115417 
L 180.532818 136.889125 
L 181.183429 123.002271 
L 181.834039 123.002271 
L 182.484649 109.115417 
L 183.13526 109.115417 
L 183.78587 136.889125 
L 184.43648 150.77598 
L 185.087091 109.115417 
L 185.737701 150.77598 
L 186.388311 150.77598 
L 187.038921 81.341708 
L 187.689532 81.341708 
L 188.340142 150.77598 
L 188.990752 123.002271 
L 189.641363 67.454854 
L 190.291973 123.002271 
L 191.593194 123.002271 
L 192.243804 150.77598 
L 192.894414 164.662834 
L 193.545025 123.002271 
L 194.195635 95.228563 
L 195.496856 123.002271 
L 196.147466 95.228563 
L 196.798076 136.889125 
L 197.448686 95.228563 
L 198.099297 136.889125 
L 198.749907 150.77598 
L 200.051128 123.002271 
L 200.701738 95.228563 
L 202.002959 123.002271 
L 202.653569 123.002271 
L 203.304179 150.77598 
L 204.6054 95.228563 
L 205.25601 123.002271 
L 205.906621 123.002271 
L 206.557231 136.889125 
L 207.207841 136.889125 
L 207.858451 150.77598 
L 208.509062 123.002271 
L 209.159672 123.002271 
L 209.810282 95.228563 
L 210.460893 150.77598 
L 211.762113 123.002271 
L 212.412724 136.889125 
L 213.063334 136.889125 
L 213.713944 81.341708 
L 214.364555 136.889125 
L 215.015165 136.889125 
L 215.665775 95.228563 
L 216.966996 123.002271 
L 217.617606 123.002271 
L 218.268216 95.228563 
L 218.918827 136.889125 
L 219.569437 109.115417 
L 220.870658 109.115417 
L 221.521268 150.77598 
L 222.171878 150.77598 
L 222.822489 109.115417 
L 223.473099 109.115417 
L 224.123709 81.341708 
L 224.77432 123.002271 
L 225.42493 136.889125 
L 226.07554 136.889125 
L 226.72615 123.002271 
L 227.376761 136.889125 
L 228.027371 95.228563 
L 228.677981 123.002271 
L 229.979202 123.002271 
L 230.629812 136.889125 
L 231.280423 109.115417 
L 232.581643 136.889125 
L 234.533474 136.889125 
L 235.184085 123.002271 
L 235.834695 95.228563 
L 236.485305 109.115417 
L 237.135915 109.115417 
L 237.786526 95.228563 
L 238.437136 136.889125 
L 239.087746 136.889125 
L 239.738357 109.115417 
L 240.388967 150.77598 
L 241.039577 150.77598 
L 241.690188 95.228563 
L 242.340798 123.002271 
L 242.991408 95.228563 
L 243.642019 109.115417 
L 244.292629 109.115417 
L 244.943239 123.002271 
L 245.59385 109.115417 
L 246.24446 123.002271 
L 246.89507 95.228563 
L 247.54568 81.341708 
L 248.196291 95.228563 
L 248.846901 123.002271 
L 249.497511 136.889125 
L 250.148122 109.115417 
L 250.798732 67.454854 
L 251.449342 109.115417 
L 252.099953 95.228563 
L 252.750563 136.889125 
L 254.051784 109.115417 
L 254.702394 136.889125 
L 255.353004 123.002271 
L 256.003615 123.002271 
L 256.654225 109.115417 
L 257.304835 109.115417 
L 257.955445 164.662834 
L 258.606056 123.002271 
L 259.256666 109.115417 
L 259.907276 53.568 
L 260.557887 150.77598 
L 261.208497 123.002271 
L 261.859107 136.889125 
L 262.509718 136.889125 
L 263.160328 95.228563 
L 263.810938 95.228563 
L 264.461549 150.77598 
L 265.112159 123.002271 
L 266.413379 95.228563 
L 267.06399 95.228563 
L 267.7146 123.002271 
L 268.36521 123.002271 
L 269.015821 95.228563 
L 269.666431 123.002271 
L 270.317041 123.002271 
L 271.618262 150.77598 
L 272.268872 109.115417 
L 272.919483 123.002271 
L 273.570093 123.002271 
L 274.220703 109.115417 
L 274.871314 150.77598 
L 275.521924 123.002271 
L 276.172534 109.115417 
L 276.823144 136.889125 
L 277.473755 150.77598 
L 278.124365 150.77598 
L 278.774975 109.115417 
L 280.076196 136.889125 
L 281.377417 109.115417 
L 282.028027 109.115417 
L 282.678637 136.889125 
L 283.329248 109.115417 
L 283.979858 109.115417 
L 284.630468 81.341708 
L 285.281079 136.889125 
L 286.582299 109.115417 
L 287.232909 123.002271 
L 287.88352 123.002271 
L 288.53413 150.77598 
L 289.18474 123.002271 
L 289.835351 136.889125 
L 290.485961 109.115417 
L 291.136571 123.002271 
L 292.437792 123.002271 
L 293.088402 136.889125 
L 293.739013 123.002271 
L 294.389623 150.77598 
L 295.040233 123.002271 
L 295.690844 123.002271 
L 296.992064 150.77598 
L 297.642674 95.228563 
L 298.293285 81.341708 
L 298.943895 123.002271 
L 300.895726 123.002271 
L 301.546336 136.889125 
L 302.196947 123.002271 
L 302.847557 123.002271 
L 304.148778 150.77598 
L 304.799388 123.002271 
L 305.449998 109.115417 
L 306.100608 136.889125 
L 308.052439 95.228563 
L 308.70305 150.77598 
L 309.35366 67.454854 
L 310.00427 109.115417 
L 310.654881 95.228563 
L 311.956101 95.228563 
L 312.606712 109.115417 
L 313.257322 67.454854 
L 313.907932 150.77598 
L 314.558543 123.002271 
L 315.209153 109.115417 
L 315.859763 123.002271 
L 316.510373 123.002271 
L 317.160984 109.115417 
L 317.811594 136.889125 
L 318.462204 136.889125 
L 319.112815 109.115417 
L 319.763425 123.002271 
L 320.414035 123.002271 
L 321.064646 95.228563 
L 321.715256 150.77598 
L 322.365866 136.889125 
L 323.016477 81.341708 
L 323.667087 123.002271 
L 324.317697 109.115417 
L 324.968308 136.889125 
L 325.618918 136.889125 
L 326.269528 109.115417 
L 326.920138 136.889125 
L 328.871969 136.889125 
L 329.52258 109.115417 
L 330.8238 109.115417 
L 331.474411 123.002271 
L 332.775631 95.228563 
L 333.426242 136.889125 
L 334.076852 136.889125 
L 334.727462 150.77598 
L 335.378073 123.002271 
L 336.028683 136.889125 
L 336.679293 123.002271 
L 337.329903 95.228563 
L 337.980514 123.002271 
L 338.631124 81.341708 
L 339.281734 150.77598 
L 339.932345 109.115417 
L 341.233565 109.115417 
L 341.884176 150.77598 
L 342.534786 123.002271 
L 343.185396 136.889125 
L 343.836007 109.115417 
L 344.486617 136.889125 
L 345.137227 53.568 
L 346.438448 136.889125 
L 347.739668 109.115417 
L 348.390279 109.115417 
L 349.040889 136.889125 
L 349.691499 123.002271 
L 350.34211 123.002271 
L 350.99272 136.889125 
L 351.64333 123.002271 
L 352.293941 123.002271 
L 352.944551 136.889125 
L 353.595161 67.454854 
L 354.245772 123.002271 
L 354.896382 67.454854 
L 355.546992 123.002271 
L 356.197602 109.115417 
L 356.848213 136.889125 
L 357.498823 109.115417 
L 358.800044 109.115417 
L 359.450654 150.77598 
L 360.101264 109.115417 
L 360.751875 109.115417 
L 361.402485 123.002271 
L 362.053095 109.115417 
L 362.703706 136.889125 
L 363.354316 136.889125 
L 364.004926 123.002271 
L 364.655537 136.889125 
L 365.306147 109.115417 
L 365.956757 109.115417 
L 366.607367 123.002271 
L 367.257978 123.002271 
L 367.908588 95.228563 
L 368.559198 95.228563 
L 369.209809 123.002271 
L 370.511029 123.002271 
L 371.16164 136.889125 
L 372.46286 136.889125 
L 373.113471 150.77598 
L 373.764081 123.002271 
L 374.414691 136.889125 
L 375.065302 123.002271 
L 375.715912 123.002271 
L 376.366522 109.115417 
L 377.017132 150.77598 
L 377.667743 95.228563 
L 378.318353 123.002271 
L 378.968963 123.002271 
L 379.619574 136.889125 
L 380.270184 136.889125 
L 380.920794 150.77598 
L 381.571405 123.002271 
L 382.222015 109.115417 
L 382.872625 123.002271 
L 384.173846 123.002271 
L 384.824456 150.77598 
L 385.475066 109.115417 
L 386.776287 136.889125 
L 387.426897 123.002271 
L 388.077508 150.77598 
L 388.728118 109.115417 
L 389.378728 123.002271 
L 390.029339 81.341708 
L 390.679949 123.002271 
L 391.330559 109.115417 
L 391.98117 136.889125 
L 392.63178 123.002271 
L 393.28239 136.889125 
L 393.933001 136.889125 
L 394.583611 109.115417 
L 395.234221 136.889125 
L 395.884831 95.228563 
L 396.535442 109.115417 
L 397.186052 150.77598 
L 397.836662 109.115417 
L 398.487273 81.341708 
L 398.487273 81.341708 
" style="fill:none;stroke:#ff0000;stroke-linecap:square;stroke-width:1.5;"/>
   </g>
   <g id="patch_3">
    <path d="M 57.6 307.584 
L 57.6 41.472 
" style="fill:none;stroke:#000000;stroke-linecap:square;stroke-linejoin:miter;stroke-width:0.8;"/>
   </g>
   <g id="patch_4">
    <path d="M 414.72 307.584 
L 414.72 41.472 
" style="fill:none;stroke:#000000;stroke-linecap:square;stroke-linejoin:miter;stroke-width:0.8;"/>
   </g>
   <g id="patch_5">
    <path d="M 57.6 307.584 
L 414.72 307.584 
" style="fill:none;stroke:#000000;stroke-linecap:square;stroke-linejoin:miter;stroke-width:0.8;"/>
   </g>
   <g id="patch_6">
    <path d="M 57.6 41.472 
L 414.72 41.472 
" style="fill:none;stroke:#000000;stroke-linecap:square;stroke-linejoin:miter;stroke-width:0.8;"/>
   </g>
   <g id="text_17">
    <!-- Population's average and best fitness -->
    <defs>
     <path d="M 19.671875 64.796875 
L 19.671875 37.40625 
L 32.078125 37.40625 
Q 38.96875 37.40625 42.71875 40.96875 
Q 46.484375 44.53125 46.484375 51.125 
Q 46.484375 57.671875 42.71875 61.234375 
Q 38.96875 64.796875 32.078125 64.796875 
z
M 9.8125 72.90625 
L 32.078125 72.90625 
Q 44.34375 72.90625 50.609375 67.359375 
Q 56.890625 61.8125 56.890625 51.125 
Q 56.890625 40.328125 50.609375 34.8125 
Q 44.34375 29.296875 32.078125 29.296875 
L 19.671875 29.296875 
L 19.671875 0 
L 9.8125 0 
z
" id="DejaVuSans-80"/>
     <path d="M 18.109375 8.203125 
L 18.109375 -20.796875 
L 9.078125 -20.796875 
L 9.078125 54.6875 
L 18.109375 54.6875 
L 18.109375 46.390625 
Q 20.953125 51.265625 25.265625 53.625 
Q 29.59375 56 35.59375 56 
Q 45.5625 56 51.78125 48.09375 
Q 58.015625 40.1875 58.015625 27.296875 
Q 58.015625 14.40625 51.78125 6.484375 
Q 45.5625 -1.421875 35.59375 -1.421875 
Q 29.59375 -1.421875 25.265625 0.953125 
Q 20.953125 3.328125 18.109375 8.203125 
z
M 48.6875 27.296875 
Q 48.6875 37.203125 44.609375 42.84375 
Q 40.53125 48.484375 33.40625 48.484375 
Q 26.265625 48.484375 22.1875 42.84375 
Q 18.109375 37.203125 18.109375 27.296875 
Q 18.109375 17.390625 22.1875 11.75 
Q 26.265625 6.109375 33.40625 6.109375 
Q 40.53125 6.109375 44.609375 11.75 
Q 48.6875 17.390625 48.6875 27.296875 
z
" id="DejaVuSans-112"/>
     <path d="M 8.5 21.578125 
L 8.5 54.6875 
L 17.484375 54.6875 
L 17.484375 21.921875 
Q 17.484375 14.15625 20.5 10.265625 
Q 23.53125 6.390625 29.59375 6.390625 
Q 36.859375 6.390625 41.078125 11.03125 
Q 45.3125 15.671875 45.3125 23.6875 
L 45.3125 54.6875 
L 54.296875 54.6875 
L 54.296875 0 
L 45.3125 0 
L 45.3125 8.40625 
Q 42.046875 3.421875 37.71875 1 
Q 33.40625 -1.421875 27.6875 -1.421875 
Q 18.265625 -1.421875 13.375 4.4375 
Q 8.5 10.296875 8.5 21.578125 
z
M 31.109375 56 
z
" id="DejaVuSans-117"/>
     <path d="M 9.421875 75.984375 
L 18.40625 75.984375 
L 18.40625 0 
L 9.421875 0 
z
" id="DejaVuSans-108"/>
     <path d="M 17.921875 72.90625 
L 17.921875 45.796875 
L 9.625 45.796875 
L 9.625 72.90625 
z
" id="DejaVuSans-39"/>
     <path id="DejaVuSans-32"/>
     <path d="M 2.984375 54.6875 
L 12.5 54.6875 
L 29.59375 8.796875 
L 46.6875 54.6875 
L 56.203125 54.6875 
L 35.6875 0 
L 23.484375 0 
z
" id="DejaVuSans-118"/>
     <path d="M 45.40625 27.984375 
Q 45.40625 37.75 41.375 43.109375 
Q 37.359375 48.484375 30.078125 48.484375 
Q 22.859375 48.484375 18.828125 43.109375 
Q 14.796875 37.75 14.796875 27.984375 
Q 14.796875 18.265625 18.828125 12.890625 
Q 22.859375 7.515625 30.078125 7.515625 
Q 37.359375 7.515625 41.375 12.890625 
Q 45.40625 18.265625 45.40625 27.984375 
z
M 54.390625 6.78125 
Q 54.390625 -7.171875 48.1875 -13.984375 
Q 42 -20.796875 29.203125 -20.796875 
Q 24.46875 -20.796875 20.265625 -20.09375 
Q 16.0625 -19.390625 12.109375 -17.921875 
L 12.109375 -9.1875 
Q 16.0625 -11.328125 19.921875 -12.34375 
Q 23.78125 -13.375 27.78125 -13.375 
Q 36.625 -13.375 41.015625 -8.765625 
Q 45.40625 -4.15625 45.40625 5.171875 
L 45.40625 9.625 
Q 42.625 4.78125 38.28125 2.390625 
Q 33.9375 0 27.875 0 
Q 17.828125 0 11.671875 7.65625 
Q 5.515625 15.328125 5.515625 27.984375 
Q 5.515625 40.671875 11.671875 48.328125 
Q 17.828125 56 27.875 56 
Q 33.9375 56 38.28125 53.609375 
Q 42.625 51.21875 45.40625 46.390625 
L 45.40625 54.6875 
L 54.390625 54.6875 
z
" id="DejaVuSans-103"/>
     <path d="M 45.40625 46.390625 
L 45.40625 75.984375 
L 54.390625 75.984375 
L 54.390625 0 
L 45.40625 0 
L 45.40625 8.203125 
Q 42.578125 3.328125 38.25 0.953125 
Q 33.9375 -1.421875 27.875 -1.421875 
Q 17.96875 -1.421875 11.734375 6.484375 
Q 5.515625 14.40625 5.515625 27.296875 
Q 5.515625 40.1875 11.734375 48.09375 
Q 17.96875 56 27.875 56 
Q 33.9375 56 38.25 53.625 
Q 42.578125 51.265625 45.40625 46.390625 
z
M 14.796875 27.296875 
Q 14.796875 17.390625 18.875 11.75 
Q 22.953125 6.109375 30.078125 6.109375 
Q 37.203125 6.109375 41.296875 11.75 
Q 45.40625 17.390625 45.40625 27.296875 
Q 45.40625 37.203125 41.296875 42.84375 
Q 37.203125 48.484375 30.078125 48.484375 
Q 22.953125 48.484375 18.875 42.84375 
Q 14.796875 37.203125 14.796875 27.296875 
z
" id="DejaVuSans-100"/>
     <path d="M 48.6875 27.296875 
Q 48.6875 37.203125 44.609375 42.84375 
Q 40.53125 48.484375 33.40625 48.484375 
Q 26.265625 48.484375 22.1875 42.84375 
Q 18.109375 37.203125 18.109375 27.296875 
Q 18.109375 17.390625 22.1875 11.75 
Q 26.265625 6.109375 33.40625 6.109375 
Q 40.53125 6.109375 44.609375 11.75 
Q 48.6875 17.390625 48.6875 27.296875 
z
M 18.109375 46.390625 
Q 20.953125 51.265625 25.265625 53.625 
Q 29.59375 56 35.59375 56 
Q 45.5625 56 51.78125 48.09375 
Q 58.015625 40.1875 58.015625 27.296875 
Q 58.015625 14.40625 51.78125 6.484375 
Q 45.5625 -1.421875 35.59375 -1.421875 
Q 29.59375 -1.421875 25.265625 0.953125 
Q 20.953125 3.328125 18.109375 8.203125 
L 18.109375 0 
L 9.078125 0 
L 9.078125 75.984375 
L 18.109375 75.984375 
z
" id="DejaVuSans-98"/>
     <path d="M 37.109375 75.984375 
L 37.109375 68.5 
L 28.515625 68.5 
Q 23.6875 68.5 21.796875 66.546875 
Q 19.921875 64.59375 19.921875 59.515625 
L 19.921875 54.6875 
L 34.71875 54.6875 
L 34.71875 47.703125 
L 19.921875 47.703125 
L 19.921875 0 
L 10.890625 0 
L 10.890625 47.703125 
L 2.296875 47.703125 
L 2.296875 54.6875 
L 10.890625 54.6875 
L 10.890625 58.5 
Q 10.890625 67.625 15.140625 71.796875 
Q 19.390625 75.984375 28.609375 75.984375 
z
" id="DejaVuSans-102"/>
    </defs>
    <g transform="translate(123.315 35.472)scale(0.12 -0.12)">
     <use xlink:href="#DejaVuSans-80"/>
     <use x="60.255859" xlink:href="#DejaVuSans-111"/>
     <use x="121.4375" xlink:href="#DejaVuSans-112"/>
     <use x="184.914062" xlink:href="#DejaVuSans-117"/>
     <use x="248.292969" xlink:href="#DejaVuSans-108"/>
     <use x="276.076172" xlink:href="#DejaVuSans-97"/>
     <use x="337.355469" xlink:href="#DejaVuSans-116"/>
     <use x="376.564453" xlink:href="#DejaVuSans-105"/>
     <use x="404.347656" xlink:href="#DejaVuSans-111"/>
     <use x="465.529297" xlink:href="#DejaVuSans-110"/>
     <use x="528.908203" xlink:href="#DejaVuSans-39"/>
     <use x="556.398438" xlink:href="#DejaVuSans-115"/>
     <use x="608.498047" xlink:href="#DejaVuSans-32"/>
     <use x="640.285156" xlink:href="#DejaVuSans-97"/>
     <use x="701.564453" xlink:href="#DejaVuSans-118"/>
     <use x="760.744141" xlink:href="#DejaVuSans-101"/>
     <use x="822.267578" xlink:href="#DejaVuSans-114"/>
     <use x="863.380859" xlink:href="#DejaVuSans-97"/>
     <use x="924.660156" xlink:href="#DejaVuSans-103"/>
     <use x="988.136719" xlink:href="#DejaVuSans-101"/>
     <use x="1049.660156" xlink:href="#DejaVuSans-32"/>
     <use x="1081.447266" xlink:href="#DejaVuSans-97"/>
     <use x="1142.726562" xlink:href="#DejaVuSans-110"/>
     <use x="1206.105469" xlink:href="#DejaVuSans-100"/>
     <use x="1269.582031" xlink:href="#DejaVuSans-32"/>
     <use x="1301.369141" xlink:href="#DejaVuSans-98"/>
     <use x="1364.845703" xlink:href="#DejaVuSans-101"/>
     <use x="1426.369141" xlink:href="#DejaVuSans-115"/>
     <use x="1478.46875" xlink:href="#DejaVuSans-116"/>
     <use x="1517.677734" xlink:href="#DejaVuSans-32"/>
     <use x="1549.464844" xlink:href="#DejaVuSans-102"/>
     <use x="1584.669922" xlink:href="#DejaVuSans-105"/>
     <use x="1612.453125" xlink:href="#DejaVuSans-116"/>
     <use x="1651.662109" xlink:href="#DejaVuSans-110"/>
     <use x="1715.041016" xlink:href="#DejaVuSans-101"/>
     <use x="1776.564453" xlink:href="#DejaVuSans-115"/>
     <use x="1828.664062" xlink:href="#DejaVuSans-115"/>
    </g>
   </g>
   <g id="legend_1">
    <g id="patch_7">
     <path d="M 64.6 93.506375 
L 137.540625 93.506375 
Q 139.540625 93.506375 139.540625 91.506375 
L 139.540625 48.472 
Q 139.540625 46.472 137.540625 46.472 
L 64.6 46.472 
Q 62.6 46.472 62.6 48.472 
L 62.6 91.506375 
Q 62.6 93.506375 64.6 93.506375 
z
" style="fill:#ffffff;opacity:0.8;stroke:#cccccc;stroke-linejoin:miter;"/>
    </g>
    <g id="line2d_32">
     <path d="M 66.6 54.570438 
L 86.6 54.570438 
" style="fill:none;stroke:#0000ff;stroke-linecap:square;stroke-width:1.5;"/>
    </g>
    <g id="line2d_33"/>
    <g id="text_18">
     <!-- average -->
     <g transform="translate(94.6 58.070438)scale(0.1 -0.1)">
      <use xlink:href="#DejaVuSans-97"/>
      <use x="61.279297" xlink:href="#DejaVuSans-118"/>
      <use x="120.458984" xlink:href="#DejaVuSans-101"/>
      <use x="181.982422" xlink:href="#DejaVuSans-114"/>
      <use x="223.095703" xlink:href="#DejaVuSans-97"/>
      <use x="284.375" xlink:href="#DejaVuSans-103"/>
      <use x="347.851562" xlink:href="#DejaVuSans-101"/>
     </g>
    </g>
    <g id="line2d_34">
     <path d="M 66.6 69.248563 
L 86.6 69.248563 
" style="fill:none;stroke:#008000;stroke-dasharray:9.6,2.4,1.5,2.4;stroke-dashoffset:0;stroke-width:1.5;"/>
    </g>
    <g id="line2d_35"/>
    <g id="text_19">
     <!-- +1 sd -->
     <defs>
      <path d="M 46 62.703125 
L 46 35.5 
L 73.1875 35.5 
L 73.1875 27.203125 
L 46 27.203125 
L 46 0 
L 37.796875 0 
L 37.796875 27.203125 
L 10.59375 27.203125 
L 10.59375 35.5 
L 37.796875 35.5 
L 37.796875 62.703125 
z
" id="DejaVuSans-43"/>
     </defs>
     <g transform="translate(94.6 72.748563)scale(0.1 -0.1)">
      <use xlink:href="#DejaVuSans-43"/>
      <use x="83.789062" xlink:href="#DejaVuSans-49"/>
      <use x="147.412109" xlink:href="#DejaVuSans-32"/>
      <use x="179.199219" xlink:href="#DejaVuSans-115"/>
      <use x="231.298828" xlink:href="#DejaVuSans-100"/>
     </g>
    </g>
    <g id="line2d_36">
     <path d="M 66.6 83.926688 
L 86.6 83.926688 
" style="fill:none;stroke:#ff0000;stroke-linecap:square;stroke-width:1.5;"/>
    </g>
    <g id="line2d_37"/>
    <g id="text_20">
     <!-- best -->
     <g transform="translate(94.6 87.426688)scale(0.1 -0.1)">
      <use xlink:href="#DejaVuSans-98"/>
      <use x="63.476562" xlink:href="#DejaVuSans-101"/>
      <use x="125" xlink:href="#DejaVuSans-115"/>
      <use x="177.099609" xlink:href="#DejaVuSans-116"/>
     </g>
    </g>
   </g>
  </g>
 </g>
 <defs>
  <clipPath id="p714a115bc6">
   <rect height="266.112" width="357.12" x="57.6" y="41.472"/>
  </clipPath>
 </defs>
</svg>
