<?xml version="1.0" encoding="utf-8" standalone="no"?>
<!DOCTYPE svg PUBLIC "-//W3C//DTD SVG 1.1//EN"
  "http://www.w3.org/Graphics/SVG/1.1/DTD/svg11.dtd">
<!-- Created with matplotlib (https://matplotlib.org/) -->
<svg height="345.6pt" version="1.1" viewBox="0 0 460.8 345.6" width="460.8pt" xmlns="http://www.w3.org/2000/svg" xmlns:xlink="http://www.w3.org/1999/xlink">
 <defs>
  <style type="text/css">
*{stroke-linecap:butt;stroke-linejoin:round;}
  </style>
 </defs>
 <g id="figure_1">
  <g id="patch_1">
   <path d="M 0 345.6 
L 460.8 345.6 
L 460.8 0 
L 0 0 
z
" style="fill:#ffffff;"/>
  </g>
  <g id="axes_1">
   <g id="patch_2">
    <path d="M 57.6 307.584 
L 414.72 307.584 
L 414.72 41.472 
L 57.6 41.472 
z
" style="fill:#ffffff;"/>
   </g>
   <g id="matplotlib.axis_1">
    <g id="xtick_1">
     <g id="line2d_1">
      <path clip-path="url(#pf8dd7b59f3)" d="M 73.832727 307.584 
L 73.832727 41.472 
" style="fill:none;stroke:#b0b0b0;stroke-linecap:square;stroke-width:0.8;"/>
     </g>
     <g id="line2d_2">
      <defs>
       <path d="M 0 0 
L 0 3.5 
" id="mb04552732b" style="stroke:#000000;stroke-width:0.8;"/>
      </defs>
      <g>
       <use style="stroke:#000000;stroke-width:0.8;" x="73.832727" xlink:href="#mb04552732b" y="307.584"/>
      </g>
     </g>
     <g id="text_1">
      <!-- 0 -->
      <defs>
       <path d="M 31.78125 66.40625 
Q 24.171875 66.40625 20.328125 58.90625 
Q 16.5 51.421875 16.5 36.375 
Q 16.5 21.390625 20.328125 13.890625 
Q 24.171875 6.390625 31.78125 6.390625 
Q 39.453125 6.390625 43.28125 13.890625 
Q 47.125 21.390625 47.125 36.375 
Q 47.125 51.421875 43.28125 58.90625 
Q 39.453125 66.40625 31.78125 66.40625 
z
M 31.78125 74.21875 
Q 44.046875 74.21875 50.515625 64.515625 
Q 56.984375 54.828125 56.984375 36.375 
Q 56.984375 17.96875 50.515625 8.265625 
Q 44.046875 -1.421875 31.78125 -1.421875 
Q 19.53125 -1.421875 13.0625 8.265625 
Q 6.59375 17.96875 6.59375 36.375 
Q 6.59375 54.828125 13.0625 64.515625 
Q 19.53125 74.21875 31.78125 74.21875 
z
" id="DejaVuSans-48"/>
      </defs>
      <g transform="translate(70.651477 322.182437)scale(0.1 -0.1)">
       <use xlink:href="#DejaVuSans-48"/>
      </g>
     </g>
    </g>
    <g id="xtick_2">
     <g id="line2d_3">
      <path clip-path="url(#pf8dd7b59f3)" d="M 138.893758 307.584 
L 138.893758 41.472 
" style="fill:none;stroke:#b0b0b0;stroke-linecap:square;stroke-width:0.8;"/>
     </g>
     <g id="line2d_4">
      <g>
       <use style="stroke:#000000;stroke-width:0.8;" x="138.893758" xlink:href="#mb04552732b" y="307.584"/>
      </g>
     </g>
     <g id="text_2">
      <!-- 100 -->
      <defs>
       <path d="M 12.40625 8.296875 
L 28.515625 8.296875 
L 28.515625 63.921875 
L 10.984375 60.40625 
L 10.984375 69.390625 
L 28.421875 72.90625 
L 38.28125 72.90625 
L 38.28125 8.296875 
L 54.390625 8.296875 
L 54.390625 0 
L 12.40625 0 
z
" id="DejaVuSans-49"/>
      </defs>
      <g transform="translate(129.350008 322.182437)scale(0.1 -0.1)">
       <use xlink:href="#DejaVuSans-49"/>
       <use x="63.623047" xlink:href="#DejaVuSans-48"/>
       <use x="127.246094" xlink:href="#DejaVuSans-48"/>
      </g>
     </g>
    </g>
    <g id="xtick_3">
     <g id="line2d_5">
      <path clip-path="url(#pf8dd7b59f3)" d="M 203.95479 307.584 
L 203.95479 41.472 
" style="fill:none;stroke:#b0b0b0;stroke-linecap:square;stroke-width:0.8;"/>
     </g>
     <g id="line2d_6">
      <g>
       <use style="stroke:#000000;stroke-width:0.8;" x="203.95479" xlink:href="#mb04552732b" y="307.584"/>
      </g>
     </g>
     <g id="text_3">
      <!-- 200 -->
      <defs>
       <path d="M 19.1875 8.296875 
L 53.609375 8.296875 
L 53.609375 0 
L 7.328125 0 
L 7.328125 8.296875 
Q 12.9375 14.109375 22.625 23.890625 
Q 32.328125 33.6875 34.8125 36.53125 
Q 39.546875 41.84375 41.421875 45.53125 
Q 43.3125 49.21875 43.3125 52.78125 
Q 43.3125 58.59375 39.234375 62.25 
Q 35.15625 65.921875 28.609375 65.921875 
Q 23.96875 65.921875 18.8125 64.3125 
Q 13.671875 62.703125 7.8125 59.421875 
L 7.8125 69.390625 
Q 13.765625 71.78125 18.9375 73 
Q 24.125 74.21875 28.421875 74.21875 
Q 39.75 74.21875 46.484375 68.546875 
Q 53.21875 62.890625 53.21875 53.421875 
Q 53.21875 48.921875 51.53125 44.890625 
Q 49.859375 40.875 45.40625 35.40625 
Q 44.1875 33.984375 37.640625 27.21875 
Q 31.109375 20.453125 19.1875 8.296875 
z
" id="DejaVuSans-50"/>
      </defs>
      <g transform="translate(194.41104 322.182437)scale(0.1 -0.1)">
       <use xlink:href="#DejaVuSans-50"/>
       <use x="63.623047" xlink:href="#DejaVuSans-48"/>
       <use x="127.246094" xlink:href="#DejaVuSans-48"/>
      </g>
     </g>
    </g>
    <g id="xtick_4">
     <g id="line2d_7">
      <path clip-path="url(#pf8dd7b59f3)" d="M 269.015821 307.584 
L 269.015821 41.472 
" style="fill:none;stroke:#b0b0b0;stroke-linecap:square;stroke-width:0.8;"/>
     </g>
     <g id="line2d_8">
      <g>
       <use style="stroke:#000000;stroke-width:0.8;" x="269.015821" xlink:href="#mb04552732b" y="307.584"/>
      </g>
     </g>
     <g id="text_4">
      <!-- 300 -->
      <defs>
       <path d="M 40.578125 39.3125 
Q 47.65625 37.796875 51.625 33 
Q 55.609375 28.21875 55.609375 21.1875 
Q 55.609375 10.40625 48.1875 4.484375 
Q 40.765625 -1.421875 27.09375 -1.421875 
Q 22.515625 -1.421875 17.65625 -0.515625 
Q 12.796875 0.390625 7.625 2.203125 
L 7.625 11.71875 
Q 11.71875 9.328125 16.59375 8.109375 
Q 21.484375 6.890625 26.8125 6.890625 
Q 36.078125 6.890625 40.9375 10.546875 
Q 45.796875 14.203125 45.796875 21.1875 
Q 45.796875 27.640625 41.28125 31.265625 
Q 36.765625 34.90625 28.71875 34.90625 
L 20.21875 34.90625 
L 20.21875 43.015625 
L 29.109375 43.015625 
Q 36.375 43.015625 40.234375 45.921875 
Q 44.09375 48.828125 44.09375 54.296875 
Q 44.09375 59.90625 40.109375 62.90625 
Q 36.140625 65.921875 28.71875 65.921875 
Q 24.65625 65.921875 20.015625 65.03125 
Q 15.375 64.15625 9.8125 62.3125 
L 9.8125 71.09375 
Q 15.4375 72.65625 20.34375 73.4375 
Q 25.25 74.21875 29.59375 74.21875 
Q 40.828125 74.21875 47.359375 69.109375 
Q 53.90625 64.015625 53.90625 55.328125 
Q 53.90625 49.265625 50.4375 45.09375 
Q 46.96875 40.921875 40.578125 39.3125 
z
" id="DejaVuSans-51"/>
      </defs>
      <g transform="translate(259.472071 322.182437)scale(0.1 -0.1)">
       <use xlink:href="#DejaVuSans-51"/>
       <use x="63.623047" xlink:href="#DejaVuSans-48"/>
       <use x="127.246094" xlink:href="#DejaVuSans-48"/>
      </g>
     </g>
    </g>
    <g id="xtick_5">
     <g id="line2d_9">
      <path clip-path="url(#pf8dd7b59f3)" d="M 334.076852 307.584 
L 334.076852 41.472 
" style="fill:none;stroke:#b0b0b0;stroke-linecap:square;stroke-width:0.8;"/>
     </g>
     <g id="line2d_10">
      <g>
       <use style="stroke:#000000;stroke-width:0.8;" x="334.076852" xlink:href="#mb04552732b" y="307.584"/>
      </g>
     </g>
     <g id="text_5">
      <!-- 400 -->
      <defs>
       <path d="M 37.796875 64.3125 
L 12.890625 25.390625 
L 37.796875 25.390625 
z
M 35.203125 72.90625 
L 47.609375 72.90625 
L 47.609375 25.390625 
L 58.015625 25.390625 
L 58.015625 17.1875 
L 47.609375 17.1875 
L 47.609375 0 
L 37.796875 0 
L 37.796875 17.1875 
L 4.890625 17.1875 
L 4.890625 26.703125 
z
" id="DejaVuSans-52"/>
      </defs>
      <g transform="translate(324.533102 322.182437)scale(0.1 -0.1)">
       <use xlink:href="#DejaVuSans-52"/>
       <use x="63.623047" xlink:href="#DejaVuSans-48"/>
       <use x="127.246094" xlink:href="#DejaVuSans-48"/>
      </g>
     </g>
    </g>
    <g id="xtick_6">
     <g id="line2d_11">
      <path clip-path="url(#pf8dd7b59f3)" d="M 399.137883 307.584 
L 399.137883 41.472 
" style="fill:none;stroke:#b0b0b0;stroke-linecap:square;stroke-width:0.8;"/>
     </g>
     <g id="line2d_12">
      <g>
       <use style="stroke:#000000;stroke-width:0.8;" x="399.137883" xlink:href="#mb04552732b" y="307.584"/>
      </g>
     </g>
     <g id="text_6">
      <!-- 500 -->
      <defs>
       <path d="M 10.796875 72.90625 
L 49.515625 72.90625 
L 49.515625 64.59375 
L 19.828125 64.59375 
L 19.828125 46.734375 
Q 21.96875 47.46875 24.109375 47.828125 
Q 26.265625 48.1875 28.421875 48.1875 
Q 40.625 48.1875 47.75 41.5 
Q 54.890625 34.8125 54.890625 23.390625 
Q 54.890625 11.625 47.5625 5.09375 
Q 40.234375 -1.421875 26.90625 -1.421875 
Q 22.3125 -1.421875 17.546875 -0.640625 
Q 12.796875 0.140625 7.71875 1.703125 
L 7.71875 11.625 
Q 12.109375 9.234375 16.796875 8.0625 
Q 21.484375 6.890625 26.703125 6.890625 
Q 35.15625 6.890625 40.078125 11.328125 
Q 45.015625 15.765625 45.015625 23.390625 
Q 45.015625 31 40.078125 35.4375 
Q 35.15625 39.890625 26.703125 39.890625 
Q 22.75 39.890625 18.8125 39.015625 
Q 14.890625 38.140625 10.796875 36.28125 
z
" id="DejaVuSans-53"/>
      </defs>
      <g transform="translate(389.594133 322.182437)scale(0.1 -0.1)">
       <use xlink:href="#DejaVuSans-53"/>
       <use x="63.623047" xlink:href="#DejaVuSans-48"/>
       <use x="127.246094" xlink:href="#DejaVuSans-48"/>
      </g>
     </g>
    </g>
    <g id="text_7">
     <!-- Generations -->
     <defs>
      <path d="M 59.515625 10.40625 
L 59.515625 29.984375 
L 43.40625 29.984375 
L 43.40625 38.09375 
L 69.28125 38.09375 
L 69.28125 6.78125 
Q 63.578125 2.734375 56.6875 0.65625 
Q 49.8125 -1.421875 42 -1.421875 
Q 24.90625 -1.421875 15.25 8.5625 
Q 5.609375 18.5625 5.609375 36.375 
Q 5.609375 54.25 15.25 64.234375 
Q 24.90625 74.21875 42 74.21875 
Q 49.125 74.21875 55.546875 72.453125 
Q 61.96875 70.703125 67.390625 67.28125 
L 67.390625 56.78125 
Q 61.921875 61.421875 55.765625 63.765625 
Q 49.609375 66.109375 42.828125 66.109375 
Q 29.4375 66.109375 22.71875 58.640625 
Q 16.015625 51.171875 16.015625 36.375 
Q 16.015625 21.625 22.71875 14.15625 
Q 29.4375 6.6875 42.828125 6.6875 
Q 48.046875 6.6875 52.140625 7.59375 
Q 56.25 8.5 59.515625 10.40625 
z
" id="DejaVuSans-71"/>
      <path d="M 56.203125 29.59375 
L 56.203125 25.203125 
L 14.890625 25.203125 
Q 15.484375 15.921875 20.484375 11.0625 
Q 25.484375 6.203125 34.421875 6.203125 
Q 39.59375 6.203125 44.453125 7.46875 
Q 49.3125 8.734375 54.109375 11.28125 
L 54.109375 2.78125 
Q 49.265625 0.734375 44.1875 -0.34375 
Q 39.109375 -1.421875 33.890625 -1.421875 
Q 20.796875 -1.421875 13.15625 6.1875 
Q 5.515625 13.8125 5.515625 26.8125 
Q 5.515625 40.234375 12.765625 48.109375 
Q 20.015625 56 32.328125 56 
Q 43.359375 56 49.78125 48.890625 
Q 56.203125 41.796875 56.203125 29.59375 
z
M 47.21875 32.234375 
Q 47.125 39.59375 43.09375 43.984375 
Q 39.0625 48.390625 32.421875 48.390625 
Q 24.90625 48.390625 20.390625 44.140625 
Q 15.875 39.890625 15.1875 32.171875 
z
" id="DejaVuSans-101"/>
      <path d="M 54.890625 33.015625 
L 54.890625 0 
L 45.90625 0 
L 45.90625 32.71875 
Q 45.90625 40.484375 42.875 44.328125 
Q 39.84375 48.1875 33.796875 48.1875 
Q 26.515625 48.1875 22.3125 43.546875 
Q 18.109375 38.921875 18.109375 30.90625 
L 18.109375 0 
L 9.078125 0 
L 9.078125 54.6875 
L 18.109375 54.6875 
L 18.109375 46.1875 
Q 21.34375 51.125 25.703125 53.5625 
Q 30.078125 56 35.796875 56 
Q 45.21875 56 50.046875 50.171875 
Q 54.890625 44.34375 54.890625 33.015625 
z
" id="DejaVuSans-110"/>
      <path d="M 41.109375 46.296875 
Q 39.59375 47.171875 37.8125 47.578125 
Q 36.03125 48 33.890625 48 
Q 26.265625 48 22.1875 43.046875 
Q 18.109375 38.09375 18.109375 28.8125 
L 18.109375 0 
L 9.078125 0 
L 9.078125 54.6875 
L 18.109375 54.6875 
L 18.109375 46.1875 
Q 20.953125 51.171875 25.484375 53.578125 
Q 30.03125 56 36.53125 56 
Q 37.453125 56 38.578125 55.875 
Q 39.703125 55.765625 41.0625 55.515625 
z
" id="DejaVuSans-114"/>
      <path d="M 34.28125 27.484375 
Q 23.390625 27.484375 19.1875 25 
Q 14.984375 22.515625 14.984375 16.5 
Q 14.984375 11.71875 18.140625 8.90625 
Q 21.296875 6.109375 26.703125 6.109375 
Q 34.1875 6.109375 38.703125 11.40625 
Q 43.21875 16.703125 43.21875 25.484375 
L 43.21875 27.484375 
z
M 52.203125 31.203125 
L 52.203125 0 
L 43.21875 0 
L 43.21875 8.296875 
Q 40.140625 3.328125 35.546875 0.953125 
Q 30.953125 -1.421875 24.3125 -1.421875 
Q 15.921875 -1.421875 10.953125 3.296875 
Q 6 8.015625 6 15.921875 
Q 6 25.140625 12.171875 29.828125 
Q 18.359375 34.515625 30.609375 34.515625 
L 43.21875 34.515625 
L 43.21875 35.40625 
Q 43.21875 41.609375 39.140625 45 
Q 35.0625 48.390625 27.6875 48.390625 
Q 23 48.390625 18.546875 47.265625 
Q 14.109375 46.140625 10.015625 43.890625 
L 10.015625 52.203125 
Q 14.9375 54.109375 19.578125 55.046875 
Q 24.21875 56 28.609375 56 
Q 40.484375 56 46.34375 49.84375 
Q 52.203125 43.703125 52.203125 31.203125 
z
" id="DejaVuSans-97"/>
      <path d="M 18.3125 70.21875 
L 18.3125 54.6875 
L 36.8125 54.6875 
L 36.8125 47.703125 
L 18.3125 47.703125 
L 18.3125 18.015625 
Q 18.3125 11.328125 20.140625 9.421875 
Q 21.96875 7.515625 27.59375 7.515625 
L 36.8125 7.515625 
L 36.8125 0 
L 27.59375 0 
Q 17.1875 0 13.234375 3.875 
Q 9.28125 7.765625 9.28125 18.015625 
L 9.28125 47.703125 
L 2.6875 47.703125 
L 2.6875 54.6875 
L 9.28125 54.6875 
L 9.28125 70.21875 
z
" id="DejaVuSans-116"/>
      <path d="M 9.421875 54.6875 
L 18.40625 54.6875 
L 18.40625 0 
L 9.421875 0 
z
M 9.421875 75.984375 
L 18.40625 75.984375 
L 18.40625 64.59375 
L 9.421875 64.59375 
z
" id="DejaVuSans-105"/>
      <path d="M 30.609375 48.390625 
Q 23.390625 48.390625 19.1875 42.75 
Q 14.984375 37.109375 14.984375 27.296875 
Q 14.984375 17.484375 19.15625 11.84375 
Q 23.34375 6.203125 30.609375 6.203125 
Q 37.796875 6.203125 41.984375 11.859375 
Q 46.1875 17.53125 46.1875 27.296875 
Q 46.1875 37.015625 41.984375 42.703125 
Q 37.796875 48.390625 30.609375 48.390625 
z
M 30.609375 56 
Q 42.328125 56 49.015625 48.375 
Q 55.71875 40.765625 55.71875 27.296875 
Q 55.71875 13.875 49.015625 6.21875 
Q 42.328125 -1.421875 30.609375 -1.421875 
Q 18.84375 -1.421875 12.171875 6.21875 
Q 5.515625 13.875 5.515625 27.296875 
Q 5.515625 40.765625 12.171875 48.375 
Q 18.84375 56 30.609375 56 
z
" id="DejaVuSans-111"/>
      <path d="M 44.28125 53.078125 
L 44.28125 44.578125 
Q 40.484375 46.53125 36.375 47.5 
Q 32.28125 48.484375 27.875 48.484375 
Q 21.1875 48.484375 17.84375 46.4375 
Q 14.5 44.390625 14.5 40.28125 
Q 14.5 37.15625 16.890625 35.375 
Q 19.28125 33.59375 26.515625 31.984375 
L 29.59375 31.296875 
Q 39.15625 29.25 43.1875 25.515625 
Q 47.21875 21.78125 47.21875 15.09375 
Q 47.21875 7.46875 41.1875 3.015625 
Q 35.15625 -1.421875 24.609375 -1.421875 
Q 20.21875 -1.421875 15.453125 -0.5625 
Q 10.6875 0.296875 5.421875 2 
L 5.421875 11.28125 
Q 10.40625 8.6875 15.234375 7.390625 
Q 20.0625 6.109375 24.8125 6.109375 
Q 31.15625 6.109375 34.5625 8.28125 
Q 37.984375 10.453125 37.984375 14.40625 
Q 37.984375 18.0625 35.515625 20.015625 
Q 33.0625 21.96875 24.703125 23.78125 
L 21.578125 24.515625 
Q 13.234375 26.265625 9.515625 29.90625 
Q 5.8125 33.546875 5.8125 39.890625 
Q 5.8125 47.609375 11.28125 51.796875 
Q 16.75 56 26.8125 56 
Q 31.78125 56 36.171875 55.265625 
Q 40.578125 54.546875 44.28125 53.078125 
z
" id="DejaVuSans-115"/>
     </defs>
     <g transform="translate(205.662344 335.860562)scale(0.1 -0.1)">
      <use xlink:href="#DejaVuSans-71"/>
      <use x="77.490234" xlink:href="#DejaVuSans-101"/>
      <use x="139.013672" xlink:href="#DejaVuSans-110"/>
      <use x="202.392578" xlink:href="#DejaVuSans-101"/>
      <use x="263.916016" xlink:href="#DejaVuSans-114"/>
      <use x="305.029297" xlink:href="#DejaVuSans-97"/>
      <use x="366.308594" xlink:href="#DejaVuSans-116"/>
      <use x="405.517578" xlink:href="#DejaVuSans-105"/>
      <use x="433.300781" xlink:href="#DejaVuSans-111"/>
      <use x="494.482422" xlink:href="#DejaVuSans-110"/>
      <use x="557.861328" xlink:href="#DejaVuSans-115"/>
     </g>
    </g>
   </g>
   <g id="matplotlib.axis_2">
    <g id="ytick_1">
     <g id="line2d_13">
      <path clip-path="url(#pf8dd7b59f3)" d="M 57.6 295.922996 
L 414.72 295.922996 
" style="fill:none;stroke:#b0b0b0;stroke-linecap:square;stroke-width:0.8;"/>
     </g>
     <g id="line2d_14">
      <defs>
       <path d="M 0 0 
L -3.5 0 
" id="m151911d69b" style="stroke:#000000;stroke-width:0.8;"/>
      </defs>
      <g>
       <use style="stroke:#000000;stroke-width:0.8;" x="57.6" xlink:href="#m151911d69b" y="295.922996"/>
      </g>
     </g>
     <g id="text_8">
      <!-- 22.5 -->
      <defs>
       <path d="M 10.6875 12.40625 
L 21 12.40625 
L 21 0 
L 10.6875 0 
z
" id="DejaVuSans-46"/>
      </defs>
      <g transform="translate(28.334375 299.722215)scale(0.1 -0.1)">
       <use xlink:href="#DejaVuSans-50"/>
       <use x="63.623047" xlink:href="#DejaVuSans-50"/>
       <use x="127.246094" xlink:href="#DejaVuSans-46"/>
       <use x="159.033203" xlink:href="#DejaVuSans-53"/>
      </g>
     </g>
    </g>
    <g id="ytick_2">
     <g id="line2d_15">
      <path clip-path="url(#pf8dd7b59f3)" d="M 57.6 264.851843 
L 414.72 264.851843 
" style="fill:none;stroke:#b0b0b0;stroke-linecap:square;stroke-width:0.8;"/>
     </g>
     <g id="line2d_16">
      <g>
       <use style="stroke:#000000;stroke-width:0.8;" x="57.6" xlink:href="#m151911d69b" y="264.851843"/>
      </g>
     </g>
     <g id="text_9">
      <!-- 25.0 -->
      <g transform="translate(28.334375 268.651062)scale(0.1 -0.1)">
       <use xlink:href="#DejaVuSans-50"/>
       <use x="63.623047" xlink:href="#DejaVuSans-53"/>
       <use x="127.246094" xlink:href="#DejaVuSans-46"/>
       <use x="159.033203" xlink:href="#DejaVuSans-48"/>
      </g>
     </g>
    </g>
    <g id="ytick_3">
     <g id="line2d_17">
      <path clip-path="url(#pf8dd7b59f3)" d="M 57.6 233.780689 
L 414.72 233.780689 
" style="fill:none;stroke:#b0b0b0;stroke-linecap:square;stroke-width:0.8;"/>
     </g>
     <g id="line2d_18">
      <g>
       <use style="stroke:#000000;stroke-width:0.8;" x="57.6" xlink:href="#m151911d69b" y="233.780689"/>
      </g>
     </g>
     <g id="text_10">
      <!-- 27.5 -->
      <defs>
       <path d="M 8.203125 72.90625 
L 55.078125 72.90625 
L 55.078125 68.703125 
L 28.609375 0 
L 18.3125 0 
L 43.21875 64.59375 
L 8.203125 64.59375 
z
" id="DejaVuSans-55"/>
      </defs>
      <g transform="translate(28.334375 237.579908)scale(0.1 -0.1)">
       <use xlink:href="#DejaVuSans-50"/>
       <use x="63.623047" xlink:href="#DejaVuSans-55"/>
       <use x="127.246094" xlink:href="#DejaVuSans-46"/>
       <use x="159.033203" xlink:href="#DejaVuSans-53"/>
      </g>
     </g>
    </g>
    <g id="ytick_4">
     <g id="line2d_19">
      <path clip-path="url(#pf8dd7b59f3)" d="M 57.6 202.709536 
L 414.72 202.709536 
" style="fill:none;stroke:#b0b0b0;stroke-linecap:square;stroke-width:0.8;"/>
     </g>
     <g id="line2d_20">
      <g>
       <use style="stroke:#000000;stroke-width:0.8;" x="57.6" xlink:href="#m151911d69b" y="202.709536"/>
      </g>
     </g>
     <g id="text_11">
      <!-- 30.0 -->
      <g transform="translate(28.334375 206.508755)scale(0.1 -0.1)">
       <use xlink:href="#DejaVuSans-51"/>
       <use x="63.623047" xlink:href="#DejaVuSans-48"/>
       <use x="127.246094" xlink:href="#DejaVuSans-46"/>
       <use x="159.033203" xlink:href="#DejaVuSans-48"/>
      </g>
     </g>
    </g>
    <g id="ytick_5">
     <g id="line2d_21">
      <path clip-path="url(#pf8dd7b59f3)" d="M 57.6 171.638383 
L 414.72 171.638383 
" style="fill:none;stroke:#b0b0b0;stroke-linecap:square;stroke-width:0.8;"/>
     </g>
     <g id="line2d_22">
      <g>
       <use style="stroke:#000000;stroke-width:0.8;" x="57.6" xlink:href="#m151911d69b" y="171.638383"/>
      </g>
     </g>
     <g id="text_12">
      <!-- 32.5 -->
      <g transform="translate(28.334375 175.437601)scale(0.1 -0.1)">
       <use xlink:href="#DejaVuSans-51"/>
       <use x="63.623047" xlink:href="#DejaVuSans-50"/>
       <use x="127.246094" xlink:href="#DejaVuSans-46"/>
       <use x="159.033203" xlink:href="#DejaVuSans-53"/>
      </g>
     </g>
    </g>
    <g id="ytick_6">
     <g id="line2d_23">
      <path clip-path="url(#pf8dd7b59f3)" d="M 57.6 140.567229 
L 414.72 140.567229 
" style="fill:none;stroke:#b0b0b0;stroke-linecap:square;stroke-width:0.8;"/>
     </g>
     <g id="line2d_24">
      <g>
       <use style="stroke:#000000;stroke-width:0.8;" x="57.6" xlink:href="#m151911d69b" y="140.567229"/>
      </g>
     </g>
     <g id="text_13">
      <!-- 35.0 -->
      <g transform="translate(28.334375 144.366448)scale(0.1 -0.1)">
       <use xlink:href="#DejaVuSans-51"/>
       <use x="63.623047" xlink:href="#DejaVuSans-53"/>
       <use x="127.246094" xlink:href="#DejaVuSans-46"/>
       <use x="159.033203" xlink:href="#DejaVuSans-48"/>
      </g>
     </g>
    </g>
    <g id="ytick_7">
     <g id="line2d_25">
      <path clip-path="url(#pf8dd7b59f3)" d="M 57.6 109.496076 
L 414.72 109.496076 
" style="fill:none;stroke:#b0b0b0;stroke-linecap:square;stroke-width:0.8;"/>
     </g>
     <g id="line2d_26">
      <g>
       <use style="stroke:#000000;stroke-width:0.8;" x="57.6" xlink:href="#m151911d69b" y="109.496076"/>
      </g>
     </g>
     <g id="text_14">
      <!-- 37.5 -->
      <g transform="translate(28.334375 113.295295)scale(0.1 -0.1)">
       <use xlink:href="#DejaVuSans-51"/>
       <use x="63.623047" xlink:href="#DejaVuSans-55"/>
       <use x="127.246094" xlink:href="#DejaVuSans-46"/>
       <use x="159.033203" xlink:href="#DejaVuSans-53"/>
      </g>
     </g>
    </g>
    <g id="ytick_8">
     <g id="line2d_27">
      <path clip-path="url(#pf8dd7b59f3)" d="M 57.6 78.424923 
L 414.72 78.424923 
" style="fill:none;stroke:#b0b0b0;stroke-linecap:square;stroke-width:0.8;"/>
     </g>
     <g id="line2d_28">
      <g>
       <use style="stroke:#000000;stroke-width:0.8;" x="57.6" xlink:href="#m151911d69b" y="78.424923"/>
      </g>
     </g>
     <g id="text_15">
      <!-- 40.0 -->
      <g transform="translate(28.334375 82.224141)scale(0.1 -0.1)">
       <use xlink:href="#DejaVuSans-52"/>
       <use x="63.623047" xlink:href="#DejaVuSans-48"/>
       <use x="127.246094" xlink:href="#DejaVuSans-46"/>
       <use x="159.033203" xlink:href="#DejaVuSans-48"/>
      </g>
     </g>
    </g>
    <g id="ytick_9">
     <g id="line2d_29">
      <path clip-path="url(#pf8dd7b59f3)" d="M 57.6 47.353769 
L 414.72 47.353769 
" style="fill:none;stroke:#b0b0b0;stroke-linecap:square;stroke-width:0.8;"/>
     </g>
     <g id="line2d_30">
      <g>
       <use style="stroke:#000000;stroke-width:0.8;" x="57.6" xlink:href="#m151911d69b" y="47.353769"/>
      </g>
     </g>
     <g id="text_16">
      <!-- 42.5 -->
      <g transform="translate(28.334375 51.152988)scale(0.1 -0.1)">
       <use xlink:href="#DejaVuSans-52"/>
       <use x="63.623047" xlink:href="#DejaVuSans-50"/>
       <use x="127.246094" xlink:href="#DejaVuSans-46"/>
       <use x="159.033203" xlink:href="#DejaVuSans-53"/>
      </g>
     </g>
    </g>
    <g id="text_17">
     <!-- Fitness -->
     <defs>
      <path d="M 9.8125 72.90625 
L 51.703125 72.90625 
L 51.703125 64.59375 
L 19.671875 64.59375 
L 19.671875 43.109375 
L 48.578125 43.109375 
L 48.578125 34.8125 
L 19.671875 34.8125 
L 19.671875 0 
L 9.8125 0 
z
" id="DejaVuSans-70"/>
     </defs>
     <g transform="translate(22.254687 192.202219)rotate(-90)scale(0.1 -0.1)">
      <use xlink:href="#DejaVuSans-70"/>
      <use x="57.410156" xlink:href="#DejaVuSans-105"/>
      <use x="85.193359" xlink:href="#DejaVuSans-116"/>
      <use x="124.402344" xlink:href="#DejaVuSans-110"/>
      <use x="187.78125" xlink:href="#DejaVuSans-101"/>
      <use x="249.304688" xlink:href="#DejaVuSans-115"/>
      <use x="301.404297" xlink:href="#DejaVuSans-115"/>
     </g>
    </g>
   </g>
   <g id="line2d_31">
    <path clip-path="url(#pf8dd7b59f3)" d="M 73.832727 295.488 
L 74.483338 288.434848 
L 75.133948 285.203448 
L 75.784558 290.110681 
L 76.435169 291.898395 
L 77.085779 288.061994 
L 77.736389 289.143835 
L 78.386999 287.735015 
L 79.03761 292.025406 
L 79.68822 289.615318 
L 80.33883 290.558306 
L 80.989441 291.832221 
L 81.640051 286.919335 
L 82.290661 286.431609 
L 82.941272 290.082554 
L 83.591882 286.04597 
L 84.242492 289.187077 
L 84.893103 289.521402 
L 85.543713 288.36261 
L 86.194323 285.724068 
L 86.844934 285.34625 
L 87.495544 289.06977 
L 88.146154 286.123048 
L 88.796764 288.135543 
L 89.447375 284.364211 
L 90.097985 284.59481 
L 90.748595 289.992664 
L 91.399206 283.213489 
L 92.049816 290.13628 
L 92.700426 286.35656 
L 93.351037 289.016547 
L 94.001647 293.440388 
L 94.652257 286.593863 
L 95.302868 285.106791 
L 95.953478 286.307943 
L 96.604088 286.290939 
L 97.254698 287.229272 
L 97.905309 288.623987 
L 98.555919 288.867742 
L 99.206529 286.725935 
L 99.85714 285.648595 
L 101.15836 282.575639 
L 101.808971 282.766184 
L 102.459581 283.386057 
L 103.110191 290.576588 
L 103.760802 289.521871 
L 104.411412 289.708765 
L 105.062022 291.141621 
L 105.712633 290.793544 
L 106.363243 289.863734 
L 107.013853 289.181873 
L 107.664463 291.324465 
L 108.315074 294.804435 
L 108.965684 289.708765 
L 109.616294 290.6409 
L 110.266905 284.550954 
L 110.917515 293.685873 
L 111.568125 290.578758 
L 112.218736 286.415223 
L 112.869346 288.621275 
L 113.519956 288.248421 
L 114.170567 291.324465 
L 114.821177 290.889469 
L 115.471787 287.440571 
L 116.122398 289.242698 
L 116.773008 287.720212 
L 117.423618 289.242698 
L 118.074228 287.751283 
L 118.724839 282.127404 
L 119.375449 285.7938 
L 120.026059 285.110235 
L 120.67667 279.797068 
L 121.32728 284.333456 
L 121.97789 274.048904 
L 122.628501 280.635989 
L 123.279111 278.52315 
L 123.929721 278.305652 
L 124.580332 282.500258 
L 125.230942 280.760273 
L 125.881552 281.630266 
L 126.532163 279.517427 
L 127.182773 278.181368 
L 127.833383 277.466731 
L 128.483993 279.486356 
L 129.134604 278.336723 
L 129.785214 278.150296 
L 130.435824 275.478177 
L 131.086435 282.531329 
L 131.737045 275.322821 
L 132.387655 278.740648 
L 133.038266 280.356348 
L 134.339486 276.037458 
L 134.990097 274.670327 
L 135.640707 271.563212 
L 136.291317 274.73247 
L 136.941927 272.992485 
L 137.592538 269.450373 
L 138.243148 267.151108 
L 138.893758 272.619631 
L 139.544369 267.026824 
L 140.194979 272.681773 
L 140.845589 270.16501 
L 141.4962 270.009654 
L 142.14681 269.450373 
L 142.79742 271.936066 
L 143.448031 268.953235 
L 144.098641 268.860022 
L 144.749251 268.0211 
L 145.399862 267.772531 
L 146.701082 270.941789 
L 147.351692 269.263947 
L 148.002303 269.543587 
L 148.652913 267.617175 
L 149.303523 266.560756 
L 149.954134 271.904995 
L 150.604744 266.778254 
L 151.255354 270.351437 
L 151.905965 269.947512 
L 152.556575 268.642524 
L 153.207185 268.176456 
L 153.857796 270.382508 
L 154.508406 273.272125 
L 155.159016 272.743916 
L 155.809627 267.523962 
L 156.460237 269.698943 
L 157.110847 266.93361 
L 157.761457 268.456097 
L 158.412068 269.232875 
L 159.062678 270.413579 
L 159.713288 264.572202 
L 160.363899 267.865745 
L 161.014509 271.936066 
L 161.665119 268.0211 
L 162.31573 270.941789 
L 162.96634 270.258223 
L 163.61695 268.300741 
L 164.267561 270.040725 
L 164.918171 266.902539 
L 165.568781 269.07752 
L 166.219392 269.326089 
L 166.870002 273.707122 
L 167.520612 269.326089 
L 168.171222 266.281116 
L 168.821833 270.040725 
L 169.472443 273.054627 
L 170.123053 271.563212 
L 170.773664 271.283572 
L 171.424274 270.848575 
L 172.074884 272.495347 
L 172.725495 268.642524 
L 173.376105 270.320366 
L 174.026715 267.337535 
L 174.677326 268.797879 
L 175.327936 268.518239 
L 175.978546 265.193625 
L 176.629156 265.908262 
L 177.279767 270.351437 
L 177.930377 270.941789 
L 178.580987 270.910718 
L 179.231598 272.681773 
L 179.882208 267.492891 
L 180.532818 267.057895 
L 181.183429 269.326089 
L 181.834039 266.032547 
L 182.484649 267.088966 
L 183.13526 273.334268 
L 183.78587 268.611452 
L 184.43648 268.54931 
L 185.087091 270.941789 
L 185.737701 264.572202 
L 186.388311 271.842852 
L 187.038921 266.964681 
L 187.689532 265.970404 
L 188.340142 274.918896 
L 188.990752 266.685041 
L 189.641363 269.978583 
L 190.291973 272.371062 
L 190.942583 267.896816 
L 191.593194 269.326089 
L 192.243804 267.399677 
L 192.894414 268.26967 
L 193.545025 273.39641 
L 194.195635 269.947512 
L 194.846245 271.78071 
L 195.496856 268.54931 
L 196.147466 269.015377 
L 196.798076 267.026824 
L 197.448686 268.083243 
L 198.099297 270.289295 
L 198.749907 269.295018 
L 199.400517 267.772531 
L 200.051128 268.580381 
L 200.701738 268.145385 
L 201.352348 269.046448 
L 202.002959 270.786433 
L 202.653569 268.797879 
L 203.304179 271.221429 
L 203.95479 269.761085 
L 204.6054 270.941789 
L 205.25601 271.003931 
L 205.906621 270.568935 
L 206.557231 272.58856 
L 207.207841 266.343258 
L 207.858451 273.551766 
L 208.509062 271.936066 
L 209.159672 273.303197 
L 209.810282 266.685041 
L 210.460893 269.512516 
L 211.111503 270.196081 
L 211.762113 269.947512 
L 212.412724 270.102868 
L 213.063334 271.314643 
L 213.713944 275.788889 
L 214.364555 272.961414 
L 215.015165 268.953235 
L 215.665775 268.145385 
L 216.316385 269.978583 
L 216.966996 268.052172 
L 217.617606 270.475722 
L 218.268216 266.436472 
L 219.569437 273.831406 
L 220.220047 272.184635 
L 220.870658 273.489623 
L 221.521268 267.088966 
L 222.171878 265.659693 
L 222.822489 270.258223 
L 223.473099 266.12576 
L 224.123709 271.035002 
L 224.77432 267.399677 
L 225.42493 271.50107 
L 226.07554 269.07752 
L 226.72615 272.433204 
L 227.376761 269.170733 
L 228.027371 270.133939 
L 228.677981 270.662148 
L 229.328592 274.173189 
L 229.979202 267.088966 
L 230.629812 273.800335 
L 231.280423 271.097145 
L 231.931033 271.097145 
L 232.581643 266.622899 
L 233.232254 271.625354 
L 233.882864 273.582837 
L 234.533474 266.591827 
L 235.184085 272.495347 
L 235.834695 269.201804 
L 236.485305 269.07752 
L 237.135915 271.469998 
L 237.786526 271.097145 
L 238.437136 266.4054 
L 239.087746 265.162554 
L 239.738357 269.698943 
L 240.388967 269.698943 
L 241.039577 273.893548 
L 241.690188 270.009654 
L 242.340798 267.21325 
L 242.991408 269.419302 
L 243.642019 270.568935 
L 244.292629 267.865745 
L 244.943239 268.362883 
L 245.59385 267.46182 
L 246.24446 268.207527 
L 246.89507 267.803602 
L 247.54568 269.605729 
L 248.196291 271.842852 
L 248.846901 272.371062 
L 249.497511 269.108591 
L 250.148122 268.922164 
L 250.798732 266.871468 
L 251.449342 273.303197 
L 252.099953 269.108591 
L 252.750563 270.009654 
L 253.401173 267.74146 
L 254.051784 267.244322 
L 254.702394 266.467543 
L 255.353004 269.6368 
L 256.003615 269.046448 
L 256.654225 273.613908 
L 257.304835 271.035002 
L 257.955445 269.574658 
L 258.606056 269.419302 
L 259.256666 268.611452 
L 259.907276 272.961414 
L 260.557887 264.976127 
L 261.208497 266.591827 
L 261.859107 269.015377 
L 262.509718 269.698943 
L 263.160328 267.46182 
L 263.810938 268.860022 
L 264.461549 266.716112 
L 265.112159 268.362883 
L 265.762769 274.297473 
L 266.413379 272.029279 
L 267.06399 265.752906 
L 267.7146 267.275393 
L 268.36521 268.425025 
L 269.015821 266.498614 
L 269.666431 269.543587 
L 270.317041 271.842852 
L 270.967652 267.927887 
L 271.618262 268.207527 
L 272.268872 270.289295 
L 272.919483 268.860022 
L 273.570093 272.277848 
L 274.220703 268.82895 
L 274.871314 272.091422 
L 275.521924 267.927887 
L 276.172534 269.916441 
L 276.823144 268.052172 
L 277.473755 274.20426 
L 278.124365 268.425025 
L 278.774975 269.792156 
L 279.425586 267.275393 
L 280.076196 265.752906 
L 280.726806 270.506793 
L 281.377417 269.88537 
L 282.028027 268.611452 
L 282.678637 269.947512 
L 283.329248 272.58856 
L 283.979858 268.922164 
L 284.630468 270.413579 
L 285.281079 269.6368 
L 285.931689 272.743916 
L 286.582299 268.238599 
L 287.88352 271.594283 
L 288.53413 268.797879 
L 289.18474 274.608185 
L 289.835351 268.54931 
L 290.485961 267.927887 
L 291.136571 266.902539 
L 291.787182 270.196081 
L 292.437792 266.995752 
L 293.088402 269.792156 
L 293.739013 269.388231 
L 294.389623 271.097145 
L 295.040233 271.407856 
L 295.690844 266.4054 
L 296.341454 271.749639 
L 296.992064 264.913985 
L 297.642674 269.232875 
L 298.293285 268.891093 
L 298.943895 270.600006 
L 300.245116 266.716112 
L 300.895726 263.733281 
L 301.546336 270.631077 
L 302.847557 269.388231 
L 303.498167 269.574658 
L 304.148778 270.786433 
L 304.799388 269.07752 
L 305.449998 263.950779 
L 306.100608 266.4054 
L 306.751219 271.998208 
L 307.401829 268.456097 
L 308.052439 269.481445 
L 308.70305 266.809325 
L 309.35366 269.88537 
L 310.00427 270.289295 
L 310.654881 268.393954 
L 311.305491 269.698943 
L 311.956101 273.707122 
L 313.257322 268.114314 
L 313.907932 267.555033 
L 314.558543 267.492891 
L 315.209153 270.133939 
L 315.859763 267.182179 
L 316.510373 270.724291 
L 317.160984 268.145385 
L 317.811594 269.947512 
L 318.462204 268.673595 
L 319.112815 270.227152 
L 319.763425 269.232875 
L 320.414035 265.939333 
L 321.064646 271.159287 
L 321.715256 266.187902 
L 322.365866 264.572202 
L 323.016477 269.201804 
L 323.667087 270.009654 
L 324.317697 264.945056 
L 325.618918 269.388231 
L 326.269528 270.910718 
L 326.920138 271.842852 
L 327.570749 270.568935 
L 328.221359 271.376785 
L 328.871969 269.761085 
L 329.52258 269.35716 
L 330.17319 271.936066 
L 330.8238 269.046448 
L 331.474411 267.492891 
L 332.125021 270.69322 
L 332.775631 263.484712 
L 333.426242 271.128216 
L 334.076852 267.772531 
L 334.727462 268.300741 
L 335.378073 268.238599 
L 336.028683 269.481445 
L 336.679293 267.275393 
L 337.329903 273.67605 
L 337.980514 271.003931 
L 338.631124 269.139662 
L 339.281734 269.201804 
L 339.932345 274.111046 
L 340.582955 267.617175 
L 341.233565 271.345714 
L 341.884176 271.407856 
L 342.534786 264.882914 
L 343.185396 269.916441 
L 343.836007 269.6368 
L 344.486617 265.84612 
L 345.137227 267.057895 
L 345.787837 270.879647 
L 347.089058 269.263947 
L 347.739668 270.071797 
L 348.390279 267.337535 
L 349.040889 266.12576 
L 349.691499 269.07752 
L 350.34211 271.314643 
L 350.99272 270.44465 
L 351.64333 267.990029 
L 352.293941 271.376785 
L 352.944551 268.860022 
L 353.595161 268.487168 
L 354.245772 266.218974 
L 354.896382 272.184635 
L 355.546992 268.425025 
L 356.197602 270.16501 
L 356.848213 269.170733 
L 357.498823 269.419302 
L 358.149433 265.255768 
L 358.800044 267.151108 
L 359.450654 270.258223 
L 360.101264 270.817504 
L 360.751875 267.834674 
L 361.402485 267.523962 
L 362.053095 267.772531 
L 362.703706 263.857566 
L 363.354316 268.891093 
L 364.004926 267.088966 
L 364.655537 268.891093 
L 365.306147 267.927887 
L 365.956757 268.238599 
L 367.257978 272.743916 
L 367.908588 268.487168 
L 368.559198 271.842852 
L 369.209809 268.891093 
L 370.511029 269.947512 
L 371.16164 267.834674 
L 371.81225 267.834674 
L 372.46286 268.300741 
L 373.764081 272.806058 
L 374.414691 271.345714 
L 375.065302 264.478989 
L 375.715912 267.648247 
L 376.366522 266.560756 
L 377.017132 269.015377 
L 377.667743 270.600006 
L 378.318353 266.343258 
L 378.968963 265.473266 
L 379.619574 268.580381 
L 380.270184 270.44465 
L 380.920794 271.066073 
L 381.571405 264.665416 
L 382.222015 270.351437 
L 382.872625 270.040725 
L 383.523236 270.320366 
L 384.824456 267.648247 
L 385.475066 270.320366 
L 386.125677 265.069341 
L 386.776287 269.978583 
L 387.426897 268.82895 
L 388.077508 266.187902 
L 388.728118 271.811781 
L 389.378728 268.425025 
L 390.029339 268.580381 
L 390.679949 269.88537 
L 391.330559 268.518239 
L 391.98117 264.603274 
L 392.63178 267.430749 
L 393.28239 272.277848 
L 393.933001 265.628622 
L 394.583611 266.591827 
L 395.234221 271.035002 
L 395.884831 266.374329 
L 396.535442 265.193625 
L 397.186052 269.07752 
L 397.836662 270.133939 
L 398.487273 270.320366 
L 398.487273 270.320366 
" style="fill:none;stroke:#0000ff;stroke-linecap:square;stroke-width:1.5;"/>
   </g>
   <g id="line2d_32">
    <path clip-path="url(#pf8dd7b59f3)" d="M 73.832727 251.654498 
L 74.483338 246.559982 
L 75.133948 239.587281 
L 75.784558 245.848894 
L 76.435169 249.20033 
L 77.085779 246.412843 
L 77.736389 246.742289 
L 78.386999 240.375099 
L 79.03761 250.301964 
L 79.68822 245.588355 
L 80.33883 248.978098 
L 80.989441 248.543313 
L 81.640051 244.028128 
L 82.290661 243.529924 
L 82.941272 245.07869 
L 83.591882 242.755854 
L 84.242492 244.200267 
L 84.893103 246.127153 
L 85.543713 246.685186 
L 86.194323 242.435708 
L 86.844934 240.109375 
L 87.495544 247.839731 
L 88.146154 241.722418 
L 88.796764 244.550963 
L 89.447375 238.523769 
L 90.097985 240.615853 
L 90.748595 245.529037 
L 91.399206 237.275991 
L 92.049816 244.425433 
L 92.700426 243.333199 
L 93.351037 247.892054 
L 94.001647 248.861893 
L 94.652257 241.335668 
L 95.302868 243.325746 
L 95.953478 243.793802 
L 96.604088 243.023869 
L 97.254698 244.861074 
L 97.905309 247.399028 
L 98.555919 244.454714 
L 99.206529 242.482707 
L 99.85714 241.586082 
L 100.50775 237.60399 
L 101.15836 237.563475 
L 101.808971 236.558666 
L 102.459581 239.463577 
L 103.110191 247.59457 
L 103.760802 247.53407 
L 104.411412 246.209151 
L 105.062022 249.140974 
L 105.712633 245.135019 
L 106.363243 245.302533 
L 107.013853 244.744711 
L 108.315074 252.044567 
L 108.965684 243.614419 
L 109.616294 244.698651 
L 110.266905 243.28776 
L 110.917515 251.479214 
L 111.568125 250.652435 
L 112.218736 239.581563 
L 112.869346 244.277884 
L 113.519956 246.186399 
L 114.170567 246.714945 
L 114.821177 246.136696 
L 115.471787 244.075759 
L 116.122398 244.437977 
L 116.773008 246.016473 
L 117.423618 243.915274 
L 118.074228 245.216349 
L 118.724839 236.916324 
L 119.375449 241.605813 
L 120.026059 239.609334 
L 120.67667 238.987985 
L 121.32728 237.120933 
L 121.97789 228.676679 
L 122.628501 234.605189 
L 123.279111 233.858435 
L 123.929721 232.151538 
L 124.580332 238.499994 
L 125.230942 235.70543 
L 125.881552 235.699576 
L 126.532163 235.20408 
L 127.182773 230.08267 
L 127.833383 231.971474 
L 128.483993 232.923571 
L 129.134604 232.861843 
L 129.785214 233.893629 
L 130.435824 230.307986 
L 131.086435 237.74747 
L 131.737045 232.462297 
L 132.387655 234.05226 
L 133.038266 233.257163 
L 133.688876 231.621878 
L 134.339486 230.720418 
L 134.990097 229.625256 
L 135.640707 225.204218 
L 136.291317 231.289752 
L 136.941927 227.35959 
L 137.592538 226.149892 
L 138.243148 223.508314 
L 138.893758 229.612171 
L 139.544369 222.078773 
L 140.194979 229.613792 
L 140.845589 226.497502 
L 141.4962 225.262404 
L 142.14681 224.538894 
L 142.79742 228.972221 
L 143.448031 222.27431 
L 144.098641 223.205944 
L 144.749251 223.244173 
L 145.399862 221.328026 
L 146.050472 224.136929 
L 146.701082 225.96707 
L 147.351692 221.963935 
L 148.002303 226.579934 
L 149.303523 220.737652 
L 149.954134 228.564678 
L 150.604744 222.085924 
L 151.255354 227.339813 
L 151.905965 222.601925 
L 152.556575 223.561332 
L 153.207185 224.879821 
L 153.857796 226.826159 
L 154.508406 229.483191 
L 155.159016 229.490415 
L 155.809627 223.199854 
L 156.460237 225.858173 
L 157.110847 221.083799 
L 157.761457 224.443021 
L 158.412068 224.848747 
L 159.062678 225.45201 
L 159.713288 219.843564 
L 160.363899 225.138774 
L 161.014509 226.96959 
L 161.665119 223.468967 
L 162.31573 224.948253 
L 162.96634 226.035294 
L 163.61695 226.11624 
L 164.267561 225.700208 
L 164.918171 222.903723 
L 165.568781 223.608371 
L 166.219392 225.278808 
L 166.870002 229.810113 
L 167.520612 225.4369 
L 168.171222 223.413237 
L 168.821833 224.829144 
L 169.472443 227.466733 
L 170.123053 225.900835 
L 170.773664 225.240033 
L 171.424274 226.201685 
L 172.074884 228.524625 
L 172.725495 222.595158 
L 173.376105 223.418112 
L 174.026715 222.794027 
L 174.677326 223.469432 
L 175.327936 222.873498 
L 175.978546 215.151905 
L 177.279767 227.10701 
L 177.930377 226.85157 
L 178.580987 225.296667 
L 179.231598 227.615789 
L 179.882208 219.627429 
L 180.532818 221.798848 
L 181.183429 222.441953 
L 181.834039 222.292175 
L 183.13526 228.649336 
L 183.78587 220.162776 
L 184.43648 221.388263 
L 185.087091 226.825303 
L 185.737701 219.175142 
L 186.388311 225.830523 
L 187.038921 221.061576 
L 187.689532 222.069778 
L 188.340142 231.804673 
L 188.990752 220.330473 
L 189.641363 224.939609 
L 190.291973 225.74532 
L 190.942583 222.248691 
L 191.593194 222.82238 
L 192.243804 221.409374 
L 192.894414 224.620505 
L 193.545025 228.697394 
L 194.195635 223.027972 
L 194.846245 228.012593 
L 195.496856 222.691835 
L 196.147466 223.117867 
L 196.798076 222.972574 
L 197.448686 223.164369 
L 198.099297 225.124031 
L 198.749907 221.579285 
L 199.400517 223.533886 
L 200.051128 224.193197 
L 200.701738 223.689046 
L 201.352348 223.638161 
L 202.002959 225.461735 
L 202.653569 226.282924 
L 203.304179 225.219592 
L 203.95479 225.804066 
L 204.6054 227.37139 
L 205.25601 229.867836 
L 205.906621 223.836598 
L 206.557231 229.705877 
L 207.207841 223.172286 
L 207.858451 224.542007 
L 208.509062 226.806716 
L 209.159672 227.77769 
L 209.810282 222.279166 
L 210.460893 225.56358 
L 211.111503 223.328915 
L 211.762113 227.169586 
L 212.412724 224.676895 
L 213.063334 224.77076 
L 213.713944 229.668411 
L 214.364555 231.050136 
L 215.665775 220.010522 
L 216.316385 224.759913 
L 216.966996 225.311646 
L 217.617606 227.534095 
L 218.268216 218.888479 
L 218.918827 226.148959 
L 219.569437 230.074231 
L 220.220047 226.753721 
L 220.870658 227.568225 
L 221.521268 223.151938 
L 222.171878 222.748596 
L 222.822489 223.03698 
L 223.473099 220.626737 
L 224.123709 225.403769 
L 224.77432 222.39393 
L 225.42493 226.769356 
L 226.07554 223.872419 
L 226.72615 226.856323 
L 227.376761 225.464332 
L 228.027371 223.515817 
L 228.677981 224.5277 
L 229.328592 229.686067 
L 229.979202 221.852781 
L 230.629812 229.375583 
L 231.280423 226.079354 
L 231.931033 226.63174 
L 232.581643 223.493821 
L 233.232254 227.960975 
L 233.882864 227.056557 
L 234.533474 221.470521 
L 235.184085 226.641608 
L 235.834695 222.84431 
L 236.485305 223.278344 
L 237.135915 227.706734 
L 237.786526 227.828971 
L 238.437136 219.031316 
L 239.087746 218.668853 
L 239.738357 225.332817 
L 240.388967 227.684309 
L 241.039577 230.628499 
L 241.690188 224.884283 
L 242.340798 222.854089 
L 242.991408 224.871557 
L 243.642019 224.16831 
L 244.292629 225.247368 
L 245.59385 221.660115 
L 246.24446 224.757477 
L 246.89507 221.808062 
L 248.196291 227.794355 
L 248.846901 226.657 
L 249.497511 226.018928 
L 250.148122 222.368917 
L 250.798732 222.63925 
L 251.449342 230.442841 
L 252.099953 223.156561 
L 252.750563 224.55176 
L 253.401173 222.786419 
L 254.051784 223.549055 
L 254.702394 221.667982 
L 255.353004 225.701223 
L 256.654225 227.749728 
L 257.304835 227.208163 
L 257.955445 226.056227 
L 258.606056 224.465979 
L 259.256666 225.799067 
L 259.907276 225.853211 
L 260.557887 216.857112 
L 261.208497 221.840046 
L 261.859107 223.872894 
L 262.509718 222.417018 
L 263.160328 223.4312 
L 263.810938 223.096115 
L 264.461549 220.01006 
L 265.112159 222.364656 
L 265.762769 230.097909 
L 266.413379 227.70479 
L 267.06399 220.058668 
L 267.7146 219.978647 
L 268.36521 224.37872 
L 269.015821 220.5218 
L 269.666431 225.540877 
L 270.317041 226.498392 
L 270.967652 222.269158 
L 271.618262 224.26259 
L 272.268872 225.312526 
L 272.919483 223.870547 
L 273.570093 228.494205 
L 274.220703 224.151095 
L 274.871314 226.811561 
L 275.521924 223.166022 
L 276.172534 225.335767 
L 276.823144 220.220848 
L 277.473755 232.506367 
L 278.124365 223.424651 
L 278.774975 223.942261 
L 279.425586 222.057352 
L 280.726806 223.692596 
L 281.377417 228.327124 
L 282.028027 224.239942 
L 282.678637 224.823639 
L 283.329248 228.58585 
L 283.979858 223.180624 
L 284.630468 225.944267 
L 285.931689 225.008632 
L 286.582299 223.507802 
L 287.232909 224.348334 
L 287.88352 227.297333 
L 288.53413 224.503544 
L 289.18474 228.70058 
L 289.835351 223.748208 
L 290.485961 221.814705 
L 291.136571 222.354219 
L 291.787182 228.500307 
L 292.437792 222.309006 
L 293.088402 223.64005 
L 294.389623 225.686476 
L 295.040233 226.271415 
L 295.690844 220.690663 
L 296.341454 228.638864 
L 296.992064 220.275258 
L 297.642674 226.119828 
L 298.293285 226.571543 
L 299.594505 222.473903 
L 300.245116 223.505978 
L 300.895726 218.909936 
L 301.546336 224.429996 
L 302.196947 226.388628 
L 302.847557 224.042611 
L 303.498167 223.278681 
L 304.148778 227.90465 
L 305.449998 218.079412 
L 306.100608 222.641375 
L 306.751219 228.927941 
L 307.401829 226.316647 
L 308.052439 222.059505 
L 308.70305 223.724143 
L 309.35366 224.125714 
L 310.00427 225.787256 
L 310.654881 225.594594 
L 311.305491 222.221407 
L 311.956101 227.562797 
L 312.606712 224.287867 
L 313.257322 223.305283 
L 313.907932 220.745425 
L 314.558543 222.96266 
L 315.209153 223.623629 
L 315.859763 221.708031 
L 316.510373 224.489005 
L 317.160984 223.94167 
L 317.811594 222.937524 
L 318.462204 224.003789 
L 319.112815 223.723371 
L 319.763425 226.066119 
L 320.414035 223.201247 
L 321.064646 228.756656 
L 322.365866 218.165596 
L 323.016477 226.540307 
L 323.667087 225.85314 
L 324.317697 218.42135 
L 324.968308 222.245626 
L 325.618918 223.974533 
L 326.269528 224.151213 
L 326.920138 225.279901 
L 327.570749 225.442494 
L 328.221359 226.325756 
L 328.871969 223.928912 
L 329.52258 226.562638 
L 330.17319 226.926671 
L 330.8238 224.15132 
L 331.474411 221.993274 
L 332.125021 226.385973 
L 332.775631 216.088583 
L 333.426242 228.807571 
L 334.076852 224.016624 
L 334.727462 223.747708 
L 335.378073 223.249553 
L 336.028683 224.879467 
L 336.679293 222.936998 
L 337.329903 227.680835 
L 337.980514 224.417961 
L 338.631124 225.240663 
L 339.281734 225.185921 
L 339.932345 230.416608 
L 340.582955 223.146561 
L 341.233565 225.613884 
L 341.884176 226.995895 
L 342.534786 222.004734 
L 343.185396 225.605109 
L 343.836007 224.146637 
L 344.486617 221.31371 
L 345.137227 222.339618 
L 345.787837 226.267226 
L 346.438448 223.36695 
L 347.089058 223.305562 
L 347.739668 224.637993 
L 348.390279 223.669574 
L 349.040889 222.979137 
L 349.691499 224.822074 
L 350.34211 228.867126 
L 351.64333 221.059225 
L 352.293941 225.417728 
L 352.944551 222.284798 
L 353.595161 222.734317 
L 354.245772 222.581267 
L 354.896382 228.45146 
L 355.546992 223.416071 
L 356.197602 225.362616 
L 356.848213 222.037944 
L 357.498823 226.182467 
L 358.149433 220.149795 
L 358.800044 221.960746 
L 360.101264 226.188078 
L 360.751875 219.591427 
L 361.402485 222.999921 
L 362.053095 225.270146 
L 362.703706 220.914399 
L 363.354316 223.421987 
L 364.004926 221.895485 
L 364.655537 222.689009 
L 365.956757 223.507802 
L 366.607367 225.843836 
L 367.257978 226.881757 
L 367.908588 225.528997 
L 368.559198 225.296491 
L 369.209809 225.481456 
L 369.860419 226.316646 
L 370.511029 224.220063 
L 371.16164 224.57113 
L 371.81225 222.20783 
L 372.46286 222.999905 
L 373.113471 225.183034 
L 373.764081 230.575983 
L 374.414691 227.203686 
L 375.065302 221.878001 
L 375.715912 221.655592 
L 376.366522 223.942561 
L 377.017132 223.941381 
L 377.667743 223.464186 
L 378.318353 221.341586 
L 378.968963 222.487137 
L 379.619574 224.350073 
L 380.270184 225.456882 
L 380.920794 225.706446 
L 381.571405 222.546362 
L 382.222015 226.214309 
L 382.872625 225.413733 
L 383.523236 225.77443 
L 384.173846 224.743611 
L 384.824456 221.790129 
L 385.475066 225.939446 
L 386.125677 218.687373 
L 386.776287 225.648257 
L 387.426897 223.201768 
L 388.077508 222.651118 
L 388.728118 224.860153 
L 389.378728 222.819441 
L 390.679949 225.942409 
L 391.330559 223.813813 
L 391.98117 219.00657 
L 392.63178 224.217141 
L 393.28239 226.840825 
L 393.933001 220.553223 
L 394.583611 220.33791 
L 395.234221 226.700059 
L 395.884831 220.671219 
L 396.535442 220.129965 
L 397.186052 222.992557 
L 397.836662 224.826486 
L 398.487273 225.137481 
L 398.487273 225.137481 
" style="fill:none;stroke:#008000;stroke-dasharray:9.6,2.4,1.5,2.4;stroke-dashoffset:0;stroke-width:1.5;"/>
   </g>
   <g id="line2d_33">
    <path clip-path="url(#pf8dd7b59f3)" d="M 73.832727 152.995691 
L 74.483338 152.995691 
L 75.133948 165.424152 
L 75.784558 165.424152 
L 76.435169 177.852613 
L 77.085779 165.424152 
L 77.736389 177.852613 
L 78.386999 140.567229 
L 79.03761 165.424152 
L 79.68822 152.995691 
L 80.33883 177.852613 
L 80.989441 140.567229 
L 81.640051 165.424152 
L 82.290661 128.138768 
L 82.941272 177.852613 
L 83.591882 165.424152 
L 84.242492 165.424152 
L 84.893103 177.852613 
L 85.543713 128.138768 
L 86.194323 177.852613 
L 86.844934 128.138768 
L 87.495544 165.424152 
L 88.146154 140.567229 
L 88.796764 165.424152 
L 89.447375 128.138768 
L 90.097985 165.424152 
L 90.748595 190.281075 
L 91.399206 128.138768 
L 92.049816 177.852613 
L 94.001647 177.852613 
L 94.652257 165.424152 
L 95.302868 165.424152 
L 95.953478 177.852613 
L 96.604088 152.995691 
L 97.254698 165.424152 
L 98.555919 165.424152 
L 99.206529 152.995691 
L 100.50775 152.995691 
L 101.15836 165.424152 
L 101.808971 140.567229 
L 103.760802 177.852613 
L 104.411412 128.138768 
L 105.062022 177.852613 
L 105.712633 177.852613 
L 106.363243 140.567229 
L 107.013853 152.995691 
L 107.664463 177.852613 
L 108.315074 190.281075 
L 108.965684 152.995691 
L 109.616294 140.567229 
L 110.266905 165.424152 
L 110.917515 165.424152 
L 111.568125 177.852613 
L 112.218736 152.995691 
L 112.869346 152.995691 
L 113.519956 177.852613 
L 114.170567 152.995691 
L 115.471787 152.995691 
L 116.122398 140.567229 
L 116.773008 165.424152 
L 117.423618 128.138768 
L 118.074228 165.424152 
L 118.724839 165.424152 
L 119.375449 140.567229 
L 120.026059 140.567229 
L 120.67667 177.852613 
L 121.32728 140.567229 
L 121.97789 152.995691 
L 123.279111 128.138768 
L 123.929721 152.995691 
L 124.580332 128.138768 
L 125.230942 128.138768 
L 125.881552 165.424152 
L 126.532163 128.138768 
L 127.182773 152.995691 
L 128.483993 152.995691 
L 129.134604 128.138768 
L 129.785214 152.995691 
L 130.435824 152.995691 
L 131.086435 177.852613 
L 132.387655 128.138768 
L 133.038266 152.995691 
L 133.688876 140.567229 
L 134.339486 165.424152 
L 134.990097 140.567229 
L 135.640707 152.995691 
L 136.291317 152.995691 
L 137.592538 128.138768 
L 138.243148 140.567229 
L 138.893758 78.424923 
L 139.544369 152.995691 
L 140.194979 152.995691 
L 140.845589 165.424152 
L 142.79742 128.138768 
L 143.448031 165.424152 
L 144.098641 165.424152 
L 144.749251 140.567229 
L 145.399862 152.995691 
L 146.701082 152.995691 
L 147.351692 115.710307 
L 148.002303 165.424152 
L 148.652913 165.424152 
L 149.303523 152.995691 
L 149.954134 128.138768 
L 150.604744 165.424152 
L 151.255354 152.995691 
L 151.905965 152.995691 
L 152.556575 140.567229 
L 153.207185 152.995691 
L 153.857796 140.567229 
L 154.508406 140.567229 
L 155.159016 115.710307 
L 155.809627 140.567229 
L 156.460237 152.995691 
L 157.110847 128.138768 
L 157.761457 152.995691 
L 158.412068 140.567229 
L 159.062678 152.995691 
L 159.713288 140.567229 
L 160.363899 140.567229 
L 161.014509 128.138768 
L 161.665119 152.995691 
L 162.31573 128.138768 
L 162.96634 152.995691 
L 163.61695 140.567229 
L 164.267561 140.567229 
L 164.918171 128.138768 
L 165.568781 152.995691 
L 166.219392 128.138768 
L 166.870002 128.138768 
L 167.520612 152.995691 
L 168.171222 115.710307 
L 168.821833 140.567229 
L 169.472443 128.138768 
L 170.123053 152.995691 
L 171.424274 152.995691 
L 172.725495 128.138768 
L 173.376105 128.138768 
L 174.026715 152.995691 
L 175.327936 152.995691 
L 175.978546 103.281845 
L 176.629156 115.710307 
L 177.279767 165.424152 
L 178.580987 140.567229 
L 179.882208 140.567229 
L 180.532818 152.995691 
L 181.183429 140.567229 
L 181.834039 115.710307 
L 182.484649 140.567229 
L 183.78587 140.567229 
L 184.43648 152.995691 
L 185.087091 115.710307 
L 185.737701 128.138768 
L 186.388311 165.424152 
L 187.038921 140.567229 
L 187.689532 140.567229 
L 188.340142 152.995691 
L 188.990752 103.281845 
L 189.641363 140.567229 
L 190.291973 140.567229 
L 191.593194 115.710307 
L 192.243804 128.138768 
L 192.894414 128.138768 
L 193.545025 140.567229 
L 194.195635 140.567229 
L 194.846245 152.995691 
L 195.496856 140.567229 
L 196.147466 140.567229 
L 196.798076 152.995691 
L 197.448686 152.995691 
L 198.099297 140.567229 
L 198.749907 103.281845 
L 199.400517 128.138768 
L 201.352348 165.424152 
L 202.002959 128.138768 
L 202.653569 152.995691 
L 203.304179 140.567229 
L 203.95479 152.995691 
L 204.6054 140.567229 
L 205.25601 140.567229 
L 205.906621 115.710307 
L 206.557231 165.424152 
L 207.858451 140.567229 
L 208.509062 103.281845 
L 210.460893 140.567229 
L 211.762113 115.710307 
L 212.412724 140.567229 
L 213.063334 128.138768 
L 213.713944 140.567229 
L 214.364555 165.424152 
L 215.015165 152.995691 
L 215.665775 53.568 
L 216.316385 128.138768 
L 216.966996 152.995691 
L 218.268216 128.138768 
L 218.918827 152.995691 
L 219.569437 128.138768 
L 220.220047 140.567229 
L 220.870658 140.567229 
L 221.521268 165.424152 
L 222.822489 140.567229 
L 223.473099 140.567229 
L 224.123709 152.995691 
L 224.77432 140.567229 
L 225.42493 165.424152 
L 226.07554 152.995691 
L 226.72615 128.138768 
L 228.027371 152.995691 
L 228.677981 140.567229 
L 229.328592 115.710307 
L 229.979202 128.138768 
L 230.629812 152.995691 
L 231.280423 128.138768 
L 231.931033 152.995691 
L 232.581643 140.567229 
L 233.232254 90.853384 
L 233.882864 165.424152 
L 234.533474 115.710307 
L 235.184085 140.567229 
L 235.834695 140.567229 
L 236.485305 152.995691 
L 237.135915 140.567229 
L 237.786526 152.995691 
L 238.437136 115.710307 
L 239.087746 140.567229 
L 239.738357 128.138768 
L 240.388967 165.424152 
L 241.039577 152.995691 
L 241.690188 115.710307 
L 242.340798 128.138768 
L 242.991408 152.995691 
L 243.642019 140.567229 
L 244.292629 152.995691 
L 244.943239 140.567229 
L 246.24446 140.567229 
L 246.89507 152.995691 
L 247.54568 140.567229 
L 248.196291 152.995691 
L 248.846901 140.567229 
L 249.497511 140.567229 
L 250.148122 165.424152 
L 250.798732 128.138768 
L 251.449342 128.138768 
L 252.099953 140.567229 
L 252.750563 115.710307 
L 253.401173 140.567229 
L 254.702394 165.424152 
L 256.003615 140.567229 
L 257.955445 140.567229 
L 258.606056 152.995691 
L 259.256666 140.567229 
L 259.907276 152.995691 
L 260.557887 128.138768 
L 261.208497 140.567229 
L 261.859107 140.567229 
L 262.509718 152.995691 
L 263.160328 152.995691 
L 263.810938 65.996461 
L 264.461549 128.138768 
L 265.112159 140.567229 
L 265.762769 165.424152 
L 266.413379 140.567229 
L 267.06399 103.281845 
L 267.7146 103.281845 
L 268.36521 165.424152 
L 269.015821 140.567229 
L 270.317041 140.567229 
L 270.967652 128.138768 
L 271.618262 152.995691 
L 272.268872 140.567229 
L 272.919483 152.995691 
L 273.570093 128.138768 
L 274.220703 165.424152 
L 274.871314 128.138768 
L 276.172534 152.995691 
L 276.823144 128.138768 
L 277.473755 152.995691 
L 278.124365 128.138768 
L 278.774975 128.138768 
L 279.425586 140.567229 
L 280.076196 140.567229 
L 280.726806 115.710307 
L 281.377417 128.138768 
L 282.028027 152.995691 
L 282.678637 165.424152 
L 283.329248 165.424152 
L 283.979858 140.567229 
L 284.630468 152.995691 
L 285.281079 152.995691 
L 285.931689 115.710307 
L 286.582299 152.995691 
L 287.88352 152.995691 
L 288.53413 140.567229 
L 289.18474 152.995691 
L 289.835351 128.138768 
L 290.485961 152.995691 
L 291.136571 115.710307 
L 291.787182 165.424152 
L 292.437792 128.138768 
L 293.739013 128.138768 
L 294.389623 165.424152 
L 295.040233 115.710307 
L 295.690844 140.567229 
L 297.642674 140.567229 
L 298.293285 128.138768 
L 298.943895 152.995691 
L 299.594505 128.138768 
L 300.895726 128.138768 
L 301.546336 140.567229 
L 302.196947 140.567229 
L 302.847557 128.138768 
L 303.498167 152.995691 
L 304.148778 152.995691 
L 304.799388 128.138768 
L 305.449998 115.710307 
L 306.100608 152.995691 
L 306.751219 152.995691 
L 307.401829 140.567229 
L 308.70305 140.567229 
L 309.35366 115.710307 
L 310.00427 128.138768 
L 310.654881 152.995691 
L 311.305491 115.710307 
L 311.956101 152.995691 
L 312.606712 128.138768 
L 313.257322 152.995691 
L 313.907932 115.710307 
L 314.558543 140.567229 
L 315.209153 140.567229 
L 315.859763 103.281845 
L 316.510373 152.995691 
L 317.160984 128.138768 
L 317.811594 140.567229 
L 319.112815 140.567229 
L 319.763425 152.995691 
L 320.414035 152.995691 
L 321.715256 128.138768 
L 322.365866 140.567229 
L 325.618918 140.567229 
L 326.269528 128.138768 
L 326.920138 152.995691 
L 327.570749 140.567229 
L 328.221359 165.424152 
L 328.871969 128.138768 
L 330.17319 152.995691 
L 330.8238 152.995691 
L 331.474411 140.567229 
L 332.125021 152.995691 
L 332.775631 115.710307 
L 333.426242 140.567229 
L 334.076852 152.995691 
L 334.727462 152.995691 
L 335.378073 140.567229 
L 337.329903 140.567229 
L 337.980514 128.138768 
L 338.631124 152.995691 
L 339.281734 128.138768 
L 339.932345 152.995691 
L 340.582955 152.995691 
L 341.233565 103.281845 
L 341.884176 140.567229 
L 342.534786 140.567229 
L 343.185396 152.995691 
L 343.836007 152.995691 
L 344.486617 165.424152 
L 345.137227 165.424152 
L 345.787837 140.567229 
L 346.438448 140.567229 
L 347.089058 152.995691 
L 348.390279 152.995691 
L 349.040889 103.281845 
L 350.34211 152.995691 
L 350.99272 128.138768 
L 352.293941 128.138768 
L 352.944551 140.567229 
L 353.595161 128.138768 
L 354.245772 152.995691 
L 354.896382 165.424152 
L 355.546992 140.567229 
L 356.197602 128.138768 
L 357.498823 128.138768 
L 358.149433 115.710307 
L 358.800044 115.710307 
L 359.450654 140.567229 
L 360.101264 115.710307 
L 360.751875 140.567229 
L 361.402485 115.710307 
L 362.053095 128.138768 
L 362.703706 152.995691 
L 363.354316 128.138768 
L 365.306147 128.138768 
L 365.956757 78.424923 
L 366.607367 140.567229 
L 367.257978 152.995691 
L 367.908588 128.138768 
L 368.559198 128.138768 
L 369.209809 152.995691 
L 369.860419 140.567229 
L 370.511029 152.995691 
L 371.16164 140.567229 
L 371.81225 140.567229 
L 372.46286 152.995691 
L 373.113471 128.138768 
L 373.764081 152.995691 
L 374.414691 128.138768 
L 375.065302 140.567229 
L 375.715912 128.138768 
L 376.366522 165.424152 
L 377.667743 140.567229 
L 378.318353 140.567229 
L 378.968963 152.995691 
L 379.619574 152.995691 
L 380.270184 103.281845 
L 380.920794 140.567229 
L 381.571405 152.995691 
L 382.222015 140.567229 
L 383.523236 140.567229 
L 384.173846 115.710307 
L 384.824456 115.710307 
L 385.475066 152.995691 
L 386.125677 140.567229 
L 386.776287 140.567229 
L 387.426897 128.138768 
L 388.077508 128.138768 
L 388.728118 152.995691 
L 389.378728 152.995691 
L 390.029339 115.710307 
L 390.679949 140.567229 
L 391.330559 128.138768 
L 391.98117 128.138768 
L 392.63178 115.710307 
L 393.28239 165.424152 
L 393.933001 152.995691 
L 394.583611 115.710307 
L 395.234221 140.567229 
L 396.535442 140.567229 
L 397.186052 152.995691 
L 397.836662 140.567229 
L 398.487273 152.995691 
L 398.487273 152.995691 
" style="fill:none;stroke:#ff0000;stroke-linecap:square;stroke-width:1.5;"/>
   </g>
   <g id="patch_3">
    <path d="M 57.6 307.584 
L 57.6 41.472 
" style="fill:none;stroke:#000000;stroke-linecap:square;stroke-linejoin:miter;stroke-width:0.8;"/>
   </g>
   <g id="patch_4">
    <path d="M 414.72 307.584 
L 414.72 41.472 
" style="fill:none;stroke:#000000;stroke-linecap:square;stroke-linejoin:miter;stroke-width:0.8;"/>
   </g>
   <g id="patch_5">
    <path d="M 57.6 307.584 
L 414.72 307.584 
" style="fill:none;stroke:#000000;stroke-linecap:square;stroke-linejoin:miter;stroke-width:0.8;"/>
   </g>
   <g id="patch_6">
    <path d="M 57.6 41.472 
L 414.72 41.472 
" style="fill:none;stroke:#000000;stroke-linecap:square;stroke-linejoin:miter;stroke-width:0.8;"/>
   </g>
   <g id="text_18">
    <!-- Population's average and best fitness -->
    <defs>
     <path d="M 19.671875 64.796875 
L 19.671875 37.40625 
L 32.078125 37.40625 
Q 38.96875 37.40625 42.71875 40.96875 
Q 46.484375 44.53125 46.484375 51.125 
Q 46.484375 57.671875 42.71875 61.234375 
Q 38.96875 64.796875 32.078125 64.796875 
z
M 9.8125 72.90625 
L 32.078125 72.90625 
Q 44.34375 72.90625 50.609375 67.359375 
Q 56.890625 61.8125 56.890625 51.125 
Q 56.890625 40.328125 50.609375 34.8125 
Q 44.34375 29.296875 32.078125 29.296875 
L 19.671875 29.296875 
L 19.671875 0 
L 9.8125 0 
z
" id="DejaVuSans-80"/>
     <path d="M 18.109375 8.203125 
L 18.109375 -20.796875 
L 9.078125 -20.796875 
L 9.078125 54.6875 
L 18.109375 54.6875 
L 18.109375 46.390625 
Q 20.953125 51.265625 25.265625 53.625 
Q 29.59375 56 35.59375 56 
Q 45.5625 56 51.78125 48.09375 
Q 58.015625 40.1875 58.015625 27.296875 
Q 58.015625 14.40625 51.78125 6.484375 
Q 45.5625 -1.421875 35.59375 -1.421875 
Q 29.59375 -1.421875 25.265625 0.953125 
Q 20.953125 3.328125 18.109375 8.203125 
z
M 48.6875 27.296875 
Q 48.6875 37.203125 44.609375 42.84375 
Q 40.53125 48.484375 33.40625 48.484375 
Q 26.265625 48.484375 22.1875 42.84375 
Q 18.109375 37.203125 18.109375 27.296875 
Q 18.109375 17.390625 22.1875 11.75 
Q 26.265625 6.109375 33.40625 6.109375 
Q 40.53125 6.109375 44.609375 11.75 
Q 48.6875 17.390625 48.6875 27.296875 
z
" id="DejaVuSans-112"/>
     <path d="M 8.5 21.578125 
L 8.5 54.6875 
L 17.484375 54.6875 
L 17.484375 21.921875 
Q 17.484375 14.15625 20.5 10.265625 
Q 23.53125 6.390625 29.59375 6.390625 
Q 36.859375 6.390625 41.078125 11.03125 
Q 45.3125 15.671875 45.3125 23.6875 
L 45.3125 54.6875 
L 54.296875 54.6875 
L 54.296875 0 
L 45.3125 0 
L 45.3125 8.40625 
Q 42.046875 3.421875 37.71875 1 
Q 33.40625 -1.421875 27.6875 -1.421875 
Q 18.265625 -1.421875 13.375 4.4375 
Q 8.5 10.296875 8.5 21.578125 
z
M 31.109375 56 
z
" id="DejaVuSans-117"/>
     <path d="M 9.421875 75.984375 
L 18.40625 75.984375 
L 18.40625 0 
L 9.421875 0 
z
" id="DejaVuSans-108"/>
     <path d="M 17.921875 72.90625 
L 17.921875 45.796875 
L 9.625 45.796875 
L 9.625 72.90625 
z
" id="DejaVuSans-39"/>
     <path id="DejaVuSans-32"/>
     <path d="M 2.984375 54.6875 
L 12.5 54.6875 
L 29.59375 8.796875 
L 46.6875 54.6875 
L 56.203125 54.6875 
L 35.6875 0 
L 23.484375 0 
z
" id="DejaVuSans-118"/>
     <path d="M 45.40625 27.984375 
Q 45.40625 37.75 41.375 43.109375 
Q 37.359375 48.484375 30.078125 48.484375 
Q 22.859375 48.484375 18.828125 43.109375 
Q 14.796875 37.75 14.796875 27.984375 
Q 14.796875 18.265625 18.828125 12.890625 
Q 22.859375 7.515625 30.078125 7.515625 
Q 37.359375 7.515625 41.375 12.890625 
Q 45.40625 18.265625 45.40625 27.984375 
z
M 54.390625 6.78125 
Q 54.390625 -7.171875 48.1875 -13.984375 
Q 42 -20.796875 29.203125 -20.796875 
Q 24.46875 -20.796875 20.265625 -20.09375 
Q 16.0625 -19.390625 12.109375 -17.921875 
L 12.109375 -9.1875 
Q 16.0625 -11.328125 19.921875 -12.34375 
Q 23.78125 -13.375 27.78125 -13.375 
Q 36.625 -13.375 41.015625 -8.765625 
Q 45.40625 -4.15625 45.40625 5.171875 
L 45.40625 9.625 
Q 42.625 4.78125 38.28125 2.390625 
Q 33.9375 0 27.875 0 
Q 17.828125 0 11.671875 7.65625 
Q 5.515625 15.328125 5.515625 27.984375 
Q 5.515625 40.671875 11.671875 48.328125 
Q 17.828125 56 27.875 56 
Q 33.9375 56 38.28125 53.609375 
Q 42.625 51.21875 45.40625 46.390625 
L 45.40625 54.6875 
L 54.390625 54.6875 
z
" id="DejaVuSans-103"/>
     <path d="M 45.40625 46.390625 
L 45.40625 75.984375 
L 54.390625 75.984375 
L 54.390625 0 
L 45.40625 0 
L 45.40625 8.203125 
Q 42.578125 3.328125 38.25 0.953125 
Q 33.9375 -1.421875 27.875 -1.421875 
Q 17.96875 -1.421875 11.734375 6.484375 
Q 5.515625 14.40625 5.515625 27.296875 
Q 5.515625 40.1875 11.734375 48.09375 
Q 17.96875 56 27.875 56 
Q 33.9375 56 38.25 53.625 
Q 42.578125 51.265625 45.40625 46.390625 
z
M 14.796875 27.296875 
Q 14.796875 17.390625 18.875 11.75 
Q 22.953125 6.109375 30.078125 6.109375 
Q 37.203125 6.109375 41.296875 11.75 
Q 45.40625 17.390625 45.40625 27.296875 
Q 45.40625 37.203125 41.296875 42.84375 
Q 37.203125 48.484375 30.078125 48.484375 
Q 22.953125 48.484375 18.875 42.84375 
Q 14.796875 37.203125 14.796875 27.296875 
z
" id="DejaVuSans-100"/>
     <path d="M 48.6875 27.296875 
Q 48.6875 37.203125 44.609375 42.84375 
Q 40.53125 48.484375 33.40625 48.484375 
Q 26.265625 48.484375 22.1875 42.84375 
Q 18.109375 37.203125 18.109375 27.296875 
Q 18.109375 17.390625 22.1875 11.75 
Q 26.265625 6.109375 33.40625 6.109375 
Q 40.53125 6.109375 44.609375 11.75 
Q 48.6875 17.390625 48.6875 27.296875 
z
M 18.109375 46.390625 
Q 20.953125 51.265625 25.265625 53.625 
Q 29.59375 56 35.59375 56 
Q 45.5625 56 51.78125 48.09375 
Q 58.015625 40.1875 58.015625 27.296875 
Q 58.015625 14.40625 51.78125 6.484375 
Q 45.5625 -1.421875 35.59375 -1.421875 
Q 29.59375 -1.421875 25.265625 0.953125 
Q 20.953125 3.328125 18.109375 8.203125 
L 18.109375 0 
L 9.078125 0 
L 9.078125 75.984375 
L 18.109375 75.984375 
z
" id="DejaVuSans-98"/>
     <path d="M 37.109375 75.984375 
L 37.109375 68.5 
L 28.515625 68.5 
Q 23.6875 68.5 21.796875 66.546875 
Q 19.921875 64.59375 19.921875 59.515625 
L 19.921875 54.6875 
L 34.71875 54.6875 
L 34.71875 47.703125 
L 19.921875 47.703125 
L 19.921875 0 
L 10.890625 0 
L 10.890625 47.703125 
L 2.296875 47.703125 
L 2.296875 54.6875 
L 10.890625 54.6875 
L 10.890625 58.5 
Q 10.890625 67.625 15.140625 71.796875 
Q 19.390625 75.984375 28.609375 75.984375 
z
" id="DejaVuSans-102"/>
    </defs>
    <g transform="translate(123.315 35.472)scale(0.12 -0.12)">
     <use xlink:href="#DejaVuSans-80"/>
     <use x="60.255859" xlink:href="#DejaVuSans-111"/>
     <use x="121.4375" xlink:href="#DejaVuSans-112"/>
     <use x="184.914062" xlink:href="#DejaVuSans-117"/>
     <use x="248.292969" xlink:href="#DejaVuSans-108"/>
     <use x="276.076172" xlink:href="#DejaVuSans-97"/>
     <use x="337.355469" xlink:href="#DejaVuSans-116"/>
     <use x="376.564453" xlink:href="#DejaVuSans-105"/>
     <use x="404.347656" xlink:href="#DejaVuSans-111"/>
     <use x="465.529297" xlink:href="#DejaVuSans-110"/>
     <use x="528.908203" xlink:href="#DejaVuSans-39"/>
     <use x="556.398438" xlink:href="#DejaVuSans-115"/>
     <use x="608.498047" xlink:href="#DejaVuSans-32"/>
     <use x="640.285156" xlink:href="#DejaVuSans-97"/>
     <use x="701.564453" xlink:href="#DejaVuSans-118"/>
     <use x="760.744141" xlink:href="#DejaVuSans-101"/>
     <use x="822.267578" xlink:href="#DejaVuSans-114"/>
     <use x="863.380859" xlink:href="#DejaVuSans-97"/>
     <use x="924.660156" xlink:href="#DejaVuSans-103"/>
     <use x="988.136719" xlink:href="#DejaVuSans-101"/>
     <use x="1049.660156" xlink:href="#DejaVuSans-32"/>
     <use x="1081.447266" xlink:href="#DejaVuSans-97"/>
     <use x="1142.726562" xlink:href="#DejaVuSans-110"/>
     <use x="1206.105469" xlink:href="#DejaVuSans-100"/>
     <use x="1269.582031" xlink:href="#DejaVuSans-32"/>
     <use x="1301.369141" xlink:href="#DejaVuSans-98"/>
     <use x="1364.845703" xlink:href="#DejaVuSans-101"/>
     <use x="1426.369141" xlink:href="#DejaVuSans-115"/>
     <use x="1478.46875" xlink:href="#DejaVuSans-116"/>
     <use x="1517.677734" xlink:href="#DejaVuSans-32"/>
     <use x="1549.464844" xlink:href="#DejaVuSans-102"/>
     <use x="1584.669922" xlink:href="#DejaVuSans-105"/>
     <use x="1612.453125" xlink:href="#DejaVuSans-116"/>
     <use x="1651.662109" xlink:href="#DejaVuSans-110"/>
     <use x="1715.041016" xlink:href="#DejaVuSans-101"/>
     <use x="1776.564453" xlink:href="#DejaVuSans-115"/>
     <use x="1828.664062" xlink:href="#DejaVuSans-115"/>
    </g>
   </g>
   <g id="legend_1">
    <g id="patch_7">
     <path d="M 334.779375 93.506375 
L 407.72 93.506375 
Q 409.72 93.506375 409.72 91.506375 
L 409.72 48.472 
Q 409.72 46.472 407.72 46.472 
L 334.779375 46.472 
Q 332.779375 46.472 332.779375 48.472 
L 332.779375 91.506375 
Q 332.779375 93.506375 334.779375 93.506375 
z
" style="fill:#ffffff;opacity:0.8;stroke:#cccccc;stroke-linejoin:miter;"/>
    </g>
    <g id="line2d_34">
     <path d="M 336.779375 54.570438 
L 356.779375 54.570438 
" style="fill:none;stroke:#0000ff;stroke-linecap:square;stroke-width:1.5;"/>
    </g>
    <g id="line2d_35"/>
    <g id="text_19">
     <!-- average -->
     <g transform="translate(364.779375 58.070438)scale(0.1 -0.1)">
      <use xlink:href="#DejaVuSans-97"/>
      <use x="61.279297" xlink:href="#DejaVuSans-118"/>
      <use x="120.458984" xlink:href="#DejaVuSans-101"/>
      <use x="181.982422" xlink:href="#DejaVuSans-114"/>
      <use x="223.095703" xlink:href="#DejaVuSans-97"/>
      <use x="284.375" xlink:href="#DejaVuSans-103"/>
      <use x="347.851562" xlink:href="#DejaVuSans-101"/>
     </g>
    </g>
    <g id="line2d_36">
     <path d="M 336.779375 69.248563 
L 356.779375 69.248563 
" style="fill:none;stroke:#008000;stroke-dasharray:9.6,2.4,1.5,2.4;stroke-dashoffset:0;stroke-width:1.5;"/>
    </g>
    <g id="line2d_37"/>
    <g id="text_20">
     <!-- +1 sd -->
     <defs>
      <path d="M 46 62.703125 
L 46 35.5 
L 73.1875 35.5 
L 73.1875 27.203125 
L 46 27.203125 
L 46 0 
L 37.796875 0 
L 37.796875 27.203125 
L 10.59375 27.203125 
L 10.59375 35.5 
L 37.796875 35.5 
L 37.796875 62.703125 
z
" id="DejaVuSans-43"/>
     </defs>
     <g transform="translate(364.779375 72.748563)scale(0.1 -0.1)">
      <use xlink:href="#DejaVuSans-43"/>
      <use x="83.789062" xlink:href="#DejaVuSans-49"/>
      <use x="147.412109" xlink:href="#DejaVuSans-32"/>
      <use x="179.199219" xlink:href="#DejaVuSans-115"/>
      <use x="231.298828" xlink:href="#DejaVuSans-100"/>
     </g>
    </g>
    <g id="line2d_38">
     <path d="M 336.779375 83.926688 
L 356.779375 83.926688 
" style="fill:none;stroke:#ff0000;stroke-linecap:square;stroke-width:1.5;"/>
    </g>
    <g id="line2d_39"/>
    <g id="text_21">
     <!-- best -->
     <g transform="translate(364.779375 87.426688)scale(0.1 -0.1)">
      <use xlink:href="#DejaVuSans-98"/>
      <use x="63.476562" xlink:href="#DejaVuSans-101"/>
      <use x="125" xlink:href="#DejaVuSans-115"/>
      <use x="177.099609" xlink:href="#DejaVuSans-116"/>
     </g>
    </g>
   </g>
  </g>
 </g>
 <defs>
  <clipPath id="pf8dd7b59f3">
   <rect height="266.112" width="357.12" x="57.6" y="41.472"/>
  </clipPath>
 </defs>
</svg>
