<?xml version="1.0" encoding="UTF-8" standalone="no"?>
<!DOCTYPE svg PUBLIC "-//W3C//DTD SVG 1.1//EN"
 "http://www.w3.org/Graphics/SVG/1.1/DTD/svg11.dtd">
<!-- Generated by graphviz version 2.38.0 (20140413.2041)
 -->
<!-- Title: %3 Pages: 1 -->
<svg width="170pt" height="183pt"
 viewBox="0.00 0.00 170.43 182.85" xmlns="http://www.w3.org/2000/svg" xmlns:xlink="http://www.w3.org/1999/xlink">
<g id="graph0" class="graph" transform="scale(1 1) rotate(0) translate(4 178.853)">
<title>%3</title>
<polygon fill="white" stroke="none" points="-4,4 -4,-178.853 166.426,-178.853 166.426,4 -4,4"/>
<!-- IA -->
<g id="node1" class="node"><title>IA</title>
<polygon fill="lightgray" stroke="black" points="94.2132,-174.853 68.2132,-174.853 68.2132,-156.853 94.2132,-156.853 94.2132,-174.853"/>
<text text-anchor="middle" x="81.2132" y="-163.653" font-family="Times,serif" font-size="9.00">IA</text>
</g>
<!-- 323 -->
<g id="node5" class="node"><title>323</title>
<ellipse fill="white" stroke="black" cx="81.2132" cy="-99.6396" rx="21.4286" ry="21.4286"/>
<text text-anchor="middle" x="81.2132" y="-97.4396" font-family="Times,serif" font-size="9.00">323</text>
</g>
<!-- IA&#45;&gt;323 -->
<g id="edge1" class="edge"><title>IA&#45;&gt;323</title>
<path fill="none" stroke="green" stroke-width="0.106967" d="M81.2132,-156.72C81.2132,-150.177 81.2132,-140.548 81.2132,-131.109"/>
<polygon fill="green" stroke="green" stroke-width="0.106967" points="84.7133,-131.095 81.2132,-121.095 77.7133,-131.095 84.7133,-131.095"/>
</g>
<!-- IB -->
<g id="node2" class="node"><title>IB</title>
<polygon fill="lightgray" stroke="black" points="42.2132,-174.853 16.2132,-174.853 16.2132,-156.853 42.2132,-156.853 42.2132,-174.853"/>
<text text-anchor="middle" x="29.2132" y="-163.653" font-family="Times,serif" font-size="9.00">IB</text>
</g>
<!-- IB&#45;&gt;323 -->
<g id="edge2" class="edge"><title>IB&#45;&gt;323</title>
<path fill="none" stroke="red" stroke-width="0.1" d="M35.799,-156.72C42.3525,-148.628 52.7291,-135.814 61.9101,-124.476"/>
<polygon fill="red" stroke="red" stroke-width="0.1" points="64.739,-126.545 68.3123,-116.571 59.299,-122.139 64.739,-126.545"/>
</g>
<!-- 325 -->
<g id="node7" class="node"><title>325</title>
<ellipse fill="white" stroke="black" cx="21.2132" cy="-99.6396" rx="21.4286" ry="21.4286"/>
<text text-anchor="middle" x="21.2132" y="-97.4396" font-family="Times,serif" font-size="9.00">325</text>
</g>
<!-- IB&#45;&gt;325 -->
<g id="edge3" class="edge"><title>IB&#45;&gt;325</title>
<path fill="none" stroke="red" stroke-width="0.197525" d="M28.2,-156.72C27.3787,-150.128 26.167,-140.402 24.9825,-130.894"/>
<polygon fill="red" stroke="red" stroke-width="0.197525" points="28.437,-130.311 23.7275,-120.821 21.4907,-131.177 28.437,-130.311"/>
</g>
<!-- OA -->
<g id="node3" class="node"><title>OA</title>
<ellipse fill="lightblue" stroke="black" cx="36.2132" cy="-21.2132" rx="21.4286" ry="21.4286"/>
<text text-anchor="middle" x="36.2132" y="-19.0132" font-family="Times,serif" font-size="9.00">OA</text>
</g>
<!-- OB -->
<g id="node4" class="node"><title>OB</title>
<ellipse fill="lightblue" stroke="black" cx="126.213" cy="-21.2132" rx="20.5122" ry="20.5122"/>
<text text-anchor="middle" x="126.213" y="-19.0132" font-family="Times,serif" font-size="9.00">OB</text>
</g>
<!-- 323&#45;&gt;OA -->
<g id="edge4" class="edge"><title>323&#45;&gt;OA</title>
<path fill="none" stroke="red" stroke-width="0.1" d="M70.7762,-80.9138C65.1534,-71.3642 58.1037,-59.3912 51.84,-48.7532"/>
<polygon fill="red" stroke="red" stroke-width="0.1" points="54.6835,-46.6843 46.5936,-39.8429 48.6515,-50.236 54.6835,-46.6843"/>
</g>
<!-- 323&#45;&gt;OB -->
<g id="edge5" class="edge"><title>323&#45;&gt;OB</title>
<path fill="none" stroke="green" stroke-width="0.237099" d="M91.6502,-80.9138C97.4109,-71.13 104.669,-58.8023 111.046,-47.9728"/>
<polygon fill="green" stroke="green" stroke-width="0.237099" points="114.084,-49.7103 116.142,-39.3172 108.052,-46.1586 114.084,-49.7103"/>
</g>
<!-- 324 -->
<g id="node6" class="node"><title>324</title>
<ellipse fill="white" stroke="black" cx="141.213" cy="-99.6396" rx="21.4286" ry="21.4286"/>
<text text-anchor="middle" x="141.213" y="-97.4396" font-family="Times,serif" font-size="9.00">324</text>
</g>
<!-- 324&#45;&gt;OB -->
<g id="edge6" class="edge"><title>324&#45;&gt;OB</title>
<path fill="none" stroke="red" stroke-width="0.1" d="M137.272,-78.5595C135.663,-70.3583 133.768,-60.7064 132.006,-51.7306"/>
<polygon fill="red" stroke="red" stroke-width="0.1" points="135.385,-50.7703 130.024,-41.6316 128.516,-52.1185 135.385,-50.7703"/>
</g>
<!-- 325&#45;&gt;OA -->
<g id="edge7" class="edge"><title>325&#45;&gt;OA</title>
<path fill="none" stroke="red" stroke-width="0.165276" d="M25.1543,-78.5595C26.7389,-70.4854 28.5996,-61.0054 30.3379,-52.1485"/>
<polygon fill="red" stroke="red" stroke-width="0.165276" points="33.8069,-52.6461 32.2985,-42.1592 26.938,-51.2979 33.8069,-52.6461"/>
</g>
</g>
</svg>
