<?xml version="1.0" encoding="UTF-8" standalone="no"?>
<!DOCTYPE svg PUBLIC "-//W3C//DTD SVG 1.1//EN"
 "http://www.w3.org/Graphics/SVG/1.1/DTD/svg11.dtd">
<!-- Generated by graphviz version 2.38.0 (20140413.2041)
 -->
<!-- Title: %3 Pages: 1 -->
<svg width="371pt" height="190pt"
 viewBox="0.00 0.00 371.50 189.92" xmlns="http://www.w3.org/2000/svg" xmlns:xlink="http://www.w3.org/1999/xlink">
<g id="graph0" class="graph" transform="scale(1 1) rotate(0) translate(4 185.924)">
<title>%3</title>
<polygon fill="white" stroke="none" points="-4,4 -4,-185.924 367.497,-185.924 367.497,4 -4,4"/>
<!-- IA -->
<g id="node1" class="node"><title>IA</title>
<polygon fill="lightgray" stroke="black" points="78.7487,-181.924 52.7487,-181.924 52.7487,-163.924 78.7487,-163.924 78.7487,-181.924"/>
<text text-anchor="middle" x="65.7487" y="-170.724" font-family="Times,serif" font-size="9.00">IA</text>
</g>
<!-- OB -->
<g id="node4" class="node"><title>OB</title>
<ellipse fill="lightblue" stroke="black" cx="105.749" cy="-103.175" rx="20.5122" ry="20.5122"/>
<text text-anchor="middle" x="105.749" y="-100.975" font-family="Times,serif" font-size="9.00">OB</text>
</g>
<!-- IA&#45;&gt;OB -->
<g id="edge8" class="edge"><title>IA&#45;&gt;OB</title>
<path fill="none" stroke="red" stroke-width="0.184252" d="M70.4943,-163.886C75.4086,-155.563 83.3482,-142.115 90.4495,-130.088"/>
<polygon fill="red" stroke="red" stroke-width="0.184252" points="93.5823,-131.666 95.6526,-121.275 87.5545,-128.107 93.5823,-131.666"/>
</g>
<!-- 1842 -->
<g id="node7" class="node"><title>1842</title>
<ellipse fill="none" stroke="black" cx="24.7487" cy="-103.175" rx="25" ry="25"/>
<text text-anchor="middle" x="24.7487" y="-100.975" font-family="Times,serif" font-size="9.00">1842</text>
</g>
<!-- IA&#45;&gt;1842 -->
<g id="edge1" class="edge"><title>IA&#45;&gt;1842</title>
<path fill="none" stroke="green" stroke-width="0.401839" d="M60.8845,-163.886C56.2984,-156.308 49.142,-144.483 42.4038,-133.348"/>
<polygon fill="green" stroke="green" stroke-width="0.401839" points="45.3185,-131.405 37.1466,-124.661 39.3297,-135.029 45.3185,-131.405"/>
</g>
<!-- IB -->
<g id="node2" class="node"><title>IB</title>
<polygon fill="lightgray" stroke="black" points="181.749,-181.924 155.749,-181.924 155.749,-163.924 181.749,-163.924 181.749,-181.924"/>
<text text-anchor="middle" x="168.749" y="-170.724" font-family="Times,serif" font-size="9.00">IB</text>
</g>
<!-- IB&#45;&gt;OB -->
<g id="edge9" class="edge"><title>IB&#45;&gt;OB</title>
<path fill="none" stroke="green" stroke-width="0.425362" d="M161.274,-163.886C152.745,-154.714 138.429,-139.319 126.471,-126.459"/>
<polygon fill="green" stroke="green" stroke-width="0.425362" points="128.775,-123.797 119.402,-118.857 123.649,-128.564 128.775,-123.797"/>
</g>
<!-- 1843 -->
<g id="node5" class="node"><title>1843</title>
<ellipse fill="white" stroke="black" cx="253.749" cy="-103.175" rx="25" ry="25"/>
<text text-anchor="middle" x="253.749" y="-100.975" font-family="Times,serif" font-size="9.00">1843</text>
</g>
<!-- IB&#45;&gt;1843 -->
<g id="edge3" class="edge"><title>IB&#45;&gt;1843</title>
<path fill="none" stroke="green" stroke-width="0.288905" d="M178.833,-163.886C190.517,-154.574 210.248,-138.847 226.528,-125.871"/>
<polygon fill="green" stroke="green" stroke-width="0.288905" points="229.028,-128.354 234.666,-119.385 224.665,-122.88 229.028,-128.354"/>
</g>
<!-- 1845 -->
<g id="node6" class="node"><title>1845</title>
<ellipse fill="white" stroke="black" cx="168.749" cy="-103.175" rx="25" ry="25"/>
<text text-anchor="middle" x="168.749" y="-100.975" font-family="Times,serif" font-size="9.00">1845</text>
</g>
<!-- IB&#45;&gt;1845 -->
<g id="edge5" class="edge"><title>IB&#45;&gt;1845</title>
<path fill="none" stroke="green" stroke-width="0.189838" d="M168.749,-163.886C168.749,-157.451 168.749,-147.953 168.749,-138.417"/>
<polygon fill="green" stroke="green" stroke-width="0.189838" points="172.249,-138.196 168.749,-128.196 165.249,-138.196 172.249,-138.196"/>
</g>
<!-- IB&#45;&gt;1842 -->
<g id="edge2" class="edge"><title>IB&#45;&gt;1842</title>
<path fill="none" stroke="green" stroke-width="0.467979" d="M155.716,-165.792C133.38,-155.284 87.191,-133.553 56.0788,-118.915"/>
<polygon fill="green" stroke="green" stroke-width="0.467979" points="57.489,-115.711 46.9504,-114.621 54.5089,-122.045 57.489,-115.711"/>
</g>
<!-- 1844 -->
<g id="node8" class="node"><title>1844</title>
<ellipse fill="none" stroke="black" cx="320.749" cy="-103.175" rx="25" ry="25"/>
<text text-anchor="middle" x="320.749" y="-100.975" font-family="Times,serif" font-size="9.00">1844</text>
</g>
<!-- IB&#45;&gt;1844 -->
<g id="edge4" class="edge"><title>IB&#45;&gt;1844</title>
<path fill="none" stroke="red" stroke-width="0.255092" d="M182.099,-168.274C204.65,-161.831 251.386,-147.272 287.749,-127.924 289.525,-126.979 291.314,-125.95 293.092,-124.868"/>
<polygon fill="red" stroke="red" stroke-width="0.255092" points="295.346,-127.574 301.771,-119.15 291.495,-121.729 295.346,-127.574"/>
</g>
<!-- OA -->
<g id="node3" class="node"><title>OA</title>
<ellipse fill="lightblue" stroke="black" cx="210.749" cy="-21.2132" rx="21.4286" ry="21.4286"/>
<text text-anchor="middle" x="210.749" y="-19.0132" font-family="Times,serif" font-size="9.00">OA</text>
</g>
<!-- OA&#45;&gt;OA -->
<g id="edge10" class="edge"><title>OA&#45;&gt;OA</title>
<path fill="none" stroke="green" stroke-width="0.331287" d="M227.269,-34.7484C238.703,-38.8499 249.962,-34.3382 249.962,-21.2132 249.962,-12.1898 244.641,-7.23745 237.599,-6.35625"/>
<polygon fill="green" stroke="green" stroke-width="0.331287" points="236.744,-2.93705 227.269,-7.67805 237.632,-9.88044 236.744,-2.93705"/>
</g>
<!-- 1843&#45;&gt;OA -->
<g id="edge6" class="edge"><title>1843&#45;&gt;OA</title>
<path fill="none" stroke="green" stroke-width="0.197726" d="M242.226,-80.7468C237.007,-71.0421 230.78,-59.4635 225.248,-49.1758"/>
<polygon fill="green" stroke="green" stroke-width="0.197726" points="228.23,-47.3312 220.411,-40.1816 222.065,-50.6466 228.23,-47.3312"/>
</g>
<!-- 1845&#45;&gt;OA -->
<g id="edge7" class="edge"><title>1845&#45;&gt;OA</title>
<path fill="none" stroke="red" stroke-width="0.122382" d="M180.004,-80.7468C185.064,-71.1129 191.094,-59.6324 196.468,-49.4013"/>
<polygon fill="red" stroke="red" stroke-width="0.122382" points="199.621,-50.926 201.172,-40.4453 193.424,-47.6709 199.621,-50.926"/>
</g>
<!-- 1845&#45;&gt;1845 -->
<g id="edge13" class="edge"><title>1845&#45;&gt;1845</title>
<path fill="none" stroke="green" stroke-width="0.313949" d="M190.304,-115.477C201.45,-117.369 211.497,-113.269 211.497,-103.175 211.497,-96.3934 206.962,-92.3171 200.605,-90.9462"/>
<polygon fill="green" stroke="green" stroke-width="0.313949" points="200.329,-87.4442 190.304,-90.8734 200.279,-94.444 200.329,-87.4442"/>
</g>
<!-- 1842&#45;&gt;1842 -->
<g id="edge11" class="edge"><title>1842&#45;&gt;1842</title>
<path fill="none" stroke="green" stroke-width="0.163203" d="M46.3044,-115.477C57.4504,-117.369 67.4975,-113.269 67.4975,-103.175 67.4975,-96.3934 62.9621,-92.3171 56.6052,-90.9462"/>
<polygon fill="green" stroke="green" stroke-width="0.163203" points="56.329,-87.4442 46.3044,-90.8734 56.2794,-94.444 56.329,-87.4442"/>
</g>
<!-- 1844&#45;&gt;1844 -->
<g id="edge12" class="edge"><title>1844&#45;&gt;1844</title>
<path fill="none" stroke="green" stroke-width="0.36952" d="M342.304,-115.477C353.45,-117.369 363.497,-113.269 363.497,-103.175 363.497,-96.3934 358.962,-92.3171 352.605,-90.9462"/>
<polygon fill="green" stroke="green" stroke-width="0.36952" points="352.329,-87.4442 342.304,-90.8734 352.279,-94.444 352.329,-87.4442"/>
</g>
</g>
</svg>
