<?xml version="1.0" encoding="UTF-8" standalone="no"?>
<!DOCTYPE svg PUBLIC "-//W3C//DTD SVG 1.1//EN"
 "http://www.w3.org/Graphics/SVG/1.1/DTD/svg11.dtd">
<!-- Generated by graphviz version 2.38.0 (20140413.2041)
 -->
<!-- Title: %3 Pages: 1 -->
<svg width="432pt" height="189pt"
 viewBox="0.00 0.00 432.50 188.51" xmlns="http://www.w3.org/2000/svg" xmlns:xlink="http://www.w3.org/1999/xlink">
<g id="graph0" class="graph" transform="scale(1 1) rotate(0) translate(4 184.51)">
<title>%3</title>
<polygon fill="white" stroke="none" points="-4,4 -4,-184.51 428.497,-184.51 428.497,4 -4,4"/>
<!-- IA -->
<g id="node1" class="node"><title>IA</title>
<polygon fill="lightgray" stroke="black" points="168.749,-180.51 142.749,-180.51 142.749,-162.51 168.749,-162.51 168.749,-180.51"/>
<text text-anchor="middle" x="155.749" y="-169.31" font-family="Times,serif" font-size="9.00">IA</text>
</g>
<!-- OA -->
<g id="node3" class="node"><title>OA</title>
<ellipse fill="lightblue" stroke="black" cx="106.749" cy="-101.761" rx="21.4286" ry="21.4286"/>
<text text-anchor="middle" x="106.749" y="-99.5609" font-family="Times,serif" font-size="9.00">OA</text>
</g>
<!-- IA&#45;&gt;OA -->
<g id="edge9" class="edge"><title>IA&#45;&gt;OA</title>
<path fill="none" stroke="green" stroke-width="0.378169" d="M149.935,-162.472C143.715,-153.871 133.538,-139.8 124.625,-127.477"/>
<polygon fill="green" stroke="green" stroke-width="0.378169" points="127.417,-125.365 118.721,-119.314 121.745,-129.468 127.417,-125.365"/>
</g>
<!-- OB -->
<g id="node4" class="node"><title>OB</title>
<ellipse fill="lightblue" stroke="black" cx="319.749" cy="-20.5061" rx="20.5122" ry="20.5122"/>
<text text-anchor="middle" x="319.749" y="-18.3061" font-family="Times,serif" font-size="9.00">OB</text>
</g>
<!-- IA&#45;&gt;OB -->
<g id="edge10" class="edge"><title>IA&#45;&gt;OB</title>
<path fill="none" stroke="green" stroke-width="0.302318" d="M154.986,-162.409C153.78,-144.709 153.442,-102.163 174.749,-77.0122 203.677,-42.8648 256.073,-29.6631 289.328,-24.6015"/>
<polygon fill="green" stroke="green" stroke-width="0.302318" points="289.964,-28.0473 299.399,-23.2279 289.018,-21.1116 289.964,-28.0473"/>
</g>
<!-- 1430 -->
<g id="node6" class="node"><title>1430</title>
<ellipse fill="white" stroke="black" cx="293.749" cy="-101.761" rx="25" ry="25"/>
<text text-anchor="middle" x="293.749" y="-99.5609" font-family="Times,serif" font-size="9.00">1430</text>
</g>
<!-- IA&#45;&gt;1430 -->
<g id="edge1" class="edge"><title>IA&#45;&gt;1430</title>
<path fill="none" stroke="green" stroke-width="0.297872" d="M168.794,-166.126C189.094,-159.069 229.187,-144.177 260.749,-126.51 262.504,-125.527 264.278,-124.469 266.044,-123.364"/>
<polygon fill="green" stroke="green" stroke-width="0.297872" points="268.32,-126.053 274.69,-117.587 264.431,-120.233 268.32,-126.053"/>
</g>
<!-- 1432 -->
<g id="node7" class="node"><title>1432</title>
<ellipse fill="none" stroke="black" cx="24.7487" cy="-101.761" rx="25" ry="25"/>
<text text-anchor="middle" x="24.7487" y="-99.5609" font-family="Times,serif" font-size="9.00">1432</text>
</g>
<!-- IA&#45;&gt;1432 -->
<g id="edge2" class="edge"><title>IA&#45;&gt;1432</title>
<path fill="none" stroke="green" stroke-width="0.245299" d="M142.709,-163.766C122.475,-153.302 82.9655,-132.869 55.2672,-118.544"/>
<polygon fill="green" stroke="green" stroke-width="0.245299" points="56.8618,-115.428 46.3715,-113.944 53.6462,-121.646 56.8618,-115.428"/>
</g>
<!-- 1433 -->
<g id="node8" class="node"><title>1433</title>
<ellipse fill="none" stroke="black" cx="208.749" cy="-101.761" rx="25" ry="25"/>
<text text-anchor="middle" x="208.749" y="-99.5609" font-family="Times,serif" font-size="9.00">1433</text>
</g>
<!-- IA&#45;&gt;1433 -->
<g id="edge3" class="edge"><title>IA&#45;&gt;1433</title>
<path fill="none" stroke="green" stroke-width="0.23644" d="M162.037,-162.472C168.364,-154.384 178.476,-141.458 187.676,-129.698"/>
<polygon fill="green" stroke="green" stroke-width="0.23644" points="190.437,-131.849 193.842,-121.816 184.924,-127.536 190.437,-131.849"/>
</g>
<!-- IB -->
<g id="node2" class="node"><title>IB</title>
<polygon fill="lightgray" stroke="black" points="332.749,-180.51 306.749,-180.51 306.749,-162.51 332.749,-162.51 332.749,-180.51"/>
<text text-anchor="middle" x="319.749" y="-169.31" font-family="Times,serif" font-size="9.00">IB</text>
</g>
<!-- IB&#45;&gt;OB -->
<g id="edge11" class="edge"><title>IB&#45;&gt;OB</title>
<path fill="none" stroke="green" stroke-width="0.466154" d="M321.663,-162.46C323.644,-153.682 326.605,-139.191 327.749,-126.51 329.724,-104.6 329.322,-98.9548 327.749,-77.0122 327.142,-68.5453 326.02,-59.4074 324.805,-51.0376"/>
<polygon fill="green" stroke="green" stroke-width="0.466154" points="328.233,-50.3034 323.248,-40.955 321.315,-51.3722 328.233,-50.3034"/>
</g>
<!-- 1431 -->
<g id="node5" class="node"><title>1431</title>
<ellipse fill="white" stroke="black" cx="399.749" cy="-101.761" rx="25" ry="25"/>
<text text-anchor="middle" x="399.749" y="-99.5609" font-family="Times,serif" font-size="9.00">1431</text>
</g>
<!-- IB&#45;&gt;1431 -->
<g id="edge5" class="edge"><title>IB&#45;&gt;1431</title>
<path fill="none" stroke="green" stroke-width="0.512798" d="M329.24,-162.472C339.996,-153.363 357.998,-138.118 373.119,-125.312"/>
<polygon fill="green" stroke="green" stroke-width="0.512798" points="375.79,-127.637 381.159,-118.503 371.266,-122.295 375.79,-127.637"/>
</g>
<!-- IB&#45;&gt;1430 -->
<g id="edge4" class="edge"><title>IB&#45;&gt;1430</title>
<path fill="none" stroke="green" stroke-width="0.257899" d="M316.664,-162.472C313.966,-155.441 309.864,-144.754 305.874,-134.355"/>
<polygon fill="green" stroke="green" stroke-width="0.257899" points="309.134,-133.081 302.283,-124.999 302.598,-135.589 309.134,-133.081"/>
</g>
<!-- IB&#45;&gt;1433 -->
<g id="edge6" class="edge"><title>IB&#45;&gt;1433</title>
<path fill="none" stroke="green" stroke-width="0.231633" d="M306.58,-162.472C289.823,-152.244 260.39,-134.28 238.172,-120.72"/>
<polygon fill="green" stroke="green" stroke-width="0.231633" points="239.811,-117.62 229.452,-115.397 236.164,-123.595 239.811,-117.62"/>
</g>
<!-- OB&#45;&gt;OB -->
<g id="edge12" class="edge"><title>OB&#45;&gt;OB</title>
<path fill="none" stroke="green" stroke-width="0.419681" d="M335.57,-33.8911C346.935,-38.249 358.255,-33.7873 358.255,-20.5061 358.255,-11.3752 352.904,-6.41301 345.867,-5.61941"/>
<polygon fill="green" stroke="green" stroke-width="0.419681" points="344.96,-2.21456 335.57,-7.12109 345.971,-9.14129 344.96,-2.21456"/>
</g>
<!-- 1431&#45;&gt;OB -->
<g id="edge8" class="edge"><title>1431&#45;&gt;OB</title>
<path fill="none" stroke="green" stroke-width="0.500168" d="M382.39,-83.5638C370.251,-71.5377 353.963,-55.4021 341.04,-42.5986"/>
<polygon fill="green" stroke="green" stroke-width="0.500168" points="343.443,-40.0529 333.876,-35.5014 338.516,-45.0257 343.443,-40.0529"/>
</g>
<!-- 1430&#45;&gt;OB -->
<g id="edge7" class="edge"><title>1430&#45;&gt;OB</title>
<path fill="none" stroke="green" stroke-width="0.503832" d="M301.269,-77.8371C304.155,-69.041 307.481,-58.9008 310.51,-49.6689"/>
<polygon fill="green" stroke="green" stroke-width="0.503832" points="313.853,-50.7072 313.644,-40.1144 307.201,-48.5252 313.853,-50.7072"/>
</g>
<!-- 1432&#45;&gt;1432 -->
<g id="edge13" class="edge"><title>1432&#45;&gt;1432</title>
<path fill="none" stroke="green" stroke-width="0.359132" d="M46.3044,-114.063C57.4504,-115.955 67.4975,-111.855 67.4975,-101.761 67.4975,-94.9792 62.9621,-90.9029 56.6052,-89.5319"/>
<polygon fill="green" stroke="green" stroke-width="0.359132" points="56.329,-86.03 46.3044,-89.4592 56.2794,-93.0298 56.329,-86.03"/>
</g>
<!-- 1433&#45;&gt;1433 -->
<g id="edge14" class="edge"><title>1433&#45;&gt;1433</title>
<path fill="none" stroke="green" stroke-width="0.40285" d="M230.304,-114.063C241.45,-115.955 251.497,-111.855 251.497,-101.761 251.497,-94.9792 246.962,-90.9029 240.605,-89.5319"/>
<polygon fill="green" stroke="green" stroke-width="0.40285" points="240.329,-86.03 230.304,-89.4592 240.279,-93.0298 240.329,-86.03"/>
</g>
</g>
</svg>
