<?xml version="1.0" encoding="UTF-8" standalone="no"?>
<!DOCTYPE svg PUBLIC "-//W3C//DTD SVG 1.1//EN"
 "http://www.w3.org/Graphics/SVG/1.1/DTD/svg11.dtd">
<!-- Generated by graphviz version 2.38.0 (20140413.2041)
 -->
<!-- Title: %3 Pages: 1 -->
<svg width="393pt" height="189pt"
 viewBox="0.00 0.00 392.96 188.51" xmlns="http://www.w3.org/2000/svg" xmlns:xlink="http://www.w3.org/1999/xlink">
<g id="graph0" class="graph" transform="scale(1 1) rotate(0) translate(4 184.51)">
<title>%3</title>
<polygon fill="white" stroke="none" points="-4,4 -4,-184.51 388.962,-184.51 388.962,4 -4,4"/>
<!-- IA -->
<g id="node1" class="node"><title>IA</title>
<polygon fill="lightgray" stroke="black" points="83.2132,-180.51 57.2132,-180.51 57.2132,-162.51 83.2132,-162.51 83.2132,-180.51"/>
<text text-anchor="middle" x="70.2132" y="-169.31" font-family="Times,serif" font-size="9.00">IA</text>
</g>
<!-- OA -->
<g id="node3" class="node"><title>OA</title>
<ellipse fill="lightblue" stroke="black" cx="21.2132" cy="-101.761" rx="21.4286" ry="21.4286"/>
<text text-anchor="middle" x="21.2132" y="-99.5609" font-family="Times,serif" font-size="9.00">OA</text>
</g>
<!-- IA&#45;&gt;OA -->
<g id="edge8" class="edge"><title>IA&#45;&gt;OA</title>
<path fill="none" stroke="green" stroke-width="0.207284" d="M64.3998,-162.472C58.1794,-153.871 48.0022,-139.8 39.0894,-127.477"/>
<polygon fill="green" stroke="green" stroke-width="0.207284" points="41.8817,-125.365 33.1853,-119.314 36.2097,-129.468 41.8817,-125.365"/>
</g>
<!-- OB -->
<g id="node4" class="node"><title>OB</title>
<ellipse fill="lightblue" stroke="black" cx="165.213" cy="-20.5061" rx="20.5122" ry="20.5122"/>
<text text-anchor="middle" x="165.213" y="-18.3061" font-family="Times,serif" font-size="9.00">OB</text>
</g>
<!-- IA&#45;&gt;OB -->
<g id="edge9" class="edge"><title>IA&#45;&gt;OB</title>
<path fill="none" stroke="green" stroke-width="0.680618" d="M69.9687,-162.277C69.8423,-145.04 71.5979,-104.48 89.2132,-77.0122 101.046,-58.561 121.349,-44.205 137.994,-34.7192"/>
<polygon fill="green" stroke="green" stroke-width="0.680618" points="139.663,-37.7959 146.788,-29.9553 136.328,-31.641 139.663,-37.7959"/>
</g>
<!-- 1255 -->
<g id="node6" class="node"><title>1255</title>
<ellipse fill="white" stroke="black" cx="123.213" cy="-101.761" rx="25" ry="25"/>
<text text-anchor="middle" x="123.213" y="-99.5609" font-family="Times,serif" font-size="9.00">1255</text>
</g>
<!-- IA&#45;&gt;1255 -->
<g id="edge1" class="edge"><title>IA&#45;&gt;1255</title>
<path fill="none" stroke="green" stroke-width="0.278974" d="M76.5011,-162.472C82.8283,-154.384 92.9404,-141.458 102.141,-129.698"/>
<polygon fill="green" stroke="green" stroke-width="0.278974" points="104.902,-131.849 108.306,-121.816 99.3882,-127.536 104.902,-131.849"/>
</g>
<!-- IB -->
<g id="node2" class="node"><title>IB</title>
<polygon fill="lightgray" stroke="black" points="306.213,-180.51 280.213,-180.51 280.213,-162.51 306.213,-162.51 306.213,-180.51"/>
<text text-anchor="middle" x="293.213" y="-169.31" font-family="Times,serif" font-size="9.00">IB</text>
</g>
<!-- 1254 -->
<g id="node5" class="node"><title>1254</title>
<ellipse fill="white" stroke="black" cx="208.213" cy="-101.761" rx="25" ry="25"/>
<text text-anchor="middle" x="208.213" y="-99.5609" font-family="Times,serif" font-size="9.00">1254</text>
</g>
<!-- IB&#45;&gt;1254 -->
<g id="edge2" class="edge"><title>IB&#45;&gt;1254</title>
<path fill="none" stroke="green" stroke-width="0.283979" d="M283.129,-162.472C271.445,-153.159 251.714,-137.433 235.434,-124.457"/>
<polygon fill="green" stroke="green" stroke-width="0.283979" points="237.297,-121.466 227.295,-117.97 232.934,-126.94 237.297,-121.466"/>
</g>
<!-- 1256 -->
<g id="node7" class="node"><title>1256</title>
<ellipse fill="white" stroke="black" cx="293.213" cy="-101.761" rx="25" ry="25"/>
<text text-anchor="middle" x="293.213" y="-99.5609" font-family="Times,serif" font-size="9.00">1256</text>
</g>
<!-- IB&#45;&gt;1256 -->
<g id="edge3" class="edge"><title>IB&#45;&gt;1256</title>
<path fill="none" stroke="green" stroke-width="0.51223" d="M293.213,-162.472C293.213,-156.037 293.213,-146.539 293.213,-137.003"/>
<polygon fill="green" stroke="green" stroke-width="0.51223" points="296.713,-136.782 293.213,-126.782 289.713,-136.782 296.713,-136.782"/>
</g>
<!-- 1257 -->
<g id="node8" class="node"><title>1257</title>
<ellipse fill="none" stroke="black" cx="360.213" cy="-101.761" rx="25" ry="25"/>
<text text-anchor="middle" x="360.213" y="-99.5609" font-family="Times,serif" font-size="9.00">1257</text>
</g>
<!-- IB&#45;&gt;1257 -->
<g id="edge4" class="edge"><title>IB&#45;&gt;1257</title>
<path fill="none" stroke="green" stroke-width="0.343166" d="M301.162,-162.472C309.716,-153.822 323.743,-139.639 335.98,-127.265"/>
<polygon fill="green" stroke="green" stroke-width="0.343166" points="338.759,-129.432 343.302,-119.861 333.782,-124.51 338.759,-129.432"/>
</g>
<!-- 1254&#45;&gt;OB -->
<g id="edge5" class="edge"><title>1254&#45;&gt;OB</title>
<path fill="none" stroke="green" stroke-width="0.462489" d="M196.69,-79.5221C191.395,-69.7628 185.063,-58.0915 179.471,-47.7845"/>
<polygon fill="green" stroke="green" stroke-width="0.462489" points="182.439,-45.9169 174.594,-38.7964 176.287,-49.2552 182.439,-45.9169"/>
</g>
<!-- 1254&#45;&gt;1254 -->
<g id="edge10" class="edge"><title>1254&#45;&gt;1254</title>
<path fill="none" stroke="green" stroke-width="0.290649" d="M229.769,-114.063C240.915,-115.955 250.962,-111.855 250.962,-101.761 250.962,-94.9792 246.427,-90.9029 240.07,-89.5319"/>
<polygon fill="green" stroke="green" stroke-width="0.290649" points="239.793,-86.03 229.769,-89.4592 239.744,-93.0298 239.793,-86.03"/>
</g>
<!-- 1255&#45;&gt;OB -->
<g id="edge6" class="edge"><title>1255&#45;&gt;OB</title>
<path fill="none" stroke="green" stroke-width="0.431299" d="M134.468,-79.5221C139.603,-69.833 145.736,-58.2593 151.169,-48.0072"/>
<polygon fill="green" stroke="green" stroke-width="0.431299" points="154.323,-49.5302 155.913,-39.0554 148.138,-46.2524 154.323,-49.5302"/>
</g>
<!-- 1255&#45;&gt;1255 -->
<g id="edge11" class="edge"><title>1255&#45;&gt;1255</title>
<path fill="none" stroke="green" stroke-width="0.151036" d="M144.769,-114.063C155.915,-115.955 165.962,-111.855 165.962,-101.761 165.962,-94.9792 161.427,-90.9029 155.07,-89.5319"/>
<polygon fill="green" stroke="green" stroke-width="0.151036" points="154.793,-86.03 144.769,-89.4592 154.744,-93.0298 154.793,-86.03"/>
</g>
<!-- 1256&#45;&gt;OB -->
<g id="edge7" class="edge"><title>1256&#45;&gt;OB</title>
<path fill="none" stroke="green" stroke-width="0.351117" d="M273.532,-86.1339C269.198,-83.0436 264.593,-79.8585 260.213,-77.0122 237.64,-62.3421 211.128,-47.0015 191.855,-36.175"/>
<polygon fill="green" stroke="green" stroke-width="0.351117" points="193.463,-33.0639 183.025,-31.2455 190.051,-39.176 193.463,-33.0639"/>
</g>
</g>
</svg>
