<?xml version="1.0" encoding="UTF-8" standalone="no"?>
<!DOCTYPE svg PUBLIC "-//W3C//DTD SVG 1.1//EN"
 "http://www.w3.org/Graphics/SVG/1.1/DTD/svg11.dtd">
<!-- Generated by graphviz version 2.38.0 (20140413.2041)
 -->
<!-- Title: %3 Pages: 1 -->
<svg width="215pt" height="183pt"
 viewBox="0.00 0.00 215.35 182.85" xmlns="http://www.w3.org/2000/svg" xmlns:xlink="http://www.w3.org/1999/xlink">
<g id="graph0" class="graph" transform="scale(1 1) rotate(0) translate(4 178.853)">
<title>%3</title>
<polygon fill="white" stroke="none" points="-4,4 -4,-178.853 211.346,-178.853 211.346,4 -4,4"/>
<!-- IA -->
<g id="node1" class="node"><title>IA</title>
<polygon fill="lightgray" stroke="black" points="47.1036,-174.853 21.1036,-174.853 21.1036,-156.853 47.1036,-156.853 47.1036,-174.853"/>
<text text-anchor="middle" x="34.1036" y="-163.653" font-family="Times,serif" font-size="9.00">IA</text>
</g>
<!-- OA -->
<g id="node3" class="node"><title>OA</title>
<ellipse fill="lightblue" stroke="black" cx="40.1036" cy="-21.2132" rx="21.4286" ry="21.4286"/>
<text text-anchor="middle" x="40.1036" y="-19.0132" font-family="Times,serif" font-size="9.00">OA</text>
</g>
<!-- IA&#45;&gt;OA -->
<g id="edge9" class="edge"><title>IA&#45;&gt;OA</title>
<path fill="none" stroke="green" stroke-width="0.404184" d="M26.1735,-156.582C18.8279,-148.301 8.40947,-134.812 4.10358,-120.853 -1.45456,-102.834 -1.19445,-96.523 4.10358,-78.4264 7.49406,-66.8455 14.0822,-55.3856 20.7058,-45.8643"/>
<polygon fill="green" stroke="green" stroke-width="0.404184" points="23.5943,-47.8444 26.708,-37.7174 17.9586,-43.6923 23.5943,-47.8444"/>
</g>
<!-- 827 -->
<g id="node5" class="node"><title>827</title>
<ellipse fill="white" stroke="black" cx="34.1036" cy="-99.6396" rx="21.4286" ry="21.4286"/>
<text text-anchor="middle" x="34.1036" y="-97.4396" font-family="Times,serif" font-size="9.00">827</text>
</g>
<!-- IA&#45;&gt;827 -->
<g id="edge2" class="edge"><title>IA&#45;&gt;827</title>
<path fill="none" stroke="green" stroke-width="0.3092" d="M34.1036,-156.72C34.1036,-150.177 34.1036,-140.548 34.1036,-131.109"/>
<polygon fill="green" stroke="green" stroke-width="0.3092" points="37.6037,-131.095 34.1036,-121.095 30.6037,-131.095 37.6037,-131.095"/>
</g>
<!-- 826 -->
<g id="node7" class="node"><title>826</title>
<ellipse fill="none" stroke="black" cx="112.104" cy="-99.6396" rx="21.4286" ry="21.4286"/>
<text text-anchor="middle" x="112.104" y="-97.4396" font-family="Times,serif" font-size="9.00">826</text>
</g>
<!-- IA&#45;&gt;826 -->
<g id="edge1" class="edge"><title>IA&#45;&gt;826</title>
<path fill="none" stroke="green" stroke-width="0.404444" d="M43.9823,-156.72C55.0506,-147.608 73.3892,-132.511 88.2523,-120.275"/>
<polygon fill="green" stroke="green" stroke-width="0.404444" points="90.5879,-122.886 96.0837,-113.828 86.1388,-117.482 90.5879,-122.886"/>
</g>
<!-- IB -->
<g id="node2" class="node"><title>IB</title>
<polygon fill="lightgray" stroke="black" points="155.104,-174.853 129.104,-174.853 129.104,-156.853 155.104,-156.853 155.104,-174.853"/>
<text text-anchor="middle" x="142.104" y="-163.653" font-family="Times,serif" font-size="9.00">IB</text>
</g>
<!-- OB -->
<g id="node4" class="node"><title>OB</title>
<ellipse fill="lightblue" stroke="black" cx="172.104" cy="-21.2132" rx="20.5122" ry="20.5122"/>
<text text-anchor="middle" x="172.104" y="-19.0132" font-family="Times,serif" font-size="9.00">OB</text>
</g>
<!-- IB&#45;&gt;OB -->
<g id="edge10" class="edge"><title>IB&#45;&gt;OB</title>
<path fill="none" stroke="green" stroke-width="0.307" d="M155.281,-159.574C169.79,-152.957 192.353,-140.095 202.104,-120.853 214.226,-96.9305 201.883,-67.2224 189.559,-46.6952"/>
<polygon fill="green" stroke="green" stroke-width="0.307" points="192.494,-44.7873 184.169,-38.2339 186.59,-48.5484 192.494,-44.7873"/>
</g>
<!-- IB&#45;&gt;827 -->
<g id="edge4" class="edge"><title>IB&#45;&gt;827</title>
<path fill="none" stroke="green" stroke-width="0.431442" d="M128.861,-156.979C112.005,-146.957 82.4829,-129.404 60.8587,-116.547"/>
<polygon fill="green" stroke="green" stroke-width="0.431442" points="62.5189,-113.463 52.1347,-111.36 58.9415,-119.479 62.5189,-113.463"/>
</g>
<!-- 828 -->
<g id="node6" class="node"><title>828</title>
<ellipse fill="white" stroke="black" cx="172.104" cy="-99.6396" rx="21.4286" ry="21.4286"/>
<text text-anchor="middle" x="172.104" y="-97.4396" font-family="Times,serif" font-size="9.00">828</text>
</g>
<!-- IB&#45;&gt;828 -->
<g id="edge5" class="edge"><title>IB&#45;&gt;828</title>
<path fill="none" stroke="green" stroke-width="0.237342" d="M145.903,-156.72C149.259,-149.537 154.353,-138.635 159.159,-128.347"/>
<polygon fill="green" stroke="green" stroke-width="0.237342" points="162.373,-129.737 163.435,-119.195 156.031,-126.774 162.373,-129.737"/>
</g>
<!-- IB&#45;&gt;826 -->
<g id="edge3" class="edge"><title>IB&#45;&gt;826</title>
<path fill="none" stroke="green" stroke-width="0.369472" d="M138.304,-156.72C134.948,-149.537 129.855,-138.635 125.048,-128.347"/>
<polygon fill="green" stroke="green" stroke-width="0.369472" points="128.176,-126.774 120.773,-119.195 121.834,-129.737 128.176,-126.774"/>
</g>
<!-- OA&#45;&gt;OA -->
<g id="edge11" class="edge"><title>OA&#45;&gt;OA</title>
<path fill="none" stroke="green" stroke-width="0.278192" d="M57.0322,-34.5492C68.3248,-38.3031 79.3168,-33.8577 79.3168,-21.2132 79.3168,-12.5201 74.1213,-7.70237 67.2046,-6.76005"/>
<polygon fill="green" stroke="green" stroke-width="0.278192" points="66.5903,-3.30638 57.0322,-7.87717 67.3545,-10.2645 66.5903,-3.30638"/>
</g>
<!-- 827&#45;&gt;OB -->
<g id="edge6" class="edge"><title>827&#45;&gt;OB</title>
<path fill="none" stroke="green" stroke-width="0.430038" d="M52.4289,-88.4908C76.3019,-75.2696 118.212,-52.0593 145.562,-36.9123"/>
<polygon fill="green" stroke="green" stroke-width="0.430038" points="147.523,-39.8272 154.575,-31.9205 144.132,-33.7036 147.523,-39.8272"/>
</g>
<!-- 827&#45;&gt;827 -->
<g id="edge12" class="edge"><title>827&#45;&gt;827</title>
<path fill="none" stroke="green" stroke-width="0.394574" d="M52.255,-111.241C63.105,-113.819 73.3168,-109.952 73.3168,-99.6396 73.3168,-92.7109 68.707,-88.6917 62.3911,-87.582"/>
<polygon fill="green" stroke="green" stroke-width="0.394574" points="62.0876,-84.0921 52.255,-88.038 62.4022,-91.085 62.0876,-84.0921"/>
</g>
<!-- 828&#45;&gt;OA -->
<g id="edge7" class="edge"><title>828&#45;&gt;OA</title>
<path fill="none" stroke="green" stroke-width="0.200943" d="M155.141,-86.8279C150.929,-84.0012 146.391,-81.0452 142.104,-78.4264 117.413,-63.3463 88.4583,-47.5625 67.7192,-36.5727"/>
<polygon fill="green" stroke="green" stroke-width="0.200943" points="69.292,-33.4454 58.8133,-31.8804 66.029,-39.6384 69.292,-33.4454"/>
</g>
<!-- 828&#45;&gt;OB -->
<g id="edge8" class="edge"><title>828&#45;&gt;OB</title>
<path fill="none" stroke="green" stroke-width="0.338122" d="M172.104,-78.1587C172.104,-70.1744 172.104,-60.8629 172.104,-52.1536"/>
<polygon fill="green" stroke="green" stroke-width="0.338122" points="175.604,-51.9585 172.104,-41.9586 168.604,-51.9586 175.604,-51.9585"/>
</g>
</g>
</svg>
