<?xml version="1.0" encoding="UTF-8" standalone="no"?>
<!DOCTYPE svg PUBLIC "-//W3C//DTD SVG 1.1//EN"
 "http://www.w3.org/Graphics/SVG/1.1/DTD/svg11.dtd">
<!-- Generated by graphviz version 2.38.0 (20140413.2041)
 -->
<!-- Title: %3 Pages: 1 -->
<svg width="347pt" height="190pt"
 viewBox="0.00 0.00 346.96 189.92" xmlns="http://www.w3.org/2000/svg" xmlns:xlink="http://www.w3.org/1999/xlink">
<g id="graph0" class="graph" transform="scale(1 1) rotate(0) translate(4 185.924)">
<title>%3</title>
<polygon fill="white" stroke="none" points="-4,4 -4,-185.924 342.962,-185.924 342.962,4 -4,4"/>
<!-- IA -->
<g id="node1" class="node"><title>IA</title>
<polygon fill="lightgray" stroke="black" points="34.2132,-112.175 8.2132,-112.175 8.2132,-94.1751 34.2132,-94.1751 34.2132,-112.175"/>
<text text-anchor="middle" x="21.2132" y="-100.975" font-family="Times,serif" font-size="9.00">IA</text>
</g>
<!-- OA -->
<g id="node3" class="node"><title>OA</title>
<ellipse fill="lightblue" stroke="black" cx="21.2132" cy="-21.2132" rx="21.4286" ry="21.4286"/>
<text text-anchor="middle" x="21.2132" y="-19.0132" font-family="Times,serif" font-size="9.00">OA</text>
</g>
<!-- IA&#45;&gt;OA -->
<g id="edge6" class="edge"><title>IA&#45;&gt;OA</title>
<path fill="none" stroke="green" stroke-width="0.486534" d="M21.2132,-93.919C21.2132,-84.2862 21.2132,-67.7963 21.2132,-53.0568"/>
<polygon fill="green" stroke="green" stroke-width="0.486534" points="24.7133,-52.7567 21.2132,-42.7567 17.7133,-52.7567 24.7133,-52.7567"/>
</g>
<!-- OB -->
<g id="node4" class="node"><title>OB</title>
<ellipse fill="lightblue" stroke="black" cx="155.213" cy="-21.2132" rx="20.5122" ry="20.5122"/>
<text text-anchor="middle" x="155.213" y="-19.0132" font-family="Times,serif" font-size="9.00">OB</text>
</g>
<!-- IA&#45;&gt;OB -->
<g id="edge7" class="edge"><title>IA&#45;&gt;OB</title>
<path fill="none" stroke="green" stroke-width="0.308873" d="M27.5231,-93.994C31.6183,-89.0577 37.2821,-82.8829 43.2132,-78.4264 69.238,-58.8718 103.101,-42.9725 126.75,-33.1358"/>
<polygon fill="green" stroke="green" stroke-width="0.308873" points="128.257,-36.3015 136.207,-29.2982 125.625,-29.8152 128.257,-36.3015"/>
</g>
<!-- IB -->
<g id="node2" class="node"><title>IB</title>
<polygon fill="lightgray" stroke="black" points="132.213,-181.924 106.213,-181.924 106.213,-163.924 132.213,-163.924 132.213,-181.924"/>
<text text-anchor="middle" x="119.213" y="-170.724" font-family="Times,serif" font-size="9.00">IB</text>
</g>
<!-- 1194 -->
<g id="node5" class="node"><title>1194</title>
<ellipse fill="white" stroke="black" cx="77.2132" cy="-103.175" rx="25" ry="25"/>
<text text-anchor="middle" x="77.2132" y="-100.975" font-family="Times,serif" font-size="9.00">1194</text>
</g>
<!-- IB&#45;&gt;1194 -->
<g id="edge1" class="edge"><title>IB&#45;&gt;1194</title>
<path fill="none" stroke="green" stroke-width="0.253588" d="M114.23,-163.886C109.532,-156.308 102.201,-144.483 95.2988,-133.348"/>
<polygon fill="green" stroke="green" stroke-width="0.253588" points="98.1572,-131.317 89.9134,-124.661 92.2077,-135.005 98.1572,-131.317"/>
</g>
<!-- 1195 -->
<g id="node8" class="node"><title>1195</title>
<ellipse fill="none" stroke="black" cx="162.213" cy="-103.175" rx="25" ry="25"/>
<text text-anchor="middle" x="162.213" y="-100.975" font-family="Times,serif" font-size="9.00">1195</text>
</g>
<!-- IB&#45;&gt;1195 -->
<g id="edge2" class="edge"><title>IB&#45;&gt;1195</title>
<path fill="none" stroke="green" stroke-width="0.313616" d="M124.315,-163.886C129.16,-156.253 136.74,-144.31 143.852,-133.105"/>
<polygon fill="green" stroke="green" stroke-width="0.313616" points="146.99,-134.692 149.394,-124.373 141.08,-130.94 146.99,-134.692"/>
</g>
<!-- OB&#45;&gt;OB -->
<g id="edge8" class="edge"><title>OB&#45;&gt;OB</title>
<path fill="none" stroke="red" stroke-width="0.152791" d="M171.035,-34.5982C182.399,-38.9561 193.719,-34.4945 193.719,-21.2132 193.719,-12.0823 188.369,-7.12011 181.332,-6.32651"/>
<polygon fill="red" stroke="red" stroke-width="0.152791" points="180.425,-2.92166 171.035,-7.82819 181.435,-9.84839 180.425,-2.92166"/>
</g>
<!-- 1194&#45;&gt;OB -->
<g id="edge3" class="edge"><title>1194&#45;&gt;OB</title>
<path fill="none" stroke="green" stroke-width="0.348387" d="M94.138,-84.8246C105.789,-72.8807 121.359,-56.9191 133.862,-44.1015"/>
<polygon fill="green" stroke="green" stroke-width="0.348387" points="136.711,-46.1934 141.188,-36.591 131.7,-41.3054 136.711,-46.1934"/>
</g>
<!-- 1194&#45;&gt;1194 -->
<g id="edge9" class="edge"><title>1194&#45;&gt;1194</title>
<path fill="none" stroke="green" stroke-width="0.299064" d="M98.7689,-115.477C109.915,-117.369 119.962,-113.269 119.962,-103.175 119.962,-96.3934 115.427,-92.3171 109.07,-90.9462"/>
<polygon fill="green" stroke="green" stroke-width="0.299064" points="108.793,-87.4442 98.7689,-90.8734 108.744,-94.444 108.793,-87.4442"/>
</g>
<!-- 1196 -->
<g id="node6" class="node"><title>1196</title>
<ellipse fill="white" stroke="black" cx="229.213" cy="-103.175" rx="25" ry="25"/>
<text text-anchor="middle" x="229.213" y="-100.975" font-family="Times,serif" font-size="9.00">1196</text>
</g>
<!-- 1196&#45;&gt;OB -->
<g id="edge4" class="edge"><title>1196&#45;&gt;OB</title>
<path fill="none" stroke="green" stroke-width="0.383487" d="M212.79,-84.429C201.859,-72.6172 187.415,-57.009 175.728,-44.3809"/>
<polygon fill="green" stroke="green" stroke-width="0.383487" points="178.225,-41.926 168.864,-36.9639 173.087,-46.6806 178.225,-41.926"/>
</g>
<!-- 1197 -->
<g id="node7" class="node"><title>1197</title>
<ellipse fill="white" stroke="black" cx="296.213" cy="-103.175" rx="25" ry="25"/>
<text text-anchor="middle" x="296.213" y="-100.975" font-family="Times,serif" font-size="9.00">1197</text>
</g>
<!-- 1197&#45;&gt;OB -->
<g id="edge5" class="edge"><title>1197&#45;&gt;OB</title>
<path fill="none" stroke="green" stroke-width="0.312433" d="M276.636,-87.3845C272.295,-84.3045 267.661,-81.1648 263.213,-78.4264 236.715,-62.1123 204.978,-45.9721 182.79,-35.2007"/>
<polygon fill="green" stroke="green" stroke-width="0.312433" points="184.144,-31.9682 173.615,-30.7883 181.11,-38.2766 184.144,-31.9682"/>
</g>
<!-- 1197&#45;&gt;1197 -->
<g id="edge10" class="edge"><title>1197&#45;&gt;1197</title>
<path fill="none" stroke="green" stroke-width="0.337578" d="M317.769,-115.477C328.915,-117.369 338.962,-113.269 338.962,-103.175 338.962,-96.3934 334.427,-92.3171 328.07,-90.9462"/>
<polygon fill="green" stroke="green" stroke-width="0.337578" points="327.793,-87.4442 317.769,-90.8734 327.744,-94.444 327.793,-87.4442"/>
</g>
</g>
</svg>
