<?xml version="1.0" encoding="UTF-8" standalone="no"?>
<!DOCTYPE svg PUBLIC "-//W3C//DTD SVG 1.1//EN"
 "http://www.w3.org/Graphics/SVG/1.1/DTD/svg11.dtd">
<!-- Generated by graphviz version 2.38.0 (20140413.2041)
 -->
<!-- Title: %3 Pages: 1 -->
<svg width="224pt" height="207pt"
 viewBox="0.00 0.00 224.21 207.28" xmlns="http://www.w3.org/2000/svg" xmlns:xlink="http://www.w3.org/1999/xlink">
<g id="graph0" class="graph" transform="scale(1 1) rotate(0) translate(4 203.279)">
<title>%3</title>
<polygon fill="white" stroke="none" points="-4,4 -4,-203.279 220.213,-203.279 220.213,4 -4,4"/>
<!-- IA -->
<g id="node1" class="node"><title>IA</title>
<polygon fill="lightgray" stroke="black" points="138,-187.066 112,-187.066 112,-169.066 138,-169.066 138,-187.066"/>
<text text-anchor="middle" x="125" y="-175.866" font-family="Times,serif" font-size="9.00">IA</text>
</g>
<!-- 620 -->
<g id="node5" class="node"><title>620</title>
<ellipse fill="white" stroke="black" cx="65" cy="-99.6396" rx="21.4286" ry="21.4286"/>
<text text-anchor="middle" x="65" y="-97.4396" font-family="Times,serif" font-size="9.00">620</text>
</g>
<!-- IA&#45;&gt;620 -->
<g id="edge2" class="edge"><title>IA&#45;&gt;620</title>
<path fill="none" stroke="red" stroke-width="0.1" d="M118.579,-168.887C110.366,-158.425 95.7822,-139.849 83.9019,-124.716"/>
<polygon fill="red" stroke="red" stroke-width="0.1" points="86.5655,-122.441 77.6374,-116.737 81.0595,-126.764 86.5655,-122.441"/>
</g>
<!-- 621 -->
<g id="node6" class="node"><title>621</title>
<ellipse fill="white" stroke="black" cx="125" cy="-99.6396" rx="21.4286" ry="21.4286"/>
<text text-anchor="middle" x="125" y="-97.4396" font-family="Times,serif" font-size="9.00">621</text>
</g>
<!-- IA&#45;&gt;621 -->
<g id="edge3" class="edge"><title>IA&#45;&gt;621</title>
<path fill="none" stroke="green" stroke-width="0.116828" d="M125,-168.887C125,-159.865 125,-144.81 125,-131.132"/>
<polygon fill="green" stroke="green" stroke-width="0.116828" points="128.5,-131.064 125,-121.064 121.5,-131.064 128.5,-131.064"/>
</g>
<!-- 618 -->
<g id="node7" class="node"><title>618</title>
<ellipse fill="none" stroke="black" cx="185" cy="-99.6396" rx="21.4286" ry="21.4286"/>
<text text-anchor="middle" x="185" y="-97.4396" font-family="Times,serif" font-size="9.00">618</text>
</g>
<!-- IA&#45;&gt;618 -->
<g id="edge1" class="edge"><title>IA&#45;&gt;618</title>
<path fill="none" stroke="red" stroke-width="0.153101" d="M131.421,-168.887C139.634,-158.425 154.218,-139.849 166.098,-124.716"/>
<polygon fill="red" stroke="red" stroke-width="0.153101" points="168.94,-126.764 172.363,-116.737 163.434,-122.441 168.94,-126.764"/>
</g>
<!-- IB -->
<g id="node2" class="node"><title>IB</title>
<polygon fill="lightgray" stroke="black" points="26,-108.64 0,-108.64 0,-90.6396 26,-90.6396 26,-108.64"/>
<text text-anchor="middle" x="13" y="-97.4396" font-family="Times,serif" font-size="9.00">IB</text>
</g>
<!-- OA -->
<g id="node3" class="node"><title>OA</title>
<ellipse fill="lightblue" stroke="black" cx="65" cy="-21.2132" rx="21.4286" ry="21.4286"/>
<text text-anchor="middle" x="65" y="-19.0132" font-family="Times,serif" font-size="9.00">OA</text>
</g>
<!-- IB&#45;&gt;OA -->
<g id="edge8" class="edge"><title>IB&#45;&gt;OA</title>
<path fill="none" stroke="red" stroke-width="0.169975" d="M18.5649,-90.4606C25.4859,-80.2886 37.6257,-62.4463 47.7569,-47.556"/>
<polygon fill="red" stroke="red" stroke-width="0.169975" points="50.7037,-49.4469 53.4353,-39.2103 44.9162,-45.5092 50.7037,-49.4469"/>
</g>
<!-- OB -->
<g id="node4" class="node"><title>OB</title>
<ellipse fill="lightblue" stroke="black" cx="125" cy="-21.2132" rx="20.5122" ry="20.5122"/>
<text text-anchor="middle" x="125" y="-19.0132" font-family="Times,serif" font-size="9.00">OB</text>
</g>
<!-- OB&#45;&gt;OB -->
<g id="edge9" class="edge"><title>OB&#45;&gt;OB</title>
<path fill="none" stroke="red" stroke-width="0.1" d="M140.821,-34.2636C152.186,-38.5126 163.506,-34.1624 163.506,-21.2132 163.506,-12.3106 158.156,-7.47244 151.118,-6.69868"/>
<polygon fill="red" stroke="red" stroke-width="0.1" points="150.229,-3.28986 140.821,-8.16282 151.215,-10.2202 150.229,-3.28986"/>
</g>
<!-- 620&#45;&gt;OA -->
<g id="edge4" class="edge"><title>620&#45;&gt;OA</title>
<path fill="none" stroke="red" stroke-width="0.1" d="M65,-78.1587C65,-70.3001 65,-61.1558 65,-52.5655"/>
<polygon fill="red" stroke="red" stroke-width="0.1" points="68.5001,-52.4856 65,-42.4856 61.5001,-52.4856 68.5001,-52.4856"/>
</g>
<!-- 620&#45;&gt;OB -->
<g id="edge5" class="edge"><title>620&#45;&gt;OB</title>
<path fill="none" stroke="red" stroke-width="0.1" d="M77.7245,-82.4315C86.0287,-71.8538 97.0118,-57.8638 106.302,-46.0307"/>
<polygon fill="red" stroke="red" stroke-width="0.1" points="109.282,-47.9022 112.704,-37.8752 103.776,-43.5796 109.282,-47.9022"/>
</g>
<!-- 621&#45;&gt;OA -->
<g id="edge6" class="edge"><title>621&#45;&gt;OA</title>
<path fill="none" stroke="red" stroke-width="0.1" d="M112.276,-82.4315C104.082,-71.9949 93.2806,-58.2362 84.0708,-46.5051"/>
<polygon fill="red" stroke="red" stroke-width="0.1" points="86.6342,-44.1023 77.7061,-38.3979 81.1282,-48.4249 86.6342,-44.1023"/>
</g>
<!-- 621&#45;&gt;OB -->
<g id="edge7" class="edge"><title>621&#45;&gt;OB</title>
<path fill="none" stroke="red" stroke-width="0.246861" d="M125,-78.1587C125,-70.1744 125,-60.8629 125,-52.1536"/>
<polygon fill="red" stroke="red" stroke-width="0.246861" points="128.5,-51.9585 125,-41.9586 121.5,-51.9586 128.5,-51.9585"/>
</g>
<!-- 619 -->
<g id="node8" class="node"><title>619</title>
<ellipse fill="none" stroke="black" cx="177" cy="-178.066" rx="21.4286" ry="21.4286"/>
<text text-anchor="middle" x="177" y="-175.866" font-family="Times,serif" font-size="9.00">619</text>
</g>
<!-- 619&#45;&gt;619 -->
<g id="edge10" class="edge"><title>619&#45;&gt;619</title>
<path fill="none" stroke="green" stroke-width="0.120275" d="M193.929,-191.402C205.221,-195.156 216.213,-190.711 216.213,-178.066 216.213,-169.373 211.018,-164.555 204.101,-163.613"/>
<polygon fill="green" stroke="green" stroke-width="0.120275" points="203.487,-160.159 193.929,-164.73 204.251,-167.117 203.487,-160.159"/>
</g>
</g>
</svg>
