<?xml version="1.0" encoding="UTF-8" standalone="no"?>
<!DOCTYPE svg PUBLIC "-//W3C//DTD SVG 1.1//EN"
 "http://www.w3.org/Graphics/SVG/1.1/DTD/svg11.dtd">
<!-- Generated by graphviz version 2.38.0 (20140413.2041)
 -->
<!-- Title: %3 Pages: 1 -->
<svg width="367pt" height="781pt"
 viewBox="0.00 0.00 366.75 781.08" xmlns="http://www.w3.org/2000/svg" xmlns:xlink="http://www.w3.org/1999/xlink">
<g id="graph0" class="graph" transform="scale(1 1) rotate(0) translate(4 777.075)">
<title>%3</title>
<polygon fill="white" stroke="none" points="-4,4 -4,-777.075 362.749,-777.075 362.749,4 -4,4"/>
<!-- IA -->
<g id="node1" class="node"><title>IA</title>
<polygon fill="lightgray" stroke="black" points="252.749,-757.327 226.749,-757.327 226.749,-739.327 252.749,-739.327 252.749,-757.327"/>
<text text-anchor="middle" x="239.749" y="-746.127" font-family="Times,serif" font-size="9.00">IA</text>
</g>
<!-- OB
AND -->
<g id="node4" class="node"><title>OB
AND</title>
<ellipse fill="lightblue" stroke="black" cx="139.749" cy="-660.001" rx="26.3269" ry="26.3269"/>
<text text-anchor="middle" x="139.749" y="-662.801" font-family="Times,serif" font-size="9.00">OB</text>
<text text-anchor="middle" x="139.749" y="-652.801" font-family="Times,serif" font-size="9.00">AND</text>
</g>
<!-- IA&#45;&gt;OB
AND -->
<g id="edge2" class="edge"><title>IA&#45;&gt;OB
AND</title>
<path fill="none" stroke="green" stroke-width="0.288293" d="M230.16,-739.049C215.769,-726.626 188.037,-702.686 167.063,-684.58"/>
<polygon fill="green" stroke="green" stroke-width="0.288293" points="169.254,-681.848 159.397,-677.962 164.68,-687.146 169.254,-681.848"/>
</g>
<!-- 11842 -->
<g id="node6" class="node"><title>11842</title>
<ellipse fill="white" stroke="black" cx="211.749" cy="-660.001" rx="27.6545" ry="27.6545"/>
<text text-anchor="middle" x="211.749" y="-657.801" font-family="Times,serif" font-size="9.00">11842</text>
</g>
<!-- IA&#45;&gt;11842 -->
<g id="edge26" class="edge"><title>IA&#45;&gt;11842</title>
<path fill="none" stroke="green" stroke-width="0.314566" d="M237.064,-739.049C233.845,-729.124 228.241,-711.849 223.124,-696.07"/>
<polygon fill="green" stroke="green" stroke-width="0.314566" points="226.44,-694.95 220.025,-686.518 219.781,-697.11 226.44,-694.95"/>
</g>
<!-- 10184 -->
<g id="node8" class="node"><title>10184</title>
<ellipse fill="white" stroke="black" cx="203.749" cy="-568.846" rx="27.6545" ry="27.6545"/>
<text text-anchor="middle" x="203.749" y="-566.646" font-family="Times,serif" font-size="9.00">10184</text>
</g>
<!-- IA&#45;&gt;10184 -->
<g id="edge9" class="edge"><title>IA&#45;&gt;10184</title>
<path fill="none" stroke="green" stroke-width="0.18493" d="M242.436,-739.281C248.375,-720.194 261.145,-670.895 248.749,-632.423 244.636,-619.66 236.848,-607.3 228.892,-596.984"/>
<polygon fill="green" stroke="green" stroke-width="0.18493" points="231.568,-594.728 222.542,-589.18 226.138,-599.145 231.568,-594.728"/>
</g>
<!-- 14289 -->
<g id="node14" class="node"><title>14289</title>
<ellipse fill="white" stroke="black" cx="311.749" cy="-27.5772" rx="27.6545" ry="27.6545"/>
<text text-anchor="middle" x="311.749" y="-25.3772" font-family="Times,serif" font-size="9.00">14289</text>
</g>
<!-- IA&#45;&gt;14289 -->
<g id="edge29" class="edge"><title>IA&#45;&gt;14289</title>
<path fill="none" stroke="green" stroke-width="0.224495" d="M247.193,-739.027C273.245,-709.634 358.749,-610.097 358.749,-569.846 358.749,-569.846 358.749,-569.846 358.749,-208.886 358.749,-156.548 339.976,-98.3468 326.16,-62.5978"/>
<polygon fill="green" stroke="green" stroke-width="0.224495" points="329.348,-61.1438 322.414,-53.1337 322.84,-63.72 329.348,-61.1438"/>
</g>
<!-- IB -->
<g id="node2" class="node"><title>IB</title>
<polygon fill="lightgray" stroke="black" points="56.7487,-757.327 30.7487,-757.327 30.7487,-739.327 56.7487,-739.327 56.7487,-757.327"/>
<text text-anchor="middle" x="43.7487" y="-746.127" font-family="Times,serif" font-size="9.00">IB</text>
</g>
<!-- OA
XOR -->
<g id="node3" class="node"><title>OA
XOR</title>
<ellipse fill="lightblue" stroke="black" cx="69.7487" cy="-660.001" rx="25.4118" ry="25.4118"/>
<text text-anchor="middle" x="69.7487" y="-662.801" font-family="Times,serif" font-size="9.00">OA</text>
<text text-anchor="middle" x="69.7487" y="-652.801" font-family="Times,serif" font-size="9.00">XOR</text>
</g>
<!-- IB&#45;&gt;OA
XOR -->
<g id="edge1" class="edge"><title>IB&#45;&gt;OA
XOR</title>
<path fill="none" stroke="red" stroke-width="0.597579" d="M46.2417,-739.049C49.3362,-728.775 54.8032,-710.623 59.6866,-694.409"/>
<polygon fill="red" stroke="red" stroke-width="0.597579" points="63.0927,-695.236 62.6253,-684.652 56.3901,-693.218 63.0927,-695.236"/>
</g>
<!-- 2903 -->
<g id="node15" class="node"><title>2903</title>
<ellipse fill="white" stroke="black" cx="24.7487" cy="-568.846" rx="25" ry="25"/>
<text text-anchor="middle" x="24.7487" y="-566.646" font-family="Times,serif" font-size="9.00">2903</text>
</g>
<!-- IB&#45;&gt;2903 -->
<g id="edge11" class="edge"><title>IB&#45;&gt;2903</title>
<path fill="none" stroke="green" stroke-width="0.30218" d="M42.559,-739.221C40.8979,-727.743 37.8518,-706.087 35.7487,-687.578 32.5533,-659.453 29.609,-627.472 27.5722,-603.946"/>
<polygon fill="green" stroke="green" stroke-width="0.30218" points="31.042,-603.442 26.7027,-593.777 24.0675,-604.039 31.042,-603.442"/>
</g>
<!-- AND -->
<g id="node19" class="node"><title>AND</title>
<ellipse fill="none" stroke="black" cx="93.7487" cy="-568.846" rx="26.3269" ry="26.3269"/>
<text text-anchor="middle" x="93.7487" y="-566.646" font-family="Times,serif" font-size="9.00">AND</text>
</g>
<!-- OA
XOR&#45;&gt;AND -->
<g id="edge18" class="edge"><title>OA
XOR&#45;&gt;AND</title>
<path fill="none" stroke="red" stroke-width="0.348686" d="M76.1803,-635.109C78.7212,-625.67 81.6902,-614.641 84.4566,-604.365"/>
<polygon fill="red" stroke="red" stroke-width="0.348686" points="87.9123,-604.992 87.1321,-594.426 81.1529,-603.172 87.9123,-604.992"/>
</g>
<!-- 9313 -->
<g id="node5" class="node"><title>9313</title>
<ellipse fill="white" stroke="black" cx="147.749" cy="-301.04" rx="25" ry="25"/>
<text text-anchor="middle" x="147.749" y="-298.84" font-family="Times,serif" font-size="9.00">9313</text>
</g>
<!-- 11842&#45;&gt;10184 -->
<g id="edge6" class="edge"><title>11842&#45;&gt;10184</title>
<path fill="none" stroke="green" stroke-width="0.222031" stroke-dasharray="1,5" d="M209.348,-632.251C208.629,-624.229 207.826,-615.285 207.058,-606.73"/>
<polygon fill="green" stroke="green" stroke-width="0.222031" points="210.527,-606.224 206.147,-596.577 203.555,-606.849 210.527,-606.224"/>
</g>
<!-- 9116 -->
<g id="node9" class="node"><title>9116</title>
<ellipse fill="white" stroke="black" cx="273.749" cy="-568.846" rx="25" ry="25"/>
<text text-anchor="middle" x="273.749" y="-566.646" font-family="Times,serif" font-size="9.00">9116</text>
</g>
<!-- 11842&#45;&gt;9116 -->
<g id="edge19" class="edge"><title>11842&#45;&gt;9116</title>
<path fill="none" stroke="red" stroke-width="0.356362" d="M227.075,-636.962C235.291,-625.148 245.501,-610.466 254.274,-597.85"/>
<polygon fill="red" stroke="red" stroke-width="0.356362" points="257.241,-599.715 260.077,-589.506 251.494,-595.718 257.241,-599.715"/>
</g>
<!-- 11842&#45;&gt;2903 -->
<g id="edge28" class="edge"><title>11842&#45;&gt;2903</title>
<path fill="none" stroke="green" stroke-width="0.64465" d="M190.576,-642.033C185.577,-638.533 180.13,-635.102 174.749,-632.423 126.425,-608.366 106.575,-621.456 58.7487,-596.423 56.1973,-595.088 53.6455,-593.554 51.1511,-591.912"/>
<polygon fill="green" stroke="green" stroke-width="0.64465" points="53.1389,-589.031 42.9746,-586.041 49.0562,-594.717 53.1389,-589.031"/>
</g>
<!-- 12092 -->
<g id="node7" class="node"><title>12092</title>
<ellipse fill="white" stroke="black" cx="255.749" cy="-209.886" rx="27.6545" ry="27.6545"/>
<text text-anchor="middle" x="255.749" y="-207.686" font-family="Times,serif" font-size="9.00">12092</text>
</g>
<!-- 12092&#45;&gt;9116 -->
<g id="edge8" class="edge"><title>12092&#45;&gt;9116</title>
<path fill="none" stroke="green" stroke-width="0.194197" stroke-dasharray="1,5" d="M274.953,-230.146C285.049,-241.664 296.412,-257.192 301.749,-273.463 333.858,-371.356 323.262,-404.515 301.749,-505.269 299.394,-516.295 294.949,-527.729 290.282,-537.76"/>
<polygon fill="green" stroke="green" stroke-width="0.194197" points="287.066,-536.369 285.8,-546.888 293.349,-539.454 287.066,-536.369"/>
</g>
<!-- 12092&#45;&gt;14289 -->
<g id="edge17" class="edge"><title>12092&#45;&gt;14289</title>
<path fill="none" stroke="green" stroke-width="0.263456" stroke-dasharray="1,5" d="M271.432,-187.014C279.005,-175.435 287.555,-160.67 292.749,-146.309 302.194,-120.19 306.957,-89.1162 309.352,-65.4524"/>
<polygon fill="green" stroke="green" stroke-width="0.263456" points="312.839,-65.7518 310.267,-55.4739 305.869,-65.1125 312.839,-65.7518"/>
</g>
<!-- 12024 -->
<g id="node16" class="node"><title>12024</title>
<ellipse fill="white" stroke="black" cx="246.749" cy="-301.04" rx="27.6545" ry="27.6545"/>
<text text-anchor="middle" x="246.749" y="-298.84" font-family="Times,serif" font-size="9.00">12024</text>
</g>
<!-- 12092&#45;&gt;12024 -->
<g id="edge5" class="edge"><title>12092&#45;&gt;12024</title>
<path fill="none" stroke="green" stroke-width="0.123769" stroke-dasharray="1,5" d="M259.299,-237.503C258.95,-246.069 258.105,-255.698 256.925,-264.786"/>
<polygon fill="green" stroke="green" stroke-width="0.123769" points="253.455,-264.327 255.459,-274.731 260.38,-265.348 253.455,-264.327"/>
</g>
<!-- 14361 -->
<g id="node17" class="node"><title>14361</title>
<ellipse fill="white" stroke="black" cx="255.749" cy="-118.731" rx="27.6545" ry="27.6545"/>
<text text-anchor="middle" x="255.749" y="-116.531" font-family="Times,serif" font-size="9.00">14361</text>
</g>
<!-- 12092&#45;&gt;14361 -->
<g id="edge20" class="edge"><title>12092&#45;&gt;14361</title>
<path fill="none" stroke="red" stroke-width="0.163529" d="M255.749,-182.137C255.749,-174.114 255.749,-165.17 255.749,-156.615"/>
<polygon fill="red" stroke="red" stroke-width="0.163529" points="259.249,-156.462 255.749,-146.462 252.249,-156.462 259.249,-156.462"/>
</g>
<!-- 8273 -->
<g id="node12" class="node"><title>8273</title>
<ellipse fill="white" stroke="black" cx="200.749" cy="-480.52" rx="25" ry="25"/>
<text text-anchor="middle" x="200.749" y="-478.32" font-family="Times,serif" font-size="9.00">8273</text>
</g>
<!-- 10184&#45;&gt;8273 -->
<g id="edge10" class="edge"><title>10184&#45;&gt;8273</title>
<path fill="none" stroke="green" stroke-width="0.512538" d="M202.816,-541.005C202.535,-532.912 202.222,-523.921 201.927,-515.432"/>
<polygon fill="green" stroke="green" stroke-width="0.512538" points="205.425,-515.291 201.579,-505.418 198.429,-515.534 205.425,-515.291"/>
</g>
<!-- 9116&#45;&gt;9116 -->
<g id="edge23" class="edge"><title>9116&#45;&gt;9116</title>
<path fill="none" stroke="green" stroke-width="0.244018" d="M293.537,-584.315C305.365,-587.753 316.497,-582.596 316.497,-568.846 316.497,-559.178 310.994,-553.759 303.614,-552.588"/>
<polygon fill="green" stroke="green" stroke-width="0.244018" points="303.233,-549.107 293.537,-553.378 303.78,-556.086 303.233,-549.107"/>
</g>
<!-- 9116&#45;&gt;8273 -->
<g id="edge15" class="edge"><title>9116&#45;&gt;8273</title>
<path fill="none" stroke="red" stroke-width="0.157877" d="M257.909,-549.115C247.699,-537.042 234.274,-521.166 223.001,-507.834"/>
<polygon fill="red" stroke="red" stroke-width="0.157877" points="225.437,-505.295 216.307,-499.919 220.092,-509.815 225.437,-505.295"/>
</g>
<!-- 5852 -->
<g id="node18" class="node"><title>5852</title>
<ellipse fill="white" stroke="black" cx="267.749" cy="-480.52" rx="25" ry="25"/>
<text text-anchor="middle" x="267.749" y="-478.32" font-family="Times,serif" font-size="9.00">5852</text>
</g>
<!-- 9116&#45;&gt;5852 -->
<g id="edge3" class="edge"><title>9116&#45;&gt;5852</title>
<path fill="none" stroke="red" stroke-width="0.362597" d="M272.077,-543.8C271.473,-535.1 270.778,-525.103 270.124,-515.7"/>
<polygon fill="red" stroke="red" stroke-width="0.362597" points="273.596,-515.171 269.411,-505.438 266.613,-515.657 273.596,-515.171"/>
</g>
<!-- 11947 -->
<g id="node10" class="node"><title>11947</title>
<ellipse fill="white" stroke="black" cx="147.749" cy="-392.194" rx="27.6545" ry="27.6545"/>
<text text-anchor="middle" x="147.749" y="-389.994" font-family="Times,serif" font-size="9.00">11947</text>
</g>
<!-- 11947&#45;&gt;9313 -->
<g id="edge27" class="edge"><title>11947&#45;&gt;9313</title>
<path fill="none" stroke="green" stroke-width="0.153011" d="M147.749,-364.445C147.749,-355.576 147.749,-345.579 147.749,-336.228"/>
<polygon fill="green" stroke="green" stroke-width="0.153011" points="151.249,-336.04 147.749,-326.04 144.249,-336.04 151.249,-336.04"/>
</g>
<!-- 11947&#45;&gt;11842 -->
<g id="edge14" class="edge"><title>11947&#45;&gt;11842</title>
<path fill="none" stroke="green" stroke-width="0.204354" d="M145.893,-419.837C144.07,-459.635 144.254,-536.357 166.749,-596.423 171.368,-608.759 179.089,-620.861 186.843,-631.084"/>
<polygon fill="green" stroke="green" stroke-width="0.204354" points="184.331,-633.548 193.296,-639.194 189.808,-629.19 184.331,-633.548"/>
</g>
<!-- 14000 -->
<g id="node11" class="node"><title>14000</title>
<ellipse fill="white" stroke="black" cx="223.749" cy="-392.194" rx="27.6545" ry="27.6545"/>
<text text-anchor="middle" x="223.749" y="-389.994" font-family="Times,serif" font-size="9.00">14000</text>
</g>
<!-- 14000&#45;&gt;12024 -->
<g id="edge22" class="edge"><title>14000&#45;&gt;12024</title>
<path fill="none" stroke="green" stroke-width="0.209311" d="M230.401,-365.407C232.623,-356.797 235.139,-347.041 237.521,-337.81"/>
<polygon fill="green" stroke="green" stroke-width="0.209311" points="240.922,-338.635 240.031,-328.078 234.144,-336.887 240.922,-338.635"/>
</g>
<!-- 9521 -->
<g id="node13" class="node"><title>9521</title>
<ellipse fill="white" stroke="black" cx="295.749" cy="-748.327" rx="25" ry="25"/>
<text text-anchor="middle" x="295.749" y="-746.127" font-family="Times,serif" font-size="9.00">9521</text>
</g>
<!-- 2903&#45;&gt;11947 -->
<g id="edge7" class="edge"><title>2903&#45;&gt;11947</title>
<path fill="none" stroke="green" stroke-width="0.20201" d="M38.6193,-548.151C59.9335,-517.886 100.914,-459.697 126.141,-423.876"/>
<polygon fill="green" stroke="green" stroke-width="0.20201" points="129.298,-425.472 132.194,-415.281 123.574,-421.442 129.298,-425.472"/>
</g>
<!-- 12024&#45;&gt;12092 -->
<g id="edge12" class="edge"><title>12024&#45;&gt;12092</title>
<path fill="none" stroke="red" stroke-width="0.249767" stroke-dasharray="1,5" d="M243.204,-273.291C243.558,-264.72 244.406,-255.096 245.589,-246.019"/>
<polygon fill="red" stroke="red" stroke-width="0.249767" points="249.056,-246.494 247.056,-236.089 242.132,-245.47 249.056,-246.494"/>
</g>
<!-- 12024&#45;&gt;12024 -->
<g id="edge4" class="edge"><title>12024&#45;&gt;12024</title>
<path fill="none" stroke="green" stroke-width="0.324366" stroke-dasharray="1,5" d="M269.261,-317.219C281.33,-319.968 292.326,-314.575 292.326,-301.04 292.326,-291.523 286.89,-286.032 279.467,-284.566"/>
<polygon fill="green" stroke="green" stroke-width="0.324366" points="279.155,-281.073 269.261,-284.861 279.358,-288.07 279.155,-281.073"/>
</g>
<!-- 14361&#45;&gt;14289 -->
<g id="edge21" class="edge"><title>14361&#45;&gt;14289</title>
<path fill="none" stroke="red" stroke-width="0.219636" d="M270.17,-94.772C276.767,-84.2688 284.692,-71.6528 291.845,-60.2647"/>
<polygon fill="red" stroke="red" stroke-width="0.219636" points="295.021,-61.7886 297.376,-51.4588 289.093,-58.0652 295.021,-61.7886"/>
</g>
<!-- 5852&#45;&gt;11947 -->
<g id="edge24" class="edge"><title>5852&#45;&gt;11947</title>
<path fill="none" stroke="green" stroke-width="0.442285" d="M247.933,-465.265C229.01,-451.652 200.217,-430.939 178.347,-415.206"/>
<polygon fill="green" stroke="green" stroke-width="0.442285" points="180.205,-412.231 170.043,-409.233 176.117,-417.914 180.205,-412.231"/>
</g>
<!-- 5852&#45;&gt;14000 -->
<g id="edge25" class="edge"><title>5852&#45;&gt;14000</title>
<path fill="none" stroke="green" stroke-width="0.139597" d="M256.872,-458.181C251.952,-448.527 246.023,-436.896 240.55,-426.159"/>
<polygon fill="green" stroke="green" stroke-width="0.139597" points="243.554,-424.344 235.895,-417.024 237.318,-427.523 243.554,-424.344"/>
</g>
<!-- 5852&#45;&gt;12024 -->
<g id="edge13" class="edge"><title>5852&#45;&gt;12024</title>
<path fill="none" stroke="green" stroke-width="0.38733" d="M267.4,-455.642C266.8,-432.324 265.17,-395.883 260.749,-364.617 259.516,-355.902 257.71,-346.602 255.801,-337.908"/>
<polygon fill="green" stroke="green" stroke-width="0.38733" points="259.188,-337.019 253.543,-328.054 252.365,-338.583 259.188,-337.019"/>
</g>
<!-- AND&#45;&gt;8273 -->
<g id="edge16" class="edge"><title>AND&#45;&gt;8273</title>
<path fill="none" stroke="green" stroke-width="0.200323" d="M113.624,-551.811C130.576,-538.135 155.102,-518.347 173.816,-503.249"/>
<polygon fill="green" stroke="green" stroke-width="0.200323" points="176.114,-505.892 181.699,-496.889 171.719,-500.444 176.114,-505.892"/>
</g>
</g>
</svg>
