<?xml version="1.0" encoding="UTF-8" standalone="no"?>
<!DOCTYPE svg PUBLIC "-//W3C//DTD SVG 1.1//EN"
 "http://www.w3.org/Graphics/SVG/1.1/DTD/svg11.dtd">
<!-- Generated by graphviz version 2.38.0 (20140413.2041)
 -->
<!-- Title: %3 Pages: 1 -->
<svg width="402pt" height="181pt"
 viewBox="0.00 0.00 402.43 181.44" xmlns="http://www.w3.org/2000/svg" xmlns:xlink="http://www.w3.org/1999/xlink">
<g id="graph0" class="graph" transform="scale(1 1) rotate(0) translate(4 177.439)">
<title>%3</title>
<polygon fill="white" stroke="none" points="-4,4 -4,-177.439 398.426,-177.439 398.426,4 -4,4"/>
<!-- IA -->
<g id="node1" class="node"><title>IA</title>
<polygon fill="lightgray" stroke="black" points="185.213,-173.439 159.213,-173.439 159.213,-155.439 185.213,-155.439 185.213,-173.439"/>
<text text-anchor="middle" x="172.213" y="-162.239" font-family="Times,serif" font-size="9.00">IA</text>
</g>
<!-- OA -->
<g id="node3" class="node"><title>OA</title>
<ellipse fill="lightblue" stroke="black" cx="197.213" cy="-98.2254" rx="21.4286" ry="21.4286"/>
<text text-anchor="middle" x="197.213" y="-96.0254" font-family="Times,serif" font-size="9.00">OA</text>
</g>
<!-- IA&#45;&gt;OA -->
<g id="edge7" class="edge"><title>IA&#45;&gt;OA</title>
<path fill="none" stroke="red" stroke-width="0.149275" d="M175.379,-155.306C178.108,-148.299 182.214,-137.751 186.132,-127.688"/>
<polygon fill="red" stroke="red" stroke-width="0.149275" points="189.413,-128.907 189.78,-118.319 182.89,-126.368 189.413,-128.907"/>
</g>
<!-- OB -->
<g id="node4" class="node"><title>OB</title>
<ellipse fill="lightblue" stroke="black" cx="202.213" cy="-20.5061" rx="20.5122" ry="20.5122"/>
<text text-anchor="middle" x="202.213" y="-18.3061" font-family="Times,serif" font-size="9.00">OB</text>
</g>
<!-- IA&#45;&gt;OB -->
<g id="edge8" class="edge"><title>IA&#45;&gt;OB</title>
<path fill="none" stroke="red" stroke-width="0.206007" d="M169.93,-155.133C166.02,-139.488 159.203,-104.735 167.213,-77.0122 170.473,-65.7325 176.78,-54.5387 183.154,-45.1898"/>
<polygon fill="red" stroke="red" stroke-width="0.206007" points="186.162,-47.0029 189.187,-36.8491 180.49,-42.9002 186.162,-47.0029"/>
</g>
<!-- 335 -->
<g id="node5" class="node"><title>335</title>
<ellipse fill="white" stroke="black" cx="257.213" cy="-98.2254" rx="21.4286" ry="21.4286"/>
<text text-anchor="middle" x="257.213" y="-96.0254" font-family="Times,serif" font-size="9.00">335</text>
</g>
<!-- IA&#45;&gt;335 -->
<g id="edge1" class="edge"><title>IA&#45;&gt;335</title>
<path fill="none" stroke="red" stroke-width="0.18889" d="M182.979,-155.306C195.38,-145.937 216.157,-130.241 232.582,-117.833"/>
<polygon fill="red" stroke="red" stroke-width="0.18889" points="234.837,-120.516 240.706,-111.696 230.617,-114.931 234.837,-120.516"/>
</g>
<!-- 337 -->
<g id="node7" class="node"><title>337</title>
<ellipse fill="none" stroke="black" cx="21.2132" cy="-98.2254" rx="21.4286" ry="21.4286"/>
<text text-anchor="middle" x="21.2132" y="-96.0254" font-family="Times,serif" font-size="9.00">337</text>
</g>
<!-- IA&#45;&gt;337 -->
<g id="edge2" class="edge"><title>IA&#45;&gt;337</title>
<path fill="none" stroke="green" stroke-width="0.2325" d="M159.064,-159.809C136.365,-153.295 88.6637,-138.502 51.2132,-119.439 49.6741,-118.655 48.1194,-117.807 46.5703,-116.916"/>
<polygon fill="green" stroke="green" stroke-width="0.2325" points="48.2446,-113.836 37.9062,-111.519 44.5431,-119.777 48.2446,-113.836"/>
</g>
<!-- IB -->
<g id="node2" class="node"><title>IB</title>
<polygon fill="lightgray" stroke="black" points="303.213,-173.439 277.213,-173.439 277.213,-155.439 303.213,-155.439 303.213,-173.439"/>
<text text-anchor="middle" x="290.213" y="-162.239" font-family="Times,serif" font-size="9.00">IB</text>
</g>
<!-- IB&#45;&gt;OA -->
<g id="edge9" class="edge"><title>IB&#45;&gt;OA</title>
<path fill="none" stroke="red" stroke-width="0.469533" d="M278.435,-155.306C264.489,-145.677 240.865,-129.365 222.679,-116.808"/>
<polygon fill="red" stroke="red" stroke-width="0.469533" points="224.472,-113.793 214.254,-110.991 220.494,-119.553 224.472,-113.793"/>
</g>
<!-- IB&#45;&gt;OB -->
<g id="edge10" class="edge"><title>IB&#45;&gt;OB</title>
<path fill="none" stroke="red" stroke-width="0.1" d="M295.092,-155.15C303.935,-138.932 320.359,-102.379 305.213,-77.0122 289.541,-50.7636 256.698,-36.1938 232.289,-28.6431"/>
<polygon fill="red" stroke="red" stroke-width="0.1" points="232.996,-25.2051 222.419,-25.8232 231.073,-31.9358 232.996,-25.2051"/>
</g>
<!-- IB&#45;&gt;335 -->
<g id="edge4" class="edge"><title>IB&#45;&gt;335</title>
<path fill="none" stroke="red" stroke-width="0.107611" d="M286.034,-155.306C282.316,-148.071 276.659,-137.063 271.338,-126.71"/>
<polygon fill="red" stroke="red" stroke-width="0.107611" points="274.296,-124.808 266.612,-117.514 268.07,-128.008 274.296,-124.808"/>
</g>
<!-- 334 -->
<g id="node8" class="node"><title>334</title>
<ellipse fill="none" stroke="black" cx="373.213" cy="-98.2254" rx="21.4286" ry="21.4286"/>
<text text-anchor="middle" x="373.213" y="-96.0254" font-family="Times,serif" font-size="9.00">334</text>
</g>
<!-- IB&#45;&gt;334 -->
<g id="edge3" class="edge"><title>IB&#45;&gt;334</title>
<path fill="none" stroke="green" stroke-width="0.215601" d="M300.725,-155.306C312.761,-145.995 332.875,-130.433 348.865,-118.062"/>
<polygon fill="green" stroke="green" stroke-width="0.215601" points="351.02,-120.821 356.787,-111.933 346.736,-115.284 351.02,-120.821"/>
</g>
<!-- OB&#45;&gt;OB -->
<g id="edge11" class="edge"><title>OB&#45;&gt;OB</title>
<path fill="none" stroke="red" stroke-width="0.250879" d="M218.436,-33.3645C229.664,-37.261 240.719,-32.9748 240.719,-20.5061 240.719,-11.9338 235.494,-7.22913 228.579,-6.392"/>
<polygon fill="red" stroke="red" stroke-width="0.250879" points="227.93,-2.94559 218.436,-7.6477 228.79,-9.89257 227.93,-2.94559"/>
</g>
<!-- 335&#45;&gt;OB -->
<g id="edge5" class="edge"><title>335&#45;&gt;OB</title>
<path fill="none" stroke="red" stroke-width="0.1" d="M245.007,-80.4208C237.593,-70.2133 228.003,-57.0118 219.782,-45.6935"/>
<polygon fill="red" stroke="red" stroke-width="0.1" points="222.529,-43.5201 213.821,-37.4861 216.866,-47.6339 222.529,-43.5201"/>
</g>
<!-- 335&#45;&gt;335 -->
<g id="edge12" class="edge"><title>335&#45;&gt;335</title>
<path fill="none" stroke="red" stroke-width="0.1" d="M275.365,-109.827C286.215,-112.405 296.426,-108.538 296.426,-98.2254 296.426,-91.2967 291.817,-87.2775 285.501,-86.1678"/>
<polygon fill="red" stroke="red" stroke-width="0.1" points="285.197,-82.6778 275.365,-86.6238 285.512,-89.6708 285.197,-82.6778"/>
</g>
<!-- 336 -->
<g id="node6" class="node"><title>336</title>
<ellipse fill="white" stroke="black" cx="81.2132" cy="-98.2254" rx="21.4286" ry="21.4286"/>
<text text-anchor="middle" x="81.2132" y="-96.0254" font-family="Times,serif" font-size="9.00">336</text>
</g>
<!-- 336&#45;&gt;OB -->
<g id="edge6" class="edge"><title>336&#45;&gt;OB</title>
<path fill="none" stroke="red" stroke-width="0.159437" d="M98.8076,-86.2152C119.176,-73.4692 152.911,-52.3584 176.285,-37.7317"/>
<polygon fill="red" stroke="red" stroke-width="0.159437" points="178.369,-40.5562 184.989,-32.2845 174.656,-34.6223 178.369,-40.5562"/>
</g>
<!-- 336&#45;&gt;336 -->
<g id="edge13" class="edge"><title>336&#45;&gt;336</title>
<path fill="none" stroke="red" stroke-width="0.271276" d="M99.3646,-109.827C110.215,-112.405 120.426,-108.538 120.426,-98.2254 120.426,-91.2967 115.817,-87.2775 109.501,-86.1678"/>
<polygon fill="red" stroke="red" stroke-width="0.271276" points="109.197,-82.6778 99.3646,-86.6238 109.512,-89.6708 109.197,-82.6778"/>
</g>
</g>
</svg>
