<?xml version="1.0" encoding="UTF-8" standalone="no"?>
<!DOCTYPE svg PUBLIC "-//W3C//DTD SVG 1.1//EN"
 "http://www.w3.org/Graphics/SVG/1.1/DTD/svg11.dtd">
<!-- Generated by graphviz version 2.38.0 (20140413.2041)
 -->
<!-- Title: %3 Pages: 1 -->
<svg width="392pt" height="190pt"
 viewBox="0.00 0.00 392.25 189.92" xmlns="http://www.w3.org/2000/svg" xmlns:xlink="http://www.w3.org/1999/xlink">
<g id="graph0" class="graph" transform="scale(1 1) rotate(0) translate(4 185.924)">
<title>%3</title>
<polygon fill="white" stroke="none" points="-4,4 -4,-185.924 388.255,-185.924 388.255,4 -4,4"/>
<!-- IA -->
<g id="node1" class="node"><title>IA</title>
<polygon fill="lightgray" stroke="black" points="96.5061,-181.924 70.5061,-181.924 70.5061,-163.924 96.5061,-163.924 96.5061,-181.924"/>
<text text-anchor="middle" x="83.5061" y="-170.724" font-family="Times,serif" font-size="9.00">IA</text>
</g>
<!-- OB -->
<g id="node4" class="node"><title>OB</title>
<ellipse fill="lightblue" stroke="black" cx="20.5061" cy="-103.175" rx="20.5122" ry="20.5122"/>
<text text-anchor="middle" x="20.5061" y="-100.975" font-family="Times,serif" font-size="9.00">OB</text>
</g>
<!-- IA&#45;&gt;OB -->
<g id="edge9" class="edge"><title>IA&#45;&gt;OB</title>
<path fill="none" stroke="green" stroke-width="0.146608" d="M76.0318,-163.886C67.5024,-154.714 53.1868,-139.319 41.2279,-126.459"/>
<polygon fill="green" stroke="green" stroke-width="0.146608" points="43.532,-123.797 34.1592,-118.857 38.4059,-128.564 43.532,-123.797"/>
</g>
<!-- 1566 -->
<g id="node6" class="node"><title>1566</title>
<ellipse fill="white" stroke="black" cx="83.5061" cy="-103.175" rx="25" ry="25"/>
<text text-anchor="middle" x="83.5061" y="-100.975" font-family="Times,serif" font-size="9.00">1566</text>
</g>
<!-- IA&#45;&gt;1566 -->
<g id="edge1" class="edge"><title>IA&#45;&gt;1566</title>
<path fill="none" stroke="green" stroke-width="0.21405" d="M83.5061,-163.886C83.5061,-157.451 83.5061,-147.953 83.5061,-138.417"/>
<polygon fill="green" stroke="green" stroke-width="0.21405" points="87.0062,-138.196 83.5061,-128.196 80.0062,-138.196 87.0062,-138.196"/>
</g>
<!-- 1567 -->
<g id="node7" class="node"><title>1567</title>
<ellipse fill="none" stroke="black" cx="168.506" cy="-103.175" rx="25" ry="25"/>
<text text-anchor="middle" x="168.506" y="-100.975" font-family="Times,serif" font-size="9.00">1567</text>
</g>
<!-- IA&#45;&gt;1567 -->
<g id="edge2" class="edge"><title>IA&#45;&gt;1567</title>
<path fill="none" stroke="green" stroke-width="0.31841" d="M93.5905,-163.886C105.274,-154.574 125.005,-138.847 141.286,-125.871"/>
<polygon fill="green" stroke="green" stroke-width="0.31841" points="143.785,-128.354 149.424,-119.385 139.422,-122.88 143.785,-128.354"/>
</g>
<!-- IB -->
<g id="node2" class="node"><title>IB</title>
<polygon fill="lightgray" stroke="black" points="216.506,-181.924 190.506,-181.924 190.506,-163.924 216.506,-163.924 216.506,-181.924"/>
<text text-anchor="middle" x="203.506" y="-170.724" font-family="Times,serif" font-size="9.00">IB</text>
</g>
<!-- OA -->
<g id="node3" class="node"><title>OA</title>
<ellipse fill="lightblue" stroke="black" cx="239.506" cy="-21.2132" rx="21.4286" ry="21.4286"/>
<text text-anchor="middle" x="239.506" y="-19.0132" font-family="Times,serif" font-size="9.00">OA</text>
</g>
<!-- IB&#45;&gt;OA -->
<g id="edge10" class="edge"><title>IB&#45;&gt;OA</title>
<path fill="none" stroke="green" stroke-width="0.332178" d="M207.251,-163.65C211.069,-154.925 216.926,-140.698 220.506,-127.924 227.523,-102.888 232.533,-73.7621 235.641,-52.4302"/>
<polygon fill="green" stroke="green" stroke-width="0.332178" points="239.132,-52.7316 237.053,-42.3428 232.2,-51.7608 239.132,-52.7316"/>
</g>
<!-- IB&#45;&gt;OB -->
<g id="edge11" class="edge"><title>IB&#45;&gt;OB</title>
<path fill="none" stroke="green" stroke-width="0.415019" d="M190.47,-170.038C163.071,-165.689 98.037,-153.328 49.5061,-127.924 47.445,-126.845 45.3939,-125.604 43.3904,-124.268"/>
<polygon fill="green" stroke="green" stroke-width="0.415019" points="45.1287,-121.197 35.0267,-118.003 40.9321,-126.8 45.1287,-121.197"/>
</g>
<!-- 1569 -->
<g id="node5" class="node"><title>1569</title>
<ellipse fill="white" stroke="black" cx="292.506" cy="-103.175" rx="25" ry="25"/>
<text text-anchor="middle" x="292.506" y="-100.975" font-family="Times,serif" font-size="9.00">1569</text>
</g>
<!-- IB&#45;&gt;1569 -->
<g id="edge6" class="edge"><title>IB&#45;&gt;1569</title>
<path fill="none" stroke="green" stroke-width="0.171552" d="M214.065,-163.886C226.569,-154.368 247.876,-138.148 265.13,-125.014"/>
<polygon fill="green" stroke="green" stroke-width="0.171552" points="267.381,-127.699 273.218,-118.857 263.141,-122.129 267.381,-127.699"/>
</g>
<!-- IB&#45;&gt;1566 -->
<g id="edge3" class="edge"><title>IB&#45;&gt;1566</title>
<path fill="none" stroke="green" stroke-width="0.264385" d="M190.206,-164.415C171.916,-154.089 138.477,-135.21 113.892,-121.33"/>
<polygon fill="green" stroke="green" stroke-width="0.264385" points="115.382,-118.152 104.953,-116.284 111.941,-124.248 115.382,-118.152"/>
</g>
<!-- IB&#45;&gt;1567 -->
<g id="edge4" class="edge"><title>IB&#45;&gt;1567</title>
<path fill="none" stroke="green" stroke-width="0.341662" d="M199.354,-163.886C195.6,-156.621 189.83,-145.452 184.291,-134.73"/>
<polygon fill="green" stroke="green" stroke-width="0.341662" points="187.239,-132.811 179.54,-125.533 181.02,-136.024 187.239,-132.811"/>
</g>
<!-- 1568 -->
<g id="node8" class="node"><title>1568</title>
<ellipse fill="none" stroke="black" cx="359.506" cy="-103.175" rx="25" ry="25"/>
<text text-anchor="middle" x="359.506" y="-100.975" font-family="Times,serif" font-size="9.00">1568</text>
</g>
<!-- IB&#45;&gt;1568 -->
<g id="edge5" class="edge"><title>IB&#45;&gt;1568</title>
<path fill="none" stroke="green" stroke-width="0.103547" d="M216.574,-168.556C239.601,-162.34 288.559,-147.857 326.506,-127.924 328.287,-126.988 330.08,-125.967 331.861,-124.89"/>
<polygon fill="green" stroke="green" stroke-width="0.103547" points="334.109,-127.601 340.548,-119.187 330.268,-121.749 334.109,-127.601"/>
</g>
<!-- 1569&#45;&gt;OA -->
<g id="edge8" class="edge"><title>1569&#45;&gt;OA</title>
<path fill="none" stroke="green" stroke-width="0.493601" d="M279.132,-81.9974C272.26,-71.6295 263.813,-58.8847 256.485,-47.8297"/>
<polygon fill="green" stroke="green" stroke-width="0.493601" points="259.342,-45.8055 250.9,-39.4039 253.508,-49.6729 259.342,-45.8055"/>
</g>
<!-- 1566&#45;&gt;OA -->
<g id="edge7" class="edge"><title>1566&#45;&gt;OA</title>
<path fill="none" stroke="green" stroke-width="0.317587" d="M105.197,-91.0568C132.997,-76.807 181.232,-52.0833 211.701,-36.4654"/>
<polygon fill="green" stroke="green" stroke-width="0.317587" points="213.619,-39.4156 220.921,-31.7394 210.425,-33.1863 213.619,-39.4156"/>
</g>
<!-- 1566&#45;&gt;1566 -->
<g id="edge12" class="edge"><title>1566&#45;&gt;1566</title>
<path fill="none" stroke="green" stroke-width="0.414203" d="M105.062,-115.477C116.208,-117.369 126.255,-113.269 126.255,-103.175 126.255,-96.3934 121.719,-92.3171 115.363,-90.9462"/>
<polygon fill="green" stroke="green" stroke-width="0.414203" points="115.086,-87.4442 105.062,-90.8734 115.037,-94.444 115.086,-87.4442"/>
</g>
<!-- 1567&#45;&gt;1567 -->
<g id="edge13" class="edge"><title>1567&#45;&gt;1567</title>
<path fill="none" stroke="green" stroke-width="0.388959" d="M190.062,-115.477C201.208,-117.369 211.255,-113.269 211.255,-103.175 211.255,-96.3934 206.719,-92.3171 200.363,-90.9462"/>
<polygon fill="green" stroke="green" stroke-width="0.388959" points="200.086,-87.4442 190.062,-90.8734 200.037,-94.444 200.086,-87.4442"/>
</g>
</g>
</svg>
