<?xml version="1.0" encoding="UTF-8" standalone="no"?>
<!DOCTYPE svg PUBLIC "-//W3C//DTD SVG 1.1//EN"
 "http://www.w3.org/Graphics/SVG/1.1/DTD/svg11.dtd">
<!-- Generated by graphviz version 2.38.0 (20140413.2041)
 -->
<!-- Title: %3 Pages: 1 -->
<svg width="445pt" height="407pt"
 viewBox="0.00 0.00 445.20 406.56" xmlns="http://www.w3.org/2000/svg" xmlns:xlink="http://www.w3.org/1999/xlink">
<g id="graph0" class="graph" transform="scale(1 1) rotate(0) translate(4 402.558)">
<title>%3</title>
<polygon fill="white" stroke="none" points="-4,4 -4,-402.558 441.205,-402.558 441.205,4 -4,4"/>
<!-- IA -->
<g id="node1" class="node"><title>IA</title>
<polygon fill="lightgray" stroke="black" points="38.4558,-296.605 12.4558,-296.605 12.4558,-278.605 38.4558,-278.605 38.4558,-296.605"/>
<text text-anchor="middle" x="25.4558" y="-285.405" font-family="Times,serif" font-size="9.00">IA</text>
</g>
<!-- OR -->
<g id="node12" class="node"><title>OR</title>
<ellipse fill="none" stroke="black" cx="25.4558" cy="-201.401" rx="20.5122" ry="20.5122"/>
<text text-anchor="middle" x="25.4558" y="-199.201" font-family="Times,serif" font-size="9.00">OR</text>
</g>
<!-- IA&#45;&gt;OR -->
<g id="edge5" class="edge"><title>IA&#45;&gt;OR</title>
<path fill="none" stroke="green" stroke-width="0.347079" stroke-dasharray="1,5" d="M25.4558,-278.531C25.4558,-267.928 25.4558,-248.726 25.4558,-232.26"/>
<polygon fill="green" stroke="green" stroke-width="0.347079" points="28.9559,-231.952 25.4558,-221.952 21.9559,-231.952 28.9559,-231.952"/>
</g>
<!-- IB -->
<g id="node2" class="node"><title>IB</title>
<polygon fill="lightgray" stroke="black" points="189.456,-382.81 163.456,-382.81 163.456,-364.81 189.456,-364.81 189.456,-382.81"/>
<text text-anchor="middle" x="176.456" y="-371.61" font-family="Times,serif" font-size="9.00">IB</text>
</g>
<!-- OA
XOR -->
<g id="node3" class="node"><title>OA
XOR</title>
<ellipse fill="lightblue" stroke="black" cx="150.456" cy="-287.605" rx="25.4118" ry="25.4118"/>
<text text-anchor="middle" x="150.456" y="-290.405" font-family="Times,serif" font-size="9.00">OA</text>
<text text-anchor="middle" x="150.456" y="-280.405" font-family="Times,serif" font-size="9.00">XOR</text>
</g>
<!-- IB&#45;&gt;OA
XOR -->
<g id="edge1" class="edge"><title>IB&#45;&gt;OA
XOR</title>
<path fill="none" stroke="red" stroke-width="0.26512" d="M173.963,-364.736C170.918,-354.876 165.578,-337.579 160.755,-321.962"/>
<polygon fill="red" stroke="red" stroke-width="0.26512" points="163.985,-320.559 157.691,-312.036 157.297,-322.624 163.985,-320.559"/>
</g>
<!-- OB
AND -->
<g id="node4" class="node"><title>OB
AND</title>
<ellipse fill="lightblue" stroke="black" cx="167.456" cy="-26.163" rx="26.3269" ry="26.3269"/>
<text text-anchor="middle" x="167.456" y="-28.963" font-family="Times,serif" font-size="9.00">OB</text>
<text text-anchor="middle" x="167.456" y="-18.963" font-family="Times,serif" font-size="9.00">AND</text>
</g>
<!-- IB&#45;&gt;OB
AND -->
<g id="edge2" class="edge"><title>IB&#45;&gt;OB
AND</title>
<path fill="none" stroke="green" stroke-width="0.444399" d="M177.886,-364.726C179.833,-353.274 183.217,-331.649 184.456,-313.061 191.098,-213.4 197.954,-187.292 184.456,-88.3259 183.236,-79.3783 181.055,-69.8927 178.654,-61.13"/>
<polygon fill="green" stroke="green" stroke-width="0.444399" points="181.933,-59.8741 175.778,-51.251 175.212,-61.8308 181.933,-59.8741"/>
</g>
<!-- 2866 -->
<g id="node8" class="node"><title>2866</title>
<ellipse fill="white" stroke="black" cx="88.4558" cy="-201.401" rx="25" ry="25"/>
<text text-anchor="middle" x="88.4558" y="-199.201" font-family="Times,serif" font-size="9.00">2866</text>
</g>
<!-- OA
XOR&#45;&gt;2866 -->
<g id="edge11" class="edge"><title>OA
XOR&#45;&gt;2866</title>
<path fill="none" stroke="green" stroke-width="0.311299" stroke-dasharray="1,5" d="M135.763,-266.65C127.752,-255.77 117.711,-242.133 108.942,-230.224"/>
<polygon fill="green" stroke="green" stroke-width="0.311299" points="111.577,-227.9 102.83,-221.922 105.94,-232.05 111.577,-227.9"/>
</g>
<!-- 870 -->
<g id="node5" class="node"><title>870</title>
<ellipse fill="white" stroke="black" cx="228.456" cy="-373.81" rx="21.4286" ry="21.4286"/>
<text text-anchor="middle" x="228.456" y="-371.61" font-family="Times,serif" font-size="9.00">870</text>
</g>
<!-- 1033 -->
<g id="node6" class="node"><title>1033</title>
<ellipse fill="white" stroke="black" cx="256.456" cy="-114.489" rx="25" ry="25"/>
<text text-anchor="middle" x="256.456" y="-112.289" font-family="Times,serif" font-size="9.00">1033</text>
</g>
<!-- 1033&#45;&gt;OB
AND -->
<g id="edge9" class="edge"><title>1033&#45;&gt;OB
AND</title>
<path fill="none" stroke="green" stroke-width="0.207721" d="M238.872,-96.4336C225.844,-83.797 207.886,-66.3783 193.237,-52.1696"/>
<polygon fill="green" stroke="green" stroke-width="0.207721" points="195.537,-49.5244 185.922,-45.0743 190.663,-54.5491 195.537,-49.5244"/>
</g>
<!-- 652 -->
<g id="node7" class="node"><title>652</title>
<ellipse fill="white" stroke="black" cx="288.456" cy="-373.81" rx="21.4286" ry="21.4286"/>
<text text-anchor="middle" x="288.456" y="-371.61" font-family="Times,serif" font-size="9.00">652</text>
</g>
<!-- AND -->
<g id="node11" class="node"><title>AND</title>
<ellipse fill="none" stroke="black" cx="131.456" cy="-114.489" rx="26.3269" ry="26.3269"/>
<text text-anchor="middle" x="131.456" y="-112.289" font-family="Times,serif" font-size="9.00">AND</text>
</g>
<!-- 2866&#45;&gt;AND -->
<g id="edge13" class="edge"><title>2866&#45;&gt;AND</title>
<path fill="none" stroke="green" stroke-width="0.471509" d="M99.3066,-178.974C104.194,-169.322 110.064,-157.731 115.443,-147.109"/>
<polygon fill="green" stroke="green" stroke-width="0.471509" points="118.611,-148.6 120.007,-138.097 112.366,-145.437 118.611,-148.6"/>
</g>
<!-- 247 -->
<g id="node9" class="node"><title>247</title>
<ellipse fill="white" stroke="black" cx="348.456" cy="-373.81" rx="21.4286" ry="21.4286"/>
<text text-anchor="middle" x="348.456" y="-371.61" font-family="Times,serif" font-size="9.00">247</text>
</g>
<!-- 2585 -->
<g id="node10" class="node"><title>2585</title>
<ellipse fill="white" stroke="black" cx="412.456" cy="-373.81" rx="25" ry="25"/>
<text text-anchor="middle" x="412.456" y="-371.61" font-family="Times,serif" font-size="9.00">2585</text>
</g>
<!-- AND&#45;&gt;OA
XOR -->
<g id="edge3" class="edge"><title>AND&#45;&gt;OA
XOR</title>
<path fill="none" stroke="green" stroke-width="0.222399" stroke-dasharray="1,5" d="M129.298,-140.583C130.392,-170.338 135.73,-220.049 141.245,-253.079"/>
<polygon fill="green" stroke="green" stroke-width="0.222399" points="137.843,-253.937 143.037,-263.171 144.735,-252.713 137.843,-253.937"/>
</g>
<!-- AND&#45;&gt;OA
XOR -->
<g id="edge10" class="edge"><title>AND&#45;&gt;OA
XOR</title>
<path fill="none" stroke="green" stroke-width="0.573832" d="M139.018,-139.684C144.518,-168.972 150.244,-218.508 152.153,-251.871"/>
<polygon fill="green" stroke="green" stroke-width="0.573832" points="148.668,-252.264 152.634,-262.088 155.66,-251.935 148.668,-252.264"/>
</g>
<!-- AND&#45;&gt;OB
AND -->
<g id="edge6" class="edge"><title>AND&#45;&gt;OB
AND</title>
<path fill="none" stroke="red" stroke-width="0.281557" d="M141.293,-89.8999C145.142,-80.6692 149.624,-69.9233 153.779,-59.9604"/>
<polygon fill="red" stroke="red" stroke-width="0.281557" points="157.012,-61.3001 157.631,-50.7234 150.551,-58.6058 157.012,-61.3001"/>
</g>
<!-- AND&#45;&gt;AND -->
<g id="edge4" class="edge"><title>AND&#45;&gt;AND</title>
<path fill="none" stroke="green" stroke-width="0.424953" d="M152.813,-129.842C164.686,-132.708 175.619,-127.59 175.619,-114.489 175.619,-105.277 170.214,-100.012 162.877,-98.6939"/>
<polygon fill="green" stroke="green" stroke-width="0.424953" points="162.65,-95.2004 152.813,-99.1355 162.957,-102.194 162.65,-95.2004"/>
</g>
<!-- XOR -->
<g id="node13" class="node"><title>XOR</title>
<ellipse fill="none" stroke="black" cx="25.4558" cy="-114.489" rx="25.4118" ry="25.4118"/>
<text text-anchor="middle" x="25.4558" y="-112.289" font-family="Times,serif" font-size="9.00">XOR</text>
</g>
<!-- OR&#45;&gt;XOR -->
<g id="edge8" class="edge"><title>OR&#45;&gt;XOR</title>
<path fill="none" stroke="green" stroke-width="0.248719" d="M19.7358,-181.556C18.8168,-172.151 18.5128,-160.48 18.8238,-149.576"/>
<polygon fill="green" stroke="green" stroke-width="0.248719" points="22.326,-149.612 19.3103,-139.456 15.3341,-149.276 22.326,-149.612"/>
</g>
<!-- XOR&#45;&gt;OB
AND -->
<g id="edge7" class="edge"><title>XOR&#45;&gt;OB
AND</title>
<path fill="none" stroke="red" stroke-width="0.260781" stroke-dasharray="1,5" d="M47.0226,-100.378C70.8621,-85.8851 109.463,-62.4187 136.521,-45.969"/>
<polygon fill="red" stroke="red" stroke-width="0.260781" points="138.49,-48.868 145.217,-40.6825 134.854,-42.8865 138.49,-48.868"/>
</g>
<!-- XOR&#45;&gt;OR -->
<g id="edge12" class="edge"><title>XOR&#45;&gt;OR</title>
<path fill="none" stroke="green" stroke-width="0.316856" d="M31.6014,-139.456C32.2909,-149.352 32.3905,-160.913 31.9003,-171.29"/>
<polygon fill="green" stroke="green" stroke-width="0.316856" points="28.3885,-171.334 31.1759,-181.556 35.3712,-171.827 28.3885,-171.334"/>
</g>
</g>
</svg>
