<?xml version="1.0" encoding="UTF-8" standalone="no"?>
<!DOCTYPE svg PUBLIC "-//W3C//DTD SVG 1.1//EN"
 "http://www.w3.org/Graphics/SVG/1.1/DTD/svg11.dtd">
<!-- Generated by graphviz version 2.38.0 (20140413.2041)
 -->
<!-- Title: %3 Pages: 1 -->
<svg width="313pt" height="183pt"
 viewBox="0.00 0.00 313.31 182.85" xmlns="http://www.w3.org/2000/svg" xmlns:xlink="http://www.w3.org/1999/xlink">
<g id="graph0" class="graph" transform="scale(1 1) rotate(0) translate(4 178.853)">
<title>%3</title>
<polygon fill="white" stroke="none" points="-4,4 -4,-178.853 309.309,-178.853 309.309,4 -4,4"/>
<!-- IA -->
<g id="node1" class="node"><title>IA</title>
<polygon fill="lightgray" stroke="black" points="188.478,-174.853 162.478,-174.853 162.478,-156.853 188.478,-156.853 188.478,-174.853"/>
<text text-anchor="middle" x="175.478" y="-163.653" font-family="Times,serif" font-size="9.00">IA</text>
</g>
<!-- OB -->
<g id="node4" class="node"><title>OB</title>
<ellipse fill="lightblue" stroke="black" cx="259.478" cy="-21.2132" rx="20.5122" ry="20.5122"/>
<text text-anchor="middle" x="259.478" y="-19.0132" font-family="Times,serif" font-size="9.00">OB</text>
</g>
<!-- IA&#45;&gt;OB -->
<g id="edge4" class="edge"><title>IA&#45;&gt;OB</title>
<path fill="none" stroke="green" stroke-width="0.27532" d="M188.763,-164.707C214.975,-163.613 273.012,-157.009 298.478,-120.853 315.141,-97.1948 296.653,-65.4146 279.889,-44.3975"/>
<polygon fill="green" stroke="green" stroke-width="0.27532" points="282.495,-42.0586 273.39,-36.6411 277.13,-46.5541 282.495,-42.0586"/>
</g>
<!-- 172 -->
<g id="node6" class="node"><title>172</title>
<ellipse fill="white" stroke="black" cx="97.4781" cy="-99.6396" rx="21.4286" ry="21.4286"/>
<text text-anchor="middle" x="97.4781" y="-97.4396" font-family="Times,serif" font-size="9.00">172</text>
</g>
<!-- IA&#45;&gt;172 -->
<g id="edge1" class="edge"><title>IA&#45;&gt;172</title>
<path fill="none" stroke="red" stroke-width="0.306338" d="M165.599,-156.72C154.531,-147.608 136.192,-132.511 121.329,-120.275"/>
<polygon fill="red" stroke="red" stroke-width="0.306338" points="123.443,-117.482 113.498,-113.828 118.994,-122.886 123.443,-117.482"/>
</g>
<!-- 173 -->
<g id="node7" class="node"><title>173</title>
<ellipse fill="white" stroke="black" cx="175.478" cy="-99.6396" rx="21.4286" ry="21.4286"/>
<text text-anchor="middle" x="175.478" y="-97.4396" font-family="Times,serif" font-size="9.00">173</text>
</g>
<!-- IA&#45;&gt;173 -->
<g id="edge12" class="edge"><title>IA&#45;&gt;173</title>
<path fill="none" stroke="green" stroke-width="0.212806" d="M175.478,-156.72C175.478,-150.177 175.478,-140.548 175.478,-131.109"/>
<polygon fill="green" stroke="green" stroke-width="0.212806" points="178.978,-131.095 175.478,-121.095 171.978,-131.095 178.978,-131.095"/>
</g>
<!-- IB -->
<g id="node2" class="node"><title>IB</title>
<polygon fill="lightgray" stroke="black" points="97.4781,-174.853 71.4781,-174.853 71.4781,-156.853 97.4781,-156.853 97.4781,-174.853"/>
<text text-anchor="middle" x="84.4781" y="-163.653" font-family="Times,serif" font-size="9.00">IB</text>
</g>
<!-- OA -->
<g id="node3" class="node"><title>OA</title>
<ellipse fill="lightblue" stroke="black" cx="136.478" cy="-21.2132" rx="21.4286" ry="21.4286"/>
<text text-anchor="middle" x="136.478" y="-19.0132" font-family="Times,serif" font-size="9.00">OA</text>
</g>
<!-- IB&#45;&gt;OA -->
<g id="edge6" class="edge"><title>IB&#45;&gt;OA</title>
<path fill="none" stroke="green" stroke-width="0.103112" d="M71.2203,-161.689C53.0869,-156.57 21.2339,-144.557 7.47807,-120.853 -1.98635,-104.544 -2.85436,-94.1997 7.47807,-78.4264 29.0325,-45.5218 74.5053,-31.7711 105.282,-26.097"/>
<polygon fill="green" stroke="green" stroke-width="0.103112" points="106.197,-29.4933 115.492,-24.4087 105.054,-22.5871 106.197,-29.4933"/>
</g>
<!-- IB&#45;&gt;OB -->
<g id="edge8" class="edge"><title>IB&#45;&gt;OB</title>
<path fill="none" stroke="green" stroke-width="0.182935" d="M97.7422,-162.594C137.709,-155.66 254.886,-134.328 265.478,-120.853 281.038,-101.057 276.786,-71.5413 270.323,-49.9552"/>
<polygon fill="green" stroke="green" stroke-width="0.182935" points="273.616,-48.7643 267.157,-40.3662 266.969,-50.9594 273.616,-48.7643"/>
</g>
<!-- IB&#45;&gt;173 -->
<g id="edge2" class="edge"><title>IB&#45;&gt;173</title>
<path fill="none" stroke="green" stroke-width="0.153159" d="M96.0033,-156.72C109.566,-147.15 132.487,-130.976 150.238,-118.45"/>
<polygon fill="green" stroke="green" stroke-width="0.153159" points="152.321,-121.264 158.473,-112.639 148.285,-115.545 152.321,-121.264"/>
</g>
<!-- 170 -->
<g id="node8" class="node"><title>170</title>
<ellipse fill="none" stroke="black" cx="37.4781" cy="-99.6396" rx="21.4286" ry="21.4286"/>
<text text-anchor="middle" x="37.4781" y="-97.4396" font-family="Times,serif" font-size="9.00">170</text>
</g>
<!-- IB&#45;&gt;170 -->
<g id="edge13" class="edge"><title>IB&#45;&gt;170</title>
<path fill="none" stroke="red" stroke-width="0.147964" d="M78.5255,-156.72C72.7778,-148.867 63.7764,-136.569 55.6659,-125.488"/>
<polygon fill="red" stroke="red" stroke-width="0.147964" points="58.4366,-123.348 49.706,-117.346 52.788,-127.483 58.4366,-123.348"/>
</g>
<!-- 171 -->
<g id="node5" class="node"><title>171</title>
<ellipse fill="white" stroke="black" cx="235.478" cy="-99.6396" rx="21.4286" ry="21.4286"/>
<text text-anchor="middle" x="235.478" y="-97.4396" font-family="Times,serif" font-size="9.00">171</text>
</g>
<!-- 171&#45;&gt;OA -->
<g id="edge7" class="edge"><title>171&#45;&gt;OA</title>
<path fill="none" stroke="red" stroke-width="0.105942" d="M219.13,-86.0193C203.367,-73.8501 179.301,-55.2721 161.197,-41.2956"/>
<polygon fill="red" stroke="red" stroke-width="0.105942" points="162.905,-38.1925 152.85,-34.8522 158.627,-43.7335 162.905,-38.1925"/>
</g>
<!-- 171&#45;&gt;OB -->
<g id="edge11" class="edge"><title>171&#45;&gt;OB</title>
<path fill="none" stroke="green" stroke-width="0.235574" d="M241.659,-78.9579C244.351,-70.3833 247.56,-60.1661 250.507,-50.7797"/>
<polygon fill="green" stroke="green" stroke-width="0.235574" points="253.91,-51.627 253.567,-41.0377 247.231,-49.5297 253.91,-51.627"/>
</g>
<!-- 172&#45;&gt;OA -->
<g id="edge10" class="edge"><title>172&#45;&gt;OA</title>
<path fill="none" stroke="red" stroke-width="0.164722" d="M106.721,-80.5276C111.446,-71.2676 117.295,-59.8061 122.553,-49.5017"/>
<polygon fill="red" stroke="red" stroke-width="0.164722" points="125.739,-50.9582 127.167,-40.46 119.504,-47.7765 125.739,-50.9582"/>
</g>
<!-- 172&#45;&gt;172 -->
<g id="edge3" class="edge"><title>172&#45;&gt;172</title>
<path fill="none" stroke="green" stroke-width="0.156594" d="M115.629,-111.241C126.48,-113.819 136.691,-109.952 136.691,-99.6396 136.691,-92.7109 132.082,-88.6917 125.766,-87.582"/>
<polygon fill="green" stroke="green" stroke-width="0.156594" points="125.462,-84.0921 115.629,-88.038 125.777,-91.085 125.462,-84.0921"/>
</g>
<!-- 173&#45;&gt;OA -->
<g id="edge5" class="edge"><title>173&#45;&gt;OA</title>
<path fill="none" stroke="green" stroke-width="0.194365" d="M166.236,-80.5276C161.51,-71.2676 155.662,-59.8061 150.403,-49.5017"/>
<polygon fill="green" stroke="green" stroke-width="0.194365" points="153.452,-47.7765 145.789,-40.46 147.217,-50.9582 153.452,-47.7765"/>
</g>
<!-- 173&#45;&gt;OB -->
<g id="edge9" class="edge"><title>173&#45;&gt;OB</title>
<path fill="none" stroke="red" stroke-width="0.191407" d="M190.885,-84.6218C203.833,-72.8413 222.509,-55.8489 237.105,-42.5688"/>
<polygon fill="red" stroke="red" stroke-width="0.191407" points="239.691,-44.9482 244.732,-35.6295 234.98,-39.7705 239.691,-44.9482"/>
</g>
</g>
</svg>
