<?xml version="1.0" encoding="UTF-8" standalone="no"?>
<!DOCTYPE svg PUBLIC "-//W3C//DTD SVG 1.1//EN"
 "http://www.w3.org/Graphics/SVG/1.1/DTD/svg11.dtd">
<!-- Generated by graphviz version 2.38.0 (20140413.2041)
 -->
<!-- Title: %3 Pages: 1 -->
<svg width="357pt" height="183pt"
 viewBox="0.00 0.00 357.14 182.85" xmlns="http://www.w3.org/2000/svg" xmlns:xlink="http://www.w3.org/1999/xlink">
<g id="graph0" class="graph" transform="scale(1 1) rotate(0) translate(4 178.853)">
<title>%3</title>
<polygon fill="white" stroke="none" points="-4,4 -4,-178.853 353.136,-178.853 353.136,4 -4,4"/>
<!-- IA -->
<g id="node1" class="node"><title>IA</title>
<polygon fill="lightgray" stroke="black" points="46.923,-174.853 20.923,-174.853 20.923,-156.853 46.923,-156.853 46.923,-174.853"/>
<text text-anchor="middle" x="33.923" y="-163.653" font-family="Times,serif" font-size="9.00">IA</text>
</g>
<!-- OA -->
<g id="node3" class="node"><title>OA</title>
<ellipse fill="lightblue" stroke="black" cx="33.923" cy="-21.2132" rx="21.4286" ry="21.4286"/>
<text text-anchor="middle" x="33.923" y="-19.0132" font-family="Times,serif" font-size="9.00">OA</text>
</g>
<!-- IA&#45;&gt;OA -->
<g id="edge9" class="edge"><title>IA&#45;&gt;OA</title>
<path fill="none" stroke="green" stroke-width="0.282401" d="M25.9929,-156.582C18.6473,-148.301 8.22891,-134.812 3.92302,-120.853 -1.63512,-102.834 -0.652766,-96.719 3.92302,-78.4264 6.58058,-67.8023 11.6692,-56.9885 16.9112,-47.7206"/>
<polygon fill="green" stroke="green" stroke-width="0.282401" points="19.9799,-49.4087 22.12,-39.0323 13.9762,-45.8094 19.9799,-49.4087"/>
</g>
<!-- 742 -->
<g id="node5" class="node"><title>742</title>
<ellipse fill="white" stroke="black" cx="33.923" cy="-99.6396" rx="21.4286" ry="21.4286"/>
<text text-anchor="middle" x="33.923" y="-97.4396" font-family="Times,serif" font-size="9.00">742</text>
</g>
<!-- IA&#45;&gt;742 -->
<g id="edge1" class="edge"><title>IA&#45;&gt;742</title>
<path fill="none" stroke="green" stroke-width="0.34389" d="M33.923,-156.72C33.923,-150.177 33.923,-140.548 33.923,-131.109"/>
<polygon fill="green" stroke="green" stroke-width="0.34389" points="37.4231,-131.095 33.923,-121.095 30.4231,-131.095 37.4231,-131.095"/>
</g>
<!-- 745 -->
<g id="node7" class="node"><title>745</title>
<ellipse fill="none" stroke="black" cx="111.923" cy="-99.6396" rx="21.4286" ry="21.4286"/>
<text text-anchor="middle" x="111.923" y="-97.4396" font-family="Times,serif" font-size="9.00">745</text>
</g>
<!-- IA&#45;&gt;745 -->
<g id="edge2" class="edge"><title>IA&#45;&gt;745</title>
<path fill="none" stroke="green" stroke-width="0.259594" d="M43.8018,-156.72C54.87,-147.608 73.2087,-132.511 88.0717,-120.275"/>
<polygon fill="green" stroke="green" stroke-width="0.259594" points="90.4073,-122.886 95.9032,-113.828 85.9582,-117.482 90.4073,-122.886"/>
</g>
<!-- IB -->
<g id="node2" class="node"><title>IB</title>
<polygon fill="lightgray" stroke="black" points="202.923,-174.853 176.923,-174.853 176.923,-156.853 202.923,-156.853 202.923,-174.853"/>
<text text-anchor="middle" x="189.923" y="-163.653" font-family="Times,serif" font-size="9.00">IB</text>
</g>
<!-- OB -->
<g id="node4" class="node"><title>OB</title>
<ellipse fill="lightblue" stroke="black" cx="267.923" cy="-99.6396" rx="20.5122" ry="20.5122"/>
<text text-anchor="middle" x="267.923" y="-97.4396" font-family="Times,serif" font-size="9.00">OB</text>
</g>
<!-- IB&#45;&gt;OB -->
<g id="edge10" class="edge"><title>IB&#45;&gt;OB</title>
<path fill="none" stroke="green" stroke-width="0.489446" d="M199.802,-156.72C211.008,-147.494 229.668,-132.133 244.627,-119.818"/>
<polygon fill="green" stroke="green" stroke-width="0.489446" points="246.991,-122.406 252.487,-113.348 242.542,-117.001 246.991,-122.406"/>
</g>
<!-- IB&#45;&gt;742 -->
<g id="edge3" class="edge"><title>IB&#45;&gt;742</title>
<path fill="none" stroke="green" stroke-width="0.514775" d="M176.601,-159.484C156.191,-151.245 115.966,-134.955 81.923,-120.853 75.783,-118.309 69.212,-115.56 62.9636,-112.933"/>
<polygon fill="green" stroke="green" stroke-width="0.514775" points="64.0929,-109.611 53.5185,-108.952 61.3742,-116.061 64.0929,-109.611"/>
</g>
<!-- 743 -->
<g id="node6" class="node"><title>743</title>
<ellipse fill="white" stroke="black" cx="189.923" cy="-99.6396" rx="21.4286" ry="21.4286"/>
<text text-anchor="middle" x="189.923" y="-97.4396" font-family="Times,serif" font-size="9.00">743</text>
</g>
<!-- IB&#45;&gt;743 -->
<g id="edge4" class="edge"><title>IB&#45;&gt;743</title>
<path fill="none" stroke="green" stroke-width="0.473567" d="M189.923,-156.72C189.923,-150.177 189.923,-140.548 189.923,-131.109"/>
<polygon fill="green" stroke="green" stroke-width="0.473567" points="193.423,-131.095 189.923,-121.095 186.423,-131.095 193.423,-131.095"/>
</g>
<!-- IB&#45;&gt;745 -->
<g id="edge6" class="edge"><title>IB&#45;&gt;745</title>
<path fill="none" stroke="green" stroke-width="0.240417" d="M180.044,-156.72C168.976,-147.608 150.637,-132.511 135.774,-120.275"/>
<polygon fill="green" stroke="green" stroke-width="0.240417" points="137.888,-117.482 127.943,-113.828 133.439,-122.886 137.888,-117.482"/>
</g>
<!-- 744 -->
<g id="node8" class="node"><title>744</title>
<ellipse fill="none" stroke="black" cx="327.923" cy="-99.6396" rx="21.4286" ry="21.4286"/>
<text text-anchor="middle" x="327.923" y="-97.4396" font-family="Times,serif" font-size="9.00">744</text>
</g>
<!-- IB&#45;&gt;744 -->
<g id="edge5" class="edge"><title>IB&#45;&gt;744</title>
<path fill="none" stroke="green" stroke-width="0.555491" d="M202.946,-160.529C223.64,-153.443 265.051,-138.382 297.923,-120.853 299.447,-120.04 300.99,-119.169 302.53,-118.261"/>
<polygon fill="green" stroke="green" stroke-width="0.555491" points="304.576,-121.108 311.167,-112.813 300.842,-115.187 304.576,-121.108"/>
</g>
<!-- OA&#45;&gt;OA -->
<g id="edge11" class="edge"><title>OA&#45;&gt;OA</title>
<path fill="none" stroke="green" stroke-width="0.48118" d="M50.8516,-34.5492C62.1442,-38.3031 73.1362,-33.8577 73.1362,-21.2132 73.1362,-12.5201 67.9408,-7.70237 61.0241,-6.76005"/>
<polygon fill="green" stroke="green" stroke-width="0.48118" points="60.4098,-3.30638 50.8516,-7.87717 61.174,-10.2645 60.4098,-3.30638"/>
</g>
<!-- 742&#45;&gt;OA -->
<g id="edge7" class="edge"><title>742&#45;&gt;OA</title>
<path fill="none" stroke="green" stroke-width="0.163419" d="M33.923,-78.1587C33.923,-70.3001 33.923,-61.1558 33.923,-52.5655"/>
<polygon fill="green" stroke="green" stroke-width="0.163419" points="37.4231,-52.4856 33.923,-42.4856 30.4231,-52.4856 37.4231,-52.4856"/>
</g>
<!-- 742&#45;&gt;742 -->
<g id="edge12" class="edge"><title>742&#45;&gt;742</title>
<path fill="none" stroke="green" stroke-width="0.398359" d="M52.0744,-111.241C62.9244,-113.819 73.1362,-109.952 73.1362,-99.6396 73.1362,-92.7109 68.5265,-88.6917 62.2106,-87.582"/>
<polygon fill="green" stroke="green" stroke-width="0.398359" points="61.907,-84.0921 52.0744,-88.038 62.2217,-91.085 61.907,-84.0921"/>
</g>
<!-- 743&#45;&gt;OA -->
<g id="edge8" class="edge"><title>743&#45;&gt;OA</title>
<path fill="none" stroke="green" stroke-width="0.329786" d="M173.112,-86.5692C168.894,-83.7503 164.317,-80.8627 159.923,-78.4264 127.787,-60.6081 88.9216,-43.9595 62.9305,-33.4769"/>
<polygon fill="green" stroke="green" stroke-width="0.329786" points="64.2255,-30.2254 53.6404,-29.7717 61.6322,-36.7273 64.2255,-30.2254"/>
</g>
<!-- 743&#45;&gt;743 -->
<g id="edge13" class="edge"><title>743&#45;&gt;743</title>
<path fill="none" stroke="green" stroke-width="0.423779" d="M208.074,-111.241C218.924,-113.819 229.136,-109.952 229.136,-99.6396 229.136,-92.7109 224.526,-88.6917 218.211,-87.582"/>
<polygon fill="green" stroke="green" stroke-width="0.423779" points="217.907,-84.0921 208.074,-88.038 218.222,-91.085 217.907,-84.0921"/>
</g>
<!-- 745&#45;&gt;745 -->
<g id="edge14" class="edge"><title>745&#45;&gt;745</title>
<path fill="none" stroke="green" stroke-width="0.243039" d="M130.074,-111.241C140.924,-113.819 151.136,-109.952 151.136,-99.6396 151.136,-92.7109 146.526,-88.6917 140.211,-87.582"/>
<polygon fill="green" stroke="green" stroke-width="0.243039" points="139.907,-84.0921 130.074,-88.038 140.222,-91.085 139.907,-84.0921"/>
</g>
</g>
</svg>
