<?xml version="1.0" encoding="UTF-8" standalone="no"?>
<!DOCTYPE svg PUBLIC "-//W3C//DTD SVG 1.1//EN"
 "http://www.w3.org/Graphics/SVG/1.1/DTD/svg11.dtd">
<!-- Generated by graphviz version 2.38.0 (20140413.2041)
 -->
<!-- Title: %3 Pages: 1 -->
<svg width="644pt" height="391pt"
 viewBox="0.00 0.00 643.98 391.00" xmlns="http://www.w3.org/2000/svg" xmlns:xlink="http://www.w3.org/1999/xlink">
<g id="graph0" class="graph" transform="scale(1 1) rotate(0) translate(4 387.002)">
<title>%3</title>
<polygon fill="white" stroke="none" points="-4,4 -4,-387.002 639.978,-387.002 639.978,4 -4,4"/>
<!-- IA -->
<g id="node1" class="node"><title>IA</title>
<polygon fill="lightgray" stroke="black" points="155.765,-370.789 129.765,-370.789 129.765,-352.789 155.765,-352.789 155.765,-370.789"/>
<text text-anchor="middle" x="142.765" y="-359.589" font-family="Times,serif" font-size="9.00">IA</text>
</g>
<!-- OA
AND -->
<g id="node3" class="node"><title>OA
AND</title>
<ellipse fill="lightblue" stroke="black" cx="56.7651" cy="-26.163" rx="26.3269" ry="26.3269"/>
<text text-anchor="middle" x="56.7651" y="-28.963" font-family="Times,serif" font-size="9.00">OA</text>
<text text-anchor="middle" x="56.7651" y="-18.963" font-family="Times,serif" font-size="9.00">AND</text>
</g>
<!-- IA&#45;&gt;OA
AND -->
<g id="edge1" class="edge"><title>IA&#45;&gt;OA
AND</title>
<path fill="none" stroke="green" stroke-width="0.506598" d="M137.632,-352.71C131.056,-342.051 119.683,-322.537 112.765,-304.576 80.6458,-221.186 65.8994,-116.264 60.0527,-62.4946"/>
<polygon fill="green" stroke="green" stroke-width="0.506598" points="63.5227,-62.0251 58.9994,-52.4443 56.5608,-62.7547 63.5227,-62.0251"/>
</g>
<!-- OB
OR -->
<g id="node4" class="node"><title>OB
OR</title>
<ellipse fill="lightblue" stroke="black" cx="142.765" cy="-284.07" rx="20.5122" ry="20.5122"/>
<text text-anchor="middle" x="142.765" y="-286.87" font-family="Times,serif" font-size="9.00">OB</text>
<text text-anchor="middle" x="142.765" y="-276.87" font-family="Times,serif" font-size="9.00">OR</text>
</g>
<!-- IA&#45;&gt;OB
OR -->
<g id="edge2" class="edge"><title>IA&#45;&gt;OB
OR</title>
<path fill="none" stroke="red" stroke-width="0.204742" d="M142.765,-352.686C142.765,-343.626 142.765,-328.425 142.765,-314.728"/>
<polygon fill="red" stroke="red" stroke-width="0.204742" points="146.265,-314.674 142.765,-304.674 139.265,-314.674 146.265,-314.674"/>
</g>
<!-- OR -->
<g id="node15" class="node"><title>OR</title>
<ellipse fill="none" stroke="black" cx="165.765" cy="-26.163" rx="20.5122" ry="20.5122"/>
<text text-anchor="middle" x="165.765" y="-23.963" font-family="Times,serif" font-size="9.00">OR</text>
</g>
<!-- IA&#45;&gt;OR -->
<g id="edge20" class="edge"><title>IA&#45;&gt;OR</title>
<path fill="none" stroke="green" stroke-width="0.329968" d="M148.38,-352.43C155.25,-341.789 166.712,-322.614 172.765,-304.576 196.233,-234.642 192.969,-214.19 198.765,-140.652 200.592,-117.468 204.46,-110.874 198.765,-88.3259 195.566,-75.6589 189.169,-62.7651 182.852,-52.1025"/>
<polygon fill="green" stroke="green" stroke-width="0.329968" points="185.666,-50.0005 177.404,-43.3685 179.727,-53.7055 185.666,-50.0005"/>
</g>
<!-- IB -->
<g id="node2" class="node"><title>IB</title>
<polygon fill="lightgray" stroke="black" points="97.7651,-370.789 71.7651,-370.789 71.7651,-352.789 97.7651,-352.789 97.7651,-370.789"/>
<text text-anchor="middle" x="84.7651" y="-359.589" font-family="Times,serif" font-size="9.00">IB</text>
</g>
<!-- IB&#45;&gt;OA
AND -->
<g id="edge3" class="edge"><title>IB&#45;&gt;OA
AND</title>
<path fill="none" stroke="red" stroke-width="0.248894" d="M71.5397,-353.284C56.7132,-344.019 33.478,-326.735 23.7651,-304.576 -14.8193,-216.55 0.230039,-181.511 23.7651,-88.3259 26.4967,-77.5105 31.5593,-66.5298 36.913,-56.9137"/>
<polygon fill="red" stroke="red" stroke-width="0.248894" points="40.0084,-58.5549 42.0686,-48.1622 33.9771,-55.0018 40.0084,-58.5549"/>
</g>
<!-- IB&#45;&gt;OB
OR -->
<g id="edge4" class="edge"><title>IB&#45;&gt;OB
OR</title>
<path fill="none" stroke="green" stroke-width="0.931311" d="M90.9721,-352.686C98.8871,-342.353 112.922,-324.031 124.386,-309.063"/>
<polygon fill="green" stroke="green" stroke-width="0.931311" points="127.471,-310.791 130.774,-300.724 121.914,-306.535 127.471,-310.791"/>
</g>
<!-- XOR -->
<g id="node13" class="node"><title>XOR</title>
<ellipse fill="none" stroke="black" cx="129.765" cy="-202.108" rx="25.4118" ry="25.4118"/>
<text text-anchor="middle" x="129.765" y="-199.908" font-family="Times,serif" font-size="9.00">XOR</text>
</g>
<!-- IB&#45;&gt;XOR -->
<g id="edge9" class="edge"><title>IB&#45;&gt;XOR</title>
<path fill="none" stroke="green" stroke-width="0.397496" d="M83.8718,-352.753C86.2192,-331.355 102.346,-272.098 115.153,-234.891"/>
<polygon fill="green" stroke="green" stroke-width="0.397496" points="118.607,-235.626 118.664,-225.031 112.012,-233.278 118.607,-235.626"/>
</g>
<!-- IB&#45;&gt;XOR -->
<g id="edge22" class="edge"><title>IB&#45;&gt;XOR</title>
<path fill="none" stroke="green" stroke-width="0.459837" d="M90.2452,-352.753C99.8728,-331.872 116.958,-274.935 125.61,-237.622"/>
<polygon fill="green" stroke="green" stroke-width="0.459837" points="129.07,-238.184 127.813,-227.664 122.235,-236.672 129.07,-238.184"/>
</g>
<!-- OB
OR&#45;&gt;XOR -->
<g id="edge5" class="edge"><title>OB
OR&#45;&gt;XOR</title>
<path fill="none" stroke="green" stroke-width="0.413976" stroke-dasharray="1,5" d="M134.16,-265.323C131.982,-257.146 130.033,-247.15 128.677,-237.583"/>
<polygon fill="green" stroke="green" stroke-width="0.413976" points="132.13,-236.984 127.457,-227.476 125.181,-237.823 132.13,-236.984"/>
</g>
<!-- OB
OR&#45;&gt;XOR -->
<g id="edge10" class="edge"><title>OB
OR&#45;&gt;XOR</title>
<path fill="none" stroke="green" stroke-width="0.208448" d="M145.496,-263.713C144.91,-255.295 143.524,-245.197 141.707,-235.68"/>
<polygon fill="green" stroke="green" stroke-width="0.208448" points="145.085,-234.741 139.582,-225.688 138.238,-236.197 145.085,-234.741"/>
</g>
<!-- 130 -->
<g id="node5" class="node"><title>130</title>
<ellipse fill="white" stroke="black" cx="194.765" cy="-361.789" rx="21.4286" ry="21.4286"/>
<text text-anchor="middle" x="194.765" y="-359.589" font-family="Times,serif" font-size="9.00">130</text>
</g>
<!-- 259 -->
<g id="node6" class="node"><title>259</title>
<ellipse fill="white" stroke="black" cx="254.765" cy="-361.789" rx="21.4286" ry="21.4286"/>
<text text-anchor="middle" x="254.765" y="-359.589" font-family="Times,serif" font-size="9.00">259</text>
</g>
<!-- 321 -->
<g id="node7" class="node"><title>321</title>
<ellipse fill="white" stroke="black" cx="314.765" cy="-361.789" rx="21.4286" ry="21.4286"/>
<text text-anchor="middle" x="314.765" y="-359.589" font-family="Times,serif" font-size="9.00">321</text>
</g>
<!-- 710 -->
<g id="node8" class="node"><title>710</title>
<ellipse fill="white" stroke="black" cx="374.765" cy="-361.789" rx="21.4286" ry="21.4286"/>
<text text-anchor="middle" x="374.765" y="-359.589" font-family="Times,serif" font-size="9.00">710</text>
</g>
<!-- 585 -->
<g id="node9" class="node"><title>585</title>
<ellipse fill="white" stroke="black" cx="434.765" cy="-361.789" rx="21.4286" ry="21.4286"/>
<text text-anchor="middle" x="434.765" y="-359.589" font-family="Times,serif" font-size="9.00">585</text>
</g>
<!-- 402 -->
<g id="node10" class="node"><title>402</title>
<ellipse fill="white" stroke="black" cx="494.765" cy="-361.789" rx="21.4286" ry="21.4286"/>
<text text-anchor="middle" x="494.765" y="-359.589" font-family="Times,serif" font-size="9.00">402</text>
</g>
<!-- 407 -->
<g id="node11" class="node"><title>407</title>
<ellipse fill="white" stroke="black" cx="554.765" cy="-361.789" rx="21.4286" ry="21.4286"/>
<text text-anchor="middle" x="554.765" y="-359.589" font-family="Times,serif" font-size="9.00">407</text>
</g>
<!-- 699 -->
<g id="node12" class="node"><title>699</title>
<ellipse fill="white" stroke="black" cx="614.765" cy="-361.789" rx="21.4286" ry="21.4286"/>
<text text-anchor="middle" x="614.765" y="-359.589" font-family="Times,serif" font-size="9.00">699</text>
</g>
<!-- XOR&#45;&gt;OA
AND -->
<g id="edge21" class="edge"><title>XOR&#45;&gt;OA
AND</title>
<path fill="none" stroke="green" stroke-width="0.216556" d="M116.379,-180.396C109.356,-168.971 100.951,-154.359 94.7651,-140.652 83.0758,-114.751 73.0308,-84.1345 66.2094,-61.2329"/>
<polygon fill="green" stroke="green" stroke-width="0.216556" points="69.5627,-60.2296 63.398,-51.6129 62.8437,-62.1933 69.5627,-60.2296"/>
</g>
<!-- XOR&#45;&gt;XOR -->
<g id="edge11" class="edge"><title>XOR&#45;&gt;XOR</title>
<path fill="none" stroke="green" stroke-width="0.154007" d="M151.23,-216.489C162.737,-218.933 173.221,-214.139 173.221,-202.108 173.221,-193.836 168.266,-188.986 161.429,-187.556"/>
<polygon fill="green" stroke="green" stroke-width="0.154007" points="161.17,-184.06 151.23,-187.727 161.287,-191.059 161.17,-184.06"/>
</g>
<!-- AND -->
<g id="node14" class="node"><title>AND</title>
<ellipse fill="none" stroke="black" cx="129.765" cy="-114.489" rx="26.3269" ry="26.3269"/>
<text text-anchor="middle" x="129.765" y="-112.289" font-family="Times,serif" font-size="9.00">AND</text>
</g>
<!-- XOR&#45;&gt;AND -->
<g id="edge7" class="edge"><title>XOR&#45;&gt;AND</title>
<path fill="none" stroke="red" stroke-width="0.141962" d="M109.1,-186.969C102.257,-174.112 100.958,-154.869 105.202,-139.586"/>
<polygon fill="red" stroke="red" stroke-width="0.141962" points="108.48,-140.813 108.789,-130.222 101.944,-138.309 108.48,-140.813"/>
</g>
<!-- XOR&#45;&gt;AND -->
<g id="edge15" class="edge"><title>XOR&#45;&gt;AND</title>
<path fill="none" stroke="green" stroke-width="0.290242" d="M129.765,-176.343C129.765,-168.408 129.765,-159.46 129.765,-150.917"/>
<polygon fill="green" stroke="green" stroke-width="0.290242" points="133.265,-150.792 129.765,-140.792 126.265,-150.792 133.265,-150.792"/>
</g>
<!-- AND&#45;&gt;OA
AND -->
<g id="edge19" class="edge"><title>AND&#45;&gt;OA
AND</title>
<path fill="none" stroke="red" stroke-width="0.225277" d="M113.2,-93.9002C103.307,-82.2006 90.5944,-67.1677 79.7405,-54.3324"/>
<polygon fill="red" stroke="red" stroke-width="0.225277" points="82.3941,-52.05 73.2644,-46.6741 77.049,-56.57 82.3941,-52.05"/>
</g>
<!-- AND&#45;&gt;XOR -->
<g id="edge8" class="edge"><title>AND&#45;&gt;XOR</title>
<path fill="none" stroke="green" stroke-width="1.12166" stroke-dasharray="1,5" d="M117.719,-137.984C116.23,-147.609 115.885,-159.017 116.682,-169.47"/>
<polygon fill="green" stroke="green" stroke-width="1.12166" points="113.218,-169.979 117.86,-179.502 120.17,-169.162 113.218,-169.979"/>
</g>
<!-- AND&#45;&gt;XOR -->
<g id="edge16" class="edge"><title>AND&#45;&gt;XOR</title>
<path fill="none" stroke="green" stroke-width="0.135676" d="M141.812,-137.984C143.3,-147.609 143.645,-159.017 142.848,-169.47"/>
<polygon fill="green" stroke="green" stroke-width="0.135676" points="139.36,-169.162 141.67,-179.502 146.312,-169.979 139.36,-169.162"/>
</g>
<!-- AND&#45;&gt;XOR -->
<g id="edge18" class="edge"><title>AND&#45;&gt;XOR</title>
<path fill="none" stroke="green" stroke-width="0.18184" d="M150.741,-130.222C157.35,-143.149 158.521,-162.185 154.254,-177.276"/>
<polygon fill="green" stroke="green" stroke-width="0.18184" points="150.843,-176.383 150.43,-186.969 157.355,-178.951 150.843,-176.383"/>
</g>
<!-- AND&#45;&gt;AND -->
<g id="edge6" class="edge"><title>AND&#45;&gt;AND</title>
<path fill="none" stroke="green" stroke-width="0.908275" d="M151.123,-129.842C162.995,-132.708 173.928,-127.59 173.928,-114.489 173.928,-105.277 168.523,-100.012 161.187,-98.6939"/>
<polygon fill="green" stroke="green" stroke-width="0.908275" points="160.96,-95.2004 151.123,-99.1355 161.267,-102.194 160.96,-95.2004"/>
</g>
<!-- AND&#45;&gt;OR -->
<g id="edge17" class="edge"><title>AND&#45;&gt;OR</title>
<path fill="none" stroke="green" stroke-width="0.449262" d="M133.992,-88.5198C138.009,-77.0824 143.649,-63.5588 149.171,-52.1225"/>
<polygon fill="green" stroke="green" stroke-width="0.449262" points="152.346,-53.6009 153.743,-43.0986 146.101,-50.4369 152.346,-53.6009"/>
</g>
<!-- OR&#45;&gt;XOR -->
<g id="edge14" class="edge"><title>OR&#45;&gt;XOR</title>
<path fill="none" stroke="green" stroke-width="0.175643" d="M173.795,-45.0436C182.872,-67.9062 194.903,-108.393 182.765,-140.652 177.386,-154.949 166.92,-168.07 156.7,-178.408"/>
<polygon fill="green" stroke="green" stroke-width="0.175643" points="154.178,-175.977 149.377,-185.421 159.02,-181.032 154.178,-175.977"/>
</g>
<!-- OR&#45;&gt;AND -->
<g id="edge13" class="edge"><title>OR&#45;&gt;AND</title>
<path fill="none" stroke="green" stroke-width="0.288881" d="M163.379,-46.6842C159.892,-57.4768 154.441,-71.1212 148.844,-83.2613"/>
<polygon fill="green" stroke="green" stroke-width="0.288881" points="145.537,-82.0627 144.358,-92.5918 151.845,-85.0958 145.537,-82.0627"/>
</g>
<!-- OR&#45;&gt;OR -->
<g id="edge12" class="edge"><title>OR&#45;&gt;OR</title>
<path fill="none" stroke="red" stroke-width="0.421593" d="M180.784,-40.532C192.412,-45.9057 204.271,-41.1161 204.271,-26.163 204.271,-15.5322 198.277,-10.0384 190.634,-9.68154"/>
<polygon fill="red" stroke="red" stroke-width="0.421593" points="189.828,-6.27466 180.784,-11.7939 191.296,-13.119 189.828,-6.27466"/>
</g>
</g>
</svg>
