<?xml version="1.0" encoding="UTF-8" standalone="no"?>
<!DOCTYPE svg PUBLIC "-//W3C//DTD SVG 1.1//EN"
 "http://www.w3.org/Graphics/SVG/1.1/DTD/svg11.dtd">
<!-- Generated by graphviz version 2.38.0 (20140413.2041)
 -->
<!-- Title: %3 Pages: 1 -->
<svg width="334pt" height="183pt"
 viewBox="0.00 0.00 333.68 182.85" xmlns="http://www.w3.org/2000/svg" xmlns:xlink="http://www.w3.org/1999/xlink">
<g id="graph0" class="graph" transform="scale(1 1) rotate(0) translate(4 178.853)">
<title>%3</title>
<polygon fill="white" stroke="none" points="-4,4 -4,-178.853 329.682,-178.853 329.682,4 -4,4"/>
<!-- IA -->
<g id="node1" class="node"><title>IA</title>
<polygon fill="lightgray" stroke="black" points="159.469,-174.853 133.469,-174.853 133.469,-156.853 159.469,-156.853 159.469,-174.853"/>
<text text-anchor="middle" x="146.469" y="-163.653" font-family="Times,serif" font-size="9.00">IA</text>
</g>
<!-- OA -->
<g id="node3" class="node"><title>OA</title>
<ellipse fill="lightblue" stroke="black" cx="230.469" cy="-21.2132" rx="21.4286" ry="21.4286"/>
<text text-anchor="middle" x="230.469" y="-19.0132" font-family="Times,serif" font-size="9.00">OA</text>
</g>
<!-- IA&#45;&gt;OA -->
<g id="edge13" class="edge"><title>IA&#45;&gt;OA</title>
<path fill="none" stroke="red" stroke-width="0.234273" d="M159.8,-162.811C180.443,-158.854 219.523,-148 236.469,-120.853 249.429,-100.091 246.082,-71.8377 240.577,-50.8895"/>
<polygon fill="red" stroke="red" stroke-width="0.234273" points="243.927,-49.875 237.764,-41.2575 237.208,-51.8377 243.927,-49.875"/>
</g>
<!-- OB -->
<g id="node4" class="node"><title>OB</title>
<ellipse fill="lightblue" stroke="black" cx="68.4688" cy="-21.2132" rx="20.5122" ry="20.5122"/>
<text text-anchor="middle" x="68.4688" y="-19.0132" font-family="Times,serif" font-size="9.00">OB</text>
</g>
<!-- IA&#45;&gt;OB -->
<g id="edge9" class="edge"><title>IA&#45;&gt;OB</title>
<path fill="none" stroke="red" stroke-width="0.302941" d="M133.29,-163.99C109.545,-161.642 60.0465,-152.944 38.4688,-120.853 23.1752,-98.1079 36.9104,-67.2815 50.4194,-46.179"/>
<polygon fill="red" stroke="red" stroke-width="0.302941" points="53.397,-48.024 56.1098,-37.7824 47.6023,-44.097 53.397,-48.024"/>
</g>
<!-- 170 -->
<g id="node5" class="node"><title>170</title>
<ellipse fill="white" stroke="black" cx="146.469" cy="-99.6396" rx="21.4286" ry="21.4286"/>
<text text-anchor="middle" x="146.469" y="-97.4396" font-family="Times,serif" font-size="9.00">170</text>
</g>
<!-- IA&#45;&gt;170 -->
<g id="edge5" class="edge"><title>IA&#45;&gt;170</title>
<path fill="none" stroke="red" stroke-width="0.266525" d="M146.469,-156.72C146.469,-150.177 146.469,-140.548 146.469,-131.109"/>
<polygon fill="red" stroke="red" stroke-width="0.266525" points="149.969,-131.095 146.469,-121.095 142.969,-131.095 149.969,-131.095"/>
</g>
<!-- 171 -->
<g id="node6" class="node"><title>171</title>
<ellipse fill="white" stroke="black" cx="304.469" cy="-99.6396" rx="21.4286" ry="21.4286"/>
<text text-anchor="middle" x="304.469" y="-97.4396" font-family="Times,serif" font-size="9.00">171</text>
</g>
<!-- IA&#45;&gt;171 -->
<g id="edge8" class="edge"><title>IA&#45;&gt;171</title>
<path fill="none" stroke="red" stroke-width="0.253046" d="M159.704,-160.981C182.58,-154.1 230.778,-138.768 269.469,-120.853 272.245,-119.568 275.09,-118.134 277.901,-116.64"/>
<polygon fill="red" stroke="red" stroke-width="0.253046" points="279.606,-119.696 286.634,-111.767 276.195,-113.583 279.606,-119.696"/>
</g>
<!-- 173 -->
<g id="node8" class="node"><title>173</title>
<ellipse fill="white" stroke="black" cx="68.4688" cy="-99.6396" rx="21.4286" ry="21.4286"/>
<text text-anchor="middle" x="68.4688" y="-97.4396" font-family="Times,serif" font-size="9.00">173</text>
</g>
<!-- IA&#45;&gt;173 -->
<g id="edge3" class="edge"><title>IA&#45;&gt;173</title>
<path fill="none" stroke="green" stroke-width="0.181788" d="M136.59,-156.72C125.522,-147.608 107.183,-132.511 92.3201,-120.275"/>
<polygon fill="green" stroke="green" stroke-width="0.181788" points="94.4336,-117.482 84.4887,-113.828 89.9845,-122.886 94.4336,-117.482"/>
</g>
<!-- IB -->
<g id="node2" class="node"><title>IB</title>
<polygon fill="lightgray" stroke="black" points="55.4688,-174.853 29.4688,-174.853 29.4688,-156.853 55.4688,-156.853 55.4688,-174.853"/>
<text text-anchor="middle" x="42.4688" y="-163.653" font-family="Times,serif" font-size="9.00">IB</text>
</g>
<!-- IB&#45;&gt;OB -->
<g id="edge4" class="edge"><title>IB&#45;&gt;OB</title>
<path fill="none" stroke="red" stroke-width="0.136887" d="M32.3835,-156.653C23.3747,-148.62 10.8018,-135.481 5.4688,-120.853 -0.989787,-103.137 -2.23951,-95.6351 5.4688,-78.4264 13.0388,-61.5266 28.4789,-47.6172 42.1785,-37.8623"/>
<polygon fill="red" stroke="red" stroke-width="0.136887" points="44.4726,-40.5381 50.8294,-32.0621 40.5744,-34.7239 44.4726,-40.5381"/>
</g>
<!-- IB&#45;&gt;170 -->
<g id="edge16" class="edge"><title>IB&#45;&gt;170</title>
<path fill="none" stroke="red" stroke-width="0.1" d="M55.7046,-157.285C70.6165,-148.689 95.5089,-134.13 116.469,-120.853 117.928,-119.929 119.419,-118.97 120.92,-117.994"/>
<polygon fill="red" stroke="red" stroke-width="0.1" points="123.038,-120.79 129.445,-112.352 119.174,-114.953 123.038,-120.79"/>
</g>
<!-- OA&#45;&gt;OA -->
<g id="edge1" class="edge"><title>OA&#45;&gt;OA</title>
<path fill="none" stroke="green" stroke-width="0.135948" d="M247.397,-34.5492C258.69,-38.3031 269.682,-33.8577 269.682,-21.2132 269.682,-12.5201 264.487,-7.70237 257.57,-6.76005"/>
<polygon fill="green" stroke="green" stroke-width="0.135948" points="256.956,-3.30638 247.397,-7.87717 257.72,-10.2645 256.956,-3.30638"/>
</g>
<!-- OB&#45;&gt;OB -->
<g id="edge15" class="edge"><title>OB&#45;&gt;OB</title>
<path fill="none" stroke="red" stroke-width="0.15963" d="M84.2902,-34.2636C95.6546,-38.5126 106.975,-34.1624 106.975,-21.2132 106.975,-12.3106 101.624,-7.47244 94.5873,-6.69868"/>
<polygon fill="red" stroke="red" stroke-width="0.15963" points="93.6979,-3.28986 84.2902,-8.16282 94.6833,-10.2202 93.6979,-3.28986"/>
</g>
<!-- 170&#45;&gt;OA -->
<g id="edge6" class="edge"><title>170&#45;&gt;OA</title>
<path fill="none" stroke="green" stroke-width="0.223594" d="M161.876,-84.6218C174.664,-72.9867 193.04,-56.2677 207.554,-43.0623"/>
<polygon fill="green" stroke="green" stroke-width="0.223594" points="210.118,-45.4607 215.16,-36.1421 205.407,-40.2831 210.118,-45.4607"/>
</g>
<!-- 170&#45;&gt;OB -->
<g id="edge14" class="edge"><title>170&#45;&gt;OB</title>
<path fill="none" stroke="green" stroke-width="0.109135" d="M131.798,-84.2644C120.067,-72.77 103.446,-56.4845 90.1749,-43.4814"/>
<polygon fill="green" stroke="green" stroke-width="0.109135" points="92.403,-40.7645 82.8107,-36.2658 87.5039,-45.7644 92.403,-40.7645"/>
</g>
<!-- 171&#45;&gt;OA -->
<g id="edge7" class="edge"><title>171&#45;&gt;OA</title>
<path fill="none" stroke="green" stroke-width="0.336121" d="M290.201,-83.9038C279.419,-72.7683 264.432,-57.2902 252.168,-44.6238"/>
<polygon fill="green" stroke="green" stroke-width="0.336121" points="254.416,-41.9141 244.945,-37.1645 249.387,-46.7834 254.416,-41.9141"/>
</g>
<!-- 172 -->
<g id="node7" class="node"><title>172</title>
<ellipse fill="white" stroke="black" cx="206.469" cy="-99.6396" rx="21.4286" ry="21.4286"/>
<text text-anchor="middle" x="206.469" y="-97.4396" font-family="Times,serif" font-size="9.00">172</text>
</g>
<!-- 172&#45;&gt;OA -->
<g id="edge12" class="edge"><title>172&#45;&gt;OA</title>
<path fill="none" stroke="green" stroke-width="0.211993" d="M212.649,-78.9579C215.301,-70.5132 218.453,-60.4753 221.364,-51.2069"/>
<polygon fill="green" stroke="green" stroke-width="0.211993" points="224.735,-52.1529 224.392,-41.5636 218.057,-50.0556 224.735,-52.1529"/>
</g>
<!-- 172&#45;&gt;OB -->
<g id="edge10" class="edge"><title>172&#45;&gt;OB</title>
<path fill="none" stroke="green" stroke-width="0.133523" d="M189.55,-86.7553C185.336,-83.9308 180.787,-80.994 176.469,-78.4264 149.721,-62.5236 118.022,-46.3216 95.9109,-35.4235"/>
<polygon fill="green" stroke="green" stroke-width="0.133523" points="97.2926,-32.2031 86.7719,-30.9519 94.2161,-38.4908 97.2926,-32.2031"/>
</g>
<!-- 173&#45;&gt;OB -->
<g id="edge11" class="edge"><title>173&#45;&gt;OB</title>
<path fill="none" stroke="red" stroke-width="0.296969" d="M68.4688,-78.1587C68.4688,-70.1744 68.4688,-60.8629 68.4688,-52.1536"/>
<polygon fill="red" stroke="red" stroke-width="0.296969" points="71.9689,-51.9585 68.4688,-41.9586 64.9689,-51.9586 71.9689,-51.9585"/>
</g>
<!-- 173&#45;&gt;173 -->
<g id="edge2" class="edge"><title>173&#45;&gt;173</title>
<path fill="none" stroke="green" stroke-width="0.104441" d="M86.6202,-111.241C97.4702,-113.819 107.682,-109.952 107.682,-99.6396 107.682,-92.7109 103.072,-88.6917 96.7563,-87.582"/>
<polygon fill="green" stroke="green" stroke-width="0.104441" points="96.4528,-84.0921 86.6202,-88.038 96.7675,-91.085 96.4528,-84.0921"/>
</g>
</g>
</svg>
