<?xml version="1.0" encoding="UTF-8" standalone="no"?>
<!DOCTYPE svg PUBLIC "-//W3C//DTD SVG 1.1//EN"
 "http://www.w3.org/Graphics/SVG/1.1/DTD/svg11.dtd">
<!-- Generated by graphviz version 2.38.0 (20140413.2041)
 -->
<!-- Title: %3 Pages: 1 -->
<svg width="386pt" height="190pt"
 viewBox="0.00 0.00 386.00 189.92" xmlns="http://www.w3.org/2000/svg" xmlns:xlink="http://www.w3.org/1999/xlink">
<g id="graph0" class="graph" transform="scale(1 1) rotate(0) translate(4 185.924)">
<title>%3</title>
<polygon fill="white" stroke="none" points="-4,4 -4,-185.924 381.995,-185.924 381.995,4 -4,4"/>
<!-- IA -->
<g id="node1" class="node"><title>IA</title>
<polygon fill="lightgray" stroke="black" points="233.247,-181.924 207.247,-181.924 207.247,-163.924 233.247,-163.924 233.247,-181.924"/>
<text text-anchor="middle" x="220.247" y="-170.724" font-family="Times,serif" font-size="9.00">IA</text>
</g>
<!-- OA -->
<g id="node3" class="node"><title>OA</title>
<ellipse fill="lightblue" stroke="black" cx="102.247" cy="-21.2132" rx="21.4286" ry="21.4286"/>
<text text-anchor="middle" x="102.247" y="-19.0132" font-family="Times,serif" font-size="9.00">OA</text>
</g>
<!-- IA&#45;&gt;OA -->
<g id="edge11" class="edge"><title>IA&#45;&gt;OA</title>
<path fill="none" stroke="red" stroke-width="0.201036" d="M217.74,-163.706C212.2,-146.497 197.605,-105.986 175.247,-78.4264 162.273,-62.4351 143.888,-48.3119 128.814,-38.2217"/>
<polygon fill="red" stroke="red" stroke-width="0.201036" points="130.683,-35.2624 120.387,-32.7632 126.877,-41.1375 130.683,-35.2624"/>
</g>
<!-- OB -->
<g id="node4" class="node"><title>OB</title>
<ellipse fill="lightblue" stroke="black" cx="218.247" cy="-21.2132" rx="20.5122" ry="20.5122"/>
<text text-anchor="middle" x="218.247" y="-19.0132" font-family="Times,serif" font-size="9.00">OB</text>
</g>
<!-- IA&#45;&gt;OB -->
<g id="edge12" class="edge"><title>IA&#45;&gt;OB</title>
<path fill="none" stroke="green" stroke-width="0.172807" d="M233.373,-166.824C248.106,-160.299 271.254,-147.453 281.247,-127.924 291.267,-108.34 290.24,-98.5032 281.247,-78.4264 273.677,-61.5266 258.236,-47.6172 244.537,-37.8623"/>
<polygon fill="green" stroke="green" stroke-width="0.172807" points="246.141,-34.7239 235.886,-32.0621 242.243,-40.5381 246.141,-34.7239"/>
</g>
<!-- 1185 -->
<g id="node5" class="node"><title>1185</title>
<ellipse fill="white" stroke="black" cx="74.2465" cy="-103.175" rx="25" ry="25"/>
<text text-anchor="middle" x="74.2465" y="-100.975" font-family="Times,serif" font-size="9.00">1185</text>
</g>
<!-- IA&#45;&gt;1185 -->
<g id="edge4" class="edge"><title>IA&#45;&gt;1185</title>
<path fill="none" stroke="red" stroke-width="0.1" d="M207.239,-168.046C185.717,-161.372 141.657,-146.613 107.247,-127.924 105.479,-126.964 103.696,-125.923 101.922,-124.832"/>
<polygon fill="red" stroke="red" stroke-width="0.1" points="103.526,-121.696 93.2564,-119.09 99.6596,-127.531 103.526,-121.696"/>
</g>
<!-- 1182 -->
<g id="node6" class="node"><title>1182</title>
<ellipse fill="white" stroke="black" cx="247.247" cy="-103.175" rx="25" ry="25"/>
<text text-anchor="middle" x="247.247" y="-100.975" font-family="Times,serif" font-size="9.00">1182</text>
</g>
<!-- IA&#45;&gt;1182 -->
<g id="edge1" class="edge"><title>IA&#45;&gt;1182</title>
<path fill="none" stroke="green" stroke-width="0.152226" d="M223.45,-163.886C226.252,-156.855 230.511,-146.168 234.655,-135.769"/>
<polygon fill="green" stroke="green" stroke-width="0.152226" points="237.933,-136.998 238.384,-126.413 231.431,-134.407 237.933,-136.998"/>
</g>
<!-- 1183 -->
<g id="node7" class="node"><title>1183</title>
<ellipse fill="none" stroke="black" cx="141.247" cy="-103.175" rx="25" ry="25"/>
<text text-anchor="middle" x="141.247" y="-100.975" font-family="Times,serif" font-size="9.00">1183</text>
</g>
<!-- IA&#45;&gt;1183 -->
<g id="edge2" class="edge"><title>IA&#45;&gt;1183</title>
<path fill="none" stroke="red" stroke-width="0.1" d="M210.874,-163.886C200.252,-154.777 182.475,-139.532 167.543,-126.726"/>
<polygon fill="red" stroke="red" stroke-width="0.1" points="169.473,-123.771 159.603,-119.918 164.916,-129.084 169.473,-123.771"/>
</g>
<!-- 1184 -->
<g id="node8" class="node"><title>1184</title>
<ellipse fill="none" stroke="black" cx="353.247" cy="-103.175" rx="25" ry="25"/>
<text text-anchor="middle" x="353.247" y="-100.975" font-family="Times,serif" font-size="9.00">1184</text>
</g>
<!-- IA&#45;&gt;1184 -->
<g id="edge3" class="edge"><title>IA&#45;&gt;1184</title>
<path fill="none" stroke="green" stroke-width="0.131133" d="M233.547,-166.247C251.965,-158.263 286.142,-143.001 314.247,-127.924 317.344,-126.262 320.539,-124.463 323.704,-122.625"/>
<polygon fill="green" stroke="green" stroke-width="0.131133" points="325.641,-125.545 332.441,-117.421 322.059,-119.532 325.641,-125.545"/>
</g>
<!-- IB -->
<g id="node2" class="node"><title>IB</title>
<polygon fill="lightgray" stroke="black" points="60.2465,-181.924 34.2465,-181.924 34.2465,-163.924 60.2465,-163.924 60.2465,-181.924"/>
<text text-anchor="middle" x="47.2465" y="-170.724" font-family="Times,serif" font-size="9.00">IB</text>
</g>
<!-- IB&#45;&gt;OA -->
<g id="edge13" class="edge"><title>IB&#45;&gt;OA</title>
<path fill="none" stroke="red" stroke-width="0.104195" d="M36.3628,-163.904C26.6371,-155.998 13.0539,-142.945 7.24653,-127.924 -0.68619,-107.405 -3.65074,-97.5366 7.24653,-78.4264 21.0767,-54.1728 49.9328,-39.3187 72.2335,-31.0207"/>
<polygon fill="red" stroke="red" stroke-width="0.104195" points="73.6367,-34.2388 81.9409,-27.6592 71.3461,-27.6241 73.6367,-34.2388"/>
</g>
<!-- IB&#45;&gt;OB -->
<g id="edge14" class="edge"><title>IB&#45;&gt;OB</title>
<path fill="none" stroke="green" stroke-width="0.180933" d="M43.3976,-163.704C35.8011,-146.136 21.1948,-104.422 40.2465,-78.4264 49.2147,-66.1895 140.305,-41.7769 188.577,-29.5488"/>
<polygon fill="green" stroke="green" stroke-width="0.180933" points="189.617,-32.8963 198.462,-27.0635 187.91,-26.1076 189.617,-32.8963"/>
</g>
<!-- IB&#45;&gt;1185 -->
<g id="edge6" class="edge"><title>IB&#45;&gt;1185</title>
<path fill="none" stroke="red" stroke-width="0.310474" d="M50.4498,-163.886C53.2519,-156.855 57.511,-146.168 61.6554,-135.769"/>
<polygon fill="red" stroke="red" stroke-width="0.310474" points="64.9332,-136.998 65.3841,-126.413 58.4306,-134.407 64.9332,-136.998"/>
</g>
<!-- IB&#45;&gt;1183 -->
<g id="edge5" class="edge"><title>IB&#45;&gt;1183</title>
<path fill="none" stroke="red" stroke-width="0.1" d="M58.3987,-163.886C71.7725,-154.247 94.6804,-137.737 113.023,-124.517"/>
<polygon fill="red" stroke="red" stroke-width="0.1" points="115.532,-127.023 121.598,-118.336 111.439,-121.344 115.532,-127.023"/>
</g>
<!-- 1185&#45;&gt;OA -->
<g id="edge9" class="edge"><title>1185&#45;&gt;OA</title>
<path fill="none" stroke="red" stroke-width="0.1" d="M82.1953,-79.4751C85.2824,-70.6591 88.8556,-60.4549 92.1229,-51.124"/>
<polygon fill="red" stroke="red" stroke-width="0.1" points="95.5093,-52.0436 95.5109,-41.4487 88.9026,-49.7301 95.5093,-52.0436"/>
</g>
<!-- 1185&#45;&gt;OB -->
<g id="edge10" class="edge"><title>1185&#45;&gt;OB</title>
<path fill="none" stroke="red" stroke-width="0.1" d="M93.8011,-87.3469C98.1432,-84.2692 102.783,-81.14 107.247,-78.4264 134.702,-61.7334 167.727,-45.4606 190.58,-34.7556"/>
<polygon fill="red" stroke="red" stroke-width="0.1" points="192.106,-37.906 199.706,-30.5236 189.161,-31.5556 192.106,-37.906"/>
</g>
<!-- 1182&#45;&gt;OA -->
<g id="edge7" class="edge"><title>1182&#45;&gt;OA</title>
<path fill="none" stroke="green" stroke-width="0.184379" d="M226.333,-89.1263C220.518,-85.5842 214.172,-81.7978 208.247,-78.4264 181.909,-63.4411 151.275,-47.3348 129.733,-36.2205"/>
<polygon fill="green" stroke="green" stroke-width="0.184379" points="131.304,-33.0927 120.81,-31.6341 128.104,-39.3185 131.304,-33.0927"/>
</g>
<!-- 1182&#45;&gt;OB -->
<g id="edge8" class="edge"><title>1182&#45;&gt;OB</title>
<path fill="none" stroke="red" stroke-width="0.157739" d="M239.014,-79.4751C235.708,-70.3597 231.864,-59.7602 228.388,-50.1765"/>
<polygon fill="red" stroke="red" stroke-width="0.157739" points="231.637,-48.8692 224.937,-40.6616 225.056,-51.2558 231.637,-48.8692"/>
</g>
</g>
</svg>
