<?xml version="1.0" encoding="UTF-8" standalone="no"?>
<!DOCTYPE svg PUBLIC "-//W3C//DTD SVG 1.1//EN"
 "http://www.w3.org/Graphics/SVG/1.1/DTD/svg11.dtd">
<!-- Generated by graphviz version 2.38.0 (20140413.2041)
 -->
<!-- Title: %3 Pages: 1 -->
<svg width="402pt" height="183pt"
 viewBox="0.00 0.00 401.72 182.85" xmlns="http://www.w3.org/2000/svg" xmlns:xlink="http://www.w3.org/1999/xlink">
<g id="graph0" class="graph" transform="scale(1 1) rotate(0) translate(4 178.853)">
<title>%3</title>
<polygon fill="white" stroke="none" points="-4,4 -4,-178.853 397.719,-178.853 397.719,4 -4,4"/>
<!-- IA -->
<g id="node1" class="node"><title>IA</title>
<polygon fill="lightgray" stroke="black" points="185.213,-174.853 159.213,-174.853 159.213,-156.853 185.213,-156.853 185.213,-174.853"/>
<text text-anchor="middle" x="172.213" y="-163.653" font-family="Times,serif" font-size="9.00">IA</text>
</g>
<!-- OA -->
<g id="node3" class="node"><title>OA</title>
<ellipse fill="lightblue" stroke="black" cx="172.213" cy="-21.2132" rx="21.4286" ry="21.4286"/>
<text text-anchor="middle" x="172.213" y="-19.0132" font-family="Times,serif" font-size="9.00">OA</text>
</g>
<!-- IA&#45;&gt;OA -->
<g id="edge10" class="edge"><title>IA&#45;&gt;OA</title>
<path fill="none" stroke="green" stroke-width="0.198028" d="M171.016,-156.767C169.778,-147.958 167.926,-133.441 167.213,-120.853 166.147,-102.027 166.377,-97.264 167.213,-78.4264 167.586,-70.03 168.27,-60.949 169.015,-52.5848"/>
<polygon fill="green" stroke="green" stroke-width="0.198028" points="172.514,-52.7648 169.973,-42.4791 165.545,-52.1043 172.514,-52.7648"/>
</g>
<!-- 410 -->
<g id="node5" class="node"><title>410</title>
<ellipse fill="white" stroke="black" cx="257.213" cy="-99.6396" rx="21.4286" ry="21.4286"/>
<text text-anchor="middle" x="257.213" y="-97.4396" font-family="Times,serif" font-size="9.00">410</text>
</g>
<!-- IA&#45;&gt;410 -->
<g id="edge1" class="edge"><title>IA&#45;&gt;410</title>
<path fill="none" stroke="green" stroke-width="0.505701" d="M182.979,-156.72C195.38,-147.351 216.157,-131.655 232.582,-119.248"/>
<polygon fill="green" stroke="green" stroke-width="0.505701" points="234.837,-121.93 240.706,-113.11 230.617,-116.345 234.837,-121.93"/>
</g>
<!-- 411 -->
<g id="node6" class="node"><title>411</title>
<ellipse fill="white" stroke="black" cx="197.213" cy="-99.6396" rx="21.4286" ry="21.4286"/>
<text text-anchor="middle" x="197.213" y="-97.4396" font-family="Times,serif" font-size="9.00">411</text>
</g>
<!-- IA&#45;&gt;411 -->
<g id="edge2" class="edge"><title>IA&#45;&gt;411</title>
<path fill="none" stroke="green" stroke-width="0.208687" d="M175.379,-156.72C178.108,-149.713 182.214,-139.165 186.132,-129.102"/>
<polygon fill="green" stroke="green" stroke-width="0.208687" points="189.413,-130.322 189.78,-119.733 182.89,-127.782 189.413,-130.322"/>
</g>
<!-- 413 -->
<g id="node8" class="node"><title>413</title>
<ellipse fill="white" stroke="black" cx="21.2132" cy="-99.6396" rx="21.4286" ry="21.4286"/>
<text text-anchor="middle" x="21.2132" y="-97.4396" font-family="Times,serif" font-size="9.00">413</text>
</g>
<!-- IA&#45;&gt;413 -->
<g id="edge3" class="edge"><title>IA&#45;&gt;413</title>
<path fill="none" stroke="green" stroke-width="0.169978" d="M159.064,-161.224C136.365,-154.71 88.6637,-139.916 51.2132,-120.853 49.6741,-120.069 48.1194,-119.221 46.5703,-118.331"/>
<polygon fill="green" stroke="green" stroke-width="0.169978" points="48.2446,-115.25 37.9062,-112.933 44.5431,-121.191 48.2446,-115.25"/>
</g>
<!-- IB -->
<g id="node2" class="node"><title>IB</title>
<polygon fill="lightgray" stroke="black" points="303.213,-174.853 277.213,-174.853 277.213,-156.853 303.213,-156.853 303.213,-174.853"/>
<text text-anchor="middle" x="290.213" y="-163.653" font-family="Times,serif" font-size="9.00">IB</text>
</g>
<!-- IB&#45;&gt;OA -->
<g id="edge11" class="edge"><title>IB&#45;&gt;OA</title>
<path fill="none" stroke="green" stroke-width="0.369097" d="M295.157,-156.686C304.33,-140.368 321.623,-103.177 305.213,-78.4264 282.687,-44.4505 235.113,-30.9567 203.402,-25.6331"/>
<polygon fill="green" stroke="green" stroke-width="0.369097" points="203.723,-22.1422 193.315,-24.1231 202.687,-29.0651 203.723,-22.1422"/>
</g>
<!-- OB -->
<g id="node4" class="node"><title>OB</title>
<ellipse fill="lightblue" stroke="black" cx="373.213" cy="-99.6396" rx="20.5122" ry="20.5122"/>
<text text-anchor="middle" x="373.213" y="-97.4396" font-family="Times,serif" font-size="9.00">OB</text>
</g>
<!-- IB&#45;&gt;OB -->
<g id="edge12" class="edge"><title>IB&#45;&gt;OB</title>
<path fill="none" stroke="green" stroke-width="0.359044" d="M300.725,-156.72C312.909,-147.294 333.372,-131.462 349.456,-119.02"/>
<polygon fill="green" stroke="green" stroke-width="0.359044" points="351.632,-121.761 357.4,-112.874 347.349,-116.224 351.632,-121.761"/>
</g>
<!-- IB&#45;&gt;410 -->
<g id="edge4" class="edge"><title>IB&#45;&gt;410</title>
<path fill="none" stroke="green" stroke-width="0.402158" d="M286.034,-156.72C282.316,-149.485 276.659,-138.478 271.338,-128.125"/>
<polygon fill="green" stroke="green" stroke-width="0.402158" points="274.296,-126.222 266.612,-118.928 268.07,-129.422 274.296,-126.222"/>
</g>
<!-- IB&#45;&gt;411 -->
<g id="edge5" class="edge"><title>IB&#45;&gt;411</title>
<path fill="none" stroke="green" stroke-width="0.380937" d="M278.435,-156.72C264.489,-147.091 240.865,-130.779 222.679,-118.223"/>
<polygon fill="green" stroke="green" stroke-width="0.380937" points="224.472,-115.207 214.254,-112.406 220.494,-120.968 224.472,-115.207"/>
</g>
<!-- OA&#45;&gt;OA -->
<g id="edge13" class="edge"><title>OA&#45;&gt;OA</title>
<path fill="none" stroke="green" stroke-width="0.359284" d="M189.142,-34.5492C200.434,-38.3031 211.426,-33.8577 211.426,-21.2132 211.426,-12.5201 206.231,-7.70237 199.314,-6.76005"/>
<polygon fill="green" stroke="green" stroke-width="0.359284" points="198.7,-3.30638 189.142,-7.87717 199.464,-10.2645 198.7,-3.30638"/>
</g>
<!-- 410&#45;&gt;OA -->
<g id="edge6" class="edge"><title>410&#45;&gt;OA</title>
<path fill="none" stroke="green" stroke-width="0.349728" d="M241.623,-84.6218C228.683,-72.9867 210.088,-56.2677 195.401,-43.0623"/>
<polygon fill="green" stroke="green" stroke-width="0.349728" points="197.481,-40.2256 187.705,-36.1421 192.801,-45.4309 197.481,-40.2256"/>
</g>
<!-- 410&#45;&gt;410 -->
<g id="edge14" class="edge"><title>410&#45;&gt;410</title>
<path fill="none" stroke="green" stroke-width="0.302502" d="M275.365,-111.241C286.215,-113.819 296.426,-109.952 296.426,-99.6396 296.426,-92.7109 291.817,-88.6917 285.501,-87.582"/>
<polygon fill="green" stroke="green" stroke-width="0.302502" points="285.197,-84.0921 275.365,-88.038 285.512,-91.085 285.197,-84.0921"/>
</g>
<!-- 411&#45;&gt;OA -->
<g id="edge7" class="edge"><title>411&#45;&gt;OA</title>
<path fill="none" stroke="green" stroke-width="0.408238" d="M190.905,-79.354C188.122,-70.8458 184.791,-60.6628 181.716,-51.2652"/>
<polygon fill="green" stroke="green" stroke-width="0.408238" points="184.955,-49.9089 178.52,-41.4926 178.302,-52.0852 184.955,-49.9089"/>
</g>
<!-- 412 -->
<g id="node7" class="node"><title>412</title>
<ellipse fill="white" stroke="black" cx="81.2132" cy="-99.6396" rx="21.4286" ry="21.4286"/>
<text text-anchor="middle" x="81.2132" y="-97.4396" font-family="Times,serif" font-size="9.00">412</text>
</g>
<!-- 412&#45;&gt;OA -->
<g id="edge8" class="edge"><title>412&#45;&gt;OA</title>
<path fill="none" stroke="green" stroke-width="0.394562" d="M97.0642,-85.3271C111.201,-73.4546 132.1,-55.9021 148.273,-42.3194"/>
<polygon fill="green" stroke="green" stroke-width="0.394562" points="150.832,-44.741 156.239,-35.6295 146.33,-39.3807 150.832,-44.741"/>
</g>
<!-- 412&#45;&gt;412 -->
<g id="edge15" class="edge"><title>412&#45;&gt;412</title>
<path fill="none" stroke="green" stroke-width="0.547739" d="M99.3646,-111.241C110.215,-113.819 120.426,-109.952 120.426,-99.6396 120.426,-92.7109 115.817,-88.6917 109.501,-87.582"/>
<polygon fill="green" stroke="green" stroke-width="0.547739" points="109.197,-84.0921 99.3646,-88.038 109.512,-91.085 109.197,-84.0921"/>
</g>
<!-- 413&#45;&gt;OA -->
<g id="edge9" class="edge"><title>413&#45;&gt;OA</title>
<path fill="none" stroke="red" stroke-width="0.118834" d="M38.0513,-86.6166C42.2676,-83.7963 46.838,-80.8962 51.2132,-78.4264 81.842,-61.1365 118.706,-44.5806 143.633,-33.9709"/>
<polygon fill="red" stroke="red" stroke-width="0.118834" points="145.03,-37.1805 152.886,-30.0722 142.312,-30.7296 145.03,-37.1805"/>
</g>
</g>
</svg>
