<?xml version="1.0" encoding="UTF-8" standalone="no"?>
<!DOCTYPE svg PUBLIC "-//W3C//DTD SVG 1.1//EN"
 "http://www.w3.org/Graphics/SVG/1.1/DTD/svg11.dtd">
<!-- Generated by graphviz version 2.38.0 (20140413.2041)
 -->
<!-- Title: %3 Pages: 1 -->
<svg width="299pt" height="183pt"
 viewBox="0.00 0.00 299.43 182.85" xmlns="http://www.w3.org/2000/svg" xmlns:xlink="http://www.w3.org/1999/xlink">
<g id="graph0" class="graph" transform="scale(1 1) rotate(0) translate(4 178.853)">
<title>%3</title>
<polygon fill="white" stroke="none" points="-4,4 -4,-178.853 295.426,-178.853 295.426,4 -4,4"/>
<!-- IA -->
<g id="node1" class="node"><title>IA</title>
<polygon fill="lightgray" stroke="black" points="97.2132,-174.853 71.2132,-174.853 71.2132,-156.853 97.2132,-156.853 97.2132,-174.853"/>
<text text-anchor="middle" x="84.2132" y="-163.653" font-family="Times,serif" font-size="9.00">IA</text>
</g>
<!-- OA -->
<g id="node3" class="node"><title>OA</title>
<ellipse fill="lightblue" stroke="black" cx="21.2132" cy="-21.2132" rx="21.4286" ry="21.4286"/>
<text text-anchor="middle" x="21.2132" y="-19.0132" font-family="Times,serif" font-size="9.00">OA</text>
</g>
<!-- IA&#45;&gt;OA -->
<g id="edge9" class="edge"><title>IA&#45;&gt;OA</title>
<path fill="none" stroke="green" stroke-width="0.103784" d="M71.1411,-159.519C56.7289,-152.852 34.2555,-139.945 24.2132,-120.853 13.1425,-99.8056 13.195,-72.5835 15.5633,-52.0702"/>
<polygon fill="green" stroke="green" stroke-width="0.103784" points="19.0496,-52.4107 16.9662,-42.0228 12.1169,-51.4427 19.0496,-52.4107"/>
</g>
<!-- 384 -->
<g id="node5" class="node"><title>384</title>
<ellipse fill="white" stroke="black" cx="114.213" cy="-99.6396" rx="21.4286" ry="21.4286"/>
<text text-anchor="middle" x="114.213" y="-97.4396" font-family="Times,serif" font-size="9.00">384</text>
</g>
<!-- IA&#45;&gt;384 -->
<g id="edge2" class="edge"><title>IA&#45;&gt;384</title>
<path fill="none" stroke="red" stroke-width="0.245991" d="M88.0127,-156.72C91.3686,-149.537 96.4621,-138.635 101.269,-128.347"/>
<polygon fill="red" stroke="red" stroke-width="0.245991" points="104.482,-129.737 105.544,-119.195 98.1403,-126.774 104.482,-129.737"/>
</g>
<!-- 385 -->
<g id="node6" class="node"><title>385</title>
<ellipse fill="white" stroke="black" cx="192.213" cy="-99.6396" rx="21.4286" ry="21.4286"/>
<text text-anchor="middle" x="192.213" y="-97.4396" font-family="Times,serif" font-size="9.00">385</text>
</g>
<!-- IA&#45;&gt;385 -->
<g id="edge3" class="edge"><title>IA&#45;&gt;385</title>
<path fill="none" stroke="red" stroke-width="0.152628" d="M97.3699,-157.845C113.025,-149.413 139.858,-134.66 162.213,-120.853 163.683,-119.945 165.183,-119 166.689,-118.034"/>
<polygon fill="red" stroke="red" stroke-width="0.152628" points="168.797,-120.837 175.233,-112.421 164.953,-114.987 168.797,-120.837"/>
</g>
<!-- 382 -->
<g id="node7" class="node"><title>382</title>
<ellipse fill="white" stroke="black" cx="54.2132" cy="-99.6396" rx="21.4286" ry="21.4286"/>
<text text-anchor="middle" x="54.2132" y="-97.4396" font-family="Times,serif" font-size="9.00">382</text>
</g>
<!-- IA&#45;&gt;382 -->
<g id="edge1" class="edge"><title>IA&#45;&gt;382</title>
<path fill="none" stroke="green" stroke-width="0.244576" d="M80.4137,-156.72C77.0578,-149.537 71.9643,-138.635 67.1577,-128.347"/>
<polygon fill="green" stroke="green" stroke-width="0.244576" points="70.2861,-126.774 62.8823,-119.195 63.9441,-129.737 70.2861,-126.774"/>
</g>
<!-- IB -->
<g id="node2" class="node"><title>IB</title>
<polygon fill="lightgray" stroke="black" points="283.213,-174.853 257.213,-174.853 257.213,-156.853 283.213,-156.853 283.213,-174.853"/>
<text text-anchor="middle" x="270.213" y="-163.653" font-family="Times,serif" font-size="9.00">IB</text>
</g>
<!-- 383 -->
<g id="node8" class="node"><title>383</title>
<ellipse fill="none" stroke="black" cx="270.213" cy="-99.6396" rx="21.4286" ry="21.4286"/>
<text text-anchor="middle" x="270.213" y="-97.4396" font-family="Times,serif" font-size="9.00">383</text>
</g>
<!-- IB&#45;&gt;383 -->
<g id="edge4" class="edge"><title>IB&#45;&gt;383</title>
<path fill="none" stroke="red" stroke-width="0.152215" d="M270.213,-156.72C270.213,-150.177 270.213,-140.548 270.213,-131.109"/>
<polygon fill="red" stroke="red" stroke-width="0.152215" points="273.713,-131.095 270.213,-121.095 266.713,-131.095 273.713,-131.095"/>
</g>
<!-- OA&#45;&gt;OA -->
<g id="edge10" class="edge"><title>OA&#45;&gt;OA</title>
<path fill="none" stroke="red" stroke-width="0.14066" d="M38.1418,-34.5492C49.4344,-38.3031 60.4264,-33.8577 60.4264,-21.2132 60.4264,-12.5201 55.231,-7.70237 48.3143,-6.76005"/>
<polygon fill="red" stroke="red" stroke-width="0.14066" points="47.7,-3.30638 38.1418,-7.87717 48.4642,-10.2645 47.7,-3.30638"/>
</g>
<!-- OB -->
<g id="node4" class="node"><title>OB</title>
<ellipse fill="lightblue" stroke="black" cx="114.213" cy="-21.2132" rx="20.5122" ry="20.5122"/>
<text text-anchor="middle" x="114.213" y="-19.0132" font-family="Times,serif" font-size="9.00">OB</text>
</g>
<!-- OB&#45;&gt;OB -->
<g id="edge11" class="edge"><title>OB&#45;&gt;OB</title>
<path fill="none" stroke="green" stroke-width="0.192869" d="M130.035,-34.2636C141.399,-38.5126 152.719,-34.1624 152.719,-21.2132 152.719,-12.3106 147.369,-7.47244 140.332,-6.69868"/>
<polygon fill="green" stroke="green" stroke-width="0.192869" points="139.442,-3.28986 130.035,-8.16282 140.428,-10.2202 139.442,-3.28986"/>
</g>
<!-- 384&#45;&gt;OB -->
<g id="edge7" class="edge"><title>384&#45;&gt;OB</title>
<path fill="none" stroke="red" stroke-width="0.1" d="M114.213,-78.1587C114.213,-70.1744 114.213,-60.8629 114.213,-52.1536"/>
<polygon fill="red" stroke="red" stroke-width="0.1" points="117.713,-51.9585 114.213,-41.9586 110.713,-51.9586 117.713,-51.9585"/>
</g>
<!-- 384&#45;&gt;384 -->
<g id="edge12" class="edge"><title>384&#45;&gt;384</title>
<path fill="none" stroke="red" stroke-width="0.139979" d="M132.365,-111.241C143.215,-113.819 153.426,-109.952 153.426,-99.6396 153.426,-92.7109 148.817,-88.6917 142.501,-87.582"/>
<polygon fill="red" stroke="red" stroke-width="0.139979" points="142.197,-84.0921 132.365,-88.038 142.512,-91.085 142.197,-84.0921"/>
</g>
<!-- 385&#45;&gt;OB -->
<g id="edge8" class="edge"><title>385&#45;&gt;OB</title>
<path fill="none" stroke="red" stroke-width="0.24766" d="M177.542,-84.2644C165.811,-72.77 149.19,-56.4845 135.919,-43.4814"/>
<polygon fill="red" stroke="red" stroke-width="0.24766" points="138.147,-40.7645 128.555,-36.2658 133.248,-45.7644 138.147,-40.7645"/>
</g>
<!-- 385&#45;&gt;385 -->
<g id="edge13" class="edge"><title>385&#45;&gt;385</title>
<path fill="none" stroke="green" stroke-width="0.20373" d="M210.365,-111.241C221.215,-113.819 231.426,-109.952 231.426,-99.6396 231.426,-92.7109 226.817,-88.6917 220.501,-87.582"/>
<polygon fill="green" stroke="green" stroke-width="0.20373" points="220.197,-84.0921 210.365,-88.038 220.512,-91.085 220.197,-84.0921"/>
</g>
<!-- 382&#45;&gt;OA -->
<g id="edge5" class="edge"><title>382&#45;&gt;OA</title>
<path fill="none" stroke="red" stroke-width="0.228854" d="M46.0559,-79.7477C42.2195,-70.8628 37.5666,-60.0869 33.3295,-50.274"/>
<polygon fill="red" stroke="red" stroke-width="0.228854" points="36.4541,-48.6811 29.2767,-40.8878 30.0276,-51.456 36.4541,-48.6811"/>
</g>
<!-- 382&#45;&gt;OB -->
<g id="edge6" class="edge"><title>382&#45;&gt;OB</title>
<path fill="none" stroke="red" stroke-width="0.1" d="M66.9377,-82.4315C75.2419,-71.8538 86.2251,-57.8638 95.5148,-46.0307"/>
<polygon fill="red" stroke="red" stroke-width="0.1" points="98.4953,-47.9022 101.917,-37.8752 92.9894,-43.5796 98.4953,-47.9022"/>
</g>
</g>
</svg>
