<?xml version="1.0" encoding="utf-8" standalone="no"?>
<!DOCTYPE svg PUBLIC "-//W3C//DTD SVG 1.1//EN"
  "http://www.w3.org/Graphics/SVG/1.1/DTD/svg11.dtd">
<!-- Created with matplotlib (https://matplotlib.org/) -->
<svg height="345.6pt" version="1.1" viewBox="0 0 460.8 345.6" width="460.8pt" xmlns="http://www.w3.org/2000/svg" xmlns:xlink="http://www.w3.org/1999/xlink">
 <defs>
  <style type="text/css">
*{stroke-linecap:butt;stroke-linejoin:round;}
  </style>
 </defs>
 <g id="figure_1">
  <g id="patch_1">
   <path d="M 0 345.6 
L 460.8 345.6 
L 460.8 0 
L 0 0 
z
" style="fill:#ffffff;"/>
  </g>
  <g id="axes_1">
   <g id="patch_2">
    <path d="M 57.6 307.584 
L 414.72 307.584 
L 414.72 41.472 
L 57.6 41.472 
z
" style="fill:#ffffff;"/>
   </g>
   <g id="matplotlib.axis_1">
    <g id="xtick_1">
     <g id="line2d_1">
      <path clip-path="url(#p5a9539d964)" d="M 73.832727 307.584 
L 73.832727 41.472 
" style="fill:none;stroke:#b0b0b0;stroke-linecap:square;stroke-width:0.8;"/>
     </g>
     <g id="line2d_2">
      <defs>
       <path d="M 0 0 
L 0 3.5 
" id="m67d415d5f2" style="stroke:#000000;stroke-width:0.8;"/>
      </defs>
      <g>
       <use style="stroke:#000000;stroke-width:0.8;" x="73.832727" xlink:href="#m67d415d5f2" y="307.584"/>
      </g>
     </g>
     <g id="text_1">
      <!-- 0 -->
      <defs>
       <path d="M 31.78125 66.40625 
Q 24.171875 66.40625 20.328125 58.90625 
Q 16.5 51.421875 16.5 36.375 
Q 16.5 21.390625 20.328125 13.890625 
Q 24.171875 6.390625 31.78125 6.390625 
Q 39.453125 6.390625 43.28125 13.890625 
Q 47.125 21.390625 47.125 36.375 
Q 47.125 51.421875 43.28125 58.90625 
Q 39.453125 66.40625 31.78125 66.40625 
z
M 31.78125 74.21875 
Q 44.046875 74.21875 50.515625 64.515625 
Q 56.984375 54.828125 56.984375 36.375 
Q 56.984375 17.96875 50.515625 8.265625 
Q 44.046875 -1.421875 31.78125 -1.421875 
Q 19.53125 -1.421875 13.0625 8.265625 
Q 6.59375 17.96875 6.59375 36.375 
Q 6.59375 54.828125 13.0625 64.515625 
Q 19.53125 74.21875 31.78125 74.21875 
z
" id="DejaVuSans-48"/>
      </defs>
      <g transform="translate(70.651477 322.182437)scale(0.1 -0.1)">
       <use xlink:href="#DejaVuSans-48"/>
      </g>
     </g>
    </g>
    <g id="xtick_2">
     <g id="line2d_3">
      <path clip-path="url(#p5a9539d964)" d="M 138.893758 307.584 
L 138.893758 41.472 
" style="fill:none;stroke:#b0b0b0;stroke-linecap:square;stroke-width:0.8;"/>
     </g>
     <g id="line2d_4">
      <g>
       <use style="stroke:#000000;stroke-width:0.8;" x="138.893758" xlink:href="#m67d415d5f2" y="307.584"/>
      </g>
     </g>
     <g id="text_2">
      <!-- 100 -->
      <defs>
       <path d="M 12.40625 8.296875 
L 28.515625 8.296875 
L 28.515625 63.921875 
L 10.984375 60.40625 
L 10.984375 69.390625 
L 28.421875 72.90625 
L 38.28125 72.90625 
L 38.28125 8.296875 
L 54.390625 8.296875 
L 54.390625 0 
L 12.40625 0 
z
" id="DejaVuSans-49"/>
      </defs>
      <g transform="translate(129.350008 322.182437)scale(0.1 -0.1)">
       <use xlink:href="#DejaVuSans-49"/>
       <use x="63.623047" xlink:href="#DejaVuSans-48"/>
       <use x="127.246094" xlink:href="#DejaVuSans-48"/>
      </g>
     </g>
    </g>
    <g id="xtick_3">
     <g id="line2d_5">
      <path clip-path="url(#p5a9539d964)" d="M 203.95479 307.584 
L 203.95479 41.472 
" style="fill:none;stroke:#b0b0b0;stroke-linecap:square;stroke-width:0.8;"/>
     </g>
     <g id="line2d_6">
      <g>
       <use style="stroke:#000000;stroke-width:0.8;" x="203.95479" xlink:href="#m67d415d5f2" y="307.584"/>
      </g>
     </g>
     <g id="text_3">
      <!-- 200 -->
      <defs>
       <path d="M 19.1875 8.296875 
L 53.609375 8.296875 
L 53.609375 0 
L 7.328125 0 
L 7.328125 8.296875 
Q 12.9375 14.109375 22.625 23.890625 
Q 32.328125 33.6875 34.8125 36.53125 
Q 39.546875 41.84375 41.421875 45.53125 
Q 43.3125 49.21875 43.3125 52.78125 
Q 43.3125 58.59375 39.234375 62.25 
Q 35.15625 65.921875 28.609375 65.921875 
Q 23.96875 65.921875 18.8125 64.3125 
Q 13.671875 62.703125 7.8125 59.421875 
L 7.8125 69.390625 
Q 13.765625 71.78125 18.9375 73 
Q 24.125 74.21875 28.421875 74.21875 
Q 39.75 74.21875 46.484375 68.546875 
Q 53.21875 62.890625 53.21875 53.421875 
Q 53.21875 48.921875 51.53125 44.890625 
Q 49.859375 40.875 45.40625 35.40625 
Q 44.1875 33.984375 37.640625 27.21875 
Q 31.109375 20.453125 19.1875 8.296875 
z
" id="DejaVuSans-50"/>
      </defs>
      <g transform="translate(194.41104 322.182437)scale(0.1 -0.1)">
       <use xlink:href="#DejaVuSans-50"/>
       <use x="63.623047" xlink:href="#DejaVuSans-48"/>
       <use x="127.246094" xlink:href="#DejaVuSans-48"/>
      </g>
     </g>
    </g>
    <g id="xtick_4">
     <g id="line2d_7">
      <path clip-path="url(#p5a9539d964)" d="M 269.015821 307.584 
L 269.015821 41.472 
" style="fill:none;stroke:#b0b0b0;stroke-linecap:square;stroke-width:0.8;"/>
     </g>
     <g id="line2d_8">
      <g>
       <use style="stroke:#000000;stroke-width:0.8;" x="269.015821" xlink:href="#m67d415d5f2" y="307.584"/>
      </g>
     </g>
     <g id="text_4">
      <!-- 300 -->
      <defs>
       <path d="M 40.578125 39.3125 
Q 47.65625 37.796875 51.625 33 
Q 55.609375 28.21875 55.609375 21.1875 
Q 55.609375 10.40625 48.1875 4.484375 
Q 40.765625 -1.421875 27.09375 -1.421875 
Q 22.515625 -1.421875 17.65625 -0.515625 
Q 12.796875 0.390625 7.625 2.203125 
L 7.625 11.71875 
Q 11.71875 9.328125 16.59375 8.109375 
Q 21.484375 6.890625 26.8125 6.890625 
Q 36.078125 6.890625 40.9375 10.546875 
Q 45.796875 14.203125 45.796875 21.1875 
Q 45.796875 27.640625 41.28125 31.265625 
Q 36.765625 34.90625 28.71875 34.90625 
L 20.21875 34.90625 
L 20.21875 43.015625 
L 29.109375 43.015625 
Q 36.375 43.015625 40.234375 45.921875 
Q 44.09375 48.828125 44.09375 54.296875 
Q 44.09375 59.90625 40.109375 62.90625 
Q 36.140625 65.921875 28.71875 65.921875 
Q 24.65625 65.921875 20.015625 65.03125 
Q 15.375 64.15625 9.8125 62.3125 
L 9.8125 71.09375 
Q 15.4375 72.65625 20.34375 73.4375 
Q 25.25 74.21875 29.59375 74.21875 
Q 40.828125 74.21875 47.359375 69.109375 
Q 53.90625 64.015625 53.90625 55.328125 
Q 53.90625 49.265625 50.4375 45.09375 
Q 46.96875 40.921875 40.578125 39.3125 
z
" id="DejaVuSans-51"/>
      </defs>
      <g transform="translate(259.472071 322.182437)scale(0.1 -0.1)">
       <use xlink:href="#DejaVuSans-51"/>
       <use x="63.623047" xlink:href="#DejaVuSans-48"/>
       <use x="127.246094" xlink:href="#DejaVuSans-48"/>
      </g>
     </g>
    </g>
    <g id="xtick_5">
     <g id="line2d_9">
      <path clip-path="url(#p5a9539d964)" d="M 334.076852 307.584 
L 334.076852 41.472 
" style="fill:none;stroke:#b0b0b0;stroke-linecap:square;stroke-width:0.8;"/>
     </g>
     <g id="line2d_10">
      <g>
       <use style="stroke:#000000;stroke-width:0.8;" x="334.076852" xlink:href="#m67d415d5f2" y="307.584"/>
      </g>
     </g>
     <g id="text_5">
      <!-- 400 -->
      <defs>
       <path d="M 37.796875 64.3125 
L 12.890625 25.390625 
L 37.796875 25.390625 
z
M 35.203125 72.90625 
L 47.609375 72.90625 
L 47.609375 25.390625 
L 58.015625 25.390625 
L 58.015625 17.1875 
L 47.609375 17.1875 
L 47.609375 0 
L 37.796875 0 
L 37.796875 17.1875 
L 4.890625 17.1875 
L 4.890625 26.703125 
z
" id="DejaVuSans-52"/>
      </defs>
      <g transform="translate(324.533102 322.182437)scale(0.1 -0.1)">
       <use xlink:href="#DejaVuSans-52"/>
       <use x="63.623047" xlink:href="#DejaVuSans-48"/>
       <use x="127.246094" xlink:href="#DejaVuSans-48"/>
      </g>
     </g>
    </g>
    <g id="xtick_6">
     <g id="line2d_11">
      <path clip-path="url(#p5a9539d964)" d="M 399.137883 307.584 
L 399.137883 41.472 
" style="fill:none;stroke:#b0b0b0;stroke-linecap:square;stroke-width:0.8;"/>
     </g>
     <g id="line2d_12">
      <g>
       <use style="stroke:#000000;stroke-width:0.8;" x="399.137883" xlink:href="#m67d415d5f2" y="307.584"/>
      </g>
     </g>
     <g id="text_6">
      <!-- 500 -->
      <defs>
       <path d="M 10.796875 72.90625 
L 49.515625 72.90625 
L 49.515625 64.59375 
L 19.828125 64.59375 
L 19.828125 46.734375 
Q 21.96875 47.46875 24.109375 47.828125 
Q 26.265625 48.1875 28.421875 48.1875 
Q 40.625 48.1875 47.75 41.5 
Q 54.890625 34.8125 54.890625 23.390625 
Q 54.890625 11.625 47.5625 5.09375 
Q 40.234375 -1.421875 26.90625 -1.421875 
Q 22.3125 -1.421875 17.546875 -0.640625 
Q 12.796875 0.140625 7.71875 1.703125 
L 7.71875 11.625 
Q 12.109375 9.234375 16.796875 8.0625 
Q 21.484375 6.890625 26.703125 6.890625 
Q 35.15625 6.890625 40.078125 11.328125 
Q 45.015625 15.765625 45.015625 23.390625 
Q 45.015625 31 40.078125 35.4375 
Q 35.15625 39.890625 26.703125 39.890625 
Q 22.75 39.890625 18.8125 39.015625 
Q 14.890625 38.140625 10.796875 36.28125 
z
" id="DejaVuSans-53"/>
      </defs>
      <g transform="translate(389.594133 322.182437)scale(0.1 -0.1)">
       <use xlink:href="#DejaVuSans-53"/>
       <use x="63.623047" xlink:href="#DejaVuSans-48"/>
       <use x="127.246094" xlink:href="#DejaVuSans-48"/>
      </g>
     </g>
    </g>
    <g id="text_7">
     <!-- Generations -->
     <defs>
      <path d="M 59.515625 10.40625 
L 59.515625 29.984375 
L 43.40625 29.984375 
L 43.40625 38.09375 
L 69.28125 38.09375 
L 69.28125 6.78125 
Q 63.578125 2.734375 56.6875 0.65625 
Q 49.8125 -1.421875 42 -1.421875 
Q 24.90625 -1.421875 15.25 8.5625 
Q 5.609375 18.5625 5.609375 36.375 
Q 5.609375 54.25 15.25 64.234375 
Q 24.90625 74.21875 42 74.21875 
Q 49.125 74.21875 55.546875 72.453125 
Q 61.96875 70.703125 67.390625 67.28125 
L 67.390625 56.78125 
Q 61.921875 61.421875 55.765625 63.765625 
Q 49.609375 66.109375 42.828125 66.109375 
Q 29.4375 66.109375 22.71875 58.640625 
Q 16.015625 51.171875 16.015625 36.375 
Q 16.015625 21.625 22.71875 14.15625 
Q 29.4375 6.6875 42.828125 6.6875 
Q 48.046875 6.6875 52.140625 7.59375 
Q 56.25 8.5 59.515625 10.40625 
z
" id="DejaVuSans-71"/>
      <path d="M 56.203125 29.59375 
L 56.203125 25.203125 
L 14.890625 25.203125 
Q 15.484375 15.921875 20.484375 11.0625 
Q 25.484375 6.203125 34.421875 6.203125 
Q 39.59375 6.203125 44.453125 7.46875 
Q 49.3125 8.734375 54.109375 11.28125 
L 54.109375 2.78125 
Q 49.265625 0.734375 44.1875 -0.34375 
Q 39.109375 -1.421875 33.890625 -1.421875 
Q 20.796875 -1.421875 13.15625 6.1875 
Q 5.515625 13.8125 5.515625 26.8125 
Q 5.515625 40.234375 12.765625 48.109375 
Q 20.015625 56 32.328125 56 
Q 43.359375 56 49.78125 48.890625 
Q 56.203125 41.796875 56.203125 29.59375 
z
M 47.21875 32.234375 
Q 47.125 39.59375 43.09375 43.984375 
Q 39.0625 48.390625 32.421875 48.390625 
Q 24.90625 48.390625 20.390625 44.140625 
Q 15.875 39.890625 15.1875 32.171875 
z
" id="DejaVuSans-101"/>
      <path d="M 54.890625 33.015625 
L 54.890625 0 
L 45.90625 0 
L 45.90625 32.71875 
Q 45.90625 40.484375 42.875 44.328125 
Q 39.84375 48.1875 33.796875 48.1875 
Q 26.515625 48.1875 22.3125 43.546875 
Q 18.109375 38.921875 18.109375 30.90625 
L 18.109375 0 
L 9.078125 0 
L 9.078125 54.6875 
L 18.109375 54.6875 
L 18.109375 46.1875 
Q 21.34375 51.125 25.703125 53.5625 
Q 30.078125 56 35.796875 56 
Q 45.21875 56 50.046875 50.171875 
Q 54.890625 44.34375 54.890625 33.015625 
z
" id="DejaVuSans-110"/>
      <path d="M 41.109375 46.296875 
Q 39.59375 47.171875 37.8125 47.578125 
Q 36.03125 48 33.890625 48 
Q 26.265625 48 22.1875 43.046875 
Q 18.109375 38.09375 18.109375 28.8125 
L 18.109375 0 
L 9.078125 0 
L 9.078125 54.6875 
L 18.109375 54.6875 
L 18.109375 46.1875 
Q 20.953125 51.171875 25.484375 53.578125 
Q 30.03125 56 36.53125 56 
Q 37.453125 56 38.578125 55.875 
Q 39.703125 55.765625 41.0625 55.515625 
z
" id="DejaVuSans-114"/>
      <path d="M 34.28125 27.484375 
Q 23.390625 27.484375 19.1875 25 
Q 14.984375 22.515625 14.984375 16.5 
Q 14.984375 11.71875 18.140625 8.90625 
Q 21.296875 6.109375 26.703125 6.109375 
Q 34.1875 6.109375 38.703125 11.40625 
Q 43.21875 16.703125 43.21875 25.484375 
L 43.21875 27.484375 
z
M 52.203125 31.203125 
L 52.203125 0 
L 43.21875 0 
L 43.21875 8.296875 
Q 40.140625 3.328125 35.546875 0.953125 
Q 30.953125 -1.421875 24.3125 -1.421875 
Q 15.921875 -1.421875 10.953125 3.296875 
Q 6 8.015625 6 15.921875 
Q 6 25.140625 12.171875 29.828125 
Q 18.359375 34.515625 30.609375 34.515625 
L 43.21875 34.515625 
L 43.21875 35.40625 
Q 43.21875 41.609375 39.140625 45 
Q 35.0625 48.390625 27.6875 48.390625 
Q 23 48.390625 18.546875 47.265625 
Q 14.109375 46.140625 10.015625 43.890625 
L 10.015625 52.203125 
Q 14.9375 54.109375 19.578125 55.046875 
Q 24.21875 56 28.609375 56 
Q 40.484375 56 46.34375 49.84375 
Q 52.203125 43.703125 52.203125 31.203125 
z
" id="DejaVuSans-97"/>
      <path d="M 18.3125 70.21875 
L 18.3125 54.6875 
L 36.8125 54.6875 
L 36.8125 47.703125 
L 18.3125 47.703125 
L 18.3125 18.015625 
Q 18.3125 11.328125 20.140625 9.421875 
Q 21.96875 7.515625 27.59375 7.515625 
L 36.8125 7.515625 
L 36.8125 0 
L 27.59375 0 
Q 17.1875 0 13.234375 3.875 
Q 9.28125 7.765625 9.28125 18.015625 
L 9.28125 47.703125 
L 2.6875 47.703125 
L 2.6875 54.6875 
L 9.28125 54.6875 
L 9.28125 70.21875 
z
" id="DejaVuSans-116"/>
      <path d="M 9.421875 54.6875 
L 18.40625 54.6875 
L 18.40625 0 
L 9.421875 0 
z
M 9.421875 75.984375 
L 18.40625 75.984375 
L 18.40625 64.59375 
L 9.421875 64.59375 
z
" id="DejaVuSans-105"/>
      <path d="M 30.609375 48.390625 
Q 23.390625 48.390625 19.1875 42.75 
Q 14.984375 37.109375 14.984375 27.296875 
Q 14.984375 17.484375 19.15625 11.84375 
Q 23.34375 6.203125 30.609375 6.203125 
Q 37.796875 6.203125 41.984375 11.859375 
Q 46.1875 17.53125 46.1875 27.296875 
Q 46.1875 37.015625 41.984375 42.703125 
Q 37.796875 48.390625 30.609375 48.390625 
z
M 30.609375 56 
Q 42.328125 56 49.015625 48.375 
Q 55.71875 40.765625 55.71875 27.296875 
Q 55.71875 13.875 49.015625 6.21875 
Q 42.328125 -1.421875 30.609375 -1.421875 
Q 18.84375 -1.421875 12.171875 6.21875 
Q 5.515625 13.875 5.515625 27.296875 
Q 5.515625 40.765625 12.171875 48.375 
Q 18.84375 56 30.609375 56 
z
" id="DejaVuSans-111"/>
      <path d="M 44.28125 53.078125 
L 44.28125 44.578125 
Q 40.484375 46.53125 36.375 47.5 
Q 32.28125 48.484375 27.875 48.484375 
Q 21.1875 48.484375 17.84375 46.4375 
Q 14.5 44.390625 14.5 40.28125 
Q 14.5 37.15625 16.890625 35.375 
Q 19.28125 33.59375 26.515625 31.984375 
L 29.59375 31.296875 
Q 39.15625 29.25 43.1875 25.515625 
Q 47.21875 21.78125 47.21875 15.09375 
Q 47.21875 7.46875 41.1875 3.015625 
Q 35.15625 -1.421875 24.609375 -1.421875 
Q 20.21875 -1.421875 15.453125 -0.5625 
Q 10.6875 0.296875 5.421875 2 
L 5.421875 11.28125 
Q 10.40625 8.6875 15.234375 7.390625 
Q 20.0625 6.109375 24.8125 6.109375 
Q 31.15625 6.109375 34.5625 8.28125 
Q 37.984375 10.453125 37.984375 14.40625 
Q 37.984375 18.0625 35.515625 20.015625 
Q 33.0625 21.96875 24.703125 23.78125 
L 21.578125 24.515625 
Q 13.234375 26.265625 9.515625 29.90625 
Q 5.8125 33.546875 5.8125 39.890625 
Q 5.8125 47.609375 11.28125 51.796875 
Q 16.75 56 26.8125 56 
Q 31.78125 56 36.171875 55.265625 
Q 40.578125 54.546875 44.28125 53.078125 
z
" id="DejaVuSans-115"/>
     </defs>
     <g transform="translate(205.662344 335.860562)scale(0.1 -0.1)">
      <use xlink:href="#DejaVuSans-71"/>
      <use x="77.490234" xlink:href="#DejaVuSans-101"/>
      <use x="139.013672" xlink:href="#DejaVuSans-110"/>
      <use x="202.392578" xlink:href="#DejaVuSans-101"/>
      <use x="263.916016" xlink:href="#DejaVuSans-114"/>
      <use x="305.029297" xlink:href="#DejaVuSans-97"/>
      <use x="366.308594" xlink:href="#DejaVuSans-116"/>
      <use x="405.517578" xlink:href="#DejaVuSans-105"/>
      <use x="433.300781" xlink:href="#DejaVuSans-111"/>
      <use x="494.482422" xlink:href="#DejaVuSans-110"/>
      <use x="557.861328" xlink:href="#DejaVuSans-115"/>
     </g>
    </g>
   </g>
   <g id="matplotlib.axis_2">
    <g id="ytick_1">
     <g id="line2d_13">
      <path clip-path="url(#p5a9539d964)" d="M 57.6 295.737292 
L 414.72 295.737292 
" style="fill:none;stroke:#b0b0b0;stroke-linecap:square;stroke-width:0.8;"/>
     </g>
     <g id="line2d_14">
      <defs>
       <path d="M 0 0 
L -3.5 0 
" id="m2b5212bc95" style="stroke:#000000;stroke-width:0.8;"/>
      </defs>
      <g>
       <use style="stroke:#000000;stroke-width:0.8;" x="57.6" xlink:href="#m2b5212bc95" y="295.737292"/>
      </g>
     </g>
     <g id="text_8">
      <!-- 15.0 -->
      <defs>
       <path d="M 10.6875 12.40625 
L 21 12.40625 
L 21 0 
L 10.6875 0 
z
" id="DejaVuSans-46"/>
      </defs>
      <g transform="translate(28.334375 299.536511)scale(0.1 -0.1)">
       <use xlink:href="#DejaVuSans-49"/>
       <use x="63.623047" xlink:href="#DejaVuSans-53"/>
       <use x="127.246094" xlink:href="#DejaVuSans-46"/>
       <use x="159.033203" xlink:href="#DejaVuSans-48"/>
      </g>
     </g>
    </g>
    <g id="ytick_2">
     <g id="line2d_15">
      <path clip-path="url(#p5a9539d964)" d="M 57.6 260.124161 
L 414.72 260.124161 
" style="fill:none;stroke:#b0b0b0;stroke-linecap:square;stroke-width:0.8;"/>
     </g>
     <g id="line2d_16">
      <g>
       <use style="stroke:#000000;stroke-width:0.8;" x="57.6" xlink:href="#m2b5212bc95" y="260.124161"/>
      </g>
     </g>
     <g id="text_9">
      <!-- 17.5 -->
      <defs>
       <path d="M 8.203125 72.90625 
L 55.078125 72.90625 
L 55.078125 68.703125 
L 28.609375 0 
L 18.3125 0 
L 43.21875 64.59375 
L 8.203125 64.59375 
z
" id="DejaVuSans-55"/>
      </defs>
      <g transform="translate(28.334375 263.92338)scale(0.1 -0.1)">
       <use xlink:href="#DejaVuSans-49"/>
       <use x="63.623047" xlink:href="#DejaVuSans-55"/>
       <use x="127.246094" xlink:href="#DejaVuSans-46"/>
       <use x="159.033203" xlink:href="#DejaVuSans-53"/>
      </g>
     </g>
    </g>
    <g id="ytick_3">
     <g id="line2d_17">
      <path clip-path="url(#p5a9539d964)" d="M 57.6 224.51103 
L 414.72 224.51103 
" style="fill:none;stroke:#b0b0b0;stroke-linecap:square;stroke-width:0.8;"/>
     </g>
     <g id="line2d_18">
      <g>
       <use style="stroke:#000000;stroke-width:0.8;" x="57.6" xlink:href="#m2b5212bc95" y="224.51103"/>
      </g>
     </g>
     <g id="text_10">
      <!-- 20.0 -->
      <g transform="translate(28.334375 228.310248)scale(0.1 -0.1)">
       <use xlink:href="#DejaVuSans-50"/>
       <use x="63.623047" xlink:href="#DejaVuSans-48"/>
       <use x="127.246094" xlink:href="#DejaVuSans-46"/>
       <use x="159.033203" xlink:href="#DejaVuSans-48"/>
      </g>
     </g>
    </g>
    <g id="ytick_4">
     <g id="line2d_19">
      <path clip-path="url(#p5a9539d964)" d="M 57.6 188.897898 
L 414.72 188.897898 
" style="fill:none;stroke:#b0b0b0;stroke-linecap:square;stroke-width:0.8;"/>
     </g>
     <g id="line2d_20">
      <g>
       <use style="stroke:#000000;stroke-width:0.8;" x="57.6" xlink:href="#m2b5212bc95" y="188.897898"/>
      </g>
     </g>
     <g id="text_11">
      <!-- 22.5 -->
      <g transform="translate(28.334375 192.697117)scale(0.1 -0.1)">
       <use xlink:href="#DejaVuSans-50"/>
       <use x="63.623047" xlink:href="#DejaVuSans-50"/>
       <use x="127.246094" xlink:href="#DejaVuSans-46"/>
       <use x="159.033203" xlink:href="#DejaVuSans-53"/>
      </g>
     </g>
    </g>
    <g id="ytick_5">
     <g id="line2d_21">
      <path clip-path="url(#p5a9539d964)" d="M 57.6 153.284767 
L 414.72 153.284767 
" style="fill:none;stroke:#b0b0b0;stroke-linecap:square;stroke-width:0.8;"/>
     </g>
     <g id="line2d_22">
      <g>
       <use style="stroke:#000000;stroke-width:0.8;" x="57.6" xlink:href="#m2b5212bc95" y="153.284767"/>
      </g>
     </g>
     <g id="text_12">
      <!-- 25.0 -->
      <g transform="translate(28.334375 157.083986)scale(0.1 -0.1)">
       <use xlink:href="#DejaVuSans-50"/>
       <use x="63.623047" xlink:href="#DejaVuSans-53"/>
       <use x="127.246094" xlink:href="#DejaVuSans-46"/>
       <use x="159.033203" xlink:href="#DejaVuSans-48"/>
      </g>
     </g>
    </g>
    <g id="ytick_6">
     <g id="line2d_23">
      <path clip-path="url(#p5a9539d964)" d="M 57.6 117.671636 
L 414.72 117.671636 
" style="fill:none;stroke:#b0b0b0;stroke-linecap:square;stroke-width:0.8;"/>
     </g>
     <g id="line2d_24">
      <g>
       <use style="stroke:#000000;stroke-width:0.8;" x="57.6" xlink:href="#m2b5212bc95" y="117.671636"/>
      </g>
     </g>
     <g id="text_13">
      <!-- 27.5 -->
      <g transform="translate(28.334375 121.470855)scale(0.1 -0.1)">
       <use xlink:href="#DejaVuSans-50"/>
       <use x="63.623047" xlink:href="#DejaVuSans-55"/>
       <use x="127.246094" xlink:href="#DejaVuSans-46"/>
       <use x="159.033203" xlink:href="#DejaVuSans-53"/>
      </g>
     </g>
    </g>
    <g id="ytick_7">
     <g id="line2d_25">
      <path clip-path="url(#p5a9539d964)" d="M 57.6 82.058505 
L 414.72 82.058505 
" style="fill:none;stroke:#b0b0b0;stroke-linecap:square;stroke-width:0.8;"/>
     </g>
     <g id="line2d_26">
      <g>
       <use style="stroke:#000000;stroke-width:0.8;" x="57.6" xlink:href="#m2b5212bc95" y="82.058505"/>
      </g>
     </g>
     <g id="text_14">
      <!-- 30.0 -->
      <g transform="translate(28.334375 85.857724)scale(0.1 -0.1)">
       <use xlink:href="#DejaVuSans-51"/>
       <use x="63.623047" xlink:href="#DejaVuSans-48"/>
       <use x="127.246094" xlink:href="#DejaVuSans-46"/>
       <use x="159.033203" xlink:href="#DejaVuSans-48"/>
      </g>
     </g>
    </g>
    <g id="ytick_8">
     <g id="line2d_27">
      <path clip-path="url(#p5a9539d964)" d="M 57.6 46.445374 
L 414.72 46.445374 
" style="fill:none;stroke:#b0b0b0;stroke-linecap:square;stroke-width:0.8;"/>
     </g>
     <g id="line2d_28">
      <g>
       <use style="stroke:#000000;stroke-width:0.8;" x="57.6" xlink:href="#m2b5212bc95" y="46.445374"/>
      </g>
     </g>
     <g id="text_15">
      <!-- 32.5 -->
      <g transform="translate(28.334375 50.244593)scale(0.1 -0.1)">
       <use xlink:href="#DejaVuSans-51"/>
       <use x="63.623047" xlink:href="#DejaVuSans-50"/>
       <use x="127.246094" xlink:href="#DejaVuSans-46"/>
       <use x="159.033203" xlink:href="#DejaVuSans-53"/>
      </g>
     </g>
    </g>
    <g id="text_16">
     <!-- Fitness -->
     <defs>
      <path d="M 9.8125 72.90625 
L 51.703125 72.90625 
L 51.703125 64.59375 
L 19.671875 64.59375 
L 19.671875 43.109375 
L 48.578125 43.109375 
L 48.578125 34.8125 
L 19.671875 34.8125 
L 19.671875 0 
L 9.8125 0 
z
" id="DejaVuSans-70"/>
     </defs>
     <g transform="translate(22.254687 192.202219)rotate(-90)scale(0.1 -0.1)">
      <use xlink:href="#DejaVuSans-70"/>
      <use x="57.410156" xlink:href="#DejaVuSans-105"/>
      <use x="85.193359" xlink:href="#DejaVuSans-116"/>
      <use x="124.402344" xlink:href="#DejaVuSans-110"/>
      <use x="187.78125" xlink:href="#DejaVuSans-101"/>
      <use x="249.304688" xlink:href="#DejaVuSans-115"/>
      <use x="301.404297" xlink:href="#DejaVuSans-115"/>
     </g>
    </g>
   </g>
   <g id="line2d_29">
    <path clip-path="url(#p5a9539d964)" d="M 73.832727 278.714215 
L 74.483338 284.625995 
L 75.133948 288.064039 
L 75.784558 288.543439 
L 76.435169 290.690607 
L 77.085779 290.77466 
L 77.736389 285.097538 
L 78.386999 287.905947 
L 79.03761 287.983103 
L 79.68822 283.907693 
L 80.33883 285.080264 
L 80.989441 290.187653 
L 81.640051 288.80812 
L 82.290661 289.362541 
L 82.941272 287.536551 
L 83.591882 289.480692 
L 84.242492 288.918136 
L 84.893103 289.896738 
L 85.543713 291.495529 
L 86.194323 292.579477 
L 86.844934 289.68306 
L 88.146154 287.555403 
L 88.796764 282.810366 
L 89.447375 286.789269 
L 90.097985 285.669219 
L 90.748595 290.031923 
L 91.399206 285.77979 
L 92.049816 288.158537 
L 92.700426 287.491887 
L 93.351037 290.807637 
L 94.001647 287.098463 
L 94.652257 291.842654 
L 95.302868 289.69278 
L 95.953478 289.673192 
L 96.604088 282.838606 
L 97.254698 287.724337 
L 97.905309 291.11913 
L 99.206529 285.500754 
L 99.85714 290.22531 
L 100.50775 286.463774 
L 101.15836 288.383758 
L 101.808971 286.982023 
L 102.459581 289.197908 
L 103.110191 290.918003 
L 103.760802 286.063277 
L 104.411412 285.715506 
L 105.062022 286.73656 
L 105.712633 293.398519 
L 106.363243 287.86679 
L 107.013853 288.080469 
L 107.664463 287.831177 
L 108.315074 289.55606 
L 109.616294 290.703255 
L 110.266905 287.617498 
L 110.917515 290.181643 
L 111.568125 287.29698 
L 112.218736 287.475045 
L 112.869346 291.641782 
L 113.519956 290.039191 
L 114.170567 291.000745 
L 114.821177 291.178811 
L 115.471787 289.932352 
L 116.122398 285.160192 
L 116.773008 289.00641 
L 117.423618 288.863958 
L 118.074228 284.732834 
L 118.724839 289.291315 
L 119.375449 284.875287 
L 120.026059 289.220089 
L 120.67667 290.324096 
L 121.32728 284.875287 
L 121.97789 283.272696 
L 122.628501 285.836841 
L 123.279111 287.795564 
L 123.929721 288.258534 
L 124.580332 284.020572 
L 125.230942 290.502162 
L 125.881552 285.48071 
L 126.532163 288.899571 
L 127.182773 289.11325 
L 127.833383 291.178811 
L 128.483993 291.784234 
L 129.134604 291.926687 
L 129.785214 290.644614 
L 130.435824 287.403819 
L 131.086435 287.439432 
L 131.737045 289.00641 
L 132.387655 288.116082 
L 133.038266 287.546272 
L 133.688876 285.124579 
L 134.339486 291.107585 
L 134.990097 289.825512 
L 135.640707 291.570556 
L 136.291317 286.513491 
L 137.592538 292.247205 
L 138.243148 286.15736 
L 138.893758 285.801228 
L 139.544369 287.475045 
L 140.194979 287.403819 
L 140.845589 289.398155 
L 141.4962 287.546272 
L 142.14681 282.880952 
L 143.448031 289.077636 
L 144.098641 284.305477 
L 144.749251 286.691557 
L 145.399862 284.483542 
L 146.050472 287.581885 
L 146.701082 280.957842 
L 147.351692 284.305477 
L 148.002303 290.466549 
L 149.303523 287.510659 
L 149.954134 288.329761 
L 150.604744 290.609001 
L 151.255354 287.19014 
L 151.905965 290.751454 
L 152.556575 286.264199 
L 153.207185 289.68306 
L 153.857796 285.195805 
L 154.508406 285.765615 
L 155.159016 287.688724 
L 155.809627 289.184476 
L 157.110847 287.688724 
L 157.761457 287.439432 
L 158.412068 286.940849 
L 159.062678 289.291315 
L 159.713288 286.371038 
L 160.363899 286.05052 
L 161.014509 289.077636 
L 161.665119 286.442265 
L 162.31573 287.759951 
L 162.96634 289.362541 
L 164.267561 290.965132 
L 164.918171 287.902403 
L 165.568781 292.033526 
L 166.219392 290.537775 
L 166.870002 289.861125 
L 167.520612 288.899571 
L 168.821833 291.997913 
L 169.472443 288.650279 
L 170.123053 287.795564 
L 170.773664 290.71584 
L 171.424274 288.650279 
L 172.074884 292.567723 
L 172.725495 289.754286 
L 173.376105 288.650279 
L 174.026715 289.754286 
L 174.677326 289.326928 
L 175.327936 286.513491 
L 175.978546 287.439432 
L 176.629156 289.148863 
L 177.279767 289.077636 
L 178.580987 287.29698 
L 179.231598 288.329761 
L 179.882208 285.551936 
L 180.532818 286.335425 
L 181.183429 286.62033 
L 181.834039 288.294148 
L 182.484649 287.973629 
L 183.13526 293.636117 
L 183.78587 290.003578 
L 184.43648 288.970797 
L 185.087091 291.250037 
L 185.737701 289.647446 
L 186.388311 292.817015 
L 187.038921 289.042023 
L 187.689532 294.455219 
L 188.340142 290.82268 
L 188.990752 289.754286 
L 189.641363 285.623163 
L 190.291973 287.475045 
L 191.593194 287.368206 
L 192.243804 291.641782 
L 192.894414 289.469381 
L 193.545025 289.469381 
L 194.195635 289.077636 
L 194.846245 286.549104 
L 195.496856 284.9109 
L 196.147466 294.953803 
L 196.798076 284.34109 
L 197.448686 288.294148 
L 198.099297 289.291315 
L 198.749907 291.570556 
L 199.400517 286.442265 
L 200.051128 291.000745 
L 200.701738 287.581885 
L 201.352348 288.187308 
L 202.002959 284.447929 
L 203.304179 288.863958 
L 203.95479 287.012075 
L 204.6054 288.187308 
L 205.25601 290.858293 
L 205.906621 289.291315 
L 206.557231 291.926687 
L 207.207841 289.754286 
L 207.858451 290.965132 
L 208.509062 290.181643 
L 209.159672 286.264199 
L 209.810282 294.134701 
L 210.460893 285.017739 
L 211.111503 290.466549 
L 211.762113 286.477878 
L 212.412724 289.57622 
L 213.063334 286.834009 
L 213.713944 286.940849 
L 214.364555 286.442265 
L 215.015165 290.181643 
L 215.665775 289.896738 
L 216.316385 286.442265 
L 216.966996 289.00641 
L 217.617606 288.685892 
L 218.268216 286.086133 
L 218.918827 285.088966 
L 219.569437 285.302644 
L 220.220047 288.543439 
L 220.870658 288.792731 
L 221.521268 292.140366 
L 222.171878 289.825512 
L 222.822489 288.151695 
L 223.473099 290.14603 
L 224.123709 288.187308 
L 224.77432 283.842506 
L 225.42493 287.368206 
L 226.07554 285.516323 
L 226.72615 290.573388 
L 227.376761 289.184476 
L 228.677981 285.409484 
L 229.328592 287.29698 
L 229.979202 287.510659 
L 230.629812 291.250037 
L 231.280423 288.080469 
L 231.931033 286.264199 
L 232.581643 292.674563 
L 233.232254 289.718673 
L 233.882864 284.020572 
L 234.533474 291.891074 
L 235.184085 285.48071 
L 235.834695 290.181643 
L 236.485305 290.787067 
L 237.135915 288.080469 
L 237.786526 288.721505 
L 238.437136 287.083301 
L 239.087746 289.57622 
L 239.738357 286.976462 
L 240.388967 283.130243 
L 241.039577 289.68306 
L 241.690188 291.606169 
L 242.340798 289.11325 
L 242.991408 289.932352 
L 243.642019 290.074804 
L 244.292629 288.009242 
L 244.943239 286.442265 
L 245.59385 285.48071 
L 246.24446 285.160192 
L 246.89507 288.863958 
L 247.54568 289.647446 
L 248.196291 291.000745 
L 248.846901 285.943681 
L 249.497511 289.11325 
L 250.148122 285.373871 
L 250.798732 284.34109 
L 251.449342 285.765615 
L 252.099953 293.849796 
L 252.750563 285.373871 
L 253.401173 288.543439 
L 254.051784 289.362541 
L 254.702394 286.513491 
L 255.353004 289.540607 
L 256.003615 287.759951 
L 256.654225 290.430935 
L 257.304835 289.11325 
L 257.955445 286.798396 
L 258.606056 287.368206 
L 259.256666 284.483542 
L 259.907276 287.759951 
L 260.557887 287.653111 
L 261.208497 287.19014 
L 261.859107 287.475045 
L 262.509718 290.502162 
L 263.160328 286.655943 
L 263.810938 285.516323 
L 264.461549 291.463716 
L 265.112159 288.365374 
L 266.413379 289.255702 
L 267.06399 287.617498 
L 267.7146 289.398155 
L 268.36521 290.14603 
L 269.015821 285.943681 
L 269.666431 288.116082 
L 270.317041 285.979294 
L 270.967652 290.644614 
L 271.618262 286.584717 
L 272.268872 289.11325 
L 273.570093 286.192973 
L 274.220703 289.789899 
L 274.871314 291.606169 
L 275.521924 289.00641 
L 276.172534 294.063475 
L 276.823144 292.53211 
L 277.473755 291.677395 
L 278.124365 284.127411 
L 278.774975 290.965132 
L 279.425586 285.872455 
L 280.076196 290.537775 
L 280.726806 291.499329 
L 281.377417 291.39249 
L 282.028027 285.231418 
L 282.678637 288.757118 
L 283.329248 287.083301 
L 283.979858 284.554769 
L 284.630468 284.9109 
L 285.281079 283.237083 
L 285.931689 291.285651 
L 286.582299 287.546272 
L 287.232909 290.82268 
L 287.88352 288.472213 
L 288.53413 286.798396 
L 289.18474 286.406652 
L 289.835351 288.650279 
L 290.485961 288.614666 
L 291.136571 291.784234 
L 292.437792 285.872455 
L 293.088402 292.354044 
L 293.739013 292.567723 
L 294.389623 289.825512 
L 295.040233 288.4366 
L 295.690844 284.554769 
L 296.341454 290.893906 
L 296.992064 284.875287 
L 298.293285 295.488 
L 298.943895 288.116082 
L 299.594505 285.160192 
L 300.245116 285.623163 
L 300.895726 289.789899 
L 301.546336 291.570556 
L 302.196947 289.647446 
L 302.847557 287.047688 
L 303.498167 290.217257 
L 304.148778 285.338258 
L 304.799388 284.483542 
L 305.449998 290.181643 
L 306.100608 289.504994 
L 306.751219 289.433768 
L 307.401829 287.653111 
L 308.052439 289.255702 
L 308.70305 287.902403 
L 309.35366 287.083301 
L 310.00427 289.540607 
L 310.654881 286.406652 
L 311.305491 285.338258 
L 311.956101 289.611833 
L 313.257322 290.003578 
L 313.907932 289.255702 
L 314.558543 287.083301 
L 315.209153 292.389658 
L 315.859763 295.238708 
L 316.510373 286.691557 
L 317.160984 286.442265 
L 317.811594 289.255702 
L 318.462204 287.439432 
L 319.112815 286.371038 
L 319.763425 290.110417 
L 320.414035 288.009242 
L 321.064646 288.543439 
L 321.715256 291.428103 
L 322.365866 290.039191 
L 323.016477 290.074804 
L 323.667087 288.757118 
L 324.317697 288.365374 
L 324.968308 288.650279 
L 325.618918 290.324096 
L 326.269528 291.071972 
L 326.920138 289.896738 
L 327.570749 288.044856 
L 328.221359 289.718673 
L 328.871969 292.496497 
L 329.52258 288.792731 
L 330.17319 286.549104 
L 330.8238 290.82268 
L 331.474411 291.784234 
L 332.125021 289.00641 
L 332.775631 288.899571 
L 333.426242 290.181643 
L 334.076852 285.48071 
L 334.727462 288.828344 
L 335.378073 289.184476 
L 336.028683 290.893906 
L 336.679293 287.581885 
L 337.329903 285.908068 
L 337.980514 287.154527 
L 338.631124 287.653111 
L 339.281734 289.148863 
L 339.932345 288.579053 
L 340.582955 288.685892 
L 341.233565 287.510659 
L 341.884176 288.543439 
L 342.534786 284.697221 
L 343.185396 284.946513 
L 343.836007 283.878119 
L 344.486617 286.62033 
L 345.137227 291.250037 
L 345.787837 291.356877 
L 346.438448 284.483542 
L 347.089058 288.828344 
L 347.739668 290.217257 
L 348.390279 290.359709 
L 349.040889 286.940849 
L 349.691499 288.543439 
L 350.34211 292.817015 
L 350.99272 290.466549 
L 351.64333 293.422438 
L 352.293941 286.905235 
L 352.944551 285.943681 
L 353.595161 288.828344 
L 354.245772 292.389658 
L 354.896382 291.000745 
L 355.546992 286.05052 
L 356.197602 288.507826 
L 356.848213 287.938016 
L 357.498823 286.72717 
L 358.149433 287.368206 
L 358.800044 293.742957 
L 359.450654 283.09463 
L 360.751875 290.82268 
L 361.402485 291.997913 
L 362.053095 287.938016 
L 362.703706 288.329761 
L 363.354316 286.798396 
L 364.004926 287.261367 
L 364.655537 284.590382 
L 365.306147 288.472213 
L 365.956757 289.718673 
L 366.607367 284.875287 
L 367.257978 291.000745 
L 367.908588 289.184476 
L 368.559198 289.504994 
L 369.209809 286.442265 
L 369.860419 287.653111 
L 370.511029 286.549104 
L 371.16164 290.14603 
L 371.81225 287.902403 
L 372.46286 290.039191 
L 373.113471 290.71584 
L 373.764081 288.757118 
L 374.414691 288.365374 
L 375.065302 289.68306 
L 375.715912 289.68306 
L 376.366522 293.066307 
L 377.017132 288.792731 
L 377.667743 291.071972 
L 378.318353 285.195805 
L 378.968963 287.368206 
L 379.619574 286.513491 
L 380.270184 290.466549 
L 380.920794 287.403819 
L 381.571405 291.748621 
L 382.222015 283.09463 
L 382.872625 288.400987 
L 383.523236 290.82268 
L 384.173846 287.973629 
L 384.824456 287.653111 
L 385.475066 284.376703 
L 386.125677 284.982126 
L 386.776287 289.57622 
L 387.426897 287.403819 
L 388.077508 288.899571 
L 388.728118 291.428103 
L 389.378728 291.143198 
L 390.029339 287.546272 
L 390.679949 286.228586 
L 391.330559 289.57622 
L 391.98117 289.754286 
L 392.63178 287.831177 
L 393.28239 288.757118 
L 393.933001 288.4366 
L 394.583611 289.718673 
L 395.234221 284.982126 
L 395.884831 289.68306 
L 396.535442 291.107585 
L 397.186052 291.819847 
L 397.836662 290.110417 
L 398.487273 291.606169 
L 398.487273 291.606169 
" style="fill:none;stroke:#0000ff;stroke-linecap:square;stroke-width:1.5;"/>
   </g>
   <g id="line2d_30">
    <path clip-path="url(#p5a9539d964)" d="M 73.832727 234.572375 
L 74.483338 239.574948 
L 75.784558 244.188346 
L 76.435169 245.784596 
L 77.736389 239.196448 
L 78.386999 241.438117 
L 79.03761 241.147601 
L 79.68822 234.650664 
L 80.33883 236.627988 
L 80.989441 244.906989 
L 81.640051 242.180179 
L 82.290661 243.995843 
L 82.941272 240.635681 
L 83.591882 243.039338 
L 84.242492 243.011974 
L 85.543713 246.715655 
L 86.194323 245.651503 
L 86.844934 241.978742 
L 87.495544 244.119345 
L 88.146154 243.186802 
L 88.796764 235.104537 
L 89.447375 239.527116 
L 90.097985 240.991964 
L 90.748595 241.862787 
L 91.399206 237.693935 
L 92.049816 241.288995 
L 92.700426 242.739562 
L 93.351037 245.800695 
L 94.001647 240.665036 
L 94.652257 243.011607 
L 95.302868 244.486655 
L 95.953478 244.927122 
L 96.604088 235.419635 
L 97.254698 241.859726 
L 97.905309 244.223152 
L 98.555919 243.561368 
L 99.206529 238.794666 
L 99.85714 243.859256 
L 100.50775 239.399821 
L 101.15836 243.515599 
L 101.808971 239.160369 
L 102.459581 242.245356 
L 103.110191 247.236009 
L 103.760802 237.919589 
L 104.411412 238.109118 
L 105.062022 241.53523 
L 105.712633 250.596877 
L 106.363243 239.638155 
L 107.013853 239.388383 
L 107.664463 242.610689 
L 108.315074 241.484343 
L 108.965684 244.486909 
L 109.616294 245.694367 
L 110.266905 241.589458 
L 110.917515 243.512622 
L 111.568125 237.977859 
L 112.218736 239.317242 
L 112.869346 243.650197 
L 113.519956 242.206102 
L 114.170567 245.937665 
L 114.821177 244.023798 
L 115.471787 244.266498 
L 116.122398 237.900735 
L 116.773008 244.413437 
L 117.423618 242.343461 
L 118.074228 239.54878 
L 118.724839 243.945869 
L 119.375449 237.766571 
L 120.026059 242.420166 
L 120.67667 244.894023 
L 121.32728 235.89752 
L 121.97789 238.48644 
L 122.628501 238.693933 
L 123.279111 244.466353 
L 123.929721 239.471144 
L 124.580332 239.469143 
L 125.230942 243.79067 
L 125.881552 237.316587 
L 126.532163 241.600613 
L 127.182773 245.059302 
L 127.833383 243.329604 
L 128.483993 241.267802 
L 129.134604 245.940894 
L 129.785214 246.600068 
L 130.435824 242.950927 
L 131.086435 241.064202 
L 131.737045 240.073929 
L 132.387655 241.174192 
L 133.038266 237.83182 
L 133.688876 239.384284 
L 134.339486 243.382003 
L 134.990097 241.870028 
L 135.640707 246.327706 
L 136.291317 239.507949 
L 136.941927 244.644904 
L 137.592538 245.216347 
L 138.243148 243.23151 
L 138.893758 242.298378 
L 139.544369 240.19969 
L 140.194979 240.216165 
L 140.845589 240.918283 
L 141.4962 241.409739 
L 142.14681 237.056399 
L 142.79742 240.504954 
L 143.448031 242.395477 
L 144.098641 236.816211 
L 144.749251 235.128908 
L 145.399862 238.497846 
L 146.050472 240.175483 
L 146.701082 233.892223 
L 147.351692 234.869127 
L 148.002303 242.754309 
L 148.652913 243.132242 
L 149.303523 241.916962 
L 149.954134 239.614746 
L 150.604744 243.286881 
L 151.255354 241.350078 
L 151.905965 240.674781 
L 153.207185 238.828556 
L 153.857796 235.689915 
L 154.508406 238.6808 
L 155.159016 242.842699 
L 155.809627 241.270002 
L 156.460237 242.763193 
L 157.110847 240.087888 
L 157.761457 238.229984 
L 158.412068 239.392437 
L 159.062678 244.170181 
L 159.713288 238.792762 
L 160.363899 239.12198 
L 161.014509 242.081377 
L 161.665119 237.587603 
L 162.31573 240.682893 
L 162.96634 242.532168 
L 163.61695 243.621455 
L 164.267561 245.933965 
L 164.918171 242.12325 
L 165.568781 245.989397 
L 166.219392 245.317736 
L 166.870002 243.718064 
L 167.520612 243.415927 
L 168.171222 243.871285 
L 168.821833 245.414426 
L 170.123053 237.750928 
L 170.773664 245.537401 
L 171.424274 242.205526 
L 172.074884 243.991634 
L 172.725495 243.072874 
L 173.376105 241.350476 
L 174.677326 243.459206 
L 175.327936 241.470003 
L 175.978546 237.63563 
L 176.629156 245.465398 
L 177.279767 242.178631 
L 177.930377 243.254656 
L 178.580987 241.764634 
L 179.231598 240.678167 
L 179.882208 235.706222 
L 181.183429 239.64252 
L 181.834039 239.433775 
L 182.484649 241.840175 
L 183.13526 250.638235 
L 183.78587 242.691979 
L 184.43648 240.08991 
L 185.087091 241.614428 
L 185.737701 242.692657 
L 186.388311 247.203336 
L 187.038921 243.08237 
L 187.689532 249.178841 
L 188.340142 245.750523 
L 188.990752 243.917322 
L 189.641363 239.110941 
L 190.291973 241.793295 
L 190.942583 242.362281 
L 191.593194 241.978925 
L 192.243804 245.43829 
L 192.894414 242.999717 
L 193.545025 245.628705 
L 194.195635 242.504279 
L 194.846245 240.128429 
L 195.496856 237.093935 
L 196.147466 250.275061 
L 196.798076 236.688644 
L 197.448686 241.578203 
L 198.099297 242.928011 
L 198.749907 246.316494 
L 199.400517 240.454707 
L 200.051128 242.667664 
L 200.701738 241.148603 
L 201.352348 241.46136 
L 202.002959 237.385867 
L 202.653569 238.74575 
L 203.304179 242.814774 
L 203.95479 242.412048 
L 204.6054 241.029067 
L 205.25601 244.314901 
L 205.906621 241.156391 
L 206.557231 245.055815 
L 207.207841 243.630455 
L 207.858451 241.59187 
L 208.509062 242.183598 
L 209.159672 239.184178 
L 209.810282 249.779908 
L 210.460893 238.657718 
L 211.111503 242.648098 
L 211.762113 238.905346 
L 212.412724 242.296908 
L 213.063334 241.128332 
L 213.713944 239.509947 
L 214.364555 238.935376 
L 215.015165 241.720769 
L 215.665775 243.251639 
L 216.316385 237.649948 
L 216.966996 243.44555 
L 218.268216 239.786885 
L 218.918827 237.738244 
L 219.569437 236.283773 
L 220.220047 243.620104 
L 220.870658 243.588247 
L 221.521268 247.174659 
L 222.822489 239.302849 
L 223.473099 244.209909 
L 224.123709 243.469693 
L 224.77432 238.029511 
L 225.42493 236.757762 
L 226.72615 241.008724 
L 227.376761 242.070793 
L 228.027371 242.054344 
L 228.677981 238.164669 
L 229.328592 241.144904 
L 229.979202 239.817788 
L 230.629812 244.956748 
L 231.280423 240.676528 
L 231.931033 239.977485 
L 232.581643 244.833467 
L 233.232254 241.297398 
L 233.882864 235.963175 
L 234.533474 247.622705 
L 235.184085 237.601825 
L 235.834695 241.616195 
L 236.485305 239.550191 
L 237.135915 241.857766 
L 237.786526 244.745546 
L 238.437136 241.191377 
L 239.087746 239.453082 
L 239.738357 241.868751 
L 240.388967 234.913115 
L 241.039577 240.152632 
L 241.690188 244.13313 
L 242.340798 242.714875 
L 242.991408 244.881656 
L 243.642019 243.784322 
L 244.292629 240.286172 
L 244.943239 239.364467 
L 245.59385 240.115452 
L 246.24446 236.058078 
L 246.89507 242.13672 
L 247.54568 247.114587 
L 248.196291 242.783262 
L 248.846901 239.216118 
L 249.497511 243.420006 
L 250.148122 236.412369 
L 250.798732 240.157837 
L 251.449342 237.520665 
L 252.099953 246.240074 
L 252.750563 239.09709 
L 253.401173 241.383316 
L 254.051784 239.856971 
L 254.702394 240.522624 
L 255.353004 243.865132 
L 256.003615 240.253796 
L 256.654225 241.82196 
L 257.304835 240.839338 
L 257.955445 240.707258 
L 258.606056 239.817341 
L 259.256666 235.744998 
L 259.907276 240.382117 
L 260.557887 241.218299 
L 261.208497 241.806099 
L 261.859107 240.103209 
L 262.509718 245.079138 
L 263.810938 238.318094 
L 264.461549 242.353738 
L 265.112159 242.636796 
L 265.762769 240.879208 
L 266.413379 243.920927 
L 267.06399 243.802982 
L 267.7146 245.175937 
L 268.36521 242.475609 
L 269.015821 237.290682 
L 269.666431 241.087813 
L 270.317041 237.848519 
L 270.967652 243.635942 
L 271.618262 238.361447 
L 272.268872 243.609143 
L 272.919483 239.270819 
L 273.570093 239.041187 
L 274.220703 243.953835 
L 274.871314 244.724569 
L 275.521924 244.65299 
L 276.172534 249.030237 
L 276.823144 243.578626 
L 277.473755 245.61922 
L 278.124365 233.872198 
L 278.774975 244.263782 
L 279.425586 239.684118 
L 280.076196 241.558596 
L 280.726806 245.528874 
L 281.377417 246.374393 
L 282.028027 238.942909 
L 282.678637 243.913072 
L 283.329248 241.568786 
L 283.979858 238.5517 
L 284.630468 239.354146 
L 285.281079 238.933446 
L 285.931689 247.125727 
L 286.582299 240.841446 
L 287.232909 243.531499 
L 287.88352 238.726086 
L 288.53413 242.987021 
L 289.18474 242.72927 
L 289.835351 242.876681 
L 290.485961 241.271967 
L 291.136571 245.678239 
L 291.787182 243.614113 
L 292.437792 239.062235 
L 293.739013 247.165813 
L 294.389623 242.455442 
L 295.040233 241.676477 
L 295.690844 237.602073 
L 296.341454 243.157642 
L 296.992064 236.136339 
L 297.642674 243.697585 
L 298.293285 249.191601 
L 299.594505 239.661842 
L 300.245116 240.103172 
L 300.895726 242.088094 
L 301.546336 241.932557 
L 302.196947 240.229059 
L 302.847557 241.445299 
L 303.498167 245.007162 
L 304.148778 239.118834 
L 304.799388 234.643681 
L 305.449998 237.257319 
L 306.100608 244.703519 
L 306.751219 241.54409 
L 307.401829 240.610456 
L 308.052439 243.586447 
L 308.70305 240.10645 
L 309.35366 238.862661 
L 310.00427 242.42181 
L 310.654881 242.59011 
L 311.305491 238.443241 
L 311.956101 242.79694 
L 312.606712 248.043741 
L 313.257322 243.897583 
L 313.907932 244.836604 
L 314.558543 238.162848 
L 315.209153 243.987704 
L 315.859763 248.480905 
L 316.510373 239.323629 
L 317.160984 240.487814 
L 317.811594 243.37587 
L 318.462204 239.705732 
L 319.112815 238.846105 
L 319.763425 245.132908 
L 320.414035 241.688742 
L 321.715256 246.243488 
L 322.365866 241.720689 
L 323.016477 242.105106 
L 323.667087 244.459422 
L 324.317697 244.056699 
L 324.968308 241.61938 
L 325.618918 240.160172 
L 326.269528 245.43101 
L 326.920138 243.132154 
L 327.570749 244.817145 
L 328.221359 242.239022 
L 328.871969 244.949046 
L 329.52258 243.509756 
L 330.17319 236.692806 
L 330.8238 245.818108 
L 331.474411 246.432635 
L 332.125021 241.174926 
L 332.775631 240.382826 
L 333.426242 245.489448 
L 334.076852 238.890676 
L 334.727462 238.716683 
L 336.028683 243.104534 
L 336.679293 241.290855 
L 337.329903 238.33255 
L 337.980514 242.266171 
L 338.631124 241.437324 
L 339.281734 239.4156 
L 339.932345 239.417463 
L 340.582955 244.860089 
L 341.233565 242.7706 
L 341.884176 241.125842 
L 342.534786 236.706627 
L 343.185396 238.866493 
L 343.836007 232.606205 
L 344.486617 240.967908 
L 345.137227 245.741472 
L 345.787837 244.029303 
L 346.438448 238.530955 
L 347.089058 241.35771 
L 347.739668 241.977893 
L 348.390279 244.057174 
L 349.040889 242.286597 
L 349.691499 243.293792 
L 350.34211 245.360918 
L 350.99272 244.113408 
L 351.64333 249.409233 
L 352.293941 241.946623 
L 352.944551 237.751666 
L 353.595161 239.143699 
L 354.245772 246.076646 
L 354.896382 242.510476 
L 355.546992 238.275588 
L 356.197602 241.133111 
L 356.848213 241.772092 
L 357.498823 238.910112 
L 358.149433 239.530146 
L 358.800044 249.685267 
L 359.450654 238.250712 
L 360.101264 239.249139 
L 360.751875 243.595908 
L 361.402485 244.561877 
L 362.053095 240.162778 
L 362.703706 242.170746 
L 363.354316 237.218074 
L 364.004926 241.033437 
L 364.655537 238.98289 
L 365.306147 241.733672 
L 365.956757 242.517649 
L 366.607367 239.410623 
L 367.257978 246.299371 
L 367.908588 244.764407 
L 368.559198 243.629323 
L 369.209809 239.97185 
L 369.860419 238.604235 
L 370.511029 238.591081 
L 371.81225 243.667511 
L 372.46286 244.84558 
L 373.113471 245.179484 
L 373.764081 245.070619 
L 374.414691 238.578891 
L 375.065302 240.771046 
L 375.715912 243.7228 
L 376.366522 248.284653 
L 377.017132 243.914887 
L 377.667743 245.967706 
L 378.318353 236.537476 
L 378.968963 240.505128 
L 379.619574 241.865943 
L 380.270184 246.058588 
L 380.920794 238.412213 
L 381.571405 244.39178 
L 382.222015 240.22886 
L 382.872625 244.877661 
L 383.523236 245.280238 
L 385.475066 237.928674 
L 386.125677 237.287168 
L 386.776287 242.91254 
L 387.426897 241.425019 
L 388.077508 240.257509 
L 388.728118 243.837459 
L 389.378728 242.088013 
L 390.029339 241.674402 
L 390.679949 239.204268 
L 391.330559 244.124167 
L 391.98117 242.704824 
L 392.63178 240.036338 
L 393.933001 242.046823 
L 394.583611 244.696026 
L 395.234221 239.844734 
L 395.884831 242.64271 
L 396.535442 243.937996 
L 397.186052 247.500454 
L 397.836662 243.810114 
L 398.487273 245.830562 
L 398.487273 245.830562 
" style="fill:none;stroke:#008000;stroke-dasharray:9.6,2.4,1.5,2.4;stroke-dashoffset:0;stroke-width:1.5;"/>
   </g>
   <g id="line2d_31">
    <path clip-path="url(#p5a9539d964)" d="M 73.832727 167.53002 
L 74.483338 124.794262 
L 75.784558 181.775272 
L 76.435169 167.53002 
L 77.085779 139.039515 
L 77.736389 167.53002 
L 78.386999 110.54901 
L 79.03761 153.284767 
L 79.68822 153.284767 
L 80.33883 124.794262 
L 80.989441 153.284767 
L 81.640051 153.284767 
L 82.290661 110.54901 
L 82.941272 153.284767 
L 84.242492 153.284767 
L 84.893103 167.53002 
L 85.543713 167.53002 
L 86.194323 153.284767 
L 86.844934 124.794262 
L 87.495544 139.039515 
L 88.146154 124.794262 
L 89.447375 124.794262 
L 90.097985 153.284767 
L 90.748595 110.54901 
L 91.399206 153.284767 
L 92.049816 153.284767 
L 92.700426 124.794262 
L 93.351037 153.284767 
L 94.001647 139.039515 
L 95.302868 139.039515 
L 95.953478 153.284767 
L 96.604088 124.794262 
L 97.254698 167.53002 
L 97.905309 167.53002 
L 98.555919 139.039515 
L 99.85714 110.54901 
L 100.50775 153.284767 
L 101.15836 153.284767 
L 101.808971 139.039515 
L 102.459581 167.53002 
L 103.110191 124.794262 
L 103.760802 167.53002 
L 104.411412 167.53002 
L 105.062022 153.284767 
L 106.363243 153.284767 
L 107.013853 110.54901 
L 107.664463 167.53002 
L 108.315074 153.284767 
L 108.965684 167.53002 
L 109.616294 139.039515 
L 110.266905 153.284767 
L 110.917515 139.039515 
L 111.568125 153.284767 
L 112.218736 153.284767 
L 112.869346 139.039515 
L 113.519956 139.039515 
L 114.821177 167.53002 
L 116.122398 110.54901 
L 116.773008 153.284767 
L 117.423618 167.53002 
L 118.074228 139.039515 
L 118.724839 124.794262 
L 119.375449 167.53002 
L 120.026059 167.53002 
L 120.67667 139.039515 
L 121.32728 139.039515 
L 121.97789 153.284767 
L 122.628501 139.039515 
L 123.279111 167.53002 
L 123.929721 124.794262 
L 125.230942 124.794262 
L 125.881552 153.284767 
L 126.532163 124.794262 
L 127.182773 167.53002 
L 128.483993 139.039515 
L 129.134604 139.039515 
L 129.785214 167.53002 
L 130.435824 153.284767 
L 131.086435 167.53002 
L 131.737045 153.284767 
L 132.387655 167.53002 
L 133.038266 96.303757 
L 133.688876 167.53002 
L 134.339486 167.53002 
L 134.990097 153.284767 
L 135.640707 153.284767 
L 136.291317 167.53002 
L 136.941927 139.039515 
L 137.592538 167.53002 
L 138.243148 124.794262 
L 139.544369 153.284767 
L 140.194979 139.039515 
L 140.845589 139.039515 
L 141.4962 153.284767 
L 142.14681 139.039515 
L 142.79742 153.284767 
L 143.448031 153.284767 
L 144.098641 82.058505 
L 144.749251 167.53002 
L 145.399862 124.794262 
L 146.050472 124.794262 
L 146.701082 139.039515 
L 147.351692 139.039515 
L 148.002303 153.284767 
L 148.652913 139.039515 
L 149.303523 153.284767 
L 149.954134 124.794262 
L 150.604744 110.54901 
L 151.255354 110.54901 
L 151.905965 153.284767 
L 152.556575 139.039515 
L 153.207185 139.039515 
L 153.857796 124.794262 
L 154.508406 139.039515 
L 155.159016 124.794262 
L 155.809627 124.794262 
L 157.761457 167.53002 
L 158.412068 124.794262 
L 159.062678 167.53002 
L 159.713288 181.775272 
L 160.363899 153.284767 
L 161.665119 153.284767 
L 162.31573 139.039515 
L 162.96634 139.039515 
L 164.267561 167.53002 
L 164.918171 167.53002 
L 166.870002 124.794262 
L 167.520612 139.039515 
L 168.171222 167.53002 
L 168.821833 139.039515 
L 169.472443 153.284767 
L 170.123053 124.794262 
L 170.773664 167.53002 
L 171.424274 153.284767 
L 172.074884 153.284767 
L 172.725495 181.775272 
L 173.376105 139.039515 
L 174.026715 139.039515 
L 174.677326 153.284767 
L 175.327936 153.284767 
L 175.978546 124.794262 
L 176.629156 167.53002 
L 177.279767 124.794262 
L 178.580987 153.284767 
L 179.231598 124.794262 
L 179.882208 139.039515 
L 180.532818 167.53002 
L 181.183429 167.53002 
L 182.484649 110.54901 
L 183.13526 139.039515 
L 183.78587 153.284767 
L 184.43648 124.794262 
L 185.087091 124.794262 
L 185.737701 153.284767 
L 186.388311 167.53002 
L 187.038921 153.284767 
L 187.689532 96.303757 
L 188.340142 153.284767 
L 188.990752 124.794262 
L 189.641363 139.039515 
L 190.291973 139.039515 
L 190.942583 181.775272 
L 191.593194 139.039515 
L 192.243804 181.775272 
L 192.894414 124.794262 
L 193.545025 153.284767 
L 194.195635 153.284767 
L 194.846245 110.54901 
L 195.496856 124.794262 
L 196.147466 167.53002 
L 196.798076 139.039515 
L 197.448686 153.284767 
L 199.400517 153.284767 
L 200.051128 124.794262 
L 200.701738 153.284767 
L 201.352348 139.039515 
L 202.002959 153.284767 
L 203.304179 153.284767 
L 203.95479 181.775272 
L 204.6054 124.794262 
L 205.25601 153.284767 
L 205.906621 124.794262 
L 207.207841 153.284767 
L 207.858451 139.039515 
L 208.509062 110.54901 
L 209.810282 167.53002 
L 210.460893 124.794262 
L 211.111503 139.039515 
L 211.762113 139.039515 
L 212.412724 153.284767 
L 213.063334 181.775272 
L 213.713944 139.039515 
L 214.364555 167.53002 
L 215.015165 153.284767 
L 215.665775 153.284767 
L 216.316385 139.039515 
L 216.966996 167.53002 
L 217.617606 139.039515 
L 218.268216 167.53002 
L 218.918827 153.284767 
L 220.220047 153.284767 
L 220.870658 139.039515 
L 221.521268 153.284767 
L 222.171878 153.284767 
L 222.822489 124.794262 
L 223.473099 153.284767 
L 224.123709 167.53002 
L 224.77432 124.794262 
L 225.42493 153.284767 
L 226.07554 110.54901 
L 226.72615 153.284767 
L 227.376761 124.794262 
L 228.027371 153.284767 
L 229.328592 153.284767 
L 229.979202 167.53002 
L 230.629812 167.53002 
L 231.280423 124.794262 
L 231.931033 153.284767 
L 233.232254 153.284767 
L 233.882864 139.039515 
L 234.533474 153.284767 
L 235.184085 139.039515 
L 236.485305 139.039515 
L 237.135915 167.53002 
L 237.786526 153.284767 
L 238.437136 153.284767 
L 239.087746 124.794262 
L 239.738357 167.53002 
L 240.388967 110.54901 
L 241.039577 153.284767 
L 241.690188 139.039515 
L 242.340798 153.284767 
L 242.991408 139.039515 
L 243.642019 139.039515 
L 244.292629 153.284767 
L 244.943239 139.039515 
L 245.59385 96.303757 
L 246.24446 139.039515 
L 246.89507 167.53002 
L 247.54568 139.039515 
L 248.846901 167.53002 
L 250.148122 110.54901 
L 250.798732 139.039515 
L 251.449342 110.54901 
L 252.099953 167.53002 
L 252.750563 124.794262 
L 253.401173 124.794262 
L 254.051784 153.284767 
L 254.702394 124.794262 
L 255.353004 167.53002 
L 256.003615 124.794262 
L 256.654225 124.794262 
L 257.304835 139.039515 
L 257.955445 167.53002 
L 258.606056 124.794262 
L 259.256666 153.284767 
L 259.907276 124.794262 
L 260.557887 124.794262 
L 261.208497 153.284767 
L 261.859107 153.284767 
L 262.509718 110.54901 
L 263.160328 153.284767 
L 263.810938 124.794262 
L 264.461549 139.039515 
L 265.112159 110.54901 
L 266.413379 139.039515 
L 267.06399 139.039515 
L 267.7146 153.284767 
L 269.015821 124.794262 
L 270.967652 167.53002 
L 271.618262 124.794262 
L 272.268872 153.284767 
L 272.919483 53.568 
L 273.570093 139.039515 
L 274.220703 124.794262 
L 276.172534 167.53002 
L 276.823144 139.039515 
L 278.774975 139.039515 
L 279.425586 110.54901 
L 280.076196 139.039515 
L 280.726806 153.284767 
L 281.377417 153.284767 
L 282.028027 139.039515 
L 282.678637 167.53002 
L 283.329248 139.039515 
L 283.979858 139.039515 
L 284.630468 167.53002 
L 285.931689 139.039515 
L 286.582299 139.039515 
L 287.232909 153.284767 
L 287.88352 110.54901 
L 288.53413 167.53002 
L 289.18474 153.284767 
L 289.835351 153.284767 
L 290.485961 167.53002 
L 291.136571 139.039515 
L 291.787182 153.284767 
L 292.437792 153.284767 
L 293.088402 124.794262 
L 293.739013 153.284767 
L 294.389623 167.53002 
L 295.040233 139.039515 
L 295.690844 167.53002 
L 296.341454 139.039515 
L 296.992064 153.284767 
L 297.642674 139.039515 
L 298.293285 167.53002 
L 298.943895 124.794262 
L 299.594505 153.284767 
L 300.245116 153.284767 
L 300.895726 124.794262 
L 301.546336 67.813252 
L 302.196947 139.039515 
L 302.847557 167.53002 
L 303.498167 153.284767 
L 304.148778 167.53002 
L 304.799388 110.54901 
L 305.449998 153.284767 
L 306.100608 167.53002 
L 306.751219 124.794262 
L 307.401829 139.039515 
L 308.052439 167.53002 
L 308.70305 153.284767 
L 310.00427 153.284767 
L 310.654881 167.53002 
L 311.305491 139.039515 
L 311.956101 82.058505 
L 312.606712 167.53002 
L 313.257322 153.284767 
L 313.907932 124.794262 
L 314.558543 139.039515 
L 315.209153 167.53002 
L 315.859763 139.039515 
L 316.510373 153.284767 
L 322.365866 153.284767 
L 323.016477 139.039515 
L 323.667087 153.284767 
L 324.968308 153.284767 
L 325.618918 124.794262 
L 326.269528 153.284767 
L 326.920138 153.284767 
L 327.570749 139.039515 
L 328.221359 153.284767 
L 328.871969 139.039515 
L 329.52258 139.039515 
L 330.17319 110.54901 
L 330.8238 153.284767 
L 331.474411 167.53002 
L 332.125021 124.794262 
L 332.775631 96.303757 
L 333.426242 139.039515 
L 334.076852 139.039515 
L 334.727462 153.284767 
L 335.378073 139.039515 
L 336.028683 139.039515 
L 336.679293 167.53002 
L 337.329903 153.284767 
L 337.980514 153.284767 
L 338.631124 167.53002 
L 339.932345 139.039515 
L 340.582955 153.284767 
L 341.233565 139.039515 
L 341.884176 153.284767 
L 342.534786 124.794262 
L 345.137227 124.794262 
L 345.787837 139.039515 
L 346.438448 124.794262 
L 347.089058 153.284767 
L 347.739668 82.058505 
L 348.390279 153.284767 
L 349.691499 153.284767 
L 350.34211 139.039515 
L 350.99272 167.53002 
L 351.64333 153.284767 
L 352.293941 153.284767 
L 352.944551 167.53002 
L 353.595161 139.039515 
L 354.245772 139.039515 
L 354.896382 153.284767 
L 355.546992 124.794262 
L 356.197602 153.284767 
L 356.848213 124.794262 
L 357.498823 153.284767 
L 358.800044 124.794262 
L 359.450654 139.039515 
L 360.101264 167.53002 
L 360.751875 139.039515 
L 361.402485 153.284767 
L 362.053095 110.54901 
L 362.703706 167.53002 
L 363.354316 153.284767 
L 364.004926 167.53002 
L 364.655537 139.039515 
L 365.306147 153.284767 
L 365.956757 139.039515 
L 366.607367 153.284767 
L 367.257978 153.284767 
L 367.908588 167.53002 
L 368.559198 153.284767 
L 369.209809 153.284767 
L 369.860419 139.039515 
L 370.511029 153.284767 
L 371.16164 139.039515 
L 371.81225 181.775272 
L 372.46286 124.794262 
L 373.764081 153.284767 
L 374.414691 110.54901 
L 375.065302 110.54901 
L 375.715912 167.53002 
L 376.366522 139.039515 
L 377.017132 181.775272 
L 378.968963 139.039515 
L 379.619574 167.53002 
L 380.270184 153.284767 
L 381.571405 96.303757 
L 382.872625 181.775272 
L 383.523236 153.284767 
L 384.173846 153.284767 
L 384.824456 110.54901 
L 385.475066 167.53002 
L 386.125677 153.284767 
L 386.776287 167.53002 
L 387.426897 124.794262 
L 388.728118 153.284767 
L 389.378728 153.284767 
L 390.679949 124.794262 
L 391.98117 153.284767 
L 392.63178 124.794262 
L 393.28239 139.039515 
L 393.933001 139.039515 
L 395.234221 167.53002 
L 395.884831 139.039515 
L 396.535442 153.284767 
L 397.186052 124.794262 
L 397.836662 139.039515 
L 398.487273 82.058505 
L 398.487273 82.058505 
" style="fill:none;stroke:#ff0000;stroke-linecap:square;stroke-width:1.5;"/>
   </g>
   <g id="patch_3">
    <path d="M 57.6 307.584 
L 57.6 41.472 
" style="fill:none;stroke:#000000;stroke-linecap:square;stroke-linejoin:miter;stroke-width:0.8;"/>
   </g>
   <g id="patch_4">
    <path d="M 414.72 307.584 
L 414.72 41.472 
" style="fill:none;stroke:#000000;stroke-linecap:square;stroke-linejoin:miter;stroke-width:0.8;"/>
   </g>
   <g id="patch_5">
    <path d="M 57.6 307.584 
L 414.72 307.584 
" style="fill:none;stroke:#000000;stroke-linecap:square;stroke-linejoin:miter;stroke-width:0.8;"/>
   </g>
   <g id="patch_6">
    <path d="M 57.6 41.472 
L 414.72 41.472 
" style="fill:none;stroke:#000000;stroke-linecap:square;stroke-linejoin:miter;stroke-width:0.8;"/>
   </g>
   <g id="text_17">
    <!-- Population's average and best fitness -->
    <defs>
     <path d="M 19.671875 64.796875 
L 19.671875 37.40625 
L 32.078125 37.40625 
Q 38.96875 37.40625 42.71875 40.96875 
Q 46.484375 44.53125 46.484375 51.125 
Q 46.484375 57.671875 42.71875 61.234375 
Q 38.96875 64.796875 32.078125 64.796875 
z
M 9.8125 72.90625 
L 32.078125 72.90625 
Q 44.34375 72.90625 50.609375 67.359375 
Q 56.890625 61.8125 56.890625 51.125 
Q 56.890625 40.328125 50.609375 34.8125 
Q 44.34375 29.296875 32.078125 29.296875 
L 19.671875 29.296875 
L 19.671875 0 
L 9.8125 0 
z
" id="DejaVuSans-80"/>
     <path d="M 18.109375 8.203125 
L 18.109375 -20.796875 
L 9.078125 -20.796875 
L 9.078125 54.6875 
L 18.109375 54.6875 
L 18.109375 46.390625 
Q 20.953125 51.265625 25.265625 53.625 
Q 29.59375 56 35.59375 56 
Q 45.5625 56 51.78125 48.09375 
Q 58.015625 40.1875 58.015625 27.296875 
Q 58.015625 14.40625 51.78125 6.484375 
Q 45.5625 -1.421875 35.59375 -1.421875 
Q 29.59375 -1.421875 25.265625 0.953125 
Q 20.953125 3.328125 18.109375 8.203125 
z
M 48.6875 27.296875 
Q 48.6875 37.203125 44.609375 42.84375 
Q 40.53125 48.484375 33.40625 48.484375 
Q 26.265625 48.484375 22.1875 42.84375 
Q 18.109375 37.203125 18.109375 27.296875 
Q 18.109375 17.390625 22.1875 11.75 
Q 26.265625 6.109375 33.40625 6.109375 
Q 40.53125 6.109375 44.609375 11.75 
Q 48.6875 17.390625 48.6875 27.296875 
z
" id="DejaVuSans-112"/>
     <path d="M 8.5 21.578125 
L 8.5 54.6875 
L 17.484375 54.6875 
L 17.484375 21.921875 
Q 17.484375 14.15625 20.5 10.265625 
Q 23.53125 6.390625 29.59375 6.390625 
Q 36.859375 6.390625 41.078125 11.03125 
Q 45.3125 15.671875 45.3125 23.6875 
L 45.3125 54.6875 
L 54.296875 54.6875 
L 54.296875 0 
L 45.3125 0 
L 45.3125 8.40625 
Q 42.046875 3.421875 37.71875 1 
Q 33.40625 -1.421875 27.6875 -1.421875 
Q 18.265625 -1.421875 13.375 4.4375 
Q 8.5 10.296875 8.5 21.578125 
z
M 31.109375 56 
z
" id="DejaVuSans-117"/>
     <path d="M 9.421875 75.984375 
L 18.40625 75.984375 
L 18.40625 0 
L 9.421875 0 
z
" id="DejaVuSans-108"/>
     <path d="M 17.921875 72.90625 
L 17.921875 45.796875 
L 9.625 45.796875 
L 9.625 72.90625 
z
" id="DejaVuSans-39"/>
     <path id="DejaVuSans-32"/>
     <path d="M 2.984375 54.6875 
L 12.5 54.6875 
L 29.59375 8.796875 
L 46.6875 54.6875 
L 56.203125 54.6875 
L 35.6875 0 
L 23.484375 0 
z
" id="DejaVuSans-118"/>
     <path d="M 45.40625 27.984375 
Q 45.40625 37.75 41.375 43.109375 
Q 37.359375 48.484375 30.078125 48.484375 
Q 22.859375 48.484375 18.828125 43.109375 
Q 14.796875 37.75 14.796875 27.984375 
Q 14.796875 18.265625 18.828125 12.890625 
Q 22.859375 7.515625 30.078125 7.515625 
Q 37.359375 7.515625 41.375 12.890625 
Q 45.40625 18.265625 45.40625 27.984375 
z
M 54.390625 6.78125 
Q 54.390625 -7.171875 48.1875 -13.984375 
Q 42 -20.796875 29.203125 -20.796875 
Q 24.46875 -20.796875 20.265625 -20.09375 
Q 16.0625 -19.390625 12.109375 -17.921875 
L 12.109375 -9.1875 
Q 16.0625 -11.328125 19.921875 -12.34375 
Q 23.78125 -13.375 27.78125 -13.375 
Q 36.625 -13.375 41.015625 -8.765625 
Q 45.40625 -4.15625 45.40625 5.171875 
L 45.40625 9.625 
Q 42.625 4.78125 38.28125 2.390625 
Q 33.9375 0 27.875 0 
Q 17.828125 0 11.671875 7.65625 
Q 5.515625 15.328125 5.515625 27.984375 
Q 5.515625 40.671875 11.671875 48.328125 
Q 17.828125 56 27.875 56 
Q 33.9375 56 38.28125 53.609375 
Q 42.625 51.21875 45.40625 46.390625 
L 45.40625 54.6875 
L 54.390625 54.6875 
z
" id="DejaVuSans-103"/>
     <path d="M 45.40625 46.390625 
L 45.40625 75.984375 
L 54.390625 75.984375 
L 54.390625 0 
L 45.40625 0 
L 45.40625 8.203125 
Q 42.578125 3.328125 38.25 0.953125 
Q 33.9375 -1.421875 27.875 -1.421875 
Q 17.96875 -1.421875 11.734375 6.484375 
Q 5.515625 14.40625 5.515625 27.296875 
Q 5.515625 40.1875 11.734375 48.09375 
Q 17.96875 56 27.875 56 
Q 33.9375 56 38.25 53.625 
Q 42.578125 51.265625 45.40625 46.390625 
z
M 14.796875 27.296875 
Q 14.796875 17.390625 18.875 11.75 
Q 22.953125 6.109375 30.078125 6.109375 
Q 37.203125 6.109375 41.296875 11.75 
Q 45.40625 17.390625 45.40625 27.296875 
Q 45.40625 37.203125 41.296875 42.84375 
Q 37.203125 48.484375 30.078125 48.484375 
Q 22.953125 48.484375 18.875 42.84375 
Q 14.796875 37.203125 14.796875 27.296875 
z
" id="DejaVuSans-100"/>
     <path d="M 48.6875 27.296875 
Q 48.6875 37.203125 44.609375 42.84375 
Q 40.53125 48.484375 33.40625 48.484375 
Q 26.265625 48.484375 22.1875 42.84375 
Q 18.109375 37.203125 18.109375 27.296875 
Q 18.109375 17.390625 22.1875 11.75 
Q 26.265625 6.109375 33.40625 6.109375 
Q 40.53125 6.109375 44.609375 11.75 
Q 48.6875 17.390625 48.6875 27.296875 
z
M 18.109375 46.390625 
Q 20.953125 51.265625 25.265625 53.625 
Q 29.59375 56 35.59375 56 
Q 45.5625 56 51.78125 48.09375 
Q 58.015625 40.1875 58.015625 27.296875 
Q 58.015625 14.40625 51.78125 6.484375 
Q 45.5625 -1.421875 35.59375 -1.421875 
Q 29.59375 -1.421875 25.265625 0.953125 
Q 20.953125 3.328125 18.109375 8.203125 
L 18.109375 0 
L 9.078125 0 
L 9.078125 75.984375 
L 18.109375 75.984375 
z
" id="DejaVuSans-98"/>
     <path d="M 37.109375 75.984375 
L 37.109375 68.5 
L 28.515625 68.5 
Q 23.6875 68.5 21.796875 66.546875 
Q 19.921875 64.59375 19.921875 59.515625 
L 19.921875 54.6875 
L 34.71875 54.6875 
L 34.71875 47.703125 
L 19.921875 47.703125 
L 19.921875 0 
L 10.890625 0 
L 10.890625 47.703125 
L 2.296875 47.703125 
L 2.296875 54.6875 
L 10.890625 54.6875 
L 10.890625 58.5 
Q 10.890625 67.625 15.140625 71.796875 
Q 19.390625 75.984375 28.609375 75.984375 
z
" id="DejaVuSans-102"/>
    </defs>
    <g transform="translate(123.315 35.472)scale(0.12 -0.12)">
     <use xlink:href="#DejaVuSans-80"/>
     <use x="60.255859" xlink:href="#DejaVuSans-111"/>
     <use x="121.4375" xlink:href="#DejaVuSans-112"/>
     <use x="184.914062" xlink:href="#DejaVuSans-117"/>
     <use x="248.292969" xlink:href="#DejaVuSans-108"/>
     <use x="276.076172" xlink:href="#DejaVuSans-97"/>
     <use x="337.355469" xlink:href="#DejaVuSans-116"/>
     <use x="376.564453" xlink:href="#DejaVuSans-105"/>
     <use x="404.347656" xlink:href="#DejaVuSans-111"/>
     <use x="465.529297" xlink:href="#DejaVuSans-110"/>
     <use x="528.908203" xlink:href="#DejaVuSans-39"/>
     <use x="556.398438" xlink:href="#DejaVuSans-115"/>
     <use x="608.498047" xlink:href="#DejaVuSans-32"/>
     <use x="640.285156" xlink:href="#DejaVuSans-97"/>
     <use x="701.564453" xlink:href="#DejaVuSans-118"/>
     <use x="760.744141" xlink:href="#DejaVuSans-101"/>
     <use x="822.267578" xlink:href="#DejaVuSans-114"/>
     <use x="863.380859" xlink:href="#DejaVuSans-97"/>
     <use x="924.660156" xlink:href="#DejaVuSans-103"/>
     <use x="988.136719" xlink:href="#DejaVuSans-101"/>
     <use x="1049.660156" xlink:href="#DejaVuSans-32"/>
     <use x="1081.447266" xlink:href="#DejaVuSans-97"/>
     <use x="1142.726562" xlink:href="#DejaVuSans-110"/>
     <use x="1206.105469" xlink:href="#DejaVuSans-100"/>
     <use x="1269.582031" xlink:href="#DejaVuSans-32"/>
     <use x="1301.369141" xlink:href="#DejaVuSans-98"/>
     <use x="1364.845703" xlink:href="#DejaVuSans-101"/>
     <use x="1426.369141" xlink:href="#DejaVuSans-115"/>
     <use x="1478.46875" xlink:href="#DejaVuSans-116"/>
     <use x="1517.677734" xlink:href="#DejaVuSans-32"/>
     <use x="1549.464844" xlink:href="#DejaVuSans-102"/>
     <use x="1584.669922" xlink:href="#DejaVuSans-105"/>
     <use x="1612.453125" xlink:href="#DejaVuSans-116"/>
     <use x="1651.662109" xlink:href="#DejaVuSans-110"/>
     <use x="1715.041016" xlink:href="#DejaVuSans-101"/>
     <use x="1776.564453" xlink:href="#DejaVuSans-115"/>
     <use x="1828.664062" xlink:href="#DejaVuSans-115"/>
    </g>
   </g>
   <g id="legend_1">
    <g id="patch_7">
     <path d="M 64.6 93.506375 
L 137.540625 93.506375 
Q 139.540625 93.506375 139.540625 91.506375 
L 139.540625 48.472 
Q 139.540625 46.472 137.540625 46.472 
L 64.6 46.472 
Q 62.6 46.472 62.6 48.472 
L 62.6 91.506375 
Q 62.6 93.506375 64.6 93.506375 
z
" style="fill:#ffffff;opacity:0.8;stroke:#cccccc;stroke-linejoin:miter;"/>
    </g>
    <g id="line2d_32">
     <path d="M 66.6 54.570438 
L 86.6 54.570438 
" style="fill:none;stroke:#0000ff;stroke-linecap:square;stroke-width:1.5;"/>
    </g>
    <g id="line2d_33"/>
    <g id="text_18">
     <!-- average -->
     <g transform="translate(94.6 58.070438)scale(0.1 -0.1)">
      <use xlink:href="#DejaVuSans-97"/>
      <use x="61.279297" xlink:href="#DejaVuSans-118"/>
      <use x="120.458984" xlink:href="#DejaVuSans-101"/>
      <use x="181.982422" xlink:href="#DejaVuSans-114"/>
      <use x="223.095703" xlink:href="#DejaVuSans-97"/>
      <use x="284.375" xlink:href="#DejaVuSans-103"/>
      <use x="347.851562" xlink:href="#DejaVuSans-101"/>
     </g>
    </g>
    <g id="line2d_34">
     <path d="M 66.6 69.248563 
L 86.6 69.248563 
" style="fill:none;stroke:#008000;stroke-dasharray:9.6,2.4,1.5,2.4;stroke-dashoffset:0;stroke-width:1.5;"/>
    </g>
    <g id="line2d_35"/>
    <g id="text_19">
     <!-- +1 sd -->
     <defs>
      <path d="M 46 62.703125 
L 46 35.5 
L 73.1875 35.5 
L 73.1875 27.203125 
L 46 27.203125 
L 46 0 
L 37.796875 0 
L 37.796875 27.203125 
L 10.59375 27.203125 
L 10.59375 35.5 
L 37.796875 35.5 
L 37.796875 62.703125 
z
" id="DejaVuSans-43"/>
     </defs>
     <g transform="translate(94.6 72.748563)scale(0.1 -0.1)">
      <use xlink:href="#DejaVuSans-43"/>
      <use x="83.789062" xlink:href="#DejaVuSans-49"/>
      <use x="147.412109" xlink:href="#DejaVuSans-32"/>
      <use x="179.199219" xlink:href="#DejaVuSans-115"/>
      <use x="231.298828" xlink:href="#DejaVuSans-100"/>
     </g>
    </g>
    <g id="line2d_36">
     <path d="M 66.6 83.926688 
L 86.6 83.926688 
" style="fill:none;stroke:#ff0000;stroke-linecap:square;stroke-width:1.5;"/>
    </g>
    <g id="line2d_37"/>
    <g id="text_20">
     <!-- best -->
     <g transform="translate(94.6 87.426688)scale(0.1 -0.1)">
      <use xlink:href="#DejaVuSans-98"/>
      <use x="63.476562" xlink:href="#DejaVuSans-101"/>
      <use x="125" xlink:href="#DejaVuSans-115"/>
      <use x="177.099609" xlink:href="#DejaVuSans-116"/>
     </g>
    </g>
   </g>
  </g>
 </g>
 <defs>
  <clipPath id="p5a9539d964">
   <rect height="266.112" width="357.12" x="57.6" y="41.472"/>
  </clipPath>
 </defs>
</svg>
