<?xml version="1.0" encoding="utf-8" standalone="no"?>
<!DOCTYPE svg PUBLIC "-//W3C//DTD SVG 1.1//EN"
  "http://www.w3.org/Graphics/SVG/1.1/DTD/svg11.dtd">
<!-- Created with matplotlib (https://matplotlib.org/) -->
<svg height="345.6pt" version="1.1" viewBox="0 0 460.8 345.6" width="460.8pt" xmlns="http://www.w3.org/2000/svg" xmlns:xlink="http://www.w3.org/1999/xlink">
 <defs>
  <style type="text/css">
*{stroke-linecap:butt;stroke-linejoin:round;}
  </style>
 </defs>
 <g id="figure_1">
  <g id="patch_1">
   <path d="M 0 345.6 
L 460.8 345.6 
L 460.8 0 
L 0 0 
z
" style="fill:#ffffff;"/>
  </g>
  <g id="axes_1">
   <g id="patch_2">
    <path d="M 57.6 307.584 
L 414.72 307.584 
L 414.72 41.472 
L 57.6 41.472 
z
" style="fill:#ffffff;"/>
   </g>
   <g id="matplotlib.axis_1">
    <g id="xtick_1">
     <g id="line2d_1">
      <path clip-path="url(#p6f37f50dc4)" d="M 73.832727 307.584 
L 73.832727 41.472 
" style="fill:none;stroke:#b0b0b0;stroke-linecap:square;stroke-width:0.8;"/>
     </g>
     <g id="line2d_2">
      <defs>
       <path d="M 0 0 
L 0 3.5 
" id="mca4d195c2f" style="stroke:#000000;stroke-width:0.8;"/>
      </defs>
      <g>
       <use style="stroke:#000000;stroke-width:0.8;" x="73.832727" xlink:href="#mca4d195c2f" y="307.584"/>
      </g>
     </g>
     <g id="text_1">
      <!-- 0 -->
      <defs>
       <path d="M 31.78125 66.40625 
Q 24.171875 66.40625 20.328125 58.90625 
Q 16.5 51.421875 16.5 36.375 
Q 16.5 21.390625 20.328125 13.890625 
Q 24.171875 6.390625 31.78125 6.390625 
Q 39.453125 6.390625 43.28125 13.890625 
Q 47.125 21.390625 47.125 36.375 
Q 47.125 51.421875 43.28125 58.90625 
Q 39.453125 66.40625 31.78125 66.40625 
z
M 31.78125 74.21875 
Q 44.046875 74.21875 50.515625 64.515625 
Q 56.984375 54.828125 56.984375 36.375 
Q 56.984375 17.96875 50.515625 8.265625 
Q 44.046875 -1.421875 31.78125 -1.421875 
Q 19.53125 -1.421875 13.0625 8.265625 
Q 6.59375 17.96875 6.59375 36.375 
Q 6.59375 54.828125 13.0625 64.515625 
Q 19.53125 74.21875 31.78125 74.21875 
z
" id="DejaVuSans-48"/>
      </defs>
      <g transform="translate(70.651477 322.182437)scale(0.1 -0.1)">
       <use xlink:href="#DejaVuSans-48"/>
      </g>
     </g>
    </g>
    <g id="xtick_2">
     <g id="line2d_3">
      <path clip-path="url(#p6f37f50dc4)" d="M 114.618474 307.584 
L 114.618474 41.472 
" style="fill:none;stroke:#b0b0b0;stroke-linecap:square;stroke-width:0.8;"/>
     </g>
     <g id="line2d_4">
      <g>
       <use style="stroke:#000000;stroke-width:0.8;" x="114.618474" xlink:href="#mca4d195c2f" y="307.584"/>
      </g>
     </g>
     <g id="text_2">
      <!-- 25 -->
      <defs>
       <path d="M 19.1875 8.296875 
L 53.609375 8.296875 
L 53.609375 0 
L 7.328125 0 
L 7.328125 8.296875 
Q 12.9375 14.109375 22.625 23.890625 
Q 32.328125 33.6875 34.8125 36.53125 
Q 39.546875 41.84375 41.421875 45.53125 
Q 43.3125 49.21875 43.3125 52.78125 
Q 43.3125 58.59375 39.234375 62.25 
Q 35.15625 65.921875 28.609375 65.921875 
Q 23.96875 65.921875 18.8125 64.3125 
Q 13.671875 62.703125 7.8125 59.421875 
L 7.8125 69.390625 
Q 13.765625 71.78125 18.9375 73 
Q 24.125 74.21875 28.421875 74.21875 
Q 39.75 74.21875 46.484375 68.546875 
Q 53.21875 62.890625 53.21875 53.421875 
Q 53.21875 48.921875 51.53125 44.890625 
Q 49.859375 40.875 45.40625 35.40625 
Q 44.1875 33.984375 37.640625 27.21875 
Q 31.109375 20.453125 19.1875 8.296875 
z
" id="DejaVuSans-50"/>
       <path d="M 10.796875 72.90625 
L 49.515625 72.90625 
L 49.515625 64.59375 
L 19.828125 64.59375 
L 19.828125 46.734375 
Q 21.96875 47.46875 24.109375 47.828125 
Q 26.265625 48.1875 28.421875 48.1875 
Q 40.625 48.1875 47.75 41.5 
Q 54.890625 34.8125 54.890625 23.390625 
Q 54.890625 11.625 47.5625 5.09375 
Q 40.234375 -1.421875 26.90625 -1.421875 
Q 22.3125 -1.421875 17.546875 -0.640625 
Q 12.796875 0.140625 7.71875 1.703125 
L 7.71875 11.625 
Q 12.109375 9.234375 16.796875 8.0625 
Q 21.484375 6.890625 26.703125 6.890625 
Q 35.15625 6.890625 40.078125 11.328125 
Q 45.015625 15.765625 45.015625 23.390625 
Q 45.015625 31 40.078125 35.4375 
Q 35.15625 39.890625 26.703125 39.890625 
Q 22.75 39.890625 18.8125 39.015625 
Q 14.890625 38.140625 10.796875 36.28125 
z
" id="DejaVuSans-53"/>
      </defs>
      <g transform="translate(108.255974 322.182437)scale(0.1 -0.1)">
       <use xlink:href="#DejaVuSans-50"/>
       <use x="63.623047" xlink:href="#DejaVuSans-53"/>
      </g>
     </g>
    </g>
    <g id="xtick_3">
     <g id="line2d_5">
      <path clip-path="url(#p6f37f50dc4)" d="M 155.404221 307.584 
L 155.404221 41.472 
" style="fill:none;stroke:#b0b0b0;stroke-linecap:square;stroke-width:0.8;"/>
     </g>
     <g id="line2d_6">
      <g>
       <use style="stroke:#000000;stroke-width:0.8;" x="155.404221" xlink:href="#mca4d195c2f" y="307.584"/>
      </g>
     </g>
     <g id="text_3">
      <!-- 50 -->
      <g transform="translate(149.041721 322.182437)scale(0.1 -0.1)">
       <use xlink:href="#DejaVuSans-53"/>
       <use x="63.623047" xlink:href="#DejaVuSans-48"/>
      </g>
     </g>
    </g>
    <g id="xtick_4">
     <g id="line2d_7">
      <path clip-path="url(#p6f37f50dc4)" d="M 196.189968 307.584 
L 196.189968 41.472 
" style="fill:none;stroke:#b0b0b0;stroke-linecap:square;stroke-width:0.8;"/>
     </g>
     <g id="line2d_8">
      <g>
       <use style="stroke:#000000;stroke-width:0.8;" x="196.189968" xlink:href="#mca4d195c2f" y="307.584"/>
      </g>
     </g>
     <g id="text_4">
      <!-- 75 -->
      <defs>
       <path d="M 8.203125 72.90625 
L 55.078125 72.90625 
L 55.078125 68.703125 
L 28.609375 0 
L 18.3125 0 
L 43.21875 64.59375 
L 8.203125 64.59375 
z
" id="DejaVuSans-55"/>
      </defs>
      <g transform="translate(189.827468 322.182437)scale(0.1 -0.1)">
       <use xlink:href="#DejaVuSans-55"/>
       <use x="63.623047" xlink:href="#DejaVuSans-53"/>
      </g>
     </g>
    </g>
    <g id="xtick_5">
     <g id="line2d_9">
      <path clip-path="url(#p6f37f50dc4)" d="M 236.975715 307.584 
L 236.975715 41.472 
" style="fill:none;stroke:#b0b0b0;stroke-linecap:square;stroke-width:0.8;"/>
     </g>
     <g id="line2d_10">
      <g>
       <use style="stroke:#000000;stroke-width:0.8;" x="236.975715" xlink:href="#mca4d195c2f" y="307.584"/>
      </g>
     </g>
     <g id="text_5">
      <!-- 100 -->
      <defs>
       <path d="M 12.40625 8.296875 
L 28.515625 8.296875 
L 28.515625 63.921875 
L 10.984375 60.40625 
L 10.984375 69.390625 
L 28.421875 72.90625 
L 38.28125 72.90625 
L 38.28125 8.296875 
L 54.390625 8.296875 
L 54.390625 0 
L 12.40625 0 
z
" id="DejaVuSans-49"/>
      </defs>
      <g transform="translate(227.431965 322.182437)scale(0.1 -0.1)">
       <use xlink:href="#DejaVuSans-49"/>
       <use x="63.623047" xlink:href="#DejaVuSans-48"/>
       <use x="127.246094" xlink:href="#DejaVuSans-48"/>
      </g>
     </g>
    </g>
    <g id="xtick_6">
     <g id="line2d_11">
      <path clip-path="url(#p6f37f50dc4)" d="M 277.761462 307.584 
L 277.761462 41.472 
" style="fill:none;stroke:#b0b0b0;stroke-linecap:square;stroke-width:0.8;"/>
     </g>
     <g id="line2d_12">
      <g>
       <use style="stroke:#000000;stroke-width:0.8;" x="277.761462" xlink:href="#mca4d195c2f" y="307.584"/>
      </g>
     </g>
     <g id="text_6">
      <!-- 125 -->
      <g transform="translate(268.217712 322.182437)scale(0.1 -0.1)">
       <use xlink:href="#DejaVuSans-49"/>
       <use x="63.623047" xlink:href="#DejaVuSans-50"/>
       <use x="127.246094" xlink:href="#DejaVuSans-53"/>
      </g>
     </g>
    </g>
    <g id="xtick_7">
     <g id="line2d_13">
      <path clip-path="url(#p6f37f50dc4)" d="M 318.547209 307.584 
L 318.547209 41.472 
" style="fill:none;stroke:#b0b0b0;stroke-linecap:square;stroke-width:0.8;"/>
     </g>
     <g id="line2d_14">
      <g>
       <use style="stroke:#000000;stroke-width:0.8;" x="318.547209" xlink:href="#mca4d195c2f" y="307.584"/>
      </g>
     </g>
     <g id="text_7">
      <!-- 150 -->
      <g transform="translate(309.003459 322.182437)scale(0.1 -0.1)">
       <use xlink:href="#DejaVuSans-49"/>
       <use x="63.623047" xlink:href="#DejaVuSans-53"/>
       <use x="127.246094" xlink:href="#DejaVuSans-48"/>
      </g>
     </g>
    </g>
    <g id="xtick_8">
     <g id="line2d_15">
      <path clip-path="url(#p6f37f50dc4)" d="M 359.332956 307.584 
L 359.332956 41.472 
" style="fill:none;stroke:#b0b0b0;stroke-linecap:square;stroke-width:0.8;"/>
     </g>
     <g id="line2d_16">
      <g>
       <use style="stroke:#000000;stroke-width:0.8;" x="359.332956" xlink:href="#mca4d195c2f" y="307.584"/>
      </g>
     </g>
     <g id="text_8">
      <!-- 175 -->
      <g transform="translate(349.789206 322.182437)scale(0.1 -0.1)">
       <use xlink:href="#DejaVuSans-49"/>
       <use x="63.623047" xlink:href="#DejaVuSans-55"/>
       <use x="127.246094" xlink:href="#DejaVuSans-53"/>
      </g>
     </g>
    </g>
    <g id="xtick_9">
     <g id="line2d_17">
      <path clip-path="url(#p6f37f50dc4)" d="M 400.118703 307.584 
L 400.118703 41.472 
" style="fill:none;stroke:#b0b0b0;stroke-linecap:square;stroke-width:0.8;"/>
     </g>
     <g id="line2d_18">
      <g>
       <use style="stroke:#000000;stroke-width:0.8;" x="400.118703" xlink:href="#mca4d195c2f" y="307.584"/>
      </g>
     </g>
     <g id="text_9">
      <!-- 200 -->
      <g transform="translate(390.574953 322.182437)scale(0.1 -0.1)">
       <use xlink:href="#DejaVuSans-50"/>
       <use x="63.623047" xlink:href="#DejaVuSans-48"/>
       <use x="127.246094" xlink:href="#DejaVuSans-48"/>
      </g>
     </g>
    </g>
    <g id="text_10">
     <!-- Generations -->
     <defs>
      <path d="M 59.515625 10.40625 
L 59.515625 29.984375 
L 43.40625 29.984375 
L 43.40625 38.09375 
L 69.28125 38.09375 
L 69.28125 6.78125 
Q 63.578125 2.734375 56.6875 0.65625 
Q 49.8125 -1.421875 42 -1.421875 
Q 24.90625 -1.421875 15.25 8.5625 
Q 5.609375 18.5625 5.609375 36.375 
Q 5.609375 54.25 15.25 64.234375 
Q 24.90625 74.21875 42 74.21875 
Q 49.125 74.21875 55.546875 72.453125 
Q 61.96875 70.703125 67.390625 67.28125 
L 67.390625 56.78125 
Q 61.921875 61.421875 55.765625 63.765625 
Q 49.609375 66.109375 42.828125 66.109375 
Q 29.4375 66.109375 22.71875 58.640625 
Q 16.015625 51.171875 16.015625 36.375 
Q 16.015625 21.625 22.71875 14.15625 
Q 29.4375 6.6875 42.828125 6.6875 
Q 48.046875 6.6875 52.140625 7.59375 
Q 56.25 8.5 59.515625 10.40625 
z
" id="DejaVuSans-71"/>
      <path d="M 56.203125 29.59375 
L 56.203125 25.203125 
L 14.890625 25.203125 
Q 15.484375 15.921875 20.484375 11.0625 
Q 25.484375 6.203125 34.421875 6.203125 
Q 39.59375 6.203125 44.453125 7.46875 
Q 49.3125 8.734375 54.109375 11.28125 
L 54.109375 2.78125 
Q 49.265625 0.734375 44.1875 -0.34375 
Q 39.109375 -1.421875 33.890625 -1.421875 
Q 20.796875 -1.421875 13.15625 6.1875 
Q 5.515625 13.8125 5.515625 26.8125 
Q 5.515625 40.234375 12.765625 48.109375 
Q 20.015625 56 32.328125 56 
Q 43.359375 56 49.78125 48.890625 
Q 56.203125 41.796875 56.203125 29.59375 
z
M 47.21875 32.234375 
Q 47.125 39.59375 43.09375 43.984375 
Q 39.0625 48.390625 32.421875 48.390625 
Q 24.90625 48.390625 20.390625 44.140625 
Q 15.875 39.890625 15.1875 32.171875 
z
" id="DejaVuSans-101"/>
      <path d="M 54.890625 33.015625 
L 54.890625 0 
L 45.90625 0 
L 45.90625 32.71875 
Q 45.90625 40.484375 42.875 44.328125 
Q 39.84375 48.1875 33.796875 48.1875 
Q 26.515625 48.1875 22.3125 43.546875 
Q 18.109375 38.921875 18.109375 30.90625 
L 18.109375 0 
L 9.078125 0 
L 9.078125 54.6875 
L 18.109375 54.6875 
L 18.109375 46.1875 
Q 21.34375 51.125 25.703125 53.5625 
Q 30.078125 56 35.796875 56 
Q 45.21875 56 50.046875 50.171875 
Q 54.890625 44.34375 54.890625 33.015625 
z
" id="DejaVuSans-110"/>
      <path d="M 41.109375 46.296875 
Q 39.59375 47.171875 37.8125 47.578125 
Q 36.03125 48 33.890625 48 
Q 26.265625 48 22.1875 43.046875 
Q 18.109375 38.09375 18.109375 28.8125 
L 18.109375 0 
L 9.078125 0 
L 9.078125 54.6875 
L 18.109375 54.6875 
L 18.109375 46.1875 
Q 20.953125 51.171875 25.484375 53.578125 
Q 30.03125 56 36.53125 56 
Q 37.453125 56 38.578125 55.875 
Q 39.703125 55.765625 41.0625 55.515625 
z
" id="DejaVuSans-114"/>
      <path d="M 34.28125 27.484375 
Q 23.390625 27.484375 19.1875 25 
Q 14.984375 22.515625 14.984375 16.5 
Q 14.984375 11.71875 18.140625 8.90625 
Q 21.296875 6.109375 26.703125 6.109375 
Q 34.1875 6.109375 38.703125 11.40625 
Q 43.21875 16.703125 43.21875 25.484375 
L 43.21875 27.484375 
z
M 52.203125 31.203125 
L 52.203125 0 
L 43.21875 0 
L 43.21875 8.296875 
Q 40.140625 3.328125 35.546875 0.953125 
Q 30.953125 -1.421875 24.3125 -1.421875 
Q 15.921875 -1.421875 10.953125 3.296875 
Q 6 8.015625 6 15.921875 
Q 6 25.140625 12.171875 29.828125 
Q 18.359375 34.515625 30.609375 34.515625 
L 43.21875 34.515625 
L 43.21875 35.40625 
Q 43.21875 41.609375 39.140625 45 
Q 35.0625 48.390625 27.6875 48.390625 
Q 23 48.390625 18.546875 47.265625 
Q 14.109375 46.140625 10.015625 43.890625 
L 10.015625 52.203125 
Q 14.9375 54.109375 19.578125 55.046875 
Q 24.21875 56 28.609375 56 
Q 40.484375 56 46.34375 49.84375 
Q 52.203125 43.703125 52.203125 31.203125 
z
" id="DejaVuSans-97"/>
      <path d="M 18.3125 70.21875 
L 18.3125 54.6875 
L 36.8125 54.6875 
L 36.8125 47.703125 
L 18.3125 47.703125 
L 18.3125 18.015625 
Q 18.3125 11.328125 20.140625 9.421875 
Q 21.96875 7.515625 27.59375 7.515625 
L 36.8125 7.515625 
L 36.8125 0 
L 27.59375 0 
Q 17.1875 0 13.234375 3.875 
Q 9.28125 7.765625 9.28125 18.015625 
L 9.28125 47.703125 
L 2.6875 47.703125 
L 2.6875 54.6875 
L 9.28125 54.6875 
L 9.28125 70.21875 
z
" id="DejaVuSans-116"/>
      <path d="M 9.421875 54.6875 
L 18.40625 54.6875 
L 18.40625 0 
L 9.421875 0 
z
M 9.421875 75.984375 
L 18.40625 75.984375 
L 18.40625 64.59375 
L 9.421875 64.59375 
z
" id="DejaVuSans-105"/>
      <path d="M 30.609375 48.390625 
Q 23.390625 48.390625 19.1875 42.75 
Q 14.984375 37.109375 14.984375 27.296875 
Q 14.984375 17.484375 19.15625 11.84375 
Q 23.34375 6.203125 30.609375 6.203125 
Q 37.796875 6.203125 41.984375 11.859375 
Q 46.1875 17.53125 46.1875 27.296875 
Q 46.1875 37.015625 41.984375 42.703125 
Q 37.796875 48.390625 30.609375 48.390625 
z
M 30.609375 56 
Q 42.328125 56 49.015625 48.375 
Q 55.71875 40.765625 55.71875 27.296875 
Q 55.71875 13.875 49.015625 6.21875 
Q 42.328125 -1.421875 30.609375 -1.421875 
Q 18.84375 -1.421875 12.171875 6.21875 
Q 5.515625 13.875 5.515625 27.296875 
Q 5.515625 40.765625 12.171875 48.375 
Q 18.84375 56 30.609375 56 
z
" id="DejaVuSans-111"/>
      <path d="M 44.28125 53.078125 
L 44.28125 44.578125 
Q 40.484375 46.53125 36.375 47.5 
Q 32.28125 48.484375 27.875 48.484375 
Q 21.1875 48.484375 17.84375 46.4375 
Q 14.5 44.390625 14.5 40.28125 
Q 14.5 37.15625 16.890625 35.375 
Q 19.28125 33.59375 26.515625 31.984375 
L 29.59375 31.296875 
Q 39.15625 29.25 43.1875 25.515625 
Q 47.21875 21.78125 47.21875 15.09375 
Q 47.21875 7.46875 41.1875 3.015625 
Q 35.15625 -1.421875 24.609375 -1.421875 
Q 20.21875 -1.421875 15.453125 -0.5625 
Q 10.6875 0.296875 5.421875 2 
L 5.421875 11.28125 
Q 10.40625 8.6875 15.234375 7.390625 
Q 20.0625 6.109375 24.8125 6.109375 
Q 31.15625 6.109375 34.5625 8.28125 
Q 37.984375 10.453125 37.984375 14.40625 
Q 37.984375 18.0625 35.515625 20.015625 
Q 33.0625 21.96875 24.703125 23.78125 
L 21.578125 24.515625 
Q 13.234375 26.265625 9.515625 29.90625 
Q 5.8125 33.546875 5.8125 39.890625 
Q 5.8125 47.609375 11.28125 51.796875 
Q 16.75 56 26.8125 56 
Q 31.78125 56 36.171875 55.265625 
Q 40.578125 54.546875 44.28125 53.078125 
z
" id="DejaVuSans-115"/>
     </defs>
     <g transform="translate(205.662344 335.860562)scale(0.1 -0.1)">
      <use xlink:href="#DejaVuSans-71"/>
      <use x="77.490234" xlink:href="#DejaVuSans-101"/>
      <use x="139.013672" xlink:href="#DejaVuSans-110"/>
      <use x="202.392578" xlink:href="#DejaVuSans-101"/>
      <use x="263.916016" xlink:href="#DejaVuSans-114"/>
      <use x="305.029297" xlink:href="#DejaVuSans-97"/>
      <use x="366.308594" xlink:href="#DejaVuSans-116"/>
      <use x="405.517578" xlink:href="#DejaVuSans-105"/>
      <use x="433.300781" xlink:href="#DejaVuSans-111"/>
      <use x="494.482422" xlink:href="#DejaVuSans-110"/>
      <use x="557.861328" xlink:href="#DejaVuSans-115"/>
     </g>
    </g>
   </g>
   <g id="matplotlib.axis_2">
    <g id="ytick_1">
     <g id="line2d_19">
      <path clip-path="url(#p6f37f50dc4)" d="M 57.6 251.799362 
L 414.72 251.799362 
" style="fill:none;stroke:#b0b0b0;stroke-linecap:square;stroke-width:0.8;"/>
     </g>
     <g id="line2d_20">
      <defs>
       <path d="M 0 0 
L -3.5 0 
" id="m859611acc6" style="stroke:#000000;stroke-width:0.8;"/>
      </defs>
      <g>
       <use style="stroke:#000000;stroke-width:0.8;" x="57.6" xlink:href="#m859611acc6" y="251.799362"/>
      </g>
     </g>
     <g id="text_11">
      <!-- 10 -->
      <g transform="translate(37.875 255.598581)scale(0.1 -0.1)">
       <use xlink:href="#DejaVuSans-49"/>
       <use x="63.623047" xlink:href="#DejaVuSans-48"/>
      </g>
     </g>
    </g>
    <g id="ytick_2">
     <g id="line2d_21">
      <path clip-path="url(#p6f37f50dc4)" d="M 57.6 193.496021 
L 414.72 193.496021 
" style="fill:none;stroke:#b0b0b0;stroke-linecap:square;stroke-width:0.8;"/>
     </g>
     <g id="line2d_22">
      <g>
       <use style="stroke:#000000;stroke-width:0.8;" x="57.6" xlink:href="#m859611acc6" y="193.496021"/>
      </g>
     </g>
     <g id="text_12">
      <!-- 20 -->
      <g transform="translate(37.875 197.295239)scale(0.1 -0.1)">
       <use xlink:href="#DejaVuSans-50"/>
       <use x="63.623047" xlink:href="#DejaVuSans-48"/>
      </g>
     </g>
    </g>
    <g id="ytick_3">
     <g id="line2d_23">
      <path clip-path="url(#p6f37f50dc4)" d="M 57.6 135.192679 
L 414.72 135.192679 
" style="fill:none;stroke:#b0b0b0;stroke-linecap:square;stroke-width:0.8;"/>
     </g>
     <g id="line2d_24">
      <g>
       <use style="stroke:#000000;stroke-width:0.8;" x="57.6" xlink:href="#m859611acc6" y="135.192679"/>
      </g>
     </g>
     <g id="text_13">
      <!-- 30 -->
      <defs>
       <path d="M 40.578125 39.3125 
Q 47.65625 37.796875 51.625 33 
Q 55.609375 28.21875 55.609375 21.1875 
Q 55.609375 10.40625 48.1875 4.484375 
Q 40.765625 -1.421875 27.09375 -1.421875 
Q 22.515625 -1.421875 17.65625 -0.515625 
Q 12.796875 0.390625 7.625 2.203125 
L 7.625 11.71875 
Q 11.71875 9.328125 16.59375 8.109375 
Q 21.484375 6.890625 26.8125 6.890625 
Q 36.078125 6.890625 40.9375 10.546875 
Q 45.796875 14.203125 45.796875 21.1875 
Q 45.796875 27.640625 41.28125 31.265625 
Q 36.765625 34.90625 28.71875 34.90625 
L 20.21875 34.90625 
L 20.21875 43.015625 
L 29.109375 43.015625 
Q 36.375 43.015625 40.234375 45.921875 
Q 44.09375 48.828125 44.09375 54.296875 
Q 44.09375 59.90625 40.109375 62.90625 
Q 36.140625 65.921875 28.71875 65.921875 
Q 24.65625 65.921875 20.015625 65.03125 
Q 15.375 64.15625 9.8125 62.3125 
L 9.8125 71.09375 
Q 15.4375 72.65625 20.34375 73.4375 
Q 25.25 74.21875 29.59375 74.21875 
Q 40.828125 74.21875 47.359375 69.109375 
Q 53.90625 64.015625 53.90625 55.328125 
Q 53.90625 49.265625 50.4375 45.09375 
Q 46.96875 40.921875 40.578125 39.3125 
z
" id="DejaVuSans-51"/>
      </defs>
      <g transform="translate(37.875 138.991897)scale(0.1 -0.1)">
       <use xlink:href="#DejaVuSans-51"/>
       <use x="63.623047" xlink:href="#DejaVuSans-48"/>
      </g>
     </g>
    </g>
    <g id="ytick_4">
     <g id="line2d_25">
      <path clip-path="url(#p6f37f50dc4)" d="M 57.6 76.889337 
L 414.72 76.889337 
" style="fill:none;stroke:#b0b0b0;stroke-linecap:square;stroke-width:0.8;"/>
     </g>
     <g id="line2d_26">
      <g>
       <use style="stroke:#000000;stroke-width:0.8;" x="57.6" xlink:href="#m859611acc6" y="76.889337"/>
      </g>
     </g>
     <g id="text_14">
      <!-- 40 -->
      <defs>
       <path d="M 37.796875 64.3125 
L 12.890625 25.390625 
L 37.796875 25.390625 
z
M 35.203125 72.90625 
L 47.609375 72.90625 
L 47.609375 25.390625 
L 58.015625 25.390625 
L 58.015625 17.1875 
L 47.609375 17.1875 
L 47.609375 0 
L 37.796875 0 
L 37.796875 17.1875 
L 4.890625 17.1875 
L 4.890625 26.703125 
z
" id="DejaVuSans-52"/>
      </defs>
      <g transform="translate(37.875 80.688556)scale(0.1 -0.1)">
       <use xlink:href="#DejaVuSans-52"/>
       <use x="63.623047" xlink:href="#DejaVuSans-48"/>
      </g>
     </g>
    </g>
    <g id="text_15">
     <!-- Fitness -->
     <defs>
      <path d="M 9.8125 72.90625 
L 51.703125 72.90625 
L 51.703125 64.59375 
L 19.671875 64.59375 
L 19.671875 43.109375 
L 48.578125 43.109375 
L 48.578125 34.8125 
L 19.671875 34.8125 
L 19.671875 0 
L 9.8125 0 
z
" id="DejaVuSans-70"/>
     </defs>
     <g transform="translate(31.795312 192.202219)rotate(-90)scale(0.1 -0.1)">
      <use xlink:href="#DejaVuSans-70"/>
      <use x="57.410156" xlink:href="#DejaVuSans-105"/>
      <use x="85.193359" xlink:href="#DejaVuSans-116"/>
      <use x="124.402344" xlink:href="#DejaVuSans-110"/>
      <use x="187.78125" xlink:href="#DejaVuSans-101"/>
      <use x="249.304688" xlink:href="#DejaVuSans-115"/>
      <use x="301.404297" xlink:href="#DejaVuSans-115"/>
     </g>
    </g>
   </g>
   <g id="line2d_27">
    <path clip-path="url(#p6f37f50dc4)" d="M 73.832727 295.488 
L 77.095587 292.223013 
L 78.727017 291.406766 
L 80.358447 289.988051 
L 81.989877 289.715969 
L 83.621307 288.433296 
L 85.252736 288.549902 
L 86.884166 284.753425 
L 88.515596 286.314941 
L 90.147026 284.051445 
L 91.778456 283.583459 
L 93.409886 284.157717 
L 95.041316 282.062502 
L 96.672746 284.624144 
L 98.304175 282.428051 
L 99.935605 282.907391 
L 101.567035 287.284985 
L 103.198465 285.556997 
L 104.829895 282.019928 
L 106.461325 284.999339 
L 108.092755 283.477512 
L 109.724185 282.666985 
L 111.355614 282.597473 
L 112.987044 282.214272 
L 114.618474 279.687794 
L 116.249904 279.201933 
L 117.881334 280.970468 
L 119.512764 280.034559 
L 121.144194 282.510989 
L 122.775624 285.260411 
L 124.407053 285.767396 
L 126.038483 280.137498 
L 127.669913 281.864452 
L 129.301343 278.549168 
L 130.932773 285.168308 
L 132.564203 283.069388 
L 134.195633 282.097666 
L 135.827063 283.322036 
L 137.458492 282.81674 
L 139.089922 278.813244 
L 140.721352 280.89273 
L 142.352782 279.14363 
L 143.984212 281.126528 
L 145.615642 281.845018 
L 147.247072 282.039362 
L 148.878502 277.355661 
L 150.509931 278.44399 
L 152.141361 280.989902 
L 153.772791 282.622396 
L 155.404221 283.224864 
L 157.035651 280.795558 
L 158.667081 277.122447 
L 160.298511 277.258488 
L 161.929941 278.074735 
L 163.56137 276.830931 
L 165.1928 274.265584 
L 166.82423 272.846869 
L 168.45566 277.355661 
L 170.08709 272.917262 
L 171.71852 272.924607 
L 173.34995 275.878643 
L 174.98138 270.611907 
L 176.61281 275.257195 
L 178.244239 271.630298 
L 179.875669 272.761266 
L 181.507099 269.602356 
L 183.138529 268.471388 
L 184.769959 273.541244 
L 186.401389 271.855712 
L 188.032819 268.493553 
L 189.664249 268.668463 
L 191.295678 265.539517 
L 192.927108 264.606663 
L 194.558538 262.878934 
L 196.189968 263.770982 
L 197.821398 259.663534 
L 199.452828 271.330982 
L 201.084258 263.071342 
L 202.715688 266.200288 
L 204.347117 265.403476 
L 205.978547 259.378797 
L 207.609977 267.043459 
L 209.241407 263.692469 
L 210.872837 257.281039 
L 212.504267 264.079867 
L 214.135697 259.359362 
L 215.767127 266.919362 
L 217.398556 262.993604 
L 219.029986 264.626098 
L 220.661416 267.749909 
L 222.292846 264.259508 
L 223.924276 264.975918 
L 225.555706 260.389388 
L 227.187136 268.922337 
L 228.818566 271.505892 
L 230.449995 272.574787 
L 232.081425 273.021779 
L 233.712855 275.742602 
L 235.344285 274.965224 
L 236.975715 272.769131 
L 238.607145 264.196086 
L 240.238575 271.40872 
L 241.870005 268.629594 
L 245.132864 268.979414 
L 246.764294 275.334478 
L 248.395724 269.018283 
L 250.027154 271.117203 
L 251.658584 266.82219 
L 253.290014 261.302807 
L 254.921444 261.92471 
L 256.552873 268.785069 
L 258.184303 269.115455 
L 259.815733 268.629594 
L 261.447163 271.914015 
L 263.078593 266.880494 
L 264.710023 263.304555 
L 266.341453 261.399979 
L 267.972883 263.945892 
L 269.604312 263.4989 
L 271.235742 267.793913 
L 272.867172 263.518334 
L 274.498602 260.059003 
L 276.130032 261.749799 
L 277.761462 252.635044 
L 279.392892 252.75165 
L 282.655751 251.935859 
L 284.287181 253.768806 
L 285.918611 259.599141 
L 287.550041 251.779863 
L 289.181471 255.153267 
L 290.812901 253.45129 
L 292.444331 250.866509 
L 294.075761 251.915969 
L 295.70719 258.679157 
L 297.33862 253.45129 
L 298.97005 255.142087 
L 300.60148 251.216329 
L 302.23291 241.324195 
L 303.86434 243.014992 
L 305.49577 249.544967 
L 307.1272 242.159877 
L 308.75863 257.86291 
L 310.390059 251.896535 
L 312.021489 257.86291 
L 313.652919 252.207486 
L 315.284349 255.802859 
L 316.915779 244.200494 
L 318.547209 248.581954 
L 320.178639 249.556926 
L 321.810069 252.345347 
L 323.441498 249.60327 
L 325.072928 250.536123 
L 326.704358 244.671246 
L 328.335788 245.130552 
L 329.967218 253.573812 
L 331.598648 254.345275 
L 333.230078 252.207486 
L 334.861508 249.25345 
L 336.492937 251.915969 
L 338.124367 257.16327 
L 339.755797 257.415203 
L 341.387227 247.951342 
L 343.018657 251.838231 
L 344.650087 250.866509 
L 346.281517 254.014889 
L 347.912947 255.142087 
L 351.175806 250.414902 
L 352.807236 256.347023 
L 354.438666 253.10147 
L 356.070096 259.942396 
L 357.701526 259.417666 
L 359.332956 252.440699 
L 360.964386 252.403845 
L 364.227245 241.013244 
L 365.858675 252.709747 
L 367.490105 257.08734 
L 369.121535 248.177195 
L 370.752965 259.276137 
L 372.384395 251.760494 
L 374.015825 259.126149 
L 375.647254 252.907126 
L 377.278684 248.126252 
L 378.910114 253.237512 
L 380.541544 253.567897 
L 382.172974 247.212833 
L 383.804404 249.700442 
L 385.435834 257.785172 
L 387.067264 253.665069 
L 388.698693 246.124504 
L 390.330123 251.235763 
L 391.961553 243.772936 
L 393.592983 250.225172 
L 395.224413 245.852422 
L 396.855843 249.739311 
L 398.487273 243.384247 
L 398.487273 243.384247 
" style="fill:none;stroke:#0000ff;stroke-linecap:square;stroke-width:1.5;"/>
   </g>
   <g id="line2d_28">
    <path clip-path="url(#p6f37f50dc4)" d="M 73.832727 284.117669 
L 75.464157 277.876959 
L 77.095587 269.188478 
L 78.727017 264.762741 
L 80.358447 259.770923 
L 81.989877 260.531285 
L 83.621307 257.820031 
L 85.252736 253.672682 
L 86.884166 247.857846 
L 88.515596 248.725364 
L 90.147026 244.181149 
L 91.778456 241.300279 
L 93.409886 245.483289 
L 95.041316 238.578266 
L 96.672746 247.086073 
L 98.304175 241.81785 
L 99.935605 241.690141 
L 101.567035 252.145543 
L 103.198465 250.760484 
L 104.829895 240.048383 
L 106.461325 246.319612 
L 108.092755 243.478888 
L 109.724185 243.244526 
L 111.355614 241.918177 
L 112.987044 239.490855 
L 114.618474 234.784232 
L 116.249904 232.434318 
L 117.881334 237.575915 
L 119.512764 233.911994 
L 121.144194 241.524092 
L 122.775624 247.911841 
L 124.407053 246.676742 
L 126.038483 236.483802 
L 127.669913 239.700699 
L 129.301343 231.548416 
L 130.932773 246.729295 
L 132.564203 242.797298 
L 134.195633 244.699512 
L 135.827063 244.968087 
L 137.458492 242.155603 
L 139.089922 231.960101 
L 140.721352 240.545343 
L 142.352782 236.564663 
L 143.984212 240.375897 
L 145.615642 242.749962 
L 147.247072 243.888082 
L 148.878502 231.237119 
L 150.509931 234.139166 
L 153.772791 245.033924 
L 155.404221 244.704382 
L 157.035651 239.082805 
L 158.667081 229.936782 
L 160.298511 231.949543 
L 161.929941 234.367981 
L 163.56137 232.328779 
L 165.1928 224.574685 
L 166.82423 221.961967 
L 168.45566 231.476059 
L 170.08709 222.248314 
L 171.71852 221.414408 
L 173.34995 226.996549 
L 174.98138 214.30707 
L 176.61281 223.442813 
L 178.244239 218.318116 
L 179.875669 222.076907 
L 181.507099 213.845541 
L 183.138529 212.795216 
L 184.769959 222.169534 
L 186.401389 221.413021 
L 188.032819 214.012523 
L 189.664249 210.358721 
L 191.295678 205.877185 
L 192.927108 204.478421 
L 194.558538 198.311773 
L 196.189968 199.196118 
L 197.821398 194.550032 
L 199.452828 214.803544 
L 201.084258 200.407981 
L 202.715688 206.374951 
L 204.347117 206.928715 
L 205.978547 193.566573 
L 207.609977 207.906111 
L 209.241407 201.89352 
L 210.872837 190.974317 
L 212.504267 203.167107 
L 214.135697 194.137233 
L 215.767127 206.60016 
L 217.398556 198.923492 
L 219.029986 201.017535 
L 220.661416 207.147922 
L 222.292846 202.80687 
L 223.924276 204.625415 
L 225.555706 196.389431 
L 227.187136 210.801551 
L 228.818566 215.639363 
L 230.449995 219.564899 
L 232.081425 219.61439 
L 233.712855 228.111249 
L 235.344285 226.481298 
L 236.975715 220.490616 
L 238.607145 204.837719 
L 240.238575 219.566374 
L 243.501434 214.614449 
L 245.132864 211.209906 
L 246.764294 225.263032 
L 248.395724 214.369101 
L 250.027154 217.153219 
L 253.290014 198.674478 
L 254.921444 199.135325 
L 256.552873 212.563649 
L 258.184303 213.188062 
L 259.815733 214.133227 
L 261.447163 219.055623 
L 263.078593 209.313758 
L 264.710023 203.100615 
L 266.341453 198.363535 
L 267.972883 204.89051 
L 269.604312 203.415345 
L 271.235742 207.686554 
L 272.867172 201.849887 
L 274.498602 197.352033 
L 276.130032 197.502985 
L 277.761462 183.363708 
L 279.392892 182.71561 
L 281.024322 182.207808 
L 282.655751 183.833767 
L 284.287181 187.684809 
L 285.918611 195.703549 
L 287.550041 183.427689 
L 289.181471 188.311347 
L 290.812901 185.895757 
L 292.444331 182.693703 
L 294.075761 184.227254 
L 295.70719 194.041915 
L 297.33862 185.609549 
L 298.97005 187.24319 
L 300.60148 181.572912 
L 302.23291 166.976882 
L 303.86434 168.410262 
L 305.49577 178.286653 
L 307.1272 167.230104 
L 308.75863 192.082959 
L 310.390059 185.218889 
L 312.021489 190.999779 
L 313.652919 183.589687 
L 315.284349 187.359481 
L 316.915779 170.344942 
L 318.547209 175.78769 
L 320.178639 179.91967 
L 321.810069 183.409873 
L 323.441498 180.355165 
L 325.072928 181.107869 
L 326.704358 172.176734 
L 328.335788 173.210771 
L 329.967218 185.063554 
L 331.598648 186.226112 
L 333.230078 181.240455 
L 334.861508 177.973951 
L 336.492937 182.978273 
L 338.124367 189.492803 
L 339.755797 192.106725 
L 341.387227 174.546748 
L 343.018657 182.049361 
L 344.650087 180.865 
L 346.281517 186.377417 
L 347.912947 186.767581 
L 351.175806 177.703308 
L 352.807236 189.011097 
L 354.438666 183.924089 
L 356.070096 194.076135 
L 357.701526 192.888991 
L 359.332956 182.653953 
L 360.964386 183.621581 
L 362.595815 175.33648 
L 364.227245 164.921799 
L 365.858675 182.849393 
L 367.490105 189.289657 
L 369.121535 176.201156 
L 370.752965 191.782632 
L 372.384395 180.675045 
L 374.015825 195.911383 
L 375.647254 184.42103 
L 377.278684 176.128565 
L 378.910114 184.461191 
L 380.541544 186.845675 
L 382.172974 179.538794 
L 383.804404 179.289957 
L 385.435834 193.805579 
L 387.067264 185.15655 
L 388.698693 175.106194 
L 390.330123 179.890801 
L 391.961553 169.683758 
L 393.592983 181.107526 
L 395.224413 172.887099 
L 396.855843 178.473524 
L 398.487273 166.923067 
L 398.487273 166.923067 
" style="fill:none;stroke:#008000;stroke-dasharray:9.6,2.4,1.5,2.4;stroke-dashoffset:0;stroke-width:1.5;"/>
   </g>
   <g id="line2d_29">
    <path clip-path="url(#p6f37f50dc4)" d="M 73.832727 199.326355 
L 75.464157 181.835352 
L 77.095587 106.041008 
L 78.727017 82.719671 
L 80.358447 106.041008 
L 81.989877 82.719671 
L 83.621307 106.041008 
L 85.252736 88.550005 
L 86.884166 106.041008 
L 88.515596 94.380339 
L 90.147026 111.871342 
L 91.778456 94.380339 
L 93.409886 106.041008 
L 95.041316 76.889337 
L 96.672746 106.041008 
L 99.935605 106.041008 
L 101.567035 88.550005 
L 103.198465 100.210674 
L 104.829895 94.380339 
L 106.461325 71.059003 
L 108.092755 100.210674 
L 109.724185 117.701676 
L 111.355614 88.550005 
L 112.987044 100.210674 
L 114.618474 76.889337 
L 116.249904 76.889337 
L 117.881334 94.380339 
L 122.775624 94.380339 
L 124.407053 100.210674 
L 126.038483 94.380339 
L 127.669913 111.871342 
L 129.301343 100.210674 
L 130.932773 100.210674 
L 132.564203 94.380339 
L 134.195633 94.380339 
L 137.458492 106.041008 
L 139.089922 88.550005 
L 140.721352 88.550005 
L 142.352782 76.889337 
L 143.984212 94.380339 
L 145.615642 100.210674 
L 147.247072 82.719671 
L 148.878502 94.380339 
L 150.509931 76.889337 
L 152.141361 106.041008 
L 153.772791 117.701676 
L 155.404221 88.550005 
L 157.035651 94.380339 
L 158.667081 94.380339 
L 160.298511 82.719671 
L 161.929941 100.210674 
L 163.56137 94.380339 
L 165.1928 82.719671 
L 166.82423 76.889337 
L 168.45566 100.210674 
L 171.71852 88.550005 
L 173.34995 94.380339 
L 174.98138 88.550005 
L 176.61281 94.380339 
L 178.244239 94.380339 
L 179.875669 100.210674 
L 181.507099 71.059003 
L 184.769959 82.719671 
L 186.401389 94.380339 
L 188.032819 94.380339 
L 189.664249 71.059003 
L 191.295678 94.380339 
L 192.927108 88.550005 
L 194.558538 88.550005 
L 196.189968 59.398334 
L 197.821398 82.719671 
L 199.452828 76.889337 
L 202.715688 76.889337 
L 204.347117 82.719671 
L 205.978547 76.889337 
L 207.609977 76.889337 
L 209.241407 82.719671 
L 210.872837 82.719671 
L 212.504267 88.550005 
L 214.135697 82.719671 
L 215.767127 94.380339 
L 217.398556 88.550005 
L 219.029986 65.228668 
L 220.661416 94.380339 
L 222.292846 88.550005 
L 223.924276 100.210674 
L 225.555706 88.550005 
L 227.187136 88.550005 
L 228.818566 82.719671 
L 230.449995 88.550005 
L 232.081425 106.041008 
L 233.712855 94.380339 
L 235.344285 88.550005 
L 240.238575 88.550005 
L 241.870005 106.041008 
L 243.501434 100.210674 
L 245.132864 82.719671 
L 246.764294 100.210674 
L 248.395724 82.719671 
L 250.027154 82.719671 
L 251.658584 88.550005 
L 254.921444 88.550005 
L 256.552873 82.719671 
L 259.815733 94.380339 
L 261.447163 94.380339 
L 263.078593 88.550005 
L 264.710023 76.889337 
L 266.341453 88.550005 
L 267.972883 88.550005 
L 269.604312 94.380339 
L 271.235742 71.059003 
L 272.867172 100.210674 
L 274.498602 100.210674 
L 276.130032 71.059003 
L 277.761462 88.550005 
L 279.392892 88.550005 
L 281.024322 76.889337 
L 284.287181 88.550005 
L 285.918611 76.889337 
L 287.550041 82.719671 
L 289.181471 76.889337 
L 290.812901 65.228668 
L 294.075761 88.550005 
L 295.70719 88.550005 
L 297.33862 82.719671 
L 298.97005 88.550005 
L 300.60148 82.719671 
L 303.86434 82.719671 
L 305.49577 88.550005 
L 307.1272 76.889337 
L 308.75863 82.719671 
L 310.390059 76.889337 
L 313.652919 76.889337 
L 315.284349 94.380339 
L 316.915779 82.719671 
L 318.547209 82.719671 
L 320.178639 94.380339 
L 321.810069 88.550005 
L 323.441498 65.228668 
L 325.072928 88.550005 
L 326.704358 88.550005 
L 328.335788 76.889337 
L 329.967218 82.719671 
L 331.598648 82.719671 
L 333.230078 94.380339 
L 334.861508 88.550005 
L 336.492937 88.550005 
L 338.124367 94.380339 
L 339.755797 53.568 
L 343.018657 88.550005 
L 344.650087 82.719671 
L 346.281517 88.550005 
L 347.912947 76.889337 
L 351.175806 88.550005 
L 352.807236 82.719671 
L 354.438666 88.550005 
L 356.070096 76.889337 
L 357.701526 76.889337 
L 359.332956 65.228668 
L 360.964386 88.550005 
L 362.595815 71.059003 
L 364.227245 82.719671 
L 365.858675 88.550005 
L 367.490105 76.889337 
L 369.121535 82.719671 
L 370.752965 82.719671 
L 372.384395 76.889337 
L 374.015825 94.380339 
L 375.647254 76.889337 
L 377.278684 76.889337 
L 378.910114 88.550005 
L 382.172974 88.550005 
L 383.804404 76.889337 
L 385.435834 82.719671 
L 387.067264 82.719671 
L 388.698693 65.228668 
L 390.330123 76.889337 
L 391.961553 82.719671 
L 393.592983 94.380339 
L 395.224413 82.719671 
L 396.855843 88.550005 
L 398.487273 88.550005 
L 398.487273 88.550005 
" style="fill:none;stroke:#ff0000;stroke-linecap:square;stroke-width:1.5;"/>
   </g>
   <g id="patch_3">
    <path d="M 57.6 307.584 
L 57.6 41.472 
" style="fill:none;stroke:#000000;stroke-linecap:square;stroke-linejoin:miter;stroke-width:0.8;"/>
   </g>
   <g id="patch_4">
    <path d="M 414.72 307.584 
L 414.72 41.472 
" style="fill:none;stroke:#000000;stroke-linecap:square;stroke-linejoin:miter;stroke-width:0.8;"/>
   </g>
   <g id="patch_5">
    <path d="M 57.6 307.584 
L 414.72 307.584 
" style="fill:none;stroke:#000000;stroke-linecap:square;stroke-linejoin:miter;stroke-width:0.8;"/>
   </g>
   <g id="patch_6">
    <path d="M 57.6 41.472 
L 414.72 41.472 
" style="fill:none;stroke:#000000;stroke-linecap:square;stroke-linejoin:miter;stroke-width:0.8;"/>
   </g>
   <g id="text_16">
    <!-- Population's average and best fitness -->
    <defs>
     <path d="M 19.671875 64.796875 
L 19.671875 37.40625 
L 32.078125 37.40625 
Q 38.96875 37.40625 42.71875 40.96875 
Q 46.484375 44.53125 46.484375 51.125 
Q 46.484375 57.671875 42.71875 61.234375 
Q 38.96875 64.796875 32.078125 64.796875 
z
M 9.8125 72.90625 
L 32.078125 72.90625 
Q 44.34375 72.90625 50.609375 67.359375 
Q 56.890625 61.8125 56.890625 51.125 
Q 56.890625 40.328125 50.609375 34.8125 
Q 44.34375 29.296875 32.078125 29.296875 
L 19.671875 29.296875 
L 19.671875 0 
L 9.8125 0 
z
" id="DejaVuSans-80"/>
     <path d="M 18.109375 8.203125 
L 18.109375 -20.796875 
L 9.078125 -20.796875 
L 9.078125 54.6875 
L 18.109375 54.6875 
L 18.109375 46.390625 
Q 20.953125 51.265625 25.265625 53.625 
Q 29.59375 56 35.59375 56 
Q 45.5625 56 51.78125 48.09375 
Q 58.015625 40.1875 58.015625 27.296875 
Q 58.015625 14.40625 51.78125 6.484375 
Q 45.5625 -1.421875 35.59375 -1.421875 
Q 29.59375 -1.421875 25.265625 0.953125 
Q 20.953125 3.328125 18.109375 8.203125 
z
M 48.6875 27.296875 
Q 48.6875 37.203125 44.609375 42.84375 
Q 40.53125 48.484375 33.40625 48.484375 
Q 26.265625 48.484375 22.1875 42.84375 
Q 18.109375 37.203125 18.109375 27.296875 
Q 18.109375 17.390625 22.1875 11.75 
Q 26.265625 6.109375 33.40625 6.109375 
Q 40.53125 6.109375 44.609375 11.75 
Q 48.6875 17.390625 48.6875 27.296875 
z
" id="DejaVuSans-112"/>
     <path d="M 8.5 21.578125 
L 8.5 54.6875 
L 17.484375 54.6875 
L 17.484375 21.921875 
Q 17.484375 14.15625 20.5 10.265625 
Q 23.53125 6.390625 29.59375 6.390625 
Q 36.859375 6.390625 41.078125 11.03125 
Q 45.3125 15.671875 45.3125 23.6875 
L 45.3125 54.6875 
L 54.296875 54.6875 
L 54.296875 0 
L 45.3125 0 
L 45.3125 8.40625 
Q 42.046875 3.421875 37.71875 1 
Q 33.40625 -1.421875 27.6875 -1.421875 
Q 18.265625 -1.421875 13.375 4.4375 
Q 8.5 10.296875 8.5 21.578125 
z
M 31.109375 56 
z
" id="DejaVuSans-117"/>
     <path d="M 9.421875 75.984375 
L 18.40625 75.984375 
L 18.40625 0 
L 9.421875 0 
z
" id="DejaVuSans-108"/>
     <path d="M 17.921875 72.90625 
L 17.921875 45.796875 
L 9.625 45.796875 
L 9.625 72.90625 
z
" id="DejaVuSans-39"/>
     <path id="DejaVuSans-32"/>
     <path d="M 2.984375 54.6875 
L 12.5 54.6875 
L 29.59375 8.796875 
L 46.6875 54.6875 
L 56.203125 54.6875 
L 35.6875 0 
L 23.484375 0 
z
" id="DejaVuSans-118"/>
     <path d="M 45.40625 27.984375 
Q 45.40625 37.75 41.375 43.109375 
Q 37.359375 48.484375 30.078125 48.484375 
Q 22.859375 48.484375 18.828125 43.109375 
Q 14.796875 37.75 14.796875 27.984375 
Q 14.796875 18.265625 18.828125 12.890625 
Q 22.859375 7.515625 30.078125 7.515625 
Q 37.359375 7.515625 41.375 12.890625 
Q 45.40625 18.265625 45.40625 27.984375 
z
M 54.390625 6.78125 
Q 54.390625 -7.171875 48.1875 -13.984375 
Q 42 -20.796875 29.203125 -20.796875 
Q 24.46875 -20.796875 20.265625 -20.09375 
Q 16.0625 -19.390625 12.109375 -17.921875 
L 12.109375 -9.1875 
Q 16.0625 -11.328125 19.921875 -12.34375 
Q 23.78125 -13.375 27.78125 -13.375 
Q 36.625 -13.375 41.015625 -8.765625 
Q 45.40625 -4.15625 45.40625 5.171875 
L 45.40625 9.625 
Q 42.625 4.78125 38.28125 2.390625 
Q 33.9375 0 27.875 0 
Q 17.828125 0 11.671875 7.65625 
Q 5.515625 15.328125 5.515625 27.984375 
Q 5.515625 40.671875 11.671875 48.328125 
Q 17.828125 56 27.875 56 
Q 33.9375 56 38.28125 53.609375 
Q 42.625 51.21875 45.40625 46.390625 
L 45.40625 54.6875 
L 54.390625 54.6875 
z
" id="DejaVuSans-103"/>
     <path d="M 45.40625 46.390625 
L 45.40625 75.984375 
L 54.390625 75.984375 
L 54.390625 0 
L 45.40625 0 
L 45.40625 8.203125 
Q 42.578125 3.328125 38.25 0.953125 
Q 33.9375 -1.421875 27.875 -1.421875 
Q 17.96875 -1.421875 11.734375 6.484375 
Q 5.515625 14.40625 5.515625 27.296875 
Q 5.515625 40.1875 11.734375 48.09375 
Q 17.96875 56 27.875 56 
Q 33.9375 56 38.25 53.625 
Q 42.578125 51.265625 45.40625 46.390625 
z
M 14.796875 27.296875 
Q 14.796875 17.390625 18.875 11.75 
Q 22.953125 6.109375 30.078125 6.109375 
Q 37.203125 6.109375 41.296875 11.75 
Q 45.40625 17.390625 45.40625 27.296875 
Q 45.40625 37.203125 41.296875 42.84375 
Q 37.203125 48.484375 30.078125 48.484375 
Q 22.953125 48.484375 18.875 42.84375 
Q 14.796875 37.203125 14.796875 27.296875 
z
" id="DejaVuSans-100"/>
     <path d="M 48.6875 27.296875 
Q 48.6875 37.203125 44.609375 42.84375 
Q 40.53125 48.484375 33.40625 48.484375 
Q 26.265625 48.484375 22.1875 42.84375 
Q 18.109375 37.203125 18.109375 27.296875 
Q 18.109375 17.390625 22.1875 11.75 
Q 26.265625 6.109375 33.40625 6.109375 
Q 40.53125 6.109375 44.609375 11.75 
Q 48.6875 17.390625 48.6875 27.296875 
z
M 18.109375 46.390625 
Q 20.953125 51.265625 25.265625 53.625 
Q 29.59375 56 35.59375 56 
Q 45.5625 56 51.78125 48.09375 
Q 58.015625 40.1875 58.015625 27.296875 
Q 58.015625 14.40625 51.78125 6.484375 
Q 45.5625 -1.421875 35.59375 -1.421875 
Q 29.59375 -1.421875 25.265625 0.953125 
Q 20.953125 3.328125 18.109375 8.203125 
L 18.109375 0 
L 9.078125 0 
L 9.078125 75.984375 
L 18.109375 75.984375 
z
" id="DejaVuSans-98"/>
     <path d="M 37.109375 75.984375 
L 37.109375 68.5 
L 28.515625 68.5 
Q 23.6875 68.5 21.796875 66.546875 
Q 19.921875 64.59375 19.921875 59.515625 
L 19.921875 54.6875 
L 34.71875 54.6875 
L 34.71875 47.703125 
L 19.921875 47.703125 
L 19.921875 0 
L 10.890625 0 
L 10.890625 47.703125 
L 2.296875 47.703125 
L 2.296875 54.6875 
L 10.890625 54.6875 
L 10.890625 58.5 
Q 10.890625 67.625 15.140625 71.796875 
Q 19.390625 75.984375 28.609375 75.984375 
z
" id="DejaVuSans-102"/>
    </defs>
    <g transform="translate(123.315 35.472)scale(0.12 -0.12)">
     <use xlink:href="#DejaVuSans-80"/>
     <use x="60.255859" xlink:href="#DejaVuSans-111"/>
     <use x="121.4375" xlink:href="#DejaVuSans-112"/>
     <use x="184.914062" xlink:href="#DejaVuSans-117"/>
     <use x="248.292969" xlink:href="#DejaVuSans-108"/>
     <use x="276.076172" xlink:href="#DejaVuSans-97"/>
     <use x="337.355469" xlink:href="#DejaVuSans-116"/>
     <use x="376.564453" xlink:href="#DejaVuSans-105"/>
     <use x="404.347656" xlink:href="#DejaVuSans-111"/>
     <use x="465.529297" xlink:href="#DejaVuSans-110"/>
     <use x="528.908203" xlink:href="#DejaVuSans-39"/>
     <use x="556.398438" xlink:href="#DejaVuSans-115"/>
     <use x="608.498047" xlink:href="#DejaVuSans-32"/>
     <use x="640.285156" xlink:href="#DejaVuSans-97"/>
     <use x="701.564453" xlink:href="#DejaVuSans-118"/>
     <use x="760.744141" xlink:href="#DejaVuSans-101"/>
     <use x="822.267578" xlink:href="#DejaVuSans-114"/>
     <use x="863.380859" xlink:href="#DejaVuSans-97"/>
     <use x="924.660156" xlink:href="#DejaVuSans-103"/>
     <use x="988.136719" xlink:href="#DejaVuSans-101"/>
     <use x="1049.660156" xlink:href="#DejaVuSans-32"/>
     <use x="1081.447266" xlink:href="#DejaVuSans-97"/>
     <use x="1142.726562" xlink:href="#DejaVuSans-110"/>
     <use x="1206.105469" xlink:href="#DejaVuSans-100"/>
     <use x="1269.582031" xlink:href="#DejaVuSans-32"/>
     <use x="1301.369141" xlink:href="#DejaVuSans-98"/>
     <use x="1364.845703" xlink:href="#DejaVuSans-101"/>
     <use x="1426.369141" xlink:href="#DejaVuSans-115"/>
     <use x="1478.46875" xlink:href="#DejaVuSans-116"/>
     <use x="1517.677734" xlink:href="#DejaVuSans-32"/>
     <use x="1549.464844" xlink:href="#DejaVuSans-102"/>
     <use x="1584.669922" xlink:href="#DejaVuSans-105"/>
     <use x="1612.453125" xlink:href="#DejaVuSans-116"/>
     <use x="1651.662109" xlink:href="#DejaVuSans-110"/>
     <use x="1715.041016" xlink:href="#DejaVuSans-101"/>
     <use x="1776.564453" xlink:href="#DejaVuSans-115"/>
     <use x="1828.664062" xlink:href="#DejaVuSans-115"/>
    </g>
   </g>
   <g id="legend_1">
    <g id="patch_7">
     <path d="M 64.6 198.045187 
L 137.540625 198.045187 
Q 139.540625 198.045187 139.540625 196.045187 
L 139.540625 153.010812 
Q 139.540625 151.010812 137.540625 151.010812 
L 64.6 151.010812 
Q 62.6 151.010812 62.6 153.010812 
L 62.6 196.045187 
Q 62.6 198.045187 64.6 198.045187 
z
" style="fill:#ffffff;opacity:0.8;stroke:#cccccc;stroke-linejoin:miter;"/>
    </g>
    <g id="line2d_30">
     <path d="M 66.6 159.10925 
L 86.6 159.10925 
" style="fill:none;stroke:#0000ff;stroke-linecap:square;stroke-width:1.5;"/>
    </g>
    <g id="line2d_31"/>
    <g id="text_17">
     <!-- average -->
     <g transform="translate(94.6 162.60925)scale(0.1 -0.1)">
      <use xlink:href="#DejaVuSans-97"/>
      <use x="61.279297" xlink:href="#DejaVuSans-118"/>
      <use x="120.458984" xlink:href="#DejaVuSans-101"/>
      <use x="181.982422" xlink:href="#DejaVuSans-114"/>
      <use x="223.095703" xlink:href="#DejaVuSans-97"/>
      <use x="284.375" xlink:href="#DejaVuSans-103"/>
      <use x="347.851562" xlink:href="#DejaVuSans-101"/>
     </g>
    </g>
    <g id="line2d_32">
     <path d="M 66.6 173.787375 
L 86.6 173.787375 
" style="fill:none;stroke:#008000;stroke-dasharray:9.6,2.4,1.5,2.4;stroke-dashoffset:0;stroke-width:1.5;"/>
    </g>
    <g id="line2d_33"/>
    <g id="text_18">
     <!-- +1 sd -->
     <defs>
      <path d="M 46 62.703125 
L 46 35.5 
L 73.1875 35.5 
L 73.1875 27.203125 
L 46 27.203125 
L 46 0 
L 37.796875 0 
L 37.796875 27.203125 
L 10.59375 27.203125 
L 10.59375 35.5 
L 37.796875 35.5 
L 37.796875 62.703125 
z
" id="DejaVuSans-43"/>
     </defs>
     <g transform="translate(94.6 177.287375)scale(0.1 -0.1)">
      <use xlink:href="#DejaVuSans-43"/>
      <use x="83.789062" xlink:href="#DejaVuSans-49"/>
      <use x="147.412109" xlink:href="#DejaVuSans-32"/>
      <use x="179.199219" xlink:href="#DejaVuSans-115"/>
      <use x="231.298828" xlink:href="#DejaVuSans-100"/>
     </g>
    </g>
    <g id="line2d_34">
     <path d="M 66.6 188.4655 
L 86.6 188.4655 
" style="fill:none;stroke:#ff0000;stroke-linecap:square;stroke-width:1.5;"/>
    </g>
    <g id="line2d_35"/>
    <g id="text_19">
     <!-- best -->
     <g transform="translate(94.6 191.9655)scale(0.1 -0.1)">
      <use xlink:href="#DejaVuSans-98"/>
      <use x="63.476562" xlink:href="#DejaVuSans-101"/>
      <use x="125" xlink:href="#DejaVuSans-115"/>
      <use x="177.099609" xlink:href="#DejaVuSans-116"/>
     </g>
    </g>
   </g>
  </g>
 </g>
 <defs>
  <clipPath id="p6f37f50dc4">
   <rect height="266.112" width="357.12" x="57.6" y="41.472"/>
  </clipPath>
 </defs>
</svg>
