<?xml version="1.0" encoding="utf-8" standalone="no"?>
<!DOCTYPE svg PUBLIC "-//W3C//DTD SVG 1.1//EN"
  "http://www.w3.org/Graphics/SVG/1.1/DTD/svg11.dtd">
<!-- Created with matplotlib (https://matplotlib.org/) -->
<svg height="345.6pt" version="1.1" viewBox="0 0 460.8 345.6" width="460.8pt" xmlns="http://www.w3.org/2000/svg" xmlns:xlink="http://www.w3.org/1999/xlink">
 <defs>
  <style type="text/css">
*{stroke-linecap:butt;stroke-linejoin:round;}
  </style>
 </defs>
 <g id="figure_1">
  <g id="patch_1">
   <path d="M 0 345.6 
L 460.8 345.6 
L 460.8 0 
L 0 0 
z
" style="fill:#ffffff;"/>
  </g>
  <g id="axes_1">
   <g id="patch_2">
    <path d="M 57.6 307.584 
L 414.72 307.584 
L 414.72 41.472 
L 57.6 41.472 
z
" style="fill:#ffffff;"/>
   </g>
   <g id="matplotlib.axis_1">
    <g id="xtick_1">
     <g id="line2d_1">
      <path clip-path="url(#p772b4347db)" d="M 73.832727 307.584 
L 73.832727 41.472 
" style="fill:none;stroke:#b0b0b0;stroke-linecap:square;stroke-width:0.8;"/>
     </g>
     <g id="line2d_2">
      <defs>
       <path d="M 0 0 
L 0 3.5 
" id="mbe5afbdd3b" style="stroke:#000000;stroke-width:0.8;"/>
      </defs>
      <g>
       <use style="stroke:#000000;stroke-width:0.8;" x="73.832727" xlink:href="#mbe5afbdd3b" y="307.584"/>
      </g>
     </g>
     <g id="text_1">
      <!-- 0 -->
      <defs>
       <path d="M 31.78125 66.40625 
Q 24.171875 66.40625 20.328125 58.90625 
Q 16.5 51.421875 16.5 36.375 
Q 16.5 21.390625 20.328125 13.890625 
Q 24.171875 6.390625 31.78125 6.390625 
Q 39.453125 6.390625 43.28125 13.890625 
Q 47.125 21.390625 47.125 36.375 
Q 47.125 51.421875 43.28125 58.90625 
Q 39.453125 66.40625 31.78125 66.40625 
z
M 31.78125 74.21875 
Q 44.046875 74.21875 50.515625 64.515625 
Q 56.984375 54.828125 56.984375 36.375 
Q 56.984375 17.96875 50.515625 8.265625 
Q 44.046875 -1.421875 31.78125 -1.421875 
Q 19.53125 -1.421875 13.0625 8.265625 
Q 6.59375 17.96875 6.59375 36.375 
Q 6.59375 54.828125 13.0625 64.515625 
Q 19.53125 74.21875 31.78125 74.21875 
z
" id="DejaVuSans-48"/>
      </defs>
      <g transform="translate(70.651477 322.182437)scale(0.1 -0.1)">
       <use xlink:href="#DejaVuSans-48"/>
      </g>
     </g>
    </g>
    <g id="xtick_2">
     <g id="line2d_3">
      <path clip-path="url(#p772b4347db)" d="M 128.122785 307.584 
L 128.122785 41.472 
" style="fill:none;stroke:#b0b0b0;stroke-linecap:square;stroke-width:0.8;"/>
     </g>
     <g id="line2d_4">
      <g>
       <use style="stroke:#000000;stroke-width:0.8;" x="128.122785" xlink:href="#mbe5afbdd3b" y="307.584"/>
      </g>
     </g>
     <g id="text_2">
      <!-- 50 -->
      <defs>
       <path d="M 10.796875 72.90625 
L 49.515625 72.90625 
L 49.515625 64.59375 
L 19.828125 64.59375 
L 19.828125 46.734375 
Q 21.96875 47.46875 24.109375 47.828125 
Q 26.265625 48.1875 28.421875 48.1875 
Q 40.625 48.1875 47.75 41.5 
Q 54.890625 34.8125 54.890625 23.390625 
Q 54.890625 11.625 47.5625 5.09375 
Q 40.234375 -1.421875 26.90625 -1.421875 
Q 22.3125 -1.421875 17.546875 -0.640625 
Q 12.796875 0.140625 7.71875 1.703125 
L 7.71875 11.625 
Q 12.109375 9.234375 16.796875 8.0625 
Q 21.484375 6.890625 26.703125 6.890625 
Q 35.15625 6.890625 40.078125 11.328125 
Q 45.015625 15.765625 45.015625 23.390625 
Q 45.015625 31 40.078125 35.4375 
Q 35.15625 39.890625 26.703125 39.890625 
Q 22.75 39.890625 18.8125 39.015625 
Q 14.890625 38.140625 10.796875 36.28125 
z
" id="DejaVuSans-53"/>
      </defs>
      <g transform="translate(121.760285 322.182437)scale(0.1 -0.1)">
       <use xlink:href="#DejaVuSans-53"/>
       <use x="63.623047" xlink:href="#DejaVuSans-48"/>
      </g>
     </g>
    </g>
    <g id="xtick_3">
     <g id="line2d_5">
      <path clip-path="url(#p772b4347db)" d="M 182.412843 307.584 
L 182.412843 41.472 
" style="fill:none;stroke:#b0b0b0;stroke-linecap:square;stroke-width:0.8;"/>
     </g>
     <g id="line2d_6">
      <g>
       <use style="stroke:#000000;stroke-width:0.8;" x="182.412843" xlink:href="#mbe5afbdd3b" y="307.584"/>
      </g>
     </g>
     <g id="text_3">
      <!-- 100 -->
      <defs>
       <path d="M 12.40625 8.296875 
L 28.515625 8.296875 
L 28.515625 63.921875 
L 10.984375 60.40625 
L 10.984375 69.390625 
L 28.421875 72.90625 
L 38.28125 72.90625 
L 38.28125 8.296875 
L 54.390625 8.296875 
L 54.390625 0 
L 12.40625 0 
z
" id="DejaVuSans-49"/>
      </defs>
      <g transform="translate(172.869093 322.182437)scale(0.1 -0.1)">
       <use xlink:href="#DejaVuSans-49"/>
       <use x="63.623047" xlink:href="#DejaVuSans-48"/>
       <use x="127.246094" xlink:href="#DejaVuSans-48"/>
      </g>
     </g>
    </g>
    <g id="xtick_4">
     <g id="line2d_7">
      <path clip-path="url(#p772b4347db)" d="M 236.702901 307.584 
L 236.702901 41.472 
" style="fill:none;stroke:#b0b0b0;stroke-linecap:square;stroke-width:0.8;"/>
     </g>
     <g id="line2d_8">
      <g>
       <use style="stroke:#000000;stroke-width:0.8;" x="236.702901" xlink:href="#mbe5afbdd3b" y="307.584"/>
      </g>
     </g>
     <g id="text_4">
      <!-- 150 -->
      <g transform="translate(227.159151 322.182437)scale(0.1 -0.1)">
       <use xlink:href="#DejaVuSans-49"/>
       <use x="63.623047" xlink:href="#DejaVuSans-53"/>
       <use x="127.246094" xlink:href="#DejaVuSans-48"/>
      </g>
     </g>
    </g>
    <g id="xtick_5">
     <g id="line2d_9">
      <path clip-path="url(#p772b4347db)" d="M 290.992958 307.584 
L 290.992958 41.472 
" style="fill:none;stroke:#b0b0b0;stroke-linecap:square;stroke-width:0.8;"/>
     </g>
     <g id="line2d_10">
      <g>
       <use style="stroke:#000000;stroke-width:0.8;" x="290.992958" xlink:href="#mbe5afbdd3b" y="307.584"/>
      </g>
     </g>
     <g id="text_5">
      <!-- 200 -->
      <defs>
       <path d="M 19.1875 8.296875 
L 53.609375 8.296875 
L 53.609375 0 
L 7.328125 0 
L 7.328125 8.296875 
Q 12.9375 14.109375 22.625 23.890625 
Q 32.328125 33.6875 34.8125 36.53125 
Q 39.546875 41.84375 41.421875 45.53125 
Q 43.3125 49.21875 43.3125 52.78125 
Q 43.3125 58.59375 39.234375 62.25 
Q 35.15625 65.921875 28.609375 65.921875 
Q 23.96875 65.921875 18.8125 64.3125 
Q 13.671875 62.703125 7.8125 59.421875 
L 7.8125 69.390625 
Q 13.765625 71.78125 18.9375 73 
Q 24.125 74.21875 28.421875 74.21875 
Q 39.75 74.21875 46.484375 68.546875 
Q 53.21875 62.890625 53.21875 53.421875 
Q 53.21875 48.921875 51.53125 44.890625 
Q 49.859375 40.875 45.40625 35.40625 
Q 44.1875 33.984375 37.640625 27.21875 
Q 31.109375 20.453125 19.1875 8.296875 
z
" id="DejaVuSans-50"/>
      </defs>
      <g transform="translate(281.449208 322.182437)scale(0.1 -0.1)">
       <use xlink:href="#DejaVuSans-50"/>
       <use x="63.623047" xlink:href="#DejaVuSans-48"/>
       <use x="127.246094" xlink:href="#DejaVuSans-48"/>
      </g>
     </g>
    </g>
    <g id="xtick_6">
     <g id="line2d_11">
      <path clip-path="url(#p772b4347db)" d="M 345.283016 307.584 
L 345.283016 41.472 
" style="fill:none;stroke:#b0b0b0;stroke-linecap:square;stroke-width:0.8;"/>
     </g>
     <g id="line2d_12">
      <g>
       <use style="stroke:#000000;stroke-width:0.8;" x="345.283016" xlink:href="#mbe5afbdd3b" y="307.584"/>
      </g>
     </g>
     <g id="text_6">
      <!-- 250 -->
      <g transform="translate(335.739266 322.182437)scale(0.1 -0.1)">
       <use xlink:href="#DejaVuSans-50"/>
       <use x="63.623047" xlink:href="#DejaVuSans-53"/>
       <use x="127.246094" xlink:href="#DejaVuSans-48"/>
      </g>
     </g>
    </g>
    <g id="xtick_7">
     <g id="line2d_13">
      <path clip-path="url(#p772b4347db)" d="M 399.573074 307.584 
L 399.573074 41.472 
" style="fill:none;stroke:#b0b0b0;stroke-linecap:square;stroke-width:0.8;"/>
     </g>
     <g id="line2d_14">
      <g>
       <use style="stroke:#000000;stroke-width:0.8;" x="399.573074" xlink:href="#mbe5afbdd3b" y="307.584"/>
      </g>
     </g>
     <g id="text_7">
      <!-- 300 -->
      <defs>
       <path d="M 40.578125 39.3125 
Q 47.65625 37.796875 51.625 33 
Q 55.609375 28.21875 55.609375 21.1875 
Q 55.609375 10.40625 48.1875 4.484375 
Q 40.765625 -1.421875 27.09375 -1.421875 
Q 22.515625 -1.421875 17.65625 -0.515625 
Q 12.796875 0.390625 7.625 2.203125 
L 7.625 11.71875 
Q 11.71875 9.328125 16.59375 8.109375 
Q 21.484375 6.890625 26.8125 6.890625 
Q 36.078125 6.890625 40.9375 10.546875 
Q 45.796875 14.203125 45.796875 21.1875 
Q 45.796875 27.640625 41.28125 31.265625 
Q 36.765625 34.90625 28.71875 34.90625 
L 20.21875 34.90625 
L 20.21875 43.015625 
L 29.109375 43.015625 
Q 36.375 43.015625 40.234375 45.921875 
Q 44.09375 48.828125 44.09375 54.296875 
Q 44.09375 59.90625 40.109375 62.90625 
Q 36.140625 65.921875 28.71875 65.921875 
Q 24.65625 65.921875 20.015625 65.03125 
Q 15.375 64.15625 9.8125 62.3125 
L 9.8125 71.09375 
Q 15.4375 72.65625 20.34375 73.4375 
Q 25.25 74.21875 29.59375 74.21875 
Q 40.828125 74.21875 47.359375 69.109375 
Q 53.90625 64.015625 53.90625 55.328125 
Q 53.90625 49.265625 50.4375 45.09375 
Q 46.96875 40.921875 40.578125 39.3125 
z
" id="DejaVuSans-51"/>
      </defs>
      <g transform="translate(390.029324 322.182437)scale(0.1 -0.1)">
       <use xlink:href="#DejaVuSans-51"/>
       <use x="63.623047" xlink:href="#DejaVuSans-48"/>
       <use x="127.246094" xlink:href="#DejaVuSans-48"/>
      </g>
     </g>
    </g>
    <g id="text_8">
     <!-- Generations -->
     <defs>
      <path d="M 59.515625 10.40625 
L 59.515625 29.984375 
L 43.40625 29.984375 
L 43.40625 38.09375 
L 69.28125 38.09375 
L 69.28125 6.78125 
Q 63.578125 2.734375 56.6875 0.65625 
Q 49.8125 -1.421875 42 -1.421875 
Q 24.90625 -1.421875 15.25 8.5625 
Q 5.609375 18.5625 5.609375 36.375 
Q 5.609375 54.25 15.25 64.234375 
Q 24.90625 74.21875 42 74.21875 
Q 49.125 74.21875 55.546875 72.453125 
Q 61.96875 70.703125 67.390625 67.28125 
L 67.390625 56.78125 
Q 61.921875 61.421875 55.765625 63.765625 
Q 49.609375 66.109375 42.828125 66.109375 
Q 29.4375 66.109375 22.71875 58.640625 
Q 16.015625 51.171875 16.015625 36.375 
Q 16.015625 21.625 22.71875 14.15625 
Q 29.4375 6.6875 42.828125 6.6875 
Q 48.046875 6.6875 52.140625 7.59375 
Q 56.25 8.5 59.515625 10.40625 
z
" id="DejaVuSans-71"/>
      <path d="M 56.203125 29.59375 
L 56.203125 25.203125 
L 14.890625 25.203125 
Q 15.484375 15.921875 20.484375 11.0625 
Q 25.484375 6.203125 34.421875 6.203125 
Q 39.59375 6.203125 44.453125 7.46875 
Q 49.3125 8.734375 54.109375 11.28125 
L 54.109375 2.78125 
Q 49.265625 0.734375 44.1875 -0.34375 
Q 39.109375 -1.421875 33.890625 -1.421875 
Q 20.796875 -1.421875 13.15625 6.1875 
Q 5.515625 13.8125 5.515625 26.8125 
Q 5.515625 40.234375 12.765625 48.109375 
Q 20.015625 56 32.328125 56 
Q 43.359375 56 49.78125 48.890625 
Q 56.203125 41.796875 56.203125 29.59375 
z
M 47.21875 32.234375 
Q 47.125 39.59375 43.09375 43.984375 
Q 39.0625 48.390625 32.421875 48.390625 
Q 24.90625 48.390625 20.390625 44.140625 
Q 15.875 39.890625 15.1875 32.171875 
z
" id="DejaVuSans-101"/>
      <path d="M 54.890625 33.015625 
L 54.890625 0 
L 45.90625 0 
L 45.90625 32.71875 
Q 45.90625 40.484375 42.875 44.328125 
Q 39.84375 48.1875 33.796875 48.1875 
Q 26.515625 48.1875 22.3125 43.546875 
Q 18.109375 38.921875 18.109375 30.90625 
L 18.109375 0 
L 9.078125 0 
L 9.078125 54.6875 
L 18.109375 54.6875 
L 18.109375 46.1875 
Q 21.34375 51.125 25.703125 53.5625 
Q 30.078125 56 35.796875 56 
Q 45.21875 56 50.046875 50.171875 
Q 54.890625 44.34375 54.890625 33.015625 
z
" id="DejaVuSans-110"/>
      <path d="M 41.109375 46.296875 
Q 39.59375 47.171875 37.8125 47.578125 
Q 36.03125 48 33.890625 48 
Q 26.265625 48 22.1875 43.046875 
Q 18.109375 38.09375 18.109375 28.8125 
L 18.109375 0 
L 9.078125 0 
L 9.078125 54.6875 
L 18.109375 54.6875 
L 18.109375 46.1875 
Q 20.953125 51.171875 25.484375 53.578125 
Q 30.03125 56 36.53125 56 
Q 37.453125 56 38.578125 55.875 
Q 39.703125 55.765625 41.0625 55.515625 
z
" id="DejaVuSans-114"/>
      <path d="M 34.28125 27.484375 
Q 23.390625 27.484375 19.1875 25 
Q 14.984375 22.515625 14.984375 16.5 
Q 14.984375 11.71875 18.140625 8.90625 
Q 21.296875 6.109375 26.703125 6.109375 
Q 34.1875 6.109375 38.703125 11.40625 
Q 43.21875 16.703125 43.21875 25.484375 
L 43.21875 27.484375 
z
M 52.203125 31.203125 
L 52.203125 0 
L 43.21875 0 
L 43.21875 8.296875 
Q 40.140625 3.328125 35.546875 0.953125 
Q 30.953125 -1.421875 24.3125 -1.421875 
Q 15.921875 -1.421875 10.953125 3.296875 
Q 6 8.015625 6 15.921875 
Q 6 25.140625 12.171875 29.828125 
Q 18.359375 34.515625 30.609375 34.515625 
L 43.21875 34.515625 
L 43.21875 35.40625 
Q 43.21875 41.609375 39.140625 45 
Q 35.0625 48.390625 27.6875 48.390625 
Q 23 48.390625 18.546875 47.265625 
Q 14.109375 46.140625 10.015625 43.890625 
L 10.015625 52.203125 
Q 14.9375 54.109375 19.578125 55.046875 
Q 24.21875 56 28.609375 56 
Q 40.484375 56 46.34375 49.84375 
Q 52.203125 43.703125 52.203125 31.203125 
z
" id="DejaVuSans-97"/>
      <path d="M 18.3125 70.21875 
L 18.3125 54.6875 
L 36.8125 54.6875 
L 36.8125 47.703125 
L 18.3125 47.703125 
L 18.3125 18.015625 
Q 18.3125 11.328125 20.140625 9.421875 
Q 21.96875 7.515625 27.59375 7.515625 
L 36.8125 7.515625 
L 36.8125 0 
L 27.59375 0 
Q 17.1875 0 13.234375 3.875 
Q 9.28125 7.765625 9.28125 18.015625 
L 9.28125 47.703125 
L 2.6875 47.703125 
L 2.6875 54.6875 
L 9.28125 54.6875 
L 9.28125 70.21875 
z
" id="DejaVuSans-116"/>
      <path d="M 9.421875 54.6875 
L 18.40625 54.6875 
L 18.40625 0 
L 9.421875 0 
z
M 9.421875 75.984375 
L 18.40625 75.984375 
L 18.40625 64.59375 
L 9.421875 64.59375 
z
" id="DejaVuSans-105"/>
      <path d="M 30.609375 48.390625 
Q 23.390625 48.390625 19.1875 42.75 
Q 14.984375 37.109375 14.984375 27.296875 
Q 14.984375 17.484375 19.15625 11.84375 
Q 23.34375 6.203125 30.609375 6.203125 
Q 37.796875 6.203125 41.984375 11.859375 
Q 46.1875 17.53125 46.1875 27.296875 
Q 46.1875 37.015625 41.984375 42.703125 
Q 37.796875 48.390625 30.609375 48.390625 
z
M 30.609375 56 
Q 42.328125 56 49.015625 48.375 
Q 55.71875 40.765625 55.71875 27.296875 
Q 55.71875 13.875 49.015625 6.21875 
Q 42.328125 -1.421875 30.609375 -1.421875 
Q 18.84375 -1.421875 12.171875 6.21875 
Q 5.515625 13.875 5.515625 27.296875 
Q 5.515625 40.765625 12.171875 48.375 
Q 18.84375 56 30.609375 56 
z
" id="DejaVuSans-111"/>
      <path d="M 44.28125 53.078125 
L 44.28125 44.578125 
Q 40.484375 46.53125 36.375 47.5 
Q 32.28125 48.484375 27.875 48.484375 
Q 21.1875 48.484375 17.84375 46.4375 
Q 14.5 44.390625 14.5 40.28125 
Q 14.5 37.15625 16.890625 35.375 
Q 19.28125 33.59375 26.515625 31.984375 
L 29.59375 31.296875 
Q 39.15625 29.25 43.1875 25.515625 
Q 47.21875 21.78125 47.21875 15.09375 
Q 47.21875 7.46875 41.1875 3.015625 
Q 35.15625 -1.421875 24.609375 -1.421875 
Q 20.21875 -1.421875 15.453125 -0.5625 
Q 10.6875 0.296875 5.421875 2 
L 5.421875 11.28125 
Q 10.40625 8.6875 15.234375 7.390625 
Q 20.0625 6.109375 24.8125 6.109375 
Q 31.15625 6.109375 34.5625 8.28125 
Q 37.984375 10.453125 37.984375 14.40625 
Q 37.984375 18.0625 35.515625 20.015625 
Q 33.0625 21.96875 24.703125 23.78125 
L 21.578125 24.515625 
Q 13.234375 26.265625 9.515625 29.90625 
Q 5.8125 33.546875 5.8125 39.890625 
Q 5.8125 47.609375 11.28125 51.796875 
Q 16.75 56 26.8125 56 
Q 31.78125 56 36.171875 55.265625 
Q 40.578125 54.546875 44.28125 53.078125 
z
" id="DejaVuSans-115"/>
     </defs>
     <g transform="translate(205.662344 335.860562)scale(0.1 -0.1)">
      <use xlink:href="#DejaVuSans-71"/>
      <use x="77.490234" xlink:href="#DejaVuSans-101"/>
      <use x="139.013672" xlink:href="#DejaVuSans-110"/>
      <use x="202.392578" xlink:href="#DejaVuSans-101"/>
      <use x="263.916016" xlink:href="#DejaVuSans-114"/>
      <use x="305.029297" xlink:href="#DejaVuSans-97"/>
      <use x="366.308594" xlink:href="#DejaVuSans-116"/>
      <use x="405.517578" xlink:href="#DejaVuSans-105"/>
      <use x="433.300781" xlink:href="#DejaVuSans-111"/>
      <use x="494.482422" xlink:href="#DejaVuSans-110"/>
      <use x="557.861328" xlink:href="#DejaVuSans-115"/>
     </g>
    </g>
   </g>
   <g id="matplotlib.axis_2">
    <g id="ytick_1">
     <g id="line2d_15">
      <path clip-path="url(#p772b4347db)" d="M 57.6 290.636869 
L 414.72 290.636869 
" style="fill:none;stroke:#b0b0b0;stroke-linecap:square;stroke-width:0.8;"/>
     </g>
     <g id="line2d_16">
      <defs>
       <path d="M 0 0 
L -3.5 0 
" id="mcfb92e4e31" style="stroke:#000000;stroke-width:0.8;"/>
      </defs>
      <g>
       <use style="stroke:#000000;stroke-width:0.8;" x="57.6" xlink:href="#mcfb92e4e31" y="290.636869"/>
      </g>
     </g>
     <g id="text_9">
      <!-- 5 -->
      <g transform="translate(44.2375 294.436087)scale(0.1 -0.1)">
       <use xlink:href="#DejaVuSans-53"/>
      </g>
     </g>
    </g>
    <g id="ytick_2">
     <g id="line2d_17">
      <path clip-path="url(#p772b4347db)" d="M 57.6 257.710637 
L 414.72 257.710637 
" style="fill:none;stroke:#b0b0b0;stroke-linecap:square;stroke-width:0.8;"/>
     </g>
     <g id="line2d_18">
      <g>
       <use style="stroke:#000000;stroke-width:0.8;" x="57.6" xlink:href="#mcfb92e4e31" y="257.710637"/>
      </g>
     </g>
     <g id="text_10">
      <!-- 10 -->
      <g transform="translate(37.875 261.509856)scale(0.1 -0.1)">
       <use xlink:href="#DejaVuSans-49"/>
       <use x="63.623047" xlink:href="#DejaVuSans-48"/>
      </g>
     </g>
    </g>
    <g id="ytick_3">
     <g id="line2d_19">
      <path clip-path="url(#p772b4347db)" d="M 57.6 224.784405 
L 414.72 224.784405 
" style="fill:none;stroke:#b0b0b0;stroke-linecap:square;stroke-width:0.8;"/>
     </g>
     <g id="line2d_20">
      <g>
       <use style="stroke:#000000;stroke-width:0.8;" x="57.6" xlink:href="#mcfb92e4e31" y="224.784405"/>
      </g>
     </g>
     <g id="text_11">
      <!-- 15 -->
      <g transform="translate(37.875 228.583624)scale(0.1 -0.1)">
       <use xlink:href="#DejaVuSans-49"/>
       <use x="63.623047" xlink:href="#DejaVuSans-53"/>
      </g>
     </g>
    </g>
    <g id="ytick_4">
     <g id="line2d_21">
      <path clip-path="url(#p772b4347db)" d="M 57.6 191.858173 
L 414.72 191.858173 
" style="fill:none;stroke:#b0b0b0;stroke-linecap:square;stroke-width:0.8;"/>
     </g>
     <g id="line2d_22">
      <g>
       <use style="stroke:#000000;stroke-width:0.8;" x="57.6" xlink:href="#mcfb92e4e31" y="191.858173"/>
      </g>
     </g>
     <g id="text_12">
      <!-- 20 -->
      <g transform="translate(37.875 195.657392)scale(0.1 -0.1)">
       <use xlink:href="#DejaVuSans-50"/>
       <use x="63.623047" xlink:href="#DejaVuSans-48"/>
      </g>
     </g>
    </g>
    <g id="ytick_5">
     <g id="line2d_23">
      <path clip-path="url(#p772b4347db)" d="M 57.6 158.931942 
L 414.72 158.931942 
" style="fill:none;stroke:#b0b0b0;stroke-linecap:square;stroke-width:0.8;"/>
     </g>
     <g id="line2d_24">
      <g>
       <use style="stroke:#000000;stroke-width:0.8;" x="57.6" xlink:href="#mcfb92e4e31" y="158.931942"/>
      </g>
     </g>
     <g id="text_13">
      <!-- 25 -->
      <g transform="translate(37.875 162.73116)scale(0.1 -0.1)">
       <use xlink:href="#DejaVuSans-50"/>
       <use x="63.623047" xlink:href="#DejaVuSans-53"/>
      </g>
     </g>
    </g>
    <g id="ytick_6">
     <g id="line2d_25">
      <path clip-path="url(#p772b4347db)" d="M 57.6 126.00571 
L 414.72 126.00571 
" style="fill:none;stroke:#b0b0b0;stroke-linecap:square;stroke-width:0.8;"/>
     </g>
     <g id="line2d_26">
      <g>
       <use style="stroke:#000000;stroke-width:0.8;" x="57.6" xlink:href="#mcfb92e4e31" y="126.00571"/>
      </g>
     </g>
     <g id="text_14">
      <!-- 30 -->
      <g transform="translate(37.875 129.804929)scale(0.1 -0.1)">
       <use xlink:href="#DejaVuSans-51"/>
       <use x="63.623047" xlink:href="#DejaVuSans-48"/>
      </g>
     </g>
    </g>
    <g id="ytick_7">
     <g id="line2d_27">
      <path clip-path="url(#p772b4347db)" d="M 57.6 93.079478 
L 414.72 93.079478 
" style="fill:none;stroke:#b0b0b0;stroke-linecap:square;stroke-width:0.8;"/>
     </g>
     <g id="line2d_28">
      <g>
       <use style="stroke:#000000;stroke-width:0.8;" x="57.6" xlink:href="#mcfb92e4e31" y="93.079478"/>
      </g>
     </g>
     <g id="text_15">
      <!-- 35 -->
      <g transform="translate(37.875 96.878697)scale(0.1 -0.1)">
       <use xlink:href="#DejaVuSans-51"/>
       <use x="63.623047" xlink:href="#DejaVuSans-53"/>
      </g>
     </g>
    </g>
    <g id="ytick_8">
     <g id="line2d_29">
      <path clip-path="url(#p772b4347db)" d="M 57.6 60.153246 
L 414.72 60.153246 
" style="fill:none;stroke:#b0b0b0;stroke-linecap:square;stroke-width:0.8;"/>
     </g>
     <g id="line2d_30">
      <g>
       <use style="stroke:#000000;stroke-width:0.8;" x="57.6" xlink:href="#mcfb92e4e31" y="60.153246"/>
      </g>
     </g>
     <g id="text_16">
      <!-- 40 -->
      <defs>
       <path d="M 37.796875 64.3125 
L 12.890625 25.390625 
L 37.796875 25.390625 
z
M 35.203125 72.90625 
L 47.609375 72.90625 
L 47.609375 25.390625 
L 58.015625 25.390625 
L 58.015625 17.1875 
L 47.609375 17.1875 
L 47.609375 0 
L 37.796875 0 
L 37.796875 17.1875 
L 4.890625 17.1875 
L 4.890625 26.703125 
z
" id="DejaVuSans-52"/>
      </defs>
      <g transform="translate(37.875 63.952465)scale(0.1 -0.1)">
       <use xlink:href="#DejaVuSans-52"/>
       <use x="63.623047" xlink:href="#DejaVuSans-48"/>
      </g>
     </g>
    </g>
    <g id="text_17">
     <!-- Fitness -->
     <defs>
      <path d="M 9.8125 72.90625 
L 51.703125 72.90625 
L 51.703125 64.59375 
L 19.671875 64.59375 
L 19.671875 43.109375 
L 48.578125 43.109375 
L 48.578125 34.8125 
L 19.671875 34.8125 
L 19.671875 0 
L 9.8125 0 
z
" id="DejaVuSans-70"/>
     </defs>
     <g transform="translate(31.795312 192.202219)rotate(-90)scale(0.1 -0.1)">
      <use xlink:href="#DejaVuSans-70"/>
      <use x="57.410156" xlink:href="#DejaVuSans-105"/>
      <use x="85.193359" xlink:href="#DejaVuSans-116"/>
      <use x="124.402344" xlink:href="#DejaVuSans-110"/>
      <use x="187.78125" xlink:href="#DejaVuSans-101"/>
      <use x="249.304688" xlink:href="#DejaVuSans-115"/>
      <use x="301.404297" xlink:href="#DejaVuSans-115"/>
     </g>
    </g>
   </g>
   <g id="line2d_31">
    <path clip-path="url(#p772b4347db)" d="M 73.832727 295.488 
L 74.918528 288.52959 
L 76.00433 277.224917 
L 78.175932 272.351834 
L 79.261733 264.339785 
L 80.347534 262.181557 
L 81.433335 264.339785 
L 82.519137 263.005087 
L 83.604938 258.456965 
L 84.690739 258.522817 
L 85.77654 257.513079 
L 86.862341 256.080843 
L 87.948142 255.898589 
L 89.033943 254.407001 
L 90.119745 251.937571 
L 91.205546 254.944833 
L 93.377148 257.930145 
L 94.462949 253.969517 
L 95.54875 259.027686 
L 96.634552 255.603358 
L 97.720353 250.84003 
L 98.806154 252.182554 
L 99.891955 258.303309 
L 100.977756 255.317997 
L 102.063557 254.56022 
L 103.149358 256.700899 
L 104.23516 249.335441 
L 105.320961 252.050408 
L 106.406762 252.266833 
L 108.578364 251.981472 
L 109.664165 254.110702 
L 110.749967 247.679112 
L 111.835768 253.944493 
L 112.921569 255.728456 
L 114.00737 252.859505 
L 116.178972 254.176555 
L 117.264773 253.913145 
L 118.350575 257.205768 
L 119.436376 254.297685 
L 120.522177 258.104439 
L 121.607978 255.150923 
L 122.693779 257.864293 
L 123.77958 254.000948 
L 124.865382 254.384977 
L 125.951183 258.61363 
L 127.036984 257.930879 
L 128.122785 261.256539 
L 129.208586 256.102868 
L 130.294387 258.215506 
L 131.380189 249.812717 
L 132.46599 254.538342 
L 133.551791 252.047325 
L 134.637592 251.718063 
L 135.723393 242.630423 
L 136.809194 245.923046 
L 138.980797 251.609924 
L 140.066598 248.350337 
L 141.152399 247.89862 
L 142.2382 245.418177 
L 143.324001 249.830292 
L 144.409802 246.449866 
L 145.495604 247.953901 
L 146.581405 242.915783 
L 147.667206 253.166817 
L 149.838808 264.098982 
L 150.924609 259.942182 
L 152.01041 257.24967 
L 153.096212 251.630259 
L 154.182013 252.00636 
L 155.267814 248.008374 
L 156.353615 256.572986 
L 157.439416 249.654685 
L 158.525217 255.772504 
L 159.611019 255.970722 
L 160.69682 263.96552 
L 161.782621 253.144866 
L 162.868422 256.026039 
L 163.954223 251.912995 
L 165.040024 257.36059 
L 166.125825 259.942182 
L 167.211627 251.608309 
L 168.297428 246.0328 
L 169.383229 254.198505 
L 170.46903 256.942358 
L 171.554831 257.952096 
L 172.640632 252.623038 
L 173.726434 254.693317 
L 174.812235 251.015636 
L 175.898036 255.844817 
L 178.069638 253.335058 
L 179.155439 255.778965 
L 180.24124 256.058819 
L 181.327042 256.609425 
L 182.412843 249.900228 
L 183.498644 258.149653 
L 184.584445 248.579095 
L 185.670246 249.676636 
L 186.756047 253.232669 
L 187.841849 251.059538 
L 188.92765 252.332686 
L 190.013451 253.320473 
L 191.099252 257.447227 
L 192.185053 254.791178 
L 193.270854 242.527378 
L 194.356656 246.213986 
L 195.442457 246.866931 
L 196.528258 243.703223 
L 197.614059 242.888326 
L 198.69986 244.738362 
L 199.785661 242.712133 
L 200.871462 238.879916 
L 201.957264 238.920734 
L 203.043065 246.757177 
L 204.128866 244.209781 
L 205.214667 248.130094 
L 206.300468 236.198832 
L 207.386269 234.60758 
L 208.472071 243.06452 
L 209.557872 234.144705 
L 210.643673 243.288947 
L 211.729474 235.701475 
L 212.815275 250.598571 
L 213.901076 249.588833 
L 214.986877 248.776653 
L 216.072679 242.476767 
L 217.15848 244.386999 
L 218.244281 244.868313 
L 219.330082 241.796291 
L 220.415883 240.106078 
L 221.501684 232.580984 
L 222.587486 245.487186 
L 223.673287 239.535357 
L 224.759088 240.01142 
L 225.844889 244.277609 
L 226.93069 232.397912 
L 228.016491 233.169619 
L 229.102292 238.262209 
L 230.188094 236.051521 
L 231.273895 246.96281 
L 232.359696 243.179193 
L 233.445497 240.040226 
L 234.531298 241.971898 
L 235.617099 235.693963 
L 236.702901 242.133576 
L 237.788702 232.441668 
L 238.874503 244.955824 
L 239.960304 243.249348 
L 241.046105 237.495462 
L 242.131906 240.786554 
L 243.217708 240.391439 
L 244.303509 242.410914 
L 245.38931 246.786616 
L 246.475111 242.513914 
L 247.560912 241.632945 
L 248.646713 240.135297 
L 249.732514 235.167143 
L 250.818316 239.908521 
L 251.904117 235.628111 
L 252.989918 233.483978 
L 254.075719 234.991537 
L 255.16152 231.58916 
L 256.247321 235.123242 
L 257.333123 236.725652 
L 258.418924 239.184144 
L 259.504725 240.106078 
L 260.590526 235.60616 
L 261.676327 233.037914 
L 262.762128 226.469003 
L 263.847929 237.186619 
L 264.933731 234.464717 
L 267.105333 247.744964 
L 268.191134 245.879144 
L 269.276935 241.730439 
L 270.362736 246.713275 
L 271.448538 238.571576 
L 272.534339 248.008374 
L 273.62014 244.452341 
L 274.705941 246.96859 
L 275.791742 243.161837 
L 276.877543 248.930308 
L 277.963344 249.178258 
L 279.049146 240.514611 
L 280.134947 237.669537 
L 281.220748 242.483622 
L 282.306549 240.632898 
L 283.39235 238.262209 
L 284.478151 232.247684 
L 285.563953 231.479773 
L 286.649754 238.569521 
L 288.821356 241.796291 
L 289.907157 241.093865 
L 290.992958 243.310898 
L 292.07876 236.948515 
L 293.164561 238.851891 
L 294.250362 233.688708 
L 295.336163 239.293898 
L 296.421964 232.052403 
L 297.507765 226.78193 
L 298.593566 226.913635 
L 299.679368 233.608635 
L 300.765169 232.922982 
L 301.85097 238.196357 
L 302.936771 242.454816 
L 304.022572 244.496096 
L 305.108373 237.581734 
L 306.194175 234.232802 
L 307.279976 228.550549 
L 308.365777 230.26844 
L 309.451578 238.701226 
L 310.537379 227.251119 
L 312.708981 242.425818 
L 313.794783 227.934822 
L 314.880584 230.689176 
L 315.966385 236.664102 
L 317.052186 238.196357 
L 318.137987 228.78806 
L 319.223788 226.78193 
L 320.30959 223.269798 
L 321.395391 223.774667 
L 322.481192 230.447717 
L 323.566993 230.206258 
L 324.652794 229.641298 
L 325.738595 236.396389 
L 327.910198 225.881946 
L 328.995999 223.094192 
L 330.0818 230.118455 
L 331.167601 233.36054 
L 332.253402 219.450356 
L 333.339203 231.56787 
L 334.425005 221.005623 
L 335.510806 226.282053 
L 336.596607 226.606323 
L 337.682408 221.952749 
L 338.768209 225.95169 
L 339.85401 222.581982 
L 340.939811 238.262209 
L 342.025613 229.394077 
L 343.111414 210.428568 
L 344.197215 224.828307 
L 345.283016 222.435667 
L 346.368817 225.750241 
L 347.454618 232.620848 
L 348.54042 230.664876 
L 349.626221 233.850094 
L 350.712022 230.888338 
L 351.797823 222.487226 
L 352.883624 228.362389 
L 353.969425 224.762527 
L 355.055227 236.703701 
L 356.141028 224.850258 
L 357.226829 236.571996 
L 358.31263 226.935586 
L 359.398431 224.784405 
L 360.484232 227.414084 
L 361.570033 223.149143 
L 362.655835 224.055166 
L 363.741636 217.057716 
L 364.827437 217.274141 
L 365.913238 222.956394 
L 366.999039 226.37015 
L 368.08484 233.586684 
L 369.170642 221.008864 
L 370.256443 223.887411 
L 371.342244 232.94486 
L 372.428045 236.963807 
L 373.513846 233.43993 
L 374.599647 234.386972 
L 375.685448 225.794143 
L 376.77125 227.672287 
L 377.857051 226.145356 
L 378.942852 221.118618 
L 380.028653 225.881946 
L 381.114454 227.933871 
L 382.200255 236.413201 
L 383.286057 219.183664 
L 384.371858 231.829087 
L 385.457659 226.031445 
L 386.54346 232.445242 
L 387.629261 228.889209 
L 388.715062 228.867258 
L 389.800863 225.289274 
L 390.886665 226.408766 
L 391.972466 234.728127 
L 393.058267 222.699077 
L 394.144068 219.84547 
L 395.229869 220.482044 
L 396.31567 223.160044 
L 397.401472 216.882109 
L 398.487273 225.486831 
L 398.487273 225.486831 
" style="fill:none;stroke:#0000ff;stroke-linecap:square;stroke-width:1.5;"/>
   </g>
   <g id="line2d_32">
    <path clip-path="url(#p772b4347db)" d="M 73.832727 272.981621 
L 74.918528 261.857906 
L 76.00433 244.904399 
L 77.090131 242.710408 
L 78.175932 237.249657 
L 79.261733 228.166883 
L 80.347534 226.61646 
L 81.433335 227.35284 
L 82.519137 225.785355 
L 83.604938 219.747241 
L 84.690739 221.848973 
L 85.77654 219.404412 
L 86.862341 216.262792 
L 87.948142 218.554272 
L 89.033943 216.280245 
L 90.119745 211.503163 
L 91.205546 215.640455 
L 92.291347 217.256166 
L 93.377148 215.202659 
L 94.462949 214.367252 
L 95.54875 219.090461 
L 96.634552 211.774301 
L 97.720353 209.24261 
L 98.806154 206.225589 
L 99.891955 217.272468 
L 100.977756 213.583609 
L 102.063557 212.585656 
L 103.149358 213.074041 
L 104.23516 206.010135 
L 105.320961 207.063375 
L 106.406762 209.533731 
L 107.492563 208.23865 
L 108.578364 209.487614 
L 109.664165 211.769486 
L 110.749967 203.476398 
L 111.835768 210.078684 
L 112.921569 212.991904 
L 114.00737 206.963603 
L 115.093171 208.890154 
L 116.178972 205.308589 
L 117.264773 205.127125 
L 118.350575 208.036071 
L 119.436376 205.856884 
L 120.522177 211.48572 
L 121.607978 208.066949 
L 122.693779 219.325433 
L 123.77958 209.950627 
L 124.865382 210.995322 
L 125.951183 216.69867 
L 127.036984 215.393738 
L 128.122785 218.004877 
L 129.208586 213.041303 
L 130.294387 215.563241 
L 131.380189 207.246924 
L 132.46599 211.349072 
L 134.637592 203.176607 
L 135.723393 196.087792 
L 136.809194 195.2013 
L 137.894995 202.56361 
L 138.980797 204.217229 
L 140.066598 196.735086 
L 141.152399 196.820181 
L 142.2382 192.026668 
L 143.324001 195.235731 
L 144.409802 193.263017 
L 145.495604 194.343193 
L 146.581405 187.417422 
L 147.667206 197.017959 
L 149.838808 212.588567 
L 150.924609 208.5596 
L 152.01041 202.792788 
L 153.096212 194.187133 
L 154.182013 192.502672 
L 155.267814 189.587691 
L 156.353615 197.529813 
L 157.439416 188.58558 
L 158.525217 196.225627 
L 159.611019 194.43307 
L 160.69682 209.94302 
L 161.782621 195.419899 
L 162.868422 200.443982 
L 163.954223 194.017231 
L 165.040024 199.819955 
L 166.125825 207.463747 
L 167.211627 197.472421 
L 168.297428 184.972512 
L 169.383229 202.375968 
L 170.46903 205.590219 
L 171.554831 205.304988 
L 172.640632 196.472805 
L 173.726434 197.585608 
L 174.812235 192.73848 
L 175.898036 200.553688 
L 176.983837 200.448076 
L 178.069638 194.622108 
L 179.155439 199.301519 
L 180.24124 199.767149 
L 181.327042 197.739192 
L 182.412843 189.555497 
L 183.498644 202.330653 
L 184.584445 189.780617 
L 185.670246 188.414399 
L 186.756047 191.509927 
L 187.841849 189.734227 
L 188.92765 192.029521 
L 190.013451 193.279459 
L 191.099252 198.388274 
L 192.185053 192.584661 
L 193.270854 176.191133 
L 194.356656 181.38179 
L 196.528258 175.565564 
L 197.614059 177.448805 
L 198.69986 181.981796 
L 199.785661 179.921799 
L 200.871462 173.029544 
L 201.957264 176.390307 
L 203.043065 183.134249 
L 204.128866 178.566607 
L 205.214667 181.917265 
L 206.300468 167.452449 
L 207.386269 165.059469 
L 208.472071 174.26088 
L 209.557872 164.4271 
L 210.643673 177.127515 
L 211.729474 168.815995 
L 212.815275 190.799506 
L 213.901076 184.740965 
L 214.986877 185.94724 
L 216.072679 179.908208 
L 217.15848 181.380158 
L 218.244281 178.358145 
L 220.415883 169.417631 
L 221.501684 162.467185 
L 222.587486 179.113909 
L 223.673287 169.764141 
L 224.759088 168.712713 
L 225.844889 172.518788 
L 226.93069 161.548182 
L 228.016491 160.147989 
L 229.102292 167.611235 
L 230.188094 166.866228 
L 231.273895 182.490835 
L 233.445497 168.827232 
L 234.531298 173.591616 
L 235.617099 165.069295 
L 236.702901 175.459472 
L 237.788702 160.767721 
L 238.874503 176.202995 
L 239.960304 174.986902 
L 241.046105 167.40023 
L 242.131906 171.28435 
L 243.217708 169.680559 
L 244.303509 171.692158 
L 245.38931 177.295822 
L 246.475111 172.618887 
L 247.560912 168.835008 
L 248.646713 166.741616 
L 249.732514 163.100318 
L 250.818316 163.706666 
L 251.904117 160.617417 
L 252.989918 159.712882 
L 254.075719 159.675346 
L 255.16152 154.887135 
L 256.247321 159.719506 
L 257.333123 159.984175 
L 258.418924 163.621446 
L 259.504725 164.611859 
L 260.590526 162.664499 
L 261.676327 159.278503 
L 262.762128 149.72945 
L 263.847929 162.021562 
L 264.933731 157.498305 
L 266.019532 165.771354 
L 267.105333 177.090307 
L 268.191134 175.651681 
L 269.276935 171.886058 
L 270.362736 177.32264 
L 271.448538 165.849733 
L 272.534339 179.203015 
L 273.62014 179.483902 
L 274.705941 181.55067 
L 275.791742 174.740883 
L 276.877543 183.178163 
L 277.963344 182.652461 
L 279.049146 169.579668 
L 280.134947 163.375391 
L 281.220748 172.044846 
L 282.306549 168.530829 
L 283.39235 164.596339 
L 284.478151 156.599791 
L 285.563953 158.509516 
L 286.649754 162.342261 
L 287.735555 170.117092 
L 288.821356 170.218857 
L 289.907157 168.523737 
L 290.992958 172.975507 
L 292.07876 163.511346 
L 293.164561 167.049021 
L 294.250362 157.941806 
L 295.336163 164.557302 
L 296.421964 156.635812 
L 297.507765 149.816769 
L 298.593566 150.655803 
L 299.679368 157.565605 
L 300.765169 157.808684 
L 301.85097 160.902098 
L 302.936771 165.246332 
L 304.022572 168.764578 
L 305.108373 161.414564 
L 306.194175 159.868096 
L 307.279976 152.622778 
L 308.365777 151.09729 
L 309.451578 161.840608 
L 310.537379 151.462113 
L 312.708981 168.462303 
L 313.794783 149.566254 
L 314.880584 152.701214 
L 315.966385 158.584393 
L 317.052186 161.34472 
L 318.137987 151.026087 
L 319.223788 149.897572 
L 320.30959 146.115429 
L 321.395391 148.831066 
L 322.481192 152.700784 
L 323.566993 157.204377 
L 324.652794 153.181082 
L 325.738595 157.52156 
L 326.824396 155.461862 
L 327.910198 147.760765 
L 328.995999 144.251404 
L 330.0818 150.642988 
L 331.167601 154.061413 
L 332.253402 138.163969 
L 333.339203 153.709092 
L 334.425005 142.216077 
L 335.510806 147.689249 
L 336.596607 147.358657 
L 337.682408 142.207319 
L 338.768209 145.607672 
L 339.85401 146.30987 
L 340.939811 158.428174 
L 342.025613 151.490307 
L 343.111414 132.951547 
L 344.197215 145.578862 
L 345.283016 143.096122 
L 346.368817 146.87784 
L 347.454618 153.161753 
L 348.54042 153.824399 
L 349.626221 158.139389 
L 350.712022 151.688376 
L 351.797823 143.796444 
L 352.883624 147.921296 
L 353.969425 144.128822 
L 355.055227 160.972251 
L 356.141028 147.54256 
L 357.226829 159.888723 
L 358.31263 148.099444 
L 359.398431 145.095784 
L 360.484232 148.946008 
L 361.570033 146.42503 
L 362.655835 147.73829 
L 363.741636 136.075261 
L 364.827437 139.664098 
L 365.913238 142.702365 
L 368.08484 154.668982 
L 369.170642 137.65117 
L 370.256443 148.135997 
L 371.342244 156.260264 
L 372.428045 160.369425 
L 373.513846 156.993178 
L 374.599647 158.191272 
L 375.685448 146.900302 
L 376.77125 151.899292 
L 377.857051 151.373384 
L 378.942852 145.251896 
L 380.028653 146.290617 
L 381.114454 147.784141 
L 382.200255 159.724782 
L 383.286057 141.374895 
L 384.371858 154.578485 
L 385.457659 147.731758 
L 386.54346 154.558176 
L 387.629261 150.149894 
L 388.715062 153.120053 
L 389.800863 146.957834 
L 390.886665 145.878493 
L 391.972466 153.833198 
L 393.058267 142.110336 
L 394.144068 140.758288 
L 395.229869 141.074106 
L 396.31567 144.162933 
L 397.401472 138.454065 
L 398.487273 145.760385 
L 398.487273 145.760385 
" style="fill:none;stroke:#008000;stroke-dasharray:9.6,2.4,1.5,2.4;stroke-dashoffset:0;stroke-width:1.5;"/>
   </g>
   <g id="line2d_33">
    <path clip-path="url(#p772b4347db)" d="M 73.832727 185.272927 
L 74.918528 165.517188 
L 76.00433 152.346695 
L 77.090131 165.517188 
L 78.175932 165.517188 
L 79.261733 119.420463 
L 80.347534 152.346695 
L 81.433335 145.761449 
L 82.519137 132.590956 
L 83.604938 145.761449 
L 84.690739 139.176203 
L 85.77654 126.00571 
L 86.862341 99.664724 
L 87.948142 152.346695 
L 89.033943 139.176203 
L 90.119745 86.494232 
L 91.205546 132.590956 
L 92.291347 112.835217 
L 94.462949 139.176203 
L 95.54875 112.835217 
L 96.634552 112.835217 
L 97.720353 139.176203 
L 98.806154 112.835217 
L 99.891955 139.176203 
L 100.977756 145.761449 
L 102.063557 112.835217 
L 103.149358 112.835217 
L 104.23516 106.249971 
L 105.320961 106.249971 
L 106.406762 145.761449 
L 107.492563 93.079478 
L 108.578364 126.00571 
L 109.664165 126.00571 
L 110.749967 86.494232 
L 111.835768 106.249971 
L 112.921569 132.590956 
L 114.00737 93.079478 
L 115.093171 106.249971 
L 117.264773 106.249971 
L 118.350575 93.079478 
L 119.436376 112.835217 
L 120.522177 112.835217 
L 121.607978 99.664724 
L 122.693779 112.835217 
L 123.77958 106.249971 
L 124.865382 126.00571 
L 125.951183 93.079478 
L 127.036984 126.00571 
L 128.122785 119.420463 
L 129.208586 106.249971 
L 130.294387 126.00571 
L 131.380189 126.00571 
L 132.46599 99.664724 
L 133.551791 106.249971 
L 134.637592 106.249971 
L 135.723393 112.835217 
L 136.809194 112.835217 
L 138.980797 99.664724 
L 140.066598 99.664724 
L 141.152399 79.908985 
L 142.2382 112.835217 
L 143.324001 99.664724 
L 146.581405 99.664724 
L 147.667206 60.153246 
L 148.753007 112.835217 
L 149.838808 86.494232 
L 150.924609 106.249971 
L 152.01041 99.664724 
L 153.096212 86.494232 
L 154.182013 99.664724 
L 155.267814 93.079478 
L 156.353615 66.738493 
L 157.439416 86.494232 
L 158.525217 79.908985 
L 159.611019 93.079478 
L 160.69682 79.908985 
L 161.782621 73.323739 
L 162.868422 93.079478 
L 163.954223 106.249971 
L 165.040024 106.249971 
L 166.125825 99.664724 
L 167.211627 79.908985 
L 168.297428 93.079478 
L 169.383229 99.664724 
L 170.46903 86.494232 
L 171.554831 99.664724 
L 173.726434 73.323739 
L 174.812235 99.664724 
L 175.898036 112.835217 
L 176.983837 99.664724 
L 178.069638 93.079478 
L 179.155439 112.835217 
L 180.24124 99.664724 
L 181.327042 93.079478 
L 182.412843 93.079478 
L 183.498644 106.249971 
L 184.584445 86.494232 
L 185.670246 93.079478 
L 186.756047 86.494232 
L 187.841849 86.494232 
L 188.92765 73.323739 
L 190.013451 86.494232 
L 191.099252 79.908985 
L 193.270854 79.908985 
L 194.356656 99.664724 
L 195.442457 86.494232 
L 196.528258 93.079478 
L 197.614059 79.908985 
L 198.69986 79.908985 
L 199.785661 73.323739 
L 200.871462 86.494232 
L 201.957264 86.494232 
L 203.043065 73.323739 
L 204.128866 73.323739 
L 205.214667 93.079478 
L 206.300468 93.079478 
L 207.386269 86.494232 
L 208.472071 99.664724 
L 209.557872 79.908985 
L 210.643673 93.079478 
L 211.729474 79.908985 
L 212.815275 86.494232 
L 213.901076 86.494232 
L 214.986877 106.249971 
L 216.072679 93.079478 
L 217.15848 93.079478 
L 218.244281 106.249971 
L 219.330082 73.323739 
L 220.415883 93.079478 
L 221.501684 86.494232 
L 222.587486 99.664724 
L 223.673287 73.323739 
L 224.759088 79.908985 
L 225.844889 73.323739 
L 226.93069 93.079478 
L 228.016491 79.908985 
L 229.102292 79.908985 
L 230.188094 73.323739 
L 231.273895 99.664724 
L 232.359696 106.249971 
L 233.445497 86.494232 
L 234.531298 79.908985 
L 235.617099 79.908985 
L 236.702901 99.664724 
L 237.788702 79.908985 
L 238.874503 93.079478 
L 239.960304 73.323739 
L 241.046105 79.908985 
L 242.131906 93.079478 
L 245.38931 73.323739 
L 246.475111 79.908985 
L 247.560912 93.079478 
L 248.646713 79.908985 
L 249.732514 86.494232 
L 250.818316 79.908985 
L 251.904117 86.494232 
L 252.989918 86.494232 
L 254.075719 93.079478 
L 255.16152 86.494232 
L 256.247321 99.664724 
L 257.333123 93.079478 
L 258.418924 93.079478 
L 259.504725 86.494232 
L 260.590526 93.079478 
L 262.762128 79.908985 
L 264.933731 93.079478 
L 266.019532 79.908985 
L 267.105333 73.323739 
L 269.276935 99.664724 
L 270.362736 79.908985 
L 271.448538 93.079478 
L 273.62014 106.249971 
L 274.705941 93.079478 
L 276.877543 93.079478 
L 277.963344 79.908985 
L 279.049146 86.494232 
L 280.134947 79.908985 
L 281.220748 86.494232 
L 282.306549 86.494232 
L 283.39235 79.908985 
L 284.478151 93.079478 
L 285.563953 79.908985 
L 286.649754 60.153246 
L 287.735555 93.079478 
L 289.907157 93.079478 
L 292.07876 79.908985 
L 293.164561 93.079478 
L 294.250362 79.908985 
L 295.336163 86.494232 
L 296.421964 79.908985 
L 297.507765 86.494232 
L 298.593566 66.738493 
L 299.679368 86.494232 
L 300.765169 86.494232 
L 301.85097 79.908985 
L 302.936771 79.908985 
L 304.022572 99.664724 
L 305.108373 73.323739 
L 306.194175 86.494232 
L 307.279976 73.323739 
L 308.365777 53.568 
L 309.451578 93.079478 
L 310.537379 79.908985 
L 311.62318 86.494232 
L 312.708981 53.568 
L 313.794783 79.908985 
L 314.880584 86.494232 
L 315.966385 79.908985 
L 317.052186 99.664724 
L 318.137987 99.664724 
L 320.30959 73.323739 
L 321.395391 66.738493 
L 322.481192 79.908985 
L 323.566993 99.664724 
L 324.652794 60.153246 
L 325.738595 93.079478 
L 326.824396 73.323739 
L 327.910198 86.494232 
L 328.995999 93.079478 
L 330.0818 93.079478 
L 331.167601 79.908985 
L 332.253402 79.908985 
L 333.339203 93.079478 
L 335.510806 79.908985 
L 336.596607 86.494232 
L 337.682408 106.249971 
L 338.768209 79.908985 
L 339.85401 93.079478 
L 340.939811 86.494232 
L 342.025613 99.664724 
L 343.111414 86.494232 
L 345.283016 99.664724 
L 346.368817 79.908985 
L 347.454618 73.323739 
L 348.54042 86.494232 
L 349.626221 86.494232 
L 350.712022 93.079478 
L 351.797823 79.908985 
L 352.883624 79.908985 
L 353.969425 73.323739 
L 355.055227 93.079478 
L 356.141028 99.664724 
L 357.226829 79.908985 
L 358.31263 73.323739 
L 359.398431 86.494232 
L 360.484232 60.153246 
L 361.570033 86.494232 
L 362.655835 99.664724 
L 363.741636 73.323739 
L 364.827437 93.079478 
L 365.913238 86.494232 
L 368.08484 86.494232 
L 369.170642 66.738493 
L 370.256443 93.079478 
L 371.342244 106.249971 
L 372.428045 86.494232 
L 373.513846 99.664724 
L 374.599647 93.079478 
L 376.77125 93.079478 
L 378.942852 79.908985 
L 380.028653 86.494232 
L 381.114454 86.494232 
L 382.200255 93.079478 
L 383.286057 93.079478 
L 385.457659 79.908985 
L 386.54346 86.494232 
L 387.629261 86.494232 
L 388.715062 73.323739 
L 389.800863 73.323739 
L 390.886665 86.494232 
L 391.972466 86.494232 
L 393.058267 66.738493 
L 395.229869 79.908985 
L 397.401472 79.908985 
L 398.487273 99.664724 
L 398.487273 99.664724 
" style="fill:none;stroke:#ff0000;stroke-linecap:square;stroke-width:1.5;"/>
   </g>
   <g id="patch_3">
    <path d="M 57.6 307.584 
L 57.6 41.472 
" style="fill:none;stroke:#000000;stroke-linecap:square;stroke-linejoin:miter;stroke-width:0.8;"/>
   </g>
   <g id="patch_4">
    <path d="M 414.72 307.584 
L 414.72 41.472 
" style="fill:none;stroke:#000000;stroke-linecap:square;stroke-linejoin:miter;stroke-width:0.8;"/>
   </g>
   <g id="patch_5">
    <path d="M 57.6 307.584 
L 414.72 307.584 
" style="fill:none;stroke:#000000;stroke-linecap:square;stroke-linejoin:miter;stroke-width:0.8;"/>
   </g>
   <g id="patch_6">
    <path d="M 57.6 41.472 
L 414.72 41.472 
" style="fill:none;stroke:#000000;stroke-linecap:square;stroke-linejoin:miter;stroke-width:0.8;"/>
   </g>
   <g id="text_18">
    <!-- Population's average and best fitness -->
    <defs>
     <path d="M 19.671875 64.796875 
L 19.671875 37.40625 
L 32.078125 37.40625 
Q 38.96875 37.40625 42.71875 40.96875 
Q 46.484375 44.53125 46.484375 51.125 
Q 46.484375 57.671875 42.71875 61.234375 
Q 38.96875 64.796875 32.078125 64.796875 
z
M 9.8125 72.90625 
L 32.078125 72.90625 
Q 44.34375 72.90625 50.609375 67.359375 
Q 56.890625 61.8125 56.890625 51.125 
Q 56.890625 40.328125 50.609375 34.8125 
Q 44.34375 29.296875 32.078125 29.296875 
L 19.671875 29.296875 
L 19.671875 0 
L 9.8125 0 
z
" id="DejaVuSans-80"/>
     <path d="M 18.109375 8.203125 
L 18.109375 -20.796875 
L 9.078125 -20.796875 
L 9.078125 54.6875 
L 18.109375 54.6875 
L 18.109375 46.390625 
Q 20.953125 51.265625 25.265625 53.625 
Q 29.59375 56 35.59375 56 
Q 45.5625 56 51.78125 48.09375 
Q 58.015625 40.1875 58.015625 27.296875 
Q 58.015625 14.40625 51.78125 6.484375 
Q 45.5625 -1.421875 35.59375 -1.421875 
Q 29.59375 -1.421875 25.265625 0.953125 
Q 20.953125 3.328125 18.109375 8.203125 
z
M 48.6875 27.296875 
Q 48.6875 37.203125 44.609375 42.84375 
Q 40.53125 48.484375 33.40625 48.484375 
Q 26.265625 48.484375 22.1875 42.84375 
Q 18.109375 37.203125 18.109375 27.296875 
Q 18.109375 17.390625 22.1875 11.75 
Q 26.265625 6.109375 33.40625 6.109375 
Q 40.53125 6.109375 44.609375 11.75 
Q 48.6875 17.390625 48.6875 27.296875 
z
" id="DejaVuSans-112"/>
     <path d="M 8.5 21.578125 
L 8.5 54.6875 
L 17.484375 54.6875 
L 17.484375 21.921875 
Q 17.484375 14.15625 20.5 10.265625 
Q 23.53125 6.390625 29.59375 6.390625 
Q 36.859375 6.390625 41.078125 11.03125 
Q 45.3125 15.671875 45.3125 23.6875 
L 45.3125 54.6875 
L 54.296875 54.6875 
L 54.296875 0 
L 45.3125 0 
L 45.3125 8.40625 
Q 42.046875 3.421875 37.71875 1 
Q 33.40625 -1.421875 27.6875 -1.421875 
Q 18.265625 -1.421875 13.375 4.4375 
Q 8.5 10.296875 8.5 21.578125 
z
M 31.109375 56 
z
" id="DejaVuSans-117"/>
     <path d="M 9.421875 75.984375 
L 18.40625 75.984375 
L 18.40625 0 
L 9.421875 0 
z
" id="DejaVuSans-108"/>
     <path d="M 17.921875 72.90625 
L 17.921875 45.796875 
L 9.625 45.796875 
L 9.625 72.90625 
z
" id="DejaVuSans-39"/>
     <path id="DejaVuSans-32"/>
     <path d="M 2.984375 54.6875 
L 12.5 54.6875 
L 29.59375 8.796875 
L 46.6875 54.6875 
L 56.203125 54.6875 
L 35.6875 0 
L 23.484375 0 
z
" id="DejaVuSans-118"/>
     <path d="M 45.40625 27.984375 
Q 45.40625 37.75 41.375 43.109375 
Q 37.359375 48.484375 30.078125 48.484375 
Q 22.859375 48.484375 18.828125 43.109375 
Q 14.796875 37.75 14.796875 27.984375 
Q 14.796875 18.265625 18.828125 12.890625 
Q 22.859375 7.515625 30.078125 7.515625 
Q 37.359375 7.515625 41.375 12.890625 
Q 45.40625 18.265625 45.40625 27.984375 
z
M 54.390625 6.78125 
Q 54.390625 -7.171875 48.1875 -13.984375 
Q 42 -20.796875 29.203125 -20.796875 
Q 24.46875 -20.796875 20.265625 -20.09375 
Q 16.0625 -19.390625 12.109375 -17.921875 
L 12.109375 -9.1875 
Q 16.0625 -11.328125 19.921875 -12.34375 
Q 23.78125 -13.375 27.78125 -13.375 
Q 36.625 -13.375 41.015625 -8.765625 
Q 45.40625 -4.15625 45.40625 5.171875 
L 45.40625 9.625 
Q 42.625 4.78125 38.28125 2.390625 
Q 33.9375 0 27.875 0 
Q 17.828125 0 11.671875 7.65625 
Q 5.515625 15.328125 5.515625 27.984375 
Q 5.515625 40.671875 11.671875 48.328125 
Q 17.828125 56 27.875 56 
Q 33.9375 56 38.28125 53.609375 
Q 42.625 51.21875 45.40625 46.390625 
L 45.40625 54.6875 
L 54.390625 54.6875 
z
" id="DejaVuSans-103"/>
     <path d="M 45.40625 46.390625 
L 45.40625 75.984375 
L 54.390625 75.984375 
L 54.390625 0 
L 45.40625 0 
L 45.40625 8.203125 
Q 42.578125 3.328125 38.25 0.953125 
Q 33.9375 -1.421875 27.875 -1.421875 
Q 17.96875 -1.421875 11.734375 6.484375 
Q 5.515625 14.40625 5.515625 27.296875 
Q 5.515625 40.1875 11.734375 48.09375 
Q 17.96875 56 27.875 56 
Q 33.9375 56 38.25 53.625 
Q 42.578125 51.265625 45.40625 46.390625 
z
M 14.796875 27.296875 
Q 14.796875 17.390625 18.875 11.75 
Q 22.953125 6.109375 30.078125 6.109375 
Q 37.203125 6.109375 41.296875 11.75 
Q 45.40625 17.390625 45.40625 27.296875 
Q 45.40625 37.203125 41.296875 42.84375 
Q 37.203125 48.484375 30.078125 48.484375 
Q 22.953125 48.484375 18.875 42.84375 
Q 14.796875 37.203125 14.796875 27.296875 
z
" id="DejaVuSans-100"/>
     <path d="M 48.6875 27.296875 
Q 48.6875 37.203125 44.609375 42.84375 
Q 40.53125 48.484375 33.40625 48.484375 
Q 26.265625 48.484375 22.1875 42.84375 
Q 18.109375 37.203125 18.109375 27.296875 
Q 18.109375 17.390625 22.1875 11.75 
Q 26.265625 6.109375 33.40625 6.109375 
Q 40.53125 6.109375 44.609375 11.75 
Q 48.6875 17.390625 48.6875 27.296875 
z
M 18.109375 46.390625 
Q 20.953125 51.265625 25.265625 53.625 
Q 29.59375 56 35.59375 56 
Q 45.5625 56 51.78125 48.09375 
Q 58.015625 40.1875 58.015625 27.296875 
Q 58.015625 14.40625 51.78125 6.484375 
Q 45.5625 -1.421875 35.59375 -1.421875 
Q 29.59375 -1.421875 25.265625 0.953125 
Q 20.953125 3.328125 18.109375 8.203125 
L 18.109375 0 
L 9.078125 0 
L 9.078125 75.984375 
L 18.109375 75.984375 
z
" id="DejaVuSans-98"/>
     <path d="M 37.109375 75.984375 
L 37.109375 68.5 
L 28.515625 68.5 
Q 23.6875 68.5 21.796875 66.546875 
Q 19.921875 64.59375 19.921875 59.515625 
L 19.921875 54.6875 
L 34.71875 54.6875 
L 34.71875 47.703125 
L 19.921875 47.703125 
L 19.921875 0 
L 10.890625 0 
L 10.890625 47.703125 
L 2.296875 47.703125 
L 2.296875 54.6875 
L 10.890625 54.6875 
L 10.890625 58.5 
Q 10.890625 67.625 15.140625 71.796875 
Q 19.390625 75.984375 28.609375 75.984375 
z
" id="DejaVuSans-102"/>
    </defs>
    <g transform="translate(123.315 35.472)scale(0.12 -0.12)">
     <use xlink:href="#DejaVuSans-80"/>
     <use x="60.255859" xlink:href="#DejaVuSans-111"/>
     <use x="121.4375" xlink:href="#DejaVuSans-112"/>
     <use x="184.914062" xlink:href="#DejaVuSans-117"/>
     <use x="248.292969" xlink:href="#DejaVuSans-108"/>
     <use x="276.076172" xlink:href="#DejaVuSans-97"/>
     <use x="337.355469" xlink:href="#DejaVuSans-116"/>
     <use x="376.564453" xlink:href="#DejaVuSans-105"/>
     <use x="404.347656" xlink:href="#DejaVuSans-111"/>
     <use x="465.529297" xlink:href="#DejaVuSans-110"/>
     <use x="528.908203" xlink:href="#DejaVuSans-39"/>
     <use x="556.398438" xlink:href="#DejaVuSans-115"/>
     <use x="608.498047" xlink:href="#DejaVuSans-32"/>
     <use x="640.285156" xlink:href="#DejaVuSans-97"/>
     <use x="701.564453" xlink:href="#DejaVuSans-118"/>
     <use x="760.744141" xlink:href="#DejaVuSans-101"/>
     <use x="822.267578" xlink:href="#DejaVuSans-114"/>
     <use x="863.380859" xlink:href="#DejaVuSans-97"/>
     <use x="924.660156" xlink:href="#DejaVuSans-103"/>
     <use x="988.136719" xlink:href="#DejaVuSans-101"/>
     <use x="1049.660156" xlink:href="#DejaVuSans-32"/>
     <use x="1081.447266" xlink:href="#DejaVuSans-97"/>
     <use x="1142.726562" xlink:href="#DejaVuSans-110"/>
     <use x="1206.105469" xlink:href="#DejaVuSans-100"/>
     <use x="1269.582031" xlink:href="#DejaVuSans-32"/>
     <use x="1301.369141" xlink:href="#DejaVuSans-98"/>
     <use x="1364.845703" xlink:href="#DejaVuSans-101"/>
     <use x="1426.369141" xlink:href="#DejaVuSans-115"/>
     <use x="1478.46875" xlink:href="#DejaVuSans-116"/>
     <use x="1517.677734" xlink:href="#DejaVuSans-32"/>
     <use x="1549.464844" xlink:href="#DejaVuSans-102"/>
     <use x="1584.669922" xlink:href="#DejaVuSans-105"/>
     <use x="1612.453125" xlink:href="#DejaVuSans-116"/>
     <use x="1651.662109" xlink:href="#DejaVuSans-110"/>
     <use x="1715.041016" xlink:href="#DejaVuSans-101"/>
     <use x="1776.564453" xlink:href="#DejaVuSans-115"/>
     <use x="1828.664062" xlink:href="#DejaVuSans-115"/>
    </g>
   </g>
   <g id="legend_1">
    <g id="patch_7">
     <path d="M 334.779375 302.584 
L 407.72 302.584 
Q 409.72 302.584 409.72 300.584 
L 409.72 257.549625 
Q 409.72 255.549625 407.72 255.549625 
L 334.779375 255.549625 
Q 332.779375 255.549625 332.779375 257.549625 
L 332.779375 300.584 
Q 332.779375 302.584 334.779375 302.584 
z
" style="fill:#ffffff;opacity:0.8;stroke:#cccccc;stroke-linejoin:miter;"/>
    </g>
    <g id="line2d_34">
     <path d="M 336.779375 263.648062 
L 356.779375 263.648062 
" style="fill:none;stroke:#0000ff;stroke-linecap:square;stroke-width:1.5;"/>
    </g>
    <g id="line2d_35"/>
    <g id="text_19">
     <!-- average -->
     <g transform="translate(364.779375 267.148062)scale(0.1 -0.1)">
      <use xlink:href="#DejaVuSans-97"/>
      <use x="61.279297" xlink:href="#DejaVuSans-118"/>
      <use x="120.458984" xlink:href="#DejaVuSans-101"/>
      <use x="181.982422" xlink:href="#DejaVuSans-114"/>
      <use x="223.095703" xlink:href="#DejaVuSans-97"/>
      <use x="284.375" xlink:href="#DejaVuSans-103"/>
      <use x="347.851562" xlink:href="#DejaVuSans-101"/>
     </g>
    </g>
    <g id="line2d_36">
     <path d="M 336.779375 278.326188 
L 356.779375 278.326188 
" style="fill:none;stroke:#008000;stroke-dasharray:9.6,2.4,1.5,2.4;stroke-dashoffset:0;stroke-width:1.5;"/>
    </g>
    <g id="line2d_37"/>
    <g id="text_20">
     <!-- +1 sd -->
     <defs>
      <path d="M 46 62.703125 
L 46 35.5 
L 73.1875 35.5 
L 73.1875 27.203125 
L 46 27.203125 
L 46 0 
L 37.796875 0 
L 37.796875 27.203125 
L 10.59375 27.203125 
L 10.59375 35.5 
L 37.796875 35.5 
L 37.796875 62.703125 
z
" id="DejaVuSans-43"/>
     </defs>
     <g transform="translate(364.779375 281.826188)scale(0.1 -0.1)">
      <use xlink:href="#DejaVuSans-43"/>
      <use x="83.789062" xlink:href="#DejaVuSans-49"/>
      <use x="147.412109" xlink:href="#DejaVuSans-32"/>
      <use x="179.199219" xlink:href="#DejaVuSans-115"/>
      <use x="231.298828" xlink:href="#DejaVuSans-100"/>
     </g>
    </g>
    <g id="line2d_38">
     <path d="M 336.779375 293.004312 
L 356.779375 293.004312 
" style="fill:none;stroke:#ff0000;stroke-linecap:square;stroke-width:1.5;"/>
    </g>
    <g id="line2d_39"/>
    <g id="text_21">
     <!-- best -->
     <g transform="translate(364.779375 296.504312)scale(0.1 -0.1)">
      <use xlink:href="#DejaVuSans-98"/>
      <use x="63.476562" xlink:href="#DejaVuSans-101"/>
      <use x="125" xlink:href="#DejaVuSans-115"/>
      <use x="177.099609" xlink:href="#DejaVuSans-116"/>
     </g>
    </g>
   </g>
  </g>
 </g>
 <defs>
  <clipPath id="p772b4347db">
   <rect height="266.112" width="357.12" x="57.6" y="41.472"/>
  </clipPath>
 </defs>
</svg>
