<?xml version="1.0" encoding="utf-8" standalone="no"?>
<!DOCTYPE svg PUBLIC "-//W3C//DTD SVG 1.1//EN"
  "http://www.w3.org/Graphics/SVG/1.1/DTD/svg11.dtd">
<!-- Created with matplotlib (https://matplotlib.org/) -->
<svg height="345.6pt" version="1.1" viewBox="0 0 460.8 345.6" width="460.8pt" xmlns="http://www.w3.org/2000/svg" xmlns:xlink="http://www.w3.org/1999/xlink">
 <defs>
  <style type="text/css">
*{stroke-linecap:butt;stroke-linejoin:round;}
  </style>
 </defs>
 <g id="figure_1">
  <g id="patch_1">
   <path d="M 0 345.6 
L 460.8 345.6 
L 460.8 0 
L 0 0 
z
" style="fill:#ffffff;"/>
  </g>
  <g id="axes_1">
   <g id="patch_2">
    <path d="M 57.6 307.584 
L 414.72 307.584 
L 414.72 41.472 
L 57.6 41.472 
z
" style="fill:#ffffff;"/>
   </g>
   <g id="matplotlib.axis_1">
    <g id="xtick_1">
     <g id="line2d_1">
      <path clip-path="url(#p0d7cb7d4aa)" d="M 73.832727 307.584 
L 73.832727 41.472 
" style="fill:none;stroke:#b0b0b0;stroke-linecap:square;stroke-width:0.8;"/>
     </g>
     <g id="line2d_2">
      <defs>
       <path d="M 0 0 
L 0 3.5 
" id="m0ba388330c" style="stroke:#000000;stroke-width:0.8;"/>
      </defs>
      <g>
       <use style="stroke:#000000;stroke-width:0.8;" x="73.832727" xlink:href="#m0ba388330c" y="307.584"/>
      </g>
     </g>
     <g id="text_1">
      <!-- 0 -->
      <defs>
       <path d="M 31.78125 66.40625 
Q 24.171875 66.40625 20.328125 58.90625 
Q 16.5 51.421875 16.5 36.375 
Q 16.5 21.390625 20.328125 13.890625 
Q 24.171875 6.390625 31.78125 6.390625 
Q 39.453125 6.390625 43.28125 13.890625 
Q 47.125 21.390625 47.125 36.375 
Q 47.125 51.421875 43.28125 58.90625 
Q 39.453125 66.40625 31.78125 66.40625 
z
M 31.78125 74.21875 
Q 44.046875 74.21875 50.515625 64.515625 
Q 56.984375 54.828125 56.984375 36.375 
Q 56.984375 17.96875 50.515625 8.265625 
Q 44.046875 -1.421875 31.78125 -1.421875 
Q 19.53125 -1.421875 13.0625 8.265625 
Q 6.59375 17.96875 6.59375 36.375 
Q 6.59375 54.828125 13.0625 64.515625 
Q 19.53125 74.21875 31.78125 74.21875 
z
" id="DejaVuSans-48"/>
      </defs>
      <g transform="translate(70.651477 322.182437)scale(0.1 -0.1)">
       <use xlink:href="#DejaVuSans-48"/>
      </g>
     </g>
    </g>
    <g id="xtick_2">
     <g id="line2d_3">
      <path clip-path="url(#p0d7cb7d4aa)" d="M 138.893758 307.584 
L 138.893758 41.472 
" style="fill:none;stroke:#b0b0b0;stroke-linecap:square;stroke-width:0.8;"/>
     </g>
     <g id="line2d_4">
      <g>
       <use style="stroke:#000000;stroke-width:0.8;" x="138.893758" xlink:href="#m0ba388330c" y="307.584"/>
      </g>
     </g>
     <g id="text_2">
      <!-- 100 -->
      <defs>
       <path d="M 12.40625 8.296875 
L 28.515625 8.296875 
L 28.515625 63.921875 
L 10.984375 60.40625 
L 10.984375 69.390625 
L 28.421875 72.90625 
L 38.28125 72.90625 
L 38.28125 8.296875 
L 54.390625 8.296875 
L 54.390625 0 
L 12.40625 0 
z
" id="DejaVuSans-49"/>
      </defs>
      <g transform="translate(129.350008 322.182437)scale(0.1 -0.1)">
       <use xlink:href="#DejaVuSans-49"/>
       <use x="63.623047" xlink:href="#DejaVuSans-48"/>
       <use x="127.246094" xlink:href="#DejaVuSans-48"/>
      </g>
     </g>
    </g>
    <g id="xtick_3">
     <g id="line2d_5">
      <path clip-path="url(#p0d7cb7d4aa)" d="M 203.95479 307.584 
L 203.95479 41.472 
" style="fill:none;stroke:#b0b0b0;stroke-linecap:square;stroke-width:0.8;"/>
     </g>
     <g id="line2d_6">
      <g>
       <use style="stroke:#000000;stroke-width:0.8;" x="203.95479" xlink:href="#m0ba388330c" y="307.584"/>
      </g>
     </g>
     <g id="text_3">
      <!-- 200 -->
      <defs>
       <path d="M 19.1875 8.296875 
L 53.609375 8.296875 
L 53.609375 0 
L 7.328125 0 
L 7.328125 8.296875 
Q 12.9375 14.109375 22.625 23.890625 
Q 32.328125 33.6875 34.8125 36.53125 
Q 39.546875 41.84375 41.421875 45.53125 
Q 43.3125 49.21875 43.3125 52.78125 
Q 43.3125 58.59375 39.234375 62.25 
Q 35.15625 65.921875 28.609375 65.921875 
Q 23.96875 65.921875 18.8125 64.3125 
Q 13.671875 62.703125 7.8125 59.421875 
L 7.8125 69.390625 
Q 13.765625 71.78125 18.9375 73 
Q 24.125 74.21875 28.421875 74.21875 
Q 39.75 74.21875 46.484375 68.546875 
Q 53.21875 62.890625 53.21875 53.421875 
Q 53.21875 48.921875 51.53125 44.890625 
Q 49.859375 40.875 45.40625 35.40625 
Q 44.1875 33.984375 37.640625 27.21875 
Q 31.109375 20.453125 19.1875 8.296875 
z
" id="DejaVuSans-50"/>
      </defs>
      <g transform="translate(194.41104 322.182437)scale(0.1 -0.1)">
       <use xlink:href="#DejaVuSans-50"/>
       <use x="63.623047" xlink:href="#DejaVuSans-48"/>
       <use x="127.246094" xlink:href="#DejaVuSans-48"/>
      </g>
     </g>
    </g>
    <g id="xtick_4">
     <g id="line2d_7">
      <path clip-path="url(#p0d7cb7d4aa)" d="M 269.015821 307.584 
L 269.015821 41.472 
" style="fill:none;stroke:#b0b0b0;stroke-linecap:square;stroke-width:0.8;"/>
     </g>
     <g id="line2d_8">
      <g>
       <use style="stroke:#000000;stroke-width:0.8;" x="269.015821" xlink:href="#m0ba388330c" y="307.584"/>
      </g>
     </g>
     <g id="text_4">
      <!-- 300 -->
      <defs>
       <path d="M 40.578125 39.3125 
Q 47.65625 37.796875 51.625 33 
Q 55.609375 28.21875 55.609375 21.1875 
Q 55.609375 10.40625 48.1875 4.484375 
Q 40.765625 -1.421875 27.09375 -1.421875 
Q 22.515625 -1.421875 17.65625 -0.515625 
Q 12.796875 0.390625 7.625 2.203125 
L 7.625 11.71875 
Q 11.71875 9.328125 16.59375 8.109375 
Q 21.484375 6.890625 26.8125 6.890625 
Q 36.078125 6.890625 40.9375 10.546875 
Q 45.796875 14.203125 45.796875 21.1875 
Q 45.796875 27.640625 41.28125 31.265625 
Q 36.765625 34.90625 28.71875 34.90625 
L 20.21875 34.90625 
L 20.21875 43.015625 
L 29.109375 43.015625 
Q 36.375 43.015625 40.234375 45.921875 
Q 44.09375 48.828125 44.09375 54.296875 
Q 44.09375 59.90625 40.109375 62.90625 
Q 36.140625 65.921875 28.71875 65.921875 
Q 24.65625 65.921875 20.015625 65.03125 
Q 15.375 64.15625 9.8125 62.3125 
L 9.8125 71.09375 
Q 15.4375 72.65625 20.34375 73.4375 
Q 25.25 74.21875 29.59375 74.21875 
Q 40.828125 74.21875 47.359375 69.109375 
Q 53.90625 64.015625 53.90625 55.328125 
Q 53.90625 49.265625 50.4375 45.09375 
Q 46.96875 40.921875 40.578125 39.3125 
z
" id="DejaVuSans-51"/>
      </defs>
      <g transform="translate(259.472071 322.182437)scale(0.1 -0.1)">
       <use xlink:href="#DejaVuSans-51"/>
       <use x="63.623047" xlink:href="#DejaVuSans-48"/>
       <use x="127.246094" xlink:href="#DejaVuSans-48"/>
      </g>
     </g>
    </g>
    <g id="xtick_5">
     <g id="line2d_9">
      <path clip-path="url(#p0d7cb7d4aa)" d="M 334.076852 307.584 
L 334.076852 41.472 
" style="fill:none;stroke:#b0b0b0;stroke-linecap:square;stroke-width:0.8;"/>
     </g>
     <g id="line2d_10">
      <g>
       <use style="stroke:#000000;stroke-width:0.8;" x="334.076852" xlink:href="#m0ba388330c" y="307.584"/>
      </g>
     </g>
     <g id="text_5">
      <!-- 400 -->
      <defs>
       <path d="M 37.796875 64.3125 
L 12.890625 25.390625 
L 37.796875 25.390625 
z
M 35.203125 72.90625 
L 47.609375 72.90625 
L 47.609375 25.390625 
L 58.015625 25.390625 
L 58.015625 17.1875 
L 47.609375 17.1875 
L 47.609375 0 
L 37.796875 0 
L 37.796875 17.1875 
L 4.890625 17.1875 
L 4.890625 26.703125 
z
" id="DejaVuSans-52"/>
      </defs>
      <g transform="translate(324.533102 322.182437)scale(0.1 -0.1)">
       <use xlink:href="#DejaVuSans-52"/>
       <use x="63.623047" xlink:href="#DejaVuSans-48"/>
       <use x="127.246094" xlink:href="#DejaVuSans-48"/>
      </g>
     </g>
    </g>
    <g id="xtick_6">
     <g id="line2d_11">
      <path clip-path="url(#p0d7cb7d4aa)" d="M 399.137883 307.584 
L 399.137883 41.472 
" style="fill:none;stroke:#b0b0b0;stroke-linecap:square;stroke-width:0.8;"/>
     </g>
     <g id="line2d_12">
      <g>
       <use style="stroke:#000000;stroke-width:0.8;" x="399.137883" xlink:href="#m0ba388330c" y="307.584"/>
      </g>
     </g>
     <g id="text_6">
      <!-- 500 -->
      <defs>
       <path d="M 10.796875 72.90625 
L 49.515625 72.90625 
L 49.515625 64.59375 
L 19.828125 64.59375 
L 19.828125 46.734375 
Q 21.96875 47.46875 24.109375 47.828125 
Q 26.265625 48.1875 28.421875 48.1875 
Q 40.625 48.1875 47.75 41.5 
Q 54.890625 34.8125 54.890625 23.390625 
Q 54.890625 11.625 47.5625 5.09375 
Q 40.234375 -1.421875 26.90625 -1.421875 
Q 22.3125 -1.421875 17.546875 -0.640625 
Q 12.796875 0.140625 7.71875 1.703125 
L 7.71875 11.625 
Q 12.109375 9.234375 16.796875 8.0625 
Q 21.484375 6.890625 26.703125 6.890625 
Q 35.15625 6.890625 40.078125 11.328125 
Q 45.015625 15.765625 45.015625 23.390625 
Q 45.015625 31 40.078125 35.4375 
Q 35.15625 39.890625 26.703125 39.890625 
Q 22.75 39.890625 18.8125 39.015625 
Q 14.890625 38.140625 10.796875 36.28125 
z
" id="DejaVuSans-53"/>
      </defs>
      <g transform="translate(389.594133 322.182437)scale(0.1 -0.1)">
       <use xlink:href="#DejaVuSans-53"/>
       <use x="63.623047" xlink:href="#DejaVuSans-48"/>
       <use x="127.246094" xlink:href="#DejaVuSans-48"/>
      </g>
     </g>
    </g>
    <g id="text_7">
     <!-- Generations -->
     <defs>
      <path d="M 59.515625 10.40625 
L 59.515625 29.984375 
L 43.40625 29.984375 
L 43.40625 38.09375 
L 69.28125 38.09375 
L 69.28125 6.78125 
Q 63.578125 2.734375 56.6875 0.65625 
Q 49.8125 -1.421875 42 -1.421875 
Q 24.90625 -1.421875 15.25 8.5625 
Q 5.609375 18.5625 5.609375 36.375 
Q 5.609375 54.25 15.25 64.234375 
Q 24.90625 74.21875 42 74.21875 
Q 49.125 74.21875 55.546875 72.453125 
Q 61.96875 70.703125 67.390625 67.28125 
L 67.390625 56.78125 
Q 61.921875 61.421875 55.765625 63.765625 
Q 49.609375 66.109375 42.828125 66.109375 
Q 29.4375 66.109375 22.71875 58.640625 
Q 16.015625 51.171875 16.015625 36.375 
Q 16.015625 21.625 22.71875 14.15625 
Q 29.4375 6.6875 42.828125 6.6875 
Q 48.046875 6.6875 52.140625 7.59375 
Q 56.25 8.5 59.515625 10.40625 
z
" id="DejaVuSans-71"/>
      <path d="M 56.203125 29.59375 
L 56.203125 25.203125 
L 14.890625 25.203125 
Q 15.484375 15.921875 20.484375 11.0625 
Q 25.484375 6.203125 34.421875 6.203125 
Q 39.59375 6.203125 44.453125 7.46875 
Q 49.3125 8.734375 54.109375 11.28125 
L 54.109375 2.78125 
Q 49.265625 0.734375 44.1875 -0.34375 
Q 39.109375 -1.421875 33.890625 -1.421875 
Q 20.796875 -1.421875 13.15625 6.1875 
Q 5.515625 13.8125 5.515625 26.8125 
Q 5.515625 40.234375 12.765625 48.109375 
Q 20.015625 56 32.328125 56 
Q 43.359375 56 49.78125 48.890625 
Q 56.203125 41.796875 56.203125 29.59375 
z
M 47.21875 32.234375 
Q 47.125 39.59375 43.09375 43.984375 
Q 39.0625 48.390625 32.421875 48.390625 
Q 24.90625 48.390625 20.390625 44.140625 
Q 15.875 39.890625 15.1875 32.171875 
z
" id="DejaVuSans-101"/>
      <path d="M 54.890625 33.015625 
L 54.890625 0 
L 45.90625 0 
L 45.90625 32.71875 
Q 45.90625 40.484375 42.875 44.328125 
Q 39.84375 48.1875 33.796875 48.1875 
Q 26.515625 48.1875 22.3125 43.546875 
Q 18.109375 38.921875 18.109375 30.90625 
L 18.109375 0 
L 9.078125 0 
L 9.078125 54.6875 
L 18.109375 54.6875 
L 18.109375 46.1875 
Q 21.34375 51.125 25.703125 53.5625 
Q 30.078125 56 35.796875 56 
Q 45.21875 56 50.046875 50.171875 
Q 54.890625 44.34375 54.890625 33.015625 
z
" id="DejaVuSans-110"/>
      <path d="M 41.109375 46.296875 
Q 39.59375 47.171875 37.8125 47.578125 
Q 36.03125 48 33.890625 48 
Q 26.265625 48 22.1875 43.046875 
Q 18.109375 38.09375 18.109375 28.8125 
L 18.109375 0 
L 9.078125 0 
L 9.078125 54.6875 
L 18.109375 54.6875 
L 18.109375 46.1875 
Q 20.953125 51.171875 25.484375 53.578125 
Q 30.03125 56 36.53125 56 
Q 37.453125 56 38.578125 55.875 
Q 39.703125 55.765625 41.0625 55.515625 
z
" id="DejaVuSans-114"/>
      <path d="M 34.28125 27.484375 
Q 23.390625 27.484375 19.1875 25 
Q 14.984375 22.515625 14.984375 16.5 
Q 14.984375 11.71875 18.140625 8.90625 
Q 21.296875 6.109375 26.703125 6.109375 
Q 34.1875 6.109375 38.703125 11.40625 
Q 43.21875 16.703125 43.21875 25.484375 
L 43.21875 27.484375 
z
M 52.203125 31.203125 
L 52.203125 0 
L 43.21875 0 
L 43.21875 8.296875 
Q 40.140625 3.328125 35.546875 0.953125 
Q 30.953125 -1.421875 24.3125 -1.421875 
Q 15.921875 -1.421875 10.953125 3.296875 
Q 6 8.015625 6 15.921875 
Q 6 25.140625 12.171875 29.828125 
Q 18.359375 34.515625 30.609375 34.515625 
L 43.21875 34.515625 
L 43.21875 35.40625 
Q 43.21875 41.609375 39.140625 45 
Q 35.0625 48.390625 27.6875 48.390625 
Q 23 48.390625 18.546875 47.265625 
Q 14.109375 46.140625 10.015625 43.890625 
L 10.015625 52.203125 
Q 14.9375 54.109375 19.578125 55.046875 
Q 24.21875 56 28.609375 56 
Q 40.484375 56 46.34375 49.84375 
Q 52.203125 43.703125 52.203125 31.203125 
z
" id="DejaVuSans-97"/>
      <path d="M 18.3125 70.21875 
L 18.3125 54.6875 
L 36.8125 54.6875 
L 36.8125 47.703125 
L 18.3125 47.703125 
L 18.3125 18.015625 
Q 18.3125 11.328125 20.140625 9.421875 
Q 21.96875 7.515625 27.59375 7.515625 
L 36.8125 7.515625 
L 36.8125 0 
L 27.59375 0 
Q 17.1875 0 13.234375 3.875 
Q 9.28125 7.765625 9.28125 18.015625 
L 9.28125 47.703125 
L 2.6875 47.703125 
L 2.6875 54.6875 
L 9.28125 54.6875 
L 9.28125 70.21875 
z
" id="DejaVuSans-116"/>
      <path d="M 9.421875 54.6875 
L 18.40625 54.6875 
L 18.40625 0 
L 9.421875 0 
z
M 9.421875 75.984375 
L 18.40625 75.984375 
L 18.40625 64.59375 
L 9.421875 64.59375 
z
" id="DejaVuSans-105"/>
      <path d="M 30.609375 48.390625 
Q 23.390625 48.390625 19.1875 42.75 
Q 14.984375 37.109375 14.984375 27.296875 
Q 14.984375 17.484375 19.15625 11.84375 
Q 23.34375 6.203125 30.609375 6.203125 
Q 37.796875 6.203125 41.984375 11.859375 
Q 46.1875 17.53125 46.1875 27.296875 
Q 46.1875 37.015625 41.984375 42.703125 
Q 37.796875 48.390625 30.609375 48.390625 
z
M 30.609375 56 
Q 42.328125 56 49.015625 48.375 
Q 55.71875 40.765625 55.71875 27.296875 
Q 55.71875 13.875 49.015625 6.21875 
Q 42.328125 -1.421875 30.609375 -1.421875 
Q 18.84375 -1.421875 12.171875 6.21875 
Q 5.515625 13.875 5.515625 27.296875 
Q 5.515625 40.765625 12.171875 48.375 
Q 18.84375 56 30.609375 56 
z
" id="DejaVuSans-111"/>
      <path d="M 44.28125 53.078125 
L 44.28125 44.578125 
Q 40.484375 46.53125 36.375 47.5 
Q 32.28125 48.484375 27.875 48.484375 
Q 21.1875 48.484375 17.84375 46.4375 
Q 14.5 44.390625 14.5 40.28125 
Q 14.5 37.15625 16.890625 35.375 
Q 19.28125 33.59375 26.515625 31.984375 
L 29.59375 31.296875 
Q 39.15625 29.25 43.1875 25.515625 
Q 47.21875 21.78125 47.21875 15.09375 
Q 47.21875 7.46875 41.1875 3.015625 
Q 35.15625 -1.421875 24.609375 -1.421875 
Q 20.21875 -1.421875 15.453125 -0.5625 
Q 10.6875 0.296875 5.421875 2 
L 5.421875 11.28125 
Q 10.40625 8.6875 15.234375 7.390625 
Q 20.0625 6.109375 24.8125 6.109375 
Q 31.15625 6.109375 34.5625 8.28125 
Q 37.984375 10.453125 37.984375 14.40625 
Q 37.984375 18.0625 35.515625 20.015625 
Q 33.0625 21.96875 24.703125 23.78125 
L 21.578125 24.515625 
Q 13.234375 26.265625 9.515625 29.90625 
Q 5.8125 33.546875 5.8125 39.890625 
Q 5.8125 47.609375 11.28125 51.796875 
Q 16.75 56 26.8125 56 
Q 31.78125 56 36.171875 55.265625 
Q 40.578125 54.546875 44.28125 53.078125 
z
" id="DejaVuSans-115"/>
     </defs>
     <g transform="translate(205.662344 335.860562)scale(0.1 -0.1)">
      <use xlink:href="#DejaVuSans-71"/>
      <use x="77.490234" xlink:href="#DejaVuSans-101"/>
      <use x="139.013672" xlink:href="#DejaVuSans-110"/>
      <use x="202.392578" xlink:href="#DejaVuSans-101"/>
      <use x="263.916016" xlink:href="#DejaVuSans-114"/>
      <use x="305.029297" xlink:href="#DejaVuSans-97"/>
      <use x="366.308594" xlink:href="#DejaVuSans-116"/>
      <use x="405.517578" xlink:href="#DejaVuSans-105"/>
      <use x="433.300781" xlink:href="#DejaVuSans-111"/>
      <use x="494.482422" xlink:href="#DejaVuSans-110"/>
      <use x="557.861328" xlink:href="#DejaVuSans-115"/>
     </g>
    </g>
   </g>
   <g id="matplotlib.axis_2">
    <g id="ytick_1">
     <g id="line2d_13">
      <path clip-path="url(#p0d7cb7d4aa)" d="M 57.6 280.865213 
L 414.72 280.865213 
" style="fill:none;stroke:#b0b0b0;stroke-linecap:square;stroke-width:0.8;"/>
     </g>
     <g id="line2d_14">
      <defs>
       <path d="M 0 0 
L -3.5 0 
" id="m01366ea8fc" style="stroke:#000000;stroke-width:0.8;"/>
      </defs>
      <g>
       <use style="stroke:#000000;stroke-width:0.8;" x="57.6" xlink:href="#m01366ea8fc" y="280.865213"/>
      </g>
     </g>
     <g id="text_8">
      <!-- 24 -->
      <g transform="translate(37.875 284.664431)scale(0.1 -0.1)">
       <use xlink:href="#DejaVuSans-50"/>
       <use x="63.623047" xlink:href="#DejaVuSans-52"/>
      </g>
     </g>
    </g>
    <g id="ytick_2">
     <g id="line2d_15">
      <path clip-path="url(#p0d7cb7d4aa)" d="M 57.6 250.558918 
L 414.72 250.558918 
" style="fill:none;stroke:#b0b0b0;stroke-linecap:square;stroke-width:0.8;"/>
     </g>
     <g id="line2d_16">
      <g>
       <use style="stroke:#000000;stroke-width:0.8;" x="57.6" xlink:href="#m01366ea8fc" y="250.558918"/>
      </g>
     </g>
     <g id="text_9">
      <!-- 26 -->
      <defs>
       <path d="M 33.015625 40.375 
Q 26.375 40.375 22.484375 35.828125 
Q 18.609375 31.296875 18.609375 23.390625 
Q 18.609375 15.53125 22.484375 10.953125 
Q 26.375 6.390625 33.015625 6.390625 
Q 39.65625 6.390625 43.53125 10.953125 
Q 47.40625 15.53125 47.40625 23.390625 
Q 47.40625 31.296875 43.53125 35.828125 
Q 39.65625 40.375 33.015625 40.375 
z
M 52.59375 71.296875 
L 52.59375 62.3125 
Q 48.875 64.0625 45.09375 64.984375 
Q 41.3125 65.921875 37.59375 65.921875 
Q 27.828125 65.921875 22.671875 59.328125 
Q 17.53125 52.734375 16.796875 39.40625 
Q 19.671875 43.65625 24.015625 45.921875 
Q 28.375 48.1875 33.59375 48.1875 
Q 44.578125 48.1875 50.953125 41.515625 
Q 57.328125 34.859375 57.328125 23.390625 
Q 57.328125 12.15625 50.6875 5.359375 
Q 44.046875 -1.421875 33.015625 -1.421875 
Q 20.359375 -1.421875 13.671875 8.265625 
Q 6.984375 17.96875 6.984375 36.375 
Q 6.984375 53.65625 15.1875 63.9375 
Q 23.390625 74.21875 37.203125 74.21875 
Q 40.921875 74.21875 44.703125 73.484375 
Q 48.484375 72.75 52.59375 71.296875 
z
" id="DejaVuSans-54"/>
      </defs>
      <g transform="translate(37.875 254.358136)scale(0.1 -0.1)">
       <use xlink:href="#DejaVuSans-50"/>
       <use x="63.623047" xlink:href="#DejaVuSans-54"/>
      </g>
     </g>
    </g>
    <g id="ytick_3">
     <g id="line2d_17">
      <path clip-path="url(#p0d7cb7d4aa)" d="M 57.6 220.252623 
L 414.72 220.252623 
" style="fill:none;stroke:#b0b0b0;stroke-linecap:square;stroke-width:0.8;"/>
     </g>
     <g id="line2d_18">
      <g>
       <use style="stroke:#000000;stroke-width:0.8;" x="57.6" xlink:href="#m01366ea8fc" y="220.252623"/>
      </g>
     </g>
     <g id="text_10">
      <!-- 28 -->
      <defs>
       <path d="M 31.78125 34.625 
Q 24.75 34.625 20.71875 30.859375 
Q 16.703125 27.09375 16.703125 20.515625 
Q 16.703125 13.921875 20.71875 10.15625 
Q 24.75 6.390625 31.78125 6.390625 
Q 38.8125 6.390625 42.859375 10.171875 
Q 46.921875 13.96875 46.921875 20.515625 
Q 46.921875 27.09375 42.890625 30.859375 
Q 38.875 34.625 31.78125 34.625 
z
M 21.921875 38.8125 
Q 15.578125 40.375 12.03125 44.71875 
Q 8.5 49.078125 8.5 55.328125 
Q 8.5 64.0625 14.71875 69.140625 
Q 20.953125 74.21875 31.78125 74.21875 
Q 42.671875 74.21875 48.875 69.140625 
Q 55.078125 64.0625 55.078125 55.328125 
Q 55.078125 49.078125 51.53125 44.71875 
Q 48 40.375 41.703125 38.8125 
Q 48.828125 37.15625 52.796875 32.3125 
Q 56.78125 27.484375 56.78125 20.515625 
Q 56.78125 9.90625 50.3125 4.234375 
Q 43.84375 -1.421875 31.78125 -1.421875 
Q 19.734375 -1.421875 13.25 4.234375 
Q 6.78125 9.90625 6.78125 20.515625 
Q 6.78125 27.484375 10.78125 32.3125 
Q 14.796875 37.15625 21.921875 38.8125 
z
M 18.3125 54.390625 
Q 18.3125 48.734375 21.84375 45.5625 
Q 25.390625 42.390625 31.78125 42.390625 
Q 38.140625 42.390625 41.71875 45.5625 
Q 45.3125 48.734375 45.3125 54.390625 
Q 45.3125 60.0625 41.71875 63.234375 
Q 38.140625 66.40625 31.78125 66.40625 
Q 25.390625 66.40625 21.84375 63.234375 
Q 18.3125 60.0625 18.3125 54.390625 
z
" id="DejaVuSans-56"/>
      </defs>
      <g transform="translate(37.875 224.051841)scale(0.1 -0.1)">
       <use xlink:href="#DejaVuSans-50"/>
       <use x="63.623047" xlink:href="#DejaVuSans-56"/>
      </g>
     </g>
    </g>
    <g id="ytick_4">
     <g id="line2d_19">
      <path clip-path="url(#p0d7cb7d4aa)" d="M 57.6 189.946328 
L 414.72 189.946328 
" style="fill:none;stroke:#b0b0b0;stroke-linecap:square;stroke-width:0.8;"/>
     </g>
     <g id="line2d_20">
      <g>
       <use style="stroke:#000000;stroke-width:0.8;" x="57.6" xlink:href="#m01366ea8fc" y="189.946328"/>
      </g>
     </g>
     <g id="text_11">
      <!-- 30 -->
      <g transform="translate(37.875 193.745546)scale(0.1 -0.1)">
       <use xlink:href="#DejaVuSans-51"/>
       <use x="63.623047" xlink:href="#DejaVuSans-48"/>
      </g>
     </g>
    </g>
    <g id="ytick_5">
     <g id="line2d_21">
      <path clip-path="url(#p0d7cb7d4aa)" d="M 57.6 159.640033 
L 414.72 159.640033 
" style="fill:none;stroke:#b0b0b0;stroke-linecap:square;stroke-width:0.8;"/>
     </g>
     <g id="line2d_22">
      <g>
       <use style="stroke:#000000;stroke-width:0.8;" x="57.6" xlink:href="#m01366ea8fc" y="159.640033"/>
      </g>
     </g>
     <g id="text_12">
      <!-- 32 -->
      <g transform="translate(37.875 163.439251)scale(0.1 -0.1)">
       <use xlink:href="#DejaVuSans-51"/>
       <use x="63.623047" xlink:href="#DejaVuSans-50"/>
      </g>
     </g>
    </g>
    <g id="ytick_6">
     <g id="line2d_23">
      <path clip-path="url(#p0d7cb7d4aa)" d="M 57.6 129.333738 
L 414.72 129.333738 
" style="fill:none;stroke:#b0b0b0;stroke-linecap:square;stroke-width:0.8;"/>
     </g>
     <g id="line2d_24">
      <g>
       <use style="stroke:#000000;stroke-width:0.8;" x="57.6" xlink:href="#m01366ea8fc" y="129.333738"/>
      </g>
     </g>
     <g id="text_13">
      <!-- 34 -->
      <g transform="translate(37.875 133.132956)scale(0.1 -0.1)">
       <use xlink:href="#DejaVuSans-51"/>
       <use x="63.623047" xlink:href="#DejaVuSans-52"/>
      </g>
     </g>
    </g>
    <g id="ytick_7">
     <g id="line2d_25">
      <path clip-path="url(#p0d7cb7d4aa)" d="M 57.6 99.027443 
L 414.72 99.027443 
" style="fill:none;stroke:#b0b0b0;stroke-linecap:square;stroke-width:0.8;"/>
     </g>
     <g id="line2d_26">
      <g>
       <use style="stroke:#000000;stroke-width:0.8;" x="57.6" xlink:href="#m01366ea8fc" y="99.027443"/>
      </g>
     </g>
     <g id="text_14">
      <!-- 36 -->
      <g transform="translate(37.875 102.826661)scale(0.1 -0.1)">
       <use xlink:href="#DejaVuSans-51"/>
       <use x="63.623047" xlink:href="#DejaVuSans-54"/>
      </g>
     </g>
    </g>
    <g id="ytick_8">
     <g id="line2d_27">
      <path clip-path="url(#p0d7cb7d4aa)" d="M 57.6 68.721148 
L 414.72 68.721148 
" style="fill:none;stroke:#b0b0b0;stroke-linecap:square;stroke-width:0.8;"/>
     </g>
     <g id="line2d_28">
      <g>
       <use style="stroke:#000000;stroke-width:0.8;" x="57.6" xlink:href="#m01366ea8fc" y="68.721148"/>
      </g>
     </g>
     <g id="text_15">
      <!-- 38 -->
      <g transform="translate(37.875 72.520366)scale(0.1 -0.1)">
       <use xlink:href="#DejaVuSans-51"/>
       <use x="63.623047" xlink:href="#DejaVuSans-56"/>
      </g>
     </g>
    </g>
    <g id="text_16">
     <!-- Fitness -->
     <defs>
      <path d="M 9.8125 72.90625 
L 51.703125 72.90625 
L 51.703125 64.59375 
L 19.671875 64.59375 
L 19.671875 43.109375 
L 48.578125 43.109375 
L 48.578125 34.8125 
L 19.671875 34.8125 
L 19.671875 0 
L 9.8125 0 
z
" id="DejaVuSans-70"/>
     </defs>
     <g transform="translate(31.795312 192.202219)rotate(-90)scale(0.1 -0.1)">
      <use xlink:href="#DejaVuSans-70"/>
      <use x="57.410156" xlink:href="#DejaVuSans-105"/>
      <use x="85.193359" xlink:href="#DejaVuSans-116"/>
      <use x="124.402344" xlink:href="#DejaVuSans-110"/>
      <use x="187.78125" xlink:href="#DejaVuSans-101"/>
      <use x="249.304688" xlink:href="#DejaVuSans-115"/>
      <use x="301.404297" xlink:href="#DejaVuSans-115"/>
     </g>
    </g>
   </g>
   <g id="line2d_29">
    <path clip-path="url(#p0d7cb7d4aa)" d="M 73.832727 295.488 
L 74.483338 294.086334 
L 75.133948 284.283216 
L 75.784558 291.408176 
L 76.435169 283.827482 
L 77.085779 285.648403 
L 77.736389 281.054627 
L 78.386999 287.18537 
L 79.03761 287.332086 
L 79.68822 277.902943 
L 80.33883 279.118233 
L 80.989441 282.452325 
L 81.640051 280.637915 
L 82.290661 279.570723 
L 82.941272 281.054155 
L 83.591882 286.382319 
L 84.242492 282.806948 
L 84.893103 281.890614 
L 85.543713 284.009491 
L 86.194323 282.511481 
L 86.844934 288.959679 
L 87.495544 285.369171 
L 88.146154 284.558316 
L 88.796764 280.479636 
L 89.447375 287.321441 
L 90.097985 284.211689 
L 90.748595 285.648403 
L 91.399206 286.50976 
L 92.049816 283.035293 
L 92.700426 282.843333 
L 93.351037 281.322091 
L 94.001647 284.540976 
L 94.652257 287.100298 
L 95.302868 284.888505 
L 95.953478 279.918141 
L 96.604088 283.84307 
L 97.254698 289.350975 
L 97.905309 282.878037 
L 98.555919 285.162374 
L 99.206529 282.191113 
L 99.85714 283.599615 
L 100.50775 278.603549 
L 101.15836 281.507615 
L 101.808971 280.56215 
L 102.459581 288.441786 
L 103.760802 281.43488 
L 104.411412 285.95424 
L 105.062022 282.607825 
L 105.712633 283.820076 
L 106.363243 282.867998 
L 107.013853 286.888589 
L 107.664463 281.662747 
L 108.315074 286.675818 
L 108.965684 281.358924 
L 109.616294 285.71422 
L 110.266905 281.09251 
L 110.917515 286.684626 
L 111.568125 283.208093 
L 112.218736 285.664339 
L 112.869346 281.658769 
L 113.519956 285.688395 
L 114.170567 277.864965 
L 114.821177 278.743772 
L 115.471787 279.991723 
L 116.122398 278.548566 
L 116.773008 278.668006 
L 118.074228 273.743233 
L 118.724839 278.668006 
L 120.026059 280.448501 
L 120.67667 278.781655 
L 121.32728 275.296431 
L 121.97789 285.108094 
L 122.628501 280.183321 
L 123.279111 279.615078 
L 123.929721 278.440709 
L 124.580332 281.09251 
L 125.881552 269.310938 
L 126.532163 277.910349 
L 127.182773 275.978323 
L 127.833383 278.933186 
L 128.483993 274.235711 
L 129.134604 273.818999 
L 129.785214 274.273593 
L 130.435824 276.660214 
L 131.086435 279.728727 
L 131.737045 274.008413 
L 132.387655 278.781655 
L 133.038266 279.539312 
L 133.688876 273.894765 
L 134.339486 270.523189 
L 135.640707 281.016744 
L 136.291317 272.606747 
L 136.941927 275.107017 
L 137.592538 274.311476 
L 138.243148 274.576656 
L 138.893758 275.485845 
L 139.544369 274.766071 
L 140.194979 275.258548 
L 140.845589 273.326522 
L 141.4962 270.78837 
L 142.14681 276.129854 
L 142.79742 273.061342 
L 143.448031 272.834044 
L 144.098641 274.728188 
L 144.749251 272.227919 
L 145.399862 268.81846 
L 146.050472 275.41008 
L 146.701082 273.856882 
L 148.002303 272.90981 
L 148.652913 276.73598 
L 149.303523 272.796162 
L 149.954134 272.265801 
L 150.604744 275.334314 
L 151.255354 271.205081 
L 151.905965 269.992829 
L 152.556575 273.70535 
L 153.857796 271.356613 
L 154.508406 276.281386 
L 155.159016 271.773324 
L 155.809627 273.553819 
L 156.460237 267.265263 
L 157.110847 266.393957 
L 157.761457 266.053011 
L 158.412068 266.9622 
L 159.062678 268.325983 
L 159.713288 271.773324 
L 160.363899 266.393957 
L 161.014509 268.591163 
L 161.665119 271.280847 
L 162.96634 273.856882 
L 163.61695 273.667468 
L 164.267561 274.159945 
L 165.568781 268.098686 
L 166.219392 267.644091 
L 166.870002 274.652422 
L 168.171222 266.886434 
L 168.821833 269.386703 
L 169.472443 272.341567 
L 170.123053 266.810668 
L 170.773664 271.167198 
L 171.424274 272.682513 
L 172.074884 276.546566 
L 172.725495 268.174452 
L 173.376105 270.220127 
L 174.026715 271.470261 
L 174.677326 273.061342 
L 175.327936 269.235172 
L 175.978546 267.833506 
L 176.629156 272.190036 
L 177.279767 274.008413 
L 177.930377 272.303684 
L 178.580987 269.500352 
L 179.231598 270.333775 
L 179.882208 273.856882 
L 180.532818 276.584448 
L 181.183429 272.303684 
L 181.834039 268.969992 
L 182.484649 268.55328 
L 183.13526 269.348821 
L 183.78587 272.90981 
L 184.43648 274.084179 
L 185.087091 273.553819 
L 185.737701 266.886434 
L 186.388311 271.924856 
L 187.038921 267.49256 
L 187.689532 271.205081 
L 188.340142 271.508144 
L 188.990752 270.182244 
L 189.641363 273.70535 
L 190.291973 275.372197 
L 190.942583 272.64463 
L 191.593194 271.886973 
L 192.243804 272.493099 
L 192.894414 270.826252 
L 193.545025 272.227919 
L 194.195635 270.030712 
L 194.846245 276.432917 
L 195.496856 271.129315 
L 196.147466 271.773324 
L 196.798076 275.296431 
L 197.448686 271.811207 
L 198.099297 272.038504 
L 198.749907 269.159406 
L 199.400517 271.84909 
L 200.051128 269.538235 
L 200.701738 272.000621 
L 201.352348 272.985576 
L 202.002959 269.386703 
L 202.653569 267.833506 
L 203.304179 271.773324 
L 203.95479 269.841298 
L 204.6054 268.666929 
L 205.906621 272.530982 
L 206.557231 265.977245 
L 207.207841 272.227919 
L 207.858451 269.576118 
L 208.509062 268.894226 
L 209.159672 270.977784 
L 209.810282 269.689766 
L 210.460893 270.864135 
L 211.111503 269.954946 
L 211.762113 269.765532 
L 212.412724 271.962738 
L 213.063334 272.038504 
L 213.713944 268.250217 
L 214.364555 269.159406 
L 215.015165 263.817922 
L 215.665775 270.106478 
L 216.316385 266.545488 
L 216.966996 269.273055 
L 217.617606 276.20562 
L 218.268216 271.205081 
L 218.918827 269.424586 
L 219.569437 272.796162 
L 220.220047 275.107017 
L 220.870658 272.758279 
L 221.521268 274.046296 
L 222.171878 274.046296 
L 222.822489 273.629585 
L 223.473099 274.500891 
L 224.123709 267.985037 
L 224.77432 270.523189 
L 225.42493 275.107017 
L 226.07554 277.948232 
L 226.72615 273.856882 
L 227.376761 271.58391 
L 228.027371 270.030712 
L 228.677981 277.607286 
L 229.328592 271.58391 
L 229.979202 273.137107 
L 230.629812 277.114809 
L 231.280423 274.425125 
L 231.931033 274.614539 
L 232.581643 272.720396 
L 233.232254 268.591163 
L 233.882864 267.113731 
L 234.533474 268.212334 
L 235.184085 275.144899 
L 235.834695 271.697558 
L 236.485305 272.37945 
L 237.135915 269.273055 
L 237.786526 276.20562 
L 238.437136 273.743233 
L 239.087746 271.962738 
L 239.738357 269.310938 
L 240.388967 274.084179 
L 241.039577 272.606747 
L 241.690188 273.591702 
L 242.340798 266.583371 
L 242.991408 268.969992 
L 243.642019 266.015128 
L 244.292629 270.182244 
L 244.943239 269.727649 
L 245.59385 265.409002 
L 246.24446 264.651345 
L 246.89507 271.280847 
L 247.54568 272.37945 
L 248.196291 272.985576 
L 248.846901 267.568326 
L 249.497511 267.378911 
L 250.148122 270.258009 
L 250.798732 274.955485 
L 251.449342 271.811207 
L 252.099953 262.60567 
L 252.750563 270.182244 
L 254.051784 276.357151 
L 254.702394 269.992829 
L 255.353004 271.659676 
L 256.003615 271.886973 
L 256.654225 270.333775 
L 257.304835 270.144361 
L 257.955445 271.508144 
L 258.606056 274.084179 
L 259.907276 269.007875 
L 260.557887 274.766071 
L 261.208497 270.258009 
L 261.859107 276.016205 
L 262.509718 270.409541 
L 263.160328 270.561072 
L 263.810938 272.076387 
L 264.461549 269.121523 
L 265.112159 268.515397 
L 265.762769 274.841837 
L 266.413379 276.508683 
L 267.06399 270.523189 
L 267.7146 272.530982 
L 268.36521 273.515936 
L 269.015821 269.538235 
L 269.666431 267.681974 
L 270.317041 273.099225 
L 270.967652 271.280847 
L 271.618262 275.41008 
L 272.268872 271.621793 
L 272.919483 271.924856 
L 273.570093 268.136569 
L 274.220703 271.432378 
L 274.871314 269.386703 
L 275.521924 271.773324 
L 276.172534 271.167198 
L 276.823144 275.751025 
L 277.473755 276.091971 
L 278.124365 272.720396 
L 278.774975 274.728188 
L 279.425586 271.773324 
L 280.076196 274.387242 
L 280.726806 275.902557 
L 281.377417 275.296431 
L 282.028027 272.076387 
L 282.678637 270.030712 
L 283.329248 269.727649 
L 283.979858 265.939362 
L 284.630468 264.575579 
L 285.281079 270.78837 
L 285.931689 267.985037 
L 286.582299 267.22738 
L 287.232909 272.985576 
L 287.88352 272.341567 
L 288.53413 272.530982 
L 289.18474 271.394495 
L 289.835351 266.772785 
L 290.485961 270.939901 
L 291.136571 272.530982 
L 292.437792 271.811207 
L 293.088402 268.325983 
L 293.739013 266.659137 
L 294.389623 267.265263 
L 295.040233 273.932648 
L 295.690844 275.447962 
L 296.341454 270.78837 
L 296.992064 273.212873 
L 297.642674 271.546027 
L 298.293285 275.978323 
L 298.943895 276.432917 
L 299.594505 271.773324 
L 300.245116 271.659676 
L 300.895726 271.356613 
L 301.546336 274.955485 
L 302.196947 270.864135 
L 302.847557 277.493637 
L 303.498167 271.432378 
L 304.148778 269.727649 
L 304.799388 272.37945 
L 305.449998 266.734903 
L 306.100608 273.288639 
L 306.751219 272.000621 
L 307.401829 267.947154 
L 308.052439 265.371119 
L 308.70305 269.273055 
L 309.35366 270.220127 
L 310.00427 271.432378 
L 310.654881 273.743233 
L 311.305491 267.75774 
L 311.956101 264.348282 
L 312.606712 275.258548 
L 313.257322 267.113731 
L 313.907932 265.749948 
L 314.558543 269.879181 
L 315.209153 267.833506 
L 315.859763 271.962738 
L 316.510373 272.682513 
L 317.160984 272.265801 
L 317.811594 275.144899 
L 318.462204 270.371658 
L 319.112815 272.190036 
L 319.763425 267.416794 
L 320.414035 275.258548 
L 321.064646 272.530982 
L 321.715256 271.811207 
L 322.365866 265.712065 
L 323.016477 272.530982 
L 323.667087 268.55328 
L 324.317697 272.530982 
L 324.968308 269.841298 
L 325.618918 275.523728 
L 326.269528 271.470261 
L 326.920138 270.902018 
L 327.570749 271.886973 
L 328.221359 273.856882 
L 328.871969 268.81846 
L 329.52258 271.091433 
L 330.17319 272.758279 
L 330.8238 273.17499 
L 331.474411 271.167198 
L 332.125021 274.879719 
L 332.775631 274.122062 
L 333.426242 272.152153 
L 334.076852 271.015667 
L 334.727462 270.523189 
L 335.378073 273.591702 
L 336.028683 274.652422 
L 336.679293 275.144899 
L 337.329903 270.371658 
L 337.980514 276.281386 
L 338.631124 276.243503 
L 339.281734 276.73598 
L 339.932345 271.356613 
L 340.582955 270.674721 
L 341.233565 274.122062 
L 341.884176 265.712065 
L 342.534786 274.463008 
L 343.185396 272.682513 
L 343.836007 261.961661 
L 344.486617 268.780578 
L 345.137227 272.37945 
L 345.787837 271.05355 
L 346.438448 271.470261 
L 347.089058 268.780578 
L 347.739668 269.538235 
L 348.390279 275.296431 
L 349.040889 269.879181 
L 349.691499 268.666929 
L 350.34211 268.401749 
L 350.99272 273.629585 
L 351.64333 270.144361 
L 352.293941 273.17499 
L 352.944551 269.121523 
L 353.595161 273.402288 
L 354.896382 271.167198 
L 355.546992 272.493099 
L 356.197602 270.220127 
L 356.848213 273.970531 
L 357.498823 270.030712 
L 358.149433 270.939901 
L 358.800044 274.349359 
L 359.450654 268.55328 
L 360.101264 268.060803 
L 360.751875 269.500352 
L 361.402485 268.363866 
L 362.053095 269.273055 
L 362.703706 271.31873 
L 363.354316 272.834044 
L 364.004926 271.962738 
L 364.655537 266.9622 
L 365.306147 264.613462 
L 365.956757 271.205081 
L 366.607367 271.58391 
L 367.257978 273.894765 
L 367.908588 266.318191 
L 368.559198 272.568864 
L 369.209809 269.765532 
L 369.860419 269.992829 
L 370.511029 268.439632 
L 371.16164 267.530443 
L 371.81225 274.690305 
L 372.46286 267.265263 
L 373.113471 268.325983 
L 373.764081 272.947693 
L 375.065302 270.144361 
L 375.715912 273.44017 
L 376.366522 267.795623 
L 377.017132 266.9622 
L 377.667743 271.697558 
L 378.318353 274.425125 
L 378.968963 269.651883 
L 379.619574 271.470261 
L 380.270184 272.190036 
L 380.920794 271.205081 
L 381.571405 272.303684 
L 382.222015 272.455216 
L 382.872625 271.015667 
L 383.523236 274.841837 
L 384.173846 272.303684 
L 384.824456 275.107017 
L 385.475066 275.220665 
L 386.125677 269.992829 
L 386.776287 266.318191 
L 387.426897 267.606209 
L 388.077508 271.091433 
L 388.728118 273.250756 
L 389.378728 268.704812 
L 390.029339 265.749948 
L 390.679949 272.000621 
L 391.330559 269.159406 
L 391.98117 276.054088 
L 392.63178 270.409541 
L 393.28239 274.728188 
L 393.933001 267.909272 
L 394.583611 273.818999 
L 395.234221 266.848551 
L 395.884831 270.333775 
L 396.535442 269.614001 
L 397.186052 271.924856 
L 397.836662 276.319268 
L 398.487273 274.538774 
L 398.487273 274.538774 
" style="fill:none;stroke:#0000ff;stroke-linecap:square;stroke-width:1.5;"/>
   </g>
   <g id="line2d_30">
    <path clip-path="url(#p0d7cb7d4aa)" d="M 73.832727 242.954909 
L 74.483338 241.558775 
L 75.133948 226.292251 
L 75.784558 235.13157 
L 76.435169 224.633093 
L 77.085779 233.147839 
L 77.736389 224.829826 
L 78.386999 231.427536 
L 79.03761 232.554203 
L 79.68822 219.777903 
L 80.33883 224.706032 
L 80.989441 228.520457 
L 81.640051 222.009185 
L 82.290661 220.671391 
L 82.941272 224.019256 
L 83.591882 232.200239 
L 84.242492 228.327661 
L 84.893103 226.813644 
L 85.543713 228.34473 
L 86.194323 231.5472 
L 86.844934 238.590945 
L 87.495544 227.335737 
L 88.146154 228.838804 
L 88.796764 224.82312 
L 89.447375 232.013017 
L 90.097985 228.225003 
L 90.748595 234.751703 
L 91.399206 230.353611 
L 92.049816 230.061081 
L 92.700426 224.755601 
L 93.351037 227.006275 
L 94.001647 228.416235 
L 94.652257 232.959111 
L 95.302868 231.510667 
L 95.953478 228.735946 
L 96.604088 228.908003 
L 97.254698 232.924267 
L 97.905309 228.269137 
L 98.555919 228.285089 
L 99.206529 224.849225 
L 99.85714 226.310993 
L 100.50775 220.320746 
L 101.15836 230.778102 
L 101.808971 224.373592 
L 102.459581 230.650852 
L 103.110191 226.705028 
L 103.760802 227.95214 
L 105.062022 228.709089 
L 105.712633 229.87833 
L 106.363243 228.827973 
L 107.013853 232.517512 
L 107.664463 227.871762 
L 108.315074 232.562511 
L 108.965684 227.553597 
L 109.616294 231.452832 
L 110.266905 226.65753 
L 110.917515 231.362515 
L 111.568125 227.981517 
L 112.218736 228.922144 
L 112.869346 223.683066 
L 113.519956 230.001446 
L 114.170567 221.485881 
L 114.821177 221.611382 
L 115.471787 226.255439 
L 116.122398 219.886796 
L 116.773008 225.085022 
L 118.074228 218.534804 
L 118.724839 220.76003 
L 119.375449 225.591778 
L 120.026059 225.432467 
L 120.67667 224.634657 
L 121.32728 219.543053 
L 121.97789 229.925665 
L 122.628501 225.646777 
L 123.279111 222.875304 
L 123.929721 223.607249 
L 124.580332 222.278041 
L 125.230942 220.107509 
L 125.881552 213.262532 
L 126.532163 224.610943 
L 127.182773 222.428519 
L 127.833383 224.982355 
L 128.483993 222.534615 
L 129.134604 214.772693 
L 129.785214 220.40895 
L 130.435824 220.022107 
L 131.086435 225.000108 
L 131.737045 218.223538 
L 132.387655 222.912771 
L 133.038266 224.872679 
L 133.688876 218.170314 
L 134.339486 217.224389 
L 134.990097 222.558719 
L 135.640707 226.518264 
L 136.291317 218.503485 
L 136.941927 219.018669 
L 137.592538 220.181761 
L 138.243148 218.812302 
L 138.893758 223.270168 
L 139.544369 221.437553 
L 140.194979 221.94595 
L 140.845589 217.919035 
L 141.4962 218.235613 
L 142.14681 222.182002 
L 142.79742 217.841112 
L 143.448031 217.304219 
L 144.098641 219.070582 
L 145.399862 218.394726 
L 146.050472 219.681508 
L 146.701082 221.389792 
L 147.351692 218.314139 
L 148.002303 219.497652 
L 148.652913 216.822106 
L 149.303523 219.299018 
L 149.954134 215.841039 
L 150.604744 220.684629 
L 151.255354 219.804645 
L 151.905965 215.498997 
L 152.556575 218.945549 
L 153.207185 218.270563 
L 153.857796 215.920642 
L 154.508406 221.235622 
L 155.159016 219.270347 
L 155.809627 221.578979 
L 156.460237 214.279072 
L 157.110847 215.134698 
L 157.761457 212.721264 
L 158.412068 214.687808 
L 159.062678 213.266143 
L 159.713288 218.10251 
L 160.363899 214.202471 
L 161.014509 215.417 
L 161.665119 215.147805 
L 162.31573 219.203223 
L 162.96634 215.919929 
L 163.61695 215.71906 
L 164.267561 216.445161 
L 164.918171 217.984776 
L 165.568781 212.582107 
L 166.219392 211.841726 
L 166.870002 219.355059 
L 167.520612 217.204961 
L 168.171222 211.933562 
L 168.821833 211.409934 
L 169.472443 212.575714 
L 170.123053 214.073701 
L 170.773664 214.054907 
L 171.424274 216.608905 
L 172.074884 224.06814 
L 172.725495 215.157719 
L 173.376105 216.551465 
L 174.026715 215.096072 
L 174.677326 217.200306 
L 175.327936 214.340934 
L 175.978546 214.883282 
L 176.629156 219.295471 
L 177.279767 218.647049 
L 177.930377 217.029424 
L 178.580987 213.757156 
L 179.882208 219.224387 
L 180.532818 222.993497 
L 181.834039 213.409834 
L 183.13526 214.268849 
L 183.78587 216.507574 
L 184.43648 221.718611 
L 185.087091 220.98595 
L 185.737701 212.574514 
L 186.388311 216.430603 
L 187.038921 212.482891 
L 187.689532 215.136196 
L 188.340142 221.857142 
L 188.990752 215.877762 
L 189.641363 219.972016 
L 190.291973 220.201225 
L 190.942583 217.4069 
L 191.593194 220.21842 
L 192.243804 219.919661 
L 192.894414 217.415774 
L 193.545025 218.024748 
L 194.195635 215.788 
L 194.846245 225.773011 
L 195.496856 217.427079 
L 196.147466 212.462736 
L 196.798076 219.90459 
L 197.448686 218.806602 
L 198.099297 219.583232 
L 198.749907 213.081 
L 199.400517 214.026428 
L 200.051128 215.998616 
L 200.701738 219.50251 
L 201.352348 215.985566 
L 202.002959 216.13747 
L 202.653569 212.956094 
L 203.304179 219.830951 
L 203.95479 214.447799 
L 204.6054 212.996948 
L 205.25601 216.45439 
L 205.906621 218.037558 
L 206.557231 212.269664 
L 207.207841 218.717565 
L 207.858451 214.24124 
L 208.509062 215.18941 
L 209.159672 215.566671 
L 209.810282 213.319663 
L 211.111503 218.130739 
L 211.762113 217.688629 
L 212.412724 216.903732 
L 213.063334 216.988152 
L 213.713944 211.94971 
L 214.364555 214.78569 
L 215.015165 208.744256 
L 215.665775 212.732451 
L 216.316385 212.45496 
L 217.617606 222.283099 
L 218.268216 214.982832 
L 218.918827 211.922484 
L 219.569437 218.047473 
L 220.220047 218.987974 
L 220.870658 219.670821 
L 221.521268 219.721681 
L 222.171878 224.127081 
L 222.822489 215.404232 
L 223.473099 221.068907 
L 224.123709 212.811139 
L 224.77432 216.412036 
L 226.07554 222.374296 
L 226.72615 217.507149 
L 227.376761 215.573925 
L 228.027371 215.408344 
L 228.677981 220.257527 
L 229.328592 213.451602 
L 229.979202 218.501867 
L 230.629812 219.890369 
L 231.280423 222.794513 
L 231.931033 219.461779 
L 232.581643 219.063287 
L 233.232254 212.680566 
L 233.882864 211.090219 
L 234.533474 212.027506 
L 235.184085 219.30397 
L 235.834695 213.394408 
L 236.485305 215.567473 
L 237.135915 215.410542 
L 237.786526 218.597857 
L 238.437136 217.965858 
L 239.087746 215.483269 
L 239.738357 218.21293 
L 240.388967 217.321039 
L 241.039577 219.219099 
L 241.690188 215.900981 
L 242.340798 208.625417 
L 242.991408 213.710273 
L 243.642019 211.63327 
L 244.292629 215.708891 
L 244.943239 217.323659 
L 245.59385 210.023056 
L 246.24446 210.948239 
L 246.89507 217.647601 
L 247.54568 220.092527 
L 248.196291 217.485738 
L 248.846901 209.762506 
L 249.497511 209.502814 
L 250.798732 219.916174 
L 251.449342 221.052701 
L 252.099953 205.357698 
L 252.750563 217.378416 
L 253.401173 218.194026 
L 254.051784 220.384793 
L 254.702394 215.299215 
L 255.353004 216.671403 
L 256.003615 215.725304 
L 256.654225 215.046639 
L 257.304835 215.232349 
L 257.955445 216.129259 
L 258.606056 213.448402 
L 259.256666 214.988188 
L 259.907276 213.942926 
L 260.557887 221.104897 
L 261.208497 213.610769 
L 261.859107 220.510162 
L 262.509718 216.050277 
L 263.160328 213.77699 
L 263.810938 216.382437 
L 265.112159 211.492883 
L 265.762769 221.904421 
L 266.413379 218.946976 
L 267.06399 218.246601 
L 267.7146 218.418118 
L 268.36521 218.431014 
L 269.015821 214.894918 
L 269.666431 213.567838 
L 270.317041 216.452301 
L 270.967652 221.063664 
L 271.618262 224.078247 
L 272.268872 218.525415 
L 272.919483 216.783428 
L 273.570093 213.945473 
L 274.220703 215.911044 
L 274.871314 215.857915 
L 275.521924 217.285168 
L 276.172534 215.935275 
L 276.823144 222.437364 
L 277.473755 217.7164 
L 278.124365 220.94718 
L 278.774975 220.111706 
L 279.425586 214.04202 
L 280.076196 223.857132 
L 280.726806 218.70019 
L 281.377417 220.771532 
L 282.678637 212.421293 
L 283.329248 212.848266 
L 283.979858 211.504382 
L 284.630468 207.808129 
L 285.281079 212.635464 
L 285.931689 212.561999 
L 286.582299 211.592418 
L 287.232909 220.058775 
L 287.88352 220.330513 
L 288.53413 219.187382 
L 289.18474 216.164703 
L 289.835351 211.635106 
L 291.136571 218.132448 
L 291.787182 216.425693 
L 292.437792 218.214257 
L 293.739013 209.50024 
L 294.389623 211.041176 
L 295.040233 218.167431 
L 295.690844 220.551111 
L 296.341454 212.281176 
L 296.992064 220.187736 
L 297.642674 218.257823 
L 298.293285 218.819626 
L 298.943895 224.464152 
L 299.594505 216.646265 
L 300.245116 219.30244 
L 300.895726 222.857677 
L 301.546336 218.08998 
L 302.196947 216.493257 
L 302.847557 224.50528 
L 303.498167 216.118214 
L 304.799388 219.470439 
L 305.449998 213.164842 
L 306.100608 219.875137 
L 306.751219 217.53823 
L 307.401829 212.579569 
L 308.052439 210.229497 
L 308.70305 215.059983 
L 309.35366 213.534404 
L 310.654881 219.489251 
L 311.305491 213.424091 
L 311.956101 210.876992 
L 312.606712 217.49126 
L 313.907932 208.643499 
L 314.558543 216.520787 
L 315.209153 211.96091 
L 315.859763 216.384877 
L 316.510373 218.833591 
L 317.160984 219.948051 
L 317.811594 226.797112 
L 318.462204 210.756118 
L 319.112815 216.928304 
L 319.763425 211.792474 
L 320.414035 220.083401 
L 321.064646 218.513677 
L 321.715256 216.579089 
L 322.365866 212.309312 
L 323.016477 217.315482 
L 323.667087 214.802642 
L 324.317697 217.795807 
L 324.968308 213.932048 
L 325.618918 221.589924 
L 326.269528 217.980294 
L 326.920138 215.287296 
L 327.570749 213.539594 
L 328.221359 216.758274 
L 328.871969 213.012533 
L 329.52258 216.029025 
L 330.17319 220.730272 
L 330.8238 219.923062 
L 331.474411 216.678199 
L 332.125021 218.917656 
L 332.775631 219.989099 
L 333.426242 217.476004 
L 334.076852 218.583806 
L 334.727462 216.645932 
L 335.378073 216.200268 
L 336.028683 222.860791 
L 336.679293 218.214636 
L 337.329903 215.614582 
L 337.980514 222.21417 
L 338.631124 221.877745 
L 339.281734 221.789899 
L 339.932345 213.498681 
L 341.233565 220.479117 
L 341.884176 212.234119 
L 342.534786 221.159254 
L 343.185396 218.197728 
L 343.836007 209.851038 
L 345.137227 220.026696 
L 345.787837 214.247951 
L 346.438448 214.468237 
L 347.089058 214.152496 
L 347.739668 212.772061 
L 348.390279 220.414743 
L 349.040889 218.226337 
L 349.691499 212.72949 
L 350.34211 213.408152 
L 350.99272 218.58695 
L 351.64333 214.361132 
L 352.293941 217.437059 
L 352.944551 214.267182 
L 353.595161 217.42798 
L 354.245772 215.44247 
L 354.896382 216.615025 
L 355.546992 219.571409 
L 356.197602 213.07047 
L 356.848213 221.351839 
L 357.498823 215.50301 
L 358.149433 217.880132 
L 358.800044 219.274182 
L 359.450654 215.870548 
L 360.101264 214.174423 
L 360.751875 213.818978 
L 361.402485 212.237101 
L 362.053095 213.381199 
L 362.703706 216.383397 
L 363.354316 220.717129 
L 364.004926 220.783347 
L 364.655537 213.119048 
L 365.306147 208.675471 
L 365.956757 220.842589 
L 366.607367 218.143883 
L 367.257978 219.907437 
L 367.908588 209.49207 
L 368.559198 220.059887 
L 369.209809 211.962791 
L 369.860419 214.94352 
L 370.511029 213.327986 
L 371.16164 213.326213 
L 371.81225 218.294036 
L 372.46286 217.462342 
L 373.113471 214.788509 
L 373.764081 216.342028 
L 374.414691 219.331576 
L 375.065302 211.121064 
L 375.715912 217.578878 
L 376.366522 216.322645 
L 377.017132 213.913859 
L 377.667743 215.899861 
L 378.318353 218.66777 
L 378.968963 214.780748 
L 379.619574 213.539241 
L 380.270184 215.482544 
L 380.920794 212.966716 
L 381.571405 213.195191 
L 382.222015 215.440353 
L 382.872625 216.49065 
L 383.523236 223.011219 
L 384.173846 218.162663 
L 384.824456 220.63867 
L 385.475066 220.566844 
L 386.125677 220.211352 
L 386.776287 212.597344 
L 387.426897 213.362226 
L 388.077508 218.897747 
L 388.728118 216.908359 
L 389.378728 211.375639 
L 390.029339 212.266649 
L 390.679949 217.961483 
L 391.330559 211.099426 
L 391.98117 220.004454 
L 393.28239 217.53439 
L 393.933001 210.709451 
L 394.583611 225.284494 
L 395.234221 215.318101 
L 395.884831 216.797949 
L 396.535442 212.2594 
L 397.186052 215.486958 
L 397.836662 222.275403 
L 398.487273 218.670712 
L 398.487273 218.670712 
" style="fill:none;stroke:#008000;stroke-dasharray:9.6,2.4,1.5,2.4;stroke-dashoffset:0;stroke-width:1.5;"/>
   </g>
   <g id="line2d_31">
    <path clip-path="url(#p0d7cb7d4aa)" d="M 73.832727 129.333738 
L 74.483338 144.486885 
L 75.133948 99.027443 
L 75.784558 144.486885 
L 76.435169 99.027443 
L 77.085779 129.333738 
L 77.736389 129.333738 
L 78.386999 144.486885 
L 79.03761 144.486885 
L 79.68822 83.874295 
L 80.989441 144.486885 
L 81.640051 129.333738 
L 82.290661 83.874295 
L 82.941272 114.18059 
L 85.543713 114.18059 
L 86.194323 83.874295 
L 86.844934 174.79318 
L 87.495544 114.18059 
L 88.796764 114.18059 
L 90.097985 144.486885 
L 90.748595 129.333738 
L 91.399206 99.027443 
L 92.049816 144.486885 
L 92.700426 114.18059 
L 93.351037 144.486885 
L 94.001647 129.333738 
L 94.652257 129.333738 
L 95.302868 144.486885 
L 95.953478 144.486885 
L 96.604088 114.18059 
L 97.254698 159.640033 
L 97.905309 114.18059 
L 98.555919 129.333738 
L 99.85714 129.333738 
L 100.50775 83.874295 
L 101.15836 129.333738 
L 103.110191 129.333738 
L 103.760802 144.486885 
L 105.062022 83.874295 
L 105.712633 144.486885 
L 106.363243 144.486885 
L 107.013853 114.18059 
L 108.315074 144.486885 
L 108.965684 129.333738 
L 110.266905 129.333738 
L 110.917515 83.874295 
L 111.568125 144.486885 
L 112.218736 114.18059 
L 113.519956 114.18059 
L 114.170567 83.874295 
L 114.821177 83.874295 
L 115.471787 114.18059 
L 116.122398 129.333738 
L 116.773008 129.333738 
L 117.423618 144.486885 
L 118.074228 114.18059 
L 119.375449 114.18059 
L 120.026059 129.333738 
L 120.67667 99.027443 
L 121.32728 129.333738 
L 121.97789 129.333738 
L 122.628501 114.18059 
L 123.279111 129.333738 
L 123.929721 114.18059 
L 124.580332 129.333738 
L 125.230942 83.874295 
L 125.881552 114.18059 
L 126.532163 129.333738 
L 127.833383 99.027443 
L 128.483993 114.18059 
L 129.134604 114.18059 
L 129.785214 129.333738 
L 130.435824 99.027443 
L 131.086435 144.486885 
L 132.387655 114.18059 
L 133.038266 114.18059 
L 133.688876 99.027443 
L 134.339486 144.486885 
L 134.990097 114.18059 
L 135.640707 114.18059 
L 136.291317 144.486885 
L 136.941927 129.333738 
L 137.592538 99.027443 
L 138.243148 129.333738 
L 138.893758 129.333738 
L 139.544369 83.874295 
L 140.194979 114.18059 
L 140.845589 99.027443 
L 141.4962 114.18059 
L 142.79742 114.18059 
L 144.098641 144.486885 
L 144.749251 129.333738 
L 145.399862 144.486885 
L 146.050472 114.18059 
L 146.701082 114.18059 
L 147.351692 129.333738 
L 148.002303 129.333738 
L 148.652913 114.18059 
L 149.303523 114.18059 
L 149.954134 129.333738 
L 150.604744 114.18059 
L 151.255354 114.18059 
L 151.905965 129.333738 
L 152.556575 99.027443 
L 153.207185 129.333738 
L 153.857796 114.18059 
L 154.508406 114.18059 
L 155.159016 83.874295 
L 155.809627 129.333738 
L 156.460237 129.333738 
L 157.110847 114.18059 
L 157.761457 129.333738 
L 158.412068 99.027443 
L 159.713288 129.333738 
L 160.363899 99.027443 
L 161.014509 99.027443 
L 161.665119 114.18059 
L 162.31573 99.027443 
L 162.96634 99.027443 
L 163.61695 114.18059 
L 164.267561 114.18059 
L 164.918171 99.027443 
L 165.568781 99.027443 
L 166.219392 144.486885 
L 166.870002 129.333738 
L 167.520612 99.027443 
L 168.821833 99.027443 
L 169.472443 114.18059 
L 170.773664 83.874295 
L 171.424274 99.027443 
L 172.074884 144.486885 
L 172.725495 114.18059 
L 173.376105 114.18059 
L 174.026715 83.874295 
L 174.677326 99.027443 
L 175.327936 99.027443 
L 175.978546 144.486885 
L 176.629156 144.486885 
L 177.279767 129.333738 
L 177.930377 99.027443 
L 178.580987 114.18059 
L 179.231598 144.486885 
L 180.532818 114.18059 
L 181.183429 83.874295 
L 181.834039 99.027443 
L 182.484649 99.027443 
L 183.13526 114.18059 
L 183.78587 99.027443 
L 185.087091 129.333738 
L 185.737701 99.027443 
L 186.388311 83.874295 
L 187.038921 114.18059 
L 187.689532 83.874295 
L 188.340142 129.333738 
L 188.990752 114.18059 
L 189.641363 129.333738 
L 190.291973 114.18059 
L 190.942583 83.874295 
L 191.593194 83.874295 
L 192.243804 129.333738 
L 192.894414 99.027443 
L 193.545025 114.18059 
L 194.195635 114.18059 
L 194.846245 129.333738 
L 196.147466 99.027443 
L 196.798076 129.333738 
L 197.448686 129.333738 
L 198.099297 114.18059 
L 198.749907 114.18059 
L 199.400517 129.333738 
L 200.051128 114.18059 
L 200.701738 144.486885 
L 201.352348 114.18059 
L 202.002959 114.18059 
L 202.653569 129.333738 
L 203.304179 129.333738 
L 203.95479 99.027443 
L 204.6054 83.874295 
L 205.25601 114.18059 
L 205.906621 114.18059 
L 206.557231 99.027443 
L 207.207841 129.333738 
L 208.509062 129.333738 
L 209.810282 99.027443 
L 210.460893 114.18059 
L 211.111503 144.486885 
L 211.762113 114.18059 
L 212.412724 144.486885 
L 213.713944 83.874295 
L 214.364555 129.333738 
L 215.015165 99.027443 
L 215.665775 114.18059 
L 216.966996 114.18059 
L 217.617606 99.027443 
L 218.268216 68.721148 
L 218.918827 99.027443 
L 219.569437 144.486885 
L 220.220047 114.18059 
L 221.521268 114.18059 
L 222.171878 83.874295 
L 222.822489 129.333738 
L 223.473099 114.18059 
L 224.123709 114.18059 
L 224.77432 129.333738 
L 225.42493 129.333738 
L 226.07554 114.18059 
L 226.72615 83.874295 
L 227.376761 99.027443 
L 228.027371 129.333738 
L 228.677981 114.18059 
L 229.979202 114.18059 
L 230.629812 99.027443 
L 231.280423 129.333738 
L 231.931033 83.874295 
L 232.581643 144.486885 
L 233.232254 99.027443 
L 233.882864 68.721148 
L 234.533474 144.486885 
L 235.184085 114.18059 
L 235.834695 114.18059 
L 236.485305 129.333738 
L 237.135915 99.027443 
L 237.786526 144.486885 
L 238.437136 83.874295 
L 239.087746 114.18059 
L 240.388967 144.486885 
L 241.039577 83.874295 
L 241.690188 144.486885 
L 242.340798 114.18059 
L 242.991408 68.721148 
L 243.642019 114.18059 
L 244.292629 83.874295 
L 244.943239 114.18059 
L 246.89507 114.18059 
L 247.54568 129.333738 
L 248.196291 114.18059 
L 250.148122 114.18059 
L 250.798732 83.874295 
L 251.449342 129.333738 
L 252.099953 83.874295 
L 252.750563 99.027443 
L 253.401173 68.721148 
L 254.051784 129.333738 
L 254.702394 114.18059 
L 255.353004 144.486885 
L 256.003615 83.874295 
L 256.654225 53.568 
L 257.304835 99.027443 
L 257.955445 129.333738 
L 258.606056 114.18059 
L 259.907276 114.18059 
L 260.557887 129.333738 
L 261.208497 99.027443 
L 261.859107 99.027443 
L 262.509718 129.333738 
L 263.160328 114.18059 
L 265.762769 114.18059 
L 266.413379 68.721148 
L 267.06399 114.18059 
L 268.36521 144.486885 
L 269.015821 114.18059 
L 269.666431 129.333738 
L 270.317041 114.18059 
L 270.967652 114.18059 
L 271.618262 129.333738 
L 272.268872 68.721148 
L 272.919483 129.333738 
L 273.570093 129.333738 
L 274.220703 99.027443 
L 274.871314 53.568 
L 275.521924 99.027443 
L 276.172534 114.18059 
L 277.473755 114.18059 
L 278.124365 144.486885 
L 278.774975 129.333738 
L 279.425586 99.027443 
L 280.076196 144.486885 
L 280.726806 83.874295 
L 281.377417 129.333738 
L 282.028027 114.18059 
L 282.678637 129.333738 
L 283.329248 99.027443 
L 283.979858 129.333738 
L 285.281079 99.027443 
L 285.931689 99.027443 
L 286.582299 129.333738 
L 287.232909 114.18059 
L 289.18474 114.18059 
L 289.835351 129.333738 
L 290.485961 114.18059 
L 291.136571 129.333738 
L 291.787182 99.027443 
L 292.437792 99.027443 
L 293.088402 114.18059 
L 293.739013 99.027443 
L 294.389623 114.18059 
L 295.040233 99.027443 
L 295.690844 99.027443 
L 296.341454 68.721148 
L 296.992064 114.18059 
L 297.642674 129.333738 
L 298.293285 83.874295 
L 298.943895 114.18059 
L 300.245116 83.874295 
L 300.895726 144.486885 
L 301.546336 114.18059 
L 302.196947 114.18059 
L 302.847557 129.333738 
L 303.498167 83.874295 
L 304.148778 144.486885 
L 304.799388 99.027443 
L 305.449998 129.333738 
L 306.751219 129.333738 
L 307.401829 99.027443 
L 308.052439 129.333738 
L 309.35366 99.027443 
L 310.00427 129.333738 
L 310.654881 53.568 
L 311.305491 144.486885 
L 311.956101 83.874295 
L 312.606712 114.18059 
L 314.558543 114.18059 
L 315.859763 83.874295 
L 316.510373 114.18059 
L 317.160984 83.874295 
L 317.811594 129.333738 
L 318.462204 114.18059 
L 319.112815 129.333738 
L 320.414035 99.027443 
L 321.064646 129.333738 
L 321.715256 114.18059 
L 323.016477 114.18059 
L 323.667087 129.333738 
L 324.317697 99.027443 
L 324.968308 99.027443 
L 325.618918 129.333738 
L 326.269528 129.333738 
L 326.920138 114.18059 
L 327.570749 114.18059 
L 328.221359 68.721148 
L 328.871969 83.874295 
L 329.52258 114.18059 
L 330.17319 114.18059 
L 330.8238 129.333738 
L 332.125021 99.027443 
L 334.076852 144.486885 
L 334.727462 99.027443 
L 335.378073 114.18059 
L 336.028683 144.486885 
L 337.329903 83.874295 
L 337.980514 114.18059 
L 338.631124 129.333738 
L 339.281734 114.18059 
L 339.932345 129.333738 
L 340.582955 114.18059 
L 341.233565 129.333738 
L 341.884176 99.027443 
L 343.185396 129.333738 
L 343.836007 83.874295 
L 344.486617 129.333738 
L 345.137227 129.333738 
L 345.787837 114.18059 
L 346.438448 83.874295 
L 347.089058 99.027443 
L 347.739668 129.333738 
L 348.390279 129.333738 
L 349.040889 114.18059 
L 349.691499 114.18059 
L 350.34211 99.027443 
L 350.99272 144.486885 
L 351.64333 99.027443 
L 352.293941 99.027443 
L 352.944551 114.18059 
L 353.595161 114.18059 
L 354.245772 129.333738 
L 354.896382 114.18059 
L 355.546992 114.18059 
L 356.197602 129.333738 
L 356.848213 114.18059 
L 357.498823 114.18059 
L 358.149433 129.333738 
L 358.800044 129.333738 
L 359.450654 99.027443 
L 360.101264 99.027443 
L 360.751875 83.874295 
L 361.402485 114.18059 
L 362.053095 129.333738 
L 362.703706 83.874295 
L 363.354316 129.333738 
L 364.004926 129.333738 
L 364.655537 114.18059 
L 365.306147 83.874295 
L 365.956757 114.18059 
L 366.607367 114.18059 
L 367.257978 129.333738 
L 367.908588 99.027443 
L 368.559198 129.333738 
L 369.209809 114.18059 
L 369.860419 129.333738 
L 371.16164 99.027443 
L 372.46286 99.027443 
L 373.113471 53.568 
L 373.764081 99.027443 
L 374.414691 129.333738 
L 375.065302 83.874295 
L 375.715912 144.486885 
L 376.366522 99.027443 
L 377.017132 129.333738 
L 378.318353 129.333738 
L 378.968963 99.027443 
L 379.619574 129.333738 
L 380.270184 114.18059 
L 380.920794 114.18059 
L 381.571405 83.874295 
L 382.222015 129.333738 
L 382.872625 129.333738 
L 383.523236 144.486885 
L 384.173846 114.18059 
L 384.824456 129.333738 
L 385.475066 114.18059 
L 386.125677 114.18059 
L 386.776287 83.874295 
L 387.426897 114.18059 
L 388.077508 83.874295 
L 388.728118 99.027443 
L 389.378728 99.027443 
L 390.029339 129.333738 
L 390.679949 99.027443 
L 391.330559 114.18059 
L 391.98117 83.874295 
L 393.28239 144.486885 
L 393.933001 53.568 
L 394.583611 144.486885 
L 395.234221 129.333738 
L 397.186052 129.333738 
L 397.836662 114.18059 
L 398.487273 83.874295 
L 398.487273 83.874295 
" style="fill:none;stroke:#ff0000;stroke-linecap:square;stroke-width:1.5;"/>
   </g>
   <g id="patch_3">
    <path d="M 57.6 307.584 
L 57.6 41.472 
" style="fill:none;stroke:#000000;stroke-linecap:square;stroke-linejoin:miter;stroke-width:0.8;"/>
   </g>
   <g id="patch_4">
    <path d="M 414.72 307.584 
L 414.72 41.472 
" style="fill:none;stroke:#000000;stroke-linecap:square;stroke-linejoin:miter;stroke-width:0.8;"/>
   </g>
   <g id="patch_5">
    <path d="M 57.6 307.584 
L 414.72 307.584 
" style="fill:none;stroke:#000000;stroke-linecap:square;stroke-linejoin:miter;stroke-width:0.8;"/>
   </g>
   <g id="patch_6">
    <path d="M 57.6 41.472 
L 414.72 41.472 
" style="fill:none;stroke:#000000;stroke-linecap:square;stroke-linejoin:miter;stroke-width:0.8;"/>
   </g>
   <g id="text_17">
    <!-- Population's average and best fitness -->
    <defs>
     <path d="M 19.671875 64.796875 
L 19.671875 37.40625 
L 32.078125 37.40625 
Q 38.96875 37.40625 42.71875 40.96875 
Q 46.484375 44.53125 46.484375 51.125 
Q 46.484375 57.671875 42.71875 61.234375 
Q 38.96875 64.796875 32.078125 64.796875 
z
M 9.8125 72.90625 
L 32.078125 72.90625 
Q 44.34375 72.90625 50.609375 67.359375 
Q 56.890625 61.8125 56.890625 51.125 
Q 56.890625 40.328125 50.609375 34.8125 
Q 44.34375 29.296875 32.078125 29.296875 
L 19.671875 29.296875 
L 19.671875 0 
L 9.8125 0 
z
" id="DejaVuSans-80"/>
     <path d="M 18.109375 8.203125 
L 18.109375 -20.796875 
L 9.078125 -20.796875 
L 9.078125 54.6875 
L 18.109375 54.6875 
L 18.109375 46.390625 
Q 20.953125 51.265625 25.265625 53.625 
Q 29.59375 56 35.59375 56 
Q 45.5625 56 51.78125 48.09375 
Q 58.015625 40.1875 58.015625 27.296875 
Q 58.015625 14.40625 51.78125 6.484375 
Q 45.5625 -1.421875 35.59375 -1.421875 
Q 29.59375 -1.421875 25.265625 0.953125 
Q 20.953125 3.328125 18.109375 8.203125 
z
M 48.6875 27.296875 
Q 48.6875 37.203125 44.609375 42.84375 
Q 40.53125 48.484375 33.40625 48.484375 
Q 26.265625 48.484375 22.1875 42.84375 
Q 18.109375 37.203125 18.109375 27.296875 
Q 18.109375 17.390625 22.1875 11.75 
Q 26.265625 6.109375 33.40625 6.109375 
Q 40.53125 6.109375 44.609375 11.75 
Q 48.6875 17.390625 48.6875 27.296875 
z
" id="DejaVuSans-112"/>
     <path d="M 8.5 21.578125 
L 8.5 54.6875 
L 17.484375 54.6875 
L 17.484375 21.921875 
Q 17.484375 14.15625 20.5 10.265625 
Q 23.53125 6.390625 29.59375 6.390625 
Q 36.859375 6.390625 41.078125 11.03125 
Q 45.3125 15.671875 45.3125 23.6875 
L 45.3125 54.6875 
L 54.296875 54.6875 
L 54.296875 0 
L 45.3125 0 
L 45.3125 8.40625 
Q 42.046875 3.421875 37.71875 1 
Q 33.40625 -1.421875 27.6875 -1.421875 
Q 18.265625 -1.421875 13.375 4.4375 
Q 8.5 10.296875 8.5 21.578125 
z
M 31.109375 56 
z
" id="DejaVuSans-117"/>
     <path d="M 9.421875 75.984375 
L 18.40625 75.984375 
L 18.40625 0 
L 9.421875 0 
z
" id="DejaVuSans-108"/>
     <path d="M 17.921875 72.90625 
L 17.921875 45.796875 
L 9.625 45.796875 
L 9.625 72.90625 
z
" id="DejaVuSans-39"/>
     <path id="DejaVuSans-32"/>
     <path d="M 2.984375 54.6875 
L 12.5 54.6875 
L 29.59375 8.796875 
L 46.6875 54.6875 
L 56.203125 54.6875 
L 35.6875 0 
L 23.484375 0 
z
" id="DejaVuSans-118"/>
     <path d="M 45.40625 27.984375 
Q 45.40625 37.75 41.375 43.109375 
Q 37.359375 48.484375 30.078125 48.484375 
Q 22.859375 48.484375 18.828125 43.109375 
Q 14.796875 37.75 14.796875 27.984375 
Q 14.796875 18.265625 18.828125 12.890625 
Q 22.859375 7.515625 30.078125 7.515625 
Q 37.359375 7.515625 41.375 12.890625 
Q 45.40625 18.265625 45.40625 27.984375 
z
M 54.390625 6.78125 
Q 54.390625 -7.171875 48.1875 -13.984375 
Q 42 -20.796875 29.203125 -20.796875 
Q 24.46875 -20.796875 20.265625 -20.09375 
Q 16.0625 -19.390625 12.109375 -17.921875 
L 12.109375 -9.1875 
Q 16.0625 -11.328125 19.921875 -12.34375 
Q 23.78125 -13.375 27.78125 -13.375 
Q 36.625 -13.375 41.015625 -8.765625 
Q 45.40625 -4.15625 45.40625 5.171875 
L 45.40625 9.625 
Q 42.625 4.78125 38.28125 2.390625 
Q 33.9375 0 27.875 0 
Q 17.828125 0 11.671875 7.65625 
Q 5.515625 15.328125 5.515625 27.984375 
Q 5.515625 40.671875 11.671875 48.328125 
Q 17.828125 56 27.875 56 
Q 33.9375 56 38.28125 53.609375 
Q 42.625 51.21875 45.40625 46.390625 
L 45.40625 54.6875 
L 54.390625 54.6875 
z
" id="DejaVuSans-103"/>
     <path d="M 45.40625 46.390625 
L 45.40625 75.984375 
L 54.390625 75.984375 
L 54.390625 0 
L 45.40625 0 
L 45.40625 8.203125 
Q 42.578125 3.328125 38.25 0.953125 
Q 33.9375 -1.421875 27.875 -1.421875 
Q 17.96875 -1.421875 11.734375 6.484375 
Q 5.515625 14.40625 5.515625 27.296875 
Q 5.515625 40.1875 11.734375 48.09375 
Q 17.96875 56 27.875 56 
Q 33.9375 56 38.25 53.625 
Q 42.578125 51.265625 45.40625 46.390625 
z
M 14.796875 27.296875 
Q 14.796875 17.390625 18.875 11.75 
Q 22.953125 6.109375 30.078125 6.109375 
Q 37.203125 6.109375 41.296875 11.75 
Q 45.40625 17.390625 45.40625 27.296875 
Q 45.40625 37.203125 41.296875 42.84375 
Q 37.203125 48.484375 30.078125 48.484375 
Q 22.953125 48.484375 18.875 42.84375 
Q 14.796875 37.203125 14.796875 27.296875 
z
" id="DejaVuSans-100"/>
     <path d="M 48.6875 27.296875 
Q 48.6875 37.203125 44.609375 42.84375 
Q 40.53125 48.484375 33.40625 48.484375 
Q 26.265625 48.484375 22.1875 42.84375 
Q 18.109375 37.203125 18.109375 27.296875 
Q 18.109375 17.390625 22.1875 11.75 
Q 26.265625 6.109375 33.40625 6.109375 
Q 40.53125 6.109375 44.609375 11.75 
Q 48.6875 17.390625 48.6875 27.296875 
z
M 18.109375 46.390625 
Q 20.953125 51.265625 25.265625 53.625 
Q 29.59375 56 35.59375 56 
Q 45.5625 56 51.78125 48.09375 
Q 58.015625 40.1875 58.015625 27.296875 
Q 58.015625 14.40625 51.78125 6.484375 
Q 45.5625 -1.421875 35.59375 -1.421875 
Q 29.59375 -1.421875 25.265625 0.953125 
Q 20.953125 3.328125 18.109375 8.203125 
L 18.109375 0 
L 9.078125 0 
L 9.078125 75.984375 
L 18.109375 75.984375 
z
" id="DejaVuSans-98"/>
     <path d="M 37.109375 75.984375 
L 37.109375 68.5 
L 28.515625 68.5 
Q 23.6875 68.5 21.796875 66.546875 
Q 19.921875 64.59375 19.921875 59.515625 
L 19.921875 54.6875 
L 34.71875 54.6875 
L 34.71875 47.703125 
L 19.921875 47.703125 
L 19.921875 0 
L 10.890625 0 
L 10.890625 47.703125 
L 2.296875 47.703125 
L 2.296875 54.6875 
L 10.890625 54.6875 
L 10.890625 58.5 
Q 10.890625 67.625 15.140625 71.796875 
Q 19.390625 75.984375 28.609375 75.984375 
z
" id="DejaVuSans-102"/>
    </defs>
    <g transform="translate(123.315 35.472)scale(0.12 -0.12)">
     <use xlink:href="#DejaVuSans-80"/>
     <use x="60.255859" xlink:href="#DejaVuSans-111"/>
     <use x="121.4375" xlink:href="#DejaVuSans-112"/>
     <use x="184.914062" xlink:href="#DejaVuSans-117"/>
     <use x="248.292969" xlink:href="#DejaVuSans-108"/>
     <use x="276.076172" xlink:href="#DejaVuSans-97"/>
     <use x="337.355469" xlink:href="#DejaVuSans-116"/>
     <use x="376.564453" xlink:href="#DejaVuSans-105"/>
     <use x="404.347656" xlink:href="#DejaVuSans-111"/>
     <use x="465.529297" xlink:href="#DejaVuSans-110"/>
     <use x="528.908203" xlink:href="#DejaVuSans-39"/>
     <use x="556.398438" xlink:href="#DejaVuSans-115"/>
     <use x="608.498047" xlink:href="#DejaVuSans-32"/>
     <use x="640.285156" xlink:href="#DejaVuSans-97"/>
     <use x="701.564453" xlink:href="#DejaVuSans-118"/>
     <use x="760.744141" xlink:href="#DejaVuSans-101"/>
     <use x="822.267578" xlink:href="#DejaVuSans-114"/>
     <use x="863.380859" xlink:href="#DejaVuSans-97"/>
     <use x="924.660156" xlink:href="#DejaVuSans-103"/>
     <use x="988.136719" xlink:href="#DejaVuSans-101"/>
     <use x="1049.660156" xlink:href="#DejaVuSans-32"/>
     <use x="1081.447266" xlink:href="#DejaVuSans-97"/>
     <use x="1142.726562" xlink:href="#DejaVuSans-110"/>
     <use x="1206.105469" xlink:href="#DejaVuSans-100"/>
     <use x="1269.582031" xlink:href="#DejaVuSans-32"/>
     <use x="1301.369141" xlink:href="#DejaVuSans-98"/>
     <use x="1364.845703" xlink:href="#DejaVuSans-101"/>
     <use x="1426.369141" xlink:href="#DejaVuSans-115"/>
     <use x="1478.46875" xlink:href="#DejaVuSans-116"/>
     <use x="1517.677734" xlink:href="#DejaVuSans-32"/>
     <use x="1549.464844" xlink:href="#DejaVuSans-102"/>
     <use x="1584.669922" xlink:href="#DejaVuSans-105"/>
     <use x="1612.453125" xlink:href="#DejaVuSans-116"/>
     <use x="1651.662109" xlink:href="#DejaVuSans-110"/>
     <use x="1715.041016" xlink:href="#DejaVuSans-101"/>
     <use x="1776.564453" xlink:href="#DejaVuSans-115"/>
     <use x="1828.664062" xlink:href="#DejaVuSans-115"/>
    </g>
   </g>
   <g id="legend_1">
    <g id="patch_7">
     <path d="M 334.779375 198.045187 
L 407.72 198.045187 
Q 409.72 198.045187 409.72 196.045187 
L 409.72 153.010812 
Q 409.72 151.010812 407.72 151.010812 
L 334.779375 151.010812 
Q 332.779375 151.010812 332.779375 153.010812 
L 332.779375 196.045187 
Q 332.779375 198.045187 334.779375 198.045187 
z
" style="fill:#ffffff;opacity:0.8;stroke:#cccccc;stroke-linejoin:miter;"/>
    </g>
    <g id="line2d_32">
     <path d="M 336.779375 159.10925 
L 356.779375 159.10925 
" style="fill:none;stroke:#0000ff;stroke-linecap:square;stroke-width:1.5;"/>
    </g>
    <g id="line2d_33"/>
    <g id="text_18">
     <!-- average -->
     <g transform="translate(364.779375 162.60925)scale(0.1 -0.1)">
      <use xlink:href="#DejaVuSans-97"/>
      <use x="61.279297" xlink:href="#DejaVuSans-118"/>
      <use x="120.458984" xlink:href="#DejaVuSans-101"/>
      <use x="181.982422" xlink:href="#DejaVuSans-114"/>
      <use x="223.095703" xlink:href="#DejaVuSans-97"/>
      <use x="284.375" xlink:href="#DejaVuSans-103"/>
      <use x="347.851562" xlink:href="#DejaVuSans-101"/>
     </g>
    </g>
    <g id="line2d_34">
     <path d="M 336.779375 173.787375 
L 356.779375 173.787375 
" style="fill:none;stroke:#008000;stroke-dasharray:9.6,2.4,1.5,2.4;stroke-dashoffset:0;stroke-width:1.5;"/>
    </g>
    <g id="line2d_35"/>
    <g id="text_19">
     <!-- +1 sd -->
     <defs>
      <path d="M 46 62.703125 
L 46 35.5 
L 73.1875 35.5 
L 73.1875 27.203125 
L 46 27.203125 
L 46 0 
L 37.796875 0 
L 37.796875 27.203125 
L 10.59375 27.203125 
L 10.59375 35.5 
L 37.796875 35.5 
L 37.796875 62.703125 
z
" id="DejaVuSans-43"/>
     </defs>
     <g transform="translate(364.779375 177.287375)scale(0.1 -0.1)">
      <use xlink:href="#DejaVuSans-43"/>
      <use x="83.789062" xlink:href="#DejaVuSans-49"/>
      <use x="147.412109" xlink:href="#DejaVuSans-32"/>
      <use x="179.199219" xlink:href="#DejaVuSans-115"/>
      <use x="231.298828" xlink:href="#DejaVuSans-100"/>
     </g>
    </g>
    <g id="line2d_36">
     <path d="M 336.779375 188.4655 
L 356.779375 188.4655 
" style="fill:none;stroke:#ff0000;stroke-linecap:square;stroke-width:1.5;"/>
    </g>
    <g id="line2d_37"/>
    <g id="text_20">
     <!-- best -->
     <g transform="translate(364.779375 191.9655)scale(0.1 -0.1)">
      <use xlink:href="#DejaVuSans-98"/>
      <use x="63.476562" xlink:href="#DejaVuSans-101"/>
      <use x="125" xlink:href="#DejaVuSans-115"/>
      <use x="177.099609" xlink:href="#DejaVuSans-116"/>
     </g>
    </g>
   </g>
  </g>
 </g>
 <defs>
  <clipPath id="p0d7cb7d4aa">
   <rect height="266.112" width="357.12" x="57.6" y="41.472"/>
  </clipPath>
 </defs>
</svg>
