<?xml version="1.0" encoding="utf-8" standalone="no"?>
<!DOCTYPE svg PUBLIC "-//W3C//DTD SVG 1.1//EN"
  "http://www.w3.org/Graphics/SVG/1.1/DTD/svg11.dtd">
<!-- Created with matplotlib (https://matplotlib.org/) -->
<svg height="345.6pt" version="1.1" viewBox="0 0 460.8 345.6" width="460.8pt" xmlns="http://www.w3.org/2000/svg" xmlns:xlink="http://www.w3.org/1999/xlink">
 <defs>
  <style type="text/css">
*{stroke-linecap:butt;stroke-linejoin:round;}
  </style>
 </defs>
 <g id="figure_1">
  <g id="patch_1">
   <path d="M 0 345.6 
L 460.8 345.6 
L 460.8 0 
L 0 0 
z
" style="fill:#ffffff;"/>
  </g>
  <g id="axes_1">
   <g id="patch_2">
    <path d="M 57.6 307.584 
L 414.72 307.584 
L 414.72 41.472 
L 57.6 41.472 
z
" style="fill:#ffffff;"/>
   </g>
   <g id="matplotlib.axis_1">
    <g id="xtick_1">
     <g id="line2d_1">
      <path clip-path="url(#p43f7353d22)" d="M 73.832727 307.584 
L 73.832727 41.472 
" style="fill:none;stroke:#b0b0b0;stroke-linecap:square;stroke-width:0.8;"/>
     </g>
     <g id="line2d_2">
      <defs>
       <path d="M 0 0 
L 0 3.5 
" id="m52b83ebf34" style="stroke:#000000;stroke-width:0.8;"/>
      </defs>
      <g>
       <use style="stroke:#000000;stroke-width:0.8;" x="73.832727" xlink:href="#m52b83ebf34" y="307.584"/>
      </g>
     </g>
     <g id="text_1">
      <!-- 0 -->
      <defs>
       <path d="M 31.78125 66.40625 
Q 24.171875 66.40625 20.328125 58.90625 
Q 16.5 51.421875 16.5 36.375 
Q 16.5 21.390625 20.328125 13.890625 
Q 24.171875 6.390625 31.78125 6.390625 
Q 39.453125 6.390625 43.28125 13.890625 
Q 47.125 21.390625 47.125 36.375 
Q 47.125 51.421875 43.28125 58.90625 
Q 39.453125 66.40625 31.78125 66.40625 
z
M 31.78125 74.21875 
Q 44.046875 74.21875 50.515625 64.515625 
Q 56.984375 54.828125 56.984375 36.375 
Q 56.984375 17.96875 50.515625 8.265625 
Q 44.046875 -1.421875 31.78125 -1.421875 
Q 19.53125 -1.421875 13.0625 8.265625 
Q 6.59375 17.96875 6.59375 36.375 
Q 6.59375 54.828125 13.0625 64.515625 
Q 19.53125 74.21875 31.78125 74.21875 
z
" id="DejaVuSans-48"/>
      </defs>
      <g transform="translate(70.651477 322.182437)scale(0.1 -0.1)">
       <use xlink:href="#DejaVuSans-48"/>
      </g>
     </g>
    </g>
    <g id="xtick_2">
     <g id="line2d_3">
      <path clip-path="url(#p43f7353d22)" d="M 138.893758 307.584 
L 138.893758 41.472 
" style="fill:none;stroke:#b0b0b0;stroke-linecap:square;stroke-width:0.8;"/>
     </g>
     <g id="line2d_4">
      <g>
       <use style="stroke:#000000;stroke-width:0.8;" x="138.893758" xlink:href="#m52b83ebf34" y="307.584"/>
      </g>
     </g>
     <g id="text_2">
      <!-- 100 -->
      <defs>
       <path d="M 12.40625 8.296875 
L 28.515625 8.296875 
L 28.515625 63.921875 
L 10.984375 60.40625 
L 10.984375 69.390625 
L 28.421875 72.90625 
L 38.28125 72.90625 
L 38.28125 8.296875 
L 54.390625 8.296875 
L 54.390625 0 
L 12.40625 0 
z
" id="DejaVuSans-49"/>
      </defs>
      <g transform="translate(129.350008 322.182437)scale(0.1 -0.1)">
       <use xlink:href="#DejaVuSans-49"/>
       <use x="63.623047" xlink:href="#DejaVuSans-48"/>
       <use x="127.246094" xlink:href="#DejaVuSans-48"/>
      </g>
     </g>
    </g>
    <g id="xtick_3">
     <g id="line2d_5">
      <path clip-path="url(#p43f7353d22)" d="M 203.95479 307.584 
L 203.95479 41.472 
" style="fill:none;stroke:#b0b0b0;stroke-linecap:square;stroke-width:0.8;"/>
     </g>
     <g id="line2d_6">
      <g>
       <use style="stroke:#000000;stroke-width:0.8;" x="203.95479" xlink:href="#m52b83ebf34" y="307.584"/>
      </g>
     </g>
     <g id="text_3">
      <!-- 200 -->
      <defs>
       <path d="M 19.1875 8.296875 
L 53.609375 8.296875 
L 53.609375 0 
L 7.328125 0 
L 7.328125 8.296875 
Q 12.9375 14.109375 22.625 23.890625 
Q 32.328125 33.6875 34.8125 36.53125 
Q 39.546875 41.84375 41.421875 45.53125 
Q 43.3125 49.21875 43.3125 52.78125 
Q 43.3125 58.59375 39.234375 62.25 
Q 35.15625 65.921875 28.609375 65.921875 
Q 23.96875 65.921875 18.8125 64.3125 
Q 13.671875 62.703125 7.8125 59.421875 
L 7.8125 69.390625 
Q 13.765625 71.78125 18.9375 73 
Q 24.125 74.21875 28.421875 74.21875 
Q 39.75 74.21875 46.484375 68.546875 
Q 53.21875 62.890625 53.21875 53.421875 
Q 53.21875 48.921875 51.53125 44.890625 
Q 49.859375 40.875 45.40625 35.40625 
Q 44.1875 33.984375 37.640625 27.21875 
Q 31.109375 20.453125 19.1875 8.296875 
z
" id="DejaVuSans-50"/>
      </defs>
      <g transform="translate(194.41104 322.182437)scale(0.1 -0.1)">
       <use xlink:href="#DejaVuSans-50"/>
       <use x="63.623047" xlink:href="#DejaVuSans-48"/>
       <use x="127.246094" xlink:href="#DejaVuSans-48"/>
      </g>
     </g>
    </g>
    <g id="xtick_4">
     <g id="line2d_7">
      <path clip-path="url(#p43f7353d22)" d="M 269.015821 307.584 
L 269.015821 41.472 
" style="fill:none;stroke:#b0b0b0;stroke-linecap:square;stroke-width:0.8;"/>
     </g>
     <g id="line2d_8">
      <g>
       <use style="stroke:#000000;stroke-width:0.8;" x="269.015821" xlink:href="#m52b83ebf34" y="307.584"/>
      </g>
     </g>
     <g id="text_4">
      <!-- 300 -->
      <defs>
       <path d="M 40.578125 39.3125 
Q 47.65625 37.796875 51.625 33 
Q 55.609375 28.21875 55.609375 21.1875 
Q 55.609375 10.40625 48.1875 4.484375 
Q 40.765625 -1.421875 27.09375 -1.421875 
Q 22.515625 -1.421875 17.65625 -0.515625 
Q 12.796875 0.390625 7.625 2.203125 
L 7.625 11.71875 
Q 11.71875 9.328125 16.59375 8.109375 
Q 21.484375 6.890625 26.8125 6.890625 
Q 36.078125 6.890625 40.9375 10.546875 
Q 45.796875 14.203125 45.796875 21.1875 
Q 45.796875 27.640625 41.28125 31.265625 
Q 36.765625 34.90625 28.71875 34.90625 
L 20.21875 34.90625 
L 20.21875 43.015625 
L 29.109375 43.015625 
Q 36.375 43.015625 40.234375 45.921875 
Q 44.09375 48.828125 44.09375 54.296875 
Q 44.09375 59.90625 40.109375 62.90625 
Q 36.140625 65.921875 28.71875 65.921875 
Q 24.65625 65.921875 20.015625 65.03125 
Q 15.375 64.15625 9.8125 62.3125 
L 9.8125 71.09375 
Q 15.4375 72.65625 20.34375 73.4375 
Q 25.25 74.21875 29.59375 74.21875 
Q 40.828125 74.21875 47.359375 69.109375 
Q 53.90625 64.015625 53.90625 55.328125 
Q 53.90625 49.265625 50.4375 45.09375 
Q 46.96875 40.921875 40.578125 39.3125 
z
" id="DejaVuSans-51"/>
      </defs>
      <g transform="translate(259.472071 322.182437)scale(0.1 -0.1)">
       <use xlink:href="#DejaVuSans-51"/>
       <use x="63.623047" xlink:href="#DejaVuSans-48"/>
       <use x="127.246094" xlink:href="#DejaVuSans-48"/>
      </g>
     </g>
    </g>
    <g id="xtick_5">
     <g id="line2d_9">
      <path clip-path="url(#p43f7353d22)" d="M 334.076852 307.584 
L 334.076852 41.472 
" style="fill:none;stroke:#b0b0b0;stroke-linecap:square;stroke-width:0.8;"/>
     </g>
     <g id="line2d_10">
      <g>
       <use style="stroke:#000000;stroke-width:0.8;" x="334.076852" xlink:href="#m52b83ebf34" y="307.584"/>
      </g>
     </g>
     <g id="text_5">
      <!-- 400 -->
      <defs>
       <path d="M 37.796875 64.3125 
L 12.890625 25.390625 
L 37.796875 25.390625 
z
M 35.203125 72.90625 
L 47.609375 72.90625 
L 47.609375 25.390625 
L 58.015625 25.390625 
L 58.015625 17.1875 
L 47.609375 17.1875 
L 47.609375 0 
L 37.796875 0 
L 37.796875 17.1875 
L 4.890625 17.1875 
L 4.890625 26.703125 
z
" id="DejaVuSans-52"/>
      </defs>
      <g transform="translate(324.533102 322.182437)scale(0.1 -0.1)">
       <use xlink:href="#DejaVuSans-52"/>
       <use x="63.623047" xlink:href="#DejaVuSans-48"/>
       <use x="127.246094" xlink:href="#DejaVuSans-48"/>
      </g>
     </g>
    </g>
    <g id="xtick_6">
     <g id="line2d_11">
      <path clip-path="url(#p43f7353d22)" d="M 399.137883 307.584 
L 399.137883 41.472 
" style="fill:none;stroke:#b0b0b0;stroke-linecap:square;stroke-width:0.8;"/>
     </g>
     <g id="line2d_12">
      <g>
       <use style="stroke:#000000;stroke-width:0.8;" x="399.137883" xlink:href="#m52b83ebf34" y="307.584"/>
      </g>
     </g>
     <g id="text_6">
      <!-- 500 -->
      <defs>
       <path d="M 10.796875 72.90625 
L 49.515625 72.90625 
L 49.515625 64.59375 
L 19.828125 64.59375 
L 19.828125 46.734375 
Q 21.96875 47.46875 24.109375 47.828125 
Q 26.265625 48.1875 28.421875 48.1875 
Q 40.625 48.1875 47.75 41.5 
Q 54.890625 34.8125 54.890625 23.390625 
Q 54.890625 11.625 47.5625 5.09375 
Q 40.234375 -1.421875 26.90625 -1.421875 
Q 22.3125 -1.421875 17.546875 -0.640625 
Q 12.796875 0.140625 7.71875 1.703125 
L 7.71875 11.625 
Q 12.109375 9.234375 16.796875 8.0625 
Q 21.484375 6.890625 26.703125 6.890625 
Q 35.15625 6.890625 40.078125 11.328125 
Q 45.015625 15.765625 45.015625 23.390625 
Q 45.015625 31 40.078125 35.4375 
Q 35.15625 39.890625 26.703125 39.890625 
Q 22.75 39.890625 18.8125 39.015625 
Q 14.890625 38.140625 10.796875 36.28125 
z
" id="DejaVuSans-53"/>
      </defs>
      <g transform="translate(389.594133 322.182437)scale(0.1 -0.1)">
       <use xlink:href="#DejaVuSans-53"/>
       <use x="63.623047" xlink:href="#DejaVuSans-48"/>
       <use x="127.246094" xlink:href="#DejaVuSans-48"/>
      </g>
     </g>
    </g>
    <g id="text_7">
     <!-- Generations -->
     <defs>
      <path d="M 59.515625 10.40625 
L 59.515625 29.984375 
L 43.40625 29.984375 
L 43.40625 38.09375 
L 69.28125 38.09375 
L 69.28125 6.78125 
Q 63.578125 2.734375 56.6875 0.65625 
Q 49.8125 -1.421875 42 -1.421875 
Q 24.90625 -1.421875 15.25 8.5625 
Q 5.609375 18.5625 5.609375 36.375 
Q 5.609375 54.25 15.25 64.234375 
Q 24.90625 74.21875 42 74.21875 
Q 49.125 74.21875 55.546875 72.453125 
Q 61.96875 70.703125 67.390625 67.28125 
L 67.390625 56.78125 
Q 61.921875 61.421875 55.765625 63.765625 
Q 49.609375 66.109375 42.828125 66.109375 
Q 29.4375 66.109375 22.71875 58.640625 
Q 16.015625 51.171875 16.015625 36.375 
Q 16.015625 21.625 22.71875 14.15625 
Q 29.4375 6.6875 42.828125 6.6875 
Q 48.046875 6.6875 52.140625 7.59375 
Q 56.25 8.5 59.515625 10.40625 
z
" id="DejaVuSans-71"/>
      <path d="M 56.203125 29.59375 
L 56.203125 25.203125 
L 14.890625 25.203125 
Q 15.484375 15.921875 20.484375 11.0625 
Q 25.484375 6.203125 34.421875 6.203125 
Q 39.59375 6.203125 44.453125 7.46875 
Q 49.3125 8.734375 54.109375 11.28125 
L 54.109375 2.78125 
Q 49.265625 0.734375 44.1875 -0.34375 
Q 39.109375 -1.421875 33.890625 -1.421875 
Q 20.796875 -1.421875 13.15625 6.1875 
Q 5.515625 13.8125 5.515625 26.8125 
Q 5.515625 40.234375 12.765625 48.109375 
Q 20.015625 56 32.328125 56 
Q 43.359375 56 49.78125 48.890625 
Q 56.203125 41.796875 56.203125 29.59375 
z
M 47.21875 32.234375 
Q 47.125 39.59375 43.09375 43.984375 
Q 39.0625 48.390625 32.421875 48.390625 
Q 24.90625 48.390625 20.390625 44.140625 
Q 15.875 39.890625 15.1875 32.171875 
z
" id="DejaVuSans-101"/>
      <path d="M 54.890625 33.015625 
L 54.890625 0 
L 45.90625 0 
L 45.90625 32.71875 
Q 45.90625 40.484375 42.875 44.328125 
Q 39.84375 48.1875 33.796875 48.1875 
Q 26.515625 48.1875 22.3125 43.546875 
Q 18.109375 38.921875 18.109375 30.90625 
L 18.109375 0 
L 9.078125 0 
L 9.078125 54.6875 
L 18.109375 54.6875 
L 18.109375 46.1875 
Q 21.34375 51.125 25.703125 53.5625 
Q 30.078125 56 35.796875 56 
Q 45.21875 56 50.046875 50.171875 
Q 54.890625 44.34375 54.890625 33.015625 
z
" id="DejaVuSans-110"/>
      <path d="M 41.109375 46.296875 
Q 39.59375 47.171875 37.8125 47.578125 
Q 36.03125 48 33.890625 48 
Q 26.265625 48 22.1875 43.046875 
Q 18.109375 38.09375 18.109375 28.8125 
L 18.109375 0 
L 9.078125 0 
L 9.078125 54.6875 
L 18.109375 54.6875 
L 18.109375 46.1875 
Q 20.953125 51.171875 25.484375 53.578125 
Q 30.03125 56 36.53125 56 
Q 37.453125 56 38.578125 55.875 
Q 39.703125 55.765625 41.0625 55.515625 
z
" id="DejaVuSans-114"/>
      <path d="M 34.28125 27.484375 
Q 23.390625 27.484375 19.1875 25 
Q 14.984375 22.515625 14.984375 16.5 
Q 14.984375 11.71875 18.140625 8.90625 
Q 21.296875 6.109375 26.703125 6.109375 
Q 34.1875 6.109375 38.703125 11.40625 
Q 43.21875 16.703125 43.21875 25.484375 
L 43.21875 27.484375 
z
M 52.203125 31.203125 
L 52.203125 0 
L 43.21875 0 
L 43.21875 8.296875 
Q 40.140625 3.328125 35.546875 0.953125 
Q 30.953125 -1.421875 24.3125 -1.421875 
Q 15.921875 -1.421875 10.953125 3.296875 
Q 6 8.015625 6 15.921875 
Q 6 25.140625 12.171875 29.828125 
Q 18.359375 34.515625 30.609375 34.515625 
L 43.21875 34.515625 
L 43.21875 35.40625 
Q 43.21875 41.609375 39.140625 45 
Q 35.0625 48.390625 27.6875 48.390625 
Q 23 48.390625 18.546875 47.265625 
Q 14.109375 46.140625 10.015625 43.890625 
L 10.015625 52.203125 
Q 14.9375 54.109375 19.578125 55.046875 
Q 24.21875 56 28.609375 56 
Q 40.484375 56 46.34375 49.84375 
Q 52.203125 43.703125 52.203125 31.203125 
z
" id="DejaVuSans-97"/>
      <path d="M 18.3125 70.21875 
L 18.3125 54.6875 
L 36.8125 54.6875 
L 36.8125 47.703125 
L 18.3125 47.703125 
L 18.3125 18.015625 
Q 18.3125 11.328125 20.140625 9.421875 
Q 21.96875 7.515625 27.59375 7.515625 
L 36.8125 7.515625 
L 36.8125 0 
L 27.59375 0 
Q 17.1875 0 13.234375 3.875 
Q 9.28125 7.765625 9.28125 18.015625 
L 9.28125 47.703125 
L 2.6875 47.703125 
L 2.6875 54.6875 
L 9.28125 54.6875 
L 9.28125 70.21875 
z
" id="DejaVuSans-116"/>
      <path d="M 9.421875 54.6875 
L 18.40625 54.6875 
L 18.40625 0 
L 9.421875 0 
z
M 9.421875 75.984375 
L 18.40625 75.984375 
L 18.40625 64.59375 
L 9.421875 64.59375 
z
" id="DejaVuSans-105"/>
      <path d="M 30.609375 48.390625 
Q 23.390625 48.390625 19.1875 42.75 
Q 14.984375 37.109375 14.984375 27.296875 
Q 14.984375 17.484375 19.15625 11.84375 
Q 23.34375 6.203125 30.609375 6.203125 
Q 37.796875 6.203125 41.984375 11.859375 
Q 46.1875 17.53125 46.1875 27.296875 
Q 46.1875 37.015625 41.984375 42.703125 
Q 37.796875 48.390625 30.609375 48.390625 
z
M 30.609375 56 
Q 42.328125 56 49.015625 48.375 
Q 55.71875 40.765625 55.71875 27.296875 
Q 55.71875 13.875 49.015625 6.21875 
Q 42.328125 -1.421875 30.609375 -1.421875 
Q 18.84375 -1.421875 12.171875 6.21875 
Q 5.515625 13.875 5.515625 27.296875 
Q 5.515625 40.765625 12.171875 48.375 
Q 18.84375 56 30.609375 56 
z
" id="DejaVuSans-111"/>
      <path d="M 44.28125 53.078125 
L 44.28125 44.578125 
Q 40.484375 46.53125 36.375 47.5 
Q 32.28125 48.484375 27.875 48.484375 
Q 21.1875 48.484375 17.84375 46.4375 
Q 14.5 44.390625 14.5 40.28125 
Q 14.5 37.15625 16.890625 35.375 
Q 19.28125 33.59375 26.515625 31.984375 
L 29.59375 31.296875 
Q 39.15625 29.25 43.1875 25.515625 
Q 47.21875 21.78125 47.21875 15.09375 
Q 47.21875 7.46875 41.1875 3.015625 
Q 35.15625 -1.421875 24.609375 -1.421875 
Q 20.21875 -1.421875 15.453125 -0.5625 
Q 10.6875 0.296875 5.421875 2 
L 5.421875 11.28125 
Q 10.40625 8.6875 15.234375 7.390625 
Q 20.0625 6.109375 24.8125 6.109375 
Q 31.15625 6.109375 34.5625 8.28125 
Q 37.984375 10.453125 37.984375 14.40625 
Q 37.984375 18.0625 35.515625 20.015625 
Q 33.0625 21.96875 24.703125 23.78125 
L 21.578125 24.515625 
Q 13.234375 26.265625 9.515625 29.90625 
Q 5.8125 33.546875 5.8125 39.890625 
Q 5.8125 47.609375 11.28125 51.796875 
Q 16.75 56 26.8125 56 
Q 31.78125 56 36.171875 55.265625 
Q 40.578125 54.546875 44.28125 53.078125 
z
" id="DejaVuSans-115"/>
     </defs>
     <g transform="translate(205.662344 335.860562)scale(0.1 -0.1)">
      <use xlink:href="#DejaVuSans-71"/>
      <use x="77.490234" xlink:href="#DejaVuSans-101"/>
      <use x="139.013672" xlink:href="#DejaVuSans-110"/>
      <use x="202.392578" xlink:href="#DejaVuSans-101"/>
      <use x="263.916016" xlink:href="#DejaVuSans-114"/>
      <use x="305.029297" xlink:href="#DejaVuSans-97"/>
      <use x="366.308594" xlink:href="#DejaVuSans-116"/>
      <use x="405.517578" xlink:href="#DejaVuSans-105"/>
      <use x="433.300781" xlink:href="#DejaVuSans-111"/>
      <use x="494.482422" xlink:href="#DejaVuSans-110"/>
      <use x="557.861328" xlink:href="#DejaVuSans-115"/>
     </g>
    </g>
   </g>
   <g id="matplotlib.axis_2">
    <g id="ytick_1">
     <g id="line2d_13">
      <path clip-path="url(#p43f7353d22)" d="M 57.6 286.127325 
L 414.72 286.127325 
" style="fill:none;stroke:#b0b0b0;stroke-linecap:square;stroke-width:0.8;"/>
     </g>
     <g id="line2d_14">
      <defs>
       <path d="M 0 0 
L -3.5 0 
" id="m15f2a684c4" style="stroke:#000000;stroke-width:0.8;"/>
      </defs>
      <g>
       <use style="stroke:#000000;stroke-width:0.8;" x="57.6" xlink:href="#m15f2a684c4" y="286.127325"/>
      </g>
     </g>
     <g id="text_8">
      <!-- −75 -->
      <defs>
       <path d="M 10.59375 35.5 
L 73.1875 35.5 
L 73.1875 27.203125 
L 10.59375 27.203125 
z
" id="DejaVuSans-8722"/>
       <path d="M 8.203125 72.90625 
L 55.078125 72.90625 
L 55.078125 68.703125 
L 28.609375 0 
L 18.3125 0 
L 43.21875 64.59375 
L 8.203125 64.59375 
z
" id="DejaVuSans-55"/>
      </defs>
      <g transform="translate(29.495313 289.926544)scale(0.1 -0.1)">
       <use xlink:href="#DejaVuSans-8722"/>
       <use x="83.789062" xlink:href="#DejaVuSans-55"/>
       <use x="147.412109" xlink:href="#DejaVuSans-53"/>
      </g>
     </g>
    </g>
    <g id="ytick_2">
     <g id="line2d_15">
      <path clip-path="url(#p43f7353d22)" d="M 57.6 253.737447 
L 414.72 253.737447 
" style="fill:none;stroke:#b0b0b0;stroke-linecap:square;stroke-width:0.8;"/>
     </g>
     <g id="line2d_16">
      <g>
       <use style="stroke:#000000;stroke-width:0.8;" x="57.6" xlink:href="#m15f2a684c4" y="253.737447"/>
      </g>
     </g>
     <g id="text_9">
      <!-- −50 -->
      <g transform="translate(29.495313 257.536666)scale(0.1 -0.1)">
       <use xlink:href="#DejaVuSans-8722"/>
       <use x="83.789062" xlink:href="#DejaVuSans-53"/>
       <use x="147.412109" xlink:href="#DejaVuSans-48"/>
      </g>
     </g>
    </g>
    <g id="ytick_3">
     <g id="line2d_17">
      <path clip-path="url(#p43f7353d22)" d="M 57.6 221.347569 
L 414.72 221.347569 
" style="fill:none;stroke:#b0b0b0;stroke-linecap:square;stroke-width:0.8;"/>
     </g>
     <g id="line2d_18">
      <g>
       <use style="stroke:#000000;stroke-width:0.8;" x="57.6" xlink:href="#m15f2a684c4" y="221.347569"/>
      </g>
     </g>
     <g id="text_10">
      <!-- −25 -->
      <g transform="translate(29.495313 225.146788)scale(0.1 -0.1)">
       <use xlink:href="#DejaVuSans-8722"/>
       <use x="83.789062" xlink:href="#DejaVuSans-50"/>
       <use x="147.412109" xlink:href="#DejaVuSans-53"/>
      </g>
     </g>
    </g>
    <g id="ytick_4">
     <g id="line2d_19">
      <path clip-path="url(#p43f7353d22)" d="M 57.6 188.957691 
L 414.72 188.957691 
" style="fill:none;stroke:#b0b0b0;stroke-linecap:square;stroke-width:0.8;"/>
     </g>
     <g id="line2d_20">
      <g>
       <use style="stroke:#000000;stroke-width:0.8;" x="57.6" xlink:href="#m15f2a684c4" y="188.957691"/>
      </g>
     </g>
     <g id="text_11">
      <!-- 0 -->
      <g transform="translate(44.2375 192.756909)scale(0.1 -0.1)">
       <use xlink:href="#DejaVuSans-48"/>
      </g>
     </g>
    </g>
    <g id="ytick_5">
     <g id="line2d_21">
      <path clip-path="url(#p43f7353d22)" d="M 57.6 156.567813 
L 414.72 156.567813 
" style="fill:none;stroke:#b0b0b0;stroke-linecap:square;stroke-width:0.8;"/>
     </g>
     <g id="line2d_22">
      <g>
       <use style="stroke:#000000;stroke-width:0.8;" x="57.6" xlink:href="#m15f2a684c4" y="156.567813"/>
      </g>
     </g>
     <g id="text_12">
      <!-- 25 -->
      <g transform="translate(37.875 160.367031)scale(0.1 -0.1)">
       <use xlink:href="#DejaVuSans-50"/>
       <use x="63.623047" xlink:href="#DejaVuSans-53"/>
      </g>
     </g>
    </g>
    <g id="ytick_6">
     <g id="line2d_23">
      <path clip-path="url(#p43f7353d22)" d="M 57.6 124.177934 
L 414.72 124.177934 
" style="fill:none;stroke:#b0b0b0;stroke-linecap:square;stroke-width:0.8;"/>
     </g>
     <g id="line2d_24">
      <g>
       <use style="stroke:#000000;stroke-width:0.8;" x="57.6" xlink:href="#m15f2a684c4" y="124.177934"/>
      </g>
     </g>
     <g id="text_13">
      <!-- 50 -->
      <g transform="translate(37.875 127.977153)scale(0.1 -0.1)">
       <use xlink:href="#DejaVuSans-53"/>
       <use x="63.623047" xlink:href="#DejaVuSans-48"/>
      </g>
     </g>
    </g>
    <g id="ytick_7">
     <g id="line2d_25">
      <path clip-path="url(#p43f7353d22)" d="M 57.6 91.788056 
L 414.72 91.788056 
" style="fill:none;stroke:#b0b0b0;stroke-linecap:square;stroke-width:0.8;"/>
     </g>
     <g id="line2d_26">
      <g>
       <use style="stroke:#000000;stroke-width:0.8;" x="57.6" xlink:href="#m15f2a684c4" y="91.788056"/>
      </g>
     </g>
     <g id="text_14">
      <!-- 75 -->
      <g transform="translate(37.875 95.587275)scale(0.1 -0.1)">
       <use xlink:href="#DejaVuSans-55"/>
       <use x="63.623047" xlink:href="#DejaVuSans-53"/>
      </g>
     </g>
    </g>
    <g id="ytick_8">
     <g id="line2d_27">
      <path clip-path="url(#p43f7353d22)" d="M 57.6 59.398178 
L 414.72 59.398178 
" style="fill:none;stroke:#b0b0b0;stroke-linecap:square;stroke-width:0.8;"/>
     </g>
     <g id="line2d_28">
      <g>
       <use style="stroke:#000000;stroke-width:0.8;" x="57.6" xlink:href="#m15f2a684c4" y="59.398178"/>
      </g>
     </g>
     <g id="text_15">
      <!-- 100 -->
      <g transform="translate(31.5125 63.197397)scale(0.1 -0.1)">
       <use xlink:href="#DejaVuSans-49"/>
       <use x="63.623047" xlink:href="#DejaVuSans-48"/>
       <use x="127.246094" xlink:href="#DejaVuSans-48"/>
      </g>
     </g>
    </g>
    <g id="text_16">
     <!-- Fitness -->
     <defs>
      <path d="M 9.8125 72.90625 
L 51.703125 72.90625 
L 51.703125 64.59375 
L 19.671875 64.59375 
L 19.671875 43.109375 
L 48.578125 43.109375 
L 48.578125 34.8125 
L 19.671875 34.8125 
L 19.671875 0 
L 9.8125 0 
z
" id="DejaVuSans-70"/>
     </defs>
     <g transform="translate(23.415625 192.202219)rotate(-90)scale(0.1 -0.1)">
      <use xlink:href="#DejaVuSans-70"/>
      <use x="57.410156" xlink:href="#DejaVuSans-105"/>
      <use x="85.193359" xlink:href="#DejaVuSans-116"/>
      <use x="124.402344" xlink:href="#DejaVuSans-110"/>
      <use x="187.78125" xlink:href="#DejaVuSans-101"/>
      <use x="249.304688" xlink:href="#DejaVuSans-115"/>
      <use x="301.404297" xlink:href="#DejaVuSans-115"/>
     </g>
    </g>
   </g>
   <g id="line2d_29">
    <path clip-path="url(#p43f7353d22)" d="M 73.832727 295.488 
L 74.483338 287.338707 
L 75.133948 284.117452 
L 75.784558 281.994488 
L 76.435169 278.850901 
L 77.085779 279.114386 
L 77.736389 278.117592 
L 78.386999 275.601276 
L 79.03761 277.629279 
L 80.33883 279.267281 
L 80.989441 281.034843 
L 81.640051 280.213859 
L 82.290661 280.942301 
L 82.941272 278.419856 
L 83.591882 278.684263 
L 84.242492 280.32491 
L 84.893103 277.642499 
L 85.543713 276.057378 
L 86.194323 280.27335 
L 86.844934 278.63006 
L 87.495544 282.202201 
L 88.146154 275.868441 
L 88.796764 279.436296 
L 89.447375 280.313719 
L 90.097985 279.283807 
L 90.748595 278.995074 
L 91.399206 274.324514 
L 92.049816 282.082502 
L 92.700426 271.59928 
L 93.351037 274.27579 
L 94.001647 275.154226 
L 94.652257 268.565711 
L 95.302868 269.350822 
L 95.953478 272.181592 
L 96.604088 267.31145 
L 97.254698 267.041835 
L 97.905309 264.275515 
L 98.555919 270.372621 
L 99.206529 266.927325 
L 99.85714 266.711438 
L 100.50775 264.193816 
L 101.15836 260.90422 
L 101.808971 265.325639 
L 102.459581 263.325178 
L 103.110191 266.287707 
L 103.760802 266.347471 
L 104.411412 261.423565 
L 105.062022 260.476525 
L 105.712633 259.220824 
L 106.363243 262.650876 
L 107.013853 258.085996 
L 107.664463 257.206726 
L 108.315074 264.812802 
L 108.965684 257.889996 
L 109.616294 264.325587 
L 110.266905 257.274027 
L 110.917515 258.882486 
L 111.568125 263.370616 
L 112.218736 261.02517 
L 112.869346 260.423176 
L 113.519956 255.523654 
L 114.170567 261.809752 
L 114.821177 257.046019 
L 115.471787 262.671449 
L 116.122398 259.622965 
L 116.773008 257.498227 
L 117.423618 257.251114 
L 118.074228 259.874646 
L 118.724839 257.658157 
L 119.375449 266.165018 
L 120.026059 262.067668 
L 120.67667 264.750006 
L 121.32728 265.372211 
L 121.97789 262.947717 
L 122.628501 262.475445 
L 123.279111 257.497912 
L 123.929721 262.299711 
L 124.580332 260.88285 
L 125.230942 260.690257 
L 125.881552 260.772301 
L 126.532163 258.834633 
L 127.182773 257.352836 
L 129.134604 261.811375 
L 129.785214 252.140626 
L 130.435824 256.307689 
L 131.086435 251.827979 
L 131.737045 260.208945 
L 132.387655 258.368716 
L 133.038266 257.050561 
L 133.688876 259.582164 
L 134.339486 263.525847 
L 135.640707 258.770461 
L 136.291317 261.07646 
L 136.941927 257.875254 
L 137.592538 255.661406 
L 138.243148 255.021706 
L 138.893758 258.419404 
L 139.544369 259.18122 
L 140.194979 258.049603 
L 140.845589 259.017241 
L 141.4962 256.663089 
L 142.14681 260.220293 
L 142.79742 262.11347 
L 143.448031 254.440307 
L 144.098641 256.723794 
L 144.749251 254.649222 
L 145.399862 251.994371 
L 146.050472 253.669258 
L 146.701082 259.052295 
L 147.351692 254.898287 
L 148.002303 253.708223 
L 148.652913 247.423838 
L 149.303523 255.171971 
L 149.954134 250.731085 
L 150.604744 252.394769 
L 151.255354 251.860288 
L 151.905965 249.249829 
L 152.556575 254.226534 
L 153.207185 245.771157 
L 153.857796 252.101758 
L 154.508406 251.465297 
L 155.159016 251.302956 
L 155.809627 254.078308 
L 156.460237 255.651689 
L 157.110847 253.761679 
L 157.761457 251.437766 
L 158.412068 251.51874 
L 159.062678 248.501623 
L 159.713288 251.739129 
L 160.363899 252.638937 
L 161.014509 250.997635 
L 161.665119 247.759017 
L 162.31573 249.298414 
L 162.96634 244.277983 
L 163.61695 247.080156 
L 164.267561 249.08788 
L 164.918171 247.815188 
L 165.568781 248.104847 
L 166.219392 255.768512 
L 166.870002 250.555284 
L 167.520612 251.384322 
L 168.171222 253.80726 
L 168.821833 250.371822 
L 170.123053 248.227109 
L 170.773664 247.225377 
L 171.424274 254.362515 
L 172.074884 247.135771 
L 172.725495 247.697304 
L 173.376105 248.76722 
L 174.026715 243.562642 
L 174.677326 250.274409 
L 175.327936 246.850336 
L 175.978546 247.695115 
L 176.629156 252.281522 
L 177.279767 253.105844 
L 177.930377 251.409576 
L 178.580987 248.138857 
L 179.231598 249.523524 
L 179.882208 244.932259 
L 180.532818 247.942809 
L 181.183429 252.670201 
L 181.834039 254.968262 
L 182.484649 253.654646 
L 183.13526 256.206871 
L 183.78587 251.59111 
L 184.43648 249.620694 
L 185.087091 247.210887 
L 185.737701 248.563184 
L 186.388311 246.27158 
L 187.038921 252.51311 
L 187.689532 249.028395 
L 188.340142 248.306286 
L 188.990752 250.513071 
L 189.641363 252.01161 
L 190.291973 247.1994 
L 190.942583 249.47075 
L 191.593194 253.902635 
L 192.243804 252.549006 
L 192.894414 252.869398 
L 193.545025 253.629212 
L 194.195635 252.018603 
L 194.846245 252.981414 
L 195.496856 254.292702 
L 196.147466 254.707524 
L 196.798076 253.287228 
L 197.448686 257.536561 
L 198.099297 254.367475 
L 198.749907 254.283471 
L 199.400517 248.672995 
L 200.051128 255.535449 
L 200.701738 251.300109 
L 201.352348 253.834617 
L 202.002959 259.29946 
L 202.653569 252.739839 
L 203.304179 251.990013 
L 203.95479 256.152112 
L 204.6054 252.879115 
L 205.25601 254.098594 
L 206.557231 252.300603 
L 207.207841 256.520217 
L 207.858451 251.110539 
L 208.509062 253.513397 
L 209.159672 253.813563 
L 209.810282 251.878268 
L 210.460893 247.831153 
L 211.111503 253.667634 
L 211.762113 248.35537 
L 212.412724 249.000427 
L 213.063334 250.930864 
L 213.713944 246.619771 
L 214.364555 249.71981 
L 215.015165 254.254393 
L 215.665775 249.002047 
L 216.316385 249.34538 
L 216.966996 246.315306 
L 217.617606 252.117145 
L 218.268216 249.855508 
L 218.918827 249.98636 
L 219.569437 249.860379 
L 220.220047 251.193222 
L 220.870658 248.676833 
L 221.521268 252.330107 
L 222.171878 254.620071 
L 222.822489 247.798491 
L 223.473099 252.393267 
L 224.123709 251.246917 
L 224.77432 256.74589 
L 225.42493 249.53648 
L 226.07554 250.215048 
L 226.72615 246.877271 
L 228.027371 250.333271 
L 228.677981 244.59397 
L 229.328592 251.973818 
L 229.979202 250.202973 
L 230.629812 251.084407 
L 231.280423 255.752276 
L 231.931033 248.053389 
L 232.581643 249.321383 
L 233.232254 249.076227 
L 233.882864 255.911384 
L 234.533474 254.092116 
L 235.184085 248.814186 
L 235.834695 255.465447 
L 236.485305 250.613443 
L 237.135915 247.275707 
L 237.786526 248.522595 
L 238.437136 250.918478 
L 239.087746 245.410245 
L 239.738357 251.716124 
L 240.388967 252.194069 
L 241.039577 254.459741 
L 242.991408 245.699899 
L 243.642019 251.635344 
L 244.292629 249.013383 
L 244.943239 247.696735 
L 245.59385 248.551836 
L 246.24446 256.700192 
L 246.89507 252.218919 
L 247.54568 245.853751 
L 248.196291 244.737919 
L 248.846901 243.131381 
L 249.497511 251.317923 
L 250.148122 255.350463 
L 250.798732 255.170699 
L 251.449342 256.040367 
L 252.099953 248.077316 
L 252.750563 252.300956 
L 253.401173 252.738219 
L 254.051784 245.928158 
L 254.702394 254.992453 
L 255.353004 250.707374 
L 256.003615 250.211996 
L 256.654225 248.473889 
L 257.304835 244.364677 
L 257.955445 249.946451 
L 258.606056 248.4609 
L 259.256666 247.644911 
L 259.907276 252.25561 
L 260.557887 247.653643 
L 261.208497 246.62463 
L 261.859107 249.984744 
L 262.509718 252.012686 
L 263.810938 247.882977 
L 264.461549 250.772154 
L 265.112159 250.186737 
L 265.762769 255.508743 
L 266.413379 252.510212 
L 267.06399 254.94559 
L 267.7146 257.965093 
L 268.36521 249.117031 
L 269.015821 254.203861 
L 269.666431 252.592465 
L 270.317041 254.687225 
L 270.967652 251.419014 
L 271.618262 255.672742 
L 272.268872 250.067674 
L 272.919483 256.486952 
L 273.570093 247.370938 
L 274.220703 252.772229 
L 274.871314 249.448021 
L 275.521924 252.289238 
L 276.172534 249.346999 
L 276.823144 249.788967 
L 277.473755 249.437691 
L 278.124365 248.014423 
L 278.774975 247.009076 
L 279.425586 250.362761 
L 280.076196 252.16006 
L 280.726806 248.387059 
L 281.377417 243.706302 
L 282.678637 252.807151 
L 283.329248 254.005333 
L 283.979858 251.021556 
L 284.630468 251.915516 
L 285.281079 253.133376 
L 285.931689 251.431288 
L 286.582299 256.463055 
L 287.232909 247.427479 
L 287.88352 253.163776 
L 288.53413 249.526763 
L 289.18474 256.461769 
L 289.835351 251.403756 
L 290.485961 249.317561 
L 291.136571 256.113245 
L 291.787182 254.347903 
L 292.437792 249.788967 
L 293.088402 248.785035 
L 293.739013 253.12842 
L 294.389623 252.637811 
L 295.040233 251.288772 
L 295.690844 248.261054 
L 296.341454 251.726205 
L 296.992064 252.760892 
L 297.642674 255.459522 
L 298.293285 247.618822 
L 298.943895 251.575968 
L 299.594505 257.331104 
L 300.245116 249.317561 
L 300.895726 253.476709 
L 301.546336 249.66233 
L 302.196947 252.087917 
L 302.847557 249.88791 
L 303.498167 251.828064 
L 304.148778 253.042684 
L 304.799388 249.95944 
L 305.449998 250.574766 
L 306.100608 258.254216 
L 306.751219 252.487198 
L 307.401829 254.036306 
L 308.052439 250.683082 
L 308.70305 250.935723 
L 309.35366 247.705948 
L 310.00427 252.402984 
L 310.654881 248.438171 
L 311.305491 255.140197 
L 311.956101 253.851096 
L 312.606712 249.944828 
L 313.257322 253.618928 
L 313.907932 250.605614 
L 314.558543 250.831288 
L 315.209153 248.572926 
L 315.859763 255.973079 
L 316.510373 254.147179 
L 317.160984 247.019186 
L 317.811594 250.801305 
L 318.462204 247.751798 
L 319.112815 251.86062 
L 319.763425 249.761366 
L 320.414035 251.169044 
L 321.064646 256.997594 
L 321.715256 251.395659 
L 322.365866 249.366025 
L 323.016477 250.385377 
L 323.667087 251.183412 
L 324.317697 252.805329 
L 324.968308 252.978183 
L 325.618918 250.916289 
L 326.269528 251.105769 
L 326.920138 247.343685 
L 327.570749 251.899321 
L 328.221359 252.242654 
L 328.871969 245.968747 
L 329.52258 252.472777 
L 330.17319 253.673969 
L 330.8238 251.623153 
L 331.474411 251.337357 
L 332.125021 249.450647 
L 332.775631 248.248982 
L 333.426242 246.755809 
L 334.076852 248.496765 
L 334.727462 251.285882 
L 335.378073 248.691104 
L 336.028683 251.457979 
L 336.679293 253.292594 
L 337.329903 249.34538 
L 337.980514 249.925158 
L 338.631124 251.554967 
L 339.281734 254.416015 
L 339.932345 251.654778 
L 340.582955 255.389331 
L 341.233565 251.249904 
L 341.884176 248.936601 
L 342.534786 250.059576 
L 343.185396 251.881507 
L 343.836007 252.195689 
L 344.486617 252.242654 
L 345.137227 253.196804 
L 345.787837 246.345411 
L 346.438448 248.449536 
L 347.089058 251.719558 
L 347.739668 249.368052 
L 348.390279 254.736675 
L 349.040889 246.415715 
L 349.691499 245.350173 
L 350.34211 251.841137 
L 350.99272 253.058802 
L 351.64333 247.397128 
L 352.293941 251.544027 
L 352.944551 249.160757 
L 353.595161 251.254763 
L 354.245772 251.760045 
L 354.896382 250.738144 
L 355.546992 250.513035 
L 356.197602 252.224296 
L 356.848213 252.104153 
L 357.498823 253.454949 
L 358.149433 255.191753 
L 358.800044 258.153807 
L 359.450654 253.691988 
L 360.101264 250.20857 
L 360.751875 249.959168 
L 361.402485 251.842518 
L 362.053095 249.886202 
L 362.703706 252.117145 
L 363.354316 251.338977 
L 364.004926 247.191622 
L 364.655537 252.237284 
L 365.306147 253.041065 
L 365.956757 254.215622 
L 366.607367 251.076619 
L 367.257978 248.592222 
L 367.908588 254.443693 
L 368.559198 249.816652 
L 369.209809 248.076892 
L 369.860419 250.44838 
L 370.511029 253.730969 
L 371.16164 250.717091 
L 371.81225 248.862003 
L 372.46286 254.469458 
L 373.113471 248.065979 
L 373.764081 246.801155 
L 374.414691 253.394971 
L 375.065302 246.532319 
L 375.715912 249.680189 
L 376.366522 250.04824 
L 377.017132 252.279903 
L 377.667743 251.317495 
L 378.318353 252.739968 
L 378.968963 253.289966 
L 379.619574 254.36905 
L 380.270184 250.542186 
L 380.920794 249.709413 
L 381.571405 254.454709 
L 382.222015 249.392345 
L 382.872625 252.709738 
L 383.523236 254.348089 
L 384.173846 254.187666 
L 384.824456 253.340671 
L 385.475066 250.188292 
L 386.125677 253.892531 
L 386.776287 251.4225 
L 387.426897 254.621101 
L 388.077508 251.322341 
L 388.728118 254.041153 
L 389.378728 254.741533 
L 390.029339 251.930092 
L 390.679949 251.054176 
L 391.330559 248.427446 
L 391.98117 248.184202 
L 392.63178 251.117106 
L 393.28239 257.692082 
L 393.933001 249.973436 
L 394.583611 250.644214 
L 395.234221 250.316621 
L 395.884831 250.795569 
L 396.535442 249.76159 
L 397.186052 251.393421 
L 397.836662 251.844259 
L 398.487273 253.173863 
L 398.487273 253.173863 
" style="fill:none;stroke:#0000ff;stroke-linecap:square;stroke-width:1.5;"/>
   </g>
   <g id="line2d_30">
    <path clip-path="url(#p43f7353d22)" d="M 73.832727 239.918531 
L 74.483338 229.438438 
L 75.133948 227.259013 
L 75.784558 227.513338 
L 76.435169 222.371168 
L 77.085779 224.577904 
L 77.736389 220.671471 
L 78.386999 220.905274 
L 79.03761 222.939842 
L 79.68822 222.184069 
L 80.33883 222.567833 
L 80.989441 221.151312 
L 81.640051 226.961704 
L 82.290661 223.506659 
L 82.941272 221.039016 
L 83.591882 220.396421 
L 84.242492 219.998578 
L 85.543713 222.731918 
L 86.194323 226.678282 
L 86.844934 220.808556 
L 87.495544 224.327701 
L 88.146154 216.892211 
L 88.796764 221.605896 
L 89.447375 225.478874 
L 90.097985 221.711998 
L 90.748595 219.021141 
L 91.399206 217.076852 
L 92.049816 226.309155 
L 92.700426 217.637066 
L 94.001647 219.380997 
L 94.652257 213.113392 
L 95.953478 211.207585 
L 96.604088 211.6466 
L 97.905309 211.085806 
L 98.555919 216.428108 
L 99.206529 207.89205 
L 99.85714 203.441216 
L 100.50775 207.744006 
L 101.15836 203.683567 
L 101.808971 210.31944 
L 102.459581 202.554347 
L 103.110191 207.933723 
L 103.760802 210.795396 
L 104.411412 207.355198 
L 105.062022 206.437421 
L 105.712633 201.667152 
L 106.363243 207.484035 
L 107.013853 201.859844 
L 107.664463 201.163467 
L 108.315074 208.601794 
L 108.965684 198.991051 
L 109.616294 211.772696 
L 110.266905 201.886399 
L 110.917515 201.179063 
L 111.568125 207.180891 
L 112.218736 205.904957 
L 112.869346 203.089494 
L 113.519956 201.085896 
L 114.170567 205.858948 
L 114.821177 202.867158 
L 115.471787 205.160179 
L 116.773008 200.37038 
L 117.423618 202.179956 
L 118.074228 202.230512 
L 118.724839 204.360353 
L 119.375449 210.97048 
L 120.67667 208.424001 
L 121.32728 209.174587 
L 121.97789 205.990852 
L 122.628501 208.708936 
L 123.279111 205.395787 
L 123.929721 207.519281 
L 124.580332 204.14364 
L 125.230942 206.341817 
L 125.881552 206.162306 
L 126.532163 202.052468 
L 127.182773 204.225993 
L 127.833383 202.544141 
L 128.483993 204.017524 
L 129.134604 206.419201 
L 129.785214 195.324094 
L 130.435824 201.79174 
L 131.086435 198.924188 
L 131.737045 205.154993 
L 132.387655 203.597464 
L 133.688876 201.325142 
L 134.339486 205.419715 
L 134.990097 206.736848 
L 135.640707 201.109055 
L 136.291317 207.175176 
L 136.941927 201.41193 
L 137.592538 200.072432 
L 138.243148 200.891572 
L 138.893758 205.159291 
L 139.544369 206.416741 
L 140.194979 202.575497 
L 140.845589 205.645611 
L 141.4962 202.930304 
L 142.14681 202.547415 
L 142.79742 207.006758 
L 143.448031 199.803363 
L 144.098641 200.644565 
L 145.399862 200.904846 
L 146.050472 200.44489 
L 146.701082 204.905151 
L 147.351692 201.232405 
L 148.002303 202.868283 
L 148.652913 195.189093 
L 149.303523 202.793464 
L 149.954134 196.626331 
L 150.604744 195.743541 
L 151.255354 199.19505 
L 151.905965 196.332729 
L 152.556575 203.798937 
L 153.207185 195.060423 
L 153.857796 201.812618 
L 154.508406 202.807744 
L 155.159016 199.605699 
L 155.809627 201.768531 
L 156.460237 201.908426 
L 157.110847 200.152371 
L 157.761457 196.194372 
L 158.412068 195.01761 
L 159.062678 193.322614 
L 159.713288 197.098006 
L 160.363899 199.5496 
L 161.014509 199.373918 
L 161.665119 195.748491 
L 162.31573 195.429964 
L 162.96634 191.510828 
L 163.61695 194.982846 
L 164.267561 195.409961 
L 164.918171 197.183313 
L 165.568781 193.464373 
L 166.219392 204.083557 
L 166.870002 194.63593 
L 167.520612 195.11091 
L 168.171222 200.546597 
L 168.821833 195.846048 
L 169.472443 195.299831 
L 170.123053 198.107504 
L 170.773664 194.230325 
L 171.424274 199.762117 
L 172.074884 196.24103 
L 172.725495 191.90574 
L 173.376105 194.846097 
L 174.026715 189.506643 
L 174.677326 199.787905 
L 175.327936 197.027268 
L 175.978546 191.151051 
L 176.629156 199.166304 
L 177.279767 199.15796 
L 177.930377 198.475778 
L 178.580987 195.098239 
L 179.231598 197.603024 
L 179.882208 194.183091 
L 180.532818 194.881826 
L 181.183429 197.914393 
L 181.834039 197.934239 
L 182.484649 201.239623 
L 183.13526 200.27487 
L 183.78587 195.618368 
L 184.43648 200.342247 
L 185.087091 195.199542 
L 185.737701 197.600121 
L 186.388311 196.240994 
L 187.038921 198.260101 
L 187.689532 198.275691 
L 188.340142 194.32474 
L 188.990752 198.882598 
L 189.641363 198.275289 
L 190.291973 193.968472 
L 191.593194 204.166019 
L 192.243804 200.010419 
L 192.894414 200.004932 
L 193.545025 200.440984 
L 194.195635 198.968389 
L 194.846245 202.537383 
L 195.496856 198.553208 
L 196.147466 202.203601 
L 196.798076 200.914039 
L 197.448686 204.957236 
L 198.099297 200.061799 
L 198.749907 199.519282 
L 199.400517 198.455163 
L 200.051128 200.895009 
L 200.701738 200.448222 
L 201.352348 203.199395 
L 202.002959 207.260526 
L 202.653569 198.355918 
L 203.304179 194.641537 
L 203.95479 202.726373 
L 204.6054 198.369099 
L 205.25601 201.299529 
L 205.906621 198.383049 
L 206.557231 200.507654 
L 207.207841 200.815903 
L 207.858451 196.53242 
L 208.509062 196.674847 
L 209.159672 203.253539 
L 209.810282 197.066696 
L 210.460893 194.140951 
L 211.111503 201.565242 
L 213.063334 197.459788 
L 214.364555 197.57445 
L 215.665775 195.068654 
L 216.316385 197.004633 
L 216.966996 193.177924 
L 217.617606 199.275124 
L 218.268216 197.547981 
L 218.918827 194.949312 
L 219.569437 196.7489 
L 220.220047 200.35466 
L 221.521268 195.673154 
L 222.171878 200.395677 
L 222.822489 195.321429 
L 223.473099 199.452056 
L 224.123709 198.767444 
L 224.77432 201.39153 
L 225.42493 193.990134 
L 226.07554 200.082333 
L 226.72615 192.969665 
L 227.376761 194.55765 
L 228.027371 198.742204 
L 228.677981 190.014747 
L 229.328592 200.617971 
L 229.979202 199.368724 
L 230.629812 196.917898 
L 231.280423 199.82189 
L 231.931033 196.671781 
L 232.581643 198.274945 
L 233.232254 196.420806 
L 233.882864 205.87022 
L 234.533474 202.742083 
L 235.184085 195.986543 
L 235.834695 202.194753 
L 236.485305 198.535148 
L 237.135915 196.568394 
L 237.786526 193.377865 
L 238.437136 199.088479 
L 239.087746 193.372253 
L 239.738357 199.799147 
L 240.388967 199.256755 
L 241.039577 204.983879 
L 241.690188 198.582835 
L 242.340798 197.173449 
L 242.991408 192.484378 
L 243.642019 196.991901 
L 244.292629 196.631922 
L 244.943239 195.115503 
L 245.59385 192.857571 
L 246.24446 204.31213 
L 246.89507 203.359802 
L 247.54568 190.289857 
L 248.196291 191.841446 
L 248.846901 193.718189 
L 249.497511 200.043959 
L 250.148122 199.843964 
L 250.798732 201.995032 
L 251.449342 204.542612 
L 252.099953 191.424211 
L 252.750563 198.473947 
L 253.401173 197.680406 
L 254.051784 195.305384 
L 254.702394 204.570934 
L 255.353004 197.171879 
L 256.654225 196.405325 
L 257.304835 190.658951 
L 257.955445 196.146135 
L 258.606056 193.823108 
L 259.256666 194.526455 
L 259.907276 197.559185 
L 260.557887 196.908954 
L 261.208497 195.311479 
L 261.859107 196.641643 
L 262.509718 198.461437 
L 263.160328 198.062706 
L 263.810938 195.648311 
L 264.461549 198.553848 
L 265.112159 199.421632 
L 265.762769 203.830472 
L 266.413379 198.667495 
L 267.06399 199.843193 
L 267.7146 204.902087 
L 268.36521 193.67784 
L 269.015821 197.412917 
L 269.666431 197.370037 
L 270.317041 196.973728 
L 270.967652 198.996539 
L 271.618262 202.904541 
L 272.268872 197.219807 
L 272.919483 202.798355 
L 273.570093 193.449829 
L 274.220703 199.31994 
L 274.871314 195.24968 
L 275.521924 201.083164 
L 276.172534 196.893022 
L 276.823144 194.139251 
L 277.473755 196.353314 
L 278.124365 197.248785 
L 278.774975 192.993438 
L 279.425586 198.361072 
L 280.076196 197.957398 
L 280.726806 195.561925 
L 281.377417 190.272447 
L 282.028027 199.460934 
L 282.678637 203.617065 
L 283.329248 199.12932 
L 283.979858 192.855754 
L 284.630468 198.501387 
L 285.281079 196.56923 
L 285.931689 198.220321 
L 286.582299 200.640571 
L 287.232909 197.355509 
L 287.88352 198.839819 
L 288.53413 198.021622 
L 289.18474 200.772863 
L 290.485961 193.110641 
L 291.136571 201.379269 
L 291.787182 202.274472 
L 292.437792 193.831874 
L 293.088402 193.326643 
L 293.739013 200.809535 
L 294.389623 200.564774 
L 295.040233 195.725632 
L 295.690844 198.490778 
L 296.341454 199.182091 
L 296.992064 200.678653 
L 297.642674 199.358587 
L 298.293285 192.743243 
L 299.594505 205.3684 
L 300.245116 195.679293 
L 300.895726 201.92775 
L 301.546336 197.098253 
L 302.196947 199.17206 
L 302.847557 194.88826 
L 303.498167 200.25398 
L 304.148778 198.311161 
L 304.799388 199.684935 
L 305.449998 199.612523 
L 306.100608 205.514535 
L 306.751219 197.622931 
L 307.401829 197.381485 
L 308.052439 199.760347 
L 308.70305 197.667166 
L 309.35366 194.4402 
L 310.00427 202.8424 
L 310.654881 194.594447 
L 311.305491 203.717837 
L 311.956101 200.726848 
L 312.606712 195.893199 
L 313.257322 203.171547 
L 313.907932 197.44106 
L 314.558543 198.363447 
L 315.209153 194.125424 
L 315.859763 202.278229 
L 316.510373 203.673262 
L 317.160984 191.45749 
L 317.811594 197.683607 
L 318.462204 193.389375 
L 319.112815 198.885707 
L 319.763425 197.716747 
L 320.414035 198.494225 
L 321.064646 201.062289 
L 321.715256 194.62853 
L 322.365866 193.568554 
L 323.016477 194.935299 
L 323.667087 196.777902 
L 324.317697 200.142576 
L 324.968308 202.293154 
L 325.618918 195.664818 
L 326.269528 201.456709 
L 326.920138 195.281661 
L 327.570749 200.369087 
L 328.221359 198.122112 
L 328.871969 193.225711 
L 329.52258 199.610509 
L 330.8238 201.17088 
L 331.474411 197.365641 
L 332.125021 195.726935 
L 332.775631 197.170117 
L 333.426242 194.57322 
L 334.076852 196.24846 
L 334.727462 197.117225 
L 335.378073 194.792008 
L 336.028683 198.579076 
L 336.679293 199.966692 
L 337.329903 195.409642 
L 337.980514 197.359902 
L 338.631124 198.163827 
L 339.281734 196.107378 
L 339.932345 201.968794 
L 340.582955 203.293446 
L 341.233565 196.26561 
L 341.884176 191.124242 
L 342.534786 197.674184 
L 343.185396 196.791449 
L 343.836007 197.841456 
L 344.486617 198.258403 
L 345.137227 201.941591 
L 345.787837 193.786714 
L 347.089058 195.728796 
L 347.739668 200.797403 
L 348.390279 201.60719 
L 349.040889 194.468021 
L 349.691499 195.297152 
L 350.99272 201.8123 
L 351.64333 194.310672 
L 352.944551 199.457328 
L 353.595161 199.014741 
L 354.245772 200.210927 
L 354.896382 198.856705 
L 355.546992 195.510913 
L 356.197602 199.833211 
L 356.848213 200.516998 
L 357.498823 195.94609 
L 358.149433 203.224134 
L 358.800044 203.52957 
L 359.450654 197.807288 
L 360.101264 195.393939 
L 360.751875 197.987857 
L 361.402485 200.094374 
L 362.053095 194.487848 
L 362.703706 199.335323 
L 363.354316 199.807407 
L 364.004926 193.810046 
L 364.655537 198.666001 
L 365.306147 200.557909 
L 365.956757 201.263809 
L 366.607367 195.199729 
L 367.257978 197.076495 
L 367.908588 200.976518 
L 368.559198 196.547227 
L 369.209809 193.108708 
L 369.860419 198.825943 
L 370.511029 201.860868 
L 371.16164 195.164461 
L 371.81225 195.747371 
L 372.46286 197.730423 
L 373.113471 198.763265 
L 373.764081 192.126093 
L 374.414691 198.619596 
L 375.065302 194.556615 
L 375.715912 197.259438 
L 376.366522 196.27323 
L 377.017132 201.009467 
L 377.667743 196.630112 
L 378.318353 199.833213 
L 378.968963 201.51267 
L 379.619574 200.112864 
L 380.270184 200.393332 
L 380.920794 193.636194 
L 381.571405 203.45838 
L 382.222015 196.221651 
L 382.872625 196.53341 
L 383.523236 196.129333 
L 384.173846 200.62236 
L 384.824456 197.160365 
L 385.475066 199.544646 
L 386.125677 196.861632 
L 386.776287 198.70583 
L 387.426897 202.030729 
L 388.077508 199.977089 
L 388.728118 203.306154 
L 389.378728 199.845964 
L 390.029339 198.759166 
L 390.679949 195.942467 
L 391.330559 194.738758 
L 391.98117 196.101561 
L 392.63178 198.781465 
L 393.28239 204.683341 
L 393.933001 197.723994 
L 394.583611 199.876618 
L 395.234221 196.637524 
L 395.884831 196.712627 
L 396.535442 197.879804 
L 397.186052 196.246199 
L 397.836662 197.170906 
L 398.487273 197.607224 
L 398.487273 197.607224 
" style="fill:none;stroke:#008000;stroke-dasharray:9.6,2.4,1.5,2.4;stroke-dashoffset:0;stroke-width:1.5;"/>
   </g>
   <g id="line2d_31">
    <path clip-path="url(#p43f7353d22)" d="M 73.832727 168.875966 
L 74.483338 128.06472 
L 75.133948 133.894898 
L 75.784558 142.964064 
L 76.435169 118.995554 
L 77.085779 114.460971 
L 77.736389 95.674842 
L 78.386999 113.165376 
L 79.03761 115.108769 
L 79.68822 126.769125 
L 80.33883 101.50502 
L 80.989441 131.303708 
L 81.640051 134.542695 
L 82.290661 112.517578 
L 82.941272 122.234542 
L 83.591882 115.756566 
L 84.242492 122.234542 
L 84.893103 121.586744 
L 85.543713 130.65591 
L 86.194323 118.995554 
L 86.844934 127.416922 
L 87.495544 146.203052 
L 88.146154 117.052161 
L 88.796764 131.951505 
L 89.447375 129.360315 
L 90.097985 138.429481 
L 90.748595 139.077278 
L 91.399206 109.926388 
L 92.049816 112.517578 
L 92.700426 130.65591 
L 93.351037 138.429481 
L 94.001647 104.744007 
L 94.652257 131.951505 
L 95.302868 122.234542 
L 95.953478 91.140259 
L 96.604088 109.27859 
L 97.254698 120.938947 
L 97.905309 108.630793 
L 98.555919 122.234542 
L 99.206529 124.177934 
L 99.85714 106.039603 
L 100.50775 110.574186 
L 101.15836 97.618234 
L 101.808971 130.65591 
L 102.459581 111.869781 
L 103.110191 106.039603 
L 103.760802 103.448412 
L 104.411412 126.769125 
L 105.062022 124.825732 
L 105.712633 95.674842 
L 106.363243 105.391805 
L 107.013853 104.09621 
L 107.664463 108.630793 
L 108.965684 120.938947 
L 109.616294 131.951505 
L 110.266905 96.322639 
L 111.568125 123.530137 
L 112.218736 118.995554 
L 112.869346 107.335198 
L 113.519956 85.957878 
L 114.170567 122.234542 
L 114.821177 87.253473 
L 115.471787 135.190493 
L 116.122398 118.347756 
L 116.773008 107.335198 
L 117.423618 71.706332 
L 118.074228 85.957878 
L 118.724839 71.058534 
L 119.375449 107.982995 
L 120.026059 126.121327 
L 120.67667 92.435854 
L 121.32728 98.266032 
L 121.97789 88.549068 
L 122.628501 126.769125 
L 123.279111 123.530137 
L 123.929721 128.06472 
L 124.580332 95.674842 
L 125.881552 140.372873 
L 126.532163 111.869781 
L 127.182773 139.725076 
L 127.833383 93.731449 
L 128.483993 104.744007 
L 129.134604 119.643351 
L 129.785214 112.517578 
L 130.435824 103.448412 
L 131.086435 107.335198 
L 131.737045 133.894898 
L 132.387655 109.926388 
L 133.038266 54.863595 
L 133.688876 95.674842 
L 134.339486 114.460971 
L 134.990097 116.404364 
L 135.640707 128.712517 
L 136.941927 120.291149 
L 137.592538 118.995554 
L 138.243148 129.360315 
L 138.893758 113.165376 
L 139.544369 120.291149 
L 140.194979 76.240915 
L 140.845589 141.020671 
L 141.4962 91.140259 
L 142.14681 122.882339 
L 142.79742 135.190493 
L 143.448031 72.354129 
L 144.098641 89.844664 
L 144.749251 115.756566 
L 145.399862 107.335198 
L 146.050472 118.347756 
L 146.701082 117.052161 
L 147.351692 104.09621 
L 148.002303 120.938947 
L 148.652913 113.813173 
L 149.303523 118.995554 
L 149.954134 112.517578 
L 150.604744 71.706332 
L 151.905965 120.938947 
L 152.556575 119.643351 
L 153.207185 115.756566 
L 153.857796 125.47353 
L 154.508406 151.385432 
L 155.159016 141.668469 
L 155.809627 117.052161 
L 157.110847 107.335198 
L 157.761457 122.882339 
L 158.412068 113.813173 
L 159.062678 62.637166 
L 159.713288 97.618234 
L 160.363899 114.460971 
L 161.014509 97.618234 
L 161.665119 74.297522 
L 162.31573 116.404364 
L 162.96634 124.177934 
L 163.61695 116.404364 
L 164.267561 110.574186 
L 164.918171 106.6874 
L 165.568781 91.140259 
L 166.219392 128.06472 
L 166.870002 53.568 
L 167.520612 104.09621 
L 168.171222 132.599303 
L 168.821833 126.769125 
L 169.472443 100.209425 
L 170.123053 115.108769 
L 170.773664 113.813173 
L 171.424274 116.404364 
L 172.074884 102.152817 
L 172.725495 117.699959 
L 173.376105 80.775498 
L 174.026715 94.379246 
L 174.677326 105.391805 
L 175.327936 111.869781 
L 175.978546 109.27859 
L 176.629156 116.404364 
L 177.279767 115.756566 
L 177.930377 104.744007 
L 178.580987 113.165376 
L 179.231598 102.800615 
L 179.882208 118.995554 
L 180.532818 100.857222 
L 181.183429 110.574186 
L 181.834039 93.083651 
L 182.484649 106.039603 
L 183.13526 131.951505 
L 183.78587 108.630793 
L 184.43648 109.27859 
L 185.087091 110.574186 
L 185.737701 128.712517 
L 186.388311 84.014485 
L 187.038921 105.391805 
L 187.689532 103.448412 
L 188.340142 93.731449 
L 188.990752 102.152817 
L 189.641363 87.901271 
L 190.291973 120.291149 
L 190.942583 118.995554 
L 191.593194 130.008112 
L 192.243804 88.549068 
L 192.894414 127.416922 
L 194.195635 103.448412 
L 194.846245 128.06472 
L 195.496856 114.460971 
L 196.147466 124.825732 
L 196.798076 111.869781 
L 197.448686 113.813173 
L 198.099297 104.744007 
L 198.749907 113.813173 
L 199.400517 131.303708 
L 200.051128 106.039603 
L 200.701738 111.869781 
L 201.352348 107.335198 
L 202.002959 122.882339 
L 202.653569 126.769125 
L 203.304179 78.832105 
L 203.95479 105.391805 
L 204.6054 126.121327 
L 205.25601 121.586744 
L 205.906621 96.970437 
L 206.557231 102.800615 
L 207.207841 115.108769 
L 207.858451 85.310081 
L 208.509062 115.108769 
L 209.159672 82.71889 
L 209.810282 102.152817 
L 210.460893 94.379246 
L 211.111503 120.938947 
L 211.762113 99.561627 
L 212.412724 112.517578 
L 213.713944 124.825732 
L 214.364555 104.09621 
L 215.015165 93.731449 
L 215.665775 113.813173 
L 216.316385 104.09621 
L 217.617606 90.492461 
L 218.268216 117.052161 
L 218.918827 103.448412 
L 219.569437 93.083651 
L 220.220047 69.115142 
L 220.870658 104.744007 
L 221.521268 89.844664 
L 222.171878 141.668469 
L 222.822489 95.027044 
L 223.473099 107.982995 
L 224.123709 126.769125 
L 224.77432 114.460971 
L 225.42493 109.926388 
L 226.07554 125.47353 
L 226.72615 104.744007 
L 227.376761 111.221983 
L 228.027371 127.416922 
L 228.677981 80.1277 
L 229.328592 83.366688 
L 229.979202 106.6874 
L 230.629812 81.423295 
L 231.280423 120.938947 
L 231.931033 107.982995 
L 232.581643 121.586744 
L 233.232254 116.404364 
L 233.882864 136.486088 
L 234.533474 130.008112 
L 235.184085 93.083651 
L 235.834695 115.756566 
L 236.485305 100.857222 
L 237.135915 106.039603 
L 237.786526 64.580559 
L 238.437136 120.291149 
L 239.087746 87.253473 
L 239.738357 116.404364 
L 240.388967 134.542695 
L 241.039577 126.769125 
L 241.690188 124.177934 
L 242.340798 133.894898 
L 242.991408 104.09621 
L 243.642019 103.448412 
L 244.292629 130.65591 
L 244.943239 76.240915 
L 245.59385 82.071093 
L 246.24446 129.360315 
L 246.89507 126.769125 
L 247.54568 107.335198 
L 248.196291 100.857222 
L 248.846901 104.09621 
L 249.497511 123.530137 
L 250.148122 92.435854 
L 250.798732 127.416922 
L 251.449342 102.152817 
L 252.099953 114.460971 
L 252.750563 109.27859 
L 253.401173 98.913829 
L 254.051784 104.744007 
L 254.702394 131.951505 
L 255.353004 102.152817 
L 256.003615 112.517578 
L 256.654225 113.165376 
L 257.304835 104.744007 
L 257.955445 107.335198 
L 258.606056 111.869781 
L 259.256666 114.460971 
L 259.907276 115.108769 
L 260.557887 120.938947 
L 261.208497 128.06472 
L 261.859107 80.775498 
L 262.509718 120.938947 
L 263.160328 120.938947 
L 263.810938 96.322639 
L 264.461549 83.366688 
L 265.112159 124.177934 
L 265.762769 108.630793 
L 266.413379 127.416922 
L 267.06399 73.649724 
L 267.7146 128.06472 
L 268.36521 88.549068 
L 269.015821 109.27859 
L 269.666431 121.586744 
L 270.317041 112.517578 
L 270.967652 100.209425 
L 271.618262 118.995554 
L 272.919483 96.970437 
L 273.570093 93.083651 
L 274.220703 120.291149 
L 274.871314 111.869781 
L 275.521924 115.108769 
L 276.172534 103.448412 
L 276.823144 71.058534 
L 277.473755 112.517578 
L 278.124365 111.869781 
L 278.774975 108.630793 
L 279.425586 122.234542 
L 280.076196 112.517578 
L 280.726806 106.039603 
L 281.377417 114.460971 
L 282.028027 130.008112 
L 282.678637 100.857222 
L 283.329248 89.196866 
L 283.979858 112.517578 
L 284.630468 109.926388 
L 285.281079 99.561627 
L 285.931689 102.152817 
L 286.582299 89.844664 
L 287.232909 106.6874 
L 287.88352 133.894898 
L 288.53413 113.813173 
L 289.18474 112.517578 
L 289.835351 128.06472 
L 290.485961 99.561627 
L 291.136571 78.184307 
L 291.787182 124.177934 
L 292.437792 101.50502 
L 293.088402 87.901271 
L 293.739013 108.630793 
L 294.389623 104.09621 
L 295.040233 106.039603 
L 295.690844 131.951505 
L 296.341454 88.549068 
L 296.992064 126.121327 
L 297.642674 89.196866 
L 298.293285 115.756566 
L 298.943895 110.574186 
L 299.594505 85.957878 
L 300.245116 109.27859 
L 300.895726 108.630793 
L 301.546336 124.825732 
L 302.196947 115.108769 
L 302.847557 98.266032 
L 303.498167 127.416922 
L 304.148778 100.857222 
L 304.799388 113.813173 
L 305.449998 120.291149 
L 306.100608 134.542695 
L 306.751219 67.171749 
L 307.401829 123.530137 
L 308.052439 98.913829 
L 308.70305 123.530137 
L 309.35366 90.492461 
L 310.00427 141.020671 
L 310.654881 96.970437 
L 311.305491 113.813173 
L 311.956101 117.052161 
L 312.606712 85.957878 
L 313.257322 130.008112 
L 313.907932 117.052161 
L 315.209153 75.593117 
L 315.859763 106.6874 
L 316.510373 122.882339 
L 317.160984 108.630793 
L 317.811594 104.09621 
L 318.462204 111.869781 
L 319.112815 98.913829 
L 319.763425 93.731449 
L 320.414035 118.995554 
L 321.064646 126.121327 
L 321.715256 97.618234 
L 322.365866 104.09621 
L 323.016477 104.09621 
L 323.667087 127.416922 
L 324.317697 78.184307 
L 324.968308 124.825732 
L 325.618918 107.982995 
L 326.269528 131.951505 
L 326.920138 113.165376 
L 327.570749 119.643351 
L 328.221359 102.800615 
L 328.871969 104.744007 
L 329.52258 111.221983 
L 330.17319 107.982995 
L 330.8238 110.574186 
L 331.474411 99.561627 
L 332.125021 113.813173 
L 332.775631 96.970437 
L 333.426242 115.756566 
L 334.076852 74.94532 
L 334.727462 113.813173 
L 335.378073 77.53651 
L 336.028683 109.27859 
L 336.679293 124.177934 
L 337.329903 96.322639 
L 337.980514 112.517578 
L 338.631124 109.926388 
L 339.281734 92.435854 
L 339.932345 124.825732 
L 340.582955 117.052161 
L 341.233565 104.744007 
L 341.884176 115.108769 
L 342.534786 115.756566 
L 343.185396 114.460971 
L 343.836007 93.083651 
L 344.486617 129.360315 
L 345.137227 124.177934 
L 345.787837 88.549068 
L 346.438448 122.234542 
L 347.089058 79.479903 
L 347.739668 127.416922 
L 348.390279 100.857222 
L 349.040889 121.586744 
L 349.691499 121.586744 
L 351.64333 109.926388 
L 352.293941 117.699959 
L 352.944551 135.838291 
L 353.595161 84.662283 
L 354.245772 128.712517 
L 354.896382 106.6874 
L 355.546992 117.052161 
L 356.197602 119.643351 
L 356.848213 129.360315 
L 357.498823 105.391805 
L 358.149433 124.825732 
L 358.800044 70.410737 
L 359.450654 122.882339 
L 360.101264 76.240915 
L 360.751875 139.725076 
L 361.402485 120.291149 
L 362.053095 81.423295 
L 362.703706 114.460971 
L 363.354316 109.27859 
L 364.004926 113.165376 
L 364.655537 111.221983 
L 365.306147 134.542695 
L 365.956757 124.825732 
L 366.607367 124.177934 
L 367.257978 113.813173 
L 367.908588 133.894898 
L 368.559198 110.574186 
L 369.209809 128.06472 
L 369.860419 96.970437 
L 370.511029 125.47353 
L 371.16164 104.744007 
L 371.81225 93.083651 
L 372.46286 72.354129 
L 373.113471 108.630793 
L 373.764081 96.322639 
L 374.414691 112.517578 
L 375.065302 103.448412 
L 376.366522 129.360315 
L 377.017132 116.404364 
L 377.667743 107.982995 
L 378.318353 94.379246 
L 378.968963 117.052161 
L 379.619574 82.71889 
L 380.270184 97.618234 
L 380.920794 84.662283 
L 381.571405 76.888712 
L 382.222015 106.039603 
L 382.872625 98.913829 
L 383.523236 90.492461 
L 384.173846 71.058534 
L 384.824456 109.926388 
L 385.475066 99.561627 
L 386.125677 107.982995 
L 386.776287 135.190493 
L 387.426897 137.133886 
L 388.077508 133.2471 
L 389.378728 105.391805 
L 390.029339 124.825732 
L 390.679949 106.039603 
L 391.330559 100.209425 
L 391.98117 113.165376 
L 392.63178 113.165376 
L 393.28239 90.492461 
L 393.933001 128.712517 
L 394.583611 98.266032 
L 395.234221 100.209425 
L 395.884831 96.970437 
L 396.535442 111.221983 
L 397.186052 90.492461 
L 397.836662 93.731449 
L 398.487273 118.347756 
L 398.487273 118.347756 
" style="fill:none;stroke:#ff0000;stroke-linecap:square;stroke-width:1.5;"/>
   </g>
   <g id="patch_3">
    <path d="M 57.6 307.584 
L 57.6 41.472 
" style="fill:none;stroke:#000000;stroke-linecap:square;stroke-linejoin:miter;stroke-width:0.8;"/>
   </g>
   <g id="patch_4">
    <path d="M 414.72 307.584 
L 414.72 41.472 
" style="fill:none;stroke:#000000;stroke-linecap:square;stroke-linejoin:miter;stroke-width:0.8;"/>
   </g>
   <g id="patch_5">
    <path d="M 57.6 307.584 
L 414.72 307.584 
" style="fill:none;stroke:#000000;stroke-linecap:square;stroke-linejoin:miter;stroke-width:0.8;"/>
   </g>
   <g id="patch_6">
    <path d="M 57.6 41.472 
L 414.72 41.472 
" style="fill:none;stroke:#000000;stroke-linecap:square;stroke-linejoin:miter;stroke-width:0.8;"/>
   </g>
   <g id="text_17">
    <!-- Population's average and best fitness -->
    <defs>
     <path d="M 19.671875 64.796875 
L 19.671875 37.40625 
L 32.078125 37.40625 
Q 38.96875 37.40625 42.71875 40.96875 
Q 46.484375 44.53125 46.484375 51.125 
Q 46.484375 57.671875 42.71875 61.234375 
Q 38.96875 64.796875 32.078125 64.796875 
z
M 9.8125 72.90625 
L 32.078125 72.90625 
Q 44.34375 72.90625 50.609375 67.359375 
Q 56.890625 61.8125 56.890625 51.125 
Q 56.890625 40.328125 50.609375 34.8125 
Q 44.34375 29.296875 32.078125 29.296875 
L 19.671875 29.296875 
L 19.671875 0 
L 9.8125 0 
z
" id="DejaVuSans-80"/>
     <path d="M 18.109375 8.203125 
L 18.109375 -20.796875 
L 9.078125 -20.796875 
L 9.078125 54.6875 
L 18.109375 54.6875 
L 18.109375 46.390625 
Q 20.953125 51.265625 25.265625 53.625 
Q 29.59375 56 35.59375 56 
Q 45.5625 56 51.78125 48.09375 
Q 58.015625 40.1875 58.015625 27.296875 
Q 58.015625 14.40625 51.78125 6.484375 
Q 45.5625 -1.421875 35.59375 -1.421875 
Q 29.59375 -1.421875 25.265625 0.953125 
Q 20.953125 3.328125 18.109375 8.203125 
z
M 48.6875 27.296875 
Q 48.6875 37.203125 44.609375 42.84375 
Q 40.53125 48.484375 33.40625 48.484375 
Q 26.265625 48.484375 22.1875 42.84375 
Q 18.109375 37.203125 18.109375 27.296875 
Q 18.109375 17.390625 22.1875 11.75 
Q 26.265625 6.109375 33.40625 6.109375 
Q 40.53125 6.109375 44.609375 11.75 
Q 48.6875 17.390625 48.6875 27.296875 
z
" id="DejaVuSans-112"/>
     <path d="M 8.5 21.578125 
L 8.5 54.6875 
L 17.484375 54.6875 
L 17.484375 21.921875 
Q 17.484375 14.15625 20.5 10.265625 
Q 23.53125 6.390625 29.59375 6.390625 
Q 36.859375 6.390625 41.078125 11.03125 
Q 45.3125 15.671875 45.3125 23.6875 
L 45.3125 54.6875 
L 54.296875 54.6875 
L 54.296875 0 
L 45.3125 0 
L 45.3125 8.40625 
Q 42.046875 3.421875 37.71875 1 
Q 33.40625 -1.421875 27.6875 -1.421875 
Q 18.265625 -1.421875 13.375 4.4375 
Q 8.5 10.296875 8.5 21.578125 
z
M 31.109375 56 
z
" id="DejaVuSans-117"/>
     <path d="M 9.421875 75.984375 
L 18.40625 75.984375 
L 18.40625 0 
L 9.421875 0 
z
" id="DejaVuSans-108"/>
     <path d="M 17.921875 72.90625 
L 17.921875 45.796875 
L 9.625 45.796875 
L 9.625 72.90625 
z
" id="DejaVuSans-39"/>
     <path id="DejaVuSans-32"/>
     <path d="M 2.984375 54.6875 
L 12.5 54.6875 
L 29.59375 8.796875 
L 46.6875 54.6875 
L 56.203125 54.6875 
L 35.6875 0 
L 23.484375 0 
z
" id="DejaVuSans-118"/>
     <path d="M 45.40625 27.984375 
Q 45.40625 37.75 41.375 43.109375 
Q 37.359375 48.484375 30.078125 48.484375 
Q 22.859375 48.484375 18.828125 43.109375 
Q 14.796875 37.75 14.796875 27.984375 
Q 14.796875 18.265625 18.828125 12.890625 
Q 22.859375 7.515625 30.078125 7.515625 
Q 37.359375 7.515625 41.375 12.890625 
Q 45.40625 18.265625 45.40625 27.984375 
z
M 54.390625 6.78125 
Q 54.390625 -7.171875 48.1875 -13.984375 
Q 42 -20.796875 29.203125 -20.796875 
Q 24.46875 -20.796875 20.265625 -20.09375 
Q 16.0625 -19.390625 12.109375 -17.921875 
L 12.109375 -9.1875 
Q 16.0625 -11.328125 19.921875 -12.34375 
Q 23.78125 -13.375 27.78125 -13.375 
Q 36.625 -13.375 41.015625 -8.765625 
Q 45.40625 -4.15625 45.40625 5.171875 
L 45.40625 9.625 
Q 42.625 4.78125 38.28125 2.390625 
Q 33.9375 0 27.875 0 
Q 17.828125 0 11.671875 7.65625 
Q 5.515625 15.328125 5.515625 27.984375 
Q 5.515625 40.671875 11.671875 48.328125 
Q 17.828125 56 27.875 56 
Q 33.9375 56 38.28125 53.609375 
Q 42.625 51.21875 45.40625 46.390625 
L 45.40625 54.6875 
L 54.390625 54.6875 
z
" id="DejaVuSans-103"/>
     <path d="M 45.40625 46.390625 
L 45.40625 75.984375 
L 54.390625 75.984375 
L 54.390625 0 
L 45.40625 0 
L 45.40625 8.203125 
Q 42.578125 3.328125 38.25 0.953125 
Q 33.9375 -1.421875 27.875 -1.421875 
Q 17.96875 -1.421875 11.734375 6.484375 
Q 5.515625 14.40625 5.515625 27.296875 
Q 5.515625 40.1875 11.734375 48.09375 
Q 17.96875 56 27.875 56 
Q 33.9375 56 38.25 53.625 
Q 42.578125 51.265625 45.40625 46.390625 
z
M 14.796875 27.296875 
Q 14.796875 17.390625 18.875 11.75 
Q 22.953125 6.109375 30.078125 6.109375 
Q 37.203125 6.109375 41.296875 11.75 
Q 45.40625 17.390625 45.40625 27.296875 
Q 45.40625 37.203125 41.296875 42.84375 
Q 37.203125 48.484375 30.078125 48.484375 
Q 22.953125 48.484375 18.875 42.84375 
Q 14.796875 37.203125 14.796875 27.296875 
z
" id="DejaVuSans-100"/>
     <path d="M 48.6875 27.296875 
Q 48.6875 37.203125 44.609375 42.84375 
Q 40.53125 48.484375 33.40625 48.484375 
Q 26.265625 48.484375 22.1875 42.84375 
Q 18.109375 37.203125 18.109375 27.296875 
Q 18.109375 17.390625 22.1875 11.75 
Q 26.265625 6.109375 33.40625 6.109375 
Q 40.53125 6.109375 44.609375 11.75 
Q 48.6875 17.390625 48.6875 27.296875 
z
M 18.109375 46.390625 
Q 20.953125 51.265625 25.265625 53.625 
Q 29.59375 56 35.59375 56 
Q 45.5625 56 51.78125 48.09375 
Q 58.015625 40.1875 58.015625 27.296875 
Q 58.015625 14.40625 51.78125 6.484375 
Q 45.5625 -1.421875 35.59375 -1.421875 
Q 29.59375 -1.421875 25.265625 0.953125 
Q 20.953125 3.328125 18.109375 8.203125 
L 18.109375 0 
L 9.078125 0 
L 9.078125 75.984375 
L 18.109375 75.984375 
z
" id="DejaVuSans-98"/>
     <path d="M 37.109375 75.984375 
L 37.109375 68.5 
L 28.515625 68.5 
Q 23.6875 68.5 21.796875 66.546875 
Q 19.921875 64.59375 19.921875 59.515625 
L 19.921875 54.6875 
L 34.71875 54.6875 
L 34.71875 47.703125 
L 19.921875 47.703125 
L 19.921875 0 
L 10.890625 0 
L 10.890625 47.703125 
L 2.296875 47.703125 
L 2.296875 54.6875 
L 10.890625 54.6875 
L 10.890625 58.5 
Q 10.890625 67.625 15.140625 71.796875 
Q 19.390625 75.984375 28.609375 75.984375 
z
" id="DejaVuSans-102"/>
    </defs>
    <g transform="translate(123.315 35.472)scale(0.12 -0.12)">
     <use xlink:href="#DejaVuSans-80"/>
     <use x="60.255859" xlink:href="#DejaVuSans-111"/>
     <use x="121.4375" xlink:href="#DejaVuSans-112"/>
     <use x="184.914062" xlink:href="#DejaVuSans-117"/>
     <use x="248.292969" xlink:href="#DejaVuSans-108"/>
     <use x="276.076172" xlink:href="#DejaVuSans-97"/>
     <use x="337.355469" xlink:href="#DejaVuSans-116"/>
     <use x="376.564453" xlink:href="#DejaVuSans-105"/>
     <use x="404.347656" xlink:href="#DejaVuSans-111"/>
     <use x="465.529297" xlink:href="#DejaVuSans-110"/>
     <use x="528.908203" xlink:href="#DejaVuSans-39"/>
     <use x="556.398438" xlink:href="#DejaVuSans-115"/>
     <use x="608.498047" xlink:href="#DejaVuSans-32"/>
     <use x="640.285156" xlink:href="#DejaVuSans-97"/>
     <use x="701.564453" xlink:href="#DejaVuSans-118"/>
     <use x="760.744141" xlink:href="#DejaVuSans-101"/>
     <use x="822.267578" xlink:href="#DejaVuSans-114"/>
     <use x="863.380859" xlink:href="#DejaVuSans-97"/>
     <use x="924.660156" xlink:href="#DejaVuSans-103"/>
     <use x="988.136719" xlink:href="#DejaVuSans-101"/>
     <use x="1049.660156" xlink:href="#DejaVuSans-32"/>
     <use x="1081.447266" xlink:href="#DejaVuSans-97"/>
     <use x="1142.726562" xlink:href="#DejaVuSans-110"/>
     <use x="1206.105469" xlink:href="#DejaVuSans-100"/>
     <use x="1269.582031" xlink:href="#DejaVuSans-32"/>
     <use x="1301.369141" xlink:href="#DejaVuSans-98"/>
     <use x="1364.845703" xlink:href="#DejaVuSans-101"/>
     <use x="1426.369141" xlink:href="#DejaVuSans-115"/>
     <use x="1478.46875" xlink:href="#DejaVuSans-116"/>
     <use x="1517.677734" xlink:href="#DejaVuSans-32"/>
     <use x="1549.464844" xlink:href="#DejaVuSans-102"/>
     <use x="1584.669922" xlink:href="#DejaVuSans-105"/>
     <use x="1612.453125" xlink:href="#DejaVuSans-116"/>
     <use x="1651.662109" xlink:href="#DejaVuSans-110"/>
     <use x="1715.041016" xlink:href="#DejaVuSans-101"/>
     <use x="1776.564453" xlink:href="#DejaVuSans-115"/>
     <use x="1828.664062" xlink:href="#DejaVuSans-115"/>
    </g>
   </g>
   <g id="legend_1">
    <g id="patch_7">
     <path d="M 334.779375 302.584 
L 407.72 302.584 
Q 409.72 302.584 409.72 300.584 
L 409.72 257.549625 
Q 409.72 255.549625 407.72 255.549625 
L 334.779375 255.549625 
Q 332.779375 255.549625 332.779375 257.549625 
L 332.779375 300.584 
Q 332.779375 302.584 334.779375 302.584 
z
" style="fill:#ffffff;opacity:0.8;stroke:#cccccc;stroke-linejoin:miter;"/>
    </g>
    <g id="line2d_32">
     <path d="M 336.779375 263.648062 
L 356.779375 263.648062 
" style="fill:none;stroke:#0000ff;stroke-linecap:square;stroke-width:1.5;"/>
    </g>
    <g id="line2d_33"/>
    <g id="text_18">
     <!-- average -->
     <g transform="translate(364.779375 267.148062)scale(0.1 -0.1)">
      <use xlink:href="#DejaVuSans-97"/>
      <use x="61.279297" xlink:href="#DejaVuSans-118"/>
      <use x="120.458984" xlink:href="#DejaVuSans-101"/>
      <use x="181.982422" xlink:href="#DejaVuSans-114"/>
      <use x="223.095703" xlink:href="#DejaVuSans-97"/>
      <use x="284.375" xlink:href="#DejaVuSans-103"/>
      <use x="347.851562" xlink:href="#DejaVuSans-101"/>
     </g>
    </g>
    <g id="line2d_34">
     <path d="M 336.779375 278.326188 
L 356.779375 278.326188 
" style="fill:none;stroke:#008000;stroke-dasharray:9.6,2.4,1.5,2.4;stroke-dashoffset:0;stroke-width:1.5;"/>
    </g>
    <g id="line2d_35"/>
    <g id="text_19">
     <!-- +1 sd -->
     <defs>
      <path d="M 46 62.703125 
L 46 35.5 
L 73.1875 35.5 
L 73.1875 27.203125 
L 46 27.203125 
L 46 0 
L 37.796875 0 
L 37.796875 27.203125 
L 10.59375 27.203125 
L 10.59375 35.5 
L 37.796875 35.5 
L 37.796875 62.703125 
z
" id="DejaVuSans-43"/>
     </defs>
     <g transform="translate(364.779375 281.826188)scale(0.1 -0.1)">
      <use xlink:href="#DejaVuSans-43"/>
      <use x="83.789062" xlink:href="#DejaVuSans-49"/>
      <use x="147.412109" xlink:href="#DejaVuSans-32"/>
      <use x="179.199219" xlink:href="#DejaVuSans-115"/>
      <use x="231.298828" xlink:href="#DejaVuSans-100"/>
     </g>
    </g>
    <g id="line2d_36">
     <path d="M 336.779375 293.004312 
L 356.779375 293.004312 
" style="fill:none;stroke:#ff0000;stroke-linecap:square;stroke-width:1.5;"/>
    </g>
    <g id="line2d_37"/>
    <g id="text_20">
     <!-- best -->
     <g transform="translate(364.779375 296.504312)scale(0.1 -0.1)">
      <use xlink:href="#DejaVuSans-98"/>
      <use x="63.476562" xlink:href="#DejaVuSans-101"/>
      <use x="125" xlink:href="#DejaVuSans-115"/>
      <use x="177.099609" xlink:href="#DejaVuSans-116"/>
     </g>
    </g>
   </g>
  </g>
 </g>
 <defs>
  <clipPath id="p43f7353d22">
   <rect height="266.112" width="357.12" x="57.6" y="41.472"/>
  </clipPath>
 </defs>
</svg>
