<?xml version="1.0" encoding="utf-8" standalone="no"?>
<!DOCTYPE svg PUBLIC "-//W3C//DTD SVG 1.1//EN"
  "http://www.w3.org/Graphics/SVG/1.1/DTD/svg11.dtd">
<!-- Created with matplotlib (https://matplotlib.org/) -->
<svg height="345.6pt" version="1.1" viewBox="0 0 460.8 345.6" width="460.8pt" xmlns="http://www.w3.org/2000/svg" xmlns:xlink="http://www.w3.org/1999/xlink">
 <defs>
  <style type="text/css">
*{stroke-linecap:butt;stroke-linejoin:round;}
  </style>
 </defs>
 <g id="figure_1">
  <g id="patch_1">
   <path d="M 0 345.6 
L 460.8 345.6 
L 460.8 0 
L 0 0 
z
" style="fill:#ffffff;"/>
  </g>
  <g id="axes_1">
   <g id="patch_2">
    <path d="M 57.6 307.584 
L 414.72 307.584 
L 414.72 41.472 
L 57.6 41.472 
z
" style="fill:#ffffff;"/>
   </g>
   <g id="matplotlib.axis_1">
    <g id="xtick_1">
     <g id="line2d_1">
      <path clip-path="url(#pff92a8a418)" d="M 73.832727 307.584 
L 73.832727 41.472 
" style="fill:none;stroke:#b0b0b0;stroke-linecap:square;stroke-width:0.8;"/>
     </g>
     <g id="line2d_2">
      <defs>
       <path d="M 0 0 
L 0 3.5 
" id="m7fe182aa69" style="stroke:#000000;stroke-width:0.8;"/>
      </defs>
      <g>
       <use style="stroke:#000000;stroke-width:0.8;" x="73.832727" xlink:href="#m7fe182aa69" y="307.584"/>
      </g>
     </g>
     <g id="text_1">
      <!-- 0 -->
      <defs>
       <path d="M 31.78125 66.40625 
Q 24.171875 66.40625 20.328125 58.90625 
Q 16.5 51.421875 16.5 36.375 
Q 16.5 21.390625 20.328125 13.890625 
Q 24.171875 6.390625 31.78125 6.390625 
Q 39.453125 6.390625 43.28125 13.890625 
Q 47.125 21.390625 47.125 36.375 
Q 47.125 51.421875 43.28125 58.90625 
Q 39.453125 66.40625 31.78125 66.40625 
z
M 31.78125 74.21875 
Q 44.046875 74.21875 50.515625 64.515625 
Q 56.984375 54.828125 56.984375 36.375 
Q 56.984375 17.96875 50.515625 8.265625 
Q 44.046875 -1.421875 31.78125 -1.421875 
Q 19.53125 -1.421875 13.0625 8.265625 
Q 6.59375 17.96875 6.59375 36.375 
Q 6.59375 54.828125 13.0625 64.515625 
Q 19.53125 74.21875 31.78125 74.21875 
z
" id="DejaVuSans-48"/>
      </defs>
      <g transform="translate(70.651477 322.182437)scale(0.1 -0.1)">
       <use xlink:href="#DejaVuSans-48"/>
      </g>
     </g>
    </g>
    <g id="xtick_2">
     <g id="line2d_3">
      <path clip-path="url(#pff92a8a418)" d="M 138.893758 307.584 
L 138.893758 41.472 
" style="fill:none;stroke:#b0b0b0;stroke-linecap:square;stroke-width:0.8;"/>
     </g>
     <g id="line2d_4">
      <g>
       <use style="stroke:#000000;stroke-width:0.8;" x="138.893758" xlink:href="#m7fe182aa69" y="307.584"/>
      </g>
     </g>
     <g id="text_2">
      <!-- 100 -->
      <defs>
       <path d="M 12.40625 8.296875 
L 28.515625 8.296875 
L 28.515625 63.921875 
L 10.984375 60.40625 
L 10.984375 69.390625 
L 28.421875 72.90625 
L 38.28125 72.90625 
L 38.28125 8.296875 
L 54.390625 8.296875 
L 54.390625 0 
L 12.40625 0 
z
" id="DejaVuSans-49"/>
      </defs>
      <g transform="translate(129.350008 322.182437)scale(0.1 -0.1)">
       <use xlink:href="#DejaVuSans-49"/>
       <use x="63.623047" xlink:href="#DejaVuSans-48"/>
       <use x="127.246094" xlink:href="#DejaVuSans-48"/>
      </g>
     </g>
    </g>
    <g id="xtick_3">
     <g id="line2d_5">
      <path clip-path="url(#pff92a8a418)" d="M 203.95479 307.584 
L 203.95479 41.472 
" style="fill:none;stroke:#b0b0b0;stroke-linecap:square;stroke-width:0.8;"/>
     </g>
     <g id="line2d_6">
      <g>
       <use style="stroke:#000000;stroke-width:0.8;" x="203.95479" xlink:href="#m7fe182aa69" y="307.584"/>
      </g>
     </g>
     <g id="text_3">
      <!-- 200 -->
      <defs>
       <path d="M 19.1875 8.296875 
L 53.609375 8.296875 
L 53.609375 0 
L 7.328125 0 
L 7.328125 8.296875 
Q 12.9375 14.109375 22.625 23.890625 
Q 32.328125 33.6875 34.8125 36.53125 
Q 39.546875 41.84375 41.421875 45.53125 
Q 43.3125 49.21875 43.3125 52.78125 
Q 43.3125 58.59375 39.234375 62.25 
Q 35.15625 65.921875 28.609375 65.921875 
Q 23.96875 65.921875 18.8125 64.3125 
Q 13.671875 62.703125 7.8125 59.421875 
L 7.8125 69.390625 
Q 13.765625 71.78125 18.9375 73 
Q 24.125 74.21875 28.421875 74.21875 
Q 39.75 74.21875 46.484375 68.546875 
Q 53.21875 62.890625 53.21875 53.421875 
Q 53.21875 48.921875 51.53125 44.890625 
Q 49.859375 40.875 45.40625 35.40625 
Q 44.1875 33.984375 37.640625 27.21875 
Q 31.109375 20.453125 19.1875 8.296875 
z
" id="DejaVuSans-50"/>
      </defs>
      <g transform="translate(194.41104 322.182437)scale(0.1 -0.1)">
       <use xlink:href="#DejaVuSans-50"/>
       <use x="63.623047" xlink:href="#DejaVuSans-48"/>
       <use x="127.246094" xlink:href="#DejaVuSans-48"/>
      </g>
     </g>
    </g>
    <g id="xtick_4">
     <g id="line2d_7">
      <path clip-path="url(#pff92a8a418)" d="M 269.015821 307.584 
L 269.015821 41.472 
" style="fill:none;stroke:#b0b0b0;stroke-linecap:square;stroke-width:0.8;"/>
     </g>
     <g id="line2d_8">
      <g>
       <use style="stroke:#000000;stroke-width:0.8;" x="269.015821" xlink:href="#m7fe182aa69" y="307.584"/>
      </g>
     </g>
     <g id="text_4">
      <!-- 300 -->
      <defs>
       <path d="M 40.578125 39.3125 
Q 47.65625 37.796875 51.625 33 
Q 55.609375 28.21875 55.609375 21.1875 
Q 55.609375 10.40625 48.1875 4.484375 
Q 40.765625 -1.421875 27.09375 -1.421875 
Q 22.515625 -1.421875 17.65625 -0.515625 
Q 12.796875 0.390625 7.625 2.203125 
L 7.625 11.71875 
Q 11.71875 9.328125 16.59375 8.109375 
Q 21.484375 6.890625 26.8125 6.890625 
Q 36.078125 6.890625 40.9375 10.546875 
Q 45.796875 14.203125 45.796875 21.1875 
Q 45.796875 27.640625 41.28125 31.265625 
Q 36.765625 34.90625 28.71875 34.90625 
L 20.21875 34.90625 
L 20.21875 43.015625 
L 29.109375 43.015625 
Q 36.375 43.015625 40.234375 45.921875 
Q 44.09375 48.828125 44.09375 54.296875 
Q 44.09375 59.90625 40.109375 62.90625 
Q 36.140625 65.921875 28.71875 65.921875 
Q 24.65625 65.921875 20.015625 65.03125 
Q 15.375 64.15625 9.8125 62.3125 
L 9.8125 71.09375 
Q 15.4375 72.65625 20.34375 73.4375 
Q 25.25 74.21875 29.59375 74.21875 
Q 40.828125 74.21875 47.359375 69.109375 
Q 53.90625 64.015625 53.90625 55.328125 
Q 53.90625 49.265625 50.4375 45.09375 
Q 46.96875 40.921875 40.578125 39.3125 
z
" id="DejaVuSans-51"/>
      </defs>
      <g transform="translate(259.472071 322.182437)scale(0.1 -0.1)">
       <use xlink:href="#DejaVuSans-51"/>
       <use x="63.623047" xlink:href="#DejaVuSans-48"/>
       <use x="127.246094" xlink:href="#DejaVuSans-48"/>
      </g>
     </g>
    </g>
    <g id="xtick_5">
     <g id="line2d_9">
      <path clip-path="url(#pff92a8a418)" d="M 334.076852 307.584 
L 334.076852 41.472 
" style="fill:none;stroke:#b0b0b0;stroke-linecap:square;stroke-width:0.8;"/>
     </g>
     <g id="line2d_10">
      <g>
       <use style="stroke:#000000;stroke-width:0.8;" x="334.076852" xlink:href="#m7fe182aa69" y="307.584"/>
      </g>
     </g>
     <g id="text_5">
      <!-- 400 -->
      <defs>
       <path d="M 37.796875 64.3125 
L 12.890625 25.390625 
L 37.796875 25.390625 
z
M 35.203125 72.90625 
L 47.609375 72.90625 
L 47.609375 25.390625 
L 58.015625 25.390625 
L 58.015625 17.1875 
L 47.609375 17.1875 
L 47.609375 0 
L 37.796875 0 
L 37.796875 17.1875 
L 4.890625 17.1875 
L 4.890625 26.703125 
z
" id="DejaVuSans-52"/>
      </defs>
      <g transform="translate(324.533102 322.182437)scale(0.1 -0.1)">
       <use xlink:href="#DejaVuSans-52"/>
       <use x="63.623047" xlink:href="#DejaVuSans-48"/>
       <use x="127.246094" xlink:href="#DejaVuSans-48"/>
      </g>
     </g>
    </g>
    <g id="xtick_6">
     <g id="line2d_11">
      <path clip-path="url(#pff92a8a418)" d="M 399.137883 307.584 
L 399.137883 41.472 
" style="fill:none;stroke:#b0b0b0;stroke-linecap:square;stroke-width:0.8;"/>
     </g>
     <g id="line2d_12">
      <g>
       <use style="stroke:#000000;stroke-width:0.8;" x="399.137883" xlink:href="#m7fe182aa69" y="307.584"/>
      </g>
     </g>
     <g id="text_6">
      <!-- 500 -->
      <defs>
       <path d="M 10.796875 72.90625 
L 49.515625 72.90625 
L 49.515625 64.59375 
L 19.828125 64.59375 
L 19.828125 46.734375 
Q 21.96875 47.46875 24.109375 47.828125 
Q 26.265625 48.1875 28.421875 48.1875 
Q 40.625 48.1875 47.75 41.5 
Q 54.890625 34.8125 54.890625 23.390625 
Q 54.890625 11.625 47.5625 5.09375 
Q 40.234375 -1.421875 26.90625 -1.421875 
Q 22.3125 -1.421875 17.546875 -0.640625 
Q 12.796875 0.140625 7.71875 1.703125 
L 7.71875 11.625 
Q 12.109375 9.234375 16.796875 8.0625 
Q 21.484375 6.890625 26.703125 6.890625 
Q 35.15625 6.890625 40.078125 11.328125 
Q 45.015625 15.765625 45.015625 23.390625 
Q 45.015625 31 40.078125 35.4375 
Q 35.15625 39.890625 26.703125 39.890625 
Q 22.75 39.890625 18.8125 39.015625 
Q 14.890625 38.140625 10.796875 36.28125 
z
" id="DejaVuSans-53"/>
      </defs>
      <g transform="translate(389.594133 322.182437)scale(0.1 -0.1)">
       <use xlink:href="#DejaVuSans-53"/>
       <use x="63.623047" xlink:href="#DejaVuSans-48"/>
       <use x="127.246094" xlink:href="#DejaVuSans-48"/>
      </g>
     </g>
    </g>
    <g id="text_7">
     <!-- Generations -->
     <defs>
      <path d="M 59.515625 10.40625 
L 59.515625 29.984375 
L 43.40625 29.984375 
L 43.40625 38.09375 
L 69.28125 38.09375 
L 69.28125 6.78125 
Q 63.578125 2.734375 56.6875 0.65625 
Q 49.8125 -1.421875 42 -1.421875 
Q 24.90625 -1.421875 15.25 8.5625 
Q 5.609375 18.5625 5.609375 36.375 
Q 5.609375 54.25 15.25 64.234375 
Q 24.90625 74.21875 42 74.21875 
Q 49.125 74.21875 55.546875 72.453125 
Q 61.96875 70.703125 67.390625 67.28125 
L 67.390625 56.78125 
Q 61.921875 61.421875 55.765625 63.765625 
Q 49.609375 66.109375 42.828125 66.109375 
Q 29.4375 66.109375 22.71875 58.640625 
Q 16.015625 51.171875 16.015625 36.375 
Q 16.015625 21.625 22.71875 14.15625 
Q 29.4375 6.6875 42.828125 6.6875 
Q 48.046875 6.6875 52.140625 7.59375 
Q 56.25 8.5 59.515625 10.40625 
z
" id="DejaVuSans-71"/>
      <path d="M 56.203125 29.59375 
L 56.203125 25.203125 
L 14.890625 25.203125 
Q 15.484375 15.921875 20.484375 11.0625 
Q 25.484375 6.203125 34.421875 6.203125 
Q 39.59375 6.203125 44.453125 7.46875 
Q 49.3125 8.734375 54.109375 11.28125 
L 54.109375 2.78125 
Q 49.265625 0.734375 44.1875 -0.34375 
Q 39.109375 -1.421875 33.890625 -1.421875 
Q 20.796875 -1.421875 13.15625 6.1875 
Q 5.515625 13.8125 5.515625 26.8125 
Q 5.515625 40.234375 12.765625 48.109375 
Q 20.015625 56 32.328125 56 
Q 43.359375 56 49.78125 48.890625 
Q 56.203125 41.796875 56.203125 29.59375 
z
M 47.21875 32.234375 
Q 47.125 39.59375 43.09375 43.984375 
Q 39.0625 48.390625 32.421875 48.390625 
Q 24.90625 48.390625 20.390625 44.140625 
Q 15.875 39.890625 15.1875 32.171875 
z
" id="DejaVuSans-101"/>
      <path d="M 54.890625 33.015625 
L 54.890625 0 
L 45.90625 0 
L 45.90625 32.71875 
Q 45.90625 40.484375 42.875 44.328125 
Q 39.84375 48.1875 33.796875 48.1875 
Q 26.515625 48.1875 22.3125 43.546875 
Q 18.109375 38.921875 18.109375 30.90625 
L 18.109375 0 
L 9.078125 0 
L 9.078125 54.6875 
L 18.109375 54.6875 
L 18.109375 46.1875 
Q 21.34375 51.125 25.703125 53.5625 
Q 30.078125 56 35.796875 56 
Q 45.21875 56 50.046875 50.171875 
Q 54.890625 44.34375 54.890625 33.015625 
z
" id="DejaVuSans-110"/>
      <path d="M 41.109375 46.296875 
Q 39.59375 47.171875 37.8125 47.578125 
Q 36.03125 48 33.890625 48 
Q 26.265625 48 22.1875 43.046875 
Q 18.109375 38.09375 18.109375 28.8125 
L 18.109375 0 
L 9.078125 0 
L 9.078125 54.6875 
L 18.109375 54.6875 
L 18.109375 46.1875 
Q 20.953125 51.171875 25.484375 53.578125 
Q 30.03125 56 36.53125 56 
Q 37.453125 56 38.578125 55.875 
Q 39.703125 55.765625 41.0625 55.515625 
z
" id="DejaVuSans-114"/>
      <path d="M 34.28125 27.484375 
Q 23.390625 27.484375 19.1875 25 
Q 14.984375 22.515625 14.984375 16.5 
Q 14.984375 11.71875 18.140625 8.90625 
Q 21.296875 6.109375 26.703125 6.109375 
Q 34.1875 6.109375 38.703125 11.40625 
Q 43.21875 16.703125 43.21875 25.484375 
L 43.21875 27.484375 
z
M 52.203125 31.203125 
L 52.203125 0 
L 43.21875 0 
L 43.21875 8.296875 
Q 40.140625 3.328125 35.546875 0.953125 
Q 30.953125 -1.421875 24.3125 -1.421875 
Q 15.921875 -1.421875 10.953125 3.296875 
Q 6 8.015625 6 15.921875 
Q 6 25.140625 12.171875 29.828125 
Q 18.359375 34.515625 30.609375 34.515625 
L 43.21875 34.515625 
L 43.21875 35.40625 
Q 43.21875 41.609375 39.140625 45 
Q 35.0625 48.390625 27.6875 48.390625 
Q 23 48.390625 18.546875 47.265625 
Q 14.109375 46.140625 10.015625 43.890625 
L 10.015625 52.203125 
Q 14.9375 54.109375 19.578125 55.046875 
Q 24.21875 56 28.609375 56 
Q 40.484375 56 46.34375 49.84375 
Q 52.203125 43.703125 52.203125 31.203125 
z
" id="DejaVuSans-97"/>
      <path d="M 18.3125 70.21875 
L 18.3125 54.6875 
L 36.8125 54.6875 
L 36.8125 47.703125 
L 18.3125 47.703125 
L 18.3125 18.015625 
Q 18.3125 11.328125 20.140625 9.421875 
Q 21.96875 7.515625 27.59375 7.515625 
L 36.8125 7.515625 
L 36.8125 0 
L 27.59375 0 
Q 17.1875 0 13.234375 3.875 
Q 9.28125 7.765625 9.28125 18.015625 
L 9.28125 47.703125 
L 2.6875 47.703125 
L 2.6875 54.6875 
L 9.28125 54.6875 
L 9.28125 70.21875 
z
" id="DejaVuSans-116"/>
      <path d="M 9.421875 54.6875 
L 18.40625 54.6875 
L 18.40625 0 
L 9.421875 0 
z
M 9.421875 75.984375 
L 18.40625 75.984375 
L 18.40625 64.59375 
L 9.421875 64.59375 
z
" id="DejaVuSans-105"/>
      <path d="M 30.609375 48.390625 
Q 23.390625 48.390625 19.1875 42.75 
Q 14.984375 37.109375 14.984375 27.296875 
Q 14.984375 17.484375 19.15625 11.84375 
Q 23.34375 6.203125 30.609375 6.203125 
Q 37.796875 6.203125 41.984375 11.859375 
Q 46.1875 17.53125 46.1875 27.296875 
Q 46.1875 37.015625 41.984375 42.703125 
Q 37.796875 48.390625 30.609375 48.390625 
z
M 30.609375 56 
Q 42.328125 56 49.015625 48.375 
Q 55.71875 40.765625 55.71875 27.296875 
Q 55.71875 13.875 49.015625 6.21875 
Q 42.328125 -1.421875 30.609375 -1.421875 
Q 18.84375 -1.421875 12.171875 6.21875 
Q 5.515625 13.875 5.515625 27.296875 
Q 5.515625 40.765625 12.171875 48.375 
Q 18.84375 56 30.609375 56 
z
" id="DejaVuSans-111"/>
      <path d="M 44.28125 53.078125 
L 44.28125 44.578125 
Q 40.484375 46.53125 36.375 47.5 
Q 32.28125 48.484375 27.875 48.484375 
Q 21.1875 48.484375 17.84375 46.4375 
Q 14.5 44.390625 14.5 40.28125 
Q 14.5 37.15625 16.890625 35.375 
Q 19.28125 33.59375 26.515625 31.984375 
L 29.59375 31.296875 
Q 39.15625 29.25 43.1875 25.515625 
Q 47.21875 21.78125 47.21875 15.09375 
Q 47.21875 7.46875 41.1875 3.015625 
Q 35.15625 -1.421875 24.609375 -1.421875 
Q 20.21875 -1.421875 15.453125 -0.5625 
Q 10.6875 0.296875 5.421875 2 
L 5.421875 11.28125 
Q 10.40625 8.6875 15.234375 7.390625 
Q 20.0625 6.109375 24.8125 6.109375 
Q 31.15625 6.109375 34.5625 8.28125 
Q 37.984375 10.453125 37.984375 14.40625 
Q 37.984375 18.0625 35.515625 20.015625 
Q 33.0625 21.96875 24.703125 23.78125 
L 21.578125 24.515625 
Q 13.234375 26.265625 9.515625 29.90625 
Q 5.8125 33.546875 5.8125 39.890625 
Q 5.8125 47.609375 11.28125 51.796875 
Q 16.75 56 26.8125 56 
Q 31.78125 56 36.171875 55.265625 
Q 40.578125 54.546875 44.28125 53.078125 
z
" id="DejaVuSans-115"/>
     </defs>
     <g transform="translate(205.662344 335.860562)scale(0.1 -0.1)">
      <use xlink:href="#DejaVuSans-71"/>
      <use x="77.490234" xlink:href="#DejaVuSans-101"/>
      <use x="139.013672" xlink:href="#DejaVuSans-110"/>
      <use x="202.392578" xlink:href="#DejaVuSans-101"/>
      <use x="263.916016" xlink:href="#DejaVuSans-114"/>
      <use x="305.029297" xlink:href="#DejaVuSans-97"/>
      <use x="366.308594" xlink:href="#DejaVuSans-116"/>
      <use x="405.517578" xlink:href="#DejaVuSans-105"/>
      <use x="433.300781" xlink:href="#DejaVuSans-111"/>
      <use x="494.482422" xlink:href="#DejaVuSans-110"/>
      <use x="557.861328" xlink:href="#DejaVuSans-115"/>
     </g>
    </g>
   </g>
   <g id="matplotlib.axis_2">
    <g id="ytick_1">
     <g id="line2d_13">
      <path clip-path="url(#pff92a8a418)" d="M 57.6 284.760661 
L 414.72 284.760661 
" style="fill:none;stroke:#b0b0b0;stroke-linecap:square;stroke-width:0.8;"/>
     </g>
     <g id="line2d_14">
      <defs>
       <path d="M 0 0 
L -3.5 0 
" id="m2dd22ce723" style="stroke:#000000;stroke-width:0.8;"/>
      </defs>
      <g>
       <use style="stroke:#000000;stroke-width:0.8;" x="57.6" xlink:href="#m2dd22ce723" y="284.760661"/>
      </g>
     </g>
     <g id="text_8">
      <!-- 80 -->
      <defs>
       <path d="M 31.78125 34.625 
Q 24.75 34.625 20.71875 30.859375 
Q 16.703125 27.09375 16.703125 20.515625 
Q 16.703125 13.921875 20.71875 10.15625 
Q 24.75 6.390625 31.78125 6.390625 
Q 38.8125 6.390625 42.859375 10.171875 
Q 46.921875 13.96875 46.921875 20.515625 
Q 46.921875 27.09375 42.890625 30.859375 
Q 38.875 34.625 31.78125 34.625 
z
M 21.921875 38.8125 
Q 15.578125 40.375 12.03125 44.71875 
Q 8.5 49.078125 8.5 55.328125 
Q 8.5 64.0625 14.71875 69.140625 
Q 20.953125 74.21875 31.78125 74.21875 
Q 42.671875 74.21875 48.875 69.140625 
Q 55.078125 64.0625 55.078125 55.328125 
Q 55.078125 49.078125 51.53125 44.71875 
Q 48 40.375 41.703125 38.8125 
Q 48.828125 37.15625 52.796875 32.3125 
Q 56.78125 27.484375 56.78125 20.515625 
Q 56.78125 9.90625 50.3125 4.234375 
Q 43.84375 -1.421875 31.78125 -1.421875 
Q 19.734375 -1.421875 13.25 4.234375 
Q 6.78125 9.90625 6.78125 20.515625 
Q 6.78125 27.484375 10.78125 32.3125 
Q 14.796875 37.15625 21.921875 38.8125 
z
M 18.3125 54.390625 
Q 18.3125 48.734375 21.84375 45.5625 
Q 25.390625 42.390625 31.78125 42.390625 
Q 38.140625 42.390625 41.71875 45.5625 
Q 45.3125 48.734375 45.3125 54.390625 
Q 45.3125 60.0625 41.71875 63.234375 
Q 38.140625 66.40625 31.78125 66.40625 
Q 25.390625 66.40625 21.84375 63.234375 
Q 18.3125 60.0625 18.3125 54.390625 
z
" id="DejaVuSans-56"/>
      </defs>
      <g transform="translate(37.875 288.559879)scale(0.1 -0.1)">
       <use xlink:href="#DejaVuSans-56"/>
       <use x="63.623047" xlink:href="#DejaVuSans-48"/>
      </g>
     </g>
    </g>
    <g id="ytick_2">
     <g id="line2d_15">
      <path clip-path="url(#pff92a8a418)" d="M 57.6 247.769835 
L 414.72 247.769835 
" style="fill:none;stroke:#b0b0b0;stroke-linecap:square;stroke-width:0.8;"/>
     </g>
     <g id="line2d_16">
      <g>
       <use style="stroke:#000000;stroke-width:0.8;" x="57.6" xlink:href="#m2dd22ce723" y="247.769835"/>
      </g>
     </g>
     <g id="text_9">
      <!-- 90 -->
      <defs>
       <path d="M 10.984375 1.515625 
L 10.984375 10.5 
Q 14.703125 8.734375 18.5 7.8125 
Q 22.3125 6.890625 25.984375 6.890625 
Q 35.75 6.890625 40.890625 13.453125 
Q 46.046875 20.015625 46.78125 33.40625 
Q 43.953125 29.203125 39.59375 26.953125 
Q 35.25 24.703125 29.984375 24.703125 
Q 19.046875 24.703125 12.671875 31.3125 
Q 6.296875 37.9375 6.296875 49.421875 
Q 6.296875 60.640625 12.9375 67.421875 
Q 19.578125 74.21875 30.609375 74.21875 
Q 43.265625 74.21875 49.921875 64.515625 
Q 56.59375 54.828125 56.59375 36.375 
Q 56.59375 19.140625 48.40625 8.859375 
Q 40.234375 -1.421875 26.421875 -1.421875 
Q 22.703125 -1.421875 18.890625 -0.6875 
Q 15.09375 0.046875 10.984375 1.515625 
z
M 30.609375 32.421875 
Q 37.25 32.421875 41.125 36.953125 
Q 45.015625 41.5 45.015625 49.421875 
Q 45.015625 57.28125 41.125 61.84375 
Q 37.25 66.40625 30.609375 66.40625 
Q 23.96875 66.40625 20.09375 61.84375 
Q 16.21875 57.28125 16.21875 49.421875 
Q 16.21875 41.5 20.09375 36.953125 
Q 23.96875 32.421875 30.609375 32.421875 
z
" id="DejaVuSans-57"/>
      </defs>
      <g transform="translate(37.875 251.569054)scale(0.1 -0.1)">
       <use xlink:href="#DejaVuSans-57"/>
       <use x="63.623047" xlink:href="#DejaVuSans-48"/>
      </g>
     </g>
    </g>
    <g id="ytick_3">
     <g id="line2d_17">
      <path clip-path="url(#pff92a8a418)" d="M 57.6 210.779009 
L 414.72 210.779009 
" style="fill:none;stroke:#b0b0b0;stroke-linecap:square;stroke-width:0.8;"/>
     </g>
     <g id="line2d_18">
      <g>
       <use style="stroke:#000000;stroke-width:0.8;" x="57.6" xlink:href="#m2dd22ce723" y="210.779009"/>
      </g>
     </g>
     <g id="text_10">
      <!-- 100 -->
      <g transform="translate(31.5125 214.578228)scale(0.1 -0.1)">
       <use xlink:href="#DejaVuSans-49"/>
       <use x="63.623047" xlink:href="#DejaVuSans-48"/>
       <use x="127.246094" xlink:href="#DejaVuSans-48"/>
      </g>
     </g>
    </g>
    <g id="ytick_4">
     <g id="line2d_19">
      <path clip-path="url(#pff92a8a418)" d="M 57.6 173.788183 
L 414.72 173.788183 
" style="fill:none;stroke:#b0b0b0;stroke-linecap:square;stroke-width:0.8;"/>
     </g>
     <g id="line2d_20">
      <g>
       <use style="stroke:#000000;stroke-width:0.8;" x="57.6" xlink:href="#m2dd22ce723" y="173.788183"/>
      </g>
     </g>
     <g id="text_11">
      <!-- 110 -->
      <g transform="translate(31.5125 177.587402)scale(0.1 -0.1)">
       <use xlink:href="#DejaVuSans-49"/>
       <use x="63.623047" xlink:href="#DejaVuSans-49"/>
       <use x="127.246094" xlink:href="#DejaVuSans-48"/>
      </g>
     </g>
    </g>
    <g id="ytick_5">
     <g id="line2d_21">
      <path clip-path="url(#pff92a8a418)" d="M 57.6 136.797358 
L 414.72 136.797358 
" style="fill:none;stroke:#b0b0b0;stroke-linecap:square;stroke-width:0.8;"/>
     </g>
     <g id="line2d_22">
      <g>
       <use style="stroke:#000000;stroke-width:0.8;" x="57.6" xlink:href="#m2dd22ce723" y="136.797358"/>
      </g>
     </g>
     <g id="text_12">
      <!-- 120 -->
      <g transform="translate(31.5125 140.596577)scale(0.1 -0.1)">
       <use xlink:href="#DejaVuSans-49"/>
       <use x="63.623047" xlink:href="#DejaVuSans-50"/>
       <use x="127.246094" xlink:href="#DejaVuSans-48"/>
      </g>
     </g>
    </g>
    <g id="ytick_6">
     <g id="line2d_23">
      <path clip-path="url(#pff92a8a418)" d="M 57.6 99.806532 
L 414.72 99.806532 
" style="fill:none;stroke:#b0b0b0;stroke-linecap:square;stroke-width:0.8;"/>
     </g>
     <g id="line2d_24">
      <g>
       <use style="stroke:#000000;stroke-width:0.8;" x="57.6" xlink:href="#m2dd22ce723" y="99.806532"/>
      </g>
     </g>
     <g id="text_13">
      <!-- 130 -->
      <g transform="translate(31.5125 103.605751)scale(0.1 -0.1)">
       <use xlink:href="#DejaVuSans-49"/>
       <use x="63.623047" xlink:href="#DejaVuSans-51"/>
       <use x="127.246094" xlink:href="#DejaVuSans-48"/>
      </g>
     </g>
    </g>
    <g id="ytick_7">
     <g id="line2d_25">
      <path clip-path="url(#pff92a8a418)" d="M 57.6 62.815706 
L 414.72 62.815706 
" style="fill:none;stroke:#b0b0b0;stroke-linecap:square;stroke-width:0.8;"/>
     </g>
     <g id="line2d_26">
      <g>
       <use style="stroke:#000000;stroke-width:0.8;" x="57.6" xlink:href="#m2dd22ce723" y="62.815706"/>
      </g>
     </g>
     <g id="text_14">
      <!-- 140 -->
      <g transform="translate(31.5125 66.614925)scale(0.1 -0.1)">
       <use xlink:href="#DejaVuSans-49"/>
       <use x="63.623047" xlink:href="#DejaVuSans-52"/>
       <use x="127.246094" xlink:href="#DejaVuSans-48"/>
      </g>
     </g>
    </g>
    <g id="text_15">
     <!-- Fitness -->
     <defs>
      <path d="M 9.8125 72.90625 
L 51.703125 72.90625 
L 51.703125 64.59375 
L 19.671875 64.59375 
L 19.671875 43.109375 
L 48.578125 43.109375 
L 48.578125 34.8125 
L 19.671875 34.8125 
L 19.671875 0 
L 9.8125 0 
z
" id="DejaVuSans-70"/>
     </defs>
     <g transform="translate(25.432812 192.202219)rotate(-90)scale(0.1 -0.1)">
      <use xlink:href="#DejaVuSans-70"/>
      <use x="57.410156" xlink:href="#DejaVuSans-105"/>
      <use x="85.193359" xlink:href="#DejaVuSans-116"/>
      <use x="124.402344" xlink:href="#DejaVuSans-110"/>
      <use x="187.78125" xlink:href="#DejaVuSans-101"/>
      <use x="249.304688" xlink:href="#DejaVuSans-115"/>
      <use x="301.404297" xlink:href="#DejaVuSans-115"/>
     </g>
    </g>
   </g>
   <g id="line2d_27">
    <path clip-path="url(#pff92a8a418)" d="M 73.832727 291.927633 
L 74.483338 295.488 
L 75.133948 291.945595 
L 75.784558 291.234055 
L 76.435169 292.525026 
L 77.085779 290.350692 
L 77.736389 290.641372 
L 78.386999 293.566894 
L 79.03761 285.821495 
L 79.68822 291.844495 
L 80.33883 284.207182 
L 80.989441 289.638826 
L 81.640051 291.049101 
L 82.290661 287.078324 
L 82.941272 290.439077 
L 83.591882 290.566293 
L 84.242492 285.844556 
L 84.893103 286.963588 
L 85.543713 290.101211 
L 86.194323 290.097645 
L 86.844934 288.306774 
L 87.495544 292.084659 
L 88.146154 293.827483 
L 88.796764 289.187507 
L 89.447375 292.186849 
L 90.097985 283.699062 
L 90.748595 288.951393 
L 91.399206 288.234418 
L 92.049816 290.327462 
L 92.700426 282.849782 
L 93.351037 290.200488 
L 94.001647 289.569468 
L 94.652257 287.774728 
L 95.302868 290.216807 
L 95.953478 290.494239 
L 96.604088 290.286165 
L 97.254698 290.895049 
L 97.905309 288.51468 
L 98.555919 288.855416 
L 99.206529 286.458751 
L 99.85714 293.019184 
L 100.50775 289.175395 
L 101.15836 286.875086 
L 101.808971 292.598092 
L 102.459581 287.920101 
L 103.110191 294.469599 
L 103.760802 286.65644 
L 104.411412 291.088039 
L 105.062022 286.147817 
L 105.712633 282.697889 
L 106.363243 282.772404 
L 107.013853 287.274376 
L 107.664463 286.147817 
L 108.315074 287.712547 
L 108.965684 287.551116 
L 109.616294 286.997637 
L 110.266905 284.207182 
L 110.917515 288.173779 
L 111.568125 286.448367 
L 112.218736 286.725798 
L 112.869346 288.922128 
L 113.519956 284.922495 
L 114.170567 286.841394 
L 114.821177 288.297908 
L 115.471787 288.321028 
L 116.122398 289.661945 
L 116.773008 287.211303 
L 117.423618 283.674055 
L 118.074228 286.078459 
L 118.724839 287.719927 
L 119.375449 284.806899 
L 120.026059 284.043963 
L 120.67667 288.043596 
L 121.32728 286.35589 
L 121.97789 286.35589 
L 123.279111 281.685798 
L 123.929721 286.841394 
L 124.580332 283.489101 
L 125.230942 281.223413 
L 125.881552 284.506349 
L 126.532163 285.777908 
L 127.182773 283.535339 
L 127.833383 282.171303 
L 128.483993 283.789651 
L 129.134604 284.645064 
L 129.785214 281.685798 
L 131.086435 287.141945 
L 131.737045 288.22855 
L 132.387655 283.581578 
L 133.038266 284.621945 
L 133.688876 284.945615 
L 134.339486 284.413872 
L 134.990097 285.916624 
L 135.640707 285.08433 
L 136.291317 286.517725 
L 136.941927 286.448367 
L 137.592538 282.101945 
L 138.243148 284.020844 
L 138.893758 281.477725 
L 139.544369 281.986349 
L 140.194979 280.206165 
L 140.845589 283.905248 
L 141.4962 284.78378 
L 142.14681 285.384881 
L 142.79742 285.269284 
L 143.448031 284.15956 
L 144.098641 286.286532 
L 144.749251 283.003596 
L 145.399862 283.489101 
L 146.050472 285.870385 
L 146.701082 282.194422 
L 147.351692 285.592954 
L 148.002303 287.858642 
L 148.652913 282.911119 
L 149.303523 284.436991 
L 149.954134 283.789651 
L 150.604744 287.326899 
L 151.255354 282.888 
L 151.905965 287.396257 
L 152.556575 284.552587 
L 153.207185 287.835523 
L 153.857796 286.009101 
L 154.508406 283.674055 
L 155.159016 289.014606 
L 155.809627 283.396624 
L 156.460237 283.18855 
L 157.110847 284.390752 
L 157.761457 279.905615 
L 159.062678 286.910752 
L 159.713288 280.969101 
L 160.363899 280.414239 
L 161.014509 283.18855 
L 161.665119 282.888 
L 162.31573 284.506349 
L 162.96634 287.904881 
L 163.61695 285.014972 
L 164.918171 280.99222 
L 165.568781 286.702679 
L 166.219392 279.535706 
L 166.870002 281.177174 
L 167.520612 286.887633 
L 168.171222 288.413505 
L 168.821833 284.46011 
L 169.472443 286.170936 
L 170.123053 282.402495 
L 170.773664 283.743413 
L 171.424274 279.974972 
L 172.074884 283.257908 
L 172.725495 284.575706 
L 173.376105 284.413872 
L 174.026715 284.598826 
L 174.677326 281.477725 
L 175.327936 287.003229 
L 175.978546 283.650936 
L 176.629156 287.581211 
L 177.279767 288.760294 
L 177.930377 283.720294 
L 178.580987 286.217174 
L 179.231598 286.587083 
L 179.882208 283.142312 
L 180.532818 281.339009 
L 181.834039 282.310018 
L 182.484649 284.737541 
L 183.13526 280.737908 
L 183.78587 284.876257 
L 184.43648 284.252037 
L 185.087091 280.622312 
L 185.737701 281.015339 
L 186.388311 285.985982 
L 187.038921 283.83589 
L 187.689532 286.240294 
L 188.340142 282.749284 
L 188.990752 285.777908 
L 189.641363 281.107817 
L 190.291973 282.402495 
L 190.942583 287.928 
L 191.593194 280.945982 
L 192.243804 285.639193 
L 192.894414 285.269284 
L 193.545025 283.535339 
L 194.195635 284.853138 
L 194.846245 287.326899 
L 195.496856 283.581578 
L 196.147466 284.436991 
L 196.798076 284.899376 
L 197.448686 286.772037 
L 198.099297 281.61644 
L 199.400517 287.419376 
L 200.051128 281.223413 
L 200.701738 283.627817 
L 201.352348 289.985615 
L 202.002959 277.639927 
L 202.653569 284.714422 
L 203.304179 288.297908 
L 203.95479 289.361394 
L 204.6054 287.835523 
L 205.25601 286.725798 
L 205.906621 282.494972 
L 206.557231 280.737908 
L 207.207841 284.436991 
L 207.858451 286.725798 
L 208.509062 285.10745 
L 209.159672 286.818275 
L 209.810282 284.945615 
L 210.460893 288.55222 
L 211.111503 285.431119 
L 211.762113 285.038092 
L 212.412724 285.824147 
L 213.063334 280.761028 
L 213.713944 284.991853 
L 214.364555 284.737541 
L 215.015165 281.593321 
L 215.665775 284.621945 
L 216.316385 278.287266 
L 216.966996 285.500477 
L 217.617606 281.431486 
L 218.268216 286.147817 
L 218.918827 283.373505 
L 219.569437 283.350385 
L 220.220047 286.841394 
L 220.870658 282.055706 
L 221.521268 285.754789 
L 222.171878 281.015339 
L 222.822489 289.939376 
L 223.473099 285.361761 
L 224.123709 285.639193 
L 224.77432 285.038092 
L 226.07554 286.748917 
L 226.72615 282.032587 
L 227.376761 285.408 
L 228.027371 283.165431 
L 228.677981 284.945615 
L 229.328592 285.616073 
L 229.979202 285.662312 
L 230.629812 285.08433 
L 231.280423 281.778275 
L 231.931033 284.436991 
L 232.581643 286.448367 
L 233.232254 285.754789 
L 233.882864 286.425248 
L 234.533474 285.592954 
L 235.184085 284.13644 
L 235.834695 284.737541 
L 236.485305 281.778275 
L 237.135915 284.645064 
L 237.786526 285.223046 
L 238.437136 283.720294 
L 239.087746 287.60433 
L 239.738357 280.645431 
L 240.388967 285.038092 
L 241.039577 282.078826 
L 241.690188 284.830018 
L 242.340798 284.46011 
L 242.991408 282.425615 
L 243.642019 279.697541 
L 244.292629 285.70855 
L 244.943239 279.628183 
L 245.59385 280.136807 
L 246.24446 283.859009 
L 246.89507 282.402495 
L 247.54568 285.523596 
L 248.196291 282.448734 
L 248.846901 285.500477 
L 249.497511 284.344514 
L 250.148122 285.199927 
L 250.798732 281.593321 
L 251.449342 283.743413 
L 252.099953 284.367633 
L 252.750563 281.431486 
L 253.401173 283.558459 
L 254.051784 283.234789 
L 254.702394 283.373505 
L 255.353004 284.529468 
L 256.003615 283.766532 
L 256.654225 287.534972 
L 257.304835 287.743046 
L 257.955445 286.009101 
L 258.606056 285.870385 
L 259.256666 287.165064 
L 259.907276 279.720661 
L 260.557887 283.396624 
L 261.208497 284.737541 
L 261.859107 281.31589 
L 262.509718 289.222679 
L 263.810938 281.570202 
L 264.461549 280.506716 
L 265.112159 284.113321 
L 265.762769 283.674055 
L 266.413379 282.795523 
L 267.06399 284.876257 
L 267.7146 284.621945 
L 268.36521 277.824881 
L 269.015821 281.63956 
L 269.666431 279.443229 
L 270.317041 285.939743 
L 270.967652 287.165064 
L 271.618262 283.581578 
L 272.268872 282.841761 
L 272.919483 282.379376 
L 273.570093 284.205798 
L 274.220703 284.182679 
L 274.871314 281.732037 
L 275.521924 284.205798 
L 276.172534 282.471853 
L 276.823144 279.813138 
L 277.473755 282.078826 
L 278.124365 282.448734 
L 278.774975 285.847266 
L 279.425586 280.807266 
L 280.076196 282.009468 
L 280.726806 284.691303 
L 281.377417 282.726165 
L 282.028027 283.720294 
L 282.678637 287.789284 
L 283.329248 288.621578 
L 284.630468 281.662679 
L 285.281079 282.934239 
L 285.931689 279.790018 
L 286.582299 284.46011 
L 287.232909 284.529468 
L 287.88352 284.298275 
L 288.53413 286.818275 
L 289.18474 283.650936 
L 289.835351 282.379376 
L 291.136571 282.703046 
L 291.787182 283.997725 
L 292.437792 283.096073 
L 293.088402 283.465982 
L 293.739013 278.333505 
L 294.389623 286.055339 
L 295.040233 282.26378 
L 295.690844 283.558459 
L 296.341454 283.257908 
L 296.992064 281.084697 
L 297.642674 284.067083 
L 298.293285 283.419743 
L 298.943895 283.142312 
L 299.594505 286.078459 
L 300.245116 283.327266 
L 300.895726 284.853138 
L 301.546336 283.674055 
L 302.196947 283.859009 
L 302.847557 286.332771 
L 303.498167 286.748917 
L 304.148778 279.790018 
L 304.799388 281.870752 
L 305.449998 286.35589 
L 306.100608 281.593321 
L 306.751219 287.257541 
L 307.401829 287.835523 
L 308.052439 282.286899 
L 308.70305 282.772404 
L 309.35366 286.286532 
L 310.00427 284.991853 
L 310.654881 286.956991 
L 311.305491 283.83589 
L 311.956101 283.51222 
L 312.606712 288.159193 
L 313.257322 286.055339 
L 313.907932 282.171303 
L 314.558543 287.280661 
L 315.209153 282.402495 
L 315.859763 282.56433 
L 316.510373 285.500477 
L 317.160984 283.604697 
L 317.811594 281.177174 
L 318.462204 281.986349 
L 319.112815 284.645064 
L 319.763425 282.980477 
L 320.414035 286.101578 
L 321.064646 285.061211 
L 321.715256 286.240294 
L 322.365866 283.304147 
L 323.016477 285.061211 
L 323.667087 282.125064 
L 324.317697 280.552954 
L 324.968308 281.547083 
L 325.618918 283.697174 
L 326.269528 282.772404 
L 326.920138 281.223413 
L 327.570749 283.928367 
L 328.221359 281.177174 
L 328.871969 287.396257 
L 329.52258 282.679927 
L 330.17319 285.569835 
L 330.8238 280.969101 
L 331.474411 282.194422 
L 332.125021 282.864881 
L 332.775631 281.223413 
L 333.426242 280.483596 
L 334.076852 284.13644 
L 334.727462 283.257908 
L 335.378073 282.58745 
L 336.028683 289.638826 
L 336.679293 287.072587 
L 337.329903 287.30378 
L 337.980514 288.922128 
L 338.631124 283.396624 
L 339.281734 285.685431 
L 339.932345 282.356257 
L 341.233565 286.379009 
L 341.884176 283.697174 
L 342.534786 281.963229 
L 343.185396 282.795523 
L 343.836007 283.21167 
L 344.486617 279.558826 
L 345.787837 288.459743 
L 346.438448 283.604697 
L 347.089058 284.621945 
L 347.739668 280.06745 
L 348.390279 284.413872 
L 349.040889 287.696807 
L 349.691499 283.234789 
L 350.34211 281.662679 
L 350.99272 291.164697 
L 351.64333 284.830018 
L 352.293941 285.315523 
L 352.944551 284.020844 
L 353.595161 285.338642 
L 354.245772 286.910752 
L 354.896382 285.939743 
L 355.546992 280.321761 
L 356.197602 285.801028 
L 356.848213 282.841761 
L 357.498823 288.136073 
L 358.800044 279.42011 
L 359.450654 280.576073 
L 360.101264 283.882128 
L 360.751875 284.645064 
L 361.402485 279.836257 
L 362.053095 283.859009 
L 362.703706 280.183046 
L 363.354316 282.633688 
L 364.004926 283.604697 
L 365.306147 281.523963 
L 365.956757 285.153688 
L 366.607367 285.384881 
L 367.908588 281.223413 
L 368.559198 279.003963 
L 369.209809 279.258275 
L 369.860419 281.246532 
L 371.16164 283.627817 
L 371.81225 279.11956 
L 372.46286 281.477725 
L 373.113471 276.437725 
L 374.414691 285.569835 
L 375.065302 284.737541 
L 375.715912 280.853505 
L 376.366522 282.448734 
L 377.017132 284.621945 
L 377.667743 282.148183 
L 378.318353 284.506349 
L 378.968963 284.413872 
L 379.619574 285.916624 
L 380.270184 282.749284 
L 381.571405 286.540844 
L 382.222015 283.072954 
L 382.872625 283.743413 
L 383.523236 284.252037 
L 384.173846 283.465982 
L 384.824456 285.223046 
L 385.475066 281.893872 
L 386.125677 284.621945 
L 386.776287 279.373872 
L 387.426897 284.575706 
L 388.077508 288.621578 
L 388.728118 284.945615 
L 389.378728 285.500477 
L 390.029339 288.321028 
L 390.679949 283.535339 
L 391.330559 283.072954 
L 391.98117 289.107083 
L 392.63178 287.234422 
L 393.28239 288.598459 
L 393.933001 284.113321 
L 394.583611 280.899743 
L 395.234221 287.049468 
L 395.884831 284.367633 
L 396.535442 282.864881 
L 397.186052 283.350385 
L 397.836662 288.413505 
L 398.487273 283.234789 
L 398.487273 283.234789 
" style="fill:none;stroke:#0000ff;stroke-linecap:square;stroke-width:1.5;"/>
   </g>
   <g id="line2d_28">
    <path clip-path="url(#pff92a8a418)" d="M 73.832727 244.009364 
L 74.483338 248.465982 
L 75.133948 240.954008 
L 75.784558 243.772505 
L 76.435169 241.013638 
L 77.085779 241.800262 
L 77.736389 243.15623 
L 78.386999 243.234091 
L 79.03761 234.089215 
L 79.68822 245.390599 
L 80.33883 235.669901 
L 80.989441 240.361267 
L 81.640051 242.213155 
L 82.290661 238.34028 
L 83.591882 244.064232 
L 84.242492 234.375202 
L 84.893103 240.468458 
L 85.543713 241.606717 
L 86.194323 239.504475 
L 86.844934 239.057435 
L 87.495544 241.594504 
L 88.146154 246.113759 
L 88.796764 239.162563 
L 89.447375 244.73896 
L 90.097985 232.935782 
L 90.748595 242.055253 
L 91.399206 242.633049 
L 92.049816 242.247607 
L 92.700426 231.92682 
L 93.351037 242.791735 
L 94.001647 242.633736 
L 94.652257 236.359596 
L 95.302868 238.086559 
L 95.953478 244.361621 
L 96.604088 242.429402 
L 97.254698 244.636801 
L 97.905309 239.715949 
L 98.555919 239.619539 
L 99.206529 238.77997 
L 99.85714 245.121004 
L 100.50775 241.913521 
L 101.15836 235.519347 
L 101.808971 244.805033 
L 102.459581 238.646648 
L 103.110191 244.030896 
L 103.760802 238.623551 
L 104.411412 244.948787 
L 105.062022 237.809196 
L 105.712633 234.139241 
L 106.363243 233.682171 
L 107.013853 239.931982 
L 107.664463 238.39212 
L 108.315074 239.332429 
L 108.965684 237.32536 
L 109.616294 237.570033 
L 110.266905 234.751481 
L 110.917515 240.360711 
L 111.568125 240.867217 
L 112.218736 236.79474 
L 112.869346 240.011902 
L 113.519956 236.33709 
L 114.170567 240.863109 
L 114.821177 241.397179 
L 115.471787 241.042925 
L 116.122398 240.886013 
L 116.773008 238.373452 
L 117.423618 232.016121 
L 118.074228 238.963056 
L 118.724839 240.854397 
L 119.375449 235.424688 
L 120.026059 235.012371 
L 121.32728 240.383771 
L 121.97789 237.157793 
L 122.628501 235.96458 
L 123.279111 235.362317 
L 123.929721 238.638418 
L 124.580332 231.781608 
L 125.230942 234.063561 
L 125.881552 237.17404 
L 126.532163 237.337313 
L 127.182773 235.278663 
L 127.833383 233.61283 
L 128.483993 235.211479 
L 129.134604 237.352883 
L 129.785214 236.106759 
L 130.435824 238.707561 
L 131.086435 240.168335 
L 131.737045 242.488031 
L 132.387655 236.191036 
L 133.038266 238.277394 
L 133.688876 236.318505 
L 134.339486 236.753545 
L 134.990097 238.74029 
L 135.640707 236.291153 
L 136.291317 239.69665 
L 136.941927 238.780774 
L 137.592538 234.898003 
L 138.243148 236.027475 
L 138.893758 228.649134 
L 139.544369 233.916063 
L 140.194979 230.763405 
L 141.4962 238.128671 
L 142.14681 234.022264 
L 142.79742 233.741238 
L 143.448031 236.652286 
L 144.098641 238.445603 
L 144.749251 235.941129 
L 145.399862 234.70923 
L 146.050472 236.809058 
L 146.701082 233.531365 
L 148.002303 242.199151 
L 148.652913 237.625676 
L 149.303523 236.465745 
L 149.954134 233.545598 
L 150.604744 241.81494 
L 151.255354 233.435252 
L 151.905965 240.283957 
L 152.556575 232.966469 
L 153.207185 236.673935 
L 153.857796 237.626912 
L 154.508406 234.436037 
L 155.159016 242.193988 
L 155.809627 232.571458 
L 156.460237 235.644995 
L 157.110847 236.930644 
L 157.761457 230.101435 
L 158.412068 236.653428 
L 159.062678 238.188025 
L 159.713288 230.654524 
L 160.363899 231.857967 
L 161.014509 236.037852 
L 161.665119 237.187585 
L 162.31573 237.985014 
L 162.96634 239.786228 
L 163.61695 234.88358 
L 164.267561 234.792422 
L 164.918171 229.981714 
L 165.568781 238.321263 
L 166.219392 228.887499 
L 166.870002 234.298195 
L 167.520612 235.529881 
L 168.171222 239.079808 
L 168.821833 235.989914 
L 169.472443 237.250443 
L 170.123053 231.171558 
L 170.773664 234.259196 
L 171.424274 230.640653 
L 172.074884 236.512519 
L 172.725495 235.146218 
L 173.376105 237.172577 
L 174.026715 238.381389 
L 174.677326 233.315038 
L 175.327936 240.429578 
L 175.978546 238.251761 
L 176.629156 242.516335 
L 177.279767 239.330075 
L 177.930377 233.403215 
L 178.580987 237.284927 
L 179.231598 238.620544 
L 179.882208 234.016728 
L 180.532818 232.862941 
L 181.183429 234.118812 
L 181.834039 232.854433 
L 182.484649 235.500566 
L 183.13526 232.78271 
L 183.78587 235.748089 
L 184.43648 232.969377 
L 185.087091 231.138662 
L 185.737701 234.028276 
L 186.388311 237.942439 
L 187.038921 233.889713 
L 187.689532 236.655509 
L 188.340142 237.204735 
L 188.990752 238.268722 
L 189.641363 230.655687 
L 190.291973 233.302508 
L 190.942583 239.269601 
L 191.593194 230.027012 
L 192.243804 237.10329 
L 192.894414 236.962099 
L 193.545025 232.229364 
L 194.846245 237.931252 
L 195.496856 235.952529 
L 196.147466 234.586127 
L 196.798076 235.564986 
L 197.448686 241.718341 
L 198.099297 231.919676 
L 198.749907 237.51942 
L 199.400517 240.301569 
L 200.051128 232.537779 
L 200.701738 235.854221 
L 201.352348 244.006027 
L 202.002959 225.714981 
L 202.653569 238.388143 
L 203.304179 239.262217 
L 203.95479 237.764501 
L 204.6054 237.827792 
L 205.25601 239.483373 
L 205.906621 232.810621 
L 207.207841 236.310008 
L 207.858451 234.998668 
L 208.509062 237.424699 
L 209.159672 239.336014 
L 209.810282 237.358459 
L 210.460893 240.240676 
L 211.111503 236.96904 
L 211.762113 237.375068 
L 212.412724 238.505363 
L 213.063334 235.432695 
L 213.713944 234.349049 
L 214.364555 236.678381 
L 215.015165 234.275966 
L 215.665775 240.382736 
L 216.316385 230.668312 
L 216.966996 241.836415 
L 217.617606 232.750941 
L 218.268216 242.304032 
L 218.918827 234.959752 
L 219.569437 236.652449 
L 220.220047 239.59713 
L 220.870658 232.567995 
L 221.521268 237.879757 
L 222.171878 231.347343 
L 222.822489 246.715474 
L 223.473099 235.346479 
L 224.123709 237.639253 
L 224.77432 235.075566 
L 225.42493 237.229747 
L 226.07554 237.372075 
L 226.72615 232.777828 
L 227.376761 239.299025 
L 228.027371 233.281153 
L 228.677981 234.918514 
L 229.328592 236.971956 
L 229.979202 236.503124 
L 230.629812 237.817987 
L 231.280423 234.0396 
L 231.931033 236.994567 
L 232.581643 240.885983 
L 233.232254 239.363051 
L 233.882864 236.747244 
L 234.533474 240.140783 
L 235.184085 234.042422 
L 235.834695 236.43875 
L 236.485305 233.412246 
L 237.135915 238.358151 
L 238.437136 235.592362 
L 239.087746 238.584556 
L 239.738357 231.530641 
L 240.388967 239.074014 
L 241.039577 235.876466 
L 241.690188 237.623721 
L 242.340798 237.454423 
L 242.991408 231.585308 
L 243.642019 231.803042 
L 244.292629 236.61116 
L 244.943239 232.12433 
L 245.59385 231.738514 
L 246.24446 235.480162 
L 246.89507 233.476994 
L 247.54568 236.210083 
L 248.196291 233.621632 
L 248.846901 237.770664 
L 249.497511 236.808267 
L 250.148122 237.589734 
L 250.798732 233.363013 
L 251.449342 234.819725 
L 252.099953 233.884393 
L 252.750563 232.131236 
L 253.401173 236.396879 
L 254.051784 234.006254 
L 254.702394 233.695587 
L 255.353004 237.941422 
L 256.003615 235.045999 
L 256.654225 238.421902 
L 257.304835 236.785336 
L 257.955445 237.644591 
L 258.606056 238.058223 
L 259.256666 241.825454 
L 259.907276 230.775061 
L 260.557887 234.953519 
L 261.208497 235.674564 
L 261.859107 232.597287 
L 262.509718 242.059654 
L 264.461549 233.603975 
L 265.112159 234.295642 
L 265.762769 236.168655 
L 266.413379 235.807214 
L 267.06399 236.303922 
L 268.36521 229.787964 
L 269.015821 235.346873 
L 269.666431 233.446347 
L 270.317041 241.146805 
L 270.967652 237.457115 
L 271.618262 237.736598 
L 272.268872 233.611777 
L 272.919483 233.273973 
L 273.570093 234.64948 
L 274.220703 235.114385 
L 274.871314 233.117552 
L 275.521924 234.172886 
L 276.172534 232.204598 
L 276.823144 228.345871 
L 277.473755 233.560613 
L 278.124365 233.867459 
L 278.774975 237.587267 
L 279.425586 234.003689 
L 280.076196 234.136178 
L 280.726806 233.125538 
L 281.377417 230.54697 
L 282.028027 234.251682 
L 282.678637 239.745475 
L 283.979858 237.52033 
L 284.630468 232.918603 
L 285.281079 230.683884 
L 285.931689 232.275708 
L 286.582299 237.254718 
L 287.232909 236.330927 
L 287.88352 239.147586 
L 288.53413 238.874475 
L 289.18474 235.429134 
L 289.835351 230.17184 
L 290.485961 234.738313 
L 291.136571 233.426571 
L 291.787182 237.266425 
L 292.437792 234.067877 
L 293.088402 237.40312 
L 293.739013 229.43248 
L 294.389623 236.724741 
L 295.040233 234.719325 
L 295.690844 233.605348 
L 296.341454 234.161301 
L 296.992064 232.290891 
L 297.642674 234.806767 
L 298.293285 236.261903 
L 298.943895 234.012376 
L 299.594505 236.452476 
L 300.245116 233.586145 
L 301.546336 236.775605 
L 302.196947 235.462488 
L 302.847557 238.172637 
L 303.498167 238.866891 
L 304.148778 230.992619 
L 304.799388 234.166708 
L 305.449998 238.725494 
L 306.100608 234.055078 
L 306.751219 238.133937 
L 307.401829 238.542607 
L 308.052439 232.011393 
L 308.70305 233.054671 
L 309.35366 239.275086 
L 310.00427 240.632373 
L 310.654881 239.099691 
L 311.305491 235.151305 
L 311.956101 237.592189 
L 312.606712 240.943838 
L 313.907932 234.690296 
L 314.558543 238.378527 
L 315.209153 234.407901 
L 315.859763 233.285166 
L 316.510373 237.627538 
L 317.160984 235.490511 
L 317.811594 229.810894 
L 318.462204 231.980279 
L 319.112815 237.875669 
L 319.763425 236.506318 
L 320.414035 235.619794 
L 321.715256 242.502064 
L 322.365866 237.322774 
L 323.016477 233.758153 
L 323.667087 232.982597 
L 324.317697 234.720352 
L 324.968308 231.702251 
L 325.618918 232.65706 
L 326.269528 234.22963 
L 326.920138 230.964707 
L 327.570749 234.031956 
L 328.221359 233.135946 
L 328.871969 241.632933 
L 329.52258 232.704329 
L 330.17319 235.735212 
L 330.8238 230.033711 
L 331.474411 236.452856 
L 332.125021 236.794988 
L 332.775631 230.364228 
L 333.426242 232.414561 
L 334.076852 236.429618 
L 334.727462 234.616297 
L 335.378073 234.384118 
L 336.028683 239.955103 
L 336.679293 240.665591 
L 337.329903 240.218172 
L 337.980514 242.510526 
L 338.631124 237.781199 
L 339.281734 234.844068 
L 339.932345 233.964678 
L 340.582955 237.499093 
L 341.233565 240.196575 
L 341.884176 231.657334 
L 342.534786 236.885053 
L 343.185396 235.71176 
L 343.836007 235.849829 
L 344.486617 231.777533 
L 345.137227 234.748255 
L 345.787837 241.201339 
L 346.438448 233.547882 
L 347.089058 238.231284 
L 347.739668 232.403669 
L 348.390279 232.284284 
L 349.040889 239.469603 
L 349.691499 234.202079 
L 350.34211 232.555899 
L 350.99272 241.520839 
L 351.64333 233.97819 
L 352.293941 234.814747 
L 352.944551 236.799914 
L 353.595161 236.994632 
L 354.245772 240.328151 
L 354.896382 238.135949 
L 355.546992 227.675096 
L 356.197602 236.714219 
L 356.848213 234.439542 
L 357.498823 239.30085 
L 358.149433 234.185692 
L 358.800044 232.421201 
L 359.450654 231.578286 
L 360.101264 235.628969 
L 360.751875 233.999754 
L 361.402485 231.337398 
L 362.053095 234.830469 
L 362.703706 233.43868 
L 363.354316 236.181013 
L 364.004926 233.99838 
L 364.655537 234.558324 
L 365.306147 235.621885 
L 365.956757 236.053075 
L 366.607367 238.697293 
L 367.257978 235.511117 
L 367.908588 233.954882 
L 368.559198 229.233607 
L 369.209809 230.511392 
L 369.860419 231.001096 
L 370.511029 235.081311 
L 371.16164 235.444254 
L 371.81225 232.409121 
L 372.46286 234.369782 
L 373.113471 229.229112 
L 373.764081 234.092368 
L 375.065302 240.293201 
L 375.715912 232.571094 
L 376.366522 231.282502 
L 377.017132 234.817422 
L 377.667743 231.346622 
L 378.318353 236.715526 
L 378.968963 237.668482 
L 379.619574 238.074265 
L 380.270184 234.43925 
L 380.920794 238.718889 
L 381.571405 236.628544 
L 382.222015 234.082629 
L 382.872625 234.701874 
L 383.523236 236.100005 
L 384.173846 233.901899 
L 384.824456 239.023833 
L 385.475066 233.514223 
L 386.125677 234.92916 
L 386.776287 230.774386 
L 387.426897 236.639393 
L 388.728118 239.958968 
L 389.378728 235.890518 
L 390.029339 242.05312 
L 390.679949 236.540115 
L 391.330559 234.657706 
L 391.98117 240.5068 
L 392.63178 236.907911 
L 393.28239 239.491679 
L 393.933001 234.943604 
L 394.583611 232.39273 
L 395.234221 240.381759 
L 395.884831 236.305626 
L 396.535442 233.849441 
L 397.186052 232.97012 
L 397.836662 240.732654 
L 398.487273 235.184277 
L 398.487273 235.184277 
" style="fill:none;stroke:#008000;stroke-dasharray:9.6,2.4,1.5,2.4;stroke-dashoffset:0;stroke-width:1.5;"/>
   </g>
   <g id="line2d_29">
    <path clip-path="url(#pff92a8a418)" d="M 73.832727 146.045064 
L 74.483338 136.797358 
L 75.133948 109.054239 
L 75.784558 164.540477 
L 76.435169 146.045064 
L 77.085779 146.045064 
L 77.736389 127.549651 
L 78.386999 146.045064 
L 79.03761 136.797358 
L 79.68822 109.054239 
L 80.989441 146.045064 
L 81.640051 127.549651 
L 82.290661 99.806532 
L 82.941272 127.549651 
L 83.591882 164.540477 
L 84.242492 118.301945 
L 84.893103 173.788183 
L 85.543713 146.045064 
L 86.194323 127.549651 
L 86.844934 127.549651 
L 87.495544 155.292771 
L 88.146154 136.797358 
L 90.097985 136.797358 
L 90.748595 173.788183 
L 91.399206 136.797358 
L 92.049816 136.797358 
L 92.700426 109.054239 
L 93.351037 136.797358 
L 94.001647 146.045064 
L 94.652257 81.311119 
L 95.302868 136.797358 
L 95.953478 136.797358 
L 96.604088 146.045064 
L 97.254698 136.797358 
L 97.905309 99.806532 
L 98.555919 127.549651 
L 99.85714 164.540477 
L 100.50775 127.549651 
L 101.15836 109.054239 
L 101.808971 155.292771 
L 102.459581 136.797358 
L 103.110191 109.054239 
L 103.760802 155.292771 
L 104.411412 173.788183 
L 105.062022 127.549651 
L 105.712633 146.045064 
L 106.363243 109.054239 
L 107.013853 136.797358 
L 107.664463 99.806532 
L 108.315074 127.549651 
L 108.965684 127.549651 
L 109.616294 118.301945 
L 110.266905 155.292771 
L 110.917515 127.549651 
L 111.568125 146.045064 
L 112.218736 146.045064 
L 112.869346 136.797358 
L 113.519956 155.292771 
L 114.170567 164.540477 
L 114.821177 118.301945 
L 115.471787 155.292771 
L 116.122398 146.045064 
L 116.773008 155.292771 
L 117.423618 136.797358 
L 118.074228 155.292771 
L 118.724839 155.292771 
L 119.375449 136.797358 
L 120.026059 164.540477 
L 120.67667 164.540477 
L 121.32728 146.045064 
L 121.97789 164.540477 
L 122.628501 146.045064 
L 123.279111 146.045064 
L 123.929721 127.549651 
L 124.580332 127.549651 
L 125.230942 155.292771 
L 125.881552 164.540477 
L 126.532163 164.540477 
L 127.182773 155.292771 
L 127.833383 109.054239 
L 128.483993 155.292771 
L 129.134604 109.054239 
L 129.785214 109.054239 
L 130.435824 127.549651 
L 131.086435 118.301945 
L 131.737045 136.797358 
L 133.038266 155.292771 
L 133.688876 136.797358 
L 134.339486 109.054239 
L 134.990097 155.292771 
L 135.640707 99.806532 
L 136.291317 155.292771 
L 137.592538 118.301945 
L 138.243148 155.292771 
L 138.893758 127.549651 
L 140.194979 146.045064 
L 140.845589 109.054239 
L 141.4962 136.797358 
L 142.14681 155.292771 
L 142.79742 127.549651 
L 143.448031 155.292771 
L 144.749251 118.301945 
L 145.399862 136.797358 
L 146.050472 164.540477 
L 146.701082 127.549651 
L 147.351692 127.549651 
L 148.002303 164.540477 
L 148.652913 118.301945 
L 149.303523 127.549651 
L 149.954134 146.045064 
L 150.604744 155.292771 
L 151.255354 109.054239 
L 151.905965 146.045064 
L 152.556575 155.292771 
L 153.207185 155.292771 
L 153.857796 164.540477 
L 154.508406 127.549651 
L 155.809627 127.549651 
L 156.460237 109.054239 
L 157.110847 155.292771 
L 157.761457 155.292771 
L 158.412068 164.540477 
L 159.713288 146.045064 
L 161.014509 146.045064 
L 161.665119 164.540477 
L 162.31573 164.540477 
L 162.96634 127.549651 
L 163.61695 109.054239 
L 164.267561 109.054239 
L 164.918171 127.549651 
L 165.568781 136.797358 
L 166.219392 136.797358 
L 166.870002 146.045064 
L 167.520612 127.549651 
L 168.171222 146.045064 
L 168.821833 155.292771 
L 169.472443 118.301945 
L 170.123053 146.045064 
L 170.773664 62.815706 
L 171.424274 118.301945 
L 172.074884 155.292771 
L 172.725495 90.558826 
L 173.376105 146.045064 
L 174.026715 155.292771 
L 174.677326 72.063413 
L 175.327936 164.540477 
L 175.978546 155.292771 
L 176.629156 118.301945 
L 177.279767 164.540477 
L 178.580987 127.549651 
L 179.231598 146.045064 
L 180.532818 146.045064 
L 181.183429 136.797358 
L 183.13526 136.797358 
L 184.43648 155.292771 
L 185.087091 127.549651 
L 185.737701 164.540477 
L 186.388311 136.797358 
L 187.038921 127.549651 
L 187.689532 136.797358 
L 188.340142 155.292771 
L 188.990752 155.292771 
L 189.641363 109.054239 
L 190.291973 53.568 
L 190.942583 109.054239 
L 191.593194 90.558826 
L 192.243804 118.301945 
L 192.894414 164.540477 
L 193.545025 118.301945 
L 194.195635 136.797358 
L 194.846245 146.045064 
L 195.496856 146.045064 
L 196.147466 99.806532 
L 196.798076 118.301945 
L 197.448686 155.292771 
L 198.749907 136.797358 
L 199.400517 155.292771 
L 200.051128 99.806532 
L 200.701738 164.540477 
L 201.352348 146.045064 
L 202.002959 146.045064 
L 202.653569 164.540477 
L 203.304179 136.797358 
L 203.95479 146.045064 
L 204.6054 146.045064 
L 205.25601 155.292771 
L 206.557231 136.797358 
L 207.207841 146.045064 
L 208.509062 146.045064 
L 209.810282 127.549651 
L 210.460893 146.045064 
L 211.111503 173.788183 
L 211.762113 146.045064 
L 212.412724 136.797358 
L 213.063334 155.292771 
L 213.713944 127.549651 
L 214.364555 155.292771 
L 215.015165 99.806532 
L 215.665775 173.788183 
L 216.316385 146.045064 
L 216.966996 173.788183 
L 217.617606 127.549651 
L 218.268216 173.788183 
L 218.918827 127.549651 
L 219.569437 146.045064 
L 220.220047 118.301945 
L 221.521268 136.797358 
L 222.171878 127.549651 
L 222.822489 127.549651 
L 223.473099 81.311119 
L 224.123709 155.292771 
L 224.77432 136.797358 
L 225.42493 146.045064 
L 226.07554 136.797358 
L 227.376761 136.797358 
L 228.027371 118.301945 
L 228.677981 136.797358 
L 229.328592 136.797358 
L 229.979202 155.292771 
L 231.280423 155.292771 
L 231.931033 173.788183 
L 232.581643 136.797358 
L 233.232254 155.292771 
L 233.882864 118.301945 
L 234.533474 136.797358 
L 235.184085 99.806532 
L 235.834695 146.045064 
L 236.485305 99.806532 
L 237.135915 164.540477 
L 237.786526 127.549651 
L 239.087746 146.045064 
L 239.738357 109.054239 
L 240.388967 146.045064 
L 241.039577 164.540477 
L 241.690188 146.045064 
L 242.340798 164.540477 
L 242.991408 136.797358 
L 246.24446 136.797358 
L 246.89507 127.549651 
L 247.54568 155.292771 
L 248.196291 146.045064 
L 248.846901 146.045064 
L 249.497511 164.540477 
L 250.148122 127.549651 
L 250.798732 146.045064 
L 251.449342 90.558826 
L 252.099953 136.797358 
L 252.750563 136.797358 
L 254.051784 155.292771 
L 254.702394 155.292771 
L 255.353004 127.549651 
L 256.003615 164.540477 
L 256.654225 136.797358 
L 257.304835 99.806532 
L 257.955445 164.540477 
L 259.256666 146.045064 
L 259.907276 127.549651 
L 260.557887 146.045064 
L 261.208497 136.797358 
L 261.859107 136.797358 
L 262.509718 164.540477 
L 263.160328 127.549651 
L 263.810938 164.540477 
L 264.461549 155.292771 
L 265.112159 118.301945 
L 265.762769 136.797358 
L 266.413379 136.797358 
L 267.06399 127.549651 
L 267.7146 146.045064 
L 268.36521 109.054239 
L 269.015821 109.054239 
L 269.666431 146.045064 
L 270.317041 155.292771 
L 270.967652 136.797358 
L 271.618262 155.292771 
L 272.268872 146.045064 
L 272.919483 118.301945 
L 273.570093 136.797358 
L 274.220703 118.301945 
L 274.871314 118.301945 
L 275.521924 155.292771 
L 276.172534 118.301945 
L 276.823144 127.549651 
L 277.473755 90.558826 
L 278.124365 155.292771 
L 278.774975 155.292771 
L 279.425586 146.045064 
L 280.076196 127.549651 
L 280.726806 146.045064 
L 281.377417 155.292771 
L 282.678637 155.292771 
L 283.329248 136.797358 
L 283.979858 146.045064 
L 285.281079 127.549651 
L 286.582299 146.045064 
L 287.232909 173.788183 
L 287.88352 146.045064 
L 288.53413 127.549651 
L 289.18474 136.797358 
L 289.835351 90.558826 
L 290.485961 99.806532 
L 291.136571 127.549651 
L 291.787182 136.797358 
L 292.437792 109.054239 
L 293.088402 146.045064 
L 293.739013 127.549651 
L 295.040233 164.540477 
L 295.690844 118.301945 
L 296.341454 136.797358 
L 296.992064 146.045064 
L 297.642674 136.797358 
L 298.293285 109.054239 
L 298.943895 164.540477 
L 299.594505 118.301945 
L 301.546336 146.045064 
L 302.196947 127.549651 
L 302.847557 155.292771 
L 303.498167 146.045064 
L 304.148778 99.806532 
L 304.799388 127.549651 
L 305.449998 127.549651 
L 306.100608 164.540477 
L 306.751219 127.549651 
L 307.401829 109.054239 
L 308.052439 127.549651 
L 308.70305 136.797358 
L 309.35366 136.797358 
L 310.00427 127.549651 
L 310.654881 155.292771 
L 311.305491 136.797358 
L 312.606712 155.292771 
L 313.257322 118.301945 
L 313.907932 99.806532 
L 314.558543 164.540477 
L 315.209153 146.045064 
L 315.859763 81.311119 
L 316.510373 127.549651 
L 317.160984 118.301945 
L 317.811594 118.301945 
L 318.462204 146.045064 
L 319.763425 127.549651 
L 320.414035 155.292771 
L 321.064646 146.045064 
L 321.715256 127.549651 
L 322.365866 136.797358 
L 323.016477 118.301945 
L 323.667087 127.549651 
L 324.317697 173.788183 
L 324.968308 146.045064 
L 325.618918 136.797358 
L 326.269528 146.045064 
L 327.570749 109.054239 
L 328.221359 146.045064 
L 328.871969 173.788183 
L 329.52258 127.549651 
L 330.17319 146.045064 
L 330.8238 118.301945 
L 331.474411 146.045064 
L 332.125021 155.292771 
L 332.775631 127.549651 
L 333.426242 90.558826 
L 334.076852 127.549651 
L 335.378073 146.045064 
L 336.028683 109.054239 
L 336.679293 164.540477 
L 337.329903 81.311119 
L 337.980514 173.788183 
L 338.631124 99.806532 
L 339.281734 127.549651 
L 339.932345 136.797358 
L 340.582955 136.797358 
L 341.233565 146.045064 
L 341.884176 136.797358 
L 342.534786 164.540477 
L 343.185396 155.292771 
L 343.836007 136.797358 
L 344.486617 90.558826 
L 345.137227 155.292771 
L 345.787837 90.558826 
L 346.438448 136.797358 
L 347.089058 127.549651 
L 347.739668 127.549651 
L 348.390279 136.797358 
L 349.040889 155.292771 
L 349.691499 127.549651 
L 350.34211 127.549651 
L 350.99272 136.797358 
L 351.64333 90.558826 
L 352.293941 146.045064 
L 352.944551 146.045064 
L 353.595161 127.549651 
L 354.245772 127.549651 
L 354.896382 155.292771 
L 355.546992 109.054239 
L 356.197602 127.549651 
L 356.848213 127.549651 
L 357.498823 136.797358 
L 358.149433 127.549651 
L 358.800044 146.045064 
L 360.101264 164.540477 
L 360.751875 127.549651 
L 362.703706 155.292771 
L 364.004926 136.797358 
L 364.655537 155.292771 
L 365.306147 155.292771 
L 365.956757 118.301945 
L 366.607367 164.540477 
L 367.257978 127.549651 
L 367.908588 146.045064 
L 368.559198 136.797358 
L 369.209809 155.292771 
L 369.860419 118.301945 
L 370.511029 127.549651 
L 371.16164 127.549651 
L 371.81225 155.292771 
L 372.46286 164.540477 
L 373.113471 127.549651 
L 373.764081 146.045064 
L 374.414691 136.797358 
L 375.065302 155.292771 
L 375.715912 146.045064 
L 376.366522 127.549651 
L 377.017132 136.797358 
L 377.667743 99.806532 
L 378.318353 136.797358 
L 378.968963 155.292771 
L 379.619574 155.292771 
L 380.270184 136.797358 
L 380.920794 136.797358 
L 381.571405 90.558826 
L 382.222015 118.301945 
L 382.872625 164.540477 
L 383.523236 146.045064 
L 384.173846 155.292771 
L 384.824456 155.292771 
L 385.475066 136.797358 
L 386.125677 146.045064 
L 386.776287 164.540477 
L 387.426897 173.788183 
L 388.077508 118.301945 
L 388.728118 99.806532 
L 389.378728 127.549651 
L 390.029339 99.806532 
L 390.679949 127.549651 
L 391.330559 136.797358 
L 391.98117 164.540477 
L 392.63178 136.797358 
L 393.28239 118.301945 
L 393.933001 118.301945 
L 394.583611 109.054239 
L 395.234221 136.797358 
L 395.884831 136.797358 
L 396.535442 155.292771 
L 397.186052 155.292771 
L 397.836662 146.045064 
L 398.487273 127.549651 
L 398.487273 127.549651 
" style="fill:none;stroke:#ff0000;stroke-linecap:square;stroke-width:1.5;"/>
   </g>
   <g id="patch_3">
    <path d="M 57.6 307.584 
L 57.6 41.472 
" style="fill:none;stroke:#000000;stroke-linecap:square;stroke-linejoin:miter;stroke-width:0.8;"/>
   </g>
   <g id="patch_4">
    <path d="M 414.72 307.584 
L 414.72 41.472 
" style="fill:none;stroke:#000000;stroke-linecap:square;stroke-linejoin:miter;stroke-width:0.8;"/>
   </g>
   <g id="patch_5">
    <path d="M 57.6 307.584 
L 414.72 307.584 
" style="fill:none;stroke:#000000;stroke-linecap:square;stroke-linejoin:miter;stroke-width:0.8;"/>
   </g>
   <g id="patch_6">
    <path d="M 57.6 41.472 
L 414.72 41.472 
" style="fill:none;stroke:#000000;stroke-linecap:square;stroke-linejoin:miter;stroke-width:0.8;"/>
   </g>
   <g id="text_16">
    <!-- Population's average and best fitness -->
    <defs>
     <path d="M 19.671875 64.796875 
L 19.671875 37.40625 
L 32.078125 37.40625 
Q 38.96875 37.40625 42.71875 40.96875 
Q 46.484375 44.53125 46.484375 51.125 
Q 46.484375 57.671875 42.71875 61.234375 
Q 38.96875 64.796875 32.078125 64.796875 
z
M 9.8125 72.90625 
L 32.078125 72.90625 
Q 44.34375 72.90625 50.609375 67.359375 
Q 56.890625 61.8125 56.890625 51.125 
Q 56.890625 40.328125 50.609375 34.8125 
Q 44.34375 29.296875 32.078125 29.296875 
L 19.671875 29.296875 
L 19.671875 0 
L 9.8125 0 
z
" id="DejaVuSans-80"/>
     <path d="M 18.109375 8.203125 
L 18.109375 -20.796875 
L 9.078125 -20.796875 
L 9.078125 54.6875 
L 18.109375 54.6875 
L 18.109375 46.390625 
Q 20.953125 51.265625 25.265625 53.625 
Q 29.59375 56 35.59375 56 
Q 45.5625 56 51.78125 48.09375 
Q 58.015625 40.1875 58.015625 27.296875 
Q 58.015625 14.40625 51.78125 6.484375 
Q 45.5625 -1.421875 35.59375 -1.421875 
Q 29.59375 -1.421875 25.265625 0.953125 
Q 20.953125 3.328125 18.109375 8.203125 
z
M 48.6875 27.296875 
Q 48.6875 37.203125 44.609375 42.84375 
Q 40.53125 48.484375 33.40625 48.484375 
Q 26.265625 48.484375 22.1875 42.84375 
Q 18.109375 37.203125 18.109375 27.296875 
Q 18.109375 17.390625 22.1875 11.75 
Q 26.265625 6.109375 33.40625 6.109375 
Q 40.53125 6.109375 44.609375 11.75 
Q 48.6875 17.390625 48.6875 27.296875 
z
" id="DejaVuSans-112"/>
     <path d="M 8.5 21.578125 
L 8.5 54.6875 
L 17.484375 54.6875 
L 17.484375 21.921875 
Q 17.484375 14.15625 20.5 10.265625 
Q 23.53125 6.390625 29.59375 6.390625 
Q 36.859375 6.390625 41.078125 11.03125 
Q 45.3125 15.671875 45.3125 23.6875 
L 45.3125 54.6875 
L 54.296875 54.6875 
L 54.296875 0 
L 45.3125 0 
L 45.3125 8.40625 
Q 42.046875 3.421875 37.71875 1 
Q 33.40625 -1.421875 27.6875 -1.421875 
Q 18.265625 -1.421875 13.375 4.4375 
Q 8.5 10.296875 8.5 21.578125 
z
M 31.109375 56 
z
" id="DejaVuSans-117"/>
     <path d="M 9.421875 75.984375 
L 18.40625 75.984375 
L 18.40625 0 
L 9.421875 0 
z
" id="DejaVuSans-108"/>
     <path d="M 17.921875 72.90625 
L 17.921875 45.796875 
L 9.625 45.796875 
L 9.625 72.90625 
z
" id="DejaVuSans-39"/>
     <path id="DejaVuSans-32"/>
     <path d="M 2.984375 54.6875 
L 12.5 54.6875 
L 29.59375 8.796875 
L 46.6875 54.6875 
L 56.203125 54.6875 
L 35.6875 0 
L 23.484375 0 
z
" id="DejaVuSans-118"/>
     <path d="M 45.40625 27.984375 
Q 45.40625 37.75 41.375 43.109375 
Q 37.359375 48.484375 30.078125 48.484375 
Q 22.859375 48.484375 18.828125 43.109375 
Q 14.796875 37.75 14.796875 27.984375 
Q 14.796875 18.265625 18.828125 12.890625 
Q 22.859375 7.515625 30.078125 7.515625 
Q 37.359375 7.515625 41.375 12.890625 
Q 45.40625 18.265625 45.40625 27.984375 
z
M 54.390625 6.78125 
Q 54.390625 -7.171875 48.1875 -13.984375 
Q 42 -20.796875 29.203125 -20.796875 
Q 24.46875 -20.796875 20.265625 -20.09375 
Q 16.0625 -19.390625 12.109375 -17.921875 
L 12.109375 -9.1875 
Q 16.0625 -11.328125 19.921875 -12.34375 
Q 23.78125 -13.375 27.78125 -13.375 
Q 36.625 -13.375 41.015625 -8.765625 
Q 45.40625 -4.15625 45.40625 5.171875 
L 45.40625 9.625 
Q 42.625 4.78125 38.28125 2.390625 
Q 33.9375 0 27.875 0 
Q 17.828125 0 11.671875 7.65625 
Q 5.515625 15.328125 5.515625 27.984375 
Q 5.515625 40.671875 11.671875 48.328125 
Q 17.828125 56 27.875 56 
Q 33.9375 56 38.28125 53.609375 
Q 42.625 51.21875 45.40625 46.390625 
L 45.40625 54.6875 
L 54.390625 54.6875 
z
" id="DejaVuSans-103"/>
     <path d="M 45.40625 46.390625 
L 45.40625 75.984375 
L 54.390625 75.984375 
L 54.390625 0 
L 45.40625 0 
L 45.40625 8.203125 
Q 42.578125 3.328125 38.25 0.953125 
Q 33.9375 -1.421875 27.875 -1.421875 
Q 17.96875 -1.421875 11.734375 6.484375 
Q 5.515625 14.40625 5.515625 27.296875 
Q 5.515625 40.1875 11.734375 48.09375 
Q 17.96875 56 27.875 56 
Q 33.9375 56 38.25 53.625 
Q 42.578125 51.265625 45.40625 46.390625 
z
M 14.796875 27.296875 
Q 14.796875 17.390625 18.875 11.75 
Q 22.953125 6.109375 30.078125 6.109375 
Q 37.203125 6.109375 41.296875 11.75 
Q 45.40625 17.390625 45.40625 27.296875 
Q 45.40625 37.203125 41.296875 42.84375 
Q 37.203125 48.484375 30.078125 48.484375 
Q 22.953125 48.484375 18.875 42.84375 
Q 14.796875 37.203125 14.796875 27.296875 
z
" id="DejaVuSans-100"/>
     <path d="M 48.6875 27.296875 
Q 48.6875 37.203125 44.609375 42.84375 
Q 40.53125 48.484375 33.40625 48.484375 
Q 26.265625 48.484375 22.1875 42.84375 
Q 18.109375 37.203125 18.109375 27.296875 
Q 18.109375 17.390625 22.1875 11.75 
Q 26.265625 6.109375 33.40625 6.109375 
Q 40.53125 6.109375 44.609375 11.75 
Q 48.6875 17.390625 48.6875 27.296875 
z
M 18.109375 46.390625 
Q 20.953125 51.265625 25.265625 53.625 
Q 29.59375 56 35.59375 56 
Q 45.5625 56 51.78125 48.09375 
Q 58.015625 40.1875 58.015625 27.296875 
Q 58.015625 14.40625 51.78125 6.484375 
Q 45.5625 -1.421875 35.59375 -1.421875 
Q 29.59375 -1.421875 25.265625 0.953125 
Q 20.953125 3.328125 18.109375 8.203125 
L 18.109375 0 
L 9.078125 0 
L 9.078125 75.984375 
L 18.109375 75.984375 
z
" id="DejaVuSans-98"/>
     <path d="M 37.109375 75.984375 
L 37.109375 68.5 
L 28.515625 68.5 
Q 23.6875 68.5 21.796875 66.546875 
Q 19.921875 64.59375 19.921875 59.515625 
L 19.921875 54.6875 
L 34.71875 54.6875 
L 34.71875 47.703125 
L 19.921875 47.703125 
L 19.921875 0 
L 10.890625 0 
L 10.890625 47.703125 
L 2.296875 47.703125 
L 2.296875 54.6875 
L 10.890625 54.6875 
L 10.890625 58.5 
Q 10.890625 67.625 15.140625 71.796875 
Q 19.390625 75.984375 28.609375 75.984375 
z
" id="DejaVuSans-102"/>
    </defs>
    <g transform="translate(123.315 35.472)scale(0.12 -0.12)">
     <use xlink:href="#DejaVuSans-80"/>
     <use x="60.255859" xlink:href="#DejaVuSans-111"/>
     <use x="121.4375" xlink:href="#DejaVuSans-112"/>
     <use x="184.914062" xlink:href="#DejaVuSans-117"/>
     <use x="248.292969" xlink:href="#DejaVuSans-108"/>
     <use x="276.076172" xlink:href="#DejaVuSans-97"/>
     <use x="337.355469" xlink:href="#DejaVuSans-116"/>
     <use x="376.564453" xlink:href="#DejaVuSans-105"/>
     <use x="404.347656" xlink:href="#DejaVuSans-111"/>
     <use x="465.529297" xlink:href="#DejaVuSans-110"/>
     <use x="528.908203" xlink:href="#DejaVuSans-39"/>
     <use x="556.398438" xlink:href="#DejaVuSans-115"/>
     <use x="608.498047" xlink:href="#DejaVuSans-32"/>
     <use x="640.285156" xlink:href="#DejaVuSans-97"/>
     <use x="701.564453" xlink:href="#DejaVuSans-118"/>
     <use x="760.744141" xlink:href="#DejaVuSans-101"/>
     <use x="822.267578" xlink:href="#DejaVuSans-114"/>
     <use x="863.380859" xlink:href="#DejaVuSans-97"/>
     <use x="924.660156" xlink:href="#DejaVuSans-103"/>
     <use x="988.136719" xlink:href="#DejaVuSans-101"/>
     <use x="1049.660156" xlink:href="#DejaVuSans-32"/>
     <use x="1081.447266" xlink:href="#DejaVuSans-97"/>
     <use x="1142.726562" xlink:href="#DejaVuSans-110"/>
     <use x="1206.105469" xlink:href="#DejaVuSans-100"/>
     <use x="1269.582031" xlink:href="#DejaVuSans-32"/>
     <use x="1301.369141" xlink:href="#DejaVuSans-98"/>
     <use x="1364.845703" xlink:href="#DejaVuSans-101"/>
     <use x="1426.369141" xlink:href="#DejaVuSans-115"/>
     <use x="1478.46875" xlink:href="#DejaVuSans-116"/>
     <use x="1517.677734" xlink:href="#DejaVuSans-32"/>
     <use x="1549.464844" xlink:href="#DejaVuSans-102"/>
     <use x="1584.669922" xlink:href="#DejaVuSans-105"/>
     <use x="1612.453125" xlink:href="#DejaVuSans-116"/>
     <use x="1651.662109" xlink:href="#DejaVuSans-110"/>
     <use x="1715.041016" xlink:href="#DejaVuSans-101"/>
     <use x="1776.564453" xlink:href="#DejaVuSans-115"/>
     <use x="1828.664062" xlink:href="#DejaVuSans-115"/>
    </g>
   </g>
   <g id="legend_1">
    <g id="patch_7">
     <path d="M 64.6 93.506375 
L 137.540625 93.506375 
Q 139.540625 93.506375 139.540625 91.506375 
L 139.540625 48.472 
Q 139.540625 46.472 137.540625 46.472 
L 64.6 46.472 
Q 62.6 46.472 62.6 48.472 
L 62.6 91.506375 
Q 62.6 93.506375 64.6 93.506375 
z
" style="fill:#ffffff;opacity:0.8;stroke:#cccccc;stroke-linejoin:miter;"/>
    </g>
    <g id="line2d_30">
     <path d="M 66.6 54.570438 
L 86.6 54.570438 
" style="fill:none;stroke:#0000ff;stroke-linecap:square;stroke-width:1.5;"/>
    </g>
    <g id="line2d_31"/>
    <g id="text_17">
     <!-- average -->
     <g transform="translate(94.6 58.070438)scale(0.1 -0.1)">
      <use xlink:href="#DejaVuSans-97"/>
      <use x="61.279297" xlink:href="#DejaVuSans-118"/>
      <use x="120.458984" xlink:href="#DejaVuSans-101"/>
      <use x="181.982422" xlink:href="#DejaVuSans-114"/>
      <use x="223.095703" xlink:href="#DejaVuSans-97"/>
      <use x="284.375" xlink:href="#DejaVuSans-103"/>
      <use x="347.851562" xlink:href="#DejaVuSans-101"/>
     </g>
    </g>
    <g id="line2d_32">
     <path d="M 66.6 69.248563 
L 86.6 69.248563 
" style="fill:none;stroke:#008000;stroke-dasharray:9.6,2.4,1.5,2.4;stroke-dashoffset:0;stroke-width:1.5;"/>
    </g>
    <g id="line2d_33"/>
    <g id="text_18">
     <!-- +1 sd -->
     <defs>
      <path d="M 46 62.703125 
L 46 35.5 
L 73.1875 35.5 
L 73.1875 27.203125 
L 46 27.203125 
L 46 0 
L 37.796875 0 
L 37.796875 27.203125 
L 10.59375 27.203125 
L 10.59375 35.5 
L 37.796875 35.5 
L 37.796875 62.703125 
z
" id="DejaVuSans-43"/>
     </defs>
     <g transform="translate(94.6 72.748563)scale(0.1 -0.1)">
      <use xlink:href="#DejaVuSans-43"/>
      <use x="83.789062" xlink:href="#DejaVuSans-49"/>
      <use x="147.412109" xlink:href="#DejaVuSans-32"/>
      <use x="179.199219" xlink:href="#DejaVuSans-115"/>
      <use x="231.298828" xlink:href="#DejaVuSans-100"/>
     </g>
    </g>
    <g id="line2d_34">
     <path d="M 66.6 83.926688 
L 86.6 83.926688 
" style="fill:none;stroke:#ff0000;stroke-linecap:square;stroke-width:1.5;"/>
    </g>
    <g id="line2d_35"/>
    <g id="text_19">
     <!-- best -->
     <g transform="translate(94.6 87.426688)scale(0.1 -0.1)">
      <use xlink:href="#DejaVuSans-98"/>
      <use x="63.476562" xlink:href="#DejaVuSans-101"/>
      <use x="125" xlink:href="#DejaVuSans-115"/>
      <use x="177.099609" xlink:href="#DejaVuSans-116"/>
     </g>
    </g>
   </g>
  </g>
 </g>
 <defs>
  <clipPath id="pff92a8a418">
   <rect height="266.112" width="357.12" x="57.6" y="41.472"/>
  </clipPath>
 </defs>
</svg>
