<?xml version="1.0" encoding="utf-8" standalone="no"?>
<!DOCTYPE svg PUBLIC "-//W3C//DTD SVG 1.1//EN"
  "http://www.w3.org/Graphics/SVG/1.1/DTD/svg11.dtd">
<!-- Created with matplotlib (https://matplotlib.org/) -->
<svg height="345.6pt" version="1.1" viewBox="0 0 460.8 345.6" width="460.8pt" xmlns="http://www.w3.org/2000/svg" xmlns:xlink="http://www.w3.org/1999/xlink">
 <defs>
  <style type="text/css">
*{stroke-linecap:butt;stroke-linejoin:round;}
  </style>
 </defs>
 <g id="figure_1">
  <g id="patch_1">
   <path d="M 0 345.6 
L 460.8 345.6 
L 460.8 0 
L 0 0 
z
" style="fill:#ffffff;"/>
  </g>
  <g id="axes_1">
   <g id="patch_2">
    <path d="M 57.6 307.584 
L 414.72 307.584 
L 414.72 41.472 
L 57.6 41.472 
z
" style="fill:#ffffff;"/>
   </g>
   <g id="matplotlib.axis_1">
    <g id="xtick_1">
     <g id="line2d_1">
      <path clip-path="url(#pdf86fe6d77)" d="M 73.832727 307.584 
L 73.832727 41.472 
" style="fill:none;stroke:#b0b0b0;stroke-linecap:square;stroke-width:0.8;"/>
     </g>
     <g id="line2d_2">
      <defs>
       <path d="M 0 0 
L 0 3.5 
" id="mf2ca2eae3b" style="stroke:#000000;stroke-width:0.8;"/>
      </defs>
      <g>
       <use style="stroke:#000000;stroke-width:0.8;" x="73.832727" xlink:href="#mf2ca2eae3b" y="307.584"/>
      </g>
     </g>
     <g id="text_1">
      <!-- 0 -->
      <defs>
       <path d="M 31.78125 66.40625 
Q 24.171875 66.40625 20.328125 58.90625 
Q 16.5 51.421875 16.5 36.375 
Q 16.5 21.390625 20.328125 13.890625 
Q 24.171875 6.390625 31.78125 6.390625 
Q 39.453125 6.390625 43.28125 13.890625 
Q 47.125 21.390625 47.125 36.375 
Q 47.125 51.421875 43.28125 58.90625 
Q 39.453125 66.40625 31.78125 66.40625 
z
M 31.78125 74.21875 
Q 44.046875 74.21875 50.515625 64.515625 
Q 56.984375 54.828125 56.984375 36.375 
Q 56.984375 17.96875 50.515625 8.265625 
Q 44.046875 -1.421875 31.78125 -1.421875 
Q 19.53125 -1.421875 13.0625 8.265625 
Q 6.59375 17.96875 6.59375 36.375 
Q 6.59375 54.828125 13.0625 64.515625 
Q 19.53125 74.21875 31.78125 74.21875 
z
" id="DejaVuSans-48"/>
      </defs>
      <g transform="translate(70.651477 322.182437)scale(0.1 -0.1)">
       <use xlink:href="#DejaVuSans-48"/>
      </g>
     </g>
    </g>
    <g id="xtick_2">
     <g id="line2d_3">
      <path clip-path="url(#pdf86fe6d77)" d="M 138.893758 307.584 
L 138.893758 41.472 
" style="fill:none;stroke:#b0b0b0;stroke-linecap:square;stroke-width:0.8;"/>
     </g>
     <g id="line2d_4">
      <g>
       <use style="stroke:#000000;stroke-width:0.8;" x="138.893758" xlink:href="#mf2ca2eae3b" y="307.584"/>
      </g>
     </g>
     <g id="text_2">
      <!-- 100 -->
      <defs>
       <path d="M 12.40625 8.296875 
L 28.515625 8.296875 
L 28.515625 63.921875 
L 10.984375 60.40625 
L 10.984375 69.390625 
L 28.421875 72.90625 
L 38.28125 72.90625 
L 38.28125 8.296875 
L 54.390625 8.296875 
L 54.390625 0 
L 12.40625 0 
z
" id="DejaVuSans-49"/>
      </defs>
      <g transform="translate(129.350008 322.182437)scale(0.1 -0.1)">
       <use xlink:href="#DejaVuSans-49"/>
       <use x="63.623047" xlink:href="#DejaVuSans-48"/>
       <use x="127.246094" xlink:href="#DejaVuSans-48"/>
      </g>
     </g>
    </g>
    <g id="xtick_3">
     <g id="line2d_5">
      <path clip-path="url(#pdf86fe6d77)" d="M 203.95479 307.584 
L 203.95479 41.472 
" style="fill:none;stroke:#b0b0b0;stroke-linecap:square;stroke-width:0.8;"/>
     </g>
     <g id="line2d_6">
      <g>
       <use style="stroke:#000000;stroke-width:0.8;" x="203.95479" xlink:href="#mf2ca2eae3b" y="307.584"/>
      </g>
     </g>
     <g id="text_3">
      <!-- 200 -->
      <defs>
       <path d="M 19.1875 8.296875 
L 53.609375 8.296875 
L 53.609375 0 
L 7.328125 0 
L 7.328125 8.296875 
Q 12.9375 14.109375 22.625 23.890625 
Q 32.328125 33.6875 34.8125 36.53125 
Q 39.546875 41.84375 41.421875 45.53125 
Q 43.3125 49.21875 43.3125 52.78125 
Q 43.3125 58.59375 39.234375 62.25 
Q 35.15625 65.921875 28.609375 65.921875 
Q 23.96875 65.921875 18.8125 64.3125 
Q 13.671875 62.703125 7.8125 59.421875 
L 7.8125 69.390625 
Q 13.765625 71.78125 18.9375 73 
Q 24.125 74.21875 28.421875 74.21875 
Q 39.75 74.21875 46.484375 68.546875 
Q 53.21875 62.890625 53.21875 53.421875 
Q 53.21875 48.921875 51.53125 44.890625 
Q 49.859375 40.875 45.40625 35.40625 
Q 44.1875 33.984375 37.640625 27.21875 
Q 31.109375 20.453125 19.1875 8.296875 
z
" id="DejaVuSans-50"/>
      </defs>
      <g transform="translate(194.41104 322.182437)scale(0.1 -0.1)">
       <use xlink:href="#DejaVuSans-50"/>
       <use x="63.623047" xlink:href="#DejaVuSans-48"/>
       <use x="127.246094" xlink:href="#DejaVuSans-48"/>
      </g>
     </g>
    </g>
    <g id="xtick_4">
     <g id="line2d_7">
      <path clip-path="url(#pdf86fe6d77)" d="M 269.015821 307.584 
L 269.015821 41.472 
" style="fill:none;stroke:#b0b0b0;stroke-linecap:square;stroke-width:0.8;"/>
     </g>
     <g id="line2d_8">
      <g>
       <use style="stroke:#000000;stroke-width:0.8;" x="269.015821" xlink:href="#mf2ca2eae3b" y="307.584"/>
      </g>
     </g>
     <g id="text_4">
      <!-- 300 -->
      <defs>
       <path d="M 40.578125 39.3125 
Q 47.65625 37.796875 51.625 33 
Q 55.609375 28.21875 55.609375 21.1875 
Q 55.609375 10.40625 48.1875 4.484375 
Q 40.765625 -1.421875 27.09375 -1.421875 
Q 22.515625 -1.421875 17.65625 -0.515625 
Q 12.796875 0.390625 7.625 2.203125 
L 7.625 11.71875 
Q 11.71875 9.328125 16.59375 8.109375 
Q 21.484375 6.890625 26.8125 6.890625 
Q 36.078125 6.890625 40.9375 10.546875 
Q 45.796875 14.203125 45.796875 21.1875 
Q 45.796875 27.640625 41.28125 31.265625 
Q 36.765625 34.90625 28.71875 34.90625 
L 20.21875 34.90625 
L 20.21875 43.015625 
L 29.109375 43.015625 
Q 36.375 43.015625 40.234375 45.921875 
Q 44.09375 48.828125 44.09375 54.296875 
Q 44.09375 59.90625 40.109375 62.90625 
Q 36.140625 65.921875 28.71875 65.921875 
Q 24.65625 65.921875 20.015625 65.03125 
Q 15.375 64.15625 9.8125 62.3125 
L 9.8125 71.09375 
Q 15.4375 72.65625 20.34375 73.4375 
Q 25.25 74.21875 29.59375 74.21875 
Q 40.828125 74.21875 47.359375 69.109375 
Q 53.90625 64.015625 53.90625 55.328125 
Q 53.90625 49.265625 50.4375 45.09375 
Q 46.96875 40.921875 40.578125 39.3125 
z
" id="DejaVuSans-51"/>
      </defs>
      <g transform="translate(259.472071 322.182437)scale(0.1 -0.1)">
       <use xlink:href="#DejaVuSans-51"/>
       <use x="63.623047" xlink:href="#DejaVuSans-48"/>
       <use x="127.246094" xlink:href="#DejaVuSans-48"/>
      </g>
     </g>
    </g>
    <g id="xtick_5">
     <g id="line2d_9">
      <path clip-path="url(#pdf86fe6d77)" d="M 334.076852 307.584 
L 334.076852 41.472 
" style="fill:none;stroke:#b0b0b0;stroke-linecap:square;stroke-width:0.8;"/>
     </g>
     <g id="line2d_10">
      <g>
       <use style="stroke:#000000;stroke-width:0.8;" x="334.076852" xlink:href="#mf2ca2eae3b" y="307.584"/>
      </g>
     </g>
     <g id="text_5">
      <!-- 400 -->
      <defs>
       <path d="M 37.796875 64.3125 
L 12.890625 25.390625 
L 37.796875 25.390625 
z
M 35.203125 72.90625 
L 47.609375 72.90625 
L 47.609375 25.390625 
L 58.015625 25.390625 
L 58.015625 17.1875 
L 47.609375 17.1875 
L 47.609375 0 
L 37.796875 0 
L 37.796875 17.1875 
L 4.890625 17.1875 
L 4.890625 26.703125 
z
" id="DejaVuSans-52"/>
      </defs>
      <g transform="translate(324.533102 322.182437)scale(0.1 -0.1)">
       <use xlink:href="#DejaVuSans-52"/>
       <use x="63.623047" xlink:href="#DejaVuSans-48"/>
       <use x="127.246094" xlink:href="#DejaVuSans-48"/>
      </g>
     </g>
    </g>
    <g id="xtick_6">
     <g id="line2d_11">
      <path clip-path="url(#pdf86fe6d77)" d="M 399.137883 307.584 
L 399.137883 41.472 
" style="fill:none;stroke:#b0b0b0;stroke-linecap:square;stroke-width:0.8;"/>
     </g>
     <g id="line2d_12">
      <g>
       <use style="stroke:#000000;stroke-width:0.8;" x="399.137883" xlink:href="#mf2ca2eae3b" y="307.584"/>
      </g>
     </g>
     <g id="text_6">
      <!-- 500 -->
      <defs>
       <path d="M 10.796875 72.90625 
L 49.515625 72.90625 
L 49.515625 64.59375 
L 19.828125 64.59375 
L 19.828125 46.734375 
Q 21.96875 47.46875 24.109375 47.828125 
Q 26.265625 48.1875 28.421875 48.1875 
Q 40.625 48.1875 47.75 41.5 
Q 54.890625 34.8125 54.890625 23.390625 
Q 54.890625 11.625 47.5625 5.09375 
Q 40.234375 -1.421875 26.90625 -1.421875 
Q 22.3125 -1.421875 17.546875 -0.640625 
Q 12.796875 0.140625 7.71875 1.703125 
L 7.71875 11.625 
Q 12.109375 9.234375 16.796875 8.0625 
Q 21.484375 6.890625 26.703125 6.890625 
Q 35.15625 6.890625 40.078125 11.328125 
Q 45.015625 15.765625 45.015625 23.390625 
Q 45.015625 31 40.078125 35.4375 
Q 35.15625 39.890625 26.703125 39.890625 
Q 22.75 39.890625 18.8125 39.015625 
Q 14.890625 38.140625 10.796875 36.28125 
z
" id="DejaVuSans-53"/>
      </defs>
      <g transform="translate(389.594133 322.182437)scale(0.1 -0.1)">
       <use xlink:href="#DejaVuSans-53"/>
       <use x="63.623047" xlink:href="#DejaVuSans-48"/>
       <use x="127.246094" xlink:href="#DejaVuSans-48"/>
      </g>
     </g>
    </g>
    <g id="text_7">
     <!-- Generations -->
     <defs>
      <path d="M 59.515625 10.40625 
L 59.515625 29.984375 
L 43.40625 29.984375 
L 43.40625 38.09375 
L 69.28125 38.09375 
L 69.28125 6.78125 
Q 63.578125 2.734375 56.6875 0.65625 
Q 49.8125 -1.421875 42 -1.421875 
Q 24.90625 -1.421875 15.25 8.5625 
Q 5.609375 18.5625 5.609375 36.375 
Q 5.609375 54.25 15.25 64.234375 
Q 24.90625 74.21875 42 74.21875 
Q 49.125 74.21875 55.546875 72.453125 
Q 61.96875 70.703125 67.390625 67.28125 
L 67.390625 56.78125 
Q 61.921875 61.421875 55.765625 63.765625 
Q 49.609375 66.109375 42.828125 66.109375 
Q 29.4375 66.109375 22.71875 58.640625 
Q 16.015625 51.171875 16.015625 36.375 
Q 16.015625 21.625 22.71875 14.15625 
Q 29.4375 6.6875 42.828125 6.6875 
Q 48.046875 6.6875 52.140625 7.59375 
Q 56.25 8.5 59.515625 10.40625 
z
" id="DejaVuSans-71"/>
      <path d="M 56.203125 29.59375 
L 56.203125 25.203125 
L 14.890625 25.203125 
Q 15.484375 15.921875 20.484375 11.0625 
Q 25.484375 6.203125 34.421875 6.203125 
Q 39.59375 6.203125 44.453125 7.46875 
Q 49.3125 8.734375 54.109375 11.28125 
L 54.109375 2.78125 
Q 49.265625 0.734375 44.1875 -0.34375 
Q 39.109375 -1.421875 33.890625 -1.421875 
Q 20.796875 -1.421875 13.15625 6.1875 
Q 5.515625 13.8125 5.515625 26.8125 
Q 5.515625 40.234375 12.765625 48.109375 
Q 20.015625 56 32.328125 56 
Q 43.359375 56 49.78125 48.890625 
Q 56.203125 41.796875 56.203125 29.59375 
z
M 47.21875 32.234375 
Q 47.125 39.59375 43.09375 43.984375 
Q 39.0625 48.390625 32.421875 48.390625 
Q 24.90625 48.390625 20.390625 44.140625 
Q 15.875 39.890625 15.1875 32.171875 
z
" id="DejaVuSans-101"/>
      <path d="M 54.890625 33.015625 
L 54.890625 0 
L 45.90625 0 
L 45.90625 32.71875 
Q 45.90625 40.484375 42.875 44.328125 
Q 39.84375 48.1875 33.796875 48.1875 
Q 26.515625 48.1875 22.3125 43.546875 
Q 18.109375 38.921875 18.109375 30.90625 
L 18.109375 0 
L 9.078125 0 
L 9.078125 54.6875 
L 18.109375 54.6875 
L 18.109375 46.1875 
Q 21.34375 51.125 25.703125 53.5625 
Q 30.078125 56 35.796875 56 
Q 45.21875 56 50.046875 50.171875 
Q 54.890625 44.34375 54.890625 33.015625 
z
" id="DejaVuSans-110"/>
      <path d="M 41.109375 46.296875 
Q 39.59375 47.171875 37.8125 47.578125 
Q 36.03125 48 33.890625 48 
Q 26.265625 48 22.1875 43.046875 
Q 18.109375 38.09375 18.109375 28.8125 
L 18.109375 0 
L 9.078125 0 
L 9.078125 54.6875 
L 18.109375 54.6875 
L 18.109375 46.1875 
Q 20.953125 51.171875 25.484375 53.578125 
Q 30.03125 56 36.53125 56 
Q 37.453125 56 38.578125 55.875 
Q 39.703125 55.765625 41.0625 55.515625 
z
" id="DejaVuSans-114"/>
      <path d="M 34.28125 27.484375 
Q 23.390625 27.484375 19.1875 25 
Q 14.984375 22.515625 14.984375 16.5 
Q 14.984375 11.71875 18.140625 8.90625 
Q 21.296875 6.109375 26.703125 6.109375 
Q 34.1875 6.109375 38.703125 11.40625 
Q 43.21875 16.703125 43.21875 25.484375 
L 43.21875 27.484375 
z
M 52.203125 31.203125 
L 52.203125 0 
L 43.21875 0 
L 43.21875 8.296875 
Q 40.140625 3.328125 35.546875 0.953125 
Q 30.953125 -1.421875 24.3125 -1.421875 
Q 15.921875 -1.421875 10.953125 3.296875 
Q 6 8.015625 6 15.921875 
Q 6 25.140625 12.171875 29.828125 
Q 18.359375 34.515625 30.609375 34.515625 
L 43.21875 34.515625 
L 43.21875 35.40625 
Q 43.21875 41.609375 39.140625 45 
Q 35.0625 48.390625 27.6875 48.390625 
Q 23 48.390625 18.546875 47.265625 
Q 14.109375 46.140625 10.015625 43.890625 
L 10.015625 52.203125 
Q 14.9375 54.109375 19.578125 55.046875 
Q 24.21875 56 28.609375 56 
Q 40.484375 56 46.34375 49.84375 
Q 52.203125 43.703125 52.203125 31.203125 
z
" id="DejaVuSans-97"/>
      <path d="M 18.3125 70.21875 
L 18.3125 54.6875 
L 36.8125 54.6875 
L 36.8125 47.703125 
L 18.3125 47.703125 
L 18.3125 18.015625 
Q 18.3125 11.328125 20.140625 9.421875 
Q 21.96875 7.515625 27.59375 7.515625 
L 36.8125 7.515625 
L 36.8125 0 
L 27.59375 0 
Q 17.1875 0 13.234375 3.875 
Q 9.28125 7.765625 9.28125 18.015625 
L 9.28125 47.703125 
L 2.6875 47.703125 
L 2.6875 54.6875 
L 9.28125 54.6875 
L 9.28125 70.21875 
z
" id="DejaVuSans-116"/>
      <path d="M 9.421875 54.6875 
L 18.40625 54.6875 
L 18.40625 0 
L 9.421875 0 
z
M 9.421875 75.984375 
L 18.40625 75.984375 
L 18.40625 64.59375 
L 9.421875 64.59375 
z
" id="DejaVuSans-105"/>
      <path d="M 30.609375 48.390625 
Q 23.390625 48.390625 19.1875 42.75 
Q 14.984375 37.109375 14.984375 27.296875 
Q 14.984375 17.484375 19.15625 11.84375 
Q 23.34375 6.203125 30.609375 6.203125 
Q 37.796875 6.203125 41.984375 11.859375 
Q 46.1875 17.53125 46.1875 27.296875 
Q 46.1875 37.015625 41.984375 42.703125 
Q 37.796875 48.390625 30.609375 48.390625 
z
M 30.609375 56 
Q 42.328125 56 49.015625 48.375 
Q 55.71875 40.765625 55.71875 27.296875 
Q 55.71875 13.875 49.015625 6.21875 
Q 42.328125 -1.421875 30.609375 -1.421875 
Q 18.84375 -1.421875 12.171875 6.21875 
Q 5.515625 13.875 5.515625 27.296875 
Q 5.515625 40.765625 12.171875 48.375 
Q 18.84375 56 30.609375 56 
z
" id="DejaVuSans-111"/>
      <path d="M 44.28125 53.078125 
L 44.28125 44.578125 
Q 40.484375 46.53125 36.375 47.5 
Q 32.28125 48.484375 27.875 48.484375 
Q 21.1875 48.484375 17.84375 46.4375 
Q 14.5 44.390625 14.5 40.28125 
Q 14.5 37.15625 16.890625 35.375 
Q 19.28125 33.59375 26.515625 31.984375 
L 29.59375 31.296875 
Q 39.15625 29.25 43.1875 25.515625 
Q 47.21875 21.78125 47.21875 15.09375 
Q 47.21875 7.46875 41.1875 3.015625 
Q 35.15625 -1.421875 24.609375 -1.421875 
Q 20.21875 -1.421875 15.453125 -0.5625 
Q 10.6875 0.296875 5.421875 2 
L 5.421875 11.28125 
Q 10.40625 8.6875 15.234375 7.390625 
Q 20.0625 6.109375 24.8125 6.109375 
Q 31.15625 6.109375 34.5625 8.28125 
Q 37.984375 10.453125 37.984375 14.40625 
Q 37.984375 18.0625 35.515625 20.015625 
Q 33.0625 21.96875 24.703125 23.78125 
L 21.578125 24.515625 
Q 13.234375 26.265625 9.515625 29.90625 
Q 5.8125 33.546875 5.8125 39.890625 
Q 5.8125 47.609375 11.28125 51.796875 
Q 16.75 56 26.8125 56 
Q 31.78125 56 36.171875 55.265625 
Q 40.578125 54.546875 44.28125 53.078125 
z
" id="DejaVuSans-115"/>
     </defs>
     <g transform="translate(205.662344 335.860562)scale(0.1 -0.1)">
      <use xlink:href="#DejaVuSans-71"/>
      <use x="77.490234" xlink:href="#DejaVuSans-101"/>
      <use x="139.013672" xlink:href="#DejaVuSans-110"/>
      <use x="202.392578" xlink:href="#DejaVuSans-101"/>
      <use x="263.916016" xlink:href="#DejaVuSans-114"/>
      <use x="305.029297" xlink:href="#DejaVuSans-97"/>
      <use x="366.308594" xlink:href="#DejaVuSans-116"/>
      <use x="405.517578" xlink:href="#DejaVuSans-105"/>
      <use x="433.300781" xlink:href="#DejaVuSans-111"/>
      <use x="494.482422" xlink:href="#DejaVuSans-110"/>
      <use x="557.861328" xlink:href="#DejaVuSans-115"/>
     </g>
    </g>
   </g>
   <g id="matplotlib.axis_2">
    <g id="ytick_1">
     <g id="line2d_13">
      <path clip-path="url(#pdf86fe6d77)" d="M 57.6 285.161996 
L 414.72 285.161996 
" style="fill:none;stroke:#b0b0b0;stroke-linecap:square;stroke-width:0.8;"/>
     </g>
     <g id="line2d_14">
      <defs>
       <path d="M 0 0 
L -3.5 0 
" id="m6e667b4d35" style="stroke:#000000;stroke-width:0.8;"/>
      </defs>
      <g>
       <use style="stroke:#000000;stroke-width:0.8;" x="57.6" xlink:href="#m6e667b4d35" y="285.161996"/>
      </g>
     </g>
     <g id="text_8">
      <!-- −75 -->
      <defs>
       <path d="M 10.59375 35.5 
L 73.1875 35.5 
L 73.1875 27.203125 
L 10.59375 27.203125 
z
" id="DejaVuSans-8722"/>
       <path d="M 8.203125 72.90625 
L 55.078125 72.90625 
L 55.078125 68.703125 
L 28.609375 0 
L 18.3125 0 
L 43.21875 64.59375 
L 8.203125 64.59375 
z
" id="DejaVuSans-55"/>
      </defs>
      <g transform="translate(29.495313 288.961214)scale(0.1 -0.1)">
       <use xlink:href="#DejaVuSans-8722"/>
       <use x="83.789062" xlink:href="#DejaVuSans-55"/>
       <use x="147.412109" xlink:href="#DejaVuSans-53"/>
      </g>
     </g>
    </g>
    <g id="ytick_2">
     <g id="line2d_15">
      <path clip-path="url(#pdf86fe6d77)" d="M 57.6 254.282796 
L 414.72 254.282796 
" style="fill:none;stroke:#b0b0b0;stroke-linecap:square;stroke-width:0.8;"/>
     </g>
     <g id="line2d_16">
      <g>
       <use style="stroke:#000000;stroke-width:0.8;" x="57.6" xlink:href="#m6e667b4d35" y="254.282796"/>
      </g>
     </g>
     <g id="text_9">
      <!-- −50 -->
      <g transform="translate(29.495313 258.082015)scale(0.1 -0.1)">
       <use xlink:href="#DejaVuSans-8722"/>
       <use x="83.789062" xlink:href="#DejaVuSans-53"/>
       <use x="147.412109" xlink:href="#DejaVuSans-48"/>
      </g>
     </g>
    </g>
    <g id="ytick_3">
     <g id="line2d_17">
      <path clip-path="url(#pdf86fe6d77)" d="M 57.6 223.403597 
L 414.72 223.403597 
" style="fill:none;stroke:#b0b0b0;stroke-linecap:square;stroke-width:0.8;"/>
     </g>
     <g id="line2d_18">
      <g>
       <use style="stroke:#000000;stroke-width:0.8;" x="57.6" xlink:href="#m6e667b4d35" y="223.403597"/>
      </g>
     </g>
     <g id="text_10">
      <!-- −25 -->
      <g transform="translate(29.495313 227.202816)scale(0.1 -0.1)">
       <use xlink:href="#DejaVuSans-8722"/>
       <use x="83.789062" xlink:href="#DejaVuSans-50"/>
       <use x="147.412109" xlink:href="#DejaVuSans-53"/>
      </g>
     </g>
    </g>
    <g id="ytick_4">
     <g id="line2d_19">
      <path clip-path="url(#pdf86fe6d77)" d="M 57.6 192.524397 
L 414.72 192.524397 
" style="fill:none;stroke:#b0b0b0;stroke-linecap:square;stroke-width:0.8;"/>
     </g>
     <g id="line2d_20">
      <g>
       <use style="stroke:#000000;stroke-width:0.8;" x="57.6" xlink:href="#m6e667b4d35" y="192.524397"/>
      </g>
     </g>
     <g id="text_11">
      <!-- 0 -->
      <g transform="translate(44.2375 196.323616)scale(0.1 -0.1)">
       <use xlink:href="#DejaVuSans-48"/>
      </g>
     </g>
    </g>
    <g id="ytick_5">
     <g id="line2d_21">
      <path clip-path="url(#pdf86fe6d77)" d="M 57.6 161.645198 
L 414.72 161.645198 
" style="fill:none;stroke:#b0b0b0;stroke-linecap:square;stroke-width:0.8;"/>
     </g>
     <g id="line2d_22">
      <g>
       <use style="stroke:#000000;stroke-width:0.8;" x="57.6" xlink:href="#m6e667b4d35" y="161.645198"/>
      </g>
     </g>
     <g id="text_12">
      <!-- 25 -->
      <g transform="translate(37.875 165.444417)scale(0.1 -0.1)">
       <use xlink:href="#DejaVuSans-50"/>
       <use x="63.623047" xlink:href="#DejaVuSans-53"/>
      </g>
     </g>
    </g>
    <g id="ytick_6">
     <g id="line2d_23">
      <path clip-path="url(#pdf86fe6d77)" d="M 57.6 130.765999 
L 414.72 130.765999 
" style="fill:none;stroke:#b0b0b0;stroke-linecap:square;stroke-width:0.8;"/>
     </g>
     <g id="line2d_24">
      <g>
       <use style="stroke:#000000;stroke-width:0.8;" x="57.6" xlink:href="#m6e667b4d35" y="130.765999"/>
      </g>
     </g>
     <g id="text_13">
      <!-- 50 -->
      <g transform="translate(37.875 134.565217)scale(0.1 -0.1)">
       <use xlink:href="#DejaVuSans-53"/>
       <use x="63.623047" xlink:href="#DejaVuSans-48"/>
      </g>
     </g>
    </g>
    <g id="ytick_7">
     <g id="line2d_25">
      <path clip-path="url(#pdf86fe6d77)" d="M 57.6 99.886799 
L 414.72 99.886799 
" style="fill:none;stroke:#b0b0b0;stroke-linecap:square;stroke-width:0.8;"/>
     </g>
     <g id="line2d_26">
      <g>
       <use style="stroke:#000000;stroke-width:0.8;" x="57.6" xlink:href="#m6e667b4d35" y="99.886799"/>
      </g>
     </g>
     <g id="text_14">
      <!-- 75 -->
      <g transform="translate(37.875 103.686018)scale(0.1 -0.1)">
       <use xlink:href="#DejaVuSans-55"/>
       <use x="63.623047" xlink:href="#DejaVuSans-53"/>
      </g>
     </g>
    </g>
    <g id="ytick_8">
     <g id="line2d_27">
      <path clip-path="url(#pdf86fe6d77)" d="M 57.6 69.0076 
L 414.72 69.0076 
" style="fill:none;stroke:#b0b0b0;stroke-linecap:square;stroke-width:0.8;"/>
     </g>
     <g id="line2d_28">
      <g>
       <use style="stroke:#000000;stroke-width:0.8;" x="57.6" xlink:href="#m6e667b4d35" y="69.0076"/>
      </g>
     </g>
     <g id="text_15">
      <!-- 100 -->
      <g transform="translate(31.5125 72.806818)scale(0.1 -0.1)">
       <use xlink:href="#DejaVuSans-49"/>
       <use x="63.623047" xlink:href="#DejaVuSans-48"/>
       <use x="127.246094" xlink:href="#DejaVuSans-48"/>
      </g>
     </g>
    </g>
    <g id="text_16">
     <!-- Fitness -->
     <defs>
      <path d="M 9.8125 72.90625 
L 51.703125 72.90625 
L 51.703125 64.59375 
L 19.671875 64.59375 
L 19.671875 43.109375 
L 48.578125 43.109375 
L 48.578125 34.8125 
L 19.671875 34.8125 
L 19.671875 0 
L 9.8125 0 
z
" id="DejaVuSans-70"/>
     </defs>
     <g transform="translate(23.415625 192.202219)rotate(-90)scale(0.1 -0.1)">
      <use xlink:href="#DejaVuSans-70"/>
      <use x="57.410156" xlink:href="#DejaVuSans-105"/>
      <use x="85.193359" xlink:href="#DejaVuSans-116"/>
      <use x="124.402344" xlink:href="#DejaVuSans-110"/>
      <use x="187.78125" xlink:href="#DejaVuSans-101"/>
      <use x="249.304688" xlink:href="#DejaVuSans-115"/>
      <use x="301.404297" xlink:href="#DejaVuSans-115"/>
     </g>
    </g>
   </g>
   <g id="line2d_29">
    <path clip-path="url(#pdf86fe6d77)" d="M 73.832727 295.488 
L 74.483338 285.060094 
L 75.133948 280.715081 
L 75.784558 269.592703 
L 76.435169 271.157234 
L 77.085779 268.073958 
L 77.736389 267.270588 
L 78.386999 263.549652 
L 79.03761 270.246877 
L 79.68822 268.596951 
L 80.33883 271.507403 
L 80.989441 264.258918 
L 81.640051 266.310473 
L 82.290661 263.102572 
L 82.941272 260.454004 
L 83.591882 262.636351 
L 84.242492 261.27534 
L 84.893103 261.105777 
L 85.543713 264.964088 
L 86.194323 263.467617 
L 86.844934 265.833789 
L 87.495544 262.904207 
L 88.146154 262.459921 
L 88.796764 263.206093 
L 89.447375 257.943525 
L 90.097985 259.545817 
L 90.748595 265.574466 
L 91.399206 261.465702 
L 92.049816 260.642532 
L 92.700426 258.232826 
L 94.001647 262.273769 
L 94.652257 259.361406 
L 95.302868 258.441402 
L 95.953478 264.723346 
L 96.604088 257.532025 
L 97.254698 257.076103 
L 97.905309 262.978011 
L 98.555919 259.8746 
L 99.206529 258.132875 
L 99.85714 259.62181 
L 100.50775 253.475657 
L 101.15836 257.59696 
L 101.808971 255.940925 
L 102.459581 257.126448 
L 103.110191 253.760699 
L 103.760802 255.38418 
L 104.411412 251.678676 
L 105.062022 252.721767 
L 106.363243 259.831765 
L 107.013853 254.023809 
L 107.664463 256.253842 
L 108.315074 256.74075 
L 108.965684 254.897292 
L 109.616294 249.620884 
L 110.266905 258.263125 
L 110.917515 254.068721 
L 111.568125 255.437477 
L 112.218736 256.100037 
L 112.869346 259.277507 
L 113.519956 253.458838 
L 114.170567 258.587357 
L 114.821177 256.367142 
L 115.471787 250.199368 
L 116.122398 252.102725 
L 117.423618 256.43662 
L 118.074228 252.405341 
L 118.724839 250.331803 
L 119.375449 253.478393 
L 120.67667 251.213358 
L 121.32728 252.786699 
L 121.97789 256.121653 
L 123.279111 249.794505 
L 123.929721 255.289458 
L 124.580332 248.937607 
L 125.230942 248.012775 
L 125.881552 249.670988 
L 126.532163 249.339036 
L 127.182773 252.928743 
L 127.833383 253.459866 
L 128.483993 251.562339 
L 129.134604 252.405341 
L 130.435824 249.268014 
L 131.086435 247.311817 
L 131.737045 249.172289 
L 132.387655 248.106956 
L 133.038266 248.797107 
L 134.339486 253.558679 
L 134.990097 251.511388 
L 135.640707 251.560795 
L 136.291317 256.983182 
L 136.941927 248.159451 
L 137.592538 253.496921 
L 138.243148 247.151245 
L 139.544369 253.75785 
L 140.194979 248.82181 
L 140.845589 250.370402 
L 141.4962 248.377149 
L 142.14681 249.691059 
L 142.79742 252.885513 
L 143.448031 250.300924 
L 144.098641 246.81003 
L 144.749251 246.578436 
L 145.399862 247.941753 
L 146.050472 250.543325 
L 146.701082 249.880966 
L 147.351692 247.146613 
L 148.002303 249.919565 
L 148.652913 255.16131 
L 149.303523 251.852603 
L 149.954134 249.839279 
L 150.604744 247.060152 
L 151.255354 248.125484 
L 152.556575 250.706985 
L 153.207185 250.239165 
L 153.857796 246.776063 
L 155.159016 253.243711 
L 155.809627 253.433618 
L 156.460237 251.769229 
L 157.110847 247.859923 
L 157.761457 251.973032 
L 158.412068 251.948329 
L 159.062678 247.892346 
L 159.713288 248.114676 
L 160.363899 249.490345 
L 161.014509 253.016749 
L 161.665119 249.465641 
L 162.31573 251.529916 
L 162.96634 248.625727 
L 163.61695 246.873332 
L 164.267561 248.580952 
L 164.918171 247.486284 
L 166.219392 249.264926 
L 166.870002 247.731774 
L 167.520612 251.681224 
L 168.171222 249.870159 
L 168.821833 248.854233 
L 169.472443 246.811574 
L 170.123053 255.29409 
L 170.773664 247.906242 
L 171.424274 249.391531 
L 172.074884 251.58241 
L 172.725495 246.081281 
L 173.376105 243.979951 
L 174.026715 254.77532 
L 174.677326 254.938979 
L 175.327936 250.864469 
L 175.978546 251.184069 
L 176.629156 253.285398 
L 177.279767 249.90567 
L 177.930377 244.154419 
L 178.580987 253.152618 
L 179.231598 251.153189 
L 179.882208 253.038365 
L 180.532818 246.757535 
L 181.183429 251.837164 
L 181.834039 247.666928 
L 182.484649 250.388929 
L 183.13526 252.606056 
L 183.78587 247.765741 
L 184.43648 249.042596 
L 185.087091 246.868701 
L 185.737701 246.419408 
L 186.388311 251.614833 
L 187.038921 250.856749 
L 187.689532 251.208772 
L 188.340142 254.983754 
L 188.990752 254.480423 
L 189.641363 249.962796 
L 190.291973 252.351302 
L 190.942583 246.953618 
L 191.593194 246.708129 
L 192.243804 247.074047 
L 192.894414 250.901524 
L 193.545025 248.239737 
L 194.195635 247.12191 
L 194.846245 252.944183 
L 195.496856 254.319851 
L 196.147466 246.436392 
L 196.798076 245.798736 
L 197.448686 247.739494 
L 198.099297 247.958736 
L 198.749907 249.931917 
L 199.400517 249.902582 
L 200.051128 252.749644 
L 200.701738 247.27785 
L 201.352348 250.019923 
L 202.002959 249.369916 
L 202.653569 249.442482 
L 203.304179 248.298407 
L 203.95479 256.328543 
L 204.6054 246.715848 
L 205.25601 251.381695 
L 205.906621 249.369916 
L 206.557231 250.876821 
L 207.207841 252.819122 
L 207.858451 253.801081 
L 208.509062 249.022525 
L 209.810282 255.91013 
L 210.460893 247.370487 
L 211.111503 254.452632 
L 211.762113 250.586556 
L 212.412724 250.944755 
L 213.063334 253.359508 
L 213.713944 253.486113 
L 214.364555 252.530402 
L 215.015165 250.078593 
L 215.665775 244.483282 
L 216.316385 253.572575 
L 216.966996 246.74364 
L 217.617606 248.052918 
L 218.268216 248.497578 
L 218.918827 247.395191 
L 219.569437 249.845455 
L 220.220047 253.564855 
L 221.521268 248.066813 
L 222.171878 251.631817 
L 222.822489 250.214462 
L 223.473099 249.918021 
L 224.123709 245.891374 
L 224.77432 251.165541 
L 225.42493 249.942725 
L 226.07554 250.14344 
L 227.376761 246.868701 
L 228.027371 250.631331 
L 228.677981 249.150673 
L 229.328592 250.446056 
L 229.979202 250.11256 
L 230.629812 243.167828 
L 231.280423 247.951016 
L 231.931033 247.88617 
L 232.581643 250.472303 
L 233.232254 245.49612 
L 233.882864 251.338465 
L 234.533474 249.379179 
L 235.184085 250.830502 
L 235.834695 251.735262 
L 236.485305 247.657664 
L 237.135915 248.111588 
L 237.786526 250.649858 
L 238.437136 246.894948 
L 239.087746 251.627185 
L 239.738357 249.941181 
L 240.388967 249.911846 
L 241.039577 250.918508 
L 241.690188 254.075906 
L 242.340798 250.160423 
L 242.991408 247.067871 
L 243.642019 257.948157 
L 244.292629 251.741438 
L 244.943239 249.532031 
L 245.59385 250.971002 
L 246.24446 251.230387 
L 246.89507 251.35236 
L 247.54568 251.725999 
L 248.196291 248.580952 
L 248.846901 248.789387 
L 249.497511 253.947757 
L 250.148122 249.978236 
L 250.798732 251.245827 
L 251.449342 256.123197 
L 252.099953 247.265498 
L 252.750563 255.270931 
L 253.401173 250.240709 
L 254.051784 251.159365 
L 254.702394 251.015777 
L 255.353004 254.088257 
L 256.003615 251.645713 
L 256.654225 247.645312 
L 257.304835 249.403883 
L 257.955445 242.917707 
L 258.606056 251.560795 
L 259.256666 246.269644 
L 259.907276 246.549101 
L 260.557887 245.300037 
L 261.208497 249.655548 
L 261.859107 250.308643 
L 262.509718 249.893318 
L 263.160328 249.888686 
L 263.810938 250.134176 
L 264.461549 251.42647 
L 265.112159 251.435734 
L 265.762769 247.132718 
L 266.413379 247.470845 
L 267.06399 246.547557 
L 267.7146 252.664726 
L 268.36521 249.391531 
L 269.015821 252.758908 
L 269.666431 251.091431 
L 270.317041 248.153275 
L 270.967652 251.733718 
L 271.618262 244.449315 
L 272.268872 247.577378 
L 272.919483 248.644254 
L 273.570093 250.456863 
L 274.220703 251.038936 
L 274.871314 246.722024 
L 275.521924 251.163997 
L 276.172534 252.573633 
L 276.823144 247.859923 
L 277.473755 253.791817 
L 278.124365 252.690974 
L 279.425586 254.424841 
L 280.076196 253.608086 
L 280.726806 251.282882 
L 281.377417 252.385269 
L 282.028027 252.091917 
L 282.678637 249.467185 
L 283.329248 248.051374 
L 283.979858 254.454176 
L 284.630468 250.271588 
L 285.281079 249.833104 
L 285.931689 249.89023 
L 286.582299 253.904526 
L 287.232909 249.016349 
L 287.88352 252.399165 
L 288.53413 254.999194 
L 289.18474 250.538693 
L 289.835351 250.696177 
L 290.485961 243.856435 
L 291.136571 249.558279 
L 291.787182 250.574204 
L 292.437792 246.640194 
L 293.739013 251.860323 
L 294.389623 251.891202 
L 295.040233 254.563797 
L 295.690844 245.716906 
L 296.341454 252.000823 
L 296.992064 249.156849 
L 297.642674 252.831474 
L 298.293285 253.172689 
L 298.943895 248.358622 
L 299.594505 247.282482 
L 300.245116 245.079251 
L 300.895726 251.741438 
L 301.546336 246.811574 
L 302.196947 244.247056 
L 302.847557 249.755906 
L 303.498167 250.083225 
L 304.148778 250.693089 
L 304.799388 251.832532 
L 305.449998 247.263954 
L 306.100608 247.455405 
L 306.751219 244.341238 
L 307.401829 250.656034 
L 308.052439 250.629787 
L 308.70305 246.034962 
L 309.35366 248.741524 
L 310.00427 253.566399 
L 310.654881 250.66221 
L 311.305491 252.870073 
L 311.956101 252.652375 
L 312.606712 243.847171 
L 313.257322 242.354162 
L 313.907932 252.507242 
L 314.558543 250.140352 
L 315.209153 249.217064 
L 315.859763 249.850087 
L 316.510373 251.34464 
L 317.160984 253.273046 
L 317.811594 248.807914 
L 318.462204 248.114676 
L 319.112815 250.98953 
L 319.763425 244.997421 
L 320.414035 246.600051 
L 321.064646 250.29938 
L 322.365866 246.593876 
L 323.016477 246.718936 
L 323.667087 248.071445 
L 324.317697 247.603625 
L 324.968308 249.173833 
L 325.618918 251.350816 
L 326.269528 251.020409 
L 326.920138 251.864955 
L 327.570749 251.020409 
L 328.221359 253.69146 
L 328.871969 253.300838 
L 329.52258 253.66058 
L 330.17319 249.921109 
L 330.8238 249.714219 
L 331.474411 248.696749 
L 332.125021 249.646284 
L 332.775631 250.182039 
L 333.426242 251.304497 
L 334.076852 248.299951 
L 334.727462 250.558765 
L 335.378073 249.461009 
L 336.028683 247.077135 
L 336.679293 250.257693 
L 337.329903 249.464097 
L 337.980514 248.340094 
L 338.631124 247.767285 
L 339.281734 254.451088 
L 339.932345 243.333032 
L 340.582955 250.219094 
L 341.233565 251.066728 
L 341.884176 251.000337 
L 342.534786 251.289058 
L 343.185396 247.89389 
L 343.836007 252.802139 
L 344.486617 251.343096 
L 345.137227 249.093547 
L 345.787837 254.778407 
L 346.438448 253.521624 
L 347.089058 250.115648 
L 347.739668 249.170745 
L 348.390279 248.869673 
L 349.691499 252.13978 
L 350.34211 256.601824 
L 350.99272 250.717793 
L 351.64333 250.450688 
L 352.293941 252.653919 
L 352.944551 250.314819 
L 353.595161 246.317507 
L 354.245772 248.707557 
L 354.896382 248.917535 
L 355.546992 249.29735 
L 356.197602 247.390559 
L 356.848213 243.643368 
L 357.498823 251.372432 
L 358.149433 246.021066 
L 358.800044 254.255005 
L 359.450654 247.849115 
L 360.101264 253.99562 
L 360.751875 250.924683 
L 361.402485 251.851059 
L 362.053095 246.153847 
L 362.703706 248.156363 
L 363.354316 251.954505 
L 364.004926 248.611831 
L 364.655537 249.397707 
L 365.306147 256.850402 
L 365.956757 251.97612 
L 366.607367 252.12434 
L 367.257978 248.19033 
L 367.908588 248.690573 
L 368.559198 244.531145 
L 369.209809 251.444998 
L 369.860419 250.784183 
L 370.511029 253.12637 
L 371.16164 249.022525 
L 371.81225 252.337407 
L 372.46286 257.946613 
L 373.113471 253.501553 
L 373.764081 253.489201 
L 374.414691 250.29938 
L 375.065302 245.245999 
L 375.715912 244.285655 
L 376.366522 248.948415 
L 377.017132 248.421924 
L 377.667743 253.254519 
L 378.318353 246.928915 
L 378.968963 251.946785 
L 379.619574 249.484169 
L 380.270184 254.809287 
L 380.920794 247.524883 
L 381.571405 249.223239 
L 382.222015 250.399737 
L 382.872625 249.43013 
L 383.523236 253.407371 
L 384.173846 244.674733 
L 384.824456 243.828643 
L 385.475066 249.715763 
L 386.125677 245.641252 
L 386.776287 247.918593 
L 387.426897 244.991245 
L 388.077508 250.568029 
L 388.728118 249.944269 
L 389.378728 246.643282 
L 390.029339 251.803197 
L 390.679949 252.792875 
L 391.330559 249.704955 
L 391.98117 252.005455 
L 392.63178 249.226327 
L 393.28239 245.81572 
L 393.933001 249.740466 
L 394.583611 247.620609 
L 395.234221 249.031788 
L 395.884831 249.612317 
L 396.535442 250.532518 
L 397.186052 248.857321 
L 397.836662 254.092889 
L 398.487273 249.748186 
L 398.487273 249.748186 
" style="fill:none;stroke:#0000ff;stroke-linecap:square;stroke-width:1.5;"/>
   </g>
   <g id="line2d_30">
    <path clip-path="url(#pdf86fe6d77)" d="M 73.832727 247.7576 
L 74.483338 232.220802 
L 75.133948 226.279641 
L 75.784558 218.889807 
L 77.085779 214.113066 
L 77.736389 212.80504 
L 78.386999 208.630792 
L 79.03761 217.633775 
L 79.68822 217.040956 
L 80.33883 220.413621 
L 80.989441 214.045394 
L 81.640051 213.098291 
L 82.290661 209.553562 
L 82.941272 207.684633 
L 83.591882 210.007125 
L 84.893103 206.14317 
L 85.543713 211.403834 
L 86.194323 212.831974 
L 86.844934 209.551235 
L 87.495544 207.107263 
L 88.146154 207.492389 
L 88.796764 210.471912 
L 89.447375 203.324926 
L 90.748595 214.349008 
L 91.399206 205.693564 
L 92.049816 206.779923 
L 92.700426 206.495031 
L 93.351037 207.371295 
L 94.001647 205.959828 
L 94.652257 206.873108 
L 95.302868 204.990184 
L 95.953478 212.442046 
L 96.604088 202.802904 
L 97.254698 203.174394 
L 97.905309 207.451164 
L 98.555919 209.630537 
L 99.206529 202.705684 
L 99.85714 205.073518 
L 100.50775 204.806603 
L 101.15836 206.437763 
L 101.808971 204.197138 
L 102.459581 202.531876 
L 103.110191 200.380756 
L 103.760802 202.078982 
L 104.411412 195.858895 
L 105.062022 200.394001 
L 105.712633 202.566894 
L 106.363243 208.781165 
L 107.013853 202.639206 
L 107.664463 205.033994 
L 108.315074 202.775877 
L 108.965684 205.574501 
L 109.616294 196.948832 
L 110.266905 206.14353 
L 110.917515 201.746788 
L 111.568125 203.212835 
L 112.218736 199.376068 
L 112.869346 209.003193 
L 113.519956 206.078538 
L 114.170567 205.370018 
L 114.821177 205.324491 
L 115.471787 200.86622 
L 116.122398 199.444919 
L 116.773008 202.987437 
L 117.423618 203.895629 
L 118.074228 204.324064 
L 118.724839 198.38831 
L 119.375449 201.702986 
L 120.026059 201.563369 
L 120.67667 203.635808 
L 121.32728 201.893566 
L 121.97789 203.577151 
L 122.628501 202.894651 
L 123.279111 198.697888 
L 123.929721 205.643952 
L 124.580332 199.676133 
L 125.230942 197.527997 
L 125.881552 196.684571 
L 127.182773 201.263568 
L 127.833383 199.383406 
L 128.483993 201.009209 
L 129.134604 201.169692 
L 129.785214 200.154279 
L 130.435824 198.59979 
L 131.086435 199.320117 
L 131.737045 198.712731 
L 133.038266 198.241817 
L 133.688876 200.207775 
L 134.339486 201.067663 
L 134.990097 203.040664 
L 135.640707 200.652985 
L 136.291317 207.487558 
L 136.941927 199.880545 
L 137.592538 202.745274 
L 138.243148 199.117808 
L 138.893758 199.662822 
L 139.544369 201.998554 
L 140.194979 201.896895 
L 140.845589 201.230474 
L 141.4962 199.812165 
L 142.14681 200.253024 
L 143.448031 203.070838 
L 144.098641 197.410896 
L 144.749251 196.396804 
L 145.399862 196.604804 
L 146.050472 201.949366 
L 146.701082 200.284603 
L 147.351692 193.661141 
L 148.002303 199.059037 
L 148.652913 201.662372 
L 149.303523 201.362418 
L 149.954134 202.458242 
L 150.604744 197.884207 
L 151.255354 196.940422 
L 151.905965 201.072814 
L 152.556575 202.285423 
L 153.207185 201.542373 
L 153.857796 197.354134 
L 154.508406 197.857228 
L 155.159016 205.723777 
L 155.809627 204.171028 
L 156.460237 201.099445 
L 157.110847 199.025428 
L 157.761457 201.425651 
L 158.412068 201.517627 
L 159.062678 196.985322 
L 159.713288 198.957193 
L 160.363899 198.696221 
L 161.014509 202.011032 
L 161.665119 197.740669 
L 162.31573 199.243896 
L 162.96634 199.03535 
L 163.61695 196.030292 
L 164.267561 198.679446 
L 164.918171 196.048397 
L 165.568781 197.732305 
L 166.219392 203.981344 
L 166.870002 199.445262 
L 168.171222 199.938201 
L 168.821833 199.391458 
L 169.472443 194.833679 
L 170.123053 206.692874 
L 170.773664 198.573826 
L 171.424274 197.262637 
L 172.074884 197.134426 
L 172.725495 196.679323 
L 173.376105 193.703184 
L 174.026715 204.377206 
L 174.677326 206.835416 
L 175.327936 200.053992 
L 175.978546 197.894077 
L 176.629156 203.400888 
L 177.279767 196.468254 
L 177.930377 193.845029 
L 178.580987 203.848984 
L 179.231598 202.042202 
L 179.882208 199.81581 
L 180.532818 194.173873 
L 181.183429 201.561148 
L 181.834039 194.202771 
L 182.484649 199.549098 
L 183.13526 202.750716 
L 183.78587 196.769766 
L 184.43648 201.107675 
L 185.087091 198.480158 
L 185.737701 198.567743 
L 186.388311 200.235529 
L 187.038921 201.480078 
L 187.689532 200.023457 
L 188.340142 201.222006 
L 188.990752 200.455598 
L 189.641363 202.128774 
L 190.942583 196.764175 
L 191.593194 197.949747 
L 192.243804 195.633953 
L 192.894414 201.212106 
L 193.545025 199.684815 
L 194.195635 196.748911 
L 195.496856 203.193869 
L 196.147466 200.039666 
L 196.798076 200.688279 
L 197.448686 198.390182 
L 198.099297 194.764021 
L 198.749907 201.795958 
L 199.400517 198.197305 
L 200.051128 199.707197 
L 200.701738 197.126055 
L 201.352348 199.929072 
L 202.002959 198.813535 
L 202.653569 201.828254 
L 203.304179 199.036129 
L 203.95479 204.945742 
L 204.6054 198.587949 
L 205.25601 201.599346 
L 205.906621 199.113839 
L 206.557231 201.771127 
L 207.207841 203.451623 
L 207.858451 198.936341 
L 208.509062 199.747025 
L 209.159672 198.539462 
L 209.810282 205.684538 
L 210.460893 194.187736 
L 211.111503 204.77757 
L 211.762113 200.470425 
L 212.412724 200.576811 
L 213.063334 199.227153 
L 213.713944 202.332164 
L 214.364555 199.527531 
L 215.015165 200.899436 
L 215.665775 194.886751 
L 216.316385 204.01196 
L 216.966996 196.710552 
L 217.617606 198.740626 
L 218.268216 199.009049 
L 218.918827 197.91999 
L 219.569437 202.252461 
L 220.220047 202.776068 
L 220.870658 202.720488 
L 221.521268 198.302837 
L 222.171878 198.558505 
L 222.822489 201.013993 
L 223.473099 196.192659 
L 224.123709 195.064522 
L 224.77432 200.207151 
L 225.42493 199.961016 
L 226.07554 198.159744 
L 226.72615 198.246243 
L 227.376761 198.524989 
L 228.027371 199.345397 
L 228.677981 203.921199 
L 229.328592 198.304199 
L 229.979202 203.204175 
L 230.629812 194.515467 
L 231.280423 198.920064 
L 231.931033 197.924218 
L 232.581643 201.339989 
L 233.232254 194.404487 
L 233.882864 200.863096 
L 234.533474 198.768025 
L 235.184085 199.895669 
L 235.834695 199.92144 
L 237.135915 195.728515 
L 237.786526 202.339714 
L 238.437136 200.120977 
L 239.087746 200.270147 
L 239.738357 197.986328 
L 240.388967 199.14839 
L 241.039577 202.269479 
L 241.690188 204.370378 
L 242.340798 201.09055 
L 242.991408 196.105958 
L 243.642019 204.193916 
L 244.943239 198.943013 
L 245.59385 202.150661 
L 246.24446 199.446792 
L 246.89507 202.195429 
L 247.54568 198.757935 
L 248.196291 197.432661 
L 248.846901 201.296399 
L 249.497511 203.853288 
L 250.148122 200.213231 
L 250.798732 202.063935 
L 251.449342 200.431348 
L 252.099953 198.088898 
L 252.750563 205.316822 
L 253.401173 200.935502 
L 254.051784 200.861617 
L 254.702394 200.456405 
L 255.353004 201.145131 
L 256.003615 201.357338 
L 256.654225 200.164876 
L 257.304835 197.927544 
L 257.955445 192.067229 
L 258.606056 202.729907 
L 259.256666 196.140635 
L 259.907276 195.283531 
L 260.557887 192.177015 
L 261.208497 198.474489 
L 261.859107 196.702261 
L 262.509718 201.061885 
L 263.160328 199.51807 
L 263.810938 199.306009 
L 264.461549 201.989868 
L 265.112159 197.554379 
L 265.762769 198.914656 
L 266.413379 203.317006 
L 267.06399 196.894498 
L 267.7146 203.284221 
L 268.36521 200.910643 
L 269.015821 202.188323 
L 269.666431 202.331466 
L 270.317041 197.49953 
L 270.967652 198.875704 
L 271.618262 194.890186 
L 272.919483 201.219501 
L 273.570093 202.417852 
L 274.220703 198.515774 
L 274.871314 193.22831 
L 275.521924 201.918141 
L 276.172534 202.762551 
L 276.823144 194.647294 
L 277.473755 202.781593 
L 278.124365 203.676573 
L 278.774975 203.480882 
L 279.425586 203.133823 
L 280.076196 199.666715 
L 280.726806 200.574151 
L 281.377417 204.133036 
L 282.028027 201.045779 
L 282.678637 201.420693 
L 283.329248 194.61495 
L 283.979858 204.148935 
L 284.630468 197.818871 
L 285.281079 202.333555 
L 285.931689 199.242093 
L 286.582299 205.451894 
L 287.232909 199.255482 
L 287.88352 201.023276 
L 288.53413 203.412316 
L 289.18474 200.763766 
L 289.835351 196.516229 
L 290.485961 195.932738 
L 291.136571 200.363198 
L 291.787182 199.488902 
L 292.437792 198.946236 
L 293.088402 197.157907 
L 293.739013 200.885652 
L 295.040233 204.232642 
L 295.690844 195.112057 
L 296.341454 204.160594 
L 296.992064 199.566912 
L 297.642674 201.131883 
L 298.293285 201.854873 
L 299.594505 196.350398 
L 300.245116 197.515468 
L 300.895726 200.244369 
L 301.546336 194.891442 
L 302.196947 193.469492 
L 302.847557 199.445241 
L 303.498167 200.257458 
L 304.148778 199.640714 
L 304.799388 202.372164 
L 305.449998 198.690918 
L 306.100608 197.670524 
L 306.751219 194.496019 
L 307.401829 200.808699 
L 308.70305 195.750999 
L 309.35366 194.667217 
L 310.00427 203.158153 
L 310.654881 200.705435 
L 311.305491 203.772535 
L 311.956101 201.181203 
L 312.606712 191.902678 
L 313.257322 194.887435 
L 313.907932 203.850111 
L 314.558543 200.820259 
L 315.209153 196.301732 
L 315.859763 201.066108 
L 316.510373 197.525221 
L 317.160984 201.20756 
L 317.811594 199.728958 
L 318.462204 194.17865 
L 319.112815 200.790314 
L 319.763425 194.512078 
L 320.414035 195.46081 
L 321.064646 198.493515 
L 321.715256 199.252172 
L 322.365866 193.641306 
L 323.016477 199.037868 
L 323.667087 196.76804 
L 324.968308 197.457255 
L 325.618918 200.420433 
L 326.269528 196.484778 
L 326.920138 203.98868 
L 327.570749 201.070012 
L 328.871969 201.468919 
L 329.52258 199.39133 
L 330.17319 201.607768 
L 330.8238 196.890875 
L 331.474411 198.641794 
L 332.125021 201.079223 
L 332.775631 201.666992 
L 333.426242 201.760764 
L 334.076852 200.809048 
L 334.727462 202.087552 
L 335.378073 197.232094 
L 336.028683 195.647508 
L 336.679293 201.668432 
L 337.980514 197.525015 
L 338.631124 196.470113 
L 339.281734 206.264443 
L 339.932345 192.302833 
L 340.582955 203.118814 
L 341.233565 199.86181 
L 341.884176 200.402337 
L 342.534786 200.721809 
L 343.185396 197.023425 
L 343.836007 205.970376 
L 345.137227 200.238143 
L 345.787837 204.391545 
L 346.438448 203.49443 
L 347.089058 202.283265 
L 347.739668 196.270177 
L 348.390279 198.251177 
L 349.040889 199.402136 
L 349.691499 203.800865 
L 350.34211 206.030802 
L 350.99272 193.689217 
L 351.64333 199.954073 
L 352.293941 201.737682 
L 352.944551 199.953148 
L 353.595161 199.366755 
L 354.245772 200.274532 
L 354.896382 199.719616 
L 355.546992 197.127137 
L 356.197602 195.299155 
L 356.848213 195.211096 
L 357.498823 200.080734 
L 358.149433 197.697576 
L 358.800044 200.581047 
L 359.450654 198.616986 
L 360.101264 205.718152 
L 360.751875 201.227891 
L 361.402485 204.525128 
L 362.053095 194.191279 
L 362.703706 196.869894 
L 363.354316 205.19833 
L 364.004926 201.065969 
L 364.655537 200.066635 
L 365.306147 205.810933 
L 365.956757 199.903956 
L 366.607367 201.098914 
L 367.257978 196.990171 
L 367.908588 198.249075 
L 368.559198 196.088498 
L 369.209809 202.274952 
L 369.860419 201.20185 
L 370.511029 202.642057 
L 371.16164 195.860542 
L 371.81225 203.519463 
L 372.46286 208.080548 
L 373.113471 203.272001 
L 373.764081 200.566816 
L 374.414691 200.245283 
L 375.715912 194.741956 
L 376.366522 200.257445 
L 377.017132 199.721854 
L 377.667743 202.041247 
L 378.318353 199.272439 
L 378.968963 199.64154 
L 379.619574 199.825396 
L 380.270184 201.823097 
L 380.920794 196.757116 
L 381.571405 197.96598 
L 382.222015 199.64908 
L 382.872625 200.541649 
L 383.523236 201.130051 
L 384.173846 193.370296 
L 384.824456 193.747333 
L 385.475066 199.600757 
L 386.125677 196.16018 
L 386.776287 200.067163 
L 387.426897 195.695708 
L 388.077508 204.866293 
L 388.728118 198.447135 
L 389.378728 196.262894 
L 390.029339 203.408625 
L 390.679949 200.337677 
L 391.330559 202.066316 
L 391.98117 201.858168 
L 392.63178 199.594962 
L 393.28239 198.184594 
L 393.933001 200.515481 
L 394.583611 198.520051 
L 395.234221 198.857527 
L 395.884831 197.281772 
L 396.535442 202.105693 
L 397.186052 199.737749 
L 397.836662 203.961128 
L 398.487273 202.164571 
L 398.487273 202.164571 
" style="fill:none;stroke:#008000;stroke-dasharray:9.6,2.4,1.5,2.4;stroke-dashoffset:0;stroke-width:1.5;"/>
   </g>
   <g id="line2d_31">
    <path clip-path="url(#pdf86fe6d77)" d="M 73.832727 169.056206 
L 74.483338 145.588014 
L 75.133948 130.765999 
L 75.784558 125.207743 
L 76.435169 127.678079 
L 77.085779 126.442911 
L 77.736389 107.915391 
L 78.386999 119.031903 
L 79.03761 139.412174 
L 79.68822 114.708815 
L 80.33883 119.031903 
L 80.989441 138.177006 
L 81.640051 147.440766 
L 82.290661 136.941838 
L 83.591882 119.649487 
L 84.242492 135.70667 
L 84.893103 101.739551 
L 85.543713 144.352846 
L 86.194323 141.264926 
L 86.844934 108.532975 
L 87.495544 111.620895 
L 88.146154 111.620895 
L 88.796764 137.559422 
L 89.447375 127.060495 
L 90.097985 133.853919 
L 90.748595 115.943983 
L 91.399206 128.913247 
L 92.049816 106.062639 
L 92.700426 133.853919 
L 93.351037 107.297807 
L 94.001647 90.623039 
L 94.652257 94.946127 
L 95.302868 132.618751 
L 95.953478 132.618751 
L 96.604088 127.060495 
L 97.254698 119.031903 
L 97.905309 88.152703 
L 98.555919 125.207743 
L 99.206529 133.853919 
L 99.85714 111.620895 
L 100.50775 123.354991 
L 101.15836 98.651631 
L 101.808971 116.561567 
L 102.459581 77.653776 
L 103.110191 123.354991 
L 103.760802 131.383583 
L 104.411412 95.563711 
L 105.062022 114.708815 
L 105.712633 91.858207 
L 106.363243 128.295663 
L 107.013853 130.765999 
L 107.664463 93.710959 
L 108.315074 119.649487 
L 108.965684 119.031903 
L 109.616294 119.649487 
L 110.266905 122.737407 
L 110.917515 133.236335 
L 111.568125 148.675934 
L 112.218736 122.737407 
L 112.869346 122.737407 
L 113.519956 130.148415 
L 114.170567 120.267071 
L 114.821177 118.414319 
L 115.471787 101.121967 
L 116.122398 132.001167 
L 116.773008 114.091231 
L 117.423618 126.442911 
L 118.074228 123.972575 
L 118.724839 77.653776 
L 119.375449 107.297807 
L 120.026059 111.003311 
L 120.67667 96.181295 
L 121.32728 109.768143 
L 122.628501 119.031903 
L 123.279111 98.651631 
L 123.929721 123.972575 
L 124.580332 113.473647 
L 125.230942 115.326399 
L 125.881552 105.445055 
L 126.532163 123.972575 
L 127.182773 115.943983 
L 127.833383 136.324254 
L 128.483993 108.532975 
L 129.134604 100.504383 
L 129.785214 118.414319 
L 130.435824 124.590159 
L 131.086435 109.150559 
L 131.737045 87.535119 
L 132.387655 135.70667 
L 133.038266 123.354991 
L 133.688876 136.324254 
L 134.339486 120.267071 
L 134.990097 112.856063 
L 135.640707 115.943983 
L 136.291317 107.915391 
L 136.941927 115.943983 
L 137.592538 133.236335 
L 138.243148 107.915391 
L 138.893758 123.354991 
L 139.544369 123.354991 
L 140.194979 107.915391 
L 140.845589 75.801024 
L 141.4962 114.708815 
L 142.14681 73.330688 
L 142.79742 114.708815 
L 143.448031 133.236335 
L 144.098641 125.207743 
L 144.749251 127.060495 
L 145.399862 109.768143 
L 146.050472 135.70667 
L 146.701082 107.297807 
L 147.351692 102.357135 
L 148.002303 113.473647 
L 148.652913 111.003311 
L 149.303523 126.442911 
L 149.954134 125.207743 
L 150.604744 136.324254 
L 151.255354 109.768143 
L 151.905965 119.649487 
L 152.556575 111.003311 
L 153.207185 124.590159 
L 153.857796 128.913247 
L 154.508406 124.590159 
L 155.159016 109.768143 
L 155.809627 118.414319 
L 156.460237 114.091231 
L 157.110847 112.856063 
L 157.761457 107.915391 
L 158.412068 137.559422 
L 159.062678 119.649487 
L 159.713288 117.796735 
L 160.363899 115.326399 
L 161.014509 132.001167 
L 161.665119 105.445055 
L 162.31573 127.678079 
L 162.96634 112.238479 
L 163.61695 80.741695 
L 164.267561 127.060495 
L 164.918171 115.326399 
L 165.568781 135.70667 
L 166.219392 137.559422 
L 166.870002 81.976863 
L 167.520612 108.532975 
L 168.171222 144.352846 
L 168.821833 113.473647 
L 169.472443 116.561567 
L 170.123053 154.851774 
L 170.773664 145.588014 
L 171.424274 118.414319 
L 172.074884 102.357135 
L 172.725495 114.091231 
L 173.376105 107.297807 
L 174.026715 106.062639 
L 174.677326 127.060495 
L 175.327936 106.680223 
L 175.978546 127.060495 
L 176.629156 143.735262 
L 177.279767 126.442911 
L 177.930377 124.590159 
L 178.580987 135.089086 
L 179.231598 128.913247 
L 179.882208 107.297807 
L 180.532818 119.031903 
L 181.183429 120.267071 
L 181.834039 111.620895 
L 182.484649 112.856063 
L 183.13526 121.502239 
L 183.78587 109.150559 
L 184.43648 125.207743 
L 185.087091 113.473647 
L 185.737701 83.829615 
L 186.388311 119.649487 
L 187.038921 127.060495 
L 187.689532 112.238479 
L 188.340142 127.678079 
L 188.990752 129.530831 
L 189.641363 89.387871 
L 190.291973 112.856063 
L 190.942583 113.473647 
L 191.593194 127.678079 
L 192.243804 75.801024 
L 192.894414 125.207743 
L 193.545025 145.588014 
L 194.195635 84.447199 
L 194.846245 125.207743 
L 195.496856 115.943983 
L 196.147466 119.649487 
L 196.798076 115.326399 
L 197.448686 130.765999 
L 198.099297 93.093375 
L 198.749907 99.886799 
L 199.400517 102.357135 
L 200.051128 123.354991 
L 201.352348 100.504383 
L 202.653569 137.559422 
L 203.304179 117.179151 
L 203.95479 130.148415 
L 204.6054 96.181295 
L 205.25601 115.943983 
L 205.906621 112.856063 
L 206.557231 127.060495 
L 207.207841 132.001167 
L 207.858451 111.003311 
L 208.509062 99.886799 
L 209.159672 109.768143 
L 209.810282 127.678079 
L 210.460893 109.150559 
L 211.111503 118.414319 
L 211.762113 112.856063 
L 212.412724 108.532975 
L 213.063334 102.357135 
L 213.713944 123.972575 
L 214.364555 89.387871 
L 215.015165 120.884655 
L 215.665775 121.502239 
L 216.316385 137.559422 
L 216.966996 120.267071 
L 217.617606 132.618751 
L 218.268216 138.79459 
L 218.918827 112.856063 
L 219.569437 124.590159 
L 220.220047 112.856063 
L 220.870658 114.091231 
L 221.521268 108.532975 
L 222.171878 109.768143 
L 222.822489 114.091231 
L 224.123709 99.269215 
L 224.77432 94.328543 
L 225.42493 127.060495 
L 226.07554 135.089086 
L 226.72615 124.590159 
L 227.376761 120.884655 
L 228.027371 99.269215 
L 228.677981 113.473647 
L 229.328592 130.765999 
L 229.979202 123.354991 
L 230.629812 128.913247 
L 231.280423 95.563711 
L 231.931033 115.326399 
L 232.581643 123.354991 
L 233.232254 60.361424 
L 233.882864 125.825327 
L 234.533474 134.471503 
L 235.184085 95.563711 
L 236.485305 114.091231 
L 237.135915 118.414319 
L 237.786526 115.326399 
L 238.437136 135.70667 
L 239.087746 117.796735 
L 239.738357 129.530831 
L 240.388967 133.853919 
L 241.039577 112.856063 
L 241.690188 117.796735 
L 242.340798 100.504383 
L 242.991408 116.561567 
L 243.642019 104.209887 
L 244.292629 127.060495 
L 244.943239 126.442911 
L 245.59385 141.88251 
L 246.24446 140.029758 
L 246.89507 98.034047 
L 247.54568 128.295663 
L 248.846901 107.915391 
L 249.497511 91.858207 
L 250.148122 124.590159 
L 250.798732 138.79459 
L 251.449342 111.003311 
L 252.099953 120.884655 
L 252.750563 120.884655 
L 253.401173 119.649487 
L 254.051784 120.267071 
L 254.702394 117.179151 
L 255.353004 101.121967 
L 256.003615 109.768143 
L 256.654225 122.119823 
L 257.304835 89.387871 
L 257.955445 102.357135 
L 258.606056 128.913247 
L 259.256666 128.913247 
L 259.907276 111.620895 
L 260.557887 120.267071 
L 261.208497 100.504383 
L 261.859107 98.034047 
L 262.509718 134.471503 
L 263.160328 111.003311 
L 263.810938 120.267071 
L 264.461549 119.649487 
L 265.112159 113.473647 
L 265.762769 114.708815 
L 266.413379 117.796735 
L 267.06399 99.269215 
L 267.7146 114.091231 
L 268.36521 101.121967 
L 269.015821 120.267071 
L 269.666431 130.765999 
L 270.317041 117.796735 
L 270.967652 115.943983 
L 271.618262 127.060495 
L 272.268872 90.005455 
L 272.919483 110.385727 
L 273.570093 90.623039 
L 274.220703 104.209887 
L 274.871314 109.768143 
L 275.521924 143.117678 
L 276.172534 111.620895 
L 276.823144 128.295663 
L 277.473755 104.827471 
L 278.124365 130.148415 
L 278.774975 53.568 
L 279.425586 122.737407 
L 280.076196 111.003311 
L 280.726806 129.530831 
L 281.377417 126.442911 
L 282.028027 115.326399 
L 282.678637 117.179151 
L 283.329248 102.357135 
L 283.979858 140.647342 
L 284.630468 112.856063 
L 285.281079 104.209887 
L 285.931689 131.383583 
L 286.582299 61.596592 
L 287.88352 133.236335 
L 288.53413 86.299951 
L 289.18474 132.618751 
L 289.835351 130.148415 
L 290.485961 91.858207 
L 291.136571 114.708815 
L 291.787182 104.827471 
L 292.437792 108.532975 
L 293.088402 122.737407 
L 293.739013 133.853919 
L 294.389623 107.915391 
L 295.040233 120.267071 
L 295.690844 122.119823 
L 296.341454 85.064783 
L 296.992064 104.209887 
L 297.642674 112.238479 
L 298.293285 115.326399 
L 298.943895 115.326399 
L 299.594505 103.592303 
L 300.245116 94.328543 
L 300.895726 133.236335 
L 301.546336 127.060495 
L 302.196947 132.618751 
L 302.847557 105.445055 
L 303.498167 119.031903 
L 304.148778 82.594447 
L 304.799388 126.442911 
L 305.449998 125.825327 
L 306.100608 119.031903 
L 306.751219 111.003311 
L 307.401829 111.620895 
L 308.052439 117.796735 
L 308.70305 91.858207 
L 309.35366 112.856063 
L 310.00427 99.269215 
L 310.654881 102.974719 
L 311.305491 127.060495 
L 311.956101 127.060495 
L 312.606712 107.915391 
L 313.257322 93.093375 
L 313.907932 136.941838 
L 314.558543 133.853919 
L 315.209153 122.737407 
L 315.859763 137.559422 
L 316.510373 102.357135 
L 317.160984 130.148415 
L 317.811594 107.915391 
L 318.462204 133.236335 
L 319.112815 106.680223 
L 319.763425 125.825327 
L 320.414035 106.680223 
L 321.064646 96.798879 
L 321.715256 73.948272 
L 322.365866 115.943983 
L 323.016477 90.005455 
L 323.667087 121.502239 
L 324.317697 120.884655 
L 324.968308 115.943983 
L 325.618918 113.473647 
L 326.269528 126.442911 
L 326.920138 125.825327 
L 327.570749 139.412174 
L 328.221359 96.181295 
L 328.871969 131.383583 
L 329.52258 112.238479 
L 330.17319 142.500094 
L 330.8238 101.121967 
L 331.474411 112.856063 
L 332.125021 136.941838 
L 332.775631 102.974719 
L 333.426242 85.682367 
L 334.076852 110.385727 
L 334.727462 111.003311 
L 335.378073 113.473647 
L 336.028683 119.031903 
L 336.679293 121.502239 
L 337.329903 125.825327 
L 337.980514 80.124112 
L 339.281734 141.88251 
L 339.932345 99.269215 
L 340.582955 119.031903 
L 341.233565 109.768143 
L 341.884176 106.680223 
L 342.534786 99.269215 
L 343.185396 115.326399 
L 343.836007 121.502239 
L 344.486617 124.590159 
L 345.137227 122.737407 
L 345.787837 128.295663 
L 346.438448 132.001167 
L 347.089058 111.003311 
L 347.739668 115.326399 
L 348.390279 132.001167 
L 349.040889 90.005455 
L 349.691499 123.354991 
L 350.34211 128.913247 
L 350.99272 113.473647 
L 351.64333 129.530831 
L 352.293941 126.442911 
L 352.944551 123.972575 
L 353.595161 118.414319 
L 354.245772 123.972575 
L 354.896382 103.592303 
L 355.546992 119.031903 
L 356.197602 121.502239 
L 356.848213 133.853919 
L 357.498823 102.357135 
L 358.149433 100.504383 
L 358.800044 127.678079 
L 359.450654 104.209887 
L 360.751875 120.267071 
L 361.402485 132.618751 
L 362.053095 117.179151 
L 362.703706 114.091231 
L 363.354316 119.031903 
L 364.004926 137.559422 
L 364.655537 122.119823 
L 365.306147 126.442911 
L 365.956757 119.649487 
L 366.607367 119.031903 
L 367.257978 123.354991 
L 367.908588 97.416463 
L 368.559198 122.119823 
L 369.209809 104.827471 
L 369.860419 135.70667 
L 371.16164 115.326399 
L 371.81225 133.236335 
L 372.46286 123.972575 
L 373.113471 127.060495 
L 373.764081 99.886799 
L 374.414691 126.442911 
L 375.065302 125.825327 
L 375.715912 117.796735 
L 376.366522 137.559422 
L 377.017132 132.618751 
L 377.667743 113.473647 
L 378.318353 101.121967 
L 378.968963 116.561567 
L 379.619574 119.649487 
L 380.270184 110.385727 
L 380.920794 114.091231 
L 381.571405 111.003311 
L 382.222015 99.886799 
L 382.872625 97.416463 
L 383.523236 117.179151 
L 384.173846 109.150559 
L 384.824456 115.326399 
L 385.475066 118.414319 
L 386.125677 131.383583 
L 386.776287 115.326399 
L 387.426897 111.620895 
L 388.077508 102.357135 
L 388.728118 128.913247 
L 389.378728 122.119823 
L 390.029339 120.884655 
L 390.679949 89.387871 
L 391.330559 123.972575 
L 391.98117 122.119823 
L 392.63178 134.471503 
L 393.28239 131.383583 
L 393.933001 111.003311 
L 394.583611 121.502239 
L 395.234221 127.678079 
L 395.884831 116.561567 
L 396.535442 139.412174 
L 397.186052 101.739551 
L 397.836662 125.207743 
L 398.487273 106.062639 
L 398.487273 106.062639 
" style="fill:none;stroke:#ff0000;stroke-linecap:square;stroke-width:1.5;"/>
   </g>
   <g id="patch_3">
    <path d="M 57.6 307.584 
L 57.6 41.472 
" style="fill:none;stroke:#000000;stroke-linecap:square;stroke-linejoin:miter;stroke-width:0.8;"/>
   </g>
   <g id="patch_4">
    <path d="M 414.72 307.584 
L 414.72 41.472 
" style="fill:none;stroke:#000000;stroke-linecap:square;stroke-linejoin:miter;stroke-width:0.8;"/>
   </g>
   <g id="patch_5">
    <path d="M 57.6 307.584 
L 414.72 307.584 
" style="fill:none;stroke:#000000;stroke-linecap:square;stroke-linejoin:miter;stroke-width:0.8;"/>
   </g>
   <g id="patch_6">
    <path d="M 57.6 41.472 
L 414.72 41.472 
" style="fill:none;stroke:#000000;stroke-linecap:square;stroke-linejoin:miter;stroke-width:0.8;"/>
   </g>
   <g id="text_17">
    <!-- Population's average and best fitness -->
    <defs>
     <path d="M 19.671875 64.796875 
L 19.671875 37.40625 
L 32.078125 37.40625 
Q 38.96875 37.40625 42.71875 40.96875 
Q 46.484375 44.53125 46.484375 51.125 
Q 46.484375 57.671875 42.71875 61.234375 
Q 38.96875 64.796875 32.078125 64.796875 
z
M 9.8125 72.90625 
L 32.078125 72.90625 
Q 44.34375 72.90625 50.609375 67.359375 
Q 56.890625 61.8125 56.890625 51.125 
Q 56.890625 40.328125 50.609375 34.8125 
Q 44.34375 29.296875 32.078125 29.296875 
L 19.671875 29.296875 
L 19.671875 0 
L 9.8125 0 
z
" id="DejaVuSans-80"/>
     <path d="M 18.109375 8.203125 
L 18.109375 -20.796875 
L 9.078125 -20.796875 
L 9.078125 54.6875 
L 18.109375 54.6875 
L 18.109375 46.390625 
Q 20.953125 51.265625 25.265625 53.625 
Q 29.59375 56 35.59375 56 
Q 45.5625 56 51.78125 48.09375 
Q 58.015625 40.1875 58.015625 27.296875 
Q 58.015625 14.40625 51.78125 6.484375 
Q 45.5625 -1.421875 35.59375 -1.421875 
Q 29.59375 -1.421875 25.265625 0.953125 
Q 20.953125 3.328125 18.109375 8.203125 
z
M 48.6875 27.296875 
Q 48.6875 37.203125 44.609375 42.84375 
Q 40.53125 48.484375 33.40625 48.484375 
Q 26.265625 48.484375 22.1875 42.84375 
Q 18.109375 37.203125 18.109375 27.296875 
Q 18.109375 17.390625 22.1875 11.75 
Q 26.265625 6.109375 33.40625 6.109375 
Q 40.53125 6.109375 44.609375 11.75 
Q 48.6875 17.390625 48.6875 27.296875 
z
" id="DejaVuSans-112"/>
     <path d="M 8.5 21.578125 
L 8.5 54.6875 
L 17.484375 54.6875 
L 17.484375 21.921875 
Q 17.484375 14.15625 20.5 10.265625 
Q 23.53125 6.390625 29.59375 6.390625 
Q 36.859375 6.390625 41.078125 11.03125 
Q 45.3125 15.671875 45.3125 23.6875 
L 45.3125 54.6875 
L 54.296875 54.6875 
L 54.296875 0 
L 45.3125 0 
L 45.3125 8.40625 
Q 42.046875 3.421875 37.71875 1 
Q 33.40625 -1.421875 27.6875 -1.421875 
Q 18.265625 -1.421875 13.375 4.4375 
Q 8.5 10.296875 8.5 21.578125 
z
M 31.109375 56 
z
" id="DejaVuSans-117"/>
     <path d="M 9.421875 75.984375 
L 18.40625 75.984375 
L 18.40625 0 
L 9.421875 0 
z
" id="DejaVuSans-108"/>
     <path d="M 17.921875 72.90625 
L 17.921875 45.796875 
L 9.625 45.796875 
L 9.625 72.90625 
z
" id="DejaVuSans-39"/>
     <path id="DejaVuSans-32"/>
     <path d="M 2.984375 54.6875 
L 12.5 54.6875 
L 29.59375 8.796875 
L 46.6875 54.6875 
L 56.203125 54.6875 
L 35.6875 0 
L 23.484375 0 
z
" id="DejaVuSans-118"/>
     <path d="M 45.40625 27.984375 
Q 45.40625 37.75 41.375 43.109375 
Q 37.359375 48.484375 30.078125 48.484375 
Q 22.859375 48.484375 18.828125 43.109375 
Q 14.796875 37.75 14.796875 27.984375 
Q 14.796875 18.265625 18.828125 12.890625 
Q 22.859375 7.515625 30.078125 7.515625 
Q 37.359375 7.515625 41.375 12.890625 
Q 45.40625 18.265625 45.40625 27.984375 
z
M 54.390625 6.78125 
Q 54.390625 -7.171875 48.1875 -13.984375 
Q 42 -20.796875 29.203125 -20.796875 
Q 24.46875 -20.796875 20.265625 -20.09375 
Q 16.0625 -19.390625 12.109375 -17.921875 
L 12.109375 -9.1875 
Q 16.0625 -11.328125 19.921875 -12.34375 
Q 23.78125 -13.375 27.78125 -13.375 
Q 36.625 -13.375 41.015625 -8.765625 
Q 45.40625 -4.15625 45.40625 5.171875 
L 45.40625 9.625 
Q 42.625 4.78125 38.28125 2.390625 
Q 33.9375 0 27.875 0 
Q 17.828125 0 11.671875 7.65625 
Q 5.515625 15.328125 5.515625 27.984375 
Q 5.515625 40.671875 11.671875 48.328125 
Q 17.828125 56 27.875 56 
Q 33.9375 56 38.28125 53.609375 
Q 42.625 51.21875 45.40625 46.390625 
L 45.40625 54.6875 
L 54.390625 54.6875 
z
" id="DejaVuSans-103"/>
     <path d="M 45.40625 46.390625 
L 45.40625 75.984375 
L 54.390625 75.984375 
L 54.390625 0 
L 45.40625 0 
L 45.40625 8.203125 
Q 42.578125 3.328125 38.25 0.953125 
Q 33.9375 -1.421875 27.875 -1.421875 
Q 17.96875 -1.421875 11.734375 6.484375 
Q 5.515625 14.40625 5.515625 27.296875 
Q 5.515625 40.1875 11.734375 48.09375 
Q 17.96875 56 27.875 56 
Q 33.9375 56 38.25 53.625 
Q 42.578125 51.265625 45.40625 46.390625 
z
M 14.796875 27.296875 
Q 14.796875 17.390625 18.875 11.75 
Q 22.953125 6.109375 30.078125 6.109375 
Q 37.203125 6.109375 41.296875 11.75 
Q 45.40625 17.390625 45.40625 27.296875 
Q 45.40625 37.203125 41.296875 42.84375 
Q 37.203125 48.484375 30.078125 48.484375 
Q 22.953125 48.484375 18.875 42.84375 
Q 14.796875 37.203125 14.796875 27.296875 
z
" id="DejaVuSans-100"/>
     <path d="M 48.6875 27.296875 
Q 48.6875 37.203125 44.609375 42.84375 
Q 40.53125 48.484375 33.40625 48.484375 
Q 26.265625 48.484375 22.1875 42.84375 
Q 18.109375 37.203125 18.109375 27.296875 
Q 18.109375 17.390625 22.1875 11.75 
Q 26.265625 6.109375 33.40625 6.109375 
Q 40.53125 6.109375 44.609375 11.75 
Q 48.6875 17.390625 48.6875 27.296875 
z
M 18.109375 46.390625 
Q 20.953125 51.265625 25.265625 53.625 
Q 29.59375 56 35.59375 56 
Q 45.5625 56 51.78125 48.09375 
Q 58.015625 40.1875 58.015625 27.296875 
Q 58.015625 14.40625 51.78125 6.484375 
Q 45.5625 -1.421875 35.59375 -1.421875 
Q 29.59375 -1.421875 25.265625 0.953125 
Q 20.953125 3.328125 18.109375 8.203125 
L 18.109375 0 
L 9.078125 0 
L 9.078125 75.984375 
L 18.109375 75.984375 
z
" id="DejaVuSans-98"/>
     <path d="M 37.109375 75.984375 
L 37.109375 68.5 
L 28.515625 68.5 
Q 23.6875 68.5 21.796875 66.546875 
Q 19.921875 64.59375 19.921875 59.515625 
L 19.921875 54.6875 
L 34.71875 54.6875 
L 34.71875 47.703125 
L 19.921875 47.703125 
L 19.921875 0 
L 10.890625 0 
L 10.890625 47.703125 
L 2.296875 47.703125 
L 2.296875 54.6875 
L 10.890625 54.6875 
L 10.890625 58.5 
Q 10.890625 67.625 15.140625 71.796875 
Q 19.390625 75.984375 28.609375 75.984375 
z
" id="DejaVuSans-102"/>
    </defs>
    <g transform="translate(123.315 35.472)scale(0.12 -0.12)">
     <use xlink:href="#DejaVuSans-80"/>
     <use x="60.255859" xlink:href="#DejaVuSans-111"/>
     <use x="121.4375" xlink:href="#DejaVuSans-112"/>
     <use x="184.914062" xlink:href="#DejaVuSans-117"/>
     <use x="248.292969" xlink:href="#DejaVuSans-108"/>
     <use x="276.076172" xlink:href="#DejaVuSans-97"/>
     <use x="337.355469" xlink:href="#DejaVuSans-116"/>
     <use x="376.564453" xlink:href="#DejaVuSans-105"/>
     <use x="404.347656" xlink:href="#DejaVuSans-111"/>
     <use x="465.529297" xlink:href="#DejaVuSans-110"/>
     <use x="528.908203" xlink:href="#DejaVuSans-39"/>
     <use x="556.398438" xlink:href="#DejaVuSans-115"/>
     <use x="608.498047" xlink:href="#DejaVuSans-32"/>
     <use x="640.285156" xlink:href="#DejaVuSans-97"/>
     <use x="701.564453" xlink:href="#DejaVuSans-118"/>
     <use x="760.744141" xlink:href="#DejaVuSans-101"/>
     <use x="822.267578" xlink:href="#DejaVuSans-114"/>
     <use x="863.380859" xlink:href="#DejaVuSans-97"/>
     <use x="924.660156" xlink:href="#DejaVuSans-103"/>
     <use x="988.136719" xlink:href="#DejaVuSans-101"/>
     <use x="1049.660156" xlink:href="#DejaVuSans-32"/>
     <use x="1081.447266" xlink:href="#DejaVuSans-97"/>
     <use x="1142.726562" xlink:href="#DejaVuSans-110"/>
     <use x="1206.105469" xlink:href="#DejaVuSans-100"/>
     <use x="1269.582031" xlink:href="#DejaVuSans-32"/>
     <use x="1301.369141" xlink:href="#DejaVuSans-98"/>
     <use x="1364.845703" xlink:href="#DejaVuSans-101"/>
     <use x="1426.369141" xlink:href="#DejaVuSans-115"/>
     <use x="1478.46875" xlink:href="#DejaVuSans-116"/>
     <use x="1517.677734" xlink:href="#DejaVuSans-32"/>
     <use x="1549.464844" xlink:href="#DejaVuSans-102"/>
     <use x="1584.669922" xlink:href="#DejaVuSans-105"/>
     <use x="1612.453125" xlink:href="#DejaVuSans-116"/>
     <use x="1651.662109" xlink:href="#DejaVuSans-110"/>
     <use x="1715.041016" xlink:href="#DejaVuSans-101"/>
     <use x="1776.564453" xlink:href="#DejaVuSans-115"/>
     <use x="1828.664062" xlink:href="#DejaVuSans-115"/>
    </g>
   </g>
   <g id="legend_1">
    <g id="patch_7">
     <path d="M 334.779375 302.584 
L 407.72 302.584 
Q 409.72 302.584 409.72 300.584 
L 409.72 257.549625 
Q 409.72 255.549625 407.72 255.549625 
L 334.779375 255.549625 
Q 332.779375 255.549625 332.779375 257.549625 
L 332.779375 300.584 
Q 332.779375 302.584 334.779375 302.584 
z
" style="fill:#ffffff;opacity:0.8;stroke:#cccccc;stroke-linejoin:miter;"/>
    </g>
    <g id="line2d_32">
     <path d="M 336.779375 263.648062 
L 356.779375 263.648062 
" style="fill:none;stroke:#0000ff;stroke-linecap:square;stroke-width:1.5;"/>
    </g>
    <g id="line2d_33"/>
    <g id="text_18">
     <!-- average -->
     <g transform="translate(364.779375 267.148062)scale(0.1 -0.1)">
      <use xlink:href="#DejaVuSans-97"/>
      <use x="61.279297" xlink:href="#DejaVuSans-118"/>
      <use x="120.458984" xlink:href="#DejaVuSans-101"/>
      <use x="181.982422" xlink:href="#DejaVuSans-114"/>
      <use x="223.095703" xlink:href="#DejaVuSans-97"/>
      <use x="284.375" xlink:href="#DejaVuSans-103"/>
      <use x="347.851562" xlink:href="#DejaVuSans-101"/>
     </g>
    </g>
    <g id="line2d_34">
     <path d="M 336.779375 278.326188 
L 356.779375 278.326188 
" style="fill:none;stroke:#008000;stroke-dasharray:9.6,2.4,1.5,2.4;stroke-dashoffset:0;stroke-width:1.5;"/>
    </g>
    <g id="line2d_35"/>
    <g id="text_19">
     <!-- +1 sd -->
     <defs>
      <path d="M 46 62.703125 
L 46 35.5 
L 73.1875 35.5 
L 73.1875 27.203125 
L 46 27.203125 
L 46 0 
L 37.796875 0 
L 37.796875 27.203125 
L 10.59375 27.203125 
L 10.59375 35.5 
L 37.796875 35.5 
L 37.796875 62.703125 
z
" id="DejaVuSans-43"/>
     </defs>
     <g transform="translate(364.779375 281.826188)scale(0.1 -0.1)">
      <use xlink:href="#DejaVuSans-43"/>
      <use x="83.789062" xlink:href="#DejaVuSans-49"/>
      <use x="147.412109" xlink:href="#DejaVuSans-32"/>
      <use x="179.199219" xlink:href="#DejaVuSans-115"/>
      <use x="231.298828" xlink:href="#DejaVuSans-100"/>
     </g>
    </g>
    <g id="line2d_36">
     <path d="M 336.779375 293.004312 
L 356.779375 293.004312 
" style="fill:none;stroke:#ff0000;stroke-linecap:square;stroke-width:1.5;"/>
    </g>
    <g id="line2d_37"/>
    <g id="text_20">
     <!-- best -->
     <g transform="translate(364.779375 296.504312)scale(0.1 -0.1)">
      <use xlink:href="#DejaVuSans-98"/>
      <use x="63.476562" xlink:href="#DejaVuSans-101"/>
      <use x="125" xlink:href="#DejaVuSans-115"/>
      <use x="177.099609" xlink:href="#DejaVuSans-116"/>
     </g>
    </g>
   </g>
  </g>
 </g>
 <defs>
  <clipPath id="pdf86fe6d77">
   <rect height="266.112" width="357.12" x="57.6" y="41.472"/>
  </clipPath>
 </defs>
</svg>
