<?xml version="1.0" encoding="utf-8" standalone="no"?>
<!DOCTYPE svg PUBLIC "-//W3C//DTD SVG 1.1//EN"
  "http://www.w3.org/Graphics/SVG/1.1/DTD/svg11.dtd">
<!-- Created with matplotlib (https://matplotlib.org/) -->
<svg height="345.6pt" version="1.1" viewBox="0 0 460.8 345.6" width="460.8pt" xmlns="http://www.w3.org/2000/svg" xmlns:xlink="http://www.w3.org/1999/xlink">
 <defs>
  <style type="text/css">
*{stroke-linecap:butt;stroke-linejoin:round;}
  </style>
 </defs>
 <g id="figure_1">
  <g id="patch_1">
   <path d="M 0 345.6 
L 460.8 345.6 
L 460.8 0 
L 0 0 
z
" style="fill:#ffffff;"/>
  </g>
  <g id="axes_1">
   <g id="patch_2">
    <path d="M 57.6 307.584 
L 414.72 307.584 
L 414.72 41.472 
L 57.6 41.472 
z
" style="fill:#ffffff;"/>
   </g>
   <g id="matplotlib.axis_1">
    <g id="xtick_1">
     <g id="line2d_1">
      <path clip-path="url(#p5f38e956c7)" d="M 73.832727 307.584 
L 73.832727 41.472 
" style="fill:none;stroke:#b0b0b0;stroke-linecap:square;stroke-width:0.8;"/>
     </g>
     <g id="line2d_2">
      <defs>
       <path d="M 0 0 
L 0 3.5 
" id="mcd9a27c4d6" style="stroke:#000000;stroke-width:0.8;"/>
      </defs>
      <g>
       <use style="stroke:#000000;stroke-width:0.8;" x="73.832727" xlink:href="#mcd9a27c4d6" y="307.584"/>
      </g>
     </g>
     <g id="text_1">
      <!-- 0 -->
      <defs>
       <path d="M 31.78125 66.40625 
Q 24.171875 66.40625 20.328125 58.90625 
Q 16.5 51.421875 16.5 36.375 
Q 16.5 21.390625 20.328125 13.890625 
Q 24.171875 6.390625 31.78125 6.390625 
Q 39.453125 6.390625 43.28125 13.890625 
Q 47.125 21.390625 47.125 36.375 
Q 47.125 51.421875 43.28125 58.90625 
Q 39.453125 66.40625 31.78125 66.40625 
z
M 31.78125 74.21875 
Q 44.046875 74.21875 50.515625 64.515625 
Q 56.984375 54.828125 56.984375 36.375 
Q 56.984375 17.96875 50.515625 8.265625 
Q 44.046875 -1.421875 31.78125 -1.421875 
Q 19.53125 -1.421875 13.0625 8.265625 
Q 6.59375 17.96875 6.59375 36.375 
Q 6.59375 54.828125 13.0625 64.515625 
Q 19.53125 74.21875 31.78125 74.21875 
z
" id="DejaVuSans-48"/>
      </defs>
      <g transform="translate(70.651477 322.182437)scale(0.1 -0.1)">
       <use xlink:href="#DejaVuSans-48"/>
      </g>
     </g>
    </g>
    <g id="xtick_2">
     <g id="line2d_3">
      <path clip-path="url(#p5f38e956c7)" d="M 114.618474 307.584 
L 114.618474 41.472 
" style="fill:none;stroke:#b0b0b0;stroke-linecap:square;stroke-width:0.8;"/>
     </g>
     <g id="line2d_4">
      <g>
       <use style="stroke:#000000;stroke-width:0.8;" x="114.618474" xlink:href="#mcd9a27c4d6" y="307.584"/>
      </g>
     </g>
     <g id="text_2">
      <!-- 25 -->
      <defs>
       <path d="M 19.1875 8.296875 
L 53.609375 8.296875 
L 53.609375 0 
L 7.328125 0 
L 7.328125 8.296875 
Q 12.9375 14.109375 22.625 23.890625 
Q 32.328125 33.6875 34.8125 36.53125 
Q 39.546875 41.84375 41.421875 45.53125 
Q 43.3125 49.21875 43.3125 52.78125 
Q 43.3125 58.59375 39.234375 62.25 
Q 35.15625 65.921875 28.609375 65.921875 
Q 23.96875 65.921875 18.8125 64.3125 
Q 13.671875 62.703125 7.8125 59.421875 
L 7.8125 69.390625 
Q 13.765625 71.78125 18.9375 73 
Q 24.125 74.21875 28.421875 74.21875 
Q 39.75 74.21875 46.484375 68.546875 
Q 53.21875 62.890625 53.21875 53.421875 
Q 53.21875 48.921875 51.53125 44.890625 
Q 49.859375 40.875 45.40625 35.40625 
Q 44.1875 33.984375 37.640625 27.21875 
Q 31.109375 20.453125 19.1875 8.296875 
z
" id="DejaVuSans-50"/>
       <path d="M 10.796875 72.90625 
L 49.515625 72.90625 
L 49.515625 64.59375 
L 19.828125 64.59375 
L 19.828125 46.734375 
Q 21.96875 47.46875 24.109375 47.828125 
Q 26.265625 48.1875 28.421875 48.1875 
Q 40.625 48.1875 47.75 41.5 
Q 54.890625 34.8125 54.890625 23.390625 
Q 54.890625 11.625 47.5625 5.09375 
Q 40.234375 -1.421875 26.90625 -1.421875 
Q 22.3125 -1.421875 17.546875 -0.640625 
Q 12.796875 0.140625 7.71875 1.703125 
L 7.71875 11.625 
Q 12.109375 9.234375 16.796875 8.0625 
Q 21.484375 6.890625 26.703125 6.890625 
Q 35.15625 6.890625 40.078125 11.328125 
Q 45.015625 15.765625 45.015625 23.390625 
Q 45.015625 31 40.078125 35.4375 
Q 35.15625 39.890625 26.703125 39.890625 
Q 22.75 39.890625 18.8125 39.015625 
Q 14.890625 38.140625 10.796875 36.28125 
z
" id="DejaVuSans-53"/>
      </defs>
      <g transform="translate(108.255974 322.182437)scale(0.1 -0.1)">
       <use xlink:href="#DejaVuSans-50"/>
       <use x="63.623047" xlink:href="#DejaVuSans-53"/>
      </g>
     </g>
    </g>
    <g id="xtick_3">
     <g id="line2d_5">
      <path clip-path="url(#p5f38e956c7)" d="M 155.404221 307.584 
L 155.404221 41.472 
" style="fill:none;stroke:#b0b0b0;stroke-linecap:square;stroke-width:0.8;"/>
     </g>
     <g id="line2d_6">
      <g>
       <use style="stroke:#000000;stroke-width:0.8;" x="155.404221" xlink:href="#mcd9a27c4d6" y="307.584"/>
      </g>
     </g>
     <g id="text_3">
      <!-- 50 -->
      <g transform="translate(149.041721 322.182437)scale(0.1 -0.1)">
       <use xlink:href="#DejaVuSans-53"/>
       <use x="63.623047" xlink:href="#DejaVuSans-48"/>
      </g>
     </g>
    </g>
    <g id="xtick_4">
     <g id="line2d_7">
      <path clip-path="url(#p5f38e956c7)" d="M 196.189968 307.584 
L 196.189968 41.472 
" style="fill:none;stroke:#b0b0b0;stroke-linecap:square;stroke-width:0.8;"/>
     </g>
     <g id="line2d_8">
      <g>
       <use style="stroke:#000000;stroke-width:0.8;" x="196.189968" xlink:href="#mcd9a27c4d6" y="307.584"/>
      </g>
     </g>
     <g id="text_4">
      <!-- 75 -->
      <defs>
       <path d="M 8.203125 72.90625 
L 55.078125 72.90625 
L 55.078125 68.703125 
L 28.609375 0 
L 18.3125 0 
L 43.21875 64.59375 
L 8.203125 64.59375 
z
" id="DejaVuSans-55"/>
      </defs>
      <g transform="translate(189.827468 322.182437)scale(0.1 -0.1)">
       <use xlink:href="#DejaVuSans-55"/>
       <use x="63.623047" xlink:href="#DejaVuSans-53"/>
      </g>
     </g>
    </g>
    <g id="xtick_5">
     <g id="line2d_9">
      <path clip-path="url(#p5f38e956c7)" d="M 236.975715 307.584 
L 236.975715 41.472 
" style="fill:none;stroke:#b0b0b0;stroke-linecap:square;stroke-width:0.8;"/>
     </g>
     <g id="line2d_10">
      <g>
       <use style="stroke:#000000;stroke-width:0.8;" x="236.975715" xlink:href="#mcd9a27c4d6" y="307.584"/>
      </g>
     </g>
     <g id="text_5">
      <!-- 100 -->
      <defs>
       <path d="M 12.40625 8.296875 
L 28.515625 8.296875 
L 28.515625 63.921875 
L 10.984375 60.40625 
L 10.984375 69.390625 
L 28.421875 72.90625 
L 38.28125 72.90625 
L 38.28125 8.296875 
L 54.390625 8.296875 
L 54.390625 0 
L 12.40625 0 
z
" id="DejaVuSans-49"/>
      </defs>
      <g transform="translate(227.431965 322.182437)scale(0.1 -0.1)">
       <use xlink:href="#DejaVuSans-49"/>
       <use x="63.623047" xlink:href="#DejaVuSans-48"/>
       <use x="127.246094" xlink:href="#DejaVuSans-48"/>
      </g>
     </g>
    </g>
    <g id="xtick_6">
     <g id="line2d_11">
      <path clip-path="url(#p5f38e956c7)" d="M 277.761462 307.584 
L 277.761462 41.472 
" style="fill:none;stroke:#b0b0b0;stroke-linecap:square;stroke-width:0.8;"/>
     </g>
     <g id="line2d_12">
      <g>
       <use style="stroke:#000000;stroke-width:0.8;" x="277.761462" xlink:href="#mcd9a27c4d6" y="307.584"/>
      </g>
     </g>
     <g id="text_6">
      <!-- 125 -->
      <g transform="translate(268.217712 322.182437)scale(0.1 -0.1)">
       <use xlink:href="#DejaVuSans-49"/>
       <use x="63.623047" xlink:href="#DejaVuSans-50"/>
       <use x="127.246094" xlink:href="#DejaVuSans-53"/>
      </g>
     </g>
    </g>
    <g id="xtick_7">
     <g id="line2d_13">
      <path clip-path="url(#p5f38e956c7)" d="M 318.547209 307.584 
L 318.547209 41.472 
" style="fill:none;stroke:#b0b0b0;stroke-linecap:square;stroke-width:0.8;"/>
     </g>
     <g id="line2d_14">
      <g>
       <use style="stroke:#000000;stroke-width:0.8;" x="318.547209" xlink:href="#mcd9a27c4d6" y="307.584"/>
      </g>
     </g>
     <g id="text_7">
      <!-- 150 -->
      <g transform="translate(309.003459 322.182437)scale(0.1 -0.1)">
       <use xlink:href="#DejaVuSans-49"/>
       <use x="63.623047" xlink:href="#DejaVuSans-53"/>
       <use x="127.246094" xlink:href="#DejaVuSans-48"/>
      </g>
     </g>
    </g>
    <g id="xtick_8">
     <g id="line2d_15">
      <path clip-path="url(#p5f38e956c7)" d="M 359.332956 307.584 
L 359.332956 41.472 
" style="fill:none;stroke:#b0b0b0;stroke-linecap:square;stroke-width:0.8;"/>
     </g>
     <g id="line2d_16">
      <g>
       <use style="stroke:#000000;stroke-width:0.8;" x="359.332956" xlink:href="#mcd9a27c4d6" y="307.584"/>
      </g>
     </g>
     <g id="text_8">
      <!-- 175 -->
      <g transform="translate(349.789206 322.182437)scale(0.1 -0.1)">
       <use xlink:href="#DejaVuSans-49"/>
       <use x="63.623047" xlink:href="#DejaVuSans-55"/>
       <use x="127.246094" xlink:href="#DejaVuSans-53"/>
      </g>
     </g>
    </g>
    <g id="xtick_9">
     <g id="line2d_17">
      <path clip-path="url(#p5f38e956c7)" d="M 400.118703 307.584 
L 400.118703 41.472 
" style="fill:none;stroke:#b0b0b0;stroke-linecap:square;stroke-width:0.8;"/>
     </g>
     <g id="line2d_18">
      <g>
       <use style="stroke:#000000;stroke-width:0.8;" x="400.118703" xlink:href="#mcd9a27c4d6" y="307.584"/>
      </g>
     </g>
     <g id="text_9">
      <!-- 200 -->
      <g transform="translate(390.574953 322.182437)scale(0.1 -0.1)">
       <use xlink:href="#DejaVuSans-50"/>
       <use x="63.623047" xlink:href="#DejaVuSans-48"/>
       <use x="127.246094" xlink:href="#DejaVuSans-48"/>
      </g>
     </g>
    </g>
    <g id="text_10">
     <!-- Generations -->
     <defs>
      <path d="M 59.515625 10.40625 
L 59.515625 29.984375 
L 43.40625 29.984375 
L 43.40625 38.09375 
L 69.28125 38.09375 
L 69.28125 6.78125 
Q 63.578125 2.734375 56.6875 0.65625 
Q 49.8125 -1.421875 42 -1.421875 
Q 24.90625 -1.421875 15.25 8.5625 
Q 5.609375 18.5625 5.609375 36.375 
Q 5.609375 54.25 15.25 64.234375 
Q 24.90625 74.21875 42 74.21875 
Q 49.125 74.21875 55.546875 72.453125 
Q 61.96875 70.703125 67.390625 67.28125 
L 67.390625 56.78125 
Q 61.921875 61.421875 55.765625 63.765625 
Q 49.609375 66.109375 42.828125 66.109375 
Q 29.4375 66.109375 22.71875 58.640625 
Q 16.015625 51.171875 16.015625 36.375 
Q 16.015625 21.625 22.71875 14.15625 
Q 29.4375 6.6875 42.828125 6.6875 
Q 48.046875 6.6875 52.140625 7.59375 
Q 56.25 8.5 59.515625 10.40625 
z
" id="DejaVuSans-71"/>
      <path d="M 56.203125 29.59375 
L 56.203125 25.203125 
L 14.890625 25.203125 
Q 15.484375 15.921875 20.484375 11.0625 
Q 25.484375 6.203125 34.421875 6.203125 
Q 39.59375 6.203125 44.453125 7.46875 
Q 49.3125 8.734375 54.109375 11.28125 
L 54.109375 2.78125 
Q 49.265625 0.734375 44.1875 -0.34375 
Q 39.109375 -1.421875 33.890625 -1.421875 
Q 20.796875 -1.421875 13.15625 6.1875 
Q 5.515625 13.8125 5.515625 26.8125 
Q 5.515625 40.234375 12.765625 48.109375 
Q 20.015625 56 32.328125 56 
Q 43.359375 56 49.78125 48.890625 
Q 56.203125 41.796875 56.203125 29.59375 
z
M 47.21875 32.234375 
Q 47.125 39.59375 43.09375 43.984375 
Q 39.0625 48.390625 32.421875 48.390625 
Q 24.90625 48.390625 20.390625 44.140625 
Q 15.875 39.890625 15.1875 32.171875 
z
" id="DejaVuSans-101"/>
      <path d="M 54.890625 33.015625 
L 54.890625 0 
L 45.90625 0 
L 45.90625 32.71875 
Q 45.90625 40.484375 42.875 44.328125 
Q 39.84375 48.1875 33.796875 48.1875 
Q 26.515625 48.1875 22.3125 43.546875 
Q 18.109375 38.921875 18.109375 30.90625 
L 18.109375 0 
L 9.078125 0 
L 9.078125 54.6875 
L 18.109375 54.6875 
L 18.109375 46.1875 
Q 21.34375 51.125 25.703125 53.5625 
Q 30.078125 56 35.796875 56 
Q 45.21875 56 50.046875 50.171875 
Q 54.890625 44.34375 54.890625 33.015625 
z
" id="DejaVuSans-110"/>
      <path d="M 41.109375 46.296875 
Q 39.59375 47.171875 37.8125 47.578125 
Q 36.03125 48 33.890625 48 
Q 26.265625 48 22.1875 43.046875 
Q 18.109375 38.09375 18.109375 28.8125 
L 18.109375 0 
L 9.078125 0 
L 9.078125 54.6875 
L 18.109375 54.6875 
L 18.109375 46.1875 
Q 20.953125 51.171875 25.484375 53.578125 
Q 30.03125 56 36.53125 56 
Q 37.453125 56 38.578125 55.875 
Q 39.703125 55.765625 41.0625 55.515625 
z
" id="DejaVuSans-114"/>
      <path d="M 34.28125 27.484375 
Q 23.390625 27.484375 19.1875 25 
Q 14.984375 22.515625 14.984375 16.5 
Q 14.984375 11.71875 18.140625 8.90625 
Q 21.296875 6.109375 26.703125 6.109375 
Q 34.1875 6.109375 38.703125 11.40625 
Q 43.21875 16.703125 43.21875 25.484375 
L 43.21875 27.484375 
z
M 52.203125 31.203125 
L 52.203125 0 
L 43.21875 0 
L 43.21875 8.296875 
Q 40.140625 3.328125 35.546875 0.953125 
Q 30.953125 -1.421875 24.3125 -1.421875 
Q 15.921875 -1.421875 10.953125 3.296875 
Q 6 8.015625 6 15.921875 
Q 6 25.140625 12.171875 29.828125 
Q 18.359375 34.515625 30.609375 34.515625 
L 43.21875 34.515625 
L 43.21875 35.40625 
Q 43.21875 41.609375 39.140625 45 
Q 35.0625 48.390625 27.6875 48.390625 
Q 23 48.390625 18.546875 47.265625 
Q 14.109375 46.140625 10.015625 43.890625 
L 10.015625 52.203125 
Q 14.9375 54.109375 19.578125 55.046875 
Q 24.21875 56 28.609375 56 
Q 40.484375 56 46.34375 49.84375 
Q 52.203125 43.703125 52.203125 31.203125 
z
" id="DejaVuSans-97"/>
      <path d="M 18.3125 70.21875 
L 18.3125 54.6875 
L 36.8125 54.6875 
L 36.8125 47.703125 
L 18.3125 47.703125 
L 18.3125 18.015625 
Q 18.3125 11.328125 20.140625 9.421875 
Q 21.96875 7.515625 27.59375 7.515625 
L 36.8125 7.515625 
L 36.8125 0 
L 27.59375 0 
Q 17.1875 0 13.234375 3.875 
Q 9.28125 7.765625 9.28125 18.015625 
L 9.28125 47.703125 
L 2.6875 47.703125 
L 2.6875 54.6875 
L 9.28125 54.6875 
L 9.28125 70.21875 
z
" id="DejaVuSans-116"/>
      <path d="M 9.421875 54.6875 
L 18.40625 54.6875 
L 18.40625 0 
L 9.421875 0 
z
M 9.421875 75.984375 
L 18.40625 75.984375 
L 18.40625 64.59375 
L 9.421875 64.59375 
z
" id="DejaVuSans-105"/>
      <path d="M 30.609375 48.390625 
Q 23.390625 48.390625 19.1875 42.75 
Q 14.984375 37.109375 14.984375 27.296875 
Q 14.984375 17.484375 19.15625 11.84375 
Q 23.34375 6.203125 30.609375 6.203125 
Q 37.796875 6.203125 41.984375 11.859375 
Q 46.1875 17.53125 46.1875 27.296875 
Q 46.1875 37.015625 41.984375 42.703125 
Q 37.796875 48.390625 30.609375 48.390625 
z
M 30.609375 56 
Q 42.328125 56 49.015625 48.375 
Q 55.71875 40.765625 55.71875 27.296875 
Q 55.71875 13.875 49.015625 6.21875 
Q 42.328125 -1.421875 30.609375 -1.421875 
Q 18.84375 -1.421875 12.171875 6.21875 
Q 5.515625 13.875 5.515625 27.296875 
Q 5.515625 40.765625 12.171875 48.375 
Q 18.84375 56 30.609375 56 
z
" id="DejaVuSans-111"/>
      <path d="M 44.28125 53.078125 
L 44.28125 44.578125 
Q 40.484375 46.53125 36.375 47.5 
Q 32.28125 48.484375 27.875 48.484375 
Q 21.1875 48.484375 17.84375 46.4375 
Q 14.5 44.390625 14.5 40.28125 
Q 14.5 37.15625 16.890625 35.375 
Q 19.28125 33.59375 26.515625 31.984375 
L 29.59375 31.296875 
Q 39.15625 29.25 43.1875 25.515625 
Q 47.21875 21.78125 47.21875 15.09375 
Q 47.21875 7.46875 41.1875 3.015625 
Q 35.15625 -1.421875 24.609375 -1.421875 
Q 20.21875 -1.421875 15.453125 -0.5625 
Q 10.6875 0.296875 5.421875 2 
L 5.421875 11.28125 
Q 10.40625 8.6875 15.234375 7.390625 
Q 20.0625 6.109375 24.8125 6.109375 
Q 31.15625 6.109375 34.5625 8.28125 
Q 37.984375 10.453125 37.984375 14.40625 
Q 37.984375 18.0625 35.515625 20.015625 
Q 33.0625 21.96875 24.703125 23.78125 
L 21.578125 24.515625 
Q 13.234375 26.265625 9.515625 29.90625 
Q 5.8125 33.546875 5.8125 39.890625 
Q 5.8125 47.609375 11.28125 51.796875 
Q 16.75 56 26.8125 56 
Q 31.78125 56 36.171875 55.265625 
Q 40.578125 54.546875 44.28125 53.078125 
z
" id="DejaVuSans-115"/>
     </defs>
     <g transform="translate(205.662344 335.860562)scale(0.1 -0.1)">
      <use xlink:href="#DejaVuSans-71"/>
      <use x="77.490234" xlink:href="#DejaVuSans-101"/>
      <use x="139.013672" xlink:href="#DejaVuSans-110"/>
      <use x="202.392578" xlink:href="#DejaVuSans-101"/>
      <use x="263.916016" xlink:href="#DejaVuSans-114"/>
      <use x="305.029297" xlink:href="#DejaVuSans-97"/>
      <use x="366.308594" xlink:href="#DejaVuSans-116"/>
      <use x="405.517578" xlink:href="#DejaVuSans-105"/>
      <use x="433.300781" xlink:href="#DejaVuSans-111"/>
      <use x="494.482422" xlink:href="#DejaVuSans-110"/>
      <use x="557.861328" xlink:href="#DejaVuSans-115"/>
     </g>
    </g>
   </g>
   <g id="matplotlib.axis_2">
    <g id="ytick_1">
     <g id="line2d_19">
      <path clip-path="url(#p5f38e956c7)" d="M 57.6 255.989798 
L 414.72 255.989798 
" style="fill:none;stroke:#b0b0b0;stroke-linecap:square;stroke-width:0.8;"/>
     </g>
     <g id="line2d_20">
      <defs>
       <path d="M 0 0 
L -3.5 0 
" id="mdb92b0f95d" style="stroke:#000000;stroke-width:0.8;"/>
      </defs>
      <g>
       <use style="stroke:#000000;stroke-width:0.8;" x="57.6" xlink:href="#mdb92b0f95d" y="255.989798"/>
      </g>
     </g>
     <g id="text_11">
      <!-- 10 -->
      <g transform="translate(37.875 259.789017)scale(0.1 -0.1)">
       <use xlink:href="#DejaVuSans-49"/>
       <use x="63.623047" xlink:href="#DejaVuSans-48"/>
      </g>
     </g>
    </g>
    <g id="ytick_2">
     <g id="line2d_21">
      <path clip-path="url(#p5f38e956c7)" d="M 57.6 204.086773 
L 414.72 204.086773 
" style="fill:none;stroke:#b0b0b0;stroke-linecap:square;stroke-width:0.8;"/>
     </g>
     <g id="line2d_22">
      <g>
       <use style="stroke:#000000;stroke-width:0.8;" x="57.6" xlink:href="#mdb92b0f95d" y="204.086773"/>
      </g>
     </g>
     <g id="text_12">
      <!-- 20 -->
      <g transform="translate(37.875 207.885992)scale(0.1 -0.1)">
       <use xlink:href="#DejaVuSans-50"/>
       <use x="63.623047" xlink:href="#DejaVuSans-48"/>
      </g>
     </g>
    </g>
    <g id="ytick_3">
     <g id="line2d_23">
      <path clip-path="url(#p5f38e956c7)" d="M 57.6 152.183748 
L 414.72 152.183748 
" style="fill:none;stroke:#b0b0b0;stroke-linecap:square;stroke-width:0.8;"/>
     </g>
     <g id="line2d_24">
      <g>
       <use style="stroke:#000000;stroke-width:0.8;" x="57.6" xlink:href="#mdb92b0f95d" y="152.183748"/>
      </g>
     </g>
     <g id="text_13">
      <!-- 30 -->
      <defs>
       <path d="M 40.578125 39.3125 
Q 47.65625 37.796875 51.625 33 
Q 55.609375 28.21875 55.609375 21.1875 
Q 55.609375 10.40625 48.1875 4.484375 
Q 40.765625 -1.421875 27.09375 -1.421875 
Q 22.515625 -1.421875 17.65625 -0.515625 
Q 12.796875 0.390625 7.625 2.203125 
L 7.625 11.71875 
Q 11.71875 9.328125 16.59375 8.109375 
Q 21.484375 6.890625 26.8125 6.890625 
Q 36.078125 6.890625 40.9375 10.546875 
Q 45.796875 14.203125 45.796875 21.1875 
Q 45.796875 27.640625 41.28125 31.265625 
Q 36.765625 34.90625 28.71875 34.90625 
L 20.21875 34.90625 
L 20.21875 43.015625 
L 29.109375 43.015625 
Q 36.375 43.015625 40.234375 45.921875 
Q 44.09375 48.828125 44.09375 54.296875 
Q 44.09375 59.90625 40.109375 62.90625 
Q 36.140625 65.921875 28.71875 65.921875 
Q 24.65625 65.921875 20.015625 65.03125 
Q 15.375 64.15625 9.8125 62.3125 
L 9.8125 71.09375 
Q 15.4375 72.65625 20.34375 73.4375 
Q 25.25 74.21875 29.59375 74.21875 
Q 40.828125 74.21875 47.359375 69.109375 
Q 53.90625 64.015625 53.90625 55.328125 
Q 53.90625 49.265625 50.4375 45.09375 
Q 46.96875 40.921875 40.578125 39.3125 
z
" id="DejaVuSans-51"/>
      </defs>
      <g transform="translate(37.875 155.982966)scale(0.1 -0.1)">
       <use xlink:href="#DejaVuSans-51"/>
       <use x="63.623047" xlink:href="#DejaVuSans-48"/>
      </g>
     </g>
    </g>
    <g id="ytick_4">
     <g id="line2d_25">
      <path clip-path="url(#p5f38e956c7)" d="M 57.6 100.280723 
L 414.72 100.280723 
" style="fill:none;stroke:#b0b0b0;stroke-linecap:square;stroke-width:0.8;"/>
     </g>
     <g id="line2d_26">
      <g>
       <use style="stroke:#000000;stroke-width:0.8;" x="57.6" xlink:href="#mdb92b0f95d" y="100.280723"/>
      </g>
     </g>
     <g id="text_14">
      <!-- 40 -->
      <defs>
       <path d="M 37.796875 64.3125 
L 12.890625 25.390625 
L 37.796875 25.390625 
z
M 35.203125 72.90625 
L 47.609375 72.90625 
L 47.609375 25.390625 
L 58.015625 25.390625 
L 58.015625 17.1875 
L 47.609375 17.1875 
L 47.609375 0 
L 37.796875 0 
L 37.796875 17.1875 
L 4.890625 17.1875 
L 4.890625 26.703125 
z
" id="DejaVuSans-52"/>
      </defs>
      <g transform="translate(37.875 104.079941)scale(0.1 -0.1)">
       <use xlink:href="#DejaVuSans-52"/>
       <use x="63.623047" xlink:href="#DejaVuSans-48"/>
      </g>
     </g>
    </g>
    <g id="ytick_5">
     <g id="line2d_27">
      <path clip-path="url(#p5f38e956c7)" d="M 57.6 48.377697 
L 414.72 48.377697 
" style="fill:none;stroke:#b0b0b0;stroke-linecap:square;stroke-width:0.8;"/>
     </g>
     <g id="line2d_28">
      <g>
       <use style="stroke:#000000;stroke-width:0.8;" x="57.6" xlink:href="#mdb92b0f95d" y="48.377697"/>
      </g>
     </g>
     <g id="text_15">
      <!-- 50 -->
      <g transform="translate(37.875 52.176916)scale(0.1 -0.1)">
       <use xlink:href="#DejaVuSans-53"/>
       <use x="63.623047" xlink:href="#DejaVuSans-48"/>
      </g>
     </g>
    </g>
    <g id="text_16">
     <!-- Fitness -->
     <defs>
      <path d="M 9.8125 72.90625 
L 51.703125 72.90625 
L 51.703125 64.59375 
L 19.671875 64.59375 
L 19.671875 43.109375 
L 48.578125 43.109375 
L 48.578125 34.8125 
L 19.671875 34.8125 
L 19.671875 0 
L 9.8125 0 
z
" id="DejaVuSans-70"/>
     </defs>
     <g transform="translate(31.795312 192.202219)rotate(-90)scale(0.1 -0.1)">
      <use xlink:href="#DejaVuSans-70"/>
      <use x="57.410156" xlink:href="#DejaVuSans-105"/>
      <use x="85.193359" xlink:href="#DejaVuSans-116"/>
      <use x="124.402344" xlink:href="#DejaVuSans-110"/>
      <use x="187.78125" xlink:href="#DejaVuSans-101"/>
      <use x="249.304688" xlink:href="#DejaVuSans-115"/>
      <use x="301.404297" xlink:href="#DejaVuSans-115"/>
     </g>
    </g>
   </g>
   <g id="line2d_29">
    <path clip-path="url(#p5f38e956c7)" d="M 73.832727 294.934368 
L 75.464157 295.488 
L 77.095587 292.616033 
L 78.727017 291.453972 
L 80.358447 290.586028 
L 81.989877 290.661019 
L 83.621307 288.634529 
L 85.252736 286.921904 
L 86.884166 287.63841 
L 88.515596 285.873358 
L 90.147026 286.142157 
L 91.778456 284.476109 
L 93.409886 283.879023 
L 95.041316 282.343253 
L 96.672746 283.282429 
L 98.304175 285.076393 
L 99.935605 281.073367 
L 103.198465 281.906593 
L 104.829895 281.081989 
L 106.461325 279.597863 
L 108.092755 280.56996 
L 109.724185 279.847888 
L 111.355614 279.667298 
L 112.987044 279.372198 
L 114.618474 280.782143 
L 116.249904 280.579072 
L 117.881334 279.268563 
L 119.512764 279.354781 
L 121.144194 281.424005 
L 124.407053 281.716397 
L 126.038483 281.439581 
L 127.669913 278.9804 
L 129.301343 278.022458 
L 130.932773 282.600948 
L 132.564203 282.183525 
L 134.195633 280.240141 
L 135.827063 283.763992 
L 137.458492 282.548871 
L 139.089922 282.149617 
L 142.352782 282.010285 
L 143.984212 282.252729 
L 145.615642 282.78906 
L 147.247072 281.628851 
L 148.878502 284.588365 
L 150.509931 282.872461 
L 152.141361 282.737157 
L 153.772791 281.212238 
L 155.404221 281.837849 
L 157.035651 282.889705 
L 158.667081 283.217332 
L 160.298511 283.411896 
L 161.929941 283.065876 
L 163.56137 281.716397 
L 165.1928 280.885949 
L 166.82423 283.573044 
L 168.45566 281.142802 
L 170.08709 281.750999 
L 171.71852 281.889407 
L 173.34995 285.643726 
L 174.98138 285.868639 
L 176.61281 284.267399 
L 178.244239 283.027653 
L 179.875669 283.083177 
L 181.507099 282.441373 
L 184.769959 284.476109 
L 186.401389 284.458866 
L 188.032819 284.562327 
L 189.664249 285.782134 
L 191.295678 286.231961 
L 192.927108 285.799435 
L 194.558538 285.522619 
L 196.189968 283.682907 
L 197.821398 281.027403 
L 199.452828 282.184335 
L 201.084258 282.41 
L 204.347117 284.25004 
L 205.978547 282.114899 
L 207.609977 282.391137 
L 209.241407 283.295302 
L 210.872837 282.930766 
L 212.504267 284.15584 
L 214.135697 281.975912 
L 215.767127 279.163891 
L 217.398556 281.197367 
L 219.029986 280.626434 
L 220.661416 282.941435 
L 222.292846 281.510222 
L 223.924276 286.05895 
L 225.555706 283.902863 
L 227.187136 286.543379 
L 228.818566 286.474175 
L 230.449995 287.166215 
L 232.081425 284.069334 
L 233.712855 284.121238 
L 235.344285 282.27003 
L 236.975715 283.567605 
L 238.607145 283.48625 
L 240.238575 281.716397 
L 241.870005 282.667953 
L 243.501434 282.027815 
L 245.132864 282.650652 
L 246.764294 282.027815 
L 248.395724 277.549516 
L 250.027154 282.305847 
L 251.658584 279.259654 
L 253.290014 279.53647 
L 254.921444 280.332317 
L 256.552873 282.823662 
L 258.184303 279.086644 
L 259.815733 279.49371 
L 261.447163 282.47586 
L 263.078593 279.647921 
L 264.710023 280.436123 
L 266.341453 282.062015 
L 267.972883 279.234076 
L 269.604312 283.458741 
L 271.235742 282.251694 
L 272.867172 281.94131 
L 274.498602 283.104355 
L 276.130032 280.816745 
L 277.761462 280.785994 
L 279.392892 284.173141 
L 281.024322 284.899783 
L 284.287181 280.969214 
L 285.918611 281.507339 
L 287.550041 284.09381 
L 289.181471 283.325391 
L 290.812901 283.359993 
L 292.444331 282.027815 
L 294.075761 284.50186 
L 295.70719 281.544709 
L 297.33862 281.06189 
L 298.97005 279.968995 
L 300.60148 278.567614 
L 302.23291 275.557238 
L 303.86434 279.986297 
L 305.49577 279.613434 
L 307.1272 277.460349 
L 308.75863 277.079727 
L 310.390059 277.65066 
L 312.021489 276.681804 
L 313.652919 268.887439 
L 315.284349 272.339251 
L 316.915779 270.488043 
L 318.547209 269.33877 
L 320.178639 268.974176 
L 321.810069 266.526112 
L 323.441498 270.937869 
L 325.072928 270.293508 
L 326.704358 274.882499 
L 328.335788 269.674896 
L 329.967218 268.129243 
L 331.598648 265.591858 
L 333.230078 268.654136 
L 334.861508 265.349643 
L 336.492937 268.543088 
L 338.124367 269.622992 
L 339.755797 269.698404 
L 341.387227 270.903267 
L 343.018657 269.911613 
L 344.650087 271.12818 
L 346.281517 268.706039 
L 347.912947 271.180083 
L 349.544376 267.620242 
L 351.175806 269.432681 
L 352.807236 270.142023 
L 354.438666 269.622992 
L 356.070096 269.294273 
L 357.701526 269.882508 
L 359.332956 274.155857 
L 360.964386 266.231995 
L 362.595815 265.782169 
L 364.227245 271.4742 
L 367.490105 265.816771 
L 369.121535 266.767004 
L 370.752965 268.55308 
L 372.384395 271.353783 
L 374.015825 268.965554 
L 375.647254 270.794352 
L 377.278684 270.376341 
L 378.910114 267.35656 
L 380.541544 266.593827 
L 382.172974 270.031113 
L 383.804404 269.674896 
L 385.435834 268.249948 
L 387.067264 266.077263 
L 388.698693 264.921946 
L 390.330123 266.008289 
L 391.961553 262.325786 
L 393.592983 267.064758 
L 395.224413 264.180475 
L 396.855843 265.142031 
L 398.487273 264.852972 
L 398.487273 264.852972 
" style="fill:none;stroke:#0000ff;stroke-linecap:square;stroke-width:1.5;"/>
   </g>
   <g id="line2d_30">
    <path clip-path="url(#p5f38e956c7)" d="M 73.832727 286.050018 
L 75.464157 285.799265 
L 77.095587 277.016211 
L 78.727017 275.93918 
L 80.358447 271.131961 
L 81.989877 273.000562 
L 83.621307 267.744621 
L 85.252736 264.28885 
L 86.884166 266.668175 
L 90.147026 261.745476 
L 93.409886 254.472113 
L 95.041316 251.811464 
L 96.672746 256.227313 
L 98.304175 256.257459 
L 99.935605 247.311188 
L 101.567035 248.519571 
L 103.198465 249.511255 
L 104.829895 246.635645 
L 106.461325 241.91809 
L 108.092755 243.863913 
L 109.724185 241.619867 
L 111.355614 241.354928 
L 112.987044 238.613272 
L 114.618474 241.036447 
L 116.249904 240.924014 
L 117.881334 240.002573 
L 119.512764 238.428034 
L 121.144194 244.191586 
L 122.775624 246.579271 
L 124.407053 245.265299 
L 126.038483 244.589412 
L 127.669913 239.150338 
L 129.301343 235.990322 
L 130.932773 245.972248 
L 132.564203 248.371653 
L 134.195633 242.728323 
L 135.827063 249.995825 
L 137.458492 246.948352 
L 139.089922 248.909341 
L 140.721352 248.737006 
L 142.352782 247.98184 
L 143.984212 248.909435 
L 145.615642 248.145982 
L 147.247072 245.274525 
L 148.878502 249.110366 
L 150.509931 245.959553 
L 152.141361 247.864212 
L 153.772791 246.530621 
L 155.404221 243.772375 
L 157.035651 245.903358 
L 158.667081 247.482804 
L 160.298511 246.144082 
L 161.929941 249.757615 
L 163.56137 247.725613 
L 165.1928 244.609984 
L 166.82423 248.059254 
L 168.45566 245.75803 
L 170.08709 244.543858 
L 171.71852 243.87247 
L 173.34995 250.721376 
L 174.98138 252.543776 
L 176.61281 250.651901 
L 178.244239 247.861157 
L 179.875669 247.965778 
L 181.507099 246.354937 
L 183.138529 244.004603 
L 184.769959 250.278098 
L 186.401389 247.598281 
L 188.032819 247.706526 
L 189.664249 252.140164 
L 191.295678 251.744771 
L 192.927108 251.947896 
L 194.558538 252.58134 
L 196.189968 248.734309 
L 197.821398 242.364956 
L 199.452828 242.855721 
L 201.084258 242.263768 
L 202.715688 243.578984 
L 204.347117 247.013089 
L 205.978547 241.576601 
L 207.609977 243.065964 
L 209.241407 245.103 
L 210.872837 244.203774 
L 212.504267 246.278025 
L 214.135697 242.117468 
L 215.767127 237.543529 
L 217.398556 239.177456 
L 219.029986 239.99954 
L 220.661416 245.374214 
L 222.292846 239.3112 
L 223.924276 252.436382 
L 225.555706 248.442585 
L 227.187136 255.924778 
L 228.818566 253.857502 
L 230.449995 258.249216 
L 232.081425 254.087276 
L 233.712855 254.150398 
L 235.344285 252.460342 
L 236.975715 252.601391 
L 238.607145 253.889349 
L 240.238575 249.396692 
L 241.870005 250.143732 
L 243.501434 245.955006 
L 245.132864 247.981145 
L 246.764294 246.363076 
L 248.395724 234.874702 
L 250.027154 247.490147 
L 251.658584 242.452496 
L 253.290014 241.160279 
L 254.921444 245.447498 
L 256.552873 251.107091 
L 258.184303 243.314639 
L 259.815733 243.84311 
L 261.447163 250.531347 
L 263.078593 244.27535 
L 264.710023 243.229979 
L 266.341453 247.65836 
L 267.972883 244.702832 
L 269.604312 248.076001 
L 271.235742 247.568109 
L 272.867172 244.830494 
L 274.498602 252.157007 
L 276.130032 245.651514 
L 277.761462 245.795196 
L 281.024322 256.32399 
L 282.655751 253.639569 
L 284.287181 251.173582 
L 285.918611 249.533419 
L 287.550041 256.092332 
L 289.181471 254.040144 
L 290.812901 253.592825 
L 292.444331 249.651924 
L 294.075761 252.40163 
L 295.70719 249.28594 
L 297.33862 245.831135 
L 298.97005 243.438851 
L 300.60148 240.077342 
L 302.23291 233.147745 
L 303.86434 243.262768 
L 305.49577 243.818042 
L 307.1272 238.128726 
L 308.75863 235.371955 
L 310.390059 237.380929 
L 312.021489 235.870548 
L 313.652919 219.907797 
L 315.284349 229.038055 
L 316.915779 224.569081 
L 318.547209 221.339717 
L 320.178639 221.146038 
L 321.810069 216.134066 
L 323.441498 223.243837 
L 325.072928 222.518375 
L 326.704358 228.944051 
L 328.335788 220.840615 
L 329.967218 219.484545 
L 331.598648 215.507679 
L 333.230078 220.564254 
L 334.861508 215.343387 
L 336.492937 220.550555 
L 338.124367 222.166304 
L 339.755797 221.69469 
L 341.387227 223.98417 
L 343.018657 220.843632 
L 344.650087 223.470653 
L 346.281517 219.909604 
L 347.912947 224.150876 
L 349.544376 217.505917 
L 351.175806 221.783019 
L 352.807236 223.033451 
L 354.438666 223.500127 
L 356.070096 222.170255 
L 357.701526 220.439474 
L 359.332956 229.335558 
L 360.964386 217.397356 
L 362.595815 215.989386 
L 364.227245 226.26499 
L 365.858675 218.631251 
L 367.490105 216.191591 
L 369.121535 216.468954 
L 370.752965 219.528153 
L 372.384395 225.712364 
L 374.015825 222.921788 
L 375.647254 221.524074 
L 377.278684 222.104221 
L 378.910114 217.733568 
L 380.541544 217.577227 
L 382.172974 221.304426 
L 383.804404 221.248699 
L 385.435834 218.466739 
L 387.067264 216.917734 
L 388.698693 214.144579 
L 390.330123 215.147288 
L 391.961553 209.71121 
L 393.592983 213.4618 
L 395.224413 210.574636 
L 396.855843 212.353655 
L 398.487273 211.598179 
L 398.487273 211.598179 
" style="fill:none;stroke:#008000;stroke-dasharray:9.6,2.4,1.5,2.4;stroke-dashoffset:0;stroke-width:1.5;"/>
   </g>
   <g id="line2d_31">
    <path clip-path="url(#p5f38e956c7)" d="M 73.832727 266.370403 
L 75.464157 240.41889 
L 77.095587 105.471025 
L 78.727017 115.85163 
L 80.358447 84.709815 
L 81.989877 126.232235 
L 83.621307 110.661328 
L 85.252736 105.471025 
L 86.884166 115.85163 
L 88.515596 105.471025 
L 91.778456 105.471025 
L 93.409886 84.709815 
L 95.041316 84.709815 
L 96.672746 115.85163 
L 98.304175 84.709815 
L 99.935605 69.138908 
L 101.567035 74.32921 
L 103.198465 63.948605 
L 106.461325 74.32921 
L 108.092755 69.138908 
L 109.724185 79.519513 
L 111.355614 84.709815 
L 112.987044 58.758303 
L 114.618474 69.138908 
L 116.249904 69.138908 
L 117.881334 74.32921 
L 119.512764 63.948605 
L 121.144194 69.138908 
L 122.775624 89.900118 
L 124.407053 74.32921 
L 126.038483 74.32921 
L 127.669913 63.948605 
L 129.301343 74.32921 
L 130.932773 58.758303 
L 132.564203 79.519513 
L 134.195633 74.32921 
L 135.827063 74.32921 
L 140.721352 58.758303 
L 143.984212 89.900118 
L 145.615642 84.709815 
L 147.247072 74.32921 
L 148.878502 69.138908 
L 150.509931 58.758303 
L 153.772791 69.138908 
L 157.035651 69.138908 
L 158.667081 84.709815 
L 160.298511 79.519513 
L 161.929941 69.138908 
L 163.56137 69.138908 
L 165.1928 63.948605 
L 166.82423 69.138908 
L 168.45566 63.948605 
L 170.08709 79.519513 
L 171.71852 79.519513 
L 173.34995 53.568 
L 174.98138 79.519513 
L 176.61281 74.32921 
L 178.244239 58.758303 
L 179.875669 69.138908 
L 181.507099 84.709815 
L 183.138529 58.758303 
L 184.769959 84.709815 
L 186.401389 69.138908 
L 188.032819 58.758303 
L 189.664249 74.32921 
L 191.295678 84.709815 
L 192.927108 74.32921 
L 194.558538 79.519513 
L 197.821398 79.519513 
L 199.452828 74.32921 
L 201.084258 53.568 
L 202.715688 69.138908 
L 204.347117 74.32921 
L 205.978547 69.138908 
L 209.241407 79.519513 
L 210.872837 58.758303 
L 212.504267 58.758303 
L 214.135697 69.138908 
L 215.767127 63.948605 
L 217.398556 74.32921 
L 222.292846 58.758303 
L 223.924276 79.519513 
L 225.555706 69.138908 
L 227.187136 79.519513 
L 228.818566 69.138908 
L 230.449995 79.519513 
L 232.081425 63.948605 
L 233.712855 58.758303 
L 235.344285 74.32921 
L 236.975715 63.948605 
L 238.607145 74.32921 
L 240.238575 79.519513 
L 241.870005 105.471025 
L 243.501434 69.138908 
L 245.132864 69.138908 
L 246.764294 84.709815 
L 248.395724 69.138908 
L 250.027154 110.661328 
L 251.658584 84.709815 
L 253.290014 84.709815 
L 254.921444 79.519513 
L 256.552873 84.709815 
L 258.184303 79.519513 
L 259.815733 69.138908 
L 261.447163 84.709815 
L 263.078593 95.09042 
L 264.710023 79.519513 
L 266.341453 74.32921 
L 267.972883 95.09042 
L 269.604312 53.568 
L 271.235742 79.519513 
L 272.867172 89.900118 
L 274.498602 79.519513 
L 276.130032 84.709815 
L 277.761462 84.709815 
L 279.392892 69.138908 
L 281.024322 79.519513 
L 282.655751 79.519513 
L 284.287181 126.232235 
L 285.918611 84.709815 
L 289.181471 105.471025 
L 290.812901 79.519513 
L 292.444331 79.519513 
L 295.70719 110.661328 
L 297.33862 89.900118 
L 298.97005 74.32921 
L 300.60148 95.09042 
L 302.23291 74.32921 
L 303.86434 84.709815 
L 305.49577 89.900118 
L 307.1272 84.709815 
L 312.021489 84.709815 
L 313.652919 89.900118 
L 315.284349 89.900118 
L 316.915779 79.519513 
L 318.547209 79.519513 
L 320.178639 84.709815 
L 321.810069 84.709815 
L 323.441498 74.32921 
L 325.072928 95.09042 
L 326.704358 74.32921 
L 328.335788 100.280723 
L 329.967218 84.709815 
L 331.598648 89.900118 
L 333.230078 69.138908 
L 334.861508 89.900118 
L 336.492937 84.709815 
L 338.124367 69.138908 
L 339.755797 69.138908 
L 341.387227 74.32921 
L 343.018657 69.138908 
L 344.650087 69.138908 
L 346.281517 79.519513 
L 347.912947 100.280723 
L 349.544376 58.758303 
L 351.175806 95.09042 
L 354.438666 84.709815 
L 356.070096 95.09042 
L 357.701526 69.138908 
L 359.332956 79.519513 
L 360.964386 74.32921 
L 362.595815 84.709815 
L 364.227245 84.709815 
L 365.858675 79.519513 
L 367.490105 95.09042 
L 370.752965 84.709815 
L 372.384395 84.709815 
L 374.015825 95.09042 
L 375.647254 69.138908 
L 378.910114 89.900118 
L 380.541544 74.32921 
L 382.172974 74.32921 
L 383.804404 100.280723 
L 385.435834 74.32921 
L 387.067264 95.09042 
L 388.698693 79.519513 
L 390.330123 89.900118 
L 393.592983 69.138908 
L 395.224413 84.709815 
L 396.855843 89.900118 
L 398.487273 69.138908 
L 398.487273 69.138908 
" style="fill:none;stroke:#ff0000;stroke-linecap:square;stroke-width:1.5;"/>
   </g>
   <g id="patch_3">
    <path d="M 57.6 307.584 
L 57.6 41.472 
" style="fill:none;stroke:#000000;stroke-linecap:square;stroke-linejoin:miter;stroke-width:0.8;"/>
   </g>
   <g id="patch_4">
    <path d="M 414.72 307.584 
L 414.72 41.472 
" style="fill:none;stroke:#000000;stroke-linecap:square;stroke-linejoin:miter;stroke-width:0.8;"/>
   </g>
   <g id="patch_5">
    <path d="M 57.6 307.584 
L 414.72 307.584 
" style="fill:none;stroke:#000000;stroke-linecap:square;stroke-linejoin:miter;stroke-width:0.8;"/>
   </g>
   <g id="patch_6">
    <path d="M 57.6 41.472 
L 414.72 41.472 
" style="fill:none;stroke:#000000;stroke-linecap:square;stroke-linejoin:miter;stroke-width:0.8;"/>
   </g>
   <g id="text_17">
    <!-- Population's average and best fitness -->
    <defs>
     <path d="M 19.671875 64.796875 
L 19.671875 37.40625 
L 32.078125 37.40625 
Q 38.96875 37.40625 42.71875 40.96875 
Q 46.484375 44.53125 46.484375 51.125 
Q 46.484375 57.671875 42.71875 61.234375 
Q 38.96875 64.796875 32.078125 64.796875 
z
M 9.8125 72.90625 
L 32.078125 72.90625 
Q 44.34375 72.90625 50.609375 67.359375 
Q 56.890625 61.8125 56.890625 51.125 
Q 56.890625 40.328125 50.609375 34.8125 
Q 44.34375 29.296875 32.078125 29.296875 
L 19.671875 29.296875 
L 19.671875 0 
L 9.8125 0 
z
" id="DejaVuSans-80"/>
     <path d="M 18.109375 8.203125 
L 18.109375 -20.796875 
L 9.078125 -20.796875 
L 9.078125 54.6875 
L 18.109375 54.6875 
L 18.109375 46.390625 
Q 20.953125 51.265625 25.265625 53.625 
Q 29.59375 56 35.59375 56 
Q 45.5625 56 51.78125 48.09375 
Q 58.015625 40.1875 58.015625 27.296875 
Q 58.015625 14.40625 51.78125 6.484375 
Q 45.5625 -1.421875 35.59375 -1.421875 
Q 29.59375 -1.421875 25.265625 0.953125 
Q 20.953125 3.328125 18.109375 8.203125 
z
M 48.6875 27.296875 
Q 48.6875 37.203125 44.609375 42.84375 
Q 40.53125 48.484375 33.40625 48.484375 
Q 26.265625 48.484375 22.1875 42.84375 
Q 18.109375 37.203125 18.109375 27.296875 
Q 18.109375 17.390625 22.1875 11.75 
Q 26.265625 6.109375 33.40625 6.109375 
Q 40.53125 6.109375 44.609375 11.75 
Q 48.6875 17.390625 48.6875 27.296875 
z
" id="DejaVuSans-112"/>
     <path d="M 8.5 21.578125 
L 8.5 54.6875 
L 17.484375 54.6875 
L 17.484375 21.921875 
Q 17.484375 14.15625 20.5 10.265625 
Q 23.53125 6.390625 29.59375 6.390625 
Q 36.859375 6.390625 41.078125 11.03125 
Q 45.3125 15.671875 45.3125 23.6875 
L 45.3125 54.6875 
L 54.296875 54.6875 
L 54.296875 0 
L 45.3125 0 
L 45.3125 8.40625 
Q 42.046875 3.421875 37.71875 1 
Q 33.40625 -1.421875 27.6875 -1.421875 
Q 18.265625 -1.421875 13.375 4.4375 
Q 8.5 10.296875 8.5 21.578125 
z
M 31.109375 56 
z
" id="DejaVuSans-117"/>
     <path d="M 9.421875 75.984375 
L 18.40625 75.984375 
L 18.40625 0 
L 9.421875 0 
z
" id="DejaVuSans-108"/>
     <path d="M 17.921875 72.90625 
L 17.921875 45.796875 
L 9.625 45.796875 
L 9.625 72.90625 
z
" id="DejaVuSans-39"/>
     <path id="DejaVuSans-32"/>
     <path d="M 2.984375 54.6875 
L 12.5 54.6875 
L 29.59375 8.796875 
L 46.6875 54.6875 
L 56.203125 54.6875 
L 35.6875 0 
L 23.484375 0 
z
" id="DejaVuSans-118"/>
     <path d="M 45.40625 27.984375 
Q 45.40625 37.75 41.375 43.109375 
Q 37.359375 48.484375 30.078125 48.484375 
Q 22.859375 48.484375 18.828125 43.109375 
Q 14.796875 37.75 14.796875 27.984375 
Q 14.796875 18.265625 18.828125 12.890625 
Q 22.859375 7.515625 30.078125 7.515625 
Q 37.359375 7.515625 41.375 12.890625 
Q 45.40625 18.265625 45.40625 27.984375 
z
M 54.390625 6.78125 
Q 54.390625 -7.171875 48.1875 -13.984375 
Q 42 -20.796875 29.203125 -20.796875 
Q 24.46875 -20.796875 20.265625 -20.09375 
Q 16.0625 -19.390625 12.109375 -17.921875 
L 12.109375 -9.1875 
Q 16.0625 -11.328125 19.921875 -12.34375 
Q 23.78125 -13.375 27.78125 -13.375 
Q 36.625 -13.375 41.015625 -8.765625 
Q 45.40625 -4.15625 45.40625 5.171875 
L 45.40625 9.625 
Q 42.625 4.78125 38.28125 2.390625 
Q 33.9375 0 27.875 0 
Q 17.828125 0 11.671875 7.65625 
Q 5.515625 15.328125 5.515625 27.984375 
Q 5.515625 40.671875 11.671875 48.328125 
Q 17.828125 56 27.875 56 
Q 33.9375 56 38.28125 53.609375 
Q 42.625 51.21875 45.40625 46.390625 
L 45.40625 54.6875 
L 54.390625 54.6875 
z
" id="DejaVuSans-103"/>
     <path d="M 45.40625 46.390625 
L 45.40625 75.984375 
L 54.390625 75.984375 
L 54.390625 0 
L 45.40625 0 
L 45.40625 8.203125 
Q 42.578125 3.328125 38.25 0.953125 
Q 33.9375 -1.421875 27.875 -1.421875 
Q 17.96875 -1.421875 11.734375 6.484375 
Q 5.515625 14.40625 5.515625 27.296875 
Q 5.515625 40.1875 11.734375 48.09375 
Q 17.96875 56 27.875 56 
Q 33.9375 56 38.25 53.625 
Q 42.578125 51.265625 45.40625 46.390625 
z
M 14.796875 27.296875 
Q 14.796875 17.390625 18.875 11.75 
Q 22.953125 6.109375 30.078125 6.109375 
Q 37.203125 6.109375 41.296875 11.75 
Q 45.40625 17.390625 45.40625 27.296875 
Q 45.40625 37.203125 41.296875 42.84375 
Q 37.203125 48.484375 30.078125 48.484375 
Q 22.953125 48.484375 18.875 42.84375 
Q 14.796875 37.203125 14.796875 27.296875 
z
" id="DejaVuSans-100"/>
     <path d="M 48.6875 27.296875 
Q 48.6875 37.203125 44.609375 42.84375 
Q 40.53125 48.484375 33.40625 48.484375 
Q 26.265625 48.484375 22.1875 42.84375 
Q 18.109375 37.203125 18.109375 27.296875 
Q 18.109375 17.390625 22.1875 11.75 
Q 26.265625 6.109375 33.40625 6.109375 
Q 40.53125 6.109375 44.609375 11.75 
Q 48.6875 17.390625 48.6875 27.296875 
z
M 18.109375 46.390625 
Q 20.953125 51.265625 25.265625 53.625 
Q 29.59375 56 35.59375 56 
Q 45.5625 56 51.78125 48.09375 
Q 58.015625 40.1875 58.015625 27.296875 
Q 58.015625 14.40625 51.78125 6.484375 
Q 45.5625 -1.421875 35.59375 -1.421875 
Q 29.59375 -1.421875 25.265625 0.953125 
Q 20.953125 3.328125 18.109375 8.203125 
L 18.109375 0 
L 9.078125 0 
L 9.078125 75.984375 
L 18.109375 75.984375 
z
" id="DejaVuSans-98"/>
     <path d="M 37.109375 75.984375 
L 37.109375 68.5 
L 28.515625 68.5 
Q 23.6875 68.5 21.796875 66.546875 
Q 19.921875 64.59375 19.921875 59.515625 
L 19.921875 54.6875 
L 34.71875 54.6875 
L 34.71875 47.703125 
L 19.921875 47.703125 
L 19.921875 0 
L 10.890625 0 
L 10.890625 47.703125 
L 2.296875 47.703125 
L 2.296875 54.6875 
L 10.890625 54.6875 
L 10.890625 58.5 
Q 10.890625 67.625 15.140625 71.796875 
Q 19.390625 75.984375 28.609375 75.984375 
z
" id="DejaVuSans-102"/>
    </defs>
    <g transform="translate(123.315 35.472)scale(0.12 -0.12)">
     <use xlink:href="#DejaVuSans-80"/>
     <use x="60.255859" xlink:href="#DejaVuSans-111"/>
     <use x="121.4375" xlink:href="#DejaVuSans-112"/>
     <use x="184.914062" xlink:href="#DejaVuSans-117"/>
     <use x="248.292969" xlink:href="#DejaVuSans-108"/>
     <use x="276.076172" xlink:href="#DejaVuSans-97"/>
     <use x="337.355469" xlink:href="#DejaVuSans-116"/>
     <use x="376.564453" xlink:href="#DejaVuSans-105"/>
     <use x="404.347656" xlink:href="#DejaVuSans-111"/>
     <use x="465.529297" xlink:href="#DejaVuSans-110"/>
     <use x="528.908203" xlink:href="#DejaVuSans-39"/>
     <use x="556.398438" xlink:href="#DejaVuSans-115"/>
     <use x="608.498047" xlink:href="#DejaVuSans-32"/>
     <use x="640.285156" xlink:href="#DejaVuSans-97"/>
     <use x="701.564453" xlink:href="#DejaVuSans-118"/>
     <use x="760.744141" xlink:href="#DejaVuSans-101"/>
     <use x="822.267578" xlink:href="#DejaVuSans-114"/>
     <use x="863.380859" xlink:href="#DejaVuSans-97"/>
     <use x="924.660156" xlink:href="#DejaVuSans-103"/>
     <use x="988.136719" xlink:href="#DejaVuSans-101"/>
     <use x="1049.660156" xlink:href="#DejaVuSans-32"/>
     <use x="1081.447266" xlink:href="#DejaVuSans-97"/>
     <use x="1142.726562" xlink:href="#DejaVuSans-110"/>
     <use x="1206.105469" xlink:href="#DejaVuSans-100"/>
     <use x="1269.582031" xlink:href="#DejaVuSans-32"/>
     <use x="1301.369141" xlink:href="#DejaVuSans-98"/>
     <use x="1364.845703" xlink:href="#DejaVuSans-101"/>
     <use x="1426.369141" xlink:href="#DejaVuSans-115"/>
     <use x="1478.46875" xlink:href="#DejaVuSans-116"/>
     <use x="1517.677734" xlink:href="#DejaVuSans-32"/>
     <use x="1549.464844" xlink:href="#DejaVuSans-102"/>
     <use x="1584.669922" xlink:href="#DejaVuSans-105"/>
     <use x="1612.453125" xlink:href="#DejaVuSans-116"/>
     <use x="1651.662109" xlink:href="#DejaVuSans-110"/>
     <use x="1715.041016" xlink:href="#DejaVuSans-101"/>
     <use x="1776.564453" xlink:href="#DejaVuSans-115"/>
     <use x="1828.664062" xlink:href="#DejaVuSans-115"/>
    </g>
   </g>
   <g id="legend_1">
    <g id="patch_7">
     <path d="M 334.779375 198.045187 
L 407.72 198.045187 
Q 409.72 198.045187 409.72 196.045187 
L 409.72 153.010812 
Q 409.72 151.010812 407.72 151.010812 
L 334.779375 151.010812 
Q 332.779375 151.010812 332.779375 153.010812 
L 332.779375 196.045187 
Q 332.779375 198.045187 334.779375 198.045187 
z
" style="fill:#ffffff;opacity:0.8;stroke:#cccccc;stroke-linejoin:miter;"/>
    </g>
    <g id="line2d_32">
     <path d="M 336.779375 159.10925 
L 356.779375 159.10925 
" style="fill:none;stroke:#0000ff;stroke-linecap:square;stroke-width:1.5;"/>
    </g>
    <g id="line2d_33"/>
    <g id="text_18">
     <!-- average -->
     <g transform="translate(364.779375 162.60925)scale(0.1 -0.1)">
      <use xlink:href="#DejaVuSans-97"/>
      <use x="61.279297" xlink:href="#DejaVuSans-118"/>
      <use x="120.458984" xlink:href="#DejaVuSans-101"/>
      <use x="181.982422" xlink:href="#DejaVuSans-114"/>
      <use x="223.095703" xlink:href="#DejaVuSans-97"/>
      <use x="284.375" xlink:href="#DejaVuSans-103"/>
      <use x="347.851562" xlink:href="#DejaVuSans-101"/>
     </g>
    </g>
    <g id="line2d_34">
     <path d="M 336.779375 173.787375 
L 356.779375 173.787375 
" style="fill:none;stroke:#008000;stroke-dasharray:9.6,2.4,1.5,2.4;stroke-dashoffset:0;stroke-width:1.5;"/>
    </g>
    <g id="line2d_35"/>
    <g id="text_19">
     <!-- +1 sd -->
     <defs>
      <path d="M 46 62.703125 
L 46 35.5 
L 73.1875 35.5 
L 73.1875 27.203125 
L 46 27.203125 
L 46 0 
L 37.796875 0 
L 37.796875 27.203125 
L 10.59375 27.203125 
L 10.59375 35.5 
L 37.796875 35.5 
L 37.796875 62.703125 
z
" id="DejaVuSans-43"/>
     </defs>
     <g transform="translate(364.779375 177.287375)scale(0.1 -0.1)">
      <use xlink:href="#DejaVuSans-43"/>
      <use x="83.789062" xlink:href="#DejaVuSans-49"/>
      <use x="147.412109" xlink:href="#DejaVuSans-32"/>
      <use x="179.199219" xlink:href="#DejaVuSans-115"/>
      <use x="231.298828" xlink:href="#DejaVuSans-100"/>
     </g>
    </g>
    <g id="line2d_36">
     <path d="M 336.779375 188.4655 
L 356.779375 188.4655 
" style="fill:none;stroke:#ff0000;stroke-linecap:square;stroke-width:1.5;"/>
    </g>
    <g id="line2d_37"/>
    <g id="text_20">
     <!-- best -->
     <g transform="translate(364.779375 191.9655)scale(0.1 -0.1)">
      <use xlink:href="#DejaVuSans-98"/>
      <use x="63.476562" xlink:href="#DejaVuSans-101"/>
      <use x="125" xlink:href="#DejaVuSans-115"/>
      <use x="177.099609" xlink:href="#DejaVuSans-116"/>
     </g>
    </g>
   </g>
  </g>
 </g>
 <defs>
  <clipPath id="p5f38e956c7">
   <rect height="266.112" width="357.12" x="57.6" y="41.472"/>
  </clipPath>
 </defs>
</svg>
