<?xml version="1.0" encoding="utf-8" standalone="no"?>
<!DOCTYPE svg PUBLIC "-//W3C//DTD SVG 1.1//EN"
  "http://www.w3.org/Graphics/SVG/1.1/DTD/svg11.dtd">
<!-- Created with matplotlib (https://matplotlib.org/) -->
<svg height="345.6pt" version="1.1" viewBox="0 0 460.8 345.6" width="460.8pt" xmlns="http://www.w3.org/2000/svg" xmlns:xlink="http://www.w3.org/1999/xlink">
 <defs>
  <style type="text/css">
*{stroke-linecap:butt;stroke-linejoin:round;}
  </style>
 </defs>
 <g id="figure_1">
  <g id="patch_1">
   <path d="M 0 345.6 
L 460.8 345.6 
L 460.8 0 
L 0 0 
z
" style="fill:#ffffff;"/>
  </g>
  <g id="axes_1">
   <g id="patch_2">
    <path d="M 57.6 307.584 
L 414.72 307.584 
L 414.72 41.472 
L 57.6 41.472 
z
" style="fill:#ffffff;"/>
   </g>
   <g id="matplotlib.axis_1">
    <g id="xtick_1">
     <g id="line2d_1">
      <path clip-path="url(#p6cc32799ff)" d="M 73.832727 307.584 
L 73.832727 41.472 
" style="fill:none;stroke:#b0b0b0;stroke-linecap:square;stroke-width:0.8;"/>
     </g>
     <g id="line2d_2">
      <defs>
       <path d="M 0 0 
L 0 3.5 
" id="m787181f9b2" style="stroke:#000000;stroke-width:0.8;"/>
      </defs>
      <g>
       <use style="stroke:#000000;stroke-width:0.8;" x="73.832727" xlink:href="#m787181f9b2" y="307.584"/>
      </g>
     </g>
     <g id="text_1">
      <!-- 0 -->
      <defs>
       <path d="M 31.78125 66.40625 
Q 24.171875 66.40625 20.328125 58.90625 
Q 16.5 51.421875 16.5 36.375 
Q 16.5 21.390625 20.328125 13.890625 
Q 24.171875 6.390625 31.78125 6.390625 
Q 39.453125 6.390625 43.28125 13.890625 
Q 47.125 21.390625 47.125 36.375 
Q 47.125 51.421875 43.28125 58.90625 
Q 39.453125 66.40625 31.78125 66.40625 
z
M 31.78125 74.21875 
Q 44.046875 74.21875 50.515625 64.515625 
Q 56.984375 54.828125 56.984375 36.375 
Q 56.984375 17.96875 50.515625 8.265625 
Q 44.046875 -1.421875 31.78125 -1.421875 
Q 19.53125 -1.421875 13.0625 8.265625 
Q 6.59375 17.96875 6.59375 36.375 
Q 6.59375 54.828125 13.0625 64.515625 
Q 19.53125 74.21875 31.78125 74.21875 
z
" id="DejaVuSans-48"/>
      </defs>
      <g transform="translate(70.651477 322.182437)scale(0.1 -0.1)">
       <use xlink:href="#DejaVuSans-48"/>
      </g>
     </g>
    </g>
    <g id="xtick_2">
     <g id="line2d_3">
      <path clip-path="url(#p6cc32799ff)" d="M 138.893758 307.584 
L 138.893758 41.472 
" style="fill:none;stroke:#b0b0b0;stroke-linecap:square;stroke-width:0.8;"/>
     </g>
     <g id="line2d_4">
      <g>
       <use style="stroke:#000000;stroke-width:0.8;" x="138.893758" xlink:href="#m787181f9b2" y="307.584"/>
      </g>
     </g>
     <g id="text_2">
      <!-- 100 -->
      <defs>
       <path d="M 12.40625 8.296875 
L 28.515625 8.296875 
L 28.515625 63.921875 
L 10.984375 60.40625 
L 10.984375 69.390625 
L 28.421875 72.90625 
L 38.28125 72.90625 
L 38.28125 8.296875 
L 54.390625 8.296875 
L 54.390625 0 
L 12.40625 0 
z
" id="DejaVuSans-49"/>
      </defs>
      <g transform="translate(129.350008 322.182437)scale(0.1 -0.1)">
       <use xlink:href="#DejaVuSans-49"/>
       <use x="63.623047" xlink:href="#DejaVuSans-48"/>
       <use x="127.246094" xlink:href="#DejaVuSans-48"/>
      </g>
     </g>
    </g>
    <g id="xtick_3">
     <g id="line2d_5">
      <path clip-path="url(#p6cc32799ff)" d="M 203.95479 307.584 
L 203.95479 41.472 
" style="fill:none;stroke:#b0b0b0;stroke-linecap:square;stroke-width:0.8;"/>
     </g>
     <g id="line2d_6">
      <g>
       <use style="stroke:#000000;stroke-width:0.8;" x="203.95479" xlink:href="#m787181f9b2" y="307.584"/>
      </g>
     </g>
     <g id="text_3">
      <!-- 200 -->
      <defs>
       <path d="M 19.1875 8.296875 
L 53.609375 8.296875 
L 53.609375 0 
L 7.328125 0 
L 7.328125 8.296875 
Q 12.9375 14.109375 22.625 23.890625 
Q 32.328125 33.6875 34.8125 36.53125 
Q 39.546875 41.84375 41.421875 45.53125 
Q 43.3125 49.21875 43.3125 52.78125 
Q 43.3125 58.59375 39.234375 62.25 
Q 35.15625 65.921875 28.609375 65.921875 
Q 23.96875 65.921875 18.8125 64.3125 
Q 13.671875 62.703125 7.8125 59.421875 
L 7.8125 69.390625 
Q 13.765625 71.78125 18.9375 73 
Q 24.125 74.21875 28.421875 74.21875 
Q 39.75 74.21875 46.484375 68.546875 
Q 53.21875 62.890625 53.21875 53.421875 
Q 53.21875 48.921875 51.53125 44.890625 
Q 49.859375 40.875 45.40625 35.40625 
Q 44.1875 33.984375 37.640625 27.21875 
Q 31.109375 20.453125 19.1875 8.296875 
z
" id="DejaVuSans-50"/>
      </defs>
      <g transform="translate(194.41104 322.182437)scale(0.1 -0.1)">
       <use xlink:href="#DejaVuSans-50"/>
       <use x="63.623047" xlink:href="#DejaVuSans-48"/>
       <use x="127.246094" xlink:href="#DejaVuSans-48"/>
      </g>
     </g>
    </g>
    <g id="xtick_4">
     <g id="line2d_7">
      <path clip-path="url(#p6cc32799ff)" d="M 269.015821 307.584 
L 269.015821 41.472 
" style="fill:none;stroke:#b0b0b0;stroke-linecap:square;stroke-width:0.8;"/>
     </g>
     <g id="line2d_8">
      <g>
       <use style="stroke:#000000;stroke-width:0.8;" x="269.015821" xlink:href="#m787181f9b2" y="307.584"/>
      </g>
     </g>
     <g id="text_4">
      <!-- 300 -->
      <defs>
       <path d="M 40.578125 39.3125 
Q 47.65625 37.796875 51.625 33 
Q 55.609375 28.21875 55.609375 21.1875 
Q 55.609375 10.40625 48.1875 4.484375 
Q 40.765625 -1.421875 27.09375 -1.421875 
Q 22.515625 -1.421875 17.65625 -0.515625 
Q 12.796875 0.390625 7.625 2.203125 
L 7.625 11.71875 
Q 11.71875 9.328125 16.59375 8.109375 
Q 21.484375 6.890625 26.8125 6.890625 
Q 36.078125 6.890625 40.9375 10.546875 
Q 45.796875 14.203125 45.796875 21.1875 
Q 45.796875 27.640625 41.28125 31.265625 
Q 36.765625 34.90625 28.71875 34.90625 
L 20.21875 34.90625 
L 20.21875 43.015625 
L 29.109375 43.015625 
Q 36.375 43.015625 40.234375 45.921875 
Q 44.09375 48.828125 44.09375 54.296875 
Q 44.09375 59.90625 40.109375 62.90625 
Q 36.140625 65.921875 28.71875 65.921875 
Q 24.65625 65.921875 20.015625 65.03125 
Q 15.375 64.15625 9.8125 62.3125 
L 9.8125 71.09375 
Q 15.4375 72.65625 20.34375 73.4375 
Q 25.25 74.21875 29.59375 74.21875 
Q 40.828125 74.21875 47.359375 69.109375 
Q 53.90625 64.015625 53.90625 55.328125 
Q 53.90625 49.265625 50.4375 45.09375 
Q 46.96875 40.921875 40.578125 39.3125 
z
" id="DejaVuSans-51"/>
      </defs>
      <g transform="translate(259.472071 322.182437)scale(0.1 -0.1)">
       <use xlink:href="#DejaVuSans-51"/>
       <use x="63.623047" xlink:href="#DejaVuSans-48"/>
       <use x="127.246094" xlink:href="#DejaVuSans-48"/>
      </g>
     </g>
    </g>
    <g id="xtick_5">
     <g id="line2d_9">
      <path clip-path="url(#p6cc32799ff)" d="M 334.076852 307.584 
L 334.076852 41.472 
" style="fill:none;stroke:#b0b0b0;stroke-linecap:square;stroke-width:0.8;"/>
     </g>
     <g id="line2d_10">
      <g>
       <use style="stroke:#000000;stroke-width:0.8;" x="334.076852" xlink:href="#m787181f9b2" y="307.584"/>
      </g>
     </g>
     <g id="text_5">
      <!-- 400 -->
      <defs>
       <path d="M 37.796875 64.3125 
L 12.890625 25.390625 
L 37.796875 25.390625 
z
M 35.203125 72.90625 
L 47.609375 72.90625 
L 47.609375 25.390625 
L 58.015625 25.390625 
L 58.015625 17.1875 
L 47.609375 17.1875 
L 47.609375 0 
L 37.796875 0 
L 37.796875 17.1875 
L 4.890625 17.1875 
L 4.890625 26.703125 
z
" id="DejaVuSans-52"/>
      </defs>
      <g transform="translate(324.533102 322.182437)scale(0.1 -0.1)">
       <use xlink:href="#DejaVuSans-52"/>
       <use x="63.623047" xlink:href="#DejaVuSans-48"/>
       <use x="127.246094" xlink:href="#DejaVuSans-48"/>
      </g>
     </g>
    </g>
    <g id="xtick_6">
     <g id="line2d_11">
      <path clip-path="url(#p6cc32799ff)" d="M 399.137883 307.584 
L 399.137883 41.472 
" style="fill:none;stroke:#b0b0b0;stroke-linecap:square;stroke-width:0.8;"/>
     </g>
     <g id="line2d_12">
      <g>
       <use style="stroke:#000000;stroke-width:0.8;" x="399.137883" xlink:href="#m787181f9b2" y="307.584"/>
      </g>
     </g>
     <g id="text_6">
      <!-- 500 -->
      <defs>
       <path d="M 10.796875 72.90625 
L 49.515625 72.90625 
L 49.515625 64.59375 
L 19.828125 64.59375 
L 19.828125 46.734375 
Q 21.96875 47.46875 24.109375 47.828125 
Q 26.265625 48.1875 28.421875 48.1875 
Q 40.625 48.1875 47.75 41.5 
Q 54.890625 34.8125 54.890625 23.390625 
Q 54.890625 11.625 47.5625 5.09375 
Q 40.234375 -1.421875 26.90625 -1.421875 
Q 22.3125 -1.421875 17.546875 -0.640625 
Q 12.796875 0.140625 7.71875 1.703125 
L 7.71875 11.625 
Q 12.109375 9.234375 16.796875 8.0625 
Q 21.484375 6.890625 26.703125 6.890625 
Q 35.15625 6.890625 40.078125 11.328125 
Q 45.015625 15.765625 45.015625 23.390625 
Q 45.015625 31 40.078125 35.4375 
Q 35.15625 39.890625 26.703125 39.890625 
Q 22.75 39.890625 18.8125 39.015625 
Q 14.890625 38.140625 10.796875 36.28125 
z
" id="DejaVuSans-53"/>
      </defs>
      <g transform="translate(389.594133 322.182437)scale(0.1 -0.1)">
       <use xlink:href="#DejaVuSans-53"/>
       <use x="63.623047" xlink:href="#DejaVuSans-48"/>
       <use x="127.246094" xlink:href="#DejaVuSans-48"/>
      </g>
     </g>
    </g>
    <g id="text_7">
     <!-- Generations -->
     <defs>
      <path d="M 59.515625 10.40625 
L 59.515625 29.984375 
L 43.40625 29.984375 
L 43.40625 38.09375 
L 69.28125 38.09375 
L 69.28125 6.78125 
Q 63.578125 2.734375 56.6875 0.65625 
Q 49.8125 -1.421875 42 -1.421875 
Q 24.90625 -1.421875 15.25 8.5625 
Q 5.609375 18.5625 5.609375 36.375 
Q 5.609375 54.25 15.25 64.234375 
Q 24.90625 74.21875 42 74.21875 
Q 49.125 74.21875 55.546875 72.453125 
Q 61.96875 70.703125 67.390625 67.28125 
L 67.390625 56.78125 
Q 61.921875 61.421875 55.765625 63.765625 
Q 49.609375 66.109375 42.828125 66.109375 
Q 29.4375 66.109375 22.71875 58.640625 
Q 16.015625 51.171875 16.015625 36.375 
Q 16.015625 21.625 22.71875 14.15625 
Q 29.4375 6.6875 42.828125 6.6875 
Q 48.046875 6.6875 52.140625 7.59375 
Q 56.25 8.5 59.515625 10.40625 
z
" id="DejaVuSans-71"/>
      <path d="M 56.203125 29.59375 
L 56.203125 25.203125 
L 14.890625 25.203125 
Q 15.484375 15.921875 20.484375 11.0625 
Q 25.484375 6.203125 34.421875 6.203125 
Q 39.59375 6.203125 44.453125 7.46875 
Q 49.3125 8.734375 54.109375 11.28125 
L 54.109375 2.78125 
Q 49.265625 0.734375 44.1875 -0.34375 
Q 39.109375 -1.421875 33.890625 -1.421875 
Q 20.796875 -1.421875 13.15625 6.1875 
Q 5.515625 13.8125 5.515625 26.8125 
Q 5.515625 40.234375 12.765625 48.109375 
Q 20.015625 56 32.328125 56 
Q 43.359375 56 49.78125 48.890625 
Q 56.203125 41.796875 56.203125 29.59375 
z
M 47.21875 32.234375 
Q 47.125 39.59375 43.09375 43.984375 
Q 39.0625 48.390625 32.421875 48.390625 
Q 24.90625 48.390625 20.390625 44.140625 
Q 15.875 39.890625 15.1875 32.171875 
z
" id="DejaVuSans-101"/>
      <path d="M 54.890625 33.015625 
L 54.890625 0 
L 45.90625 0 
L 45.90625 32.71875 
Q 45.90625 40.484375 42.875 44.328125 
Q 39.84375 48.1875 33.796875 48.1875 
Q 26.515625 48.1875 22.3125 43.546875 
Q 18.109375 38.921875 18.109375 30.90625 
L 18.109375 0 
L 9.078125 0 
L 9.078125 54.6875 
L 18.109375 54.6875 
L 18.109375 46.1875 
Q 21.34375 51.125 25.703125 53.5625 
Q 30.078125 56 35.796875 56 
Q 45.21875 56 50.046875 50.171875 
Q 54.890625 44.34375 54.890625 33.015625 
z
" id="DejaVuSans-110"/>
      <path d="M 41.109375 46.296875 
Q 39.59375 47.171875 37.8125 47.578125 
Q 36.03125 48 33.890625 48 
Q 26.265625 48 22.1875 43.046875 
Q 18.109375 38.09375 18.109375 28.8125 
L 18.109375 0 
L 9.078125 0 
L 9.078125 54.6875 
L 18.109375 54.6875 
L 18.109375 46.1875 
Q 20.953125 51.171875 25.484375 53.578125 
Q 30.03125 56 36.53125 56 
Q 37.453125 56 38.578125 55.875 
Q 39.703125 55.765625 41.0625 55.515625 
z
" id="DejaVuSans-114"/>
      <path d="M 34.28125 27.484375 
Q 23.390625 27.484375 19.1875 25 
Q 14.984375 22.515625 14.984375 16.5 
Q 14.984375 11.71875 18.140625 8.90625 
Q 21.296875 6.109375 26.703125 6.109375 
Q 34.1875 6.109375 38.703125 11.40625 
Q 43.21875 16.703125 43.21875 25.484375 
L 43.21875 27.484375 
z
M 52.203125 31.203125 
L 52.203125 0 
L 43.21875 0 
L 43.21875 8.296875 
Q 40.140625 3.328125 35.546875 0.953125 
Q 30.953125 -1.421875 24.3125 -1.421875 
Q 15.921875 -1.421875 10.953125 3.296875 
Q 6 8.015625 6 15.921875 
Q 6 25.140625 12.171875 29.828125 
Q 18.359375 34.515625 30.609375 34.515625 
L 43.21875 34.515625 
L 43.21875 35.40625 
Q 43.21875 41.609375 39.140625 45 
Q 35.0625 48.390625 27.6875 48.390625 
Q 23 48.390625 18.546875 47.265625 
Q 14.109375 46.140625 10.015625 43.890625 
L 10.015625 52.203125 
Q 14.9375 54.109375 19.578125 55.046875 
Q 24.21875 56 28.609375 56 
Q 40.484375 56 46.34375 49.84375 
Q 52.203125 43.703125 52.203125 31.203125 
z
" id="DejaVuSans-97"/>
      <path d="M 18.3125 70.21875 
L 18.3125 54.6875 
L 36.8125 54.6875 
L 36.8125 47.703125 
L 18.3125 47.703125 
L 18.3125 18.015625 
Q 18.3125 11.328125 20.140625 9.421875 
Q 21.96875 7.515625 27.59375 7.515625 
L 36.8125 7.515625 
L 36.8125 0 
L 27.59375 0 
Q 17.1875 0 13.234375 3.875 
Q 9.28125 7.765625 9.28125 18.015625 
L 9.28125 47.703125 
L 2.6875 47.703125 
L 2.6875 54.6875 
L 9.28125 54.6875 
L 9.28125 70.21875 
z
" id="DejaVuSans-116"/>
      <path d="M 9.421875 54.6875 
L 18.40625 54.6875 
L 18.40625 0 
L 9.421875 0 
z
M 9.421875 75.984375 
L 18.40625 75.984375 
L 18.40625 64.59375 
L 9.421875 64.59375 
z
" id="DejaVuSans-105"/>
      <path d="M 30.609375 48.390625 
Q 23.390625 48.390625 19.1875 42.75 
Q 14.984375 37.109375 14.984375 27.296875 
Q 14.984375 17.484375 19.15625 11.84375 
Q 23.34375 6.203125 30.609375 6.203125 
Q 37.796875 6.203125 41.984375 11.859375 
Q 46.1875 17.53125 46.1875 27.296875 
Q 46.1875 37.015625 41.984375 42.703125 
Q 37.796875 48.390625 30.609375 48.390625 
z
M 30.609375 56 
Q 42.328125 56 49.015625 48.375 
Q 55.71875 40.765625 55.71875 27.296875 
Q 55.71875 13.875 49.015625 6.21875 
Q 42.328125 -1.421875 30.609375 -1.421875 
Q 18.84375 -1.421875 12.171875 6.21875 
Q 5.515625 13.875 5.515625 27.296875 
Q 5.515625 40.765625 12.171875 48.375 
Q 18.84375 56 30.609375 56 
z
" id="DejaVuSans-111"/>
      <path d="M 44.28125 53.078125 
L 44.28125 44.578125 
Q 40.484375 46.53125 36.375 47.5 
Q 32.28125 48.484375 27.875 48.484375 
Q 21.1875 48.484375 17.84375 46.4375 
Q 14.5 44.390625 14.5 40.28125 
Q 14.5 37.15625 16.890625 35.375 
Q 19.28125 33.59375 26.515625 31.984375 
L 29.59375 31.296875 
Q 39.15625 29.25 43.1875 25.515625 
Q 47.21875 21.78125 47.21875 15.09375 
Q 47.21875 7.46875 41.1875 3.015625 
Q 35.15625 -1.421875 24.609375 -1.421875 
Q 20.21875 -1.421875 15.453125 -0.5625 
Q 10.6875 0.296875 5.421875 2 
L 5.421875 11.28125 
Q 10.40625 8.6875 15.234375 7.390625 
Q 20.0625 6.109375 24.8125 6.109375 
Q 31.15625 6.109375 34.5625 8.28125 
Q 37.984375 10.453125 37.984375 14.40625 
Q 37.984375 18.0625 35.515625 20.015625 
Q 33.0625 21.96875 24.703125 23.78125 
L 21.578125 24.515625 
Q 13.234375 26.265625 9.515625 29.90625 
Q 5.8125 33.546875 5.8125 39.890625 
Q 5.8125 47.609375 11.28125 51.796875 
Q 16.75 56 26.8125 56 
Q 31.78125 56 36.171875 55.265625 
Q 40.578125 54.546875 44.28125 53.078125 
z
" id="DejaVuSans-115"/>
     </defs>
     <g transform="translate(205.662344 335.860562)scale(0.1 -0.1)">
      <use xlink:href="#DejaVuSans-71"/>
      <use x="77.490234" xlink:href="#DejaVuSans-101"/>
      <use x="139.013672" xlink:href="#DejaVuSans-110"/>
      <use x="202.392578" xlink:href="#DejaVuSans-101"/>
      <use x="263.916016" xlink:href="#DejaVuSans-114"/>
      <use x="305.029297" xlink:href="#DejaVuSans-97"/>
      <use x="366.308594" xlink:href="#DejaVuSans-116"/>
      <use x="405.517578" xlink:href="#DejaVuSans-105"/>
      <use x="433.300781" xlink:href="#DejaVuSans-111"/>
      <use x="494.482422" xlink:href="#DejaVuSans-110"/>
      <use x="557.861328" xlink:href="#DejaVuSans-115"/>
     </g>
    </g>
   </g>
   <g id="matplotlib.axis_2">
    <g id="ytick_1">
     <g id="line2d_13">
      <path clip-path="url(#p6cc32799ff)" d="M 57.6 304.039824 
L 414.72 304.039824 
" style="fill:none;stroke:#b0b0b0;stroke-linecap:square;stroke-width:0.8;"/>
     </g>
     <g id="line2d_14">
      <defs>
       <path d="M 0 0 
L -3.5 0 
" id="meedeb48b91" style="stroke:#000000;stroke-width:0.8;"/>
      </defs>
      <g>
       <use style="stroke:#000000;stroke-width:0.8;" x="57.6" xlink:href="#meedeb48b91" y="304.039824"/>
      </g>
     </g>
     <g id="text_8">
      <!-- 22.5 -->
      <defs>
       <path d="M 10.6875 12.40625 
L 21 12.40625 
L 21 0 
L 10.6875 0 
z
" id="DejaVuSans-46"/>
      </defs>
      <g transform="translate(28.334375 307.839042)scale(0.1 -0.1)">
       <use xlink:href="#DejaVuSans-50"/>
       <use x="63.623047" xlink:href="#DejaVuSans-50"/>
       <use x="127.246094" xlink:href="#DejaVuSans-46"/>
       <use x="159.033203" xlink:href="#DejaVuSans-53"/>
      </g>
     </g>
    </g>
    <g id="ytick_2">
     <g id="line2d_15">
      <path clip-path="url(#p6cc32799ff)" d="M 57.6 268.258135 
L 414.72 268.258135 
" style="fill:none;stroke:#b0b0b0;stroke-linecap:square;stroke-width:0.8;"/>
     </g>
     <g id="line2d_16">
      <g>
       <use style="stroke:#000000;stroke-width:0.8;" x="57.6" xlink:href="#meedeb48b91" y="268.258135"/>
      </g>
     </g>
     <g id="text_9">
      <!-- 25.0 -->
      <g transform="translate(28.334375 272.057353)scale(0.1 -0.1)">
       <use xlink:href="#DejaVuSans-50"/>
       <use x="63.623047" xlink:href="#DejaVuSans-53"/>
       <use x="127.246094" xlink:href="#DejaVuSans-46"/>
       <use x="159.033203" xlink:href="#DejaVuSans-48"/>
      </g>
     </g>
    </g>
    <g id="ytick_3">
     <g id="line2d_17">
      <path clip-path="url(#p6cc32799ff)" d="M 57.6 232.476445 
L 414.72 232.476445 
" style="fill:none;stroke:#b0b0b0;stroke-linecap:square;stroke-width:0.8;"/>
     </g>
     <g id="line2d_18">
      <g>
       <use style="stroke:#000000;stroke-width:0.8;" x="57.6" xlink:href="#meedeb48b91" y="232.476445"/>
      </g>
     </g>
     <g id="text_10">
      <!-- 27.5 -->
      <defs>
       <path d="M 8.203125 72.90625 
L 55.078125 72.90625 
L 55.078125 68.703125 
L 28.609375 0 
L 18.3125 0 
L 43.21875 64.59375 
L 8.203125 64.59375 
z
" id="DejaVuSans-55"/>
      </defs>
      <g transform="translate(28.334375 236.275664)scale(0.1 -0.1)">
       <use xlink:href="#DejaVuSans-50"/>
       <use x="63.623047" xlink:href="#DejaVuSans-55"/>
       <use x="127.246094" xlink:href="#DejaVuSans-46"/>
       <use x="159.033203" xlink:href="#DejaVuSans-53"/>
      </g>
     </g>
    </g>
    <g id="ytick_4">
     <g id="line2d_19">
      <path clip-path="url(#p6cc32799ff)" d="M 57.6 196.694756 
L 414.72 196.694756 
" style="fill:none;stroke:#b0b0b0;stroke-linecap:square;stroke-width:0.8;"/>
     </g>
     <g id="line2d_20">
      <g>
       <use style="stroke:#000000;stroke-width:0.8;" x="57.6" xlink:href="#meedeb48b91" y="196.694756"/>
      </g>
     </g>
     <g id="text_11">
      <!-- 30.0 -->
      <g transform="translate(28.334375 200.493975)scale(0.1 -0.1)">
       <use xlink:href="#DejaVuSans-51"/>
       <use x="63.623047" xlink:href="#DejaVuSans-48"/>
       <use x="127.246094" xlink:href="#DejaVuSans-46"/>
       <use x="159.033203" xlink:href="#DejaVuSans-48"/>
      </g>
     </g>
    </g>
    <g id="ytick_5">
     <g id="line2d_21">
      <path clip-path="url(#p6cc32799ff)" d="M 57.6 160.913067 
L 414.72 160.913067 
" style="fill:none;stroke:#b0b0b0;stroke-linecap:square;stroke-width:0.8;"/>
     </g>
     <g id="line2d_22">
      <g>
       <use style="stroke:#000000;stroke-width:0.8;" x="57.6" xlink:href="#meedeb48b91" y="160.913067"/>
      </g>
     </g>
     <g id="text_12">
      <!-- 32.5 -->
      <g transform="translate(28.334375 164.712286)scale(0.1 -0.1)">
       <use xlink:href="#DejaVuSans-51"/>
       <use x="63.623047" xlink:href="#DejaVuSans-50"/>
       <use x="127.246094" xlink:href="#DejaVuSans-46"/>
       <use x="159.033203" xlink:href="#DejaVuSans-53"/>
      </g>
     </g>
    </g>
    <g id="ytick_6">
     <g id="line2d_23">
      <path clip-path="url(#p6cc32799ff)" d="M 57.6 125.131378 
L 414.72 125.131378 
" style="fill:none;stroke:#b0b0b0;stroke-linecap:square;stroke-width:0.8;"/>
     </g>
     <g id="line2d_24">
      <g>
       <use style="stroke:#000000;stroke-width:0.8;" x="57.6" xlink:href="#meedeb48b91" y="125.131378"/>
      </g>
     </g>
     <g id="text_13">
      <!-- 35.0 -->
      <g transform="translate(28.334375 128.930597)scale(0.1 -0.1)">
       <use xlink:href="#DejaVuSans-51"/>
       <use x="63.623047" xlink:href="#DejaVuSans-53"/>
       <use x="127.246094" xlink:href="#DejaVuSans-46"/>
       <use x="159.033203" xlink:href="#DejaVuSans-48"/>
      </g>
     </g>
    </g>
    <g id="ytick_7">
     <g id="line2d_25">
      <path clip-path="url(#p6cc32799ff)" d="M 57.6 89.349689 
L 414.72 89.349689 
" style="fill:none;stroke:#b0b0b0;stroke-linecap:square;stroke-width:0.8;"/>
     </g>
     <g id="line2d_26">
      <g>
       <use style="stroke:#000000;stroke-width:0.8;" x="57.6" xlink:href="#meedeb48b91" y="89.349689"/>
      </g>
     </g>
     <g id="text_14">
      <!-- 37.5 -->
      <g transform="translate(28.334375 93.148908)scale(0.1 -0.1)">
       <use xlink:href="#DejaVuSans-51"/>
       <use x="63.623047" xlink:href="#DejaVuSans-55"/>
       <use x="127.246094" xlink:href="#DejaVuSans-46"/>
       <use x="159.033203" xlink:href="#DejaVuSans-53"/>
      </g>
     </g>
    </g>
    <g id="ytick_8">
     <g id="line2d_27">
      <path clip-path="url(#p6cc32799ff)" d="M 57.6 53.568 
L 414.72 53.568 
" style="fill:none;stroke:#b0b0b0;stroke-linecap:square;stroke-width:0.8;"/>
     </g>
     <g id="line2d_28">
      <g>
       <use style="stroke:#000000;stroke-width:0.8;" x="57.6" xlink:href="#meedeb48b91" y="53.568"/>
      </g>
     </g>
     <g id="text_15">
      <!-- 40.0 -->
      <g transform="translate(28.334375 57.367219)scale(0.1 -0.1)">
       <use xlink:href="#DejaVuSans-52"/>
       <use x="63.623047" xlink:href="#DejaVuSans-48"/>
       <use x="127.246094" xlink:href="#DejaVuSans-46"/>
       <use x="159.033203" xlink:href="#DejaVuSans-48"/>
      </g>
     </g>
    </g>
    <g id="text_16">
     <!-- Fitness -->
     <defs>
      <path d="M 9.8125 72.90625 
L 51.703125 72.90625 
L 51.703125 64.59375 
L 19.671875 64.59375 
L 19.671875 43.109375 
L 48.578125 43.109375 
L 48.578125 34.8125 
L 19.671875 34.8125 
L 19.671875 0 
L 9.8125 0 
z
" id="DejaVuSans-70"/>
     </defs>
     <g transform="translate(22.254687 192.202219)rotate(-90)scale(0.1 -0.1)">
      <use xlink:href="#DejaVuSans-70"/>
      <use x="57.410156" xlink:href="#DejaVuSans-105"/>
      <use x="85.193359" xlink:href="#DejaVuSans-116"/>
      <use x="124.402344" xlink:href="#DejaVuSans-110"/>
      <use x="187.78125" xlink:href="#DejaVuSans-101"/>
      <use x="249.304688" xlink:href="#DejaVuSans-115"/>
      <use x="301.404297" xlink:href="#DejaVuSans-115"/>
     </g>
    </g>
   </g>
   <g id="line2d_29">
    <path clip-path="url(#p6cc32799ff)" d="M 73.832727 295.488 
L 74.483338 291.122634 
L 75.133948 292.850238 
L 75.784558 287.687592 
L 76.435169 280.007346 
L 77.085779 286.914458 
L 77.736389 287.448513 
L 78.386999 286.112836 
L 79.03761 283.510531 
L 79.68822 281.785576 
L 80.33883 281.318451 
L 80.989441 282.965395 
L 81.640051 285.671289 
L 82.290661 287.887987 
L 82.941272 281.716322 
L 83.591882 285.238664 
L 84.242492 289.564914 
L 84.893103 286.918965 
L 85.543713 283.532109 
L 86.194323 281.088942 
L 86.844934 282.035423 
L 87.495544 278.680332 
L 88.146154 285.726939 
L 88.796764 280.812496 
L 89.447375 280.592928 
L 90.097985 280.681828 
L 90.748595 283.5203 
L 91.399206 285.198944 
L 92.049816 283.751606 
L 92.700426 279.736972 
L 93.351037 282.534939 
L 94.652257 281.714191 
L 95.302868 284.368885 
L 95.953478 285.03359 
L 96.604088 279.514083 
L 97.254698 280.82188 
L 97.905309 279.736972 
L 98.555919 279.978192 
L 99.206529 283.108881 
L 99.85714 279.83613 
L 100.50775 278.93018 
L 101.15836 276.788632 
L 102.459581 283.000191 
L 103.110191 283.572698 
L 103.760802 281.928346 
L 104.411412 283.144752 
L 105.062022 281.964038 
L 105.712633 282.85564 
L 106.363243 282.248775 
L 107.013853 284.216768 
L 107.664463 278.947802 
L 108.315074 282.03274 
L 108.965684 275.683508 
L 109.616294 283.324109 
L 110.266905 279.378259 
L 110.917515 276.988867 
L 111.568125 276.953085 
L 112.869346 279.198902 
L 113.519956 277.27512 
L 114.170567 277.310902 
L 114.821177 283.748661 
L 116.122398 271.988757 
L 116.773008 272.945536 
L 117.423618 268.939691 
L 118.074228 269.796747 
L 118.724839 273.746454 
L 119.375449 275.539396 
L 120.026059 271.934458 
L 120.67667 274.054768 
L 121.32728 275.342909 
L 121.97789 272.838191 
L 122.628501 271.585832 
L 123.279111 272.327075 
L 123.929721 278.277008 
L 125.230942 273.208383 
L 125.881552 276.974877 
L 126.532163 275.593381 
L 127.182773 275.020874 
L 127.833383 276.022761 
L 128.483993 271.872085 
L 129.134604 274.841965 
L 129.785214 270.476599 
L 130.435824 271.192233 
L 131.086435 278.062317 
L 131.737045 281.390014 
L 132.387655 276.84574 
L 133.038266 276.809958 
L 133.688876 275.915416 
L 134.339486 278.921078 
L 134.990097 275.486036 
L 135.640707 275.486036 
L 136.291317 272.766627 
L 136.941927 273.589606 
L 137.592538 281.49736 
L 138.243148 274.054768 
L 138.893758 276.058543 
L 139.544369 276.559486 
L 140.194979 277.847627 
L 140.845589 277.561374 
L 141.4962 272.909754 
L 142.14681 275.808071 
L 142.79742 273.911641 
L 143.448031 277.919191 
L 144.098641 274.51993 
L 144.749251 275.342909 
L 145.399862 275.271346 
L 146.050472 276.130106 
L 146.701082 274.412585 
L 147.351692 272.086775 
L 148.002303 275.092437 
L 149.303523 270.440818 
L 149.954134 275.915416 
L 150.604744 273.732733 
L 151.255354 276.41636 
L 151.905965 273.374916 
L 152.556575 273.410698 
L 153.207185 273.732733 
L 153.857796 276.988867 
L 154.508406 268.759078 
L 155.159016 276.309015 
L 155.809627 274.627275 
L 156.460237 279.207331 
L 157.110847 273.625388 
L 157.761457 273.768515 
L 158.412068 270.941761 
L 159.062678 276.595268 
L 159.713288 269.582057 
L 160.363899 272.766627 
L 161.014509 274.126332 
L 161.665119 274.09055 
L 162.31573 273.66117 
L 162.96634 274.376803 
L 163.61695 277.740282 
L 164.267561 275.271346 
L 164.918171 276.022761 
L 165.568781 271.514268 
L 166.219392 270.798635 
L 166.870002 269.796747 
L 167.520612 274.341022 
L 168.171222 270.083001 
L 168.821833 274.841965 
L 169.472443 276.20167 
L 170.123053 275.808071 
L 170.773664 275.808071 
L 171.424274 271.013325 
L 172.074884 272.444592 
L 172.725495 273.052881 
L 173.376105 273.160226 
L 174.026715 274.018987 
L 174.677326 272.623501 
L 175.327936 271.76474 
L 175.978546 271.943649 
L 176.629156 274.018987 
L 177.279767 272.265684 
L 177.930377 275.879634 
L 178.580987 272.587719 
L 179.231598 273.696951 
L 179.882208 273.160226 
L 180.532818 273.768515 
L 181.183429 273.339134 
L 181.834039 271.585832 
L 182.484649 276.595268 
L 183.13526 268.329698 
L 183.78587 272.373029 
L 184.43648 277.27512 
L 185.087091 269.510494 
L 185.737701 272.229902 
L 186.388311 268.830642 
L 187.038921 272.730846 
L 187.689532 270.655508 
L 188.340142 272.337247 
L 188.990752 276.237451 
L 189.641363 269.403149 
L 190.291973 275.450254 
L 190.942583 274.448367 
L 191.593194 273.732733 
L 192.243804 272.838191 
L 192.894414 269.617839 
L 193.545025 271.514268 
L 194.195635 271.228015 
L 194.846245 274.770402 
L 195.496856 277.525592 
L 196.147466 275.879634 
L 196.798076 279.064205 
L 197.448686 275.164001 
L 198.099297 274.018987 
L 198.749907 274.162113 
L 199.400517 275.664944 
L 200.051128 272.909754 
L 200.701738 275.056656 
L 201.352348 268.58017 
L 202.002959 271.228015 
L 202.653569 273.124444 
L 203.95479 278.241226 
L 204.6054 278.133881 
L 205.906621 271.800522 
L 206.557231 271.156451 
L 207.207841 271.084888 
L 207.858451 273.983205 
L 209.159672 276.452141 
L 209.810282 274.448367 
L 210.460893 271.084888 
L 211.111503 273.768515 
L 211.762113 274.841965 
L 212.412724 275.629163 
L 213.063334 267.578283 
L 213.713944 273.124444 
L 214.364555 274.484148 
L 215.015165 274.555712 
L 215.665775 269.403149 
L 216.316385 279.851402 
L 216.966996 273.231789 
L 217.617606 275.879634 
L 218.268216 273.911641 
L 218.918827 274.913529 
L 219.569437 275.128219 
L 220.220047 275.521817 
L 220.870658 277.597155 
L 221.521268 270.297691 
L 222.171878 272.623501 
L 222.822489 276.738395 
L 223.473099 272.265684 
L 224.123709 268.937987 
L 224.77432 277.525592 
L 225.42493 271.55005 
L 226.07554 273.911641 
L 226.72615 277.167775 
L 227.376761 275.736508 
L 228.027371 277.48981 
L 228.677981 271.872085 
L 229.328592 271.084888 
L 229.979202 275.986979 
L 230.629812 270.941761 
L 231.280423 270.691289 
L 231.931033 271.836304 
L 232.581643 278.992641 
L 233.232254 268.759078 
L 233.882864 274.698839 
L 234.533474 276.738395 
L 235.184085 269.904092 
L 235.834695 270.762853 
L 236.485305 275.342909 
L 237.786526 269.725184 
L 238.437136 273.983205 
L 239.087746 272.802409 
L 239.738357 269.725184 
L 240.388967 270.333473 
L 241.039577 276.487923 
L 241.690188 271.442705 
L 242.340798 277.740282 
L 242.991408 273.625388 
L 243.642019 274.663057 
L 244.292629 276.41636 
L 244.943239 276.237451 
L 245.59385 271.013325 
L 246.24446 276.273233 
L 246.89507 271.156451 
L 247.54568 272.873972 
L 248.196291 277.847627 
L 248.846901 274.877747 
L 249.497511 275.915416 
L 250.148122 274.627275 
L 250.798732 273.625388 
L 251.449342 276.380578 
L 252.099953 273.87586 
L 252.750563 269.939874 
L 253.401173 273.267571 
L 254.051784 271.442705 
L 254.702394 270.619726 
L 255.353004 278.420134 
L 256.003615 272.050994 
L 256.654225 276.84574 
L 257.304835 275.593381 
L 257.955445 273.804296 
L 258.606056 275.521817 
L 259.256666 275.772289 
L 259.907276 274.663057 
L 260.557887 273.983205 
L 261.208497 272.19412 
L 261.859107 275.450254 
L 262.509718 273.87586 
L 263.160328 274.985092 
L 263.810938 273.696951 
L 264.461549 274.985092 
L 265.112159 273.160226 
L 265.762769 273.553825 
L 266.413379 272.122557 
L 267.06399 275.486036 
L 267.7146 277.06043 
L 268.36521 270.691289 
L 269.015821 272.623501 
L 269.666431 270.226127 
L 270.317041 271.728958 
L 270.967652 277.418247 
L 271.618262 278.491698 
L 272.268872 271.585832 
L 272.919483 274.412585 
L 273.570093 272.444592 
L 274.220703 272.981318 
L 274.871314 271.728958 
L 275.521924 272.623501 
L 276.172534 274.913529 
L 276.823144 274.448367 
L 277.473755 271.55005 
L 278.124365 274.233677 
L 278.774975 274.663057 
L 279.425586 275.593381 
L 280.076196 275.199782 
L 280.726806 276.165888 
L 281.377417 274.841965 
L 282.028027 271.478487 
L 282.678637 271.657395 
L 283.329248 271.33536 
L 283.979858 268.043444 
L 284.630468 274.806184 
L 285.281079 276.237451 
L 285.931689 271.12067 
L 286.582299 274.627275 
L 287.232909 270.154564 
L 287.88352 272.373029 
L 288.53413 271.263796 
L 289.18474 272.408811 
L 289.835351 276.702613 
L 290.485961 276.344796 
L 291.136571 275.486036 
L 292.437792 272.050994 
L 293.088402 271.585832 
L 293.739013 276.344796 
L 294.389623 273.911641 
L 295.040233 276.380578 
L 295.690844 275.378691 
L 296.341454 274.054768 
L 296.992064 271.049106 
L 297.642674 271.872085 
L 298.293285 273.267571 
L 298.943895 274.162113 
L 299.594505 273.696951 
L 300.245116 275.414472 
L 300.895726 271.156451 
L 301.546336 277.704501 
L 302.196947 271.371142 
L 302.847557 276.237451 
L 303.498167 272.551937 
L 304.148778 279.278895 
L 304.799388 271.943649 
L 305.449998 274.30524 
L 306.100608 270.297691 
L 306.751219 270.405036 
L 307.401829 272.265684 
L 308.052439 273.482261 
L 308.70305 269.832529 
L 309.35366 275.557599 
L 310.00427 277.48981 
L 310.654881 280.960634 
L 311.305491 278.277008 
L 312.606712 277.525592 
L 313.257322 275.128219 
L 313.907932 278.455916 
L 314.558543 278.599043 
L 315.209153 273.947423 
L 315.859763 279.135768 
L 316.510373 269.188459 
L 317.160984 273.696951 
L 317.811594 272.050994 
L 318.462204 274.09055 
L 319.112815 267.864536 
L 319.763425 274.018987 
L 320.414035 274.126332 
L 321.064646 269.510494 
L 321.715256 274.806184 
L 322.365866 270.655508 
L 323.016477 272.730846 
L 323.667087 272.337247 
L 324.317697 274.233677 
L 324.968308 278.277008 
L 325.618918 272.802409 
L 326.269528 273.589606 
L 326.920138 272.086775 
L 327.570749 271.228015 
L 328.221359 276.63105 
L 328.871969 276.595268 
L 329.52258 279.565148 
L 330.17319 272.373029 
L 330.8238 271.478487 
L 331.474411 275.557599 
L 332.125021 267.363592 
L 332.775631 272.551937 
L 333.426242 271.943649 
L 334.076852 271.049106 
L 334.727462 275.307127 
L 335.378073 271.693177 
L 336.028683 275.128219 
L 336.679293 270.762853 
L 337.329903 273.553825 
L 337.980514 271.693177 
L 338.631124 275.092437 
L 339.281734 274.054768 
L 339.932345 274.448367 
L 340.582955 270.90598 
L 341.233565 275.951198 
L 341.884176 273.732733 
L 342.534786 275.378691 
L 343.185396 269.474712 
L 343.836007 270.977543 
L 344.486617 274.018987 
L 345.137227 273.267571 
L 345.787837 270.476599 
L 346.438448 272.015212 
L 347.089058 277.48981 
L 347.739668 277.024648 
L 348.390279 274.51993 
L 349.040889 268.79486 
L 349.691499 270.405036 
L 350.34211 276.881522 
L 350.99272 276.953085 
L 351.64333 275.986979 
L 352.293941 273.088663 
L 352.944551 277.382465 
L 353.595161 273.911641 
L 354.245772 272.587719 
L 354.896382 273.410698 
L 355.546992 270.798635 
L 356.197602 273.911641 
L 356.848213 273.804296 
L 357.498823 269.65362 
L 358.149433 268.36548 
L 358.800044 276.595268 
L 359.450654 273.553825 
L 360.101264 271.156451 
L 360.751875 268.329698 
L 361.402485 272.265684 
L 362.703706 277.561374 
L 363.354316 277.668719 
L 364.655537 267.256247 
L 365.306147 275.307127 
L 365.956757 269.152677 
L 366.607367 272.945536 
L 367.257978 273.911641 
L 367.908588 272.337247 
L 368.559198 268.258135 
L 369.209809 274.126332 
L 369.860419 271.514268 
L 370.511029 276.559486 
L 371.16164 271.12067 
L 371.81225 270.297691 
L 373.113471 272.873972 
L 373.764081 272.587719 
L 374.414691 270.297691 
L 375.065302 272.695064 
L 375.715912 276.273233 
L 376.366522 272.659282 
L 377.017132 266.25436 
L 377.667743 266.147015 
L 378.318353 275.092437 
L 378.968963 273.804296 
L 379.619574 270.369254 
L 380.270184 278.95686 
L 380.920794 271.371142 
L 381.571405 275.128219 
L 382.222015 271.299578 
L 382.872625 277.418247 
L 383.523236 275.342909 
L 384.173846 273.66117 
L 384.824456 267.327811 
L 385.475066 271.192233 
L 386.125677 270.047219 
L 386.776287 273.410698 
L 387.426897 271.657395 
L 388.077508 274.698839 
L 388.728118 275.199782 
L 389.378728 277.776064 
L 390.029339 276.273233 
L 390.679949 276.487923 
L 391.330559 269.331585 
L 391.98117 273.983205 
L 392.63178 274.877747 
L 393.28239 270.190346 
L 393.933001 270.548163 
L 394.583611 272.158339 
L 395.234221 272.229902 
L 395.884831 270.548163 
L 396.535442 271.728958 
L 397.186052 272.444592 
L 397.836662 272.838191 
L 398.487273 276.165888 
L 398.487273 276.165888 
" style="fill:none;stroke:#0000ff;stroke-linecap:square;stroke-width:1.5;"/>
   </g>
   <g id="line2d_30">
    <path clip-path="url(#p6cc32799ff)" d="M 73.832727 245.469358 
L 74.483338 240.986384 
L 75.133948 240.526726 
L 75.784558 238.909511 
L 76.435169 227.61287 
L 77.085779 237.277527 
L 77.736389 238.69549 
L 78.386999 233.339375 
L 79.03761 232.145117 
L 79.68822 230.132041 
L 80.33883 229.298532 
L 80.989441 230.787954 
L 81.640051 228.234454 
L 82.290661 234.12231 
L 82.941272 226.189113 
L 84.242492 237.838986 
L 84.893103 233.49409 
L 85.543713 233.556463 
L 86.194323 229.040904 
L 86.844934 231.503499 
L 87.495544 226.610235 
L 88.146154 236.523714 
L 88.796764 229.154489 
L 89.447375 228.950954 
L 90.097985 227.561822 
L 90.748595 231.92395 
L 91.399206 230.946034 
L 92.049816 234.57409 
L 92.700426 228.32946 
L 93.351037 231.782569 
L 94.001647 229.258738 
L 94.652257 229.765931 
L 95.302868 228.604163 
L 95.953478 233.955226 
L 96.604088 226.594972 
L 97.254698 225.131625 
L 97.905309 226.446413 
L 98.555919 226.151557 
L 99.206529 231.070665 
L 99.85714 226.177329 
L 100.50775 229.369945 
L 101.15836 224.60494 
L 101.808971 225.136253 
L 102.459581 233.535244 
L 103.110191 229.866587 
L 103.760802 227.94202 
L 104.411412 231.359119 
L 105.062022 229.023592 
L 105.712633 232.430031 
L 106.363243 228.339186 
L 107.013853 232.262002 
L 107.664463 221.987346 
L 108.315074 229.493761 
L 108.965684 222.517131 
L 109.616294 229.427454 
L 110.266905 227.188759 
L 110.917515 221.633958 
L 111.568125 220.452552 
L 112.218736 223.259953 
L 112.869346 226.789962 
L 113.519956 223.382432 
L 114.170567 223.002938 
L 114.821177 228.940175 
L 115.471787 226.300829 
L 116.122398 220.334486 
L 116.773008 222.820012 
L 117.423618 216.461045 
L 118.074228 220.214235 
L 118.724839 221.178681 
L 119.375449 224.686098 
L 120.026059 218.455101 
L 120.67667 221.513455 
L 121.32728 221.981432 
L 121.97789 217.995051 
L 122.628501 220.552675 
L 123.279111 219.389949 
L 123.929721 229.76147 
L 124.580332 224.073783 
L 125.230942 222.217465 
L 125.881552 225.569117 
L 126.532163 223.064021 
L 127.182773 224.723998 
L 127.833383 219.56802 
L 128.483993 221.667953 
L 129.134604 222.014037 
L 129.785214 219.358151 
L 130.435824 220.786056 
L 131.086435 229.862855 
L 131.737045 230.513146 
L 132.387655 224.257612 
L 133.688876 223.54437 
L 134.339486 225.588401 
L 134.990097 224.049985 
L 135.640707 224.681128 
L 136.291317 218.480675 
L 136.941927 220.29772 
L 137.592538 229.409494 
L 138.243148 222.170628 
L 138.893758 221.476793 
L 139.544369 223.915683 
L 140.194979 229.48836 
L 140.845589 228.182643 
L 141.4962 217.626176 
L 142.14681 223.007596 
L 142.79742 221.667484 
L 143.448031 227.358005 
L 144.098641 220.811925 
L 144.749251 222.173727 
L 145.399862 228.58503 
L 146.050472 221.822036 
L 146.701082 224.266925 
L 147.351692 220.311388 
L 148.652913 223.836248 
L 149.303523 219.90016 
L 149.954134 225.803113 
L 150.604744 222.274347 
L 151.255354 226.794291 
L 151.905965 221.060777 
L 152.556575 220.743941 
L 153.857796 226.93971 
L 154.508406 220.447119 
L 155.159016 223.34033 
L 155.809627 221.089498 
L 156.460237 222.055516 
L 157.110847 217.816276 
L 157.761457 221.754639 
L 158.412068 218.271224 
L 159.062678 223.864773 
L 159.713288 218.75907 
L 160.363899 220.089418 
L 161.014509 225.670156 
L 161.665119 222.95113 
L 162.31573 222.78571 
L 162.96634 221.65301 
L 163.61695 224.834481 
L 164.267561 222.634742 
L 164.918171 224.510661 
L 165.568781 220.37625 
L 166.219392 218.462376 
L 166.870002 219.618736 
L 167.520612 222.985883 
L 168.171222 218.604614 
L 168.821833 223.979783 
L 170.123053 225.287684 
L 172.074884 219.571035 
L 172.725495 221.392696 
L 173.376105 225.399632 
L 174.026715 224.097708 
L 175.327936 219.196141 
L 175.978546 222.298686 
L 176.629156 222.671589 
L 177.279767 219.635502 
L 177.930377 227.556718 
L 178.580987 223.82791 
L 179.231598 221.029805 
L 179.882208 224.728801 
L 180.532818 222.909604 
L 181.183429 222.839571 
L 181.834039 216.81587 
L 182.484649 228.550292 
L 183.13526 218.041516 
L 184.43648 224.690693 
L 185.087091 217.935499 
L 185.737701 221.504653 
L 186.388311 217.07018 
L 187.038921 222.188972 
L 187.689532 217.381499 
L 188.340142 218.49081 
L 188.990752 222.394973 
L 189.641363 216.2848 
L 190.291973 223.716329 
L 190.942583 221.297549 
L 191.593194 221.347179 
L 192.243804 215.896762 
L 192.894414 217.086273 
L 193.545025 217.959717 
L 194.195635 217.838773 
L 194.846245 225.432188 
L 195.496856 224.081126 
L 196.147466 229.592026 
L 196.798076 225.654763 
L 197.448686 222.440304 
L 198.099297 221.978102 
L 198.749907 219.338131 
L 200.051128 221.724426 
L 200.701738 223.6218 
L 201.352348 216.056367 
L 202.653569 219.677763 
L 203.95479 227.092694 
L 204.6054 228.69006 
L 205.25601 224.009999 
L 205.906621 221.408024 
L 206.557231 218.332219 
L 207.207841 218.363523 
L 207.858451 219.75535 
L 209.159672 226.358301 
L 209.810282 219.749515 
L 210.460893 220.454632 
L 211.111503 225.91883 
L 211.762113 223.299638 
L 212.412724 225.310845 
L 213.063334 215.824067 
L 213.713944 222.371123 
L 214.364555 221.101946 
L 215.015165 224.193394 
L 215.665775 218.480185 
L 216.316385 229.667356 
L 216.966996 223.154309 
L 217.617606 222.520137 
L 218.268216 220.169546 
L 218.918827 227.901727 
L 219.569437 221.318269 
L 220.220047 223.373875 
L 220.870658 223.328246 
L 221.521268 222.127098 
L 222.171878 220.471569 
L 222.822489 222.858359 
L 223.473099 221.598812 
L 224.123709 218.720595 
L 224.77432 225.795132 
L 225.42493 224.194556 
L 226.07554 221.736147 
L 226.72615 225.791462 
L 227.376761 225.704557 
L 228.027371 223.728659 
L 228.677981 218.975674 
L 229.328592 219.542374 
L 229.979202 224.177071 
L 230.629812 220.394822 
L 231.931033 218.527591 
L 232.581643 227.313179 
L 233.232254 215.428706 
L 233.882864 226.815505 
L 234.533474 224.011299 
L 235.184085 218.335192 
L 235.834695 220.262478 
L 236.485305 223.500242 
L 237.135915 219.470189 
L 237.786526 219.667649 
L 238.437136 220.987636 
L 239.087746 221.88328 
L 239.738357 218.394745 
L 240.388967 217.301243 
L 241.039577 223.969228 
L 241.690188 219.200471 
L 242.340798 226.078474 
L 242.991408 221.586706 
L 243.642019 225.995237 
L 244.292629 224.632751 
L 244.943239 227.423686 
L 245.59385 219.715921 
L 246.24446 227.198493 
L 246.89507 220.167369 
L 247.54568 221.143017 
L 248.196291 229.424861 
L 248.846901 224.878358 
L 249.497511 226.825286 
L 250.148122 225.875909 
L 250.798732 220.102152 
L 251.449342 221.991575 
L 252.099953 224.267532 
L 252.750563 220.372341 
L 253.401173 219.395033 
L 254.051784 219.367389 
L 254.702394 220.02128 
L 255.353004 225.210657 
L 256.003615 219.375729 
L 256.654225 225.53924 
L 257.304835 224.698094 
L 257.955445 223.470575 
L 258.606056 225.458247 
L 259.256666 223.684423 
L 259.907276 225.85863 
L 260.557887 222.987079 
L 261.208497 221.118971 
L 261.859107 225.172219 
L 262.509718 223.928018 
L 263.160328 224.861906 
L 263.810938 220.488052 
L 264.461549 225.344449 
L 265.112159 219.846338 
L 265.762769 221.330992 
L 266.413379 221.424361 
L 267.06399 227.09739 
L 268.36521 220.574234 
L 269.015821 217.75352 
L 269.666431 217.933726 
L 270.317041 222.223456 
L 270.967652 223.521188 
L 271.618262 231.545303 
L 272.268872 220.884921 
L 272.919483 220.821027 
L 273.570093 225.491285 
L 274.220703 221.195731 
L 274.871314 223.374788 
L 275.521924 220.383264 
L 276.172534 223.162221 
L 276.823144 224.527191 
L 277.473755 220.841753 
L 278.124365 222.54293 
L 278.774975 221.124765 
L 279.425586 223.929095 
L 280.076196 223.406928 
L 280.726806 222.217839 
L 281.377417 225.120299 
L 282.028027 220.053589 
L 282.678637 217.76852 
L 283.329248 218.29386 
L 283.979858 216.468586 
L 284.630468 223.904156 
L 285.281079 226.272694 
L 285.931689 218.698358 
L 286.582299 222.948853 
L 287.232909 218.718576 
L 287.88352 221.729929 
L 288.53413 223.512412 
L 289.18474 223.366432 
L 289.835351 223.491211 
L 290.485961 219.867234 
L 291.136571 226.133292 
L 291.787182 220.613388 
L 292.437792 221.206183 
L 293.088402 222.060161 
L 293.739013 225.18669 
L 294.389623 223.798929 
L 295.040233 228.673092 
L 296.341454 217.794892 
L 296.992064 214.451613 
L 297.642674 218.244906 
L 298.293285 218.499374 
L 298.943895 221.930958 
L 299.594505 222.120455 
L 300.245116 221.832662 
L 300.895726 220.997734 
L 301.546336 223.61016 
L 302.196947 218.646474 
L 302.847557 227.392221 
L 303.498167 224.195 
L 304.148778 227.828658 
L 304.799388 222.000421 
L 305.449998 222.336244 
L 306.100608 221.378076 
L 306.751219 220.62346 
L 307.401829 218.413873 
L 308.052439 222.202169 
L 308.70305 218.082953 
L 309.35366 224.712537 
L 310.00427 226.105561 
L 311.305491 227.583054 
L 311.956101 222.625734 
L 312.606712 226.573183 
L 313.257322 224.445177 
L 313.907932 224.370203 
L 314.558543 228.698286 
L 315.209153 222.831943 
L 315.859763 222.982634 
L 316.510373 219.389859 
L 317.160984 221.892578 
L 317.811594 222.275024 
L 318.462204 223.535303 
L 319.112815 218.352724 
L 319.763425 224.852303 
L 320.414035 220.103043 
L 321.064646 219.734383 
L 321.715256 223.234466 
L 322.365866 218.853421 
L 323.016477 219.05384 
L 323.667087 219.527983 
L 324.317697 221.551765 
L 324.968308 230.026093 
L 325.618918 219.351332 
L 326.269528 227.368873 
L 326.920138 219.20547 
L 327.570749 220.707222 
L 329.52258 228.980621 
L 330.17319 220.698831 
L 330.8238 219.008571 
L 331.474411 223.498205 
L 332.125021 213.928039 
L 332.775631 222.406482 
L 333.426242 217.487362 
L 334.076852 217.683791 
L 334.727462 222.699635 
L 335.378073 219.895131 
L 336.028683 225.527828 
L 336.679293 217.508206 
L 337.329903 221.596446 
L 337.980514 220.481791 
L 338.631124 223.956923 
L 339.281734 222.846233 
L 339.932345 226.228362 
L 340.582955 217.255826 
L 341.233565 226.425217 
L 341.884176 218.473582 
L 342.534786 226.810415 
L 343.185396 216.900658 
L 343.836007 220.32624 
L 344.486617 220.197819 
L 345.137227 223.681844 
L 345.787837 215.851705 
L 346.438448 221.384754 
L 347.089058 223.890847 
L 347.739668 222.953141 
L 348.390279 224.229469 
L 349.040889 219.595688 
L 349.691499 219.203452 
L 350.34211 225.605987 
L 350.99272 225.609777 
L 351.64333 227.075308 
L 352.293941 218.740823 
L 352.944551 226.464543 
L 353.595161 220.102881 
L 354.245772 220.046369 
L 354.896382 219.751715 
L 355.546992 217.7046 
L 356.197602 222.887455 
L 356.848213 222.893919 
L 358.149433 215.085704 
L 358.800044 227.318919 
L 360.101264 220.20756 
L 360.751875 220.387629 
L 361.402485 222.301119 
L 362.053095 225.627585 
L 362.703706 223.036842 
L 363.354316 229.269027 
L 364.004926 220.033382 
L 364.655537 217.079958 
L 365.306147 225.871503 
L 365.956757 218.582946 
L 366.607367 220.659696 
L 367.257978 220.532892 
L 367.908588 220.064081 
L 368.559198 216.543999 
L 369.209809 222.836004 
L 369.860419 217.787863 
L 370.511029 226.940514 
L 371.16164 223.61854 
L 371.81225 219.397675 
L 372.46286 219.723691 
L 373.113471 219.56335 
L 373.764081 223.44083 
L 374.414691 219.984628 
L 375.065302 221.660992 
L 375.715912 227.723084 
L 376.366522 221.858469 
L 377.017132 213.92905 
L 377.667743 213.645156 
L 378.318353 222.945379 
L 378.968963 222.254132 
L 379.619574 220.263147 
L 380.270184 227.274932 
L 380.920794 216.588558 
L 381.571405 223.404974 
L 382.222015 221.098302 
L 382.872625 225.545114 
L 383.523236 223.936737 
L 384.173846 221.170529 
L 384.824456 215.701343 
L 385.475066 220.320838 
L 386.125677 216.161611 
L 386.776287 222.564628 
L 387.426897 221.878712 
L 388.077508 221.88235 
L 388.728118 227.429365 
L 389.378728 227.086606 
L 390.029339 219.253071 
L 390.679949 225.442864 
L 391.330559 220.64876 
L 392.63178 223.683978 
L 393.28239 220.194682 
L 393.933001 215.171979 
L 394.583611 220.905281 
L 395.884831 217.399356 
L 396.535442 219.524578 
L 397.186052 223.44182 
L 397.836662 221.957484 
L 398.487273 223.944734 
L 398.487273 223.944734 
" style="fill:none;stroke:#008000;stroke-dasharray:9.6,2.4,1.5,2.4;stroke-dashoffset:0;stroke-width:1.5;"/>
   </g>
   <g id="line2d_31">
    <path clip-path="url(#p6cc32799ff)" d="M 73.832727 139.444054 
L 74.483338 139.444054 
L 75.133948 125.131378 
L 75.784558 153.756729 
L 76.435169 139.444054 
L 77.085779 96.506027 
L 77.736389 168.069405 
L 78.386999 139.444054 
L 79.03761 139.444054 
L 79.68822 96.506027 
L 80.33883 110.818703 
L 80.989441 96.506027 
L 81.640051 67.880676 
L 82.290661 125.131378 
L 82.941272 139.444054 
L 83.591882 125.131378 
L 84.242492 139.444054 
L 84.893103 139.444054 
L 85.543713 153.756729 
L 86.194323 125.131378 
L 86.844934 139.444054 
L 87.495544 125.131378 
L 88.146154 139.444054 
L 90.097985 139.444054 
L 90.748595 153.756729 
L 91.399206 139.444054 
L 92.049816 168.069405 
L 92.700426 139.444054 
L 93.351037 139.444054 
L 94.001647 110.818703 
L 94.652257 139.444054 
L 95.302868 139.444054 
L 96.604088 110.818703 
L 97.254698 82.193351 
L 97.905309 125.131378 
L 98.555919 125.131378 
L 99.206529 139.444054 
L 99.85714 110.818703 
L 100.50775 139.444054 
L 101.15836 139.444054 
L 101.808971 125.131378 
L 102.459581 139.444054 
L 103.110191 125.131378 
L 104.411412 125.131378 
L 105.062022 110.818703 
L 105.712633 153.756729 
L 106.363243 125.131378 
L 107.013853 139.444054 
L 107.664463 125.131378 
L 108.315074 139.444054 
L 108.965684 96.506027 
L 109.616294 82.193351 
L 110.266905 125.131378 
L 110.917515 139.444054 
L 111.568125 125.131378 
L 112.218736 96.506027 
L 112.869346 110.818703 
L 113.519956 139.444054 
L 114.170567 125.131378 
L 114.821177 96.506027 
L 115.471787 153.756729 
L 116.122398 96.506027 
L 117.423618 96.506027 
L 118.074228 110.818703 
L 118.724839 96.506027 
L 120.67667 139.444054 
L 121.32728 110.818703 
L 122.628501 110.818703 
L 123.279111 125.131378 
L 123.929721 125.131378 
L 125.230942 153.756729 
L 125.881552 139.444054 
L 126.532163 153.756729 
L 127.182773 153.756729 
L 127.833383 110.818703 
L 128.483993 110.818703 
L 129.134604 125.131378 
L 129.785214 82.193351 
L 130.435824 139.444054 
L 131.086435 110.818703 
L 131.737045 139.444054 
L 132.387655 110.818703 
L 133.038266 125.131378 
L 133.688876 110.818703 
L 134.339486 139.444054 
L 134.990097 139.444054 
L 135.640707 153.756729 
L 136.291317 139.444054 
L 136.941927 96.506027 
L 137.592538 96.506027 
L 138.243148 125.131378 
L 138.893758 125.131378 
L 139.544369 82.193351 
L 140.194979 153.756729 
L 140.845589 139.444054 
L 141.4962 82.193351 
L 142.14681 110.818703 
L 143.448031 110.818703 
L 144.098641 139.444054 
L 144.749251 110.818703 
L 145.399862 153.756729 
L 146.050472 110.818703 
L 146.701082 96.506027 
L 147.351692 110.818703 
L 148.002303 67.880676 
L 149.954134 110.818703 
L 150.604744 110.818703 
L 151.255354 125.131378 
L 151.905965 110.818703 
L 152.556575 125.131378 
L 153.207185 125.131378 
L 153.857796 153.756729 
L 154.508406 125.131378 
L 155.159016 125.131378 
L 155.809627 96.506027 
L 156.460237 96.506027 
L 157.110847 110.818703 
L 157.761457 82.193351 
L 158.412068 139.444054 
L 159.062678 139.444054 
L 159.713288 96.506027 
L 160.363899 139.444054 
L 161.014509 153.756729 
L 161.665119 110.818703 
L 162.31573 139.444054 
L 164.267561 139.444054 
L 164.918171 110.818703 
L 165.568781 125.131378 
L 166.219392 96.506027 
L 166.870002 153.756729 
L 167.520612 125.131378 
L 168.171222 139.444054 
L 168.821833 110.818703 
L 169.472443 139.444054 
L 170.123053 139.444054 
L 170.773664 125.131378 
L 171.424274 125.131378 
L 172.074884 139.444054 
L 172.725495 125.131378 
L 174.026715 153.756729 
L 174.677326 125.131378 
L 175.327936 139.444054 
L 175.978546 82.193351 
L 176.629156 82.193351 
L 177.279767 139.444054 
L 177.930377 125.131378 
L 178.580987 125.131378 
L 179.231598 139.444054 
L 180.532818 139.444054 
L 181.834039 110.818703 
L 182.484649 125.131378 
L 183.13526 125.131378 
L 183.78587 139.444054 
L 184.43648 110.818703 
L 185.087091 110.818703 
L 185.737701 53.568 
L 186.388311 125.131378 
L 188.340142 125.131378 
L 188.990752 96.506027 
L 189.641363 139.444054 
L 190.291973 110.818703 
L 190.942583 139.444054 
L 191.593194 139.444054 
L 192.243804 82.193351 
L 192.894414 139.444054 
L 194.195635 110.818703 
L 195.496856 110.818703 
L 196.147466 139.444054 
L 196.798076 125.131378 
L 197.448686 139.444054 
L 198.099297 110.818703 
L 198.749907 96.506027 
L 199.400517 67.880676 
L 200.051128 125.131378 
L 200.701738 139.444054 
L 201.352348 110.818703 
L 202.002959 110.818703 
L 202.653569 82.193351 
L 203.304179 110.818703 
L 203.95479 125.131378 
L 204.6054 153.756729 
L 205.906621 125.131378 
L 206.557231 125.131378 
L 207.207841 139.444054 
L 207.858451 125.131378 
L 208.509062 96.506027 
L 209.159672 110.818703 
L 209.810282 110.818703 
L 210.460893 139.444054 
L 211.111503 153.756729 
L 211.762113 96.506027 
L 212.412724 139.444054 
L 213.063334 96.506027 
L 213.713944 96.506027 
L 214.364555 139.444054 
L 215.015165 96.506027 
L 216.316385 153.756729 
L 216.966996 153.756729 
L 217.617606 110.818703 
L 218.918827 110.818703 
L 219.569437 153.756729 
L 220.220047 82.193351 
L 220.870658 125.131378 
L 221.521268 139.444054 
L 222.171878 67.880676 
L 222.822489 96.506027 
L 223.473099 139.444054 
L 224.123709 82.193351 
L 224.77432 110.818703 
L 225.42493 125.131378 
L 226.07554 110.818703 
L 226.72615 139.444054 
L 227.376761 125.131378 
L 228.027371 139.444054 
L 228.677981 139.444054 
L 229.328592 110.818703 
L 229.979202 139.444054 
L 230.629812 96.506027 
L 231.280423 125.131378 
L 231.931033 110.818703 
L 232.581643 125.131378 
L 236.485305 125.131378 
L 237.786526 153.756729 
L 238.437136 125.131378 
L 239.087746 110.818703 
L 239.738357 139.444054 
L 240.388967 125.131378 
L 241.039577 139.444054 
L 241.690188 125.131378 
L 242.340798 139.444054 
L 243.642019 110.818703 
L 244.943239 139.444054 
L 245.59385 125.131378 
L 246.24446 139.444054 
L 248.846901 139.444054 
L 249.497511 153.756729 
L 250.148122 153.756729 
L 250.798732 125.131378 
L 251.449342 125.131378 
L 252.099953 96.506027 
L 252.750563 96.506027 
L 253.401173 125.131378 
L 254.051784 96.506027 
L 254.702394 139.444054 
L 255.353004 153.756729 
L 256.003615 82.193351 
L 256.654225 139.444054 
L 257.304835 125.131378 
L 257.955445 139.444054 
L 258.606056 125.131378 
L 259.256666 96.506027 
L 260.557887 125.131378 
L 261.208497 110.818703 
L 261.859107 125.131378 
L 262.509718 82.193351 
L 263.160328 139.444054 
L 263.810938 139.444054 
L 264.461549 125.131378 
L 265.762769 125.131378 
L 266.413379 139.444054 
L 267.06399 67.880676 
L 267.7146 125.131378 
L 268.36521 125.131378 
L 269.666431 96.506027 
L 270.317041 153.756729 
L 270.967652 96.506027 
L 271.618262 153.756729 
L 272.268872 110.818703 
L 272.919483 110.818703 
L 273.570093 153.756729 
L 274.220703 125.131378 
L 274.871314 110.818703 
L 275.521924 110.818703 
L 276.172534 82.193351 
L 276.823144 153.756729 
L 278.124365 96.506027 
L 278.774975 125.131378 
L 279.425586 125.131378 
L 280.076196 110.818703 
L 280.726806 110.818703 
L 282.028027 139.444054 
L 282.678637 125.131378 
L 283.329248 125.131378 
L 283.979858 110.818703 
L 284.630468 125.131378 
L 285.931689 125.131378 
L 286.582299 153.756729 
L 287.232909 110.818703 
L 287.88352 110.818703 
L 288.53413 125.131378 
L 289.835351 125.131378 
L 290.485961 139.444054 
L 291.136571 139.444054 
L 291.787182 110.818703 
L 292.437792 125.131378 
L 293.088402 110.818703 
L 294.389623 139.444054 
L 295.040233 139.444054 
L 295.690844 110.818703 
L 296.341454 125.131378 
L 296.992064 96.506027 
L 297.642674 125.131378 
L 298.293285 125.131378 
L 298.943895 110.818703 
L 299.594505 153.756729 
L 300.245116 96.506027 
L 300.895726 139.444054 
L 301.546336 110.818703 
L 303.498167 110.818703 
L 304.799388 139.444054 
L 306.751219 139.444054 
L 307.401829 82.193351 
L 308.052439 125.131378 
L 308.70305 110.818703 
L 309.35366 139.444054 
L 310.00427 125.131378 
L 310.654881 125.131378 
L 311.305491 139.444054 
L 311.956101 110.818703 
L 313.257322 139.444054 
L 313.907932 125.131378 
L 314.558543 153.756729 
L 315.209153 139.444054 
L 315.859763 96.506027 
L 316.510373 96.506027 
L 317.160984 125.131378 
L 317.811594 139.444054 
L 318.462204 139.444054 
L 319.112815 125.131378 
L 319.763425 125.131378 
L 320.414035 110.818703 
L 321.064646 153.756729 
L 321.715256 153.756729 
L 322.365866 139.444054 
L 323.016477 82.193351 
L 323.667087 110.818703 
L 324.317697 125.131378 
L 325.618918 125.131378 
L 326.269528 153.756729 
L 326.920138 125.131378 
L 327.570749 139.444054 
L 328.221359 139.444054 
L 328.871969 125.131378 
L 329.52258 125.131378 
L 330.17319 110.818703 
L 330.8238 82.193351 
L 331.474411 139.444054 
L 332.125021 96.506027 
L 332.775631 125.131378 
L 333.426242 139.444054 
L 334.076852 125.131378 
L 335.378073 125.131378 
L 336.028683 153.756729 
L 337.329903 125.131378 
L 337.980514 139.444054 
L 338.631124 110.818703 
L 339.281734 96.506027 
L 339.932345 125.131378 
L 340.582955 125.131378 
L 341.233565 110.818703 
L 341.884176 110.818703 
L 342.534786 139.444054 
L 343.185396 96.506027 
L 343.836007 96.506027 
L 344.486617 125.131378 
L 345.137227 139.444054 
L 345.787837 110.818703 
L 347.089058 139.444054 
L 348.390279 110.818703 
L 349.040889 139.444054 
L 350.34211 139.444054 
L 350.99272 125.131378 
L 351.64333 125.131378 
L 352.293941 139.444054 
L 352.944551 110.818703 
L 354.245772 139.444054 
L 354.896382 82.193351 
L 355.546992 125.131378 
L 356.197602 82.193351 
L 356.848213 110.818703 
L 358.149433 110.818703 
L 358.800044 139.444054 
L 359.450654 125.131378 
L 360.751875 125.131378 
L 361.402485 139.444054 
L 362.053095 125.131378 
L 362.703706 96.506027 
L 363.354316 153.756729 
L 364.004926 67.880676 
L 364.655537 110.818703 
L 365.306147 139.444054 
L 365.956757 125.131378 
L 366.607367 125.131378 
L 367.257978 110.818703 
L 367.908588 139.444054 
L 368.559198 125.131378 
L 369.860419 125.131378 
L 370.511029 153.756729 
L 371.16164 125.131378 
L 371.81225 125.131378 
L 372.46286 110.818703 
L 373.113471 125.131378 
L 373.764081 110.818703 
L 375.065302 139.444054 
L 376.366522 139.444054 
L 377.017132 96.506027 
L 377.667743 125.131378 
L 378.318353 82.193351 
L 378.968963 139.444054 
L 379.619574 110.818703 
L 380.270184 139.444054 
L 380.920794 96.506027 
L 381.571405 125.131378 
L 382.222015 82.193351 
L 382.872625 139.444054 
L 383.523236 139.444054 
L 384.173846 110.818703 
L 384.824456 139.444054 
L 385.475066 82.193351 
L 386.125677 110.818703 
L 386.776287 125.131378 
L 387.426897 82.193351 
L 388.728118 110.818703 
L 389.378728 139.444054 
L 390.029339 125.131378 
L 390.679949 139.444054 
L 391.330559 125.131378 
L 392.63178 125.131378 
L 393.28239 139.444054 
L 393.933001 82.193351 
L 394.583611 139.444054 
L 395.234221 96.506027 
L 395.884831 110.818703 
L 396.535442 139.444054 
L 397.186052 139.444054 
L 397.836662 110.818703 
L 398.487273 96.506027 
L 398.487273 96.506027 
" style="fill:none;stroke:#ff0000;stroke-linecap:square;stroke-width:1.5;"/>
   </g>
   <g id="patch_3">
    <path d="M 57.6 307.584 
L 57.6 41.472 
" style="fill:none;stroke:#000000;stroke-linecap:square;stroke-linejoin:miter;stroke-width:0.8;"/>
   </g>
   <g id="patch_4">
    <path d="M 414.72 307.584 
L 414.72 41.472 
" style="fill:none;stroke:#000000;stroke-linecap:square;stroke-linejoin:miter;stroke-width:0.8;"/>
   </g>
   <g id="patch_5">
    <path d="M 57.6 307.584 
L 414.72 307.584 
" style="fill:none;stroke:#000000;stroke-linecap:square;stroke-linejoin:miter;stroke-width:0.8;"/>
   </g>
   <g id="patch_6">
    <path d="M 57.6 41.472 
L 414.72 41.472 
" style="fill:none;stroke:#000000;stroke-linecap:square;stroke-linejoin:miter;stroke-width:0.8;"/>
   </g>
   <g id="text_17">
    <!-- Population's average and best fitness -->
    <defs>
     <path d="M 19.671875 64.796875 
L 19.671875 37.40625 
L 32.078125 37.40625 
Q 38.96875 37.40625 42.71875 40.96875 
Q 46.484375 44.53125 46.484375 51.125 
Q 46.484375 57.671875 42.71875 61.234375 
Q 38.96875 64.796875 32.078125 64.796875 
z
M 9.8125 72.90625 
L 32.078125 72.90625 
Q 44.34375 72.90625 50.609375 67.359375 
Q 56.890625 61.8125 56.890625 51.125 
Q 56.890625 40.328125 50.609375 34.8125 
Q 44.34375 29.296875 32.078125 29.296875 
L 19.671875 29.296875 
L 19.671875 0 
L 9.8125 0 
z
" id="DejaVuSans-80"/>
     <path d="M 18.109375 8.203125 
L 18.109375 -20.796875 
L 9.078125 -20.796875 
L 9.078125 54.6875 
L 18.109375 54.6875 
L 18.109375 46.390625 
Q 20.953125 51.265625 25.265625 53.625 
Q 29.59375 56 35.59375 56 
Q 45.5625 56 51.78125 48.09375 
Q 58.015625 40.1875 58.015625 27.296875 
Q 58.015625 14.40625 51.78125 6.484375 
Q 45.5625 -1.421875 35.59375 -1.421875 
Q 29.59375 -1.421875 25.265625 0.953125 
Q 20.953125 3.328125 18.109375 8.203125 
z
M 48.6875 27.296875 
Q 48.6875 37.203125 44.609375 42.84375 
Q 40.53125 48.484375 33.40625 48.484375 
Q 26.265625 48.484375 22.1875 42.84375 
Q 18.109375 37.203125 18.109375 27.296875 
Q 18.109375 17.390625 22.1875 11.75 
Q 26.265625 6.109375 33.40625 6.109375 
Q 40.53125 6.109375 44.609375 11.75 
Q 48.6875 17.390625 48.6875 27.296875 
z
" id="DejaVuSans-112"/>
     <path d="M 8.5 21.578125 
L 8.5 54.6875 
L 17.484375 54.6875 
L 17.484375 21.921875 
Q 17.484375 14.15625 20.5 10.265625 
Q 23.53125 6.390625 29.59375 6.390625 
Q 36.859375 6.390625 41.078125 11.03125 
Q 45.3125 15.671875 45.3125 23.6875 
L 45.3125 54.6875 
L 54.296875 54.6875 
L 54.296875 0 
L 45.3125 0 
L 45.3125 8.40625 
Q 42.046875 3.421875 37.71875 1 
Q 33.40625 -1.421875 27.6875 -1.421875 
Q 18.265625 -1.421875 13.375 4.4375 
Q 8.5 10.296875 8.5 21.578125 
z
M 31.109375 56 
z
" id="DejaVuSans-117"/>
     <path d="M 9.421875 75.984375 
L 18.40625 75.984375 
L 18.40625 0 
L 9.421875 0 
z
" id="DejaVuSans-108"/>
     <path d="M 17.921875 72.90625 
L 17.921875 45.796875 
L 9.625 45.796875 
L 9.625 72.90625 
z
" id="DejaVuSans-39"/>
     <path id="DejaVuSans-32"/>
     <path d="M 2.984375 54.6875 
L 12.5 54.6875 
L 29.59375 8.796875 
L 46.6875 54.6875 
L 56.203125 54.6875 
L 35.6875 0 
L 23.484375 0 
z
" id="DejaVuSans-118"/>
     <path d="M 45.40625 27.984375 
Q 45.40625 37.75 41.375 43.109375 
Q 37.359375 48.484375 30.078125 48.484375 
Q 22.859375 48.484375 18.828125 43.109375 
Q 14.796875 37.75 14.796875 27.984375 
Q 14.796875 18.265625 18.828125 12.890625 
Q 22.859375 7.515625 30.078125 7.515625 
Q 37.359375 7.515625 41.375 12.890625 
Q 45.40625 18.265625 45.40625 27.984375 
z
M 54.390625 6.78125 
Q 54.390625 -7.171875 48.1875 -13.984375 
Q 42 -20.796875 29.203125 -20.796875 
Q 24.46875 -20.796875 20.265625 -20.09375 
Q 16.0625 -19.390625 12.109375 -17.921875 
L 12.109375 -9.1875 
Q 16.0625 -11.328125 19.921875 -12.34375 
Q 23.78125 -13.375 27.78125 -13.375 
Q 36.625 -13.375 41.015625 -8.765625 
Q 45.40625 -4.15625 45.40625 5.171875 
L 45.40625 9.625 
Q 42.625 4.78125 38.28125 2.390625 
Q 33.9375 0 27.875 0 
Q 17.828125 0 11.671875 7.65625 
Q 5.515625 15.328125 5.515625 27.984375 
Q 5.515625 40.671875 11.671875 48.328125 
Q 17.828125 56 27.875 56 
Q 33.9375 56 38.28125 53.609375 
Q 42.625 51.21875 45.40625 46.390625 
L 45.40625 54.6875 
L 54.390625 54.6875 
z
" id="DejaVuSans-103"/>
     <path d="M 45.40625 46.390625 
L 45.40625 75.984375 
L 54.390625 75.984375 
L 54.390625 0 
L 45.40625 0 
L 45.40625 8.203125 
Q 42.578125 3.328125 38.25 0.953125 
Q 33.9375 -1.421875 27.875 -1.421875 
Q 17.96875 -1.421875 11.734375 6.484375 
Q 5.515625 14.40625 5.515625 27.296875 
Q 5.515625 40.1875 11.734375 48.09375 
Q 17.96875 56 27.875 56 
Q 33.9375 56 38.25 53.625 
Q 42.578125 51.265625 45.40625 46.390625 
z
M 14.796875 27.296875 
Q 14.796875 17.390625 18.875 11.75 
Q 22.953125 6.109375 30.078125 6.109375 
Q 37.203125 6.109375 41.296875 11.75 
Q 45.40625 17.390625 45.40625 27.296875 
Q 45.40625 37.203125 41.296875 42.84375 
Q 37.203125 48.484375 30.078125 48.484375 
Q 22.953125 48.484375 18.875 42.84375 
Q 14.796875 37.203125 14.796875 27.296875 
z
" id="DejaVuSans-100"/>
     <path d="M 48.6875 27.296875 
Q 48.6875 37.203125 44.609375 42.84375 
Q 40.53125 48.484375 33.40625 48.484375 
Q 26.265625 48.484375 22.1875 42.84375 
Q 18.109375 37.203125 18.109375 27.296875 
Q 18.109375 17.390625 22.1875 11.75 
Q 26.265625 6.109375 33.40625 6.109375 
Q 40.53125 6.109375 44.609375 11.75 
Q 48.6875 17.390625 48.6875 27.296875 
z
M 18.109375 46.390625 
Q 20.953125 51.265625 25.265625 53.625 
Q 29.59375 56 35.59375 56 
Q 45.5625 56 51.78125 48.09375 
Q 58.015625 40.1875 58.015625 27.296875 
Q 58.015625 14.40625 51.78125 6.484375 
Q 45.5625 -1.421875 35.59375 -1.421875 
Q 29.59375 -1.421875 25.265625 0.953125 
Q 20.953125 3.328125 18.109375 8.203125 
L 18.109375 0 
L 9.078125 0 
L 9.078125 75.984375 
L 18.109375 75.984375 
z
" id="DejaVuSans-98"/>
     <path d="M 37.109375 75.984375 
L 37.109375 68.5 
L 28.515625 68.5 
Q 23.6875 68.5 21.796875 66.546875 
Q 19.921875 64.59375 19.921875 59.515625 
L 19.921875 54.6875 
L 34.71875 54.6875 
L 34.71875 47.703125 
L 19.921875 47.703125 
L 19.921875 0 
L 10.890625 0 
L 10.890625 47.703125 
L 2.296875 47.703125 
L 2.296875 54.6875 
L 10.890625 54.6875 
L 10.890625 58.5 
Q 10.890625 67.625 15.140625 71.796875 
Q 19.390625 75.984375 28.609375 75.984375 
z
" id="DejaVuSans-102"/>
    </defs>
    <g transform="translate(123.315 35.472)scale(0.12 -0.12)">
     <use xlink:href="#DejaVuSans-80"/>
     <use x="60.255859" xlink:href="#DejaVuSans-111"/>
     <use x="121.4375" xlink:href="#DejaVuSans-112"/>
     <use x="184.914062" xlink:href="#DejaVuSans-117"/>
     <use x="248.292969" xlink:href="#DejaVuSans-108"/>
     <use x="276.076172" xlink:href="#DejaVuSans-97"/>
     <use x="337.355469" xlink:href="#DejaVuSans-116"/>
     <use x="376.564453" xlink:href="#DejaVuSans-105"/>
     <use x="404.347656" xlink:href="#DejaVuSans-111"/>
     <use x="465.529297" xlink:href="#DejaVuSans-110"/>
     <use x="528.908203" xlink:href="#DejaVuSans-39"/>
     <use x="556.398438" xlink:href="#DejaVuSans-115"/>
     <use x="608.498047" xlink:href="#DejaVuSans-32"/>
     <use x="640.285156" xlink:href="#DejaVuSans-97"/>
     <use x="701.564453" xlink:href="#DejaVuSans-118"/>
     <use x="760.744141" xlink:href="#DejaVuSans-101"/>
     <use x="822.267578" xlink:href="#DejaVuSans-114"/>
     <use x="863.380859" xlink:href="#DejaVuSans-97"/>
     <use x="924.660156" xlink:href="#DejaVuSans-103"/>
     <use x="988.136719" xlink:href="#DejaVuSans-101"/>
     <use x="1049.660156" xlink:href="#DejaVuSans-32"/>
     <use x="1081.447266" xlink:href="#DejaVuSans-97"/>
     <use x="1142.726562" xlink:href="#DejaVuSans-110"/>
     <use x="1206.105469" xlink:href="#DejaVuSans-100"/>
     <use x="1269.582031" xlink:href="#DejaVuSans-32"/>
     <use x="1301.369141" xlink:href="#DejaVuSans-98"/>
     <use x="1364.845703" xlink:href="#DejaVuSans-101"/>
     <use x="1426.369141" xlink:href="#DejaVuSans-115"/>
     <use x="1478.46875" xlink:href="#DejaVuSans-116"/>
     <use x="1517.677734" xlink:href="#DejaVuSans-32"/>
     <use x="1549.464844" xlink:href="#DejaVuSans-102"/>
     <use x="1584.669922" xlink:href="#DejaVuSans-105"/>
     <use x="1612.453125" xlink:href="#DejaVuSans-116"/>
     <use x="1651.662109" xlink:href="#DejaVuSans-110"/>
     <use x="1715.041016" xlink:href="#DejaVuSans-101"/>
     <use x="1776.564453" xlink:href="#DejaVuSans-115"/>
     <use x="1828.664062" xlink:href="#DejaVuSans-115"/>
    </g>
   </g>
   <g id="legend_1">
    <g id="patch_7">
     <path d="M 334.779375 198.045187 
L 407.72 198.045187 
Q 409.72 198.045187 409.72 196.045187 
L 409.72 153.010812 
Q 409.72 151.010812 407.72 151.010812 
L 334.779375 151.010812 
Q 332.779375 151.010812 332.779375 153.010812 
L 332.779375 196.045187 
Q 332.779375 198.045187 334.779375 198.045187 
z
" style="fill:#ffffff;opacity:0.8;stroke:#cccccc;stroke-linejoin:miter;"/>
    </g>
    <g id="line2d_32">
     <path d="M 336.779375 159.10925 
L 356.779375 159.10925 
" style="fill:none;stroke:#0000ff;stroke-linecap:square;stroke-width:1.5;"/>
    </g>
    <g id="line2d_33"/>
    <g id="text_18">
     <!-- average -->
     <g transform="translate(364.779375 162.60925)scale(0.1 -0.1)">
      <use xlink:href="#DejaVuSans-97"/>
      <use x="61.279297" xlink:href="#DejaVuSans-118"/>
      <use x="120.458984" xlink:href="#DejaVuSans-101"/>
      <use x="181.982422" xlink:href="#DejaVuSans-114"/>
      <use x="223.095703" xlink:href="#DejaVuSans-97"/>
      <use x="284.375" xlink:href="#DejaVuSans-103"/>
      <use x="347.851562" xlink:href="#DejaVuSans-101"/>
     </g>
    </g>
    <g id="line2d_34">
     <path d="M 336.779375 173.787375 
L 356.779375 173.787375 
" style="fill:none;stroke:#008000;stroke-dasharray:9.6,2.4,1.5,2.4;stroke-dashoffset:0;stroke-width:1.5;"/>
    </g>
    <g id="line2d_35"/>
    <g id="text_19">
     <!-- +1 sd -->
     <defs>
      <path d="M 46 62.703125 
L 46 35.5 
L 73.1875 35.5 
L 73.1875 27.203125 
L 46 27.203125 
L 46 0 
L 37.796875 0 
L 37.796875 27.203125 
L 10.59375 27.203125 
L 10.59375 35.5 
L 37.796875 35.5 
L 37.796875 62.703125 
z
" id="DejaVuSans-43"/>
     </defs>
     <g transform="translate(364.779375 177.287375)scale(0.1 -0.1)">
      <use xlink:href="#DejaVuSans-43"/>
      <use x="83.789062" xlink:href="#DejaVuSans-49"/>
      <use x="147.412109" xlink:href="#DejaVuSans-32"/>
      <use x="179.199219" xlink:href="#DejaVuSans-115"/>
      <use x="231.298828" xlink:href="#DejaVuSans-100"/>
     </g>
    </g>
    <g id="line2d_36">
     <path d="M 336.779375 188.4655 
L 356.779375 188.4655 
" style="fill:none;stroke:#ff0000;stroke-linecap:square;stroke-width:1.5;"/>
    </g>
    <g id="line2d_37"/>
    <g id="text_20">
     <!-- best -->
     <g transform="translate(364.779375 191.9655)scale(0.1 -0.1)">
      <use xlink:href="#DejaVuSans-98"/>
      <use x="63.476562" xlink:href="#DejaVuSans-101"/>
      <use x="125" xlink:href="#DejaVuSans-115"/>
      <use x="177.099609" xlink:href="#DejaVuSans-116"/>
     </g>
    </g>
   </g>
  </g>
 </g>
 <defs>
  <clipPath id="p6cc32799ff">
   <rect height="266.112" width="357.12" x="57.6" y="41.472"/>
  </clipPath>
 </defs>
</svg>
