<?xml version="1.0" encoding="utf-8" standalone="no"?>
<!DOCTYPE svg PUBLIC "-//W3C//DTD SVG 1.1//EN"
  "http://www.w3.org/Graphics/SVG/1.1/DTD/svg11.dtd">
<!-- Created with matplotlib (https://matplotlib.org/) -->
<svg height="345.6pt" version="1.1" viewBox="0 0 460.8 345.6" width="460.8pt" xmlns="http://www.w3.org/2000/svg" xmlns:xlink="http://www.w3.org/1999/xlink">
 <defs>
  <style type="text/css">
*{stroke-linecap:butt;stroke-linejoin:round;}
  </style>
 </defs>
 <g id="figure_1">
  <g id="patch_1">
   <path d="M 0 345.6 
L 460.8 345.6 
L 460.8 0 
L 0 0 
z
" style="fill:#ffffff;"/>
  </g>
  <g id="axes_1">
   <g id="patch_2">
    <path d="M 57.6 307.584 
L 414.72 307.584 
L 414.72 41.472 
L 57.6 41.472 
z
" style="fill:#ffffff;"/>
   </g>
   <g id="matplotlib.axis_1">
    <g id="xtick_1">
     <g id="line2d_1">
      <path clip-path="url(#pc9c79da1dc)" d="M 73.832727 307.584 
L 73.832727 41.472 
" style="fill:none;stroke:#b0b0b0;stroke-linecap:square;stroke-width:0.8;"/>
     </g>
     <g id="line2d_2">
      <defs>
       <path d="M 0 0 
L 0 3.5 
" id="m766ccfeeb3" style="stroke:#000000;stroke-width:0.8;"/>
      </defs>
      <g>
       <use style="stroke:#000000;stroke-width:0.8;" x="73.832727" xlink:href="#m766ccfeeb3" y="307.584"/>
      </g>
     </g>
     <g id="text_1">
      <!-- 0 -->
      <defs>
       <path d="M 31.78125 66.40625 
Q 24.171875 66.40625 20.328125 58.90625 
Q 16.5 51.421875 16.5 36.375 
Q 16.5 21.390625 20.328125 13.890625 
Q 24.171875 6.390625 31.78125 6.390625 
Q 39.453125 6.390625 43.28125 13.890625 
Q 47.125 21.390625 47.125 36.375 
Q 47.125 51.421875 43.28125 58.90625 
Q 39.453125 66.40625 31.78125 66.40625 
z
M 31.78125 74.21875 
Q 44.046875 74.21875 50.515625 64.515625 
Q 56.984375 54.828125 56.984375 36.375 
Q 56.984375 17.96875 50.515625 8.265625 
Q 44.046875 -1.421875 31.78125 -1.421875 
Q 19.53125 -1.421875 13.0625 8.265625 
Q 6.59375 17.96875 6.59375 36.375 
Q 6.59375 54.828125 13.0625 64.515625 
Q 19.53125 74.21875 31.78125 74.21875 
z
" id="DejaVuSans-48"/>
      </defs>
      <g transform="translate(70.651477 322.182437)scale(0.1 -0.1)">
       <use xlink:href="#DejaVuSans-48"/>
      </g>
     </g>
    </g>
    <g id="xtick_2">
     <g id="line2d_3">
      <path clip-path="url(#pc9c79da1dc)" d="M 138.893758 307.584 
L 138.893758 41.472 
" style="fill:none;stroke:#b0b0b0;stroke-linecap:square;stroke-width:0.8;"/>
     </g>
     <g id="line2d_4">
      <g>
       <use style="stroke:#000000;stroke-width:0.8;" x="138.893758" xlink:href="#m766ccfeeb3" y="307.584"/>
      </g>
     </g>
     <g id="text_2">
      <!-- 100 -->
      <defs>
       <path d="M 12.40625 8.296875 
L 28.515625 8.296875 
L 28.515625 63.921875 
L 10.984375 60.40625 
L 10.984375 69.390625 
L 28.421875 72.90625 
L 38.28125 72.90625 
L 38.28125 8.296875 
L 54.390625 8.296875 
L 54.390625 0 
L 12.40625 0 
z
" id="DejaVuSans-49"/>
      </defs>
      <g transform="translate(129.350008 322.182437)scale(0.1 -0.1)">
       <use xlink:href="#DejaVuSans-49"/>
       <use x="63.623047" xlink:href="#DejaVuSans-48"/>
       <use x="127.246094" xlink:href="#DejaVuSans-48"/>
      </g>
     </g>
    </g>
    <g id="xtick_3">
     <g id="line2d_5">
      <path clip-path="url(#pc9c79da1dc)" d="M 203.95479 307.584 
L 203.95479 41.472 
" style="fill:none;stroke:#b0b0b0;stroke-linecap:square;stroke-width:0.8;"/>
     </g>
     <g id="line2d_6">
      <g>
       <use style="stroke:#000000;stroke-width:0.8;" x="203.95479" xlink:href="#m766ccfeeb3" y="307.584"/>
      </g>
     </g>
     <g id="text_3">
      <!-- 200 -->
      <defs>
       <path d="M 19.1875 8.296875 
L 53.609375 8.296875 
L 53.609375 0 
L 7.328125 0 
L 7.328125 8.296875 
Q 12.9375 14.109375 22.625 23.890625 
Q 32.328125 33.6875 34.8125 36.53125 
Q 39.546875 41.84375 41.421875 45.53125 
Q 43.3125 49.21875 43.3125 52.78125 
Q 43.3125 58.59375 39.234375 62.25 
Q 35.15625 65.921875 28.609375 65.921875 
Q 23.96875 65.921875 18.8125 64.3125 
Q 13.671875 62.703125 7.8125 59.421875 
L 7.8125 69.390625 
Q 13.765625 71.78125 18.9375 73 
Q 24.125 74.21875 28.421875 74.21875 
Q 39.75 74.21875 46.484375 68.546875 
Q 53.21875 62.890625 53.21875 53.421875 
Q 53.21875 48.921875 51.53125 44.890625 
Q 49.859375 40.875 45.40625 35.40625 
Q 44.1875 33.984375 37.640625 27.21875 
Q 31.109375 20.453125 19.1875 8.296875 
z
" id="DejaVuSans-50"/>
      </defs>
      <g transform="translate(194.41104 322.182437)scale(0.1 -0.1)">
       <use xlink:href="#DejaVuSans-50"/>
       <use x="63.623047" xlink:href="#DejaVuSans-48"/>
       <use x="127.246094" xlink:href="#DejaVuSans-48"/>
      </g>
     </g>
    </g>
    <g id="xtick_4">
     <g id="line2d_7">
      <path clip-path="url(#pc9c79da1dc)" d="M 269.015821 307.584 
L 269.015821 41.472 
" style="fill:none;stroke:#b0b0b0;stroke-linecap:square;stroke-width:0.8;"/>
     </g>
     <g id="line2d_8">
      <g>
       <use style="stroke:#000000;stroke-width:0.8;" x="269.015821" xlink:href="#m766ccfeeb3" y="307.584"/>
      </g>
     </g>
     <g id="text_4">
      <!-- 300 -->
      <defs>
       <path d="M 40.578125 39.3125 
Q 47.65625 37.796875 51.625 33 
Q 55.609375 28.21875 55.609375 21.1875 
Q 55.609375 10.40625 48.1875 4.484375 
Q 40.765625 -1.421875 27.09375 -1.421875 
Q 22.515625 -1.421875 17.65625 -0.515625 
Q 12.796875 0.390625 7.625 2.203125 
L 7.625 11.71875 
Q 11.71875 9.328125 16.59375 8.109375 
Q 21.484375 6.890625 26.8125 6.890625 
Q 36.078125 6.890625 40.9375 10.546875 
Q 45.796875 14.203125 45.796875 21.1875 
Q 45.796875 27.640625 41.28125 31.265625 
Q 36.765625 34.90625 28.71875 34.90625 
L 20.21875 34.90625 
L 20.21875 43.015625 
L 29.109375 43.015625 
Q 36.375 43.015625 40.234375 45.921875 
Q 44.09375 48.828125 44.09375 54.296875 
Q 44.09375 59.90625 40.109375 62.90625 
Q 36.140625 65.921875 28.71875 65.921875 
Q 24.65625 65.921875 20.015625 65.03125 
Q 15.375 64.15625 9.8125 62.3125 
L 9.8125 71.09375 
Q 15.4375 72.65625 20.34375 73.4375 
Q 25.25 74.21875 29.59375 74.21875 
Q 40.828125 74.21875 47.359375 69.109375 
Q 53.90625 64.015625 53.90625 55.328125 
Q 53.90625 49.265625 50.4375 45.09375 
Q 46.96875 40.921875 40.578125 39.3125 
z
" id="DejaVuSans-51"/>
      </defs>
      <g transform="translate(259.472071 322.182437)scale(0.1 -0.1)">
       <use xlink:href="#DejaVuSans-51"/>
       <use x="63.623047" xlink:href="#DejaVuSans-48"/>
       <use x="127.246094" xlink:href="#DejaVuSans-48"/>
      </g>
     </g>
    </g>
    <g id="xtick_5">
     <g id="line2d_9">
      <path clip-path="url(#pc9c79da1dc)" d="M 334.076852 307.584 
L 334.076852 41.472 
" style="fill:none;stroke:#b0b0b0;stroke-linecap:square;stroke-width:0.8;"/>
     </g>
     <g id="line2d_10">
      <g>
       <use style="stroke:#000000;stroke-width:0.8;" x="334.076852" xlink:href="#m766ccfeeb3" y="307.584"/>
      </g>
     </g>
     <g id="text_5">
      <!-- 400 -->
      <defs>
       <path d="M 37.796875 64.3125 
L 12.890625 25.390625 
L 37.796875 25.390625 
z
M 35.203125 72.90625 
L 47.609375 72.90625 
L 47.609375 25.390625 
L 58.015625 25.390625 
L 58.015625 17.1875 
L 47.609375 17.1875 
L 47.609375 0 
L 37.796875 0 
L 37.796875 17.1875 
L 4.890625 17.1875 
L 4.890625 26.703125 
z
" id="DejaVuSans-52"/>
      </defs>
      <g transform="translate(324.533102 322.182437)scale(0.1 -0.1)">
       <use xlink:href="#DejaVuSans-52"/>
       <use x="63.623047" xlink:href="#DejaVuSans-48"/>
       <use x="127.246094" xlink:href="#DejaVuSans-48"/>
      </g>
     </g>
    </g>
    <g id="xtick_6">
     <g id="line2d_11">
      <path clip-path="url(#pc9c79da1dc)" d="M 399.137883 307.584 
L 399.137883 41.472 
" style="fill:none;stroke:#b0b0b0;stroke-linecap:square;stroke-width:0.8;"/>
     </g>
     <g id="line2d_12">
      <g>
       <use style="stroke:#000000;stroke-width:0.8;" x="399.137883" xlink:href="#m766ccfeeb3" y="307.584"/>
      </g>
     </g>
     <g id="text_6">
      <!-- 500 -->
      <defs>
       <path d="M 10.796875 72.90625 
L 49.515625 72.90625 
L 49.515625 64.59375 
L 19.828125 64.59375 
L 19.828125 46.734375 
Q 21.96875 47.46875 24.109375 47.828125 
Q 26.265625 48.1875 28.421875 48.1875 
Q 40.625 48.1875 47.75 41.5 
Q 54.890625 34.8125 54.890625 23.390625 
Q 54.890625 11.625 47.5625 5.09375 
Q 40.234375 -1.421875 26.90625 -1.421875 
Q 22.3125 -1.421875 17.546875 -0.640625 
Q 12.796875 0.140625 7.71875 1.703125 
L 7.71875 11.625 
Q 12.109375 9.234375 16.796875 8.0625 
Q 21.484375 6.890625 26.703125 6.890625 
Q 35.15625 6.890625 40.078125 11.328125 
Q 45.015625 15.765625 45.015625 23.390625 
Q 45.015625 31 40.078125 35.4375 
Q 35.15625 39.890625 26.703125 39.890625 
Q 22.75 39.890625 18.8125 39.015625 
Q 14.890625 38.140625 10.796875 36.28125 
z
" id="DejaVuSans-53"/>
      </defs>
      <g transform="translate(389.594133 322.182437)scale(0.1 -0.1)">
       <use xlink:href="#DejaVuSans-53"/>
       <use x="63.623047" xlink:href="#DejaVuSans-48"/>
       <use x="127.246094" xlink:href="#DejaVuSans-48"/>
      </g>
     </g>
    </g>
    <g id="text_7">
     <!-- Generations -->
     <defs>
      <path d="M 59.515625 10.40625 
L 59.515625 29.984375 
L 43.40625 29.984375 
L 43.40625 38.09375 
L 69.28125 38.09375 
L 69.28125 6.78125 
Q 63.578125 2.734375 56.6875 0.65625 
Q 49.8125 -1.421875 42 -1.421875 
Q 24.90625 -1.421875 15.25 8.5625 
Q 5.609375 18.5625 5.609375 36.375 
Q 5.609375 54.25 15.25 64.234375 
Q 24.90625 74.21875 42 74.21875 
Q 49.125 74.21875 55.546875 72.453125 
Q 61.96875 70.703125 67.390625 67.28125 
L 67.390625 56.78125 
Q 61.921875 61.421875 55.765625 63.765625 
Q 49.609375 66.109375 42.828125 66.109375 
Q 29.4375 66.109375 22.71875 58.640625 
Q 16.015625 51.171875 16.015625 36.375 
Q 16.015625 21.625 22.71875 14.15625 
Q 29.4375 6.6875 42.828125 6.6875 
Q 48.046875 6.6875 52.140625 7.59375 
Q 56.25 8.5 59.515625 10.40625 
z
" id="DejaVuSans-71"/>
      <path d="M 56.203125 29.59375 
L 56.203125 25.203125 
L 14.890625 25.203125 
Q 15.484375 15.921875 20.484375 11.0625 
Q 25.484375 6.203125 34.421875 6.203125 
Q 39.59375 6.203125 44.453125 7.46875 
Q 49.3125 8.734375 54.109375 11.28125 
L 54.109375 2.78125 
Q 49.265625 0.734375 44.1875 -0.34375 
Q 39.109375 -1.421875 33.890625 -1.421875 
Q 20.796875 -1.421875 13.15625 6.1875 
Q 5.515625 13.8125 5.515625 26.8125 
Q 5.515625 40.234375 12.765625 48.109375 
Q 20.015625 56 32.328125 56 
Q 43.359375 56 49.78125 48.890625 
Q 56.203125 41.796875 56.203125 29.59375 
z
M 47.21875 32.234375 
Q 47.125 39.59375 43.09375 43.984375 
Q 39.0625 48.390625 32.421875 48.390625 
Q 24.90625 48.390625 20.390625 44.140625 
Q 15.875 39.890625 15.1875 32.171875 
z
" id="DejaVuSans-101"/>
      <path d="M 54.890625 33.015625 
L 54.890625 0 
L 45.90625 0 
L 45.90625 32.71875 
Q 45.90625 40.484375 42.875 44.328125 
Q 39.84375 48.1875 33.796875 48.1875 
Q 26.515625 48.1875 22.3125 43.546875 
Q 18.109375 38.921875 18.109375 30.90625 
L 18.109375 0 
L 9.078125 0 
L 9.078125 54.6875 
L 18.109375 54.6875 
L 18.109375 46.1875 
Q 21.34375 51.125 25.703125 53.5625 
Q 30.078125 56 35.796875 56 
Q 45.21875 56 50.046875 50.171875 
Q 54.890625 44.34375 54.890625 33.015625 
z
" id="DejaVuSans-110"/>
      <path d="M 41.109375 46.296875 
Q 39.59375 47.171875 37.8125 47.578125 
Q 36.03125 48 33.890625 48 
Q 26.265625 48 22.1875 43.046875 
Q 18.109375 38.09375 18.109375 28.8125 
L 18.109375 0 
L 9.078125 0 
L 9.078125 54.6875 
L 18.109375 54.6875 
L 18.109375 46.1875 
Q 20.953125 51.171875 25.484375 53.578125 
Q 30.03125 56 36.53125 56 
Q 37.453125 56 38.578125 55.875 
Q 39.703125 55.765625 41.0625 55.515625 
z
" id="DejaVuSans-114"/>
      <path d="M 34.28125 27.484375 
Q 23.390625 27.484375 19.1875 25 
Q 14.984375 22.515625 14.984375 16.5 
Q 14.984375 11.71875 18.140625 8.90625 
Q 21.296875 6.109375 26.703125 6.109375 
Q 34.1875 6.109375 38.703125 11.40625 
Q 43.21875 16.703125 43.21875 25.484375 
L 43.21875 27.484375 
z
M 52.203125 31.203125 
L 52.203125 0 
L 43.21875 0 
L 43.21875 8.296875 
Q 40.140625 3.328125 35.546875 0.953125 
Q 30.953125 -1.421875 24.3125 -1.421875 
Q 15.921875 -1.421875 10.953125 3.296875 
Q 6 8.015625 6 15.921875 
Q 6 25.140625 12.171875 29.828125 
Q 18.359375 34.515625 30.609375 34.515625 
L 43.21875 34.515625 
L 43.21875 35.40625 
Q 43.21875 41.609375 39.140625 45 
Q 35.0625 48.390625 27.6875 48.390625 
Q 23 48.390625 18.546875 47.265625 
Q 14.109375 46.140625 10.015625 43.890625 
L 10.015625 52.203125 
Q 14.9375 54.109375 19.578125 55.046875 
Q 24.21875 56 28.609375 56 
Q 40.484375 56 46.34375 49.84375 
Q 52.203125 43.703125 52.203125 31.203125 
z
" id="DejaVuSans-97"/>
      <path d="M 18.3125 70.21875 
L 18.3125 54.6875 
L 36.8125 54.6875 
L 36.8125 47.703125 
L 18.3125 47.703125 
L 18.3125 18.015625 
Q 18.3125 11.328125 20.140625 9.421875 
Q 21.96875 7.515625 27.59375 7.515625 
L 36.8125 7.515625 
L 36.8125 0 
L 27.59375 0 
Q 17.1875 0 13.234375 3.875 
Q 9.28125 7.765625 9.28125 18.015625 
L 9.28125 47.703125 
L 2.6875 47.703125 
L 2.6875 54.6875 
L 9.28125 54.6875 
L 9.28125 70.21875 
z
" id="DejaVuSans-116"/>
      <path d="M 9.421875 54.6875 
L 18.40625 54.6875 
L 18.40625 0 
L 9.421875 0 
z
M 9.421875 75.984375 
L 18.40625 75.984375 
L 18.40625 64.59375 
L 9.421875 64.59375 
z
" id="DejaVuSans-105"/>
      <path d="M 30.609375 48.390625 
Q 23.390625 48.390625 19.1875 42.75 
Q 14.984375 37.109375 14.984375 27.296875 
Q 14.984375 17.484375 19.15625 11.84375 
Q 23.34375 6.203125 30.609375 6.203125 
Q 37.796875 6.203125 41.984375 11.859375 
Q 46.1875 17.53125 46.1875 27.296875 
Q 46.1875 37.015625 41.984375 42.703125 
Q 37.796875 48.390625 30.609375 48.390625 
z
M 30.609375 56 
Q 42.328125 56 49.015625 48.375 
Q 55.71875 40.765625 55.71875 27.296875 
Q 55.71875 13.875 49.015625 6.21875 
Q 42.328125 -1.421875 30.609375 -1.421875 
Q 18.84375 -1.421875 12.171875 6.21875 
Q 5.515625 13.875 5.515625 27.296875 
Q 5.515625 40.765625 12.171875 48.375 
Q 18.84375 56 30.609375 56 
z
" id="DejaVuSans-111"/>
      <path d="M 44.28125 53.078125 
L 44.28125 44.578125 
Q 40.484375 46.53125 36.375 47.5 
Q 32.28125 48.484375 27.875 48.484375 
Q 21.1875 48.484375 17.84375 46.4375 
Q 14.5 44.390625 14.5 40.28125 
Q 14.5 37.15625 16.890625 35.375 
Q 19.28125 33.59375 26.515625 31.984375 
L 29.59375 31.296875 
Q 39.15625 29.25 43.1875 25.515625 
Q 47.21875 21.78125 47.21875 15.09375 
Q 47.21875 7.46875 41.1875 3.015625 
Q 35.15625 -1.421875 24.609375 -1.421875 
Q 20.21875 -1.421875 15.453125 -0.5625 
Q 10.6875 0.296875 5.421875 2 
L 5.421875 11.28125 
Q 10.40625 8.6875 15.234375 7.390625 
Q 20.0625 6.109375 24.8125 6.109375 
Q 31.15625 6.109375 34.5625 8.28125 
Q 37.984375 10.453125 37.984375 14.40625 
Q 37.984375 18.0625 35.515625 20.015625 
Q 33.0625 21.96875 24.703125 23.78125 
L 21.578125 24.515625 
Q 13.234375 26.265625 9.515625 29.90625 
Q 5.8125 33.546875 5.8125 39.890625 
Q 5.8125 47.609375 11.28125 51.796875 
Q 16.75 56 26.8125 56 
Q 31.78125 56 36.171875 55.265625 
Q 40.578125 54.546875 44.28125 53.078125 
z
" id="DejaVuSans-115"/>
     </defs>
     <g transform="translate(205.662344 335.860562)scale(0.1 -0.1)">
      <use xlink:href="#DejaVuSans-71"/>
      <use x="77.490234" xlink:href="#DejaVuSans-101"/>
      <use x="139.013672" xlink:href="#DejaVuSans-110"/>
      <use x="202.392578" xlink:href="#DejaVuSans-101"/>
      <use x="263.916016" xlink:href="#DejaVuSans-114"/>
      <use x="305.029297" xlink:href="#DejaVuSans-97"/>
      <use x="366.308594" xlink:href="#DejaVuSans-116"/>
      <use x="405.517578" xlink:href="#DejaVuSans-105"/>
      <use x="433.300781" xlink:href="#DejaVuSans-111"/>
      <use x="494.482422" xlink:href="#DejaVuSans-110"/>
      <use x="557.861328" xlink:href="#DejaVuSans-115"/>
     </g>
    </g>
   </g>
   <g id="matplotlib.axis_2">
    <g id="ytick_1">
     <g id="line2d_13">
      <path clip-path="url(#pc9c79da1dc)" d="M 57.6 292.836645 
L 414.72 292.836645 
" style="fill:none;stroke:#b0b0b0;stroke-linecap:square;stroke-width:0.8;"/>
     </g>
     <g id="line2d_14">
      <defs>
       <path d="M 0 0 
L -3.5 0 
" id="m8e166e3642" style="stroke:#000000;stroke-width:0.8;"/>
      </defs>
      <g>
       <use style="stroke:#000000;stroke-width:0.8;" x="57.6" xlink:href="#m8e166e3642" y="292.836645"/>
      </g>
     </g>
     <g id="text_8">
      <!-- 17.5 -->
      <defs>
       <path d="M 8.203125 72.90625 
L 55.078125 72.90625 
L 55.078125 68.703125 
L 28.609375 0 
L 18.3125 0 
L 43.21875 64.59375 
L 8.203125 64.59375 
z
" id="DejaVuSans-55"/>
       <path d="M 10.6875 12.40625 
L 21 12.40625 
L 21 0 
L 10.6875 0 
z
" id="DejaVuSans-46"/>
      </defs>
      <g transform="translate(28.334375 296.635863)scale(0.1 -0.1)">
       <use xlink:href="#DejaVuSans-49"/>
       <use x="63.623047" xlink:href="#DejaVuSans-55"/>
       <use x="127.246094" xlink:href="#DejaVuSans-46"/>
       <use x="159.033203" xlink:href="#DejaVuSans-53"/>
      </g>
     </g>
    </g>
    <g id="ytick_2">
     <g id="line2d_15">
      <path clip-path="url(#pc9c79da1dc)" d="M 57.6 260.503044 
L 414.72 260.503044 
" style="fill:none;stroke:#b0b0b0;stroke-linecap:square;stroke-width:0.8;"/>
     </g>
     <g id="line2d_16">
      <g>
       <use style="stroke:#000000;stroke-width:0.8;" x="57.6" xlink:href="#m8e166e3642" y="260.503044"/>
      </g>
     </g>
     <g id="text_9">
      <!-- 20.0 -->
      <g transform="translate(28.334375 264.302263)scale(0.1 -0.1)">
       <use xlink:href="#DejaVuSans-50"/>
       <use x="63.623047" xlink:href="#DejaVuSans-48"/>
       <use x="127.246094" xlink:href="#DejaVuSans-46"/>
       <use x="159.033203" xlink:href="#DejaVuSans-48"/>
      </g>
     </g>
    </g>
    <g id="ytick_3">
     <g id="line2d_17">
      <path clip-path="url(#pc9c79da1dc)" d="M 57.6 228.169443 
L 414.72 228.169443 
" style="fill:none;stroke:#b0b0b0;stroke-linecap:square;stroke-width:0.8;"/>
     </g>
     <g id="line2d_18">
      <g>
       <use style="stroke:#000000;stroke-width:0.8;" x="57.6" xlink:href="#m8e166e3642" y="228.169443"/>
      </g>
     </g>
     <g id="text_10">
      <!-- 22.5 -->
      <g transform="translate(28.334375 231.968662)scale(0.1 -0.1)">
       <use xlink:href="#DejaVuSans-50"/>
       <use x="63.623047" xlink:href="#DejaVuSans-50"/>
       <use x="127.246094" xlink:href="#DejaVuSans-46"/>
       <use x="159.033203" xlink:href="#DejaVuSans-53"/>
      </g>
     </g>
    </g>
    <g id="ytick_4">
     <g id="line2d_19">
      <path clip-path="url(#pc9c79da1dc)" d="M 57.6 195.835843 
L 414.72 195.835843 
" style="fill:none;stroke:#b0b0b0;stroke-linecap:square;stroke-width:0.8;"/>
     </g>
     <g id="line2d_20">
      <g>
       <use style="stroke:#000000;stroke-width:0.8;" x="57.6" xlink:href="#m8e166e3642" y="195.835843"/>
      </g>
     </g>
     <g id="text_11">
      <!-- 25.0 -->
      <g transform="translate(28.334375 199.635062)scale(0.1 -0.1)">
       <use xlink:href="#DejaVuSans-50"/>
       <use x="63.623047" xlink:href="#DejaVuSans-53"/>
       <use x="127.246094" xlink:href="#DejaVuSans-46"/>
       <use x="159.033203" xlink:href="#DejaVuSans-48"/>
      </g>
     </g>
    </g>
    <g id="ytick_5">
     <g id="line2d_21">
      <path clip-path="url(#pc9c79da1dc)" d="M 57.6 163.502242 
L 414.72 163.502242 
" style="fill:none;stroke:#b0b0b0;stroke-linecap:square;stroke-width:0.8;"/>
     </g>
     <g id="line2d_22">
      <g>
       <use style="stroke:#000000;stroke-width:0.8;" x="57.6" xlink:href="#m8e166e3642" y="163.502242"/>
      </g>
     </g>
     <g id="text_12">
      <!-- 27.5 -->
      <g transform="translate(28.334375 167.301461)scale(0.1 -0.1)">
       <use xlink:href="#DejaVuSans-50"/>
       <use x="63.623047" xlink:href="#DejaVuSans-55"/>
       <use x="127.246094" xlink:href="#DejaVuSans-46"/>
       <use x="159.033203" xlink:href="#DejaVuSans-53"/>
      </g>
     </g>
    </g>
    <g id="ytick_6">
     <g id="line2d_23">
      <path clip-path="url(#pc9c79da1dc)" d="M 57.6 131.168642 
L 414.72 131.168642 
" style="fill:none;stroke:#b0b0b0;stroke-linecap:square;stroke-width:0.8;"/>
     </g>
     <g id="line2d_24">
      <g>
       <use style="stroke:#000000;stroke-width:0.8;" x="57.6" xlink:href="#m8e166e3642" y="131.168642"/>
      </g>
     </g>
     <g id="text_13">
      <!-- 30.0 -->
      <g transform="translate(28.334375 134.96786)scale(0.1 -0.1)">
       <use xlink:href="#DejaVuSans-51"/>
       <use x="63.623047" xlink:href="#DejaVuSans-48"/>
       <use x="127.246094" xlink:href="#DejaVuSans-46"/>
       <use x="159.033203" xlink:href="#DejaVuSans-48"/>
      </g>
     </g>
    </g>
    <g id="ytick_7">
     <g id="line2d_25">
      <path clip-path="url(#pc9c79da1dc)" d="M 57.6 98.835041 
L 414.72 98.835041 
" style="fill:none;stroke:#b0b0b0;stroke-linecap:square;stroke-width:0.8;"/>
     </g>
     <g id="line2d_26">
      <g>
       <use style="stroke:#000000;stroke-width:0.8;" x="57.6" xlink:href="#m8e166e3642" y="98.835041"/>
      </g>
     </g>
     <g id="text_14">
      <!-- 32.5 -->
      <g transform="translate(28.334375 102.63426)scale(0.1 -0.1)">
       <use xlink:href="#DejaVuSans-51"/>
       <use x="63.623047" xlink:href="#DejaVuSans-50"/>
       <use x="127.246094" xlink:href="#DejaVuSans-46"/>
       <use x="159.033203" xlink:href="#DejaVuSans-53"/>
      </g>
     </g>
    </g>
    <g id="ytick_8">
     <g id="line2d_27">
      <path clip-path="url(#pc9c79da1dc)" d="M 57.6 66.50144 
L 414.72 66.50144 
" style="fill:none;stroke:#b0b0b0;stroke-linecap:square;stroke-width:0.8;"/>
     </g>
     <g id="line2d_28">
      <g>
       <use style="stroke:#000000;stroke-width:0.8;" x="57.6" xlink:href="#m8e166e3642" y="66.50144"/>
      </g>
     </g>
     <g id="text_15">
      <!-- 35.0 -->
      <g transform="translate(28.334375 70.300659)scale(0.1 -0.1)">
       <use xlink:href="#DejaVuSans-51"/>
       <use x="63.623047" xlink:href="#DejaVuSans-53"/>
       <use x="127.246094" xlink:href="#DejaVuSans-46"/>
       <use x="159.033203" xlink:href="#DejaVuSans-48"/>
      </g>
     </g>
    </g>
    <g id="text_16">
     <!-- Fitness -->
     <defs>
      <path d="M 9.8125 72.90625 
L 51.703125 72.90625 
L 51.703125 64.59375 
L 19.671875 64.59375 
L 19.671875 43.109375 
L 48.578125 43.109375 
L 48.578125 34.8125 
L 19.671875 34.8125 
L 19.671875 0 
L 9.8125 0 
z
" id="DejaVuSans-70"/>
     </defs>
     <g transform="translate(22.254687 192.202219)rotate(-90)scale(0.1 -0.1)">
      <use xlink:href="#DejaVuSans-70"/>
      <use x="57.410156" xlink:href="#DejaVuSans-105"/>
      <use x="85.193359" xlink:href="#DejaVuSans-116"/>
      <use x="124.402344" xlink:href="#DejaVuSans-110"/>
      <use x="187.78125" xlink:href="#DejaVuSans-101"/>
      <use x="249.304688" xlink:href="#DejaVuSans-115"/>
      <use x="301.404297" xlink:href="#DejaVuSans-115"/>
     </g>
    </g>
   </g>
   <g id="line2d_29">
    <path clip-path="url(#pc9c79da1dc)" d="M 73.832727 279.709203 
L 74.483338 288.471609 
L 75.133948 288.917909 
L 75.784558 281.74622 
L 76.435169 289.125169 
L 77.085779 286.755997 
L 77.736389 286.757928 
L 78.386999 285.270582 
L 79.03761 285.567602 
L 79.68822 284.656244 
L 80.33883 286.043323 
L 80.989441 283.467157 
L 81.640051 286.660201 
L 82.290661 286.402339 
L 82.941272 283.711924 
L 83.591882 287.38753 
L 84.242492 288.399984 
L 84.893103 283.152813 
L 85.543713 285.499094 
L 86.194323 285.305577 
L 86.844934 285.555476 
L 87.495544 279.559404 
L 88.146154 287.759194 
L 88.796764 282.410056 
L 89.447375 285.9558 
L 90.097985 287.789055 
L 90.748595 284.986497 
L 92.049816 281.81455 
L 92.700426 282.949241 
L 93.351037 276.042476 
L 94.001647 282.360558 
L 94.652257 282.674656 
L 95.302868 282.766578 
L 95.953478 284.284937 
L 96.604088 290.486584 
L 97.254698 281.318805 
L 97.905309 287.921937 
L 98.555919 284.950794 
L 99.206529 291.48539 
L 99.85714 286.531593 
L 100.50775 285.692612 
L 101.15836 278.983995 
L 101.808971 285.079806 
L 102.459581 285.917254 
L 103.110191 284.041905 
L 103.760802 287.277534 
L 104.411412 285.527144 
L 105.062022 284.950794 
L 105.712633 281.693244 
L 106.363243 284.854035 
L 107.013853 282.813229 
L 107.664463 291.316966 
L 108.315074 292.368977 
L 109.616294 287.925827 
L 110.266905 289.092754 
L 110.917515 285.755586 
L 111.568125 285.917254 
L 112.218736 279.256532 
L 112.869346 289.894287 
L 113.519956 283.718569 
L 114.170567 284.688577 
L 114.821177 285.205915 
L 115.471787 286.337591 
L 116.122398 286.434592 
L 116.773008 291.252298 
L 117.423618 284.17124 
L 118.074228 286.854929 
L 118.724839 290.185289 
L 119.375449 287.889604 
L 120.026059 282.748561 
L 121.32728 287.727936 
L 121.97789 291.187631 
L 122.628501 285.270582 
L 123.279111 289.764953 
L 123.929721 286.014255 
L 124.580332 284.429909 
L 125.230942 285.949588 
L 125.881552 280.905546 
L 126.532163 281.164215 
L 127.182773 286.272924 
L 127.833383 282.166557 
L 128.483993 280.711545 
L 129.134604 283.104231 
L 129.785214 282.942563 
L 130.435824 286.887262 
L 131.086435 282.877896 
L 131.737045 285.270582 
L 132.387655 284.106573 
L 133.038266 284.817912 
L 133.688876 283.944905 
L 134.339486 287.4046 
L 134.990097 285.626252 
L 135.640707 282.134223 
L 136.291317 284.106573 
L 136.941927 282.101889 
L 137.592538 280.93788 
L 138.243148 285.981921 
L 138.893758 278.706861 
L 139.544369 282.716228 
L 140.194979 289.732619 
L 140.845589 283.00723 
L 141.4962 287.986605 
L 142.14681 288.471609 
L 142.79742 279.806204 
L 143.448031 285.852587 
L 144.098641 282.19889 
L 144.749251 283.233565 
L 145.399862 280.549877 
L 146.050472 282.037222 
L 146.701082 280.646877 
L 147.351692 287.598601 
L 148.002303 285.658585 
L 148.652913 283.330566 
L 149.303523 289.409283 
L 149.954134 287.4046 
L 150.604744 286.434592 
L 151.255354 286.078922 
L 151.905965 288.148273 
L 152.556575 286.466925 
L 153.207185 282.813229 
L 153.857796 288.503942 
L 154.508406 286.175923 
L 155.159016 288.245273 
L 155.809627 283.653902 
L 156.460237 284.17124 
L 157.110847 287.760269 
L 157.761457 282.263557 
L 158.412068 287.889604 
L 159.062678 284.300574 
L 159.713288 285.270582 
L 160.363899 284.591577 
L 161.014509 283.524568 
L 162.31573 285.141248 
L 162.96634 282.457559 
L 163.61695 281.74622 
L 164.267561 288.762611 
L 164.918171 288.633277 
L 165.568781 286.24059 
L 166.219392 288.697944 
L 166.870002 287.04893 
L 168.171222 284.97958 
L 168.821833 280.711545 
L 169.472443 285.658585 
L 170.123053 284.268241 
L 171.424274 285.78792 
L 172.074884 282.974897 
L 172.725495 284.688577 
L 173.376105 287.04893 
L 174.026715 285.884921 
L 174.677326 283.524568 
L 175.978546 286.369925 
L 176.629156 283.686236 
L 177.279767 285.076581 
L 177.930377 282.263557 
L 178.580987 285.917254 
L 179.231598 287.630935 
L 179.882208 288.827278 
L 180.532818 284.97958 
L 181.183429 287.113597 
L 181.834039 286.693261 
L 182.484649 282.748561 
L 183.13526 284.817912 
L 183.78587 282.813229 
L 184.43648 284.526909 
L 185.087091 286.563926 
L 185.737701 282.489893 
L 186.388311 287.113597 
L 187.038921 288.66561 
L 187.689532 282.974897 
L 188.340142 281.002547 
L 188.990752 286.984263 
L 189.641363 284.300574 
L 190.291973 286.499259 
L 190.942583 284.332908 
L 191.593194 284.138906 
L 192.243804 283.556901 
L 192.894414 285.108914 
L 193.545025 283.00723 
L 194.195635 287.210598 
L 194.846245 281.325883 
L 195.496856 283.492234 
L 196.147466 282.004889 
L 197.448686 285.78792 
L 198.099297 282.004889 
L 198.749907 286.046589 
L 199.400517 283.233565 
L 200.051128 283.039564 
L 200.701738 287.533934 
L 201.352348 284.429909 
L 202.002959 284.494576 
L 203.304179 278.642194 
L 203.95479 281.972555 
L 204.6054 280.291208 
L 205.25601 282.489893 
L 205.906621 285.270582 
L 206.557231 285.658585 
L 207.207841 282.845562 
L 207.858451 282.845562 
L 208.509062 288.083605 
L 209.159672 280.679211 
L 209.810282 282.974897 
L 210.460893 287.824937 
L 211.111503 281.131881 
L 211.762113 282.037222 
L 212.412724 285.884921 
L 213.063334 286.208257 
L 213.713944 288.697944 
L 214.364555 285.755586 
L 215.015165 285.302916 
L 215.665775 284.041905 
L 216.316385 281.293549 
L 216.966996 285.011913 
L 217.617606 284.850245 
L 218.268216 287.533934 
L 218.918827 295.488 
L 219.569437 289.247615 
L 220.220047 287.04893 
L 220.870658 286.175923 
L 221.521268 282.651561 
L 222.171878 280.485209 
L 222.822489 283.233565 
L 223.473099 283.621569 
L 224.123709 285.723253 
L 224.77432 282.295891 
L 225.42493 282.877896 
L 226.07554 289.47395 
L 227.376761 285.820253 
L 228.027371 285.496917 
L 228.677981 286.24059 
L 229.328592 281.552218 
L 229.979202 285.561585 
L 230.629812 280.905546 
L 231.280423 287.469267 
L 231.931033 284.365241 
L 232.581643 285.690919 
L 233.232254 281.681553 
L 233.882864 285.949588 
L 234.533474 281.099548 
L 235.184085 286.078922 
L 235.834695 281.519885 
L 236.485305 289.409283 
L 237.135915 285.335249 
L 237.786526 283.071897 
L 238.437136 283.81557 
L 239.087746 286.531593 
L 239.738357 288.21294 
L 240.388967 290.217623 
L 241.039577 285.464584 
L 241.690188 283.750903 
L 242.340798 283.071897 
L 242.991408 287.695602 
L 243.642019 284.365241 
L 244.292629 285.141248 
L 244.943239 284.753245 
L 245.59385 284.591577 
L 246.24446 290.864295 
L 246.89507 287.727936 
L 247.54568 288.633277 
L 248.196291 287.663269 
L 248.846901 288.115939 
L 249.497511 288.374608 
L 250.148122 285.335249 
L 250.798732 285.593918 
L 251.449342 287.986605 
L 252.099953 286.402258 
L 252.750563 288.891945 
L 253.401173 282.295891 
L 254.051784 287.4046 
L 254.702394 284.268241 
L 255.353004 289.312282 
L 256.003615 282.716228 
L 256.654225 280.711545 
L 257.304835 282.101889 
L 257.955445 280.93788 
L 258.606056 284.753245 
L 259.256666 282.716228 
L 259.907276 285.044247 
L 260.557887 284.753245 
L 261.208497 285.302916 
L 261.859107 286.305257 
L 262.509718 285.205915 
L 263.160328 283.653902 
L 263.810938 286.790261 
L 264.461549 281.293549 
L 265.112159 286.434592 
L 265.762769 283.00723 
L 266.413379 284.300574 
L 267.06399 281.972555 
L 268.36521 284.074239 
L 269.015821 285.044247 
L 269.666431 284.365241 
L 270.317041 280.291208 
L 270.967652 284.914913 
L 272.268872 283.00723 
L 272.919483 284.268241 
L 273.570093 286.175923 
L 274.220703 285.205915 
L 274.871314 284.656244 
L 275.521924 287.178265 
L 276.172534 281.487551 
L 276.823144 285.949588 
L 278.124365 288.600943 
L 278.774975 283.880237 
L 279.425586 282.910229 
L 280.076196 286.143589 
L 280.726806 287.986605 
L 281.377417 288.051272 
L 282.028027 280.905546 
L 282.678637 284.526909 
L 283.329248 285.949588 
L 283.979858 285.884921 
L 284.630468 287.792603 
L 285.281079 286.143589 
L 285.931689 287.727936 
L 286.582299 283.589235 
L 287.232909 289.894287 
L 287.88352 285.238249 
L 288.53413 279.094864 
L 289.18474 279.967872 
L 289.835351 284.235907 
L 290.485961 283.201232 
L 291.136571 286.854929 
L 291.787182 283.589235 
L 292.437792 289.215281 
L 293.088402 284.720911 
L 293.739013 285.43225 
L 294.389623 282.19889 
L 295.040233 284.62391 
L 295.690844 284.656244 
L 296.341454 285.981921 
L 296.992064 285.108914 
L 297.642674 285.723253 
L 298.293285 290.831962 
L 298.943895 286.790261 
L 299.594505 287.016597 
L 300.245116 282.651561 
L 300.895726 284.720911 
L 301.546336 284.947246 
L 302.196947 283.847904 
L 302.847557 282.328225 
L 303.498167 285.820253 
L 304.148778 284.009572 
L 304.799388 287.824937 
L 305.449998 283.977238 
L 306.100608 281.972555 
L 306.751219 282.619227 
L 307.401829 282.295891 
L 308.052439 288.762611 
L 308.70305 283.718569 
L 309.35366 281.972555 
L 310.00427 285.076581 
L 310.654881 284.62391 
L 311.305491 285.852587 
L 311.956101 283.201232 
L 312.606712 286.305257 
L 313.257322 283.039564 
L 313.907932 289.894287 
L 314.558543 281.74622 
L 315.209153 285.335249 
L 315.859763 287.339933 
L 316.510373 285.238249 
L 317.160984 286.111256 
L 317.811594 291.80197 
L 318.462204 289.441617 
L 319.112815 281.584552 
L 319.763425 284.785578 
L 320.414035 284.17124 
L 321.064646 281.778553 
L 321.715256 286.628593 
L 322.365866 285.367583 
L 323.016477 283.524568 
L 323.667087 289.02128 
L 324.317697 284.817912 
L 325.618918 285.78792 
L 326.269528 280.032539 
L 326.920138 286.887262 
L 327.570749 281.778553 
L 328.221359 291.316966 
L 328.871969 283.427567 
L 329.52258 283.783237 
L 330.17319 288.374608 
L 330.8238 281.067214 
L 331.474411 283.589235 
L 332.125021 287.727936 
L 332.775631 284.591577 
L 333.426242 286.402258 
L 334.076852 284.914913 
L 334.727462 284.850245 
L 335.378073 288.148273 
L 336.028683 287.081264 
L 336.679293 286.531593 
L 337.329903 288.568609 
L 337.980514 293.644985 
L 338.631124 288.018938 
L 339.281734 284.817912 
L 339.932345 287.016597 
L 340.582955 284.97958 
L 341.233565 284.074239 
L 341.884176 285.820253 
L 342.534786 283.330566 
L 343.185396 284.559243 
L 344.486617 285.884921 
L 345.137227 280.58221 
L 346.438448 287.210598 
L 347.089058 284.365241 
L 347.739668 285.658585 
L 348.390279 283.233565 
L 349.691499 279.547535 
L 350.34211 282.910229 
L 350.99272 284.850245 
L 351.64333 285.238249 
L 352.293941 288.277607 
L 352.944551 286.466925 
L 353.595161 281.584552 
L 354.245772 284.397575 
L 354.896382 284.753245 
L 355.546992 282.392892 
L 356.197602 284.914913 
L 356.848213 288.536276 
L 357.498823 278.189524 
L 358.149433 286.531593 
L 358.800044 284.365241 
L 359.450654 285.108914 
L 360.101264 281.422884 
L 361.402485 290.508626 
L 362.053095 287.921937 
L 362.703706 283.81557 
L 363.354316 286.466925 
L 364.004926 286.984263 
L 364.655537 286.014255 
L 365.306147 285.464584 
L 365.956757 288.21294 
L 366.607367 289.085947 
L 367.257978 288.827278 
L 367.908588 284.429909 
L 368.559198 279.127198 
L 369.860419 284.947246 
L 370.511029 283.233565 
L 371.16164 282.877896 
L 371.81225 284.494576 
L 372.46286 279.838537 
L 373.113471 282.845562 
L 373.764081 283.071897 
L 374.414691 290.540959 
L 375.065302 285.78792 
L 375.715912 285.690919 
L 376.366522 284.656244 
L 377.017132 283.880237 
L 377.667743 284.268241 
L 378.318353 284.235907 
L 378.968963 280.258874 
L 379.619574 282.004889 
L 380.270184 285.658585 
L 380.920794 284.397575 
L 381.571405 287.210598 
L 382.222015 282.134223 
L 382.872625 287.275265 
L 383.523236 288.827278 
L 384.173846 286.111256 
L 384.824456 287.016597 
L 385.475066 283.3629 
L 386.125677 289.538617 
L 386.776287 289.991288 
L 387.426897 279.450534 
L 388.077508 284.62391 
L 388.728118 283.492234 
L 389.378728 283.265899 
L 390.029339 287.630935 
L 390.679949 286.790261 
L 391.330559 286.790261 
L 391.98117 288.66561 
L 392.63178 283.233565 
L 393.28239 288.794945 
L 393.933001 285.011913 
L 394.583611 285.270582 
L 395.234221 290.28229 
L 395.884831 282.037222 
L 396.535442 283.039564 
L 397.186052 279.579868 
L 397.836662 282.813229 
L 398.487273 285.367583 
L 398.487273 285.367583 
" style="fill:none;stroke:#0000ff;stroke-linecap:square;stroke-width:1.5;"/>
   </g>
   <g id="line2d_30">
    <path clip-path="url(#pc9c79da1dc)" d="M 73.832727 234.544313 
L 74.483338 237.665911 
L 75.133948 238.13041 
L 75.784558 232.889828 
L 76.435169 240.289013 
L 77.085779 235.160596 
L 77.736389 236.087389 
L 78.386999 236.417475 
L 79.03761 234.677343 
L 79.68822 234.673988 
L 80.33883 237.243384 
L 80.989441 233.631635 
L 81.640051 240.226142 
L 82.290661 235.046791 
L 82.941272 231.586023 
L 83.591882 237.736823 
L 84.242492 236.599681 
L 84.893103 232.750762 
L 85.543713 239.596378 
L 86.194323 235.610524 
L 86.844934 233.807767 
L 87.495544 229.251304 
L 88.146154 237.021198 
L 88.796764 231.855196 
L 89.447375 236.683376 
L 90.097985 238.275276 
L 91.399206 228.988202 
L 92.049816 229.855768 
L 92.700426 235.199967 
L 93.351037 229.166975 
L 94.001647 234.569965 
L 94.652257 233.604976 
L 95.302868 230.957282 
L 95.953478 234.996599 
L 96.604088 240.030434 
L 97.254698 230.585296 
L 97.905309 237.821589 
L 98.555919 233.487163 
L 99.206529 239.000571 
L 99.85714 232.516331 
L 100.50775 234.575738 
L 101.15836 231.215182 
L 101.808971 237.521976 
L 102.459581 234.934599 
L 103.110191 229.341556 
L 103.760802 238.179641 
L 104.411412 235.271931 
L 105.062022 237.819572 
L 105.712633 233.0747 
L 106.363243 234.3546 
L 107.013853 233.531263 
L 107.664463 240.453519 
L 108.315074 244.751033 
L 108.965684 239.777464 
L 109.616294 236.548944 
L 110.266905 240.915944 
L 111.568125 232.40535 
L 112.218736 230.181838 
L 112.869346 238.618059 
L 113.519956 232.548912 
L 114.170567 235.877733 
L 114.821177 231.509704 
L 115.471787 235.38986 
L 116.122398 236.577941 
L 116.773008 240.087514 
L 117.423618 230.119207 
L 118.074228 234.845299 
L 118.724839 237.446065 
L 119.375449 239.172073 
L 120.026059 232.057395 
L 121.32728 236.141543 
L 121.97789 241.240862 
L 122.628501 236.718001 
L 123.279111 238.512626 
L 123.929721 229.784655 
L 124.580332 235.560155 
L 125.230942 234.880603 
L 125.881552 231.395645 
L 126.532163 231.736312 
L 127.182773 236.926394 
L 127.833383 229.807085 
L 128.483993 232.855904 
L 129.134604 232.856952 
L 130.435824 236.226133 
L 131.086435 232.210659 
L 131.737045 232.9856 
L 132.387655 232.991864 
L 133.038266 234.893157 
L 133.688876 235.522436 
L 134.990097 237.590762 
L 135.640707 230.408152 
L 136.291317 233.700366 
L 136.941927 233.793975 
L 137.592538 231.844271 
L 138.243148 236.615639 
L 138.893758 229.116867 
L 139.544369 233.293063 
L 140.194979 238.449612 
L 140.845589 232.645802 
L 141.4962 239.08798 
L 142.14681 237.55902 
L 142.79742 235.312643 
L 143.448031 234.396996 
L 144.098641 231.694686 
L 144.749251 234.173881 
L 145.399862 231.688681 
L 146.050472 232.512489 
L 146.701082 230.528013 
L 147.351692 238.026267 
L 148.002303 235.790193 
L 148.652913 233.95467 
L 149.303523 241.1643 
L 149.954134 237.979902 
L 151.255354 234.674405 
L 151.905965 238.159909 
L 152.556575 237.708638 
L 153.207185 233.033133 
L 153.857796 238.017492 
L 154.508406 235.960228 
L 155.159016 237.723715 
L 155.809627 232.080603 
L 157.110847 236.3168 
L 157.761457 232.253281 
L 158.412068 237.892708 
L 159.062678 232.973552 
L 159.713288 232.937633 
L 160.363899 238.051685 
L 161.014509 235.25909 
L 161.665119 233.016815 
L 162.31573 235.442537 
L 162.96634 232.99498 
L 163.61695 231.999202 
L 164.267561 236.544857 
L 164.918171 234.972162 
L 165.568781 235.239688 
L 166.219392 236.669815 
L 166.870002 239.195649 
L 167.520612 235.13184 
L 168.171222 238.139909 
L 168.821833 228.726042 
L 169.472443 237.653086 
L 170.123053 230.783979 
L 170.773664 235.21777 
L 171.424274 234.544763 
L 172.074884 230.005244 
L 172.725495 236.221642 
L 173.376105 238.295275 
L 174.026715 237.206204 
L 174.677326 237.276712 
L 175.327936 240.48414 
L 175.978546 233.61956 
L 176.629156 231.294717 
L 177.279767 230.341992 
L 177.930377 230.148543 
L 178.580987 232.132528 
L 179.231598 236.249201 
L 180.532818 233.55237 
L 181.183429 235.543065 
L 181.834039 232.659373 
L 182.484649 232.239213 
L 183.13526 235.364454 
L 183.78587 230.894889 
L 184.43648 234.165824 
L 185.087091 236.598689 
L 185.737701 231.710696 
L 186.388311 235.147244 
L 187.038921 240.557396 
L 187.689532 230.306101 
L 188.990752 235.851774 
L 189.641363 233.952434 
L 190.291973 235.909995 
L 190.942583 234.698661 
L 191.593194 232.904288 
L 192.243804 234.785322 
L 192.894414 234.804658 
L 193.545025 231.108185 
L 194.195635 235.435184 
L 194.846245 231.021783 
L 195.496856 232.741056 
L 196.147466 232.327018 
L 196.798076 233.419123 
L 197.448686 232.622237 
L 198.099297 232.546368 
L 198.749907 234.410932 
L 200.051128 233.517501 
L 200.701738 238.145971 
L 201.352348 233.34282 
L 202.002959 234.363562 
L 202.653569 231.213332 
L 203.304179 230.875069 
L 203.95479 232.142039 
L 205.25601 235.447004 
L 205.906621 233.807881 
L 206.557231 236.849668 
L 207.207841 232.983428 
L 207.858451 234.21472 
L 208.509062 236.447027 
L 209.159672 228.42043 
L 209.810282 230.832767 
L 210.460893 238.780343 
L 211.111503 232.110944 
L 211.762113 234.239848 
L 212.412724 235.525662 
L 213.063334 237.09124 
L 213.713944 239.334203 
L 214.364555 235.256764 
L 215.015165 234.81163 
L 215.665775 235.575833 
L 216.316385 229.837887 
L 216.966996 238.786895 
L 217.617606 234.114396 
L 218.268216 237.298048 
L 218.918827 243.903228 
L 219.569437 238.315481 
L 220.220047 237.842767 
L 220.870658 234.823854 
L 221.521268 231.242407 
L 222.171878 228.795158 
L 222.822489 229.86264 
L 223.473099 235.851204 
L 224.123709 236.385102 
L 224.77432 228.531384 
L 225.42493 233.599791 
L 226.07554 240.450581 
L 226.72615 236.904482 
L 227.376761 234.711569 
L 228.027371 234.270136 
L 228.677981 235.626534 
L 229.328592 232.492449 
L 229.979202 233.97581 
L 230.629812 230.21868 
L 231.280423 240.014335 
L 231.931033 235.609474 
L 232.581643 234.306337 
L 233.882864 236.427103 
L 234.533474 233.929811 
L 235.184085 231.917304 
L 235.834695 233.07664 
L 236.485305 238.466015 
L 237.135915 236.901976 
L 237.786526 231.784691 
L 238.437136 233.327929 
L 239.087746 240.002935 
L 239.738357 238.118278 
L 240.388967 241.294 
L 241.039577 235.96126 
L 241.690188 232.510164 
L 242.340798 232.548683 
L 242.991408 237.193882 
L 243.642019 234.717042 
L 244.292629 237.76887 
L 244.943239 237.658159 
L 245.59385 231.417056 
L 246.24446 241.510477 
L 246.89507 232.614216 
L 247.54568 234.467981 
L 248.196291 239.461255 
L 248.846901 239.962924 
L 250.148122 232.019348 
L 250.798732 238.39767 
L 251.449342 235.763085 
L 252.099953 235.825241 
L 252.750563 238.923025 
L 253.401173 234.712474 
L 254.051784 236.340272 
L 254.702394 235.477973 
L 255.353004 240.27468 
L 256.003615 234.570302 
L 256.654225 230.702271 
L 257.304835 231.709415 
L 257.955445 235.397108 
L 258.606056 233.361125 
L 259.256666 229.937817 
L 259.907276 236.278156 
L 260.557887 234.805419 
L 261.208497 234.985859 
L 261.859107 235.410937 
L 262.509718 235.98759 
L 263.160328 231.411928 
L 263.810938 239.691502 
L 264.461549 230.525152 
L 265.112159 236.127042 
L 265.762769 231.887572 
L 266.413379 232.366088 
L 267.06399 231.359325 
L 267.7146 232.327103 
L 268.36521 237.701058 
L 269.015821 231.301182 
L 269.666431 235.558038 
L 270.317041 231.960791 
L 270.967652 233.327111 
L 271.618262 233.411332 
L 272.268872 231.618325 
L 272.919483 234.460063 
L 273.570093 238.39255 
L 274.220703 234.013502 
L 274.871314 233.976061 
L 275.521924 236.434338 
L 276.172534 232.400087 
L 276.823144 233.315978 
L 277.473755 238.974443 
L 278.124365 238.924504 
L 278.774975 231.535034 
L 279.425586 233.668045 
L 280.076196 235.147125 
L 280.726806 237.588695 
L 281.377417 236.767123 
L 282.028027 230.607941 
L 282.678637 233.325849 
L 283.329248 234.245835 
L 283.979858 233.172474 
L 284.630468 238.217021 
L 285.281079 237.59201 
L 285.931689 237.214655 
L 286.582299 230.422294 
L 287.232909 238.536568 
L 287.88352 236.244841 
L 288.53413 232.802734 
L 289.18474 232.166648 
L 289.835351 230.398336 
L 290.485961 233.563141 
L 291.136571 235.925915 
L 291.787182 233.516982 
L 292.437792 241.097321 
L 293.088402 235.665404 
L 293.739013 235.145871 
L 294.389623 234.356534 
L 295.040233 236.488267 
L 295.690844 234.515273 
L 296.341454 235.01514 
L 296.992064 233.524112 
L 297.642674 239.791327 
L 298.293285 238.406082 
L 298.943895 236.638449 
L 299.594505 235.554342 
L 300.245116 230.20356 
L 301.546336 238.247138 
L 302.196947 234.004675 
L 302.847557 232.799998 
L 303.498167 236.349728 
L 304.148778 233.421476 
L 304.799388 238.229209 
L 305.449998 236.799822 
L 306.100608 231.641029 
L 306.751219 232.086205 
L 307.401829 229.67129 
L 308.052439 237.932751 
L 308.70305 234.328785 
L 309.35366 233.503377 
L 310.00427 235.776586 
L 310.654881 235.550451 
L 311.305491 234.478331 
L 311.956101 234.644861 
L 312.606712 234.952862 
L 313.257322 232.804853 
L 313.907932 240.809805 
L 314.558543 228.727485 
L 315.209153 237.78203 
L 315.859763 235.284844 
L 316.510373 235.76916 
L 317.160984 235.078057 
L 317.811594 242.233642 
L 318.462204 240.75431 
L 319.112815 233.014188 
L 319.763425 234.258195 
L 320.414035 236.263186 
L 321.064646 233.534957 
L 321.715256 233.24058 
L 323.016477 236.817834 
L 323.667087 240.107948 
L 324.317697 235.153501 
L 324.968308 236.530479 
L 325.618918 232.637971 
L 326.269528 233.941743 
L 326.920138 240.248983 
L 327.570749 233.180861 
L 328.221359 242.48369 
L 328.871969 230.517712 
L 329.52258 232.814979 
L 330.17319 234.586461 
L 330.8238 230.706616 
L 331.474411 234.384718 
L 332.125021 241.693291 
L 332.775631 235.387368 
L 333.426242 234.98066 
L 334.076852 230.165285 
L 334.727462 234.395415 
L 335.378073 239.370863 
L 336.028683 236.11797 
L 336.679293 234.850653 
L 337.329903 237.116757 
L 337.980514 240.043569 
L 338.631124 235.848506 
L 339.281734 237.226015 
L 339.932345 237.797252 
L 340.582955 232.045703 
L 341.233565 234.056771 
L 341.884176 232.926287 
L 342.534786 230.826891 
L 343.185396 232.470384 
L 343.836007 232.650749 
L 344.486617 236.18601 
L 345.137227 230.09664 
L 345.787837 236.745987 
L 346.438448 238.087739 
L 347.089058 233.939791 
L 347.739668 237.279955 
L 348.390279 235.697773 
L 349.040889 233.390133 
L 349.691499 229.851737 
L 350.34211 231.126466 
L 350.99272 237.783017 
L 352.293941 240.32655 
L 352.944551 238.933332 
L 353.595161 235.797433 
L 354.245772 236.860815 
L 354.896382 236.647844 
L 355.546992 234.603972 
L 356.197602 233.611615 
L 356.848213 238.655359 
L 357.498823 228.320345 
L 358.149433 235.723838 
L 358.800044 232.791821 
L 359.450654 237.01461 
L 360.101264 231.005365 
L 360.751875 237.386953 
L 361.402485 236.889259 
L 362.053095 238.232273 
L 362.703706 234.07057 
L 363.354316 239.57996 
L 364.004926 241.799991 
L 364.655537 237.02614 
L 365.306147 235.624502 
L 365.956757 236.346468 
L 366.607367 239.818366 
L 367.257978 238.066367 
L 367.908588 232.153365 
L 368.559198 229.368907 
L 369.209809 231.331662 
L 369.860419 235.094076 
L 370.511029 235.259926 
L 371.16164 233.489593 
L 371.81225 233.396887 
L 372.46286 233.993231 
L 373.113471 230.535842 
L 373.764081 233.797399 
L 374.414691 239.036476 
L 375.065302 235.875941 
L 375.715912 235.417015 
L 376.366522 235.398776 
L 377.017132 233.034471 
L 377.667743 233.372082 
L 378.318353 234.626806 
L 378.968963 229.30827 
L 379.619574 233.580261 
L 380.270184 233.422896 
L 380.920794 237.329369 
L 381.571405 238.207066 
L 382.222015 232.613764 
L 382.872625 238.213184 
L 383.523236 236.388757 
L 384.173846 236.146311 
L 385.475066 236.189617 
L 386.125677 238.186222 
L 386.776287 238.546751 
L 387.426897 230.203541 
L 388.077508 233.065411 
L 388.728118 234.544684 
L 389.378728 230.195595 
L 390.029339 239.215981 
L 390.679949 234.39555 
L 391.330559 236.688505 
L 391.98117 236.623989 
L 392.63178 235.025143 
L 393.28239 237.422409 
L 393.933001 233.441736 
L 394.583611 233.073654 
L 395.234221 240.642483 
L 395.884831 230.185941 
L 396.535442 232.91319 
L 397.186052 228.752312 
L 397.836662 235.922818 
L 398.487273 240.236559 
L 398.487273 240.236559 
" style="fill:none;stroke:#008000;stroke-dasharray:9.6,2.4,1.5,2.4;stroke-dashoffset:0;stroke-width:1.5;"/>
   </g>
   <g id="line2d_31">
    <path clip-path="url(#pc9c79da1dc)" d="M 73.832727 169.968962 
L 74.483338 105.301761 
L 75.133948 131.168642 
L 75.784558 144.102082 
L 76.435169 144.102082 
L 77.085779 118.235201 
L 77.736389 144.102082 
L 80.33883 144.102082 
L 80.989441 157.035522 
L 81.640051 131.168642 
L 82.290661 157.035522 
L 82.941272 105.301761 
L 83.591882 157.035522 
L 84.242492 157.035522 
L 84.893103 118.235201 
L 85.543713 169.968962 
L 86.194323 118.235201 
L 86.844934 144.102082 
L 87.495544 144.102082 
L 88.146154 157.035522 
L 88.796764 144.102082 
L 89.447375 144.102082 
L 90.097985 157.035522 
L 90.748595 131.168642 
L 91.399206 118.235201 
L 92.049816 144.102082 
L 94.001647 144.102082 
L 94.652257 157.035522 
L 95.302868 144.102082 
L 95.953478 157.035522 
L 96.604088 118.235201 
L 97.254698 118.235201 
L 97.905309 144.102082 
L 98.555919 92.368321 
L 99.206529 144.102082 
L 99.85714 144.102082 
L 100.50775 157.035522 
L 101.15836 157.035522 
L 101.808971 118.235201 
L 102.459581 131.168642 
L 103.110191 131.168642 
L 104.411412 157.035522 
L 105.062022 118.235201 
L 105.712633 131.168642 
L 106.363243 118.235201 
L 107.013853 144.102082 
L 107.664463 157.035522 
L 108.315074 144.102082 
L 108.965684 157.035522 
L 109.616294 144.102082 
L 110.266905 144.102082 
L 110.917515 169.968962 
L 112.218736 144.102082 
L 112.869346 157.035522 
L 113.519956 118.235201 
L 114.170567 131.168642 
L 114.821177 131.168642 
L 115.471787 118.235201 
L 116.122398 144.102082 
L 116.773008 144.102082 
L 117.423618 118.235201 
L 118.074228 157.035522 
L 118.724839 144.102082 
L 119.375449 169.968962 
L 120.67667 144.102082 
L 121.97789 144.102082 
L 122.628501 131.168642 
L 123.929721 157.035522 
L 124.580332 118.235201 
L 125.230942 131.168642 
L 125.881552 118.235201 
L 126.532163 144.102082 
L 127.182773 157.035522 
L 127.833383 144.102082 
L 129.134604 144.102082 
L 129.785214 169.968962 
L 130.435824 92.368321 
L 131.737045 144.102082 
L 132.387655 79.434881 
L 134.339486 157.035522 
L 134.990097 157.035522 
L 135.640707 131.168642 
L 136.941927 157.035522 
L 138.243148 157.035522 
L 138.893758 131.168642 
L 139.544369 157.035522 
L 140.194979 144.102082 
L 140.845589 169.968962 
L 141.4962 131.168642 
L 142.14681 157.035522 
L 142.79742 157.035522 
L 143.448031 169.968962 
L 144.098641 157.035522 
L 144.749251 118.235201 
L 145.399862 157.035522 
L 146.050472 144.102082 
L 146.701082 144.102082 
L 147.351692 169.968962 
L 148.002303 131.168642 
L 149.303523 157.035522 
L 149.954134 157.035522 
L 150.604744 131.168642 
L 151.255354 144.102082 
L 151.905965 144.102082 
L 152.556575 157.035522 
L 153.207185 105.301761 
L 153.857796 157.035522 
L 155.809627 157.035522 
L 156.460237 169.968962 
L 157.110847 169.968962 
L 157.761457 105.301761 
L 158.412068 144.102082 
L 159.062678 105.301761 
L 159.713288 118.235201 
L 160.363899 169.968962 
L 161.014509 169.968962 
L 161.665119 118.235201 
L 162.31573 131.168642 
L 162.96634 157.035522 
L 163.61695 144.102082 
L 164.267561 144.102082 
L 164.918171 169.968962 
L 165.568781 144.102082 
L 166.219392 157.035522 
L 166.870002 131.168642 
L 168.821833 131.168642 
L 169.472443 118.235201 
L 170.123053 157.035522 
L 171.424274 131.168642 
L 172.074884 144.102082 
L 172.725495 144.102082 
L 173.376105 169.968962 
L 174.026715 157.035522 
L 174.677326 118.235201 
L 175.327936 169.968962 
L 175.978546 92.368321 
L 176.629156 53.568 
L 177.930377 105.301761 
L 178.580987 118.235201 
L 179.231598 92.368321 
L 179.882208 131.168642 
L 180.532818 53.568 
L 181.183429 157.035522 
L 181.834039 157.035522 
L 182.484649 131.168642 
L 183.13526 157.035522 
L 183.78587 157.035522 
L 184.43648 105.301761 
L 185.087091 157.035522 
L 185.737701 144.102082 
L 186.388311 157.035522 
L 187.038921 157.035522 
L 187.689532 131.168642 
L 188.990752 157.035522 
L 189.641363 144.102082 
L 190.291973 144.102082 
L 190.942583 131.168642 
L 192.243804 131.168642 
L 192.894414 157.035522 
L 193.545025 131.168642 
L 194.195635 169.968962 
L 194.846245 169.968962 
L 195.496856 131.168642 
L 196.147466 144.102082 
L 196.798076 169.968962 
L 197.448686 144.102082 
L 198.099297 157.035522 
L 198.749907 157.035522 
L 199.400517 169.968962 
L 200.051128 118.235201 
L 200.701738 157.035522 
L 202.653569 118.235201 
L 203.95479 144.102082 
L 204.6054 144.102082 
L 205.25601 157.035522 
L 205.906621 157.035522 
L 207.207841 105.301761 
L 207.858451 118.235201 
L 208.509062 144.102082 
L 209.159672 144.102082 
L 209.810282 157.035522 
L 211.111503 157.035522 
L 211.762113 144.102082 
L 212.412724 144.102082 
L 213.063334 157.035522 
L 214.364555 157.035522 
L 215.015165 131.168642 
L 215.665775 157.035522 
L 216.966996 157.035522 
L 217.617606 169.968962 
L 218.268216 144.102082 
L 218.918827 131.168642 
L 219.569437 157.035522 
L 220.220047 144.102082 
L 220.870658 118.235201 
L 221.521268 131.168642 
L 222.171878 118.235201 
L 222.822489 144.102082 
L 223.473099 144.102082 
L 224.123709 157.035522 
L 224.77432 144.102082 
L 225.42493 144.102082 
L 226.07554 157.035522 
L 226.72615 157.035522 
L 227.376761 118.235201 
L 228.027371 157.035522 
L 228.677981 144.102082 
L 229.328592 118.235201 
L 229.979202 144.102082 
L 231.931033 144.102082 
L 232.581643 169.968962 
L 233.232254 169.968962 
L 234.533474 144.102082 
L 235.834695 144.102082 
L 236.485305 157.035522 
L 237.135915 157.035522 
L 237.786526 144.102082 
L 238.437136 92.368321 
L 239.087746 157.035522 
L 239.738357 144.102082 
L 241.690188 144.102082 
L 242.340798 118.235201 
L 242.991408 157.035522 
L 243.642019 144.102082 
L 244.292629 144.102082 
L 245.59385 92.368321 
L 246.24446 131.168642 
L 247.54568 131.168642 
L 248.846901 182.902403 
L 249.497511 144.102082 
L 250.148122 131.168642 
L 250.798732 157.035522 
L 252.099953 131.168642 
L 252.750563 131.168642 
L 253.401173 157.035522 
L 254.702394 131.168642 
L 255.353004 144.102082 
L 256.003615 131.168642 
L 257.304835 157.035522 
L 257.955445 157.035522 
L 258.606056 131.168642 
L 259.256666 144.102082 
L 259.907276 131.168642 
L 260.557887 105.301761 
L 261.208497 144.102082 
L 261.859107 105.301761 
L 262.509718 118.235201 
L 263.160328 157.035522 
L 263.810938 169.968962 
L 264.461549 144.102082 
L 265.112159 144.102082 
L 265.762769 169.968962 
L 266.413379 118.235201 
L 267.06399 131.168642 
L 267.7146 157.035522 
L 268.36521 144.102082 
L 269.015821 144.102082 
L 269.666431 131.168642 
L 270.317041 157.035522 
L 270.967652 144.102082 
L 272.268872 169.968962 
L 272.919483 144.102082 
L 273.570093 157.035522 
L 274.220703 144.102082 
L 274.871314 144.102082 
L 275.521924 157.035522 
L 276.172534 144.102082 
L 276.823144 105.301761 
L 277.473755 105.301761 
L 278.124365 118.235201 
L 278.774975 92.368321 
L 279.425586 131.168642 
L 280.076196 157.035522 
L 280.726806 131.168642 
L 281.377417 157.035522 
L 282.028027 157.035522 
L 282.678637 144.102082 
L 283.329248 105.301761 
L 283.979858 92.368321 
L 284.630468 182.902403 
L 285.281079 118.235201 
L 285.931689 169.968962 
L 286.582299 144.102082 
L 287.232909 157.035522 
L 287.88352 157.035522 
L 288.53413 182.902403 
L 289.18474 144.102082 
L 289.835351 144.102082 
L 290.485961 118.235201 
L 291.136571 131.168642 
L 291.787182 131.168642 
L 292.437792 157.035522 
L 293.088402 131.168642 
L 293.739013 131.168642 
L 294.389623 144.102082 
L 295.040233 105.301761 
L 295.690844 157.035522 
L 296.341454 157.035522 
L 296.992064 131.168642 
L 297.642674 169.968962 
L 298.293285 118.235201 
L 298.943895 169.968962 
L 299.594505 131.168642 
L 300.245116 144.102082 
L 300.895726 169.968962 
L 301.546336 169.968962 
L 302.196947 157.035522 
L 302.847557 157.035522 
L 303.498167 131.168642 
L 304.148778 131.168642 
L 305.449998 157.035522 
L 306.100608 144.102082 
L 306.751219 144.102082 
L 307.401829 118.235201 
L 308.052439 157.035522 
L 308.70305 169.968962 
L 309.35366 157.035522 
L 310.00427 131.168642 
L 310.654881 169.968962 
L 311.305491 157.035522 
L 312.606712 157.035522 
L 313.257322 118.235201 
L 313.907932 131.168642 
L 314.558543 131.168642 
L 315.209153 169.968962 
L 316.510373 144.102082 
L 317.160984 144.102082 
L 318.462204 169.968962 
L 319.112815 157.035522 
L 319.763425 157.035522 
L 320.414035 118.235201 
L 321.064646 157.035522 
L 321.715256 144.102082 
L 322.365866 169.968962 
L 323.016477 144.102082 
L 323.667087 157.035522 
L 324.317697 157.035522 
L 324.968308 144.102082 
L 325.618918 118.235201 
L 326.269528 144.102082 
L 326.920138 157.035522 
L 328.871969 157.035522 
L 329.52258 144.102082 
L 330.8238 169.968962 
L 331.474411 157.035522 
L 332.125021 169.968962 
L 332.775631 144.102082 
L 334.076852 144.102082 
L 334.727462 182.902403 
L 335.378073 131.168642 
L 336.028683 131.168642 
L 336.679293 105.301761 
L 337.329903 118.235201 
L 337.980514 118.235201 
L 338.631124 169.968962 
L 339.281734 157.035522 
L 339.932345 157.035522 
L 340.582955 131.168642 
L 341.884176 105.301761 
L 342.534786 157.035522 
L 343.185396 144.102082 
L 344.486617 144.102082 
L 345.137227 118.235201 
L 345.787837 144.102082 
L 346.438448 144.102082 
L 347.089058 105.301761 
L 347.739668 157.035522 
L 348.390279 182.902403 
L 349.040889 131.168642 
L 350.34211 131.168642 
L 350.99272 157.035522 
L 351.64333 144.102082 
L 352.944551 169.968962 
L 353.595161 157.035522 
L 354.245772 169.968962 
L 354.896382 144.102082 
L 355.546992 169.968962 
L 356.197602 144.102082 
L 356.848213 131.168642 
L 358.149433 157.035522 
L 358.800044 157.035522 
L 359.450654 144.102082 
L 360.101264 157.035522 
L 360.751875 131.168642 
L 361.402485 157.035522 
L 362.053095 157.035522 
L 362.703706 118.235201 
L 363.354316 157.035522 
L 364.004926 169.968962 
L 365.306147 169.968962 
L 365.956757 157.035522 
L 366.607367 169.968962 
L 367.257978 131.168642 
L 367.908588 157.035522 
L 368.559198 144.102082 
L 369.209809 157.035522 
L 369.860419 131.168642 
L 370.511029 131.168642 
L 371.16164 157.035522 
L 372.46286 157.035522 
L 373.113471 118.235201 
L 373.764081 144.102082 
L 374.414691 182.902403 
L 375.065302 144.102082 
L 375.715912 157.035522 
L 377.017132 131.168642 
L 377.667743 131.168642 
L 378.318353 157.035522 
L 378.968963 105.301761 
L 379.619574 144.102082 
L 380.270184 144.102082 
L 380.920794 157.035522 
L 381.571405 157.035522 
L 382.222015 131.168642 
L 383.523236 131.168642 
L 384.173846 157.035522 
L 384.824456 131.168642 
L 385.475066 144.102082 
L 386.125677 144.102082 
L 386.776287 157.035522 
L 387.426897 105.301761 
L 388.077508 105.301761 
L 388.728118 131.168642 
L 389.378728 131.168642 
L 390.029339 144.102082 
L 390.679949 131.168642 
L 391.330559 144.102082 
L 392.63178 144.102082 
L 393.28239 131.168642 
L 393.933001 144.102082 
L 394.583611 131.168642 
L 395.234221 157.035522 
L 395.884831 144.102082 
L 396.535442 144.102082 
L 397.186052 157.035522 
L 398.487273 157.035522 
L 398.487273 157.035522 
" style="fill:none;stroke:#ff0000;stroke-linecap:square;stroke-width:1.5;"/>
   </g>
   <g id="patch_3">
    <path d="M 57.6 307.584 
L 57.6 41.472 
" style="fill:none;stroke:#000000;stroke-linecap:square;stroke-linejoin:miter;stroke-width:0.8;"/>
   </g>
   <g id="patch_4">
    <path d="M 414.72 307.584 
L 414.72 41.472 
" style="fill:none;stroke:#000000;stroke-linecap:square;stroke-linejoin:miter;stroke-width:0.8;"/>
   </g>
   <g id="patch_5">
    <path d="M 57.6 307.584 
L 414.72 307.584 
" style="fill:none;stroke:#000000;stroke-linecap:square;stroke-linejoin:miter;stroke-width:0.8;"/>
   </g>
   <g id="patch_6">
    <path d="M 57.6 41.472 
L 414.72 41.472 
" style="fill:none;stroke:#000000;stroke-linecap:square;stroke-linejoin:miter;stroke-width:0.8;"/>
   </g>
   <g id="text_17">
    <!-- Population's average and best fitness -->
    <defs>
     <path d="M 19.671875 64.796875 
L 19.671875 37.40625 
L 32.078125 37.40625 
Q 38.96875 37.40625 42.71875 40.96875 
Q 46.484375 44.53125 46.484375 51.125 
Q 46.484375 57.671875 42.71875 61.234375 
Q 38.96875 64.796875 32.078125 64.796875 
z
M 9.8125 72.90625 
L 32.078125 72.90625 
Q 44.34375 72.90625 50.609375 67.359375 
Q 56.890625 61.8125 56.890625 51.125 
Q 56.890625 40.328125 50.609375 34.8125 
Q 44.34375 29.296875 32.078125 29.296875 
L 19.671875 29.296875 
L 19.671875 0 
L 9.8125 0 
z
" id="DejaVuSans-80"/>
     <path d="M 18.109375 8.203125 
L 18.109375 -20.796875 
L 9.078125 -20.796875 
L 9.078125 54.6875 
L 18.109375 54.6875 
L 18.109375 46.390625 
Q 20.953125 51.265625 25.265625 53.625 
Q 29.59375 56 35.59375 56 
Q 45.5625 56 51.78125 48.09375 
Q 58.015625 40.1875 58.015625 27.296875 
Q 58.015625 14.40625 51.78125 6.484375 
Q 45.5625 -1.421875 35.59375 -1.421875 
Q 29.59375 -1.421875 25.265625 0.953125 
Q 20.953125 3.328125 18.109375 8.203125 
z
M 48.6875 27.296875 
Q 48.6875 37.203125 44.609375 42.84375 
Q 40.53125 48.484375 33.40625 48.484375 
Q 26.265625 48.484375 22.1875 42.84375 
Q 18.109375 37.203125 18.109375 27.296875 
Q 18.109375 17.390625 22.1875 11.75 
Q 26.265625 6.109375 33.40625 6.109375 
Q 40.53125 6.109375 44.609375 11.75 
Q 48.6875 17.390625 48.6875 27.296875 
z
" id="DejaVuSans-112"/>
     <path d="M 8.5 21.578125 
L 8.5 54.6875 
L 17.484375 54.6875 
L 17.484375 21.921875 
Q 17.484375 14.15625 20.5 10.265625 
Q 23.53125 6.390625 29.59375 6.390625 
Q 36.859375 6.390625 41.078125 11.03125 
Q 45.3125 15.671875 45.3125 23.6875 
L 45.3125 54.6875 
L 54.296875 54.6875 
L 54.296875 0 
L 45.3125 0 
L 45.3125 8.40625 
Q 42.046875 3.421875 37.71875 1 
Q 33.40625 -1.421875 27.6875 -1.421875 
Q 18.265625 -1.421875 13.375 4.4375 
Q 8.5 10.296875 8.5 21.578125 
z
M 31.109375 56 
z
" id="DejaVuSans-117"/>
     <path d="M 9.421875 75.984375 
L 18.40625 75.984375 
L 18.40625 0 
L 9.421875 0 
z
" id="DejaVuSans-108"/>
     <path d="M 17.921875 72.90625 
L 17.921875 45.796875 
L 9.625 45.796875 
L 9.625 72.90625 
z
" id="DejaVuSans-39"/>
     <path id="DejaVuSans-32"/>
     <path d="M 2.984375 54.6875 
L 12.5 54.6875 
L 29.59375 8.796875 
L 46.6875 54.6875 
L 56.203125 54.6875 
L 35.6875 0 
L 23.484375 0 
z
" id="DejaVuSans-118"/>
     <path d="M 45.40625 27.984375 
Q 45.40625 37.75 41.375 43.109375 
Q 37.359375 48.484375 30.078125 48.484375 
Q 22.859375 48.484375 18.828125 43.109375 
Q 14.796875 37.75 14.796875 27.984375 
Q 14.796875 18.265625 18.828125 12.890625 
Q 22.859375 7.515625 30.078125 7.515625 
Q 37.359375 7.515625 41.375 12.890625 
Q 45.40625 18.265625 45.40625 27.984375 
z
M 54.390625 6.78125 
Q 54.390625 -7.171875 48.1875 -13.984375 
Q 42 -20.796875 29.203125 -20.796875 
Q 24.46875 -20.796875 20.265625 -20.09375 
Q 16.0625 -19.390625 12.109375 -17.921875 
L 12.109375 -9.1875 
Q 16.0625 -11.328125 19.921875 -12.34375 
Q 23.78125 -13.375 27.78125 -13.375 
Q 36.625 -13.375 41.015625 -8.765625 
Q 45.40625 -4.15625 45.40625 5.171875 
L 45.40625 9.625 
Q 42.625 4.78125 38.28125 2.390625 
Q 33.9375 0 27.875 0 
Q 17.828125 0 11.671875 7.65625 
Q 5.515625 15.328125 5.515625 27.984375 
Q 5.515625 40.671875 11.671875 48.328125 
Q 17.828125 56 27.875 56 
Q 33.9375 56 38.28125 53.609375 
Q 42.625 51.21875 45.40625 46.390625 
L 45.40625 54.6875 
L 54.390625 54.6875 
z
" id="DejaVuSans-103"/>
     <path d="M 45.40625 46.390625 
L 45.40625 75.984375 
L 54.390625 75.984375 
L 54.390625 0 
L 45.40625 0 
L 45.40625 8.203125 
Q 42.578125 3.328125 38.25 0.953125 
Q 33.9375 -1.421875 27.875 -1.421875 
Q 17.96875 -1.421875 11.734375 6.484375 
Q 5.515625 14.40625 5.515625 27.296875 
Q 5.515625 40.1875 11.734375 48.09375 
Q 17.96875 56 27.875 56 
Q 33.9375 56 38.25 53.625 
Q 42.578125 51.265625 45.40625 46.390625 
z
M 14.796875 27.296875 
Q 14.796875 17.390625 18.875 11.75 
Q 22.953125 6.109375 30.078125 6.109375 
Q 37.203125 6.109375 41.296875 11.75 
Q 45.40625 17.390625 45.40625 27.296875 
Q 45.40625 37.203125 41.296875 42.84375 
Q 37.203125 48.484375 30.078125 48.484375 
Q 22.953125 48.484375 18.875 42.84375 
Q 14.796875 37.203125 14.796875 27.296875 
z
" id="DejaVuSans-100"/>
     <path d="M 48.6875 27.296875 
Q 48.6875 37.203125 44.609375 42.84375 
Q 40.53125 48.484375 33.40625 48.484375 
Q 26.265625 48.484375 22.1875 42.84375 
Q 18.109375 37.203125 18.109375 27.296875 
Q 18.109375 17.390625 22.1875 11.75 
Q 26.265625 6.109375 33.40625 6.109375 
Q 40.53125 6.109375 44.609375 11.75 
Q 48.6875 17.390625 48.6875 27.296875 
z
M 18.109375 46.390625 
Q 20.953125 51.265625 25.265625 53.625 
Q 29.59375 56 35.59375 56 
Q 45.5625 56 51.78125 48.09375 
Q 58.015625 40.1875 58.015625 27.296875 
Q 58.015625 14.40625 51.78125 6.484375 
Q 45.5625 -1.421875 35.59375 -1.421875 
Q 29.59375 -1.421875 25.265625 0.953125 
Q 20.953125 3.328125 18.109375 8.203125 
L 18.109375 0 
L 9.078125 0 
L 9.078125 75.984375 
L 18.109375 75.984375 
z
" id="DejaVuSans-98"/>
     <path d="M 37.109375 75.984375 
L 37.109375 68.5 
L 28.515625 68.5 
Q 23.6875 68.5 21.796875 66.546875 
Q 19.921875 64.59375 19.921875 59.515625 
L 19.921875 54.6875 
L 34.71875 54.6875 
L 34.71875 47.703125 
L 19.921875 47.703125 
L 19.921875 0 
L 10.890625 0 
L 10.890625 47.703125 
L 2.296875 47.703125 
L 2.296875 54.6875 
L 10.890625 54.6875 
L 10.890625 58.5 
Q 10.890625 67.625 15.140625 71.796875 
Q 19.390625 75.984375 28.609375 75.984375 
z
" id="DejaVuSans-102"/>
    </defs>
    <g transform="translate(123.315 35.472)scale(0.12 -0.12)">
     <use xlink:href="#DejaVuSans-80"/>
     <use x="60.255859" xlink:href="#DejaVuSans-111"/>
     <use x="121.4375" xlink:href="#DejaVuSans-112"/>
     <use x="184.914062" xlink:href="#DejaVuSans-117"/>
     <use x="248.292969" xlink:href="#DejaVuSans-108"/>
     <use x="276.076172" xlink:href="#DejaVuSans-97"/>
     <use x="337.355469" xlink:href="#DejaVuSans-116"/>
     <use x="376.564453" xlink:href="#DejaVuSans-105"/>
     <use x="404.347656" xlink:href="#DejaVuSans-111"/>
     <use x="465.529297" xlink:href="#DejaVuSans-110"/>
     <use x="528.908203" xlink:href="#DejaVuSans-39"/>
     <use x="556.398438" xlink:href="#DejaVuSans-115"/>
     <use x="608.498047" xlink:href="#DejaVuSans-32"/>
     <use x="640.285156" xlink:href="#DejaVuSans-97"/>
     <use x="701.564453" xlink:href="#DejaVuSans-118"/>
     <use x="760.744141" xlink:href="#DejaVuSans-101"/>
     <use x="822.267578" xlink:href="#DejaVuSans-114"/>
     <use x="863.380859" xlink:href="#DejaVuSans-97"/>
     <use x="924.660156" xlink:href="#DejaVuSans-103"/>
     <use x="988.136719" xlink:href="#DejaVuSans-101"/>
     <use x="1049.660156" xlink:href="#DejaVuSans-32"/>
     <use x="1081.447266" xlink:href="#DejaVuSans-97"/>
     <use x="1142.726562" xlink:href="#DejaVuSans-110"/>
     <use x="1206.105469" xlink:href="#DejaVuSans-100"/>
     <use x="1269.582031" xlink:href="#DejaVuSans-32"/>
     <use x="1301.369141" xlink:href="#DejaVuSans-98"/>
     <use x="1364.845703" xlink:href="#DejaVuSans-101"/>
     <use x="1426.369141" xlink:href="#DejaVuSans-115"/>
     <use x="1478.46875" xlink:href="#DejaVuSans-116"/>
     <use x="1517.677734" xlink:href="#DejaVuSans-32"/>
     <use x="1549.464844" xlink:href="#DejaVuSans-102"/>
     <use x="1584.669922" xlink:href="#DejaVuSans-105"/>
     <use x="1612.453125" xlink:href="#DejaVuSans-116"/>
     <use x="1651.662109" xlink:href="#DejaVuSans-110"/>
     <use x="1715.041016" xlink:href="#DejaVuSans-101"/>
     <use x="1776.564453" xlink:href="#DejaVuSans-115"/>
     <use x="1828.664062" xlink:href="#DejaVuSans-115"/>
    </g>
   </g>
   <g id="legend_1">
    <g id="patch_7">
     <path d="M 334.779375 93.506375 
L 407.72 93.506375 
Q 409.72 93.506375 409.72 91.506375 
L 409.72 48.472 
Q 409.72 46.472 407.72 46.472 
L 334.779375 46.472 
Q 332.779375 46.472 332.779375 48.472 
L 332.779375 91.506375 
Q 332.779375 93.506375 334.779375 93.506375 
z
" style="fill:#ffffff;opacity:0.8;stroke:#cccccc;stroke-linejoin:miter;"/>
    </g>
    <g id="line2d_32">
     <path d="M 336.779375 54.570438 
L 356.779375 54.570438 
" style="fill:none;stroke:#0000ff;stroke-linecap:square;stroke-width:1.5;"/>
    </g>
    <g id="line2d_33"/>
    <g id="text_18">
     <!-- average -->
     <g transform="translate(364.779375 58.070438)scale(0.1 -0.1)">
      <use xlink:href="#DejaVuSans-97"/>
      <use x="61.279297" xlink:href="#DejaVuSans-118"/>
      <use x="120.458984" xlink:href="#DejaVuSans-101"/>
      <use x="181.982422" xlink:href="#DejaVuSans-114"/>
      <use x="223.095703" xlink:href="#DejaVuSans-97"/>
      <use x="284.375" xlink:href="#DejaVuSans-103"/>
      <use x="347.851562" xlink:href="#DejaVuSans-101"/>
     </g>
    </g>
    <g id="line2d_34">
     <path d="M 336.779375 69.248563 
L 356.779375 69.248563 
" style="fill:none;stroke:#008000;stroke-dasharray:9.6,2.4,1.5,2.4;stroke-dashoffset:0;stroke-width:1.5;"/>
    </g>
    <g id="line2d_35"/>
    <g id="text_19">
     <!-- +1 sd -->
     <defs>
      <path d="M 46 62.703125 
L 46 35.5 
L 73.1875 35.5 
L 73.1875 27.203125 
L 46 27.203125 
L 46 0 
L 37.796875 0 
L 37.796875 27.203125 
L 10.59375 27.203125 
L 10.59375 35.5 
L 37.796875 35.5 
L 37.796875 62.703125 
z
" id="DejaVuSans-43"/>
     </defs>
     <g transform="translate(364.779375 72.748563)scale(0.1 -0.1)">
      <use xlink:href="#DejaVuSans-43"/>
      <use x="83.789062" xlink:href="#DejaVuSans-49"/>
      <use x="147.412109" xlink:href="#DejaVuSans-32"/>
      <use x="179.199219" xlink:href="#DejaVuSans-115"/>
      <use x="231.298828" xlink:href="#DejaVuSans-100"/>
     </g>
    </g>
    <g id="line2d_36">
     <path d="M 336.779375 83.926688 
L 356.779375 83.926688 
" style="fill:none;stroke:#ff0000;stroke-linecap:square;stroke-width:1.5;"/>
    </g>
    <g id="line2d_37"/>
    <g id="text_20">
     <!-- best -->
     <g transform="translate(364.779375 87.426688)scale(0.1 -0.1)">
      <use xlink:href="#DejaVuSans-98"/>
      <use x="63.476562" xlink:href="#DejaVuSans-101"/>
      <use x="125" xlink:href="#DejaVuSans-115"/>
      <use x="177.099609" xlink:href="#DejaVuSans-116"/>
     </g>
    </g>
   </g>
  </g>
 </g>
 <defs>
  <clipPath id="pc9c79da1dc">
   <rect height="266.112" width="357.12" x="57.6" y="41.472"/>
  </clipPath>
 </defs>
</svg>
