<?xml version="1.0" encoding="utf-8" standalone="no"?>
<!DOCTYPE svg PUBLIC "-//W3C//DTD SVG 1.1//EN"
  "http://www.w3.org/Graphics/SVG/1.1/DTD/svg11.dtd">
<!-- Created with matplotlib (https://matplotlib.org/) -->
<svg height="345.6pt" version="1.1" viewBox="0 0 460.8 345.6" width="460.8pt" xmlns="http://www.w3.org/2000/svg" xmlns:xlink="http://www.w3.org/1999/xlink">
 <defs>
  <style type="text/css">
*{stroke-linecap:butt;stroke-linejoin:round;}
  </style>
 </defs>
 <g id="figure_1">
  <g id="patch_1">
   <path d="M 0 345.6 
L 460.8 345.6 
L 460.8 0 
L 0 0 
z
" style="fill:#ffffff;"/>
  </g>
  <g id="axes_1">
   <g id="patch_2">
    <path d="M 57.6 307.584 
L 414.72 307.584 
L 414.72 41.472 
L 57.6 41.472 
z
" style="fill:#ffffff;"/>
   </g>
   <g id="matplotlib.axis_1">
    <g id="xtick_1">
     <g id="line2d_1">
      <path clip-path="url(#pee8c99fce1)" d="M 73.832727 307.584 
L 73.832727 41.472 
" style="fill:none;stroke:#b0b0b0;stroke-linecap:square;stroke-width:0.8;"/>
     </g>
     <g id="line2d_2">
      <defs>
       <path d="M 0 0 
L 0 3.5 
" id="m26e85ca220" style="stroke:#000000;stroke-width:0.8;"/>
      </defs>
      <g>
       <use style="stroke:#000000;stroke-width:0.8;" x="73.832727" xlink:href="#m26e85ca220" y="307.584"/>
      </g>
     </g>
     <g id="text_1">
      <!-- 0 -->
      <defs>
       <path d="M 31.78125 66.40625 
Q 24.171875 66.40625 20.328125 58.90625 
Q 16.5 51.421875 16.5 36.375 
Q 16.5 21.390625 20.328125 13.890625 
Q 24.171875 6.390625 31.78125 6.390625 
Q 39.453125 6.390625 43.28125 13.890625 
Q 47.125 21.390625 47.125 36.375 
Q 47.125 51.421875 43.28125 58.90625 
Q 39.453125 66.40625 31.78125 66.40625 
z
M 31.78125 74.21875 
Q 44.046875 74.21875 50.515625 64.515625 
Q 56.984375 54.828125 56.984375 36.375 
Q 56.984375 17.96875 50.515625 8.265625 
Q 44.046875 -1.421875 31.78125 -1.421875 
Q 19.53125 -1.421875 13.0625 8.265625 
Q 6.59375 17.96875 6.59375 36.375 
Q 6.59375 54.828125 13.0625 64.515625 
Q 19.53125 74.21875 31.78125 74.21875 
z
" id="DejaVuSans-48"/>
      </defs>
      <g transform="translate(70.651477 322.182437)scale(0.1 -0.1)">
       <use xlink:href="#DejaVuSans-48"/>
      </g>
     </g>
    </g>
    <g id="xtick_2">
     <g id="line2d_3">
      <path clip-path="url(#pee8c99fce1)" d="M 138.893758 307.584 
L 138.893758 41.472 
" style="fill:none;stroke:#b0b0b0;stroke-linecap:square;stroke-width:0.8;"/>
     </g>
     <g id="line2d_4">
      <g>
       <use style="stroke:#000000;stroke-width:0.8;" x="138.893758" xlink:href="#m26e85ca220" y="307.584"/>
      </g>
     </g>
     <g id="text_2">
      <!-- 100 -->
      <defs>
       <path d="M 12.40625 8.296875 
L 28.515625 8.296875 
L 28.515625 63.921875 
L 10.984375 60.40625 
L 10.984375 69.390625 
L 28.421875 72.90625 
L 38.28125 72.90625 
L 38.28125 8.296875 
L 54.390625 8.296875 
L 54.390625 0 
L 12.40625 0 
z
" id="DejaVuSans-49"/>
      </defs>
      <g transform="translate(129.350008 322.182437)scale(0.1 -0.1)">
       <use xlink:href="#DejaVuSans-49"/>
       <use x="63.623047" xlink:href="#DejaVuSans-48"/>
       <use x="127.246094" xlink:href="#DejaVuSans-48"/>
      </g>
     </g>
    </g>
    <g id="xtick_3">
     <g id="line2d_5">
      <path clip-path="url(#pee8c99fce1)" d="M 203.95479 307.584 
L 203.95479 41.472 
" style="fill:none;stroke:#b0b0b0;stroke-linecap:square;stroke-width:0.8;"/>
     </g>
     <g id="line2d_6">
      <g>
       <use style="stroke:#000000;stroke-width:0.8;" x="203.95479" xlink:href="#m26e85ca220" y="307.584"/>
      </g>
     </g>
     <g id="text_3">
      <!-- 200 -->
      <defs>
       <path d="M 19.1875 8.296875 
L 53.609375 8.296875 
L 53.609375 0 
L 7.328125 0 
L 7.328125 8.296875 
Q 12.9375 14.109375 22.625 23.890625 
Q 32.328125 33.6875 34.8125 36.53125 
Q 39.546875 41.84375 41.421875 45.53125 
Q 43.3125 49.21875 43.3125 52.78125 
Q 43.3125 58.59375 39.234375 62.25 
Q 35.15625 65.921875 28.609375 65.921875 
Q 23.96875 65.921875 18.8125 64.3125 
Q 13.671875 62.703125 7.8125 59.421875 
L 7.8125 69.390625 
Q 13.765625 71.78125 18.9375 73 
Q 24.125 74.21875 28.421875 74.21875 
Q 39.75 74.21875 46.484375 68.546875 
Q 53.21875 62.890625 53.21875 53.421875 
Q 53.21875 48.921875 51.53125 44.890625 
Q 49.859375 40.875 45.40625 35.40625 
Q 44.1875 33.984375 37.640625 27.21875 
Q 31.109375 20.453125 19.1875 8.296875 
z
" id="DejaVuSans-50"/>
      </defs>
      <g transform="translate(194.41104 322.182437)scale(0.1 -0.1)">
       <use xlink:href="#DejaVuSans-50"/>
       <use x="63.623047" xlink:href="#DejaVuSans-48"/>
       <use x="127.246094" xlink:href="#DejaVuSans-48"/>
      </g>
     </g>
    </g>
    <g id="xtick_4">
     <g id="line2d_7">
      <path clip-path="url(#pee8c99fce1)" d="M 269.015821 307.584 
L 269.015821 41.472 
" style="fill:none;stroke:#b0b0b0;stroke-linecap:square;stroke-width:0.8;"/>
     </g>
     <g id="line2d_8">
      <g>
       <use style="stroke:#000000;stroke-width:0.8;" x="269.015821" xlink:href="#m26e85ca220" y="307.584"/>
      </g>
     </g>
     <g id="text_4">
      <!-- 300 -->
      <defs>
       <path d="M 40.578125 39.3125 
Q 47.65625 37.796875 51.625 33 
Q 55.609375 28.21875 55.609375 21.1875 
Q 55.609375 10.40625 48.1875 4.484375 
Q 40.765625 -1.421875 27.09375 -1.421875 
Q 22.515625 -1.421875 17.65625 -0.515625 
Q 12.796875 0.390625 7.625 2.203125 
L 7.625 11.71875 
Q 11.71875 9.328125 16.59375 8.109375 
Q 21.484375 6.890625 26.8125 6.890625 
Q 36.078125 6.890625 40.9375 10.546875 
Q 45.796875 14.203125 45.796875 21.1875 
Q 45.796875 27.640625 41.28125 31.265625 
Q 36.765625 34.90625 28.71875 34.90625 
L 20.21875 34.90625 
L 20.21875 43.015625 
L 29.109375 43.015625 
Q 36.375 43.015625 40.234375 45.921875 
Q 44.09375 48.828125 44.09375 54.296875 
Q 44.09375 59.90625 40.109375 62.90625 
Q 36.140625 65.921875 28.71875 65.921875 
Q 24.65625 65.921875 20.015625 65.03125 
Q 15.375 64.15625 9.8125 62.3125 
L 9.8125 71.09375 
Q 15.4375 72.65625 20.34375 73.4375 
Q 25.25 74.21875 29.59375 74.21875 
Q 40.828125 74.21875 47.359375 69.109375 
Q 53.90625 64.015625 53.90625 55.328125 
Q 53.90625 49.265625 50.4375 45.09375 
Q 46.96875 40.921875 40.578125 39.3125 
z
" id="DejaVuSans-51"/>
      </defs>
      <g transform="translate(259.472071 322.182437)scale(0.1 -0.1)">
       <use xlink:href="#DejaVuSans-51"/>
       <use x="63.623047" xlink:href="#DejaVuSans-48"/>
       <use x="127.246094" xlink:href="#DejaVuSans-48"/>
      </g>
     </g>
    </g>
    <g id="xtick_5">
     <g id="line2d_9">
      <path clip-path="url(#pee8c99fce1)" d="M 334.076852 307.584 
L 334.076852 41.472 
" style="fill:none;stroke:#b0b0b0;stroke-linecap:square;stroke-width:0.8;"/>
     </g>
     <g id="line2d_10">
      <g>
       <use style="stroke:#000000;stroke-width:0.8;" x="334.076852" xlink:href="#m26e85ca220" y="307.584"/>
      </g>
     </g>
     <g id="text_5">
      <!-- 400 -->
      <defs>
       <path d="M 37.796875 64.3125 
L 12.890625 25.390625 
L 37.796875 25.390625 
z
M 35.203125 72.90625 
L 47.609375 72.90625 
L 47.609375 25.390625 
L 58.015625 25.390625 
L 58.015625 17.1875 
L 47.609375 17.1875 
L 47.609375 0 
L 37.796875 0 
L 37.796875 17.1875 
L 4.890625 17.1875 
L 4.890625 26.703125 
z
" id="DejaVuSans-52"/>
      </defs>
      <g transform="translate(324.533102 322.182437)scale(0.1 -0.1)">
       <use xlink:href="#DejaVuSans-52"/>
       <use x="63.623047" xlink:href="#DejaVuSans-48"/>
       <use x="127.246094" xlink:href="#DejaVuSans-48"/>
      </g>
     </g>
    </g>
    <g id="xtick_6">
     <g id="line2d_11">
      <path clip-path="url(#pee8c99fce1)" d="M 399.137883 307.584 
L 399.137883 41.472 
" style="fill:none;stroke:#b0b0b0;stroke-linecap:square;stroke-width:0.8;"/>
     </g>
     <g id="line2d_12">
      <g>
       <use style="stroke:#000000;stroke-width:0.8;" x="399.137883" xlink:href="#m26e85ca220" y="307.584"/>
      </g>
     </g>
     <g id="text_6">
      <!-- 500 -->
      <defs>
       <path d="M 10.796875 72.90625 
L 49.515625 72.90625 
L 49.515625 64.59375 
L 19.828125 64.59375 
L 19.828125 46.734375 
Q 21.96875 47.46875 24.109375 47.828125 
Q 26.265625 48.1875 28.421875 48.1875 
Q 40.625 48.1875 47.75 41.5 
Q 54.890625 34.8125 54.890625 23.390625 
Q 54.890625 11.625 47.5625 5.09375 
Q 40.234375 -1.421875 26.90625 -1.421875 
Q 22.3125 -1.421875 17.546875 -0.640625 
Q 12.796875 0.140625 7.71875 1.703125 
L 7.71875 11.625 
Q 12.109375 9.234375 16.796875 8.0625 
Q 21.484375 6.890625 26.703125 6.890625 
Q 35.15625 6.890625 40.078125 11.328125 
Q 45.015625 15.765625 45.015625 23.390625 
Q 45.015625 31 40.078125 35.4375 
Q 35.15625 39.890625 26.703125 39.890625 
Q 22.75 39.890625 18.8125 39.015625 
Q 14.890625 38.140625 10.796875 36.28125 
z
" id="DejaVuSans-53"/>
      </defs>
      <g transform="translate(389.594133 322.182437)scale(0.1 -0.1)">
       <use xlink:href="#DejaVuSans-53"/>
       <use x="63.623047" xlink:href="#DejaVuSans-48"/>
       <use x="127.246094" xlink:href="#DejaVuSans-48"/>
      </g>
     </g>
    </g>
    <g id="text_7">
     <!-- Generations -->
     <defs>
      <path d="M 59.515625 10.40625 
L 59.515625 29.984375 
L 43.40625 29.984375 
L 43.40625 38.09375 
L 69.28125 38.09375 
L 69.28125 6.78125 
Q 63.578125 2.734375 56.6875 0.65625 
Q 49.8125 -1.421875 42 -1.421875 
Q 24.90625 -1.421875 15.25 8.5625 
Q 5.609375 18.5625 5.609375 36.375 
Q 5.609375 54.25 15.25 64.234375 
Q 24.90625 74.21875 42 74.21875 
Q 49.125 74.21875 55.546875 72.453125 
Q 61.96875 70.703125 67.390625 67.28125 
L 67.390625 56.78125 
Q 61.921875 61.421875 55.765625 63.765625 
Q 49.609375 66.109375 42.828125 66.109375 
Q 29.4375 66.109375 22.71875 58.640625 
Q 16.015625 51.171875 16.015625 36.375 
Q 16.015625 21.625 22.71875 14.15625 
Q 29.4375 6.6875 42.828125 6.6875 
Q 48.046875 6.6875 52.140625 7.59375 
Q 56.25 8.5 59.515625 10.40625 
z
" id="DejaVuSans-71"/>
      <path d="M 56.203125 29.59375 
L 56.203125 25.203125 
L 14.890625 25.203125 
Q 15.484375 15.921875 20.484375 11.0625 
Q 25.484375 6.203125 34.421875 6.203125 
Q 39.59375 6.203125 44.453125 7.46875 
Q 49.3125 8.734375 54.109375 11.28125 
L 54.109375 2.78125 
Q 49.265625 0.734375 44.1875 -0.34375 
Q 39.109375 -1.421875 33.890625 -1.421875 
Q 20.796875 -1.421875 13.15625 6.1875 
Q 5.515625 13.8125 5.515625 26.8125 
Q 5.515625 40.234375 12.765625 48.109375 
Q 20.015625 56 32.328125 56 
Q 43.359375 56 49.78125 48.890625 
Q 56.203125 41.796875 56.203125 29.59375 
z
M 47.21875 32.234375 
Q 47.125 39.59375 43.09375 43.984375 
Q 39.0625 48.390625 32.421875 48.390625 
Q 24.90625 48.390625 20.390625 44.140625 
Q 15.875 39.890625 15.1875 32.171875 
z
" id="DejaVuSans-101"/>
      <path d="M 54.890625 33.015625 
L 54.890625 0 
L 45.90625 0 
L 45.90625 32.71875 
Q 45.90625 40.484375 42.875 44.328125 
Q 39.84375 48.1875 33.796875 48.1875 
Q 26.515625 48.1875 22.3125 43.546875 
Q 18.109375 38.921875 18.109375 30.90625 
L 18.109375 0 
L 9.078125 0 
L 9.078125 54.6875 
L 18.109375 54.6875 
L 18.109375 46.1875 
Q 21.34375 51.125 25.703125 53.5625 
Q 30.078125 56 35.796875 56 
Q 45.21875 56 50.046875 50.171875 
Q 54.890625 44.34375 54.890625 33.015625 
z
" id="DejaVuSans-110"/>
      <path d="M 41.109375 46.296875 
Q 39.59375 47.171875 37.8125 47.578125 
Q 36.03125 48 33.890625 48 
Q 26.265625 48 22.1875 43.046875 
Q 18.109375 38.09375 18.109375 28.8125 
L 18.109375 0 
L 9.078125 0 
L 9.078125 54.6875 
L 18.109375 54.6875 
L 18.109375 46.1875 
Q 20.953125 51.171875 25.484375 53.578125 
Q 30.03125 56 36.53125 56 
Q 37.453125 56 38.578125 55.875 
Q 39.703125 55.765625 41.0625 55.515625 
z
" id="DejaVuSans-114"/>
      <path d="M 34.28125 27.484375 
Q 23.390625 27.484375 19.1875 25 
Q 14.984375 22.515625 14.984375 16.5 
Q 14.984375 11.71875 18.140625 8.90625 
Q 21.296875 6.109375 26.703125 6.109375 
Q 34.1875 6.109375 38.703125 11.40625 
Q 43.21875 16.703125 43.21875 25.484375 
L 43.21875 27.484375 
z
M 52.203125 31.203125 
L 52.203125 0 
L 43.21875 0 
L 43.21875 8.296875 
Q 40.140625 3.328125 35.546875 0.953125 
Q 30.953125 -1.421875 24.3125 -1.421875 
Q 15.921875 -1.421875 10.953125 3.296875 
Q 6 8.015625 6 15.921875 
Q 6 25.140625 12.171875 29.828125 
Q 18.359375 34.515625 30.609375 34.515625 
L 43.21875 34.515625 
L 43.21875 35.40625 
Q 43.21875 41.609375 39.140625 45 
Q 35.0625 48.390625 27.6875 48.390625 
Q 23 48.390625 18.546875 47.265625 
Q 14.109375 46.140625 10.015625 43.890625 
L 10.015625 52.203125 
Q 14.9375 54.109375 19.578125 55.046875 
Q 24.21875 56 28.609375 56 
Q 40.484375 56 46.34375 49.84375 
Q 52.203125 43.703125 52.203125 31.203125 
z
" id="DejaVuSans-97"/>
      <path d="M 18.3125 70.21875 
L 18.3125 54.6875 
L 36.8125 54.6875 
L 36.8125 47.703125 
L 18.3125 47.703125 
L 18.3125 18.015625 
Q 18.3125 11.328125 20.140625 9.421875 
Q 21.96875 7.515625 27.59375 7.515625 
L 36.8125 7.515625 
L 36.8125 0 
L 27.59375 0 
Q 17.1875 0 13.234375 3.875 
Q 9.28125 7.765625 9.28125 18.015625 
L 9.28125 47.703125 
L 2.6875 47.703125 
L 2.6875 54.6875 
L 9.28125 54.6875 
L 9.28125 70.21875 
z
" id="DejaVuSans-116"/>
      <path d="M 9.421875 54.6875 
L 18.40625 54.6875 
L 18.40625 0 
L 9.421875 0 
z
M 9.421875 75.984375 
L 18.40625 75.984375 
L 18.40625 64.59375 
L 9.421875 64.59375 
z
" id="DejaVuSans-105"/>
      <path d="M 30.609375 48.390625 
Q 23.390625 48.390625 19.1875 42.75 
Q 14.984375 37.109375 14.984375 27.296875 
Q 14.984375 17.484375 19.15625 11.84375 
Q 23.34375 6.203125 30.609375 6.203125 
Q 37.796875 6.203125 41.984375 11.859375 
Q 46.1875 17.53125 46.1875 27.296875 
Q 46.1875 37.015625 41.984375 42.703125 
Q 37.796875 48.390625 30.609375 48.390625 
z
M 30.609375 56 
Q 42.328125 56 49.015625 48.375 
Q 55.71875 40.765625 55.71875 27.296875 
Q 55.71875 13.875 49.015625 6.21875 
Q 42.328125 -1.421875 30.609375 -1.421875 
Q 18.84375 -1.421875 12.171875 6.21875 
Q 5.515625 13.875 5.515625 27.296875 
Q 5.515625 40.765625 12.171875 48.375 
Q 18.84375 56 30.609375 56 
z
" id="DejaVuSans-111"/>
      <path d="M 44.28125 53.078125 
L 44.28125 44.578125 
Q 40.484375 46.53125 36.375 47.5 
Q 32.28125 48.484375 27.875 48.484375 
Q 21.1875 48.484375 17.84375 46.4375 
Q 14.5 44.390625 14.5 40.28125 
Q 14.5 37.15625 16.890625 35.375 
Q 19.28125 33.59375 26.515625 31.984375 
L 29.59375 31.296875 
Q 39.15625 29.25 43.1875 25.515625 
Q 47.21875 21.78125 47.21875 15.09375 
Q 47.21875 7.46875 41.1875 3.015625 
Q 35.15625 -1.421875 24.609375 -1.421875 
Q 20.21875 -1.421875 15.453125 -0.5625 
Q 10.6875 0.296875 5.421875 2 
L 5.421875 11.28125 
Q 10.40625 8.6875 15.234375 7.390625 
Q 20.0625 6.109375 24.8125 6.109375 
Q 31.15625 6.109375 34.5625 8.28125 
Q 37.984375 10.453125 37.984375 14.40625 
Q 37.984375 18.0625 35.515625 20.015625 
Q 33.0625 21.96875 24.703125 23.78125 
L 21.578125 24.515625 
Q 13.234375 26.265625 9.515625 29.90625 
Q 5.8125 33.546875 5.8125 39.890625 
Q 5.8125 47.609375 11.28125 51.796875 
Q 16.75 56 26.8125 56 
Q 31.78125 56 36.171875 55.265625 
Q 40.578125 54.546875 44.28125 53.078125 
z
" id="DejaVuSans-115"/>
     </defs>
     <g transform="translate(205.662344 335.860562)scale(0.1 -0.1)">
      <use xlink:href="#DejaVuSans-71"/>
      <use x="77.490234" xlink:href="#DejaVuSans-101"/>
      <use x="139.013672" xlink:href="#DejaVuSans-110"/>
      <use x="202.392578" xlink:href="#DejaVuSans-101"/>
      <use x="263.916016" xlink:href="#DejaVuSans-114"/>
      <use x="305.029297" xlink:href="#DejaVuSans-97"/>
      <use x="366.308594" xlink:href="#DejaVuSans-116"/>
      <use x="405.517578" xlink:href="#DejaVuSans-105"/>
      <use x="433.300781" xlink:href="#DejaVuSans-111"/>
      <use x="494.482422" xlink:href="#DejaVuSans-110"/>
      <use x="557.861328" xlink:href="#DejaVuSans-115"/>
     </g>
    </g>
   </g>
   <g id="matplotlib.axis_2">
    <g id="ytick_1">
     <g id="line2d_13">
      <path clip-path="url(#pee8c99fce1)" d="M 57.6 283.617297 
L 414.72 283.617297 
" style="fill:none;stroke:#b0b0b0;stroke-linecap:square;stroke-width:0.8;"/>
     </g>
     <g id="line2d_14">
      <defs>
       <path d="M 0 0 
L -3.5 0 
" id="m26dffff5f6" style="stroke:#000000;stroke-width:0.8;"/>
      </defs>
      <g>
       <use style="stroke:#000000;stroke-width:0.8;" x="57.6" xlink:href="#m26dffff5f6" y="283.617297"/>
      </g>
     </g>
     <g id="text_8">
      <!-- −75 -->
      <defs>
       <path d="M 10.59375 35.5 
L 73.1875 35.5 
L 73.1875 27.203125 
L 10.59375 27.203125 
z
" id="DejaVuSans-8722"/>
       <path d="M 8.203125 72.90625 
L 55.078125 72.90625 
L 55.078125 68.703125 
L 28.609375 0 
L 18.3125 0 
L 43.21875 64.59375 
L 8.203125 64.59375 
z
" id="DejaVuSans-55"/>
      </defs>
      <g transform="translate(29.495313 287.416515)scale(0.1 -0.1)">
       <use xlink:href="#DejaVuSans-8722"/>
       <use x="83.789062" xlink:href="#DejaVuSans-55"/>
       <use x="147.412109" xlink:href="#DejaVuSans-53"/>
      </g>
     </g>
    </g>
    <g id="ytick_2">
     <g id="line2d_15">
      <path clip-path="url(#pee8c99fce1)" d="M 57.6 251.666005 
L 414.72 251.666005 
" style="fill:none;stroke:#b0b0b0;stroke-linecap:square;stroke-width:0.8;"/>
     </g>
     <g id="line2d_16">
      <g>
       <use style="stroke:#000000;stroke-width:0.8;" x="57.6" xlink:href="#m26dffff5f6" y="251.666005"/>
      </g>
     </g>
     <g id="text_9">
      <!-- −50 -->
      <g transform="translate(29.495313 255.465224)scale(0.1 -0.1)">
       <use xlink:href="#DejaVuSans-8722"/>
       <use x="83.789062" xlink:href="#DejaVuSans-53"/>
       <use x="147.412109" xlink:href="#DejaVuSans-48"/>
      </g>
     </g>
    </g>
    <g id="ytick_3">
     <g id="line2d_17">
      <path clip-path="url(#pee8c99fce1)" d="M 57.6 219.714714 
L 414.72 219.714714 
" style="fill:none;stroke:#b0b0b0;stroke-linecap:square;stroke-width:0.8;"/>
     </g>
     <g id="line2d_18">
      <g>
       <use style="stroke:#000000;stroke-width:0.8;" x="57.6" xlink:href="#m26dffff5f6" y="219.714714"/>
      </g>
     </g>
     <g id="text_10">
      <!-- −25 -->
      <g transform="translate(29.495313 223.513933)scale(0.1 -0.1)">
       <use xlink:href="#DejaVuSans-8722"/>
       <use x="83.789062" xlink:href="#DejaVuSans-50"/>
       <use x="147.412109" xlink:href="#DejaVuSans-53"/>
      </g>
     </g>
    </g>
    <g id="ytick_4">
     <g id="line2d_19">
      <path clip-path="url(#pee8c99fce1)" d="M 57.6 187.763423 
L 414.72 187.763423 
" style="fill:none;stroke:#b0b0b0;stroke-linecap:square;stroke-width:0.8;"/>
     </g>
     <g id="line2d_20">
      <g>
       <use style="stroke:#000000;stroke-width:0.8;" x="57.6" xlink:href="#m26dffff5f6" y="187.763423"/>
      </g>
     </g>
     <g id="text_11">
      <!-- 0 -->
      <g transform="translate(44.2375 191.562642)scale(0.1 -0.1)">
       <use xlink:href="#DejaVuSans-48"/>
      </g>
     </g>
    </g>
    <g id="ytick_5">
     <g id="line2d_21">
      <path clip-path="url(#pee8c99fce1)" d="M 57.6 155.812132 
L 414.72 155.812132 
" style="fill:none;stroke:#b0b0b0;stroke-linecap:square;stroke-width:0.8;"/>
     </g>
     <g id="line2d_22">
      <g>
       <use style="stroke:#000000;stroke-width:0.8;" x="57.6" xlink:href="#m26dffff5f6" y="155.812132"/>
      </g>
     </g>
     <g id="text_12">
      <!-- 25 -->
      <g transform="translate(37.875 159.611351)scale(0.1 -0.1)">
       <use xlink:href="#DejaVuSans-50"/>
       <use x="63.623047" xlink:href="#DejaVuSans-53"/>
      </g>
     </g>
    </g>
    <g id="ytick_6">
     <g id="line2d_23">
      <path clip-path="url(#pee8c99fce1)" d="M 57.6 123.860841 
L 414.72 123.860841 
" style="fill:none;stroke:#b0b0b0;stroke-linecap:square;stroke-width:0.8;"/>
     </g>
     <g id="line2d_24">
      <g>
       <use style="stroke:#000000;stroke-width:0.8;" x="57.6" xlink:href="#m26dffff5f6" y="123.860841"/>
      </g>
     </g>
     <g id="text_13">
      <!-- 50 -->
      <g transform="translate(37.875 127.660059)scale(0.1 -0.1)">
       <use xlink:href="#DejaVuSans-53"/>
       <use x="63.623047" xlink:href="#DejaVuSans-48"/>
      </g>
     </g>
    </g>
    <g id="ytick_7">
     <g id="line2d_25">
      <path clip-path="url(#pee8c99fce1)" d="M 57.6 91.909549 
L 414.72 91.909549 
" style="fill:none;stroke:#b0b0b0;stroke-linecap:square;stroke-width:0.8;"/>
     </g>
     <g id="line2d_26">
      <g>
       <use style="stroke:#000000;stroke-width:0.8;" x="57.6" xlink:href="#m26dffff5f6" y="91.909549"/>
      </g>
     </g>
     <g id="text_14">
      <!-- 75 -->
      <g transform="translate(37.875 95.708768)scale(0.1 -0.1)">
       <use xlink:href="#DejaVuSans-55"/>
       <use x="63.623047" xlink:href="#DejaVuSans-53"/>
      </g>
     </g>
    </g>
    <g id="ytick_8">
     <g id="line2d_27">
      <path clip-path="url(#pee8c99fce1)" d="M 57.6 59.958258 
L 414.72 59.958258 
" style="fill:none;stroke:#b0b0b0;stroke-linecap:square;stroke-width:0.8;"/>
     </g>
     <g id="line2d_28">
      <g>
       <use style="stroke:#000000;stroke-width:0.8;" x="57.6" xlink:href="#m26dffff5f6" y="59.958258"/>
      </g>
     </g>
     <g id="text_15">
      <!-- 100 -->
      <g transform="translate(31.5125 63.757477)scale(0.1 -0.1)">
       <use xlink:href="#DejaVuSans-49"/>
       <use x="63.623047" xlink:href="#DejaVuSans-48"/>
       <use x="127.246094" xlink:href="#DejaVuSans-48"/>
      </g>
     </g>
    </g>
    <g id="text_16">
     <!-- Fitness -->
     <defs>
      <path d="M 9.8125 72.90625 
L 51.703125 72.90625 
L 51.703125 64.59375 
L 19.671875 64.59375 
L 19.671875 43.109375 
L 48.578125 43.109375 
L 48.578125 34.8125 
L 19.671875 34.8125 
L 19.671875 0 
L 9.8125 0 
z
" id="DejaVuSans-70"/>
     </defs>
     <g transform="translate(23.415625 192.202219)rotate(-90)scale(0.1 -0.1)">
      <use xlink:href="#DejaVuSans-70"/>
      <use x="57.410156" xlink:href="#DejaVuSans-105"/>
      <use x="85.193359" xlink:href="#DejaVuSans-116"/>
      <use x="124.402344" xlink:href="#DejaVuSans-110"/>
      <use x="187.78125" xlink:href="#DejaVuSans-101"/>
      <use x="249.304688" xlink:href="#DejaVuSans-115"/>
      <use x="301.404297" xlink:href="#DejaVuSans-115"/>
     </g>
    </g>
   </g>
   <g id="line2d_29">
    <path clip-path="url(#pee8c99fce1)" d="M 73.832727 293.344867 
L 74.483338 288.952363 
L 75.133948 293.38241 
L 75.784558 291.17857 
L 76.435169 291.420601 
L 77.085779 289.141675 
L 77.736389 287.745403 
L 78.386999 295.488 
L 79.03761 290.54833 
L 79.68822 288.999492 
L 80.33883 290.880624 
L 80.989441 291.338326 
L 81.640051 294.904889 
L 82.290661 286.698999 
L 82.941272 289.843804 
L 83.591882 287.169481 
L 84.242492 290.39097 
L 84.893103 291.49968 
L 85.543713 288.671991 
L 86.194323 288.225472 
L 86.844934 288.355673 
L 87.495544 292.949838 
L 88.146154 291.437633 
L 88.796764 292.81999 
L 89.447375 290.948926 
L 90.097985 289.841288 
L 90.748595 289.693162 
L 91.399206 290.267699 
L 92.049816 292.138017 
L 92.700426 293.587979 
L 93.351037 290.646581 
L 94.001647 292.761575 
L 94.652257 291.7332 
L 95.302868 291.680299 
L 95.953478 287.544775 
L 96.604088 289.55956 
L 97.254698 288.804212 
L 97.905309 292.943131 
L 98.555919 286.622078 
L 99.206529 282.838189 
L 99.85714 282.843401 
L 100.50775 273.267039 
L 101.15836 274.31169 
L 101.808971 278.449302 
L 102.459581 276.213074 
L 103.110191 276.069216 
L 103.760802 272.504442 
L 104.411412 273.808088 
L 105.062022 269.305436 
L 105.712633 273.610661 
L 106.363243 270.13831 
L 107.013853 271.989338 
L 107.664463 267.347087 
L 108.315074 271.179516 
L 108.965684 271.776993 
L 109.616294 272.562959 
L 110.917515 264.804053 
L 111.568125 270.616086 
L 112.218736 266.639069 
L 112.869346 266.852551 
L 113.519956 269.589158 
L 114.821177 264.425753 
L 115.471787 265.359182 
L 116.122398 266.61238 
L 117.423618 268.497946 
L 118.074228 259.806639 
L 118.724839 267.561169 
L 119.375449 267.914153 
L 120.026059 268.626406 
L 120.67667 268.709411 
L 121.32728 269.810366 
L 121.97789 270.562443 
L 122.628501 267.644783 
L 123.279111 269.532445 
L 123.929721 264.92661 
L 124.580332 267.507034 
L 125.230942 265.78978 
L 125.881552 266.072558 
L 126.532163 269.529972 
L 127.182773 265.497719 
L 127.833383 266.607933 
L 128.483993 265.932257 
L 129.134604 266.446054 
L 129.785214 268.921324 
L 131.086435 271.131836 
L 131.737045 267.717763 
L 132.387655 266.671929 
L 133.038266 267.587604 
L 133.688876 273.568457 
L 134.339486 267.290907 
L 134.990097 275.123046 
L 135.640707 261.914322 
L 136.291317 268.243933 
L 136.941927 270.392171 
L 137.592538 265.123698 
L 138.243148 269.601863 
L 138.893758 269.018505 
L 139.544369 268.811339 
L 140.194979 269.722088 
L 140.845589 267.506197 
L 141.4962 270.947012 
L 142.14681 262.679241 
L 143.448031 265.134949 
L 144.098641 267.414336 
L 144.749251 266.576608 
L 145.399862 264.626596 
L 146.050472 270.084891 
L 146.701082 263.416713 
L 148.652913 269.518789 
L 149.303523 272.959943 
L 149.954134 271.929976 
L 150.604744 267.507456 
L 151.255354 267.743895 
L 151.905965 264.202704 
L 152.556575 266.781117 
L 153.207185 265.6415 
L 153.857796 262.558201 
L 154.508406 264.056716 
L 155.159016 264.293156 
L 155.809627 263.472007 
L 156.460237 267.890871 
L 157.110847 270.887902 
L 157.761457 268.640129 
L 158.412068 266.980259 
L 159.062678 269.841497 
L 159.713288 269.665765 
L 160.363899 274.563898 
L 161.014509 270.006046 
L 161.665119 262.372883 
L 162.31573 270.269645 
L 162.96634 267.721529 
L 163.61695 271.098781 
L 164.267561 268.467592 
L 164.918171 268.940471 
L 165.568781 267.6752 
L 166.219392 265.403463 
L 166.870002 267.715139 
L 168.171222 260.919099 
L 168.821833 266.965881 
L 169.472443 271.932709 
L 170.123053 266.377977 
L 170.773664 268.820654 
L 171.424274 267.224687 
L 172.074884 271.437464 
L 172.725495 262.334541 
L 173.376105 268.924495 
L 174.026715 262.78825 
L 174.677326 267.031381 
L 175.327936 268.240738 
L 175.978546 265.51689 
L 176.629156 272.261808 
L 177.279767 276.758952 
L 177.930377 269.421338 
L 178.580987 270.084327 
L 179.231598 266.088818 
L 179.882208 268.592202 
L 180.532818 269.475655 
L 181.183429 268.654507 
L 181.834039 269.389387 
L 182.484649 264.984901 
L 183.13526 264.766035 
L 183.78587 268.331799 
L 184.43648 270.707377 
L 185.087091 268.595397 
L 185.737701 272.846516 
L 186.388311 268.344579 
L 187.038921 266.181477 
L 187.689532 264.877864 
L 188.340142 270.59395 
L 188.990752 265.75972 
L 189.641363 264.281973 
L 190.291973 263.134921 
L 190.942583 268.882959 
L 191.593194 263.350593 
L 192.243804 268.815861 
L 192.894414 268.779117 
L 193.545025 270.577975 
L 194.195635 268.125713 
L 194.846245 264.857096 
L 195.496856 272.736284 
L 196.147466 269.740851 
L 196.798076 263.863411 
L 197.448686 269.079459 
L 198.099297 270.114681 
L 198.749907 268.985203 
L 199.400517 274.833887 
L 200.051128 271.907148 
L 200.701738 263.769154 
L 201.352348 262.924043 
L 202.002959 270.929439 
L 202.653569 260.844014 
L 203.304179 269.859071 
L 203.95479 260.513318 
L 204.6054 267.838151 
L 205.25601 264.214875 
L 205.906621 269.434118 
L 207.207841 265.478549 
L 207.858451 267.641651 
L 208.509062 264.194107 
L 209.159672 268.704031 
L 209.810282 269.72807 
L 210.460893 268.317421 
L 211.111503 269.097032 
L 211.762113 266.57288 
L 212.412724 269.881436 
L 213.063334 271.074817 
L 213.713944 267.507456 
L 214.364555 266.084026 
L 215.015165 265.801257 
L 215.665775 275.260436 
L 216.316385 269.903802 
L 216.966996 270.173791 
L 217.617606 267.328528 
L 218.268216 269.598668 
L 218.918827 272.400796 
L 219.569437 265.160633 
L 220.220047 267.526626 
L 220.870658 267.00582 
L 222.171878 268.833434 
L 222.822489 265.852379 
L 223.473099 267.224687 
L 224.123709 270.806426 
L 224.77432 271.51255 
L 225.42493 265.627122 
L 226.07554 268.73758 
L 226.72615 267.453138 
L 227.376761 261.037319 
L 228.027371 266.010538 
L 228.677981 264.064704 
L 229.328592 267.844542 
L 229.979202 272.439137 
L 230.629812 272.803382 
L 231.280423 266.523356 
L 231.931033 272.704333 
L 232.581643 261.478247 
L 233.232254 262.799433 
L 233.882864 265.417841 
L 234.533474 265.769305 
L 235.184085 258.132947 
L 235.834695 266.470636 
L 236.485305 265.14306 
L 237.135915 263.390532 
L 237.786526 267.267821 
L 238.437136 264.917803 
L 239.087746 264.566339 
L 239.738357 266.294904 
L 240.388967 270.763292 
L 241.039577 267.961164 
L 241.690188 271.932709 
L 242.340798 270.357511 
L 242.991408 267.211906 
L 243.642019 268.755153 
L 244.292629 264.753254 
L 244.943239 267.841347 
L 245.59385 267.951578 
L 246.24446 269.450094 
L 246.89507 265.38589 
L 247.54568 265.921074 
L 248.196291 265.850781 
L 248.846901 269.903802 
L 249.497511 268.405287 
L 250.148122 266.33005 
L 250.798732 262.547018 
L 252.099953 270.352718 
L 252.750563 270.415023 
L 253.401173 269.012361 
L 254.051784 265.192584 
L 254.702394 265.123889 
L 255.353004 268.804678 
L 256.003615 262.812213 
L 256.654225 260.56444 
L 257.304835 267.151199 
L 258.606056 268.338189 
L 259.256666 269.732863 
L 259.907276 266.076038 
L 260.557887 270.162608 
L 261.208497 270.45656 
L 261.859107 271.851234 
L 263.160328 262.84736 
L 263.810938 265.577598 
L 264.461549 265.989769 
L 265.112159 272.600491 
L 265.762769 263.356983 
L 266.413379 265.651086 
L 267.06399 266.873222 
L 267.7146 267.240662 
L 268.36521 266.571283 
L 269.015821 267.480297 
L 269.666431 269.386191 
L 270.317041 270.352718 
L 270.967652 261.834504 
L 271.618262 270.031608 
L 272.268872 267.478699 
L 272.919483 270.111486 
L 273.570093 261.954321 
L 274.220703 265.571207 
L 274.871314 265.615939 
L 275.521924 267.834956 
L 276.823144 264.242034 
L 277.473755 271.443855 
L 278.774975 267.163979 
L 279.425586 267.771054 
L 280.076196 265.708598 
L 280.726806 267.402016 
L 281.377417 265.33317 
L 282.028027 266.385965 
L 282.678637 270.052376 
L 283.329248 271.448647 
L 283.979858 260.687452 
L 284.630468 271.117951 
L 285.281079 261.355234 
L 285.931689 265.705403 
L 287.232909 267.868505 
L 287.88352 267.462724 
L 288.53413 270.125864 
L 289.18474 268.05542 
L 289.835351 264.919401 
L 290.485961 268.630543 
L 291.136571 259.021193 
L 291.787182 266.879613 
L 292.437792 264.553559 
L 293.088402 268.469189 
L 293.739013 264.363448 
L 294.389623 268.675275 
L 295.040233 264.15257 
L 295.690844 268.898934 
L 296.341454 265.475353 
L 296.992064 270.057169 
L 297.642674 267.266223 
L 298.293285 262.18437 
L 298.943895 264.149375 
L 299.594505 268.604982 
L 300.245116 271.808099 
L 300.895726 268.342982 
L 301.546336 267.887676 
L 302.196947 265.869952 
L 303.498167 270.357511 
L 304.148778 264.379424 
L 304.799388 271.178659 
L 305.449998 265.663866 
L 306.100608 269.194484 
L 306.751219 269.935754 
L 307.401829 268.130506 
L 308.052439 267.154394 
L 308.70305 270.692999 
L 309.35366 265.224536 
L 310.00427 264.208485 
L 310.654881 263.630166 
L 311.956101 270.333547 
L 312.606712 271.351196 
L 313.257322 265.130279 
L 313.907932 264.486461 
L 314.558543 273.549445 
L 315.209153 262.283419 
L 315.859763 270.077937 
L 316.510373 270.558804 
L 317.160984 263.051848 
L 317.811594 267.026589 
L 318.462204 269.857473 
L 319.112815 265.845988 
L 319.763425 267.533017 
L 320.414035 268.518714 
L 321.064646 265.152645 
L 321.715256 267.175162 
L 322.365866 274.405739 
L 323.016477 269.087447 
L 323.667087 267.651236 
L 324.317697 265.307609 
L 324.968308 268.779117 
L 325.618918 269.264777 
L 326.269528 264.496046 
L 326.920138 267.032979 
L 328.221359 270.041193 
L 329.52258 268.496348 
L 330.8238 266.92754 
L 331.474411 259.473303 
L 332.125021 257.53386 
L 332.775631 271.0205 
L 333.426242 269.037922 
L 334.076852 265.651086 
L 334.727462 272.570138 
L 335.378073 267.251845 
L 336.028683 270.028412 
L 336.679293 272.204295 
L 337.329903 263.393727 
L 337.980514 266.608027 
L 338.631124 267.961164 
L 339.281734 266.322063 
L 339.932345 269.865461 
L 340.582955 261.077258 
L 341.233565 270.939024 
L 341.884176 266.855649 
L 342.534786 267.082503 
L 343.185396 265.665464 
L 343.836007 269.967705 
L 344.486617 268.464397 
L 345.137227 261.190685 
L 345.787837 267.07132 
L 346.438448 264.956145 
L 347.089058 267.657627 
L 347.739668 266.892393 
L 348.390279 269.59068 
L 349.040889 265.302816 
L 349.691499 263.911338 
L 350.34211 268.100152 
L 351.64333 268.293457 
L 352.293941 261.748235 
L 352.944551 267.031381 
L 353.595161 267.881286 
L 354.245772 259.589926 
L 354.896382 268.22636 
L 355.546992 267.889273 
L 356.197602 266.94032 
L 356.848213 272.362454 
L 357.498823 268.587409 
L 358.149433 268.692848 
L 358.800044 264.422558 
L 360.101264 269.529972 
L 360.751875 266.903576 
L 361.402485 268.159262 
L 362.053095 265.040816 
L 362.703706 266.94032 
L 363.354316 264.400192 
L 364.004926 271.038073 
L 364.655537 266.857247 
L 365.306147 268.771129 
L 365.956757 265.042413 
L 366.607367 268.582616 
L 367.257978 264.518412 
L 367.908588 265.323585 
L 368.559198 265.344353 
L 369.209809 269.34785 
L 369.860419 264.820352 
L 370.511029 264.692547 
L 371.16164 267.708749 
L 371.81225 267.132028 
L 372.46286 262.620506 
L 373.113471 267.804603 
L 373.764081 264.505632 
L 374.414691 270.651463 
L 375.065302 272.114832 
L 376.366522 265.959415 
L 377.017132 270.355913 
L 377.667743 268.314226 
L 378.318353 273.707604 
L 378.968963 271.520538 
L 379.619574 267.32054 
L 380.270184 265.638305 
L 380.920794 268.954849 
L 381.571405 265.58239 
L 382.222015 270.820804 
L 382.872625 269.84629 
L 383.523236 267.695968 
L 384.173846 266.742222 
L 384.824456 263.329824 
L 385.475066 267.056942 
L 386.125677 271.514147 
L 386.776287 266.651161 
L 387.426897 266.689502 
L 388.077508 273.311408 
L 388.728118 270.277632 
L 389.378728 264.964133 
L 390.029339 264.842718 
L 390.679949 270.692999 
L 391.330559 266.823698 
L 391.98117 265.724573 
L 392.63178 266.076038 
L 393.28239 270.677024 
L 393.933001 263.847435 
L 394.583611 267.007418 
L 395.234221 267.517041 
L 395.884831 265.983379 
L 396.535442 274.083031 
L 397.186052 268.418067 
L 397.836662 268.47558 
L 398.487273 266.508978 
L 398.487273 266.508978 
" style="fill:none;stroke:#0000ff;stroke-linecap:square;stroke-width:1.5;"/>
   </g>
   <g id="line2d_30">
    <path clip-path="url(#pee8c99fce1)" d="M 73.832727 239.273811 
L 74.483338 235.275166 
L 75.133948 237.340074 
L 75.784558 238.743076 
L 76.435169 237.934982 
L 77.085779 236.523752 
L 77.736389 234.049679 
L 78.386999 241.621566 
L 79.03761 236.975161 
L 79.68822 237.362492 
L 80.33883 236.326202 
L 80.989441 237.485685 
L 81.640051 239.735479 
L 82.290661 231.825985 
L 82.941272 236.352464 
L 83.591882 232.830859 
L 84.242492 237.630061 
L 84.893103 235.955449 
L 85.543713 235.682494 
L 86.194323 235.254011 
L 86.844934 233.771447 
L 87.495544 238.164132 
L 88.146154 237.414541 
L 88.796764 239.604907 
L 89.447375 235.799479 
L 90.097985 235.633137 
L 90.748595 232.318001 
L 92.049816 239.721918 
L 92.700426 238.720913 
L 93.351037 236.486198 
L 94.001647 237.458839 
L 95.302868 234.690514 
L 95.953478 232.271277 
L 96.604088 235.689543 
L 97.905309 235.586404 
L 98.555919 232.638425 
L 99.85714 225.843778 
L 100.50775 218.98159 
L 101.15836 220.582707 
L 101.808971 224.314593 
L 102.459581 219.064531 
L 103.110191 218.452374 
L 103.760802 216.942209 
L 104.411412 215.834423 
L 105.712633 215.901769 
L 106.363243 209.84242 
L 107.013853 213.008866 
L 107.664463 210.420374 
L 108.315074 214.366441 
L 108.965684 211.732644 
L 109.616294 218.172976 
L 110.266905 212.074158 
L 111.568125 212.224505 
L 112.218736 209.915482 
L 112.869346 209.806313 
L 113.519956 216.860576 
L 114.170567 205.915518 
L 114.821177 212.186022 
L 115.471787 207.818104 
L 116.122398 209.689552 
L 116.773008 212.057497 
L 118.074228 205.200584 
L 118.724839 209.733366 
L 119.375449 210.081208 
L 120.026059 211.056718 
L 120.67667 213.58302 
L 121.32728 213.362073 
L 122.628501 212.395999 
L 123.279111 212.869248 
L 123.929721 212.288121 
L 124.580332 214.951627 
L 125.881552 206.032051 
L 126.532163 210.070815 
L 127.182773 208.469081 
L 127.833383 208.904494 
L 128.483993 208.516918 
L 129.134604 209.462647 
L 129.785214 213.359113 
L 130.435824 214.909765 
L 131.086435 219.693733 
L 131.737045 210.549393 
L 132.387655 211.953462 
L 133.038266 211.826598 
L 133.688876 219.880361 
L 134.339486 209.689633 
L 134.990097 221.140313 
L 135.640707 205.714282 
L 136.291317 211.860434 
L 136.941927 210.668771 
L 137.592538 211.497476 
L 138.243148 208.931962 
L 138.893758 215.055514 
L 140.194979 210.781219 
L 140.845589 208.821621 
L 141.4962 215.115103 
L 142.14681 207.33892 
L 142.79742 209.968067 
L 143.448031 206.490075 
L 144.098641 211.648675 
L 144.749251 209.93939 
L 145.399862 206.30994 
L 146.050472 215.242034 
L 147.351692 205.760269 
L 148.002303 214.815359 
L 148.652913 211.733756 
L 149.303523 216.510218 
L 149.954134 216.873799 
L 150.604744 212.848981 
L 151.905965 206.330079 
L 152.556575 206.796421 
L 153.207185 210.041137 
L 153.857796 202.958112 
L 154.508406 206.74455 
L 155.159016 209.510387 
L 155.809627 209.203421 
L 156.460237 212.700279 
L 157.110847 213.442862 
L 157.761457 209.672877 
L 158.412068 209.944336 
L 159.713288 213.612583 
L 160.363899 220.093311 
L 161.014509 214.872022 
L 161.665119 206.49699 
L 162.31573 216.288225 
L 162.96634 209.701066 
L 163.61695 212.50657 
L 164.267561 210.195875 
L 164.918171 211.294563 
L 165.568781 210.061627 
L 166.219392 206.022661 
L 166.870002 209.630954 
L 167.520612 205.906155 
L 168.171222 205.176504 
L 168.821833 211.858845 
L 169.472443 215.506444 
L 170.123053 209.973361 
L 170.773664 210.890448 
L 171.424274 209.902212 
L 172.074884 213.786527 
L 172.725495 208.04851 
L 173.376105 211.380362 
L 174.026715 207.052243 
L 174.677326 212.914899 
L 175.327936 212.665846 
L 175.978546 211.060643 
L 176.629156 214.97931 
L 177.279767 223.229521 
L 177.930377 211.33922 
L 178.580987 214.061527 
L 179.231598 211.15441 
L 179.882208 211.540508 
L 180.532818 210.834483 
L 181.183429 213.419446 
L 181.834039 211.791887 
L 182.484649 204.983055 
L 183.13526 208.603917 
L 183.78587 213.861046 
L 184.43648 214.768973 
L 185.087091 214.029495 
L 185.737701 215.200458 
L 186.388311 215.620166 
L 187.038921 208.042439 
L 187.689532 206.60712 
L 188.340142 215.078674 
L 188.990752 208.665446 
L 189.641363 207.369696 
L 190.942583 210.777503 
L 191.593194 208.302148 
L 192.243804 208.438585 
L 193.545025 213.682042 
L 194.195635 214.519545 
L 194.846245 208.426829 
L 195.496856 216.247606 
L 196.147466 211.752105 
L 196.798076 211.447866 
L 197.448686 210.683765 
L 198.099297 215.227856 
L 198.749907 212.065856 
L 199.400517 218.854221 
L 200.051128 215.980634 
L 200.701738 205.293643 
L 201.352348 207.583111 
L 202.002959 213.110952 
L 202.653569 206.875035 
L 203.304179 212.045139 
L 203.95479 204.699722 
L 204.6054 210.58444 
L 205.25601 207.162157 
L 205.906621 214.123316 
L 206.557231 210.133535 
L 207.207841 211.925528 
L 208.509062 206.523472 
L 209.159672 214.526441 
L 209.810282 213.082099 
L 210.460893 212.700091 
L 211.111503 211.708669 
L 211.762113 209.973839 
L 212.412724 214.225937 
L 213.063334 212.704281 
L 213.713944 210.092093 
L 214.364555 209.257215 
L 215.015165 209.721559 
L 215.665775 219.408367 
L 216.316385 213.427138 
L 216.966996 210.731915 
L 217.617606 209.656067 
L 218.268216 213.080912 
L 218.918827 219.612961 
L 219.569437 210.214765 
L 220.220047 211.292217 
L 220.870658 211.234972 
L 222.171878 214.001549 
L 222.822489 207.849775 
L 223.473099 210.358239 
L 224.123709 216.395975 
L 224.77432 214.916849 
L 225.42493 210.702865 
L 226.07554 209.779565 
L 226.72615 210.183257 
L 227.376761 203.218678 
L 228.027371 208.520664 
L 228.677981 209.699113 
L 229.328592 209.17664 
L 229.979202 216.983605 
L 230.629812 215.044279 
L 231.280423 210.567121 
L 231.931033 218.323605 
L 232.581643 207.055287 
L 233.232254 204.474107 
L 233.882864 207.314053 
L 234.533474 209.258155 
L 235.184085 202.895584 
L 235.834695 210.057487 
L 236.485305 209.936936 
L 237.135915 207.243424 
L 237.786526 211.289021 
L 238.437136 212.174404 
L 239.087746 211.501863 
L 239.738357 209.952896 
L 240.388967 212.315789 
L 241.039577 211.069075 
L 241.690188 215.170168 
L 242.340798 212.843474 
L 242.991408 208.491378 
L 243.642019 212.872222 
L 244.292629 208.420891 
L 245.59385 213.352254 
L 246.24446 213.913599 
L 246.89507 211.4872 
L 247.54568 211.098736 
L 248.196291 207.144934 
L 248.846901 214.388056 
L 249.497511 212.64981 
L 250.798732 203.935087 
L 251.449342 207.456997 
L 252.750563 216.325557 
L 253.401173 214.139708 
L 254.051784 209.969662 
L 254.702394 211.98392 
L 255.353004 211.137483 
L 256.003615 205.437812 
L 256.654225 205.71218 
L 257.955445 213.259194 
L 259.907276 208.861588 
L 260.557887 215.892639 
L 261.208497 214.277081 
L 261.859107 218.481721 
L 262.509718 208.094276 
L 263.160328 208.966644 
L 263.810938 206.605945 
L 265.112159 215.222689 
L 265.762769 207.438251 
L 266.413379 210.403499 
L 267.06399 212.491462 
L 267.7146 211.09462 
L 268.36521 212.259127 
L 269.015821 209.92642 
L 269.666431 211.459084 
L 270.317041 210.532737 
L 270.967652 208.992613 
L 271.618262 215.108361 
L 272.268872 208.720579 
L 272.919483 212.503186 
L 273.570093 205.93834 
L 274.871314 208.470946 
L 275.521924 209.057359 
L 276.172534 208.586382 
L 276.823144 210.723601 
L 277.473755 213.986113 
L 278.124365 211.401081 
L 278.774975 210.796328 
L 279.425586 209.833727 
L 280.076196 205.671197 
L 280.726806 211.351767 
L 281.377417 205.649912 
L 282.028027 211.281746 
L 282.678637 213.848372 
L 283.329248 214.330262 
L 283.979858 204.051543 
L 284.630468 215.79366 
L 285.281079 203.575422 
L 287.232909 212.673081 
L 287.88352 208.470008 
L 288.53413 212.206801 
L 289.18474 210.217305 
L 289.835351 209.37542 
L 290.485961 211.856712 
L 291.136571 202.791441 
L 291.787182 211.871661 
L 292.437792 208.730677 
L 293.088402 213.068625 
L 293.739013 208.337579 
L 294.389623 212.205669 
L 295.040233 208.568403 
L 295.690844 214.991353 
L 296.341454 211.226134 
L 296.992064 213.256753 
L 297.642674 208.833706 
L 298.293285 206.899704 
L 298.943895 205.484111 
L 300.245116 216.519108 
L 300.895726 210.655289 
L 301.546336 213.211457 
L 302.196947 212.634342 
L 302.847557 211.140672 
L 303.498167 211.459008 
L 304.148778 207.94802 
L 304.799388 211.738303 
L 305.449998 206.909652 
L 306.100608 211.902281 
L 306.751219 214.170958 
L 307.401829 212.526905 
L 308.052439 213.4805 
L 308.70305 218.349277 
L 310.00427 204.873143 
L 311.956101 212.372118 
L 312.606712 211.651127 
L 313.257322 208.51324 
L 313.907932 206.291314 
L 314.558543 218.710678 
L 315.209153 209.223409 
L 315.859763 211.738161 
L 316.510373 216.913487 
L 317.160984 209.040539 
L 317.811594 211.770801 
L 318.462204 212.322773 
L 319.112815 208.213355 
L 320.414035 213.375862 
L 321.064646 212.258138 
L 321.715256 205.139652 
L 322.365866 214.992461 
L 323.016477 213.897444 
L 323.667087 209.446402 
L 324.317697 212.162241 
L 324.968308 209.715544 
L 325.618918 212.168406 
L 326.269528 209.513541 
L 326.920138 208.503201 
L 327.570749 214.881578 
L 328.221359 213.926083 
L 328.871969 213.563037 
L 329.52258 210.865186 
L 330.17319 209.058017 
L 330.8238 211.651404 
L 331.474411 204.815634 
L 332.125021 202.263245 
L 332.775631 213.722311 
L 334.076852 209.017201 
L 334.727462 213.979746 
L 335.378073 209.511458 
L 336.679293 216.874989 
L 337.329903 210.171571 
L 337.980514 207.408841 
L 338.631124 211.234618 
L 339.281734 209.500841 
L 339.932345 210.9469 
L 340.582955 206.830069 
L 341.233565 214.330481 
L 341.884176 212.088053 
L 342.534786 211.297656 
L 343.185396 208.870432 
L 343.836007 212.374546 
L 344.486617 213.484033 
L 345.137227 203.589938 
L 345.787837 208.95992 
L 346.438448 205.838411 
L 347.089058 214.010355 
L 347.739668 210.215278 
L 348.390279 210.815735 
L 349.040889 207.91065 
L 349.691499 204.4475 
L 350.34211 210.774913 
L 350.99272 210.95693 
L 351.64333 212.248143 
L 352.293941 205.557194 
L 352.944551 213.071854 
L 353.595161 211.315391 
L 354.245772 204.448106 
L 355.546992 213.526568 
L 356.197602 211.351067 
L 356.848213 215.116806 
L 357.498823 214.93694 
L 358.149433 215.124552 
L 358.800044 205.925595 
L 360.101264 212.442329 
L 360.751875 208.777614 
L 361.402485 211.194406 
L 362.053095 210.205939 
L 362.703706 211.514129 
L 363.354316 207.952081 
L 364.004926 210.466158 
L 364.655537 211.275569 
L 365.306147 208.745721 
L 365.956757 207.289032 
L 366.607367 213.223561 
L 367.257978 208.163255 
L 367.908588 212.873835 
L 368.559198 207.209381 
L 369.209809 212.790992 
L 369.860419 209.986042 
L 370.511029 206.405626 
L 371.16164 208.952595 
L 371.81225 207.276414 
L 372.46286 206.525167 
L 373.113471 210.502262 
L 373.764081 209.42856 
L 375.065302 216.949153 
L 375.715912 210.075231 
L 376.366522 208.632593 
L 377.017132 213.037536 
L 377.667743 210.761445 
L 378.318353 218.16501 
L 378.968963 212.970287 
L 379.619574 211.488971 
L 380.270184 211.632374 
L 380.920794 210.82941 
L 381.571405 209.237512 
L 382.222015 213.113449 
L 382.872625 214.410045 
L 383.523236 212.129842 
L 384.173846 207.599402 
L 384.824456 205.433789 
L 385.475066 212.429941 
L 386.125677 216.496505 
L 387.426897 210.832322 
L 388.077508 213.023474 
L 388.728118 212.979855 
L 389.378728 204.83398 
L 390.029339 209.615151 
L 390.679949 215.305625 
L 391.330559 211.83603 
L 391.98117 211.565674 
L 392.63178 210.394965 
L 393.28239 213.849382 
L 393.933001 205.012801 
L 394.583611 212.210153 
L 395.234221 209.670812 
L 396.535442 218.755023 
L 397.186052 208.846571 
L 397.836662 212.180716 
L 398.487273 208.354219 
L 398.487273 208.354219 
" style="fill:none;stroke:#008000;stroke-dasharray:9.6,2.4,1.5,2.4;stroke-dashoffset:0;stroke-width:1.5;"/>
   </g>
   <g id="line2d_31">
    <path clip-path="url(#pee8c99fce1)" d="M 73.832727 140.475512 
L 74.483338 141.114538 
L 75.133948 128.973047 
L 75.784558 143.031615 
L 76.435169 139.19746 
L 77.085779 141.753564 
L 77.736389 137.280383 
L 78.386999 147.504796 
L 79.03761 126.416944 
L 79.68822 154.53408 
L 80.33883 131.52915 
L 80.989441 114.275453 
L 81.640051 135.363305 
L 82.290661 136.002331 
L 82.941272 127.05597 
L 83.591882 114.275453 
L 84.242492 126.416944 
L 84.893103 103.412014 
L 85.543713 146.226744 
L 86.194323 137.919409 
L 86.844934 99.577859 
L 87.495544 143.031615 
L 88.146154 84.24124 
L 88.796764 137.280383 
L 89.447375 134.085254 
L 90.097985 99.577859 
L 90.748595 123.221815 
L 91.399206 153.256029 
L 92.700426 143.670641 
L 93.351037 159.007261 
L 94.001647 112.358376 
L 94.652257 148.782848 
L 95.302868 139.836486 
L 95.953478 118.109608 
L 96.604088 133.446228 
L 97.254698 136.641357 
L 97.905309 114.914479 
L 98.555919 136.641357 
L 99.206529 131.52915 
L 99.85714 119.38766 
L 100.50775 150.060899 
L 101.15836 128.973047 
L 101.808971 128.334021 
L 102.459581 118.748634 
L 103.760802 143.031615 
L 104.411412 114.914479 
L 105.062022 143.031615 
L 106.363243 114.914479 
L 107.013853 115.553505 
L 107.664463 126.416944 
L 108.315074 67.626568 
L 108.965684 107.885195 
L 109.616294 126.416944 
L 110.266905 93.187601 
L 110.917515 79.129033 
L 111.568125 123.860841 
L 112.218736 117.470582 
L 112.869346 130.251099 
L 113.519956 137.280383 
L 114.170567 123.221815 
L 114.821177 118.748634 
L 115.471787 142.392589 
L 116.122398 118.748634 
L 116.773008 117.470582 
L 117.423618 103.412014 
L 118.074228 107.885195 
L 118.724839 100.855911 
L 119.375449 97.021756 
L 120.026059 101.494937 
L 120.67667 136.002331 
L 121.32728 122.582789 
L 121.97789 136.641357 
L 122.628501 136.641357 
L 123.279111 128.973047 
L 123.929721 128.973047 
L 124.580332 112.997402 
L 125.230942 116.192531 
L 125.881552 99.577859 
L 126.532163 105.329092 
L 127.182773 113.636427 
L 127.833383 111.71935 
L 128.483993 132.168176 
L 129.134604 105.329092 
L 129.785214 118.748634 
L 130.435824 144.309667 
L 131.086435 125.138892 
L 131.737045 123.860841 
L 132.387655 121.304737 
L 133.038266 84.24124 
L 133.688876 92.548575 
L 134.339486 105.968118 
L 134.990097 132.807202 
L 135.640707 116.192531 
L 136.291317 111.080324 
L 136.941927 125.138892 
L 137.592538 101.494937 
L 138.243148 105.968118 
L 138.893758 112.997402 
L 139.544369 104.690066 
L 140.194979 122.582789 
L 140.845589 80.407085 
L 141.4962 132.168176 
L 142.14681 114.914479 
L 142.79742 108.524221 
L 143.448031 126.416944 
L 144.098641 131.52915 
L 144.749251 107.885195 
L 145.399862 97.021756 
L 146.050472 111.71935 
L 146.701082 121.304737 
L 147.351692 97.021756 
L 148.002303 128.334021 
L 148.652913 107.246169 
L 149.303523 125.777918 
L 149.954134 126.416944 
L 150.604744 122.582789 
L 151.905965 122.582789 
L 152.556575 104.690066 
L 153.207185 127.694996 
L 153.857796 91.270524 
L 154.508406 110.441298 
L 155.159016 114.914479 
L 155.809627 116.831557 
L 156.460237 126.416944 
L 157.110847 95.104679 
L 157.761457 128.334021 
L 158.412068 122.582789 
L 159.713288 134.085254 
L 160.363899 134.72428 
L 161.014509 126.416944 
L 161.665119 125.138892 
L 162.31573 129.612073 
L 162.96634 89.992472 
L 163.61695 114.914479 
L 164.267561 122.582789 
L 164.918171 132.168176 
L 165.568781 93.826627 
L 166.219392 144.309667 
L 167.520612 102.772988 
L 168.171222 112.997402 
L 168.821833 141.114538 
L 169.472443 127.05597 
L 170.123053 128.334021 
L 170.773664 65.709491 
L 171.424274 122.582789 
L 172.074884 77.850981 
L 172.725495 130.251099 
L 173.376105 88.71442 
L 174.026715 130.251099 
L 174.677326 133.446228 
L 175.327936 99.577859 
L 175.978546 118.109608 
L 176.629156 106.607143 
L 177.279767 137.919409 
L 177.930377 124.499866 
L 178.580987 130.251099 
L 179.231598 108.524221 
L 179.882208 119.38766 
L 180.532818 135.363305 
L 181.834039 112.358376 
L 182.484649 112.997402 
L 183.13526 94.465653 
L 183.78587 120.026686 
L 184.43648 74.016826 
L 185.087091 126.416944 
L 185.737701 111.080324 
L 186.388311 129.612073 
L 187.038921 98.299808 
L 187.689532 88.075394 
L 188.340142 126.416944 
L 188.990752 116.192531 
L 189.641363 130.251099 
L 190.291973 120.665711 
L 190.942583 109.163247 
L 191.593194 134.72428 
L 192.243804 93.187601 
L 192.894414 101.494937 
L 193.545025 115.553505 
L 194.195635 118.748634 
L 194.846245 130.251099 
L 195.496856 130.890125 
L 196.147466 86.158317 
L 196.798076 129.612073 
L 197.448686 70.821697 
L 198.099297 141.753564 
L 198.749907 113.636427 
L 199.400517 130.251099 
L 200.051128 123.221815 
L 200.701738 121.943763 
L 201.352348 110.441298 
L 202.002959 107.885195 
L 202.653569 139.19746 
L 203.304179 89.353446 
L 203.95479 125.138892 
L 204.6054 121.943763 
L 205.25601 100.855911 
L 205.906621 123.221815 
L 206.557231 133.446228 
L 207.207841 130.251099 
L 207.858451 116.831557 
L 208.509062 115.553505 
L 209.159672 134.085254 
L 209.810282 116.192531 
L 210.460893 114.914479 
L 211.111503 137.280383 
L 211.762113 95.743704 
L 212.412724 135.363305 
L 213.063334 120.026686 
L 213.713944 112.358376 
L 214.364555 106.607143 
L 215.015165 98.299808 
L 215.665775 153.256029 
L 216.316385 91.909549 
L 216.966996 102.133963 
L 217.617606 91.909549 
L 218.268216 123.221815 
L 218.918827 137.280383 
L 219.569437 124.499866 
L 220.220047 96.38273 
L 220.870658 128.334021 
L 221.521268 105.329092 
L 222.171878 139.19746 
L 222.822489 113.636427 
L 223.473099 102.772988 
L 224.123709 106.607143 
L 224.77432 89.353446 
L 225.42493 109.163247 
L 226.07554 138.558435 
L 226.72615 112.358376 
L 227.376761 93.187601 
L 228.027371 107.885195 
L 228.677981 134.72428 
L 229.328592 107.885195 
L 229.979202 117.470582 
L 230.629812 141.114538 
L 231.280423 119.38766 
L 231.931033 64.431439 
L 232.581643 127.05597 
L 233.232254 120.665711 
L 233.882864 76.57293 
L 234.533474 120.026686 
L 235.184085 113.636427 
L 235.834695 120.665711 
L 236.485305 132.168176 
L 237.135915 120.665711 
L 237.786526 116.831557 
L 238.437136 130.890125 
L 239.087746 109.802272 
L 239.738357 96.38273 
L 241.690188 137.280383 
L 242.340798 114.914479 
L 242.991408 113.636427 
L 243.642019 124.499866 
L 244.292629 102.133963 
L 244.943239 93.187601 
L 245.59385 96.38273 
L 246.24446 141.114538 
L 246.89507 139.836486 
L 248.196291 120.026686 
L 248.846901 131.52915 
L 249.497511 133.446228 
L 250.148122 121.304737 
L 250.798732 113.636427 
L 251.449342 65.070465 
L 252.099953 102.133963 
L 252.750563 132.807202 
L 253.401173 115.553505 
L 254.051784 136.002331 
L 254.702394 121.943763 
L 255.353004 112.358376 
L 256.003615 114.275453 
L 256.654225 111.080324 
L 257.304835 132.168176 
L 257.955445 132.168176 
L 258.606056 114.275453 
L 259.256666 115.553505 
L 259.907276 106.607143 
L 260.557887 136.641357 
L 261.208497 129.612073 
L 261.859107 107.246169 
L 262.509718 99.577859 
L 263.160328 117.470582 
L 263.810938 109.163247 
L 264.461549 120.026686 
L 265.112159 88.71442 
L 265.762769 100.216885 
L 266.413379 106.607143 
L 267.06399 118.748634 
L 267.7146 127.694996 
L 268.36521 141.753564 
L 269.015821 99.577859 
L 269.666431 126.416944 
L 270.317041 96.38273 
L 270.967652 132.807202 
L 271.618262 135.363305 
L 272.268872 111.080324 
L 272.919483 74.655852 
L 273.570093 133.446228 
L 274.220703 97.660782 
L 274.871314 127.05597 
L 275.521924 108.524221 
L 276.172534 127.05597 
L 276.823144 116.192531 
L 277.473755 102.133963 
L 278.124365 112.997402 
L 278.774975 107.885195 
L 279.425586 144.309667 
L 280.076196 128.973047 
L 280.726806 125.138892 
L 281.377417 128.973047 
L 282.028027 105.329092 
L 282.678637 131.52915 
L 283.329248 102.772988 
L 283.979858 116.831557 
L 284.630468 121.943763 
L 285.931689 124.499866 
L 286.582299 127.694996 
L 287.232909 143.670641 
L 287.88352 112.997402 
L 288.53413 98.938833 
L 289.18474 113.636427 
L 289.835351 88.075394 
L 290.485961 108.524221 
L 291.136571 109.802272 
L 291.787182 145.587719 
L 292.437792 114.914479 
L 293.088402 113.636427 
L 293.739013 70.182671 
L 294.389623 128.973047 
L 295.040233 101.494937 
L 295.690844 84.24124 
L 296.341454 128.334021 
L 296.992064 116.831557 
L 297.642674 126.416944 
L 298.293285 114.275453 
L 298.943895 116.192531 
L 299.594505 126.416944 
L 300.245116 125.777918 
L 300.895726 107.246169 
L 301.546336 101.494937 
L 302.196947 113.636427 
L 302.847557 109.163247 
L 303.498167 121.943763 
L 304.148778 98.299808 
L 304.799388 130.251099 
L 305.449998 86.158317 
L 306.100608 104.690066 
L 306.751219 127.694996 
L 307.401829 130.251099 
L 308.052439 122.582789 
L 308.70305 132.168176 
L 309.35366 104.690066 
L 310.00427 112.997402 
L 310.654881 127.05597 
L 311.305491 98.938833 
L 311.956101 117.470582 
L 312.606712 104.05104 
L 313.257322 118.109608 
L 313.907932 105.968118 
L 314.558543 130.251099 
L 315.209153 117.470582 
L 315.859763 116.831557 
L 316.510373 135.363305 
L 317.160984 136.002331 
L 317.811594 109.163247 
L 318.462204 123.860841 
L 319.112815 132.807202 
L 319.763425 134.72428 
L 320.414035 137.280383 
L 321.064646 145.587719 
L 321.715256 100.216885 
L 322.365866 126.416944 
L 323.016477 121.943763 
L 323.667087 127.694996 
L 324.317697 144.309667 
L 324.968308 105.968118 
L 325.618918 98.938833 
L 326.269528 53.568 
L 326.920138 113.636427 
L 327.570749 125.138892 
L 328.221359 123.860841 
L 328.871969 92.548575 
L 329.52258 95.743704 
L 330.17319 120.665711 
L 330.8238 130.890125 
L 331.474411 121.304737 
L 332.125021 136.002331 
L 332.775631 111.71935 
L 333.426242 115.553505 
L 334.076852 129.612073 
L 334.727462 97.660782 
L 335.378073 105.968118 
L 336.028683 124.499866 
L 336.679293 123.860841 
L 337.329903 128.973047 
L 337.980514 122.582789 
L 338.631124 103.412014 
L 339.281734 128.973047 
L 339.932345 81.685136 
L 340.582955 116.192531 
L 341.233565 111.71935 
L 341.884176 114.275453 
L 342.534786 128.973047 
L 343.185396 121.304737 
L 343.836007 126.416944 
L 344.486617 133.446228 
L 345.137227 103.412014 
L 345.787837 120.665711 
L 346.438448 98.938833 
L 347.089058 130.890125 
L 347.739668 110.441298 
L 348.390279 124.499866 
L 349.040889 118.109608 
L 349.691499 118.109608 
L 350.34211 92.548575 
L 350.99272 128.973047 
L 351.64333 115.553505 
L 352.293941 88.075394 
L 352.944551 111.71935 
L 353.595161 93.826627 
L 354.245772 99.577859 
L 354.896382 112.358376 
L 355.546992 112.358376 
L 356.197602 125.138892 
L 356.848213 116.192531 
L 357.498823 105.329092 
L 358.149433 139.836486 
L 358.800044 107.885195 
L 359.450654 128.973047 
L 361.402485 97.660782 
L 362.053095 92.548575 
L 362.703706 128.973047 
L 363.354316 127.05597 
L 364.004926 93.187601 
L 364.655537 104.05104 
L 365.306147 111.080324 
L 365.956757 110.441298 
L 366.607367 114.914479 
L 367.257978 97.660782 
L 367.908588 130.890125 
L 368.559198 124.499866 
L 369.209809 109.163247 
L 369.860419 125.777918 
L 370.511029 104.05104 
L 371.16164 120.665711 
L 371.81225 125.777918 
L 372.46286 118.109608 
L 373.113471 116.192531 
L 373.764081 119.38766 
L 374.414691 120.026686 
L 375.065302 106.607143 
L 375.715912 111.080324 
L 376.366522 139.836486 
L 377.017132 127.694996 
L 377.667743 137.919409 
L 378.318353 120.665711 
L 378.968963 128.334021 
L 379.619574 95.104679 
L 380.270184 90.631498 
L 380.920794 128.973047 
L 381.571405 112.997402 
L 382.222015 87.436369 
L 382.872625 126.416944 
L 383.523236 111.71935 
L 384.173846 109.163247 
L 384.824456 100.855911 
L 385.475066 110.441298 
L 386.125677 135.363305 
L 386.776287 134.72428 
L 387.426897 121.304737 
L 388.077508 90.631498 
L 389.378728 124.499866 
L 390.029339 137.280383 
L 390.679949 54.846052 
L 391.330559 120.665711 
L 391.98117 105.329092 
L 392.63178 130.890125 
L 393.28239 126.416944 
L 393.933001 92.548575 
L 394.583611 109.802272 
L 395.234221 84.24124 
L 396.535442 120.026686 
L 397.186052 128.973047 
L 397.836662 127.05597 
L 398.487273 95.104679 
L 398.487273 95.104679 
" style="fill:none;stroke:#ff0000;stroke-linecap:square;stroke-width:1.5;"/>
   </g>
   <g id="patch_3">
    <path d="M 57.6 307.584 
L 57.6 41.472 
" style="fill:none;stroke:#000000;stroke-linecap:square;stroke-linejoin:miter;stroke-width:0.8;"/>
   </g>
   <g id="patch_4">
    <path d="M 414.72 307.584 
L 414.72 41.472 
" style="fill:none;stroke:#000000;stroke-linecap:square;stroke-linejoin:miter;stroke-width:0.8;"/>
   </g>
   <g id="patch_5">
    <path d="M 57.6 307.584 
L 414.72 307.584 
" style="fill:none;stroke:#000000;stroke-linecap:square;stroke-linejoin:miter;stroke-width:0.8;"/>
   </g>
   <g id="patch_6">
    <path d="M 57.6 41.472 
L 414.72 41.472 
" style="fill:none;stroke:#000000;stroke-linecap:square;stroke-linejoin:miter;stroke-width:0.8;"/>
   </g>
   <g id="text_17">
    <!-- Population's average and best fitness -->
    <defs>
     <path d="M 19.671875 64.796875 
L 19.671875 37.40625 
L 32.078125 37.40625 
Q 38.96875 37.40625 42.71875 40.96875 
Q 46.484375 44.53125 46.484375 51.125 
Q 46.484375 57.671875 42.71875 61.234375 
Q 38.96875 64.796875 32.078125 64.796875 
z
M 9.8125 72.90625 
L 32.078125 72.90625 
Q 44.34375 72.90625 50.609375 67.359375 
Q 56.890625 61.8125 56.890625 51.125 
Q 56.890625 40.328125 50.609375 34.8125 
Q 44.34375 29.296875 32.078125 29.296875 
L 19.671875 29.296875 
L 19.671875 0 
L 9.8125 0 
z
" id="DejaVuSans-80"/>
     <path d="M 18.109375 8.203125 
L 18.109375 -20.796875 
L 9.078125 -20.796875 
L 9.078125 54.6875 
L 18.109375 54.6875 
L 18.109375 46.390625 
Q 20.953125 51.265625 25.265625 53.625 
Q 29.59375 56 35.59375 56 
Q 45.5625 56 51.78125 48.09375 
Q 58.015625 40.1875 58.015625 27.296875 
Q 58.015625 14.40625 51.78125 6.484375 
Q 45.5625 -1.421875 35.59375 -1.421875 
Q 29.59375 -1.421875 25.265625 0.953125 
Q 20.953125 3.328125 18.109375 8.203125 
z
M 48.6875 27.296875 
Q 48.6875 37.203125 44.609375 42.84375 
Q 40.53125 48.484375 33.40625 48.484375 
Q 26.265625 48.484375 22.1875 42.84375 
Q 18.109375 37.203125 18.109375 27.296875 
Q 18.109375 17.390625 22.1875 11.75 
Q 26.265625 6.109375 33.40625 6.109375 
Q 40.53125 6.109375 44.609375 11.75 
Q 48.6875 17.390625 48.6875 27.296875 
z
" id="DejaVuSans-112"/>
     <path d="M 8.5 21.578125 
L 8.5 54.6875 
L 17.484375 54.6875 
L 17.484375 21.921875 
Q 17.484375 14.15625 20.5 10.265625 
Q 23.53125 6.390625 29.59375 6.390625 
Q 36.859375 6.390625 41.078125 11.03125 
Q 45.3125 15.671875 45.3125 23.6875 
L 45.3125 54.6875 
L 54.296875 54.6875 
L 54.296875 0 
L 45.3125 0 
L 45.3125 8.40625 
Q 42.046875 3.421875 37.71875 1 
Q 33.40625 -1.421875 27.6875 -1.421875 
Q 18.265625 -1.421875 13.375 4.4375 
Q 8.5 10.296875 8.5 21.578125 
z
M 31.109375 56 
z
" id="DejaVuSans-117"/>
     <path d="M 9.421875 75.984375 
L 18.40625 75.984375 
L 18.40625 0 
L 9.421875 0 
z
" id="DejaVuSans-108"/>
     <path d="M 17.921875 72.90625 
L 17.921875 45.796875 
L 9.625 45.796875 
L 9.625 72.90625 
z
" id="DejaVuSans-39"/>
     <path id="DejaVuSans-32"/>
     <path d="M 2.984375 54.6875 
L 12.5 54.6875 
L 29.59375 8.796875 
L 46.6875 54.6875 
L 56.203125 54.6875 
L 35.6875 0 
L 23.484375 0 
z
" id="DejaVuSans-118"/>
     <path d="M 45.40625 27.984375 
Q 45.40625 37.75 41.375 43.109375 
Q 37.359375 48.484375 30.078125 48.484375 
Q 22.859375 48.484375 18.828125 43.109375 
Q 14.796875 37.75 14.796875 27.984375 
Q 14.796875 18.265625 18.828125 12.890625 
Q 22.859375 7.515625 30.078125 7.515625 
Q 37.359375 7.515625 41.375 12.890625 
Q 45.40625 18.265625 45.40625 27.984375 
z
M 54.390625 6.78125 
Q 54.390625 -7.171875 48.1875 -13.984375 
Q 42 -20.796875 29.203125 -20.796875 
Q 24.46875 -20.796875 20.265625 -20.09375 
Q 16.0625 -19.390625 12.109375 -17.921875 
L 12.109375 -9.1875 
Q 16.0625 -11.328125 19.921875 -12.34375 
Q 23.78125 -13.375 27.78125 -13.375 
Q 36.625 -13.375 41.015625 -8.765625 
Q 45.40625 -4.15625 45.40625 5.171875 
L 45.40625 9.625 
Q 42.625 4.78125 38.28125 2.390625 
Q 33.9375 0 27.875 0 
Q 17.828125 0 11.671875 7.65625 
Q 5.515625 15.328125 5.515625 27.984375 
Q 5.515625 40.671875 11.671875 48.328125 
Q 17.828125 56 27.875 56 
Q 33.9375 56 38.28125 53.609375 
Q 42.625 51.21875 45.40625 46.390625 
L 45.40625 54.6875 
L 54.390625 54.6875 
z
" id="DejaVuSans-103"/>
     <path d="M 45.40625 46.390625 
L 45.40625 75.984375 
L 54.390625 75.984375 
L 54.390625 0 
L 45.40625 0 
L 45.40625 8.203125 
Q 42.578125 3.328125 38.25 0.953125 
Q 33.9375 -1.421875 27.875 -1.421875 
Q 17.96875 -1.421875 11.734375 6.484375 
Q 5.515625 14.40625 5.515625 27.296875 
Q 5.515625 40.1875 11.734375 48.09375 
Q 17.96875 56 27.875 56 
Q 33.9375 56 38.25 53.625 
Q 42.578125 51.265625 45.40625 46.390625 
z
M 14.796875 27.296875 
Q 14.796875 17.390625 18.875 11.75 
Q 22.953125 6.109375 30.078125 6.109375 
Q 37.203125 6.109375 41.296875 11.75 
Q 45.40625 17.390625 45.40625 27.296875 
Q 45.40625 37.203125 41.296875 42.84375 
Q 37.203125 48.484375 30.078125 48.484375 
Q 22.953125 48.484375 18.875 42.84375 
Q 14.796875 37.203125 14.796875 27.296875 
z
" id="DejaVuSans-100"/>
     <path d="M 48.6875 27.296875 
Q 48.6875 37.203125 44.609375 42.84375 
Q 40.53125 48.484375 33.40625 48.484375 
Q 26.265625 48.484375 22.1875 42.84375 
Q 18.109375 37.203125 18.109375 27.296875 
Q 18.109375 17.390625 22.1875 11.75 
Q 26.265625 6.109375 33.40625 6.109375 
Q 40.53125 6.109375 44.609375 11.75 
Q 48.6875 17.390625 48.6875 27.296875 
z
M 18.109375 46.390625 
Q 20.953125 51.265625 25.265625 53.625 
Q 29.59375 56 35.59375 56 
Q 45.5625 56 51.78125 48.09375 
Q 58.015625 40.1875 58.015625 27.296875 
Q 58.015625 14.40625 51.78125 6.484375 
Q 45.5625 -1.421875 35.59375 -1.421875 
Q 29.59375 -1.421875 25.265625 0.953125 
Q 20.953125 3.328125 18.109375 8.203125 
L 18.109375 0 
L 9.078125 0 
L 9.078125 75.984375 
L 18.109375 75.984375 
z
" id="DejaVuSans-98"/>
     <path d="M 37.109375 75.984375 
L 37.109375 68.5 
L 28.515625 68.5 
Q 23.6875 68.5 21.796875 66.546875 
Q 19.921875 64.59375 19.921875 59.515625 
L 19.921875 54.6875 
L 34.71875 54.6875 
L 34.71875 47.703125 
L 19.921875 47.703125 
L 19.921875 0 
L 10.890625 0 
L 10.890625 47.703125 
L 2.296875 47.703125 
L 2.296875 54.6875 
L 10.890625 54.6875 
L 10.890625 58.5 
Q 10.890625 67.625 15.140625 71.796875 
Q 19.390625 75.984375 28.609375 75.984375 
z
" id="DejaVuSans-102"/>
    </defs>
    <g transform="translate(123.315 35.472)scale(0.12 -0.12)">
     <use xlink:href="#DejaVuSans-80"/>
     <use x="60.255859" xlink:href="#DejaVuSans-111"/>
     <use x="121.4375" xlink:href="#DejaVuSans-112"/>
     <use x="184.914062" xlink:href="#DejaVuSans-117"/>
     <use x="248.292969" xlink:href="#DejaVuSans-108"/>
     <use x="276.076172" xlink:href="#DejaVuSans-97"/>
     <use x="337.355469" xlink:href="#DejaVuSans-116"/>
     <use x="376.564453" xlink:href="#DejaVuSans-105"/>
     <use x="404.347656" xlink:href="#DejaVuSans-111"/>
     <use x="465.529297" xlink:href="#DejaVuSans-110"/>
     <use x="528.908203" xlink:href="#DejaVuSans-39"/>
     <use x="556.398438" xlink:href="#DejaVuSans-115"/>
     <use x="608.498047" xlink:href="#DejaVuSans-32"/>
     <use x="640.285156" xlink:href="#DejaVuSans-97"/>
     <use x="701.564453" xlink:href="#DejaVuSans-118"/>
     <use x="760.744141" xlink:href="#DejaVuSans-101"/>
     <use x="822.267578" xlink:href="#DejaVuSans-114"/>
     <use x="863.380859" xlink:href="#DejaVuSans-97"/>
     <use x="924.660156" xlink:href="#DejaVuSans-103"/>
     <use x="988.136719" xlink:href="#DejaVuSans-101"/>
     <use x="1049.660156" xlink:href="#DejaVuSans-32"/>
     <use x="1081.447266" xlink:href="#DejaVuSans-97"/>
     <use x="1142.726562" xlink:href="#DejaVuSans-110"/>
     <use x="1206.105469" xlink:href="#DejaVuSans-100"/>
     <use x="1269.582031" xlink:href="#DejaVuSans-32"/>
     <use x="1301.369141" xlink:href="#DejaVuSans-98"/>
     <use x="1364.845703" xlink:href="#DejaVuSans-101"/>
     <use x="1426.369141" xlink:href="#DejaVuSans-115"/>
     <use x="1478.46875" xlink:href="#DejaVuSans-116"/>
     <use x="1517.677734" xlink:href="#DejaVuSans-32"/>
     <use x="1549.464844" xlink:href="#DejaVuSans-102"/>
     <use x="1584.669922" xlink:href="#DejaVuSans-105"/>
     <use x="1612.453125" xlink:href="#DejaVuSans-116"/>
     <use x="1651.662109" xlink:href="#DejaVuSans-110"/>
     <use x="1715.041016" xlink:href="#DejaVuSans-101"/>
     <use x="1776.564453" xlink:href="#DejaVuSans-115"/>
     <use x="1828.664062" xlink:href="#DejaVuSans-115"/>
    </g>
   </g>
   <g id="legend_1">
    <g id="patch_7">
     <path d="M 334.779375 198.045187 
L 407.72 198.045187 
Q 409.72 198.045187 409.72 196.045187 
L 409.72 153.010812 
Q 409.72 151.010812 407.72 151.010812 
L 334.779375 151.010812 
Q 332.779375 151.010812 332.779375 153.010812 
L 332.779375 196.045187 
Q 332.779375 198.045187 334.779375 198.045187 
z
" style="fill:#ffffff;opacity:0.8;stroke:#cccccc;stroke-linejoin:miter;"/>
    </g>
    <g id="line2d_32">
     <path d="M 336.779375 159.10925 
L 356.779375 159.10925 
" style="fill:none;stroke:#0000ff;stroke-linecap:square;stroke-width:1.5;"/>
    </g>
    <g id="line2d_33"/>
    <g id="text_18">
     <!-- average -->
     <g transform="translate(364.779375 162.60925)scale(0.1 -0.1)">
      <use xlink:href="#DejaVuSans-97"/>
      <use x="61.279297" xlink:href="#DejaVuSans-118"/>
      <use x="120.458984" xlink:href="#DejaVuSans-101"/>
      <use x="181.982422" xlink:href="#DejaVuSans-114"/>
      <use x="223.095703" xlink:href="#DejaVuSans-97"/>
      <use x="284.375" xlink:href="#DejaVuSans-103"/>
      <use x="347.851562" xlink:href="#DejaVuSans-101"/>
     </g>
    </g>
    <g id="line2d_34">
     <path d="M 336.779375 173.787375 
L 356.779375 173.787375 
" style="fill:none;stroke:#008000;stroke-dasharray:9.6,2.4,1.5,2.4;stroke-dashoffset:0;stroke-width:1.5;"/>
    </g>
    <g id="line2d_35"/>
    <g id="text_19">
     <!-- +1 sd -->
     <defs>
      <path d="M 46 62.703125 
L 46 35.5 
L 73.1875 35.5 
L 73.1875 27.203125 
L 46 27.203125 
L 46 0 
L 37.796875 0 
L 37.796875 27.203125 
L 10.59375 27.203125 
L 10.59375 35.5 
L 37.796875 35.5 
L 37.796875 62.703125 
z
" id="DejaVuSans-43"/>
     </defs>
     <g transform="translate(364.779375 177.287375)scale(0.1 -0.1)">
      <use xlink:href="#DejaVuSans-43"/>
      <use x="83.789062" xlink:href="#DejaVuSans-49"/>
      <use x="147.412109" xlink:href="#DejaVuSans-32"/>
      <use x="179.199219" xlink:href="#DejaVuSans-115"/>
      <use x="231.298828" xlink:href="#DejaVuSans-100"/>
     </g>
    </g>
    <g id="line2d_36">
     <path d="M 336.779375 188.4655 
L 356.779375 188.4655 
" style="fill:none;stroke:#ff0000;stroke-linecap:square;stroke-width:1.5;"/>
    </g>
    <g id="line2d_37"/>
    <g id="text_20">
     <!-- best -->
     <g transform="translate(364.779375 191.9655)scale(0.1 -0.1)">
      <use xlink:href="#DejaVuSans-98"/>
      <use x="63.476562" xlink:href="#DejaVuSans-101"/>
      <use x="125" xlink:href="#DejaVuSans-115"/>
      <use x="177.099609" xlink:href="#DejaVuSans-116"/>
     </g>
    </g>
   </g>
  </g>
 </g>
 <defs>
  <clipPath id="pee8c99fce1">
   <rect height="266.112" width="357.12" x="57.6" y="41.472"/>
  </clipPath>
 </defs>
</svg>
