<?xml version="1.0" encoding="utf-8" standalone="no"?>
<!DOCTYPE svg PUBLIC "-//W3C//DTD SVG 1.1//EN"
  "http://www.w3.org/Graphics/SVG/1.1/DTD/svg11.dtd">
<!-- Created with matplotlib (https://matplotlib.org/) -->
<svg height="345.6pt" version="1.1" viewBox="0 0 460.8 345.6" width="460.8pt" xmlns="http://www.w3.org/2000/svg" xmlns:xlink="http://www.w3.org/1999/xlink">
 <defs>
  <style type="text/css">
*{stroke-linecap:butt;stroke-linejoin:round;}
  </style>
 </defs>
 <g id="figure_1">
  <g id="patch_1">
   <path d="M 0 345.6 
L 460.8 345.6 
L 460.8 0 
L 0 0 
z
" style="fill:#ffffff;"/>
  </g>
  <g id="axes_1">
   <g id="patch_2">
    <path d="M 57.6 307.584 
L 414.72 307.584 
L 414.72 41.472 
L 57.6 41.472 
z
" style="fill:#ffffff;"/>
   </g>
   <g id="matplotlib.axis_1">
    <g id="xtick_1">
     <g id="line2d_1">
      <path clip-path="url(#p88e856a1a0)" d="M 73.832727 307.584 
L 73.832727 41.472 
" style="fill:none;stroke:#b0b0b0;stroke-linecap:square;stroke-width:0.8;"/>
     </g>
     <g id="line2d_2">
      <defs>
       <path d="M 0 0 
L 0 3.5 
" id="m3c6eddd895" style="stroke:#000000;stroke-width:0.8;"/>
      </defs>
      <g>
       <use style="stroke:#000000;stroke-width:0.8;" x="73.832727" xlink:href="#m3c6eddd895" y="307.584"/>
      </g>
     </g>
     <g id="text_1">
      <!-- 0 -->
      <defs>
       <path d="M 31.78125 66.40625 
Q 24.171875 66.40625 20.328125 58.90625 
Q 16.5 51.421875 16.5 36.375 
Q 16.5 21.390625 20.328125 13.890625 
Q 24.171875 6.390625 31.78125 6.390625 
Q 39.453125 6.390625 43.28125 13.890625 
Q 47.125 21.390625 47.125 36.375 
Q 47.125 51.421875 43.28125 58.90625 
Q 39.453125 66.40625 31.78125 66.40625 
z
M 31.78125 74.21875 
Q 44.046875 74.21875 50.515625 64.515625 
Q 56.984375 54.828125 56.984375 36.375 
Q 56.984375 17.96875 50.515625 8.265625 
Q 44.046875 -1.421875 31.78125 -1.421875 
Q 19.53125 -1.421875 13.0625 8.265625 
Q 6.59375 17.96875 6.59375 36.375 
Q 6.59375 54.828125 13.0625 64.515625 
Q 19.53125 74.21875 31.78125 74.21875 
z
" id="DejaVuSans-48"/>
      </defs>
      <g transform="translate(70.651477 322.182437)scale(0.1 -0.1)">
       <use xlink:href="#DejaVuSans-48"/>
      </g>
     </g>
    </g>
    <g id="xtick_2">
     <g id="line2d_3">
      <path clip-path="url(#p88e856a1a0)" d="M 114.618474 307.584 
L 114.618474 41.472 
" style="fill:none;stroke:#b0b0b0;stroke-linecap:square;stroke-width:0.8;"/>
     </g>
     <g id="line2d_4">
      <g>
       <use style="stroke:#000000;stroke-width:0.8;" x="114.618474" xlink:href="#m3c6eddd895" y="307.584"/>
      </g>
     </g>
     <g id="text_2">
      <!-- 25 -->
      <defs>
       <path d="M 19.1875 8.296875 
L 53.609375 8.296875 
L 53.609375 0 
L 7.328125 0 
L 7.328125 8.296875 
Q 12.9375 14.109375 22.625 23.890625 
Q 32.328125 33.6875 34.8125 36.53125 
Q 39.546875 41.84375 41.421875 45.53125 
Q 43.3125 49.21875 43.3125 52.78125 
Q 43.3125 58.59375 39.234375 62.25 
Q 35.15625 65.921875 28.609375 65.921875 
Q 23.96875 65.921875 18.8125 64.3125 
Q 13.671875 62.703125 7.8125 59.421875 
L 7.8125 69.390625 
Q 13.765625 71.78125 18.9375 73 
Q 24.125 74.21875 28.421875 74.21875 
Q 39.75 74.21875 46.484375 68.546875 
Q 53.21875 62.890625 53.21875 53.421875 
Q 53.21875 48.921875 51.53125 44.890625 
Q 49.859375 40.875 45.40625 35.40625 
Q 44.1875 33.984375 37.640625 27.21875 
Q 31.109375 20.453125 19.1875 8.296875 
z
" id="DejaVuSans-50"/>
       <path d="M 10.796875 72.90625 
L 49.515625 72.90625 
L 49.515625 64.59375 
L 19.828125 64.59375 
L 19.828125 46.734375 
Q 21.96875 47.46875 24.109375 47.828125 
Q 26.265625 48.1875 28.421875 48.1875 
Q 40.625 48.1875 47.75 41.5 
Q 54.890625 34.8125 54.890625 23.390625 
Q 54.890625 11.625 47.5625 5.09375 
Q 40.234375 -1.421875 26.90625 -1.421875 
Q 22.3125 -1.421875 17.546875 -0.640625 
Q 12.796875 0.140625 7.71875 1.703125 
L 7.71875 11.625 
Q 12.109375 9.234375 16.796875 8.0625 
Q 21.484375 6.890625 26.703125 6.890625 
Q 35.15625 6.890625 40.078125 11.328125 
Q 45.015625 15.765625 45.015625 23.390625 
Q 45.015625 31 40.078125 35.4375 
Q 35.15625 39.890625 26.703125 39.890625 
Q 22.75 39.890625 18.8125 39.015625 
Q 14.890625 38.140625 10.796875 36.28125 
z
" id="DejaVuSans-53"/>
      </defs>
      <g transform="translate(108.255974 322.182437)scale(0.1 -0.1)">
       <use xlink:href="#DejaVuSans-50"/>
       <use x="63.623047" xlink:href="#DejaVuSans-53"/>
      </g>
     </g>
    </g>
    <g id="xtick_3">
     <g id="line2d_5">
      <path clip-path="url(#p88e856a1a0)" d="M 155.404221 307.584 
L 155.404221 41.472 
" style="fill:none;stroke:#b0b0b0;stroke-linecap:square;stroke-width:0.8;"/>
     </g>
     <g id="line2d_6">
      <g>
       <use style="stroke:#000000;stroke-width:0.8;" x="155.404221" xlink:href="#m3c6eddd895" y="307.584"/>
      </g>
     </g>
     <g id="text_3">
      <!-- 50 -->
      <g transform="translate(149.041721 322.182437)scale(0.1 -0.1)">
       <use xlink:href="#DejaVuSans-53"/>
       <use x="63.623047" xlink:href="#DejaVuSans-48"/>
      </g>
     </g>
    </g>
    <g id="xtick_4">
     <g id="line2d_7">
      <path clip-path="url(#p88e856a1a0)" d="M 196.189968 307.584 
L 196.189968 41.472 
" style="fill:none;stroke:#b0b0b0;stroke-linecap:square;stroke-width:0.8;"/>
     </g>
     <g id="line2d_8">
      <g>
       <use style="stroke:#000000;stroke-width:0.8;" x="196.189968" xlink:href="#m3c6eddd895" y="307.584"/>
      </g>
     </g>
     <g id="text_4">
      <!-- 75 -->
      <defs>
       <path d="M 8.203125 72.90625 
L 55.078125 72.90625 
L 55.078125 68.703125 
L 28.609375 0 
L 18.3125 0 
L 43.21875 64.59375 
L 8.203125 64.59375 
z
" id="DejaVuSans-55"/>
      </defs>
      <g transform="translate(189.827468 322.182437)scale(0.1 -0.1)">
       <use xlink:href="#DejaVuSans-55"/>
       <use x="63.623047" xlink:href="#DejaVuSans-53"/>
      </g>
     </g>
    </g>
    <g id="xtick_5">
     <g id="line2d_9">
      <path clip-path="url(#p88e856a1a0)" d="M 236.975715 307.584 
L 236.975715 41.472 
" style="fill:none;stroke:#b0b0b0;stroke-linecap:square;stroke-width:0.8;"/>
     </g>
     <g id="line2d_10">
      <g>
       <use style="stroke:#000000;stroke-width:0.8;" x="236.975715" xlink:href="#m3c6eddd895" y="307.584"/>
      </g>
     </g>
     <g id="text_5">
      <!-- 100 -->
      <defs>
       <path d="M 12.40625 8.296875 
L 28.515625 8.296875 
L 28.515625 63.921875 
L 10.984375 60.40625 
L 10.984375 69.390625 
L 28.421875 72.90625 
L 38.28125 72.90625 
L 38.28125 8.296875 
L 54.390625 8.296875 
L 54.390625 0 
L 12.40625 0 
z
" id="DejaVuSans-49"/>
      </defs>
      <g transform="translate(227.431965 322.182437)scale(0.1 -0.1)">
       <use xlink:href="#DejaVuSans-49"/>
       <use x="63.623047" xlink:href="#DejaVuSans-48"/>
       <use x="127.246094" xlink:href="#DejaVuSans-48"/>
      </g>
     </g>
    </g>
    <g id="xtick_6">
     <g id="line2d_11">
      <path clip-path="url(#p88e856a1a0)" d="M 277.761462 307.584 
L 277.761462 41.472 
" style="fill:none;stroke:#b0b0b0;stroke-linecap:square;stroke-width:0.8;"/>
     </g>
     <g id="line2d_12">
      <g>
       <use style="stroke:#000000;stroke-width:0.8;" x="277.761462" xlink:href="#m3c6eddd895" y="307.584"/>
      </g>
     </g>
     <g id="text_6">
      <!-- 125 -->
      <g transform="translate(268.217712 322.182437)scale(0.1 -0.1)">
       <use xlink:href="#DejaVuSans-49"/>
       <use x="63.623047" xlink:href="#DejaVuSans-50"/>
       <use x="127.246094" xlink:href="#DejaVuSans-53"/>
      </g>
     </g>
    </g>
    <g id="xtick_7">
     <g id="line2d_13">
      <path clip-path="url(#p88e856a1a0)" d="M 318.547209 307.584 
L 318.547209 41.472 
" style="fill:none;stroke:#b0b0b0;stroke-linecap:square;stroke-width:0.8;"/>
     </g>
     <g id="line2d_14">
      <g>
       <use style="stroke:#000000;stroke-width:0.8;" x="318.547209" xlink:href="#m3c6eddd895" y="307.584"/>
      </g>
     </g>
     <g id="text_7">
      <!-- 150 -->
      <g transform="translate(309.003459 322.182437)scale(0.1 -0.1)">
       <use xlink:href="#DejaVuSans-49"/>
       <use x="63.623047" xlink:href="#DejaVuSans-53"/>
       <use x="127.246094" xlink:href="#DejaVuSans-48"/>
      </g>
     </g>
    </g>
    <g id="xtick_8">
     <g id="line2d_15">
      <path clip-path="url(#p88e856a1a0)" d="M 359.332956 307.584 
L 359.332956 41.472 
" style="fill:none;stroke:#b0b0b0;stroke-linecap:square;stroke-width:0.8;"/>
     </g>
     <g id="line2d_16">
      <g>
       <use style="stroke:#000000;stroke-width:0.8;" x="359.332956" xlink:href="#m3c6eddd895" y="307.584"/>
      </g>
     </g>
     <g id="text_8">
      <!-- 175 -->
      <g transform="translate(349.789206 322.182437)scale(0.1 -0.1)">
       <use xlink:href="#DejaVuSans-49"/>
       <use x="63.623047" xlink:href="#DejaVuSans-55"/>
       <use x="127.246094" xlink:href="#DejaVuSans-53"/>
      </g>
     </g>
    </g>
    <g id="xtick_9">
     <g id="line2d_17">
      <path clip-path="url(#p88e856a1a0)" d="M 400.118703 307.584 
L 400.118703 41.472 
" style="fill:none;stroke:#b0b0b0;stroke-linecap:square;stroke-width:0.8;"/>
     </g>
     <g id="line2d_18">
      <g>
       <use style="stroke:#000000;stroke-width:0.8;" x="400.118703" xlink:href="#m3c6eddd895" y="307.584"/>
      </g>
     </g>
     <g id="text_9">
      <!-- 200 -->
      <g transform="translate(390.574953 322.182437)scale(0.1 -0.1)">
       <use xlink:href="#DejaVuSans-50"/>
       <use x="63.623047" xlink:href="#DejaVuSans-48"/>
       <use x="127.246094" xlink:href="#DejaVuSans-48"/>
      </g>
     </g>
    </g>
    <g id="text_10">
     <!-- Generations -->
     <defs>
      <path d="M 59.515625 10.40625 
L 59.515625 29.984375 
L 43.40625 29.984375 
L 43.40625 38.09375 
L 69.28125 38.09375 
L 69.28125 6.78125 
Q 63.578125 2.734375 56.6875 0.65625 
Q 49.8125 -1.421875 42 -1.421875 
Q 24.90625 -1.421875 15.25 8.5625 
Q 5.609375 18.5625 5.609375 36.375 
Q 5.609375 54.25 15.25 64.234375 
Q 24.90625 74.21875 42 74.21875 
Q 49.125 74.21875 55.546875 72.453125 
Q 61.96875 70.703125 67.390625 67.28125 
L 67.390625 56.78125 
Q 61.921875 61.421875 55.765625 63.765625 
Q 49.609375 66.109375 42.828125 66.109375 
Q 29.4375 66.109375 22.71875 58.640625 
Q 16.015625 51.171875 16.015625 36.375 
Q 16.015625 21.625 22.71875 14.15625 
Q 29.4375 6.6875 42.828125 6.6875 
Q 48.046875 6.6875 52.140625 7.59375 
Q 56.25 8.5 59.515625 10.40625 
z
" id="DejaVuSans-71"/>
      <path d="M 56.203125 29.59375 
L 56.203125 25.203125 
L 14.890625 25.203125 
Q 15.484375 15.921875 20.484375 11.0625 
Q 25.484375 6.203125 34.421875 6.203125 
Q 39.59375 6.203125 44.453125 7.46875 
Q 49.3125 8.734375 54.109375 11.28125 
L 54.109375 2.78125 
Q 49.265625 0.734375 44.1875 -0.34375 
Q 39.109375 -1.421875 33.890625 -1.421875 
Q 20.796875 -1.421875 13.15625 6.1875 
Q 5.515625 13.8125 5.515625 26.8125 
Q 5.515625 40.234375 12.765625 48.109375 
Q 20.015625 56 32.328125 56 
Q 43.359375 56 49.78125 48.890625 
Q 56.203125 41.796875 56.203125 29.59375 
z
M 47.21875 32.234375 
Q 47.125 39.59375 43.09375 43.984375 
Q 39.0625 48.390625 32.421875 48.390625 
Q 24.90625 48.390625 20.390625 44.140625 
Q 15.875 39.890625 15.1875 32.171875 
z
" id="DejaVuSans-101"/>
      <path d="M 54.890625 33.015625 
L 54.890625 0 
L 45.90625 0 
L 45.90625 32.71875 
Q 45.90625 40.484375 42.875 44.328125 
Q 39.84375 48.1875 33.796875 48.1875 
Q 26.515625 48.1875 22.3125 43.546875 
Q 18.109375 38.921875 18.109375 30.90625 
L 18.109375 0 
L 9.078125 0 
L 9.078125 54.6875 
L 18.109375 54.6875 
L 18.109375 46.1875 
Q 21.34375 51.125 25.703125 53.5625 
Q 30.078125 56 35.796875 56 
Q 45.21875 56 50.046875 50.171875 
Q 54.890625 44.34375 54.890625 33.015625 
z
" id="DejaVuSans-110"/>
      <path d="M 41.109375 46.296875 
Q 39.59375 47.171875 37.8125 47.578125 
Q 36.03125 48 33.890625 48 
Q 26.265625 48 22.1875 43.046875 
Q 18.109375 38.09375 18.109375 28.8125 
L 18.109375 0 
L 9.078125 0 
L 9.078125 54.6875 
L 18.109375 54.6875 
L 18.109375 46.1875 
Q 20.953125 51.171875 25.484375 53.578125 
Q 30.03125 56 36.53125 56 
Q 37.453125 56 38.578125 55.875 
Q 39.703125 55.765625 41.0625 55.515625 
z
" id="DejaVuSans-114"/>
      <path d="M 34.28125 27.484375 
Q 23.390625 27.484375 19.1875 25 
Q 14.984375 22.515625 14.984375 16.5 
Q 14.984375 11.71875 18.140625 8.90625 
Q 21.296875 6.109375 26.703125 6.109375 
Q 34.1875 6.109375 38.703125 11.40625 
Q 43.21875 16.703125 43.21875 25.484375 
L 43.21875 27.484375 
z
M 52.203125 31.203125 
L 52.203125 0 
L 43.21875 0 
L 43.21875 8.296875 
Q 40.140625 3.328125 35.546875 0.953125 
Q 30.953125 -1.421875 24.3125 -1.421875 
Q 15.921875 -1.421875 10.953125 3.296875 
Q 6 8.015625 6 15.921875 
Q 6 25.140625 12.171875 29.828125 
Q 18.359375 34.515625 30.609375 34.515625 
L 43.21875 34.515625 
L 43.21875 35.40625 
Q 43.21875 41.609375 39.140625 45 
Q 35.0625 48.390625 27.6875 48.390625 
Q 23 48.390625 18.546875 47.265625 
Q 14.109375 46.140625 10.015625 43.890625 
L 10.015625 52.203125 
Q 14.9375 54.109375 19.578125 55.046875 
Q 24.21875 56 28.609375 56 
Q 40.484375 56 46.34375 49.84375 
Q 52.203125 43.703125 52.203125 31.203125 
z
" id="DejaVuSans-97"/>
      <path d="M 18.3125 70.21875 
L 18.3125 54.6875 
L 36.8125 54.6875 
L 36.8125 47.703125 
L 18.3125 47.703125 
L 18.3125 18.015625 
Q 18.3125 11.328125 20.140625 9.421875 
Q 21.96875 7.515625 27.59375 7.515625 
L 36.8125 7.515625 
L 36.8125 0 
L 27.59375 0 
Q 17.1875 0 13.234375 3.875 
Q 9.28125 7.765625 9.28125 18.015625 
L 9.28125 47.703125 
L 2.6875 47.703125 
L 2.6875 54.6875 
L 9.28125 54.6875 
L 9.28125 70.21875 
z
" id="DejaVuSans-116"/>
      <path d="M 9.421875 54.6875 
L 18.40625 54.6875 
L 18.40625 0 
L 9.421875 0 
z
M 9.421875 75.984375 
L 18.40625 75.984375 
L 18.40625 64.59375 
L 9.421875 64.59375 
z
" id="DejaVuSans-105"/>
      <path d="M 30.609375 48.390625 
Q 23.390625 48.390625 19.1875 42.75 
Q 14.984375 37.109375 14.984375 27.296875 
Q 14.984375 17.484375 19.15625 11.84375 
Q 23.34375 6.203125 30.609375 6.203125 
Q 37.796875 6.203125 41.984375 11.859375 
Q 46.1875 17.53125 46.1875 27.296875 
Q 46.1875 37.015625 41.984375 42.703125 
Q 37.796875 48.390625 30.609375 48.390625 
z
M 30.609375 56 
Q 42.328125 56 49.015625 48.375 
Q 55.71875 40.765625 55.71875 27.296875 
Q 55.71875 13.875 49.015625 6.21875 
Q 42.328125 -1.421875 30.609375 -1.421875 
Q 18.84375 -1.421875 12.171875 6.21875 
Q 5.515625 13.875 5.515625 27.296875 
Q 5.515625 40.765625 12.171875 48.375 
Q 18.84375 56 30.609375 56 
z
" id="DejaVuSans-111"/>
      <path d="M 44.28125 53.078125 
L 44.28125 44.578125 
Q 40.484375 46.53125 36.375 47.5 
Q 32.28125 48.484375 27.875 48.484375 
Q 21.1875 48.484375 17.84375 46.4375 
Q 14.5 44.390625 14.5 40.28125 
Q 14.5 37.15625 16.890625 35.375 
Q 19.28125 33.59375 26.515625 31.984375 
L 29.59375 31.296875 
Q 39.15625 29.25 43.1875 25.515625 
Q 47.21875 21.78125 47.21875 15.09375 
Q 47.21875 7.46875 41.1875 3.015625 
Q 35.15625 -1.421875 24.609375 -1.421875 
Q 20.21875 -1.421875 15.453125 -0.5625 
Q 10.6875 0.296875 5.421875 2 
L 5.421875 11.28125 
Q 10.40625 8.6875 15.234375 7.390625 
Q 20.0625 6.109375 24.8125 6.109375 
Q 31.15625 6.109375 34.5625 8.28125 
Q 37.984375 10.453125 37.984375 14.40625 
Q 37.984375 18.0625 35.515625 20.015625 
Q 33.0625 21.96875 24.703125 23.78125 
L 21.578125 24.515625 
Q 13.234375 26.265625 9.515625 29.90625 
Q 5.8125 33.546875 5.8125 39.890625 
Q 5.8125 47.609375 11.28125 51.796875 
Q 16.75 56 26.8125 56 
Q 31.78125 56 36.171875 55.265625 
Q 40.578125 54.546875 44.28125 53.078125 
z
" id="DejaVuSans-115"/>
     </defs>
     <g transform="translate(205.662344 335.860562)scale(0.1 -0.1)">
      <use xlink:href="#DejaVuSans-71"/>
      <use x="77.490234" xlink:href="#DejaVuSans-101"/>
      <use x="139.013672" xlink:href="#DejaVuSans-110"/>
      <use x="202.392578" xlink:href="#DejaVuSans-101"/>
      <use x="263.916016" xlink:href="#DejaVuSans-114"/>
      <use x="305.029297" xlink:href="#DejaVuSans-97"/>
      <use x="366.308594" xlink:href="#DejaVuSans-116"/>
      <use x="405.517578" xlink:href="#DejaVuSans-105"/>
      <use x="433.300781" xlink:href="#DejaVuSans-111"/>
      <use x="494.482422" xlink:href="#DejaVuSans-110"/>
      <use x="557.861328" xlink:href="#DejaVuSans-115"/>
     </g>
    </g>
   </g>
   <g id="matplotlib.axis_2">
    <g id="ytick_1">
     <g id="line2d_19">
      <path clip-path="url(#p88e856a1a0)" d="M 57.6 280.69411 
L 414.72 280.69411 
" style="fill:none;stroke:#b0b0b0;stroke-linecap:square;stroke-width:0.8;"/>
     </g>
     <g id="line2d_20">
      <defs>
       <path d="M 0 0 
L -3.5 0 
" id="m3b8dc11fbe" style="stroke:#000000;stroke-width:0.8;"/>
      </defs>
      <g>
       <use style="stroke:#000000;stroke-width:0.8;" x="57.6" xlink:href="#m3b8dc11fbe" y="280.69411"/>
      </g>
     </g>
     <g id="text_11">
      <!-- 5 -->
      <g transform="translate(44.2375 284.493329)scale(0.1 -0.1)">
       <use xlink:href="#DejaVuSans-53"/>
      </g>
     </g>
    </g>
    <g id="ytick_2">
     <g id="line2d_21">
      <path clip-path="url(#p88e856a1a0)" d="M 57.6 250.001393 
L 414.72 250.001393 
" style="fill:none;stroke:#b0b0b0;stroke-linecap:square;stroke-width:0.8;"/>
     </g>
     <g id="line2d_22">
      <g>
       <use style="stroke:#000000;stroke-width:0.8;" x="57.6" xlink:href="#m3b8dc11fbe" y="250.001393"/>
      </g>
     </g>
     <g id="text_12">
      <!-- 10 -->
      <g transform="translate(37.875 253.800611)scale(0.1 -0.1)">
       <use xlink:href="#DejaVuSans-49"/>
       <use x="63.623047" xlink:href="#DejaVuSans-48"/>
      </g>
     </g>
    </g>
    <g id="ytick_3">
     <g id="line2d_23">
      <path clip-path="url(#p88e856a1a0)" d="M 57.6 219.308675 
L 414.72 219.308675 
" style="fill:none;stroke:#b0b0b0;stroke-linecap:square;stroke-width:0.8;"/>
     </g>
     <g id="line2d_24">
      <g>
       <use style="stroke:#000000;stroke-width:0.8;" x="57.6" xlink:href="#m3b8dc11fbe" y="219.308675"/>
      </g>
     </g>
     <g id="text_13">
      <!-- 15 -->
      <g transform="translate(37.875 223.107894)scale(0.1 -0.1)">
       <use xlink:href="#DejaVuSans-49"/>
       <use x="63.623047" xlink:href="#DejaVuSans-53"/>
      </g>
     </g>
    </g>
    <g id="ytick_4">
     <g id="line2d_25">
      <path clip-path="url(#p88e856a1a0)" d="M 57.6 188.615957 
L 414.72 188.615957 
" style="fill:none;stroke:#b0b0b0;stroke-linecap:square;stroke-width:0.8;"/>
     </g>
     <g id="line2d_26">
      <g>
       <use style="stroke:#000000;stroke-width:0.8;" x="57.6" xlink:href="#m3b8dc11fbe" y="188.615957"/>
      </g>
     </g>
     <g id="text_14">
      <!-- 20 -->
      <g transform="translate(37.875 192.415176)scale(0.1 -0.1)">
       <use xlink:href="#DejaVuSans-50"/>
       <use x="63.623047" xlink:href="#DejaVuSans-48"/>
      </g>
     </g>
    </g>
    <g id="ytick_5">
     <g id="line2d_27">
      <path clip-path="url(#p88e856a1a0)" d="M 57.6 157.92324 
L 414.72 157.92324 
" style="fill:none;stroke:#b0b0b0;stroke-linecap:square;stroke-width:0.8;"/>
     </g>
     <g id="line2d_28">
      <g>
       <use style="stroke:#000000;stroke-width:0.8;" x="57.6" xlink:href="#m3b8dc11fbe" y="157.92324"/>
      </g>
     </g>
     <g id="text_15">
      <!-- 25 -->
      <g transform="translate(37.875 161.722459)scale(0.1 -0.1)">
       <use xlink:href="#DejaVuSans-50"/>
       <use x="63.623047" xlink:href="#DejaVuSans-53"/>
      </g>
     </g>
    </g>
    <g id="ytick_6">
     <g id="line2d_29">
      <path clip-path="url(#p88e856a1a0)" d="M 57.6 127.230522 
L 414.72 127.230522 
" style="fill:none;stroke:#b0b0b0;stroke-linecap:square;stroke-width:0.8;"/>
     </g>
     <g id="line2d_30">
      <g>
       <use style="stroke:#000000;stroke-width:0.8;" x="57.6" xlink:href="#m3b8dc11fbe" y="127.230522"/>
      </g>
     </g>
     <g id="text_16">
      <!-- 30 -->
      <defs>
       <path d="M 40.578125 39.3125 
Q 47.65625 37.796875 51.625 33 
Q 55.609375 28.21875 55.609375 21.1875 
Q 55.609375 10.40625 48.1875 4.484375 
Q 40.765625 -1.421875 27.09375 -1.421875 
Q 22.515625 -1.421875 17.65625 -0.515625 
Q 12.796875 0.390625 7.625 2.203125 
L 7.625 11.71875 
Q 11.71875 9.328125 16.59375 8.109375 
Q 21.484375 6.890625 26.8125 6.890625 
Q 36.078125 6.890625 40.9375 10.546875 
Q 45.796875 14.203125 45.796875 21.1875 
Q 45.796875 27.640625 41.28125 31.265625 
Q 36.765625 34.90625 28.71875 34.90625 
L 20.21875 34.90625 
L 20.21875 43.015625 
L 29.109375 43.015625 
Q 36.375 43.015625 40.234375 45.921875 
Q 44.09375 48.828125 44.09375 54.296875 
Q 44.09375 59.90625 40.109375 62.90625 
Q 36.140625 65.921875 28.71875 65.921875 
Q 24.65625 65.921875 20.015625 65.03125 
Q 15.375 64.15625 9.8125 62.3125 
L 9.8125 71.09375 
Q 15.4375 72.65625 20.34375 73.4375 
Q 25.25 74.21875 29.59375 74.21875 
Q 40.828125 74.21875 47.359375 69.109375 
Q 53.90625 64.015625 53.90625 55.328125 
Q 53.90625 49.265625 50.4375 45.09375 
Q 46.96875 40.921875 40.578125 39.3125 
z
" id="DejaVuSans-51"/>
      </defs>
      <g transform="translate(37.875 131.029741)scale(0.1 -0.1)">
       <use xlink:href="#DejaVuSans-51"/>
       <use x="63.623047" xlink:href="#DejaVuSans-48"/>
      </g>
     </g>
    </g>
    <g id="ytick_7">
     <g id="line2d_31">
      <path clip-path="url(#p88e856a1a0)" d="M 57.6 96.537805 
L 414.72 96.537805 
" style="fill:none;stroke:#b0b0b0;stroke-linecap:square;stroke-width:0.8;"/>
     </g>
     <g id="line2d_32">
      <g>
       <use style="stroke:#000000;stroke-width:0.8;" x="57.6" xlink:href="#m3b8dc11fbe" y="96.537805"/>
      </g>
     </g>
     <g id="text_17">
      <!-- 35 -->
      <g transform="translate(37.875 100.337023)scale(0.1 -0.1)">
       <use xlink:href="#DejaVuSans-51"/>
       <use x="63.623047" xlink:href="#DejaVuSans-53"/>
      </g>
     </g>
    </g>
    <g id="ytick_8">
     <g id="line2d_33">
      <path clip-path="url(#p88e856a1a0)" d="M 57.6 65.845087 
L 414.72 65.845087 
" style="fill:none;stroke:#b0b0b0;stroke-linecap:square;stroke-width:0.8;"/>
     </g>
     <g id="line2d_34">
      <g>
       <use style="stroke:#000000;stroke-width:0.8;" x="57.6" xlink:href="#m3b8dc11fbe" y="65.845087"/>
      </g>
     </g>
     <g id="text_18">
      <!-- 40 -->
      <defs>
       <path d="M 37.796875 64.3125 
L 12.890625 25.390625 
L 37.796875 25.390625 
z
M 35.203125 72.90625 
L 47.609375 72.90625 
L 47.609375 25.390625 
L 58.015625 25.390625 
L 58.015625 17.1875 
L 47.609375 17.1875 
L 47.609375 0 
L 37.796875 0 
L 37.796875 17.1875 
L 4.890625 17.1875 
L 4.890625 26.703125 
z
" id="DejaVuSans-52"/>
      </defs>
      <g transform="translate(37.875 69.644306)scale(0.1 -0.1)">
       <use xlink:href="#DejaVuSans-52"/>
       <use x="63.623047" xlink:href="#DejaVuSans-48"/>
      </g>
     </g>
    </g>
    <g id="text_19">
     <!-- Fitness -->
     <defs>
      <path d="M 9.8125 72.90625 
L 51.703125 72.90625 
L 51.703125 64.59375 
L 19.671875 64.59375 
L 19.671875 43.109375 
L 48.578125 43.109375 
L 48.578125 34.8125 
L 19.671875 34.8125 
L 19.671875 0 
L 9.8125 0 
z
" id="DejaVuSans-70"/>
     </defs>
     <g transform="translate(31.795312 192.202219)rotate(-90)scale(0.1 -0.1)">
      <use xlink:href="#DejaVuSans-70"/>
      <use x="57.410156" xlink:href="#DejaVuSans-105"/>
      <use x="85.193359" xlink:href="#DejaVuSans-116"/>
      <use x="124.402344" xlink:href="#DejaVuSans-110"/>
      <use x="187.78125" xlink:href="#DejaVuSans-101"/>
      <use x="249.304688" xlink:href="#DejaVuSans-115"/>
      <use x="301.404297" xlink:href="#DejaVuSans-115"/>
     </g>
    </g>
   </g>
   <g id="line2d_35">
    <path clip-path="url(#p88e856a1a0)" d="M 73.832727 295.488 
L 75.464157 293.1765 
L 77.095587 291.451959 
L 78.727017 290.986401 
L 80.358447 290.979763 
L 81.989877 289.398934 
L 83.621307 288.571908 
L 85.252736 288.71514 
L 86.884166 289.1653 
L 88.515596 285.727716 
L 90.147026 286.934623 
L 91.778456 286.771675 
L 93.409886 285.425479 
L 95.041316 285.308181 
L 96.672746 285.649811 
L 98.304175 282.01532 
L 99.935605 279.062604 
L 101.567035 278.566082 
L 103.198465 276.023923 
L 104.829895 277.410703 
L 106.461325 276.181671 
L 109.724185 277.247552 
L 111.355614 274.842032 
L 112.987044 278.165275 
L 114.618474 274.739723 
L 116.249904 280.180854 
L 117.881334 278.668391 
L 119.512764 274.740339 
L 121.144194 273.13898 
L 122.775624 275.824199 
L 124.407053 275.248957 
L 126.038483 278.24685 
L 127.669913 274.923879 
L 129.301343 277.6453 
L 130.932773 276.663133 
L 132.564203 274.555567 
L 134.195633 275.128497 
L 135.827063 277.635035 
L 137.458492 271.117982 
L 139.089922 268.191943 
L 140.721352 270.150499 
L 142.352782 269.579472 
L 143.984212 275.595652 
L 145.615642 276.227861 
L 147.247072 275.414963 
L 148.878502 277.186371 
L 150.509931 274.555567 
L 152.141361 269.742622 
L 153.772791 273.352331 
L 155.404221 270.884677 
L 157.035651 266.316458 
L 158.667081 270.782708 
L 160.298511 269.460575 
L 161.929941 274.105407 
L 163.56137 270.831517 
L 165.1928 272.816313 
L 166.82423 265.941144 
L 168.45566 269.235496 
L 170.08709 267.621664 
L 171.71852 268.826259 
L 173.34995 259.57752 
L 174.98138 262.27848 
L 176.61281 261.889705 
L 178.244239 263.854039 
L 179.875669 265.511446 
L 181.507099 266.35038 
L 183.138529 261.910167 
L 184.769959 268.764874 
L 186.401389 263.362956 
L 188.032819 264.140504 
L 189.664249 262.483098 
L 191.295678 265.122671 
L 192.927108 261.009847 
L 194.558538 253.275282 
L 196.189968 262.564945 
L 197.821398 269.440114 
L 201.084258 263.424341 
L 202.715688 264.488355 
L 204.347117 260.436917 
L 205.978547 262.646792 
L 207.609977 263.035567 
L 209.241407 264.815744 
L 210.872837 264.754359 
L 212.504267 268.928568 
L 214.135697 268.15102 
L 215.767127 261.395679 
L 217.398556 261.49833 
L 219.029986 253.029741 
L 220.661416 263.669883 
L 222.292846 265.654679 
L 223.924276 261.398622 
L 225.555706 264.713435 
L 227.187136 258.77951 
L 228.818566 261.337236 
L 230.449995 265.091123 
L 232.081425 264.017734 
L 233.712855 267.537165 
L 235.344285 262.873857 
L 236.975715 264.906351 
L 238.607145 261.766934 
L 240.238575 257.20395 
L 241.870005 258.759048 
L 243.501434 254.891766 
L 245.132864 258.562505 
L 246.764294 253.58221 
L 248.395724 261.807858 
L 250.027154 257.081179 
L 251.658584 264.590664 
L 253.290014 254.175602 
L 254.921444 260.580149 
L 256.552873 263.175808 
L 258.184303 260.035158 
L 259.815733 254.630792 
L 261.447163 250.819865 
L 263.078593 257.347183 
L 264.710023 259.35244 
L 266.341453 254.039371 
L 267.972883 256.262707 
L 269.604312 253.029741 
L 271.235742 257.65411 
L 272.867172 254.789456 
L 274.498602 260.170913 
L 276.130032 255.648853 
L 277.761462 260.565398 
L 279.392892 250.674389 
L 281.024322 254.114217 
L 282.655751 260.048142 
L 284.287181 262.258018 
L 285.918611 257.510877 
L 287.550041 261.664625 
L 289.181471 261.255389 
L 290.812901 262.012476 
L 292.444331 259.311517 
L 294.075761 266.002529 
L 295.70719 258.829398 
L 297.33862 258.747277 
L 298.97005 262.914917 
L 300.60148 258.840895 
L 302.23291 258.615815 
L 303.86434 253.766366 
L 305.49577 255.628391 
L 307.1272 268.94903 
L 308.75863 266.964234 
L 310.390059 259.270593 
L 312.021489 259.525312 
L 315.284349 256.364268 
L 316.915779 253.861079 
L 318.547209 257.163027 
L 320.178639 255.732059 
L 321.810069 250.980296 
L 323.441498 257.449492 
L 325.072928 254.304491 
L 326.704358 263.481716 
L 328.335788 256.670176 
L 329.967218 256.262299 
L 331.598648 254.646224 
L 333.230078 249.797454 
L 334.861508 250.942636 
L 336.492937 254.298373 
L 338.124367 253.316206 
L 339.755797 256.119474 
L 341.387227 251.433719 
L 343.018657 256.710963 
L 344.650087 258.267964 
L 346.281517 248.937378 
L 347.912947 255.014536 
L 349.544376 258.500914 
L 352.807236 252.804661 
L 354.438666 257.33069 
L 356.070096 244.988249 
L 357.701526 259.35244 
L 359.332956 257.776881 
L 360.964386 260.912093 
L 362.595815 256.692405 
L 364.227245 257.858728 
L 365.858675 262.217094 
L 367.490105 260.068604 
L 369.121535 264.120043 
L 370.752965 260.375531 
L 372.384395 260.661996 
L 374.015825 249.735389 
L 375.647254 254.569611 
L 377.278684 248.696187 
L 378.910114 252.845584 
L 380.541544 257.613187 
L 382.172974 252.588204 
L 383.804404 250.98356 
L 385.435834 252.518195 
L 387.067264 252.354501 
L 388.698693 249.77706 
L 390.330123 253.97819 
L 391.961553 251.9592 
L 393.592983 249.634304 
L 395.224413 257.449492 
L 396.855843 258.431659 
L 398.487273 250.817146 
L 398.487273 250.817146 
" style="fill:none;stroke:#0000ff;stroke-linecap:square;stroke-width:1.5;"/>
   </g>
   <g id="line2d_36">
    <path clip-path="url(#p88e856a1a0)" d="M 73.832727 282.405699 
L 77.095587 274.025468 
L 78.727017 270.81422 
L 80.358447 272.392032 
L 81.989877 271.107787 
L 83.621307 268.050077 
L 85.252736 268.086874 
L 86.884166 270.543882 
L 88.515596 264.047038 
L 90.147026 263.287079 
L 91.778456 266.196104 
L 93.409886 260.224214 
L 95.041316 258.788898 
L 96.672746 257.693966 
L 98.304175 251.406033 
L 99.935605 242.650548 
L 101.567035 240.25392 
L 103.198465 235.892622 
L 104.829895 235.67364 
L 106.461325 232.774452 
L 108.092755 233.839388 
L 109.724185 233.356623 
L 111.355614 231.246347 
L 112.987044 237.993225 
L 114.618474 228.136991 
L 116.249904 239.893449 
L 117.881334 237.346174 
L 119.512764 229.574582 
L 121.144194 222.602629 
L 122.775624 231.015373 
L 124.407053 230.042809 
L 126.038483 238.723172 
L 127.669913 229.981076 
L 129.301343 232.699595 
L 130.932773 233.272073 
L 132.564203 226.967005 
L 134.195633 229.113454 
L 135.827063 233.808135 
L 137.458492 217.399682 
L 139.089922 212.345144 
L 140.721352 214.600799 
L 142.352782 214.540073 
L 143.984212 227.382131 
L 145.615642 232.32902 
L 147.247072 228.064385 
L 148.878502 227.591347 
L 150.509931 221.721377 
L 152.141361 211.877172 
L 153.772791 220.98768 
L 155.404221 213.482549 
L 157.035651 206.624899 
L 158.667081 218.067961 
L 160.298511 214.858205 
L 161.929941 221.535209 
L 163.56137 217.057518 
L 165.1928 222.108677 
L 166.82423 210.11054 
L 168.45566 214.522432 
L 170.08709 207.841883 
L 171.71852 210.827941 
L 173.34995 194.925396 
L 174.98138 198.721576 
L 176.61281 199.725728 
L 178.244239 201.500983 
L 179.875669 202.209214 
L 181.507099 203.760314 
L 183.138529 197.348446 
L 184.769959 213.11698 
L 186.401389 199.139945 
L 188.032819 202.657547 
L 189.664249 200.272796 
L 191.295678 203.528271 
L 192.927108 195.132486 
L 194.558538 184.775567 
L 196.189968 199.075916 
L 197.821398 214.410012 
L 199.452828 205.960333 
L 201.084258 200.115403 
L 202.715688 202.224115 
L 204.347117 195.830386 
L 205.978547 200.542325 
L 207.609977 200.385886 
L 209.241407 203.35184 
L 210.872837 204.196871 
L 212.504267 209.448102 
L 214.135697 208.795783 
L 215.767127 196.622984 
L 217.398556 196.834339 
L 219.029986 183.110511 
L 220.661416 198.633579 
L 222.292846 204.06675 
L 223.924276 196.309952 
L 225.555706 203.479813 
L 227.187136 191.66084 
L 228.818566 195.953874 
L 230.449995 201.663807 
L 232.081425 201.95778 
L 233.712855 205.38022 
L 235.344285 198.355208 
L 236.975715 204.365173 
L 238.607145 196.164965 
L 240.238575 190.838576 
L 241.870005 194.413186 
L 243.501434 186.16877 
L 245.132864 191.80206 
L 246.764294 181.396734 
L 248.395724 197.255557 
L 250.027154 190.372271 
L 251.658584 202.488708 
L 253.290014 185.915955 
L 254.921444 198.527159 
L 256.552873 201.579081 
L 258.184303 197.9947 
L 259.815733 183.764476 
L 261.447163 178.934518 
L 263.078593 194.133698 
L 264.710023 192.017686 
L 266.341453 183.992213 
L 267.972883 186.446945 
L 269.604312 181.569969 
L 271.235742 189.898245 
L 272.867172 184.357879 
L 274.498602 193.403012 
L 276.130032 187.552435 
L 277.761462 197.04065 
L 279.392892 180.697299 
L 281.024322 185.479252 
L 282.655751 196.101726 
L 284.287181 200.726458 
L 285.918611 190.432917 
L 287.550041 201.451594 
L 289.181471 197.369628 
L 290.812901 198.43143 
L 292.444331 194.120573 
L 294.075761 205.075527 
L 295.70719 194.020924 
L 297.33862 191.951328 
L 298.97005 200.43695 
L 300.60148 193.768551 
L 302.23291 193.661055 
L 303.86434 185.394686 
L 305.49577 186.943496 
L 307.1272 214.33813 
L 308.75863 208.681254 
L 310.390059 196.025748 
L 312.021489 194.404737 
L 313.652919 193.764585 
L 315.284349 189.682056 
L 316.915779 184.096542 
L 318.547209 191.409257 
L 320.178639 188.063929 
L 321.810069 182.814785 
L 323.441498 189.969849 
L 325.072928 186.778575 
L 326.704358 198.711014 
L 328.335788 190.573315 
L 329.967218 186.841562 
L 331.598648 186.757488 
L 333.230078 179.687849 
L 334.861508 180.470528 
L 336.492937 185.141384 
L 338.124367 183.898606 
L 339.755797 189.676537 
L 341.387227 181.73519 
L 343.018657 191.504951 
L 344.650087 194.984427 
L 346.281517 178.656205 
L 347.912947 184.295143 
L 349.544376 193.13946 
L 351.175806 187.753109 
L 352.807236 182.867963 
L 354.438666 190.527485 
L 356.070096 172.077341 
L 357.701526 194.429943 
L 359.332956 192.165578 
L 360.964386 198.260926 
L 362.595815 188.678589 
L 364.227245 192.760755 
L 365.858675 200.830667 
L 367.490105 198.21117 
L 369.121535 203.667595 
L 370.752965 196.840202 
L 372.384395 195.36009 
L 374.015825 177.827531 
L 375.647254 187.768568 
L 377.278684 178.219063 
L 378.910114 182.322119 
L 380.541544 190.299063 
L 382.172974 183.045209 
L 383.804404 181.187195 
L 385.435834 182.984843 
L 387.067264 181.277238 
L 388.698693 178.196429 
L 390.330123 185.711445 
L 391.961553 178.49461 
L 393.592983 179.039569 
L 395.224413 188.149761 
L 396.855843 192.044333 
L 398.487273 179.615206 
L 398.487273 179.615206 
" style="fill:none;stroke:#008000;stroke-dasharray:9.6,2.4,1.5,2.4;stroke-dashoffset:0;stroke-width:1.5;"/>
   </g>
   <g id="line2d_37">
    <path clip-path="url(#p88e856a1a0)" d="M 73.832727 200.893044 
L 75.464157 213.170131 
L 77.095587 127.230522 
L 78.727017 121.091979 
L 80.358447 139.507609 
L 81.989877 133.369066 
L 83.621307 114.953435 
L 85.252736 139.507609 
L 86.884166 127.230522 
L 88.515596 145.646153 
L 90.147026 108.814892 
L 91.778456 164.061783 
L 93.409886 127.230522 
L 96.672746 127.230522 
L 98.304175 102.676348 
L 99.935605 114.953435 
L 101.567035 114.953435 
L 104.829895 102.676348 
L 106.461325 90.399261 
L 108.092755 96.537805 
L 109.724185 96.537805 
L 111.355614 90.399261 
L 112.987044 78.122174 
L 114.618474 102.676348 
L 116.249904 90.399261 
L 117.881334 84.260718 
L 119.512764 96.537805 
L 121.144194 84.260718 
L 122.775624 96.537805 
L 124.407053 96.537805 
L 126.038483 102.676348 
L 127.669913 102.676348 
L 129.301343 96.537805 
L 130.932773 108.814892 
L 134.195633 84.260718 
L 135.827063 96.537805 
L 137.458492 84.260718 
L 139.089922 96.537805 
L 140.721352 90.399261 
L 142.352782 71.983631 
L 143.984212 71.983631 
L 145.615642 102.676348 
L 147.247072 102.676348 
L 148.878502 71.983631 
L 150.509931 90.399261 
L 152.141361 102.676348 
L 153.772791 71.983631 
L 155.404221 84.260718 
L 157.035651 84.260718 
L 158.667081 102.676348 
L 160.298511 84.260718 
L 161.929941 71.983631 
L 163.56137 90.399261 
L 165.1928 90.399261 
L 166.82423 84.260718 
L 168.45566 84.260718 
L 170.08709 71.983631 
L 171.71852 78.122174 
L 173.34995 78.122174 
L 174.98138 84.260718 
L 176.61281 78.122174 
L 178.244239 84.260718 
L 179.875669 59.706544 
L 181.507099 84.260718 
L 183.138529 84.260718 
L 184.769959 78.122174 
L 186.401389 96.537805 
L 188.032819 84.260718 
L 189.664249 90.399261 
L 191.295678 84.260718 
L 192.927108 71.983631 
L 194.558538 90.399261 
L 196.189968 78.122174 
L 197.821398 78.122174 
L 199.452828 96.537805 
L 201.084258 84.260718 
L 204.347117 84.260718 
L 205.978547 90.399261 
L 210.872837 71.983631 
L 212.504267 90.399261 
L 215.767127 90.399261 
L 219.029986 78.122174 
L 220.661416 53.568 
L 222.292846 78.122174 
L 223.924276 90.399261 
L 225.555706 84.260718 
L 227.187136 90.399261 
L 228.818566 84.260718 
L 232.081425 84.260718 
L 233.712855 78.122174 
L 235.344285 78.122174 
L 238.607145 90.399261 
L 240.238575 71.983631 
L 241.870005 90.399261 
L 243.501434 96.537805 
L 245.132864 65.845087 
L 248.395724 90.399261 
L 250.027154 90.399261 
L 251.658584 84.260718 
L 253.290014 71.983631 
L 254.921444 96.537805 
L 256.552873 96.537805 
L 258.184303 78.122174 
L 259.815733 78.122174 
L 261.447163 65.845087 
L 263.078593 90.399261 
L 264.710023 65.845087 
L 266.341453 65.845087 
L 267.972883 90.399261 
L 269.604312 84.260718 
L 271.235742 84.260718 
L 274.498602 71.983631 
L 276.130032 84.260718 
L 277.761462 71.983631 
L 279.392892 84.260718 
L 282.655751 96.537805 
L 285.918611 71.983631 
L 287.550041 78.122174 
L 289.181471 90.399261 
L 290.812901 53.568 
L 292.444331 84.260718 
L 294.075761 90.399261 
L 295.70719 90.399261 
L 297.33862 71.983631 
L 298.97005 84.260718 
L 300.60148 78.122174 
L 302.23291 90.399261 
L 303.86434 71.983631 
L 305.49577 78.122174 
L 307.1272 90.399261 
L 308.75863 78.122174 
L 310.390059 90.399261 
L 312.021489 84.260718 
L 313.652919 96.537805 
L 315.284349 59.706544 
L 316.915779 65.845087 
L 318.547209 65.845087 
L 320.178639 78.122174 
L 321.810069 78.122174 
L 323.441498 65.845087 
L 325.072928 90.399261 
L 326.704358 78.122174 
L 328.335788 84.260718 
L 329.967218 84.260718 
L 331.598648 90.399261 
L 333.230078 90.399261 
L 334.861508 71.983631 
L 336.492937 84.260718 
L 338.124367 90.399261 
L 339.755797 90.399261 
L 341.387227 59.706544 
L 343.018657 78.122174 
L 344.650087 90.399261 
L 346.281517 78.122174 
L 347.912947 78.122174 
L 349.544376 71.983631 
L 351.175806 71.983631 
L 354.438666 84.260718 
L 357.701526 71.983631 
L 359.332956 90.399261 
L 360.964386 96.537805 
L 362.595815 65.845087 
L 364.227245 78.122174 
L 365.858675 96.537805 
L 367.490105 78.122174 
L 369.121535 90.399261 
L 370.752965 84.260718 
L 372.384395 53.568 
L 374.015825 84.260718 
L 375.647254 90.399261 
L 377.278684 90.399261 
L 378.910114 53.568 
L 380.541544 90.399261 
L 382.172974 84.260718 
L 383.804404 90.399261 
L 385.435834 90.399261 
L 387.067264 65.845087 
L 388.698693 90.399261 
L 390.330123 84.260718 
L 391.961553 59.706544 
L 393.592983 90.399261 
L 395.224413 71.983631 
L 398.487273 71.983631 
L 398.487273 71.983631 
" style="fill:none;stroke:#ff0000;stroke-linecap:square;stroke-width:1.5;"/>
   </g>
   <g id="patch_3">
    <path d="M 57.6 307.584 
L 57.6 41.472 
" style="fill:none;stroke:#000000;stroke-linecap:square;stroke-linejoin:miter;stroke-width:0.8;"/>
   </g>
   <g id="patch_4">
    <path d="M 414.72 307.584 
L 414.72 41.472 
" style="fill:none;stroke:#000000;stroke-linecap:square;stroke-linejoin:miter;stroke-width:0.8;"/>
   </g>
   <g id="patch_5">
    <path d="M 57.6 307.584 
L 414.72 307.584 
" style="fill:none;stroke:#000000;stroke-linecap:square;stroke-linejoin:miter;stroke-width:0.8;"/>
   </g>
   <g id="patch_6">
    <path d="M 57.6 41.472 
L 414.72 41.472 
" style="fill:none;stroke:#000000;stroke-linecap:square;stroke-linejoin:miter;stroke-width:0.8;"/>
   </g>
   <g id="text_20">
    <!-- Population's average and best fitness -->
    <defs>
     <path d="M 19.671875 64.796875 
L 19.671875 37.40625 
L 32.078125 37.40625 
Q 38.96875 37.40625 42.71875 40.96875 
Q 46.484375 44.53125 46.484375 51.125 
Q 46.484375 57.671875 42.71875 61.234375 
Q 38.96875 64.796875 32.078125 64.796875 
z
M 9.8125 72.90625 
L 32.078125 72.90625 
Q 44.34375 72.90625 50.609375 67.359375 
Q 56.890625 61.8125 56.890625 51.125 
Q 56.890625 40.328125 50.609375 34.8125 
Q 44.34375 29.296875 32.078125 29.296875 
L 19.671875 29.296875 
L 19.671875 0 
L 9.8125 0 
z
" id="DejaVuSans-80"/>
     <path d="M 18.109375 8.203125 
L 18.109375 -20.796875 
L 9.078125 -20.796875 
L 9.078125 54.6875 
L 18.109375 54.6875 
L 18.109375 46.390625 
Q 20.953125 51.265625 25.265625 53.625 
Q 29.59375 56 35.59375 56 
Q 45.5625 56 51.78125 48.09375 
Q 58.015625 40.1875 58.015625 27.296875 
Q 58.015625 14.40625 51.78125 6.484375 
Q 45.5625 -1.421875 35.59375 -1.421875 
Q 29.59375 -1.421875 25.265625 0.953125 
Q 20.953125 3.328125 18.109375 8.203125 
z
M 48.6875 27.296875 
Q 48.6875 37.203125 44.609375 42.84375 
Q 40.53125 48.484375 33.40625 48.484375 
Q 26.265625 48.484375 22.1875 42.84375 
Q 18.109375 37.203125 18.109375 27.296875 
Q 18.109375 17.390625 22.1875 11.75 
Q 26.265625 6.109375 33.40625 6.109375 
Q 40.53125 6.109375 44.609375 11.75 
Q 48.6875 17.390625 48.6875 27.296875 
z
" id="DejaVuSans-112"/>
     <path d="M 8.5 21.578125 
L 8.5 54.6875 
L 17.484375 54.6875 
L 17.484375 21.921875 
Q 17.484375 14.15625 20.5 10.265625 
Q 23.53125 6.390625 29.59375 6.390625 
Q 36.859375 6.390625 41.078125 11.03125 
Q 45.3125 15.671875 45.3125 23.6875 
L 45.3125 54.6875 
L 54.296875 54.6875 
L 54.296875 0 
L 45.3125 0 
L 45.3125 8.40625 
Q 42.046875 3.421875 37.71875 1 
Q 33.40625 -1.421875 27.6875 -1.421875 
Q 18.265625 -1.421875 13.375 4.4375 
Q 8.5 10.296875 8.5 21.578125 
z
M 31.109375 56 
z
" id="DejaVuSans-117"/>
     <path d="M 9.421875 75.984375 
L 18.40625 75.984375 
L 18.40625 0 
L 9.421875 0 
z
" id="DejaVuSans-108"/>
     <path d="M 17.921875 72.90625 
L 17.921875 45.796875 
L 9.625 45.796875 
L 9.625 72.90625 
z
" id="DejaVuSans-39"/>
     <path id="DejaVuSans-32"/>
     <path d="M 2.984375 54.6875 
L 12.5 54.6875 
L 29.59375 8.796875 
L 46.6875 54.6875 
L 56.203125 54.6875 
L 35.6875 0 
L 23.484375 0 
z
" id="DejaVuSans-118"/>
     <path d="M 45.40625 27.984375 
Q 45.40625 37.75 41.375 43.109375 
Q 37.359375 48.484375 30.078125 48.484375 
Q 22.859375 48.484375 18.828125 43.109375 
Q 14.796875 37.75 14.796875 27.984375 
Q 14.796875 18.265625 18.828125 12.890625 
Q 22.859375 7.515625 30.078125 7.515625 
Q 37.359375 7.515625 41.375 12.890625 
Q 45.40625 18.265625 45.40625 27.984375 
z
M 54.390625 6.78125 
Q 54.390625 -7.171875 48.1875 -13.984375 
Q 42 -20.796875 29.203125 -20.796875 
Q 24.46875 -20.796875 20.265625 -20.09375 
Q 16.0625 -19.390625 12.109375 -17.921875 
L 12.109375 -9.1875 
Q 16.0625 -11.328125 19.921875 -12.34375 
Q 23.78125 -13.375 27.78125 -13.375 
Q 36.625 -13.375 41.015625 -8.765625 
Q 45.40625 -4.15625 45.40625 5.171875 
L 45.40625 9.625 
Q 42.625 4.78125 38.28125 2.390625 
Q 33.9375 0 27.875 0 
Q 17.828125 0 11.671875 7.65625 
Q 5.515625 15.328125 5.515625 27.984375 
Q 5.515625 40.671875 11.671875 48.328125 
Q 17.828125 56 27.875 56 
Q 33.9375 56 38.28125 53.609375 
Q 42.625 51.21875 45.40625 46.390625 
L 45.40625 54.6875 
L 54.390625 54.6875 
z
" id="DejaVuSans-103"/>
     <path d="M 45.40625 46.390625 
L 45.40625 75.984375 
L 54.390625 75.984375 
L 54.390625 0 
L 45.40625 0 
L 45.40625 8.203125 
Q 42.578125 3.328125 38.25 0.953125 
Q 33.9375 -1.421875 27.875 -1.421875 
Q 17.96875 -1.421875 11.734375 6.484375 
Q 5.515625 14.40625 5.515625 27.296875 
Q 5.515625 40.1875 11.734375 48.09375 
Q 17.96875 56 27.875 56 
Q 33.9375 56 38.25 53.625 
Q 42.578125 51.265625 45.40625 46.390625 
z
M 14.796875 27.296875 
Q 14.796875 17.390625 18.875 11.75 
Q 22.953125 6.109375 30.078125 6.109375 
Q 37.203125 6.109375 41.296875 11.75 
Q 45.40625 17.390625 45.40625 27.296875 
Q 45.40625 37.203125 41.296875 42.84375 
Q 37.203125 48.484375 30.078125 48.484375 
Q 22.953125 48.484375 18.875 42.84375 
Q 14.796875 37.203125 14.796875 27.296875 
z
" id="DejaVuSans-100"/>
     <path d="M 48.6875 27.296875 
Q 48.6875 37.203125 44.609375 42.84375 
Q 40.53125 48.484375 33.40625 48.484375 
Q 26.265625 48.484375 22.1875 42.84375 
Q 18.109375 37.203125 18.109375 27.296875 
Q 18.109375 17.390625 22.1875 11.75 
Q 26.265625 6.109375 33.40625 6.109375 
Q 40.53125 6.109375 44.609375 11.75 
Q 48.6875 17.390625 48.6875 27.296875 
z
M 18.109375 46.390625 
Q 20.953125 51.265625 25.265625 53.625 
Q 29.59375 56 35.59375 56 
Q 45.5625 56 51.78125 48.09375 
Q 58.015625 40.1875 58.015625 27.296875 
Q 58.015625 14.40625 51.78125 6.484375 
Q 45.5625 -1.421875 35.59375 -1.421875 
Q 29.59375 -1.421875 25.265625 0.953125 
Q 20.953125 3.328125 18.109375 8.203125 
L 18.109375 0 
L 9.078125 0 
L 9.078125 75.984375 
L 18.109375 75.984375 
z
" id="DejaVuSans-98"/>
     <path d="M 37.109375 75.984375 
L 37.109375 68.5 
L 28.515625 68.5 
Q 23.6875 68.5 21.796875 66.546875 
Q 19.921875 64.59375 19.921875 59.515625 
L 19.921875 54.6875 
L 34.71875 54.6875 
L 34.71875 47.703125 
L 19.921875 47.703125 
L 19.921875 0 
L 10.890625 0 
L 10.890625 47.703125 
L 2.296875 47.703125 
L 2.296875 54.6875 
L 10.890625 54.6875 
L 10.890625 58.5 
Q 10.890625 67.625 15.140625 71.796875 
Q 19.390625 75.984375 28.609375 75.984375 
z
" id="DejaVuSans-102"/>
    </defs>
    <g transform="translate(123.315 35.472)scale(0.12 -0.12)">
     <use xlink:href="#DejaVuSans-80"/>
     <use x="60.255859" xlink:href="#DejaVuSans-111"/>
     <use x="121.4375" xlink:href="#DejaVuSans-112"/>
     <use x="184.914062" xlink:href="#DejaVuSans-117"/>
     <use x="248.292969" xlink:href="#DejaVuSans-108"/>
     <use x="276.076172" xlink:href="#DejaVuSans-97"/>
     <use x="337.355469" xlink:href="#DejaVuSans-116"/>
     <use x="376.564453" xlink:href="#DejaVuSans-105"/>
     <use x="404.347656" xlink:href="#DejaVuSans-111"/>
     <use x="465.529297" xlink:href="#DejaVuSans-110"/>
     <use x="528.908203" xlink:href="#DejaVuSans-39"/>
     <use x="556.398438" xlink:href="#DejaVuSans-115"/>
     <use x="608.498047" xlink:href="#DejaVuSans-32"/>
     <use x="640.285156" xlink:href="#DejaVuSans-97"/>
     <use x="701.564453" xlink:href="#DejaVuSans-118"/>
     <use x="760.744141" xlink:href="#DejaVuSans-101"/>
     <use x="822.267578" xlink:href="#DejaVuSans-114"/>
     <use x="863.380859" xlink:href="#DejaVuSans-97"/>
     <use x="924.660156" xlink:href="#DejaVuSans-103"/>
     <use x="988.136719" xlink:href="#DejaVuSans-101"/>
     <use x="1049.660156" xlink:href="#DejaVuSans-32"/>
     <use x="1081.447266" xlink:href="#DejaVuSans-97"/>
     <use x="1142.726562" xlink:href="#DejaVuSans-110"/>
     <use x="1206.105469" xlink:href="#DejaVuSans-100"/>
     <use x="1269.582031" xlink:href="#DejaVuSans-32"/>
     <use x="1301.369141" xlink:href="#DejaVuSans-98"/>
     <use x="1364.845703" xlink:href="#DejaVuSans-101"/>
     <use x="1426.369141" xlink:href="#DejaVuSans-115"/>
     <use x="1478.46875" xlink:href="#DejaVuSans-116"/>
     <use x="1517.677734" xlink:href="#DejaVuSans-32"/>
     <use x="1549.464844" xlink:href="#DejaVuSans-102"/>
     <use x="1584.669922" xlink:href="#DejaVuSans-105"/>
     <use x="1612.453125" xlink:href="#DejaVuSans-116"/>
     <use x="1651.662109" xlink:href="#DejaVuSans-110"/>
     <use x="1715.041016" xlink:href="#DejaVuSans-101"/>
     <use x="1776.564453" xlink:href="#DejaVuSans-115"/>
     <use x="1828.664062" xlink:href="#DejaVuSans-115"/>
    </g>
   </g>
   <g id="legend_1">
    <g id="patch_7">
     <path d="M 64.6 198.045187 
L 137.540625 198.045187 
Q 139.540625 198.045187 139.540625 196.045187 
L 139.540625 153.010812 
Q 139.540625 151.010812 137.540625 151.010812 
L 64.6 151.010812 
Q 62.6 151.010812 62.6 153.010812 
L 62.6 196.045187 
Q 62.6 198.045187 64.6 198.045187 
z
" style="fill:#ffffff;opacity:0.8;stroke:#cccccc;stroke-linejoin:miter;"/>
    </g>
    <g id="line2d_38">
     <path d="M 66.6 159.10925 
L 86.6 159.10925 
" style="fill:none;stroke:#0000ff;stroke-linecap:square;stroke-width:1.5;"/>
    </g>
    <g id="line2d_39"/>
    <g id="text_21">
     <!-- average -->
     <g transform="translate(94.6 162.60925)scale(0.1 -0.1)">
      <use xlink:href="#DejaVuSans-97"/>
      <use x="61.279297" xlink:href="#DejaVuSans-118"/>
      <use x="120.458984" xlink:href="#DejaVuSans-101"/>
      <use x="181.982422" xlink:href="#DejaVuSans-114"/>
      <use x="223.095703" xlink:href="#DejaVuSans-97"/>
      <use x="284.375" xlink:href="#DejaVuSans-103"/>
      <use x="347.851562" xlink:href="#DejaVuSans-101"/>
     </g>
    </g>
    <g id="line2d_40">
     <path d="M 66.6 173.787375 
L 86.6 173.787375 
" style="fill:none;stroke:#008000;stroke-dasharray:9.6,2.4,1.5,2.4;stroke-dashoffset:0;stroke-width:1.5;"/>
    </g>
    <g id="line2d_41"/>
    <g id="text_22">
     <!-- +1 sd -->
     <defs>
      <path d="M 46 62.703125 
L 46 35.5 
L 73.1875 35.5 
L 73.1875 27.203125 
L 46 27.203125 
L 46 0 
L 37.796875 0 
L 37.796875 27.203125 
L 10.59375 27.203125 
L 10.59375 35.5 
L 37.796875 35.5 
L 37.796875 62.703125 
z
" id="DejaVuSans-43"/>
     </defs>
     <g transform="translate(94.6 177.287375)scale(0.1 -0.1)">
      <use xlink:href="#DejaVuSans-43"/>
      <use x="83.789062" xlink:href="#DejaVuSans-49"/>
      <use x="147.412109" xlink:href="#DejaVuSans-32"/>
      <use x="179.199219" xlink:href="#DejaVuSans-115"/>
      <use x="231.298828" xlink:href="#DejaVuSans-100"/>
     </g>
    </g>
    <g id="line2d_42">
     <path d="M 66.6 188.4655 
L 86.6 188.4655 
" style="fill:none;stroke:#ff0000;stroke-linecap:square;stroke-width:1.5;"/>
    </g>
    <g id="line2d_43"/>
    <g id="text_23">
     <!-- best -->
     <g transform="translate(94.6 191.9655)scale(0.1 -0.1)">
      <use xlink:href="#DejaVuSans-98"/>
      <use x="63.476562" xlink:href="#DejaVuSans-101"/>
      <use x="125" xlink:href="#DejaVuSans-115"/>
      <use x="177.099609" xlink:href="#DejaVuSans-116"/>
     </g>
    </g>
   </g>
  </g>
 </g>
 <defs>
  <clipPath id="p88e856a1a0">
   <rect height="266.112" width="357.12" x="57.6" y="41.472"/>
  </clipPath>
 </defs>
</svg>
