<?xml version="1.0" encoding="utf-8" standalone="no"?>
<!DOCTYPE svg PUBLIC "-//W3C//DTD SVG 1.1//EN"
  "http://www.w3.org/Graphics/SVG/1.1/DTD/svg11.dtd">
<!-- Created with matplotlib (https://matplotlib.org/) -->
<svg height="345.6pt" version="1.1" viewBox="0 0 460.8 345.6" width="460.8pt" xmlns="http://www.w3.org/2000/svg" xmlns:xlink="http://www.w3.org/1999/xlink">
 <defs>
  <style type="text/css">
*{stroke-linecap:butt;stroke-linejoin:round;}
  </style>
 </defs>
 <g id="figure_1">
  <g id="patch_1">
   <path d="M 0 345.6 
L 460.8 345.6 
L 460.8 0 
L 0 0 
z
" style="fill:#ffffff;"/>
  </g>
  <g id="axes_1">
   <g id="patch_2">
    <path d="M 57.6 307.584 
L 414.72 307.584 
L 414.72 41.472 
L 57.6 41.472 
z
" style="fill:#ffffff;"/>
   </g>
   <g id="matplotlib.axis_1">
    <g id="xtick_1">
     <g id="line2d_1">
      <path clip-path="url(#p19caafe647)" d="M 73.832727 307.584 
L 73.832727 41.472 
" style="fill:none;stroke:#b0b0b0;stroke-linecap:square;stroke-width:0.8;"/>
     </g>
     <g id="line2d_2">
      <defs>
       <path d="M 0 0 
L 0 3.5 
" id="m2765248642" style="stroke:#000000;stroke-width:0.8;"/>
      </defs>
      <g>
       <use style="stroke:#000000;stroke-width:0.8;" x="73.832727" xlink:href="#m2765248642" y="307.584"/>
      </g>
     </g>
     <g id="text_1">
      <!-- 0 -->
      <defs>
       <path d="M 31.78125 66.40625 
Q 24.171875 66.40625 20.328125 58.90625 
Q 16.5 51.421875 16.5 36.375 
Q 16.5 21.390625 20.328125 13.890625 
Q 24.171875 6.390625 31.78125 6.390625 
Q 39.453125 6.390625 43.28125 13.890625 
Q 47.125 21.390625 47.125 36.375 
Q 47.125 51.421875 43.28125 58.90625 
Q 39.453125 66.40625 31.78125 66.40625 
z
M 31.78125 74.21875 
Q 44.046875 74.21875 50.515625 64.515625 
Q 56.984375 54.828125 56.984375 36.375 
Q 56.984375 17.96875 50.515625 8.265625 
Q 44.046875 -1.421875 31.78125 -1.421875 
Q 19.53125 -1.421875 13.0625 8.265625 
Q 6.59375 17.96875 6.59375 36.375 
Q 6.59375 54.828125 13.0625 64.515625 
Q 19.53125 74.21875 31.78125 74.21875 
z
" id="DejaVuSans-48"/>
      </defs>
      <g transform="translate(70.651477 322.182437)scale(0.1 -0.1)">
       <use xlink:href="#DejaVuSans-48"/>
      </g>
     </g>
    </g>
    <g id="xtick_2">
     <g id="line2d_3">
      <path clip-path="url(#p19caafe647)" d="M 138.893758 307.584 
L 138.893758 41.472 
" style="fill:none;stroke:#b0b0b0;stroke-linecap:square;stroke-width:0.8;"/>
     </g>
     <g id="line2d_4">
      <g>
       <use style="stroke:#000000;stroke-width:0.8;" x="138.893758" xlink:href="#m2765248642" y="307.584"/>
      </g>
     </g>
     <g id="text_2">
      <!-- 100 -->
      <defs>
       <path d="M 12.40625 8.296875 
L 28.515625 8.296875 
L 28.515625 63.921875 
L 10.984375 60.40625 
L 10.984375 69.390625 
L 28.421875 72.90625 
L 38.28125 72.90625 
L 38.28125 8.296875 
L 54.390625 8.296875 
L 54.390625 0 
L 12.40625 0 
z
" id="DejaVuSans-49"/>
      </defs>
      <g transform="translate(129.350008 322.182437)scale(0.1 -0.1)">
       <use xlink:href="#DejaVuSans-49"/>
       <use x="63.623047" xlink:href="#DejaVuSans-48"/>
       <use x="127.246094" xlink:href="#DejaVuSans-48"/>
      </g>
     </g>
    </g>
    <g id="xtick_3">
     <g id="line2d_5">
      <path clip-path="url(#p19caafe647)" d="M 203.95479 307.584 
L 203.95479 41.472 
" style="fill:none;stroke:#b0b0b0;stroke-linecap:square;stroke-width:0.8;"/>
     </g>
     <g id="line2d_6">
      <g>
       <use style="stroke:#000000;stroke-width:0.8;" x="203.95479" xlink:href="#m2765248642" y="307.584"/>
      </g>
     </g>
     <g id="text_3">
      <!-- 200 -->
      <defs>
       <path d="M 19.1875 8.296875 
L 53.609375 8.296875 
L 53.609375 0 
L 7.328125 0 
L 7.328125 8.296875 
Q 12.9375 14.109375 22.625 23.890625 
Q 32.328125 33.6875 34.8125 36.53125 
Q 39.546875 41.84375 41.421875 45.53125 
Q 43.3125 49.21875 43.3125 52.78125 
Q 43.3125 58.59375 39.234375 62.25 
Q 35.15625 65.921875 28.609375 65.921875 
Q 23.96875 65.921875 18.8125 64.3125 
Q 13.671875 62.703125 7.8125 59.421875 
L 7.8125 69.390625 
Q 13.765625 71.78125 18.9375 73 
Q 24.125 74.21875 28.421875 74.21875 
Q 39.75 74.21875 46.484375 68.546875 
Q 53.21875 62.890625 53.21875 53.421875 
Q 53.21875 48.921875 51.53125 44.890625 
Q 49.859375 40.875 45.40625 35.40625 
Q 44.1875 33.984375 37.640625 27.21875 
Q 31.109375 20.453125 19.1875 8.296875 
z
" id="DejaVuSans-50"/>
      </defs>
      <g transform="translate(194.41104 322.182437)scale(0.1 -0.1)">
       <use xlink:href="#DejaVuSans-50"/>
       <use x="63.623047" xlink:href="#DejaVuSans-48"/>
       <use x="127.246094" xlink:href="#DejaVuSans-48"/>
      </g>
     </g>
    </g>
    <g id="xtick_4">
     <g id="line2d_7">
      <path clip-path="url(#p19caafe647)" d="M 269.015821 307.584 
L 269.015821 41.472 
" style="fill:none;stroke:#b0b0b0;stroke-linecap:square;stroke-width:0.8;"/>
     </g>
     <g id="line2d_8">
      <g>
       <use style="stroke:#000000;stroke-width:0.8;" x="269.015821" xlink:href="#m2765248642" y="307.584"/>
      </g>
     </g>
     <g id="text_4">
      <!-- 300 -->
      <defs>
       <path d="M 40.578125 39.3125 
Q 47.65625 37.796875 51.625 33 
Q 55.609375 28.21875 55.609375 21.1875 
Q 55.609375 10.40625 48.1875 4.484375 
Q 40.765625 -1.421875 27.09375 -1.421875 
Q 22.515625 -1.421875 17.65625 -0.515625 
Q 12.796875 0.390625 7.625 2.203125 
L 7.625 11.71875 
Q 11.71875 9.328125 16.59375 8.109375 
Q 21.484375 6.890625 26.8125 6.890625 
Q 36.078125 6.890625 40.9375 10.546875 
Q 45.796875 14.203125 45.796875 21.1875 
Q 45.796875 27.640625 41.28125 31.265625 
Q 36.765625 34.90625 28.71875 34.90625 
L 20.21875 34.90625 
L 20.21875 43.015625 
L 29.109375 43.015625 
Q 36.375 43.015625 40.234375 45.921875 
Q 44.09375 48.828125 44.09375 54.296875 
Q 44.09375 59.90625 40.109375 62.90625 
Q 36.140625 65.921875 28.71875 65.921875 
Q 24.65625 65.921875 20.015625 65.03125 
Q 15.375 64.15625 9.8125 62.3125 
L 9.8125 71.09375 
Q 15.4375 72.65625 20.34375 73.4375 
Q 25.25 74.21875 29.59375 74.21875 
Q 40.828125 74.21875 47.359375 69.109375 
Q 53.90625 64.015625 53.90625 55.328125 
Q 53.90625 49.265625 50.4375 45.09375 
Q 46.96875 40.921875 40.578125 39.3125 
z
" id="DejaVuSans-51"/>
      </defs>
      <g transform="translate(259.472071 322.182437)scale(0.1 -0.1)">
       <use xlink:href="#DejaVuSans-51"/>
       <use x="63.623047" xlink:href="#DejaVuSans-48"/>
       <use x="127.246094" xlink:href="#DejaVuSans-48"/>
      </g>
     </g>
    </g>
    <g id="xtick_5">
     <g id="line2d_9">
      <path clip-path="url(#p19caafe647)" d="M 334.076852 307.584 
L 334.076852 41.472 
" style="fill:none;stroke:#b0b0b0;stroke-linecap:square;stroke-width:0.8;"/>
     </g>
     <g id="line2d_10">
      <g>
       <use style="stroke:#000000;stroke-width:0.8;" x="334.076852" xlink:href="#m2765248642" y="307.584"/>
      </g>
     </g>
     <g id="text_5">
      <!-- 400 -->
      <defs>
       <path d="M 37.796875 64.3125 
L 12.890625 25.390625 
L 37.796875 25.390625 
z
M 35.203125 72.90625 
L 47.609375 72.90625 
L 47.609375 25.390625 
L 58.015625 25.390625 
L 58.015625 17.1875 
L 47.609375 17.1875 
L 47.609375 0 
L 37.796875 0 
L 37.796875 17.1875 
L 4.890625 17.1875 
L 4.890625 26.703125 
z
" id="DejaVuSans-52"/>
      </defs>
      <g transform="translate(324.533102 322.182437)scale(0.1 -0.1)">
       <use xlink:href="#DejaVuSans-52"/>
       <use x="63.623047" xlink:href="#DejaVuSans-48"/>
       <use x="127.246094" xlink:href="#DejaVuSans-48"/>
      </g>
     </g>
    </g>
    <g id="xtick_6">
     <g id="line2d_11">
      <path clip-path="url(#p19caafe647)" d="M 399.137883 307.584 
L 399.137883 41.472 
" style="fill:none;stroke:#b0b0b0;stroke-linecap:square;stroke-width:0.8;"/>
     </g>
     <g id="line2d_12">
      <g>
       <use style="stroke:#000000;stroke-width:0.8;" x="399.137883" xlink:href="#m2765248642" y="307.584"/>
      </g>
     </g>
     <g id="text_6">
      <!-- 500 -->
      <defs>
       <path d="M 10.796875 72.90625 
L 49.515625 72.90625 
L 49.515625 64.59375 
L 19.828125 64.59375 
L 19.828125 46.734375 
Q 21.96875 47.46875 24.109375 47.828125 
Q 26.265625 48.1875 28.421875 48.1875 
Q 40.625 48.1875 47.75 41.5 
Q 54.890625 34.8125 54.890625 23.390625 
Q 54.890625 11.625 47.5625 5.09375 
Q 40.234375 -1.421875 26.90625 -1.421875 
Q 22.3125 -1.421875 17.546875 -0.640625 
Q 12.796875 0.140625 7.71875 1.703125 
L 7.71875 11.625 
Q 12.109375 9.234375 16.796875 8.0625 
Q 21.484375 6.890625 26.703125 6.890625 
Q 35.15625 6.890625 40.078125 11.328125 
Q 45.015625 15.765625 45.015625 23.390625 
Q 45.015625 31 40.078125 35.4375 
Q 35.15625 39.890625 26.703125 39.890625 
Q 22.75 39.890625 18.8125 39.015625 
Q 14.890625 38.140625 10.796875 36.28125 
z
" id="DejaVuSans-53"/>
      </defs>
      <g transform="translate(389.594133 322.182437)scale(0.1 -0.1)">
       <use xlink:href="#DejaVuSans-53"/>
       <use x="63.623047" xlink:href="#DejaVuSans-48"/>
       <use x="127.246094" xlink:href="#DejaVuSans-48"/>
      </g>
     </g>
    </g>
    <g id="text_7">
     <!-- Generations -->
     <defs>
      <path d="M 59.515625 10.40625 
L 59.515625 29.984375 
L 43.40625 29.984375 
L 43.40625 38.09375 
L 69.28125 38.09375 
L 69.28125 6.78125 
Q 63.578125 2.734375 56.6875 0.65625 
Q 49.8125 -1.421875 42 -1.421875 
Q 24.90625 -1.421875 15.25 8.5625 
Q 5.609375 18.5625 5.609375 36.375 
Q 5.609375 54.25 15.25 64.234375 
Q 24.90625 74.21875 42 74.21875 
Q 49.125 74.21875 55.546875 72.453125 
Q 61.96875 70.703125 67.390625 67.28125 
L 67.390625 56.78125 
Q 61.921875 61.421875 55.765625 63.765625 
Q 49.609375 66.109375 42.828125 66.109375 
Q 29.4375 66.109375 22.71875 58.640625 
Q 16.015625 51.171875 16.015625 36.375 
Q 16.015625 21.625 22.71875 14.15625 
Q 29.4375 6.6875 42.828125 6.6875 
Q 48.046875 6.6875 52.140625 7.59375 
Q 56.25 8.5 59.515625 10.40625 
z
" id="DejaVuSans-71"/>
      <path d="M 56.203125 29.59375 
L 56.203125 25.203125 
L 14.890625 25.203125 
Q 15.484375 15.921875 20.484375 11.0625 
Q 25.484375 6.203125 34.421875 6.203125 
Q 39.59375 6.203125 44.453125 7.46875 
Q 49.3125 8.734375 54.109375 11.28125 
L 54.109375 2.78125 
Q 49.265625 0.734375 44.1875 -0.34375 
Q 39.109375 -1.421875 33.890625 -1.421875 
Q 20.796875 -1.421875 13.15625 6.1875 
Q 5.515625 13.8125 5.515625 26.8125 
Q 5.515625 40.234375 12.765625 48.109375 
Q 20.015625 56 32.328125 56 
Q 43.359375 56 49.78125 48.890625 
Q 56.203125 41.796875 56.203125 29.59375 
z
M 47.21875 32.234375 
Q 47.125 39.59375 43.09375 43.984375 
Q 39.0625 48.390625 32.421875 48.390625 
Q 24.90625 48.390625 20.390625 44.140625 
Q 15.875 39.890625 15.1875 32.171875 
z
" id="DejaVuSans-101"/>
      <path d="M 54.890625 33.015625 
L 54.890625 0 
L 45.90625 0 
L 45.90625 32.71875 
Q 45.90625 40.484375 42.875 44.328125 
Q 39.84375 48.1875 33.796875 48.1875 
Q 26.515625 48.1875 22.3125 43.546875 
Q 18.109375 38.921875 18.109375 30.90625 
L 18.109375 0 
L 9.078125 0 
L 9.078125 54.6875 
L 18.109375 54.6875 
L 18.109375 46.1875 
Q 21.34375 51.125 25.703125 53.5625 
Q 30.078125 56 35.796875 56 
Q 45.21875 56 50.046875 50.171875 
Q 54.890625 44.34375 54.890625 33.015625 
z
" id="DejaVuSans-110"/>
      <path d="M 41.109375 46.296875 
Q 39.59375 47.171875 37.8125 47.578125 
Q 36.03125 48 33.890625 48 
Q 26.265625 48 22.1875 43.046875 
Q 18.109375 38.09375 18.109375 28.8125 
L 18.109375 0 
L 9.078125 0 
L 9.078125 54.6875 
L 18.109375 54.6875 
L 18.109375 46.1875 
Q 20.953125 51.171875 25.484375 53.578125 
Q 30.03125 56 36.53125 56 
Q 37.453125 56 38.578125 55.875 
Q 39.703125 55.765625 41.0625 55.515625 
z
" id="DejaVuSans-114"/>
      <path d="M 34.28125 27.484375 
Q 23.390625 27.484375 19.1875 25 
Q 14.984375 22.515625 14.984375 16.5 
Q 14.984375 11.71875 18.140625 8.90625 
Q 21.296875 6.109375 26.703125 6.109375 
Q 34.1875 6.109375 38.703125 11.40625 
Q 43.21875 16.703125 43.21875 25.484375 
L 43.21875 27.484375 
z
M 52.203125 31.203125 
L 52.203125 0 
L 43.21875 0 
L 43.21875 8.296875 
Q 40.140625 3.328125 35.546875 0.953125 
Q 30.953125 -1.421875 24.3125 -1.421875 
Q 15.921875 -1.421875 10.953125 3.296875 
Q 6 8.015625 6 15.921875 
Q 6 25.140625 12.171875 29.828125 
Q 18.359375 34.515625 30.609375 34.515625 
L 43.21875 34.515625 
L 43.21875 35.40625 
Q 43.21875 41.609375 39.140625 45 
Q 35.0625 48.390625 27.6875 48.390625 
Q 23 48.390625 18.546875 47.265625 
Q 14.109375 46.140625 10.015625 43.890625 
L 10.015625 52.203125 
Q 14.9375 54.109375 19.578125 55.046875 
Q 24.21875 56 28.609375 56 
Q 40.484375 56 46.34375 49.84375 
Q 52.203125 43.703125 52.203125 31.203125 
z
" id="DejaVuSans-97"/>
      <path d="M 18.3125 70.21875 
L 18.3125 54.6875 
L 36.8125 54.6875 
L 36.8125 47.703125 
L 18.3125 47.703125 
L 18.3125 18.015625 
Q 18.3125 11.328125 20.140625 9.421875 
Q 21.96875 7.515625 27.59375 7.515625 
L 36.8125 7.515625 
L 36.8125 0 
L 27.59375 0 
Q 17.1875 0 13.234375 3.875 
Q 9.28125 7.765625 9.28125 18.015625 
L 9.28125 47.703125 
L 2.6875 47.703125 
L 2.6875 54.6875 
L 9.28125 54.6875 
L 9.28125 70.21875 
z
" id="DejaVuSans-116"/>
      <path d="M 9.421875 54.6875 
L 18.40625 54.6875 
L 18.40625 0 
L 9.421875 0 
z
M 9.421875 75.984375 
L 18.40625 75.984375 
L 18.40625 64.59375 
L 9.421875 64.59375 
z
" id="DejaVuSans-105"/>
      <path d="M 30.609375 48.390625 
Q 23.390625 48.390625 19.1875 42.75 
Q 14.984375 37.109375 14.984375 27.296875 
Q 14.984375 17.484375 19.15625 11.84375 
Q 23.34375 6.203125 30.609375 6.203125 
Q 37.796875 6.203125 41.984375 11.859375 
Q 46.1875 17.53125 46.1875 27.296875 
Q 46.1875 37.015625 41.984375 42.703125 
Q 37.796875 48.390625 30.609375 48.390625 
z
M 30.609375 56 
Q 42.328125 56 49.015625 48.375 
Q 55.71875 40.765625 55.71875 27.296875 
Q 55.71875 13.875 49.015625 6.21875 
Q 42.328125 -1.421875 30.609375 -1.421875 
Q 18.84375 -1.421875 12.171875 6.21875 
Q 5.515625 13.875 5.515625 27.296875 
Q 5.515625 40.765625 12.171875 48.375 
Q 18.84375 56 30.609375 56 
z
" id="DejaVuSans-111"/>
      <path d="M 44.28125 53.078125 
L 44.28125 44.578125 
Q 40.484375 46.53125 36.375 47.5 
Q 32.28125 48.484375 27.875 48.484375 
Q 21.1875 48.484375 17.84375 46.4375 
Q 14.5 44.390625 14.5 40.28125 
Q 14.5 37.15625 16.890625 35.375 
Q 19.28125 33.59375 26.515625 31.984375 
L 29.59375 31.296875 
Q 39.15625 29.25 43.1875 25.515625 
Q 47.21875 21.78125 47.21875 15.09375 
Q 47.21875 7.46875 41.1875 3.015625 
Q 35.15625 -1.421875 24.609375 -1.421875 
Q 20.21875 -1.421875 15.453125 -0.5625 
Q 10.6875 0.296875 5.421875 2 
L 5.421875 11.28125 
Q 10.40625 8.6875 15.234375 7.390625 
Q 20.0625 6.109375 24.8125 6.109375 
Q 31.15625 6.109375 34.5625 8.28125 
Q 37.984375 10.453125 37.984375 14.40625 
Q 37.984375 18.0625 35.515625 20.015625 
Q 33.0625 21.96875 24.703125 23.78125 
L 21.578125 24.515625 
Q 13.234375 26.265625 9.515625 29.90625 
Q 5.8125 33.546875 5.8125 39.890625 
Q 5.8125 47.609375 11.28125 51.796875 
Q 16.75 56 26.8125 56 
Q 31.78125 56 36.171875 55.265625 
Q 40.578125 54.546875 44.28125 53.078125 
z
" id="DejaVuSans-115"/>
     </defs>
     <g transform="translate(205.662344 335.860562)scale(0.1 -0.1)">
      <use xlink:href="#DejaVuSans-71"/>
      <use x="77.490234" xlink:href="#DejaVuSans-101"/>
      <use x="139.013672" xlink:href="#DejaVuSans-110"/>
      <use x="202.392578" xlink:href="#DejaVuSans-101"/>
      <use x="263.916016" xlink:href="#DejaVuSans-114"/>
      <use x="305.029297" xlink:href="#DejaVuSans-97"/>
      <use x="366.308594" xlink:href="#DejaVuSans-116"/>
      <use x="405.517578" xlink:href="#DejaVuSans-105"/>
      <use x="433.300781" xlink:href="#DejaVuSans-111"/>
      <use x="494.482422" xlink:href="#DejaVuSans-110"/>
      <use x="557.861328" xlink:href="#DejaVuSans-115"/>
     </g>
    </g>
   </g>
   <g id="matplotlib.axis_2">
    <g id="ytick_1">
     <g id="line2d_13">
      <path clip-path="url(#p19caafe647)" d="M 57.6 296.662872 
L 414.72 296.662872 
" style="fill:none;stroke:#b0b0b0;stroke-linecap:square;stroke-width:0.8;"/>
     </g>
     <g id="line2d_14">
      <defs>
       <path d="M 0 0 
L -3.5 0 
" id="mebc087361a" style="stroke:#000000;stroke-width:0.8;"/>
      </defs>
      <g>
       <use style="stroke:#000000;stroke-width:0.8;" x="57.6" xlink:href="#mebc087361a" y="296.662872"/>
      </g>
     </g>
     <g id="text_8">
      <!-- 15 -->
      <g transform="translate(37.875 300.462091)scale(0.1 -0.1)">
       <use xlink:href="#DejaVuSans-49"/>
       <use x="63.623047" xlink:href="#DejaVuSans-53"/>
      </g>
     </g>
    </g>
    <g id="ytick_2">
     <g id="line2d_15">
      <path clip-path="url(#p19caafe647)" d="M 57.6 261.935033 
L 414.72 261.935033 
" style="fill:none;stroke:#b0b0b0;stroke-linecap:square;stroke-width:0.8;"/>
     </g>
     <g id="line2d_16">
      <g>
       <use style="stroke:#000000;stroke-width:0.8;" x="57.6" xlink:href="#mebc087361a" y="261.935033"/>
      </g>
     </g>
     <g id="text_9">
      <!-- 20 -->
      <g transform="translate(37.875 265.734252)scale(0.1 -0.1)">
       <use xlink:href="#DejaVuSans-50"/>
       <use x="63.623047" xlink:href="#DejaVuSans-48"/>
      </g>
     </g>
    </g>
    <g id="ytick_3">
     <g id="line2d_17">
      <path clip-path="url(#p19caafe647)" d="M 57.6 227.207194 
L 414.72 227.207194 
" style="fill:none;stroke:#b0b0b0;stroke-linecap:square;stroke-width:0.8;"/>
     </g>
     <g id="line2d_18">
      <g>
       <use style="stroke:#000000;stroke-width:0.8;" x="57.6" xlink:href="#mebc087361a" y="227.207194"/>
      </g>
     </g>
     <g id="text_10">
      <!-- 25 -->
      <g transform="translate(37.875 231.006413)scale(0.1 -0.1)">
       <use xlink:href="#DejaVuSans-50"/>
       <use x="63.623047" xlink:href="#DejaVuSans-53"/>
      </g>
     </g>
    </g>
    <g id="ytick_4">
     <g id="line2d_19">
      <path clip-path="url(#p19caafe647)" d="M 57.6 192.479356 
L 414.72 192.479356 
" style="fill:none;stroke:#b0b0b0;stroke-linecap:square;stroke-width:0.8;"/>
     </g>
     <g id="line2d_20">
      <g>
       <use style="stroke:#000000;stroke-width:0.8;" x="57.6" xlink:href="#mebc087361a" y="192.479356"/>
      </g>
     </g>
     <g id="text_11">
      <!-- 30 -->
      <g transform="translate(37.875 196.278574)scale(0.1 -0.1)">
       <use xlink:href="#DejaVuSans-51"/>
       <use x="63.623047" xlink:href="#DejaVuSans-48"/>
      </g>
     </g>
    </g>
    <g id="ytick_5">
     <g id="line2d_21">
      <path clip-path="url(#p19caafe647)" d="M 57.6 157.751517 
L 414.72 157.751517 
" style="fill:none;stroke:#b0b0b0;stroke-linecap:square;stroke-width:0.8;"/>
     </g>
     <g id="line2d_22">
      <g>
       <use style="stroke:#000000;stroke-width:0.8;" x="57.6" xlink:href="#mebc087361a" y="157.751517"/>
      </g>
     </g>
     <g id="text_12">
      <!-- 35 -->
      <g transform="translate(37.875 161.550735)scale(0.1 -0.1)">
       <use xlink:href="#DejaVuSans-51"/>
       <use x="63.623047" xlink:href="#DejaVuSans-53"/>
      </g>
     </g>
    </g>
    <g id="ytick_6">
     <g id="line2d_23">
      <path clip-path="url(#p19caafe647)" d="M 57.6 123.023678 
L 414.72 123.023678 
" style="fill:none;stroke:#b0b0b0;stroke-linecap:square;stroke-width:0.8;"/>
     </g>
     <g id="line2d_24">
      <g>
       <use style="stroke:#000000;stroke-width:0.8;" x="57.6" xlink:href="#mebc087361a" y="123.023678"/>
      </g>
     </g>
     <g id="text_13">
      <!-- 40 -->
      <g transform="translate(37.875 126.822897)scale(0.1 -0.1)">
       <use xlink:href="#DejaVuSans-52"/>
       <use x="63.623047" xlink:href="#DejaVuSans-48"/>
      </g>
     </g>
    </g>
    <g id="ytick_7">
     <g id="line2d_25">
      <path clip-path="url(#p19caafe647)" d="M 57.6 88.295839 
L 414.72 88.295839 
" style="fill:none;stroke:#b0b0b0;stroke-linecap:square;stroke-width:0.8;"/>
     </g>
     <g id="line2d_26">
      <g>
       <use style="stroke:#000000;stroke-width:0.8;" x="57.6" xlink:href="#mebc087361a" y="88.295839"/>
      </g>
     </g>
     <g id="text_14">
      <!-- 45 -->
      <g transform="translate(37.875 92.095058)scale(0.1 -0.1)">
       <use xlink:href="#DejaVuSans-52"/>
       <use x="63.623047" xlink:href="#DejaVuSans-53"/>
      </g>
     </g>
    </g>
    <g id="ytick_8">
     <g id="line2d_27">
      <path clip-path="url(#p19caafe647)" d="M 57.6 53.568 
L 414.72 53.568 
" style="fill:none;stroke:#b0b0b0;stroke-linecap:square;stroke-width:0.8;"/>
     </g>
     <g id="line2d_28">
      <g>
       <use style="stroke:#000000;stroke-width:0.8;" x="57.6" xlink:href="#mebc087361a" y="53.568"/>
      </g>
     </g>
     <g id="text_15">
      <!-- 50 -->
      <g transform="translate(37.875 57.367219)scale(0.1 -0.1)">
       <use xlink:href="#DejaVuSans-53"/>
       <use x="63.623047" xlink:href="#DejaVuSans-48"/>
      </g>
     </g>
    </g>
    <g id="text_16">
     <!-- Fitness -->
     <defs>
      <path d="M 9.8125 72.90625 
L 51.703125 72.90625 
L 51.703125 64.59375 
L 19.671875 64.59375 
L 19.671875 43.109375 
L 48.578125 43.109375 
L 48.578125 34.8125 
L 19.671875 34.8125 
L 19.671875 0 
L 9.8125 0 
z
" id="DejaVuSans-70"/>
     </defs>
     <g transform="translate(31.795312 192.202219)rotate(-90)scale(0.1 -0.1)">
      <use xlink:href="#DejaVuSans-70"/>
      <use x="57.410156" xlink:href="#DejaVuSans-105"/>
      <use x="85.193359" xlink:href="#DejaVuSans-116"/>
      <use x="124.402344" xlink:href="#DejaVuSans-110"/>
      <use x="187.78125" xlink:href="#DejaVuSans-101"/>
      <use x="249.304688" xlink:href="#DejaVuSans-115"/>
      <use x="301.404297" xlink:href="#DejaVuSans-115"/>
     </g>
    </g>
   </g>
   <g id="line2d_29">
    <path clip-path="url(#p19caafe647)" d="M 73.832727 291.175874 
L 74.483338 290.27295 
L 75.133948 292.142191 
L 75.784558 292.946993 
L 76.435169 294.330275 
L 77.085779 292.067049 
L 77.736389 291.509709 
L 78.386999 295.488 
L 79.03761 291.436332 
L 79.68822 293.250112 
L 80.33883 294.536328 
L 81.640051 292.450272 
L 82.290661 293.80497 
L 82.941272 292.174704 
L 83.591882 294.101264 
L 84.242492 293.434405 
L 84.893103 293.216069 
L 85.543713 292.786684 
L 86.194323 291.492863 
L 86.844934 292.96548 
L 87.495544 292.287164 
L 88.146154 291.325566 
L 88.796764 292.838522 
L 89.447375 293.092388 
L 90.097985 294.720912 
L 90.748595 291.159169 
L 91.399206 291.479873 
L 92.049816 293.408777 
L 92.700426 293.947312 
L 93.351037 292.990901 
L 94.001647 291.639893 
L 94.652257 292.809983 
L 95.302868 292.254099 
L 95.953478 293.067313 
L 96.604088 293.29324 
L 97.254698 294.520458 
L 97.905309 294.341866 
L 98.555919 292.367359 
L 99.206529 292.228794 
L 99.85714 295.148425 
L 100.50775 293.408777 
L 101.15836 290.932779 
L 101.808971 293.14657 
L 102.459581 293.293753 
L 103.110191 292.211473 
L 103.760802 292.363235 
L 104.411412 293.311636 
L 105.062022 291.806197 
L 105.712633 293.815189 
L 106.363243 292.326212 
L 107.013853 292.852336 
L 107.664463 292.055588 
L 108.315074 290.396194 
L 108.965684 291.684345 
L 109.616294 290.394497 
L 110.266905 292.981721 
L 110.917515 292.808082 
L 111.568125 293.15536 
L 112.218736 292.946993 
L 112.869346 292.999085 
L 114.170567 292.738626 
L 114.821177 292.246115 
L 115.471787 293.693642 
L 116.122398 293.711006 
L 116.773008 293.294272 
L 117.423618 292.599715 
L 118.074228 294.21456 
L 118.724839 292.955088 
L 119.375449 293.668793 
L 120.026059 293.658914 
L 120.67667 291.366877 
L 121.32728 293.520003 
L 121.97789 290.75914 
L 122.628501 292.825446 
L 123.279111 293.224816 
L 123.929721 293.172724 
L 124.580332 291.87043 
L 125.230942 291.366877 
L 125.881552 292.825446 
L 126.532163 291.887794 
L 127.182773 291.662063 
L 127.833383 294.21456 
L 128.483993 293.329 
L 129.134604 294.249287 
L 129.785214 290.967507 
L 130.435824 292.061434 
L 131.086435 291.002234 
L 131.737045 292.808082 
L 132.387655 291.349513 
L 133.038266 294.318743 
L 133.688876 292.460804 
L 134.339486 292.599715 
L 134.990097 292.165617 
L 135.640707 292.877538 
L 136.291317 293.311636 
L 136.941927 294.631294 
L 137.592538 294.648658 
L 138.243148 290.654956 
L 138.893758 293.763098 
L 139.544369 294.804933 
L 140.845589 290.984871 
L 141.4962 294.04092 
L 142.14681 293.103269 
L 142.79742 291.679427 
L 143.448031 294.353471 
L 144.098641 290.307678 
L 144.749251 292.339256 
L 145.399862 293.919373 
L 146.050472 291.974614 
L 146.701082 292.252437 
L 147.351692 291.297421 
L 148.002303 291.714155 
L 148.652913 290.689684 
L 149.303523 293.884645 
L 149.954134 291.783611 
L 150.604744 293.467911 
L 151.255354 293.884645 
L 151.905965 292.096161 
L 153.207185 292.113525 
L 153.857796 292.200345 
L 154.508406 292.564987 
L 155.159016 292.321892 
L 155.809627 290.950143 
L 156.460237 291.106418 
L 157.110847 290.932779 
L 157.761457 293.433183 
L 158.412068 291.141146 
L 159.713288 291.609972 
L 160.363899 292.651807 
L 161.014509 292.426076 
L 161.665119 290.498681 
L 162.31573 293.120633 
L 163.61695 293.72837 
L 164.267561 291.106418 
L 164.918171 294.006192 
L 166.219392 289.977763 
L 166.870002 292.148253 
L 167.520612 292.946993 
L 168.171222 293.502639 
L 168.821833 294.683385 
L 169.472443 292.304528 
L 170.123053 292.495531 
L 170.773664 292.564987 
L 171.424274 290.5855 
L 172.074884 292.130889 
L 172.725495 293.137997 
L 173.376105 291.714155 
L 174.026715 292.078797 
L 174.677326 293.520003 
L 175.327936 292.999085 
L 175.978546 293.537367 
L 176.629156 292.009342 
L 177.279767 290.793867 
L 177.930377 292.148253 
L 178.580987 290.481317 
L 179.231598 290.5855 
L 179.882208 293.016449 
L 181.183429 294.457654 
L 181.834039 292.391348 
L 182.484649 292.547623 
L 183.13526 291.974614 
L 183.78587 291.939886 
L 184.43648 293.624186 
L 185.087091 291.505788 
L 185.737701 292.599715 
L 186.388311 293.15536 
L 187.038921 294.249287 
L 187.689532 293.537367 
L 188.340142 292.478168 
L 188.990752 290.950143 
L 189.641363 292.373984 
L 190.291973 292.061434 
L 190.942583 294.492382 
L 191.593194 292.269801 
L 192.894414 291.488424 
L 193.545025 292.217709 
L 194.195635 293.207452 
L 194.846245 291.731519 
L 195.496856 292.825446 
L 196.798076 292.269801 
L 197.448686 292.703899 
L 198.099297 292.026706 
L 198.749907 291.609972 
L 199.400517 291.835703 
L 200.051128 295.221667 
L 200.701738 291.436332 
L 201.352348 293.224816 
L 202.002959 294.006192 
L 202.653569 291.939886 
L 203.304179 292.721262 
L 203.95479 292.078797 
L 204.6054 292.808082 
L 205.25601 293.72837 
L 205.906621 291.748883 
L 206.557231 291.800975 
L 207.207841 294.579202 
L 207.858451 290.915415 
L 208.509062 292.808082 
L 209.159672 293.988829 
L 209.810282 292.04407 
L 210.460893 291.783611 
L 211.111503 291.07169 
L 211.762113 292.512895 
L 212.412724 292.165617 
L 213.063334 293.033813 
L 213.713944 292.75599 
L 214.364555 293.467911 
L 215.015165 293.537367 
L 215.665775 293.919373 
L 216.316385 293.919373 
L 217.617606 292.009342 
L 218.268216 291.245329 
L 218.918827 291.922522 
L 219.569437 290.116675 
L 220.220047 291.696791 
L 220.870658 291.523152 
L 221.521268 293.294272 
L 222.171878 292.894902 
L 222.822489 293.051177 
L 223.473099 291.609972 
L 224.123709 291.106418 
L 224.77432 293.485275 
L 225.42493 291.818339 
L 226.07554 293.137997 
L 226.72615 293.606822 
L 227.376761 291.332149 
L 228.027371 293.137997 
L 228.677981 292.929629 
L 229.328592 292.999085 
L 229.979202 292.669171 
L 230.629812 293.137997 
L 231.280423 293.398455 
L 231.931033 292.530259 
L 232.581643 291.905158 
L 233.232254 293.381091 
L 233.882864 294.544474 
L 234.533474 294.857025 
L 235.184085 291.505788 
L 235.834695 293.346364 
L 236.485305 290.950143 
L 237.135915 291.974614 
L 237.786526 292.564987 
L 238.437136 293.72837 
L 239.087746 292.84281 
L 239.738357 291.175874 
L 240.388967 292.530259 
L 241.039577 292.582351 
L 241.690188 292.808082 
L 242.340798 293.832553 
L 242.991408 292.44344 
L 243.642019 292.408712 
L 244.292629 293.051177 
L 244.943239 291.939886 
L 245.59385 292.981721 
L 246.24446 291.210601 
L 246.89507 292.929629 
L 247.54568 292.929629 
L 248.196291 291.922522 
L 248.846901 291.575244 
L 249.497511 291.523152 
L 250.148122 292.721262 
L 250.798732 290.654956 
L 251.449342 293.572095 
L 252.099953 291.818339 
L 252.750563 291.905158 
L 253.401173 291.575244 
L 254.051784 292.877538 
L 255.353004 292.617079 
L 256.003615 291.609972 
L 257.304835 291.679427 
L 257.955445 294.093012 
L 258.606056 293.172724 
L 259.256666 293.676278 
L 259.907276 292.634443 
L 260.557887 292.825446 
L 261.208497 291.332149 
L 261.859107 292.35662 
L 262.509718 293.676278 
L 263.160328 292.252437 
L 264.461549 292.84281 
L 265.112159 295.065392 
L 265.762769 290.602864 
L 266.413379 292.009342 
L 267.06399 292.426076 
L 267.7146 292.304528 
L 268.36521 291.714155 
L 269.015821 292.512895 
L 269.666431 290.932779 
L 270.317041 292.634443 
L 270.967652 289.943035 
L 271.618262 294.492382 
L 272.268872 292.408712 
L 272.919483 291.679427 
L 273.570093 292.512895 
L 274.220703 292.84281 
L 274.871314 290.845959 
L 275.521924 292.84281 
L 276.172534 292.669171 
L 276.823144 291.748883 
L 277.473755 295.464762 
L 278.124365 292.651807 
L 278.774975 294.006192 
L 279.425586 292.35662 
L 280.076196 291.835703 
L 280.726806 293.120633 
L 282.028027 291.922522 
L 282.678637 293.884645 
L 283.329248 294.700749 
L 283.979858 293.415819 
L 284.630468 291.523152 
L 285.281079 291.436332 
L 285.931689 290.290314 
L 286.582299 289.943035 
L 287.232909 290.446589 
L 287.88352 292.113525 
L 288.53413 291.575244 
L 289.18474 293.867281 
L 289.835351 292.373984 
L 290.485961 290.151402 
L 291.787182 293.346364 
L 292.437792 292.773354 
L 293.088402 293.867281 
L 293.739013 293.64155 
L 294.389623 290.898051 
L 295.040233 294.544474 
L 295.690844 291.245329 
L 296.341454 291.87043 
L 296.992064 291.436332 
L 298.293285 294.700749 
L 298.943895 294.475018 
L 299.594505 292.460804 
L 300.245116 291.47106 
L 300.895726 291.991978 
L 301.546336 294.422927 
L 302.196947 291.054326 
L 302.847557 292.321892 
L 303.498167 291.245329 
L 304.148778 294.752841 
L 304.799388 292.530259 
L 305.449998 292.235073 
L 306.100608 293.554731 
L 306.751219 290.707048 
L 307.401829 291.714155 
L 308.70305 294.006192 
L 309.35366 289.231115 
L 310.654881 294.04092 
L 311.305491 293.276908 
L 311.956101 292.946993 
L 312.606712 291.453696 
L 313.257322 292.287164 
L 313.907932 291.974614 
L 314.558543 291.314785 
L 315.209153 293.068541 
L 315.859763 292.634443 
L 316.510373 291.436332 
L 317.160984 292.235073 
L 317.811594 292.217709 
L 318.462204 291.436332 
L 319.112815 293.103269 
L 319.763425 292.599715 
L 320.414035 294.92648 
L 321.064646 292.877538 
L 321.715256 291.575244 
L 322.365866 294.075648 
L 323.016477 291.818339 
L 323.667087 290.915415 
L 324.317697 292.200345 
L 324.968308 289.943035 
L 325.618918 292.113525 
L 326.269528 291.609972 
L 326.920138 290.863323 
L 327.570749 291.592608 
L 328.221359 290.5855 
L 329.52258 292.669171 
L 330.17319 290.950143 
L 330.8238 292.512895 
L 332.125021 291.141146 
L 332.775631 293.016449 
L 333.426242 291.036962 
L 334.076852 291.731519 
L 334.727462 290.915415 
L 335.378073 291.245329 
L 336.679293 293.502639 
L 337.329903 292.130889 
L 337.980514 293.676278 
L 338.631124 294.648658 
L 339.281734 290.394497 
L 339.932345 289.734668 
L 340.582955 292.495531 
L 341.233565 291.227965 
L 341.884176 291.662063 
L 342.534786 289.630485 
L 343.185396 290.707048 
L 343.836007 290.5855 
L 344.486617 292.113525 
L 345.137227 292.426076 
L 345.787837 290.029855 
L 346.438448 289.213751 
L 347.089058 290.724412 
L 347.739668 291.523152 
L 348.390279 290.446589 
L 349.040889 289.87358 
L 349.691499 292.495531 
L 350.34211 291.627336 
L 350.99272 289.804124 
L 351.64333 289.665213 
L 352.293941 290.290314 
L 352.944551 292.04407 
L 353.595161 291.991978 
L 354.245772 292.582351 
L 354.896382 290.377133 
L 355.546992 291.141146 
L 356.848213 289.960399 
L 357.498823 291.453696 
L 358.149433 291.019598 
L 358.800044 292.339256 
L 359.450654 291.297421 
L 360.101264 291.418968 
L 360.751875 290.411861 
L 361.402485 292.478168 
L 362.053095 291.731519 
L 362.703706 291.245329 
L 363.354316 289.422118 
L 364.004926 289.595757 
L 364.655537 291.748883 
L 365.306147 291.488424 
L 365.956757 291.366877 
L 366.607367 293.797825 
L 367.257978 289.439482 
L 367.908588 291.262693 
L 368.559198 289.30057 
L 369.860419 291.123782 
L 370.511029 293.502639 
L 371.81225 290.620228 
L 373.113471 292.078797 
L 373.764081 290.845959 
L 374.414691 292.269801 
L 375.065302 291.175874 
L 375.715912 292.651807 
L 376.366522 291.87043 
L 377.017132 292.564987 
L 377.667743 290.047219 
L 378.318353 290.012491 
L 378.968963 291.210601 
L 379.619574 290.394497 
L 380.270184 293.190088 
L 380.920794 291.054326 
L 381.571405 291.627336 
L 382.222015 291.366877 
L 382.872625 289.543665 
L 383.523236 291.054326 
L 384.173846 290.75914 
L 384.824456 291.15851 
L 385.475066 289.30057 
L 386.125677 290.776503 
L 386.776287 290.203494 
L 387.426897 291.418968 
L 388.077508 290.724412 
L 388.728118 291.47106 
L 389.378728 290.863323 
L 390.029339 290.481317 
L 390.679949 290.898051 
L 391.330559 290.255586 
L 391.98117 288.345555 
L 392.63178 288.762289 
L 393.28239 291.262693 
L 393.933001 289.613121 
L 394.583611 289.717304 
L 395.234221 290.134038 
L 395.884831 291.123782 
L 396.535442 290.568136 
L 397.186052 290.898051 
L 397.836662 291.644699 
L 398.487273 290.811231 
L 398.487273 290.811231 
" style="fill:none;stroke:#0000ff;stroke-linecap:square;stroke-width:1.5;"/>
   </g>
   <g id="line2d_30">
    <path clip-path="url(#p19caafe647)" d="M 73.832727 269.381948 
L 74.483338 268.146547 
L 75.784558 269.938627 
L 76.435169 271.841536 
L 77.085779 268.839285 
L 77.736389 266.968873 
L 78.386999 271.104585 
L 79.03761 269.630962 
L 79.68822 269.992426 
L 80.33883 270.724908 
L 80.989441 270.430631 
L 82.290661 270.566071 
L 82.941272 270.041415 
L 83.591882 270.59325 
L 84.242492 269.371714 
L 84.893103 270.318396 
L 85.543713 268.295805 
L 86.194323 267.427875 
L 86.844934 270.238859 
L 87.495544 269.50602 
L 88.146154 268.001306 
L 88.796764 269.157074 
L 89.447375 268.727333 
L 90.097985 270.003181 
L 90.748595 266.485099 
L 91.399206 268.262247 
L 92.049816 270.950246 
L 93.351037 268.100275 
L 94.001647 266.918146 
L 94.652257 266.690097 
L 95.302868 267.506703 
L 95.953478 269.254307 
L 96.604088 269.480242 
L 97.254698 271.54264 
L 97.905309 270.159719 
L 98.555919 267.28726 
L 99.206529 267.569672 
L 99.85714 272.705343 
L 100.50775 269.296016 
L 101.15836 266.85321 
L 101.808971 268.797365 
L 102.459581 270.116622 
L 103.110191 268.001066 
L 103.760802 269.758941 
L 104.411412 270.302306 
L 105.062022 267.686045 
L 105.712633 271.767086 
L 106.363243 268.350295 
L 107.013853 266.773593 
L 107.664463 267.732987 
L 108.315074 266.845996 
L 108.965684 268.201472 
L 109.616294 266.628886 
L 110.266905 268.673127 
L 110.917515 269.72833 
L 111.568125 269.165511 
L 112.218736 269.089423 
L 112.869346 268.22351 
L 114.170567 268.697755 
L 114.821177 268.138901 
L 116.122398 269.797289 
L 116.773008 269.370067 
L 117.423618 267.918237 
L 118.074228 269.130342 
L 118.724839 268.997431 
L 119.375449 269.598957 
L 120.026059 268.611071 
L 120.67667 265.220625 
L 121.32728 266.461026 
L 121.97789 265.436377 
L 122.628501 266.558484 
L 123.279111 268.565629 
L 124.580332 266.257478 
L 125.230942 263.801552 
L 125.881552 265.981708 
L 126.532163 263.593795 
L 127.182773 264.850372 
L 127.833383 268.602225 
L 128.483993 267.299703 
L 129.134604 267.608943 
L 129.785214 264.764575 
L 130.435824 267.179628 
L 131.086435 265.538628 
L 131.737045 266.76732 
L 132.387655 265.333957 
L 133.038266 268.411129 
L 133.688876 266.432086 
L 134.339486 265.953911 
L 134.990097 266.661814 
L 135.640707 267.143319 
L 136.291317 265.967178 
L 136.941927 268.650837 
L 137.592538 268.231841 
L 138.243148 264.935926 
L 138.893758 269.179129 
L 139.544369 269.464608 
L 140.194979 265.302517 
L 140.845589 264.748276 
L 141.4962 268.88301 
L 142.14681 267.041333 
L 142.79742 265.777307 
L 143.448031 267.514496 
L 144.098641 263.679984 
L 145.399862 268.118692 
L 146.050472 265.052698 
L 146.701082 266.03186 
L 147.351692 265.406431 
L 148.002303 265.225355 
L 148.652913 265.598586 
L 149.303523 268.12979 
L 149.954134 264.207001 
L 150.604744 268.04922 
L 151.255354 267.450394 
L 151.905965 266.694753 
L 152.556575 265.71072 
L 153.207185 265.401541 
L 153.857796 265.228912 
L 154.508406 263.989314 
L 155.159016 265.943018 
L 155.809627 263.249608 
L 156.460237 264.210833 
L 157.110847 264.186142 
L 157.761457 266.045465 
L 158.412068 265.794129 
L 159.062678 264.629583 
L 159.713288 266.530562 
L 160.363899 266.282427 
L 161.014509 265.478615 
L 161.665119 263.348845 
L 162.31573 266.341978 
L 162.96634 267.637364 
L 163.61695 268.413711 
L 164.267561 265.206806 
L 164.918171 268.254903 
L 165.568781 266.193141 
L 166.219392 262.938093 
L 167.520612 267.334159 
L 168.171222 270.115586 
L 168.821833 269.849921 
L 169.472443 266.15122 
L 170.123053 265.577536 
L 170.773664 265.780028 
L 171.424274 263.298721 
L 172.074884 267.241184 
L 172.725495 268.293686 
L 173.376105 266.585168 
L 174.026715 263.26147 
L 174.677326 267.115201 
L 175.327936 267.249622 
L 175.978546 267.100835 
L 176.629156 267.933054 
L 177.279767 265.070898 
L 177.930377 267.486597 
L 178.580987 264.574349 
L 179.231598 264.972101 
L 179.882208 265.751778 
L 180.532818 268.277161 
L 181.183429 269.326892 
L 181.834039 267.174274 
L 182.484649 265.574626 
L 183.13526 265.793071 
L 183.78587 266.173234 
L 184.43648 268.667365 
L 185.087091 266.046522 
L 185.737701 265.345308 
L 186.388311 267.59796 
L 187.038921 268.02874 
L 187.689532 266.941646 
L 188.340142 267.301568 
L 188.990752 263.723877 
L 190.942583 268.611549 
L 191.593194 263.592558 
L 192.243804 264.434207 
L 192.894414 264.458674 
L 193.545025 266.868385 
L 194.195635 267.12225 
L 194.846245 265.006061 
L 195.496856 266.471392 
L 196.147466 265.463947 
L 196.798076 265.448356 
L 197.448686 266.632472 
L 198.099297 265.627203 
L 198.749907 266.054205 
L 199.400517 266.940928 
L 200.051128 269.570562 
L 200.701738 265.41478 
L 201.352348 266.356172 
L 202.002959 266.864042 
L 202.653569 262.973787 
L 203.304179 267.031633 
L 203.95479 266.892709 
L 204.6054 267.381256 
L 205.25601 268.933574 
L 206.557231 264.860587 
L 207.207841 269.885779 
L 207.858451 266.647891 
L 208.509062 264.39742 
L 209.159672 268.152833 
L 209.810282 267.032526 
L 210.460893 266.350127 
L 211.111503 263.977766 
L 211.762113 266.678097 
L 212.412724 266.694937 
L 213.063334 266.350271 
L 213.713944 267.018848 
L 214.364555 267.416569 
L 215.015165 269.190699 
L 215.665775 269.970782 
L 216.316385 267.752021 
L 216.966996 266.533188 
L 217.617606 266.68315 
L 218.268216 266.263869 
L 218.918827 266.960289 
L 219.569437 263.284665 
L 220.220047 265.031984 
L 220.870658 265.714596 
L 221.521268 268.401629 
L 222.171878 267.292034 
L 222.822489 265.777461 
L 223.473099 267.496501 
L 224.123709 265.520696 
L 224.77432 268.769207 
L 225.42493 268.141191 
L 226.07554 267.108381 
L 226.72615 267.313101 
L 227.376761 263.96675 
L 228.027371 265.329741 
L 228.677981 267.912476 
L 229.328592 267.527458 
L 229.979202 266.542963 
L 230.629812 268.508203 
L 231.280423 267.785314 
L 231.931033 268.289357 
L 232.581643 268.253715 
L 233.232254 268.566605 
L 233.882864 270.173571 
L 234.533474 270.824557 
L 235.184085 266.351521 
L 235.834695 267.671714 
L 237.135915 265.048219 
L 237.786526 266.897473 
L 238.437136 268.016638 
L 239.087746 267.653753 
L 239.738357 266.306376 
L 240.388967 265.890611 
L 241.039577 264.681093 
L 242.340798 266.205739 
L 242.991408 265.325962 
L 244.292629 266.13802 
L 244.943239 265.562635 
L 245.59385 267.973722 
L 246.24446 264.464506 
L 246.89507 266.20174 
L 247.54568 266.771849 
L 248.196291 263.883846 
L 248.846901 264.264989 
L 250.148122 267.097441 
L 250.798732 262.788792 
L 251.449342 266.814097 
L 252.750563 263.62742 
L 254.051784 266.989128 
L 254.702394 267.351817 
L 255.353004 266.450447 
L 256.003615 264.161141 
L 256.654225 266.19294 
L 257.304835 264.380877 
L 257.955445 268.452576 
L 258.606056 266.183144 
L 259.256666 268.566249 
L 259.907276 265.335092 
L 260.557887 267.110665 
L 261.208497 264.826417 
L 261.859107 265.161729 
L 262.509718 266.767155 
L 263.160328 266.698056 
L 263.810938 265.543345 
L 264.461549 265.922574 
L 265.112159 270.059322 
L 265.762769 264.428813 
L 266.413379 266.159976 
L 267.06399 267.251003 
L 267.7146 265.775784 
L 268.36521 265.440215 
L 269.015821 267.196807 
L 269.666431 264.317226 
L 270.317041 266.20147 
L 270.967652 263.557698 
L 271.618262 268.840901 
L 272.268872 266.127888 
L 272.919483 264.407398 
L 273.570093 265.814894 
L 274.220703 266.224425 
L 274.871314 264.889513 
L 275.521924 265.918094 
L 276.172534 265.546417 
L 276.823144 265.936081 
L 277.473755 269.525373 
L 278.124365 266.58603 
L 278.774975 267.055784 
L 279.425586 265.464982 
L 280.076196 263.55694 
L 280.726806 266.791617 
L 281.377417 267.212155 
L 282.028027 265.610191 
L 282.678637 269.784426 
L 283.979858 268.456243 
L 284.630468 266.545747 
L 285.281079 266.411804 
L 285.931689 264.153658 
L 286.582299 263.475552 
L 287.232909 263.124827 
L 287.88352 266.381181 
L 288.53413 265.076338 
L 289.18474 268.163524 
L 289.835351 267.875524 
L 290.485961 263.713873 
L 291.136571 267.338286 
L 291.787182 267.349619 
L 292.437792 266.274033 
L 293.088402 269.232053 
L 293.739013 266.002226 
L 294.389623 264.774867 
L 295.040233 267.237725 
L 295.690844 264.555364 
L 296.341454 267.581888 
L 296.992064 265.72249 
L 297.642674 266.268179 
L 298.293285 265.423971 
L 298.943895 266.167441 
L 299.594505 265.245188 
L 300.245116 264.648447 
L 300.895726 263.697638 
L 301.546336 267.645539 
L 302.196947 264.469542 
L 302.847557 265.057221 
L 303.498167 263.775982 
L 304.148778 268.45639 
L 304.799388 265.374977 
L 305.449998 263.420513 
L 306.100608 266.846115 
L 306.751219 263.188928 
L 307.401829 265.316571 
L 308.052439 266.616818 
L 308.70305 268.679911 
L 309.35366 263.012079 
L 310.00427 264.142067 
L 310.654881 267.978846 
L 311.305491 266.171529 
L 311.956101 266.070451 
L 312.606712 265.514535 
L 313.257322 265.886605 
L 313.907932 266.611996 
L 314.558543 264.74211 
L 315.209153 266.065826 
L 315.859763 265.632705 
L 316.510373 262.781135 
L 317.811594 265.474657 
L 318.462204 264.571038 
L 320.414035 267.823187 
L 321.064646 264.859273 
L 321.715256 264.831702 
L 322.365866 267.217088 
L 323.667087 260.408046 
L 324.317697 262.173559 
L 324.968308 259.239663 
L 325.618918 262.238721 
L 326.269528 261.336343 
L 326.920138 260.060865 
L 327.570749 260.482899 
L 328.221359 259.742663 
L 329.52258 262.227788 
L 330.17319 259.230872 
L 330.8238 261.755326 
L 331.474411 262.293213 
L 332.125021 259.825973 
L 332.775631 261.87398 
L 333.426242 261.447784 
L 334.076852 260.421796 
L 334.727462 260.487213 
L 335.378073 262.060222 
L 336.028683 261.181918 
L 336.679293 263.133764 
L 337.329903 261.97421 
L 337.980514 264.637408 
L 338.631124 264.111136 
L 339.281734 259.210527 
L 339.932345 256.68114 
L 340.582955 262.220503 
L 341.233565 259.650299 
L 341.884176 258.609187 
L 343.185396 259.651587 
L 343.836007 258.268545 
L 344.486617 260.577301 
L 345.137227 259.445305 
L 345.787837 257.258126 
L 346.438448 259.229127 
L 347.089058 256.206285 
L 347.739668 259.383555 
L 348.390279 259.142202 
L 349.040889 255.009186 
L 349.691499 260.496885 
L 350.34211 261.392668 
L 350.99272 257.871621 
L 351.64333 255.407687 
L 352.293941 257.318471 
L 352.944551 262.293214 
L 353.595161 258.918205 
L 354.245772 260.307991 
L 354.896382 258.107533 
L 355.546992 258.877526 
L 356.197602 255.853016 
L 357.498823 259.246551 
L 358.149433 258.41436 
L 358.800044 260.677831 
L 359.450654 260.15002 
L 360.101264 259.000963 
L 360.751875 258.598431 
L 361.402485 260.213412 
L 362.703706 258.294777 
L 363.354316 256.399106 
L 364.004926 258.443361 
L 364.655537 261.740378 
L 365.306147 259.440838 
L 365.956757 259.325975 
L 366.607367 261.344595 
L 367.257978 257.430736 
L 367.908588 257.907336 
L 368.559198 256.83318 
L 369.209809 258.357478 
L 369.860419 258.996125 
L 370.511029 262.318683 
L 371.16164 260.449706 
L 371.81225 256.595381 
L 372.46286 257.536812 
L 373.113471 259.505343 
L 373.764081 260.371538 
L 374.414691 260.617938 
L 375.065302 259.263352 
L 375.715912 260.533535 
L 376.366522 259.453225 
L 377.017132 260.208853 
L 377.667743 258.033317 
L 378.318353 258.668279 
L 378.968963 259.073725 
L 379.619574 257.64116 
L 380.270184 261.429776 
L 380.920794 259.973051 
L 381.571405 260.257215 
L 382.222015 259.510946 
L 382.872625 256.675366 
L 383.523236 258.561654 
L 384.173846 255.998325 
L 384.824456 258.614656 
L 385.475066 257.372558 
L 386.125677 256.496595 
L 386.776287 255.198866 
L 387.426897 259.135169 
L 388.077508 257.589631 
L 388.728118 259.488441 
L 389.378728 258.387483 
L 390.029339 257.570097 
L 390.679949 258.812008 
L 391.330559 257.669476 
L 391.98117 253.570176 
L 392.63178 257.220238 
L 393.28239 258.472555 
L 393.933001 256.29627 
L 394.583611 257.3775 
L 395.234221 257.99144 
L 395.884831 259.060003 
L 396.535442 255.201967 
L 397.186052 258.194013 
L 397.836662 256.746768 
L 398.487273 256.655775 
L 398.487273 256.655775 
" style="fill:none;stroke:#008000;stroke-dasharray:9.6,2.4,1.5,2.4;stroke-dashoffset:0;stroke-width:1.5;"/>
   </g>
   <g id="line2d_31">
    <path clip-path="url(#p19caafe647)" d="M 73.832727 220.261627 
L 74.483338 227.207194 
L 75.133948 220.261627 
L 75.784558 199.424923 
L 76.435169 227.207194 
L 77.085779 213.316059 
L 77.736389 192.479356 
L 78.386999 220.261627 
L 79.03761 227.207194 
L 79.68822 213.316059 
L 80.33883 227.207194 
L 80.989441 185.533788 
L 81.640051 213.316059 
L 82.290661 227.207194 
L 82.941272 192.479356 
L 83.591882 234.152762 
L 84.893103 220.261627 
L 85.543713 192.479356 
L 86.194323 213.316059 
L 87.495544 227.207194 
L 88.146154 206.370491 
L 88.796764 129.969246 
L 89.447375 164.697084 
L 90.097985 150.805949 
L 90.748595 109.132542 
L 91.399206 129.969246 
L 92.049816 171.642652 
L 92.700426 143.860381 
L 93.351037 164.697084 
L 94.001647 157.751517 
L 94.652257 143.860381 
L 95.302868 157.751517 
L 95.953478 143.860381 
L 96.604088 136.914813 
L 97.254698 192.479356 
L 97.905309 199.424923 
L 98.555919 143.860381 
L 99.206529 136.914813 
L 99.85714 178.58822 
L 100.50775 136.914813 
L 101.15836 192.479356 
L 101.808971 116.07811 
L 102.459581 192.479356 
L 103.110191 164.697084 
L 103.760802 178.58822 
L 104.411412 164.697084 
L 105.062022 129.969246 
L 105.712633 192.479356 
L 106.363243 164.697084 
L 107.013853 150.805949 
L 107.664463 213.316059 
L 108.315074 185.533788 
L 108.965684 150.805949 
L 109.616294 171.642652 
L 110.266905 150.805949 
L 110.917515 136.914813 
L 111.568125 143.860381 
L 112.218736 136.914813 
L 112.869346 171.642652 
L 113.519956 213.316059 
L 114.170567 150.805949 
L 114.821177 150.805949 
L 115.471787 136.914813 
L 116.122398 164.697084 
L 116.773008 164.697084 
L 117.423618 150.805949 
L 118.074228 143.860381 
L 118.724839 150.805949 
L 119.375449 150.805949 
L 120.026059 123.023678 
L 120.67667 143.860381 
L 121.32728 116.07811 
L 121.97789 143.860381 
L 122.628501 123.023678 
L 123.279111 129.969246 
L 123.929721 143.860381 
L 124.580332 109.132542 
L 125.230942 129.969246 
L 125.881552 129.969246 
L 126.532163 95.241407 
L 127.182773 88.295839 
L 127.833383 143.860381 
L 128.483993 102.186974 
L 129.134604 116.07811 
L 129.785214 95.241407 
L 130.435824 123.023678 
L 131.086435 88.295839 
L 131.737045 109.132542 
L 132.387655 102.186974 
L 133.038266 109.132542 
L 133.688876 129.969246 
L 134.339486 102.186974 
L 134.990097 129.969246 
L 135.640707 116.07811 
L 136.291317 67.459136 
L 136.941927 95.241407 
L 137.592538 129.969246 
L 138.243148 109.132542 
L 139.544369 123.023678 
L 140.194979 109.132542 
L 140.845589 123.023678 
L 141.4962 109.132542 
L 142.14681 116.07811 
L 142.79742 109.132542 
L 143.448031 88.295839 
L 144.098641 109.132542 
L 144.749251 88.295839 
L 145.399862 123.023678 
L 146.050472 116.07811 
L 146.701082 95.241407 
L 147.351692 129.969246 
L 148.002303 102.186974 
L 148.652913 123.023678 
L 149.303523 123.023678 
L 149.954134 88.295839 
L 150.604744 102.186974 
L 151.255354 129.969246 
L 152.556575 102.186974 
L 153.207185 102.186974 
L 153.857796 81.350271 
L 154.508406 116.07811 
L 155.159016 109.132542 
L 155.809627 88.295839 
L 156.460237 102.186974 
L 157.110847 88.295839 
L 157.761457 95.241407 
L 158.412068 109.132542 
L 159.713288 123.023678 
L 160.363899 95.241407 
L 161.014509 88.295839 
L 161.665119 95.241407 
L 162.31573 116.07811 
L 162.96634 129.969246 
L 163.61695 81.350271 
L 164.267561 88.295839 
L 164.918171 116.07811 
L 165.568781 95.241407 
L 166.219392 109.132542 
L 166.870002 81.350271 
L 167.520612 116.07811 
L 168.171222 143.860381 
L 168.821833 116.07811 
L 169.472443 116.07811 
L 170.123053 88.295839 
L 170.773664 67.459136 
L 171.424274 102.186974 
L 172.074884 95.241407 
L 173.376105 109.132542 
L 174.026715 81.350271 
L 174.677326 95.241407 
L 175.978546 109.132542 
L 176.629156 102.186974 
L 177.279767 109.132542 
L 177.930377 109.132542 
L 178.580987 74.404703 
L 179.231598 129.969246 
L 179.882208 109.132542 
L 180.532818 95.241407 
L 181.183429 88.295839 
L 181.834039 95.241407 
L 182.484649 116.07811 
L 183.13526 109.132542 
L 183.78587 74.404703 
L 184.43648 109.132542 
L 185.087091 109.132542 
L 185.737701 81.350271 
L 186.388311 116.07811 
L 187.038921 109.132542 
L 187.689532 109.132542 
L 188.340142 95.241407 
L 188.990752 109.132542 
L 189.641363 102.186974 
L 190.291973 109.132542 
L 190.942583 123.023678 
L 191.593194 123.023678 
L 192.243804 102.186974 
L 192.894414 123.023678 
L 193.545025 102.186974 
L 194.195635 88.295839 
L 195.496856 102.186974 
L 196.147466 88.295839 
L 196.798076 109.132542 
L 197.448686 123.023678 
L 198.099297 123.023678 
L 198.749907 136.914813 
L 199.400517 136.914813 
L 200.051128 95.241407 
L 200.701738 129.969246 
L 201.352348 102.186974 
L 202.002959 95.241407 
L 202.653569 123.023678 
L 203.304179 136.914813 
L 203.95479 171.642652 
L 204.6054 116.07811 
L 205.25601 136.914813 
L 205.906621 143.860381 
L 206.557231 129.969246 
L 207.207841 123.023678 
L 207.858451 143.860381 
L 208.509062 109.132542 
L 209.159672 171.642652 
L 209.810282 143.860381 
L 210.460893 136.914813 
L 211.762113 95.241407 
L 212.412724 123.023678 
L 213.063334 129.969246 
L 213.713944 129.969246 
L 214.364555 123.023678 
L 215.015165 136.914813 
L 215.665775 143.860381 
L 216.316385 123.023678 
L 216.966996 116.07811 
L 217.617606 116.07811 
L 218.268216 143.860381 
L 218.918827 116.07811 
L 219.569437 102.186974 
L 220.220047 136.914813 
L 220.870658 116.07811 
L 221.521268 129.969246 
L 222.171878 116.07811 
L 222.822489 123.023678 
L 223.473099 150.805949 
L 224.123709 143.860381 
L 224.77432 164.697084 
L 225.42493 157.751517 
L 226.07554 109.132542 
L 226.72615 123.023678 
L 227.376761 88.295839 
L 228.027371 102.186974 
L 228.677981 123.023678 
L 229.328592 136.914813 
L 229.979202 129.969246 
L 230.629812 171.642652 
L 231.280423 136.914813 
L 231.931033 185.533788 
L 232.581643 171.642652 
L 233.232254 164.697084 
L 233.882864 129.969246 
L 234.533474 192.479356 
L 235.184085 185.533788 
L 235.834695 171.642652 
L 236.485305 150.805949 
L 237.786526 123.023678 
L 238.437136 157.751517 
L 239.087746 150.805949 
L 239.738357 150.805949 
L 240.388967 88.295839 
L 241.039577 60.513568 
L 241.690188 60.513568 
L 242.340798 74.404703 
L 242.991408 102.186974 
L 244.292629 60.513568 
L 245.59385 88.295839 
L 246.24446 81.350271 
L 246.89507 67.459136 
L 247.54568 81.350271 
L 248.196291 67.459136 
L 248.846901 67.459136 
L 249.497511 60.513568 
L 250.798732 60.513568 
L 251.449342 67.459136 
L 252.099953 81.350271 
L 252.750563 67.459136 
L 253.401173 60.513568 
L 254.702394 74.404703 
L 255.353004 60.513568 
L 256.003615 53.568 
L 256.654225 81.350271 
L 257.304835 74.404703 
L 257.955445 60.513568 
L 259.256666 60.513568 
L 259.907276 74.404703 
L 260.557887 67.459136 
L 261.208497 81.350271 
L 261.859107 74.404703 
L 262.509718 88.295839 
L 263.160328 67.459136 
L 263.810938 60.513568 
L 264.461549 74.404703 
L 265.112159 74.404703 
L 265.762769 53.568 
L 266.413379 67.459136 
L 267.06399 74.404703 
L 267.7146 67.459136 
L 268.36521 74.404703 
L 269.015821 88.295839 
L 269.666431 67.459136 
L 270.317041 60.513568 
L 270.967652 88.295839 
L 271.618262 81.350271 
L 272.268872 81.350271 
L 272.919483 60.513568 
L 273.570093 81.350271 
L 274.220703 67.459136 
L 274.871314 88.295839 
L 275.521924 60.513568 
L 276.172534 67.459136 
L 276.823144 88.295839 
L 277.473755 67.459136 
L 278.124365 81.350271 
L 278.774975 74.404703 
L 279.425586 74.404703 
L 280.076196 53.568 
L 280.726806 116.07811 
L 281.377417 81.350271 
L 282.028027 74.404703 
L 282.678637 95.241407 
L 283.329248 81.350271 
L 283.979858 81.350271 
L 284.630468 67.459136 
L 285.281079 95.241407 
L 285.931689 60.513568 
L 286.582299 81.350271 
L 287.232909 67.459136 
L 287.88352 74.404703 
L 288.53413 74.404703 
L 289.18474 67.459136 
L 289.835351 74.404703 
L 290.485961 60.513568 
L 291.136571 88.295839 
L 291.787182 67.459136 
L 292.437792 74.404703 
L 293.088402 88.295839 
L 293.739013 60.513568 
L 294.389623 88.295839 
L 295.040233 67.459136 
L 295.690844 67.459136 
L 296.341454 81.350271 
L 296.992064 81.350271 
L 297.642674 53.568 
L 298.293285 74.404703 
L 298.943895 74.404703 
L 299.594505 67.459136 
L 300.245116 67.459136 
L 300.895726 74.404703 
L 301.546336 74.404703 
L 302.847557 88.295839 
L 303.498167 67.459136 
L 304.148778 95.241407 
L 304.799388 53.568 
L 305.449998 60.513568 
L 306.751219 60.513568 
L 307.401829 74.404703 
L 308.052439 74.404703 
L 308.70305 95.241407 
L 309.35366 67.459136 
L 310.00427 74.404703 
L 310.654881 88.295839 
L 311.305491 81.350271 
L 311.956101 81.350271 
L 312.606712 67.459136 
L 313.257322 67.459136 
L 313.907932 88.295839 
L 314.558543 95.241407 
L 315.209153 74.404703 
L 315.859763 60.513568 
L 316.510373 74.404703 
L 317.160984 60.513568 
L 317.811594 74.404703 
L 319.112815 74.404703 
L 319.763425 102.186974 
L 320.414035 67.459136 
L 321.064646 53.568 
L 321.715256 81.350271 
L 322.365866 67.459136 
L 323.016477 67.459136 
L 323.667087 60.513568 
L 324.317697 67.459136 
L 324.968308 60.513568 
L 325.618918 74.404703 
L 326.269528 53.568 
L 326.920138 67.459136 
L 328.221359 53.568 
L 328.871969 53.568 
L 329.52258 74.404703 
L 330.17319 53.568 
L 330.8238 53.568 
L 331.474411 60.513568 
L 332.125021 53.568 
L 332.775631 74.404703 
L 333.426242 53.568 
L 334.076852 53.568 
L 335.378073 67.459136 
L 336.679293 53.568 
L 337.329903 53.568 
L 337.980514 60.513568 
L 339.281734 60.513568 
L 339.932345 53.568 
L 340.582955 60.513568 
L 341.233565 60.513568 
L 341.884176 53.568 
L 343.185396 53.568 
L 343.836007 60.513568 
L 345.137227 60.513568 
L 345.787837 53.568 
L 346.438448 60.513568 
L 347.089058 53.568 
L 349.040889 53.568 
L 350.34211 67.459136 
L 350.99272 53.568 
L 351.64333 60.513568 
L 352.293941 53.568 
L 352.944551 67.459136 
L 353.595161 53.568 
L 354.245772 60.513568 
L 354.896382 60.513568 
L 355.546992 53.568 
L 356.197602 53.568 
L 356.848213 60.513568 
L 358.149433 60.513568 
L 358.800044 53.568 
L 359.450654 67.459136 
L 360.101264 60.513568 
L 360.751875 60.513568 
L 361.402485 53.568 
L 363.354316 53.568 
L 364.004926 60.513568 
L 364.655537 60.513568 
L 365.306147 53.568 
L 365.956757 53.568 
L 366.607367 60.513568 
L 367.908588 60.513568 
L 368.559198 53.568 
L 369.209809 60.513568 
L 369.860419 53.568 
L 371.16164 67.459136 
L 372.46286 53.568 
L 373.113471 60.513568 
L 375.065302 60.513568 
L 375.715912 53.568 
L 378.318353 53.568 
L 378.968963 60.513568 
L 379.619574 60.513568 
L 380.270184 67.459136 
L 380.920794 53.568 
L 381.571405 53.568 
L 382.222015 60.513568 
L 382.872625 53.568 
L 384.824456 53.568 
L 385.475066 60.513568 
L 386.125677 60.513568 
L 386.776287 53.568 
L 388.077508 53.568 
L 388.728118 60.513568 
L 389.378728 53.568 
L 393.28239 53.568 
L 393.933001 60.513568 
L 394.583611 53.568 
L 396.535442 53.568 
L 397.186052 60.513568 
L 397.836662 53.568 
L 398.487273 53.568 
L 398.487273 53.568 
" style="fill:none;stroke:#ff0000;stroke-linecap:square;stroke-width:1.5;"/>
   </g>
   <g id="patch_3">
    <path d="M 57.6 307.584 
L 57.6 41.472 
" style="fill:none;stroke:#000000;stroke-linecap:square;stroke-linejoin:miter;stroke-width:0.8;"/>
   </g>
   <g id="patch_4">
    <path d="M 414.72 307.584 
L 414.72 41.472 
" style="fill:none;stroke:#000000;stroke-linecap:square;stroke-linejoin:miter;stroke-width:0.8;"/>
   </g>
   <g id="patch_5">
    <path d="M 57.6 307.584 
L 414.72 307.584 
" style="fill:none;stroke:#000000;stroke-linecap:square;stroke-linejoin:miter;stroke-width:0.8;"/>
   </g>
   <g id="patch_6">
    <path d="M 57.6 41.472 
L 414.72 41.472 
" style="fill:none;stroke:#000000;stroke-linecap:square;stroke-linejoin:miter;stroke-width:0.8;"/>
   </g>
   <g id="text_17">
    <!-- Population's average and best fitness -->
    <defs>
     <path d="M 19.671875 64.796875 
L 19.671875 37.40625 
L 32.078125 37.40625 
Q 38.96875 37.40625 42.71875 40.96875 
Q 46.484375 44.53125 46.484375 51.125 
Q 46.484375 57.671875 42.71875 61.234375 
Q 38.96875 64.796875 32.078125 64.796875 
z
M 9.8125 72.90625 
L 32.078125 72.90625 
Q 44.34375 72.90625 50.609375 67.359375 
Q 56.890625 61.8125 56.890625 51.125 
Q 56.890625 40.328125 50.609375 34.8125 
Q 44.34375 29.296875 32.078125 29.296875 
L 19.671875 29.296875 
L 19.671875 0 
L 9.8125 0 
z
" id="DejaVuSans-80"/>
     <path d="M 18.109375 8.203125 
L 18.109375 -20.796875 
L 9.078125 -20.796875 
L 9.078125 54.6875 
L 18.109375 54.6875 
L 18.109375 46.390625 
Q 20.953125 51.265625 25.265625 53.625 
Q 29.59375 56 35.59375 56 
Q 45.5625 56 51.78125 48.09375 
Q 58.015625 40.1875 58.015625 27.296875 
Q 58.015625 14.40625 51.78125 6.484375 
Q 45.5625 -1.421875 35.59375 -1.421875 
Q 29.59375 -1.421875 25.265625 0.953125 
Q 20.953125 3.328125 18.109375 8.203125 
z
M 48.6875 27.296875 
Q 48.6875 37.203125 44.609375 42.84375 
Q 40.53125 48.484375 33.40625 48.484375 
Q 26.265625 48.484375 22.1875 42.84375 
Q 18.109375 37.203125 18.109375 27.296875 
Q 18.109375 17.390625 22.1875 11.75 
Q 26.265625 6.109375 33.40625 6.109375 
Q 40.53125 6.109375 44.609375 11.75 
Q 48.6875 17.390625 48.6875 27.296875 
z
" id="DejaVuSans-112"/>
     <path d="M 8.5 21.578125 
L 8.5 54.6875 
L 17.484375 54.6875 
L 17.484375 21.921875 
Q 17.484375 14.15625 20.5 10.265625 
Q 23.53125 6.390625 29.59375 6.390625 
Q 36.859375 6.390625 41.078125 11.03125 
Q 45.3125 15.671875 45.3125 23.6875 
L 45.3125 54.6875 
L 54.296875 54.6875 
L 54.296875 0 
L 45.3125 0 
L 45.3125 8.40625 
Q 42.046875 3.421875 37.71875 1 
Q 33.40625 -1.421875 27.6875 -1.421875 
Q 18.265625 -1.421875 13.375 4.4375 
Q 8.5 10.296875 8.5 21.578125 
z
M 31.109375 56 
z
" id="DejaVuSans-117"/>
     <path d="M 9.421875 75.984375 
L 18.40625 75.984375 
L 18.40625 0 
L 9.421875 0 
z
" id="DejaVuSans-108"/>
     <path d="M 17.921875 72.90625 
L 17.921875 45.796875 
L 9.625 45.796875 
L 9.625 72.90625 
z
" id="DejaVuSans-39"/>
     <path id="DejaVuSans-32"/>
     <path d="M 2.984375 54.6875 
L 12.5 54.6875 
L 29.59375 8.796875 
L 46.6875 54.6875 
L 56.203125 54.6875 
L 35.6875 0 
L 23.484375 0 
z
" id="DejaVuSans-118"/>
     <path d="M 45.40625 27.984375 
Q 45.40625 37.75 41.375 43.109375 
Q 37.359375 48.484375 30.078125 48.484375 
Q 22.859375 48.484375 18.828125 43.109375 
Q 14.796875 37.75 14.796875 27.984375 
Q 14.796875 18.265625 18.828125 12.890625 
Q 22.859375 7.515625 30.078125 7.515625 
Q 37.359375 7.515625 41.375 12.890625 
Q 45.40625 18.265625 45.40625 27.984375 
z
M 54.390625 6.78125 
Q 54.390625 -7.171875 48.1875 -13.984375 
Q 42 -20.796875 29.203125 -20.796875 
Q 24.46875 -20.796875 20.265625 -20.09375 
Q 16.0625 -19.390625 12.109375 -17.921875 
L 12.109375 -9.1875 
Q 16.0625 -11.328125 19.921875 -12.34375 
Q 23.78125 -13.375 27.78125 -13.375 
Q 36.625 -13.375 41.015625 -8.765625 
Q 45.40625 -4.15625 45.40625 5.171875 
L 45.40625 9.625 
Q 42.625 4.78125 38.28125 2.390625 
Q 33.9375 0 27.875 0 
Q 17.828125 0 11.671875 7.65625 
Q 5.515625 15.328125 5.515625 27.984375 
Q 5.515625 40.671875 11.671875 48.328125 
Q 17.828125 56 27.875 56 
Q 33.9375 56 38.28125 53.609375 
Q 42.625 51.21875 45.40625 46.390625 
L 45.40625 54.6875 
L 54.390625 54.6875 
z
" id="DejaVuSans-103"/>
     <path d="M 45.40625 46.390625 
L 45.40625 75.984375 
L 54.390625 75.984375 
L 54.390625 0 
L 45.40625 0 
L 45.40625 8.203125 
Q 42.578125 3.328125 38.25 0.953125 
Q 33.9375 -1.421875 27.875 -1.421875 
Q 17.96875 -1.421875 11.734375 6.484375 
Q 5.515625 14.40625 5.515625 27.296875 
Q 5.515625 40.1875 11.734375 48.09375 
Q 17.96875 56 27.875 56 
Q 33.9375 56 38.25 53.625 
Q 42.578125 51.265625 45.40625 46.390625 
z
M 14.796875 27.296875 
Q 14.796875 17.390625 18.875 11.75 
Q 22.953125 6.109375 30.078125 6.109375 
Q 37.203125 6.109375 41.296875 11.75 
Q 45.40625 17.390625 45.40625 27.296875 
Q 45.40625 37.203125 41.296875 42.84375 
Q 37.203125 48.484375 30.078125 48.484375 
Q 22.953125 48.484375 18.875 42.84375 
Q 14.796875 37.203125 14.796875 27.296875 
z
" id="DejaVuSans-100"/>
     <path d="M 48.6875 27.296875 
Q 48.6875 37.203125 44.609375 42.84375 
Q 40.53125 48.484375 33.40625 48.484375 
Q 26.265625 48.484375 22.1875 42.84375 
Q 18.109375 37.203125 18.109375 27.296875 
Q 18.109375 17.390625 22.1875 11.75 
Q 26.265625 6.109375 33.40625 6.109375 
Q 40.53125 6.109375 44.609375 11.75 
Q 48.6875 17.390625 48.6875 27.296875 
z
M 18.109375 46.390625 
Q 20.953125 51.265625 25.265625 53.625 
Q 29.59375 56 35.59375 56 
Q 45.5625 56 51.78125 48.09375 
Q 58.015625 40.1875 58.015625 27.296875 
Q 58.015625 14.40625 51.78125 6.484375 
Q 45.5625 -1.421875 35.59375 -1.421875 
Q 29.59375 -1.421875 25.265625 0.953125 
Q 20.953125 3.328125 18.109375 8.203125 
L 18.109375 0 
L 9.078125 0 
L 9.078125 75.984375 
L 18.109375 75.984375 
z
" id="DejaVuSans-98"/>
     <path d="M 37.109375 75.984375 
L 37.109375 68.5 
L 28.515625 68.5 
Q 23.6875 68.5 21.796875 66.546875 
Q 19.921875 64.59375 19.921875 59.515625 
L 19.921875 54.6875 
L 34.71875 54.6875 
L 34.71875 47.703125 
L 19.921875 47.703125 
L 19.921875 0 
L 10.890625 0 
L 10.890625 47.703125 
L 2.296875 47.703125 
L 2.296875 54.6875 
L 10.890625 54.6875 
L 10.890625 58.5 
Q 10.890625 67.625 15.140625 71.796875 
Q 19.390625 75.984375 28.609375 75.984375 
z
" id="DejaVuSans-102"/>
    </defs>
    <g transform="translate(123.315 35.472)scale(0.12 -0.12)">
     <use xlink:href="#DejaVuSans-80"/>
     <use x="60.255859" xlink:href="#DejaVuSans-111"/>
     <use x="121.4375" xlink:href="#DejaVuSans-112"/>
     <use x="184.914062" xlink:href="#DejaVuSans-117"/>
     <use x="248.292969" xlink:href="#DejaVuSans-108"/>
     <use x="276.076172" xlink:href="#DejaVuSans-97"/>
     <use x="337.355469" xlink:href="#DejaVuSans-116"/>
     <use x="376.564453" xlink:href="#DejaVuSans-105"/>
     <use x="404.347656" xlink:href="#DejaVuSans-111"/>
     <use x="465.529297" xlink:href="#DejaVuSans-110"/>
     <use x="528.908203" xlink:href="#DejaVuSans-39"/>
     <use x="556.398438" xlink:href="#DejaVuSans-115"/>
     <use x="608.498047" xlink:href="#DejaVuSans-32"/>
     <use x="640.285156" xlink:href="#DejaVuSans-97"/>
     <use x="701.564453" xlink:href="#DejaVuSans-118"/>
     <use x="760.744141" xlink:href="#DejaVuSans-101"/>
     <use x="822.267578" xlink:href="#DejaVuSans-114"/>
     <use x="863.380859" xlink:href="#DejaVuSans-97"/>
     <use x="924.660156" xlink:href="#DejaVuSans-103"/>
     <use x="988.136719" xlink:href="#DejaVuSans-101"/>
     <use x="1049.660156" xlink:href="#DejaVuSans-32"/>
     <use x="1081.447266" xlink:href="#DejaVuSans-97"/>
     <use x="1142.726562" xlink:href="#DejaVuSans-110"/>
     <use x="1206.105469" xlink:href="#DejaVuSans-100"/>
     <use x="1269.582031" xlink:href="#DejaVuSans-32"/>
     <use x="1301.369141" xlink:href="#DejaVuSans-98"/>
     <use x="1364.845703" xlink:href="#DejaVuSans-101"/>
     <use x="1426.369141" xlink:href="#DejaVuSans-115"/>
     <use x="1478.46875" xlink:href="#DejaVuSans-116"/>
     <use x="1517.677734" xlink:href="#DejaVuSans-32"/>
     <use x="1549.464844" xlink:href="#DejaVuSans-102"/>
     <use x="1584.669922" xlink:href="#DejaVuSans-105"/>
     <use x="1612.453125" xlink:href="#DejaVuSans-116"/>
     <use x="1651.662109" xlink:href="#DejaVuSans-110"/>
     <use x="1715.041016" xlink:href="#DejaVuSans-101"/>
     <use x="1776.564453" xlink:href="#DejaVuSans-115"/>
     <use x="1828.664062" xlink:href="#DejaVuSans-115"/>
    </g>
   </g>
   <g id="legend_1">
    <g id="patch_7">
     <path d="M 334.779375 198.045187 
L 407.72 198.045187 
Q 409.72 198.045187 409.72 196.045187 
L 409.72 153.010812 
Q 409.72 151.010812 407.72 151.010812 
L 334.779375 151.010812 
Q 332.779375 151.010812 332.779375 153.010812 
L 332.779375 196.045187 
Q 332.779375 198.045187 334.779375 198.045187 
z
" style="fill:#ffffff;opacity:0.8;stroke:#cccccc;stroke-linejoin:miter;"/>
    </g>
    <g id="line2d_32">
     <path d="M 336.779375 159.10925 
L 356.779375 159.10925 
" style="fill:none;stroke:#0000ff;stroke-linecap:square;stroke-width:1.5;"/>
    </g>
    <g id="line2d_33"/>
    <g id="text_18">
     <!-- average -->
     <g transform="translate(364.779375 162.60925)scale(0.1 -0.1)">
      <use xlink:href="#DejaVuSans-97"/>
      <use x="61.279297" xlink:href="#DejaVuSans-118"/>
      <use x="120.458984" xlink:href="#DejaVuSans-101"/>
      <use x="181.982422" xlink:href="#DejaVuSans-114"/>
      <use x="223.095703" xlink:href="#DejaVuSans-97"/>
      <use x="284.375" xlink:href="#DejaVuSans-103"/>
      <use x="347.851562" xlink:href="#DejaVuSans-101"/>
     </g>
    </g>
    <g id="line2d_34">
     <path d="M 336.779375 173.787375 
L 356.779375 173.787375 
" style="fill:none;stroke:#008000;stroke-dasharray:9.6,2.4,1.5,2.4;stroke-dashoffset:0;stroke-width:1.5;"/>
    </g>
    <g id="line2d_35"/>
    <g id="text_19">
     <!-- +1 sd -->
     <defs>
      <path d="M 46 62.703125 
L 46 35.5 
L 73.1875 35.5 
L 73.1875 27.203125 
L 46 27.203125 
L 46 0 
L 37.796875 0 
L 37.796875 27.203125 
L 10.59375 27.203125 
L 10.59375 35.5 
L 37.796875 35.5 
L 37.796875 62.703125 
z
" id="DejaVuSans-43"/>
     </defs>
     <g transform="translate(364.779375 177.287375)scale(0.1 -0.1)">
      <use xlink:href="#DejaVuSans-43"/>
      <use x="83.789062" xlink:href="#DejaVuSans-49"/>
      <use x="147.412109" xlink:href="#DejaVuSans-32"/>
      <use x="179.199219" xlink:href="#DejaVuSans-115"/>
      <use x="231.298828" xlink:href="#DejaVuSans-100"/>
     </g>
    </g>
    <g id="line2d_36">
     <path d="M 336.779375 188.4655 
L 356.779375 188.4655 
" style="fill:none;stroke:#ff0000;stroke-linecap:square;stroke-width:1.5;"/>
    </g>
    <g id="line2d_37"/>
    <g id="text_20">
     <!-- best -->
     <g transform="translate(364.779375 191.9655)scale(0.1 -0.1)">
      <use xlink:href="#DejaVuSans-98"/>
      <use x="63.476562" xlink:href="#DejaVuSans-101"/>
      <use x="125" xlink:href="#DejaVuSans-115"/>
      <use x="177.099609" xlink:href="#DejaVuSans-116"/>
     </g>
    </g>
   </g>
  </g>
 </g>
 <defs>
  <clipPath id="p19caafe647">
   <rect height="266.112" width="357.12" x="57.6" y="41.472"/>
  </clipPath>
 </defs>
</svg>
