<?xml version="1.0" encoding="utf-8" standalone="no"?>
<!DOCTYPE svg PUBLIC "-//W3C//DTD SVG 1.1//EN"
  "http://www.w3.org/Graphics/SVG/1.1/DTD/svg11.dtd">
<!-- Created with matplotlib (https://matplotlib.org/) -->
<svg height="345.6pt" version="1.1" viewBox="0 0 460.8 345.6" width="460.8pt" xmlns="http://www.w3.org/2000/svg" xmlns:xlink="http://www.w3.org/1999/xlink">
 <defs>
  <style type="text/css">
*{stroke-linecap:butt;stroke-linejoin:round;}
  </style>
 </defs>
 <g id="figure_1">
  <g id="patch_1">
   <path d="M 0 345.6 
L 460.8 345.6 
L 460.8 0 
L 0 0 
z
" style="fill:#ffffff;"/>
  </g>
  <g id="axes_1">
   <g id="patch_2">
    <path d="M 57.6 307.584 
L 414.72 307.584 
L 414.72 41.472 
L 57.6 41.472 
z
" style="fill:#ffffff;"/>
   </g>
   <g id="matplotlib.axis_1">
    <g id="xtick_1">
     <g id="line2d_1">
      <path clip-path="url(#pa6a86a8309)" d="M 73.832727 307.584 
L 73.832727 41.472 
" style="fill:none;stroke:#b0b0b0;stroke-linecap:square;stroke-width:0.8;"/>
     </g>
     <g id="line2d_2">
      <defs>
       <path d="M 0 0 
L 0 3.5 
" id="m5e79d86dea" style="stroke:#000000;stroke-width:0.8;"/>
      </defs>
      <g>
       <use style="stroke:#000000;stroke-width:0.8;" x="73.832727" xlink:href="#m5e79d86dea" y="307.584"/>
      </g>
     </g>
     <g id="text_1">
      <!-- 0 -->
      <defs>
       <path d="M 31.78125 66.40625 
Q 24.171875 66.40625 20.328125 58.90625 
Q 16.5 51.421875 16.5 36.375 
Q 16.5 21.390625 20.328125 13.890625 
Q 24.171875 6.390625 31.78125 6.390625 
Q 39.453125 6.390625 43.28125 13.890625 
Q 47.125 21.390625 47.125 36.375 
Q 47.125 51.421875 43.28125 58.90625 
Q 39.453125 66.40625 31.78125 66.40625 
z
M 31.78125 74.21875 
Q 44.046875 74.21875 50.515625 64.515625 
Q 56.984375 54.828125 56.984375 36.375 
Q 56.984375 17.96875 50.515625 8.265625 
Q 44.046875 -1.421875 31.78125 -1.421875 
Q 19.53125 -1.421875 13.0625 8.265625 
Q 6.59375 17.96875 6.59375 36.375 
Q 6.59375 54.828125 13.0625 64.515625 
Q 19.53125 74.21875 31.78125 74.21875 
z
" id="DejaVuSans-48"/>
      </defs>
      <g transform="translate(70.651477 322.182437)scale(0.1 -0.1)">
       <use xlink:href="#DejaVuSans-48"/>
      </g>
     </g>
    </g>
    <g id="xtick_2">
     <g id="line2d_3">
      <path clip-path="url(#pa6a86a8309)" d="M 138.893758 307.584 
L 138.893758 41.472 
" style="fill:none;stroke:#b0b0b0;stroke-linecap:square;stroke-width:0.8;"/>
     </g>
     <g id="line2d_4">
      <g>
       <use style="stroke:#000000;stroke-width:0.8;" x="138.893758" xlink:href="#m5e79d86dea" y="307.584"/>
      </g>
     </g>
     <g id="text_2">
      <!-- 100 -->
      <defs>
       <path d="M 12.40625 8.296875 
L 28.515625 8.296875 
L 28.515625 63.921875 
L 10.984375 60.40625 
L 10.984375 69.390625 
L 28.421875 72.90625 
L 38.28125 72.90625 
L 38.28125 8.296875 
L 54.390625 8.296875 
L 54.390625 0 
L 12.40625 0 
z
" id="DejaVuSans-49"/>
      </defs>
      <g transform="translate(129.350008 322.182437)scale(0.1 -0.1)">
       <use xlink:href="#DejaVuSans-49"/>
       <use x="63.623047" xlink:href="#DejaVuSans-48"/>
       <use x="127.246094" xlink:href="#DejaVuSans-48"/>
      </g>
     </g>
    </g>
    <g id="xtick_3">
     <g id="line2d_5">
      <path clip-path="url(#pa6a86a8309)" d="M 203.95479 307.584 
L 203.95479 41.472 
" style="fill:none;stroke:#b0b0b0;stroke-linecap:square;stroke-width:0.8;"/>
     </g>
     <g id="line2d_6">
      <g>
       <use style="stroke:#000000;stroke-width:0.8;" x="203.95479" xlink:href="#m5e79d86dea" y="307.584"/>
      </g>
     </g>
     <g id="text_3">
      <!-- 200 -->
      <defs>
       <path d="M 19.1875 8.296875 
L 53.609375 8.296875 
L 53.609375 0 
L 7.328125 0 
L 7.328125 8.296875 
Q 12.9375 14.109375 22.625 23.890625 
Q 32.328125 33.6875 34.8125 36.53125 
Q 39.546875 41.84375 41.421875 45.53125 
Q 43.3125 49.21875 43.3125 52.78125 
Q 43.3125 58.59375 39.234375 62.25 
Q 35.15625 65.921875 28.609375 65.921875 
Q 23.96875 65.921875 18.8125 64.3125 
Q 13.671875 62.703125 7.8125 59.421875 
L 7.8125 69.390625 
Q 13.765625 71.78125 18.9375 73 
Q 24.125 74.21875 28.421875 74.21875 
Q 39.75 74.21875 46.484375 68.546875 
Q 53.21875 62.890625 53.21875 53.421875 
Q 53.21875 48.921875 51.53125 44.890625 
Q 49.859375 40.875 45.40625 35.40625 
Q 44.1875 33.984375 37.640625 27.21875 
Q 31.109375 20.453125 19.1875 8.296875 
z
" id="DejaVuSans-50"/>
      </defs>
      <g transform="translate(194.41104 322.182437)scale(0.1 -0.1)">
       <use xlink:href="#DejaVuSans-50"/>
       <use x="63.623047" xlink:href="#DejaVuSans-48"/>
       <use x="127.246094" xlink:href="#DejaVuSans-48"/>
      </g>
     </g>
    </g>
    <g id="xtick_4">
     <g id="line2d_7">
      <path clip-path="url(#pa6a86a8309)" d="M 269.015821 307.584 
L 269.015821 41.472 
" style="fill:none;stroke:#b0b0b0;stroke-linecap:square;stroke-width:0.8;"/>
     </g>
     <g id="line2d_8">
      <g>
       <use style="stroke:#000000;stroke-width:0.8;" x="269.015821" xlink:href="#m5e79d86dea" y="307.584"/>
      </g>
     </g>
     <g id="text_4">
      <!-- 300 -->
      <defs>
       <path d="M 40.578125 39.3125 
Q 47.65625 37.796875 51.625 33 
Q 55.609375 28.21875 55.609375 21.1875 
Q 55.609375 10.40625 48.1875 4.484375 
Q 40.765625 -1.421875 27.09375 -1.421875 
Q 22.515625 -1.421875 17.65625 -0.515625 
Q 12.796875 0.390625 7.625 2.203125 
L 7.625 11.71875 
Q 11.71875 9.328125 16.59375 8.109375 
Q 21.484375 6.890625 26.8125 6.890625 
Q 36.078125 6.890625 40.9375 10.546875 
Q 45.796875 14.203125 45.796875 21.1875 
Q 45.796875 27.640625 41.28125 31.265625 
Q 36.765625 34.90625 28.71875 34.90625 
L 20.21875 34.90625 
L 20.21875 43.015625 
L 29.109375 43.015625 
Q 36.375 43.015625 40.234375 45.921875 
Q 44.09375 48.828125 44.09375 54.296875 
Q 44.09375 59.90625 40.109375 62.90625 
Q 36.140625 65.921875 28.71875 65.921875 
Q 24.65625 65.921875 20.015625 65.03125 
Q 15.375 64.15625 9.8125 62.3125 
L 9.8125 71.09375 
Q 15.4375 72.65625 20.34375 73.4375 
Q 25.25 74.21875 29.59375 74.21875 
Q 40.828125 74.21875 47.359375 69.109375 
Q 53.90625 64.015625 53.90625 55.328125 
Q 53.90625 49.265625 50.4375 45.09375 
Q 46.96875 40.921875 40.578125 39.3125 
z
" id="DejaVuSans-51"/>
      </defs>
      <g transform="translate(259.472071 322.182437)scale(0.1 -0.1)">
       <use xlink:href="#DejaVuSans-51"/>
       <use x="63.623047" xlink:href="#DejaVuSans-48"/>
       <use x="127.246094" xlink:href="#DejaVuSans-48"/>
      </g>
     </g>
    </g>
    <g id="xtick_5">
     <g id="line2d_9">
      <path clip-path="url(#pa6a86a8309)" d="M 334.076852 307.584 
L 334.076852 41.472 
" style="fill:none;stroke:#b0b0b0;stroke-linecap:square;stroke-width:0.8;"/>
     </g>
     <g id="line2d_10">
      <g>
       <use style="stroke:#000000;stroke-width:0.8;" x="334.076852" xlink:href="#m5e79d86dea" y="307.584"/>
      </g>
     </g>
     <g id="text_5">
      <!-- 400 -->
      <defs>
       <path d="M 37.796875 64.3125 
L 12.890625 25.390625 
L 37.796875 25.390625 
z
M 35.203125 72.90625 
L 47.609375 72.90625 
L 47.609375 25.390625 
L 58.015625 25.390625 
L 58.015625 17.1875 
L 47.609375 17.1875 
L 47.609375 0 
L 37.796875 0 
L 37.796875 17.1875 
L 4.890625 17.1875 
L 4.890625 26.703125 
z
" id="DejaVuSans-52"/>
      </defs>
      <g transform="translate(324.533102 322.182437)scale(0.1 -0.1)">
       <use xlink:href="#DejaVuSans-52"/>
       <use x="63.623047" xlink:href="#DejaVuSans-48"/>
       <use x="127.246094" xlink:href="#DejaVuSans-48"/>
      </g>
     </g>
    </g>
    <g id="xtick_6">
     <g id="line2d_11">
      <path clip-path="url(#pa6a86a8309)" d="M 399.137883 307.584 
L 399.137883 41.472 
" style="fill:none;stroke:#b0b0b0;stroke-linecap:square;stroke-width:0.8;"/>
     </g>
     <g id="line2d_12">
      <g>
       <use style="stroke:#000000;stroke-width:0.8;" x="399.137883" xlink:href="#m5e79d86dea" y="307.584"/>
      </g>
     </g>
     <g id="text_6">
      <!-- 500 -->
      <defs>
       <path d="M 10.796875 72.90625 
L 49.515625 72.90625 
L 49.515625 64.59375 
L 19.828125 64.59375 
L 19.828125 46.734375 
Q 21.96875 47.46875 24.109375 47.828125 
Q 26.265625 48.1875 28.421875 48.1875 
Q 40.625 48.1875 47.75 41.5 
Q 54.890625 34.8125 54.890625 23.390625 
Q 54.890625 11.625 47.5625 5.09375 
Q 40.234375 -1.421875 26.90625 -1.421875 
Q 22.3125 -1.421875 17.546875 -0.640625 
Q 12.796875 0.140625 7.71875 1.703125 
L 7.71875 11.625 
Q 12.109375 9.234375 16.796875 8.0625 
Q 21.484375 6.890625 26.703125 6.890625 
Q 35.15625 6.890625 40.078125 11.328125 
Q 45.015625 15.765625 45.015625 23.390625 
Q 45.015625 31 40.078125 35.4375 
Q 35.15625 39.890625 26.703125 39.890625 
Q 22.75 39.890625 18.8125 39.015625 
Q 14.890625 38.140625 10.796875 36.28125 
z
" id="DejaVuSans-53"/>
      </defs>
      <g transform="translate(389.594133 322.182437)scale(0.1 -0.1)">
       <use xlink:href="#DejaVuSans-53"/>
       <use x="63.623047" xlink:href="#DejaVuSans-48"/>
       <use x="127.246094" xlink:href="#DejaVuSans-48"/>
      </g>
     </g>
    </g>
    <g id="text_7">
     <!-- Generations -->
     <defs>
      <path d="M 59.515625 10.40625 
L 59.515625 29.984375 
L 43.40625 29.984375 
L 43.40625 38.09375 
L 69.28125 38.09375 
L 69.28125 6.78125 
Q 63.578125 2.734375 56.6875 0.65625 
Q 49.8125 -1.421875 42 -1.421875 
Q 24.90625 -1.421875 15.25 8.5625 
Q 5.609375 18.5625 5.609375 36.375 
Q 5.609375 54.25 15.25 64.234375 
Q 24.90625 74.21875 42 74.21875 
Q 49.125 74.21875 55.546875 72.453125 
Q 61.96875 70.703125 67.390625 67.28125 
L 67.390625 56.78125 
Q 61.921875 61.421875 55.765625 63.765625 
Q 49.609375 66.109375 42.828125 66.109375 
Q 29.4375 66.109375 22.71875 58.640625 
Q 16.015625 51.171875 16.015625 36.375 
Q 16.015625 21.625 22.71875 14.15625 
Q 29.4375 6.6875 42.828125 6.6875 
Q 48.046875 6.6875 52.140625 7.59375 
Q 56.25 8.5 59.515625 10.40625 
z
" id="DejaVuSans-71"/>
      <path d="M 56.203125 29.59375 
L 56.203125 25.203125 
L 14.890625 25.203125 
Q 15.484375 15.921875 20.484375 11.0625 
Q 25.484375 6.203125 34.421875 6.203125 
Q 39.59375 6.203125 44.453125 7.46875 
Q 49.3125 8.734375 54.109375 11.28125 
L 54.109375 2.78125 
Q 49.265625 0.734375 44.1875 -0.34375 
Q 39.109375 -1.421875 33.890625 -1.421875 
Q 20.796875 -1.421875 13.15625 6.1875 
Q 5.515625 13.8125 5.515625 26.8125 
Q 5.515625 40.234375 12.765625 48.109375 
Q 20.015625 56 32.328125 56 
Q 43.359375 56 49.78125 48.890625 
Q 56.203125 41.796875 56.203125 29.59375 
z
M 47.21875 32.234375 
Q 47.125 39.59375 43.09375 43.984375 
Q 39.0625 48.390625 32.421875 48.390625 
Q 24.90625 48.390625 20.390625 44.140625 
Q 15.875 39.890625 15.1875 32.171875 
z
" id="DejaVuSans-101"/>
      <path d="M 54.890625 33.015625 
L 54.890625 0 
L 45.90625 0 
L 45.90625 32.71875 
Q 45.90625 40.484375 42.875 44.328125 
Q 39.84375 48.1875 33.796875 48.1875 
Q 26.515625 48.1875 22.3125 43.546875 
Q 18.109375 38.921875 18.109375 30.90625 
L 18.109375 0 
L 9.078125 0 
L 9.078125 54.6875 
L 18.109375 54.6875 
L 18.109375 46.1875 
Q 21.34375 51.125 25.703125 53.5625 
Q 30.078125 56 35.796875 56 
Q 45.21875 56 50.046875 50.171875 
Q 54.890625 44.34375 54.890625 33.015625 
z
" id="DejaVuSans-110"/>
      <path d="M 41.109375 46.296875 
Q 39.59375 47.171875 37.8125 47.578125 
Q 36.03125 48 33.890625 48 
Q 26.265625 48 22.1875 43.046875 
Q 18.109375 38.09375 18.109375 28.8125 
L 18.109375 0 
L 9.078125 0 
L 9.078125 54.6875 
L 18.109375 54.6875 
L 18.109375 46.1875 
Q 20.953125 51.171875 25.484375 53.578125 
Q 30.03125 56 36.53125 56 
Q 37.453125 56 38.578125 55.875 
Q 39.703125 55.765625 41.0625 55.515625 
z
" id="DejaVuSans-114"/>
      <path d="M 34.28125 27.484375 
Q 23.390625 27.484375 19.1875 25 
Q 14.984375 22.515625 14.984375 16.5 
Q 14.984375 11.71875 18.140625 8.90625 
Q 21.296875 6.109375 26.703125 6.109375 
Q 34.1875 6.109375 38.703125 11.40625 
Q 43.21875 16.703125 43.21875 25.484375 
L 43.21875 27.484375 
z
M 52.203125 31.203125 
L 52.203125 0 
L 43.21875 0 
L 43.21875 8.296875 
Q 40.140625 3.328125 35.546875 0.953125 
Q 30.953125 -1.421875 24.3125 -1.421875 
Q 15.921875 -1.421875 10.953125 3.296875 
Q 6 8.015625 6 15.921875 
Q 6 25.140625 12.171875 29.828125 
Q 18.359375 34.515625 30.609375 34.515625 
L 43.21875 34.515625 
L 43.21875 35.40625 
Q 43.21875 41.609375 39.140625 45 
Q 35.0625 48.390625 27.6875 48.390625 
Q 23 48.390625 18.546875 47.265625 
Q 14.109375 46.140625 10.015625 43.890625 
L 10.015625 52.203125 
Q 14.9375 54.109375 19.578125 55.046875 
Q 24.21875 56 28.609375 56 
Q 40.484375 56 46.34375 49.84375 
Q 52.203125 43.703125 52.203125 31.203125 
z
" id="DejaVuSans-97"/>
      <path d="M 18.3125 70.21875 
L 18.3125 54.6875 
L 36.8125 54.6875 
L 36.8125 47.703125 
L 18.3125 47.703125 
L 18.3125 18.015625 
Q 18.3125 11.328125 20.140625 9.421875 
Q 21.96875 7.515625 27.59375 7.515625 
L 36.8125 7.515625 
L 36.8125 0 
L 27.59375 0 
Q 17.1875 0 13.234375 3.875 
Q 9.28125 7.765625 9.28125 18.015625 
L 9.28125 47.703125 
L 2.6875 47.703125 
L 2.6875 54.6875 
L 9.28125 54.6875 
L 9.28125 70.21875 
z
" id="DejaVuSans-116"/>
      <path d="M 9.421875 54.6875 
L 18.40625 54.6875 
L 18.40625 0 
L 9.421875 0 
z
M 9.421875 75.984375 
L 18.40625 75.984375 
L 18.40625 64.59375 
L 9.421875 64.59375 
z
" id="DejaVuSans-105"/>
      <path d="M 30.609375 48.390625 
Q 23.390625 48.390625 19.1875 42.75 
Q 14.984375 37.109375 14.984375 27.296875 
Q 14.984375 17.484375 19.15625 11.84375 
Q 23.34375 6.203125 30.609375 6.203125 
Q 37.796875 6.203125 41.984375 11.859375 
Q 46.1875 17.53125 46.1875 27.296875 
Q 46.1875 37.015625 41.984375 42.703125 
Q 37.796875 48.390625 30.609375 48.390625 
z
M 30.609375 56 
Q 42.328125 56 49.015625 48.375 
Q 55.71875 40.765625 55.71875 27.296875 
Q 55.71875 13.875 49.015625 6.21875 
Q 42.328125 -1.421875 30.609375 -1.421875 
Q 18.84375 -1.421875 12.171875 6.21875 
Q 5.515625 13.875 5.515625 27.296875 
Q 5.515625 40.765625 12.171875 48.375 
Q 18.84375 56 30.609375 56 
z
" id="DejaVuSans-111"/>
      <path d="M 44.28125 53.078125 
L 44.28125 44.578125 
Q 40.484375 46.53125 36.375 47.5 
Q 32.28125 48.484375 27.875 48.484375 
Q 21.1875 48.484375 17.84375 46.4375 
Q 14.5 44.390625 14.5 40.28125 
Q 14.5 37.15625 16.890625 35.375 
Q 19.28125 33.59375 26.515625 31.984375 
L 29.59375 31.296875 
Q 39.15625 29.25 43.1875 25.515625 
Q 47.21875 21.78125 47.21875 15.09375 
Q 47.21875 7.46875 41.1875 3.015625 
Q 35.15625 -1.421875 24.609375 -1.421875 
Q 20.21875 -1.421875 15.453125 -0.5625 
Q 10.6875 0.296875 5.421875 2 
L 5.421875 11.28125 
Q 10.40625 8.6875 15.234375 7.390625 
Q 20.0625 6.109375 24.8125 6.109375 
Q 31.15625 6.109375 34.5625 8.28125 
Q 37.984375 10.453125 37.984375 14.40625 
Q 37.984375 18.0625 35.515625 20.015625 
Q 33.0625 21.96875 24.703125 23.78125 
L 21.578125 24.515625 
Q 13.234375 26.265625 9.515625 29.90625 
Q 5.8125 33.546875 5.8125 39.890625 
Q 5.8125 47.609375 11.28125 51.796875 
Q 16.75 56 26.8125 56 
Q 31.78125 56 36.171875 55.265625 
Q 40.578125 54.546875 44.28125 53.078125 
z
" id="DejaVuSans-115"/>
     </defs>
     <g transform="translate(205.662344 335.860562)scale(0.1 -0.1)">
      <use xlink:href="#DejaVuSans-71"/>
      <use x="77.490234" xlink:href="#DejaVuSans-101"/>
      <use x="139.013672" xlink:href="#DejaVuSans-110"/>
      <use x="202.392578" xlink:href="#DejaVuSans-101"/>
      <use x="263.916016" xlink:href="#DejaVuSans-114"/>
      <use x="305.029297" xlink:href="#DejaVuSans-97"/>
      <use x="366.308594" xlink:href="#DejaVuSans-116"/>
      <use x="405.517578" xlink:href="#DejaVuSans-105"/>
      <use x="433.300781" xlink:href="#DejaVuSans-111"/>
      <use x="494.482422" xlink:href="#DejaVuSans-110"/>
      <use x="557.861328" xlink:href="#DejaVuSans-115"/>
     </g>
    </g>
   </g>
   <g id="matplotlib.axis_2">
    <g id="ytick_1">
     <g id="line2d_13">
      <path clip-path="url(#pa6a86a8309)" d="M 57.6 284.346947 
L 414.72 284.346947 
" style="fill:none;stroke:#b0b0b0;stroke-linecap:square;stroke-width:0.8;"/>
     </g>
     <g id="line2d_14">
      <defs>
       <path d="M 0 0 
L -3.5 0 
" id="m70c53b6c1f" style="stroke:#000000;stroke-width:0.8;"/>
      </defs>
      <g>
       <use style="stroke:#000000;stroke-width:0.8;" x="57.6" xlink:href="#m70c53b6c1f" y="284.346947"/>
      </g>
     </g>
     <g id="text_8">
      <!-- 20 -->
      <g transform="translate(37.875 288.146166)scale(0.1 -0.1)">
       <use xlink:href="#DejaVuSans-50"/>
       <use x="63.623047" xlink:href="#DejaVuSans-48"/>
      </g>
     </g>
    </g>
    <g id="ytick_2">
     <g id="line2d_15">
      <path clip-path="url(#pa6a86a8309)" d="M 57.6 244.557474 
L 414.72 244.557474 
" style="fill:none;stroke:#b0b0b0;stroke-linecap:square;stroke-width:0.8;"/>
     </g>
     <g id="line2d_16">
      <g>
       <use style="stroke:#000000;stroke-width:0.8;" x="57.6" xlink:href="#m70c53b6c1f" y="244.557474"/>
      </g>
     </g>
     <g id="text_9">
      <!-- 25 -->
      <g transform="translate(37.875 248.356692)scale(0.1 -0.1)">
       <use xlink:href="#DejaVuSans-50"/>
       <use x="63.623047" xlink:href="#DejaVuSans-53"/>
      </g>
     </g>
    </g>
    <g id="ytick_3">
     <g id="line2d_17">
      <path clip-path="url(#pa6a86a8309)" d="M 57.6 204.768 
L 414.72 204.768 
" style="fill:none;stroke:#b0b0b0;stroke-linecap:square;stroke-width:0.8;"/>
     </g>
     <g id="line2d_18">
      <g>
       <use style="stroke:#000000;stroke-width:0.8;" x="57.6" xlink:href="#m70c53b6c1f" y="204.768"/>
      </g>
     </g>
     <g id="text_10">
      <!-- 30 -->
      <g transform="translate(37.875 208.567219)scale(0.1 -0.1)">
       <use xlink:href="#DejaVuSans-51"/>
       <use x="63.623047" xlink:href="#DejaVuSans-48"/>
      </g>
     </g>
    </g>
    <g id="ytick_4">
     <g id="line2d_19">
      <path clip-path="url(#pa6a86a8309)" d="M 57.6 164.978526 
L 414.72 164.978526 
" style="fill:none;stroke:#b0b0b0;stroke-linecap:square;stroke-width:0.8;"/>
     </g>
     <g id="line2d_20">
      <g>
       <use style="stroke:#000000;stroke-width:0.8;" x="57.6" xlink:href="#m70c53b6c1f" y="164.978526"/>
      </g>
     </g>
     <g id="text_11">
      <!-- 35 -->
      <g transform="translate(37.875 168.777745)scale(0.1 -0.1)">
       <use xlink:href="#DejaVuSans-51"/>
       <use x="63.623047" xlink:href="#DejaVuSans-53"/>
      </g>
     </g>
    </g>
    <g id="ytick_5">
     <g id="line2d_21">
      <path clip-path="url(#pa6a86a8309)" d="M 57.6 125.189053 
L 414.72 125.189053 
" style="fill:none;stroke:#b0b0b0;stroke-linecap:square;stroke-width:0.8;"/>
     </g>
     <g id="line2d_22">
      <g>
       <use style="stroke:#000000;stroke-width:0.8;" x="57.6" xlink:href="#m70c53b6c1f" y="125.189053"/>
      </g>
     </g>
     <g id="text_12">
      <!-- 40 -->
      <g transform="translate(37.875 128.988271)scale(0.1 -0.1)">
       <use xlink:href="#DejaVuSans-52"/>
       <use x="63.623047" xlink:href="#DejaVuSans-48"/>
      </g>
     </g>
    </g>
    <g id="ytick_6">
     <g id="line2d_23">
      <path clip-path="url(#pa6a86a8309)" d="M 57.6 85.399579 
L 414.72 85.399579 
" style="fill:none;stroke:#b0b0b0;stroke-linecap:square;stroke-width:0.8;"/>
     </g>
     <g id="line2d_24">
      <g>
       <use style="stroke:#000000;stroke-width:0.8;" x="57.6" xlink:href="#m70c53b6c1f" y="85.399579"/>
      </g>
     </g>
     <g id="text_13">
      <!-- 45 -->
      <g transform="translate(37.875 89.198798)scale(0.1 -0.1)">
       <use xlink:href="#DejaVuSans-52"/>
       <use x="63.623047" xlink:href="#DejaVuSans-53"/>
      </g>
     </g>
    </g>
    <g id="ytick_7">
     <g id="line2d_25">
      <path clip-path="url(#pa6a86a8309)" d="M 57.6 45.610105 
L 414.72 45.610105 
" style="fill:none;stroke:#b0b0b0;stroke-linecap:square;stroke-width:0.8;"/>
     </g>
     <g id="line2d_26">
      <g>
       <use style="stroke:#000000;stroke-width:0.8;" x="57.6" xlink:href="#m70c53b6c1f" y="45.610105"/>
      </g>
     </g>
     <g id="text_14">
      <!-- 50 -->
      <g transform="translate(37.875 49.409324)scale(0.1 -0.1)">
       <use xlink:href="#DejaVuSans-53"/>
       <use x="63.623047" xlink:href="#DejaVuSans-48"/>
      </g>
     </g>
    </g>
    <g id="text_15">
     <!-- Fitness -->
     <defs>
      <path d="M 9.8125 72.90625 
L 51.703125 72.90625 
L 51.703125 64.59375 
L 19.671875 64.59375 
L 19.671875 43.109375 
L 48.578125 43.109375 
L 48.578125 34.8125 
L 19.671875 34.8125 
L 19.671875 0 
L 9.8125 0 
z
" id="DejaVuSans-70"/>
     </defs>
     <g transform="translate(31.795312 192.202219)rotate(-90)scale(0.1 -0.1)">
      <use xlink:href="#DejaVuSans-70"/>
      <use x="57.410156" xlink:href="#DejaVuSans-105"/>
      <use x="85.193359" xlink:href="#DejaVuSans-116"/>
      <use x="124.402344" xlink:href="#DejaVuSans-110"/>
      <use x="187.78125" xlink:href="#DejaVuSans-101"/>
      <use x="249.304688" xlink:href="#DejaVuSans-115"/>
      <use x="301.404297" xlink:href="#DejaVuSans-115"/>
     </g>
    </g>
   </g>
   <g id="line2d_27">
    <path clip-path="url(#pa6a86a8309)" d="M 73.832727 294.135158 
L 74.483338 295.488 
L 75.133948 294.119801 
L 75.784558 293.455859 
L 76.435169 293.805587 
L 77.085779 293.654311 
L 77.736389 295.319196 
L 78.386999 293.584504 
L 79.03761 290.915683 
L 79.68822 290.975169 
L 80.989441 289.400211 
L 81.640051 291.07303 
L 82.290661 290.236577 
L 82.941272 289.724436 
L 83.591882 287.765895 
L 84.242492 289.471349 
L 84.893103 285.074065 
L 85.543713 286.94626 
L 86.194323 286.728362 
L 86.844934 286.999579 
L 87.495544 285.541644 
L 88.146154 286.629288 
L 88.796764 284.689439 
L 89.447375 285.276042 
L 90.097985 282.328359 
L 90.748595 285.633672 
L 91.399206 279.620685 
L 92.049816 281.947876 
L 93.351037 281.397379 
L 94.001647 283.164288 
L 94.652257 280.239007 
L 95.302868 279.657474 
L 95.953478 276.800668 
L 96.604088 275.538591 
L 97.254698 273.531355 
L 97.905309 273.329862 
L 98.555919 275.916306 
L 99.206529 275.384467 
L 99.85714 272.168957 
L 100.50775 272.834658 
L 101.15836 269.363879 
L 101.808971 268.033263 
L 102.459581 264.995243 
L 103.110191 266.089433 
L 103.760802 267.456316 
L 104.411412 266.109278 
L 105.062022 262.940211 
L 105.712633 265.824947 
L 106.363243 262.522421 
L 107.013853 263.628638 
L 107.664463 264.452211 
L 108.315074 261.124902 
L 108.965684 255.96842 
L 109.616294 260.334 
L 110.917515 258.707047 
L 111.568125 256.534105 
L 112.218736 254.962421 
L 112.869346 250.048421 
L 113.519956 247.868277 
L 114.170567 257.734636 
L 114.821177 248.626172 
L 115.471787 254.90872 
L 116.122398 255.766338 
L 116.773008 247.13734 
L 117.423618 248.526498 
L 118.074228 250.272869 
L 118.724839 248.854737 
L 119.375449 256.883235 
L 120.026059 247.223368 
L 120.67667 254.226316 
L 121.32728 248.785729 
L 121.97789 253.112211 
L 122.628501 243.22785 
L 123.279111 252.754105 
L 123.929721 251.441053 
L 124.580332 244.517584 
L 125.881552 246.930881 
L 126.532163 252.774648 
L 127.182773 253.871601 
L 127.833383 260.075368 
L 128.483993 260.871158 
L 129.134604 252.813789 
L 129.785214 251.242105 
L 130.435824 252.435789 
L 131.086435 258.722526 
L 131.737045 251.620105 
L 132.387655 251.918526 
L 133.038266 250.227474 
L 133.688876 249.391895 
L 134.339486 252.157263 
L 134.990097 254.266105 
L 135.640707 251.719579 
L 136.291317 253.888105 
L 136.941927 255.121579 
L 137.592538 252.933158 
L 138.243148 257.568632 
L 138.893758 253.271368 
L 139.544369 260.095263 
L 140.194979 260.572737 
L 140.845589 258.861789 
L 141.4962 251.122737 
L 142.14681 255.181263 
L 142.79742 252.694421 
L 143.448031 251.301789 
L 144.098641 256.315263 
L 144.749251 252.376105 
L 145.399862 251.361474 
L 146.050472 252.853579 
L 146.701082 254.703789 
L 147.351692 247.362632 
L 148.002303 253.191789 
L 148.652913 253.410632 
L 149.303523 246.964737 
L 149.954134 250.128 
L 150.604744 248.198211 
L 151.255354 250.247368 
L 151.905965 247.760526 
L 152.556575 243.125053 
L 153.207185 245.651684 
L 153.857796 251.600211 
L 154.508406 249.690316 
L 155.159016 250.426421 
L 155.809627 244.378421 
L 156.460237 248.536421 
L 157.110847 245.572105 
L 157.761457 254.226316 
L 158.412068 254.325789 
L 159.062678 248.675684 
L 159.713288 256.255579 
L 160.363899 247.661053 
L 161.014509 249.312316 
L 161.665119 247.959474 
L 162.31573 250.724842 
L 162.96634 251.082947 
L 163.61695 255.240947 
L 164.267561 252.933158 
L 164.918171 243.960632 
L 165.568781 249.391895 
L 166.870002 238.827789 
L 167.520612 239.981684 
L 168.171222 237.912632 
L 168.821833 239.683263 
L 169.472443 234.928421 
L 170.773664 239.961789 
L 172.725495 231.247895 
L 173.376105 236.679158 
L 174.026715 235.485474 
L 174.677326 227.249053 
L 175.327936 227.945368 
L 175.978546 226.930737 
L 176.629156 222.892105 
L 177.279767 229.158947 
L 177.930377 229.775684 
L 178.580987 226.194632 
L 179.231598 229.616526 
L 179.882208 223.329789 
L 180.532818 225.637579 
L 181.183429 237.395368 
L 181.834039 224.642842 
L 182.484649 230.611263 
L 183.13526 229.318105 
L 183.78587 223.349684 
L 184.43648 228.343263 
L 185.087091 226.234421 
L 185.737701 220.246105 
L 186.388311 225.438632 
L 187.038921 226.552737 
L 187.689532 225.458526 
L 188.340142 227.865789 
L 188.990752 222.912 
L 189.641363 222.295263 
L 190.291973 230.651053 
L 191.593194 224.284737 
L 192.243804 220.564421 
L 192.894414 228.522316 
L 194.195635 217.062947 
L 194.846245 223.250211 
L 195.496856 231.009158 
L 196.147466 227.050105 
L 196.798076 217.003263 
L 197.448686 224.941263 
L 198.749907 222.335053 
L 199.400517 223.170632 
L 200.051128 228.104526 
L 200.701738 224.782105 
L 201.352348 224.205158 
L 202.002959 224.563263 
L 202.653569 223.588421 
L 203.304179 216.943579 
L 204.6054 226.512947 
L 205.25601 220.783263 
L 205.906621 218.555053 
L 206.557231 225.100421 
L 207.207841 222.892105 
L 207.858451 230.710737 
L 208.509062 219.211579 
L 209.159672 218.933053 
L 209.810282 221.837684 
L 210.460893 219.808421 
L 211.111503 226.950632 
L 211.762113 226.791474 
L 212.412724 220.723579 
L 213.063334 222.156 
L 213.713944 216.545684 
L 214.364555 222.792632 
L 215.015165 222.951789 
L 215.665775 217.440947 
L 216.316385 227.149579 
L 216.966996 216.883895 
L 217.617606 219.370737 
L 218.268216 223.110947 
L 218.918827 222.315158 
L 219.569437 230.213368 
L 220.220047 225.219789 
L 220.870658 219.311053 
L 221.521268 220.584316 
L 222.171878 223.051263 
L 222.822489 217.918421 
L 223.473099 223.687895 
L 224.123709 223.568526 
L 224.77432 220.464947 
L 225.42493 221.857579 
L 226.07554 226.572632 
L 227.376761 216.187579 
L 228.027371 216.326842 
L 228.677981 220.624105 
L 229.328592 221.320421 
L 229.979202 220.922526 
L 230.629812 220.862842 
L 231.280423 213.999158 
L 231.931033 218.196947 
L 232.581643 209.085158 
L 233.232254 215.73 
L 233.882864 225.577895 
L 234.533474 224.563263 
L 235.184085 224.483684 
L 235.834695 211.671474 
L 236.485305 220.584316 
L 237.135915 223.668 
L 237.786526 216.068211 
L 238.437136 222.553895 
L 239.087746 226.970526 
L 239.738357 217.460842 
L 240.388967 214.615895 
L 241.039577 223.429263 
L 242.340798 217.440947 
L 242.991408 221.181158 
L 243.642019 213.780316 
L 244.292629 221.738211 
L 244.943239 221.758105 
L 245.59385 215.391789 
L 246.24446 223.568526 
L 246.89507 220.922526 
L 247.54568 219.330947 
L 248.196291 214.257789 
L 248.846901 222.116211 
L 249.497511 222.156 
L 250.148122 217.043053 
L 250.798732 218.077579 
L 251.449342 214.596 
L 252.099953 221.141368 
L 252.750563 220.604211 
L 253.401173 220.405263 
L 254.051784 218.057684 
L 254.702394 219.947684 
L 255.353004 217.739368 
L 256.003615 214.019053 
L 256.654225 215.172947 
L 257.304835 216.565579 
L 257.955445 214.894421 
L 258.606056 216.684947 
L 259.256666 212.725895 
L 259.907276 212.049474 
L 260.557887 220.663895 
L 261.208497 218.097474 
L 261.859107 217.918421 
L 262.509718 213.422211 
L 263.160328 216.804316 
L 263.810938 218.555053 
L 264.461549 215.133158 
L 265.112159 217.600105 
L 266.413379 219.649263 
L 267.06399 213.800211 
L 267.7146 222.096316 
L 268.36521 214.257789 
L 269.015821 219.987474 
L 269.666431 212.248421 
L 270.317041 211.492421 
L 270.967652 215.710105 
L 271.618262 218.376 
L 272.268872 217.560316 
L 272.919483 217.301684 
L 273.570093 212.308105 
L 274.220703 211.094526 
L 274.871314 211.432737 
L 275.521924 218.555053 
L 276.172534 213.163579 
L 276.823144 216.545684 
L 278.124365 219.927789 
L 278.774975 219.788526 
L 279.425586 222.056526 
L 280.076196 216.088105 
L 280.726806 221.778 
L 281.377417 216.426316 
L 282.028027 214.218 
L 282.678637 212.984526 
L 283.329248 216.625263 
L 283.979858 216.486 
L 284.630468 220.266 
L 285.281079 207.036 
L 285.931689 211.930105 
L 286.582299 213.720632 
L 287.232909 211.432737 
L 287.88352 215.968737 
L 289.18474 209.423368 
L 289.835351 207.752211 
L 290.485961 221.499474 
L 291.136571 214.416947 
L 291.787182 215.093368 
L 292.437792 213.541579 
L 293.088402 215.431579 
L 293.739013 211.213895 
L 294.389623 216.844105 
L 295.040233 211.671474 
L 295.690844 211.373053 
L 296.341454 209.880947 
L 296.992064 217.142526 
L 297.642674 215.889158 
L 298.293285 211.452632 
L 298.943895 216.346737 
L 299.594505 210.477789 
L 300.245116 208.329158 
L 300.895726 215.829474 
L 301.546336 212.188737 
L 302.196947 210.816 
L 302.847557 205.643368 
L 303.498167 213.84 
L 304.148778 215.570842 
L 304.799388 207.473684 
L 305.449998 212.865158 
L 306.100608 210.457895 
L 306.751219 214.715368 
L 307.401829 203.554421 
L 308.052439 210.975158 
L 308.70305 204.191053 
L 309.35366 207.971053 
L 310.00427 215.789684 
L 310.654881 212.924842 
L 311.305491 218.873368 
L 311.956101 215.411684 
L 312.606712 210.995053 
L 313.257322 209.204526 
L 313.907932 211.552105 
L 314.558543 207.473684 
L 315.209153 213.302842 
L 315.859763 211.472526 
L 316.510373 207.891474 
L 317.160984 211.194 
L 317.811594 211.054737 
L 318.462204 213.999158 
L 319.112815 209.244316 
L 319.763425 212.924842 
L 320.414035 218.157158 
L 321.064646 212.785579 
L 321.715256 215.292316 
L 322.365866 215.332105 
L 323.016477 215.491263 
L 323.667087 212.706 
L 324.317697 210.477789 
L 324.968308 206.777368 
L 325.618918 216.645158 
L 326.269528 213.720632 
L 326.920138 215.172947 
L 327.570749 219.490105 
L 328.221359 211.333263 
L 328.871969 214.974 
L 329.52258 201.783789 
L 330.17319 211.731158 
L 330.8238 207.195158 
L 331.474411 218.276526 
L 332.125021 215.192842 
L 332.775631 214.854632 
L 333.426242 211.353158 
L 334.076852 217.321579 
L 335.378073 212.168842 
L 336.028683 219.012632 
L 336.679293 220.942421 
L 337.329903 219.828316 
L 337.980514 217.341474 
L 338.631124 213.163579 
L 339.281734 211.194 
L 339.932345 213.581368 
L 340.582955 219.788526 
L 341.233565 215.491263 
L 341.884176 212.904947 
L 342.534786 212.009684 
L 343.185396 210.557368 
L 343.836007 212.467263 
L 344.486617 216.366632 
L 345.137227 212.944737 
L 345.787837 213.402316 
L 346.438448 213.123789 
L 347.089058 214.456737 
L 347.739668 216.386526 
L 348.390279 211.154211 
L 349.040889 216.048316 
L 349.691499 211.114421 
L 350.34211 212.984526 
L 350.99272 212.845263 
L 351.64333 208.945895 
L 352.293941 213.780316 
L 352.944551 211.253684 
L 353.595161 214.078737 
L 354.245772 206.717684 
L 354.896382 218.037789 
L 355.546992 216.068211 
L 356.848213 211.392947 
L 357.498823 213.680842 
L 358.149433 212.865158 
L 358.800044 214.098632 
L 359.450654 218.077579 
L 360.101264 214.715368 
L 360.751875 210.736421 
L 361.402485 217.421053 
L 362.053095 214.695474 
L 362.703706 215.133158 
L 363.354316 211.910211 
L 364.004926 216.088105 
L 364.655537 212.706 
L 365.306147 213.859895 
L 365.956757 207.593053 
L 366.607367 206.359579 
L 367.257978 209.124947 
L 367.908588 214.078737 
L 368.559198 202.758632 
L 369.209809 203.673789 
L 369.860419 213.521684 
L 370.511029 215.710105 
L 371.16164 214.974 
L 371.81225 213.660947 
L 372.46286 211.731158 
L 373.113471 210.855789 
L 373.764081 218.873368 
L 374.414691 212.049474 
L 375.065302 212.208632 
L 375.715912 209.900842 
L 376.366522 205.543895 
L 377.017132 205.802526 
L 378.318353 216.247263 
L 378.968963 209.363684 
L 379.619574 210.219158 
L 380.270184 206.28 
L 380.920794 212.268316 
L 382.222015 205.086316 
L 382.872625 203.813053 
L 383.523236 212.586632 
L 384.173846 213.621158 
L 384.824456 209.741684 
L 385.475066 212.467263 
L 386.125677 208.846421 
L 386.776287 213.999158 
L 387.426897 208.329158 
L 388.077508 208.150105 
L 388.728118 213.959368 
L 389.378728 211.233789 
L 390.029339 212.964632 
L 390.679949 210.318632 
L 391.330559 209.900842 
L 391.98117 203.753368 
L 392.63178 213.621158 
L 393.28239 209.562632 
L 393.933001 216.645158 
L 394.583611 204.489474 
L 395.234221 201.843474 
L 395.884831 211.313368 
L 396.535442 208.050632 
L 397.186052 212.029579 
L 397.836662 205.165895 
L 398.487273 205.524 
L 398.487273 205.524 
" style="fill:none;stroke:#0000ff;stroke-linecap:square;stroke-width:1.5;"/>
   </g>
   <g id="line2d_28">
    <path clip-path="url(#pa6a86a8309)" d="M 73.832727 266.291509 
L 74.483338 267.612641 
L 75.133948 267.650651 
L 75.784558 266.264954 
L 76.435169 264.568651 
L 77.085779 265.468519 
L 77.736389 265.712653 
L 78.386999 261.027122 
L 79.03761 259.468994 
L 80.33883 252.400251 
L 80.989441 252.234393 
L 81.640051 254.020725 
L 82.290661 248.168864 
L 82.941272 252.798607 
L 84.242492 243.105802 
L 84.893103 241.781572 
L 85.543713 247.006036 
L 86.194323 245.307162 
L 86.844934 244.784156 
L 87.495544 242.195163 
L 88.146154 243.033638 
L 88.796764 242.736097 
L 90.097985 237.48425 
L 90.748595 236.577127 
L 91.399206 229.525774 
L 92.049816 232.213501 
L 92.700426 233.380483 
L 93.351037 232.136889 
L 94.001647 232.862308 
L 94.652257 228.791435 
L 95.302868 230.223017 
L 95.953478 224.334196 
L 96.604088 222.085257 
L 97.254698 215.986367 
L 98.555919 221.48835 
L 99.206529 223.017304 
L 99.85714 217.295789 
L 100.50775 217.613026 
L 101.15836 213.330026 
L 101.808971 210.806925 
L 102.459581 209.68082 
L 103.110191 204.785317 
L 103.760802 205.751838 
L 104.411412 210.121425 
L 105.062022 206.406159 
L 105.712633 206.657455 
L 106.363243 202.067979 
L 107.013853 202.413877 
L 107.664463 200.338045 
L 108.315074 200.802277 
L 108.965684 193.537035 
L 109.616294 199.101015 
L 110.266905 194.855526 
L 110.917515 196.938455 
L 111.568125 192.415013 
L 112.218736 194.48088 
L 112.869346 185.531093 
L 113.519956 185.529075 
L 114.170567 192.735399 
L 114.821177 182.162917 
L 115.471787 189.913353 
L 116.122398 190.332284 
L 116.773008 179.640604 
L 117.423618 181.165143 
L 118.074228 187.321721 
L 118.724839 183.433582 
L 119.375449 189.590421 
L 120.026059 181.248257 
L 120.67667 193.436242 
L 121.32728 182.629258 
L 121.97789 188.971196 
L 122.628501 174.861706 
L 123.279111 189.433011 
L 123.929721 187.6801 
L 124.580332 176.936232 
L 125.230942 176.738626 
L 125.881552 182.386894 
L 126.532163 190.978023 
L 127.182773 189.815239 
L 127.833383 193.727092 
L 128.483993 200.936798 
L 129.134604 187.745605 
L 129.785214 188.677969 
L 130.435824 187.329267 
L 131.086435 193.256278 
L 131.737045 186.380003 
L 132.387655 185.065402 
L 133.688876 180.562571 
L 134.990097 189.55878 
L 135.640707 186.766386 
L 136.291317 190.655261 
L 136.941927 189.793979 
L 137.592538 187.125293 
L 138.243148 193.116181 
L 138.893758 187.419621 
L 139.544369 200.225527 
L 140.194979 196.739535 
L 140.845589 194.500428 
L 141.4962 185.50297 
L 142.14681 189.158176 
L 142.79742 185.866111 
L 143.448031 183.347126 
L 144.098641 191.070477 
L 144.749251 187.287923 
L 145.399862 185.239569 
L 146.050472 190.529649 
L 147.351692 182.727944 
L 148.002303 186.505403 
L 148.652913 187.061237 
L 149.303523 180.11795 
L 149.954134 182.100799 
L 150.604744 176.770533 
L 151.255354 183.657916 
L 151.905965 179.220692 
L 152.556575 176.526649 
L 153.207185 178.548371 
L 153.857796 186.112116 
L 154.508406 180.945907 
L 155.159016 185.53244 
L 155.809627 176.334003 
L 156.460237 179.227315 
L 157.110847 179.329505 
L 157.761457 189.003722 
L 158.412068 188.850282 
L 159.062678 180.781412 
L 159.713288 195.221016 
L 160.363899 182.257082 
L 161.014509 182.893449 
L 161.665119 180.432273 
L 162.31573 185.633167 
L 162.96634 185.984839 
L 163.61695 188.600911 
L 164.267561 188.885826 
L 164.918171 178.415701 
L 165.568781 183.255879 
L 166.870002 174.375425 
L 167.520612 174.318503 
L 168.171222 168.346896 
L 168.821833 172.710431 
L 169.472443 169.25245 
L 170.123053 175.186103 
L 170.773664 174.173534 
L 172.074884 168.154279 
L 172.725495 163.302085 
L 173.376105 170.614299 
L 174.026715 170.155374 
L 174.677326 159.278021 
L 175.327936 159.482104 
L 175.978546 157.729635 
L 176.629156 151.888018 
L 177.279767 159.79697 
L 177.930377 159.824389 
L 178.580987 158.891378 
L 179.231598 161.420807 
L 179.882208 156.022302 
L 180.532818 157.359494 
L 181.183429 168.317358 
L 181.834039 158.086104 
L 182.484649 162.562541 
L 183.13526 161.951448 
L 183.78587 153.059453 
L 184.43648 158.510257 
L 185.087091 160.401901 
L 185.737701 152.776497 
L 186.388311 154.094211 
L 187.038921 157.85458 
L 187.689532 156.288901 
L 188.340142 156.715805 
L 188.990752 154.032939 
L 189.641363 156.342368 
L 190.291973 160.955275 
L 190.942583 157.602338 
L 191.593194 158.264062 
L 192.243804 150.02821 
L 192.894414 157.554234 
L 193.545025 155.435805 
L 194.195635 146.561221 
L 195.496856 162.108313 
L 196.147466 156.536242 
L 196.798076 146.726179 
L 197.448686 158.673558 
L 198.099297 153.767095 
L 198.749907 154.319748 
L 199.400517 150.983778 
L 200.051128 160.758944 
L 200.701738 153.606855 
L 201.352348 153.919919 
L 202.002959 153.595151 
L 202.653569 153.995835 
L 203.304179 148.017414 
L 203.95479 151.26529 
L 204.6054 155.294927 
L 205.25601 151.908457 
L 205.906621 150.211633 
L 206.557231 154.785779 
L 207.207841 154.077942 
L 207.858451 160.139688 
L 208.509062 147.813795 
L 209.159672 147.88612 
L 209.810282 151.535652 
L 210.460893 150.072149 
L 211.111503 159.494931 
L 211.762113 158.56282 
L 212.412724 154.570076 
L 213.063334 156.258685 
L 213.713944 148.402403 
L 214.364555 152.379978 
L 215.015165 149.873885 
L 215.665775 150.978735 
L 216.316385 155.999883 
L 216.966996 148.652433 
L 217.617606 153.7976 
L 218.268216 153.477334 
L 218.918827 153.529768 
L 219.569437 162.303335 
L 220.220047 157.129734 
L 220.870658 148.7578 
L 221.521268 151.340413 
L 222.171878 153.384908 
L 222.822489 147.007486 
L 223.473099 152.37921 
L 224.123709 153.016014 
L 224.77432 152.504459 
L 225.42493 150.724173 
L 226.07554 155.639081 
L 226.72615 153.366359 
L 227.376761 146.752599 
L 228.027371 144.793051 
L 228.677981 153.318734 
L 229.328592 155.566055 
L 229.979202 153.877983 
L 230.629812 151.327054 
L 231.280423 144.98792 
L 231.931033 147.665195 
L 232.581643 141.070435 
L 233.232254 148.071516 
L 233.882864 157.521946 
L 234.533474 157.511285 
L 235.184085 155.001422 
L 235.834695 143.247486 
L 237.135915 157.457371 
L 237.786526 144.837895 
L 238.437136 153.386661 
L 239.087746 155.020463 
L 239.738357 151.347557 
L 240.388967 146.926483 
L 241.039577 156.294162 
L 241.690188 152.066105 
L 242.340798 146.8322 
L 242.991408 151.387838 
L 243.642019 144.973308 
L 244.292629 153.822838 
L 244.943239 153.995907 
L 245.59385 144.715211 
L 246.24446 155.169463 
L 246.89507 151.458674 
L 247.54568 152.514907 
L 248.196291 146.344515 
L 248.846901 152.334684 
L 249.497511 153.53293 
L 250.148122 146.989531 
L 250.798732 147.680455 
L 251.449342 145.786769 
L 252.099953 150.365661 
L 252.750563 152.000004 
L 253.401173 152.859763 
L 254.051784 147.723174 
L 254.702394 151.247062 
L 255.353004 148.127983 
L 256.003615 147.607051 
L 256.654225 145.366313 
L 257.304835 147.217791 
L 257.955445 145.529034 
L 258.606056 149.720318 
L 259.256666 144.847805 
L 259.907276 141.476014 
L 260.557887 154.284608 
L 261.208497 147.084967 
L 261.859107 150.453614 
L 262.509718 146.038132 
L 263.160328 149.131863 
L 263.810938 148.742522 
L 264.461549 146.224501 
L 265.112159 145.689025 
L 265.762769 148.586168 
L 266.413379 150.751127 
L 267.06399 145.92829 
L 267.7146 152.374533 
L 268.36521 145.03305 
L 269.015821 147.330612 
L 269.666431 143.420038 
L 270.317041 144.961387 
L 270.967652 147.163858 
L 271.618262 150.481165 
L 272.268872 150.30389 
L 272.919483 147.974592 
L 273.570093 143.567949 
L 274.220703 140.494062 
L 274.871314 143.942426 
L 275.521924 148.418977 
L 276.172534 146.724939 
L 276.823144 146.502828 
L 278.124365 153.869605 
L 278.774975 151.973514 
L 279.425586 154.901728 
L 280.076196 149.086132 
L 280.726806 152.118645 
L 281.377417 150.247067 
L 282.028027 146.893861 
L 282.678637 144.354227 
L 283.329248 146.11369 
L 283.979858 151.207373 
L 284.630468 150.435873 
L 285.281079 140.42753 
L 285.931689 142.449891 
L 286.582299 146.492021 
L 287.232909 144.311731 
L 287.88352 145.89341 
L 288.53413 146.027925 
L 289.18474 143.261346 
L 289.835351 139.946756 
L 290.485961 152.047979 
L 291.136571 145.604233 
L 291.787182 148.546622 
L 292.437792 146.3188 
L 293.088402 147.586431 
L 293.739013 144.800555 
L 294.389623 149.286456 
L 295.040233 142.767894 
L 295.690844 144.386626 
L 296.341454 143.2459 
L 296.992064 148.703718 
L 297.642674 144.718482 
L 298.293285 142.276414 
L 298.943895 147.118552 
L 299.594505 140.003142 
L 300.245116 138.75001 
L 300.895726 144.748544 
L 301.546336 142.368496 
L 302.196947 142.208332 
L 302.847557 136.186901 
L 303.498167 144.120757 
L 304.148778 145.815596 
L 304.799388 140.40539 
L 305.449998 144.317609 
L 306.100608 140.791639 
L 306.751219 146.29714 
L 307.401829 139.078654 
L 308.052439 143.743144 
L 308.70305 136.881072 
L 309.35366 138.520242 
L 310.00427 147.798904 
L 310.654881 142.717277 
L 311.305491 150.137358 
L 311.956101 145.740966 
L 312.606712 144.798381 
L 313.257322 139.190114 
L 313.907932 145.647598 
L 314.558543 138.650822 
L 315.209153 142.104254 
L 315.859763 144.66047 
L 316.510373 139.669781 
L 317.160984 142.850812 
L 317.811594 143.886664 
L 318.462204 145.642556 
L 319.112815 141.239883 
L 319.763425 146.695087 
L 320.414035 150.918036 
L 321.064646 145.397929 
L 321.715256 148.824363 
L 322.365866 147.540256 
L 323.016477 151.499821 
L 323.667087 144.449947 
L 324.317697 140.329639 
L 324.968308 141.353627 
L 325.618918 145.541048 
L 326.269528 148.417692 
L 326.920138 149.29862 
L 327.570749 148.950427 
L 328.221359 141.462506 
L 328.871969 146.857167 
L 329.52258 136.398472 
L 330.17319 144.274503 
L 330.8238 138.99968 
L 331.474411 148.81637 
L 332.125021 148.617597 
L 332.775631 143.286234 
L 333.426242 142.14109 
L 334.076852 148.646287 
L 334.727462 146.589659 
L 335.378073 139.70169 
L 336.028683 148.283151 
L 336.679293 152.800607 
L 337.329903 152.44372 
L 337.980514 149.683642 
L 339.281734 142.465038 
L 339.932345 145.868642 
L 340.582955 152.291765 
L 341.233565 147.916251 
L 341.884176 144.60507 
L 342.534786 145.37834 
L 343.185396 144.714148 
L 343.836007 143.809287 
L 344.486617 146.866735 
L 345.137227 146.623075 
L 345.787837 149.837327 
L 346.438448 145.372936 
L 347.089058 144.860321 
L 347.739668 145.682792 
L 348.390279 144.860365 
L 349.040889 149.086902 
L 349.691499 143.979075 
L 350.34211 143.821107 
L 350.99272 145.158807 
L 351.64333 139.481917 
L 352.293941 146.810982 
L 352.944551 142.423288 
L 353.595161 144.862846 
L 354.245772 142.067454 
L 354.896382 149.002448 
L 355.546992 147.328581 
L 356.197602 145.139785 
L 356.848213 144.034906 
L 357.498823 145.571955 
L 358.149433 144.211448 
L 358.800044 146.882565 
L 359.450654 147.453676 
L 360.101264 143.933708 
L 360.751875 141.86844 
L 361.402485 148.090524 
L 362.053095 149.661289 
L 362.703706 144.526855 
L 363.354316 143.443639 
L 364.004926 151.215889 
L 364.655537 146.858331 
L 365.306147 145.896868 
L 365.956757 139.273715 
L 367.257978 141.352952 
L 367.908588 144.881147 
L 368.559198 138.089416 
L 369.209809 135.845355 
L 369.860419 143.775379 
L 370.511029 148.178389 
L 371.16164 147.113315 
L 371.81225 145.771806 
L 372.46286 143.018815 
L 373.113471 141.745803 
L 373.764081 149.520536 
L 374.414691 141.597258 
L 375.065302 147.626614 
L 375.715912 141.634825 
L 376.366522 136.977502 
L 377.017132 136.51942 
L 377.667743 141.666104 
L 378.318353 145.401128 
L 378.968963 145.688594 
L 379.619574 139.185965 
L 380.270184 139.493443 
L 380.920794 145.353733 
L 381.571405 141.433139 
L 382.222015 139.144509 
L 382.872625 136.025708 
L 383.523236 143.07808 
L 384.173846 143.582712 
L 384.824456 140.962555 
L 386.125677 141.98597 
L 386.776287 145.293716 
L 387.426897 143.418759 
L 388.077508 138.18877 
L 388.728118 145.606669 
L 389.378728 144.521498 
L 390.029339 143.066813 
L 391.330559 139.44584 
L 391.98117 136.450914 
L 392.63178 144.887865 
L 393.28239 145.899725 
L 393.933001 147.888789 
L 394.583611 137.821608 
L 395.234221 134.06461 
L 395.884831 144.414497 
L 396.535442 138.9853 
L 397.186052 145.735089 
L 397.836662 137.219033 
L 398.487273 139.674657 
L 398.487273 139.674657 
" style="fill:none;stroke:#008000;stroke-dasharray:9.6,2.4,1.5,2.4;stroke-dashoffset:0;stroke-width:1.5;"/>
   </g>
   <g id="line2d_29">
    <path clip-path="url(#pa6a86a8309)" d="M 73.832727 212.725895 
L 74.483338 220.683789 
L 75.784558 220.683789 
L 76.435169 188.852211 
L 77.085779 125.189053 
L 77.736389 85.399579 
L 78.386999 149.062737 
L 79.03761 101.315368 
L 79.68822 109.273263 
L 80.33883 109.273263 
L 80.989441 93.357474 
L 81.640051 117.231158 
L 82.941272 85.399579 
L 83.591882 85.399579 
L 84.242492 77.441684 
L 84.893103 61.525895 
L 85.543713 93.357474 
L 86.194323 93.357474 
L 86.844934 101.315368 
L 87.495544 77.441684 
L 88.146154 85.399579 
L 88.796764 85.399579 
L 89.447375 69.483789 
L 90.097985 77.441684 
L 91.399206 77.441684 
L 92.049816 69.483789 
L 92.700426 69.483789 
L 93.351037 101.315368 
L 95.302868 77.441684 
L 95.953478 85.399579 
L 96.604088 85.399579 
L 97.254698 61.525895 
L 98.555919 109.273263 
L 99.206529 93.357474 
L 99.85714 85.399579 
L 100.50775 101.315368 
L 101.15836 93.357474 
L 101.808971 93.357474 
L 102.459581 69.483789 
L 103.110191 53.568 
L 103.760802 85.399579 
L 104.411412 101.315368 
L 105.062022 101.315368 
L 105.712633 69.483789 
L 106.363243 93.357474 
L 107.013853 77.441684 
L 107.664463 101.315368 
L 108.315074 77.441684 
L 108.965684 77.441684 
L 109.616294 101.315368 
L 110.266905 93.357474 
L 110.917515 93.357474 
L 111.568125 85.399579 
L 112.218736 93.357474 
L 112.869346 77.441684 
L 113.519956 77.441684 
L 114.170567 69.483789 
L 114.821177 85.399579 
L 115.471787 77.441684 
L 116.122398 93.357474 
L 116.773008 85.399579 
L 117.423618 85.399579 
L 118.074228 93.357474 
L 118.724839 93.357474 
L 119.375449 85.399579 
L 120.67667 101.315368 
L 123.279111 69.483789 
L 123.929721 85.399579 
L 124.580332 85.399579 
L 125.230942 77.441684 
L 125.881552 85.399579 
L 127.833383 85.399579 
L 128.483993 93.357474 
L 129.134604 61.525895 
L 129.785214 109.273263 
L 131.086435 77.441684 
L 131.737045 101.315368 
L 133.038266 85.399579 
L 133.688876 93.357474 
L 134.339486 93.357474 
L 134.990097 101.315368 
L 135.640707 85.399579 
L 136.291317 85.399579 
L 136.941927 77.441684 
L 138.243148 77.441684 
L 138.893758 85.399579 
L 141.4962 85.399579 
L 142.14681 101.315368 
L 142.79742 77.441684 
L 143.448031 69.483789 
L 144.098641 93.357474 
L 144.749251 101.315368 
L 145.399862 85.399579 
L 146.050472 101.315368 
L 146.701082 77.441684 
L 147.351692 93.357474 
L 148.002303 77.441684 
L 148.652913 93.357474 
L 149.303523 85.399579 
L 149.954134 85.399579 
L 150.604744 93.357474 
L 151.255354 93.357474 
L 151.905965 85.399579 
L 152.556575 93.357474 
L 153.857796 77.441684 
L 155.159016 93.357474 
L 155.809627 109.273263 
L 156.460237 93.357474 
L 157.110847 85.399579 
L 157.761457 101.315368 
L 158.412068 93.357474 
L 159.062678 101.315368 
L 159.713288 101.315368 
L 161.014509 85.399579 
L 161.665119 93.357474 
L 162.31573 93.357474 
L 162.96634 85.399579 
L 163.61695 85.399579 
L 164.267561 77.441684 
L 164.918171 101.315368 
L 165.568781 85.399579 
L 166.219392 101.315368 
L 166.870002 101.315368 
L 167.520612 93.357474 
L 168.171222 77.441684 
L 168.821833 77.441684 
L 169.472443 93.357474 
L 172.725495 93.357474 
L 173.376105 101.315368 
L 174.026715 77.441684 
L 175.327936 93.357474 
L 175.978546 93.357474 
L 176.629156 77.441684 
L 178.580987 101.315368 
L 179.231598 93.357474 
L 179.882208 93.357474 
L 181.183429 77.441684 
L 181.834039 85.399579 
L 182.484649 101.315368 
L 183.13526 93.357474 
L 183.78587 77.441684 
L 184.43648 93.357474 
L 185.087091 93.357474 
L 185.737701 77.441684 
L 187.038921 93.357474 
L 187.689532 85.399579 
L 188.340142 85.399579 
L 188.990752 77.441684 
L 189.641363 85.399579 
L 190.291973 101.315368 
L 190.942583 77.441684 
L 192.243804 77.441684 
L 192.894414 101.315368 
L 193.545025 93.357474 
L 194.195635 69.483789 
L 194.846245 69.483789 
L 195.496856 85.399579 
L 196.147466 93.357474 
L 197.448686 93.357474 
L 198.099297 85.399579 
L 198.749907 93.357474 
L 199.400517 77.441684 
L 200.051128 93.357474 
L 200.701738 61.525895 
L 201.352348 69.483789 
L 202.002959 101.315368 
L 202.653569 93.357474 
L 203.304179 69.483789 
L 203.95479 69.483789 
L 204.6054 85.399579 
L 205.25601 85.399579 
L 205.906621 93.357474 
L 207.207841 93.357474 
L 207.858451 85.399579 
L 208.509062 69.483789 
L 209.159672 69.483789 
L 209.810282 93.357474 
L 211.111503 93.357474 
L 211.762113 101.315368 
L 212.412724 93.357474 
L 213.063334 101.315368 
L 213.713944 77.441684 
L 214.364555 93.357474 
L 215.015165 85.399579 
L 215.665775 93.357474 
L 216.966996 93.357474 
L 217.617606 77.441684 
L 218.268216 93.357474 
L 219.569437 93.357474 
L 220.220047 77.441684 
L 220.870658 93.357474 
L 222.171878 93.357474 
L 222.822489 85.399579 
L 223.473099 85.399579 
L 224.123709 77.441684 
L 224.77432 85.399579 
L 225.42493 77.441684 
L 226.07554 85.399579 
L 226.72615 101.315368 
L 227.376761 85.399579 
L 228.027371 85.399579 
L 228.677981 101.315368 
L 229.328592 85.399579 
L 229.979202 85.399579 
L 230.629812 77.441684 
L 231.280423 85.399579 
L 231.931033 77.441684 
L 232.581643 77.441684 
L 233.232254 85.399579 
L 233.882864 77.441684 
L 234.533474 85.399579 
L 235.184085 77.441684 
L 235.834695 93.357474 
L 237.135915 77.441684 
L 237.786526 85.399579 
L 238.437136 85.399579 
L 239.087746 93.357474 
L 239.738357 77.441684 
L 240.388967 93.357474 
L 241.039577 77.441684 
L 241.690188 85.399579 
L 242.340798 77.441684 
L 242.991408 85.399579 
L 244.292629 69.483789 
L 244.943239 85.399579 
L 245.59385 85.399579 
L 246.24446 93.357474 
L 246.89507 93.357474 
L 247.54568 85.399579 
L 248.196291 85.399579 
L 248.846901 69.483789 
L 249.497511 85.399579 
L 250.148122 85.399579 
L 250.798732 93.357474 
L 251.449342 77.441684 
L 252.099953 93.357474 
L 252.750563 93.357474 
L 253.401173 85.399579 
L 254.051784 85.399579 
L 254.702394 69.483789 
L 256.654225 93.357474 
L 257.955445 77.441684 
L 258.606056 101.315368 
L 259.256666 85.399579 
L 260.557887 101.315368 
L 261.208497 85.399579 
L 261.859107 93.357474 
L 263.160328 77.441684 
L 263.810938 77.441684 
L 264.461549 85.399579 
L 265.112159 77.441684 
L 265.762769 93.357474 
L 267.7146 93.357474 
L 268.36521 85.399579 
L 269.015821 93.357474 
L 270.317041 93.357474 
L 270.967652 69.483789 
L 271.618262 69.483789 
L 272.268872 77.441684 
L 274.220703 77.441684 
L 274.871314 85.399579 
L 275.521924 85.399579 
L 276.172534 61.525895 
L 276.823144 77.441684 
L 277.473755 69.483789 
L 278.124365 93.357474 
L 278.774975 85.399579 
L 279.425586 69.483789 
L 280.076196 77.441684 
L 281.377417 77.441684 
L 282.028027 61.525895 
L 282.678637 61.525895 
L 283.329248 69.483789 
L 283.979858 93.357474 
L 284.630468 93.357474 
L 285.281079 77.441684 
L 287.88352 77.441684 
L 288.53413 101.315368 
L 289.835351 85.399579 
L 291.136571 85.399579 
L 291.787182 93.357474 
L 292.437792 85.399579 
L 293.088402 93.357474 
L 293.739013 85.399579 
L 294.389623 85.399579 
L 295.040233 77.441684 
L 295.690844 77.441684 
L 296.341454 85.399579 
L 296.992064 53.568 
L 297.642674 77.441684 
L 298.293285 85.399579 
L 298.943895 61.525895 
L 300.895726 85.399579 
L 301.546336 85.399579 
L 302.847557 69.483789 
L 303.498167 85.399579 
L 304.148778 77.441684 
L 304.799388 77.441684 
L 305.449998 101.315368 
L 306.100608 77.441684 
L 306.751219 85.399579 
L 307.401829 77.441684 
L 308.70305 77.441684 
L 309.35366 93.357474 
L 310.00427 93.357474 
L 310.654881 61.525895 
L 311.305491 85.399579 
L 311.956101 101.315368 
L 313.907932 77.441684 
L 317.160984 77.441684 
L 317.811594 93.357474 
L 318.462204 85.399579 
L 319.112815 69.483789 
L 319.763425 93.357474 
L 320.414035 53.568 
L 321.064646 69.483789 
L 321.715256 69.483789 
L 322.365866 85.399579 
L 323.667087 85.399579 
L 324.317697 77.441684 
L 324.968308 77.441684 
L 325.618918 93.357474 
L 326.269528 93.357474 
L 326.920138 85.399579 
L 327.570749 85.399579 
L 328.221359 93.357474 
L 328.871969 77.441684 
L 329.52258 77.441684 
L 330.17319 85.399579 
L 330.8238 85.399579 
L 331.474411 77.441684 
L 332.125021 93.357474 
L 332.775631 85.399579 
L 333.426242 69.483789 
L 334.076852 61.525895 
L 335.378073 77.441684 
L 336.028683 69.483789 
L 336.679293 69.483789 
L 337.329903 93.357474 
L 338.631124 93.357474 
L 339.281734 85.399579 
L 339.932345 85.399579 
L 340.582955 93.357474 
L 341.233565 77.441684 
L 341.884176 101.315368 
L 342.534786 85.399579 
L 343.836007 85.399579 
L 344.486617 77.441684 
L 345.787837 93.357474 
L 346.438448 93.357474 
L 347.089058 77.441684 
L 347.739668 93.357474 
L 348.390279 101.315368 
L 349.040889 77.441684 
L 349.691499 77.441684 
L 350.34211 85.399579 
L 351.64333 85.399579 
L 352.293941 101.315368 
L 352.944551 77.441684 
L 353.595161 77.441684 
L 354.245772 85.399579 
L 354.896382 85.399579 
L 355.546992 77.441684 
L 356.197602 85.399579 
L 356.848213 85.399579 
L 357.498823 93.357474 
L 358.149433 93.357474 
L 358.800044 77.441684 
L 359.450654 77.441684 
L 360.751875 93.357474 
L 361.402485 85.399579 
L 362.053095 93.357474 
L 362.703706 85.399579 
L 364.655537 85.399579 
L 365.306147 69.483789 
L 365.956757 93.357474 
L 366.607367 85.399579 
L 367.257978 85.399579 
L 367.908588 77.441684 
L 368.559198 77.441684 
L 369.209809 93.357474 
L 369.860419 69.483789 
L 370.511029 85.399579 
L 371.81225 85.399579 
L 372.46286 77.441684 
L 373.113471 93.357474 
L 374.414691 93.357474 
L 375.065302 85.399579 
L 375.715912 85.399579 
L 376.366522 69.483789 
L 377.667743 85.399579 
L 378.318353 69.483789 
L 378.968963 77.441684 
L 379.619574 77.441684 
L 380.920794 93.357474 
L 381.571405 93.357474 
L 382.872625 77.441684 
L 383.523236 85.399579 
L 384.173846 85.399579 
L 384.824456 69.483789 
L 385.475066 85.399579 
L 386.125677 77.441684 
L 386.776287 101.315368 
L 387.426897 85.399579 
L 388.077508 77.441684 
L 388.728118 77.441684 
L 389.378728 85.399579 
L 390.029339 77.441684 
L 391.330559 93.357474 
L 391.98117 77.441684 
L 392.63178 85.399579 
L 393.933001 85.399579 
L 394.583611 93.357474 
L 395.234221 61.525895 
L 395.884831 85.399579 
L 396.535442 93.357474 
L 397.186052 93.357474 
L 397.836662 85.399579 
L 398.487273 101.315368 
L 398.487273 101.315368 
" style="fill:none;stroke:#ff0000;stroke-linecap:square;stroke-width:1.5;"/>
   </g>
   <g id="patch_3">
    <path d="M 57.6 307.584 
L 57.6 41.472 
" style="fill:none;stroke:#000000;stroke-linecap:square;stroke-linejoin:miter;stroke-width:0.8;"/>
   </g>
   <g id="patch_4">
    <path d="M 414.72 307.584 
L 414.72 41.472 
" style="fill:none;stroke:#000000;stroke-linecap:square;stroke-linejoin:miter;stroke-width:0.8;"/>
   </g>
   <g id="patch_5">
    <path d="M 57.6 307.584 
L 414.72 307.584 
" style="fill:none;stroke:#000000;stroke-linecap:square;stroke-linejoin:miter;stroke-width:0.8;"/>
   </g>
   <g id="patch_6">
    <path d="M 57.6 41.472 
L 414.72 41.472 
" style="fill:none;stroke:#000000;stroke-linecap:square;stroke-linejoin:miter;stroke-width:0.8;"/>
   </g>
   <g id="text_16">
    <!-- Population's average and best fitness -->
    <defs>
     <path d="M 19.671875 64.796875 
L 19.671875 37.40625 
L 32.078125 37.40625 
Q 38.96875 37.40625 42.71875 40.96875 
Q 46.484375 44.53125 46.484375 51.125 
Q 46.484375 57.671875 42.71875 61.234375 
Q 38.96875 64.796875 32.078125 64.796875 
z
M 9.8125 72.90625 
L 32.078125 72.90625 
Q 44.34375 72.90625 50.609375 67.359375 
Q 56.890625 61.8125 56.890625 51.125 
Q 56.890625 40.328125 50.609375 34.8125 
Q 44.34375 29.296875 32.078125 29.296875 
L 19.671875 29.296875 
L 19.671875 0 
L 9.8125 0 
z
" id="DejaVuSans-80"/>
     <path d="M 18.109375 8.203125 
L 18.109375 -20.796875 
L 9.078125 -20.796875 
L 9.078125 54.6875 
L 18.109375 54.6875 
L 18.109375 46.390625 
Q 20.953125 51.265625 25.265625 53.625 
Q 29.59375 56 35.59375 56 
Q 45.5625 56 51.78125 48.09375 
Q 58.015625 40.1875 58.015625 27.296875 
Q 58.015625 14.40625 51.78125 6.484375 
Q 45.5625 -1.421875 35.59375 -1.421875 
Q 29.59375 -1.421875 25.265625 0.953125 
Q 20.953125 3.328125 18.109375 8.203125 
z
M 48.6875 27.296875 
Q 48.6875 37.203125 44.609375 42.84375 
Q 40.53125 48.484375 33.40625 48.484375 
Q 26.265625 48.484375 22.1875 42.84375 
Q 18.109375 37.203125 18.109375 27.296875 
Q 18.109375 17.390625 22.1875 11.75 
Q 26.265625 6.109375 33.40625 6.109375 
Q 40.53125 6.109375 44.609375 11.75 
Q 48.6875 17.390625 48.6875 27.296875 
z
" id="DejaVuSans-112"/>
     <path d="M 8.5 21.578125 
L 8.5 54.6875 
L 17.484375 54.6875 
L 17.484375 21.921875 
Q 17.484375 14.15625 20.5 10.265625 
Q 23.53125 6.390625 29.59375 6.390625 
Q 36.859375 6.390625 41.078125 11.03125 
Q 45.3125 15.671875 45.3125 23.6875 
L 45.3125 54.6875 
L 54.296875 54.6875 
L 54.296875 0 
L 45.3125 0 
L 45.3125 8.40625 
Q 42.046875 3.421875 37.71875 1 
Q 33.40625 -1.421875 27.6875 -1.421875 
Q 18.265625 -1.421875 13.375 4.4375 
Q 8.5 10.296875 8.5 21.578125 
z
M 31.109375 56 
z
" id="DejaVuSans-117"/>
     <path d="M 9.421875 75.984375 
L 18.40625 75.984375 
L 18.40625 0 
L 9.421875 0 
z
" id="DejaVuSans-108"/>
     <path d="M 17.921875 72.90625 
L 17.921875 45.796875 
L 9.625 45.796875 
L 9.625 72.90625 
z
" id="DejaVuSans-39"/>
     <path id="DejaVuSans-32"/>
     <path d="M 2.984375 54.6875 
L 12.5 54.6875 
L 29.59375 8.796875 
L 46.6875 54.6875 
L 56.203125 54.6875 
L 35.6875 0 
L 23.484375 0 
z
" id="DejaVuSans-118"/>
     <path d="M 45.40625 27.984375 
Q 45.40625 37.75 41.375 43.109375 
Q 37.359375 48.484375 30.078125 48.484375 
Q 22.859375 48.484375 18.828125 43.109375 
Q 14.796875 37.75 14.796875 27.984375 
Q 14.796875 18.265625 18.828125 12.890625 
Q 22.859375 7.515625 30.078125 7.515625 
Q 37.359375 7.515625 41.375 12.890625 
Q 45.40625 18.265625 45.40625 27.984375 
z
M 54.390625 6.78125 
Q 54.390625 -7.171875 48.1875 -13.984375 
Q 42 -20.796875 29.203125 -20.796875 
Q 24.46875 -20.796875 20.265625 -20.09375 
Q 16.0625 -19.390625 12.109375 -17.921875 
L 12.109375 -9.1875 
Q 16.0625 -11.328125 19.921875 -12.34375 
Q 23.78125 -13.375 27.78125 -13.375 
Q 36.625 -13.375 41.015625 -8.765625 
Q 45.40625 -4.15625 45.40625 5.171875 
L 45.40625 9.625 
Q 42.625 4.78125 38.28125 2.390625 
Q 33.9375 0 27.875 0 
Q 17.828125 0 11.671875 7.65625 
Q 5.515625 15.328125 5.515625 27.984375 
Q 5.515625 40.671875 11.671875 48.328125 
Q 17.828125 56 27.875 56 
Q 33.9375 56 38.28125 53.609375 
Q 42.625 51.21875 45.40625 46.390625 
L 45.40625 54.6875 
L 54.390625 54.6875 
z
" id="DejaVuSans-103"/>
     <path d="M 45.40625 46.390625 
L 45.40625 75.984375 
L 54.390625 75.984375 
L 54.390625 0 
L 45.40625 0 
L 45.40625 8.203125 
Q 42.578125 3.328125 38.25 0.953125 
Q 33.9375 -1.421875 27.875 -1.421875 
Q 17.96875 -1.421875 11.734375 6.484375 
Q 5.515625 14.40625 5.515625 27.296875 
Q 5.515625 40.1875 11.734375 48.09375 
Q 17.96875 56 27.875 56 
Q 33.9375 56 38.25 53.625 
Q 42.578125 51.265625 45.40625 46.390625 
z
M 14.796875 27.296875 
Q 14.796875 17.390625 18.875 11.75 
Q 22.953125 6.109375 30.078125 6.109375 
Q 37.203125 6.109375 41.296875 11.75 
Q 45.40625 17.390625 45.40625 27.296875 
Q 45.40625 37.203125 41.296875 42.84375 
Q 37.203125 48.484375 30.078125 48.484375 
Q 22.953125 48.484375 18.875 42.84375 
Q 14.796875 37.203125 14.796875 27.296875 
z
" id="DejaVuSans-100"/>
     <path d="M 48.6875 27.296875 
Q 48.6875 37.203125 44.609375 42.84375 
Q 40.53125 48.484375 33.40625 48.484375 
Q 26.265625 48.484375 22.1875 42.84375 
Q 18.109375 37.203125 18.109375 27.296875 
Q 18.109375 17.390625 22.1875 11.75 
Q 26.265625 6.109375 33.40625 6.109375 
Q 40.53125 6.109375 44.609375 11.75 
Q 48.6875 17.390625 48.6875 27.296875 
z
M 18.109375 46.390625 
Q 20.953125 51.265625 25.265625 53.625 
Q 29.59375 56 35.59375 56 
Q 45.5625 56 51.78125 48.09375 
Q 58.015625 40.1875 58.015625 27.296875 
Q 58.015625 14.40625 51.78125 6.484375 
Q 45.5625 -1.421875 35.59375 -1.421875 
Q 29.59375 -1.421875 25.265625 0.953125 
Q 20.953125 3.328125 18.109375 8.203125 
L 18.109375 0 
L 9.078125 0 
L 9.078125 75.984375 
L 18.109375 75.984375 
z
" id="DejaVuSans-98"/>
     <path d="M 37.109375 75.984375 
L 37.109375 68.5 
L 28.515625 68.5 
Q 23.6875 68.5 21.796875 66.546875 
Q 19.921875 64.59375 19.921875 59.515625 
L 19.921875 54.6875 
L 34.71875 54.6875 
L 34.71875 47.703125 
L 19.921875 47.703125 
L 19.921875 0 
L 10.890625 0 
L 10.890625 47.703125 
L 2.296875 47.703125 
L 2.296875 54.6875 
L 10.890625 54.6875 
L 10.890625 58.5 
Q 10.890625 67.625 15.140625 71.796875 
Q 19.390625 75.984375 28.609375 75.984375 
z
" id="DejaVuSans-102"/>
    </defs>
    <g transform="translate(123.315 35.472)scale(0.12 -0.12)">
     <use xlink:href="#DejaVuSans-80"/>
     <use x="60.255859" xlink:href="#DejaVuSans-111"/>
     <use x="121.4375" xlink:href="#DejaVuSans-112"/>
     <use x="184.914062" xlink:href="#DejaVuSans-117"/>
     <use x="248.292969" xlink:href="#DejaVuSans-108"/>
     <use x="276.076172" xlink:href="#DejaVuSans-97"/>
     <use x="337.355469" xlink:href="#DejaVuSans-116"/>
     <use x="376.564453" xlink:href="#DejaVuSans-105"/>
     <use x="404.347656" xlink:href="#DejaVuSans-111"/>
     <use x="465.529297" xlink:href="#DejaVuSans-110"/>
     <use x="528.908203" xlink:href="#DejaVuSans-39"/>
     <use x="556.398438" xlink:href="#DejaVuSans-115"/>
     <use x="608.498047" xlink:href="#DejaVuSans-32"/>
     <use x="640.285156" xlink:href="#DejaVuSans-97"/>
     <use x="701.564453" xlink:href="#DejaVuSans-118"/>
     <use x="760.744141" xlink:href="#DejaVuSans-101"/>
     <use x="822.267578" xlink:href="#DejaVuSans-114"/>
     <use x="863.380859" xlink:href="#DejaVuSans-97"/>
     <use x="924.660156" xlink:href="#DejaVuSans-103"/>
     <use x="988.136719" xlink:href="#DejaVuSans-101"/>
     <use x="1049.660156" xlink:href="#DejaVuSans-32"/>
     <use x="1081.447266" xlink:href="#DejaVuSans-97"/>
     <use x="1142.726562" xlink:href="#DejaVuSans-110"/>
     <use x="1206.105469" xlink:href="#DejaVuSans-100"/>
     <use x="1269.582031" xlink:href="#DejaVuSans-32"/>
     <use x="1301.369141" xlink:href="#DejaVuSans-98"/>
     <use x="1364.845703" xlink:href="#DejaVuSans-101"/>
     <use x="1426.369141" xlink:href="#DejaVuSans-115"/>
     <use x="1478.46875" xlink:href="#DejaVuSans-116"/>
     <use x="1517.677734" xlink:href="#DejaVuSans-32"/>
     <use x="1549.464844" xlink:href="#DejaVuSans-102"/>
     <use x="1584.669922" xlink:href="#DejaVuSans-105"/>
     <use x="1612.453125" xlink:href="#DejaVuSans-116"/>
     <use x="1651.662109" xlink:href="#DejaVuSans-110"/>
     <use x="1715.041016" xlink:href="#DejaVuSans-101"/>
     <use x="1776.564453" xlink:href="#DejaVuSans-115"/>
     <use x="1828.664062" xlink:href="#DejaVuSans-115"/>
    </g>
   </g>
   <g id="legend_1">
    <g id="patch_7">
     <path d="M 334.779375 302.584 
L 407.72 302.584 
Q 409.72 302.584 409.72 300.584 
L 409.72 257.549625 
Q 409.72 255.549625 407.72 255.549625 
L 334.779375 255.549625 
Q 332.779375 255.549625 332.779375 257.549625 
L 332.779375 300.584 
Q 332.779375 302.584 334.779375 302.584 
z
" style="fill:#ffffff;opacity:0.8;stroke:#cccccc;stroke-linejoin:miter;"/>
    </g>
    <g id="line2d_30">
     <path d="M 336.779375 263.648062 
L 356.779375 263.648062 
" style="fill:none;stroke:#0000ff;stroke-linecap:square;stroke-width:1.5;"/>
    </g>
    <g id="line2d_31"/>
    <g id="text_17">
     <!-- average -->
     <g transform="translate(364.779375 267.148062)scale(0.1 -0.1)">
      <use xlink:href="#DejaVuSans-97"/>
      <use x="61.279297" xlink:href="#DejaVuSans-118"/>
      <use x="120.458984" xlink:href="#DejaVuSans-101"/>
      <use x="181.982422" xlink:href="#DejaVuSans-114"/>
      <use x="223.095703" xlink:href="#DejaVuSans-97"/>
      <use x="284.375" xlink:href="#DejaVuSans-103"/>
      <use x="347.851562" xlink:href="#DejaVuSans-101"/>
     </g>
    </g>
    <g id="line2d_32">
     <path d="M 336.779375 278.326188 
L 356.779375 278.326188 
" style="fill:none;stroke:#008000;stroke-dasharray:9.6,2.4,1.5,2.4;stroke-dashoffset:0;stroke-width:1.5;"/>
    </g>
    <g id="line2d_33"/>
    <g id="text_18">
     <!-- +1 sd -->
     <defs>
      <path d="M 46 62.703125 
L 46 35.5 
L 73.1875 35.5 
L 73.1875 27.203125 
L 46 27.203125 
L 46 0 
L 37.796875 0 
L 37.796875 27.203125 
L 10.59375 27.203125 
L 10.59375 35.5 
L 37.796875 35.5 
L 37.796875 62.703125 
z
" id="DejaVuSans-43"/>
     </defs>
     <g transform="translate(364.779375 281.826188)scale(0.1 -0.1)">
      <use xlink:href="#DejaVuSans-43"/>
      <use x="83.789062" xlink:href="#DejaVuSans-49"/>
      <use x="147.412109" xlink:href="#DejaVuSans-32"/>
      <use x="179.199219" xlink:href="#DejaVuSans-115"/>
      <use x="231.298828" xlink:href="#DejaVuSans-100"/>
     </g>
    </g>
    <g id="line2d_34">
     <path d="M 336.779375 293.004312 
L 356.779375 293.004312 
" style="fill:none;stroke:#ff0000;stroke-linecap:square;stroke-width:1.5;"/>
    </g>
    <g id="line2d_35"/>
    <g id="text_19">
     <!-- best -->
     <g transform="translate(364.779375 296.504312)scale(0.1 -0.1)">
      <use xlink:href="#DejaVuSans-98"/>
      <use x="63.476562" xlink:href="#DejaVuSans-101"/>
      <use x="125" xlink:href="#DejaVuSans-115"/>
      <use x="177.099609" xlink:href="#DejaVuSans-116"/>
     </g>
    </g>
   </g>
  </g>
 </g>
 <defs>
  <clipPath id="pa6a86a8309">
   <rect height="266.112" width="357.12" x="57.6" y="41.472"/>
  </clipPath>
 </defs>
</svg>
