<?xml version="1.0" encoding="utf-8" standalone="no"?>
<!DOCTYPE svg PUBLIC "-//W3C//DTD SVG 1.1//EN"
  "http://www.w3.org/Graphics/SVG/1.1/DTD/svg11.dtd">
<!-- Created with matplotlib (https://matplotlib.org/) -->
<svg height="345.6pt" version="1.1" viewBox="0 0 460.8 345.6" width="460.8pt" xmlns="http://www.w3.org/2000/svg" xmlns:xlink="http://www.w3.org/1999/xlink">
 <defs>
  <style type="text/css">
*{stroke-linecap:butt;stroke-linejoin:round;}
  </style>
 </defs>
 <g id="figure_1">
  <g id="patch_1">
   <path d="M 0 345.6 
L 460.8 345.6 
L 460.8 0 
L 0 0 
z
" style="fill:#ffffff;"/>
  </g>
  <g id="axes_1">
   <g id="patch_2">
    <path d="M 57.6 307.584 
L 414.72 307.584 
L 414.72 41.472 
L 57.6 41.472 
z
" style="fill:#ffffff;"/>
   </g>
   <g id="matplotlib.axis_1">
    <g id="xtick_1">
     <g id="line2d_1">
      <path clip-path="url(#p92b3141a7f)" d="M 73.832727 307.584 
L 73.832727 41.472 
" style="fill:none;stroke:#b0b0b0;stroke-linecap:square;stroke-width:0.8;"/>
     </g>
     <g id="line2d_2">
      <defs>
       <path d="M 0 0 
L 0 3.5 
" id="ma9884f217b" style="stroke:#000000;stroke-width:0.8;"/>
      </defs>
      <g>
       <use style="stroke:#000000;stroke-width:0.8;" x="73.832727" xlink:href="#ma9884f217b" y="307.584"/>
      </g>
     </g>
     <g id="text_1">
      <!-- 0 -->
      <defs>
       <path d="M 31.78125 66.40625 
Q 24.171875 66.40625 20.328125 58.90625 
Q 16.5 51.421875 16.5 36.375 
Q 16.5 21.390625 20.328125 13.890625 
Q 24.171875 6.390625 31.78125 6.390625 
Q 39.453125 6.390625 43.28125 13.890625 
Q 47.125 21.390625 47.125 36.375 
Q 47.125 51.421875 43.28125 58.90625 
Q 39.453125 66.40625 31.78125 66.40625 
z
M 31.78125 74.21875 
Q 44.046875 74.21875 50.515625 64.515625 
Q 56.984375 54.828125 56.984375 36.375 
Q 56.984375 17.96875 50.515625 8.265625 
Q 44.046875 -1.421875 31.78125 -1.421875 
Q 19.53125 -1.421875 13.0625 8.265625 
Q 6.59375 17.96875 6.59375 36.375 
Q 6.59375 54.828125 13.0625 64.515625 
Q 19.53125 74.21875 31.78125 74.21875 
z
" id="DejaVuSans-48"/>
      </defs>
      <g transform="translate(70.651477 322.182437)scale(0.1 -0.1)">
       <use xlink:href="#DejaVuSans-48"/>
      </g>
     </g>
    </g>
    <g id="xtick_2">
     <g id="line2d_3">
      <path clip-path="url(#p92b3141a7f)" d="M 138.893758 307.584 
L 138.893758 41.472 
" style="fill:none;stroke:#b0b0b0;stroke-linecap:square;stroke-width:0.8;"/>
     </g>
     <g id="line2d_4">
      <g>
       <use style="stroke:#000000;stroke-width:0.8;" x="138.893758" xlink:href="#ma9884f217b" y="307.584"/>
      </g>
     </g>
     <g id="text_2">
      <!-- 100 -->
      <defs>
       <path d="M 12.40625 8.296875 
L 28.515625 8.296875 
L 28.515625 63.921875 
L 10.984375 60.40625 
L 10.984375 69.390625 
L 28.421875 72.90625 
L 38.28125 72.90625 
L 38.28125 8.296875 
L 54.390625 8.296875 
L 54.390625 0 
L 12.40625 0 
z
" id="DejaVuSans-49"/>
      </defs>
      <g transform="translate(129.350008 322.182437)scale(0.1 -0.1)">
       <use xlink:href="#DejaVuSans-49"/>
       <use x="63.623047" xlink:href="#DejaVuSans-48"/>
       <use x="127.246094" xlink:href="#DejaVuSans-48"/>
      </g>
     </g>
    </g>
    <g id="xtick_3">
     <g id="line2d_5">
      <path clip-path="url(#p92b3141a7f)" d="M 203.95479 307.584 
L 203.95479 41.472 
" style="fill:none;stroke:#b0b0b0;stroke-linecap:square;stroke-width:0.8;"/>
     </g>
     <g id="line2d_6">
      <g>
       <use style="stroke:#000000;stroke-width:0.8;" x="203.95479" xlink:href="#ma9884f217b" y="307.584"/>
      </g>
     </g>
     <g id="text_3">
      <!-- 200 -->
      <defs>
       <path d="M 19.1875 8.296875 
L 53.609375 8.296875 
L 53.609375 0 
L 7.328125 0 
L 7.328125 8.296875 
Q 12.9375 14.109375 22.625 23.890625 
Q 32.328125 33.6875 34.8125 36.53125 
Q 39.546875 41.84375 41.421875 45.53125 
Q 43.3125 49.21875 43.3125 52.78125 
Q 43.3125 58.59375 39.234375 62.25 
Q 35.15625 65.921875 28.609375 65.921875 
Q 23.96875 65.921875 18.8125 64.3125 
Q 13.671875 62.703125 7.8125 59.421875 
L 7.8125 69.390625 
Q 13.765625 71.78125 18.9375 73 
Q 24.125 74.21875 28.421875 74.21875 
Q 39.75 74.21875 46.484375 68.546875 
Q 53.21875 62.890625 53.21875 53.421875 
Q 53.21875 48.921875 51.53125 44.890625 
Q 49.859375 40.875 45.40625 35.40625 
Q 44.1875 33.984375 37.640625 27.21875 
Q 31.109375 20.453125 19.1875 8.296875 
z
" id="DejaVuSans-50"/>
      </defs>
      <g transform="translate(194.41104 322.182437)scale(0.1 -0.1)">
       <use xlink:href="#DejaVuSans-50"/>
       <use x="63.623047" xlink:href="#DejaVuSans-48"/>
       <use x="127.246094" xlink:href="#DejaVuSans-48"/>
      </g>
     </g>
    </g>
    <g id="xtick_4">
     <g id="line2d_7">
      <path clip-path="url(#p92b3141a7f)" d="M 269.015821 307.584 
L 269.015821 41.472 
" style="fill:none;stroke:#b0b0b0;stroke-linecap:square;stroke-width:0.8;"/>
     </g>
     <g id="line2d_8">
      <g>
       <use style="stroke:#000000;stroke-width:0.8;" x="269.015821" xlink:href="#ma9884f217b" y="307.584"/>
      </g>
     </g>
     <g id="text_4">
      <!-- 300 -->
      <defs>
       <path d="M 40.578125 39.3125 
Q 47.65625 37.796875 51.625 33 
Q 55.609375 28.21875 55.609375 21.1875 
Q 55.609375 10.40625 48.1875 4.484375 
Q 40.765625 -1.421875 27.09375 -1.421875 
Q 22.515625 -1.421875 17.65625 -0.515625 
Q 12.796875 0.390625 7.625 2.203125 
L 7.625 11.71875 
Q 11.71875 9.328125 16.59375 8.109375 
Q 21.484375 6.890625 26.8125 6.890625 
Q 36.078125 6.890625 40.9375 10.546875 
Q 45.796875 14.203125 45.796875 21.1875 
Q 45.796875 27.640625 41.28125 31.265625 
Q 36.765625 34.90625 28.71875 34.90625 
L 20.21875 34.90625 
L 20.21875 43.015625 
L 29.109375 43.015625 
Q 36.375 43.015625 40.234375 45.921875 
Q 44.09375 48.828125 44.09375 54.296875 
Q 44.09375 59.90625 40.109375 62.90625 
Q 36.140625 65.921875 28.71875 65.921875 
Q 24.65625 65.921875 20.015625 65.03125 
Q 15.375 64.15625 9.8125 62.3125 
L 9.8125 71.09375 
Q 15.4375 72.65625 20.34375 73.4375 
Q 25.25 74.21875 29.59375 74.21875 
Q 40.828125 74.21875 47.359375 69.109375 
Q 53.90625 64.015625 53.90625 55.328125 
Q 53.90625 49.265625 50.4375 45.09375 
Q 46.96875 40.921875 40.578125 39.3125 
z
" id="DejaVuSans-51"/>
      </defs>
      <g transform="translate(259.472071 322.182437)scale(0.1 -0.1)">
       <use xlink:href="#DejaVuSans-51"/>
       <use x="63.623047" xlink:href="#DejaVuSans-48"/>
       <use x="127.246094" xlink:href="#DejaVuSans-48"/>
      </g>
     </g>
    </g>
    <g id="xtick_5">
     <g id="line2d_9">
      <path clip-path="url(#p92b3141a7f)" d="M 334.076852 307.584 
L 334.076852 41.472 
" style="fill:none;stroke:#b0b0b0;stroke-linecap:square;stroke-width:0.8;"/>
     </g>
     <g id="line2d_10">
      <g>
       <use style="stroke:#000000;stroke-width:0.8;" x="334.076852" xlink:href="#ma9884f217b" y="307.584"/>
      </g>
     </g>
     <g id="text_5">
      <!-- 400 -->
      <defs>
       <path d="M 37.796875 64.3125 
L 12.890625 25.390625 
L 37.796875 25.390625 
z
M 35.203125 72.90625 
L 47.609375 72.90625 
L 47.609375 25.390625 
L 58.015625 25.390625 
L 58.015625 17.1875 
L 47.609375 17.1875 
L 47.609375 0 
L 37.796875 0 
L 37.796875 17.1875 
L 4.890625 17.1875 
L 4.890625 26.703125 
z
" id="DejaVuSans-52"/>
      </defs>
      <g transform="translate(324.533102 322.182437)scale(0.1 -0.1)">
       <use xlink:href="#DejaVuSans-52"/>
       <use x="63.623047" xlink:href="#DejaVuSans-48"/>
       <use x="127.246094" xlink:href="#DejaVuSans-48"/>
      </g>
     </g>
    </g>
    <g id="xtick_6">
     <g id="line2d_11">
      <path clip-path="url(#p92b3141a7f)" d="M 399.137883 307.584 
L 399.137883 41.472 
" style="fill:none;stroke:#b0b0b0;stroke-linecap:square;stroke-width:0.8;"/>
     </g>
     <g id="line2d_12">
      <g>
       <use style="stroke:#000000;stroke-width:0.8;" x="399.137883" xlink:href="#ma9884f217b" y="307.584"/>
      </g>
     </g>
     <g id="text_6">
      <!-- 500 -->
      <defs>
       <path d="M 10.796875 72.90625 
L 49.515625 72.90625 
L 49.515625 64.59375 
L 19.828125 64.59375 
L 19.828125 46.734375 
Q 21.96875 47.46875 24.109375 47.828125 
Q 26.265625 48.1875 28.421875 48.1875 
Q 40.625 48.1875 47.75 41.5 
Q 54.890625 34.8125 54.890625 23.390625 
Q 54.890625 11.625 47.5625 5.09375 
Q 40.234375 -1.421875 26.90625 -1.421875 
Q 22.3125 -1.421875 17.546875 -0.640625 
Q 12.796875 0.140625 7.71875 1.703125 
L 7.71875 11.625 
Q 12.109375 9.234375 16.796875 8.0625 
Q 21.484375 6.890625 26.703125 6.890625 
Q 35.15625 6.890625 40.078125 11.328125 
Q 45.015625 15.765625 45.015625 23.390625 
Q 45.015625 31 40.078125 35.4375 
Q 35.15625 39.890625 26.703125 39.890625 
Q 22.75 39.890625 18.8125 39.015625 
Q 14.890625 38.140625 10.796875 36.28125 
z
" id="DejaVuSans-53"/>
      </defs>
      <g transform="translate(389.594133 322.182437)scale(0.1 -0.1)">
       <use xlink:href="#DejaVuSans-53"/>
       <use x="63.623047" xlink:href="#DejaVuSans-48"/>
       <use x="127.246094" xlink:href="#DejaVuSans-48"/>
      </g>
     </g>
    </g>
    <g id="text_7">
     <!-- Generations -->
     <defs>
      <path d="M 59.515625 10.40625 
L 59.515625 29.984375 
L 43.40625 29.984375 
L 43.40625 38.09375 
L 69.28125 38.09375 
L 69.28125 6.78125 
Q 63.578125 2.734375 56.6875 0.65625 
Q 49.8125 -1.421875 42 -1.421875 
Q 24.90625 -1.421875 15.25 8.5625 
Q 5.609375 18.5625 5.609375 36.375 
Q 5.609375 54.25 15.25 64.234375 
Q 24.90625 74.21875 42 74.21875 
Q 49.125 74.21875 55.546875 72.453125 
Q 61.96875 70.703125 67.390625 67.28125 
L 67.390625 56.78125 
Q 61.921875 61.421875 55.765625 63.765625 
Q 49.609375 66.109375 42.828125 66.109375 
Q 29.4375 66.109375 22.71875 58.640625 
Q 16.015625 51.171875 16.015625 36.375 
Q 16.015625 21.625 22.71875 14.15625 
Q 29.4375 6.6875 42.828125 6.6875 
Q 48.046875 6.6875 52.140625 7.59375 
Q 56.25 8.5 59.515625 10.40625 
z
" id="DejaVuSans-71"/>
      <path d="M 56.203125 29.59375 
L 56.203125 25.203125 
L 14.890625 25.203125 
Q 15.484375 15.921875 20.484375 11.0625 
Q 25.484375 6.203125 34.421875 6.203125 
Q 39.59375 6.203125 44.453125 7.46875 
Q 49.3125 8.734375 54.109375 11.28125 
L 54.109375 2.78125 
Q 49.265625 0.734375 44.1875 -0.34375 
Q 39.109375 -1.421875 33.890625 -1.421875 
Q 20.796875 -1.421875 13.15625 6.1875 
Q 5.515625 13.8125 5.515625 26.8125 
Q 5.515625 40.234375 12.765625 48.109375 
Q 20.015625 56 32.328125 56 
Q 43.359375 56 49.78125 48.890625 
Q 56.203125 41.796875 56.203125 29.59375 
z
M 47.21875 32.234375 
Q 47.125 39.59375 43.09375 43.984375 
Q 39.0625 48.390625 32.421875 48.390625 
Q 24.90625 48.390625 20.390625 44.140625 
Q 15.875 39.890625 15.1875 32.171875 
z
" id="DejaVuSans-101"/>
      <path d="M 54.890625 33.015625 
L 54.890625 0 
L 45.90625 0 
L 45.90625 32.71875 
Q 45.90625 40.484375 42.875 44.328125 
Q 39.84375 48.1875 33.796875 48.1875 
Q 26.515625 48.1875 22.3125 43.546875 
Q 18.109375 38.921875 18.109375 30.90625 
L 18.109375 0 
L 9.078125 0 
L 9.078125 54.6875 
L 18.109375 54.6875 
L 18.109375 46.1875 
Q 21.34375 51.125 25.703125 53.5625 
Q 30.078125 56 35.796875 56 
Q 45.21875 56 50.046875 50.171875 
Q 54.890625 44.34375 54.890625 33.015625 
z
" id="DejaVuSans-110"/>
      <path d="M 41.109375 46.296875 
Q 39.59375 47.171875 37.8125 47.578125 
Q 36.03125 48 33.890625 48 
Q 26.265625 48 22.1875 43.046875 
Q 18.109375 38.09375 18.109375 28.8125 
L 18.109375 0 
L 9.078125 0 
L 9.078125 54.6875 
L 18.109375 54.6875 
L 18.109375 46.1875 
Q 20.953125 51.171875 25.484375 53.578125 
Q 30.03125 56 36.53125 56 
Q 37.453125 56 38.578125 55.875 
Q 39.703125 55.765625 41.0625 55.515625 
z
" id="DejaVuSans-114"/>
      <path d="M 34.28125 27.484375 
Q 23.390625 27.484375 19.1875 25 
Q 14.984375 22.515625 14.984375 16.5 
Q 14.984375 11.71875 18.140625 8.90625 
Q 21.296875 6.109375 26.703125 6.109375 
Q 34.1875 6.109375 38.703125 11.40625 
Q 43.21875 16.703125 43.21875 25.484375 
L 43.21875 27.484375 
z
M 52.203125 31.203125 
L 52.203125 0 
L 43.21875 0 
L 43.21875 8.296875 
Q 40.140625 3.328125 35.546875 0.953125 
Q 30.953125 -1.421875 24.3125 -1.421875 
Q 15.921875 -1.421875 10.953125 3.296875 
Q 6 8.015625 6 15.921875 
Q 6 25.140625 12.171875 29.828125 
Q 18.359375 34.515625 30.609375 34.515625 
L 43.21875 34.515625 
L 43.21875 35.40625 
Q 43.21875 41.609375 39.140625 45 
Q 35.0625 48.390625 27.6875 48.390625 
Q 23 48.390625 18.546875 47.265625 
Q 14.109375 46.140625 10.015625 43.890625 
L 10.015625 52.203125 
Q 14.9375 54.109375 19.578125 55.046875 
Q 24.21875 56 28.609375 56 
Q 40.484375 56 46.34375 49.84375 
Q 52.203125 43.703125 52.203125 31.203125 
z
" id="DejaVuSans-97"/>
      <path d="M 18.3125 70.21875 
L 18.3125 54.6875 
L 36.8125 54.6875 
L 36.8125 47.703125 
L 18.3125 47.703125 
L 18.3125 18.015625 
Q 18.3125 11.328125 20.140625 9.421875 
Q 21.96875 7.515625 27.59375 7.515625 
L 36.8125 7.515625 
L 36.8125 0 
L 27.59375 0 
Q 17.1875 0 13.234375 3.875 
Q 9.28125 7.765625 9.28125 18.015625 
L 9.28125 47.703125 
L 2.6875 47.703125 
L 2.6875 54.6875 
L 9.28125 54.6875 
L 9.28125 70.21875 
z
" id="DejaVuSans-116"/>
      <path d="M 9.421875 54.6875 
L 18.40625 54.6875 
L 18.40625 0 
L 9.421875 0 
z
M 9.421875 75.984375 
L 18.40625 75.984375 
L 18.40625 64.59375 
L 9.421875 64.59375 
z
" id="DejaVuSans-105"/>
      <path d="M 30.609375 48.390625 
Q 23.390625 48.390625 19.1875 42.75 
Q 14.984375 37.109375 14.984375 27.296875 
Q 14.984375 17.484375 19.15625 11.84375 
Q 23.34375 6.203125 30.609375 6.203125 
Q 37.796875 6.203125 41.984375 11.859375 
Q 46.1875 17.53125 46.1875 27.296875 
Q 46.1875 37.015625 41.984375 42.703125 
Q 37.796875 48.390625 30.609375 48.390625 
z
M 30.609375 56 
Q 42.328125 56 49.015625 48.375 
Q 55.71875 40.765625 55.71875 27.296875 
Q 55.71875 13.875 49.015625 6.21875 
Q 42.328125 -1.421875 30.609375 -1.421875 
Q 18.84375 -1.421875 12.171875 6.21875 
Q 5.515625 13.875 5.515625 27.296875 
Q 5.515625 40.765625 12.171875 48.375 
Q 18.84375 56 30.609375 56 
z
" id="DejaVuSans-111"/>
      <path d="M 44.28125 53.078125 
L 44.28125 44.578125 
Q 40.484375 46.53125 36.375 47.5 
Q 32.28125 48.484375 27.875 48.484375 
Q 21.1875 48.484375 17.84375 46.4375 
Q 14.5 44.390625 14.5 40.28125 
Q 14.5 37.15625 16.890625 35.375 
Q 19.28125 33.59375 26.515625 31.984375 
L 29.59375 31.296875 
Q 39.15625 29.25 43.1875 25.515625 
Q 47.21875 21.78125 47.21875 15.09375 
Q 47.21875 7.46875 41.1875 3.015625 
Q 35.15625 -1.421875 24.609375 -1.421875 
Q 20.21875 -1.421875 15.453125 -0.5625 
Q 10.6875 0.296875 5.421875 2 
L 5.421875 11.28125 
Q 10.40625 8.6875 15.234375 7.390625 
Q 20.0625 6.109375 24.8125 6.109375 
Q 31.15625 6.109375 34.5625 8.28125 
Q 37.984375 10.453125 37.984375 14.40625 
Q 37.984375 18.0625 35.515625 20.015625 
Q 33.0625 21.96875 24.703125 23.78125 
L 21.578125 24.515625 
Q 13.234375 26.265625 9.515625 29.90625 
Q 5.8125 33.546875 5.8125 39.890625 
Q 5.8125 47.609375 11.28125 51.796875 
Q 16.75 56 26.8125 56 
Q 31.78125 56 36.171875 55.265625 
Q 40.578125 54.546875 44.28125 53.078125 
z
" id="DejaVuSans-115"/>
     </defs>
     <g transform="translate(205.662344 335.860562)scale(0.1 -0.1)">
      <use xlink:href="#DejaVuSans-71"/>
      <use x="77.490234" xlink:href="#DejaVuSans-101"/>
      <use x="139.013672" xlink:href="#DejaVuSans-110"/>
      <use x="202.392578" xlink:href="#DejaVuSans-101"/>
      <use x="263.916016" xlink:href="#DejaVuSans-114"/>
      <use x="305.029297" xlink:href="#DejaVuSans-97"/>
      <use x="366.308594" xlink:href="#DejaVuSans-116"/>
      <use x="405.517578" xlink:href="#DejaVuSans-105"/>
      <use x="433.300781" xlink:href="#DejaVuSans-111"/>
      <use x="494.482422" xlink:href="#DejaVuSans-110"/>
      <use x="557.861328" xlink:href="#DejaVuSans-115"/>
     </g>
    </g>
   </g>
   <g id="matplotlib.axis_2">
    <g id="ytick_1">
     <g id="line2d_13">
      <path clip-path="url(#p92b3141a7f)" d="M 57.6 298.958523 
L 414.72 298.958523 
" style="fill:none;stroke:#b0b0b0;stroke-linecap:square;stroke-width:0.8;"/>
     </g>
     <g id="line2d_14">
      <defs>
       <path d="M 0 0 
L -3.5 0 
" id="mbeeeafb068" style="stroke:#000000;stroke-width:0.8;"/>
      </defs>
      <g>
       <use style="stroke:#000000;stroke-width:0.8;" x="57.6" xlink:href="#mbeeeafb068" y="298.958523"/>
      </g>
     </g>
     <g id="text_8">
      <!-- 22.5 -->
      <defs>
       <path d="M 10.6875 12.40625 
L 21 12.40625 
L 21 0 
L 10.6875 0 
z
" id="DejaVuSans-46"/>
      </defs>
      <g transform="translate(28.334375 302.757742)scale(0.1 -0.1)">
       <use xlink:href="#DejaVuSans-50"/>
       <use x="63.623047" xlink:href="#DejaVuSans-50"/>
       <use x="127.246094" xlink:href="#DejaVuSans-46"/>
       <use x="159.033203" xlink:href="#DejaVuSans-53"/>
      </g>
     </g>
    </g>
    <g id="ytick_2">
     <g id="line2d_15">
      <path clip-path="url(#p92b3141a7f)" d="M 57.6 263.902734 
L 414.72 263.902734 
" style="fill:none;stroke:#b0b0b0;stroke-linecap:square;stroke-width:0.8;"/>
     </g>
     <g id="line2d_16">
      <g>
       <use style="stroke:#000000;stroke-width:0.8;" x="57.6" xlink:href="#mbeeeafb068" y="263.902734"/>
      </g>
     </g>
     <g id="text_9">
      <!-- 25.0 -->
      <g transform="translate(28.334375 267.701953)scale(0.1 -0.1)">
       <use xlink:href="#DejaVuSans-50"/>
       <use x="63.623047" xlink:href="#DejaVuSans-53"/>
       <use x="127.246094" xlink:href="#DejaVuSans-46"/>
       <use x="159.033203" xlink:href="#DejaVuSans-48"/>
      </g>
     </g>
    </g>
    <g id="ytick_3">
     <g id="line2d_17">
      <path clip-path="url(#p92b3141a7f)" d="M 57.6 228.846945 
L 414.72 228.846945 
" style="fill:none;stroke:#b0b0b0;stroke-linecap:square;stroke-width:0.8;"/>
     </g>
     <g id="line2d_18">
      <g>
       <use style="stroke:#000000;stroke-width:0.8;" x="57.6" xlink:href="#mbeeeafb068" y="228.846945"/>
      </g>
     </g>
     <g id="text_10">
      <!-- 27.5 -->
      <defs>
       <path d="M 8.203125 72.90625 
L 55.078125 72.90625 
L 55.078125 68.703125 
L 28.609375 0 
L 18.3125 0 
L 43.21875 64.59375 
L 8.203125 64.59375 
z
" id="DejaVuSans-55"/>
      </defs>
      <g transform="translate(28.334375 232.646164)scale(0.1 -0.1)">
       <use xlink:href="#DejaVuSans-50"/>
       <use x="63.623047" xlink:href="#DejaVuSans-55"/>
       <use x="127.246094" xlink:href="#DejaVuSans-46"/>
       <use x="159.033203" xlink:href="#DejaVuSans-53"/>
      </g>
     </g>
    </g>
    <g id="ytick_4">
     <g id="line2d_19">
      <path clip-path="url(#p92b3141a7f)" d="M 57.6 193.791156 
L 414.72 193.791156 
" style="fill:none;stroke:#b0b0b0;stroke-linecap:square;stroke-width:0.8;"/>
     </g>
     <g id="line2d_20">
      <g>
       <use style="stroke:#000000;stroke-width:0.8;" x="57.6" xlink:href="#mbeeeafb068" y="193.791156"/>
      </g>
     </g>
     <g id="text_11">
      <!-- 30.0 -->
      <g transform="translate(28.334375 197.590375)scale(0.1 -0.1)">
       <use xlink:href="#DejaVuSans-51"/>
       <use x="63.623047" xlink:href="#DejaVuSans-48"/>
       <use x="127.246094" xlink:href="#DejaVuSans-46"/>
       <use x="159.033203" xlink:href="#DejaVuSans-48"/>
      </g>
     </g>
    </g>
    <g id="ytick_5">
     <g id="line2d_21">
      <path clip-path="url(#p92b3141a7f)" d="M 57.6 158.735367 
L 414.72 158.735367 
" style="fill:none;stroke:#b0b0b0;stroke-linecap:square;stroke-width:0.8;"/>
     </g>
     <g id="line2d_22">
      <g>
       <use style="stroke:#000000;stroke-width:0.8;" x="57.6" xlink:href="#mbeeeafb068" y="158.735367"/>
      </g>
     </g>
     <g id="text_12">
      <!-- 32.5 -->
      <g transform="translate(28.334375 162.534586)scale(0.1 -0.1)">
       <use xlink:href="#DejaVuSans-51"/>
       <use x="63.623047" xlink:href="#DejaVuSans-50"/>
       <use x="127.246094" xlink:href="#DejaVuSans-46"/>
       <use x="159.033203" xlink:href="#DejaVuSans-53"/>
      </g>
     </g>
    </g>
    <g id="ytick_6">
     <g id="line2d_23">
      <path clip-path="url(#p92b3141a7f)" d="M 57.6 123.679578 
L 414.72 123.679578 
" style="fill:none;stroke:#b0b0b0;stroke-linecap:square;stroke-width:0.8;"/>
     </g>
     <g id="line2d_24">
      <g>
       <use style="stroke:#000000;stroke-width:0.8;" x="57.6" xlink:href="#mbeeeafb068" y="123.679578"/>
      </g>
     </g>
     <g id="text_13">
      <!-- 35.0 -->
      <g transform="translate(28.334375 127.478797)scale(0.1 -0.1)">
       <use xlink:href="#DejaVuSans-51"/>
       <use x="63.623047" xlink:href="#DejaVuSans-53"/>
       <use x="127.246094" xlink:href="#DejaVuSans-46"/>
       <use x="159.033203" xlink:href="#DejaVuSans-48"/>
      </g>
     </g>
    </g>
    <g id="ytick_7">
     <g id="line2d_25">
      <path clip-path="url(#p92b3141a7f)" d="M 57.6 88.623789 
L 414.72 88.623789 
" style="fill:none;stroke:#b0b0b0;stroke-linecap:square;stroke-width:0.8;"/>
     </g>
     <g id="line2d_26">
      <g>
       <use style="stroke:#000000;stroke-width:0.8;" x="57.6" xlink:href="#mbeeeafb068" y="88.623789"/>
      </g>
     </g>
     <g id="text_14">
      <!-- 37.5 -->
      <g transform="translate(28.334375 92.423008)scale(0.1 -0.1)">
       <use xlink:href="#DejaVuSans-51"/>
       <use x="63.623047" xlink:href="#DejaVuSans-55"/>
       <use x="127.246094" xlink:href="#DejaVuSans-46"/>
       <use x="159.033203" xlink:href="#DejaVuSans-53"/>
      </g>
     </g>
    </g>
    <g id="ytick_8">
     <g id="line2d_27">
      <path clip-path="url(#p92b3141a7f)" d="M 57.6 53.568 
L 414.72 53.568 
" style="fill:none;stroke:#b0b0b0;stroke-linecap:square;stroke-width:0.8;"/>
     </g>
     <g id="line2d_28">
      <g>
       <use style="stroke:#000000;stroke-width:0.8;" x="57.6" xlink:href="#mbeeeafb068" y="53.568"/>
      </g>
     </g>
     <g id="text_15">
      <!-- 40.0 -->
      <g transform="translate(28.334375 57.367219)scale(0.1 -0.1)">
       <use xlink:href="#DejaVuSans-52"/>
       <use x="63.623047" xlink:href="#DejaVuSans-48"/>
       <use x="127.246094" xlink:href="#DejaVuSans-46"/>
       <use x="159.033203" xlink:href="#DejaVuSans-48"/>
      </g>
     </g>
    </g>
    <g id="text_16">
     <!-- Fitness -->
     <defs>
      <path d="M 9.8125 72.90625 
L 51.703125 72.90625 
L 51.703125 64.59375 
L 19.671875 64.59375 
L 19.671875 43.109375 
L 48.578125 43.109375 
L 48.578125 34.8125 
L 19.671875 34.8125 
L 19.671875 0 
L 9.8125 0 
z
" id="DejaVuSans-70"/>
     </defs>
     <g transform="translate(22.254687 192.202219)rotate(-90)scale(0.1 -0.1)">
      <use xlink:href="#DejaVuSans-70"/>
      <use x="57.410156" xlink:href="#DejaVuSans-105"/>
      <use x="85.193359" xlink:href="#DejaVuSans-116"/>
      <use x="124.402344" xlink:href="#DejaVuSans-110"/>
      <use x="187.78125" xlink:href="#DejaVuSans-101"/>
      <use x="249.304688" xlink:href="#DejaVuSans-115"/>
      <use x="301.404297" xlink:href="#DejaVuSans-115"/>
     </g>
    </g>
   </g>
   <g id="line2d_29">
    <path clip-path="url(#p92b3141a7f)" d="M 73.832727 295.488 
L 74.483338 287.49528 
L 75.133948 288.765244 
L 75.784558 283.043195 
L 76.435169 284.98866 
L 77.085779 282.435969 
L 77.736389 283.796463 
L 78.386999 281.578507 
L 79.03761 281.570852 
L 79.68822 275.835866 
L 80.33883 279.918069 
L 80.989441 278.911544 
L 81.640051 279.545719 
L 82.290661 277.230876 
L 82.941272 278.515098 
L 83.591882 281.214235 
L 84.242492 280.771685 
L 85.543713 278.305903 
L 86.194323 279.111017 
L 86.844934 280.618992 
L 87.495544 276.811615 
L 88.146154 277.205957 
L 88.796764 279.570526 
L 89.447375 280.758203 
L 90.097985 282.492925 
L 91.399206 275.622878 
L 92.049816 274.824638 
L 92.700426 274.56111 
L 93.351037 276.269148 
L 94.001647 278.418297 
L 94.652257 278.098593 
L 95.953478 282.797804 
L 96.604088 280.532214 
L 97.905309 277.645999 
L 98.555919 278.657559 
L 99.206529 280.26793 
L 99.85714 275.092259 
L 100.50775 274.88747 
L 101.15836 277.502266 
L 102.459581 277.183315 
L 103.110191 275.605569 
L 103.760802 277.361339 
L 104.411412 275.746144 
L 105.062022 276.067093 
L 105.712633 274.279248 
L 106.363243 269.252894 
L 107.013853 276.460032 
L 107.664463 271.493762 
L 108.315074 274.770029 
L 108.965684 277.048655 
L 109.616294 268.378685 
L 110.266905 272.583215 
L 110.917515 272.653502 
L 111.568125 270.493222 
L 112.218736 269.721995 
L 112.869346 276.978543 
L 113.519956 271.790287 
L 114.170567 271.369617 
L 114.821177 271.685119 
L 115.471787 271.50984 
L 116.122398 274.84014 
L 116.773008 274.84014 
L 117.423618 267.092811 
L 118.074228 273.683299 
L 118.724839 275.716535 
L 119.375449 267.969206 
L 120.026059 270.282888 
L 120.67667 270.493222 
L 121.32728 274.59475 
L 121.97789 268.705377 
L 122.628501 275.646423 
L 123.279111 266.637086 
L 123.929721 270.17772 
L 124.580332 272.666681 
L 125.230942 265.445189 
L 125.881552 268.635266 
L 126.532163 268.775489 
L 127.182773 272.456347 
L 127.833383 272.561514 
L 128.483993 270.072553 
L 129.134604 273.087351 
L 129.785214 269.441549 
L 130.435824 274.805084 
L 131.086435 266.84742 
L 131.737045 269.581772 
L 132.387655 269.721995 
L 133.038266 270.212776 
L 133.688876 265.585412 
L 134.339486 268.495042 
L 134.990097 269.51166 
L 136.291317 268.950768 
L 136.941927 267.197978 
L 137.592538 271.404673 
L 138.243148 268.459987 
L 138.893758 269.231214 
L 139.544369 268.109429 
L 140.194979 269.792107 
L 140.845589 269.581772 
L 141.4962 270.002441 
L 142.14681 273.192518 
L 142.79742 271.404673 
L 143.448031 262.675781 
L 144.098641 268.530098 
L 144.749251 268.775489 
L 145.399862 264.84924 
L 146.050472 268.004261 
L 146.701082 269.196158 
L 147.351692 266.216416 
L 148.002303 264.989464 
L 148.652913 265.760691 
L 149.303523 268.109429 
L 149.954134 265.971026 
L 150.604744 265.900914 
L 151.255354 272.84196 
L 151.905965 270.738613 
L 152.556575 272.210956 
L 153.207185 268.17954 
L 153.857796 272.561514 
L 154.508406 271.404673 
L 155.159016 270.913892 
L 155.809627 271.439729 
L 156.460237 271.334561 
L 157.110847 266.146305 
L 157.761457 265.340021 
L 158.412068 268.109429 
L 159.062678 271.650063 
L 159.713288 269.26627 
L 160.363899 269.301326 
L 161.014509 268.810545 
L 161.665119 264.709017 
L 162.31573 269.441549 
L 162.96634 269.020879 
L 163.61695 271.019059 
L 164.918171 266.111249 
L 165.568781 270.423111 
L 166.219392 267.303146 
L 166.870002 266.496862 
L 167.520612 269.93233 
L 168.171222 272.035677 
L 168.821833 269.336381 
L 169.472443 266.111249 
L 170.123053 271.439729 
L 170.773664 269.897274 
L 171.424274 270.037497 
L 172.074884 267.758871 
L 172.725495 270.878836 
L 173.376105 265.830802 
L 174.026715 269.757051 
L 174.677326 269.686939 
L 175.327936 268.60021 
L 175.978546 264.84924 
L 176.629156 268.915712 
L 177.279767 265.690579 
L 177.930377 273.087351 
L 178.580987 271.229394 
L 179.231598 265.375077 
L 180.532818 269.020879 
L 181.183429 269.231214 
L 181.834039 266.882476 
L 182.484649 271.685119 
L 183.13526 270.773669 
L 183.78587 270.808725 
L 184.43648 263.867678 
L 185.087091 270.037497 
L 185.737701 267.338201 
L 186.388311 269.441549 
L 187.038921 266.18136 
L 187.689532 266.461807 
L 188.340142 271.93051 
L 188.990752 274.664861 
L 190.291973 269.967386 
L 191.593194 266.006081 
L 192.243804 270.388055 
L 192.894414 267.022699 
L 193.545025 268.530098 
L 194.195635 267.338201 
L 194.846245 270.352999 
L 195.496856 266.216416 
L 196.147466 274.033857 
L 196.798076 273.192518 
L 197.448686 275.891814 
L 198.099297 274.805084 
L 199.400517 271.089171 
L 200.051128 269.196158 
L 200.701738 272.701737 
L 201.352348 270.878836 
L 202.002959 272.000621 
L 202.653569 270.773669 
L 203.304179 272.982183 
L 203.95479 268.985824 
L 204.6054 269.792107 
L 205.25601 268.810545 
L 205.906621 274.629806 
L 206.557231 271.089171 
L 208.509062 264.779129 
L 209.159672 265.655524 
L 209.810282 267.583592 
L 210.460893 272.771849 
L 211.111503 267.758871 
L 211.762113 270.703557 
L 212.412724 267.127867 
L 213.063334 268.985824 
L 213.713944 270.17772 
L 214.364555 269.651883 
L 215.015165 268.424931 
L 215.665775 270.317943 
L 216.316385 271.089171 
L 216.966996 264.18318 
L 217.617606 266.18136 
L 218.268216 265.094631 
L 219.569437 269.020879 
L 220.220047 266.742253 
L 220.870658 273.50802 
L 221.521268 269.967386 
L 222.171878 272.526458 
L 222.822489 269.721995 
L 223.473099 269.51166 
L 224.123709 273.472964 
L 224.77432 267.338201 
L 225.42493 269.26627 
L 226.07554 277.539436 
L 226.72615 275.751591 
L 227.376761 269.055935 
L 228.027371 272.771849 
L 228.677981 274.770029 
L 229.328592 269.020879 
L 229.979202 266.356639 
L 230.629812 267.233034 
L 231.280423 266.987644 
L 231.931033 268.635266 
L 232.581643 267.758871 
L 233.232254 269.090991 
L 233.882864 272.105789 
L 234.533474 267.688759 
L 235.184085 269.301326 
L 235.834695 269.686939 
L 236.485305 264.709017 
L 237.135915 267.092811 
L 237.786526 273.648243 
L 238.437136 267.793927 
L 239.087746 266.60203 
L 239.738357 270.142665 
L 240.388967 267.969206 
L 241.039577 269.581772 
L 241.690188 267.373257 
L 242.340798 266.60203 
L 242.991408 270.773669 
L 243.642019 267.653704 
L 244.292629 265.865858 
L 244.943239 271.755231 
L 245.59385 268.17954 
L 246.24446 268.495042 
L 246.89507 271.615008 
L 247.54568 268.60021 
L 248.196291 266.60203 
L 248.846901 267.51348 
L 249.497511 265.93597 
L 250.148122 269.827162 
L 250.798732 268.039317 
L 251.449342 274.664861 
L 252.099953 265.26991 
L 252.750563 270.84378 
L 253.401173 274.945308 
L 254.051784 268.670321 
L 254.702394 271.229394 
L 255.353004 272.070733 
L 256.654225 268.424931 
L 257.304835 268.915712 
L 257.955445 267.899094 
L 258.606056 270.633446 
L 259.256666 268.915712 
L 259.907276 271.50984 
L 260.557887 272.210956 
L 261.208497 271.579952 
L 261.859107 267.443369 
L 262.509718 270.212776 
L 263.160328 266.707197 
L 263.810938 273.367797 
L 264.461549 274.033857 
L 265.112159 269.616828 
L 265.762769 266.391695 
L 266.413379 268.635266 
L 267.06399 274.314303 
L 267.7146 270.773669 
L 268.36521 268.319764 
L 269.015821 269.546716 
L 269.666431 267.233034 
L 270.317041 267.828982 
L 270.967652 269.686939 
L 271.618262 270.703557 
L 272.268872 269.020879 
L 272.919483 270.17772 
L 274.220703 265.725635 
L 274.871314 267.828982 
L 275.521924 269.301326 
L 276.172534 272.246012 
L 276.823144 270.528278 
L 277.473755 271.054115 
L 278.124365 269.581772 
L 278.774975 263.797567 
L 279.425586 263.972846 
L 280.076196 268.985824 
L 280.726806 267.793927 
L 281.377417 268.459987 
L 282.028027 268.319764 
L 282.678637 275.295866 
L 283.329248 267.057755 
L 283.979858 269.581772 
L 284.630468 269.616828 
L 285.281079 264.744073 
L 285.931689 271.50984 
L 286.582299 265.971026 
L 287.232909 268.144485 
L 287.88352 268.249652 
L 288.53413 272.421291 
L 289.18474 268.60021 
L 289.835351 270.352999 
L 290.485961 265.375077 
L 291.136571 269.721995 
L 291.787182 264.007901 
L 292.437792 267.162922 
L 293.088402 268.635266 
L 293.739013 271.685119 
L 294.389623 267.688759 
L 295.040233 267.653704 
L 295.690844 272.316123 
L 296.341454 267.51348 
L 296.992064 265.164743 
L 297.642674 266.426751 
L 298.293285 269.196158 
L 298.943895 265.585412 
L 299.594505 267.338201 
L 300.245116 269.581772 
L 300.895726 266.356639 
L 301.546336 270.072553 
L 302.196947 270.352999 
L 303.498167 268.284708 
L 304.799388 271.93051 
L 305.449998 269.26627 
L 306.100608 273.402853 
L 306.751219 273.998801 
L 307.401829 272.736793 
L 308.052439 270.773669 
L 308.70305 268.284708 
L 309.35366 268.950768 
L 310.00427 267.583592 
L 310.654881 269.616828 
L 311.305491 270.668501 
L 312.606712 269.581772 
L 313.257322 270.352999 
L 313.907932 272.701737 
L 314.558543 268.810545 
L 315.209153 269.51166 
L 315.859763 276.557874 
L 316.510373 270.913892 
L 317.160984 267.092811 
L 317.811594 266.672141 
L 318.462204 268.950768 
L 319.112815 264.779129 
L 319.763425 272.386235 
L 321.064646 272.000621 
L 321.715256 268.109429 
L 322.365866 267.758871 
L 323.016477 271.054115 
L 323.667087 267.443369 
L 324.317697 268.319764 
L 324.968308 262.325224 
L 325.618918 276.417651 
L 326.269528 270.107609 
L 326.920138 272.386235 
L 327.570749 267.93415 
L 328.871969 275.751591 
L 329.52258 267.688759 
L 330.17319 267.618648 
L 330.8238 272.456347 
L 331.474411 268.635266 
L 332.125021 269.967386 
L 332.775631 267.51348 
L 333.426242 270.002441 
L 334.076852 269.231214 
L 334.727462 270.388055 
L 335.378073 273.122407 
L 336.028683 275.190698 
L 336.679293 271.229394 
L 337.329903 276.452707 
L 337.980514 271.50984 
L 338.631124 270.002441 
L 339.281734 266.321584 
L 339.932345 271.965566 
L 340.582955 269.26627 
L 341.233565 260.747713 
L 341.884176 263.622288 
L 342.534786 271.965566 
L 343.185396 266.111249 
L 343.836007 270.633446 
L 344.486617 274.103969 
L 345.137227 272.806905 
L 346.438448 266.952588 
L 347.089058 267.057755 
L 347.739668 266.84742 
L 348.390279 265.690579 
L 349.040889 266.006081 
L 349.691499 265.550356 
L 350.34211 267.688759 
L 350.99272 268.459987 
L 351.64333 272.701737 
L 352.293941 273.683299 
L 352.944551 266.777309 
L 353.595161 268.530098 
L 354.245772 267.723815 
L 354.896382 261.624108 
L 355.546992 271.404673 
L 356.197602 267.127867 
L 356.848213 268.424931 
L 357.498823 265.199798 
L 358.149433 268.635266 
L 358.800044 266.111249 
L 359.450654 273.367797 
L 360.101264 263.587232 
L 360.751875 272.736793 
L 361.402485 266.882476 
L 362.053095 265.760691 
L 362.703706 267.127867 
L 363.354316 275.190698 
L 364.004926 269.51166 
L 364.655537 271.159282 
L 365.306147 268.670321 
L 365.956757 270.773669 
L 366.607367 270.703557 
L 367.257978 272.736793 
L 367.908588 269.546716 
L 368.559198 265.550356 
L 369.209809 268.530098 
L 369.860419 267.723815 
L 370.511029 270.388055 
L 371.16164 272.000621 
L 371.81225 267.758871 
L 372.46286 266.84742 
L 373.113471 267.618648 
L 373.764081 270.563334 
L 374.414691 265.690579 
L 375.065302 269.231214 
L 376.366522 272.421291 
L 377.017132 268.354819 
L 377.667743 266.076193 
L 378.318353 271.229394 
L 378.968963 269.020879 
L 379.619574 268.109429 
L 380.270184 274.139024 
L 380.920794 269.897274 
L 381.571405 267.758871 
L 382.222015 270.037497 
L 382.872625 270.948948 
L 383.523236 270.59839 
L 384.173846 268.284708 
L 384.824456 268.495042 
L 385.475066 267.618648 
L 386.125677 267.373257 
L 386.776287 268.039317 
L 387.426897 269.406493 
L 388.077508 268.144485 
L 388.728118 267.51348 
L 389.378728 270.388055 
L 390.029339 267.443369 
L 390.679949 266.426751 
L 391.330559 267.127867 
L 391.98117 266.076193 
L 392.63178 269.967386 
L 393.28239 270.458167 
L 393.933001 268.144485 
L 394.583611 271.054115 
L 395.234221 267.233034 
L 395.884831 267.688759 
L 396.535442 270.247832 
L 397.186052 267.092811 
L 397.836662 268.740433 
L 398.487273 268.039317 
L 398.487273 268.039317 
" style="fill:none;stroke:#0000ff;stroke-linecap:square;stroke-width:1.5;"/>
   </g>
   <g id="line2d_30">
    <path clip-path="url(#p92b3141a7f)" d="M 73.832727 246.482577 
L 74.483338 237.530376 
L 75.133948 240.36066 
L 75.784558 232.852364 
L 76.435169 235.088223 
L 77.085779 233.391589 
L 77.736389 232.351298 
L 78.386999 230.422441 
L 79.03761 229.485169 
L 79.68822 225.582024 
L 80.33883 230.771169 
L 80.989441 227.973554 
L 81.640051 229.219251 
L 82.290661 224.880211 
L 82.941272 224.035624 
L 83.591882 231.970881 
L 84.242492 228.096151 
L 84.893103 227.375681 
L 85.543713 229.837732 
L 86.194323 230.129557 
L 86.844934 232.955032 
L 87.495544 224.983671 
L 88.146154 225.285144 
L 88.796764 227.89079 
L 89.447375 229.322214 
L 90.097985 229.344642 
L 90.748595 225.627083 
L 91.399206 223.468645 
L 93.351037 227.901071 
L 94.001647 226.846666 
L 94.652257 227.748109 
L 95.302868 229.149294 
L 95.953478 232.168227 
L 97.254698 227.03438 
L 97.905309 229.152697 
L 98.555919 226.228614 
L 99.206529 228.055086 
L 99.85714 225.247008 
L 100.50775 226.031276 
L 101.15836 227.073051 
L 101.808971 227.683641 
L 103.110191 223.548655 
L 103.760802 225.209342 
L 104.411412 225.259336 
L 105.062022 220.90582 
L 105.712633 221.397453 
L 106.363243 217.111387 
L 107.013853 222.478797 
L 107.664463 221.052354 
L 108.315074 223.145097 
L 108.965684 227.504828 
L 109.616294 217.5297 
L 110.266905 220.711167 
L 110.917515 223.016984 
L 111.568125 216.486187 
L 112.218736 218.530412 
L 112.869346 226.346636 
L 113.519956 220.910157 
L 114.170567 222.004008 
L 114.821177 223.390556 
L 115.471787 220.702995 
L 116.122398 226.914171 
L 116.773008 223.068353 
L 117.423618 215.446234 
L 118.074228 224.773764 
L 118.724839 222.778452 
L 119.375449 216.513039 
L 120.026059 222.52877 
L 120.67667 221.698183 
L 121.32728 224.336741 
L 121.97789 217.432394 
L 122.628501 225.466722 
L 123.279111 217.415013 
L 123.929721 216.759795 
L 124.580332 220.417089 
L 125.230942 214.755148 
L 125.881552 219.770778 
L 126.532163 218.243095 
L 127.182773 220.558811 
L 127.833383 221.623257 
L 128.483993 222.146994 
L 129.134604 224.682986 
L 129.785214 219.481994 
L 130.435824 223.776582 
L 131.086435 214.425898 
L 131.737045 220.612009 
L 132.387655 220.889344 
L 133.038266 219.368587 
L 133.688876 216.206549 
L 134.339486 218.317006 
L 134.990097 217.828441 
L 135.640707 216.272377 
L 136.291317 217.001164 
L 136.941927 217.384652 
L 137.592538 219.015277 
L 138.243148 217.399933 
L 138.893758 217.756518 
L 139.544369 215.717734 
L 140.194979 217.770261 
L 140.845589 217.906209 
L 141.4962 217.797274 
L 142.14681 221.208494 
L 142.79742 220.96569 
L 143.448031 214.060909 
L 144.098641 217.380158 
L 144.749251 217.451623 
L 145.399862 217.779471 
L 146.050472 215.853417 
L 146.701082 218.57969 
L 147.351692 219.345843 
L 148.002303 215.113576 
L 148.652913 217.186079 
L 149.303523 217.853559 
L 149.954134 212.712536 
L 151.255354 220.260906 
L 151.905965 221.122905 
L 152.556575 219.015821 
L 153.207185 216.378565 
L 153.857796 224.462327 
L 154.508406 222.519705 
L 155.159016 215.814934 
L 155.809627 223.019892 
L 156.460237 220.140433 
L 157.110847 215.920962 
L 157.761457 216.177867 
L 158.412068 222.62868 
L 159.062678 219.526938 
L 159.713288 217.752256 
L 160.363899 217.358582 
L 161.014509 218.824382 
L 161.665119 214.552635 
L 162.31573 218.420789 
L 162.96634 218.95753 
L 163.61695 221.781073 
L 164.267561 215.429446 
L 164.918171 214.327891 
L 165.568781 217.390248 
L 166.219392 216.991175 
L 166.870002 214.793151 
L 167.520612 220.306208 
L 168.171222 222.303681 
L 168.821833 219.517986 
L 169.472443 213.987275 
L 170.123053 221.088888 
L 170.773664 220.769628 
L 171.424274 219.080136 
L 172.074884 213.842429 
L 172.725495 224.024587 
L 173.376105 215.871998 
L 174.026715 216.743807 
L 174.677326 221.218904 
L 175.327936 214.650228 
L 176.629156 219.171671 
L 177.279767 214.501937 
L 177.930377 221.345244 
L 178.580987 220.720838 
L 179.231598 214.094844 
L 179.882208 219.516679 
L 180.532818 220.777643 
L 181.183429 220.86825 
L 181.834039 217.014769 
L 182.484649 222.543004 
L 183.13526 219.654875 
L 183.78587 220.435727 
L 184.43648 213.353284 
L 185.087091 217.973159 
L 185.737701 219.786267 
L 186.388311 219.629801 
L 187.038921 213.301995 
L 187.689532 216.649627 
L 188.340142 221.880971 
L 188.990752 223.395234 
L 190.291973 219.573899 
L 190.942583 218.579385 
L 191.593194 218.739229 
L 192.243804 221.614189 
L 192.894414 215.734762 
L 193.545025 218.694426 
L 194.195635 212.876396 
L 194.846245 219.943994 
L 195.496856 215.458781 
L 196.147466 227.136614 
L 196.798076 223.589196 
L 197.448686 227.410329 
L 198.099297 224.279987 
L 198.749907 220.32751 
L 199.400517 221.921318 
L 200.051128 218.463285 
L 200.701738 222.900316 
L 201.352348 221.850849 
L 202.002959 220.452648 
L 202.653569 219.934507 
L 203.304179 224.128461 
L 203.95479 221.493638 
L 204.6054 221.038389 
L 205.25601 212.11546 
L 205.906621 221.01434 
L 206.557231 222.40357 
L 207.207841 220.04309 
L 207.858451 212.274 
L 208.509062 214.849851 
L 209.159672 218.011882 
L 209.810282 217.546135 
L 210.460893 222.874381 
L 211.111503 218.134185 
L 211.762113 221.605875 
L 212.412724 217.06388 
L 213.063334 216.978165 
L 213.713944 219.976178 
L 214.364555 219.854102 
L 215.015165 217.772542 
L 215.665775 218.676221 
L 216.316385 220.472994 
L 216.966996 216.559714 
L 217.617606 213.637714 
L 218.268216 218.182126 
L 218.918827 217.748545 
L 219.569437 221.579063 
L 220.220047 217.601101 
L 220.870658 220.806168 
L 221.521268 217.331483 
L 222.171878 221.423293 
L 222.822489 217.654482 
L 223.473099 218.421531 
L 224.123709 221.682014 
L 224.77432 216.373353 
L 225.42493 220.135722 
L 226.07554 225.502202 
L 226.72615 222.705382 
L 227.376761 219.010914 
L 228.027371 225.588385 
L 228.677981 223.498615 
L 229.328592 219.164152 
L 229.979202 215.945732 
L 230.629812 219.823724 
L 231.280423 215.750325 
L 231.931033 216.556767 
L 232.581643 215.830135 
L 233.882864 222.395197 
L 234.533474 221.177561 
L 235.184085 220.956304 
L 235.834695 221.892964 
L 236.485305 214.026165 
L 237.135915 216.649991 
L 237.786526 225.947683 
L 238.437136 214.05809 
L 239.087746 215.386122 
L 239.738357 219.551489 
L 240.388967 215.839185 
L 241.039577 221.800899 
L 241.690188 220.359288 
L 242.340798 214.294011 
L 242.991408 218.017513 
L 243.642019 216.178351 
L 244.292629 215.913339 
L 244.943239 222.285265 
L 245.59385 217.763563 
L 246.24446 217.645548 
L 246.89507 219.879504 
L 247.54568 218.968789 
L 248.196291 217.303182 
L 248.846901 214.374281 
L 249.497511 214.694094 
L 250.148122 216.868098 
L 250.798732 216.962708 
L 251.449342 225.38995 
L 252.099953 215.509468 
L 252.750563 223.09584 
L 253.401173 225.792453 
L 254.051784 217.629478 
L 254.702394 219.842832 
L 255.353004 220.467099 
L 256.003615 219.501424 
L 256.654225 216.91607 
L 257.304835 217.37594 
L 257.955445 213.828974 
L 258.606056 218.064534 
L 259.256666 219.538653 
L 259.907276 222.93877 
L 260.557887 223.039904 
L 261.208497 222.576535 
L 261.859107 214.773297 
L 262.509718 219.098599 
L 263.160328 213.607223 
L 263.810938 220.696547 
L 264.461549 222.321174 
L 265.112159 220.515804 
L 265.762769 219.608842 
L 266.413379 214.692903 
L 267.06399 221.546421 
L 267.7146 220.322749 
L 268.36521 218.593352 
L 269.015821 218.677408 
L 269.666431 213.578491 
L 270.317041 215.481216 
L 271.618262 220.213922 
L 272.268872 218.986996 
L 272.919483 219.392068 
L 273.570093 220.950225 
L 274.220703 215.453922 
L 274.871314 217.795443 
L 276.172534 221.395104 
L 276.823144 220.401209 
L 277.473755 219.029812 
L 278.124365 220.251961 
L 278.774975 215.451185 
L 279.425586 212.902011 
L 280.076196 216.517073 
L 280.726806 215.90095 
L 281.377417 218.381715 
L 282.028027 218.052598 
L 282.678637 222.52584 
L 283.329248 215.690556 
L 283.979858 221.015193 
L 284.630468 221.0493 
L 285.281079 216.787754 
L 285.931689 219.093393 
L 286.582299 213.907348 
L 287.232909 214.710457 
L 287.88352 216.578037 
L 288.53413 223.066637 
L 289.18474 217.322277 
L 289.835351 218.189985 
L 290.485961 212.036845 
L 291.136571 216.979119 
L 291.787182 212.94194 
L 292.437792 215.00925 
L 293.088402 219.081518 
L 293.739013 220.70677 
L 295.040233 216.054357 
L 295.690844 222.001601 
L 296.992064 212.089028 
L 297.642674 215.601708 
L 298.293285 220.409393 
L 298.943895 215.406678 
L 299.594505 216.498895 
L 300.245116 220.954502 
L 300.895726 210.075992 
L 301.546336 217.434865 
L 302.196947 218.997237 
L 302.847557 218.739973 
L 303.498167 213.75098 
L 304.148778 218.908799 
L 304.799388 221.998968 
L 305.449998 213.685529 
L 306.100608 225.145927 
L 306.751219 223.935796 
L 307.401829 222.338125 
L 308.70305 216.260511 
L 309.35366 222.57017 
L 310.00427 215.063339 
L 310.654881 218.697392 
L 311.305491 219.367723 
L 311.956101 219.276051 
L 312.606712 218.307291 
L 313.257322 219.333348 
L 313.907932 220.71743 
L 314.558543 219.100496 
L 315.209153 220.957178 
L 315.859763 228.007454 
L 316.510373 219.135649 
L 317.160984 215.000817 
L 317.811594 216.058586 
L 318.462204 216.184364 
L 319.112815 210.946231 
L 319.763425 223.823705 
L 320.414035 222.361292 
L 321.064646 220.328828 
L 321.715256 214.695633 
L 322.365866 216.804826 
L 323.016477 221.073066 
L 323.667087 218.267718 
L 324.317697 219.370483 
L 324.968308 211.437849 
L 325.618918 225.916006 
L 326.269528 219.352068 
L 327.570749 218.666422 
L 328.221359 220.038715 
L 328.871969 224.095057 
L 329.52258 216.913066 
L 330.17319 215.471892 
L 330.8238 221.75661 
L 331.474411 218.804537 
L 332.125021 218.751478 
L 332.775631 214.885517 
L 333.426242 219.569307 
L 334.076852 216.408572 
L 334.727462 218.888548 
L 335.378073 226.016621 
L 336.028683 228.060331 
L 336.679293 221.092029 
L 337.329903 225.153305 
L 337.980514 221.267287 
L 338.631124 218.737931 
L 339.281734 211.710571 
L 339.932345 221.730485 
L 341.233565 212.397404 
L 341.884176 213.829047 
L 342.534786 217.144991 
L 343.185396 214.709001 
L 343.836007 220.909357 
L 344.486617 225.069465 
L 345.137227 221.646058 
L 345.787837 219.957427 
L 346.438448 213.253904 
L 347.089058 214.836394 
L 347.739668 218.362032 
L 348.390279 213.249662 
L 349.040889 214.728676 
L 349.691499 214.32821 
L 350.34211 218.088398 
L 350.99272 216.078848 
L 351.64333 222.17518 
L 352.293941 224.263849 
L 352.944551 213.110159 
L 353.595161 219.44979 
L 354.245772 215.683747 
L 354.896382 213.443436 
L 355.546992 218.140588 
L 356.197602 217.349436 
L 356.848213 217.821089 
L 357.498823 212.735077 
L 358.149433 217.164401 
L 358.800044 215.015936 
L 359.450654 225.098891 
L 360.101264 217.139714 
L 360.751875 224.582642 
L 361.402485 217.829731 
L 362.053095 212.716394 
L 362.703706 217.835688 
L 363.354316 224.51215 
L 364.004926 217.837953 
L 364.655537 217.74605 
L 365.306147 219.533358 
L 365.956757 217.989568 
L 366.607367 215.213842 
L 367.257978 221.891443 
L 367.908588 220.738797 
L 368.559198 213.879134 
L 369.209809 216.692839 
L 369.860419 216.483343 
L 370.511029 217.10585 
L 371.16164 218.221807 
L 371.81225 216.401243 
L 372.46286 217.557635 
L 373.764081 220.691623 
L 374.414691 213.900483 
L 375.065302 221.585045 
L 375.715912 220.488103 
L 376.366522 222.285985 
L 377.667743 212.614609 
L 378.318353 217.330973 
L 378.968963 220.90007 
L 379.619574 217.990683 
L 380.270184 226.007337 
L 380.920794 220.919946 
L 381.571405 217.621739 
L 382.222015 217.465792 
L 382.872625 222.021325 
L 383.523236 221.231686 
L 384.173846 215.000197 
L 384.824456 218.14098 
L 385.475066 218.711563 
L 386.125677 218.573899 
L 386.776287 219.317117 
L 387.426897 220.281449 
L 388.077508 215.797857 
L 388.728118 213.639325 
L 389.378728 218.074117 
L 390.029339 218.167859 
L 390.679949 214.171091 
L 391.330559 217.142491 
L 391.98117 216.270367 
L 392.63178 215.857881 
L 393.28239 218.606033 
L 393.933001 215.863632 
L 394.583611 219.058166 
L 395.234221 218.464207 
L 395.884831 217.145946 
L 396.535442 218.435909 
L 397.186052 217.080607 
L 397.836662 217.783301 
L 398.487273 215.202951 
L 398.487273 215.202951 
" style="fill:none;stroke:#008000;stroke-dasharray:9.6,2.4,1.5,2.4;stroke-dashoffset:0;stroke-width:1.5;"/>
   </g>
   <g id="line2d_31">
    <path clip-path="url(#p92b3141a7f)" d="M 73.832727 151.724209 
L 74.483338 151.724209 
L 75.784558 123.679578 
L 76.435169 137.701894 
L 77.085779 137.701894 
L 77.736389 109.657262 
L 78.386999 151.724209 
L 79.03761 137.701894 
L 79.68822 137.701894 
L 80.33883 151.724209 
L 80.989441 137.701894 
L 82.290661 137.701894 
L 82.941272 123.679578 
L 83.591882 123.679578 
L 84.242492 137.701894 
L 85.543713 137.701894 
L 86.194323 151.724209 
L 86.844934 137.701894 
L 87.495544 109.657262 
L 88.146154 137.701894 
L 88.796764 95.634947 
L 89.447375 151.724209 
L 90.097985 137.701894 
L 90.748595 137.701894 
L 91.399206 109.657262 
L 92.049816 151.724209 
L 92.700426 151.724209 
L 94.652257 109.657262 
L 95.302868 137.701894 
L 95.953478 67.590316 
L 96.604088 151.724209 
L 97.254698 137.701894 
L 97.905309 137.701894 
L 98.555919 123.679578 
L 99.206529 123.679578 
L 99.85714 151.724209 
L 100.50775 137.701894 
L 101.15836 137.701894 
L 101.808971 165.746525 
L 102.459581 123.679578 
L 103.110191 109.657262 
L 103.760802 137.701894 
L 104.411412 137.701894 
L 105.062022 95.634947 
L 105.712633 137.701894 
L 106.363243 109.657262 
L 107.013853 123.679578 
L 107.664463 123.679578 
L 108.315074 151.724209 
L 108.965684 137.701894 
L 109.616294 137.701894 
L 110.266905 95.634947 
L 110.917515 137.701894 
L 111.568125 81.612631 
L 112.218736 123.679578 
L 112.869346 151.724209 
L 114.170567 95.634947 
L 114.821177 151.724209 
L 115.471787 109.657262 
L 116.122398 137.701894 
L 116.773008 123.679578 
L 117.423618 123.679578 
L 118.074228 137.701894 
L 118.724839 95.634947 
L 119.375449 137.701894 
L 120.026059 151.724209 
L 121.32728 151.724209 
L 123.279111 109.657262 
L 123.929721 123.679578 
L 124.580332 123.679578 
L 125.230942 81.612631 
L 125.881552 109.657262 
L 127.182773 137.701894 
L 127.833383 109.657262 
L 128.483993 109.657262 
L 129.134604 123.679578 
L 129.785214 151.724209 
L 130.435824 81.612631 
L 131.086435 123.679578 
L 131.737045 137.701894 
L 132.387655 137.701894 
L 133.038266 109.657262 
L 133.688876 109.657262 
L 134.339486 67.590316 
L 134.990097 137.701894 
L 135.640707 123.679578 
L 136.291317 95.634947 
L 136.941927 123.679578 
L 138.243148 123.679578 
L 138.893758 137.701894 
L 139.544369 123.679578 
L 140.845589 123.679578 
L 141.4962 95.634947 
L 142.14681 123.679578 
L 142.79742 137.701894 
L 143.448031 95.634947 
L 144.098641 123.679578 
L 144.749251 109.657262 
L 145.399862 137.701894 
L 146.050472 109.657262 
L 146.701082 109.657262 
L 148.002303 137.701894 
L 148.652913 123.679578 
L 149.954134 123.679578 
L 150.604744 151.724209 
L 151.255354 123.679578 
L 151.905965 137.701894 
L 152.556575 137.701894 
L 153.857796 109.657262 
L 154.508406 151.724209 
L 155.159016 109.657262 
L 155.809627 137.701894 
L 156.460237 95.634947 
L 157.110847 123.679578 
L 157.761457 123.679578 
L 158.412068 151.724209 
L 159.713288 123.679578 
L 160.363899 137.701894 
L 161.014509 123.679578 
L 161.665119 123.679578 
L 162.31573 109.657262 
L 162.96634 123.679578 
L 163.61695 95.634947 
L 164.267561 123.679578 
L 164.918171 109.657262 
L 165.568781 137.701894 
L 166.219392 123.679578 
L 166.870002 95.634947 
L 167.520612 123.679578 
L 168.171222 123.679578 
L 168.821833 151.724209 
L 169.472443 123.679578 
L 170.123053 123.679578 
L 171.424274 151.724209 
L 172.074884 81.612631 
L 172.725495 123.679578 
L 173.376105 109.657262 
L 174.677326 137.701894 
L 175.327936 95.634947 
L 175.978546 137.701894 
L 177.279767 109.657262 
L 177.930377 137.701894 
L 178.580987 123.679578 
L 179.231598 137.701894 
L 181.183429 95.634947 
L 181.834039 137.701894 
L 182.484649 123.679578 
L 183.13526 123.679578 
L 183.78587 137.701894 
L 184.43648 123.679578 
L 185.087091 123.679578 
L 185.737701 137.701894 
L 186.388311 109.657262 
L 187.689532 109.657262 
L 188.340142 137.701894 
L 188.990752 109.657262 
L 189.641363 137.701894 
L 190.942583 109.657262 
L 191.593194 123.679578 
L 193.545025 123.679578 
L 194.195635 109.657262 
L 194.846245 123.679578 
L 195.496856 123.679578 
L 196.147466 137.701894 
L 196.798076 81.612631 
L 197.448686 123.679578 
L 198.099297 151.724209 
L 198.749907 123.679578 
L 199.400517 109.657262 
L 200.051128 109.657262 
L 200.701738 95.634947 
L 201.352348 137.701894 
L 202.002959 123.679578 
L 202.653569 137.701894 
L 203.304179 109.657262 
L 203.95479 109.657262 
L 204.6054 137.701894 
L 205.25601 109.657262 
L 205.906621 123.679578 
L 206.557231 109.657262 
L 207.207841 123.679578 
L 211.111503 123.679578 
L 211.762113 137.701894 
L 213.063334 109.657262 
L 213.713944 109.657262 
L 214.364555 123.679578 
L 215.015165 109.657262 
L 216.316385 137.701894 
L 216.966996 123.679578 
L 217.617606 53.568 
L 218.268216 95.634947 
L 218.918827 123.679578 
L 219.569437 123.679578 
L 220.220047 109.657262 
L 221.521268 137.701894 
L 222.171878 95.634947 
L 222.822489 137.701894 
L 223.473099 137.701894 
L 224.123709 123.679578 
L 226.07554 123.679578 
L 226.72615 137.701894 
L 227.376761 137.701894 
L 228.027371 151.724209 
L 229.328592 123.679578 
L 230.629812 151.724209 
L 231.280423 109.657262 
L 231.931033 109.657262 
L 233.882864 151.724209 
L 234.533474 123.679578 
L 235.184085 137.701894 
L 235.834695 123.679578 
L 236.485305 137.701894 
L 237.135915 123.679578 
L 237.786526 137.701894 
L 238.437136 109.657262 
L 239.087746 109.657262 
L 239.738357 137.701894 
L 240.388967 109.657262 
L 241.039577 123.679578 
L 241.690188 109.657262 
L 242.340798 109.657262 
L 242.991408 67.590316 
L 243.642019 109.657262 
L 244.292629 81.612631 
L 244.943239 81.612631 
L 245.59385 137.701894 
L 246.24446 109.657262 
L 246.89507 109.657262 
L 247.54568 151.724209 
L 248.196291 137.701894 
L 249.497511 81.612631 
L 250.798732 137.701894 
L 251.449342 95.634947 
L 252.099953 137.701894 
L 252.750563 137.701894 
L 253.401173 109.657262 
L 254.051784 137.701894 
L 254.702394 95.634947 
L 255.353004 123.679578 
L 256.003615 137.701894 
L 256.654225 95.634947 
L 257.304835 81.612631 
L 257.955445 109.657262 
L 259.256666 109.657262 
L 259.907276 151.724209 
L 260.557887 137.701894 
L 262.509718 137.701894 
L 263.160328 109.657262 
L 263.810938 109.657262 
L 264.461549 95.634947 
L 265.112159 137.701894 
L 265.762769 109.657262 
L 266.413379 137.701894 
L 267.06399 123.679578 
L 267.7146 137.701894 
L 268.36521 123.679578 
L 269.015821 123.679578 
L 269.666431 137.701894 
L 270.317041 109.657262 
L 270.967652 123.679578 
L 271.618262 123.679578 
L 272.268872 137.701894 
L 272.919483 123.679578 
L 273.570093 137.701894 
L 274.220703 109.657262 
L 274.871314 137.701894 
L 275.521924 137.701894 
L 276.172534 123.679578 
L 276.823144 67.590316 
L 278.124365 151.724209 
L 278.774975 123.679578 
L 279.425586 137.701894 
L 280.076196 109.657262 
L 282.678637 109.657262 
L 283.329248 123.679578 
L 283.979858 109.657262 
L 284.630468 137.701894 
L 285.281079 137.701894 
L 285.931689 109.657262 
L 286.582299 123.679578 
L 287.232909 95.634947 
L 287.88352 137.701894 
L 288.53413 137.701894 
L 289.18474 95.634947 
L 289.835351 95.634947 
L 290.485961 123.679578 
L 291.136571 123.679578 
L 291.787182 95.634947 
L 292.437792 137.701894 
L 293.088402 151.724209 
L 293.739013 123.679578 
L 295.040233 123.679578 
L 295.690844 137.701894 
L 296.341454 123.679578 
L 297.642674 123.679578 
L 298.293285 137.701894 
L 298.943895 109.657262 
L 300.245116 137.701894 
L 300.895726 123.679578 
L 302.196947 123.679578 
L 302.847557 109.657262 
L 303.498167 137.701894 
L 304.799388 137.701894 
L 305.449998 109.657262 
L 306.100608 137.701894 
L 306.751219 123.679578 
L 307.401829 123.679578 
L 308.052439 95.634947 
L 309.35366 151.724209 
L 310.654881 95.634947 
L 311.305491 137.701894 
L 311.956101 137.701894 
L 312.606712 95.634947 
L 313.257322 123.679578 
L 313.907932 137.701894 
L 314.558543 109.657262 
L 315.859763 137.701894 
L 316.510373 81.612631 
L 317.160984 123.679578 
L 317.811594 95.634947 
L 318.462204 123.679578 
L 319.112815 123.679578 
L 319.763425 137.701894 
L 320.414035 123.679578 
L 321.064646 95.634947 
L 321.715256 123.679578 
L 322.365866 137.701894 
L 323.016477 123.679578 
L 323.667087 137.701894 
L 324.317697 137.701894 
L 324.968308 95.634947 
L 326.269528 123.679578 
L 326.920138 109.657262 
L 327.570749 123.679578 
L 328.221359 67.590316 
L 328.871969 123.679578 
L 330.17319 123.679578 
L 330.8238 137.701894 
L 331.474411 123.679578 
L 332.125021 137.701894 
L 333.426242 137.701894 
L 334.076852 109.657262 
L 334.727462 151.724209 
L 335.378073 109.657262 
L 336.028683 137.701894 
L 336.679293 123.679578 
L 337.329903 137.701894 
L 337.980514 95.634947 
L 338.631124 151.724209 
L 339.281734 137.701894 
L 339.932345 109.657262 
L 340.582955 109.657262 
L 341.233565 123.679578 
L 341.884176 95.634947 
L 343.185396 123.679578 
L 343.836007 151.724209 
L 344.486617 109.657262 
L 345.787837 137.701894 
L 347.739668 137.701894 
L 348.390279 109.657262 
L 349.040889 123.679578 
L 349.691499 95.634947 
L 350.34211 137.701894 
L 350.99272 123.679578 
L 351.64333 123.679578 
L 352.293941 137.701894 
L 352.944551 123.679578 
L 353.595161 123.679578 
L 354.245772 95.634947 
L 354.896382 109.657262 
L 355.546992 137.701894 
L 356.197602 123.679578 
L 356.848213 123.679578 
L 357.498823 53.568 
L 358.149433 109.657262 
L 358.800044 123.679578 
L 359.450654 109.657262 
L 360.101264 137.701894 
L 360.751875 123.679578 
L 361.402485 137.701894 
L 362.053095 95.634947 
L 362.703706 109.657262 
L 363.354316 137.701894 
L 364.004926 123.679578 
L 364.655537 123.679578 
L 365.306147 137.701894 
L 365.956757 137.701894 
L 366.607367 109.657262 
L 367.257978 151.724209 
L 368.559198 123.679578 
L 369.209809 137.701894 
L 369.860419 123.679578 
L 370.511029 123.679578 
L 371.16164 95.634947 
L 371.81225 137.701894 
L 372.46286 95.634947 
L 373.113471 123.679578 
L 373.764081 109.657262 
L 375.715912 109.657262 
L 376.366522 137.701894 
L 377.017132 123.679578 
L 378.318353 123.679578 
L 378.968963 137.701894 
L 379.619574 109.657262 
L 380.270184 123.679578 
L 382.222015 123.679578 
L 382.872625 95.634947 
L 383.523236 123.679578 
L 384.173846 109.657262 
L 384.824456 137.701894 
L 386.125677 137.701894 
L 387.426897 109.657262 
L 388.077508 123.679578 
L 388.728118 95.634947 
L 389.378728 53.568 
L 390.029339 123.679578 
L 391.98117 123.679578 
L 392.63178 109.657262 
L 393.28239 137.701894 
L 393.933001 109.657262 
L 394.583611 123.679578 
L 395.234221 123.679578 
L 395.884831 109.657262 
L 396.535442 137.701894 
L 397.186052 123.679578 
L 397.836662 137.701894 
L 398.487273 123.679578 
L 398.487273 123.679578 
" style="fill:none;stroke:#ff0000;stroke-linecap:square;stroke-width:1.5;"/>
   </g>
   <g id="patch_3">
    <path d="M 57.6 307.584 
L 57.6 41.472 
" style="fill:none;stroke:#000000;stroke-linecap:square;stroke-linejoin:miter;stroke-width:0.8;"/>
   </g>
   <g id="patch_4">
    <path d="M 414.72 307.584 
L 414.72 41.472 
" style="fill:none;stroke:#000000;stroke-linecap:square;stroke-linejoin:miter;stroke-width:0.8;"/>
   </g>
   <g id="patch_5">
    <path d="M 57.6 307.584 
L 414.72 307.584 
" style="fill:none;stroke:#000000;stroke-linecap:square;stroke-linejoin:miter;stroke-width:0.8;"/>
   </g>
   <g id="patch_6">
    <path d="M 57.6 41.472 
L 414.72 41.472 
" style="fill:none;stroke:#000000;stroke-linecap:square;stroke-linejoin:miter;stroke-width:0.8;"/>
   </g>
   <g id="text_17">
    <!-- Population's average and best fitness -->
    <defs>
     <path d="M 19.671875 64.796875 
L 19.671875 37.40625 
L 32.078125 37.40625 
Q 38.96875 37.40625 42.71875 40.96875 
Q 46.484375 44.53125 46.484375 51.125 
Q 46.484375 57.671875 42.71875 61.234375 
Q 38.96875 64.796875 32.078125 64.796875 
z
M 9.8125 72.90625 
L 32.078125 72.90625 
Q 44.34375 72.90625 50.609375 67.359375 
Q 56.890625 61.8125 56.890625 51.125 
Q 56.890625 40.328125 50.609375 34.8125 
Q 44.34375 29.296875 32.078125 29.296875 
L 19.671875 29.296875 
L 19.671875 0 
L 9.8125 0 
z
" id="DejaVuSans-80"/>
     <path d="M 18.109375 8.203125 
L 18.109375 -20.796875 
L 9.078125 -20.796875 
L 9.078125 54.6875 
L 18.109375 54.6875 
L 18.109375 46.390625 
Q 20.953125 51.265625 25.265625 53.625 
Q 29.59375 56 35.59375 56 
Q 45.5625 56 51.78125 48.09375 
Q 58.015625 40.1875 58.015625 27.296875 
Q 58.015625 14.40625 51.78125 6.484375 
Q 45.5625 -1.421875 35.59375 -1.421875 
Q 29.59375 -1.421875 25.265625 0.953125 
Q 20.953125 3.328125 18.109375 8.203125 
z
M 48.6875 27.296875 
Q 48.6875 37.203125 44.609375 42.84375 
Q 40.53125 48.484375 33.40625 48.484375 
Q 26.265625 48.484375 22.1875 42.84375 
Q 18.109375 37.203125 18.109375 27.296875 
Q 18.109375 17.390625 22.1875 11.75 
Q 26.265625 6.109375 33.40625 6.109375 
Q 40.53125 6.109375 44.609375 11.75 
Q 48.6875 17.390625 48.6875 27.296875 
z
" id="DejaVuSans-112"/>
     <path d="M 8.5 21.578125 
L 8.5 54.6875 
L 17.484375 54.6875 
L 17.484375 21.921875 
Q 17.484375 14.15625 20.5 10.265625 
Q 23.53125 6.390625 29.59375 6.390625 
Q 36.859375 6.390625 41.078125 11.03125 
Q 45.3125 15.671875 45.3125 23.6875 
L 45.3125 54.6875 
L 54.296875 54.6875 
L 54.296875 0 
L 45.3125 0 
L 45.3125 8.40625 
Q 42.046875 3.421875 37.71875 1 
Q 33.40625 -1.421875 27.6875 -1.421875 
Q 18.265625 -1.421875 13.375 4.4375 
Q 8.5 10.296875 8.5 21.578125 
z
M 31.109375 56 
z
" id="DejaVuSans-117"/>
     <path d="M 9.421875 75.984375 
L 18.40625 75.984375 
L 18.40625 0 
L 9.421875 0 
z
" id="DejaVuSans-108"/>
     <path d="M 17.921875 72.90625 
L 17.921875 45.796875 
L 9.625 45.796875 
L 9.625 72.90625 
z
" id="DejaVuSans-39"/>
     <path id="DejaVuSans-32"/>
     <path d="M 2.984375 54.6875 
L 12.5 54.6875 
L 29.59375 8.796875 
L 46.6875 54.6875 
L 56.203125 54.6875 
L 35.6875 0 
L 23.484375 0 
z
" id="DejaVuSans-118"/>
     <path d="M 45.40625 27.984375 
Q 45.40625 37.75 41.375 43.109375 
Q 37.359375 48.484375 30.078125 48.484375 
Q 22.859375 48.484375 18.828125 43.109375 
Q 14.796875 37.75 14.796875 27.984375 
Q 14.796875 18.265625 18.828125 12.890625 
Q 22.859375 7.515625 30.078125 7.515625 
Q 37.359375 7.515625 41.375 12.890625 
Q 45.40625 18.265625 45.40625 27.984375 
z
M 54.390625 6.78125 
Q 54.390625 -7.171875 48.1875 -13.984375 
Q 42 -20.796875 29.203125 -20.796875 
Q 24.46875 -20.796875 20.265625 -20.09375 
Q 16.0625 -19.390625 12.109375 -17.921875 
L 12.109375 -9.1875 
Q 16.0625 -11.328125 19.921875 -12.34375 
Q 23.78125 -13.375 27.78125 -13.375 
Q 36.625 -13.375 41.015625 -8.765625 
Q 45.40625 -4.15625 45.40625 5.171875 
L 45.40625 9.625 
Q 42.625 4.78125 38.28125 2.390625 
Q 33.9375 0 27.875 0 
Q 17.828125 0 11.671875 7.65625 
Q 5.515625 15.328125 5.515625 27.984375 
Q 5.515625 40.671875 11.671875 48.328125 
Q 17.828125 56 27.875 56 
Q 33.9375 56 38.28125 53.609375 
Q 42.625 51.21875 45.40625 46.390625 
L 45.40625 54.6875 
L 54.390625 54.6875 
z
" id="DejaVuSans-103"/>
     <path d="M 45.40625 46.390625 
L 45.40625 75.984375 
L 54.390625 75.984375 
L 54.390625 0 
L 45.40625 0 
L 45.40625 8.203125 
Q 42.578125 3.328125 38.25 0.953125 
Q 33.9375 -1.421875 27.875 -1.421875 
Q 17.96875 -1.421875 11.734375 6.484375 
Q 5.515625 14.40625 5.515625 27.296875 
Q 5.515625 40.1875 11.734375 48.09375 
Q 17.96875 56 27.875 56 
Q 33.9375 56 38.25 53.625 
Q 42.578125 51.265625 45.40625 46.390625 
z
M 14.796875 27.296875 
Q 14.796875 17.390625 18.875 11.75 
Q 22.953125 6.109375 30.078125 6.109375 
Q 37.203125 6.109375 41.296875 11.75 
Q 45.40625 17.390625 45.40625 27.296875 
Q 45.40625 37.203125 41.296875 42.84375 
Q 37.203125 48.484375 30.078125 48.484375 
Q 22.953125 48.484375 18.875 42.84375 
Q 14.796875 37.203125 14.796875 27.296875 
z
" id="DejaVuSans-100"/>
     <path d="M 48.6875 27.296875 
Q 48.6875 37.203125 44.609375 42.84375 
Q 40.53125 48.484375 33.40625 48.484375 
Q 26.265625 48.484375 22.1875 42.84375 
Q 18.109375 37.203125 18.109375 27.296875 
Q 18.109375 17.390625 22.1875 11.75 
Q 26.265625 6.109375 33.40625 6.109375 
Q 40.53125 6.109375 44.609375 11.75 
Q 48.6875 17.390625 48.6875 27.296875 
z
M 18.109375 46.390625 
Q 20.953125 51.265625 25.265625 53.625 
Q 29.59375 56 35.59375 56 
Q 45.5625 56 51.78125 48.09375 
Q 58.015625 40.1875 58.015625 27.296875 
Q 58.015625 14.40625 51.78125 6.484375 
Q 45.5625 -1.421875 35.59375 -1.421875 
Q 29.59375 -1.421875 25.265625 0.953125 
Q 20.953125 3.328125 18.109375 8.203125 
L 18.109375 0 
L 9.078125 0 
L 9.078125 75.984375 
L 18.109375 75.984375 
z
" id="DejaVuSans-98"/>
     <path d="M 37.109375 75.984375 
L 37.109375 68.5 
L 28.515625 68.5 
Q 23.6875 68.5 21.796875 66.546875 
Q 19.921875 64.59375 19.921875 59.515625 
L 19.921875 54.6875 
L 34.71875 54.6875 
L 34.71875 47.703125 
L 19.921875 47.703125 
L 19.921875 0 
L 10.890625 0 
L 10.890625 47.703125 
L 2.296875 47.703125 
L 2.296875 54.6875 
L 10.890625 54.6875 
L 10.890625 58.5 
Q 10.890625 67.625 15.140625 71.796875 
Q 19.390625 75.984375 28.609375 75.984375 
z
" id="DejaVuSans-102"/>
    </defs>
    <g transform="translate(123.315 35.472)scale(0.12 -0.12)">
     <use xlink:href="#DejaVuSans-80"/>
     <use x="60.255859" xlink:href="#DejaVuSans-111"/>
     <use x="121.4375" xlink:href="#DejaVuSans-112"/>
     <use x="184.914062" xlink:href="#DejaVuSans-117"/>
     <use x="248.292969" xlink:href="#DejaVuSans-108"/>
     <use x="276.076172" xlink:href="#DejaVuSans-97"/>
     <use x="337.355469" xlink:href="#DejaVuSans-116"/>
     <use x="376.564453" xlink:href="#DejaVuSans-105"/>
     <use x="404.347656" xlink:href="#DejaVuSans-111"/>
     <use x="465.529297" xlink:href="#DejaVuSans-110"/>
     <use x="528.908203" xlink:href="#DejaVuSans-39"/>
     <use x="556.398438" xlink:href="#DejaVuSans-115"/>
     <use x="608.498047" xlink:href="#DejaVuSans-32"/>
     <use x="640.285156" xlink:href="#DejaVuSans-97"/>
     <use x="701.564453" xlink:href="#DejaVuSans-118"/>
     <use x="760.744141" xlink:href="#DejaVuSans-101"/>
     <use x="822.267578" xlink:href="#DejaVuSans-114"/>
     <use x="863.380859" xlink:href="#DejaVuSans-97"/>
     <use x="924.660156" xlink:href="#DejaVuSans-103"/>
     <use x="988.136719" xlink:href="#DejaVuSans-101"/>
     <use x="1049.660156" xlink:href="#DejaVuSans-32"/>
     <use x="1081.447266" xlink:href="#DejaVuSans-97"/>
     <use x="1142.726562" xlink:href="#DejaVuSans-110"/>
     <use x="1206.105469" xlink:href="#DejaVuSans-100"/>
     <use x="1269.582031" xlink:href="#DejaVuSans-32"/>
     <use x="1301.369141" xlink:href="#DejaVuSans-98"/>
     <use x="1364.845703" xlink:href="#DejaVuSans-101"/>
     <use x="1426.369141" xlink:href="#DejaVuSans-115"/>
     <use x="1478.46875" xlink:href="#DejaVuSans-116"/>
     <use x="1517.677734" xlink:href="#DejaVuSans-32"/>
     <use x="1549.464844" xlink:href="#DejaVuSans-102"/>
     <use x="1584.669922" xlink:href="#DejaVuSans-105"/>
     <use x="1612.453125" xlink:href="#DejaVuSans-116"/>
     <use x="1651.662109" xlink:href="#DejaVuSans-110"/>
     <use x="1715.041016" xlink:href="#DejaVuSans-101"/>
     <use x="1776.564453" xlink:href="#DejaVuSans-115"/>
     <use x="1828.664062" xlink:href="#DejaVuSans-115"/>
    </g>
   </g>
   <g id="legend_1">
    <g id="patch_7">
     <path d="M 334.779375 93.506375 
L 407.72 93.506375 
Q 409.72 93.506375 409.72 91.506375 
L 409.72 48.472 
Q 409.72 46.472 407.72 46.472 
L 334.779375 46.472 
Q 332.779375 46.472 332.779375 48.472 
L 332.779375 91.506375 
Q 332.779375 93.506375 334.779375 93.506375 
z
" style="fill:#ffffff;opacity:0.8;stroke:#cccccc;stroke-linejoin:miter;"/>
    </g>
    <g id="line2d_32">
     <path d="M 336.779375 54.570438 
L 356.779375 54.570438 
" style="fill:none;stroke:#0000ff;stroke-linecap:square;stroke-width:1.5;"/>
    </g>
    <g id="line2d_33"/>
    <g id="text_18">
     <!-- average -->
     <g transform="translate(364.779375 58.070438)scale(0.1 -0.1)">
      <use xlink:href="#DejaVuSans-97"/>
      <use x="61.279297" xlink:href="#DejaVuSans-118"/>
      <use x="120.458984" xlink:href="#DejaVuSans-101"/>
      <use x="181.982422" xlink:href="#DejaVuSans-114"/>
      <use x="223.095703" xlink:href="#DejaVuSans-97"/>
      <use x="284.375" xlink:href="#DejaVuSans-103"/>
      <use x="347.851562" xlink:href="#DejaVuSans-101"/>
     </g>
    </g>
    <g id="line2d_34">
     <path d="M 336.779375 69.248563 
L 356.779375 69.248563 
" style="fill:none;stroke:#008000;stroke-dasharray:9.6,2.4,1.5,2.4;stroke-dashoffset:0;stroke-width:1.5;"/>
    </g>
    <g id="line2d_35"/>
    <g id="text_19">
     <!-- +1 sd -->
     <defs>
      <path d="M 46 62.703125 
L 46 35.5 
L 73.1875 35.5 
L 73.1875 27.203125 
L 46 27.203125 
L 46 0 
L 37.796875 0 
L 37.796875 27.203125 
L 10.59375 27.203125 
L 10.59375 35.5 
L 37.796875 35.5 
L 37.796875 62.703125 
z
" id="DejaVuSans-43"/>
     </defs>
     <g transform="translate(364.779375 72.748563)scale(0.1 -0.1)">
      <use xlink:href="#DejaVuSans-43"/>
      <use x="83.789062" xlink:href="#DejaVuSans-49"/>
      <use x="147.412109" xlink:href="#DejaVuSans-32"/>
      <use x="179.199219" xlink:href="#DejaVuSans-115"/>
      <use x="231.298828" xlink:href="#DejaVuSans-100"/>
     </g>
    </g>
    <g id="line2d_36">
     <path d="M 336.779375 83.926688 
L 356.779375 83.926688 
" style="fill:none;stroke:#ff0000;stroke-linecap:square;stroke-width:1.5;"/>
    </g>
    <g id="line2d_37"/>
    <g id="text_20">
     <!-- best -->
     <g transform="translate(364.779375 87.426688)scale(0.1 -0.1)">
      <use xlink:href="#DejaVuSans-98"/>
      <use x="63.476562" xlink:href="#DejaVuSans-101"/>
      <use x="125" xlink:href="#DejaVuSans-115"/>
      <use x="177.099609" xlink:href="#DejaVuSans-116"/>
     </g>
    </g>
   </g>
  </g>
 </g>
 <defs>
  <clipPath id="p92b3141a7f">
   <rect height="266.112" width="357.12" x="57.6" y="41.472"/>
  </clipPath>
 </defs>
</svg>
