<?xml version="1.0" encoding="utf-8" standalone="no"?>
<!DOCTYPE svg PUBLIC "-//W3C//DTD SVG 1.1//EN"
  "http://www.w3.org/Graphics/SVG/1.1/DTD/svg11.dtd">
<!-- Created with matplotlib (https://matplotlib.org/) -->
<svg height="345.6pt" version="1.1" viewBox="0 0 460.8 345.6" width="460.8pt" xmlns="http://www.w3.org/2000/svg" xmlns:xlink="http://www.w3.org/1999/xlink">
 <defs>
  <style type="text/css">
*{stroke-linecap:butt;stroke-linejoin:round;}
  </style>
 </defs>
 <g id="figure_1">
  <g id="patch_1">
   <path d="M 0 345.6 
L 460.8 345.6 
L 460.8 0 
L 0 0 
z
" style="fill:#ffffff;"/>
  </g>
  <g id="axes_1">
   <g id="patch_2">
    <path d="M 57.6 307.584 
L 414.72 307.584 
L 414.72 41.472 
L 57.6 41.472 
z
" style="fill:#ffffff;"/>
   </g>
   <g id="matplotlib.axis_1">
    <g id="xtick_1">
     <g id="line2d_1">
      <path clip-path="url(#p2fe87c5aae)" d="M 73.832727 307.584 
L 73.832727 41.472 
" style="fill:none;stroke:#b0b0b0;stroke-linecap:square;stroke-width:0.8;"/>
     </g>
     <g id="line2d_2">
      <defs>
       <path d="M 0 0 
L 0 3.5 
" id="m2454bb7a76" style="stroke:#000000;stroke-width:0.8;"/>
      </defs>
      <g>
       <use style="stroke:#000000;stroke-width:0.8;" x="73.832727" xlink:href="#m2454bb7a76" y="307.584"/>
      </g>
     </g>
     <g id="text_1">
      <!-- 0 -->
      <defs>
       <path d="M 31.78125 66.40625 
Q 24.171875 66.40625 20.328125 58.90625 
Q 16.5 51.421875 16.5 36.375 
Q 16.5 21.390625 20.328125 13.890625 
Q 24.171875 6.390625 31.78125 6.390625 
Q 39.453125 6.390625 43.28125 13.890625 
Q 47.125 21.390625 47.125 36.375 
Q 47.125 51.421875 43.28125 58.90625 
Q 39.453125 66.40625 31.78125 66.40625 
z
M 31.78125 74.21875 
Q 44.046875 74.21875 50.515625 64.515625 
Q 56.984375 54.828125 56.984375 36.375 
Q 56.984375 17.96875 50.515625 8.265625 
Q 44.046875 -1.421875 31.78125 -1.421875 
Q 19.53125 -1.421875 13.0625 8.265625 
Q 6.59375 17.96875 6.59375 36.375 
Q 6.59375 54.828125 13.0625 64.515625 
Q 19.53125 74.21875 31.78125 74.21875 
z
" id="DejaVuSans-48"/>
      </defs>
      <g transform="translate(70.651477 322.182437)scale(0.1 -0.1)">
       <use xlink:href="#DejaVuSans-48"/>
      </g>
     </g>
    </g>
    <g id="xtick_2">
     <g id="line2d_3">
      <path clip-path="url(#p2fe87c5aae)" d="M 138.893758 307.584 
L 138.893758 41.472 
" style="fill:none;stroke:#b0b0b0;stroke-linecap:square;stroke-width:0.8;"/>
     </g>
     <g id="line2d_4">
      <g>
       <use style="stroke:#000000;stroke-width:0.8;" x="138.893758" xlink:href="#m2454bb7a76" y="307.584"/>
      </g>
     </g>
     <g id="text_2">
      <!-- 100 -->
      <defs>
       <path d="M 12.40625 8.296875 
L 28.515625 8.296875 
L 28.515625 63.921875 
L 10.984375 60.40625 
L 10.984375 69.390625 
L 28.421875 72.90625 
L 38.28125 72.90625 
L 38.28125 8.296875 
L 54.390625 8.296875 
L 54.390625 0 
L 12.40625 0 
z
" id="DejaVuSans-49"/>
      </defs>
      <g transform="translate(129.350008 322.182437)scale(0.1 -0.1)">
       <use xlink:href="#DejaVuSans-49"/>
       <use x="63.623047" xlink:href="#DejaVuSans-48"/>
       <use x="127.246094" xlink:href="#DejaVuSans-48"/>
      </g>
     </g>
    </g>
    <g id="xtick_3">
     <g id="line2d_5">
      <path clip-path="url(#p2fe87c5aae)" d="M 203.95479 307.584 
L 203.95479 41.472 
" style="fill:none;stroke:#b0b0b0;stroke-linecap:square;stroke-width:0.8;"/>
     </g>
     <g id="line2d_6">
      <g>
       <use style="stroke:#000000;stroke-width:0.8;" x="203.95479" xlink:href="#m2454bb7a76" y="307.584"/>
      </g>
     </g>
     <g id="text_3">
      <!-- 200 -->
      <defs>
       <path d="M 19.1875 8.296875 
L 53.609375 8.296875 
L 53.609375 0 
L 7.328125 0 
L 7.328125 8.296875 
Q 12.9375 14.109375 22.625 23.890625 
Q 32.328125 33.6875 34.8125 36.53125 
Q 39.546875 41.84375 41.421875 45.53125 
Q 43.3125 49.21875 43.3125 52.78125 
Q 43.3125 58.59375 39.234375 62.25 
Q 35.15625 65.921875 28.609375 65.921875 
Q 23.96875 65.921875 18.8125 64.3125 
Q 13.671875 62.703125 7.8125 59.421875 
L 7.8125 69.390625 
Q 13.765625 71.78125 18.9375 73 
Q 24.125 74.21875 28.421875 74.21875 
Q 39.75 74.21875 46.484375 68.546875 
Q 53.21875 62.890625 53.21875 53.421875 
Q 53.21875 48.921875 51.53125 44.890625 
Q 49.859375 40.875 45.40625 35.40625 
Q 44.1875 33.984375 37.640625 27.21875 
Q 31.109375 20.453125 19.1875 8.296875 
z
" id="DejaVuSans-50"/>
      </defs>
      <g transform="translate(194.41104 322.182437)scale(0.1 -0.1)">
       <use xlink:href="#DejaVuSans-50"/>
       <use x="63.623047" xlink:href="#DejaVuSans-48"/>
       <use x="127.246094" xlink:href="#DejaVuSans-48"/>
      </g>
     </g>
    </g>
    <g id="xtick_4">
     <g id="line2d_7">
      <path clip-path="url(#p2fe87c5aae)" d="M 269.015821 307.584 
L 269.015821 41.472 
" style="fill:none;stroke:#b0b0b0;stroke-linecap:square;stroke-width:0.8;"/>
     </g>
     <g id="line2d_8">
      <g>
       <use style="stroke:#000000;stroke-width:0.8;" x="269.015821" xlink:href="#m2454bb7a76" y="307.584"/>
      </g>
     </g>
     <g id="text_4">
      <!-- 300 -->
      <defs>
       <path d="M 40.578125 39.3125 
Q 47.65625 37.796875 51.625 33 
Q 55.609375 28.21875 55.609375 21.1875 
Q 55.609375 10.40625 48.1875 4.484375 
Q 40.765625 -1.421875 27.09375 -1.421875 
Q 22.515625 -1.421875 17.65625 -0.515625 
Q 12.796875 0.390625 7.625 2.203125 
L 7.625 11.71875 
Q 11.71875 9.328125 16.59375 8.109375 
Q 21.484375 6.890625 26.8125 6.890625 
Q 36.078125 6.890625 40.9375 10.546875 
Q 45.796875 14.203125 45.796875 21.1875 
Q 45.796875 27.640625 41.28125 31.265625 
Q 36.765625 34.90625 28.71875 34.90625 
L 20.21875 34.90625 
L 20.21875 43.015625 
L 29.109375 43.015625 
Q 36.375 43.015625 40.234375 45.921875 
Q 44.09375 48.828125 44.09375 54.296875 
Q 44.09375 59.90625 40.109375 62.90625 
Q 36.140625 65.921875 28.71875 65.921875 
Q 24.65625 65.921875 20.015625 65.03125 
Q 15.375 64.15625 9.8125 62.3125 
L 9.8125 71.09375 
Q 15.4375 72.65625 20.34375 73.4375 
Q 25.25 74.21875 29.59375 74.21875 
Q 40.828125 74.21875 47.359375 69.109375 
Q 53.90625 64.015625 53.90625 55.328125 
Q 53.90625 49.265625 50.4375 45.09375 
Q 46.96875 40.921875 40.578125 39.3125 
z
" id="DejaVuSans-51"/>
      </defs>
      <g transform="translate(259.472071 322.182437)scale(0.1 -0.1)">
       <use xlink:href="#DejaVuSans-51"/>
       <use x="63.623047" xlink:href="#DejaVuSans-48"/>
       <use x="127.246094" xlink:href="#DejaVuSans-48"/>
      </g>
     </g>
    </g>
    <g id="xtick_5">
     <g id="line2d_9">
      <path clip-path="url(#p2fe87c5aae)" d="M 334.076852 307.584 
L 334.076852 41.472 
" style="fill:none;stroke:#b0b0b0;stroke-linecap:square;stroke-width:0.8;"/>
     </g>
     <g id="line2d_10">
      <g>
       <use style="stroke:#000000;stroke-width:0.8;" x="334.076852" xlink:href="#m2454bb7a76" y="307.584"/>
      </g>
     </g>
     <g id="text_5">
      <!-- 400 -->
      <defs>
       <path d="M 37.796875 64.3125 
L 12.890625 25.390625 
L 37.796875 25.390625 
z
M 35.203125 72.90625 
L 47.609375 72.90625 
L 47.609375 25.390625 
L 58.015625 25.390625 
L 58.015625 17.1875 
L 47.609375 17.1875 
L 47.609375 0 
L 37.796875 0 
L 37.796875 17.1875 
L 4.890625 17.1875 
L 4.890625 26.703125 
z
" id="DejaVuSans-52"/>
      </defs>
      <g transform="translate(324.533102 322.182437)scale(0.1 -0.1)">
       <use xlink:href="#DejaVuSans-52"/>
       <use x="63.623047" xlink:href="#DejaVuSans-48"/>
       <use x="127.246094" xlink:href="#DejaVuSans-48"/>
      </g>
     </g>
    </g>
    <g id="xtick_6">
     <g id="line2d_11">
      <path clip-path="url(#p2fe87c5aae)" d="M 399.137883 307.584 
L 399.137883 41.472 
" style="fill:none;stroke:#b0b0b0;stroke-linecap:square;stroke-width:0.8;"/>
     </g>
     <g id="line2d_12">
      <g>
       <use style="stroke:#000000;stroke-width:0.8;" x="399.137883" xlink:href="#m2454bb7a76" y="307.584"/>
      </g>
     </g>
     <g id="text_6">
      <!-- 500 -->
      <defs>
       <path d="M 10.796875 72.90625 
L 49.515625 72.90625 
L 49.515625 64.59375 
L 19.828125 64.59375 
L 19.828125 46.734375 
Q 21.96875 47.46875 24.109375 47.828125 
Q 26.265625 48.1875 28.421875 48.1875 
Q 40.625 48.1875 47.75 41.5 
Q 54.890625 34.8125 54.890625 23.390625 
Q 54.890625 11.625 47.5625 5.09375 
Q 40.234375 -1.421875 26.90625 -1.421875 
Q 22.3125 -1.421875 17.546875 -0.640625 
Q 12.796875 0.140625 7.71875 1.703125 
L 7.71875 11.625 
Q 12.109375 9.234375 16.796875 8.0625 
Q 21.484375 6.890625 26.703125 6.890625 
Q 35.15625 6.890625 40.078125 11.328125 
Q 45.015625 15.765625 45.015625 23.390625 
Q 45.015625 31 40.078125 35.4375 
Q 35.15625 39.890625 26.703125 39.890625 
Q 22.75 39.890625 18.8125 39.015625 
Q 14.890625 38.140625 10.796875 36.28125 
z
" id="DejaVuSans-53"/>
      </defs>
      <g transform="translate(389.594133 322.182437)scale(0.1 -0.1)">
       <use xlink:href="#DejaVuSans-53"/>
       <use x="63.623047" xlink:href="#DejaVuSans-48"/>
       <use x="127.246094" xlink:href="#DejaVuSans-48"/>
      </g>
     </g>
    </g>
    <g id="text_7">
     <!-- Generations -->
     <defs>
      <path d="M 59.515625 10.40625 
L 59.515625 29.984375 
L 43.40625 29.984375 
L 43.40625 38.09375 
L 69.28125 38.09375 
L 69.28125 6.78125 
Q 63.578125 2.734375 56.6875 0.65625 
Q 49.8125 -1.421875 42 -1.421875 
Q 24.90625 -1.421875 15.25 8.5625 
Q 5.609375 18.5625 5.609375 36.375 
Q 5.609375 54.25 15.25 64.234375 
Q 24.90625 74.21875 42 74.21875 
Q 49.125 74.21875 55.546875 72.453125 
Q 61.96875 70.703125 67.390625 67.28125 
L 67.390625 56.78125 
Q 61.921875 61.421875 55.765625 63.765625 
Q 49.609375 66.109375 42.828125 66.109375 
Q 29.4375 66.109375 22.71875 58.640625 
Q 16.015625 51.171875 16.015625 36.375 
Q 16.015625 21.625 22.71875 14.15625 
Q 29.4375 6.6875 42.828125 6.6875 
Q 48.046875 6.6875 52.140625 7.59375 
Q 56.25 8.5 59.515625 10.40625 
z
" id="DejaVuSans-71"/>
      <path d="M 56.203125 29.59375 
L 56.203125 25.203125 
L 14.890625 25.203125 
Q 15.484375 15.921875 20.484375 11.0625 
Q 25.484375 6.203125 34.421875 6.203125 
Q 39.59375 6.203125 44.453125 7.46875 
Q 49.3125 8.734375 54.109375 11.28125 
L 54.109375 2.78125 
Q 49.265625 0.734375 44.1875 -0.34375 
Q 39.109375 -1.421875 33.890625 -1.421875 
Q 20.796875 -1.421875 13.15625 6.1875 
Q 5.515625 13.8125 5.515625 26.8125 
Q 5.515625 40.234375 12.765625 48.109375 
Q 20.015625 56 32.328125 56 
Q 43.359375 56 49.78125 48.890625 
Q 56.203125 41.796875 56.203125 29.59375 
z
M 47.21875 32.234375 
Q 47.125 39.59375 43.09375 43.984375 
Q 39.0625 48.390625 32.421875 48.390625 
Q 24.90625 48.390625 20.390625 44.140625 
Q 15.875 39.890625 15.1875 32.171875 
z
" id="DejaVuSans-101"/>
      <path d="M 54.890625 33.015625 
L 54.890625 0 
L 45.90625 0 
L 45.90625 32.71875 
Q 45.90625 40.484375 42.875 44.328125 
Q 39.84375 48.1875 33.796875 48.1875 
Q 26.515625 48.1875 22.3125 43.546875 
Q 18.109375 38.921875 18.109375 30.90625 
L 18.109375 0 
L 9.078125 0 
L 9.078125 54.6875 
L 18.109375 54.6875 
L 18.109375 46.1875 
Q 21.34375 51.125 25.703125 53.5625 
Q 30.078125 56 35.796875 56 
Q 45.21875 56 50.046875 50.171875 
Q 54.890625 44.34375 54.890625 33.015625 
z
" id="DejaVuSans-110"/>
      <path d="M 41.109375 46.296875 
Q 39.59375 47.171875 37.8125 47.578125 
Q 36.03125 48 33.890625 48 
Q 26.265625 48 22.1875 43.046875 
Q 18.109375 38.09375 18.109375 28.8125 
L 18.109375 0 
L 9.078125 0 
L 9.078125 54.6875 
L 18.109375 54.6875 
L 18.109375 46.1875 
Q 20.953125 51.171875 25.484375 53.578125 
Q 30.03125 56 36.53125 56 
Q 37.453125 56 38.578125 55.875 
Q 39.703125 55.765625 41.0625 55.515625 
z
" id="DejaVuSans-114"/>
      <path d="M 34.28125 27.484375 
Q 23.390625 27.484375 19.1875 25 
Q 14.984375 22.515625 14.984375 16.5 
Q 14.984375 11.71875 18.140625 8.90625 
Q 21.296875 6.109375 26.703125 6.109375 
Q 34.1875 6.109375 38.703125 11.40625 
Q 43.21875 16.703125 43.21875 25.484375 
L 43.21875 27.484375 
z
M 52.203125 31.203125 
L 52.203125 0 
L 43.21875 0 
L 43.21875 8.296875 
Q 40.140625 3.328125 35.546875 0.953125 
Q 30.953125 -1.421875 24.3125 -1.421875 
Q 15.921875 -1.421875 10.953125 3.296875 
Q 6 8.015625 6 15.921875 
Q 6 25.140625 12.171875 29.828125 
Q 18.359375 34.515625 30.609375 34.515625 
L 43.21875 34.515625 
L 43.21875 35.40625 
Q 43.21875 41.609375 39.140625 45 
Q 35.0625 48.390625 27.6875 48.390625 
Q 23 48.390625 18.546875 47.265625 
Q 14.109375 46.140625 10.015625 43.890625 
L 10.015625 52.203125 
Q 14.9375 54.109375 19.578125 55.046875 
Q 24.21875 56 28.609375 56 
Q 40.484375 56 46.34375 49.84375 
Q 52.203125 43.703125 52.203125 31.203125 
z
" id="DejaVuSans-97"/>
      <path d="M 18.3125 70.21875 
L 18.3125 54.6875 
L 36.8125 54.6875 
L 36.8125 47.703125 
L 18.3125 47.703125 
L 18.3125 18.015625 
Q 18.3125 11.328125 20.140625 9.421875 
Q 21.96875 7.515625 27.59375 7.515625 
L 36.8125 7.515625 
L 36.8125 0 
L 27.59375 0 
Q 17.1875 0 13.234375 3.875 
Q 9.28125 7.765625 9.28125 18.015625 
L 9.28125 47.703125 
L 2.6875 47.703125 
L 2.6875 54.6875 
L 9.28125 54.6875 
L 9.28125 70.21875 
z
" id="DejaVuSans-116"/>
      <path d="M 9.421875 54.6875 
L 18.40625 54.6875 
L 18.40625 0 
L 9.421875 0 
z
M 9.421875 75.984375 
L 18.40625 75.984375 
L 18.40625 64.59375 
L 9.421875 64.59375 
z
" id="DejaVuSans-105"/>
      <path d="M 30.609375 48.390625 
Q 23.390625 48.390625 19.1875 42.75 
Q 14.984375 37.109375 14.984375 27.296875 
Q 14.984375 17.484375 19.15625 11.84375 
Q 23.34375 6.203125 30.609375 6.203125 
Q 37.796875 6.203125 41.984375 11.859375 
Q 46.1875 17.53125 46.1875 27.296875 
Q 46.1875 37.015625 41.984375 42.703125 
Q 37.796875 48.390625 30.609375 48.390625 
z
M 30.609375 56 
Q 42.328125 56 49.015625 48.375 
Q 55.71875 40.765625 55.71875 27.296875 
Q 55.71875 13.875 49.015625 6.21875 
Q 42.328125 -1.421875 30.609375 -1.421875 
Q 18.84375 -1.421875 12.171875 6.21875 
Q 5.515625 13.875 5.515625 27.296875 
Q 5.515625 40.765625 12.171875 48.375 
Q 18.84375 56 30.609375 56 
z
" id="DejaVuSans-111"/>
      <path d="M 44.28125 53.078125 
L 44.28125 44.578125 
Q 40.484375 46.53125 36.375 47.5 
Q 32.28125 48.484375 27.875 48.484375 
Q 21.1875 48.484375 17.84375 46.4375 
Q 14.5 44.390625 14.5 40.28125 
Q 14.5 37.15625 16.890625 35.375 
Q 19.28125 33.59375 26.515625 31.984375 
L 29.59375 31.296875 
Q 39.15625 29.25 43.1875 25.515625 
Q 47.21875 21.78125 47.21875 15.09375 
Q 47.21875 7.46875 41.1875 3.015625 
Q 35.15625 -1.421875 24.609375 -1.421875 
Q 20.21875 -1.421875 15.453125 -0.5625 
Q 10.6875 0.296875 5.421875 2 
L 5.421875 11.28125 
Q 10.40625 8.6875 15.234375 7.390625 
Q 20.0625 6.109375 24.8125 6.109375 
Q 31.15625 6.109375 34.5625 8.28125 
Q 37.984375 10.453125 37.984375 14.40625 
Q 37.984375 18.0625 35.515625 20.015625 
Q 33.0625 21.96875 24.703125 23.78125 
L 21.578125 24.515625 
Q 13.234375 26.265625 9.515625 29.90625 
Q 5.8125 33.546875 5.8125 39.890625 
Q 5.8125 47.609375 11.28125 51.796875 
Q 16.75 56 26.8125 56 
Q 31.78125 56 36.171875 55.265625 
Q 40.578125 54.546875 44.28125 53.078125 
z
" id="DejaVuSans-115"/>
     </defs>
     <g transform="translate(205.662344 335.860562)scale(0.1 -0.1)">
      <use xlink:href="#DejaVuSans-71"/>
      <use x="77.490234" xlink:href="#DejaVuSans-101"/>
      <use x="139.013672" xlink:href="#DejaVuSans-110"/>
      <use x="202.392578" xlink:href="#DejaVuSans-101"/>
      <use x="263.916016" xlink:href="#DejaVuSans-114"/>
      <use x="305.029297" xlink:href="#DejaVuSans-97"/>
      <use x="366.308594" xlink:href="#DejaVuSans-116"/>
      <use x="405.517578" xlink:href="#DejaVuSans-105"/>
      <use x="433.300781" xlink:href="#DejaVuSans-111"/>
      <use x="494.482422" xlink:href="#DejaVuSans-110"/>
      <use x="557.861328" xlink:href="#DejaVuSans-115"/>
     </g>
    </g>
   </g>
   <g id="matplotlib.axis_2">
    <g id="ytick_1">
     <g id="line2d_13">
      <path clip-path="url(#p2fe87c5aae)" d="M 57.6 302.990902 
L 414.72 302.990902 
" style="fill:none;stroke:#b0b0b0;stroke-linecap:square;stroke-width:0.8;"/>
     </g>
     <g id="line2d_14">
      <defs>
       <path d="M 0 0 
L -3.5 0 
" id="m67079aeaae" style="stroke:#000000;stroke-width:0.8;"/>
      </defs>
      <g>
       <use style="stroke:#000000;stroke-width:0.8;" x="57.6" xlink:href="#m67079aeaae" y="302.990902"/>
      </g>
     </g>
     <g id="text_8">
      <!-- 22 -->
      <g transform="translate(37.875 306.790121)scale(0.1 -0.1)">
       <use xlink:href="#DejaVuSans-50"/>
       <use x="63.623047" xlink:href="#DejaVuSans-50"/>
      </g>
     </g>
    </g>
    <g id="ytick_2">
     <g id="line2d_15">
      <path clip-path="url(#p2fe87c5aae)" d="M 57.6 271.813039 
L 414.72 271.813039 
" style="fill:none;stroke:#b0b0b0;stroke-linecap:square;stroke-width:0.8;"/>
     </g>
     <g id="line2d_16">
      <g>
       <use style="stroke:#000000;stroke-width:0.8;" x="57.6" xlink:href="#m67079aeaae" y="271.813039"/>
      </g>
     </g>
     <g id="text_9">
      <!-- 24 -->
      <g transform="translate(37.875 275.612258)scale(0.1 -0.1)">
       <use xlink:href="#DejaVuSans-50"/>
       <use x="63.623047" xlink:href="#DejaVuSans-52"/>
      </g>
     </g>
    </g>
    <g id="ytick_3">
     <g id="line2d_17">
      <path clip-path="url(#p2fe87c5aae)" d="M 57.6 240.635177 
L 414.72 240.635177 
" style="fill:none;stroke:#b0b0b0;stroke-linecap:square;stroke-width:0.8;"/>
     </g>
     <g id="line2d_18">
      <g>
       <use style="stroke:#000000;stroke-width:0.8;" x="57.6" xlink:href="#m67079aeaae" y="240.635177"/>
      </g>
     </g>
     <g id="text_10">
      <!-- 26 -->
      <defs>
       <path d="M 33.015625 40.375 
Q 26.375 40.375 22.484375 35.828125 
Q 18.609375 31.296875 18.609375 23.390625 
Q 18.609375 15.53125 22.484375 10.953125 
Q 26.375 6.390625 33.015625 6.390625 
Q 39.65625 6.390625 43.53125 10.953125 
Q 47.40625 15.53125 47.40625 23.390625 
Q 47.40625 31.296875 43.53125 35.828125 
Q 39.65625 40.375 33.015625 40.375 
z
M 52.59375 71.296875 
L 52.59375 62.3125 
Q 48.875 64.0625 45.09375 64.984375 
Q 41.3125 65.921875 37.59375 65.921875 
Q 27.828125 65.921875 22.671875 59.328125 
Q 17.53125 52.734375 16.796875 39.40625 
Q 19.671875 43.65625 24.015625 45.921875 
Q 28.375 48.1875 33.59375 48.1875 
Q 44.578125 48.1875 50.953125 41.515625 
Q 57.328125 34.859375 57.328125 23.390625 
Q 57.328125 12.15625 50.6875 5.359375 
Q 44.046875 -1.421875 33.015625 -1.421875 
Q 20.359375 -1.421875 13.671875 8.265625 
Q 6.984375 17.96875 6.984375 36.375 
Q 6.984375 53.65625 15.1875 63.9375 
Q 23.390625 74.21875 37.203125 74.21875 
Q 40.921875 74.21875 44.703125 73.484375 
Q 48.484375 72.75 52.59375 71.296875 
z
" id="DejaVuSans-54"/>
      </defs>
      <g transform="translate(37.875 244.434395)scale(0.1 -0.1)">
       <use xlink:href="#DejaVuSans-50"/>
       <use x="63.623047" xlink:href="#DejaVuSans-54"/>
      </g>
     </g>
    </g>
    <g id="ytick_4">
     <g id="line2d_19">
      <path clip-path="url(#p2fe87c5aae)" d="M 57.6 209.457314 
L 414.72 209.457314 
" style="fill:none;stroke:#b0b0b0;stroke-linecap:square;stroke-width:0.8;"/>
     </g>
     <g id="line2d_20">
      <g>
       <use style="stroke:#000000;stroke-width:0.8;" x="57.6" xlink:href="#m67079aeaae" y="209.457314"/>
      </g>
     </g>
     <g id="text_11">
      <!-- 28 -->
      <defs>
       <path d="M 31.78125 34.625 
Q 24.75 34.625 20.71875 30.859375 
Q 16.703125 27.09375 16.703125 20.515625 
Q 16.703125 13.921875 20.71875 10.15625 
Q 24.75 6.390625 31.78125 6.390625 
Q 38.8125 6.390625 42.859375 10.171875 
Q 46.921875 13.96875 46.921875 20.515625 
Q 46.921875 27.09375 42.890625 30.859375 
Q 38.875 34.625 31.78125 34.625 
z
M 21.921875 38.8125 
Q 15.578125 40.375 12.03125 44.71875 
Q 8.5 49.078125 8.5 55.328125 
Q 8.5 64.0625 14.71875 69.140625 
Q 20.953125 74.21875 31.78125 74.21875 
Q 42.671875 74.21875 48.875 69.140625 
Q 55.078125 64.0625 55.078125 55.328125 
Q 55.078125 49.078125 51.53125 44.71875 
Q 48 40.375 41.703125 38.8125 
Q 48.828125 37.15625 52.796875 32.3125 
Q 56.78125 27.484375 56.78125 20.515625 
Q 56.78125 9.90625 50.3125 4.234375 
Q 43.84375 -1.421875 31.78125 -1.421875 
Q 19.734375 -1.421875 13.25 4.234375 
Q 6.78125 9.90625 6.78125 20.515625 
Q 6.78125 27.484375 10.78125 32.3125 
Q 14.796875 37.15625 21.921875 38.8125 
z
M 18.3125 54.390625 
Q 18.3125 48.734375 21.84375 45.5625 
Q 25.390625 42.390625 31.78125 42.390625 
Q 38.140625 42.390625 41.71875 45.5625 
Q 45.3125 48.734375 45.3125 54.390625 
Q 45.3125 60.0625 41.71875 63.234375 
Q 38.140625 66.40625 31.78125 66.40625 
Q 25.390625 66.40625 21.84375 63.234375 
Q 18.3125 60.0625 18.3125 54.390625 
z
" id="DejaVuSans-56"/>
      </defs>
      <g transform="translate(37.875 213.256533)scale(0.1 -0.1)">
       <use xlink:href="#DejaVuSans-50"/>
       <use x="63.623047" xlink:href="#DejaVuSans-56"/>
      </g>
     </g>
    </g>
    <g id="ytick_5">
     <g id="line2d_21">
      <path clip-path="url(#p2fe87c5aae)" d="M 57.6 178.279451 
L 414.72 178.279451 
" style="fill:none;stroke:#b0b0b0;stroke-linecap:square;stroke-width:0.8;"/>
     </g>
     <g id="line2d_22">
      <g>
       <use style="stroke:#000000;stroke-width:0.8;" x="57.6" xlink:href="#m67079aeaae" y="178.279451"/>
      </g>
     </g>
     <g id="text_12">
      <!-- 30 -->
      <g transform="translate(37.875 182.07867)scale(0.1 -0.1)">
       <use xlink:href="#DejaVuSans-51"/>
       <use x="63.623047" xlink:href="#DejaVuSans-48"/>
      </g>
     </g>
    </g>
    <g id="ytick_6">
     <g id="line2d_23">
      <path clip-path="url(#p2fe87c5aae)" d="M 57.6 147.101588 
L 414.72 147.101588 
" style="fill:none;stroke:#b0b0b0;stroke-linecap:square;stroke-width:0.8;"/>
     </g>
     <g id="line2d_24">
      <g>
       <use style="stroke:#000000;stroke-width:0.8;" x="57.6" xlink:href="#m67079aeaae" y="147.101588"/>
      </g>
     </g>
     <g id="text_13">
      <!-- 32 -->
      <g transform="translate(37.875 150.900807)scale(0.1 -0.1)">
       <use xlink:href="#DejaVuSans-51"/>
       <use x="63.623047" xlink:href="#DejaVuSans-50"/>
      </g>
     </g>
    </g>
    <g id="ytick_7">
     <g id="line2d_25">
      <path clip-path="url(#p2fe87c5aae)" d="M 57.6 115.923726 
L 414.72 115.923726 
" style="fill:none;stroke:#b0b0b0;stroke-linecap:square;stroke-width:0.8;"/>
     </g>
     <g id="line2d_26">
      <g>
       <use style="stroke:#000000;stroke-width:0.8;" x="57.6" xlink:href="#m67079aeaae" y="115.923726"/>
      </g>
     </g>
     <g id="text_14">
      <!-- 34 -->
      <g transform="translate(37.875 119.722944)scale(0.1 -0.1)">
       <use xlink:href="#DejaVuSans-51"/>
       <use x="63.623047" xlink:href="#DejaVuSans-52"/>
      </g>
     </g>
    </g>
    <g id="ytick_8">
     <g id="line2d_27">
      <path clip-path="url(#p2fe87c5aae)" d="M 57.6 84.745863 
L 414.72 84.745863 
" style="fill:none;stroke:#b0b0b0;stroke-linecap:square;stroke-width:0.8;"/>
     </g>
     <g id="line2d_28">
      <g>
       <use style="stroke:#000000;stroke-width:0.8;" x="57.6" xlink:href="#m67079aeaae" y="84.745863"/>
      </g>
     </g>
     <g id="text_15">
      <!-- 36 -->
      <g transform="translate(37.875 88.545082)scale(0.1 -0.1)">
       <use xlink:href="#DejaVuSans-51"/>
       <use x="63.623047" xlink:href="#DejaVuSans-54"/>
      </g>
     </g>
    </g>
    <g id="ytick_9">
     <g id="line2d_29">
      <path clip-path="url(#p2fe87c5aae)" d="M 57.6 53.568 
L 414.72 53.568 
" style="fill:none;stroke:#b0b0b0;stroke-linecap:square;stroke-width:0.8;"/>
     </g>
     <g id="line2d_30">
      <g>
       <use style="stroke:#000000;stroke-width:0.8;" x="57.6" xlink:href="#m67079aeaae" y="53.568"/>
      </g>
     </g>
     <g id="text_16">
      <!-- 38 -->
      <g transform="translate(37.875 57.367219)scale(0.1 -0.1)">
       <use xlink:href="#DejaVuSans-51"/>
       <use x="63.623047" xlink:href="#DejaVuSans-56"/>
      </g>
     </g>
    </g>
    <g id="text_17">
     <!-- Fitness -->
     <defs>
      <path d="M 9.8125 72.90625 
L 51.703125 72.90625 
L 51.703125 64.59375 
L 19.671875 64.59375 
L 19.671875 43.109375 
L 48.578125 43.109375 
L 48.578125 34.8125 
L 19.671875 34.8125 
L 19.671875 0 
L 9.8125 0 
z
" id="DejaVuSans-70"/>
     </defs>
     <g transform="translate(31.795312 192.202219)rotate(-90)scale(0.1 -0.1)">
      <use xlink:href="#DejaVuSans-70"/>
      <use x="57.410156" xlink:href="#DejaVuSans-105"/>
      <use x="85.193359" xlink:href="#DejaVuSans-116"/>
      <use x="124.402344" xlink:href="#DejaVuSans-110"/>
      <use x="187.78125" xlink:href="#DejaVuSans-101"/>
      <use x="249.304688" xlink:href="#DejaVuSans-115"/>
      <use x="301.404297" xlink:href="#DejaVuSans-115"/>
     </g>
    </g>
   </g>
   <g id="line2d_31">
    <path clip-path="url(#p2fe87c5aae)" d="M 73.832727 281.283315 
L 74.483338 287.713749 
L 75.133948 289.081981 
L 75.784558 280.28782 
L 76.435169 286.362709 
L 77.085779 286.935469 
L 77.736389 283.20042 
L 78.386999 282.90892 
L 79.03761 283.903208 
L 79.68822 289.311615 
L 80.33883 286.16414 
L 80.989441 287.677533 
L 81.640051 285.909831 
L 82.290661 285.253121 
L 82.941272 282.871198 
L 83.591882 287.711428 
L 84.242492 286.012858 
L 84.893103 286.670638 
L 85.543713 285.214051 
L 86.194323 289.160121 
L 86.844934 287.947583 
L 87.495544 290.652929 
L 88.146154 294.155865 
L 88.796764 283.226364 
L 89.447375 284.921913 
L 90.097985 288.641091 
L 90.748595 284.816872 
L 91.399206 285.254516 
L 92.049816 295.488 
L 92.700426 281.701541 
L 93.351037 288.801476 
L 94.001647 286.852235 
L 94.652257 279.35355 
L 95.953478 292.285721 
L 96.604088 282.780127 
L 97.254698 289.047034 
L 97.905309 289.272643 
L 98.555919 284.058709 
L 99.206529 290.332221 
L 99.85714 289.23367 
L 100.50775 290.091061 
L 101.15836 282.725291 
L 103.110191 288.144301 
L 103.760802 290.753591 
L 104.411412 289.74031 
L 105.062022 283.18241 
L 105.712633 290.753591 
L 107.013853 284.588931 
L 108.315074 287.440943 
L 108.965684 284.362129 
L 109.616294 285.687188 
L 110.266905 286.505607 
L 110.917515 287.752722 
L 112.218736 282.881181 
L 112.869346 284.673908 
L 113.519956 285.765133 
L 114.170567 286.076912 
L 114.821177 287.791694 
L 115.471787 288.142445 
L 116.122398 287.129164 
L 116.773008 288.454224 
L 117.423618 283.192959 
L 118.074228 283.777544 
L 118.724839 282.140706 
L 119.375449 282.647347 
L 120.026059 284.790825 
L 120.67667 284.323157 
L 121.32728 288.259362 
L 121.97789 290.246951 
L 122.628501 289.116753 
L 123.279111 287.674777 
L 123.929721 285.921022 
L 124.580332 288.804975 
L 125.230942 285.297465 
L 125.881552 295.040547 
L 126.532163 285.609244 
L 127.182773 286.466635 
L 127.833383 284.245212 
L 128.483993 288.415251 
L 129.134604 286.349718 
L 129.785214 286.271773 
L 130.435824 286.817386 
L 131.086435 285.959995 
L 131.737045 286.271773 
L 132.387655 288.103473 
L 133.038266 281.205371 
L 133.688876 285.843078 
L 134.339486 288.22039 
L 134.990097 292.07865 
L 135.640707 289.662366 
L 136.291317 287.869639 
L 136.941927 284.167267 
L 137.592538 287.285054 
L 138.243148 287.830666 
L 138.893758 288.22039 
L 139.544369 285.843078 
L 140.194979 286.622524 
L 140.845589 285.063631 
L 141.4962 286.778413 
L 142.14681 284.362129 
L 142.79742 286.622524 
L 143.448031 290.753591 
L 144.098641 288.493196 
L 144.749251 282.491457 
L 145.399862 285.141576 
L 146.050472 287.012247 
L 147.351692 287.986556 
L 148.002303 288.72703 
L 148.652913 288.298334 
L 149.303523 285.804105 
L 149.954134 288.22039 
L 150.604744 291.922761 
L 151.255354 285.102603 
L 151.905965 285.570271 
L 152.556575 284.556991 
L 153.207185 286.739441 
L 153.857796 284.518018 
L 154.508406 281.750983 
L 155.159016 281.634066 
L 155.809627 290.052089 
L 156.460237 285.531299 
L 157.110847 284.829797 
L 157.761457 283.660627 
L 158.412068 284.089323 
L 159.062678 280.542841 
L 159.713288 286.54458 
L 160.363899 284.868769 
L 161.014509 285.959995 
L 161.665119 284.868769 
L 162.31573 283.504738 
L 162.96634 283.855489 
L 163.61695 284.595963 
L 164.267561 288.493196 
L 164.918171 282.686319 
L 165.568781 286.700469 
L 166.219392 282.920153 
L 166.870002 289.506476 
L 167.520612 291.299204 
L 168.171222 288.999836 
L 168.821833 288.454224 
L 169.472443 289.194698 
L 170.123053 287.518888 
L 170.773664 290.441812 
L 171.424274 284.128295 
L 172.074884 283.348849 
L 172.725495 290.987425 
L 173.376105 288.454224 
L 174.026715 284.128295 
L 174.677326 288.688058 
L 175.327936 284.401101 
L 175.978546 287.674777 
L 176.629156 287.285054 
L 177.279767 288.376279 
L 177.930377 285.609244 
L 178.580987 291.766872 
L 179.882208 289.23367 
L 180.532818 287.129164 
L 181.834039 283.660627 
L 182.484649 285.88205 
L 183.13526 288.688058 
L 183.78587 283.54371 
L 185.087091 287.362998 
L 185.737701 283.348849 
L 186.388311 286.076912 
L 187.038921 281.750983 
L 187.689532 282.881181 
L 188.340142 280.893592 
L 188.990752 285.453354 
L 189.641363 279.802367 
L 190.291973 294.339045 
L 190.942583 287.168137 
L 191.593194 286.817386 
L 192.243804 289.974144 
L 192.894414 284.284184 
L 193.545025 285.804105 
L 194.195635 286.700469 
L 194.846245 288.337307 
L 195.496856 287.05122 
L 196.147466 284.518018 
L 196.798076 284.440074 
L 197.448686 288.259362 
L 198.099297 285.648216 
L 198.749907 281.439204 
L 199.400517 284.089323 
L 200.051128 285.297465 
L 200.701738 287.285054 
L 201.352348 285.21952 
L 202.002959 289.467504 
L 202.653569 284.673908 
L 203.304179 284.401101 
L 203.95479 281.673038 
L 204.6054 283.387821 
L 205.25601 287.947583 
L 205.906621 287.869639 
L 206.557231 291.182287 
L 207.207841 288.025528 
L 207.858451 293.520626 
L 208.509062 288.103473 
L 209.159672 286.973275 
L 209.810282 285.570271 
L 210.460893 286.739441 
L 211.111503 288.337307 
L 211.762113 292.000706 
L 212.412724 283.387821 
L 213.063334 286.778413 
L 213.713944 286.232801 
L 214.364555 280.620786 
L 215.015165 282.803236 
L 215.665775 286.349718 
L 216.316385 283.6996 
L 216.966996 283.309876 
L 218.268216 284.362129 
L 218.918827 287.908611 
L 219.569437 295.118492 
L 220.220047 284.518018 
L 220.870658 293.75446 
L 221.521268 286.661497 
L 222.171878 286.856358 
L 222.822489 286.466635 
L 223.473099 291.260231 
L 224.123709 286.466635 
L 224.77432 286.310746 
L 225.42493 289.077781 
L 226.72615 284.401101 
L 227.376761 290.40284 
L 228.027371 285.570271 
L 228.677981 285.726161 
L 229.328592 289.662366 
L 229.979202 290.675646 
L 230.629812 288.610113 
L 231.280423 291.416121 
L 231.931033 287.518888 
L 232.581643 290.519757 
L 233.232254 285.765133 
L 233.882864 285.998967 
L 234.533474 287.635805 
L 235.184085 285.609244 
L 235.834695 291.844816 
L 236.485305 289.155726 
L 237.135915 289.155726 
L 237.786526 291.727899 
L 238.437136 289.23367 
L 239.087746 294.962602 
L 239.738357 287.518888 
L 240.388967 287.168137 
L 241.039577 292.039678 
L 241.690188 285.998967 
L 242.340798 287.129164 
L 242.991408 292.156595 
L 243.642019 283.855489 
L 244.292629 284.985686 
L 244.943239 291.06537 
L 245.59385 289.311615 
L 246.24446 290.831536 
L 246.89507 290.207978 
L 247.54568 288.142445 
L 248.196291 287.830666 
L 248.846901 292.195567 
L 249.497511 287.401971 
L 250.148122 287.752722 
L 250.798732 283.153987 
L 251.449342 290.091061 
L 252.099953 285.453354 
L 252.750563 287.168137 
L 253.401173 282.452485 
L 254.051784 284.245212 
L 255.353004 285.297465 
L 256.003615 285.765133 
L 256.654225 288.0645 
L 257.304835 280.659758 
L 257.955445 289.935172 
L 258.606056 285.336437 
L 259.256666 289.857227 
L 259.907276 283.972406 
L 260.557887 289.506476 
L 261.208497 284.167267 
L 261.859107 283.348849 
L 262.509718 283.660627 
L 263.160328 286.154856 
L 263.810938 287.324026 
L 264.461549 289.935172 
L 265.112159 284.440074 
L 266.413379 289.584421 
L 267.06399 281.712011 
L 267.7146 289.974144 
L 268.36521 287.324026 
L 269.015821 287.129164 
L 269.666431 291.455093 
L 270.317041 291.182287 
L 270.967652 287.635805 
L 271.618262 287.440943 
L 272.268872 286.115884 
L 272.919483 286.232801 
L 273.570093 283.777544 
L 274.220703 286.973275 
L 274.871314 288.493196 
L 275.521924 285.37541 
L 276.172534 285.063631 
L 276.823144 289.077781 
L 277.473755 286.856358 
L 278.124365 282.647347 
L 278.774975 283.6996 
L 279.425586 286.89533 
L 280.076196 288.142445 
L 280.726806 290.285923 
L 281.377417 282.803236 
L 282.028027 287.518888 
L 282.678637 281.244343 
L 283.329248 291.06537 
L 283.979858 285.687188 
L 284.630468 286.54458 
L 285.281079 288.610113 
L 285.931689 281.478177 
L 287.232909 285.609244 
L 287.88352 290.597702 
L 288.53413 290.519757 
L 289.18474 288.999836 
L 289.835351 286.700469 
L 290.485961 288.843947 
L 291.136571 288.843947 
L 291.787182 288.181417 
L 292.437792 286.661497 
L 293.088402 280.659758 
L 293.739013 287.986556 
L 294.389623 284.245212 
L 295.040233 289.23367 
L 295.690844 287.090192 
L 296.341454 288.921892 
L 296.992064 287.986556 
L 297.642674 286.739441 
L 298.293285 282.140706 
L 298.943895 285.141576 
L 299.594505 290.169006 
L 300.245116 285.921022 
L 300.895726 285.570271 
L 301.546336 284.440074 
L 302.196947 290.052089 
L 302.847557 284.284184 
L 303.498167 282.101734 
L 304.148778 285.959995 
L 304.799388 286.661497 
L 305.449998 291.182287 
L 306.100608 287.440943 
L 306.751219 286.661497 
L 307.401829 286.193829 
L 308.052439 282.023789 
L 308.70305 286.583552 
L 309.35366 292.039678 
L 310.00427 286.232801 
L 310.654881 284.634935 
L 311.305491 292.819124 
L 311.956101 289.974144 
L 312.606712 284.673908 
L 313.257322 288.337307 
L 313.907932 285.687188 
L 314.558543 288.0645 
L 315.209153 290.870508 
L 315.859763 288.415251 
L 316.510373 285.024659 
L 317.160984 283.855489 
L 318.462204 291.727899 
L 319.112815 287.869639 
L 319.763425 288.882919 
L 320.414035 283.933434 
L 321.064646 286.739441 
L 321.715256 290.40284 
L 322.365866 284.556991 
L 323.016477 286.427663 
L 323.667087 288.72703 
L 324.317697 289.23367 
L 324.968308 288.0645 
L 325.618918 291.026397 
L 326.269528 281.049481 
L 326.920138 291.260231 
L 327.570749 282.608374 
L 328.221359 288.376279 
L 328.871969 291.766872 
L 329.52258 285.453354 
L 330.17319 292.234539 
L 330.8238 284.518018 
L 331.474411 285.024659 
L 332.125021 286.154856 
L 332.775631 286.154856 
L 333.426242 287.129164 
L 334.076852 286.38869 
L 334.727462 287.947583 
L 335.378073 290.207978 
L 336.028683 286.310746 
L 336.679293 286.700469 
L 337.329903 287.440943 
L 337.980514 288.804975 
L 338.631124 281.673038 
L 339.281734 288.999836 
L 339.932345 284.829797 
L 340.582955 285.921022 
L 341.233565 287.596832 
L 341.884176 286.700469 
L 342.534786 283.621655 
L 343.185396 288.103473 
L 343.836007 287.986556 
L 344.486617 283.6996 
L 345.137227 291.143314 
L 345.787837 288.843947 
L 346.438448 288.259362 
L 347.089058 289.662366 
L 347.739668 289.38956 
L 348.390279 289.311615 
L 349.040889 284.673908 
L 350.34211 290.636674 
L 350.99272 290.792563 
L 351.64333 289.506476 
L 352.293941 289.272643 
L 352.944551 285.141576 
L 353.595161 284.634935 
L 354.245772 285.492327 
L 354.896382 287.713749 
L 355.546992 282.686319 
L 356.197602 286.349718 
L 356.848213 293.637543 
L 357.498823 287.752722 
L 358.149433 288.142445 
L 358.800044 289.935172 
L 359.450654 289.779283 
L 360.101264 283.270904 
L 360.751875 289.974144 
L 362.053095 284.556991 
L 362.703706 283.660627 
L 363.354316 287.362998 
L 364.004926 284.20624 
L 364.655537 285.921022 
L 365.306147 286.739441 
L 365.956757 283.153987 
L 366.607367 287.947583 
L 367.257978 285.765133 
L 367.908588 286.310746 
L 368.559198 294.884658 
L 369.209809 291.961733 
L 369.860419 286.037939 
L 370.511029 287.986556 
L 371.16164 280.85462 
L 371.81225 284.401101 
L 372.46286 286.193829 
L 373.113471 285.921022 
L 373.764081 288.298334 
L 374.414691 289.584421 
L 375.065302 284.868769 
L 375.715912 284.829797 
L 376.366522 287.986556 
L 377.017132 281.517149 
L 377.667743 285.687188 
L 378.318353 286.38869 
L 378.968963 285.258493 
L 379.619574 288.298334 
L 380.270184 290.052089 
L 380.920794 284.128295 
L 381.571405 280.971537 
L 382.222015 290.792563 
L 382.872625 282.881181 
L 383.523236 283.348849 
L 384.173846 288.0645 
L 384.824456 288.142445 
L 385.475066 290.714619 
L 386.125677 286.349718 
L 386.776287 286.349718 
L 387.426897 285.102603 
L 388.077508 287.869639 
L 388.728118 282.998098 
L 389.378728 283.777544 
L 390.029339 292.74118 
L 390.679949 290.40284 
L 391.330559 288.960864 
L 391.98117 288.376279 
L 392.63178 284.985686 
L 393.28239 291.727899 
L 393.933001 285.414382 
L 394.583611 282.53043 
L 395.234221 284.323157 
L 395.884831 286.583552 
L 396.535442 288.142445 
L 397.186052 289.038809 
L 397.836662 287.246081 
L 398.487273 283.192959 
L 398.487273 283.192959 
" style="fill:none;stroke:#0000ff;stroke-linecap:square;stroke-width:1.5;"/>
   </g>
   <g id="line2d_32">
    <path clip-path="url(#p2fe87c5aae)" d="M 73.832727 231.378172 
L 74.483338 231.800531 
L 75.133948 236.034095 
L 75.784558 227.802925 
L 76.435169 228.3375 
L 77.085779 228.629678 
L 77.736389 228.120436 
L 78.386999 227.869172 
L 79.03761 223.263122 
L 79.68822 234.533668 
L 80.33883 229.976446 
L 80.989441 231.335203 
L 81.640051 229.826543 
L 82.290661 231.76473 
L 82.941272 227.937097 
L 83.591882 230.616772 
L 84.242492 230.436883 
L 84.893103 231.231914 
L 85.543713 232.802751 
L 86.194323 236.784949 
L 86.844934 234.730673 
L 87.495544 236.709599 
L 88.146154 239.124136 
L 88.796764 226.915677 
L 89.447375 229.1813 
L 90.097985 237.31017 
L 90.748595 228.98592 
L 91.399206 228.223556 
L 92.049816 242.654267 
L 92.700426 223.211407 
L 93.351037 237.677784 
L 94.652257 224.692507 
L 95.953478 238.977425 
L 96.604088 224.456842 
L 97.254698 231.873312 
L 97.905309 235.045116 
L 98.555919 229.434695 
L 99.206529 234.933739 
L 99.85714 233.572903 
L 100.50775 232.691304 
L 101.15836 227.061672 
L 101.808971 231.952282 
L 102.459581 231.534619 
L 103.110191 238.563835 
L 103.760802 235.762489 
L 104.411412 234.740979 
L 105.062022 228.537399 
L 105.712633 239.716146 
L 106.363243 232.5775 
L 107.013853 231.262541 
L 107.664463 232.795287 
L 108.315074 235.908987 
L 108.965684 227.806365 
L 109.616294 233.451705 
L 110.266905 229.848486 
L 110.917515 234.391662 
L 111.568125 229.151823 
L 112.218736 227.631888 
L 112.869346 226.859408 
L 113.519956 230.674249 
L 114.170567 232.464188 
L 114.821177 231.69455 
L 115.471787 229.45008 
L 116.122398 230.390607 
L 116.773008 234.536025 
L 117.423618 227.644935 
L 118.074228 228.588668 
L 118.724839 228.730485 
L 119.375449 226.016436 
L 120.026059 231.299107 
L 120.67667 228.119722 
L 121.32728 234.932512 
L 121.97789 235.232833 
L 122.628501 232.323172 
L 123.279111 232.986296 
L 123.929721 228.271529 
L 124.580332 232.496986 
L 125.230942 228.892724 
L 125.881552 243.045209 
L 126.532163 229.821829 
L 127.182773 230.224501 
L 127.833383 229.159801 
L 128.483993 233.166233 
L 129.134604 231.062954 
L 129.785214 233.482478 
L 130.435824 232.667232 
L 131.086435 231.624252 
L 131.737045 234.988587 
L 132.387655 234.603734 
L 133.038266 223.212254 
L 133.688876 233.139577 
L 134.339486 233.370953 
L 134.990097 236.273324 
L 135.640707 235.528188 
L 136.291317 232.514443 
L 136.941927 227.616942 
L 137.592538 236.765265 
L 138.243148 234.129697 
L 138.893758 233.337733 
L 139.544369 232.134741 
L 140.194979 229.76565 
L 140.845589 233.708807 
L 141.4962 227.44128 
L 142.14681 229.552069 
L 142.79742 234.005551 
L 143.448031 234.527933 
L 144.098641 233.026166 
L 144.749251 225.159413 
L 145.399862 233.949141 
L 146.050472 233.702717 
L 146.701082 228.677241 
L 147.351692 229.396031 
L 148.002303 233.771293 
L 148.652913 233.605409 
L 149.303523 228.04718 
L 149.954134 232.448291 
L 150.604744 239.217186 
L 151.255354 229.415537 
L 151.905965 234.867422 
L 152.556575 230.918394 
L 153.207185 234.311722 
L 153.857796 228.482857 
L 154.508406 225.791076 
L 155.159016 225.756716 
L 155.809627 234.55002 
L 156.460237 232.527557 
L 157.110847 231.466959 
L 157.761457 231.252133 
L 158.412068 227.823551 
L 159.062678 226.179251 
L 159.713288 230.637066 
L 160.363899 229.355769 
L 161.014509 230.75901 
L 161.665119 231.692245 
L 162.31573 230.980217 
L 162.96634 228.727632 
L 163.61695 228.26489 
L 164.267561 232.644122 
L 164.918171 228.05608 
L 165.568781 230.725622 
L 166.219392 224.581623 
L 166.870002 233.849898 
L 167.520612 238.371395 
L 168.171222 235.253067 
L 168.821833 233.520228 
L 169.472443 233.844606 
L 170.123053 232.2662 
L 170.773664 233.843095 
L 171.424274 226.573884 
L 172.074884 228.250411 
L 172.725495 233.462156 
L 173.376105 235.628803 
L 174.026715 232.200771 
L 174.677326 237.992398 
L 175.327936 228.053112 
L 175.978546 234.828084 
L 176.629156 234.876458 
L 177.279767 233.851568 
L 177.930377 231.998786 
L 178.580987 238.190819 
L 179.231598 231.461475 
L 179.882208 229.579383 
L 180.532818 233.404555 
L 181.183429 229.616295 
L 181.834039 229.777468 
L 182.484649 230.419634 
L 183.13526 234.449118 
L 183.78587 236.192748 
L 184.43648 230.309621 
L 185.087091 231.989381 
L 185.737701 228.593296 
L 186.388311 234.344261 
L 187.038921 227.656956 
L 187.689532 226.059793 
L 188.340142 228.738903 
L 188.990752 229.998867 
L 189.641363 219.952555 
L 190.291973 242.292146 
L 190.942583 231.276274 
L 192.243804 235.484697 
L 192.894414 229.13593 
L 193.545025 230.9054 
L 194.195635 228.292974 
L 194.846245 234.51281 
L 195.496856 232.363183 
L 196.147466 227.600751 
L 196.798076 230.216356 
L 197.448686 234.557869 
L 198.749907 226.024569 
L 199.400517 230.773027 
L 200.051128 231.834532 
L 201.352348 232.966594 
L 202.002959 236.407985 
L 202.653569 227.599734 
L 203.304179 228.616586 
L 203.95479 225.202269 
L 205.25601 232.308473 
L 205.906621 233.791323 
L 206.557231 235.565196 
L 207.207841 233.301051 
L 207.858451 237.675156 
L 209.159672 228.797639 
L 209.810282 230.248903 
L 210.460893 228.378317 
L 211.762113 238.854165 
L 212.412724 231.133049 
L 213.063334 232.042836 
L 213.713944 233.19749 
L 214.364555 221.176499 
L 215.015165 231.648792 
L 215.665775 230.909324 
L 216.316385 228.26326 
L 216.966996 229.131681 
L 217.617606 230.289444 
L 218.268216 230.00843 
L 218.918827 231.991386 
L 219.569437 236.790104 
L 220.220047 228.940089 
L 220.870658 241.278672 
L 221.521268 232.918684 
L 222.171878 229.911345 
L 222.822489 231.502884 
L 223.473099 238.117649 
L 224.123709 233.346565 
L 224.77432 232.579564 
L 225.42493 234.203538 
L 226.07554 233.894472 
L 226.72615 229.494761 
L 227.376761 239.552224 
L 228.027371 230.922909 
L 228.677981 230.542788 
L 229.328592 232.855789 
L 229.979202 234.175931 
L 230.629812 234.470282 
L 231.280423 236.188178 
L 231.931033 233.30964 
L 232.581643 234.388779 
L 233.232254 234.265063 
L 233.882864 233.072536 
L 234.533474 229.715477 
L 235.834695 235.156433 
L 236.485305 234.963515 
L 237.135915 234.151216 
L 237.786526 236.633665 
L 238.437136 234.519644 
L 239.087746 239.847903 
L 239.738357 227.582652 
L 241.039577 234.732608 
L 241.690188 227.875244 
L 242.340798 231.668501 
L 242.991408 241.842791 
L 243.642019 229.549273 
L 244.292629 226.105785 
L 244.943239 234.17159 
L 245.59385 235.15832 
L 246.24446 239.078162 
L 246.89507 234.680739 
L 247.54568 232.238694 
L 248.846901 235.071239 
L 249.497511 233.98855 
L 250.148122 233.398981 
L 250.798732 226.434599 
L 251.449342 233.705779 
L 252.099953 230.837839 
L 252.750563 226.58197 
L 253.401173 228.289767 
L 254.051784 229.49167 
L 254.702394 229.378816 
L 255.353004 232.635999 
L 256.003615 232.742195 
L 256.654225 230.299792 
L 257.304835 222.372071 
L 257.955445 236.156536 
L 258.606056 232.552436 
L 259.256666 234.725073 
L 259.907276 230.498508 
L 260.557887 236.396987 
L 261.208497 228.265256 
L 261.859107 228.726603 
L 262.509718 226.996631 
L 263.160328 232.010299 
L 264.461549 237.913682 
L 265.112159 228.582733 
L 265.762769 229.919819 
L 266.413379 234.446303 
L 267.06399 226.033605 
L 267.7146 233.427404 
L 268.36521 233.717649 
L 269.015821 232.407366 
L 269.666431 235.961125 
L 270.317041 236.791226 
L 270.967652 230.571425 
L 271.618262 233.343771 
L 272.268872 228.635848 
L 272.919483 232.639118 
L 273.570093 229.566055 
L 274.220703 234.093139 
L 274.871314 237.274363 
L 275.521924 233.023285 
L 276.172534 227.674975 
L 276.823144 236.441312 
L 277.473755 235.086141 
L 278.124365 227.527797 
L 278.774975 229.493378 
L 279.425586 232.364269 
L 280.076196 230.896366 
L 280.726806 234.522472 
L 281.377417 232.571608 
L 282.028027 231.188152 
L 282.678637 227.459197 
L 283.329248 234.945704 
L 283.979858 234.735225 
L 284.630468 229.967335 
L 285.281079 236.868729 
L 286.582299 226.482876 
L 287.232909 231.896891 
L 287.88352 235.266931 
L 288.53413 235.38252 
L 289.18474 233.506757 
L 289.835351 229.874644 
L 290.485961 236.119831 
L 291.136571 232.133772 
L 291.787182 231.936907 
L 292.437792 229.798759 
L 293.088402 222.507729 
L 293.739013 229.003317 
L 294.389623 227.615334 
L 295.040233 234.608547 
L 295.690844 234.491465 
L 296.341454 230.785431 
L 296.992064 232.990331 
L 297.642674 234.358095 
L 298.293285 224.422504 
L 298.943895 230.616015 
L 299.594505 235.1951 
L 300.245116 228.800882 
L 300.895726 228.369951 
L 302.196947 236.2057 
L 302.847557 227.28324 
L 303.498167 224.984945 
L 304.148778 228.15691 
L 305.449998 237.138598 
L 306.100608 227.241637 
L 306.751219 232.166544 
L 307.401829 229.714345 
L 308.052439 230.236677 
L 308.70305 233.938312 
L 309.35366 233.640466 
L 310.00427 230.059898 
L 310.654881 229.694194 
L 311.305491 237.545988 
L 311.956101 237.797139 
L 312.606712 230.25899 
L 313.257322 230.487036 
L 313.907932 228.765384 
L 314.558543 236.430783 
L 315.209153 238.194695 
L 315.859763 233.243261 
L 316.510373 231.284107 
L 317.160984 230.828498 
L 317.811594 237.268418 
L 318.462204 236.788263 
L 319.112815 234.949636 
L 319.763425 232.652507 
L 320.414035 227.193163 
L 321.715256 238.852142 
L 322.365866 230.918394 
L 323.016477 230.299729 
L 324.317697 234.453061 
L 324.968308 231.867119 
L 325.618918 234.435262 
L 326.269528 226.797662 
L 326.920138 237.935048 
L 327.570749 228.152009 
L 328.221359 235.274068 
L 328.871969 233.331039 
L 329.52258 227.126216 
L 330.17319 237.753733 
L 330.8238 230.402249 
L 331.474411 232.219253 
L 332.125021 230.778812 
L 332.775631 233.74358 
L 333.426242 233.325455 
L 334.076852 228.058636 
L 334.727462 234.083878 
L 335.378073 234.451446 
L 336.028683 230.865626 
L 336.679293 231.976936 
L 337.329903 230.552035 
L 337.980514 233.773839 
L 338.631124 229.601705 
L 339.281734 232.508522 
L 339.932345 228.175719 
L 340.582955 232.176556 
L 341.233565 231.493259 
L 341.884176 232.883705 
L 342.534786 226.901303 
L 343.185396 234.524302 
L 343.836007 236.199164 
L 344.486617 229.57189 
L 345.137227 235.267487 
L 345.787837 233.489094 
L 346.438448 232.493296 
L 347.089058 232.482695 
L 347.739668 234.725412 
L 348.390279 234.878572 
L 349.040889 230.662422 
L 349.691499 235.414771 
L 350.99272 237.572413 
L 351.64333 232.82238 
L 352.293941 234.944378 
L 352.944551 227.665173 
L 353.595161 226.544474 
L 354.245772 232.438418 
L 354.896382 235.427814 
L 355.546992 228.111713 
L 356.197602 228.202912 
L 356.848213 239.714711 
L 357.498823 233.870479 
L 358.149433 237.113408 
L 358.800044 234.269166 
L 359.450654 237.273865 
L 360.101264 229.30353 
L 360.751875 232.74392 
L 361.402485 232.307813 
L 362.053095 228.699011 
L 362.703706 229.529985 
L 363.354316 232.762794 
L 364.004926 225.601446 
L 364.655537 233.585437 
L 365.306147 234.976457 
L 365.956757 226.60624 
L 366.607367 233.847534 
L 367.257978 227.511787 
L 367.908588 230.136274 
L 368.559198 241.929079 
L 369.209809 238.566642 
L 369.860419 230.189423 
L 370.511029 232.13532 
L 371.16164 223.326182 
L 371.81225 227.260823 
L 372.46286 233.440798 
L 373.113471 228.155722 
L 373.764081 233.085795 
L 374.414691 233.865385 
L 375.065302 227.292842 
L 375.715912 232.606237 
L 376.366522 234.298372 
L 377.017132 225.429496 
L 377.667743 233.300724 
L 378.318353 231.926008 
L 378.968963 232.247888 
L 379.619574 235.862504 
L 380.270184 238.795313 
L 380.920794 232.224176 
L 381.571405 228.158998 
L 382.222015 236.375818 
L 382.872625 231.388366 
L 383.523236 230.905589 
L 384.173846 237.308956 
L 384.824456 233.126008 
L 385.475066 236.048026 
L 386.125677 230.407509 
L 386.776287 229.598848 
L 387.426897 230.885959 
L 388.077508 232.712351 
L 388.728118 225.842404 
L 389.378728 223.869697 
L 390.029339 240.640103 
L 390.679949 235.696032 
L 391.330559 234.121937 
L 391.98117 234.625893 
L 392.63178 233.186843 
L 393.28239 237.043195 
L 393.933001 229.172586 
L 394.583611 229.51696 
L 395.234221 227.474845 
L 395.884831 231.248897 
L 396.535442 234.264149 
L 397.186052 233.958953 
L 397.836662 232.796508 
L 398.487273 228.526909 
L 398.487273 228.526909 
" style="fill:none;stroke:#008000;stroke-dasharray:9.6,2.4,1.5,2.4;stroke-dashoffset:0;stroke-width:1.5;"/>
   </g>
   <g id="line2d_33">
    <path clip-path="url(#p2fe87c5aae)" d="M 73.832727 147.101588 
L 75.133948 147.101588 
L 76.435169 115.923726 
L 77.085779 131.512657 
L 77.736389 115.923726 
L 79.03761 115.923726 
L 79.68822 131.512657 
L 80.33883 115.923726 
L 82.290661 115.923726 
L 82.941272 100.334794 
L 83.591882 100.334794 
L 84.242492 115.923726 
L 84.893103 84.745863 
L 86.194323 147.101588 
L 86.844934 147.101588 
L 87.495544 69.156931 
L 88.146154 131.512657 
L 88.796764 100.334794 
L 89.447375 115.923726 
L 90.097985 147.101588 
L 90.748595 100.334794 
L 91.399206 115.923726 
L 92.049816 178.279451 
L 92.700426 100.334794 
L 93.351037 162.69052 
L 94.001647 100.334794 
L 94.652257 100.334794 
L 95.302868 131.512657 
L 95.953478 131.512657 
L 96.604088 115.923726 
L 97.254698 84.745863 
L 97.905309 69.156931 
L 98.555919 131.512657 
L 99.206529 100.334794 
L 99.85714 147.101588 
L 100.50775 115.923726 
L 101.15836 115.923726 
L 101.808971 147.101588 
L 102.459581 100.334794 
L 103.110191 131.512657 
L 103.760802 115.923726 
L 104.411412 131.512657 
L 105.062022 100.334794 
L 105.712633 115.923726 
L 106.363243 162.69052 
L 107.013853 115.923726 
L 107.664463 147.101588 
L 108.315074 162.69052 
L 108.965684 131.512657 
L 109.616294 147.101588 
L 110.266905 100.334794 
L 110.917515 131.512657 
L 111.568125 115.923726 
L 112.218736 131.512657 
L 112.869346 115.923726 
L 114.170567 115.923726 
L 115.471787 147.101588 
L 116.122398 115.923726 
L 118.074228 162.69052 
L 118.724839 147.101588 
L 119.375449 115.923726 
L 120.026059 131.512657 
L 121.97789 131.512657 
L 122.628501 69.156931 
L 123.279111 84.745863 
L 123.929721 131.512657 
L 124.580332 147.101588 
L 125.230942 131.512657 
L 125.881552 131.512657 
L 126.532163 115.923726 
L 127.182773 131.512657 
L 127.833383 100.334794 
L 128.483993 147.101588 
L 129.785214 115.923726 
L 130.435824 131.512657 
L 131.086435 84.745863 
L 131.737045 131.512657 
L 132.387655 147.101588 
L 133.038266 84.745863 
L 133.688876 131.512657 
L 134.990097 131.512657 
L 135.640707 147.101588 
L 136.291317 131.512657 
L 137.592538 131.512657 
L 138.243148 115.923726 
L 138.893758 147.101588 
L 139.544369 115.923726 
L 140.194979 147.101588 
L 140.845589 147.101588 
L 141.4962 115.923726 
L 142.79742 115.923726 
L 143.448031 131.512657 
L 144.098641 131.512657 
L 144.749251 100.334794 
L 145.399862 147.101588 
L 146.050472 147.101588 
L 146.701082 100.334794 
L 147.351692 131.512657 
L 148.002303 147.101588 
L 148.652913 147.101588 
L 149.303523 115.923726 
L 149.954134 131.512657 
L 150.604744 115.923726 
L 151.255354 115.923726 
L 151.905965 84.745863 
L 152.556575 147.101588 
L 153.207185 147.101588 
L 153.857796 84.745863 
L 154.508406 115.923726 
L 155.159016 84.745863 
L 155.809627 100.334794 
L 156.460237 147.101588 
L 157.110847 147.101588 
L 157.761457 131.512657 
L 158.412068 131.512657 
L 159.062678 100.334794 
L 159.713288 131.512657 
L 161.014509 100.334794 
L 161.665119 147.101588 
L 162.96634 147.101588 
L 163.61695 131.512657 
L 164.267561 131.512657 
L 164.918171 100.334794 
L 165.568781 147.101588 
L 166.219392 115.923726 
L 166.870002 131.512657 
L 167.520612 131.512657 
L 168.821833 100.334794 
L 169.472443 69.156931 
L 170.123053 69.156931 
L 170.773664 147.101588 
L 171.424274 115.923726 
L 172.074884 131.512657 
L 172.725495 115.923726 
L 173.376105 131.512657 
L 174.026715 162.69052 
L 174.677326 162.69052 
L 175.327936 115.923726 
L 175.978546 100.334794 
L 176.629156 147.101588 
L 177.930377 147.101588 
L 178.580987 131.512657 
L 179.231598 131.512657 
L 179.882208 84.745863 
L 180.532818 115.923726 
L 181.183429 100.334794 
L 181.834039 147.101588 
L 182.484649 69.156931 
L 183.13526 147.101588 
L 183.78587 147.101588 
L 184.43648 131.512657 
L 185.087091 100.334794 
L 185.737701 131.512657 
L 186.388311 147.101588 
L 187.038921 131.512657 
L 188.340142 131.512657 
L 189.641363 100.334794 
L 190.291973 131.512657 
L 190.942583 100.334794 
L 191.593194 100.334794 
L 192.894414 162.69052 
L 193.545025 131.512657 
L 194.195635 84.745863 
L 194.846245 147.101588 
L 195.496856 131.512657 
L 196.147466 100.334794 
L 196.798076 131.512657 
L 198.099297 131.512657 
L 198.749907 147.101588 
L 199.400517 147.101588 
L 200.051128 131.512657 
L 200.701738 131.512657 
L 201.352348 147.101588 
L 202.002959 131.512657 
L 202.653569 53.568 
L 203.304179 100.334794 
L 203.95479 131.512657 
L 205.25601 131.512657 
L 206.557231 162.69052 
L 207.858451 131.512657 
L 208.509062 147.101588 
L 209.159672 100.334794 
L 209.810282 100.334794 
L 210.460893 115.923726 
L 211.111503 147.101588 
L 211.762113 131.512657 
L 212.412724 131.512657 
L 213.063334 115.923726 
L 213.713944 84.745863 
L 214.364555 100.334794 
L 215.015165 147.101588 
L 215.665775 115.923726 
L 216.316385 147.101588 
L 216.966996 131.512657 
L 217.617606 131.512657 
L 218.268216 100.334794 
L 219.569437 131.512657 
L 220.220047 131.512657 
L 220.870658 147.101588 
L 221.521268 147.101588 
L 222.171878 162.69052 
L 222.822489 115.923726 
L 223.473099 115.923726 
L 224.123709 131.512657 
L 224.77432 100.334794 
L 225.42493 147.101588 
L 226.07554 147.101588 
L 228.027371 100.334794 
L 228.677981 115.923726 
L 229.328592 115.923726 
L 229.979202 84.745863 
L 230.629812 115.923726 
L 233.232254 115.923726 
L 233.882864 147.101588 
L 234.533474 100.334794 
L 235.184085 69.156931 
L 235.834695 131.512657 
L 236.485305 131.512657 
L 237.135915 147.101588 
L 237.786526 131.512657 
L 238.437136 69.156931 
L 239.087746 131.512657 
L 239.738357 115.923726 
L 240.388967 131.512657 
L 241.039577 115.923726 
L 241.690188 115.923726 
L 242.340798 147.101588 
L 242.991408 147.101588 
L 243.642019 84.745863 
L 245.59385 131.512657 
L 246.24446 178.279451 
L 246.89507 115.923726 
L 247.54568 147.101588 
L 248.196291 131.512657 
L 248.846901 131.512657 
L 249.497511 100.334794 
L 250.148122 131.512657 
L 250.798732 100.334794 
L 251.449342 131.512657 
L 252.099953 115.923726 
L 252.750563 84.745863 
L 253.401173 131.512657 
L 254.702394 100.334794 
L 256.003615 100.334794 
L 256.654225 131.512657 
L 257.304835 115.923726 
L 257.955445 147.101588 
L 258.606056 131.512657 
L 259.256666 131.512657 
L 259.907276 115.923726 
L 260.557887 131.512657 
L 261.859107 131.512657 
L 262.509718 115.923726 
L 263.160328 147.101588 
L 263.810938 131.512657 
L 264.461549 131.512657 
L 265.112159 115.923726 
L 266.413379 147.101588 
L 267.7146 115.923726 
L 268.36521 147.101588 
L 269.015821 147.101588 
L 269.666431 53.568 
L 270.317041 84.745863 
L 270.967652 147.101588 
L 272.268872 115.923726 
L 272.919483 147.101588 
L 273.570093 131.512657 
L 274.220703 147.101588 
L 275.521924 115.923726 
L 276.172534 131.512657 
L 276.823144 131.512657 
L 277.473755 162.69052 
L 278.124365 100.334794 
L 278.774975 115.923726 
L 279.425586 115.923726 
L 280.726806 147.101588 
L 281.377417 84.745863 
L 282.678637 147.101588 
L 283.329248 115.923726 
L 283.979858 131.512657 
L 285.281079 100.334794 
L 285.931689 100.334794 
L 287.232909 131.512657 
L 287.88352 131.512657 
L 288.53413 115.923726 
L 289.18474 115.923726 
L 289.835351 100.334794 
L 290.485961 131.512657 
L 291.136571 100.334794 
L 291.787182 115.923726 
L 292.437792 100.334794 
L 293.088402 100.334794 
L 293.739013 115.923726 
L 294.389623 69.156931 
L 295.040233 115.923726 
L 295.690844 115.923726 
L 296.341454 131.512657 
L 296.992064 84.745863 
L 297.642674 131.512657 
L 298.293285 115.923726 
L 299.594505 147.101588 
L 300.895726 115.923726 
L 301.546336 131.512657 
L 302.196947 131.512657 
L 302.847557 147.101588 
L 303.498167 131.512657 
L 304.799388 131.512657 
L 305.449998 115.923726 
L 306.100608 115.923726 
L 306.751219 131.512657 
L 307.401829 115.923726 
L 308.052439 147.101588 
L 308.70305 147.101588 
L 309.35366 131.512657 
L 310.654881 131.512657 
L 311.956101 162.69052 
L 312.606712 115.923726 
L 313.257322 131.512657 
L 313.907932 100.334794 
L 314.558543 147.101588 
L 315.209153 147.101588 
L 315.859763 115.923726 
L 316.510373 147.101588 
L 317.160984 147.101588 
L 317.811594 115.923726 
L 318.462204 115.923726 
L 319.112815 131.512657 
L 321.064646 131.512657 
L 321.715256 147.101588 
L 322.365866 131.512657 
L 323.016477 100.334794 
L 323.667087 147.101588 
L 324.317697 84.745863 
L 324.968308 147.101588 
L 326.269528 115.923726 
L 326.920138 131.512657 
L 327.570749 100.334794 
L 328.221359 131.512657 
L 328.871969 147.101588 
L 329.52258 100.334794 
L 330.17319 162.69052 
L 330.8238 115.923726 
L 331.474411 147.101588 
L 332.125021 115.923726 
L 333.426242 84.745863 
L 334.076852 100.334794 
L 334.727462 147.101588 
L 335.378073 100.334794 
L 336.028683 100.334794 
L 336.679293 115.923726 
L 338.631124 115.923726 
L 339.281734 147.101588 
L 340.582955 115.923726 
L 341.233565 115.923726 
L 341.884176 147.101588 
L 342.534786 147.101588 
L 343.185396 100.334794 
L 343.836007 115.923726 
L 344.486617 147.101588 
L 345.137227 131.512657 
L 345.787837 131.512657 
L 346.438448 147.101588 
L 347.089058 115.923726 
L 348.390279 147.101588 
L 349.040889 115.923726 
L 350.34211 147.101588 
L 350.99272 115.923726 
L 351.64333 147.101588 
L 352.293941 131.512657 
L 352.944551 131.512657 
L 353.595161 100.334794 
L 354.245772 131.512657 
L 354.896382 115.923726 
L 356.197602 115.923726 
L 356.848213 131.512657 
L 357.498823 100.334794 
L 358.149433 131.512657 
L 358.800044 147.101588 
L 359.450654 147.101588 
L 360.101264 100.334794 
L 360.751875 100.334794 
L 361.402485 147.101588 
L 362.703706 147.101588 
L 363.354316 131.512657 
L 364.655537 131.512657 
L 365.306147 147.101588 
L 365.956757 131.512657 
L 366.607367 147.101588 
L 367.257978 100.334794 
L 367.908588 100.334794 
L 368.559198 147.101588 
L 369.209809 147.101588 
L 369.860419 115.923726 
L 370.511029 131.512657 
L 371.16164 115.923726 
L 371.81225 131.512657 
L 372.46286 100.334794 
L 373.113471 100.334794 
L 373.764081 131.512657 
L 375.065302 131.512657 
L 375.715912 115.923726 
L 376.366522 115.923726 
L 377.017132 69.156931 
L 377.667743 131.512657 
L 378.318353 131.512657 
L 378.968963 147.101588 
L 379.619574 115.923726 
L 380.270184 162.69052 
L 380.920794 147.101588 
L 381.571405 115.923726 
L 382.222015 69.156931 
L 382.872625 131.512657 
L 383.523236 131.512657 
L 384.173846 162.69052 
L 384.824456 131.512657 
L 386.125677 131.512657 
L 386.776287 115.923726 
L 387.426897 115.923726 
L 388.077508 131.512657 
L 388.728118 69.156931 
L 389.378728 100.334794 
L 390.029339 147.101588 
L 391.330559 115.923726 
L 391.98117 147.101588 
L 393.28239 115.923726 
L 394.583611 115.923726 
L 395.884831 147.101588 
L 396.535442 147.101588 
L 397.186052 162.69052 
L 397.836662 131.512657 
L 398.487273 115.923726 
L 398.487273 115.923726 
" style="fill:none;stroke:#ff0000;stroke-linecap:square;stroke-width:1.5;"/>
   </g>
   <g id="patch_3">
    <path d="M 57.6 307.584 
L 57.6 41.472 
" style="fill:none;stroke:#000000;stroke-linecap:square;stroke-linejoin:miter;stroke-width:0.8;"/>
   </g>
   <g id="patch_4">
    <path d="M 414.72 307.584 
L 414.72 41.472 
" style="fill:none;stroke:#000000;stroke-linecap:square;stroke-linejoin:miter;stroke-width:0.8;"/>
   </g>
   <g id="patch_5">
    <path d="M 57.6 307.584 
L 414.72 307.584 
" style="fill:none;stroke:#000000;stroke-linecap:square;stroke-linejoin:miter;stroke-width:0.8;"/>
   </g>
   <g id="patch_6">
    <path d="M 57.6 41.472 
L 414.72 41.472 
" style="fill:none;stroke:#000000;stroke-linecap:square;stroke-linejoin:miter;stroke-width:0.8;"/>
   </g>
   <g id="text_18">
    <!-- Population's average and best fitness -->
    <defs>
     <path d="M 19.671875 64.796875 
L 19.671875 37.40625 
L 32.078125 37.40625 
Q 38.96875 37.40625 42.71875 40.96875 
Q 46.484375 44.53125 46.484375 51.125 
Q 46.484375 57.671875 42.71875 61.234375 
Q 38.96875 64.796875 32.078125 64.796875 
z
M 9.8125 72.90625 
L 32.078125 72.90625 
Q 44.34375 72.90625 50.609375 67.359375 
Q 56.890625 61.8125 56.890625 51.125 
Q 56.890625 40.328125 50.609375 34.8125 
Q 44.34375 29.296875 32.078125 29.296875 
L 19.671875 29.296875 
L 19.671875 0 
L 9.8125 0 
z
" id="DejaVuSans-80"/>
     <path d="M 18.109375 8.203125 
L 18.109375 -20.796875 
L 9.078125 -20.796875 
L 9.078125 54.6875 
L 18.109375 54.6875 
L 18.109375 46.390625 
Q 20.953125 51.265625 25.265625 53.625 
Q 29.59375 56 35.59375 56 
Q 45.5625 56 51.78125 48.09375 
Q 58.015625 40.1875 58.015625 27.296875 
Q 58.015625 14.40625 51.78125 6.484375 
Q 45.5625 -1.421875 35.59375 -1.421875 
Q 29.59375 -1.421875 25.265625 0.953125 
Q 20.953125 3.328125 18.109375 8.203125 
z
M 48.6875 27.296875 
Q 48.6875 37.203125 44.609375 42.84375 
Q 40.53125 48.484375 33.40625 48.484375 
Q 26.265625 48.484375 22.1875 42.84375 
Q 18.109375 37.203125 18.109375 27.296875 
Q 18.109375 17.390625 22.1875 11.75 
Q 26.265625 6.109375 33.40625 6.109375 
Q 40.53125 6.109375 44.609375 11.75 
Q 48.6875 17.390625 48.6875 27.296875 
z
" id="DejaVuSans-112"/>
     <path d="M 8.5 21.578125 
L 8.5 54.6875 
L 17.484375 54.6875 
L 17.484375 21.921875 
Q 17.484375 14.15625 20.5 10.265625 
Q 23.53125 6.390625 29.59375 6.390625 
Q 36.859375 6.390625 41.078125 11.03125 
Q 45.3125 15.671875 45.3125 23.6875 
L 45.3125 54.6875 
L 54.296875 54.6875 
L 54.296875 0 
L 45.3125 0 
L 45.3125 8.40625 
Q 42.046875 3.421875 37.71875 1 
Q 33.40625 -1.421875 27.6875 -1.421875 
Q 18.265625 -1.421875 13.375 4.4375 
Q 8.5 10.296875 8.5 21.578125 
z
M 31.109375 56 
z
" id="DejaVuSans-117"/>
     <path d="M 9.421875 75.984375 
L 18.40625 75.984375 
L 18.40625 0 
L 9.421875 0 
z
" id="DejaVuSans-108"/>
     <path d="M 17.921875 72.90625 
L 17.921875 45.796875 
L 9.625 45.796875 
L 9.625 72.90625 
z
" id="DejaVuSans-39"/>
     <path id="DejaVuSans-32"/>
     <path d="M 2.984375 54.6875 
L 12.5 54.6875 
L 29.59375 8.796875 
L 46.6875 54.6875 
L 56.203125 54.6875 
L 35.6875 0 
L 23.484375 0 
z
" id="DejaVuSans-118"/>
     <path d="M 45.40625 27.984375 
Q 45.40625 37.75 41.375 43.109375 
Q 37.359375 48.484375 30.078125 48.484375 
Q 22.859375 48.484375 18.828125 43.109375 
Q 14.796875 37.75 14.796875 27.984375 
Q 14.796875 18.265625 18.828125 12.890625 
Q 22.859375 7.515625 30.078125 7.515625 
Q 37.359375 7.515625 41.375 12.890625 
Q 45.40625 18.265625 45.40625 27.984375 
z
M 54.390625 6.78125 
Q 54.390625 -7.171875 48.1875 -13.984375 
Q 42 -20.796875 29.203125 -20.796875 
Q 24.46875 -20.796875 20.265625 -20.09375 
Q 16.0625 -19.390625 12.109375 -17.921875 
L 12.109375 -9.1875 
Q 16.0625 -11.328125 19.921875 -12.34375 
Q 23.78125 -13.375 27.78125 -13.375 
Q 36.625 -13.375 41.015625 -8.765625 
Q 45.40625 -4.15625 45.40625 5.171875 
L 45.40625 9.625 
Q 42.625 4.78125 38.28125 2.390625 
Q 33.9375 0 27.875 0 
Q 17.828125 0 11.671875 7.65625 
Q 5.515625 15.328125 5.515625 27.984375 
Q 5.515625 40.671875 11.671875 48.328125 
Q 17.828125 56 27.875 56 
Q 33.9375 56 38.28125 53.609375 
Q 42.625 51.21875 45.40625 46.390625 
L 45.40625 54.6875 
L 54.390625 54.6875 
z
" id="DejaVuSans-103"/>
     <path d="M 45.40625 46.390625 
L 45.40625 75.984375 
L 54.390625 75.984375 
L 54.390625 0 
L 45.40625 0 
L 45.40625 8.203125 
Q 42.578125 3.328125 38.25 0.953125 
Q 33.9375 -1.421875 27.875 -1.421875 
Q 17.96875 -1.421875 11.734375 6.484375 
Q 5.515625 14.40625 5.515625 27.296875 
Q 5.515625 40.1875 11.734375 48.09375 
Q 17.96875 56 27.875 56 
Q 33.9375 56 38.25 53.625 
Q 42.578125 51.265625 45.40625 46.390625 
z
M 14.796875 27.296875 
Q 14.796875 17.390625 18.875 11.75 
Q 22.953125 6.109375 30.078125 6.109375 
Q 37.203125 6.109375 41.296875 11.75 
Q 45.40625 17.390625 45.40625 27.296875 
Q 45.40625 37.203125 41.296875 42.84375 
Q 37.203125 48.484375 30.078125 48.484375 
Q 22.953125 48.484375 18.875 42.84375 
Q 14.796875 37.203125 14.796875 27.296875 
z
" id="DejaVuSans-100"/>
     <path d="M 48.6875 27.296875 
Q 48.6875 37.203125 44.609375 42.84375 
Q 40.53125 48.484375 33.40625 48.484375 
Q 26.265625 48.484375 22.1875 42.84375 
Q 18.109375 37.203125 18.109375 27.296875 
Q 18.109375 17.390625 22.1875 11.75 
Q 26.265625 6.109375 33.40625 6.109375 
Q 40.53125 6.109375 44.609375 11.75 
Q 48.6875 17.390625 48.6875 27.296875 
z
M 18.109375 46.390625 
Q 20.953125 51.265625 25.265625 53.625 
Q 29.59375 56 35.59375 56 
Q 45.5625 56 51.78125 48.09375 
Q 58.015625 40.1875 58.015625 27.296875 
Q 58.015625 14.40625 51.78125 6.484375 
Q 45.5625 -1.421875 35.59375 -1.421875 
Q 29.59375 -1.421875 25.265625 0.953125 
Q 20.953125 3.328125 18.109375 8.203125 
L 18.109375 0 
L 9.078125 0 
L 9.078125 75.984375 
L 18.109375 75.984375 
z
" id="DejaVuSans-98"/>
     <path d="M 37.109375 75.984375 
L 37.109375 68.5 
L 28.515625 68.5 
Q 23.6875 68.5 21.796875 66.546875 
Q 19.921875 64.59375 19.921875 59.515625 
L 19.921875 54.6875 
L 34.71875 54.6875 
L 34.71875 47.703125 
L 19.921875 47.703125 
L 19.921875 0 
L 10.890625 0 
L 10.890625 47.703125 
L 2.296875 47.703125 
L 2.296875 54.6875 
L 10.890625 54.6875 
L 10.890625 58.5 
Q 10.890625 67.625 15.140625 71.796875 
Q 19.390625 75.984375 28.609375 75.984375 
z
" id="DejaVuSans-102"/>
    </defs>
    <g transform="translate(123.315 35.472)scale(0.12 -0.12)">
     <use xlink:href="#DejaVuSans-80"/>
     <use x="60.255859" xlink:href="#DejaVuSans-111"/>
     <use x="121.4375" xlink:href="#DejaVuSans-112"/>
     <use x="184.914062" xlink:href="#DejaVuSans-117"/>
     <use x="248.292969" xlink:href="#DejaVuSans-108"/>
     <use x="276.076172" xlink:href="#DejaVuSans-97"/>
     <use x="337.355469" xlink:href="#DejaVuSans-116"/>
     <use x="376.564453" xlink:href="#DejaVuSans-105"/>
     <use x="404.347656" xlink:href="#DejaVuSans-111"/>
     <use x="465.529297" xlink:href="#DejaVuSans-110"/>
     <use x="528.908203" xlink:href="#DejaVuSans-39"/>
     <use x="556.398438" xlink:href="#DejaVuSans-115"/>
     <use x="608.498047" xlink:href="#DejaVuSans-32"/>
     <use x="640.285156" xlink:href="#DejaVuSans-97"/>
     <use x="701.564453" xlink:href="#DejaVuSans-118"/>
     <use x="760.744141" xlink:href="#DejaVuSans-101"/>
     <use x="822.267578" xlink:href="#DejaVuSans-114"/>
     <use x="863.380859" xlink:href="#DejaVuSans-97"/>
     <use x="924.660156" xlink:href="#DejaVuSans-103"/>
     <use x="988.136719" xlink:href="#DejaVuSans-101"/>
     <use x="1049.660156" xlink:href="#DejaVuSans-32"/>
     <use x="1081.447266" xlink:href="#DejaVuSans-97"/>
     <use x="1142.726562" xlink:href="#DejaVuSans-110"/>
     <use x="1206.105469" xlink:href="#DejaVuSans-100"/>
     <use x="1269.582031" xlink:href="#DejaVuSans-32"/>
     <use x="1301.369141" xlink:href="#DejaVuSans-98"/>
     <use x="1364.845703" xlink:href="#DejaVuSans-101"/>
     <use x="1426.369141" xlink:href="#DejaVuSans-115"/>
     <use x="1478.46875" xlink:href="#DejaVuSans-116"/>
     <use x="1517.677734" xlink:href="#DejaVuSans-32"/>
     <use x="1549.464844" xlink:href="#DejaVuSans-102"/>
     <use x="1584.669922" xlink:href="#DejaVuSans-105"/>
     <use x="1612.453125" xlink:href="#DejaVuSans-116"/>
     <use x="1651.662109" xlink:href="#DejaVuSans-110"/>
     <use x="1715.041016" xlink:href="#DejaVuSans-101"/>
     <use x="1776.564453" xlink:href="#DejaVuSans-115"/>
     <use x="1828.664062" xlink:href="#DejaVuSans-115"/>
    </g>
   </g>
   <g id="legend_1">
    <g id="patch_7">
     <path d="M 334.779375 198.045187 
L 407.72 198.045187 
Q 409.72 198.045187 409.72 196.045187 
L 409.72 153.010812 
Q 409.72 151.010812 407.72 151.010812 
L 334.779375 151.010812 
Q 332.779375 151.010812 332.779375 153.010812 
L 332.779375 196.045187 
Q 332.779375 198.045187 334.779375 198.045187 
z
" style="fill:#ffffff;opacity:0.8;stroke:#cccccc;stroke-linejoin:miter;"/>
    </g>
    <g id="line2d_34">
     <path d="M 336.779375 159.10925 
L 356.779375 159.10925 
" style="fill:none;stroke:#0000ff;stroke-linecap:square;stroke-width:1.5;"/>
    </g>
    <g id="line2d_35"/>
    <g id="text_19">
     <!-- average -->
     <g transform="translate(364.779375 162.60925)scale(0.1 -0.1)">
      <use xlink:href="#DejaVuSans-97"/>
      <use x="61.279297" xlink:href="#DejaVuSans-118"/>
      <use x="120.458984" xlink:href="#DejaVuSans-101"/>
      <use x="181.982422" xlink:href="#DejaVuSans-114"/>
      <use x="223.095703" xlink:href="#DejaVuSans-97"/>
      <use x="284.375" xlink:href="#DejaVuSans-103"/>
      <use x="347.851562" xlink:href="#DejaVuSans-101"/>
     </g>
    </g>
    <g id="line2d_36">
     <path d="M 336.779375 173.787375 
L 356.779375 173.787375 
" style="fill:none;stroke:#008000;stroke-dasharray:9.6,2.4,1.5,2.4;stroke-dashoffset:0;stroke-width:1.5;"/>
    </g>
    <g id="line2d_37"/>
    <g id="text_20">
     <!-- +1 sd -->
     <defs>
      <path d="M 46 62.703125 
L 46 35.5 
L 73.1875 35.5 
L 73.1875 27.203125 
L 46 27.203125 
L 46 0 
L 37.796875 0 
L 37.796875 27.203125 
L 10.59375 27.203125 
L 10.59375 35.5 
L 37.796875 35.5 
L 37.796875 62.703125 
z
" id="DejaVuSans-43"/>
     </defs>
     <g transform="translate(364.779375 177.287375)scale(0.1 -0.1)">
      <use xlink:href="#DejaVuSans-43"/>
      <use x="83.789062" xlink:href="#DejaVuSans-49"/>
      <use x="147.412109" xlink:href="#DejaVuSans-32"/>
      <use x="179.199219" xlink:href="#DejaVuSans-115"/>
      <use x="231.298828" xlink:href="#DejaVuSans-100"/>
     </g>
    </g>
    <g id="line2d_38">
     <path d="M 336.779375 188.4655 
L 356.779375 188.4655 
" style="fill:none;stroke:#ff0000;stroke-linecap:square;stroke-width:1.5;"/>
    </g>
    <g id="line2d_39"/>
    <g id="text_21">
     <!-- best -->
     <g transform="translate(364.779375 191.9655)scale(0.1 -0.1)">
      <use xlink:href="#DejaVuSans-98"/>
      <use x="63.476562" xlink:href="#DejaVuSans-101"/>
      <use x="125" xlink:href="#DejaVuSans-115"/>
      <use x="177.099609" xlink:href="#DejaVuSans-116"/>
     </g>
    </g>
   </g>
  </g>
 </g>
 <defs>
  <clipPath id="p2fe87c5aae">
   <rect height="266.112" width="357.12" x="57.6" y="41.472"/>
  </clipPath>
 </defs>
</svg>
