<?xml version="1.0" encoding="UTF-8" standalone="no"?>
<!DOCTYPE svg PUBLIC "-//W3C//DTD SVG 1.1//EN"
 "http://www.w3.org/Graphics/SVG/1.1/DTD/svg11.dtd">
<!-- Generated by graphviz version 2.38.0 (20140413.2041)
 -->
<!-- Title: %3 Pages: 1 -->
<svg width="370pt" height="213pt"
 viewBox="0.00 0.00 369.66 212.94" xmlns="http://www.w3.org/2000/svg" xmlns:xlink="http://www.w3.org/1999/xlink">
<g id="graph0" class="graph" transform="scale(1 1) rotate(0) translate(4 208.936)">
<title>%3</title>
<polygon fill="white" stroke="none" points="-4,4 -4,-208.936 365.659,-208.936 365.659,4 -4,4"/>
<!-- IA -->
<g id="node1" class="node"><title>IA</title>
<polygon fill="lightgray" stroke="black" points="225.911,-193.43 199.911,-193.43 199.911,-175.43 225.911,-175.43 225.911,-193.43"/>
<text text-anchor="middle" x="212.911" y="-182.23" font-family="Times,serif" font-size="9.00">IA</text>
</g>
<!-- OA -->
<g id="node3" class="node"><title>OA</title>
<ellipse fill="lightblue" stroke="black" cx="205.911" cy="-21.2132" rx="21.4286" ry="21.4286"/>
<text text-anchor="middle" x="205.911" y="-19.0132" font-family="Times,serif" font-size="9.00">OA</text>
</g>
<!-- IA&#45;&gt;OA -->
<g id="edge10" class="edge"><title>IA&#45;&gt;OA</title>
<path fill="none" stroke="green" stroke-width="0.959355" d="M221.877,-175.409C235.536,-162.953 260.445,-139.222 264.911,-127.924 272.997,-107.465 273.574,-98.6474 264.911,-78.4264 258.12,-62.5771 244.423,-49.0782 231.934,-39.2839"/>
<polygon fill="green" stroke="green" stroke-width="0.959355" points="233.704,-36.2396 223.581,-33.1117 229.544,-41.8695 233.704,-36.2396"/>
</g>
<!-- 1322 -->
<g id="node5" class="node"><title>1322</title>
<ellipse fill="white" stroke="black" cx="336.911" cy="-103.175" rx="25" ry="25"/>
<text text-anchor="middle" x="336.911" y="-100.975" font-family="Times,serif" font-size="9.00">1322</text>
</g>
<!-- IA&#45;&gt;1322 -->
<g id="edge1" class="edge"><title>IA&#45;&gt;1322</title>
<path fill="none" stroke="red" stroke-width="0.150319" d="M221.136,-175.406C225.131,-171.704 230.099,-167.375 234.911,-163.924 261.115,-145.127 270.136,-144.312 297.911,-127.924 300.938,-126.138 304.087,-124.257 307.224,-122.37"/>
<polygon fill="red" stroke="red" stroke-width="0.150319" points="309.184,-125.275 315.925,-117.101 305.558,-119.287 309.184,-125.275"/>
</g>
<!-- 1324 -->
<g id="node6" class="node"><title>1324</title>
<ellipse fill="white" stroke="black" cx="127.911" cy="-103.175" rx="25" ry="25"/>
<text text-anchor="middle" x="127.911" y="-100.975" font-family="Times,serif" font-size="9.00">1324</text>
</g>
<!-- IA&#45;&gt;1324 -->
<g id="edge3" class="edge"><title>IA&#45;&gt;1324</title>
<path fill="none" stroke="red" stroke-width="0.1" d="M204.134,-175.247C192.216,-164.135 170.424,-143.816 153.184,-127.741"/>
<polygon fill="red" stroke="red" stroke-width="0.1" points="155.336,-124.962 145.636,-120.702 150.563,-130.082 155.336,-124.962"/>
</g>
<!-- 1323 -->
<g id="node7" class="node"><title>1323</title>
<ellipse fill="none" stroke="black" cx="42.9106" cy="-103.175" rx="25" ry="25"/>
<text text-anchor="middle" x="42.9106" y="-100.975" font-family="Times,serif" font-size="9.00">1323</text>
</g>
<!-- IA&#45;&gt;1323 -->
<g id="edge2" class="edge"><title>IA&#45;&gt;1323</title>
<path fill="none" stroke="red" stroke-width="0.11431" d="M199.853,-177.343C173.303,-164.965 112.355,-136.55 74.7033,-118.997"/>
<polygon fill="red" stroke="red" stroke-width="0.11431" points="75.7511,-115.624 65.2088,-114.571 72.7933,-121.968 75.7511,-115.624"/>
</g>
<!-- 1325 -->
<g id="node8" class="node"><title>1325</title>
<ellipse fill="none" stroke="black" cx="212.911" cy="-103.175" rx="25" ry="25"/>
<text text-anchor="middle" x="212.911" y="-100.975" font-family="Times,serif" font-size="9.00">1325</text>
</g>
<!-- IA&#45;&gt;1325 -->
<g id="edge4" class="edge"><title>IA&#45;&gt;1325</title>
<path fill="none" stroke="green" stroke-width="0.138978" d="M212.911,-175.247C212.911,-166.485 212.911,-152 212.911,-138.385"/>
<polygon fill="green" stroke="green" stroke-width="0.138978" points="216.411,-138.252 212.911,-128.252 209.411,-138.252 216.411,-138.252"/>
</g>
<!-- IB -->
<g id="node2" class="node"><title>IB</title>
<polygon fill="lightgray" stroke="black" points="97.9106,-193.43 71.9106,-193.43 71.9106,-175.43 97.9106,-175.43 97.9106,-193.43"/>
<text text-anchor="middle" x="84.9106" y="-182.23" font-family="Times,serif" font-size="9.00">IB</text>
</g>
<!-- IB&#45;&gt;OA -->
<g id="edge11" class="edge"><title>IB&#45;&gt;OA</title>
<path fill="none" stroke="green" stroke-width="1.27563" d="M71.7119,-178.333C53.6797,-170.56 22.0818,-153.853 8.91056,-127.924 -1.05238,-108.31 -4.34005,-95.9869 8.91056,-78.4264 28.9108,-51.9209 124.536,-34.1757 174.829,-26.5122"/>
<polygon fill="green" stroke="green" stroke-width="1.27563" points="175.451,-29.9584 184.83,-25.0304 174.425,-23.034 175.451,-29.9584"/>
</g>
<!-- IB&#45;&gt;1324 -->
<g id="edge6" class="edge"><title>IB&#45;&gt;1324</title>
<path fill="none" stroke="red" stroke-width="0.1" d="M89.3504,-175.247C94.6102,-165.552 103.672,-148.85 111.69,-134.072"/>
<polygon fill="red" stroke="red" stroke-width="0.1" points="114.811,-135.658 116.504,-125.199 108.658,-132.32 114.811,-135.658"/>
</g>
<!-- IB&#45;&gt;1323 -->
<g id="edge5" class="edge"><title>IB&#45;&gt;1323</title>
<path fill="none" stroke="red" stroke-width="0.141605" d="M80.574,-175.247C75.4712,-165.618 66.7048,-149.075 58.9129,-134.372"/>
<polygon fill="red" stroke="red" stroke-width="0.141605" points="62.004,-132.73 54.2288,-125.533 55.8188,-136.008 62.004,-132.73"/>
</g>
<!-- IB&#45;&gt;1325 -->
<g id="edge7" class="edge"><title>IB&#45;&gt;1325</title>
<path fill="none" stroke="red" stroke-width="0.147109" d="M98.054,-176.271C116.609,-166.049 151.401,-146.452 179.911,-127.924 181.553,-126.857 183.227,-125.742 184.907,-124.602"/>
<polygon fill="red" stroke="red" stroke-width="0.147109" points="187.026,-127.391 193.23,-118.802 183.024,-121.648 187.026,-127.391"/>
</g>
<!-- OA&#45;&gt;OA -->
<g id="edge12" class="edge"><title>OA&#45;&gt;OA</title>
<path fill="none" stroke="green" stroke-width="0.164902" d="M222.431,-34.7484C233.865,-38.8499 245.124,-34.3382 245.124,-21.2132 245.124,-12.1898 239.802,-7.23745 232.761,-6.35625"/>
<polygon fill="green" stroke="green" stroke-width="0.164902" points="231.906,-2.93705 222.431,-7.67805 232.794,-9.88044 231.906,-2.93705"/>
</g>
<!-- OB -->
<g id="node4" class="node"><title>OB</title>
<ellipse fill="lightblue" stroke="black" cx="264.911" cy="-184.43" rx="20.5122" ry="20.5122"/>
<text text-anchor="middle" x="264.911" y="-182.23" font-family="Times,serif" font-size="9.00">OB</text>
</g>
<!-- OB&#45;&gt;OB -->
<g id="edge13" class="edge"><title>OB&#45;&gt;OB</title>
<path fill="none" stroke="red" stroke-width="0.126919" d="M280.732,-197.815C292.096,-202.173 303.417,-197.711 303.417,-184.43 303.417,-175.299 298.066,-170.337 291.029,-169.543"/>
<polygon fill="red" stroke="red" stroke-width="0.126919" points="290.122,-166.138 280.732,-171.045 291.132,-173.065 290.122,-166.138"/>
</g>
<!-- 1322&#45;&gt;OA -->
<g id="edge8" class="edge"><title>1322&#45;&gt;OA</title>
<path fill="none" stroke="green" stroke-width="0.136364" d="M316.153,-89.5049C293.507,-75.6817 257.192,-53.5151 232.48,-38.4312"/>
<polygon fill="green" stroke="green" stroke-width="0.136364" points="233.989,-35.2517 223.63,-33.0291 230.342,-41.2266 233.989,-35.2517"/>
</g>
<!-- 1324&#45;&gt;OA -->
<g id="edge9" class="edge"><title>1324&#45;&gt;OA</title>
<path fill="none" stroke="red" stroke-width="0.1" d="M144.835,-84.8246C156.338,-73.0329 171.66,-57.3251 184.08,-44.5928"/>
<polygon fill="red" stroke="red" stroke-width="0.1" points="186.901,-46.7137 191.378,-37.1113 181.89,-41.8258 186.901,-46.7137"/>
</g>
<!-- 1324&#45;&gt;1324 -->
<g id="edge15" class="edge"><title>1324&#45;&gt;1324</title>
<path fill="none" stroke="red" stroke-width="0.354871" d="M148.584,-117.457C160.076,-120.123 170.659,-115.363 170.659,-103.175 170.659,-94.7962 165.657,-89.9276 158.797,-88.5693"/>
<polygon fill="red" stroke="red" stroke-width="0.354871" points="158.468,-85.0779 148.584,-88.8929 158.69,-92.0744 158.468,-85.0779"/>
</g>
<!-- 1323&#45;&gt;1323 -->
<g id="edge14" class="edge"><title>1323&#45;&gt;1323</title>
<path fill="none" stroke="red" stroke-width="0.1" d="M63.5842,-117.457C75.0765,-120.123 85.6593,-115.363 85.6593,-103.175 85.6593,-94.7962 80.6573,-89.9276 73.7966,-88.5693"/>
<polygon fill="red" stroke="red" stroke-width="0.1" points="73.4683,-85.0779 63.5842,-88.8929 73.6901,-92.0744 73.4683,-85.0779"/>
</g>
<!-- 1325&#45;&gt;1325 -->
<g id="edge16" class="edge"><title>1325&#45;&gt;1325</title>
<path fill="none" stroke="green" stroke-width="0.214117" d="M233.584,-117.457C245.076,-120.123 255.659,-115.363 255.659,-103.175 255.659,-94.7962 250.657,-89.9276 243.797,-88.5693"/>
<polygon fill="green" stroke="green" stroke-width="0.214117" points="243.468,-85.0779 233.584,-88.8929 243.69,-92.0744 243.468,-85.0779"/>
</g>
</g>
</svg>
