<?xml version="1.0" encoding="UTF-8" standalone="no"?>
<!DOCTYPE svg PUBLIC "-//W3C//DTD SVG 1.1//EN"
 "http://www.w3.org/Graphics/SVG/1.1/DTD/svg11.dtd">
<!-- Generated by graphviz version 2.38.0 (20140413.2041)
 -->
<!-- Title: %3 Pages: 1 -->
<svg width="292pt" height="129pt"
 viewBox="0.00 0.00 291.72 128.85" xmlns="http://www.w3.org/2000/svg" xmlns:xlink="http://www.w3.org/1999/xlink">
<g id="graph0" class="graph" transform="scale(1 1) rotate(0) translate(4 124.853)">
<title>%3</title>
<polygon fill="white" stroke="none" points="-4,4 -4,-124.853 287.719,-124.853 287.719,4 -4,4"/>
<!-- IA -->
<g id="node1" class="node"><title>IA</title>
<polygon fill="lightgray" stroke="black" points="33.5061,-108.64 7.5061,-108.64 7.5061,-90.6396 33.5061,-90.6396 33.5061,-108.64"/>
<text text-anchor="middle" x="20.5061" y="-97.4396" font-family="Times,serif" font-size="9.00">IA</text>
</g>
<!-- OB -->
<g id="node4" class="node"><title>OB</title>
<ellipse fill="lightblue" stroke="black" cx="20.5061" cy="-21.2132" rx="20.5122" ry="20.5122"/>
<text text-anchor="middle" x="20.5061" y="-19.0132" font-family="Times,serif" font-size="9.00">OB</text>
</g>
<!-- IA&#45;&gt;OB -->
<g id="edge4" class="edge"><title>IA&#45;&gt;OB</title>
<path fill="none" stroke="red" stroke-width="0.102803" d="M20.5061,-90.4606C20.5061,-81.3163 20.5061,-65.9732 20.5061,-52.1485"/>
<polygon fill="red" stroke="red" stroke-width="0.102803" points="24.0062,-52.0005 20.5061,-42.0005 17.0062,-52.0005 24.0062,-52.0005"/>
</g>
<!-- IB -->
<g id="node2" class="node"><title>IB</title>
<polygon fill="lightgray" stroke="black" points="85.5061,-108.64 59.5061,-108.64 59.5061,-90.6396 85.5061,-90.6396 85.5061,-108.64"/>
<text text-anchor="middle" x="72.5061" y="-97.4396" font-family="Times,serif" font-size="9.00">IB</text>
</g>
<!-- IB&#45;&gt;OB -->
<g id="edge1" class="edge"><title>IB&#45;&gt;OB</title>
<path fill="none" stroke="red" stroke-width="0.797653" d="M66.9412,-90.4606C59.9326,-80.1598 47.5723,-61.9934 37.3654,-46.992"/>
<polygon fill="red" stroke="red" stroke-width="0.797653" points="40.1805,-44.9075 31.6614,-38.6086 34.393,-48.8452 40.1805,-44.9075"/>
</g>
<!-- 272 -->
<g id="node7" class="node"><title>272</title>
<ellipse fill="white" stroke="black" cx="80.5061" cy="-21.2132" rx="21.4286" ry="21.4286"/>
<text text-anchor="middle" x="80.5061" y="-19.0132" font-family="Times,serif" font-size="9.00">272</text>
</g>
<!-- IB&#45;&gt;272 -->
<g id="edge3" class="edge"><title>IB&#45;&gt;272</title>
<path fill="none" stroke="green" stroke-width="0.216826" stroke-dasharray="1,5" d="M73.3622,-90.4606C74.3066,-81.439 75.8825,-66.384 77.3142,-52.706"/>
<polygon fill="green" stroke="green" stroke-width="0.216826" points="80.808,-52.9477 78.3682,-42.6376 73.846,-52.2188 80.808,-52.9477"/>
</g>
<!-- OA -->
<g id="node3" class="node"><title>OA</title>
<ellipse fill="lightblue" stroke="black" cx="124.506" cy="-99.6396" rx="21.4286" ry="21.4286"/>
<text text-anchor="middle" x="124.506" y="-97.4396" font-family="Times,serif" font-size="9.00">OA</text>
</g>
<!-- OA&#45;&gt;OA -->
<g id="edge2" class="edge"><title>OA&#45;&gt;OA</title>
<path fill="none" stroke="red" stroke-width="2.89773" d="M141.435,-112.976C152.727,-116.729 163.719,-112.284 163.719,-99.6396 163.719,-90.9465 158.524,-86.1288 151.607,-85.1865"/>
<polygon fill="red" stroke="red" stroke-width="2.89773" points="150.993,-81.7328 141.435,-86.3036 151.757,-88.691 150.993,-81.7328"/>
</g>
<!-- 359 -->
<g id="node5" class="node"><title>359</title>
<ellipse fill="white" stroke="black" cx="202.506" cy="-99.6396" rx="21.4286" ry="21.4286"/>
<text text-anchor="middle" x="202.506" y="-97.4396" font-family="Times,serif" font-size="9.00">359</text>
</g>
<!-- 368 -->
<g id="node6" class="node"><title>368</title>
<ellipse fill="white" stroke="black" cx="262.506" cy="-99.6396" rx="21.4286" ry="21.4286"/>
<text text-anchor="middle" x="262.506" y="-97.4396" font-family="Times,serif" font-size="9.00">368</text>
</g>
</g>
</svg>
