<?xml version="1.0" encoding="UTF-8" standalone="no"?>
<!DOCTYPE svg PUBLIC "-//W3C//DTD SVG 1.1//EN"
 "http://www.w3.org/Graphics/SVG/1.1/DTD/svg11.dtd">
<!-- Generated by graphviz version 2.38.0 (20140413.2041)
 -->
<!-- Title: %3 Pages: 1 -->
<svg width="189pt" height="261pt"
 viewBox="0.00 0.00 189.21 261.28" xmlns="http://www.w3.org/2000/svg" xmlns:xlink="http://www.w3.org/1999/xlink">
<g id="graph0" class="graph" transform="scale(1 1) rotate(0) translate(4 257.279)">
<title>%3</title>
<polygon fill="white" stroke="none" points="-4,4 -4,-257.279 185.213,-257.279 185.213,4 -4,4"/>
<!-- IA -->
<g id="node1" class="node"><title>IA</title>
<polygon fill="lightgray" stroke="black" points="26,-253.279 0,-253.279 0,-235.279 26,-235.279 26,-253.279"/>
<text text-anchor="middle" x="13" y="-242.079" font-family="Times,serif" font-size="9.00">IA</text>
</g>
<!-- IB -->
<g id="node2" class="node"><title>IB</title>
<polygon fill="lightgray" stroke="black" points="70,-253.279 44,-253.279 44,-235.279 70,-235.279 70,-253.279"/>
<text text-anchor="middle" x="57" y="-242.079" font-family="Times,serif" font-size="9.00">IB</text>
</g>
<!-- OA -->
<g id="node3" class="node"><title>OA</title>
<ellipse fill="lightblue" stroke="black" cx="96" cy="-21.2132" rx="21.4286" ry="21.4286"/>
<text text-anchor="middle" x="96" y="-19.0132" font-family="Times,serif" font-size="9.00">OA</text>
</g>
<!-- IB&#45;&gt;OA -->
<g id="edge6" class="edge"><title>IB&#45;&gt;OA</title>
<path fill="none" stroke="green" stroke-width="0.566052" d="M54.7651,-235.083C48.4725,-210.497 32.3046,-135.543 52,-78.4264 56.4189,-65.6117 65.0936,-53.4859 73.581,-43.7996"/>
<polygon fill="green" stroke="green" stroke-width="0.566052" points="76.3284,-45.9846 80.5687,-36.2753 71.1991,-41.221 76.3284,-45.9846"/>
</g>
<!-- 266 -->
<g id="node5" class="node"><title>266</title>
<ellipse fill="white" stroke="black" cx="82" cy="-178.066" rx="21.4286" ry="21.4286"/>
<text text-anchor="middle" x="82" y="-175.866" font-family="Times,serif" font-size="9.00">266</text>
</g>
<!-- IB&#45;&gt;266 -->
<g id="edge1" class="edge"><title>IB&#45;&gt;266</title>
<path fill="none" stroke="red" stroke-width="0.216338" d="M60.1663,-235.147C62.8945,-228.139 67.0008,-217.592 70.9188,-207.528"/>
<polygon fill="red" stroke="red" stroke-width="0.216338" points="74.1998,-208.748 74.5663,-198.16 67.6767,-206.208 74.1998,-208.748"/>
</g>
<!-- OA&#45;&gt;OA -->
<g id="edge3" class="edge"><title>OA&#45;&gt;OA</title>
<path fill="none" stroke="green" stroke-width="0.209376" d="M112.929,-34.5492C124.221,-38.3031 135.213,-33.8577 135.213,-21.2132 135.213,-12.5201 130.018,-7.70237 123.101,-6.76005"/>
<polygon fill="green" stroke="green" stroke-width="0.209376" points="122.487,-3.30638 112.929,-7.87717 123.251,-10.2645 122.487,-3.30638"/>
</g>
<!-- OB -->
<g id="node4" class="node"><title>OB</title>
<ellipse fill="lightblue" stroke="black" cx="82" cy="-99.6396" rx="20.5122" ry="20.5122"/>
<text text-anchor="middle" x="82" y="-97.4396" font-family="Times,serif" font-size="9.00">OB</text>
</g>
<!-- OB&#45;&gt;OB -->
<g id="edge4" class="edge"><title>OB&#45;&gt;OB</title>
<path fill="none" stroke="green" stroke-width="0.294034" d="M97.8214,-112.69C109.186,-116.939 120.506,-112.589 120.506,-99.6396 120.506,-90.737 115.156,-85.8988 108.118,-85.1251"/>
<polygon fill="green" stroke="green" stroke-width="0.294034" points="107.229,-81.7163 97.8214,-86.5892 108.215,-88.6466 107.229,-81.7163"/>
</g>
<!-- 266&#45;&gt;OB -->
<g id="edge2" class="edge"><title>266&#45;&gt;OB</title>
<path fill="none" stroke="red" stroke-width="0.282365" d="M82,-156.585C82,-148.601 82,-139.289 82,-130.58"/>
<polygon fill="red" stroke="red" stroke-width="0.282365" points="85.5001,-130.385 82,-120.385 78.5001,-130.385 85.5001,-130.385"/>
</g>
<!-- 266&#45;&gt;266 -->
<g id="edge5" class="edge"><title>266&#45;&gt;266</title>
<path fill="none" stroke="green" stroke-width="0.523568" d="M100.151,-189.668C111.001,-192.246 121.213,-188.379 121.213,-178.066 121.213,-171.137 116.603,-167.118 110.288,-166.008"/>
<polygon fill="green" stroke="green" stroke-width="0.523568" points="109.984,-162.518 100.151,-166.464 110.299,-169.511 109.984,-162.518"/>
</g>
<!-- 396 -->
<g id="node6" class="node"><title>396</title>
<ellipse fill="white" stroke="black" cx="160" cy="-99.6396" rx="21.4286" ry="21.4286"/>
<text text-anchor="middle" x="160" y="-97.4396" font-family="Times,serif" font-size="9.00">396</text>
</g>
<!-- 266&#45;&gt;396 -->
<g id="edge7" class="edge"><title>266&#45;&gt;396</title>
<path fill="none" stroke="green" stroke-width="0.311618" d="M96.6712,-162.691C108.255,-151.341 124.606,-135.32 137.792,-122.4"/>
<polygon fill="green" stroke="green" stroke-width="0.311618" points="140.436,-124.709 145.129,-115.21 135.537,-119.709 140.436,-124.709"/>
</g>
<!-- 396&#45;&gt;OA -->
<g id="edge8" class="edge"><title>396&#45;&gt;OA</title>
<path fill="none" stroke="green" stroke-width="0.238358" d="M146.739,-82.804C137.815,-72.1467 125.888,-57.9041 115.84,-45.9053"/>
<polygon fill="green" stroke="green" stroke-width="0.238358" points="118.348,-43.4483 109.244,-38.0285 112.981,-47.9425 118.348,-43.4483"/>
</g>
</g>
</svg>
