<?xml version="1.0" encoding="UTF-8" standalone="no"?>
<!DOCTYPE svg PUBLIC "-//W3C//DTD SVG 1.1//EN"
 "http://www.w3.org/Graphics/SVG/1.1/DTD/svg11.dtd">
<!-- Generated by graphviz version 2.38.0 (20140413.2041)
 -->
<!-- Title: %3 Pages: 1 -->
<svg width="214pt" height="457pt"
 viewBox="0.00 0.00 214.21 456.70" xmlns="http://www.w3.org/2000/svg" xmlns:xlink="http://www.w3.org/1999/xlink">
<g id="graph0" class="graph" transform="scale(1 1) rotate(0) translate(4 452.701)">
<title>%3</title>
<polygon fill="white" stroke="none" points="-4,4 -4,-452.701 210.213,-452.701 210.213,4 -4,4"/>
<!-- IA -->
<g id="node1" class="node"><title>IA</title>
<polygon fill="lightgray" stroke="black" points="26,-436.487 0,-436.487 0,-418.487 26,-418.487 26,-436.487"/>
<text text-anchor="middle" x="13" y="-425.287" font-family="Times,serif" font-size="9.00">IA</text>
</g>
<!-- IB -->
<g id="node2" class="node"><title>IB</title>
<polygon fill="lightgray" stroke="black" points="157,-108.64 131,-108.64 131,-90.6396 157,-90.6396 157,-108.64"/>
<text text-anchor="middle" x="144" y="-97.4396" font-family="Times,serif" font-size="9.00">IB</text>
</g>
<!-- OA -->
<g id="node3" class="node"><title>OA</title>
<ellipse fill="lightblue" stroke="black" cx="89" cy="-21.2132" rx="21.4286" ry="21.4286"/>
<text text-anchor="middle" x="89" y="-19.0132" font-family="Times,serif" font-size="9.00">OA</text>
</g>
<!-- IB&#45;&gt;OA -->
<g id="edge2" class="edge"><title>IB&#45;&gt;OA</title>
<path fill="none" stroke="green" stroke-width="2.79206" d="M138.114,-90.4606C130.747,-80.2242 117.791,-62.2202 107.035,-47.2737"/>
<polygon fill="green" stroke="green" stroke-width="2.79206" points="109.697,-44.9809 101.015,-38.9086 104.015,-49.0697 109.697,-44.9809"/>
</g>
<!-- OB -->
<g id="node4" class="node"><title>OB</title>
<ellipse fill="lightblue" stroke="black" cx="149" cy="-21.2132" rx="20.5122" ry="20.5122"/>
<text text-anchor="middle" x="149" y="-19.0132" font-family="Times,serif" font-size="9.00">OB</text>
</g>
<!-- IB&#45;&gt;OB -->
<g id="edge3" class="edge"><title>IB&#45;&gt;OB</title>
<path fill="none" stroke="red" stroke-width="1.54009" d="M144.535,-90.4606C145.137,-81.2549 146.151,-65.767 147.06,-51.8704"/>
<polygon fill="red" stroke="red" stroke-width="1.54009" points="150.566,-51.8914 147.726,-41.6842 143.581,-51.4343 150.566,-51.8914"/>
</g>
<!-- 836 -->
<g id="node5" class="node"><title>836</title>
<ellipse fill="white" stroke="black" cx="125" cy="-427.487" rx="21.4286" ry="21.4286"/>
<text text-anchor="middle" x="125" y="-425.287" font-family="Times,serif" font-size="9.00">836</text>
</g>
<!-- 1030 -->
<g id="node6" class="node"><title>1030</title>
<ellipse fill="white" stroke="black" cx="94" cy="-181.602" rx="25" ry="25"/>
<text text-anchor="middle" x="94" y="-179.402" font-family="Times,serif" font-size="9.00">1030</text>
</g>
<!-- 1030&#45;&gt;OA -->
<g id="edge7" class="edge"><title>1030&#45;&gt;OA</title>
<path fill="none" stroke="red" stroke-width="0.508878" stroke-dasharray="1,5" d="M93.2406,-156.546C92.3608,-128.677 90.9102,-82.7234 89.9548,-52.4594"/>
<polygon fill="red" stroke="red" stroke-width="0.508878" points="93.4532,-52.3489 89.6393,-42.4643 86.4566,-52.5698 93.4532,-52.3489"/>
</g>
<!-- 1030&#45;&gt;1030 -->
<g id="edge9" class="edge"><title>1030&#45;&gt;1030</title>
<path fill="none" stroke="red" stroke-width="0.208284" d="M114.674,-195.884C126.166,-198.55 136.749,-193.789 136.749,-181.602 136.749,-173.223 131.747,-168.354 124.886,-166.996"/>
<polygon fill="red" stroke="red" stroke-width="0.208284" points="124.558,-163.504 114.674,-167.319 124.78,-170.501 124.558,-163.504"/>
</g>
<!-- 135 -->
<g id="node7" class="node"><title>135</title>
<ellipse fill="white" stroke="black" cx="45" cy="-99.6396" rx="21.4286" ry="21.4286"/>
<text text-anchor="middle" x="45" y="-97.4396" font-family="Times,serif" font-size="9.00">135</text>
</g>
<!-- 1030&#45;&gt;135 -->
<g id="edge8" class="edge"><title>1030&#45;&gt;135</title>
<path fill="none" stroke="red" stroke-width="0.273775" d="M81.3813,-160.009C75.1784,-149.887 67.6348,-137.577 61.0284,-126.796"/>
<polygon fill="red" stroke="red" stroke-width="0.273775" points="63.9587,-124.879 55.7495,-118.181 57.9902,-128.537 63.9587,-124.879"/>
</g>
<!-- 135&#45;&gt;OA -->
<g id="edge1" class="edge"><title>135&#45;&gt;OA</title>
<path fill="none" stroke="red" stroke-width="2.30327" d="M55.2051,-80.9138C60.7029,-71.3642 67.596,-59.3912 73.7204,-48.7532"/>
<polygon fill="red" stroke="red" stroke-width="2.30327" points="76.8941,-50.2556 78.8503,-39.8429 70.8276,-46.763 76.8941,-50.2556"/>
</g>
<!-- 553 -->
<g id="node8" class="node"><title>553</title>
<ellipse fill="white" stroke="black" cx="65" cy="-427.487" rx="21.4286" ry="21.4286"/>
<text text-anchor="middle" x="65" y="-425.287" font-family="Times,serif" font-size="9.00">553</text>
</g>
<!-- 1077 -->
<g id="node9" class="node"><title>1077</title>
<ellipse fill="white" stroke="black" cx="65" cy="-345.525" rx="25" ry="25"/>
<text text-anchor="middle" x="65" y="-343.325" font-family="Times,serif" font-size="9.00">1077</text>
</g>
<!-- 553&#45;&gt;1077 -->
<g id="edge4" class="edge"><title>553&#45;&gt;1077</title>
<path fill="none" stroke="red" stroke-width="0.112683" d="M65,-405.895C65,-398.197 65,-389.234 65,-380.64"/>
<polygon fill="red" stroke="red" stroke-width="0.112683" points="68.5001,-380.451 65,-370.451 61.5001,-380.451 68.5001,-380.451"/>
</g>
<!-- 1077&#45;&gt;135 -->
<g id="edge5" class="edge"><title>1077&#45;&gt;135</title>
<path fill="none" stroke="green" stroke-width="0.319479" stroke-dasharray="1,5" d="M63.0459,-320.697C59.3922,-276.142 51.5316,-180.288 47.4987,-131.109"/>
<polygon fill="green" stroke="green" stroke-width="0.319479" points="50.9816,-130.757 46.6759,-121.077 44.0051,-131.329 50.9816,-130.757"/>
</g>
<!-- 605 -->
<g id="node10" class="node"><title>605</title>
<ellipse fill="white" stroke="black" cx="92" cy="-263.563" rx="21.4286" ry="21.4286"/>
<text text-anchor="middle" x="92" y="-261.363" font-family="Times,serif" font-size="9.00">605</text>
</g>
<!-- 1077&#45;&gt;605 -->
<g id="edge6" class="edge"><title>1077&#45;&gt;605</title>
<path fill="none" stroke="green" stroke-width="0.414989" d="M72.6649,-321.825C75.6417,-313.009 79.0873,-302.805 82.238,-293.474"/>
<polygon fill="green" stroke="green" stroke-width="0.414989" points="85.6218,-294.393 85.5049,-283.799 78.9896,-292.154 85.6218,-294.393"/>
</g>
<!-- 605&#45;&gt;1030 -->
<g id="edge10" class="edge"><title>605&#45;&gt;1030</title>
<path fill="none" stroke="green" stroke-width="0.287917" d="M92.515,-241.971C92.7076,-234.273 92.9318,-225.31 93.1467,-216.716"/>
<polygon fill="green" stroke="green" stroke-width="0.287917" points="96.6504,-216.611 93.4016,-206.527 89.6525,-216.436 96.6504,-216.611"/>
</g>
<!-- 862 -->
<g id="node11" class="node"><title>862</title>
<ellipse fill="white" stroke="black" cx="185" cy="-427.487" rx="21.4286" ry="21.4286"/>
<text text-anchor="middle" x="185" y="-425.287" font-family="Times,serif" font-size="9.00">862</text>
</g>
</g>
</svg>
