<?xml version="1.0" encoding="UTF-8" standalone="no"?>
<!DOCTYPE svg PUBLIC "-//W3C//DTD SVG 1.1//EN"
 "http://www.w3.org/Graphics/SVG/1.1/DTD/svg11.dtd">
<!-- Generated by graphviz version 2.38.0 (20140413.2041)
 -->
<!-- Title: %3 Pages: 1 -->
<svg width="97pt" height="177pt"
 viewBox="0.00 0.00 97.21 177.20" xmlns="http://www.w3.org/2000/svg" xmlns:xlink="http://www.w3.org/1999/xlink">
<g id="graph0" class="graph" transform="scale(1 1) rotate(0) translate(4 173.196)">
<title>%3</title>
<polygon fill="white" stroke="none" points="-4,4 -4,-173.196 93.2132,-173.196 93.2132,4 -4,4"/>
<!-- IA -->
<g id="node1" class="node"><title>IA</title>
<polygon fill="lightgray" stroke="black" points="89.2132,-169.196 63.2132,-169.196 63.2132,-151.196 89.2132,-151.196 89.2132,-169.196"/>
<text text-anchor="middle" x="76.2132" y="-157.996" font-family="Times,serif" font-size="9.00">IA</text>
</g>
<!-- OA -->
<g id="node3" class="node"><title>OA</title>
<ellipse fill="lightblue" stroke="black" cx="21.2132" cy="-93.9828" rx="21.4286" ry="21.4286"/>
<text text-anchor="middle" x="21.2132" y="-91.7828" font-family="Times,serif" font-size="9.00">OA</text>
</g>
<!-- IA&#45;&gt;OA -->
<g id="edge3" class="edge"><title>IA&#45;&gt;OA</title>
<path fill="none" stroke="green" stroke-width="0.183982" stroke-dasharray="1,5" d="M69.2474,-151.063C62.2016,-142.837 50.9777,-129.733 41.1507,-118.26"/>
<polygon fill="green" stroke="green" stroke-width="0.183982" points="43.8026,-115.976 34.6391,-110.658 38.4861,-120.529 43.8026,-115.976"/>
</g>
<!-- 85 -->
<g id="node4" class="node"><title>85</title>
<ellipse fill="white" stroke="black" cx="21.2132" cy="-18.3848" rx="18.2703" ry="18.2703"/>
<text text-anchor="middle" x="21.2132" y="-16.1848" font-family="Times,serif" font-size="9.00">85</text>
</g>
<!-- IA&#45;&gt;85 -->
<g id="edge1" class="edge"><title>IA&#45;&gt;85</title>
<path fill="none" stroke="red" stroke-width="0.26996" d="M77.2126,-151.163C78.8274,-135.395 80.7625,-99.593 69.2132,-72.7696 63.3793,-59.2202 52.6794,-46.7882 42.8602,-37.3366"/>
<polygon fill="red" stroke="red" stroke-width="0.26996" points="45.0323,-34.5808 35.2838,-30.4313 40.3169,-39.7543 45.0323,-34.5808"/>
</g>
<!-- IB -->
<g id="node2" class="node"><title>IB</title>
<polygon fill="lightgray" stroke="black" points="34.2132,-169.196 8.2132,-169.196 8.2132,-151.196 34.2132,-151.196 34.2132,-169.196"/>
<text text-anchor="middle" x="21.2132" y="-157.996" font-family="Times,serif" font-size="9.00">IB</text>
</g>
<!-- IB&#45;&gt;OA -->
<g id="edge4" class="edge"><title>IB&#45;&gt;OA</title>
<path fill="none" stroke="red" stroke-width="0.5417" d="M21.2132,-151.063C21.2132,-144.52 21.2132,-134.892 21.2132,-125.452"/>
<polygon fill="red" stroke="red" stroke-width="0.5417" points="24.7133,-125.438 21.2132,-115.438 17.7133,-125.438 24.7133,-125.438"/>
</g>
<!-- OA&#45;&gt;OA -->
<g id="edge5" class="edge"><title>OA&#45;&gt;OA</title>
<path fill="none" stroke="green" stroke-width="0.206616" d="M39.3646,-105.584C50.2146,-108.162 60.4264,-104.295 60.4264,-93.9828 60.4264,-87.054 55.8166,-83.0349 49.5007,-81.9252"/>
<polygon fill="green" stroke="green" stroke-width="0.206616" points="49.1972,-78.4352 39.3646,-82.3812 49.5119,-85.4281 49.1972,-78.4352"/>
</g>
<!-- OA&#45;&gt;85 -->
<g id="edge6" class="edge"><title>OA&#45;&gt;85</title>
<path fill="none" stroke="green" stroke-width="0.585413" d="M15.1558,-73.2598C14.4291,-64.9356 14.2743,-55.1134 14.6913,-46.1509"/>
<polygon fill="green" stroke="green" stroke-width="0.585413" points="18.1823,-46.4006 15.4436,-36.1659 11.2021,-45.8746 18.1823,-46.4006"/>
</g>
<!-- 85&#45;&gt;OA -->
<g id="edge2" class="edge"><title>85&#45;&gt;OA</title>
<path fill="none" stroke="green" stroke-width="0.457833" d="M26.9828,-36.1659C27.8568,-44.1808 28.1464,-54.0168 27.8517,-63.2388"/>
<polygon fill="green" stroke="green" stroke-width="0.457833" points="24.3555,-63.074 27.2707,-73.2598 31.3437,-63.4793 24.3555,-63.074"/>
</g>
<!-- 85&#45;&gt;85 -->
<g id="edge7" class="edge"><title>85&#45;&gt;85</title>
<path fill="none" stroke="red" stroke-width="0.398449" d="M35.405,-30.4678C46.3921,-34.9867 57.598,-30.959 57.598,-18.3848 57.598,-9.74 52.3014,-5.1348 45.4208,-4.56918"/>
<polygon fill="red" stroke="red" stroke-width="0.398449" points="44.6621,-1.14836 35.405,-6.30174 45.8553,-8.04593 44.6621,-1.14836"/>
</g>
</g>
</svg>
