<?xml version="1.0" encoding="UTF-8" standalone="no"?>
<!DOCTYPE svg PUBLIC "-//W3C//DTD SVG 1.1//EN"
 "http://www.w3.org/Graphics/SVG/1.1/DTD/svg11.dtd">
<!-- Generated by graphviz version 2.38.0 (20140413.2041)
 -->
<!-- Title: %3 Pages: 1 -->
<svg width="1028pt" height="1109pt"
 viewBox="0.00 0.00 1028.00 1109.18" xmlns="http://www.w3.org/2000/svg" xmlns:xlink="http://www.w3.org/1999/xlink">
<g id="graph0" class="graph" transform="scale(1 1) rotate(0) translate(4 1105.18)">
<title>%3</title>
<polygon fill="white" stroke="none" points="-4,4 -4,-1105.18 1024,-1105.18 1024,4 -4,4"/>
<!-- IA -->
<g id="node1" class="node"><title>IA</title>
<polygon fill="lightgray" stroke="black" points="109,-1101.18 83,-1101.18 83,-1083.18 109,-1083.18 109,-1101.18"/>
<text text-anchor="middle" x="96" y="-1089.98" font-family="Times,serif" font-size="9.00">IA</text>
</g>
<!-- 4353 -->
<g id="node5" class="node"><title>4353</title>
<ellipse fill="white" stroke="black" cx="70" cy="-1022.43" rx="25" ry="25"/>
<text text-anchor="middle" x="70" y="-1020.23" font-family="Times,serif" font-size="9.00">4353</text>
</g>
<!-- IA&#45;&gt;4353 -->
<g id="edge58" class="edge"><title>IA&#45;&gt;4353</title>
<path fill="none" stroke="green" stroke-width="0.260527" d="M92.9154,-1083.15C90.2171,-1076.11 86.1157,-1065.43 82.1248,-1055.03"/>
<polygon fill="green" stroke="green" stroke-width="0.260527" points="85.3848,-1053.75 78.5342,-1045.67 78.8495,-1056.26 85.3848,-1053.75"/>
</g>
<!-- 3636 -->
<g id="node12" class="node"><title>3636</title>
<ellipse fill="white" stroke="black" cx="87" cy="-936.937" rx="25" ry="25"/>
<text text-anchor="middle" x="87" y="-934.737" font-family="Times,serif" font-size="9.00">3636</text>
</g>
<!-- IA&#45;&gt;3636 -->
<g id="edge38" class="edge"><title>IA&#45;&gt;3636</title>
<path fill="none" stroke="green" stroke-width="0.168763" stroke-dasharray="1,5" d="M97.9139,-1083.13C99.8949,-1074.36 102.856,-1059.86 104,-1047.18 105.976,-1025.27 107.039,-1019.47 104,-997.685 102.747,-988.703 100.483,-979.175 98.0069,-970.428"/>
<polygon fill="green" stroke="green" stroke-width="0.168763" points="101.283,-969.168 95.0512,-960.6 94.5794,-971.184 101.283,-969.168"/>
</g>
<!-- 309 -->
<g id="node13" class="node"><title>309</title>
<ellipse fill="white" stroke="black" cx="290" cy="-854.975" rx="21.4286" ry="21.4286"/>
<text text-anchor="middle" x="290" y="-852.775" font-family="Times,serif" font-size="9.00">309</text>
</g>
<!-- IA&#45;&gt;309 -->
<g id="edge9" class="edge"><title>IA&#45;&gt;309</title>
<path fill="none" stroke="green" stroke-width="0.549765" stroke-dasharray="1,5" d="M102.678,-1083.09C129.186,-1050.95 227.605,-931.623 270.172,-880.015"/>
<polygon fill="green" stroke="green" stroke-width="0.549765" points="273.077,-881.993 276.74,-872.052 267.677,-877.539 273.077,-881.993"/>
</g>
<!-- 2913 -->
<g id="node19" class="node"><title>2913</title>
<ellipse fill="white" stroke="black" cx="133" cy="-274.17" rx="25" ry="25"/>
<text text-anchor="middle" x="133" y="-271.97" font-family="Times,serif" font-size="9.00">2913</text>
</g>
<!-- IA&#45;&gt;2913 -->
<g id="edge52" class="edge"><title>IA&#45;&gt;2913</title>
<path fill="none" stroke="green" stroke-width="0.708408" stroke-dasharray="1,5" d="M82.6462,-1084.59C69.0584,-1077.24 48.2979,-1064.11 36,-1047.18 5.95661,-1005.82 0,-989.059 0,-937.937 0,-937.937 0,-937.937 0,-437.094 0,-372.327 64.3255,-319.33 103.506,-293.056"/>
<polygon fill="green" stroke="green" stroke-width="0.708408" points="105.465,-295.957 111.926,-287.56 101.639,-290.096 105.465,-295.957"/>
</g>
<!-- IB -->
<g id="node2" class="node"><title>IB</title>
<polygon fill="lightgray" stroke="black" points="638,-785.548 612,-785.548 612,-767.548 638,-767.548 638,-785.548"/>
<text text-anchor="middle" x="625" y="-774.348" font-family="Times,serif" font-size="9.00">IB</text>
</g>
<!-- 182 -->
<g id="node14" class="node"><title>182</title>
<ellipse fill="white" stroke="black" cx="571" cy="-106.711" rx="21.4286" ry="21.4286"/>
<text text-anchor="middle" x="571" y="-104.511" font-family="Times,serif" font-size="9.00">182</text>
</g>
<!-- IB&#45;&gt;182 -->
<g id="edge20" class="edge"><title>IB&#45;&gt;182</title>
<path fill="none" stroke="green" stroke-width="0.259438" d="M638.301,-775.011C698.674,-771.803 944,-750.151 944,-610.089 944,-610.089 944,-610.089 944,-273.17 944,-223.887 960.104,-198.515 925,-163.924 879.703,-119.289 681.088,-110.094 602.843,-108.201"/>
<polygon fill="green" stroke="green" stroke-width="0.259438" points="602.703,-104.697 592.629,-107.98 602.551,-111.696 602.703,-104.697"/>
</g>
<!-- 1466 -->
<g id="node15" class="node"><title>1466</title>
<ellipse fill="white" stroke="black" cx="576" cy="-694.586" rx="25" ry="25"/>
<text text-anchor="middle" x="576" y="-692.386" font-family="Times,serif" font-size="9.00">1466</text>
</g>
<!-- IB&#45;&gt;1466 -->
<g id="edge26" class="edge"><title>IB&#45;&gt;1466</title>
<path fill="none" stroke="green" stroke-width="0.586107" d="M619.941,-767.292C613.809,-757.285 603.142,-739.878 593.854,-724.721"/>
<polygon fill="green" stroke="green" stroke-width="0.586107" points="596.798,-722.828 588.589,-716.13 590.83,-726.485 596.798,-722.828"/>
</g>
<!-- OA -->
<g id="node3" class="node"><title>OA</title>
<ellipse fill="lightblue" stroke="black" cx="644" cy="-356.132" rx="21.4286" ry="21.4286"/>
<text text-anchor="middle" x="644" y="-353.932" font-family="Times,serif" font-size="9.00">OA</text>
</g>
<!-- 1569 -->
<g id="node10" class="node"><title>1569</title>
<ellipse fill="white" stroke="black" cx="619" cy="-274.17" rx="25" ry="25"/>
<text text-anchor="middle" x="619" y="-271.97" font-family="Times,serif" font-size="9.00">1569</text>
</g>
<!-- OA&#45;&gt;1569 -->
<g id="edge40" class="edge"><title>OA&#45;&gt;1569</title>
<path fill="none" stroke="green" stroke-width="0.235136" d="M637.948,-335.775C635.31,-327.337 632.144,-317.21 629.162,-307.672"/>
<polygon fill="green" stroke="green" stroke-width="0.235136" points="632.475,-306.54 626.15,-298.04 625.794,-308.629 632.475,-306.54"/>
</g>
<!-- 3713 -->
<g id="node4" class="node"><title>3713</title>
<ellipse fill="white" stroke="black" cx="240" cy="-274.17" rx="25" ry="25"/>
<text text-anchor="middle" x="240" y="-271.97" font-family="Times,serif" font-size="9.00">3713</text>
</g>
<!-- 2585 -->
<g id="node8" class="node"><title>2585</title>
<ellipse fill="white" stroke="black" cx="240" cy="-24.7487" rx="25" ry="25"/>
<text text-anchor="middle" x="240" y="-22.5487" font-family="Times,serif" font-size="9.00">2585</text>
</g>
<!-- 3713&#45;&gt;2585 -->
<g id="edge53" class="edge"><title>3713&#45;&gt;2585</title>
<path fill="none" stroke="red" stroke-width="0.206575" d="M240,-248.996C240,-204.722 240,-110.518 240,-59.7886"/>
<polygon fill="red" stroke="red" stroke-width="0.206575" points="243.5,-59.6569 240,-49.6569 236.5,-59.6569 243.5,-59.6569"/>
</g>
<!-- 2332 -->
<g id="node9" class="node"><title>2332</title>
<ellipse fill="white" stroke="black" cx="299" cy="-188.673" rx="25" ry="25"/>
<text text-anchor="middle" x="299" y="-186.473" font-family="Times,serif" font-size="9.00">2332</text>
</g>
<!-- 3713&#45;&gt;2332 -->
<g id="edge57" class="edge"><title>3713&#45;&gt;2332</title>
<path fill="none" stroke="green" stroke-width="0.481768" d="M253.982,-253.382C261.55,-242.672 271.023,-229.265 279.325,-217.517"/>
<polygon fill="green" stroke="green" stroke-width="0.481768" points="282.206,-219.505 285.118,-209.318 276.489,-215.465 282.206,-219.505"/>
</g>
<!-- 104 -->
<g id="node22" class="node"><title>104</title>
<ellipse fill="white" stroke="black" cx="240" cy="-356.132" rx="21.4286" ry="21.4286"/>
<text text-anchor="middle" x="240" y="-353.932" font-family="Times,serif" font-size="9.00">104</text>
</g>
<!-- 3713&#45;&gt;104 -->
<g id="edge43" class="edge"><title>3713&#45;&gt;104</title>
<path fill="none" stroke="red" stroke-width="0.517589" d="M246.193,-298.397C246.787,-306.819 246.906,-316.451 246.551,-325.358"/>
<polygon fill="red" stroke="red" stroke-width="0.517589" points="243.056,-325.165 245.916,-335.366 250.042,-325.608 243.056,-325.165"/>
</g>
<!-- 4353&#45;&gt;3636 -->
<g id="edge59" class="edge"><title>4353&#45;&gt;3636</title>
<path fill="none" stroke="red" stroke-width="0.368589" d="M74.826,-997.73C76.4911,-989.552 78.3891,-980.23 80.183,-971.419"/>
<polygon fill="red" stroke="red" stroke-width="0.368589" points="83.6552,-971.908 82.2207,-961.411 76.796,-970.511 83.6552,-971.908"/>
</g>
<!-- 3472 -->
<g id="node6" class="node"><title>3472</title>
<ellipse fill="white" stroke="black" cx="633" cy="-609.089" rx="25" ry="25"/>
<text text-anchor="middle" x="633" y="-606.889" font-family="Times,serif" font-size="9.00">3472</text>
</g>
<!-- 3472&#45;&gt;OA -->
<g id="edge35" class="edge"><title>3472&#45;&gt;OA</title>
<path fill="none" stroke="green" stroke-width="0.288087" d="M650.95,-591.986C662.337,-580.811 676.481,-564.989 685,-548.34 702.777,-513.6 700.526,-501.61 705,-462.843 707.522,-440.989 713.832,-433.494 705,-413.345 697.839,-397.007 683.326,-383.319 670.253,-373.542"/>
<polygon fill="green" stroke="green" stroke-width="0.288087" points="672.151,-370.597 661.962,-367.693 668.116,-376.317 672.151,-370.597"/>
</g>
<!-- 3472&#45;&gt;182 -->
<g id="edge44" class="edge"><title>3472&#45;&gt;182</title>
<path fill="none" stroke="red" stroke-width="0.385052" stroke-dasharray="1,5" d="M615.884,-590.528C589.523,-561.543 542,-500.741 542,-439.094 542,-439.094 542,-439.094 542,-273.17 542,-225.013 554.066,-170.139 562.632,-137.25"/>
<polygon fill="red" stroke="red" stroke-width="0.385052" points="566.069,-137.946 565.271,-127.381 559.306,-136.138 566.069,-137.946"/>
</g>
<!-- 3393 -->
<g id="node16" class="node"><title>3393</title>
<ellipse fill="white" stroke="black" cx="671" cy="-438.094" rx="25" ry="25"/>
<text text-anchor="middle" x="671" y="-435.894" font-family="Times,serif" font-size="9.00">3393</text>
</g>
<!-- 3472&#45;&gt;3393 -->
<g id="edge36" class="edge"><title>3472&#45;&gt;3393</title>
<path fill="none" stroke="green" stroke-width="0.39593" stroke-dasharray="1,5" d="M647.217,-588.705C654.587,-577.505 662.888,-562.805 667,-548.34 673.958,-523.866 674.725,-495.065 673.878,-473.181"/>
<polygon fill="green" stroke="green" stroke-width="0.39593" points="677.365,-472.848 673.352,-463.043 670.374,-473.211 677.365,-472.848"/>
</g>
<!-- 3813 -->
<g id="node21" class="node"><title>3813</title>
<ellipse fill="white" stroke="black" cx="633" cy="-523.591" rx="25" ry="25"/>
<text text-anchor="middle" x="633" y="-521.391" font-family="Times,serif" font-size="9.00">3813</text>
</g>
<!-- 3472&#45;&gt;3813 -->
<g id="edge46" class="edge"><title>3472&#45;&gt;3813</title>
<path fill="none" stroke="green" stroke-width="0.556177" d="M633,-583.938C633,-575.994 633,-567.009 633,-558.479"/>
<polygon fill="green" stroke="green" stroke-width="0.556177" points="636.5,-558.4 633,-548.4 629.5,-558.4 636.5,-558.4"/>
</g>
<!-- 785 -->
<g id="node7" class="node"><title>785</title>
<ellipse fill="white" stroke="black" cx="359" cy="-776.548" rx="21.4286" ry="21.4286"/>
<text text-anchor="middle" x="359" y="-774.348" font-family="Times,serif" font-size="9.00">785</text>
</g>
<!-- 785&#45;&gt;1466 -->
<g id="edge31" class="edge"><title>785&#45;&gt;1466</title>
<path fill="none" stroke="red" stroke-width="0.490629" stroke-dasharray="1,5" d="M378.64,-768.311C416.061,-754.522 497.91,-724.362 543.574,-707.535"/>
<polygon fill="red" stroke="red" stroke-width="0.490629" points="544.836,-710.8 553.009,-704.058 542.416,-704.232 544.836,-710.8"/>
</g>
<!-- 785&#45;&gt;104 -->
<g id="edge30" class="edge"><title>785&#45;&gt;104</title>
<path fill="none" stroke="red" stroke-width="0.607098" d="M339.207,-768.251C318.28,-759.592 285.635,-743.247 266,-719.335 240.35,-688.097 245.861,-672.771 235,-633.838 208.356,-538.33 171.388,-507.975 201,-413.345 204.731,-401.421 211.981,-389.806 219.227,-380.258"/>
<polygon fill="red" stroke="red" stroke-width="0.607098" points="221.97,-382.432 225.506,-372.445 216.514,-378.047 221.97,-382.432"/>
</g>
<!-- 1643 -->
<g id="node23" class="node"><title>1643</title>
<ellipse fill="white" stroke="black" cx="235" cy="-438.094" rx="25" ry="25"/>
<text text-anchor="middle" x="235" y="-435.894" font-family="Times,serif" font-size="9.00">1643</text>
</g>
<!-- 785&#45;&gt;1643 -->
<g id="edge8" class="edge"><title>785&#45;&gt;1643</title>
<path fill="none" stroke="green" stroke-width="0.58024" d="M343.595,-761.178C319.227,-737.373 272.459,-687.074 252,-633.838 231.436,-580.329 230.608,-512.653 232.424,-472.798"/>
<polygon fill="green" stroke="green" stroke-width="0.58024" points="235.919,-472.984 232.962,-462.81 228.929,-472.607 235.919,-472.984"/>
</g>
<!-- 2585&#45;&gt;309 -->
<g id="edge19" class="edge"><title>2585&#45;&gt;309</title>
<path fill="none" stroke="green" stroke-width="0.438995" d="M216.433,-32.3263C163.147,-48.7928 38,-97.1065 38,-187.673 38,-695.586 38,-695.586 38,-695.586 38,-798.836 191.517,-837.401 258.908,-849.355"/>
<polygon fill="green" stroke="green" stroke-width="0.438995" points="258.505,-852.837 268.948,-851.051 259.671,-845.934 258.505,-852.837"/>
</g>
<!-- 2332&#45;&gt;785 -->
<g id="edge13" class="edge"><title>2332&#45;&gt;785</title>
<path fill="none" stroke="green" stroke-width="0.25377" d="M319.726,-202.801C356.191,-227.699 428,-285.562 428,-355.132 428,-610.089 428,-610.089 428,-610.089 428,-663.061 397.501,-718.732 377.057,-750.099"/>
<polygon fill="green" stroke="green" stroke-width="0.25377" points="373.987,-748.394 371.336,-758.652 379.805,-752.286 373.987,-748.394"/>
</g>
<!-- 2332&#45;&gt;182 -->
<g id="edge27" class="edge"><title>2332&#45;&gt;182</title>
<path fill="none" stroke="green" stroke-width="0.66249" stroke-dasharray="1,5" d="M319.013,-173.855C324.929,-170.227 331.553,-166.588 338,-163.924 407.249,-135.309 494.356,-119.137 539.939,-112.061"/>
<polygon fill="green" stroke="green" stroke-width="0.66249" points="540.704,-115.485 550.071,-110.533 539.66,-108.564 540.704,-115.485"/>
</g>
<!-- 1569&#45;&gt;182 -->
<g id="edge6" class="edge"><title>1569&#45;&gt;182</title>
<path fill="none" stroke="green" stroke-width="0.456938" stroke-dasharray="1,5" d="M612.326,-250.164C603.772,-220.678 588.931,-169.519 579.555,-137.202"/>
<polygon fill="green" stroke="green" stroke-width="0.456938" points="582.866,-136.051 576.718,-127.423 576.143,-138.002 582.866,-136.051"/>
</g>
<!-- 2469 -->
<g id="node11" class="node"><title>2469</title>
<ellipse fill="white" stroke="black" cx="319" cy="-523.591" rx="25" ry="25"/>
<text text-anchor="middle" x="319" y="-521.391" font-family="Times,serif" font-size="9.00">2469</text>
</g>
<!-- 2469&#45;&gt;2469 -->
<g id="edge49" class="edge"><title>2469&#45;&gt;2469</title>
<path fill="none" stroke="green" stroke-width="0.741547" stroke-dasharray="1,5" d="M339.231,-538.476C350.893,-541.514 361.749,-536.552 361.749,-523.591 361.749,-514.681 356.618,-509.551 349.621,-508.202"/>
<polygon fill="green" stroke="green" stroke-width="0.741547" points="349.05,-504.726 339.231,-508.707 349.389,-511.718 349.05,-504.726"/>
</g>
<!-- 2469&#45;&gt;182 -->
<g id="edge17" class="edge"><title>2469&#45;&gt;182</title>
<path fill="none" stroke="green" stroke-width="0.259006" stroke-dasharray="1,5" d="M333.368,-503.369C354.114,-473.65 390,-414.023 390,-357.132 390,-357.132 390,-357.132 390,-273.17 390,-191.946 490.524,-139.891 541.743,-118.64"/>
<polygon fill="green" stroke="green" stroke-width="0.259006" points="543.314,-121.781 551.285,-114.801 540.702,-115.287 543.314,-121.781"/>
</g>
<!-- 2532 -->
<g id="node20" class="node"><title>2532</title>
<ellipse fill="white" stroke="black" cx="375" cy="-609.089" rx="25" ry="25"/>
<text text-anchor="middle" x="375" y="-606.889" font-family="Times,serif" font-size="9.00">2532</text>
</g>
<!-- 2469&#45;&gt;2532 -->
<g id="edge18" class="edge"><title>2469&#45;&gt;2532</title>
<path fill="none" stroke="green" stroke-width="0.44578" stroke-dasharray="1,5" d="M336.069,-541.729C343.968,-551.862 353.108,-565.003 360.646,-576.914"/>
<polygon fill="green" stroke="green" stroke-width="0.44578" points="357.834,-579.024 366.05,-585.713 363.799,-575.36 357.834,-579.024"/>
</g>
<!-- 2469&#45;&gt;1643 -->
<g id="edge15" class="edge"><title>2469&#45;&gt;1643</title>
<path fill="none" stroke="green" stroke-width="0.342373" d="M301.595,-505.291C289.35,-493.119 272.799,-476.667 259.26,-463.209"/>
<polygon fill="green" stroke="green" stroke-width="0.342373" points="261.655,-460.654 252.095,-456.087 256.72,-465.619 261.655,-460.654"/>
</g>
<!-- 3636&#45;&gt;309 -->
<g id="edge39" class="edge"><title>3636&#45;&gt;309</title>
<path fill="none" stroke="green" stroke-width="0.459111" d="M109.892,-926.919C147.06,-912.279 220.461,-883.366 261.146,-867.34"/>
<polygon fill="green" stroke="green" stroke-width="0.459111" points="262.482,-870.576 270.504,-863.654 259.917,-864.063 262.482,-870.576"/>
</g>
<!-- 309&#45;&gt;OA -->
<g id="edge2" class="edge"><title>309&#45;&gt;OA</title>
<path fill="none" stroke="green" stroke-width="0.202881" d="M311.257,-852.844C415.536,-846.731 868,-813.419 868,-695.586 868,-695.586 868,-695.586 868,-522.591 868,-427.528 735.857,-380.886 674.56,-364.364"/>
<polygon fill="green" stroke="green" stroke-width="0.202881" points="675.231,-360.922 664.672,-361.795 673.471,-367.697 675.231,-360.922"/>
</g>
<!-- 309&#45;&gt;785 -->
<g id="edge21" class="edge"><title>309&#45;&gt;785</title>
<path fill="none" stroke="green" stroke-width="0.82603" d="M303.963,-838.509C313.783,-827.632 327.094,-812.889 338.165,-800.626"/>
<polygon fill="green" stroke="green" stroke-width="0.82603" points="340.954,-802.759 345.058,-792.991 335.758,-798.068 340.954,-802.759"/>
</g>
<!-- 309&#45;&gt;1569 -->
<g id="edge7" class="edge"><title>309&#45;&gt;1569</title>
<path fill="none" stroke="green" stroke-width="0.667453" stroke-dasharray="1,5" d="M311.469,-853.77C428.271,-852.093 982,-836.703 982,-695.586 982,-695.586 982,-695.586 982,-437.094 982,-294.381 745.094,-276.574 654.055,-275.001"/>
<polygon fill="green" stroke="green" stroke-width="0.667453" points="653.99,-271.5 643.95,-274.883 653.909,-278.499 653.99,-271.5"/>
</g>
<!-- 309&#45;&gt;182 -->
<g id="edge3" class="edge"><title>309&#45;&gt;182</title>
<path fill="none" stroke="red" stroke-width="0.521096" stroke-dasharray="1,5" d="M311.338,-853.822C407.015,-852.867 796.623,-846.029 907,-797.762 969.036,-770.633 1020,-763.295 1020,-695.586 1020,-695.586 1020,-695.586 1020,-273.17 1020,-215.504 998.421,-195.241 950,-163.924 892.537,-126.759 682.603,-113.022 602.42,-109.062"/>
<polygon fill="red" stroke="red" stroke-width="0.521096" points="602.585,-105.566 592.43,-108.586 602.252,-112.558 602.585,-105.566"/>
</g>
<!-- 309&#45;&gt;1466 -->
<g id="edge4" class="edge"><title>309&#45;&gt;1466</title>
<path fill="none" stroke="green" stroke-width="0.500501" d="M308.326,-843.826C356.424,-817.189 486.635,-745.077 545.898,-712.257"/>
<polygon fill="green" stroke="green" stroke-width="0.500501" points="547.724,-715.247 554.776,-707.34 544.333,-709.123 547.724,-715.247"/>
</g>
<!-- 182&#45;&gt;2585 -->
<g id="edge41" class="edge"><title>182&#45;&gt;2585</title>
<path fill="none" stroke="green" stroke-width="0.320673" d="M550.294,-100.709C494.831,-87.31 342.49,-50.508 274.064,-33.9777"/>
<polygon fill="green" stroke="green" stroke-width="0.320673" points="274.756,-30.5443 264.213,-31.5982 273.112,-37.3486 274.756,-30.5443"/>
</g>
<!-- 1466&#45;&gt;OA -->
<g id="edge5" class="edge"><title>1466&#45;&gt;OA</title>
<path fill="none" stroke="green" stroke-width="0.183974" stroke-dasharray="1,5" d="M577.358,-669.664C579.786,-632.688 585.895,-559.576 599,-498.843 607.631,-458.841 622.829,-414.039 633.151,-385.721"/>
<polygon fill="green" stroke="green" stroke-width="0.183974" points="636.533,-386.667 636.712,-376.074 629.966,-384.243 636.533,-386.667"/>
</g>
<!-- 1466&#45;&gt;3472 -->
<g id="edge34" class="edge"><title>1466&#45;&gt;3472</title>
<path fill="none" stroke="green" stroke-width="0.220998" d="M589.508,-673.799C596.696,-663.269 605.663,-650.134 613.584,-638.53"/>
<polygon fill="green" stroke="green" stroke-width="0.220998" points="616.644,-640.256 619.391,-630.024 610.862,-636.31 616.644,-640.256"/>
</g>
<!-- 1466&#45;&gt;182 -->
<g id="edge14" class="edge"><title>1466&#45;&gt;182</title>
<path fill="none" stroke="green" stroke-width="0.39613" stroke-dasharray="1,5" d="M600.947,-693.476C646.422,-692.012 743.75,-682.901 805,-633.838 854.252,-594.386 854.116,-561.739 849,-498.843 845.879,-460.464 851.309,-448.226 835,-413.345 775.66,-286.434 648.123,-171.443 594.996,-127.078"/>
<polygon fill="green" stroke="green" stroke-width="0.39613" points="597.067,-124.248 587.13,-120.573 592.606,-129.643 597.067,-124.248"/>
</g>
<!-- 1466&#45;&gt;3393 -->
<g id="edge32" class="edge"><title>1466&#45;&gt;3393</title>
<path fill="none" stroke="green" stroke-width="0.123786" d="M598.8,-684.688C619.841,-675.269 650.279,-658.35 667,-633.838 700.028,-585.421 690.169,-513.304 680.355,-471.767"/>
<polygon fill="green" stroke="green" stroke-width="0.123786" points="683.709,-470.751 677.887,-461.899 676.918,-472.449 683.709,-470.751"/>
</g>
<!-- 4300 -->
<g id="node18" class="node"><title>4300</title>
<ellipse fill="white" stroke="black" cx="815" cy="-523.591" rx="25" ry="25"/>
<text text-anchor="middle" x="815" y="-521.391" font-family="Times,serif" font-size="9.00">4300</text>
</g>
<!-- 1466&#45;&gt;4300 -->
<g id="edge55" class="edge"><title>1466&#45;&gt;4300</title>
<path fill="none" stroke="green" stroke-width="0.211089" d="M600.708,-693.087C642.332,-690.917 726.707,-680.604 776,-633.838 796.744,-614.157 806.474,-582.7 811.027,-558.585"/>
<polygon fill="green" stroke="green" stroke-width="0.211089" points="814.529,-558.864 812.727,-548.424 807.625,-557.709 814.529,-558.864"/>
</g>
<!-- 1466&#45;&gt;2532 -->
<g id="edge22" class="edge"><title>1466&#45;&gt;2532</title>
<path fill="none" stroke="green" stroke-width="0.54696" stroke-dasharray="1,5" d="M553.333,-684.17C517.576,-669.316 447.946,-640.391 407.072,-623.412"/>
<polygon fill="green" stroke="green" stroke-width="0.54696" points="408.161,-620.075 397.584,-619.47 405.476,-626.539 408.161,-620.075"/>
</g>
<!-- 3393&#45;&gt;OA -->
<g id="edge33" class="edge"><title>3393&#45;&gt;OA</title>
<path fill="none" stroke="green" stroke-width="0.142801" stroke-dasharray="1,5" d="M663.335,-414.394C660.358,-405.578 656.913,-395.374 653.762,-386.043"/>
<polygon fill="green" stroke="green" stroke-width="0.142801" points="657.01,-384.722 650.495,-376.368 650.378,-386.962 657.01,-384.722"/>
</g>
<!-- 3393&#45;&gt;785 -->
<g id="edge37" class="edge"><title>3393&#45;&gt;785</title>
<path fill="none" stroke="green" stroke-width="0.294553" d="M651.17,-453.318C635.998,-464.708 615.028,-481.584 599,-498.843 517.136,-586.993 528.057,-635.273 442,-719.335 425.403,-735.547 403.584,-750.118 386.482,-760.361"/>
<polygon fill="green" stroke="green" stroke-width="0.294553" points="384.4,-757.524 377.529,-765.589 387.93,-763.569 384.4,-757.524"/>
</g>
<!-- 3908 -->
<g id="node17" class="node"><title>3908</title>
<ellipse fill="white" stroke="black" cx="891" cy="-188.673" rx="25" ry="25"/>
<text text-anchor="middle" x="891" y="-186.473" font-family="Times,serif" font-size="9.00">3908</text>
</g>
<!-- 3908&#45;&gt;182 -->
<g id="edge50" class="edge"><title>3908&#45;&gt;182</title>
<path fill="none" stroke="red" stroke-width="0.272116" d="M871.053,-173.691C865.138,-170.06 858.498,-166.461 852,-163.924 765.285,-130.07 655.216,-115.674 602.256,-110.377"/>
<polygon fill="red" stroke="red" stroke-width="0.272116" points="602.438,-106.879 592.15,-109.409 601.771,-113.847 602.438,-106.879"/>
</g>
<!-- 4300&#45;&gt;OA -->
<g id="edge56" class="edge"><title>4300&#45;&gt;OA</title>
<path fill="none" stroke="green" stroke-width="0.213236" d="M803.612,-501.291C790.232,-477.7 766.239,-439.542 738,-413.345 718.473,-395.23 692.171,-380.109 672.355,-370.129"/>
<polygon fill="green" stroke="green" stroke-width="0.213236" points="673.727,-366.904 663.207,-365.652 670.651,-373.191 673.727,-366.904"/>
</g>
<!-- 2913&#45;&gt;309 -->
<g id="edge24" class="edge"><title>2913&#45;&gt;309</title>
<path fill="none" stroke="green" stroke-width="0.569317" stroke-dasharray="1,5" d="M128.497,-298.667C122.879,-330.082 114,-387.561 114,-437.094 114,-695.586 114,-695.586 114,-695.586 114,-747.159 131.475,-762.384 169,-797.762 194.741,-822.029 232.834,-837.348 259.38,-845.759"/>
<polygon fill="green" stroke="green" stroke-width="0.569317" points="258.7,-849.21 269.285,-848.748 260.722,-842.508 258.7,-849.21"/>
</g>
<!-- 2532&#45;&gt;1569 -->
<g id="edge54" class="edge"><title>2532&#45;&gt;1569</title>
<path fill="none" stroke="green" stroke-width="0.28384" d="M389.173,-588.751C430.445,-532.438 550.657,-368.419 598.759,-302.788"/>
<polygon fill="green" stroke="green" stroke-width="0.28384" points="601.699,-304.696 604.788,-294.562 596.053,-300.558 601.699,-304.696"/>
</g>
<!-- 2532&#45;&gt;2469 -->
<g id="edge45" class="edge"><title>2532&#45;&gt;2469</title>
<path fill="none" stroke="green" stroke-width="0.589873" stroke-dasharray="1,5" d="M357.804,-590.788C349.922,-580.663 340.825,-567.576 333.321,-555.714"/>
<polygon fill="green" stroke="green" stroke-width="0.589873" points="336.156,-553.642 327.94,-546.952 330.191,-557.305 336.156,-553.642"/>
</g>
<!-- 3813&#45;&gt;OA -->
<g id="edge51" class="edge"><title>3813&#45;&gt;OA</title>
<path fill="none" stroke="green" stroke-width="0.713837" stroke-dasharray="1,5" d="M633.275,-498.688C633.673,-476.532 634.642,-442.668 637,-413.345 637.676,-404.936 638.685,-395.851 639.728,-387.487"/>
<polygon fill="green" stroke="green" stroke-width="0.713837" points="643.223,-387.752 641.045,-377.383 636.282,-386.847 643.223,-387.752"/>
</g>
<!-- 3813&#45;&gt;3393 -->
<g id="edge47" class="edge"><title>3813&#45;&gt;3393</title>
<path fill="none" stroke="green" stroke-width="0.431888" stroke-dasharray="1,5" d="M642.984,-500.653C647.217,-491.353 652.227,-480.345 656.831,-470.228"/>
<polygon fill="green" stroke="green" stroke-width="0.431888" points="660.126,-471.437 661.083,-460.885 653.755,-468.537 660.126,-471.437"/>
</g>
<!-- 104&#45;&gt;3713 -->
<g id="edge42" class="edge"><title>104&#45;&gt;3713</title>
<path fill="none" stroke="green" stroke-width="0.532998" stroke-dasharray="1,5" d="M234.084,-335.366C233.35,-327.234 233.1,-317.589 233.336,-308.428"/>
<polygon fill="green" stroke="green" stroke-width="0.532998" points="236.834,-308.551 233.807,-298.397 229.841,-308.222 236.834,-308.551"/>
</g>
<!-- 104&#45;&gt;3636 -->
<g id="edge60" class="edge"><title>104&#45;&gt;3636</title>
<path fill="none" stroke="green" stroke-width="0.418052" d="M220.866,-365.355C177.605,-385.382 76,-441.094 76,-522.591 76,-777.548 76,-777.548 76,-777.548 76,-820.515 80.0784,-869.881 83.2685,-901.923"/>
<polygon fill="green" stroke="green" stroke-width="0.418052" points="79.8091,-902.499 84.3091,-912.091 86.7727,-901.786 79.8091,-902.499"/>
</g>
<!-- 104&#45;&gt;182 -->
<g id="edge29" class="edge"><title>104&#45;&gt;182</title>
<path fill="none" stroke="red" stroke-width="0.312821" stroke-dasharray="1,5" d="M251.363,-337.814C280.874,-293.04 358.843,-176.085 376,-163.924 426.241,-128.313 498.778,-115.125 539.745,-110.342"/>
<polygon fill="red" stroke="red" stroke-width="0.312821" points="540.121,-113.821 549.69,-109.274 539.374,-106.861 540.121,-113.821"/>
</g>
<!-- 104&#45;&gt;1466 -->
<g id="edge10" class="edge"><title>104&#45;&gt;1466</title>
<path fill="none" stroke="green" stroke-width="0.150773" stroke-dasharray="1,5" d="M255.993,-370.544C267.05,-380.927 280.837,-396.365 287,-413.345 307.473,-469.749 267.845,-490.84 285,-548.34 297.986,-591.869 304.029,-607.446 341,-633.838 402.128,-677.473 492.19,-689.307 541.169,-692.473"/>
<polygon fill="green" stroke="green" stroke-width="0.150773" points="541.079,-695.973 551.259,-693.039 541.471,-688.984 541.079,-695.973"/>
</g>
<!-- 104&#45;&gt;2913 -->
<g id="edge48" class="edge"><title>104&#45;&gt;2913</title>
<path fill="none" stroke="green" stroke-width="0.507266" d="M223.281,-342.638C206.515,-330.109 180.408,-310.599 160.573,-295.775"/>
<polygon fill="green" stroke="green" stroke-width="0.507266" points="162.607,-292.926 152.501,-289.743 158.416,-298.533 162.607,-292.926"/>
</g>
<!-- 104&#45;&gt;2532 -->
<g id="edge25" class="edge"><title>104&#45;&gt;2532</title>
<path fill="none" stroke="green" stroke-width="0.233432" d="M258.506,-367.086C275.89,-377.094 301.872,-393.81 320,-413.345 350.097,-445.778 358.466,-456.409 371,-498.843 378.208,-523.244 378.964,-552.048 378.048,-573.952"/>
<polygon fill="green" stroke="green" stroke-width="0.233432" points="374.544,-573.923 377.485,-584.101 381.534,-574.31 374.544,-573.923"/>
</g>
<!-- 104&#45;&gt;104 -->
<g id="edge1" class="edge"><title>104&#45;&gt;104</title>
<path fill="none" stroke="red" stroke-width="0.824799" stroke-dasharray="1,5" d="M256.52,-369.667C267.955,-373.769 279.213,-369.257 279.213,-356.132 279.213,-347.109 273.892,-342.156 266.85,-341.275"/>
<polygon fill="red" stroke="red" stroke-width="0.824799" points="265.995,-337.856 256.52,-342.597 266.884,-344.799 265.995,-337.856"/>
</g>
<!-- 1643&#45;&gt;OA -->
<g id="edge28" class="edge"><title>1643&#45;&gt;OA</title>
<path fill="none" stroke="red" stroke-width="0.124313" d="M259.36,-432.331C329.986,-418.524 534.785,-378.484 613.073,-363.179"/>
<polygon fill="red" stroke="red" stroke-width="0.124313" points="614.11,-366.542 623.252,-361.188 612.767,-359.672 614.11,-366.542"/>
</g>
<!-- 1643&#45;&gt;309 -->
<g id="edge11" class="edge"><title>1643&#45;&gt;309</title>
<path fill="none" stroke="green" stroke-width="0.54277" stroke-dasharray="1,5" d="M218.997,-457.405C194.878,-486.955 152,-547.945 152,-608.089 152,-695.586 152,-695.586 152,-695.586 152,-762.411 222.694,-814.717 262.886,-839.054"/>
<polygon fill="green" stroke="green" stroke-width="0.54277" points="261.281,-842.171 271.675,-844.226 264.831,-836.138 261.281,-842.171"/>
</g>
<!-- 1643&#45;&gt;2913 -->
<g id="edge23" class="edge"><title>1643&#45;&gt;2913</title>
<path fill="none" stroke="green" stroke-width="0.849985" stroke-dasharray="1,5" d="M222.082,-416.586C204.148,-388.116 171.617,-336.474 151.222,-304.097"/>
<polygon fill="green" stroke="green" stroke-width="0.849985" points="154.105,-302.107 145.813,-295.511 148.182,-305.838 154.105,-302.107"/>
</g>
<!-- 1643&#45;&gt;104 -->
<g id="edge12" class="edge"><title>1643&#45;&gt;104</title>
<path fill="none" stroke="green" stroke-width="0.203759" d="M236.5,-413.103C237.002,-405.081 237.568,-396.031 238.096,-387.584"/>
<polygon fill="green" stroke="green" stroke-width="0.203759" points="241.606,-387.528 238.737,-377.329 234.62,-387.091 241.606,-387.528"/>
</g>
<!-- 1643&#45;&gt;1643 -->
<g id="edge16" class="edge"><title>1643&#45;&gt;1643</title>
<path fill="none" stroke="green" stroke-width="0.323572" stroke-dasharray="1,5" d="M255.674,-452.376C267.166,-455.042 277.749,-450.281 277.749,-438.094 277.749,-429.715 272.747,-424.846 265.886,-423.488"/>
<polygon fill="green" stroke="green" stroke-width="0.323572" points="265.558,-419.997 255.674,-423.812 265.78,-426.993 265.558,-419.997"/>
</g>
</g>
</svg>
