<?xml version="1.0" encoding="UTF-8" standalone="no"?>
<!DOCTYPE svg PUBLIC "-//W3C//DTD SVG 1.1//EN"
 "http://www.w3.org/Graphics/SVG/1.1/DTD/svg11.dtd">
<!-- Generated by graphviz version 2.38.0 (20140413.2041)
 -->
<!-- Title: %3 Pages: 1 -->
<svg width="93pt" height="177pt"
 viewBox="0.00 0.00 92.68 177.20" xmlns="http://www.w3.org/2000/svg" xmlns:xlink="http://www.w3.org/1999/xlink">
<g id="graph0" class="graph" transform="scale(1 1) rotate(0) translate(4 173.196)">
<title>%3</title>
<polygon fill="white" stroke="none" points="-4,4 -4,-173.196 88.6803,-173.196 88.6803,4 -4,4"/>
<!-- IA -->
<g id="node1" class="node"><title>IA</title>
<polygon fill="lightgray" stroke="black" points="26,-169.196 0,-169.196 0,-151.196 26,-151.196 26,-169.196"/>
<text text-anchor="middle" x="13" y="-157.996" font-family="Times,serif" font-size="9.00">IA</text>
</g>
<!-- OA -->
<g id="node3" class="node"><title>OA</title>
<ellipse fill="lightblue" stroke="black" cx="36" cy="-21.2132" rx="21.4286" ry="21.4286"/>
<text text-anchor="middle" x="36" y="-19.0132" font-family="Times,serif" font-size="9.00">OA</text>
</g>
<!-- IA&#45;&gt;OA -->
<g id="edge4" class="edge"><title>IA&#45;&gt;OA</title>
<path fill="none" stroke="green" stroke-width="0.236389" stroke-dasharray="1,5" d="M11.1585,-151.045C8.14957,-136.329 3.07748,-104.436 9,-78.4264 11.3192,-68.2411 15.7256,-57.7484 20.3163,-48.6268"/>
<polygon fill="green" stroke="green" stroke-width="0.236389" points="23.4664,-50.1579 25.0874,-39.6878 17.291,-46.8618 23.4664,-50.1579"/>
</g>
<!-- 30 -->
<g id="node4" class="node"><title>30</title>
<ellipse fill="white" stroke="black" cx="36" cy="-96.8112" rx="18.2703" ry="18.2703"/>
<text text-anchor="middle" x="36" y="-94.6112" font-family="Times,serif" font-size="9.00">30</text>
</g>
<!-- IA&#45;&gt;30 -->
<g id="edge1" class="edge"><title>IA&#45;&gt;30</title>
<path fill="none" stroke="green" stroke-width="0.352996" stroke-dasharray="1,5" d="M16.0068,-151.171C18.6187,-144.2 22.5512,-133.705 26.2394,-123.861"/>
<polygon fill="green" stroke="green" stroke-width="0.352996" points="29.557,-124.982 29.7882,-114.39 23.002,-122.526 29.557,-124.982"/>
</g>
<!-- IB -->
<g id="node2" class="node"><title>IB</title>
<polygon fill="lightgray" stroke="black" points="71,-169.196 45,-169.196 45,-151.196 71,-151.196 71,-169.196"/>
<text text-anchor="middle" x="58" y="-157.996" font-family="Times,serif" font-size="9.00">IB</text>
</g>
<!-- IB&#45;&gt;OA -->
<g id="edge5" class="edge"><title>IB&#45;&gt;OA</title>
<path fill="none" stroke="red" stroke-width="1.27818" d="M63.8896,-150.924C69.5486,-142.428 77.7106,-128.589 81,-115.196 84.8977,-99.3256 86.4118,-93.8463 81,-78.4264 76.4721,-65.5248 67.5989,-53.3864 58.9201,-43.7141"/>
<polygon fill="red" stroke="red" stroke-width="1.27818" points="61.2046,-41.0377 51.7752,-36.2068 56.134,-45.8635 61.2046,-41.0377"/>
</g>
<!-- IB&#45;&gt;30 -->
<g id="edge2" class="edge"><title>IB&#45;&gt;30</title>
<path fill="none" stroke="green" stroke-width="0.229845" d="M55.1239,-151.171C52.6256,-144.2 48.864,-133.705 45.3362,-123.861"/>
<polygon fill="green" stroke="green" stroke-width="0.229845" points="48.6104,-122.623 41.9417,-114.39 42.0208,-124.984 48.6104,-122.623"/>
</g>
<!-- OA&#45;&gt;OA -->
<g id="edge6" class="edge"><title>OA&#45;&gt;OA</title>
<path fill="none" stroke="green" stroke-width="1.26585" d="M53.3366,-33.9907C64.4845,-37.3239 75.2132,-33.0648 75.2132,-21.2132 75.2132,-13.0653 70.1422,-8.5059 63.3503,-7.53515"/>
<polygon fill="green" stroke="green" stroke-width="1.26585" points="62.9829,-4.05398 53.3366,-8.43574 63.61,-11.0258 62.9829,-4.05398"/>
</g>
<!-- 30&#45;&gt;OA -->
<g id="edge3" class="edge"><title>30&#45;&gt;OA</title>
<path fill="none" stroke="green" stroke-width="0.723917" d="M36,-78.3695C36,-70.754 36,-61.5922 36,-52.8988"/>
<polygon fill="green" stroke="green" stroke-width="0.723917" points="39.5001,-52.6624 36,-42.6624 32.5001,-52.6624 39.5001,-52.6624"/>
</g>
<!-- 30&#45;&gt;30 -->
<g id="edge7" class="edge"><title>30&#45;&gt;30</title>
<path fill="none" stroke="green" stroke-width="0.478879" d="M51.3287,-107.301C61.9384,-110.48 72.3848,-106.983 72.3848,-96.8112 72.3848,-89.977 67.6691,-86.1561 61.3566,-85.3485"/>
<polygon fill="green" stroke="green" stroke-width="0.478879" points="60.944,-81.872 51.3287,-86.3214 61.62,-88.8393 60.944,-81.872"/>
</g>
</g>
</svg>
