<?xml version="1.0" encoding="UTF-8" standalone="no"?>
<!DOCTYPE svg PUBLIC "-//W3C//DTD SVG 1.1//EN"
 "http://www.w3.org/Graphics/SVG/1.1/DTD/svg11.dtd">
<!-- Generated by graphviz version 2.38.0 (20140413.2041)
 -->
<!-- Title: %3 Pages: 1 -->
<svg width="309pt" height="220pt"
 viewBox="0.00 0.00 309.50 220.01" xmlns="http://www.w3.org/2000/svg" xmlns:xlink="http://www.w3.org/1999/xlink">
<g id="graph0" class="graph" transform="scale(1 1) rotate(0) translate(4 216.007)">
<title>%3</title>
<polygon fill="white" stroke="none" points="-4,4 -4,-216.007 305.497,-216.007 305.497,4 -4,4"/>
<!-- IA -->
<g id="node1" class="node"><title>IA</title>
<polygon fill="lightgray" stroke="black" points="104.749,-196.258 78.7487,-196.258 78.7487,-178.258 104.749,-178.258 104.749,-196.258"/>
<text text-anchor="middle" x="91.7487" y="-185.058" font-family="Times,serif" font-size="9.00">IA</text>
</g>
<!-- 1569 -->
<g id="node5" class="node"><title>1569</title>
<ellipse fill="white" stroke="black" cx="24.7487" cy="-101.761" rx="25" ry="25"/>
<text text-anchor="middle" x="24.7487" y="-99.5609" font-family="Times,serif" font-size="9.00">1569</text>
</g>
<!-- IA&#45;&gt;1569 -->
<g id="edge3" class="edge"><title>IA&#45;&gt;1569</title>
<path fill="none" stroke="green" stroke-width="0.267959" d="M85.3245,-178.252C76.3737,-167.098 59.7204,-146.344 46.1371,-129.416"/>
<polygon fill="green" stroke="green" stroke-width="0.267959" points="48.751,-127.081 39.7627,-121.472 43.2913,-131.462 48.751,-127.081"/>
</g>
<!-- 1566 -->
<g id="node6" class="node"><title>1566</title>
<ellipse fill="white" stroke="black" cx="91.7487" cy="-101.761" rx="25" ry="25"/>
<text text-anchor="middle" x="91.7487" y="-99.5609" font-family="Times,serif" font-size="9.00">1566</text>
</g>
<!-- IA&#45;&gt;1566 -->
<g id="edge1" class="edge"><title>IA&#45;&gt;1566</title>
<path fill="none" stroke="red" stroke-width="0.163176" d="M91.7487,-178.252C91.7487,-168.701 91.7487,-152.112 91.7487,-136.913"/>
<polygon fill="red" stroke="red" stroke-width="0.163176" points="95.2488,-136.716 91.7487,-126.716 88.2488,-136.716 95.2488,-136.716"/>
</g>
<!-- 1568 -->
<g id="node8" class="node"><title>1568</title>
<ellipse fill="none" stroke="black" cx="176.749" cy="-101.761" rx="25" ry="25"/>
<text text-anchor="middle" x="176.749" y="-99.5609" font-family="Times,serif" font-size="9.00">1568</text>
</g>
<!-- IA&#45;&gt;1568 -->
<g id="edge2" class="edge"><title>IA&#45;&gt;1568</title>
<path fill="none" stroke="red" stroke-width="0.1" d="M99.8989,-178.252C111.824,-166.538 134.528,-144.236 152.178,-126.897"/>
<polygon fill="red" stroke="red" stroke-width="0.1" points="154.706,-129.32 159.388,-119.815 149.801,-124.326 154.706,-129.32"/>
</g>
<!-- IB -->
<g id="node2" class="node"><title>IB</title>
<polygon fill="lightgray" stroke="black" points="48.7487,-196.258 22.7487,-196.258 22.7487,-178.258 48.7487,-178.258 48.7487,-196.258"/>
<text text-anchor="middle" x="35.7487" y="-185.058" font-family="Times,serif" font-size="9.00">IB</text>
</g>
<!-- IB&#45;&gt;1569 -->
<g id="edge5" class="edge"><title>IB&#45;&gt;1569</title>
<path fill="none" stroke="green" stroke-width="0.158637" d="M34.694,-178.252C33.427,-168.635 31.2198,-151.881 29.2062,-136.596"/>
<polygon fill="green" stroke="green" stroke-width="0.158637" points="32.6332,-135.812 27.857,-126.355 25.6932,-136.726 32.6332,-135.812"/>
</g>
<!-- IB&#45;&gt;1566 -->
<g id="edge4" class="edge"><title>IB&#45;&gt;1566</title>
<path fill="none" stroke="red" stroke-width="0.150165" d="M41.1183,-178.252C48.345,-167.477 61.5791,-147.745 72.7047,-131.156"/>
<polygon fill="red" stroke="red" stroke-width="0.150165" points="75.6242,-133.087 78.2875,-122.832 69.8106,-129.188 75.6242,-133.087"/>
</g>
<!-- OA -->
<g id="node3" class="node"><title>OA</title>
<ellipse fill="lightblue" stroke="black" cx="258.749" cy="-101.761" rx="21.4286" ry="21.4286"/>
<text text-anchor="middle" x="258.749" y="-99.5609" font-family="Times,serif" font-size="9.00">OA</text>
</g>
<!-- OA&#45;&gt;OA -->
<g id="edge9" class="edge"><title>OA&#45;&gt;OA</title>
<path fill="none" stroke="green" stroke-width="0.137811" d="M275.269,-115.296C286.703,-119.398 297.962,-114.886 297.962,-101.761 297.962,-92.7375 292.641,-87.7852 285.599,-86.904"/>
<polygon fill="green" stroke="green" stroke-width="0.137811" points="284.744,-83.4848 275.269,-88.2258 285.632,-90.4282 284.744,-83.4848"/>
</g>
<!-- OB -->
<g id="node4" class="node"><title>OB</title>
<ellipse fill="lightblue" stroke="black" cx="57.7487" cy="-20.5061" rx="20.5122" ry="20.5122"/>
<text text-anchor="middle" x="57.7487" y="-18.3061" font-family="Times,serif" font-size="9.00">OB</text>
</g>
<!-- 1569&#45;&gt;OB -->
<g id="edge8" class="edge"><title>1569&#45;&gt;OB</title>
<path fill="none" stroke="red" stroke-width="0.107639" d="M33.9411,-78.684C37.7744,-69.4777 42.2671,-58.6877 46.3108,-48.9763"/>
<polygon fill="red" stroke="red" stroke-width="0.107639" points="49.5508,-50.3 50.1636,-39.7229 43.0886,-47.6093 49.5508,-50.3"/>
</g>
<!-- 1566&#45;&gt;OB -->
<g id="edge6" class="edge"><title>1566&#45;&gt;OB</title>
<path fill="none" stroke="green" stroke-width="0.192345" d="M82.2778,-78.684C78.3284,-69.4777 73.6995,-58.6877 69.5333,-48.9763"/>
<polygon fill="green" stroke="green" stroke-width="0.192345" points="72.7228,-47.5331 65.5637,-39.7229 66.2897,-50.2929 72.7228,-47.5331"/>
</g>
<!-- 1566&#45;&gt;1566 -->
<g id="edge10" class="edge"><title>1566&#45;&gt;1566</title>
<path fill="none" stroke="green" stroke-width="0.28479" d="M112.422,-116.043C123.915,-118.709 134.497,-113.948 134.497,-101.761 134.497,-93.382 129.495,-88.5134 122.635,-87.1551"/>
<polygon fill="green" stroke="green" stroke-width="0.28479" points="122.306,-83.6637 112.422,-87.4787 122.528,-90.6602 122.306,-83.6637"/>
</g>
<!-- 1567 -->
<g id="node7" class="node"><title>1567</title>
<ellipse fill="white" stroke="black" cx="258.749" cy="-187.258" rx="25" ry="25"/>
<text text-anchor="middle" x="258.749" y="-185.058" font-family="Times,serif" font-size="9.00">1567</text>
</g>
<!-- 1567&#45;&gt;OA -->
<g id="edge7" class="edge"><title>1567&#45;&gt;OA</title>
<path fill="none" stroke="red" stroke-width="0.1" d="M258.749,-162.107C258.749,-153.149 258.749,-142.867 258.749,-133.406"/>
<polygon fill="red" stroke="red" stroke-width="0.1" points="262.249,-133.187 258.749,-123.187 255.249,-133.187 262.249,-133.187"/>
</g>
<!-- 1567&#45;&gt;1567 -->
<g id="edge11" class="edge"><title>1567&#45;&gt;1567</title>
<path fill="none" stroke="green" stroke-width="0.22279" d="M278.98,-202.143C290.642,-205.181 301.497,-200.219 301.497,-187.258 301.497,-178.348 296.366,-173.218 289.37,-171.869"/>
<polygon fill="green" stroke="green" stroke-width="0.22279" points="288.798,-168.393 278.98,-172.374 289.138,-175.385 288.798,-168.393"/>
</g>
<!-- 1568&#45;&gt;1568 -->
<g id="edge12" class="edge"><title>1568&#45;&gt;1568</title>
<path fill="none" stroke="red" stroke-width="0.2554" d="M197.422,-116.043C208.915,-118.709 219.497,-113.948 219.497,-101.761 219.497,-93.382 214.495,-88.5134 207.635,-87.1551"/>
<polygon fill="red" stroke="red" stroke-width="0.2554" points="207.306,-83.6637 197.422,-87.4787 207.528,-90.6602 207.306,-83.6637"/>
</g>
</g>
</svg>
