<?xml version="1.0" encoding="UTF-8" standalone="no"?>
<!DOCTYPE svg PUBLIC "-//W3C//DTD SVG 1.1//EN"
 "http://www.w3.org/Graphics/SVG/1.1/DTD/svg11.dtd">
<!-- Generated by graphviz version 2.38.0 (20140413.2041)
 -->
<!-- Title: %3 Pages: 1 -->
<svg width="294pt" height="129pt"
 viewBox="0.00 0.00 294.21 128.85" xmlns="http://www.w3.org/2000/svg" xmlns:xlink="http://www.w3.org/1999/xlink">
<g id="graph0" class="graph" transform="scale(1 1) rotate(0) translate(4 124.853)">
<title>%3</title>
<polygon fill="white" stroke="none" points="-4,4 -4,-124.853 290.213,-124.853 290.213,4 -4,4"/>
<!-- IA -->
<g id="node1" class="node"><title>IA</title>
<polygon fill="lightgray" stroke="black" points="286.213,-108.64 260.213,-108.64 260.213,-90.6396 286.213,-90.6396 286.213,-108.64"/>
<text text-anchor="middle" x="273.213" y="-97.4396" font-family="Times,serif" font-size="9.00">IA</text>
</g>
<!-- OA -->
<g id="node3" class="node"><title>OA</title>
<ellipse fill="lightblue" stroke="black" cx="159.213" cy="-21.2132" rx="21.4286" ry="21.4286"/>
<text text-anchor="middle" x="159.213" y="-19.0132" font-family="Times,serif" font-size="9.00">OA</text>
</g>
<!-- IA&#45;&gt;OA -->
<g id="edge6" class="edge"><title>IA&#45;&gt;OA</title>
<path fill="none" stroke="green" stroke-width="0.120064" d="M264.982,-90.3648C260.986,-86.5371 256.018,-82.0474 251.213,-78.4264 230.497,-62.8149 205.248,-47.6321 186.446,-36.989"/>
<polygon fill="green" stroke="green" stroke-width="0.120064" points="187.958,-33.8246 177.521,-32.0031 184.544,-39.9357 187.958,-33.8246"/>
</g>
<!-- 777 -->
<g id="node7" class="node"><title>777</title>
<ellipse fill="none" stroke="black" cx="255.213" cy="-21.2132" rx="21.4286" ry="21.4286"/>
<text text-anchor="middle" x="255.213" y="-19.0132" font-family="Times,serif" font-size="9.00">777</text>
</g>
<!-- IA&#45;&gt;777 -->
<g id="edge1" class="edge"><title>IA&#45;&gt;777</title>
<path fill="none" stroke="red" stroke-width="0.1" d="M271.287,-90.4606C269.112,-81.2266 265.449,-65.6718 262.168,-51.7424"/>
<polygon fill="red" stroke="red" stroke-width="0.1" points="265.573,-50.9318 259.874,-42.0005 258.759,-52.5366 265.573,-50.9318"/>
</g>
<!-- IB -->
<g id="node2" class="node"><title>IB</title>
<polygon fill="lightgray" stroke="black" points="242.213,-108.64 216.213,-108.64 216.213,-90.6396 242.213,-90.6396 242.213,-108.64"/>
<text text-anchor="middle" x="229.213" y="-97.4396" font-family="Times,serif" font-size="9.00">IB</text>
</g>
<!-- IB&#45;&gt;OA -->
<g id="edge7" class="edge"><title>IB&#45;&gt;OA</title>
<path fill="none" stroke="red" stroke-width="0.1" d="M221.722,-90.4606C211.871,-79.705 194.165,-60.3736 180.106,-45.0242"/>
<polygon fill="red" stroke="red" stroke-width="0.1" points="182.483,-42.4372 173.148,-37.4269 177.321,-47.1652 182.483,-42.4372"/>
</g>
<!-- IB&#45;&gt;777 -->
<g id="edge2" class="edge"><title>IB&#45;&gt;777</title>
<path fill="none" stroke="green" stroke-width="0.245449" d="M231.996,-90.4606C235.158,-81.1647 240.5,-65.4627 245.263,-51.4621"/>
<polygon fill="green" stroke="green" stroke-width="0.245449" points="248.682,-52.2786 248.589,-41.6842 242.055,-50.0241 248.682,-52.2786"/>
</g>
<!-- OA&#45;&gt;OA -->
<g id="edge8" class="edge"><title>OA&#45;&gt;OA</title>
<path fill="none" stroke="green" stroke-width="0.176452" d="M176.142,-34.5492C187.434,-38.3031 198.426,-33.8577 198.426,-21.2132 198.426,-12.5201 193.231,-7.70237 186.314,-6.76005"/>
<polygon fill="green" stroke="green" stroke-width="0.176452" points="185.7,-3.30638 176.142,-7.87717 186.464,-10.2645 185.7,-3.30638"/>
</g>
<!-- 778 -->
<g id="node4" class="node"><title>778</title>
<ellipse fill="white" stroke="black" cx="21.2132" cy="-99.6396" rx="21.4286" ry="21.4286"/>
<text text-anchor="middle" x="21.2132" y="-97.4396" font-family="Times,serif" font-size="9.00">778</text>
</g>
<!-- 778&#45;&gt;OA -->
<g id="edge3" class="edge"><title>778&#45;&gt;OA</title>
<path fill="none" stroke="green" stroke-width="0.104164" d="M38.1316,-86.7553C42.3455,-83.9308 46.8947,-80.994 51.2132,-78.4264 77.6441,-62.7118 108.911,-46.705 130.982,-35.8126"/>
<polygon fill="green" stroke="green" stroke-width="0.104164" points="132.691,-38.8731 140.131,-31.3305 129.611,-32.5869 132.691,-38.8731"/>
</g>
<!-- 779 -->
<g id="node5" class="node"><title>779</title>
<ellipse fill="white" stroke="black" cx="81.2132" cy="-99.6396" rx="21.4286" ry="21.4286"/>
<text text-anchor="middle" x="81.2132" y="-97.4396" font-family="Times,serif" font-size="9.00">779</text>
</g>
<!-- 779&#45;&gt;OA -->
<g id="edge4" class="edge"><title>779&#45;&gt;OA</title>
<path fill="none" stroke="green" stroke-width="0.189527" d="M95.8844,-84.2644C107.468,-72.9146 123.819,-56.8934 137.005,-43.9737"/>
<polygon fill="green" stroke="green" stroke-width="0.189527" points="139.649,-46.2825 144.343,-36.7838 134.75,-41.2825 139.649,-46.2825"/>
</g>
<!-- 779&#45;&gt;779 -->
<g id="edge9" class="edge"><title>779&#45;&gt;779</title>
<path fill="none" stroke="green" stroke-width="0.126227" d="M98.1418,-112.976C109.434,-116.729 120.426,-112.284 120.426,-99.6396 120.426,-90.9465 115.231,-86.1288 108.314,-85.1865"/>
<polygon fill="green" stroke="green" stroke-width="0.126227" points="107.7,-81.7328 98.1418,-86.3036 108.464,-88.691 107.7,-81.7328"/>
</g>
<!-- 780 -->
<g id="node6" class="node"><title>780</title>
<ellipse fill="white" stroke="black" cx="159.213" cy="-99.6396" rx="21.4286" ry="21.4286"/>
<text text-anchor="middle" x="159.213" y="-97.4396" font-family="Times,serif" font-size="9.00">780</text>
</g>
<!-- 780&#45;&gt;OA -->
<g id="edge5" class="edge"><title>780&#45;&gt;OA</title>
<path fill="none" stroke="green" stroke-width="0.267508" d="M159.213,-78.1587C159.213,-70.3001 159.213,-61.1558 159.213,-52.5655"/>
<polygon fill="green" stroke="green" stroke-width="0.267508" points="162.713,-52.4856 159.213,-42.4856 155.713,-52.4856 162.713,-52.4856"/>
</g>
<!-- 780&#45;&gt;780 -->
<g id="edge10" class="edge"><title>780&#45;&gt;780</title>
<path fill="none" stroke="red" stroke-width="0.1" d="M176.142,-112.976C187.434,-116.729 198.426,-112.284 198.426,-99.6396 198.426,-90.9465 193.231,-86.1288 186.314,-85.1865"/>
<polygon fill="red" stroke="red" stroke-width="0.1" points="185.7,-81.7328 176.142,-86.3036 186.464,-88.691 185.7,-81.7328"/>
</g>
</g>
</svg>
