<?xml version="1.0" encoding="UTF-8" standalone="no"?>
<!DOCTYPE svg PUBLIC "-//W3C//DTD SVG 1.1//EN"
 "http://www.w3.org/Graphics/SVG/1.1/DTD/svg11.dtd">
<!-- Generated by graphviz version 2.38.0 (20140413.2041)
 -->
<!-- Title: %3 Pages: 1 -->
<svg width="354pt" height="183pt"
 viewBox="0.00 0.00 353.80 182.85" xmlns="http://www.w3.org/2000/svg" xmlns:xlink="http://www.w3.org/1999/xlink">
<g id="graph0" class="graph" transform="scale(1 1) rotate(0) translate(4 178.853)">
<title>%3</title>
<polygon fill="white" stroke="none" points="-4,4 -4,-178.853 349.798,-178.853 349.798,4 -4,4"/>
<!-- IA -->
<g id="node1" class="node"><title>IA</title>
<polygon fill="lightgray" stroke="black" points="48.5184,-174.853 22.5184,-174.853 22.5184,-156.853 48.5184,-156.853 48.5184,-174.853"/>
<text text-anchor="middle" x="35.5184" y="-163.653" font-family="Times,serif" font-size="9.00">IA</text>
</g>
<!-- OA -->
<g id="node3" class="node"><title>OA</title>
<ellipse fill="lightblue" stroke="black" cx="84.5184" cy="-21.2132" rx="21.4286" ry="21.4286"/>
<text text-anchor="middle" x="84.5184" y="-19.0132" font-family="Times,serif" font-size="9.00">OA</text>
</g>
<!-- IA&#45;&gt;OA -->
<g id="edge10" class="edge"><title>IA&#45;&gt;OA</title>
<path fill="none" stroke="red" stroke-width="0.1" d="M27.5883,-156.582C20.2427,-148.301 9.8243,-134.812 5.5184,-120.853 -0.0397379,-102.834 -3.12499,-95.1849 5.5184,-78.4264 16.0001,-58.1036 37.6025,-43.5205 55.572,-34.3082"/>
<polygon fill="red" stroke="red" stroke-width="0.1" points="57.5871,-37.2233 65.0876,-29.7405 54.5578,-30.9127 57.5871,-37.2233"/>
</g>
<!-- 685 -->
<g id="node6" class="node"><title>685</title>
<ellipse fill="white" stroke="black" cx="35.5184" cy="-99.6396" rx="21.4286" ry="21.4286"/>
<text text-anchor="middle" x="35.5184" y="-97.4396" font-family="Times,serif" font-size="9.00">685</text>
</g>
<!-- IA&#45;&gt;685 -->
<g id="edge2" class="edge"><title>IA&#45;&gt;685</title>
<path fill="none" stroke="red" stroke-width="0.16418" d="M35.5184,-156.72C35.5184,-150.177 35.5184,-140.548 35.5184,-131.109"/>
<polygon fill="red" stroke="red" stroke-width="0.16418" points="39.0185,-131.095 35.5184,-121.095 32.0185,-131.095 39.0185,-131.095"/>
</g>
<!-- 682 -->
<g id="node7" class="node"><title>682</title>
<ellipse fill="none" stroke="black" cx="95.5184" cy="-99.6396" rx="21.4286" ry="21.4286"/>
<text text-anchor="middle" x="95.5184" y="-97.4396" font-family="Times,serif" font-size="9.00">682</text>
</g>
<!-- IA&#45;&gt;682 -->
<g id="edge1" class="edge"><title>IA&#45;&gt;682</title>
<path fill="none" stroke="red" stroke-width="0.1" d="M43.1174,-156.72C50.9811,-148.304 63.6156,-134.783 74.508,-123.125"/>
<polygon fill="red" stroke="red" stroke-width="0.1" points="77.0768,-125.503 81.3467,-115.806 71.9621,-120.724 77.0768,-125.503"/>
</g>
<!-- IB -->
<g id="node2" class="node"><title>IB</title>
<polygon fill="lightgray" stroke="black" points="175.518,-174.853 149.518,-174.853 149.518,-156.853 175.518,-156.853 175.518,-174.853"/>
<text text-anchor="middle" x="162.518" y="-163.653" font-family="Times,serif" font-size="9.00">IB</text>
</g>
<!-- IB&#45;&gt;OA -->
<g id="edge11" class="edge"><title>IB&#45;&gt;OA</title>
<path fill="none" stroke="green" stroke-width="0.481821" d="M162.289,-156.67C161.515,-140.637 158.146,-104.394 143.518,-78.4264 135.169,-63.6034 121.645,-50.3029 109.651,-40.3651"/>
<polygon fill="green" stroke="green" stroke-width="0.481821" points="111.685,-37.5116 101.674,-34.045 107.338,-42.9983 111.685,-37.5116"/>
</g>
<!-- OB -->
<g id="node4" class="node"><title>OB</title>
<ellipse fill="lightblue" stroke="black" cx="211.518" cy="-21.2132" rx="20.5122" ry="20.5122"/>
<text text-anchor="middle" x="211.518" y="-19.0132" font-family="Times,serif" font-size="9.00">OB</text>
</g>
<!-- IB&#45;&gt;OB -->
<g id="edge12" class="edge"><title>IB&#45;&gt;OB</title>
<path fill="none" stroke="green" stroke-width="0.163404" d="M175.745,-163.587C212.989,-159.722 317.341,-146.732 337.518,-120.853 349.113,-105.982 347.782,-94.2444 337.518,-78.4264 316.525,-46.0722 272.094,-32.1795 242.014,-26.3243"/>
<polygon fill="green" stroke="green" stroke-width="0.163404" points="242.489,-22.8543 232.034,-24.5714 241.278,-29.7488 242.489,-22.8543"/>
</g>
<!-- IB&#45;&gt;685 -->
<g id="edge5" class="edge"><title>IB&#45;&gt;685</title>
<path fill="none" stroke="green" stroke-width="0.396255" d="M149.314,-159.686C130.326,-152.074 94.4166,-136.994 65.5184,-120.853 64.0106,-120.011 62.4805,-119.116 60.9504,-118.19"/>
<polygon fill="green" stroke="green" stroke-width="0.396255" points="62.6522,-115.124 52.3407,-112.691 58.884,-121.024 62.6522,-115.124"/>
</g>
<!-- IB&#45;&gt;682 -->
<g id="edge3" class="edge"><title>IB&#45;&gt;682</title>
<path fill="none" stroke="red" stroke-width="0.1" d="M154.033,-156.72C144.993,-148.056 130.308,-133.982 117.911,-122.1"/>
<polygon fill="red" stroke="red" stroke-width="0.1" points="120.2,-119.447 110.558,-115.054 115.356,-124.5 120.2,-119.447"/>
</g>
<!-- 683 -->
<g id="node8" class="node"><title>683</title>
<ellipse fill="none" stroke="black" cx="289.518" cy="-99.6396" rx="21.4286" ry="21.4286"/>
<text text-anchor="middle" x="289.518" y="-97.4396" font-family="Times,serif" font-size="9.00">683</text>
</g>
<!-- IB&#45;&gt;683 -->
<g id="edge4" class="edge"><title>IB&#45;&gt;683</title>
<path fill="none" stroke="red" stroke-width="0.1" d="M175.723,-159.686C194.71,-152.074 230.62,-136.994 259.518,-120.853 261.026,-120.011 262.556,-119.116 264.086,-118.19"/>
<polygon fill="red" stroke="red" stroke-width="0.1" points="266.153,-121.024 272.696,-112.691 262.385,-115.124 266.153,-121.024"/>
</g>
<!-- OA&#45;&gt;OA -->
<g id="edge13" class="edge"><title>OA&#45;&gt;OA</title>
<path fill="none" stroke="red" stroke-width="0.1" d="M101.447,-34.5492C112.74,-38.3031 123.732,-33.8577 123.732,-21.2132 123.732,-12.5201 118.536,-7.70237 111.619,-6.76005"/>
<polygon fill="red" stroke="red" stroke-width="0.1" points="111.005,-3.30638 101.447,-7.87717 111.769,-10.2645 111.005,-3.30638"/>
</g>
<!-- 684 -->
<g id="node5" class="node"><title>684</title>
<ellipse fill="white" stroke="black" cx="211.518" cy="-99.6396" rx="21.4286" ry="21.4286"/>
<text text-anchor="middle" x="211.518" y="-97.4396" font-family="Times,serif" font-size="9.00">684</text>
</g>
<!-- 684&#45;&gt;OA -->
<g id="edge6" class="edge"><title>684&#45;&gt;OA</title>
<path fill="none" stroke="red" stroke-width="0.129819" d="M193.592,-87.8517C172.129,-74.9359 135.986,-53.1854 111.23,-38.2877"/>
<polygon fill="red" stroke="red" stroke-width="0.129819" points="112.727,-35.1036 102.354,-32.9463 109.117,-41.1014 112.727,-35.1036"/>
</g>
<!-- 684&#45;&gt;OB -->
<g id="edge7" class="edge"><title>684&#45;&gt;OB</title>
<path fill="none" stroke="red" stroke-width="0.124918" d="M211.518,-78.1587C211.518,-70.1744 211.518,-60.8629 211.518,-52.1536"/>
<polygon fill="red" stroke="red" stroke-width="0.124918" points="215.018,-51.9585 211.518,-41.9586 208.018,-51.9586 215.018,-51.9585"/>
</g>
<!-- 684&#45;&gt;684 -->
<g id="edge16" class="edge"><title>684&#45;&gt;684</title>
<path fill="none" stroke="red" stroke-width="0.11893" d="M229.67,-111.241C240.52,-113.819 250.732,-109.952 250.732,-99.6396 250.732,-92.7109 246.122,-88.6917 239.806,-87.582"/>
<polygon fill="red" stroke="red" stroke-width="0.11893" points="239.502,-84.0921 229.67,-88.038 239.817,-91.085 239.502,-84.0921"/>
</g>
<!-- 685&#45;&gt;OA -->
<g id="edge8" class="edge"><title>685&#45;&gt;OA</title>
<path fill="none" stroke="red" stroke-width="0.16225" d="M46.6373,-81.2973C52.9022,-71.5257 60.8511,-59.1276 67.848,-48.2145"/>
<polygon fill="red" stroke="red" stroke-width="0.16225" points="70.9926,-49.7944 73.4435,-39.4869 65.0997,-46.0162 70.9926,-49.7944"/>
</g>
<!-- 685&#45;&gt;OB -->
<g id="edge9" class="edge"><title>685&#45;&gt;OB</title>
<path fill="none" stroke="red" stroke-width="0.106814" d="M52.242,-86.4057C56.4618,-83.5918 61.0625,-80.7474 65.5184,-78.4264 104.305,-58.2227 152.059,-41.196 182.155,-31.3424"/>
<polygon fill="red" stroke="red" stroke-width="0.106814" points="183.576,-34.5617 192.02,-28.1628 181.429,-27.8992 183.576,-34.5617"/>
</g>
<!-- 682&#45;&gt;682 -->
<g id="edge14" class="edge"><title>682&#45;&gt;682</title>
<path fill="none" stroke="green" stroke-width="0.137826" d="M113.67,-111.241C124.52,-113.819 134.732,-109.952 134.732,-99.6396 134.732,-92.7109 130.122,-88.6917 123.806,-87.582"/>
<polygon fill="green" stroke="green" stroke-width="0.137826" points="123.502,-84.0921 113.67,-88.038 123.817,-91.085 123.502,-84.0921"/>
</g>
<!-- 683&#45;&gt;683 -->
<g id="edge15" class="edge"><title>683&#45;&gt;683</title>
<path fill="none" stroke="red" stroke-width="0.1" d="M307.67,-111.241C318.52,-113.819 328.732,-109.952 328.732,-99.6396 328.732,-92.7109 324.122,-88.6917 317.806,-87.582"/>
<polygon fill="red" stroke="red" stroke-width="0.1" points="317.502,-84.0921 307.67,-88.038 317.817,-91.085 317.502,-84.0921"/>
</g>
</g>
</svg>
