<?xml version="1.0" encoding="UTF-8" standalone="no"?>
<!DOCTYPE svg PUBLIC "-//W3C//DTD SVG 1.1//EN"
 "http://www.w3.org/Graphics/SVG/1.1/DTD/svg11.dtd">
<!-- Generated by graphviz version 2.38.0 (20140413.2041)
 -->
<!-- Title: %3 Pages: 1 -->
<svg width="304pt" height="183pt"
 viewBox="0.00 0.00 304.43 182.85" xmlns="http://www.w3.org/2000/svg" xmlns:xlink="http://www.w3.org/1999/xlink">
<g id="graph0" class="graph" transform="scale(1 1) rotate(0) translate(4 178.853)">
<title>%3</title>
<polygon fill="white" stroke="none" points="-4,4 -4,-178.853 300.426,-178.853 300.426,4 -4,4"/>
<!-- IA -->
<g id="node1" class="node"><title>IA</title>
<polygon fill="lightgray" stroke="black" points="118.213,-174.853 92.2132,-174.853 92.2132,-156.853 118.213,-156.853 118.213,-174.853"/>
<text text-anchor="middle" x="105.213" y="-163.653" font-family="Times,serif" font-size="9.00">IA</text>
</g>
<!-- OA -->
<g id="node3" class="node"><title>OA</title>
<ellipse fill="lightblue" stroke="black" cx="135.213" cy="-21.2132" rx="21.4286" ry="21.4286"/>
<text text-anchor="middle" x="135.213" y="-19.0132" font-family="Times,serif" font-size="9.00">OA</text>
</g>
<!-- IA&#45;&gt;OA -->
<g id="edge9" class="edge"><title>IA&#45;&gt;OA</title>
<path fill="none" stroke="red" stroke-width="0.149024" d="M106.912,-156.775C111.062,-137.046 121.884,-85.589 128.879,-52.3292"/>
<polygon fill="red" stroke="red" stroke-width="0.149024" points="132.369,-52.7396 131.003,-42.2333 125.519,-51.2988 132.369,-52.7396"/>
</g>
<!-- 542 -->
<g id="node5" class="node"><title>542</title>
<ellipse fill="white" stroke="black" cx="81.2132" cy="-99.6396" rx="21.4286" ry="21.4286"/>
<text text-anchor="middle" x="81.2132" y="-97.4396" font-family="Times,serif" font-size="9.00">542</text>
</g>
<!-- IA&#45;&gt;542 -->
<g id="edge1" class="edge"><title>IA&#45;&gt;542</title>
<path fill="none" stroke="red" stroke-width="0.1" d="M102.174,-156.72C99.5545,-149.713 95.6124,-139.165 91.8512,-129.102"/>
<polygon fill="red" stroke="red" stroke-width="0.1" points="95.1291,-127.875 88.3495,-119.733 88.5721,-130.326 95.1291,-127.875"/>
</g>
<!-- 544 -->
<g id="node7" class="node"><title>544</title>
<ellipse fill="none" stroke="black" cx="21.2132" cy="-99.6396" rx="21.4286" ry="21.4286"/>
<text text-anchor="middle" x="21.2132" y="-97.4396" font-family="Times,serif" font-size="9.00">544</text>
</g>
<!-- IA&#45;&gt;544 -->
<g id="edge2" class="edge"><title>IA&#45;&gt;544</title>
<path fill="none" stroke="red" stroke-width="0.181078" d="M94.5745,-156.72C82.3941,-147.409 62.0378,-131.848 45.8543,-119.476"/>
<polygon fill="red" stroke="red" stroke-width="0.181078" points="47.9074,-116.64 37.8371,-113.348 43.6561,-122.201 47.9074,-116.64"/>
</g>
<!-- 545 -->
<g id="node8" class="node"><title>545</title>
<ellipse fill="none" stroke="black" cx="179.213" cy="-99.6396" rx="21.4286" ry="21.4286"/>
<text text-anchor="middle" x="179.213" y="-97.4396" font-family="Times,serif" font-size="9.00">545</text>
</g>
<!-- IA&#45;&gt;545 -->
<g id="edge3" class="edge"><title>IA&#45;&gt;545</title>
<path fill="none" stroke="red" stroke-width="0.1" d="M114.585,-156.72C124.859,-147.805 141.734,-133.162 155.665,-121.074"/>
<polygon fill="red" stroke="red" stroke-width="0.1" points="158.196,-123.512 163.455,-114.314 153.608,-118.225 158.196,-123.512"/>
</g>
<!-- IB -->
<g id="node2" class="node"><title>IB</title>
<polygon fill="lightgray" stroke="black" points="231.213,-174.853 205.213,-174.853 205.213,-156.853 231.213,-156.853 231.213,-174.853"/>
<text text-anchor="middle" x="218.213" y="-163.653" font-family="Times,serif" font-size="9.00">IB</text>
</g>
<!-- 543 -->
<g id="node6" class="node"><title>543</title>
<ellipse fill="white" stroke="black" cx="257.213" cy="-99.6396" rx="21.4286" ry="21.4286"/>
<text text-anchor="middle" x="257.213" y="-97.4396" font-family="Times,serif" font-size="9.00">543</text>
</g>
<!-- IB&#45;&gt;543 -->
<g id="edge4" class="edge"><title>IB&#45;&gt;543</title>
<path fill="none" stroke="green" stroke-width="0.136072" d="M223.153,-156.72C227.732,-149.18 234.802,-137.54 241.315,-126.815"/>
<polygon fill="green" stroke="green" stroke-width="0.136072" points="244.39,-128.496 246.589,-118.132 238.407,-124.862 244.39,-128.496"/>
</g>
<!-- IB&#45;&gt;545 -->
<g id="edge5" class="edge"><title>IB&#45;&gt;545</title>
<path fill="none" stroke="green" stroke-width="0.121547" d="M213.274,-156.72C208.694,-149.18 201.625,-137.54 195.111,-126.815"/>
<polygon fill="green" stroke="green" stroke-width="0.121547" points="198.02,-124.862 189.837,-118.132 192.037,-128.496 198.02,-124.862"/>
</g>
<!-- OA&#45;&gt;OA -->
<g id="edge10" class="edge"><title>OA&#45;&gt;OA</title>
<path fill="none" stroke="red" stroke-width="0.236632" d="M152.142,-34.5492C163.434,-38.3031 174.426,-33.8577 174.426,-21.2132 174.426,-12.5201 169.231,-7.70237 162.314,-6.76005"/>
<polygon fill="red" stroke="red" stroke-width="0.236632" points="161.7,-3.30638 152.142,-7.87717 162.464,-10.2645 161.7,-3.30638"/>
</g>
<!-- OB -->
<g id="node4" class="node"><title>OB</title>
<ellipse fill="lightblue" stroke="black" cx="75.2132" cy="-21.2132" rx="20.5122" ry="20.5122"/>
<text text-anchor="middle" x="75.2132" y="-19.0132" font-family="Times,serif" font-size="9.00">OB</text>
</g>
<!-- 542&#45;&gt;OA -->
<g id="edge6" class="edge"><title>542&#45;&gt;OA</title>
<path fill="none" stroke="green" stroke-width="0.128301" d="M93.1976,-81.6781C100.329,-71.5856 109.509,-58.5931 117.468,-47.3282"/>
<polygon fill="green" stroke="green" stroke-width="0.128301" points="120.35,-49.3141 123.262,-39.1273 114.633,-45.2747 120.35,-49.3141"/>
</g>
<!-- 542&#45;&gt;OB -->
<g id="edge7" class="edge"><title>542&#45;&gt;OB</title>
<path fill="none" stroke="green" stroke-width="0.148903" d="M79.6053,-78.1587C78.9735,-70.1115 78.236,-60.7162 77.5476,-51.948"/>
<polygon fill="green" stroke="green" stroke-width="0.148903" points="81.0148,-51.3919 76.7428,-41.6966 74.0363,-51.9398 81.0148,-51.3919"/>
</g>
<!-- 543&#45;&gt;OA -->
<g id="edge8" class="edge"><title>543&#45;&gt;OA</title>
<path fill="none" stroke="red" stroke-width="0.239326" d="M240.166,-86.9631C235.956,-84.1323 231.441,-81.1406 227.213,-78.4264 205.519,-64.4996 180.538,-49.2872 162.087,-38.2036"/>
<polygon fill="red" stroke="red" stroke-width="0.239326" points="163.719,-35.1013 153.341,-32.9656 160.122,-41.1066 163.719,-35.1013"/>
</g>
<!-- 543&#45;&gt;543 -->
<g id="edge11" class="edge"><title>543&#45;&gt;543</title>
<path fill="none" stroke="green" stroke-width="0.199361" d="M275.365,-111.241C286.215,-113.819 296.426,-109.952 296.426,-99.6396 296.426,-92.7109 291.817,-88.6917 285.501,-87.582"/>
<polygon fill="green" stroke="green" stroke-width="0.199361" points="285.197,-84.0921 275.365,-88.038 285.512,-91.085 285.197,-84.0921"/>
</g>
<!-- 545&#45;&gt;545 -->
<g id="edge12" class="edge"><title>545&#45;&gt;545</title>
<path fill="none" stroke="green" stroke-width="0.340786" d="M197.365,-111.241C208.215,-113.819 218.426,-109.952 218.426,-99.6396 218.426,-92.7109 213.817,-88.6917 207.501,-87.582"/>
<polygon fill="green" stroke="green" stroke-width="0.340786" points="207.197,-84.0921 197.365,-88.038 207.512,-91.085 207.197,-84.0921"/>
</g>
</g>
</svg>
