<?xml version="1.0" encoding="UTF-8" standalone="no"?>
<!DOCTYPE svg PUBLIC "-//W3C//DTD SVG 1.1//EN"
 "http://www.w3.org/Graphics/SVG/1.1/DTD/svg11.dtd">
<!-- Generated by graphviz version 2.38.0 (20140413.2041)
 -->
<!-- Title: %3 Pages: 1 -->
<svg width="299pt" height="136pt"
 viewBox="0.00 0.00 298.75 135.92" xmlns="http://www.w3.org/2000/svg" xmlns:xlink="http://www.w3.org/1999/xlink">
<g id="graph0" class="graph" transform="scale(1 1) rotate(0) translate(4 131.924)">
<title>%3</title>
<polygon fill="white" stroke="none" points="-4,4 -4,-131.924 294.749,-131.924 294.749,4 -4,4"/>
<!-- IA -->
<g id="node1" class="node"><title>IA</title>
<polygon fill="lightgray" stroke="black" points="26,-112.175 0,-112.175 0,-94.1751 26,-94.1751 26,-112.175"/>
<text text-anchor="middle" x="13" y="-100.975" font-family="Times,serif" font-size="9.00">IA</text>
</g>
<!-- OB -->
<g id="node4" class="node"><title>OB</title>
<ellipse fill="lightblue" stroke="black" cx="58" cy="-21.2132" rx="20.5122" ry="20.5122"/>
<text text-anchor="middle" x="58" y="-19.0132" font-family="Times,serif" font-size="9.00">OB</text>
</g>
<!-- IA&#45;&gt;OB -->
<g id="edge5" class="edge"><title>IA&#45;&gt;OB</title>
<path fill="none" stroke="red" stroke-width="0.282487" d="M17.6463,-93.919C23.6533,-83.245 34.3986,-64.1513 43.2913,-48.3495"/>
<polygon fill="red" stroke="red" stroke-width="0.282487" points="46.4091,-49.9458 48.2634,-39.5145 40.3088,-46.5127 46.4091,-49.9458"/>
</g>
<!-- IB -->
<g id="node2" class="node"><title>IB</title>
<polygon fill="lightgray" stroke="black" points="205,-112.175 179,-112.175 179,-94.1751 205,-94.1751 205,-112.175"/>
<text text-anchor="middle" x="192" y="-100.975" font-family="Times,serif" font-size="9.00">IB</text>
</g>
<!-- OA -->
<g id="node3" class="node"><title>OA</title>
<ellipse fill="lightblue" stroke="black" cx="136" cy="-21.2132" rx="21.4286" ry="21.4286"/>
<text text-anchor="middle" x="136" y="-19.0132" font-family="Times,serif" font-size="9.00">OA</text>
</g>
<!-- OB&#45;&gt;OB -->
<g id="edge6" class="edge"><title>OB&#45;&gt;OB</title>
<path fill="none" stroke="green" stroke-width="0.605302" d="M73.8214,-34.5982C85.1858,-38.9561 96.5061,-34.4945 96.5061,-21.2132 96.5061,-12.0823 91.1555,-7.12011 84.1185,-6.32651"/>
<polygon fill="green" stroke="green" stroke-width="0.605302" points="83.2116,-2.92166 73.8214,-7.82819 84.2218,-9.84839 83.2116,-2.92166"/>
</g>
<!-- 1178 -->
<g id="node5" class="node"><title>1178</title>
<ellipse fill="white" stroke="black" cx="136" cy="-103.175" rx="25" ry="25"/>
<text text-anchor="middle" x="136" y="-100.975" font-family="Times,serif" font-size="9.00">1178</text>
</g>
<!-- 1178&#45;&gt;OA -->
<g id="edge1" class="edge"><title>1178&#45;&gt;OA</title>
<path fill="none" stroke="red" stroke-width="3.1" d="M136,-78.1839C136,-70.2269 136,-61.2583 136,-52.8696"/>
<polygon fill="red" stroke="red" stroke-width="3.1" points="139.5,-52.674 136,-42.674 132.5,-52.674 139.5,-52.674"/>
</g>
<!-- 1178&#45;&gt;OB -->
<g id="edge2" class="edge"><title>1178&#45;&gt;OB</title>
<path fill="none" stroke="red" stroke-width="0.603692" d="M119.075,-84.8246C107.424,-72.8807 91.8543,-56.9191 79.3512,-44.1015"/>
<polygon fill="red" stroke="red" stroke-width="0.603692" points="81.5132,-41.3054 72.0251,-36.591 76.5024,-46.1934 81.5132,-41.3054"/>
</g>
<!-- 1179 -->
<g id="node6" class="node"><title>1179</title>
<ellipse fill="white" stroke="black" cx="69" cy="-103.175" rx="25" ry="25"/>
<text text-anchor="middle" x="69" y="-100.975" font-family="Times,serif" font-size="9.00">1179</text>
</g>
<!-- 1179&#45;&gt;OA -->
<g id="edge3" class="edge"><title>1179&#45;&gt;OA</title>
<path fill="none" stroke="green" stroke-width="1.02396" d="M84.5396,-83.6293C93.9622,-72.3837 106.076,-57.9258 116.184,-45.863"/>
<polygon fill="green" stroke="green" stroke-width="1.02396" points="119.063,-47.8763 122.803,-37.9634 113.698,-43.3805 119.063,-47.8763"/>
</g>
<!-- 1179&#45;&gt;OB -->
<g id="edge4" class="edge"><title>1179&#45;&gt;OB</title>
<path fill="none" stroke="red" stroke-width="0.193843" d="M65.7591,-78.6164C64.5931,-70.1399 63.263,-60.4714 62.0374,-51.5624"/>
<polygon fill="red" stroke="red" stroke-width="0.193843" points="65.493,-50.9994 60.6628,-41.5698 58.5584,-51.9535 65.493,-50.9994"/>
</g>
<!-- 1180 -->
<g id="node7" class="node"><title>1180</title>
<ellipse fill="none" stroke="black" cx="248" cy="-103.175" rx="25" ry="25"/>
<text text-anchor="middle" x="248" y="-100.975" font-family="Times,serif" font-size="9.00">1180</text>
</g>
<!-- 1180&#45;&gt;1180 -->
<g id="edge7" class="edge"><title>1180&#45;&gt;1180</title>
<path fill="none" stroke="red" stroke-width="0.171836" d="M268.674,-117.457C280.166,-120.123 290.749,-115.363 290.749,-103.175 290.749,-94.7962 285.747,-89.9276 278.886,-88.5693"/>
<polygon fill="red" stroke="red" stroke-width="0.171836" points="278.558,-85.0779 268.674,-88.8929 278.78,-92.0744 278.558,-85.0779"/>
</g>
</g>
</svg>
