<?xml version="1.0" encoding="UTF-8" standalone="no"?>
<!DOCTYPE svg PUBLIC "-//W3C//DTD SVG 1.1//EN"
 "http://www.w3.org/Graphics/SVG/1.1/DTD/svg11.dtd">
<!-- Generated by graphviz version 2.38.0 (20140413.2041)
 -->
<!-- Title: %3 Pages: 1 -->
<svg width="366pt" height="190pt"
 viewBox="0.00 0.00 365.78 189.92" xmlns="http://www.w3.org/2000/svg" xmlns:xlink="http://www.w3.org/1999/xlink">
<g id="graph0" class="graph" transform="scale(1 1) rotate(0) translate(4 185.924)">
<title>%3</title>
<polygon fill="white" stroke="none" points="-4,4 -4,-185.924 361.78,-185.924 361.78,4 -4,4"/>
<!-- IA -->
<g id="node1" class="node"><title>IA</title>
<polygon fill="lightgray" stroke="black" points="52.0308,-181.924 26.0308,-181.924 26.0308,-163.924 52.0308,-163.924 52.0308,-181.924"/>
<text text-anchor="middle" x="39.0308" y="-170.724" font-family="Times,serif" font-size="9.00">IA</text>
</g>
<!-- OB -->
<g id="node4" class="node"><title>OB</title>
<ellipse fill="lightblue" stroke="black" cx="39.0308" cy="-21.2132" rx="20.5122" ry="20.5122"/>
<text text-anchor="middle" x="39.0308" y="-19.0132" font-family="Times,serif" font-size="9.00">OB</text>
</g>
<!-- IA&#45;&gt;OB -->
<g id="edge9" class="edge"><title>IA&#45;&gt;OB</title>
<path fill="none" stroke="red" stroke-width="0.1" d="M30.0642,-163.863C21.7546,-155.736 9.95815,-142.359 5.03077,-127.924 -2.07584,-107.104 -0.879102,-99.6166 5.03077,-78.4264 8.18863,-67.1037 14.3145,-55.7869 20.5067,-46.3064"/>
<polygon fill="red" stroke="red" stroke-width="0.1" points="23.5543,-48.0533 26.3693,-37.8393 17.7991,-44.0685 23.5543,-48.0533"/>
</g>
<!-- 1163 -->
<g id="node5" class="node"><title>1163</title>
<ellipse fill="white" stroke="black" cx="106.031" cy="-103.175" rx="25" ry="25"/>
<text text-anchor="middle" x="106.031" y="-100.975" font-family="Times,serif" font-size="9.00">1163</text>
</g>
<!-- IA&#45;&gt;1163 -->
<g id="edge1" class="edge"><title>IA&#45;&gt;1163</title>
<path fill="none" stroke="green" stroke-width="0.13995" d="M46.9797,-163.886C55.5339,-155.236 69.5606,-141.053 81.7971,-128.68"/>
<polygon fill="green" stroke="green" stroke-width="0.13995" points="84.5767,-130.846 89.1198,-121.275 79.5995,-125.924 84.5767,-130.846"/>
</g>
<!-- 1165 -->
<g id="node6" class="node"><title>1165</title>
<ellipse fill="white" stroke="black" cx="39.0308" cy="-103.175" rx="25" ry="25"/>
<text text-anchor="middle" x="39.0308" y="-100.975" font-family="Times,serif" font-size="9.00">1165</text>
</g>
<!-- IA&#45;&gt;1165 -->
<g id="edge2" class="edge"><title>IA&#45;&gt;1165</title>
<path fill="none" stroke="red" stroke-width="0.1" d="M39.0308,-163.886C39.0308,-157.451 39.0308,-147.953 39.0308,-138.417"/>
<polygon fill="red" stroke="red" stroke-width="0.1" points="42.5309,-138.196 39.0308,-128.196 35.5309,-138.196 42.5309,-138.196"/>
</g>
<!-- IB -->
<g id="node2" class="node"><title>IB</title>
<polygon fill="lightgray" stroke="black" points="216.031,-181.924 190.031,-181.924 190.031,-163.924 216.031,-163.924 216.031,-181.924"/>
<text text-anchor="middle" x="203.031" y="-170.724" font-family="Times,serif" font-size="9.00">IB</text>
</g>
<!-- OA -->
<g id="node3" class="node"><title>OA</title>
<ellipse fill="lightblue" stroke="black" cx="147.031" cy="-21.2132" rx="21.4286" ry="21.4286"/>
<text text-anchor="middle" x="147.031" y="-19.0132" font-family="Times,serif" font-size="9.00">OA</text>
</g>
<!-- IB&#45;&gt;OA -->
<g id="edge10" class="edge"><title>IB&#45;&gt;OA</title>
<path fill="none" stroke="red" stroke-width="0.1" d="M200.02,-163.875C192.183,-142.924 170.854,-85.9019 157.77,-50.9228"/>
<polygon fill="red" stroke="red" stroke-width="0.1" points="160.939,-49.4044 154.157,-41.2644 154.382,-51.8568 160.939,-49.4044"/>
</g>
<!-- IB&#45;&gt;1163 -->
<g id="edge4" class="edge"><title>IB&#45;&gt;1163</title>
<path fill="none" stroke="green" stroke-width="0.113507" d="M191.523,-163.886C177.51,-154.099 153.353,-137.227 134.285,-123.909"/>
<polygon fill="green" stroke="green" stroke-width="0.113507" points="136.139,-120.935 125.936,-118.078 132.131,-126.674 136.139,-120.935"/>
</g>
<!-- 1162 -->
<g id="node7" class="node"><title>1162</title>
<ellipse fill="none" stroke="black" cx="230.031" cy="-103.175" rx="25" ry="25"/>
<text text-anchor="middle" x="230.031" y="-100.975" font-family="Times,serif" font-size="9.00">1162</text>
</g>
<!-- IB&#45;&gt;1162 -->
<g id="edge3" class="edge"><title>IB&#45;&gt;1162</title>
<path fill="none" stroke="red" stroke-width="0.126367" d="M206.234,-163.886C209.036,-156.855 213.295,-146.168 217.44,-135.769"/>
<polygon fill="red" stroke="red" stroke-width="0.126367" points="220.717,-136.998 221.168,-126.413 214.215,-134.407 220.717,-136.998"/>
</g>
<!-- 1164 -->
<g id="node8" class="node"><title>1164</title>
<ellipse fill="none" stroke="black" cx="315.031" cy="-103.175" rx="25" ry="25"/>
<text text-anchor="middle" x="315.031" y="-100.975" font-family="Times,serif" font-size="9.00">1164</text>
</g>
<!-- IB&#45;&gt;1164 -->
<g id="edge5" class="edge"><title>IB&#45;&gt;1164</title>
<path fill="none" stroke="green" stroke-width="0.306128" d="M216.16,-165.209C232.058,-156.943 259.504,-142.236 282.031,-127.924 283.684,-126.874 285.367,-125.772 287.053,-124.642"/>
<polygon fill="green" stroke="green" stroke-width="0.306128" points="289.162,-127.439 295.394,-118.871 285.179,-121.683 289.162,-127.439"/>
</g>
<!-- OB&#45;&gt;OB -->
<g id="edge11" class="edge"><title>OB&#45;&gt;OB</title>
<path fill="none" stroke="red" stroke-width="0.13394" d="M54.8521,-34.5982C66.2166,-38.9561 77.5369,-34.4945 77.5369,-21.2132 77.5369,-12.0823 72.1863,-7.12011 65.1493,-6.32651"/>
<polygon fill="red" stroke="red" stroke-width="0.13394" points="64.2424,-2.92166 54.8521,-7.82819 65.2526,-9.84839 64.2424,-2.92166"/>
</g>
<!-- 1163&#45;&gt;OA -->
<g id="edge6" class="edge"><title>1163&#45;&gt;OA</title>
<path fill="none" stroke="red" stroke-width="0.136754" d="M117.018,-80.7468C121.958,-71.1129 127.844,-59.6324 133.09,-49.4013"/>
<polygon fill="red" stroke="red" stroke-width="0.136754" points="136.234,-50.9407 137.682,-40.4453 130.005,-47.7469 136.234,-50.9407"/>
</g>
<!-- 1163&#45;&gt;OB -->
<g id="edge7" class="edge"><title>1163&#45;&gt;OB</title>
<path fill="none" stroke="red" stroke-width="0.217622" d="M90.4912,-83.6293C80.9429,-72.2337 68.6308,-57.5397 58.4437,-45.3818"/>
<polygon fill="red" stroke="red" stroke-width="0.217622" points="60.8959,-42.8588 51.7907,-37.4416 55.5304,-47.3545 60.8959,-42.8588"/>
</g>
<!-- 1163&#45;&gt;1163 -->
<g id="edge13" class="edge"><title>1163&#45;&gt;1163</title>
<path fill="none" stroke="red" stroke-width="0.145377" d="M127.586,-115.477C138.732,-117.369 148.78,-113.269 148.78,-103.175 148.78,-96.3934 144.244,-92.3171 137.887,-90.9462"/>
<polygon fill="red" stroke="red" stroke-width="0.145377" points="137.611,-87.4442 127.586,-90.8734 137.561,-94.444 137.611,-87.4442"/>
</g>
<!-- 1165&#45;&gt;OB -->
<g id="edge8" class="edge"><title>1165&#45;&gt;OB</title>
<path fill="none" stroke="red" stroke-width="0.198686" d="M39.0308,-78.1839C39.0308,-69.9423 39.0308,-60.6153 39.0308,-51.9717"/>
<polygon fill="red" stroke="red" stroke-width="0.198686" points="42.5309,-51.8861 39.0308,-41.8861 35.5309,-51.8862 42.5309,-51.8861"/>
</g>
<!-- 1162&#45;&gt;1162 -->
<g id="edge12" class="edge"><title>1162&#45;&gt;1162</title>
<path fill="none" stroke="green" stroke-width="0.159447" d="M251.586,-115.477C262.732,-117.369 272.78,-113.269 272.78,-103.175 272.78,-96.3934 268.244,-92.3171 261.887,-90.9462"/>
<polygon fill="green" stroke="green" stroke-width="0.159447" points="261.611,-87.4442 251.586,-90.8734 261.561,-94.444 261.611,-87.4442"/>
</g>
<!-- 1164&#45;&gt;1164 -->
<g id="edge14" class="edge"><title>1164&#45;&gt;1164</title>
<path fill="none" stroke="red" stroke-width="0.1" d="M336.586,-115.477C347.732,-117.369 357.78,-113.269 357.78,-103.175 357.78,-96.3934 353.244,-92.3171 346.887,-90.9462"/>
<polygon fill="red" stroke="red" stroke-width="0.1" points="346.611,-87.4442 336.586,-90.8734 346.561,-94.444 346.611,-87.4442"/>
</g>
</g>
</svg>
