<?xml version="1.0" encoding="UTF-8" standalone="no"?>
<!DOCTYPE svg PUBLIC "-//W3C//DTD SVG 1.1//EN"
 "http://www.w3.org/Graphics/SVG/1.1/DTD/svg11.dtd">
<!-- Generated by graphviz version 2.38.0 (20140413.2041)
 -->
<!-- Title: %3 Pages: 1 -->
<svg width="322pt" height="207pt"
 viewBox="0.00 0.00 321.72 207.28" xmlns="http://www.w3.org/2000/svg" xmlns:xlink="http://www.w3.org/1999/xlink">
<g id="graph0" class="graph" transform="scale(1 1) rotate(0) translate(4 203.279)">
<title>%3</title>
<polygon fill="white" stroke="none" points="-4,4 -4,-203.279 317.719,-203.279 317.719,4 -4,4"/>
<!-- IA -->
<g id="node1" class="node"><title>IA</title>
<polygon fill="lightgray" stroke="black" points="111.506,-187.066 85.5061,-187.066 85.5061,-169.066 111.506,-169.066 111.506,-187.066"/>
<text text-anchor="middle" x="98.5061" y="-175.866" font-family="Times,serif" font-size="9.00">IA</text>
</g>
<!-- OB -->
<g id="node4" class="node"><title>OB</title>
<ellipse fill="lightblue" stroke="black" cx="20.5061" cy="-99.6396" rx="20.5122" ry="20.5122"/>
<text text-anchor="middle" x="20.5061" y="-97.4396" font-family="Times,serif" font-size="9.00">OB</text>
</g>
<!-- IA&#45;&gt;OB -->
<g id="edge6" class="edge"><title>IA&#45;&gt;OB</title>
<path fill="none" stroke="red" stroke-width="0.1" d="M90.1587,-168.887C78.8107,-157.768 58.109,-137.484 42.2132,-121.909"/>
<polygon fill="red" stroke="red" stroke-width="0.1" points="44.4502,-119.201 34.8579,-114.702 39.5512,-124.201 44.4502,-119.201"/>
</g>
<!-- 176 -->
<g id="node6" class="node"><title>176</title>
<ellipse fill="white" stroke="black" cx="176.506" cy="-99.6396" rx="21.4286" ry="21.4286"/>
<text text-anchor="middle" x="176.506" y="-97.4396" font-family="Times,serif" font-size="9.00">176</text>
</g>
<!-- IA&#45;&gt;176 -->
<g id="edge1" class="edge"><title>IA&#45;&gt;176</title>
<path fill="none" stroke="red" stroke-width="0.401223" d="M106.853,-168.887C118.066,-157.9 138.412,-137.966 154.229,-122.467"/>
<polygon fill="red" stroke="red" stroke-width="0.401223" points="156.877,-124.772 161.571,-115.274 151.978,-119.772 156.877,-124.772"/>
</g>
<!-- 177 -->
<g id="node7" class="node"><title>177</title>
<ellipse fill="none" stroke="black" cx="98.5061" cy="-99.6396" rx="21.4286" ry="21.4286"/>
<text text-anchor="middle" x="98.5061" y="-97.4396" font-family="Times,serif" font-size="9.00">177</text>
</g>
<!-- IA&#45;&gt;177 -->
<g id="edge2" class="edge"><title>IA&#45;&gt;177</title>
<path fill="none" stroke="red" stroke-width="0.1" d="M98.5061,-168.887C98.5061,-159.865 98.5061,-144.81 98.5061,-131.132"/>
<polygon fill="red" stroke="red" stroke-width="0.1" points="102.006,-131.064 98.5061,-121.064 95.0062,-131.064 102.006,-131.064"/>
</g>
<!-- IB -->
<g id="node2" class="node"><title>IB</title>
<polygon fill="lightgray" stroke="black" points="222.506,-187.066 196.506,-187.066 196.506,-169.066 222.506,-169.066 222.506,-187.066"/>
<text text-anchor="middle" x="209.506" y="-175.866" font-family="Times,serif" font-size="9.00">IB</text>
</g>
<!-- OA -->
<g id="node3" class="node"><title>OA</title>
<ellipse fill="lightblue" stroke="black" cx="243.506" cy="-21.2132" rx="21.4286" ry="21.4286"/>
<text text-anchor="middle" x="243.506" y="-19.0132" font-family="Times,serif" font-size="9.00">OA</text>
</g>
<!-- IB&#45;&gt;OA -->
<g id="edge7" class="edge"><title>IB&#45;&gt;OA</title>
<path fill="none" stroke="green" stroke-width="0.181442" d="M211.927,-168.731C215.059,-157.796 220.576,-137.983 224.506,-120.853 229.762,-97.9432 234.75,-71.8158 238.296,-52.2088"/>
<polygon fill="green" stroke="green" stroke-width="0.181442" points="241.748,-52.7852 240.061,-42.3256 234.857,-51.5545 241.748,-52.7852"/>
</g>
<!-- IB&#45;&gt;176 -->
<g id="edge3" class="edge"><title>IB&#45;&gt;176</title>
<path fill="none" stroke="red" stroke-width="0.155308" d="M205.975,-168.887C201.868,-159.376 194.865,-143.158 188.716,-128.918"/>
<polygon fill="red" stroke="red" stroke-width="0.155308" points="191.82,-127.276 184.642,-119.482 185.393,-130.051 191.82,-127.276"/>
</g>
<!-- OB&#45;&gt;OB -->
<g id="edge8" class="edge"><title>OB&#45;&gt;OB</title>
<path fill="none" stroke="red" stroke-width="0.1" d="M36.3275,-112.69C47.6919,-116.939 59.0122,-112.589 59.0122,-99.6396 59.0122,-90.737 53.6616,-85.8988 46.6246,-85.1251"/>
<polygon fill="red" stroke="red" stroke-width="0.1" points="45.7352,-81.7163 36.3275,-86.5892 46.7206,-88.6466 45.7352,-81.7163"/>
</g>
<!-- 174 -->
<g id="node5" class="node"><title>174</title>
<ellipse fill="white" stroke="black" cx="292.506" cy="-99.6396" rx="21.4286" ry="21.4286"/>
<text text-anchor="middle" x="292.506" y="-97.4396" font-family="Times,serif" font-size="9.00">174</text>
</g>
<!-- 174&#45;&gt;OA -->
<g id="edge4" class="edge"><title>174&#45;&gt;OA</title>
<path fill="none" stroke="green" stroke-width="0.112057" d="M281.387,-81.2973C275.122,-71.5257 267.173,-59.1276 260.177,-48.2145"/>
<polygon fill="green" stroke="green" stroke-width="0.112057" points="262.925,-46.0162 254.581,-39.4869 257.032,-49.7944 262.925,-46.0162"/>
</g>
<!-- 176&#45;&gt;OA -->
<g id="edge5" class="edge"><title>176&#45;&gt;OA</title>
<path fill="none" stroke="green" stroke-width="0.129741" d="M190.065,-83.1736C199.6,-72.2965 212.525,-57.5535 223.275,-45.2908"/>
<polygon fill="green" stroke="green" stroke-width="0.129741" points="226.008,-47.4831 229.968,-37.6562 220.744,-42.8686 226.008,-47.4831"/>
</g>
<!-- 176&#45;&gt;176 -->
<g id="edge10" class="edge"><title>176&#45;&gt;176</title>
<path fill="none" stroke="red" stroke-width="0.1" d="M193.435,-112.976C204.727,-116.729 215.719,-112.284 215.719,-99.6396 215.719,-90.9465 210.524,-86.1288 203.607,-85.1865"/>
<polygon fill="red" stroke="red" stroke-width="0.1" points="202.993,-81.7328 193.435,-86.3036 203.757,-88.691 202.993,-81.7328"/>
</g>
<!-- 177&#45;&gt;177 -->
<g id="edge11" class="edge"><title>177&#45;&gt;177</title>
<path fill="none" stroke="red" stroke-width="0.21205" d="M115.435,-112.976C126.727,-116.729 137.719,-112.284 137.719,-99.6396 137.719,-90.9465 132.524,-86.1288 125.607,-85.1865"/>
<polygon fill="red" stroke="red" stroke-width="0.21205" points="124.993,-81.7328 115.435,-86.3036 125.757,-88.691 124.993,-81.7328"/>
</g>
<!-- 175 -->
<g id="node8" class="node"><title>175</title>
<ellipse fill="none" stroke="black" cx="261.506" cy="-178.066" rx="21.4286" ry="21.4286"/>
<text text-anchor="middle" x="261.506" y="-175.866" font-family="Times,serif" font-size="9.00">175</text>
</g>
<!-- 175&#45;&gt;175 -->
<g id="edge9" class="edge"><title>175&#45;&gt;175</title>
<path fill="none" stroke="red" stroke-width="0.216841" d="M278.435,-191.402C289.727,-195.156 300.719,-190.711 300.719,-178.066 300.719,-169.373 295.524,-164.555 288.607,-163.613"/>
<polygon fill="red" stroke="red" stroke-width="0.216841" points="287.993,-160.159 278.435,-164.73 288.757,-167.117 287.993,-160.159"/>
</g>
</g>
</svg>
