<?xml version="1.0" encoding="UTF-8" standalone="no"?>
<!DOCTYPE svg PUBLIC "-//W3C//DTD SVG 1.1//EN"
 "http://www.w3.org/Graphics/SVG/1.1/DTD/svg11.dtd">
<!-- Generated by graphviz version 2.38.0 (20140413.2041)
 -->
<!-- Title: %3 Pages: 1 -->
<svg width="369pt" height="183pt"
 viewBox="0.00 0.00 369.04 182.85" xmlns="http://www.w3.org/2000/svg" xmlns:xlink="http://www.w3.org/1999/xlink">
<g id="graph0" class="graph" transform="scale(1 1) rotate(0) translate(4 178.853)">
<title>%3</title>
<polygon fill="white" stroke="none" points="-4,4 -4,-178.853 365.043,-178.853 365.043,4 -4,4"/>
<!-- IA -->
<g id="node1" class="node"><title>IA</title>
<polygon fill="lightgray" stroke="black" points="80.8296,-174.853 54.8296,-174.853 54.8296,-156.853 80.8296,-156.853 80.8296,-174.853"/>
<text text-anchor="middle" x="67.8296" y="-163.653" font-family="Times,serif" font-size="9.00">IA</text>
</g>
<!-- OB -->
<g id="node4" class="node"><title>OB</title>
<ellipse fill="lightblue" stroke="black" cx="42.8296" cy="-21.2132" rx="20.5122" ry="20.5122"/>
<text text-anchor="middle" x="42.8296" y="-19.0132" font-family="Times,serif" font-size="9.00">OB</text>
</g>
<!-- IA&#45;&gt;OB -->
<g id="edge10" class="edge"><title>IA&#45;&gt;OB</title>
<path fill="none" stroke="red" stroke-width="0.1" d="M54.8267,-160.101C39.6555,-153.768 15.314,-140.964 4.82962,-120.853 -8.16105,-95.9346 7.98439,-65.5348 23.0585,-45.1262"/>
<polygon fill="red" stroke="red" stroke-width="0.1" points="25.9772,-47.0749 29.3652,-37.0364 20.4565,-42.7711 25.9772,-47.0749"/>
</g>
<!-- 914 -->
<g id="node5" class="node"><title>914</title>
<ellipse fill="white" stroke="black" cx="223.83" cy="-99.6396" rx="21.4286" ry="21.4286"/>
<text text-anchor="middle" x="223.83" y="-97.4396" font-family="Times,serif" font-size="9.00">914</text>
</g>
<!-- IA&#45;&gt;914 -->
<g id="edge1" class="edge"><title>IA&#45;&gt;914</title>
<path fill="none" stroke="red" stroke-width="0.103288" d="M81.1582,-161.42C104.658,-155.103 154.676,-140.468 193.83,-120.853 195.374,-120.079 196.932,-119.239 198.484,-118.354"/>
<polygon fill="red" stroke="red" stroke-width="0.103288" points="200.505,-121.22 207.157,-112.974 196.814,-115.271 200.505,-121.22"/>
</g>
<!-- 916 -->
<g id="node7" class="node"><title>916</title>
<ellipse fill="white" stroke="black" cx="67.8296" cy="-99.6396" rx="21.4286" ry="21.4286"/>
<text text-anchor="middle" x="67.8296" y="-97.4396" font-family="Times,serif" font-size="9.00">916</text>
</g>
<!-- IA&#45;&gt;916 -->
<g id="edge2" class="edge"><title>IA&#45;&gt;916</title>
<path fill="none" stroke="red" stroke-width="0.1" d="M67.8296,-156.72C67.8296,-150.177 67.8296,-140.548 67.8296,-131.109"/>
<polygon fill="red" stroke="red" stroke-width="0.1" points="71.3297,-131.095 67.8296,-121.095 64.3297,-131.095 71.3297,-131.095"/>
</g>
<!-- IB -->
<g id="node2" class="node"><title>IB</title>
<polygon fill="lightgray" stroke="black" points="260.83,-174.853 234.83,-174.853 234.83,-156.853 260.83,-156.853 260.83,-174.853"/>
<text text-anchor="middle" x="247.83" y="-163.653" font-family="Times,serif" font-size="9.00">IB</text>
</g>
<!-- OA -->
<g id="node3" class="node"><title>OA</title>
<ellipse fill="lightblue" stroke="black" cx="184.83" cy="-21.2132" rx="21.4286" ry="21.4286"/>
<text text-anchor="middle" x="184.83" y="-19.0132" font-family="Times,serif" font-size="9.00">OA</text>
</g>
<!-- IB&#45;&gt;OA -->
<g id="edge11" class="edge"><title>IB&#45;&gt;OA</title>
<path fill="none" stroke="red" stroke-width="0.243863" d="M250.919,-156.738C256.45,-140.825 266.353,-104.781 253.83,-78.4264 245.237,-60.3437 227.667,-46.1653 212.408,-36.5713"/>
<polygon fill="red" stroke="red" stroke-width="0.243863" points="214.163,-33.5432 203.776,-31.4574 210.595,-39.5657 214.163,-33.5432"/>
</g>
<!-- IB&#45;&gt;OB -->
<g id="edge12" class="edge"><title>IB&#45;&gt;OB</title>
<path fill="none" stroke="red" stroke-width="0.1" d="M234.756,-164.187C192.821,-161.751 62.9577,-151.791 37.8296,-120.853 21.9647,-101.319 25.9329,-71.7648 32.2084,-50.0983"/>
<polygon fill="red" stroke="red" stroke-width="0.1" points="35.5755,-51.0601 35.294,-40.469 28.9094,-48.9239 35.5755,-51.0601"/>
</g>
<!-- IB&#45;&gt;914 -->
<g id="edge3" class="edge"><title>IB&#45;&gt;914</title>
<path fill="none" stroke="green" stroke-width="0.131009" d="M244.79,-156.72C242.171,-149.713 238.229,-139.165 234.468,-129.102"/>
<polygon fill="green" stroke="green" stroke-width="0.131009" points="237.746,-127.875 230.966,-119.733 231.189,-130.326 237.746,-127.875"/>
</g>
<!-- 917 -->
<g id="node8" class="node"><title>917</title>
<ellipse fill="none" stroke="black" cx="321.83" cy="-99.6396" rx="21.4286" ry="21.4286"/>
<text text-anchor="middle" x="321.83" y="-97.4396" font-family="Times,serif" font-size="9.00">917</text>
</g>
<!-- IB&#45;&gt;917 -->
<g id="edge4" class="edge"><title>IB&#45;&gt;917</title>
<path fill="none" stroke="green" stroke-width="0.124969" d="M257.202,-156.72C267.475,-147.805 284.351,-133.162 298.281,-121.074"/>
<polygon fill="green" stroke="green" stroke-width="0.124969" points="300.812,-123.512 306.071,-114.314 296.224,-118.225 300.812,-123.512"/>
</g>
<!-- OA&#45;&gt;OA -->
<g id="edge13" class="edge"><title>OA&#45;&gt;OA</title>
<path fill="none" stroke="red" stroke-width="0.169156" d="M201.758,-34.5492C213.051,-38.3031 224.043,-33.8577 224.043,-21.2132 224.043,-12.5201 218.847,-7.70237 211.931,-6.76005"/>
<polygon fill="red" stroke="red" stroke-width="0.169156" points="211.316,-3.30638 201.758,-7.87717 212.081,-10.2645 211.316,-3.30638"/>
</g>
<!-- 914&#45;&gt;OA -->
<g id="edge5" class="edge"><title>914&#45;&gt;OA</title>
<path fill="none" stroke="green" stroke-width="0.162529" d="M214.587,-80.5276C209.862,-71.2676 204.013,-59.8061 198.755,-49.5017"/>
<polygon fill="green" stroke="green" stroke-width="0.162529" points="201.804,-47.7765 194.141,-40.46 195.569,-50.9582 201.804,-47.7765"/>
</g>
<!-- 915 -->
<g id="node6" class="node"><title>915</title>
<ellipse fill="white" stroke="black" cx="145.83" cy="-99.6396" rx="21.4286" ry="21.4286"/>
<text text-anchor="middle" x="145.83" y="-97.4396" font-family="Times,serif" font-size="9.00">915</text>
</g>
<!-- 915&#45;&gt;OA -->
<g id="edge6" class="edge"><title>915&#45;&gt;OA</title>
<path fill="none" stroke="red" stroke-width="0.1" d="M155.072,-80.5276C159.797,-71.2676 165.646,-59.8061 170.904,-49.5017"/>
<polygon fill="red" stroke="red" stroke-width="0.1" points="174.091,-50.9582 175.518,-40.46 167.855,-47.7765 174.091,-50.9582"/>
</g>
<!-- 915&#45;&gt;OB -->
<g id="edge7" class="edge"><title>915&#45;&gt;OB</title>
<path fill="none" stroke="red" stroke-width="0.1" d="M129.281,-86.3604C112.514,-73.9194 86.389,-54.5344 67.2441,-40.3289"/>
<polygon fill="red" stroke="red" stroke-width="0.1" points="69.114,-37.3581 58.9977,-34.21 64.9428,-42.9796 69.114,-37.3581"/>
</g>
<!-- 915&#45;&gt;915 -->
<g id="edge14" class="edge"><title>915&#45;&gt;915</title>
<path fill="none" stroke="green" stroke-width="0.118054" d="M163.981,-111.241C174.831,-113.819 185.043,-109.952 185.043,-99.6396 185.043,-92.7109 180.433,-88.6917 174.117,-87.582"/>
<polygon fill="green" stroke="green" stroke-width="0.118054" points="173.814,-84.0921 163.981,-88.038 174.128,-91.085 173.814,-84.0921"/>
</g>
<!-- 916&#45;&gt;OA -->
<g id="edge8" class="edge"><title>916&#45;&gt;OA</title>
<path fill="none" stroke="green" stroke-width="0.22828" d="M85.3457,-87.1978C104.732,-74.5346 136.184,-53.989 158.531,-39.3918"/>
<polygon fill="green" stroke="green" stroke-width="0.22828" points="160.736,-42.1323 167.194,-33.7332 156.908,-36.2718 160.736,-42.1323"/>
</g>
<!-- 916&#45;&gt;OB -->
<g id="edge9" class="edge"><title>916&#45;&gt;OB</title>
<path fill="none" stroke="red" stroke-width="0.365879" d="M61.5211,-79.354C58.6654,-70.624 55.2329,-60.1307 52.093,-50.532"/>
<polygon fill="red" stroke="red" stroke-width="0.365879" points="55.3989,-49.3805 48.9633,-40.9642 48.7458,-51.5569 55.3989,-49.3805"/>
</g>
<!-- 916&#45;&gt;916 -->
<g id="edge15" class="edge"><title>916&#45;&gt;916</title>
<path fill="none" stroke="green" stroke-width="0.247472" d="M85.981,-111.241C96.831,-113.819 107.043,-109.952 107.043,-99.6396 107.043,-92.7109 102.433,-88.6917 96.1172,-87.582"/>
<polygon fill="green" stroke="green" stroke-width="0.247472" points="95.8136,-84.0921 85.981,-88.038 96.1283,-91.085 95.8136,-84.0921"/>
</g>
<!-- 917&#45;&gt;917 -->
<g id="edge16" class="edge"><title>917&#45;&gt;917</title>
<path fill="none" stroke="red" stroke-width="0.169881" d="M339.981,-111.241C350.831,-113.819 361.043,-109.952 361.043,-99.6396 361.043,-92.7109 356.433,-88.6917 350.117,-87.582"/>
<polygon fill="red" stroke="red" stroke-width="0.169881" points="349.814,-84.0921 339.981,-88.038 350.128,-91.085 349.814,-84.0921"/>
</g>
</g>
</svg>
