<?xml version="1.0" encoding="UTF-8" standalone="no"?>
<!DOCTYPE svg PUBLIC "-//W3C//DTD SVG 1.1//EN"
 "http://www.w3.org/Graphics/SVG/1.1/DTD/svg11.dtd">
<!-- Generated by graphviz version 2.38.0 (20140413.2041)
 -->
<!-- Title: %3 Pages: 1 -->
<svg width="332pt" height="497pt"
 viewBox="0.00 0.00 331.76 496.56" xmlns="http://www.w3.org/2000/svg" xmlns:xlink="http://www.w3.org/1999/xlink">
<g id="graph0" class="graph" transform="scale(1 1) rotate(0) translate(4 492.558)">
<title>%3</title>
<polygon fill="white" stroke="none" points="-4,4 -4,-492.558 327.763,-492.558 327.763,4 -4,4"/>
<!-- IA -->
<g id="node1" class="node"><title>IA</title>
<polygon fill="lightgray" stroke="black" points="233.763,-488.558 207.763,-488.558 207.763,-470.558 233.763,-470.558 233.763,-488.558"/>
<text text-anchor="middle" x="220.763" y="-477.358" font-family="Times,serif" font-size="9.00">IA</text>
</g>
<!-- OA -->
<g id="node3" class="node"><title>OA</title>
<ellipse fill="lightblue" stroke="black" cx="28.7629" cy="-334.919" rx="21.4286" ry="21.4286"/>
<text text-anchor="middle" x="28.7629" y="-332.719" font-family="Times,serif" font-size="9.00">OA</text>
</g>
<!-- IA&#45;&gt;OA -->
<g id="edge13" class="edge"><title>IA&#45;&gt;OA</title>
<path fill="none" stroke="red" stroke-width="0.25232" d="M207.73,-477.658C181.146,-475.192 119.957,-466.221 81.7629,-434.558 59.9584,-416.483 45.8066,-387.035 37.659,-365.012"/>
<polygon fill="red" stroke="red" stroke-width="0.25232" points="40.9329,-363.771 34.332,-355.484 34.3241,-366.079 40.9329,-363.771"/>
</g>
<!-- OB -->
<g id="node4" class="node"><title>OB</title>
<ellipse fill="lightblue" stroke="black" cx="220.763" cy="-171.702" rx="20.5122" ry="20.5122"/>
<text text-anchor="middle" x="220.763" y="-169.502" font-family="Times,serif" font-size="9.00">OB</text>
</g>
<!-- IA&#45;&gt;OB -->
<g id="edge14" class="edge"><title>IA&#45;&gt;OB</title>
<path fill="none" stroke="green" stroke-width="0.368021" d="M228.693,-470.288C236.039,-462.006 246.457,-448.517 250.763,-434.558 276.199,-352.098 247.879,-249.026 231.2,-200.46"/>
<polygon fill="green" stroke="green" stroke-width="0.368021" points="234.472,-199.214 227.841,-190.95 227.872,-201.545 234.472,-199.214"/>
</g>
<!-- 98 -->
<g id="node5" class="node"><title>98</title>
<ellipse fill="white" stroke="black" cx="107.763" cy="-252.957" rx="18.2703" ry="18.2703"/>
<text text-anchor="middle" x="107.763" y="-250.757" font-family="Times,serif" font-size="9.00">98</text>
</g>
<!-- IA&#45;&gt;98 -->
<g id="edge1" class="edge"><title>IA&#45;&gt;98</title>
<path fill="none" stroke="green" stroke-width="0.128337" d="M207.662,-476.12C187.722,-471.664 150.139,-460.196 131.763,-434.558 99.0591,-388.931 100.166,-319.765 103.921,-281.628"/>
<polygon fill="green" stroke="green" stroke-width="0.128337" points="107.444,-281.622 105.081,-271.294 100.488,-280.841 107.444,-281.622"/>
</g>
<!-- 100 -->
<g id="node7" class="node"><title>100</title>
<ellipse fill="white" stroke="black" cx="220.763" cy="-413.345" rx="21.4286" ry="21.4286"/>
<text text-anchor="middle" x="220.763" y="-411.145" font-family="Times,serif" font-size="9.00">100</text>
</g>
<!-- IA&#45;&gt;100 -->
<g id="edge2" class="edge"><title>IA&#45;&gt;100</title>
<path fill="none" stroke="green" stroke-width="0.204462" d="M220.763,-470.426C220.763,-463.883 220.763,-454.254 220.763,-444.814"/>
<polygon fill="green" stroke="green" stroke-width="0.204462" points="224.263,-444.801 220.763,-434.801 217.263,-444.801 224.263,-444.801"/>
</g>
<!-- 101 -->
<g id="node8" class="node"><title>101</title>
<ellipse fill="white" stroke="black" cx="163.763" cy="-21.2132" rx="21.4286" ry="21.4286"/>
<text text-anchor="middle" x="163.763" y="-19.0132" font-family="Times,serif" font-size="9.00">101</text>
</g>
<!-- IA&#45;&gt;101 -->
<g id="edge3" class="edge"><title>IA&#45;&gt;101</title>
<path fill="none" stroke="red" stroke-width="0.514418" d="M232.578,-470.432C259.633,-450.759 323.763,-397.62 323.763,-335.919 323.763,-335.919 323.763,-335.919 323.763,-170.702 323.763,-100.089 239.002,-53.6037 192.865,-33.5312"/>
<polygon fill="red" stroke="red" stroke-width="0.514418" points="193.957,-30.1933 183.382,-29.5403 191.241,-36.6452 193.957,-30.1933"/>
</g>
<!-- IB -->
<g id="node2" class="node"><title>IB</title>
<polygon fill="lightgray" stroke="black" points="166.763,-422.345 140.763,-422.345 140.763,-404.345 166.763,-404.345 166.763,-422.345"/>
<text text-anchor="middle" x="153.763" y="-411.145" font-family="Times,serif" font-size="9.00">IB</text>
</g>
<!-- IB&#45;&gt;OA -->
<g id="edge15" class="edge"><title>IB&#45;&gt;OA</title>
<path fill="none" stroke="red" stroke-width="0.367942" stroke-dasharray="1,5" d="M140.386,-404.166C120.104,-391.766 81.1771,-367.965 55.0832,-352.011"/>
<polygon fill="red" stroke="red" stroke-width="0.367942" points="56.7977,-348.957 46.4402,-346.727 53.1462,-354.929 56.7977,-348.957"/>
</g>
<!-- IB&#45;&gt;OB -->
<g id="edge16" class="edge"><title>IB&#45;&gt;OB</title>
<path fill="none" stroke="green" stroke-width="0.674264" d="M159.681,-404.014C166.935,-393.401 179.085,-374.256 185.763,-356.132 204.993,-303.941 214.168,-239.32 218.128,-202.37"/>
<polygon fill="green" stroke="green" stroke-width="0.674264" points="221.625,-202.577 219.153,-192.275 214.661,-201.87 221.625,-202.577"/>
</g>
<!-- IB&#45;&gt;98 -->
<g id="edge4" class="edge"><title>IB&#45;&gt;98</title>
<path fill="none" stroke="green" stroke-width="0.896321" d="M151.418,-404.273C144.886,-381.782 126.259,-317.645 115.566,-280.824"/>
<polygon fill="green" stroke="green" stroke-width="0.896321" points="118.8,-279.412 112.65,-270.785 112.078,-281.365 118.8,-279.412"/>
</g>
<!-- 99 -->
<g id="node6" class="node"><title>99</title>
<ellipse fill="white" stroke="black" cx="163.763" cy="-96.8112" rx="18.2703" ry="18.2703"/>
<text text-anchor="middle" x="163.763" y="-94.6112" font-family="Times,serif" font-size="9.00">99</text>
</g>
<!-- IB&#45;&gt;99 -->
<g id="edge5" class="edge"><title>IB&#45;&gt;99</title>
<path fill="none" stroke="green" stroke-width="1.27119" d="M154.02,-404.254C155.268,-364.996 160.721,-193.494 162.879,-125.614"/>
<polygon fill="green" stroke="green" stroke-width="1.27119" points="166.388,-125.388 163.207,-115.282 159.391,-125.166 166.388,-125.388"/>
</g>
<!-- OA&#45;&gt;OA -->
<g id="edge17" class="edge"><title>OA&#45;&gt;OA</title>
<path fill="none" stroke="red" stroke-width="0.459055" stroke-dasharray="1,5" d="M45.6915,-348.255C56.9841,-352.009 67.9761,-347.563 67.9761,-334.919 67.9761,-326.226 62.7806,-321.408 55.8639,-320.466"/>
<polygon fill="red" stroke="red" stroke-width="0.459055" points="55.2496,-317.012 45.6915,-321.583 56.0138,-323.97 55.2496,-317.012"/>
</g>
<!-- OA&#45;&gt;98 -->
<g id="edge20" class="edge"><title>OA&#45;&gt;98</title>
<path fill="none" stroke="red" stroke-width="0.222963" d="M43.2527,-319.253C55.8058,-306.547 74.0839,-288.046 87.9816,-273.979"/>
<polygon fill="red" stroke="red" stroke-width="0.222963" points="90.6494,-276.259 95.1878,-266.685 85.6698,-271.339 90.6494,-276.259"/>
</g>
<!-- 1262 -->
<g id="node9" class="node"><title>1262</title>
<ellipse fill="white" stroke="black" cx="46.7629" cy="-252.957" rx="25" ry="25"/>
<text text-anchor="middle" x="46.7629" y="-250.757" font-family="Times,serif" font-size="9.00">1262</text>
</g>
<!-- OA&#45;&gt;1262 -->
<g id="edge24" class="edge"><title>OA&#45;&gt;1262</title>
<path fill="none" stroke="green" stroke-width="0.262932" d="M27.3526,-313.741C28.5506,-305.019 30.6781,-294.615 33.1899,-284.95"/>
<polygon fill="green" stroke="green" stroke-width="0.262932" points="36.5806,-285.822 35.9239,-275.247 29.843,-283.923 36.5806,-285.822"/>
</g>
<!-- OB&#45;&gt;99 -->
<g id="edge21" class="edge"><title>OB&#45;&gt;99</title>
<path fill="none" stroke="red" stroke-width="0.134166" d="M205.257,-157.671C196.159,-147.851 185.039,-134.099 176.462,-122.252"/>
<polygon fill="red" stroke="red" stroke-width="0.134166" points="179.327,-120.241 170.732,-114.046 173.587,-124.249 179.327,-120.241"/>
</g>
<!-- 98&#45;&gt;OB -->
<g id="edge6" class="edge"><title>98&#45;&gt;OB</title>
<path fill="none" stroke="red" stroke-width="1.10475" d="M122.536,-241.596C141.126,-228.557 173.334,-205.967 195.781,-190.223"/>
<polygon fill="red" stroke="red" stroke-width="1.10475" points="197.973,-192.961 204.15,-184.354 193.953,-187.231 197.973,-192.961"/>
</g>
<!-- 98&#45;&gt;98 -->
<g id="edge18" class="edge"><title>98&#45;&gt;98</title>
<path fill="none" stroke="green" stroke-width="0.134609" d="M121.197,-265.668C132.421,-271.1 144.148,-266.863 144.148,-252.957 144.148,-243.179 138.35,-238.182 131.006,-237.964"/>
<polygon fill="green" stroke="green" stroke-width="0.134609" points="130.145,-234.571 121.197,-240.246 131.73,-241.389 130.145,-234.571"/>
</g>
<!-- 98&#45;&gt;101 -->
<g id="edge23" class="edge"><title>98&#45;&gt;101</title>
<path fill="none" stroke="red" stroke-width="0.309056" d="M109.058,-234.334C111.754,-202.542 119.242,-133.753 136.763,-78.4264 139.916,-68.4678 144.528,-58.0309 149.051,-48.8908"/>
<polygon fill="red" stroke="red" stroke-width="0.309056" points="152.209,-50.4037 153.667,-39.9097 145.983,-47.2037 152.209,-50.4037"/>
</g>
<!-- 99&#45;&gt;OA -->
<g id="edge7" class="edge"><title>99&#45;&gt;OA</title>
<path fill="none" stroke="green" stroke-width="0.444603" d="M147.423,-105.77C114.52,-122.836 41.017,-166.478 12.7629,-228.208 1.44152,-252.943 8.32637,-284.002 16.2824,-306.039"/>
<polygon fill="green" stroke="green" stroke-width="0.444603" points="13.065,-307.422 19.9518,-315.473 19.5889,-304.884 13.065,-307.422"/>
</g>
<!-- 99&#45;&gt;OB -->
<g id="edge8" class="edge"><title>99&#45;&gt;OB</title>
<path fill="none" stroke="red" stroke-width="0.40053" d="M177.587,-109.048C186.466,-118.407 197.679,-132.115 206.582,-144.229"/>
<polygon fill="red" stroke="red" stroke-width="0.40053" points="203.944,-146.559 212.589,-152.684 209.65,-142.505 203.944,-146.559"/>
</g>
<!-- 99&#45;&gt;99 -->
<g id="edge19" class="edge"><title>99&#45;&gt;99</title>
<path fill="none" stroke="red" stroke-width="0.276982" d="M177.955,-108.894C188.942,-113.413 200.148,-109.385 200.148,-96.8112 200.148,-88.1664 194.851,-83.5612 187.971,-82.9956"/>
<polygon fill="red" stroke="red" stroke-width="0.276982" points="187.212,-79.5748 177.955,-84.7281 188.405,-86.4723 187.212,-79.5748"/>
</g>
<!-- 99&#45;&gt;101 -->
<g id="edge22" class="edge"><title>99&#45;&gt;101</title>
<path fill="none" stroke="red" stroke-width="0.290441" stroke-dasharray="1,5" d="M163.763,-78.3695C163.763,-70.754 163.763,-61.5922 163.763,-52.8988"/>
<polygon fill="red" stroke="red" stroke-width="0.290441" points="167.263,-52.6624 163.763,-42.6624 160.263,-52.6624 167.263,-52.6624"/>
</g>
<!-- 100&#45;&gt;OA -->
<g id="edge9" class="edge"><title>100&#45;&gt;OA</title>
<path fill="none" stroke="green" stroke-width="0.436499" d="M201.597,-403.447C193.649,-399.832 184.305,-395.68 175.763,-392.132 135.36,-375.349 87.9901,-357.569 58.1748,-346.605"/>
<polygon fill="green" stroke="green" stroke-width="0.436499" points="58.9948,-343.178 48.4011,-343.024 56.5866,-349.751 58.9948,-343.178"/>
</g>
<!-- 100&#45;&gt;OB -->
<g id="edge10" class="edge"><title>100&#45;&gt;OB</title>
<path fill="none" stroke="green" stroke-width="0.320263" stroke-dasharray="1,5" d="M222.107,-392.061C222.749,-381.376 223.445,-368.051 223.763,-356.132 225.278,-299.297 225.298,-285.042 223.763,-228.208 223.536,-219.797 223.115,-210.677 222.66,-202.306"/>
<polygon fill="green" stroke="green" stroke-width="0.320263" points="226.148,-201.995 222.075,-192.214 219.159,-202.4 226.148,-201.995"/>
</g>
<!-- 101&#45;&gt;OA -->
<g id="edge11" class="edge"><title>101&#45;&gt;OA</title>
<path fill="none" stroke="red" stroke-width="0.109672" d="M147.844,-35.6241C113.456,-65.7717 32.9801,-142.962 3.76286,-228.208 -5.19818,-254.354 4.29411,-285.208 14.0483,-306.812"/>
<polygon fill="red" stroke="red" stroke-width="0.109672" points="10.9958,-308.54 18.483,-316.037 17.3046,-305.507 10.9958,-308.54"/>
</g>
<!-- 101&#45;&gt;OB -->
<g id="edge12" class="edge"><title>101&#45;&gt;OB</title>
<path fill="none" stroke="red" stroke-width="0.2815" d="M178.888,-36.4587C189.096,-47.0194 201.912,-62.3214 208.763,-78.4264 217.168,-98.1853 220.08,-122.301 220.937,-140.923"/>
<polygon fill="red" stroke="red" stroke-width="0.2815" points="217.446,-141.282 221.231,-151.178 224.443,-141.082 217.446,-141.282"/>
</g>
<!-- 1262&#45;&gt;OA -->
<g id="edge25" class="edge"><title>1262&#45;&gt;OA</title>
<path fill="none" stroke="red" stroke-width="0.209094" d="M47.6317,-277.796C46.2365,-286.637 44.0406,-296.744 41.5378,-305.923"/>
<polygon fill="red" stroke="red" stroke-width="0.209094" points="38.1039,-305.191 38.6082,-315.774 44.8135,-307.187 38.1039,-305.191"/>
</g>
</g>
</svg>
