<?xml version="1.0" encoding="UTF-8" standalone="no"?>
<!DOCTYPE svg PUBLIC "-//W3C//DTD SVG 1.1//EN"
 "http://www.w3.org/Graphics/SVG/1.1/DTD/svg11.dtd">
<!-- Generated by graphviz version 2.38.0 (20140413.2041)
 -->
<!-- Title: %3 Pages: 1 -->
<svg width="162pt" height="195pt"
 viewBox="0.00 0.00 161.51 194.55" xmlns="http://www.w3.org/2000/svg" xmlns:xlink="http://www.w3.org/1999/xlink">
<g id="graph0" class="graph" transform="scale(1 1) rotate(0) translate(4 190.551)">
<title>%3</title>
<polygon fill="white" stroke="none" points="-4,4 -4,-190.551 157.506,-190.551 157.506,4 -4,4"/>
<!-- IA -->
<g id="node1" class="node"><title>IA</title>
<polygon fill="lightgray" stroke="black" points="143,-102.276 117,-102.276 117,-84.2756 143,-84.2756 143,-102.276"/>
<text text-anchor="middle" x="130" y="-91.0756" font-family="Times,serif" font-size="9.00">IA</text>
</g>
<!-- OA -->
<g id="node3" class="node"><title>OA</title>
<ellipse fill="lightblue" stroke="black" cx="55" cy="-21.2132" rx="21.4286" ry="21.4286"/>
<text text-anchor="middle" x="55" y="-19.0132" font-family="Times,serif" font-size="9.00">OA</text>
</g>
<!-- IA&#45;&gt;OA -->
<g id="edge5" class="edge"><title>IA&#45;&gt;OA</title>
<path fill="none" stroke="red" stroke-width="0.766018" d="M121.397,-84.2386C110.781,-74.3215 92.3251,-57.081 77.562,-43.2899"/>
<polygon fill="red" stroke="red" stroke-width="0.766018" points="79.9363,-40.7183 70.2395,-36.4494 75.1578,-45.8335 79.9363,-40.7183"/>
</g>
<!-- OB -->
<g id="node4" class="node"><title>OB</title>
<ellipse fill="lightblue" stroke="black" cx="133" cy="-21.2132" rx="20.5122" ry="20.5122"/>
<text text-anchor="middle" x="133" y="-19.0132" font-family="Times,serif" font-size="9.00">OB</text>
</g>
<!-- IA&#45;&gt;OB -->
<g id="edge4" class="edge"><title>IA&#45;&gt;OB</title>
<path fill="none" stroke="green" stroke-width="0.123265" d="M130.344,-84.2386C130.685,-76.2878 131.227,-63.6296 131.732,-51.8157"/>
<polygon fill="green" stroke="green" stroke-width="0.123265" points="135.231,-51.9312 132.162,-41.7906 128.237,-51.6317 135.231,-51.9312"/>
</g>
<!-- IB -->
<g id="node2" class="node"><title>IB</title>
<polygon fill="lightgray" stroke="black" points="26,-102.276 0,-102.276 0,-84.2756 26,-84.2756 26,-102.276"/>
<text text-anchor="middle" x="13" y="-91.0756" font-family="Times,serif" font-size="9.00">IB</text>
</g>
<!-- IB&#45;&gt;OA -->
<g id="edge7" class="edge"><title>IB&#45;&gt;OA</title>
<path fill="none" stroke="red" stroke-width="0.227503" d="M17.8179,-84.2386C23.0195,-75.5616 31.5819,-61.2781 39.1796,-48.604"/>
<polygon fill="red" stroke="red" stroke-width="0.227503" points="42.3398,-50.1395 44.4795,-39.763 36.336,-46.5404 42.3398,-50.1395"/>
</g>
<!-- OA&#45;&gt;OA -->
<g id="edge2" class="edge"><title>OA&#45;&gt;OA</title>
<path fill="none" stroke="red" stroke-width="0.434478" stroke-dasharray="1,5" d="M72.3366,-33.6453C83.4845,-36.8885 94.2132,-32.7445 94.2132,-21.2132 94.2132,-13.2855 89.1422,-8.84934 82.3503,-7.90483"/>
<polygon fill="red" stroke="red" stroke-width="0.434478" points="81.9934,-4.42259 72.3366,-8.78107 82.6037,-11.3959 81.9934,-4.42259"/>
</g>
<!-- 4 -->
<g id="node5" class="node"><title>4</title>
<ellipse fill="white" stroke="black" cx="59" cy="-93.2756" rx="14.7" ry="14.7"/>
<text text-anchor="middle" x="59" y="-91.0756" font-family="Times,serif" font-size="9.00">4</text>
</g>
<!-- 4&#45;&gt;OA -->
<g id="edge1" class="edge"><title>4&#45;&gt;OA</title>
<path fill="none" stroke="green" stroke-width="0.837478" d="M58.2097,-78.4336C57.7875,-71.0384 57.2501,-61.6253 56.7363,-52.626"/>
<polygon fill="green" stroke="green" stroke-width="0.837478" points="60.2167,-52.1816 56.1524,-42.3974 53.2281,-52.5807 60.2167,-52.1816"/>
</g>
<!-- 4&#45;&gt;4 -->
<g id="edge3" class="edge"><title>4&#45;&gt;4</title>
<path fill="none" stroke="green" stroke-width="1.22496" d="M69.7667,-104.004C80.2887,-109.93 91.8492,-106.354 91.8492,-93.2756 91.8492,-84.2844 86.3851,-79.7844 79.5508,-79.7757"/>
<polygon fill="green" stroke="green" stroke-width="1.22496" points="78.434,-76.4542 69.7667,-82.5475 80.3421,-83.1892 78.434,-76.4542"/>
</g>
<!-- 332 -->
<g id="node6" class="node"><title>332</title>
<ellipse fill="white" stroke="black" cx="59" cy="-165.338" rx="21.4286" ry="21.4286"/>
<text text-anchor="middle" x="59" y="-163.138" font-family="Times,serif" font-size="9.00">332</text>
</g>
<!-- 332&#45;&gt;4 -->
<g id="edge6" class="edge"><title>332&#45;&gt;4</title>
<path fill="none" stroke="red" stroke-width="0.204003" d="M59,-144.073C59,-136.093 59,-126.861 59,-118.529"/>
<polygon fill="red" stroke="red" stroke-width="0.204003" points="62.5001,-118.278 59,-108.278 55.5001,-118.278 62.5001,-118.278"/>
</g>
</g>
</svg>
