<?xml version="1.0" encoding="UTF-8" standalone="no"?>
<!DOCTYPE svg PUBLIC "-//W3C//DTD SVG 1.1//EN"
 "http://www.w3.org/Graphics/SVG/1.1/DTD/svg11.dtd">
<!-- Generated by graphviz version 2.38.0 (20140413.2041)
 -->
<!-- Title: %3 Pages: 1 -->
<svg width="375pt" height="484pt"
 viewBox="0.00 0.00 374.85 484.22" xmlns="http://www.w3.org/2000/svg" xmlns:xlink="http://www.w3.org/1999/xlink">
<g id="graph0" class="graph" transform="scale(1 1) rotate(0) translate(4 480.215)">
<title>%3</title>
<polygon fill="white" stroke="none" points="-4,4 -4,-480.215 370.849,-480.215 370.849,4 -4,4"/>
<!-- IA -->
<g id="node1" class="node"><title>IA</title>
<polygon fill="lightgray" stroke="black" points="123,-470.366 97,-470.366 97,-452.366 123,-452.366 123,-470.366"/>
<text text-anchor="middle" x="110" y="-459.166" font-family="Times,serif" font-size="9.00">IA</text>
</g>
<!-- OA -->
<g id="node3" class="node"><title>OA</title>
<ellipse fill="lightblue" stroke="black" cx="165" cy="-389.304" rx="21.4286" ry="21.4286"/>
<text text-anchor="middle" x="165" y="-387.104" font-family="Times,serif" font-size="9.00">OA</text>
</g>
<!-- IA&#45;&gt;OA -->
<g id="edge2" class="edge"><title>IA&#45;&gt;OA</title>
<path fill="none" stroke="red" stroke-width="1.40944" d="M116.309,-452.329C123.485,-443.189 135.544,-427.827 145.865,-414.679"/>
<polygon fill="red" stroke="red" stroke-width="1.40944" points="148.906,-416.473 152.328,-406.446 143.4,-412.151 148.906,-416.473"/>
</g>
<!-- 34 -->
<g id="node5" class="node"><title>34</title>
<ellipse fill="white" stroke="black" cx="110" cy="-313.706" rx="18.2703" ry="18.2703"/>
<text text-anchor="middle" x="110" y="-311.506" font-family="Times,serif" font-size="9.00">34</text>
</g>
<!-- IA&#45;&gt;34 -->
<g id="edge11" class="edge"><title>IA&#45;&gt;34</title>
<path fill="none" stroke="green" stroke-width="0.778866" stroke-dasharray="1,5" d="M110,-452.117C110,-431.373 110,-376.279 110,-342.489"/>
<polygon fill="green" stroke="green" stroke-width="0.778866" points="113.5,-342.337 110,-332.337 106.5,-342.337 113.5,-342.337"/>
</g>
<!-- 33 -->
<g id="node6" class="node"><title>33</title>
<ellipse fill="white" stroke="black" cx="76" cy="-18.3848" rx="18.2703" ry="18.2703"/>
<text text-anchor="middle" x="76" y="-16.1848" font-family="Times,serif" font-size="9.00">33</text>
</g>
<!-- IA&#45;&gt;33 -->
<g id="edge9" class="edge"><title>IA&#45;&gt;33</title>
<path fill="none" stroke="green" stroke-width="0.582007" stroke-dasharray="1,5" d="M97.3816,-452.202C68.4882,-432.402 0,-378.718 0,-314.706 0,-314.706 0,-314.706 0,-162.924 0,-114.581 34.0867,-66.6105 56.6038,-40.1961"/>
<polygon fill="green" stroke="green" stroke-width="0.582007" points="59.4788,-42.2267 63.4501,-32.4043 54.2203,-37.6063 59.4788,-42.2267"/>
</g>
<!-- IB -->
<g id="node2" class="node"><title>IB</title>
<polygon fill="lightgray" stroke="black" points="319,-470.366 293,-470.366 293,-452.366 319,-452.366 319,-470.366"/>
<text text-anchor="middle" x="306" y="-459.166" font-family="Times,serif" font-size="9.00">IB</text>
</g>
<!-- IB&#45;&gt;OA -->
<g id="edge3" class="edge"><title>IB&#45;&gt;OA</title>
<path fill="none" stroke="green" stroke-width="0.116253" stroke-dasharray="1,5" d="M292.988,-453.9C270.349,-442.651 223.24,-419.243 192.924,-404.179"/>
<polygon fill="green" stroke="green" stroke-width="0.116253" points="194.237,-400.923 183.724,-399.607 191.122,-407.192 194.237,-400.923"/>
</g>
<!-- IB&#45;&gt;33 -->
<g id="edge8" class="edge"><title>IB&#45;&gt;33</title>
<path fill="none" stroke="red" stroke-width="0.502858" d="M309.644,-452.345C319.155,-430.652 344,-368.804 344,-314.706 344,-314.706 344,-314.706 344,-162.924 344,-55.2072 173.68,-28.011 104.597,-21.4103"/>
<polygon fill="red" stroke="red" stroke-width="0.502858" points="104.688,-17.9049 94.4207,-20.5186 104.077,-24.8782 104.688,-17.9049"/>
</g>
<!-- 26 -->
<g id="node8" class="node"><title>26</title>
<ellipse fill="white" stroke="black" cx="209" cy="-163.924" rx="18.2703" ry="18.2703"/>
<text text-anchor="middle" x="209" y="-161.724" font-family="Times,serif" font-size="9.00">26</text>
</g>
<!-- IB&#45;&gt;26 -->
<g id="edge7" class="edge"><title>IB&#45;&gt;26</title>
<path fill="none" stroke="green" stroke-width="0.456043" stroke-dasharray="1,5" d="M303.304,-452.156C290.841,-414.195 238.522,-254.843 217.651,-191.272"/>
<polygon fill="green" stroke="green" stroke-width="0.456043" points="220.914,-189.992 214.469,-181.583 214.264,-192.176 220.914,-189.992"/>
</g>
<!-- OA&#45;&gt;34 -->
<g id="edge17" class="edge"><title>OA&#45;&gt;34</title>
<path fill="none" stroke="red" stroke-width="0.186737" d="M149.243,-374.46C140.569,-364.639 130.178,-351.184 122.129,-339.529"/>
<polygon fill="red" stroke="red" stroke-width="0.186737" points="124.948,-337.447 116.497,-331.057 119.118,-341.322 124.948,-337.447"/>
</g>
<!-- OA&#45;&gt;33 -->
<g id="edge12" class="edge"><title>OA&#45;&gt;33</title>
<path fill="none" stroke="green" stroke-width="0.595073" d="M146.324,-379.158C128.217,-369.522 100.926,-352.87 83,-332.09 53.196,-297.541 38,-285.443 38,-239.815 38,-239.815 38,-239.815 38,-162.924 38,-120.45 53.7412,-73.1899 64.961,-44.8991"/>
<polygon fill="green" stroke="green" stroke-width="0.595073" points="68.3087,-45.9593 68.8525,-35.3785 61.829,-43.3108 68.3087,-45.9593"/>
</g>
<!-- 58 -->
<g id="node7" class="node"><title>58</title>
<ellipse fill="white" stroke="black" cx="209" cy="-91.1543" rx="18.2703" ry="18.2703"/>
<text text-anchor="middle" x="209" y="-88.9543" font-family="Times,serif" font-size="9.00">58</text>
</g>
<!-- OA&#45;&gt;58 -->
<g id="edge18" class="edge"><title>OA&#45;&gt;58</title>
<path fill="none" stroke="green" stroke-width="0.276326" stroke-dasharray="1,5" d="M173.224,-369.739C180.492,-359.319 190.062,-345.704 196,-332.09 223.177,-269.779 220.075,-249.936 227,-182.309 228.665,-166.052 230.791,-161.435 227,-145.539 224.818,-136.39 220.801,-127.033 216.918,-118.76"/>
<polygon fill="green" stroke="green" stroke-width="0.276326" points="220.018,-117.13 212.541,-109.624 213.706,-120.155 220.018,-117.13"/>
</g>
<!-- OB -->
<g id="node9" class="node"><title>OB</title>
<ellipse fill="none" stroke="black" cx="163" cy="-238.815" rx="20.5122" ry="20.5122"/>
<text text-anchor="middle" x="163" y="-236.615" font-family="Times,serif" font-size="9.00">OB</text>
</g>
<!-- OA&#45;&gt;OB -->
<g id="edge4" class="edge"><title>OA&#45;&gt;OB</title>
<path fill="none" stroke="green" stroke-width="0.3814" stroke-dasharray="1,5" d="M159.974,-368.585C157.258,-343.151 156.409,-298.688 157.887,-269.247"/>
<polygon fill="green" stroke="green" stroke-width="0.3814" points="161.387,-269.347 158.537,-259.143 154.402,-268.897 161.387,-269.347"/>
</g>
<!-- 1 -->
<g id="node4" class="node"><title>1</title>
<ellipse fill="white" stroke="black" cx="352" cy="-461.366" rx="14.7" ry="14.7"/>
<text text-anchor="middle" x="352" y="-459.166" font-family="Times,serif" font-size="9.00">1</text>
</g>
<!-- 34&#45;&gt;OA -->
<g id="edge10" class="edge"><title>34&#45;&gt;OA</title>
<path fill="none" stroke="green" stroke-width="0.800185" stroke-dasharray="1,5" d="M123.693,-326.246C132.14,-335.53 142.668,-348.958 151.108,-360.951"/>
<polygon fill="green" stroke="green" stroke-width="0.800185" points="148.304,-363.053 156.824,-369.35 154.091,-359.114 148.304,-363.053"/>
</g>
<!-- 34&#45;&gt;26 -->
<g id="edge20" class="edge"><title>34&#45;&gt;26</title>
<path fill="none" stroke="red" stroke-width="0.228368" d="M110.623,-295.209C112.115,-275.056 117.029,-241.717 133,-218.309 145.458,-200.048 166.369,-186.036 183.106,-176.958"/>
<polygon fill="red" stroke="red" stroke-width="0.228368" points="185.09,-179.874 192.383,-172.189 181.889,-173.648 185.09,-179.874"/>
</g>
<!-- 34&#45;&gt;OB -->
<g id="edge15" class="edge"><title>34&#45;&gt;OB</title>
<path fill="none" stroke="green" stroke-width="0.247683" stroke-dasharray="1,5" d="M116.266,-296.166C122.62,-285.856 132.191,-272.482 141.121,-261.35"/>
<polygon fill="green" stroke="green" stroke-width="0.247683" points="144.06,-263.29 147.761,-253.362 138.677,-258.815 144.06,-263.29"/>
</g>
<!-- 33&#45;&gt;34 -->
<g id="edge14" class="edge"><title>33&#45;&gt;34</title>
<path fill="none" stroke="green" stroke-width="0.479182" stroke-dasharray="1,5" d="M78.0144,-36.7634C83.6943,-85.7638 99.8731,-225.34 106.795,-285.055"/>
<polygon fill="green" stroke="green" stroke-width="0.479182" points="103.347,-285.705 107.975,-295.235 110.3,-284.899 103.347,-285.705"/>
</g>
<!-- 58&#45;&gt;OA -->
<g id="edge22" class="edge"><title>58&#45;&gt;OA</title>
<path fill="none" stroke="green" stroke-width="0.552973" d="M223.384,-103.013C232.037,-113.403 241.241,-129.779 245,-145.539 248.791,-161.435 246.665,-166.052 245,-182.309 238.075,-249.936 241.177,-269.779 214,-332.09 208.124,-345.564 198.689,-359.037 189.467,-369.415"/>
<polygon fill="green" stroke="green" stroke-width="0.552973" points="186.891,-367.045 182.519,-376.695 191.955,-371.877 186.891,-367.045"/>
</g>
<!-- 58&#45;&gt;33 -->
<g id="edge23" class="edge"><title>58&#45;&gt;33</title>
<path fill="none" stroke="green" stroke-width="0.457682" d="M192.957,-81.6179C170.09,-69.4502 127.913,-47.0077 100.947,-32.6591"/>
<polygon fill="green" stroke="green" stroke-width="0.457682" points="102.572,-29.5592 92.0998,-27.9515 99.2837,-35.7388 102.572,-29.5592"/>
</g>
<!-- 58&#45;&gt;OB -->
<g id="edge19" class="edge"><title>58&#45;&gt;OB</title>
<path fill="none" stroke="green" stroke-width="0.374432" d="M199.831,-107.556C193.982,-117.969 186.653,-132.202 182,-145.539 174.884,-165.936 170.053,-189.849 167.044,-208.22"/>
<polygon fill="green" stroke="green" stroke-width="0.374432" points="163.55,-207.91 165.479,-218.328 170.468,-208.981 163.55,-207.91"/>
</g>
<!-- 26&#45;&gt;OA -->
<g id="edge13" class="edge"><title>26&#45;&gt;OA</title>
<path fill="none" stroke="green" stroke-width="1.21978" d="M208.072,-182.761C206.153,-213.624 200.719,-278.796 187,-332.09 184.589,-341.455 181.058,-351.372 177.528,-360.227"/>
<polygon fill="green" stroke="green" stroke-width="1.21978" points="174.202,-359.109 173.601,-369.686 180.668,-361.792 174.202,-359.109"/>
</g>
<!-- 26&#45;&gt;58 -->
<g id="edge21" class="edge"><title>26&#45;&gt;58</title>
<path fill="none" stroke="green" stroke-width="0.255072" d="M209,-145.43C209,-137.748 209,-128.539 209,-119.955"/>
<polygon fill="green" stroke="green" stroke-width="0.255072" points="212.5,-119.938 209,-109.938 205.5,-119.938 212.5,-119.938"/>
</g>
<!-- 26&#45;&gt;OB -->
<g id="edge6" class="edge"><title>26&#45;&gt;OB</title>
<path fill="none" stroke="green" stroke-width="0.221553" d="M204.174,-181.749C198.923,-191.796 190.955,-204.675 183.321,-215.556"/>
<polygon fill="green" stroke="green" stroke-width="0.221553" points="180.399,-213.621 177.327,-223.761 186.052,-217.75 180.399,-213.621"/>
</g>
<!-- OB&#45;&gt;OA -->
<g id="edge1" class="edge"><title>OB&#45;&gt;OA</title>
<path fill="none" stroke="green" stroke-width="0.147476" d="M167.974,-259.053C170.707,-284.183 171.585,-328.458 170.152,-358.087"/>
<polygon fill="green" stroke="green" stroke-width="0.147476" points="166.646,-358.08 169.519,-368.278 173.632,-358.514 166.646,-358.08"/>
</g>
<!-- OB&#45;&gt;34 -->
<g id="edge16" class="edge"><title>OB&#45;&gt;34</title>
<path fill="none" stroke="red" stroke-width="0.107888" stroke-dasharray="1,5" d="M155.682,-258.044C148.933,-268.763 139.119,-282.313 130.205,-293.24"/>
<polygon fill="red" stroke="red" stroke-width="0.107888" points="127.428,-291.104 123.63,-300.994 132.767,-295.631 127.428,-291.104"/>
</g>
<!-- OB&#45;&gt;26 -->
<g id="edge5" class="edge"><title>OB&#45;&gt;26</title>
<path fill="none" stroke="red" stroke-width="0.15747" stroke-dasharray="1,5" d="M168.858,-219.044C174.385,-208.762 182.385,-196.004 189.899,-185.458"/>
<polygon fill="red" stroke="red" stroke-width="0.15747" points="192.867,-187.333 196.032,-177.222 187.252,-183.152 192.867,-187.333"/>
</g>
</g>
</svg>
