<?xml version="1.0" encoding="UTF-8" standalone="no"?>
<!DOCTYPE svg PUBLIC "-//W3C//DTD SVG 1.1//EN"
 "http://www.w3.org/Graphics/SVG/1.1/DTD/svg11.dtd">
<!-- Generated by graphviz version 2.38.0 (20140413.2041)
 -->
<!-- Title: %3 Pages: 1 -->
<svg width="390pt" height="190pt"
 viewBox="0.00 0.00 390.50 189.92" xmlns="http://www.w3.org/2000/svg" xmlns:xlink="http://www.w3.org/1999/xlink">
<g id="graph0" class="graph" transform="scale(1 1) rotate(0) translate(4 185.924)">
<title>%3</title>
<polygon fill="white" stroke="none" points="-4,4 -4,-185.924 386.497,-185.924 386.497,4 -4,4"/>
<!-- IA -->
<g id="node1" class="node"><title>IA</title>
<polygon fill="lightgray" stroke="black" points="281.749,-181.924 255.749,-181.924 255.749,-163.924 281.749,-163.924 281.749,-181.924"/>
<text text-anchor="middle" x="268.749" y="-170.724" font-family="Times,serif" font-size="9.00">IA</text>
</g>
<!-- OB -->
<g id="node4" class="node"><title>OB</title>
<ellipse fill="lightblue" stroke="black" cx="148.749" cy="-21.2132" rx="20.5122" ry="20.5122"/>
<text text-anchor="middle" x="148.749" y="-19.0132" font-family="Times,serif" font-size="9.00">OB</text>
</g>
<!-- IA&#45;&gt;OB -->
<g id="edge11" class="edge"><title>IA&#45;&gt;OB</title>
<path fill="none" stroke="red" stroke-width="0.1" d="M273.773,-163.879C283.823,-146.651 303.943,-105.558 285.749,-78.4264 284.94,-77.2207 217.024,-49.7134 177.133,-33.633"/>
<polygon fill="red" stroke="red" stroke-width="0.1" points="178.237,-30.3042 167.653,-29.8139 175.621,-36.7972 178.237,-30.3042"/>
</g>
<!-- 1355 -->
<g id="node6" class="node"><title>1355</title>
<ellipse fill="white" stroke="black" cx="233.749" cy="-103.175" rx="25" ry="25"/>
<text text-anchor="middle" x="233.749" y="-100.975" font-family="Times,serif" font-size="9.00">1355</text>
</g>
<!-- IA&#45;&gt;1355 -->
<g id="edge1" class="edge"><title>IA&#45;&gt;1355</title>
<path fill="none" stroke="green" stroke-width="0.193717" d="M264.596,-163.886C260.843,-156.621 255.073,-145.452 249.534,-134.73"/>
<polygon fill="green" stroke="green" stroke-width="0.193717" points="252.482,-132.811 244.782,-125.533 246.263,-136.024 252.482,-132.811"/>
</g>
<!-- 1356 -->
<g id="node7" class="node"><title>1356</title>
<ellipse fill="white" stroke="black" cx="148.749" cy="-103.175" rx="25" ry="25"/>
<text text-anchor="middle" x="148.749" y="-100.975" font-family="Times,serif" font-size="9.00">1356</text>
</g>
<!-- IA&#45;&gt;1356 -->
<g id="edge2" class="edge"><title>IA&#45;&gt;1356</title>
<path fill="none" stroke="red" stroke-width="0.485828" d="M255.448,-164.415C237.159,-154.089 203.72,-135.21 179.135,-121.33"/>
<polygon fill="red" stroke="red" stroke-width="0.485828" points="180.625,-118.152 170.196,-116.284 177.183,-124.248 180.625,-118.152"/>
</g>
<!-- 1357 -->
<g id="node8" class="node"><title>1357</title>
<ellipse fill="none" stroke="black" cx="357.749" cy="-103.175" rx="25" ry="25"/>
<text text-anchor="middle" x="357.749" y="-100.975" font-family="Times,serif" font-size="9.00">1357</text>
</g>
<!-- IA&#45;&gt;1357 -->
<g id="edge3" class="edge"><title>IA&#45;&gt;1357</title>
<path fill="none" stroke="green" stroke-width="0.106127" d="M279.308,-163.886C291.812,-154.368 313.119,-138.148 330.373,-125.014"/>
<polygon fill="green" stroke="green" stroke-width="0.106127" points="332.624,-127.699 338.461,-118.857 328.384,-122.129 332.624,-127.699"/>
</g>
<!-- IB -->
<g id="node2" class="node"><title>IB</title>
<polygon fill="lightgray" stroke="black" points="161.749,-181.924 135.749,-181.924 135.749,-163.924 161.749,-163.924 161.749,-181.924"/>
<text text-anchor="middle" x="148.749" y="-170.724" font-family="Times,serif" font-size="9.00">IB</text>
</g>
<!-- IB&#45;&gt;OB -->
<g id="edge12" class="edge"><title>IB&#45;&gt;OB</title>
<path fill="none" stroke="red" stroke-width="0.1" d="M139.782,-163.863C131.473,-155.736 119.676,-142.359 114.749,-127.924 107.642,-107.104 108.839,-99.6166 114.749,-78.4264 117.907,-67.1037 124.032,-55.7869 130.225,-46.3064"/>
<polygon fill="red" stroke="red" stroke-width="0.1" points="133.272,-48.0533 136.087,-37.8393 127.517,-44.0685 133.272,-48.0533"/>
</g>
<!-- IB&#45;&gt;1355 -->
<g id="edge4" class="edge"><title>IB&#45;&gt;1355</title>
<path fill="none" stroke="green" stroke-width="0.165717" d="M158.833,-163.886C170.517,-154.574 190.248,-138.847 206.528,-125.871"/>
<polygon fill="green" stroke="green" stroke-width="0.165717" points="209.028,-128.354 214.666,-119.385 204.665,-122.88 209.028,-128.354"/>
</g>
<!-- IB&#45;&gt;1356 -->
<g id="edge5" class="edge"><title>IB&#45;&gt;1356</title>
<path fill="none" stroke="green" stroke-width="0.268592" d="M148.749,-163.886C148.749,-157.451 148.749,-147.953 148.749,-138.417"/>
<polygon fill="green" stroke="green" stroke-width="0.268592" points="152.249,-138.196 148.749,-128.196 145.249,-138.196 152.249,-138.196"/>
</g>
<!-- OA -->
<g id="node3" class="node"><title>OA</title>
<ellipse fill="lightblue" stroke="black" cx="229.749" cy="-21.2132" rx="21.4286" ry="21.4286"/>
<text text-anchor="middle" x="229.749" y="-19.0132" font-family="Times,serif" font-size="9.00">OA</text>
</g>
<!-- OA&#45;&gt;OA -->
<g id="edge13" class="edge"><title>OA&#45;&gt;OA</title>
<path fill="none" stroke="green" stroke-width="0.121162" d="M246.269,-34.7484C257.703,-38.8499 268.962,-34.3382 268.962,-21.2132 268.962,-12.1898 263.641,-7.23745 256.599,-6.35625"/>
<polygon fill="green" stroke="green" stroke-width="0.121162" points="255.744,-2.93705 246.269,-7.67805 256.632,-9.88044 255.744,-2.93705"/>
</g>
<!-- OB&#45;&gt;OB -->
<g id="edge14" class="edge"><title>OB&#45;&gt;OB</title>
<path fill="none" stroke="red" stroke-width="0.1" d="M164.57,-34.5982C175.935,-38.9561 187.255,-34.4945 187.255,-21.2132 187.255,-12.0823 181.904,-7.12011 174.867,-6.32651"/>
<polygon fill="red" stroke="red" stroke-width="0.1" points="173.96,-2.92166 164.57,-7.82819 174.971,-9.84839 173.96,-2.92166"/>
</g>
<!-- 1354 -->
<g id="node5" class="node"><title>1354</title>
<ellipse fill="white" stroke="black" cx="24.7487" cy="-103.175" rx="25" ry="25"/>
<text text-anchor="middle" x="24.7487" y="-100.975" font-family="Times,serif" font-size="9.00">1354</text>
</g>
<!-- 1354&#45;&gt;OB -->
<g id="edge6" class="edge"><title>1354&#45;&gt;OB</title>
<path fill="none" stroke="red" stroke-width="0.1" d="M45.2248,-88.9711C66.6007,-75.1867 100.164,-53.5433 123.247,-38.6583"/>
<polygon fill="red" stroke="red" stroke-width="0.1" points="125.324,-41.4831 131.832,-33.1221 121.531,-35.6002 125.324,-41.4831"/>
</g>
<!-- 1354&#45;&gt;1354 -->
<g id="edge15" class="edge"><title>1354&#45;&gt;1354</title>
<path fill="none" stroke="red" stroke-width="0.1" d="M46.3044,-115.477C57.4504,-117.369 67.4975,-113.269 67.4975,-103.175 67.4975,-96.3934 62.9621,-92.3171 56.6052,-90.9462"/>
<polygon fill="red" stroke="red" stroke-width="0.1" points="56.329,-87.4442 46.3044,-90.8734 56.2794,-94.444 56.329,-87.4442"/>
</g>
<!-- 1355&#45;&gt;OA -->
<g id="edge7" class="edge"><title>1355&#45;&gt;OA</title>
<path fill="none" stroke="green" stroke-width="0.111692" d="M232.549,-78.1839C232.147,-70.1622 231.695,-61.1124 231.272,-52.6651"/>
<polygon fill="green" stroke="green" stroke-width="0.111692" points="234.754,-52.223 230.759,-42.4103 227.763,-52.5728 234.754,-52.223"/>
</g>
<!-- 1355&#45;&gt;OB -->
<g id="edge8" class="edge"><title>1355&#45;&gt;OB</title>
<path fill="none" stroke="green" stroke-width="0.107234" d="M216.137,-85.607C202.925,-73.1787 184.76,-56.09 170.618,-42.7864"/>
<polygon fill="green" stroke="green" stroke-width="0.107234" points="172.914,-40.1412 163.233,-35.8385 168.118,-45.2398 172.914,-40.1412"/>
</g>
<!-- 1355&#45;&gt;1355 -->
<g id="edge16" class="edge"><title>1355&#45;&gt;1355</title>
<path fill="none" stroke="green" stroke-width="0.100584" d="M255.304,-115.477C266.45,-117.369 276.497,-113.269 276.497,-103.175 276.497,-96.3934 271.962,-92.3171 265.605,-90.9462"/>
<polygon fill="green" stroke="green" stroke-width="0.100584" points="265.329,-87.4442 255.304,-90.8734 265.279,-94.444 265.329,-87.4442"/>
</g>
<!-- 1356&#45;&gt;OA -->
<g id="edge9" class="edge"><title>1356&#45;&gt;OA</title>
<path fill="none" stroke="red" stroke-width="0.542844" d="M165.927,-85.2173C178.116,-73.184 194.582,-56.9297 207.735,-43.945"/>
<polygon fill="red" stroke="red" stroke-width="0.542844" points="210.381,-46.2504 215.039,-36.7343 205.464,-41.2688 210.381,-46.2504"/>
</g>
<!-- 1356&#45;&gt;OB -->
<g id="edge10" class="edge"><title>1356&#45;&gt;OB</title>
<path fill="none" stroke="red" stroke-width="0.28999" d="M148.749,-78.1839C148.749,-69.9423 148.749,-60.6153 148.749,-51.9717"/>
<polygon fill="red" stroke="red" stroke-width="0.28999" points="152.249,-51.8861 148.749,-41.8861 145.249,-51.8862 152.249,-51.8861"/>
</g>
<!-- 1356&#45;&gt;1356 -->
<g id="edge17" class="edge"><title>1356&#45;&gt;1356</title>
<path fill="none" stroke="red" stroke-width="0.120423" d="M170.304,-115.477C181.45,-117.369 191.497,-113.269 191.497,-103.175 191.497,-96.3934 186.962,-92.3171 180.605,-90.9462"/>
<polygon fill="red" stroke="red" stroke-width="0.120423" points="180.329,-87.4442 170.304,-90.8734 180.279,-94.444 180.329,-87.4442"/>
</g>
</g>
</svg>
