<?xml version="1.0" encoding="UTF-8" standalone="no"?>
<!DOCTYPE svg PUBLIC "-//W3C//DTD SVG 1.1//EN"
 "http://www.w3.org/Graphics/SVG/1.1/DTD/svg11.dtd">
<!-- Generated by graphviz version 2.38.0 (20140413.2041)
 -->
<!-- Title: %3 Pages: 1 -->
<svg width="372pt" height="190pt"
 viewBox="0.00 0.00 372.50 189.92" xmlns="http://www.w3.org/2000/svg" xmlns:xlink="http://www.w3.org/1999/xlink">
<g id="graph0" class="graph" transform="scale(1 1) rotate(0) translate(4 185.924)">
<title>%3</title>
<polygon fill="white" stroke="none" points="-4,4 -4,-185.924 368.497,-185.924 368.497,4 -4,4"/>
<!-- IA -->
<g id="node1" class="node"><title>IA</title>
<polygon fill="lightgray" stroke="black" points="139.749,-181.924 113.749,-181.924 113.749,-163.924 139.749,-163.924 139.749,-181.924"/>
<text text-anchor="middle" x="126.749" y="-170.724" font-family="Times,serif" font-size="9.00">IA</text>
</g>
<!-- OA -->
<g id="node3" class="node"><title>OA</title>
<ellipse fill="lightblue" stroke="black" cx="162.749" cy="-21.2132" rx="21.4286" ry="21.4286"/>
<text text-anchor="middle" x="162.749" y="-19.0132" font-family="Times,serif" font-size="9.00">OA</text>
</g>
<!-- IA&#45;&gt;OA -->
<g id="edge11" class="edge"><title>IA&#45;&gt;OA</title>
<path fill="none" stroke="red" stroke-width="0.142666" d="M130.493,-163.65C134.312,-154.925 140.168,-140.698 143.749,-127.924 150.766,-102.888 155.776,-73.7621 158.883,-52.4302"/>
<polygon fill="red" stroke="red" stroke-width="0.142666" points="162.375,-52.7316 160.296,-42.3428 155.443,-51.7608 162.375,-52.7316"/>
</g>
<!-- 1050 -->
<g id="node5" class="node"><title>1050</title>
<ellipse fill="white" stroke="black" cx="24.7487" cy="-103.175" rx="25" ry="25"/>
<text text-anchor="middle" x="24.7487" y="-100.975" font-family="Times,serif" font-size="9.00">1050</text>
</g>
<!-- IA&#45;&gt;1050 -->
<g id="edge1" class="edge"><title>IA&#45;&gt;1050</title>
<path fill="none" stroke="green" stroke-width="0.127974" d="M113.636,-163.867C99.6495,-155.203 76.9177,-140.918 57.7487,-127.924 56.1274,-126.825 54.4698,-125.685 52.8029,-124.526"/>
<polygon fill="green" stroke="green" stroke-width="0.127974" points="54.7026,-121.583 44.5149,-118.674 50.6649,-127.301 54.7026,-121.583"/>
</g>
<!-- 1051 -->
<g id="node6" class="node"><title>1051</title>
<ellipse fill="white" stroke="black" cx="215.749" cy="-103.175" rx="25" ry="25"/>
<text text-anchor="middle" x="215.749" y="-100.975" font-family="Times,serif" font-size="9.00">1051</text>
</g>
<!-- IA&#45;&gt;1051 -->
<g id="edge2" class="edge"><title>IA&#45;&gt;1051</title>
<path fill="none" stroke="red" stroke-width="0.1" d="M137.308,-163.886C149.812,-154.368 171.119,-138.148 188.373,-125.014"/>
<polygon fill="red" stroke="red" stroke-width="0.1" points="190.624,-127.699 196.461,-118.857 186.384,-122.129 190.624,-127.699"/>
</g>
<!-- 1052 -->
<g id="node7" class="node"><title>1052</title>
<ellipse fill="white" stroke="black" cx="91.7487" cy="-103.175" rx="25" ry="25"/>
<text text-anchor="middle" x="91.7487" y="-100.975" font-family="Times,serif" font-size="9.00">1052</text>
</g>
<!-- IA&#45;&gt;1052 -->
<g id="edge3" class="edge"><title>IA&#45;&gt;1052</title>
<path fill="none" stroke="red" stroke-width="0.1" d="M122.596,-163.886C118.843,-156.621 113.073,-145.452 107.534,-134.73"/>
<polygon fill="red" stroke="red" stroke-width="0.1" points="110.482,-132.811 102.782,-125.533 104.263,-136.024 110.482,-132.811"/>
</g>
<!-- IB -->
<g id="node2" class="node"><title>IB</title>
<polygon fill="lightgray" stroke="black" points="281.749,-181.924 255.749,-181.924 255.749,-163.924 281.749,-163.924 281.749,-181.924"/>
<text text-anchor="middle" x="268.749" y="-170.724" font-family="Times,serif" font-size="9.00">IB</text>
</g>
<!-- IB&#45;&gt;OA -->
<g id="edge12" class="edge"><title>IB&#45;&gt;OA</title>
<path fill="none" stroke="red" stroke-width="0.1" d="M269.112,-163.872C269.491,-146.632 268.235,-105.517 249.749,-78.4264 235.615,-57.7141 211.066,-42.8875 191.642,-33.68"/>
<polygon fill="red" stroke="red" stroke-width="0.1" points="192.867,-30.3936 182.31,-29.4931 190.001,-36.7802 192.867,-30.3936"/>
</g>
<!-- IB&#45;&gt;1051 -->
<g id="edge4" class="edge"><title>IB&#45;&gt;1051</title>
<path fill="none" stroke="green" stroke-width="0.121244" d="M262.461,-163.886C256.134,-155.798 246.022,-142.872 236.821,-131.112"/>
<polygon fill="green" stroke="green" stroke-width="0.121244" points="239.574,-128.95 230.655,-123.23 234.06,-133.263 239.574,-128.95"/>
</g>
<!-- 1053 -->
<g id="node8" class="node"><title>1053</title>
<ellipse fill="none" stroke="black" cx="321.749" cy="-103.175" rx="25" ry="25"/>
<text text-anchor="middle" x="321.749" y="-100.975" font-family="Times,serif" font-size="9.00">1053</text>
</g>
<!-- IB&#45;&gt;1053 -->
<g id="edge5" class="edge"><title>IB&#45;&gt;1053</title>
<path fill="none" stroke="red" stroke-width="0.1" d="M275.037,-163.886C281.364,-155.798 291.476,-142.872 300.676,-131.112"/>
<polygon fill="red" stroke="red" stroke-width="0.1" points="303.437,-133.263 306.842,-123.23 297.924,-128.95 303.437,-133.263"/>
</g>
<!-- OA&#45;&gt;OA -->
<g id="edge13" class="edge"><title>OA&#45;&gt;OA</title>
<path fill="none" stroke="green" stroke-width="0.128884" d="M179.269,-34.7484C190.703,-38.8499 201.962,-34.3382 201.962,-21.2132 201.962,-12.1898 196.641,-7.23745 189.599,-6.35625"/>
<polygon fill="green" stroke="green" stroke-width="0.128884" points="188.744,-2.93705 179.269,-7.67805 189.632,-9.88044 188.744,-2.93705"/>
</g>
<!-- OB -->
<g id="node4" class="node"><title>OB</title>
<ellipse fill="lightblue" stroke="black" cx="54.7487" cy="-21.2132" rx="20.5122" ry="20.5122"/>
<text text-anchor="middle" x="54.7487" y="-19.0132" font-family="Times,serif" font-size="9.00">OB</text>
</g>
<!-- OB&#45;&gt;OB -->
<g id="edge14" class="edge"><title>OB&#45;&gt;OB</title>
<path fill="none" stroke="red" stroke-width="0.141803" d="M70.5701,-34.5982C81.9346,-38.9561 93.2548,-34.4945 93.2548,-21.2132 93.2548,-12.0823 87.9042,-7.12011 80.8672,-6.32651"/>
<polygon fill="red" stroke="red" stroke-width="0.141803" points="79.9603,-2.92166 70.5701,-7.82819 80.9705,-9.84839 79.9603,-2.92166"/>
</g>
<!-- 1050&#45;&gt;OA -->
<g id="edge6" class="edge"><title>1050&#45;&gt;OA</title>
<path fill="none" stroke="red" stroke-width="0.1" d="M44.3506,-87.4237C48.6897,-84.3412 53.3168,-81.1906 57.7487,-78.4264 83.0045,-62.6743 113.058,-46.8629 134.527,-36.0397"/>
<polygon fill="red" stroke="red" stroke-width="0.1" points="136.359,-39.0372 143.74,-31.4361 133.23,-32.7755 136.359,-39.0372"/>
</g>
<!-- 1050&#45;&gt;OB -->
<g id="edge7" class="edge"><title>1050&#45;&gt;OB</title>
<path fill="none" stroke="red" stroke-width="0.317844" d="M33.2653,-79.4751C36.6852,-70.3597 40.6619,-59.7602 44.2575,-50.1765"/>
<polygon fill="red" stroke="red" stroke-width="0.317844" points="47.5915,-51.2538 47.8273,-40.6616 41.0376,-48.7949 47.5915,-51.2538"/>
</g>
<!-- 1051&#45;&gt;OA -->
<g id="edge8" class="edge"><title>1051&#45;&gt;OA</title>
<path fill="none" stroke="red" stroke-width="0.142454" d="M202.375,-81.9974C195.503,-71.6295 187.055,-58.8847 179.728,-47.8297"/>
<polygon fill="red" stroke="red" stroke-width="0.142454" points="182.585,-45.8055 174.143,-39.4039 176.75,-49.6729 182.585,-45.8055"/>
</g>
<!-- 1051&#45;&gt;OB -->
<g id="edge9" class="edge"><title>1051&#45;&gt;OB</title>
<path fill="none" stroke="red" stroke-width="0.302034" d="M193.7,-91.2244C164.666,-76.8047 113.624,-51.4542 82.1442,-35.8194"/>
<polygon fill="red" stroke="red" stroke-width="0.302034" points="83.5616,-32.6155 73.0485,-31.3019 80.4479,-38.8848 83.5616,-32.6155"/>
</g>
<!-- 1052&#45;&gt;OA -->
<g id="edge10" class="edge"><title>1052&#45;&gt;OA</title>
<path fill="none" stroke="red" stroke-width="0.1" d="M107.86,-84.0305C118.063,-72.5397 131.348,-57.5776 142.293,-45.2515"/>
<polygon fill="red" stroke="red" stroke-width="0.1" points="145.068,-47.3967 149.091,-37.5952 139.834,-42.749 145.068,-47.3967"/>
</g>
<!-- 1052&#45;&gt;1052 -->
<g id="edge15" class="edge"><title>1052&#45;&gt;1052</title>
<path fill="none" stroke="red" stroke-width="0.1" d="M113.304,-115.477C124.45,-117.369 134.497,-113.269 134.497,-103.175 134.497,-96.3934 129.962,-92.3171 123.605,-90.9462"/>
<polygon fill="red" stroke="red" stroke-width="0.1" points="123.329,-87.4442 113.304,-90.8734 123.279,-94.444 123.329,-87.4442"/>
</g>
<!-- 1053&#45;&gt;1053 -->
<g id="edge16" class="edge"><title>1053&#45;&gt;1053</title>
<path fill="none" stroke="red" stroke-width="0.228718" d="M343.304,-115.477C354.45,-117.369 364.497,-113.269 364.497,-103.175 364.497,-96.3934 359.962,-92.3171 353.605,-90.9462"/>
<polygon fill="red" stroke="red" stroke-width="0.228718" points="353.329,-87.4442 343.304,-90.8734 353.279,-94.444 353.329,-87.4442"/>
</g>
</g>
</svg>
