<?xml version="1.0" encoding="UTF-8" standalone="no"?>
<!DOCTYPE svg PUBLIC "-//W3C//DTD SVG 1.1//EN"
 "http://www.w3.org/Graphics/SVG/1.1/DTD/svg11.dtd">
<!-- Generated by graphviz version 2.38.0 (20140413.2041)
 -->
<!-- Title: %3 Pages: 1 -->
<svg width="435pt" height="293pt"
 viewBox="0.00 0.00 435.43 292.78" xmlns="http://www.w3.org/2000/svg" xmlns:xlink="http://www.w3.org/1999/xlink">
<g id="graph0" class="graph" transform="scale(1 1) rotate(0) translate(4 288.777)">
<title>%3</title>
<polygon fill="white" stroke="none" points="-4,4 -4,-288.777 431.426,-288.777 431.426,4 -4,4"/>
<!-- IA -->
<g id="node1" class="node"><title>IA</title>
<polygon fill="lightgray" stroke="black" points="34.2132,-269.028 8.2132,-269.028 8.2132,-251.028 34.2132,-251.028 34.2132,-269.028"/>
<text text-anchor="middle" x="21.2132" y="-257.828" font-family="Times,serif" font-size="9.00">IA</text>
</g>
<!-- OA -->
<g id="node3" class="node"><title>OA</title>
<ellipse fill="lightblue" stroke="black" cx="21.2132" cy="-99.6396" rx="21.4286" ry="21.4286"/>
<text text-anchor="middle" x="21.2132" y="-97.4396" font-family="Times,serif" font-size="9.00">OA</text>
</g>
<!-- IA&#45;&gt;OA -->
<g id="edge2" class="edge"><title>IA&#45;&gt;OA</title>
<path fill="none" stroke="red" stroke-width="1.05384" d="M20.3189,-250.924C19.1017,-239.446 16.9864,-217.792 16.2132,-199.279 15.4263,-180.439 15.3771,-175.69 16.2132,-156.853 16.5859,-148.456 17.2702,-139.375 18.0155,-131.011"/>
<polygon fill="red" stroke="red" stroke-width="1.05384" points="21.514,-131.191 18.9732,-120.906 14.5452,-130.531 21.514,-131.191"/>
</g>
<!-- 308 -->
<g id="node8" class="node"><title>308</title>
<ellipse fill="white" stroke="black" cx="46.2132" cy="-178.066" rx="21.4286" ry="21.4286"/>
<text text-anchor="middle" x="46.2132" y="-175.866" font-family="Times,serif" font-size="9.00">308</text>
</g>
<!-- IA&#45;&gt;308 -->
<g id="edge6" class="edge"><title>IA&#45;&gt;308</title>
<path fill="none" stroke="green" stroke-width="0.390016" d="M23.7945,-250.772C26.8962,-240.851 32.272,-223.657 36.9818,-208.592"/>
<polygon fill="green" stroke="green" stroke-width="0.390016" points="40.4564,-209.208 40.1,-198.619 33.7754,-207.119 40.4564,-209.208"/>
</g>
<!-- IB -->
<g id="node2" class="node"><title>IB</title>
<polygon fill="lightgray" stroke="black" points="119.213,-269.028 93.2132,-269.028 93.2132,-251.028 119.213,-251.028 119.213,-269.028"/>
<text text-anchor="middle" x="106.213" y="-257.828" font-family="Times,serif" font-size="9.00">IB</text>
</g>
<!-- OB -->
<g id="node4" class="node"><title>OB</title>
<ellipse fill="lightblue" stroke="black" cx="106.213" cy="-178.066" rx="20.5122" ry="20.5122"/>
<text text-anchor="middle" x="106.213" y="-175.866" font-family="Times,serif" font-size="9.00">OB</text>
</g>
<!-- IB&#45;&gt;OB -->
<g id="edge4" class="edge"><title>IB&#45;&gt;OB</title>
<path fill="none" stroke="green" stroke-width="0.469109" d="M106.213,-250.772C106.213,-240.946 106.213,-223.987 106.213,-209.027"/>
<polygon fill="green" stroke="green" stroke-width="0.469109" points="109.713,-208.619 106.213,-198.619 102.713,-208.619 109.713,-208.619"/>
</g>
<!-- 818 -->
<g id="node7" class="node"><title>818</title>
<ellipse fill="white" stroke="black" cx="21.2132" cy="-21.2132" rx="21.4286" ry="21.4286"/>
<text text-anchor="middle" x="21.2132" y="-19.0132" font-family="Times,serif" font-size="9.00">818</text>
</g>
<!-- OA&#45;&gt;818 -->
<g id="edge3" class="edge"><title>OA&#45;&gt;818</title>
<path fill="none" stroke="green" stroke-width="0.331714" d="M21.2132,-78.1587C21.2132,-70.3001 21.2132,-61.1558 21.2132,-52.5655"/>
<polygon fill="green" stroke="green" stroke-width="0.331714" points="24.7133,-52.4856 21.2132,-42.4856 17.7133,-52.4856 24.7133,-52.4856"/>
</g>
<!-- OB&#45;&gt;OB -->
<g id="edge1" class="edge"><title>OB&#45;&gt;OB</title>
<path fill="none" stroke="red" stroke-width="0.958173" d="M122.035,-191.116C133.399,-195.365 144.719,-191.015 144.719,-178.066 144.719,-169.163 139.369,-164.325 132.332,-163.551"/>
<polygon fill="red" stroke="red" stroke-width="0.958173" points="131.442,-160.143 122.035,-165.016 132.428,-167.073 131.442,-160.143"/>
</g>
<!-- 488 -->
<g id="node5" class="node"><title>488</title>
<ellipse fill="white" stroke="black" cx="158.213" cy="-260.028" rx="21.4286" ry="21.4286"/>
<text text-anchor="middle" x="158.213" y="-257.828" font-family="Times,serif" font-size="9.00">488</text>
</g>
<!-- 144 -->
<g id="node6" class="node"><title>144</title>
<ellipse fill="white" stroke="black" cx="218.213" cy="-260.028" rx="21.4286" ry="21.4286"/>
<text text-anchor="middle" x="218.213" y="-257.828" font-family="Times,serif" font-size="9.00">144</text>
</g>
<!-- 308&#45;&gt;OA -->
<g id="edge5" class="edge"><title>308&#45;&gt;OA</title>
<path fill="none" stroke="green" stroke-width="0.331058" d="M39.9046,-157.78C37.1215,-149.272 33.7905,-139.089 30.7165,-129.692"/>
<polygon fill="green" stroke="green" stroke-width="0.331058" points="33.9554,-128.335 27.5197,-119.919 27.3023,-130.512 33.9554,-128.335"/>
</g>
<!-- 1044 -->
<g id="node9" class="node"><title>1044</title>
<ellipse fill="white" stroke="black" cx="282.213" cy="-260.028" rx="25" ry="25"/>
<text text-anchor="middle" x="282.213" y="-257.828" font-family="Times,serif" font-size="9.00">1044</text>
</g>
<!-- 539 -->
<g id="node10" class="node"><title>539</title>
<ellipse fill="white" stroke="black" cx="346.213" cy="-260.028" rx="21.4286" ry="21.4286"/>
<text text-anchor="middle" x="346.213" y="-257.828" font-family="Times,serif" font-size="9.00">539</text>
</g>
<!-- 991 -->
<g id="node11" class="node"><title>991</title>
<ellipse fill="white" stroke="black" cx="406.213" cy="-260.028" rx="21.4286" ry="21.4286"/>
<text text-anchor="middle" x="406.213" y="-257.828" font-family="Times,serif" font-size="9.00">991</text>
</g>
</g>
</svg>
