<?xml version="1.0" encoding="UTF-8" standalone="no"?>
<!DOCTYPE svg PUBLIC "-//W3C//DTD SVG 1.1//EN"
 "http://www.w3.org/Graphics/SVG/1.1/DTD/svg11.dtd">
<!-- Generated by graphviz version 2.38.0 (20140413.2041)
 -->
<!-- Title: %3 Pages: 1 -->
<svg width="304pt" height="183pt"
 viewBox="0.00 0.00 304.43 182.85" xmlns="http://www.w3.org/2000/svg" xmlns:xlink="http://www.w3.org/1999/xlink">
<g id="graph0" class="graph" transform="scale(1 1) rotate(0) translate(4 178.853)">
<title>%3</title>
<polygon fill="white" stroke="none" points="-4,4 -4,-178.853 300.426,-178.853 300.426,4 -4,4"/>
<!-- IA -->
<g id="node1" class="node"><title>IA</title>
<polygon fill="lightgray" stroke="black" points="192.213,-174.853 166.213,-174.853 166.213,-156.853 192.213,-156.853 192.213,-174.853"/>
<text text-anchor="middle" x="179.213" y="-163.653" font-family="Times,serif" font-size="9.00">IA</text>
</g>
<!-- 494 -->
<g id="node5" class="node"><title>494</title>
<ellipse fill="white" stroke="black" cx="119.213" cy="-99.6396" rx="21.4286" ry="21.4286"/>
<text text-anchor="middle" x="119.213" y="-97.4396" font-family="Times,serif" font-size="9.00">494</text>
</g>
<!-- IA&#45;&gt;494 -->
<g id="edge1" class="edge"><title>IA&#45;&gt;494</title>
<path fill="none" stroke="red" stroke-width="0.211043" d="M171.614,-156.72C163.75,-148.304 151.116,-134.783 140.224,-123.125"/>
<polygon fill="red" stroke="red" stroke-width="0.211043" points="142.77,-120.724 133.385,-115.806 137.655,-125.503 142.77,-120.724"/>
</g>
<!-- 497 -->
<g id="node7" class="node"><title>497</title>
<ellipse fill="white" stroke="black" cx="257.213" cy="-99.6396" rx="21.4286" ry="21.4286"/>
<text text-anchor="middle" x="257.213" y="-97.4396" font-family="Times,serif" font-size="9.00">497</text>
</g>
<!-- IA&#45;&gt;497 -->
<g id="edge3" class="edge"><title>IA&#45;&gt;497</title>
<path fill="none" stroke="red" stroke-width="0.162664" d="M189.092,-156.72C200.16,-147.608 218.499,-132.511 233.362,-120.275"/>
<polygon fill="red" stroke="red" stroke-width="0.162664" points="235.697,-122.886 241.193,-113.828 231.248,-117.482 235.697,-122.886"/>
</g>
<!-- 495 -->
<g id="node8" class="node"><title>495</title>
<ellipse fill="none" stroke="black" cx="179.213" cy="-99.6396" rx="21.4286" ry="21.4286"/>
<text text-anchor="middle" x="179.213" y="-97.4396" font-family="Times,serif" font-size="9.00">495</text>
</g>
<!-- IA&#45;&gt;495 -->
<g id="edge2" class="edge"><title>IA&#45;&gt;495</title>
<path fill="none" stroke="red" stroke-width="0.111007" d="M179.213,-156.72C179.213,-150.177 179.213,-140.548 179.213,-131.109"/>
<polygon fill="red" stroke="red" stroke-width="0.111007" points="182.713,-131.095 179.213,-121.095 175.713,-131.095 182.713,-131.095"/>
</g>
<!-- IB -->
<g id="node2" class="node"><title>IB</title>
<polygon fill="lightgray" stroke="black" points="107.213,-174.853 81.2132,-174.853 81.2132,-156.853 107.213,-156.853 107.213,-174.853"/>
<text text-anchor="middle" x="94.2132" y="-163.653" font-family="Times,serif" font-size="9.00">IB</text>
</g>
<!-- OA -->
<g id="node3" class="node"><title>OA</title>
<ellipse fill="lightblue" stroke="black" cx="70.2132" cy="-21.2132" rx="21.4286" ry="21.4286"/>
<text text-anchor="middle" x="70.2132" y="-19.0132" font-family="Times,serif" font-size="9.00">OA</text>
</g>
<!-- IB&#45;&gt;OA -->
<g id="edge10" class="edge"><title>IB&#45;&gt;OA</title>
<path fill="none" stroke="green" stroke-width="0.173428" d="M92.8541,-156.775C89.5345,-137.046 80.8766,-85.589 75.2804,-52.3292"/>
<polygon fill="green" stroke="green" stroke-width="0.173428" points="78.6925,-51.5139 73.5817,-42.2333 71.7895,-52.6754 78.6925,-51.5139"/>
</g>
<!-- IB&#45;&gt;494 -->
<g id="edge4" class="edge"><title>IB&#45;&gt;494</title>
<path fill="none" stroke="red" stroke-width="0.100621" d="M97.3795,-156.72C100.108,-149.713 104.214,-139.165 108.132,-129.102"/>
<polygon fill="red" stroke="red" stroke-width="0.100621" points="111.413,-130.322 111.78,-119.733 104.89,-127.782 111.413,-130.322"/>
</g>
<!-- 496 -->
<g id="node6" class="node"><title>496</title>
<ellipse fill="white" stroke="black" cx="21.2132" cy="-99.6396" rx="21.4286" ry="21.4286"/>
<text text-anchor="middle" x="21.2132" y="-97.4396" font-family="Times,serif" font-size="9.00">496</text>
</g>
<!-- IB&#45;&gt;496 -->
<g id="edge6" class="edge"><title>IB&#45;&gt;496</title>
<path fill="none" stroke="red" stroke-width="0.108823" d="M84.9677,-156.72C74.8331,-147.805 58.1856,-133.162 44.4432,-121.074"/>
<polygon fill="red" stroke="red" stroke-width="0.108823" points="46.579,-118.291 36.7588,-114.314 41.9557,-123.547 46.579,-118.291"/>
</g>
<!-- IB&#45;&gt;495 -->
<g id="edge5" class="edge"><title>IB&#45;&gt;495</title>
<path fill="none" stroke="red" stroke-width="0.128171" d="M104.979,-156.72C117.38,-147.351 138.157,-131.655 154.582,-119.248"/>
<polygon fill="red" stroke="red" stroke-width="0.128171" points="156.837,-121.93 162.706,-113.11 152.617,-116.345 156.837,-121.93"/>
</g>
<!-- OB -->
<g id="node4" class="node"><title>OB</title>
<ellipse fill="lightblue" stroke="black" cx="257.213" cy="-21.2132" rx="20.5122" ry="20.5122"/>
<text text-anchor="middle" x="257.213" y="-19.0132" font-family="Times,serif" font-size="9.00">OB</text>
</g>
<!-- 494&#45;&gt;OA -->
<g id="edge7" class="edge"><title>494&#45;&gt;OA</title>
<path fill="none" stroke="red" stroke-width="0.1" d="M108.094,-81.2973C101.829,-71.5257 93.8805,-59.1276 86.8836,-48.2145"/>
<polygon fill="red" stroke="red" stroke-width="0.1" points="89.6319,-46.0162 81.2881,-39.4869 83.739,-49.7944 89.6319,-46.0162"/>
</g>
<!-- 496&#45;&gt;OA -->
<g id="edge8" class="edge"><title>496&#45;&gt;OA</title>
<path fill="none" stroke="red" stroke-width="0.1" d="M32.3321,-81.2973C38.597,-71.5257 46.5459,-59.1276 53.5428,-48.2145"/>
<polygon fill="red" stroke="red" stroke-width="0.1" points="56.6874,-49.7944 59.1383,-39.4869 50.7945,-46.0162 56.6874,-49.7944"/>
</g>
<!-- 497&#45;&gt;OB -->
<g id="edge9" class="edge"><title>497&#45;&gt;OB</title>
<path fill="none" stroke="green" stroke-width="0.184438" d="M257.213,-78.1587C257.213,-70.1744 257.213,-60.8629 257.213,-52.1536"/>
<polygon fill="green" stroke="green" stroke-width="0.184438" points="260.713,-51.9585 257.213,-41.9586 253.713,-51.9586 260.713,-51.9585"/>
</g>
<!-- 497&#45;&gt;497 -->
<g id="edge12" class="edge"><title>497&#45;&gt;497</title>
<path fill="none" stroke="red" stroke-width="0.243923" d="M275.365,-111.241C286.215,-113.819 296.426,-109.952 296.426,-99.6396 296.426,-92.7109 291.817,-88.6917 285.501,-87.582"/>
<polygon fill="red" stroke="red" stroke-width="0.243923" points="285.197,-84.0921 275.365,-88.038 285.512,-91.085 285.197,-84.0921"/>
</g>
<!-- 495&#45;&gt;495 -->
<g id="edge11" class="edge"><title>495&#45;&gt;495</title>
<path fill="none" stroke="green" stroke-width="0.151137" d="M197.365,-111.241C208.215,-113.819 218.426,-109.952 218.426,-99.6396 218.426,-92.7109 213.817,-88.6917 207.501,-87.582"/>
<polygon fill="green" stroke="green" stroke-width="0.151137" points="207.197,-84.0921 197.365,-88.038 207.512,-91.085 207.197,-84.0921"/>
</g>
</g>
</svg>
