<?xml version="1.0" encoding="UTF-8" standalone="no"?>
<!DOCTYPE svg PUBLIC "-//W3C//DTD SVG 1.1//EN"
 "http://www.w3.org/Graphics/SVG/1.1/DTD/svg11.dtd">
<!-- Generated by graphviz version 2.38.0 (20140413.2041)
 -->
<!-- Title: %3 Pages: 1 -->
<svg width="164pt" height="370pt"
 viewBox="0.00 0.00 164.21 369.79" xmlns="http://www.w3.org/2000/svg" xmlns:xlink="http://www.w3.org/1999/xlink">
<g id="graph0" class="graph" transform="scale(1 1) rotate(0) translate(4 365.789)">
<title>%3</title>
<polygon fill="white" stroke="none" points="-4,4 -4,-365.789 160.213,-365.789 160.213,4 -4,4"/>
<!-- IA -->
<g id="node1" class="node"><title>IA</title>
<polygon fill="lightgray" stroke="black" points="26,-194.137 0,-194.137 0,-176.137 26,-176.137 26,-194.137"/>
<text text-anchor="middle" x="13" y="-182.937" font-family="Times,serif" font-size="9.00">IA</text>
</g>
<!-- 1063 -->
<g id="node7" class="node"><title>1063</title>
<ellipse fill="white" stroke="black" cx="39" cy="-103.175" rx="25" ry="25"/>
<text text-anchor="middle" x="39" y="-100.975" font-family="Times,serif" font-size="9.00">1063</text>
</g>
<!-- IA&#45;&gt;1063 -->
<g id="edge5" class="edge"><title>IA&#45;&gt;1063</title>
<path fill="none" stroke="red" stroke-width="0.386088" d="M15.6845,-175.881C18.6995,-166.609 23.7804,-150.982 28.4309,-136.68"/>
<polygon fill="red" stroke="red" stroke-width="0.386088" points="31.7873,-137.676 31.5511,-127.084 25.1303,-135.512 31.7873,-137.676"/>
</g>
<!-- IB -->
<g id="node2" class="node"><title>IB</title>
<polygon fill="lightgray" stroke="black" points="78,-349.576 52,-349.576 52,-331.576 78,-331.576 78,-349.576"/>
<text text-anchor="middle" x="65" y="-338.376" font-family="Times,serif" font-size="9.00">IB</text>
</g>
<!-- OB -->
<g id="node4" class="node"><title>OB</title>
<ellipse fill="lightblue" stroke="black" cx="65" cy="-262.856" rx="20.5122" ry="20.5122"/>
<text text-anchor="middle" x="65" y="-260.656" font-family="Times,serif" font-size="9.00">OB</text>
</g>
<!-- IB&#45;&gt;OB -->
<g id="edge2" class="edge"><title>IB&#45;&gt;OB</title>
<path fill="none" stroke="red" stroke-width="0.264222" d="M65,-331.472C65,-322.413 65,-307.212 65,-293.515"/>
<polygon fill="red" stroke="red" stroke-width="0.264222" points="68.5001,-293.461 65,-283.461 61.5001,-293.461 68.5001,-293.461"/>
</g>
<!-- OA -->
<g id="node3" class="node"><title>OA</title>
<ellipse fill="lightblue" stroke="black" cx="117" cy="-340.576" rx="21.4286" ry="21.4286"/>
<text text-anchor="middle" x="117" y="-338.376" font-family="Times,serif" font-size="9.00">OA</text>
</g>
<!-- OA&#45;&gt;OA -->
<g id="edge1" class="edge"><title>OA&#45;&gt;OA</title>
<path fill="none" stroke="red" stroke-width="0.464866" d="M133.929,-353.57C145.221,-357.227 156.213,-352.896 156.213,-340.576 156.213,-332.105 151.018,-327.411 144.101,-326.493"/>
<polygon fill="red" stroke="red" stroke-width="0.464866" points="143.499,-323.037 133.929,-327.582 144.244,-329.998 143.499,-323.037"/>
</g>
<!-- 195 -->
<g id="node6" class="node"><title>195</title>
<ellipse fill="white" stroke="black" cx="65" cy="-185.137" rx="21.4286" ry="21.4286"/>
<text text-anchor="middle" x="65" y="-182.937" font-family="Times,serif" font-size="9.00">195</text>
</g>
<!-- OB&#45;&gt;195 -->
<g id="edge4" class="edge"><title>OB&#45;&gt;195</title>
<path fill="none" stroke="red" stroke-width="0.145346" d="M65,-241.962C65,-234.174 65,-225.066 65,-216.493"/>
<polygon fill="red" stroke="red" stroke-width="0.145346" points="68.5001,-216.425 65,-206.425 61.5001,-216.425 68.5001,-216.425"/>
</g>
<!-- 578 -->
<g id="node5" class="node"><title>578</title>
<ellipse fill="white" stroke="black" cx="39" cy="-21.2132" rx="21.4286" ry="21.4286"/>
<text text-anchor="middle" x="39" y="-19.0132" font-family="Times,serif" font-size="9.00">578</text>
</g>
<!-- 195&#45;&gt;1063 -->
<g id="edge3" class="edge"><title>195&#45;&gt;1063</title>
<path fill="none" stroke="green" stroke-width="0.22248" d="M58.7061,-164.781C55.9622,-156.342 52.6693,-146.215 49.568,-136.677"/>
<polygon fill="green" stroke="green" stroke-width="0.22248" points="52.8571,-135.473 46.4364,-127.046 46.2002,-137.638 52.8571,-135.473"/>
</g>
<!-- 1063&#45;&gt;578 -->
<g id="edge6" class="edge"><title>1063&#45;&gt;578</title>
<path fill="none" stroke="red" stroke-width="0.13564" d="M39,-78.1839C39,-70.2269 39,-61.2583 39,-52.8696"/>
<polygon fill="red" stroke="red" stroke-width="0.13564" points="42.5001,-52.674 39,-42.674 35.5001,-52.674 42.5001,-52.674"/>
</g>
</g>
</svg>
