<?xml version="1.0" encoding="UTF-8" standalone="no"?>
<!DOCTYPE svg PUBLIC "-//W3C//DTD SVG 1.1//EN"
 "http://www.w3.org/Graphics/SVG/1.1/DTD/svg11.dtd">
<!-- Generated by graphviz version 2.38.0 (20140413.2041)
 -->
<!-- Title: %3 Pages: 1 -->
<svg width="302pt" height="207pt"
 viewBox="0.00 0.00 302.43 207.28" xmlns="http://www.w3.org/2000/svg" xmlns:xlink="http://www.w3.org/1999/xlink">
<g id="graph0" class="graph" transform="scale(1 1) rotate(0) translate(4 203.279)">
<title>%3</title>
<polygon fill="white" stroke="none" points="-4,4 -4,-203.279 298.426,-203.279 298.426,4 -4,4"/>
<!-- IA -->
<g id="node1" class="node"><title>IA</title>
<polygon fill="lightgray" stroke="black" points="173.213,-187.066 147.213,-187.066 147.213,-169.066 173.213,-169.066 173.213,-187.066"/>
<text text-anchor="middle" x="160.213" y="-175.866" font-family="Times,serif" font-size="9.00">IA</text>
</g>
<!-- OB -->
<g id="node4" class="node"><title>OB</title>
<ellipse fill="lightblue" stroke="black" cx="21.2132" cy="-99.6396" rx="20.5122" ry="20.5122"/>
<text text-anchor="middle" x="21.2132" y="-97.4396" font-family="Times,serif" font-size="9.00">OB</text>
</g>
<!-- IA&#45;&gt;OB -->
<g id="edge10" class="edge"><title>IA&#45;&gt;OB</title>
<path fill="none" stroke="red" stroke-width="0.1" d="M147.136,-169.876C124.573,-157.47 77.8917,-131.803 48.1407,-115.445"/>
<polygon fill="red" stroke="red" stroke-width="0.1" points="49.5773,-112.241 39.1282,-110.49 46.2046,-118.375 49.5773,-112.241"/>
</g>
<!-- 567 -->
<g id="node5" class="node"><title>567</title>
<ellipse fill="white" stroke="black" cx="255.213" cy="-99.6396" rx="21.4286" ry="21.4286"/>
<text text-anchor="middle" x="255.213" y="-97.4396" font-family="Times,serif" font-size="9.00">567</text>
</g>
<!-- IA&#45;&gt;567 -->
<g id="edge2" class="edge"><title>IA&#45;&gt;567</title>
<path fill="none" stroke="green" stroke-width="0.139798" d="M170.38,-168.887C184.788,-157.296 211.575,-135.746 231.206,-119.953"/>
<polygon fill="green" stroke="green" stroke-width="0.139798" points="233.527,-122.578 239.125,-113.583 229.139,-117.124 233.527,-122.578"/>
</g>
<!-- 566 -->
<g id="node6" class="node"><title>566</title>
<ellipse fill="white" stroke="black" cx="99.2132" cy="-99.6396" rx="21.4286" ry="21.4286"/>
<text text-anchor="middle" x="99.2132" y="-97.4396" font-family="Times,serif" font-size="9.00">566</text>
</g>
<!-- IA&#45;&gt;566 -->
<g id="edge1" class="edge"><title>IA&#45;&gt;566</title>
<path fill="none" stroke="green" stroke-width="0.10758" d="M153.685,-168.887C145.335,-158.425 130.508,-139.849 118.43,-124.716"/>
<polygon fill="green" stroke="green" stroke-width="0.10758" points="121.035,-122.369 112.061,-116.737 115.564,-126.736 121.035,-122.369"/>
</g>
<!-- 568 -->
<g id="node7" class="node"><title>568</title>
<ellipse fill="white" stroke="black" cx="177.213" cy="-99.6396" rx="21.4286" ry="21.4286"/>
<text text-anchor="middle" x="177.213" y="-97.4396" font-family="Times,serif" font-size="9.00">568</text>
</g>
<!-- IA&#45;&gt;568 -->
<g id="edge3" class="edge"><title>IA&#45;&gt;568</title>
<path fill="none" stroke="green" stroke-width="0.209479" d="M162.033,-168.887C164.067,-159.743 167.479,-144.4 170.555,-130.575"/>
<polygon fill="green" stroke="green" stroke-width="0.209479" points="174.057,-130.948 172.812,-120.427 167.224,-129.428 174.057,-130.948"/>
</g>
<!-- IB -->
<g id="node2" class="node"><title>IB</title>
<polygon fill="lightgray" stroke="black" points="112.213,-187.066 86.2132,-187.066 86.2132,-169.066 112.213,-169.066 112.213,-187.066"/>
<text text-anchor="middle" x="99.2132" y="-175.866" font-family="Times,serif" font-size="9.00">IB</text>
</g>
<!-- IB&#45;&gt;OB -->
<g id="edge11" class="edge"><title>IB&#45;&gt;OB</title>
<path fill="none" stroke="green" stroke-width="0.202328" d="M90.8658,-168.887C79.5178,-157.768 58.8161,-137.484 42.9203,-121.909"/>
<polygon fill="green" stroke="green" stroke-width="0.202328" points="45.1573,-119.201 35.565,-114.702 40.2583,-124.201 45.1573,-119.201"/>
</g>
<!-- IB&#45;&gt;566 -->
<g id="edge4" class="edge"><title>IB&#45;&gt;566</title>
<path fill="none" stroke="green" stroke-width="0.144385" d="M99.2132,-168.887C99.2132,-159.865 99.2132,-144.81 99.2132,-131.132"/>
<polygon fill="green" stroke="green" stroke-width="0.144385" points="102.713,-131.064 99.2132,-121.064 95.7133,-131.064 102.713,-131.064"/>
</g>
<!-- IB&#45;&gt;568 -->
<g id="edge5" class="edge"><title>IB&#45;&gt;568</title>
<path fill="none" stroke="red" stroke-width="0.1" d="M107.561,-168.887C118.774,-157.9 139.119,-137.966 154.936,-122.467"/>
<polygon fill="red" stroke="red" stroke-width="0.1" points="157.585,-124.772 162.278,-115.274 152.686,-119.772 157.585,-124.772"/>
</g>
<!-- OA -->
<g id="node3" class="node"><title>OA</title>
<ellipse fill="lightblue" stroke="black" cx="177.213" cy="-21.2132" rx="21.4286" ry="21.4286"/>
<text text-anchor="middle" x="177.213" y="-19.0132" font-family="Times,serif" font-size="9.00">OA</text>
</g>
<!-- OA&#45;&gt;OA -->
<g id="edge12" class="edge"><title>OA&#45;&gt;OA</title>
<path fill="none" stroke="red" stroke-width="0.1" d="M194.142,-34.5492C205.434,-38.3031 216.426,-33.8577 216.426,-21.2132 216.426,-12.5201 211.231,-7.70237 204.314,-6.76005"/>
<polygon fill="red" stroke="red" stroke-width="0.1" points="203.7,-3.30638 194.142,-7.87717 204.464,-10.2645 203.7,-3.30638"/>
</g>
<!-- OB&#45;&gt;OB -->
<g id="edge13" class="edge"><title>OB&#45;&gt;OB</title>
<path fill="none" stroke="red" stroke-width="0.146408" d="M37.0346,-112.69C48.399,-116.939 59.7193,-112.589 59.7193,-99.6396 59.7193,-90.737 54.3687,-85.8988 47.3317,-85.1251"/>
<polygon fill="red" stroke="red" stroke-width="0.146408" points="46.4423,-81.7163 37.0346,-86.5892 47.4277,-88.6466 46.4423,-81.7163"/>
</g>
<!-- 567&#45;&gt;OA -->
<g id="edge7" class="edge"><title>567&#45;&gt;OA</title>
<path fill="none" stroke="red" stroke-width="0.158869" d="M240.542,-84.2644C228.958,-72.9146 212.607,-56.8934 199.422,-43.9737"/>
<polygon fill="red" stroke="red" stroke-width="0.158869" points="201.676,-41.2825 192.084,-36.7838 196.777,-46.2825 201.676,-41.2825"/>
</g>
<!-- 567&#45;&gt;567 -->
<g id="edge15" class="edge"><title>567&#45;&gt;567</title>
<path fill="none" stroke="green" stroke-width="0.20558" d="M272.142,-112.976C283.434,-116.729 294.426,-112.284 294.426,-99.6396 294.426,-90.9465 289.231,-86.1288 282.314,-85.1865"/>
<polygon fill="green" stroke="green" stroke-width="0.20558" points="281.7,-81.7328 272.142,-86.3036 282.464,-88.691 281.7,-81.7328"/>
</g>
<!-- 566&#45;&gt;OA -->
<g id="edge6" class="edge"><title>566&#45;&gt;OA</title>
<path fill="none" stroke="green" stroke-width="0.13617" d="M113.884,-84.2644C125.468,-72.9146 141.819,-56.8934 155.005,-43.9737"/>
<polygon fill="green" stroke="green" stroke-width="0.13617" points="157.649,-46.2825 162.343,-36.7838 152.75,-41.2825 157.649,-46.2825"/>
</g>
<!-- 566&#45;&gt;566 -->
<g id="edge14" class="edge"><title>566&#45;&gt;566</title>
<path fill="none" stroke="red" stroke-width="0.159424" d="M116.142,-112.976C127.434,-116.729 138.426,-112.284 138.426,-99.6396 138.426,-90.9465 133.231,-86.1288 126.314,-85.1865"/>
<polygon fill="red" stroke="red" stroke-width="0.159424" points="125.7,-81.7328 116.142,-86.3036 126.464,-88.691 125.7,-81.7328"/>
</g>
<!-- 568&#45;&gt;OA -->
<g id="edge8" class="edge"><title>568&#45;&gt;OA</title>
<path fill="none" stroke="red" stroke-width="0.242814" d="M177.213,-78.1587C177.213,-70.3001 177.213,-61.1558 177.213,-52.5655"/>
<polygon fill="red" stroke="red" stroke-width="0.242814" points="180.713,-52.4856 177.213,-42.4856 173.713,-52.4856 180.713,-52.4856"/>
</g>
<!-- 568&#45;&gt;568 -->
<g id="edge16" class="edge"><title>568&#45;&gt;568</title>
<path fill="none" stroke="green" stroke-width="0.203594" d="M194.142,-112.976C205.434,-116.729 216.426,-112.284 216.426,-99.6396 216.426,-90.9465 211.231,-86.1288 204.314,-85.1865"/>
<polygon fill="green" stroke="green" stroke-width="0.203594" points="203.7,-81.7328 194.142,-86.3036 204.464,-88.691 203.7,-81.7328"/>
</g>
<!-- 569 -->
<g id="node8" class="node"><title>569</title>
<ellipse fill="white" stroke="black" cx="21.2132" cy="-178.066" rx="21.4286" ry="21.4286"/>
<text text-anchor="middle" x="21.2132" y="-175.866" font-family="Times,serif" font-size="9.00">569</text>
</g>
<!-- 569&#45;&gt;OB -->
<g id="edge9" class="edge"><title>569&#45;&gt;OB</title>
<path fill="none" stroke="red" stroke-width="0.106939" d="M21.2132,-156.585C21.2132,-148.601 21.2132,-139.289 21.2132,-130.58"/>
<polygon fill="red" stroke="red" stroke-width="0.106939" points="24.7133,-130.385 21.2132,-120.385 17.7133,-130.385 24.7133,-130.385"/>
</g>
</g>
</svg>
