<?xml version="1.0" encoding="UTF-8" standalone="no"?>
<!DOCTYPE svg PUBLIC "-//W3C//DTD SVG 1.1//EN"
 "http://www.w3.org/Graphics/SVG/1.1/DTD/svg11.dtd">
<!-- Generated by graphviz version 2.38.0 (20140413.2041)
 -->
<!-- Title: %3 Pages: 1 -->
<svg width="412pt" height="183pt"
 viewBox="0.00 0.00 412.45 182.85" xmlns="http://www.w3.org/2000/svg" xmlns:xlink="http://www.w3.org/1999/xlink">
<g id="graph0" class="graph" transform="scale(1 1) rotate(0) translate(4 178.853)">
<title>%3</title>
<polygon fill="white" stroke="none" points="-4,4 -4,-178.853 408.447,-178.853 408.447,4 -4,4"/>
<!-- IA -->
<g id="node1" class="node"><title>IA</title>
<polygon fill="lightgray" stroke="black" points="259.233,-174.853 233.233,-174.853 233.233,-156.853 259.233,-156.853 259.233,-174.853"/>
<text text-anchor="middle" x="246.233" y="-163.653" font-family="Times,serif" font-size="9.00">IA</text>
</g>
<!-- OA -->
<g id="node3" class="node"><title>OA</title>
<ellipse fill="lightblue" stroke="black" cx="149.233" cy="-21.2132" rx="21.4286" ry="21.4286"/>
<text text-anchor="middle" x="149.233" y="-19.0132" font-family="Times,serif" font-size="9.00">OA</text>
</g>
<!-- IA&#45;&gt;OA -->
<g id="edge16" class="edge"><title>IA&#45;&gt;OA</title>
<path fill="none" stroke="green" stroke-width="0.235282" d="M248.264,-156.507C251.747,-140.19 257.132,-103.47 242.233,-78.4264 228.347,-55.0862 200.671,-40.2206 179.104,-31.6789"/>
<polygon fill="green" stroke="green" stroke-width="0.235282" points="180.29,-28.3856 169.697,-28.1916 177.857,-34.9492 180.29,-28.3856"/>
</g>
<!-- OB -->
<g id="node4" class="node"><title>OB</title>
<ellipse fill="lightblue" stroke="black" cx="261.233" cy="-21.2132" rx="20.5122" ry="20.5122"/>
<text text-anchor="middle" x="261.233" y="-19.0132" font-family="Times,serif" font-size="9.00">OB</text>
</g>
<!-- IA&#45;&gt;OB -->
<g id="edge17" class="edge"><title>IA&#45;&gt;OB</title>
<path fill="none" stroke="green" stroke-width="0.992885" d="M259.246,-163.034C292.56,-158.084 379.478,-143.228 396.233,-120.853 407.535,-105.759 406.694,-94.1145 396.233,-78.4264 373.075,-43.6979 323.979,-30.3911 291.814,-25.3148"/>
<polygon fill="green" stroke="green" stroke-width="0.992885" points="292.005,-21.8075 281.617,-23.8897 291.036,-28.7402 292.005,-21.8075"/>
</g>
<!-- 978 -->
<g id="node5" class="node"><title>978</title>
<ellipse fill="white" stroke="black" cx="194.233" cy="-99.6396" rx="21.4286" ry="21.4286"/>
<text text-anchor="middle" x="194.233" y="-97.4396" font-family="Times,serif" font-size="9.00">978</text>
</g>
<!-- IA&#45;&gt;978 -->
<g id="edge1" class="edge"><title>IA&#45;&gt;978</title>
<path fill="none" stroke="green" stroke-width="0.506727" d="M239.647,-156.72C233.094,-148.628 222.717,-135.814 213.536,-124.476"/>
<polygon fill="green" stroke="green" stroke-width="0.506727" points="216.147,-122.139 207.134,-116.571 210.707,-126.545 216.147,-122.139"/>
</g>
<!-- 979 -->
<g id="node6" class="node"><title>979</title>
<ellipse fill="white" stroke="black" cx="38.2328" cy="-99.6396" rx="21.4286" ry="21.4286"/>
<text text-anchor="middle" x="38.2328" y="-97.4396" font-family="Times,serif" font-size="9.00">979</text>
</g>
<!-- IA&#45;&gt;979 -->
<g id="edge2" class="edge"><title>IA&#45;&gt;979</title>
<path fill="none" stroke="green" stroke-width="0.442041" d="M233.2,-161.879C205.7,-155.471 139.86,-139.43 86.2328,-120.853 79.8409,-118.639 73.0855,-115.992 66.7251,-113.356"/>
<polygon fill="green" stroke="green" stroke-width="0.442041" points="67.7359,-109.982 57.1641,-109.283 64.9929,-116.422 67.7359,-109.982"/>
</g>
<!-- 980 -->
<g id="node7" class="node"><title>980</title>
<ellipse fill="white" stroke="black" cx="348.233" cy="-99.6396" rx="21.4286" ry="21.4286"/>
<text text-anchor="middle" x="348.233" y="-97.4396" font-family="Times,serif" font-size="9.00">980</text>
</g>
<!-- IA&#45;&gt;980 -->
<g id="edge3" class="edge"><title>IA&#45;&gt;980</title>
<path fill="none" stroke="green" stroke-width="0.527595" d="M259.151,-156.72C274.864,-146.828 301.781,-129.883 321.925,-117.202"/>
<polygon fill="green" stroke="green" stroke-width="0.527595" points="324.041,-120.006 330.639,-111.716 320.311,-114.082 324.041,-120.006"/>
</g>
<!-- 981 -->
<g id="node8" class="node"><title>981</title>
<ellipse fill="white" stroke="black" cx="116.233" cy="-99.6396" rx="21.4286" ry="21.4286"/>
<text text-anchor="middle" x="116.233" y="-97.4396" font-family="Times,serif" font-size="9.00">981</text>
</g>
<!-- IA&#45;&gt;981 -->
<g id="edge4" class="edge"><title>IA&#45;&gt;981</title>
<path fill="none" stroke="green" stroke-width="0.449988" d="M232.81,-158.223C212.035,-147.961 171.642,-128.009 144.299,-114.503"/>
<polygon fill="green" stroke="green" stroke-width="0.449988" points="145.741,-111.311 135.225,-110.021 142.641,-117.588 145.741,-111.311"/>
</g>
<!-- IB -->
<g id="node2" class="node"><title>IB</title>
<polygon fill="lightgray" stroke="black" points="168.233,-174.853 142.233,-174.853 142.233,-156.853 168.233,-156.853 168.233,-174.853"/>
<text text-anchor="middle" x="155.233" y="-163.653" font-family="Times,serif" font-size="9.00">IB</text>
</g>
<!-- IB&#45;&gt;OA -->
<g id="edge18" class="edge"><title>IB&#45;&gt;OA</title>
<path fill="none" stroke="red" stroke-width="0.192364" d="M142.221,-165.58C112.594,-166.432 40.2092,-163.802 8.23282,-120.853 -3.02774,-105.728 -2.34742,-94.0346 8.23282,-78.4264 32.6498,-42.406 84.233,-29.4658 117.777,-24.8178"/>
<polygon fill="red" stroke="red" stroke-width="0.192364" points="118.471,-28.2594 127.977,-23.5813 117.628,-21.3103 118.471,-28.2594"/>
</g>
<!-- IB&#45;&gt;OB -->
<g id="edge19" class="edge"><title>IB&#45;&gt;OB</title>
<path fill="none" stroke="green" stroke-width="0.23139" d="M168.508,-162.033C187.93,-157.177 223.78,-145.308 242.233,-120.853 257.06,-101.203 261.313,-73.2339 262.145,-52.0937"/>
<polygon fill="green" stroke="green" stroke-width="0.23139" points="265.645,-52.092 262.308,-42.0366 258.646,-51.9785 265.645,-52.092"/>
</g>
<!-- IB&#45;&gt;978 -->
<g id="edge5" class="edge"><title>IB&#45;&gt;978</title>
<path fill="none" stroke="red" stroke-width="0.370706" d="M160.172,-156.72C164.752,-149.18 171.821,-137.54 178.335,-126.815"/>
<polygon fill="red" stroke="red" stroke-width="0.370706" points="181.409,-128.496 183.609,-118.132 175.426,-124.862 181.409,-128.496"/>
</g>
<!-- IB&#45;&gt;979 -->
<g id="edge6" class="edge"><title>IB&#45;&gt;979</title>
<path fill="none" stroke="red" stroke-width="0.565201" d="M141.811,-157.487C123.265,-147.308 89.3809,-128.711 65.4256,-115.564"/>
<polygon fill="red" stroke="red" stroke-width="0.565201" points="66.9204,-112.392 56.4699,-110.649 63.5524,-118.528 66.9204,-112.392"/>
</g>
<!-- IB&#45;&gt;980 -->
<g id="edge7" class="edge"><title>IB&#45;&gt;980</title>
<path fill="none" stroke="green" stroke-width="0.714052" d="M168.498,-160.439C199.248,-150.209 276.008,-124.669 318.596,-110.5"/>
<polygon fill="green" stroke="green" stroke-width="0.714052" points="319.755,-113.803 328.139,-107.325 317.545,-107.161 319.755,-113.803"/>
</g>
<!-- IB&#45;&gt;981 -->
<g id="edge8" class="edge"><title>IB&#45;&gt;981</title>
<path fill="none" stroke="red" stroke-width="0.174207" d="M150.293,-156.72C145.714,-149.18 138.644,-137.54 132.131,-126.815"/>
<polygon fill="red" stroke="red" stroke-width="0.174207" points="135.039,-124.862 126.857,-118.132 129.056,-128.496 135.039,-124.862"/>
</g>
<!-- OA&#45;&gt;OA -->
<g id="edge20" class="edge"><title>OA&#45;&gt;OA</title>
<path fill="none" stroke="green" stroke-width="0.4261" d="M166.161,-34.5492C177.454,-38.3031 188.446,-33.8577 188.446,-21.2132 188.446,-12.5201 183.251,-7.70237 176.334,-6.76005"/>
<polygon fill="green" stroke="green" stroke-width="0.4261" points="175.72,-3.30638 166.161,-7.87717 176.484,-10.2645 175.72,-3.30638"/>
</g>
<!-- OB&#45;&gt;OB -->
<g id="edge21" class="edge"><title>OB&#45;&gt;OB</title>
<path fill="none" stroke="red" stroke-width="0.574412" d="M277.054,-34.2636C288.419,-38.5126 299.739,-34.1624 299.739,-21.2132 299.739,-12.3106 294.388,-7.47244 287.351,-6.69868"/>
<polygon fill="red" stroke="red" stroke-width="0.574412" points="286.462,-3.28986 277.054,-8.16282 287.447,-10.2202 286.462,-3.28986"/>
</g>
<!-- 978&#45;&gt;OA -->
<g id="edge9" class="edge"><title>978&#45;&gt;OA</title>
<path fill="none" stroke="green" stroke-width="0.291947" d="M183.796,-80.9138C178.173,-71.3642 171.123,-59.3912 164.86,-48.7532"/>
<polygon fill="green" stroke="green" stroke-width="0.291947" points="167.703,-46.6843 159.613,-39.8429 161.671,-50.236 167.703,-46.6843"/>
</g>
<!-- 978&#45;&gt;OB -->
<g id="edge10" class="edge"><title>978&#45;&gt;OB</title>
<path fill="none" stroke="green" stroke-width="0.327345" d="M207.791,-83.1736C217.452,-72.1534 230.592,-57.1649 241.425,-44.8081"/>
<polygon fill="green" stroke="green" stroke-width="0.327345" points="244.19,-46.9629 248.151,-37.1361 238.926,-42.3484 244.19,-46.9629"/>
</g>
<!-- 978&#45;&gt;978 -->
<g id="edge22" class="edge"><title>978&#45;&gt;978</title>
<path fill="none" stroke="green" stroke-width="0.26784" d="M212.384,-111.241C223.234,-113.819 233.446,-109.952 233.446,-99.6396 233.446,-92.7109 228.836,-88.6917 222.52,-87.582"/>
<polygon fill="green" stroke="green" stroke-width="0.26784" points="222.217,-84.0921 212.384,-88.038 222.531,-91.085 222.217,-84.0921"/>
</g>
<!-- 979&#45;&gt;OA -->
<g id="edge11" class="edge"><title>979&#45;&gt;OA</title>
<path fill="none" stroke="green" stroke-width="0.20794" d="M55.5766,-86.698C73.8231,-74.1348 102.734,-54.2287 123.61,-39.8549"/>
<polygon fill="green" stroke="green" stroke-width="0.20794" points="125.759,-42.6248 132.011,-34.071 121.789,-36.8593 125.759,-42.6248"/>
</g>
<!-- 979&#45;&gt;979 -->
<g id="edge23" class="edge"><title>979&#45;&gt;979</title>
<path fill="none" stroke="green" stroke-width="0.463722" d="M56.3842,-111.241C67.2342,-113.819 77.446,-109.952 77.446,-99.6396 77.446,-92.7109 72.8363,-88.6917 66.5204,-87.582"/>
<polygon fill="green" stroke="green" stroke-width="0.463722" points="66.2168,-84.0921 56.3842,-88.038 66.5315,-91.085 66.2168,-84.0921"/>
</g>
<!-- 980&#45;&gt;OA -->
<g id="edge12" class="edge"><title>980&#45;&gt;OA</title>
<path fill="none" stroke="red" stroke-width="0.44745" d="M330.42,-87.4635C325.013,-84.3163 318.981,-81.0416 313.233,-78.4264 267.922,-57.8119 212.706,-40.3708 179.296,-30.6071"/>
<polygon fill="red" stroke="red" stroke-width="0.44745" points="180.24,-27.237 169.662,-27.8284 178.3,-33.9628 180.24,-27.237"/>
</g>
<!-- 980&#45;&gt;OB -->
<g id="edge13" class="edge"><title>980&#45;&gt;OB</title>
<path fill="none" stroke="red" stroke-width="0.648617" d="M332.679,-84.9761C319.111,-73.0568 299.252,-55.6115 283.913,-42.1367"/>
<polygon fill="red" stroke="red" stroke-width="0.648617" points="286.183,-39.4728 276.361,-35.5025 281.564,-44.7318 286.183,-39.4728"/>
</g>
<!-- 980&#45;&gt;980 -->
<g id="edge24" class="edge"><title>980&#45;&gt;980</title>
<path fill="none" stroke="red" stroke-width="0.460266" d="M366.384,-111.241C377.234,-113.819 387.446,-109.952 387.446,-99.6396 387.446,-92.7109 382.836,-88.6917 376.52,-87.582"/>
<polygon fill="red" stroke="red" stroke-width="0.460266" points="376.217,-84.0921 366.384,-88.038 376.531,-91.085 376.217,-84.0921"/>
</g>
<!-- 981&#45;&gt;OA -->
<g id="edge14" class="edge"><title>981&#45;&gt;OA</title>
<path fill="none" stroke="green" stroke-width="0.764867" d="M124.39,-79.7477C128.226,-70.8628 132.879,-60.0869 137.117,-50.274"/>
<polygon fill="green" stroke="green" stroke-width="0.764867" points="140.418,-51.456 141.169,-40.8878 133.992,-48.6811 140.418,-51.456"/>
</g>
<!-- 981&#45;&gt;OB -->
<g id="edge15" class="edge"><title>981&#45;&gt;OB</title>
<path fill="none" stroke="green" stroke-width="0.387411" d="M134.597,-88.9602C159.793,-75.6801 205.255,-51.7181 234.302,-36.4077"/>
<polygon fill="green" stroke="green" stroke-width="0.387411" points="236.257,-39.3341 243.471,-31.575 232.993,-33.1416 236.257,-39.3341"/>
</g>
<!-- 981&#45;&gt;981 -->
<g id="edge25" class="edge"><title>981&#45;&gt;981</title>
<path fill="none" stroke="red" stroke-width="0.113603" d="M134.384,-111.241C145.234,-113.819 155.446,-109.952 155.446,-99.6396 155.446,-92.7109 150.836,-88.6917 144.52,-87.582"/>
<polygon fill="red" stroke="red" stroke-width="0.113603" points="144.217,-84.0921 134.384,-88.038 144.531,-91.085 144.217,-84.0921"/>
</g>
</g>
</svg>
