<?xml version="1.0" encoding="UTF-8" standalone="no"?>
<!DOCTYPE svg PUBLIC "-//W3C//DTD SVG 1.1//EN"
 "http://www.w3.org/Graphics/SVG/1.1/DTD/svg11.dtd">
<!-- Generated by graphviz version 2.38.0 (20140413.2041)
 -->
<!-- Title: %3 Pages: 1 -->
<svg width="86pt" height="183pt"
 viewBox="0.00 0.00 86.21 182.85" xmlns="http://www.w3.org/2000/svg" xmlns:xlink="http://www.w3.org/1999/xlink">
<g id="graph0" class="graph" transform="scale(1 1) rotate(0) translate(4 178.853)">
<title>%3</title>
<polygon fill="white" stroke="none" points="-4,4 -4,-178.853 82.2132,-178.853 82.2132,4 -4,4"/>
<!-- IA -->
<g id="node1" class="node"><title>IA</title>
<polygon fill="lightgray" stroke="black" points="34.2132,-174.853 8.2132,-174.853 8.2132,-156.853 34.2132,-156.853 34.2132,-174.853"/>
<text text-anchor="middle" x="21.2132" y="-163.653" font-family="Times,serif" font-size="9.00">IA</text>
</g>
<!-- OA -->
<g id="node3" class="node"><title>OA</title>
<ellipse fill="lightblue" stroke="black" cx="21.2132" cy="-99.6396" rx="21.4286" ry="21.4286"/>
<text text-anchor="middle" x="21.2132" y="-97.4396" font-family="Times,serif" font-size="9.00">OA</text>
</g>
<!-- IA&#45;&gt;OA -->
<g id="edge1" class="edge"><title>IA&#45;&gt;OA</title>
<path fill="none" stroke="red" stroke-width="2.81371" d="M21.2132,-156.72C21.2132,-150.177 21.2132,-140.548 21.2132,-131.109"/>
<polygon fill="red" stroke="red" stroke-width="2.81371" points="24.7133,-131.095 21.2132,-121.095 17.7133,-131.095 24.7133,-131.095"/>
</g>
<!-- IB -->
<g id="node2" class="node"><title>IB</title>
<polygon fill="lightgray" stroke="black" points="78.2132,-174.853 52.2132,-174.853 52.2132,-156.853 78.2132,-156.853 78.2132,-174.853"/>
<text text-anchor="middle" x="65.2132" y="-163.653" font-family="Times,serif" font-size="9.00">IB</text>
</g>
<!-- 201 -->
<g id="node4" class="node"><title>201</title>
<ellipse fill="white" stroke="black" cx="21.2132" cy="-21.2132" rx="21.4286" ry="21.4286"/>
<text text-anchor="middle" x="21.2132" y="-19.0132" font-family="Times,serif" font-size="9.00">201</text>
</g>
<!-- OA&#45;&gt;201 -->
<g id="edge2" class="edge"><title>OA&#45;&gt;201</title>
<path fill="none" stroke="red" stroke-width="0.292758" stroke-dasharray="1,5" d="M21.2132,-78.1587C21.2132,-70.3001 21.2132,-61.1558 21.2132,-52.5655"/>
<polygon fill="red" stroke="red" stroke-width="0.292758" points="24.7133,-52.4856 21.2132,-42.4856 17.7133,-52.4856 24.7133,-52.4856"/>
</g>
<!-- 201&#45;&gt;201 -->
<g id="edge3" class="edge"><title>201&#45;&gt;201</title>
<path fill="none" stroke="red" stroke-width="0.103062" d="M38.1418,-34.5492C49.4344,-38.3031 60.4264,-33.8577 60.4264,-21.2132 60.4264,-12.5201 55.231,-7.70237 48.3143,-6.76005"/>
<polygon fill="red" stroke="red" stroke-width="0.103062" points="47.7,-3.30638 38.1418,-7.87717 48.4642,-10.2645 47.7,-3.30638"/>
</g>
</g>
</svg>
