<?xml version="1.0" encoding="utf-8" standalone="no"?>
<!DOCTYPE svg PUBLIC "-//W3C//DTD SVG 1.1//EN"
  "http://www.w3.org/Graphics/SVG/1.1/DTD/svg11.dtd">
<!-- Created with matplotlib (https://matplotlib.org/) -->
<svg height="345.6pt" version="1.1" viewBox="0 0 460.8 345.6" width="460.8pt" xmlns="http://www.w3.org/2000/svg" xmlns:xlink="http://www.w3.org/1999/xlink">
 <defs>
  <style type="text/css">
*{stroke-linecap:butt;stroke-linejoin:round;}
  </style>
 </defs>
 <g id="figure_1">
  <g id="patch_1">
   <path d="M 0 345.6 
L 460.8 345.6 
L 460.8 0 
L 0 0 
z
" style="fill:#ffffff;"/>
  </g>
  <g id="axes_1">
   <g id="patch_2">
    <path d="M 57.6 307.584 
L 414.72 307.584 
L 414.72 41.472 
L 57.6 41.472 
z
" style="fill:#ffffff;"/>
   </g>
   <g id="PolyCollection_1">
    <path clip-path="url(#p5913225316)" d="M 73.832727 82.771774 
L 73.832727 307.584 
L 77.112066 307.584 
L 80.391405 307.584 
L 83.670744 307.584 
L 86.950083 307.584 
L 90.229421 307.584 
L 93.50876 307.584 
L 96.788099 307.584 
L 100.067438 307.584 
L 103.346777 307.584 
L 106.626116 307.584 
L 109.905455 307.584 
L 113.184793 307.584 
L 116.464132 307.584 
L 119.743471 307.584 
L 123.02281 307.584 
L 126.302149 307.584 
L 129.581488 307.584 
L 132.860826 307.584 
L 136.140165 307.584 
L 139.419504 307.584 
L 142.698843 307.584 
L 145.978182 307.584 
L 149.257521 307.584 
L 152.53686 307.584 
L 155.816198 307.584 
L 159.095537 307.584 
L 162.374876 307.584 
L 165.654215 307.584 
L 168.933554 307.584 
L 172.212893 307.584 
L 175.492231 307.584 
L 178.77157 307.584 
L 182.050909 307.584 
L 185.330248 307.584 
L 188.609587 307.584 
L 191.888926 307.584 
L 195.168264 307.584 
L 198.447603 307.584 
L 201.726942 307.584 
L 205.006281 307.584 
L 208.28562 307.584 
L 211.564959 307.584 
L 214.844298 307.584 
L 218.123636 307.584 
L 221.402975 307.584 
L 224.682314 307.584 
L 227.961653 307.584 
L 231.240992 307.584 
L 234.520331 307.584 
L 237.799669 307.584 
L 241.079008 307.584 
L 244.358347 307.584 
L 247.637686 307.584 
L 250.917025 307.584 
L 254.196364 307.584 
L 257.475702 307.584 
L 260.755041 307.584 
L 264.03438 307.584 
L 267.313719 307.584 
L 270.593058 307.584 
L 273.872397 307.584 
L 277.151736 307.584 
L 280.431074 307.584 
L 283.710413 307.584 
L 286.989752 307.584 
L 290.269091 307.584 
L 293.54843 307.584 
L 296.827769 307.584 
L 300.107107 307.584 
L 303.386446 307.584 
L 306.665785 307.584 
L 309.945124 307.584 
L 313.224463 307.584 
L 316.503802 307.584 
L 319.78314 307.584 
L 323.062479 307.584 
L 326.341818 307.584 
L 329.621157 307.584 
L 332.900496 307.584 
L 336.179835 307.584 
L 339.459174 307.584 
L 342.738512 307.584 
L 346.017851 307.584 
L 349.29719 307.584 
L 352.576529 307.584 
L 355.855868 307.584 
L 359.135207 307.584 
L 362.414545 307.584 
L 365.693884 307.584 
L 368.973223 307.584 
L 372.252562 307.584 
L 375.531901 307.584 
L 378.81124 307.584 
L 382.090579 307.584 
L 385.369917 307.584 
L 388.649256 307.584 
L 391.928595 307.584 
L 395.207934 307.584 
L 398.487273 307.584 
L 398.487273 307.584 
L 398.487273 307.584 
L 395.207934 307.584 
L 391.928595 307.584 
L 388.649256 307.584 
L 385.369917 307.584 
L 382.090579 307.584 
L 378.81124 307.584 
L 375.531901 307.584 
L 372.252562 307.584 
L 368.973223 307.584 
L 365.693884 307.584 
L 362.414545 307.584 
L 359.135207 307.584 
L 355.855868 307.584 
L 352.576529 307.584 
L 349.29719 307.584 
L 346.017851 307.584 
L 342.738512 307.584 
L 339.459174 307.584 
L 336.179835 307.584 
L 332.900496 307.584 
L 329.621157 307.584 
L 326.341818 307.584 
L 323.062479 307.584 
L 319.78314 307.584 
L 316.503802 307.584 
L 313.224463 307.584 
L 309.945124 307.584 
L 306.665785 307.584 
L 303.386446 307.584 
L 300.107107 307.584 
L 296.827769 307.584 
L 293.54843 307.584 
L 290.269091 307.584 
L 286.989752 307.584 
L 283.710413 307.584 
L 280.431074 307.584 
L 277.151736 307.584 
L 273.872397 307.584 
L 270.593058 307.584 
L 267.313719 307.584 
L 264.03438 307.584 
L 260.755041 307.584 
L 257.475702 307.584 
L 254.196364 307.584 
L 250.917025 307.584 
L 247.637686 307.584 
L 244.358347 307.584 
L 241.079008 307.584 
L 237.799669 307.584 
L 234.520331 307.584 
L 231.240992 307.584 
L 227.961653 307.584 
L 224.682314 307.584 
L 221.402975 307.584 
L 218.123636 307.584 
L 214.844298 307.584 
L 211.564959 307.584 
L 208.28562 307.584 
L 205.006281 307.584 
L 201.726942 307.584 
L 198.447603 307.584 
L 195.168264 307.584 
L 191.888926 307.584 
L 188.609587 307.584 
L 185.330248 307.584 
L 182.050909 307.584 
L 178.77157 307.584 
L 175.492231 307.584 
L 172.212893 307.584 
L 168.933554 254.538419 
L 165.654215 254.538419 
L 162.374876 253.696425 
L 159.095537 259.590379 
L 155.816198 266.326326 
L 152.53686 272.220279 
L 149.257521 263.800346 
L 145.978182 260.432372 
L 142.698843 256.222405 
L 139.419504 246.118485 
L 136.140165 250.328452 
L 132.860826 246.960478 
L 129.581488 248.644465 
L 126.302149 254.538419 
L 123.02281 259.590379 
L 119.743471 241.066525 
L 116.464132 251.170445 
L 113.184793 242.750512 
L 109.905455 235.172571 
L 106.626116 225.910645 
L 103.346777 225.068651 
L 100.067438 224.226658 
L 96.788099 207.386791 
L 93.50876 198.124864 
L 90.229421 213.280744 
L 86.950083 205.702804 
L 83.670744 192.23091 
L 80.391405 178.759017 
L 77.112066 161.077156 
L 73.832727 82.771774 
z
" style="fill:#1f77b4;"/>
   </g>
   <g id="PolyCollection_2">
    <path clip-path="url(#p5913225316)" d="M 73.832727 57.511973 
L 73.832727 82.771774 
L 77.112066 161.077156 
L 80.391405 178.759017 
L 83.670744 192.23091 
L 86.950083 205.702804 
L 90.229421 213.280744 
L 93.50876 198.124864 
L 96.788099 207.386791 
L 100.067438 224.226658 
L 103.346777 225.068651 
L 106.626116 225.910645 
L 109.905455 235.172571 
L 113.184793 242.750512 
L 116.464132 251.170445 
L 119.743471 241.066525 
L 123.02281 259.590379 
L 126.302149 254.538419 
L 129.581488 248.644465 
L 132.860826 246.960478 
L 136.140165 250.328452 
L 139.419504 246.118485 
L 142.698843 256.222405 
L 145.978182 260.432372 
L 149.257521 263.800346 
L 152.53686 272.220279 
L 155.816198 266.326326 
L 159.095537 259.590379 
L 162.374876 253.696425 
L 165.654215 254.538419 
L 168.933554 254.538419 
L 172.212893 307.584 
L 175.492231 307.584 
L 178.77157 307.584 
L 182.050909 307.584 
L 185.330248 307.584 
L 188.609587 307.584 
L 191.888926 307.584 
L 195.168264 307.584 
L 198.447603 307.584 
L 201.726942 307.584 
L 205.006281 307.584 
L 208.28562 307.584 
L 211.564959 307.584 
L 214.844298 307.584 
L 218.123636 307.584 
L 221.402975 307.584 
L 224.682314 307.584 
L 227.961653 307.584 
L 231.240992 307.584 
L 234.520331 307.584 
L 237.799669 307.584 
L 241.079008 307.584 
L 244.358347 307.584 
L 247.637686 307.584 
L 250.917025 307.584 
L 254.196364 307.584 
L 257.475702 307.584 
L 260.755041 307.584 
L 264.03438 307.584 
L 267.313719 307.584 
L 270.593058 307.584 
L 273.872397 307.584 
L 277.151736 307.584 
L 280.431074 307.584 
L 283.710413 307.584 
L 286.989752 307.584 
L 290.269091 307.584 
L 293.54843 307.584 
L 296.827769 307.584 
L 300.107107 307.584 
L 303.386446 307.584 
L 306.665785 307.584 
L 309.945124 307.584 
L 313.224463 307.584 
L 316.503802 307.584 
L 319.78314 307.584 
L 323.062479 307.584 
L 326.341818 307.584 
L 329.621157 307.584 
L 332.900496 307.584 
L 336.179835 307.584 
L 339.459174 307.584 
L 342.738512 307.584 
L 346.017851 307.584 
L 349.29719 307.584 
L 352.576529 307.584 
L 355.855868 307.584 
L 359.135207 307.584 
L 362.414545 307.584 
L 365.693884 307.584 
L 368.973223 307.584 
L 372.252562 307.584 
L 375.531901 307.584 
L 378.81124 307.584 
L 382.090579 307.584 
L 385.369917 307.584 
L 388.649256 307.584 
L 391.928595 307.584 
L 395.207934 307.584 
L 398.487273 307.584 
L 398.487273 307.584 
L 398.487273 307.584 
L 395.207934 307.584 
L 391.928595 307.584 
L 388.649256 307.584 
L 385.369917 307.584 
L 382.090579 307.584 
L 378.81124 307.584 
L 375.531901 307.584 
L 372.252562 307.584 
L 368.973223 307.584 
L 365.693884 307.584 
L 362.414545 307.584 
L 359.135207 307.584 
L 355.855868 307.584 
L 352.576529 307.584 
L 349.29719 307.584 
L 346.017851 307.584 
L 342.738512 307.584 
L 339.459174 307.584 
L 336.179835 307.584 
L 332.900496 307.584 
L 329.621157 307.584 
L 326.341818 307.584 
L 323.062479 307.584 
L 319.78314 307.584 
L 316.503802 307.584 
L 313.224463 307.584 
L 309.945124 307.584 
L 306.665785 307.584 
L 303.386446 307.584 
L 300.107107 307.584 
L 296.827769 307.584 
L 293.54843 307.584 
L 290.269091 307.584 
L 286.989752 307.584 
L 283.710413 307.584 
L 280.431074 307.584 
L 277.151736 307.584 
L 273.872397 307.584 
L 270.593058 307.584 
L 267.313719 307.584 
L 264.03438 307.584 
L 260.755041 307.584 
L 257.475702 307.584 
L 254.196364 307.584 
L 250.917025 307.584 
L 247.637686 307.584 
L 244.358347 307.584 
L 241.079008 307.584 
L 237.799669 307.584 
L 234.520331 307.584 
L 231.240992 307.584 
L 227.961653 307.584 
L 224.682314 307.584 
L 221.402975 307.584 
L 218.123636 307.584 
L 214.844298 307.584 
L 211.564959 307.584 
L 208.28562 307.584 
L 205.006281 307.584 
L 201.726942 307.584 
L 198.447603 307.584 
L 195.168264 307.584 
L 191.888926 307.584 
L 188.609587 238.540545 
L 185.330248 230.962605 
L 182.050909 212.438751 
L 178.77157 227.594631 
L 175.492231 253.696425 
L 172.212893 260.432372 
L 168.933554 224.226658 
L 165.654215 214.122738 
L 162.374876 218.332704 
L 159.095537 226.752638 
L 155.816198 216.648718 
L 152.53686 245.276492 
L 149.257521 226.752638 
L 145.978182 229.278618 
L 142.698843 215.806724 
L 139.419504 211.596757 
L 136.140165 219.174698 
L 132.860826 214.122738 
L 129.581488 201.492837 
L 126.302149 193.914897 
L 123.02281 211.596757 
L 119.743471 201.492837 
L 116.464132 195.598884 
L 113.184793 206.544797 
L 109.905455 217.490711 
L 106.626116 206.544797 
L 103.346777 209.070777 
L 100.067438 211.596757 
L 96.788099 190.546924 
L 93.50876 175.391043 
L 90.229421 175.391043 
L 86.950083 147.605262 
L 83.670744 161.077156 
L 80.391405 121.503468 
L 77.112066 85.297754 
L 73.832727 57.511973 
z
" style="fill:#ff7f0e;"/>
   </g>
   <g id="PolyCollection_3">
    <path clip-path="url(#p5913225316)" d="M 73.832727 54.985993 
L 73.832727 57.511973 
L 77.112066 85.297754 
L 80.391405 121.503468 
L 83.670744 161.077156 
L 86.950083 147.605262 
L 90.229421 175.391043 
L 93.50876 175.391043 
L 96.788099 190.546924 
L 100.067438 211.596757 
L 103.346777 209.070777 
L 106.626116 206.544797 
L 109.905455 217.490711 
L 113.184793 206.544797 
L 116.464132 195.598884 
L 119.743471 201.492837 
L 123.02281 211.596757 
L 126.302149 193.914897 
L 129.581488 201.492837 
L 132.860826 214.122738 
L 136.140165 219.174698 
L 139.419504 211.596757 
L 142.698843 215.806724 
L 145.978182 229.278618 
L 149.257521 226.752638 
L 152.53686 245.276492 
L 155.816198 216.648718 
L 159.095537 226.752638 
L 162.374876 218.332704 
L 165.654215 214.122738 
L 168.933554 224.226658 
L 172.212893 260.432372 
L 175.492231 253.696425 
L 178.77157 227.594631 
L 182.050909 212.438751 
L 185.330248 230.962605 
L 188.609587 238.540545 
L 191.888926 307.584 
L 195.168264 307.584 
L 198.447603 307.584 
L 201.726942 307.584 
L 205.006281 307.584 
L 208.28562 307.584 
L 211.564959 307.584 
L 214.844298 307.584 
L 218.123636 307.584 
L 221.402975 307.584 
L 224.682314 307.584 
L 227.961653 307.584 
L 231.240992 307.584 
L 234.520331 307.584 
L 237.799669 307.584 
L 241.079008 307.584 
L 244.358347 307.584 
L 247.637686 307.584 
L 250.917025 307.584 
L 254.196364 307.584 
L 257.475702 307.584 
L 260.755041 307.584 
L 264.03438 307.584 
L 267.313719 307.584 
L 270.593058 307.584 
L 273.872397 307.584 
L 277.151736 307.584 
L 280.431074 307.584 
L 283.710413 307.584 
L 286.989752 307.584 
L 290.269091 307.584 
L 293.54843 307.584 
L 296.827769 307.584 
L 300.107107 307.584 
L 303.386446 307.584 
L 306.665785 307.584 
L 309.945124 307.584 
L 313.224463 307.584 
L 316.503802 307.584 
L 319.78314 307.584 
L 323.062479 307.584 
L 326.341818 307.584 
L 329.621157 307.584 
L 332.900496 307.584 
L 336.179835 307.584 
L 339.459174 307.584 
L 342.738512 307.584 
L 346.017851 307.584 
L 349.29719 307.584 
L 352.576529 307.584 
L 355.855868 307.584 
L 359.135207 307.584 
L 362.414545 307.584 
L 365.693884 307.584 
L 368.973223 307.584 
L 372.252562 307.584 
L 375.531901 307.584 
L 378.81124 307.584 
L 382.090579 307.584 
L 385.369917 307.584 
L 388.649256 307.584 
L 391.928595 307.584 
L 395.207934 307.584 
L 398.487273 307.584 
L 398.487273 307.584 
L 398.487273 307.584 
L 395.207934 307.584 
L 391.928595 307.584 
L 388.649256 307.584 
L 385.369917 307.584 
L 382.090579 307.584 
L 378.81124 307.584 
L 375.531901 307.584 
L 372.252562 307.584 
L 368.973223 307.584 
L 365.693884 307.584 
L 362.414545 307.584 
L 359.135207 307.584 
L 355.855868 307.584 
L 352.576529 307.584 
L 349.29719 307.584 
L 346.017851 307.584 
L 342.738512 307.584 
L 339.459174 307.584 
L 336.179835 307.584 
L 332.900496 307.584 
L 329.621157 307.584 
L 326.341818 307.584 
L 323.062479 307.584 
L 319.78314 307.584 
L 316.503802 307.584 
L 313.224463 307.584 
L 309.945124 307.584 
L 306.665785 307.584 
L 303.386446 307.584 
L 300.107107 307.584 
L 296.827769 307.584 
L 293.54843 307.584 
L 290.269091 307.584 
L 286.989752 307.584 
L 283.710413 307.584 
L 280.431074 307.584 
L 277.151736 307.584 
L 273.872397 307.584 
L 270.593058 307.584 
L 267.313719 307.584 
L 264.03438 307.584 
L 260.755041 307.584 
L 257.475702 307.584 
L 254.196364 307.584 
L 250.917025 307.584 
L 247.637686 307.584 
L 244.358347 307.584 
L 241.079008 307.584 
L 237.799669 307.584 
L 234.520331 307.584 
L 231.240992 307.584 
L 227.961653 307.584 
L 224.682314 307.584 
L 221.402975 307.584 
L 218.123636 307.584 
L 214.844298 307.584 
L 211.564959 307.584 
L 208.28562 307.584 
L 205.006281 307.584 
L 201.726942 307.584 
L 198.447603 307.584 
L 195.168264 307.584 
L 191.888926 307.584 
L 188.609587 238.540545 
L 185.330248 230.962605 
L 182.050909 212.438751 
L 178.77157 227.594631 
L 175.492231 253.696425 
L 172.212893 260.432372 
L 168.933554 224.226658 
L 165.654215 214.122738 
L 162.374876 218.332704 
L 159.095537 226.752638 
L 155.816198 176.233037 
L 152.53686 206.544797 
L 149.257521 183.810977 
L 145.978182 182.968983 
L 142.698843 168.655096 
L 139.419504 149.289249 
L 136.140165 145.921276 
L 132.860826 154.341209 
L 129.581488 161.077156 
L 126.302149 140.869316 
L 123.02281 160.235163 
L 119.743471 148.447256 
L 116.464132 139.185329 
L 113.184793 138.343336 
L 109.905455 150.131243 
L 106.626116 136.659349 
L 103.346777 151.815229 
L 100.067438 156.867189 
L 96.788099 125.713435 
L 93.50876 114.767522 
L 90.229421 119.819482 
L 86.950083 90.349714 
L 83.670744 105.505595 
L 80.391405 68.457887 
L 77.112066 54.985993 
L 73.832727 54.985993 
z
" style="fill:#2ca02c;"/>
   </g>
   <g id="PolyCollection_4">
    <path clip-path="url(#p5913225316)" d="M 73.832727 54.985993 
L 73.832727 54.985993 
L 77.112066 54.985993 
L 80.391405 68.457887 
L 83.670744 105.505595 
L 86.950083 90.349714 
L 90.229421 119.819482 
L 93.50876 114.767522 
L 96.788099 125.713435 
L 100.067438 156.867189 
L 103.346777 151.815229 
L 106.626116 136.659349 
L 109.905455 150.131243 
L 113.184793 138.343336 
L 116.464132 139.185329 
L 119.743471 148.447256 
L 123.02281 160.235163 
L 126.302149 140.869316 
L 129.581488 161.077156 
L 132.860826 154.341209 
L 136.140165 145.921276 
L 139.419504 149.289249 
L 142.698843 168.655096 
L 145.978182 182.968983 
L 149.257521 183.810977 
L 152.53686 206.544797 
L 155.816198 176.233037 
L 159.095537 226.752638 
L 162.374876 218.332704 
L 165.654215 214.122738 
L 168.933554 224.226658 
L 172.212893 260.432372 
L 175.492231 253.696425 
L 178.77157 227.594631 
L 182.050909 212.438751 
L 185.330248 230.962605 
L 188.609587 238.540545 
L 191.888926 307.584 
L 195.168264 307.584 
L 198.447603 307.584 
L 201.726942 307.584 
L 205.006281 307.584 
L 208.28562 307.584 
L 211.564959 307.584 
L 214.844298 307.584 
L 218.123636 307.584 
L 221.402975 307.584 
L 224.682314 307.584 
L 227.961653 307.584 
L 231.240992 307.584 
L 234.520331 307.584 
L 237.799669 307.584 
L 241.079008 307.584 
L 244.358347 307.584 
L 247.637686 307.584 
L 250.917025 307.584 
L 254.196364 307.584 
L 257.475702 307.584 
L 260.755041 307.584 
L 264.03438 307.584 
L 267.313719 307.584 
L 270.593058 307.584 
L 273.872397 307.584 
L 277.151736 307.584 
L 280.431074 307.584 
L 283.710413 307.584 
L 286.989752 307.584 
L 290.269091 307.584 
L 293.54843 307.584 
L 296.827769 307.584 
L 300.107107 307.584 
L 303.386446 307.584 
L 306.665785 307.584 
L 309.945124 307.584 
L 313.224463 307.584 
L 316.503802 307.584 
L 319.78314 307.584 
L 323.062479 307.584 
L 326.341818 307.584 
L 329.621157 307.584 
L 332.900496 307.584 
L 336.179835 307.584 
L 339.459174 307.584 
L 342.738512 307.584 
L 346.017851 307.584 
L 349.29719 307.584 
L 352.576529 307.584 
L 355.855868 307.584 
L 359.135207 307.584 
L 362.414545 307.584 
L 365.693884 307.584 
L 368.973223 307.584 
L 372.252562 307.584 
L 375.531901 307.584 
L 378.81124 307.584 
L 382.090579 307.584 
L 385.369917 307.584 
L 388.649256 307.584 
L 391.928595 307.584 
L 395.207934 307.584 
L 398.487273 307.584 
L 398.487273 307.584 
L 398.487273 307.584 
L 395.207934 307.584 
L 391.928595 307.584 
L 388.649256 307.584 
L 385.369917 307.584 
L 382.090579 307.584 
L 378.81124 307.584 
L 375.531901 307.584 
L 372.252562 307.584 
L 368.973223 307.584 
L 365.693884 307.584 
L 362.414545 307.584 
L 359.135207 307.584 
L 355.855868 307.584 
L 352.576529 307.584 
L 349.29719 307.584 
L 346.017851 307.584 
L 342.738512 307.584 
L 339.459174 307.584 
L 336.179835 307.584 
L 332.900496 307.584 
L 329.621157 307.584 
L 326.341818 307.584 
L 323.062479 307.584 
L 319.78314 307.584 
L 316.503802 307.584 
L 313.224463 307.584 
L 309.945124 307.584 
L 306.665785 307.584 
L 303.386446 307.584 
L 300.107107 307.584 
L 296.827769 307.584 
L 293.54843 307.584 
L 290.269091 307.584 
L 286.989752 307.584 
L 283.710413 307.584 
L 280.431074 307.584 
L 277.151736 307.584 
L 273.872397 307.584 
L 270.593058 307.584 
L 267.313719 307.584 
L 264.03438 307.584 
L 260.755041 307.584 
L 257.475702 214.122738 
L 254.196364 217.490711 
L 250.917025 232.646591 
L 247.637686 223.384664 
L 244.358347 228.436625 
L 241.079008 226.752638 
L 237.799669 216.648718 
L 234.520331 208.228784 
L 231.240992 231.804598 
L 227.961653 230.120611 
L 224.682314 229.278618 
L 221.402975 226.752638 
L 218.123636 209.912771 
L 214.844298 236.014565 
L 211.564959 233.488585 
L 208.28562 228.436625 
L 205.006281 224.226658 
L 201.726942 231.804598 
L 198.447603 238.540545 
L 195.168264 237.698551 
L 191.888926 225.910645 
L 188.609587 172.02307 
L 185.330248 166.97111 
L 182.050909 156.025196 
L 178.77157 168.655096 
L 175.492231 184.65297 
L 172.212893 171.181076 
L 168.933554 177.917023 
L 165.654215 164.44513 
L 162.374876 156.025196 
L 159.095537 170.339083 
L 155.816198 142.553302 
L 152.53686 157.709183 
L 149.257521 149.289249 
L 145.978182 147.605262 
L 142.698843 127.397422 
L 139.419504 104.663601 
L 136.140165 103.821608 
L 132.860826 109.715561 
L 129.581488 123.187455 
L 126.302149 93.717688 
L 123.02281 106.347588 
L 119.743471 110.557555 
L 116.464132 103.821608 
L 113.184793 100.453635 
L 109.905455 93.717688 
L 106.626116 89.507721 
L 103.346777 97.085661 
L 100.067438 99.611641 
L 96.788099 89.507721 
L 93.50876 81.929781 
L 90.229421 81.929781 
L 86.950083 60.037953 
L 83.670744 54.985993 
L 80.391405 54.985993 
L 77.112066 54.985993 
L 73.832727 54.985993 
z
" style="fill:#d62728;"/>
   </g>
   <g id="PolyCollection_5">
    <path clip-path="url(#p5913225316)" d="M 73.832727 54.985993 
L 73.832727 54.985993 
L 77.112066 54.985993 
L 80.391405 54.985993 
L 83.670744 54.985993 
L 86.950083 60.037953 
L 90.229421 81.929781 
L 93.50876 81.929781 
L 96.788099 89.507721 
L 100.067438 99.611641 
L 103.346777 97.085661 
L 106.626116 89.507721 
L 109.905455 93.717688 
L 113.184793 100.453635 
L 116.464132 103.821608 
L 119.743471 110.557555 
L 123.02281 106.347588 
L 126.302149 93.717688 
L 129.581488 123.187455 
L 132.860826 109.715561 
L 136.140165 103.821608 
L 139.419504 104.663601 
L 142.698843 127.397422 
L 145.978182 147.605262 
L 149.257521 149.289249 
L 152.53686 157.709183 
L 155.816198 142.553302 
L 159.095537 170.339083 
L 162.374876 156.025196 
L 165.654215 164.44513 
L 168.933554 177.917023 
L 172.212893 171.181076 
L 175.492231 184.65297 
L 178.77157 168.655096 
L 182.050909 156.025196 
L 185.330248 166.97111 
L 188.609587 172.02307 
L 191.888926 225.910645 
L 195.168264 237.698551 
L 198.447603 238.540545 
L 201.726942 231.804598 
L 205.006281 224.226658 
L 208.28562 228.436625 
L 211.564959 233.488585 
L 214.844298 236.014565 
L 218.123636 209.912771 
L 221.402975 226.752638 
L 224.682314 229.278618 
L 227.961653 230.120611 
L 231.240992 231.804598 
L 234.520331 208.228784 
L 237.799669 216.648718 
L 241.079008 226.752638 
L 244.358347 228.436625 
L 247.637686 223.384664 
L 250.917025 232.646591 
L 254.196364 217.490711 
L 257.475702 214.122738 
L 260.755041 307.584 
L 264.03438 307.584 
L 267.313719 307.584 
L 270.593058 307.584 
L 273.872397 307.584 
L 277.151736 307.584 
L 280.431074 307.584 
L 283.710413 307.584 
L 286.989752 307.584 
L 290.269091 307.584 
L 293.54843 307.584 
L 296.827769 307.584 
L 300.107107 307.584 
L 303.386446 307.584 
L 306.665785 307.584 
L 309.945124 307.584 
L 313.224463 307.584 
L 316.503802 307.584 
L 319.78314 307.584 
L 323.062479 307.584 
L 326.341818 307.584 
L 329.621157 307.584 
L 332.900496 307.584 
L 336.179835 307.584 
L 339.459174 307.584 
L 342.738512 307.584 
L 346.017851 307.584 
L 349.29719 307.584 
L 352.576529 307.584 
L 355.855868 307.584 
L 359.135207 307.584 
L 362.414545 307.584 
L 365.693884 307.584 
L 368.973223 307.584 
L 372.252562 307.584 
L 375.531901 307.584 
L 378.81124 307.584 
L 382.090579 307.584 
L 385.369917 307.584 
L 388.649256 307.584 
L 391.928595 307.584 
L 395.207934 307.584 
L 398.487273 307.584 
L 398.487273 307.584 
L 398.487273 307.584 
L 395.207934 307.584 
L 391.928595 307.584 
L 388.649256 307.584 
L 385.369917 307.584 
L 382.090579 307.584 
L 378.81124 307.584 
L 375.531901 307.584 
L 372.252562 307.584 
L 368.973223 307.584 
L 365.693884 307.584 
L 362.414545 307.584 
L 359.135207 307.584 
L 355.855868 307.584 
L 352.576529 307.584 
L 349.29719 307.584 
L 346.017851 307.584 
L 342.738512 307.584 
L 339.459174 307.584 
L 336.179835 307.584 
L 332.900496 307.584 
L 329.621157 307.584 
L 326.341818 307.584 
L 323.062479 307.584 
L 319.78314 307.584 
L 316.503802 307.584 
L 313.224463 307.584 
L 309.945124 307.584 
L 306.665785 307.584 
L 303.386446 307.584 
L 300.107107 307.584 
L 296.827769 307.584 
L 293.54843 307.584 
L 290.269091 307.584 
L 286.989752 307.584 
L 283.710413 307.584 
L 280.431074 307.584 
L 277.151736 307.584 
L 273.872397 307.584 
L 270.593058 307.584 
L 267.313719 307.584 
L 264.03438 307.584 
L 260.755041 307.584 
L 257.475702 214.122738 
L 254.196364 217.490711 
L 250.917025 232.646591 
L 247.637686 223.384664 
L 244.358347 228.436625 
L 241.079008 226.752638 
L 237.799669 216.648718 
L 234.520331 208.228784 
L 231.240992 183.810977 
L 227.961653 172.865063 
L 224.682314 170.339083 
L 221.402975 152.657223 
L 218.123636 143.395296 
L 214.844298 154.341209 
L 211.564959 145.079282 
L 208.28562 143.395296 
L 205.006281 143.395296 
L 201.726942 145.921276 
L 198.447603 151.815229 
L 195.168264 152.657223 
L 191.888926 145.921276 
L 188.609587 118.135495 
L 185.330248 108.031575 
L 182.050909 100.453635 
L 178.77157 104.663601 
L 175.492231 116.451508 
L 172.212893 118.977488 
L 168.933554 123.187455 
L 165.654215 108.031575 
L 162.374876 101.295628 
L 159.095537 110.557555 
L 155.816198 96.243668 
L 152.53686 107.189581 
L 149.257521 108.873568 
L 145.978182 99.611641 
L 142.698843 75.193834 
L 139.419504 54.985993 
L 136.140165 54.985993 
L 132.860826 55.827987 
L 129.581488 55.827987 
L 126.302149 54.985993 
L 123.02281 54.985993 
L 119.743471 54.144 
L 116.464132 54.985993 
L 113.184793 54.144 
L 109.905455 54.144 
L 106.626116 54.985993 
L 103.346777 54.144 
L 100.067438 54.144 
L 96.788099 54.144 
L 93.50876 54.144 
L 90.229421 54.985993 
L 86.950083 54.144 
L 83.670744 54.985993 
L 80.391405 54.985993 
L 77.112066 54.985993 
L 73.832727 54.985993 
z
" style="fill:#9467bd;"/>
   </g>
   <g id="PolyCollection_6">
    <path clip-path="url(#p5913225316)" d="M 73.832727 54.985993 
L 73.832727 54.985993 
L 77.112066 54.985993 
L 80.391405 54.985993 
L 83.670744 54.985993 
L 86.950083 54.144 
L 90.229421 54.985993 
L 93.50876 54.144 
L 96.788099 54.144 
L 100.067438 54.144 
L 103.346777 54.144 
L 106.626116 54.985993 
L 109.905455 54.144 
L 113.184793 54.144 
L 116.464132 54.985993 
L 119.743471 54.144 
L 123.02281 54.985993 
L 126.302149 54.985993 
L 129.581488 55.827987 
L 132.860826 55.827987 
L 136.140165 54.985993 
L 139.419504 54.985993 
L 142.698843 75.193834 
L 145.978182 99.611641 
L 149.257521 108.873568 
L 152.53686 107.189581 
L 155.816198 96.243668 
L 159.095537 110.557555 
L 162.374876 101.295628 
L 165.654215 108.031575 
L 168.933554 123.187455 
L 172.212893 118.977488 
L 175.492231 116.451508 
L 178.77157 104.663601 
L 182.050909 100.453635 
L 185.330248 108.031575 
L 188.609587 118.135495 
L 191.888926 145.921276 
L 195.168264 152.657223 
L 198.447603 151.815229 
L 201.726942 145.921276 
L 205.006281 143.395296 
L 208.28562 143.395296 
L 211.564959 145.079282 
L 214.844298 154.341209 
L 218.123636 143.395296 
L 221.402975 152.657223 
L 224.682314 170.339083 
L 227.961653 172.865063 
L 231.240992 183.810977 
L 234.520331 208.228784 
L 237.799669 216.648718 
L 241.079008 226.752638 
L 244.358347 228.436625 
L 247.637686 223.384664 
L 250.917025 232.646591 
L 254.196364 217.490711 
L 257.475702 214.122738 
L 260.755041 307.584 
L 264.03438 307.584 
L 267.313719 307.584 
L 270.593058 307.584 
L 273.872397 307.584 
L 277.151736 307.584 
L 280.431074 307.584 
L 283.710413 307.584 
L 286.989752 307.584 
L 290.269091 307.584 
L 293.54843 307.584 
L 296.827769 307.584 
L 300.107107 307.584 
L 303.386446 307.584 
L 306.665785 307.584 
L 309.945124 307.584 
L 313.224463 307.584 
L 316.503802 307.584 
L 319.78314 307.584 
L 323.062479 307.584 
L 326.341818 307.584 
L 329.621157 307.584 
L 332.900496 307.584 
L 336.179835 307.584 
L 339.459174 307.584 
L 342.738512 307.584 
L 346.017851 307.584 
L 349.29719 307.584 
L 352.576529 307.584 
L 355.855868 307.584 
L 359.135207 307.584 
L 362.414545 307.584 
L 365.693884 307.584 
L 368.973223 307.584 
L 372.252562 307.584 
L 375.531901 307.584 
L 378.81124 307.584 
L 382.090579 307.584 
L 385.369917 307.584 
L 388.649256 307.584 
L 391.928595 307.584 
L 395.207934 307.584 
L 398.487273 307.584 
L 398.487273 307.584 
L 398.487273 307.584 
L 395.207934 307.584 
L 391.928595 307.584 
L 388.649256 307.584 
L 385.369917 307.584 
L 382.090579 307.584 
L 378.81124 307.584 
L 375.531901 307.584 
L 372.252562 307.584 
L 368.973223 307.584 
L 365.693884 307.584 
L 362.414545 307.584 
L 359.135207 307.584 
L 355.855868 307.584 
L 352.576529 307.584 
L 349.29719 307.584 
L 346.017851 307.584 
L 342.738512 307.584 
L 339.459174 307.584 
L 336.179835 307.584 
L 332.900496 307.584 
L 329.621157 307.584 
L 326.341818 271.378286 
L 323.062479 255.380412 
L 319.78314 257.906392 
L 316.503802 260.432372 
L 313.224463 231.804598 
L 309.945124 242.750512 
L 306.665785 239.382538 
L 303.386446 267.168319 
L 300.107107 265.484332 
L 296.827769 255.380412 
L 293.54843 252.854432 
L 290.269091 266.326326 
L 286.989752 242.750512 
L 283.710413 247.802472 
L 280.431074 256.222405 
L 277.151736 221.700678 
L 273.872397 195.598884 
L 270.593058 191.388917 
L 267.313719 187.17895 
L 264.03438 189.70493 
L 260.755041 193.072904 
L 257.475702 142.553302 
L 254.196364 143.395296 
L 250.917025 150.131243 
L 247.637686 138.343336 
L 244.358347 148.447256 
L 241.079008 150.131243 
L 237.799669 136.659349 
L 234.520331 125.713435 
L 231.240992 123.187455 
L 227.961653 105.505595 
L 224.682314 92.033701 
L 221.402975 76.877821 
L 218.123636 67.615894 
L 214.844298 54.144 
L 211.564959 54.985993 
L 208.28562 54.985993 
L 205.006281 54.144 
L 201.726942 54.144 
L 198.447603 54.985993 
L 195.168264 55.827987 
L 191.888926 54.985993 
L 188.609587 54.144 
L 185.330248 54.144 
L 182.050909 54.985993 
L 178.77157 54.985993 
L 175.492231 54.985993 
L 172.212893 54.985993 
L 168.933554 54.985993 
L 165.654215 54.985993 
L 162.374876 54.985993 
L 159.095537 55.827987 
L 155.816198 54.985993 
L 152.53686 54.985993 
L 149.257521 55.827987 
L 145.978182 55.827987 
L 142.698843 55.827987 
L 139.419504 54.985993 
L 136.140165 54.985993 
L 132.860826 55.827987 
L 129.581488 55.827987 
L 126.302149 54.985993 
L 123.02281 54.985993 
L 119.743471 54.144 
L 116.464132 54.985993 
L 113.184793 54.144 
L 109.905455 54.144 
L 106.626116 54.985993 
L 103.346777 54.144 
L 100.067438 54.144 
L 96.788099 54.144 
L 93.50876 54.144 
L 90.229421 54.985993 
L 86.950083 54.144 
L 83.670744 54.985993 
L 80.391405 54.985993 
L 77.112066 54.985993 
L 73.832727 54.985993 
z
" style="fill:#8c564b;"/>
   </g>
   <g id="PolyCollection_7">
    <path clip-path="url(#p5913225316)" d="M 73.832727 54.985993 
L 73.832727 54.985993 
L 77.112066 54.985993 
L 80.391405 54.985993 
L 83.670744 54.985993 
L 86.950083 54.144 
L 90.229421 54.985993 
L 93.50876 54.144 
L 96.788099 54.144 
L 100.067438 54.144 
L 103.346777 54.144 
L 106.626116 54.985993 
L 109.905455 54.144 
L 113.184793 54.144 
L 116.464132 54.985993 
L 119.743471 54.144 
L 123.02281 54.985993 
L 126.302149 54.985993 
L 129.581488 55.827987 
L 132.860826 55.827987 
L 136.140165 54.985993 
L 139.419504 54.985993 
L 142.698843 55.827987 
L 145.978182 55.827987 
L 149.257521 55.827987 
L 152.53686 54.985993 
L 155.816198 54.985993 
L 159.095537 55.827987 
L 162.374876 54.985993 
L 165.654215 54.985993 
L 168.933554 54.985993 
L 172.212893 54.985993 
L 175.492231 54.985993 
L 178.77157 54.985993 
L 182.050909 54.985993 
L 185.330248 54.144 
L 188.609587 54.144 
L 191.888926 54.985993 
L 195.168264 55.827987 
L 198.447603 54.985993 
L 201.726942 54.144 
L 205.006281 54.144 
L 208.28562 54.985993 
L 211.564959 54.985993 
L 214.844298 54.144 
L 218.123636 67.615894 
L 221.402975 76.877821 
L 224.682314 92.033701 
L 227.961653 105.505595 
L 231.240992 123.187455 
L 234.520331 125.713435 
L 237.799669 136.659349 
L 241.079008 150.131243 
L 244.358347 148.447256 
L 247.637686 138.343336 
L 250.917025 150.131243 
L 254.196364 143.395296 
L 257.475702 142.553302 
L 260.755041 193.072904 
L 264.03438 189.70493 
L 267.313719 187.17895 
L 270.593058 191.388917 
L 273.872397 195.598884 
L 277.151736 221.700678 
L 280.431074 256.222405 
L 283.710413 247.802472 
L 286.989752 242.750512 
L 290.269091 266.326326 
L 293.54843 252.854432 
L 296.827769 255.380412 
L 300.107107 265.484332 
L 303.386446 267.168319 
L 306.665785 239.382538 
L 309.945124 242.750512 
L 313.224463 231.804598 
L 316.503802 260.432372 
L 319.78314 257.906392 
L 323.062479 255.380412 
L 326.341818 271.378286 
L 329.621157 307.584 
L 332.900496 307.584 
L 336.179835 307.584 
L 339.459174 307.584 
L 342.738512 307.584 
L 346.017851 307.584 
L 349.29719 307.584 
L 352.576529 307.584 
L 355.855868 307.584 
L 359.135207 307.584 
L 362.414545 307.584 
L 365.693884 307.584 
L 368.973223 307.584 
L 372.252562 307.584 
L 375.531901 307.584 
L 378.81124 307.584 
L 382.090579 307.584 
L 385.369917 307.584 
L 388.649256 307.584 
L 391.928595 307.584 
L 395.207934 307.584 
L 398.487273 307.584 
L 398.487273 307.584 
L 398.487273 307.584 
L 395.207934 307.584 
L 391.928595 307.584 
L 388.649256 307.584 
L 385.369917 307.584 
L 382.090579 307.584 
L 378.81124 307.584 
L 375.531901 307.584 
L 372.252562 307.584 
L 368.973223 307.584 
L 365.693884 307.584 
L 362.414545 307.584 
L 359.135207 307.584 
L 355.855868 307.584 
L 352.576529 307.584 
L 349.29719 307.584 
L 346.017851 307.584 
L 342.738512 307.584 
L 339.459174 307.584 
L 336.179835 307.584 
L 332.900496 307.584 
L 329.621157 307.584 
L 326.341818 271.378286 
L 323.062479 255.380412 
L 319.78314 257.906392 
L 316.503802 260.432372 
L 313.224463 231.804598 
L 309.945124 204.860811 
L 306.665785 198.124864 
L 303.386446 224.226658 
L 300.107107 214.964731 
L 296.827769 198.124864 
L 293.54843 230.120611 
L 290.269091 221.700678 
L 286.989752 189.70493 
L 283.710413 160.235163 
L 280.431074 142.553302 
L 277.151736 123.187455 
L 273.872397 65.931907 
L 270.593058 54.985993 
L 267.313719 54.985993 
L 264.03438 54.985993 
L 260.755041 54.985993 
L 257.475702 54.985993 
L 254.196364 54.144 
L 250.917025 54.985993 
L 247.637686 54.985993 
L 244.358347 55.827987 
L 241.079008 54.985993 
L 237.799669 54.985993 
L 234.520331 54.985993 
L 231.240992 54.985993 
L 227.961653 54.144 
L 224.682314 54.985993 
L 221.402975 54.144 
L 218.123636 54.985993 
L 214.844298 54.144 
L 211.564959 54.985993 
L 208.28562 54.985993 
L 205.006281 54.144 
L 201.726942 54.144 
L 198.447603 54.985993 
L 195.168264 55.827987 
L 191.888926 54.985993 
L 188.609587 54.144 
L 185.330248 54.144 
L 182.050909 54.985993 
L 178.77157 54.985993 
L 175.492231 54.985993 
L 172.212893 54.985993 
L 168.933554 54.985993 
L 165.654215 54.985993 
L 162.374876 54.985993 
L 159.095537 55.827987 
L 155.816198 54.985993 
L 152.53686 54.985993 
L 149.257521 55.827987 
L 145.978182 55.827987 
L 142.698843 55.827987 
L 139.419504 54.985993 
L 136.140165 54.985993 
L 132.860826 55.827987 
L 129.581488 55.827987 
L 126.302149 54.985993 
L 123.02281 54.985993 
L 119.743471 54.144 
L 116.464132 54.985993 
L 113.184793 54.144 
L 109.905455 54.144 
L 106.626116 54.985993 
L 103.346777 54.144 
L 100.067438 54.144 
L 96.788099 54.144 
L 93.50876 54.144 
L 90.229421 54.985993 
L 86.950083 54.144 
L 83.670744 54.985993 
L 80.391405 54.985993 
L 77.112066 54.985993 
L 73.832727 54.985993 
z
" style="fill:#e377c2;"/>
   </g>
   <g id="PolyCollection_8">
    <path clip-path="url(#p5913225316)" d="M 73.832727 54.985993 
L 73.832727 54.985993 
L 77.112066 54.985993 
L 80.391405 54.985993 
L 83.670744 54.985993 
L 86.950083 54.144 
L 90.229421 54.985993 
L 93.50876 54.144 
L 96.788099 54.144 
L 100.067438 54.144 
L 103.346777 54.144 
L 106.626116 54.985993 
L 109.905455 54.144 
L 113.184793 54.144 
L 116.464132 54.985993 
L 119.743471 54.144 
L 123.02281 54.985993 
L 126.302149 54.985993 
L 129.581488 55.827987 
L 132.860826 55.827987 
L 136.140165 54.985993 
L 139.419504 54.985993 
L 142.698843 55.827987 
L 145.978182 55.827987 
L 149.257521 55.827987 
L 152.53686 54.985993 
L 155.816198 54.985993 
L 159.095537 55.827987 
L 162.374876 54.985993 
L 165.654215 54.985993 
L 168.933554 54.985993 
L 172.212893 54.985993 
L 175.492231 54.985993 
L 178.77157 54.985993 
L 182.050909 54.985993 
L 185.330248 54.144 
L 188.609587 54.144 
L 191.888926 54.985993 
L 195.168264 55.827987 
L 198.447603 54.985993 
L 201.726942 54.144 
L 205.006281 54.144 
L 208.28562 54.985993 
L 211.564959 54.985993 
L 214.844298 54.144 
L 218.123636 54.985993 
L 221.402975 54.144 
L 224.682314 54.985993 
L 227.961653 54.144 
L 231.240992 54.985993 
L 234.520331 54.985993 
L 237.799669 54.985993 
L 241.079008 54.985993 
L 244.358347 55.827987 
L 247.637686 54.985993 
L 250.917025 54.985993 
L 254.196364 54.144 
L 257.475702 54.985993 
L 260.755041 54.985993 
L 264.03438 54.985993 
L 267.313719 54.985993 
L 270.593058 54.985993 
L 273.872397 65.931907 
L 277.151736 123.187455 
L 280.431074 142.553302 
L 283.710413 160.235163 
L 286.989752 189.70493 
L 290.269091 221.700678 
L 293.54843 230.120611 
L 296.827769 198.124864 
L 300.107107 214.964731 
L 303.386446 224.226658 
L 306.665785 198.124864 
L 309.945124 204.860811 
L 313.224463 231.804598 
L 316.503802 260.432372 
L 319.78314 257.906392 
L 323.062479 255.380412 
L 326.341818 271.378286 
L 329.621157 307.584 
L 332.900496 307.584 
L 336.179835 307.584 
L 339.459174 307.584 
L 342.738512 307.584 
L 346.017851 307.584 
L 349.29719 307.584 
L 352.576529 307.584 
L 355.855868 307.584 
L 359.135207 307.584 
L 362.414545 307.584 
L 365.693884 307.584 
L 368.973223 307.584 
L 372.252562 307.584 
L 375.531901 307.584 
L 378.81124 307.584 
L 382.090579 307.584 
L 385.369917 307.584 
L 388.649256 307.584 
L 391.928595 307.584 
L 395.207934 307.584 
L 398.487273 307.584 
L 398.487273 307.584 
L 398.487273 307.584 
L 395.207934 307.584 
L 391.928595 307.584 
L 388.649256 307.584 
L 385.369917 307.584 
L 382.090579 307.584 
L 378.81124 307.584 
L 375.531901 307.584 
L 372.252562 307.584 
L 368.973223 307.584 
L 365.693884 307.584 
L 362.414545 307.584 
L 359.135207 307.584 
L 355.855868 225.068651 
L 352.576529 235.172571 
L 349.29719 223.384664 
L 346.017851 219.174698 
L 342.738512 258.748385 
L 339.459174 234.330578 
L 336.179835 266.326326 
L 332.900496 267.168319 
L 329.621157 229.278618 
L 326.341818 249.486458 
L 323.062479 204.860811 
L 319.78314 197.28287 
L 316.503802 191.388917 
L 313.224463 174.54905 
L 309.945124 126.555429 
L 306.665785 118.977488 
L 303.386446 135.817355 
L 300.107107 134.133369 
L 296.827769 141.711309 
L 293.54843 156.867189 
L 290.269091 130.765395 
L 286.989752 122.345462 
L 283.710413 105.505595 
L 280.431074 78.561807 
L 277.151736 74.351841 
L 273.872397 54.985993 
L 270.593058 54.985993 
L 267.313719 54.985993 
L 264.03438 54.985993 
L 260.755041 54.985993 
L 257.475702 54.985993 
L 254.196364 54.144 
L 250.917025 54.985993 
L 247.637686 54.985993 
L 244.358347 55.827987 
L 241.079008 54.985993 
L 237.799669 54.985993 
L 234.520331 54.985993 
L 231.240992 54.985993 
L 227.961653 54.144 
L 224.682314 54.985993 
L 221.402975 54.144 
L 218.123636 54.985993 
L 214.844298 54.144 
L 211.564959 54.985993 
L 208.28562 54.985993 
L 205.006281 54.144 
L 201.726942 54.144 
L 198.447603 54.985993 
L 195.168264 55.827987 
L 191.888926 54.985993 
L 188.609587 54.144 
L 185.330248 54.144 
L 182.050909 54.985993 
L 178.77157 54.985993 
L 175.492231 54.985993 
L 172.212893 54.985993 
L 168.933554 54.985993 
L 165.654215 54.985993 
L 162.374876 54.985993 
L 159.095537 55.827987 
L 155.816198 54.985993 
L 152.53686 54.985993 
L 149.257521 55.827987 
L 145.978182 55.827987 
L 142.698843 55.827987 
L 139.419504 54.985993 
L 136.140165 54.985993 
L 132.860826 55.827987 
L 129.581488 55.827987 
L 126.302149 54.985993 
L 123.02281 54.985993 
L 119.743471 54.144 
L 116.464132 54.985993 
L 113.184793 54.144 
L 109.905455 54.144 
L 106.626116 54.985993 
L 103.346777 54.144 
L 100.067438 54.144 
L 96.788099 54.144 
L 93.50876 54.144 
L 90.229421 54.985993 
L 86.950083 54.144 
L 83.670744 54.985993 
L 80.391405 54.985993 
L 77.112066 54.985993 
L 73.832727 54.985993 
z
" style="fill:#7f7f7f;"/>
   </g>
   <g id="PolyCollection_9">
    <path clip-path="url(#p5913225316)" d="M 73.832727 54.985993 
L 73.832727 54.985993 
L 77.112066 54.985993 
L 80.391405 54.985993 
L 83.670744 54.985993 
L 86.950083 54.144 
L 90.229421 54.985993 
L 93.50876 54.144 
L 96.788099 54.144 
L 100.067438 54.144 
L 103.346777 54.144 
L 106.626116 54.985993 
L 109.905455 54.144 
L 113.184793 54.144 
L 116.464132 54.985993 
L 119.743471 54.144 
L 123.02281 54.985993 
L 126.302149 54.985993 
L 129.581488 55.827987 
L 132.860826 55.827987 
L 136.140165 54.985993 
L 139.419504 54.985993 
L 142.698843 55.827987 
L 145.978182 55.827987 
L 149.257521 55.827987 
L 152.53686 54.985993 
L 155.816198 54.985993 
L 159.095537 55.827987 
L 162.374876 54.985993 
L 165.654215 54.985993 
L 168.933554 54.985993 
L 172.212893 54.985993 
L 175.492231 54.985993 
L 178.77157 54.985993 
L 182.050909 54.985993 
L 185.330248 54.144 
L 188.609587 54.144 
L 191.888926 54.985993 
L 195.168264 55.827987 
L 198.447603 54.985993 
L 201.726942 54.144 
L 205.006281 54.144 
L 208.28562 54.985993 
L 211.564959 54.985993 
L 214.844298 54.144 
L 218.123636 54.985993 
L 221.402975 54.144 
L 224.682314 54.985993 
L 227.961653 54.144 
L 231.240992 54.985993 
L 234.520331 54.985993 
L 237.799669 54.985993 
L 241.079008 54.985993 
L 244.358347 55.827987 
L 247.637686 54.985993 
L 250.917025 54.985993 
L 254.196364 54.144 
L 257.475702 54.985993 
L 260.755041 54.985993 
L 264.03438 54.985993 
L 267.313719 54.985993 
L 270.593058 54.985993 
L 273.872397 54.985993 
L 277.151736 74.351841 
L 280.431074 78.561807 
L 283.710413 105.505595 
L 286.989752 122.345462 
L 290.269091 130.765395 
L 293.54843 156.867189 
L 296.827769 141.711309 
L 300.107107 134.133369 
L 303.386446 135.817355 
L 306.665785 118.977488 
L 309.945124 126.555429 
L 313.224463 174.54905 
L 316.503802 191.388917 
L 319.78314 197.28287 
L 323.062479 204.860811 
L 326.341818 249.486458 
L 329.621157 229.278618 
L 332.900496 267.168319 
L 336.179835 266.326326 
L 339.459174 234.330578 
L 342.738512 258.748385 
L 346.017851 219.174698 
L 349.29719 223.384664 
L 352.576529 235.172571 
L 355.855868 225.068651 
L 359.135207 307.584 
L 362.414545 307.584 
L 365.693884 307.584 
L 368.973223 307.584 
L 372.252562 307.584 
L 375.531901 307.584 
L 378.81124 307.584 
L 382.090579 307.584 
L 385.369917 307.584 
L 388.649256 307.584 
L 391.928595 307.584 
L 395.207934 307.584 
L 398.487273 307.584 
L 398.487273 307.584 
L 398.487273 307.584 
L 395.207934 307.584 
L 391.928595 307.584 
L 388.649256 307.584 
L 385.369917 257.906392 
L 382.090579 254.538419 
L 378.81124 249.486458 
L 375.531901 250.328452 
L 372.252562 248.644465 
L 368.973223 253.696425 
L 365.693884 246.960478 
L 362.414545 231.804598 
L 359.135207 227.594631 
L 355.855868 176.233037 
L 352.576529 188.020944 
L 349.29719 176.233037 
L 346.017851 173.707056 
L 342.738512 215.806724 
L 339.459174 193.072904 
L 336.179835 227.594631 
L 332.900496 219.174698 
L 329.621157 175.391043 
L 326.341818 194.75689 
L 323.062479 158.551176 
L 319.78314 152.657223 
L 316.503802 138.343336 
L 313.224463 139.185329 
L 309.945124 96.243668 
L 306.665785 94.559681 
L 303.386446 92.033701 
L 300.107107 96.243668 
L 296.827769 108.873568 
L 293.54843 125.713435 
L 290.269091 86.139748 
L 286.989752 96.243668 
L 283.710413 80.245794 
L 280.431074 54.985993 
L 277.151736 54.985993 
L 273.872397 54.985993 
L 270.593058 54.985993 
L 267.313719 54.985993 
L 264.03438 54.985993 
L 260.755041 54.985993 
L 257.475702 54.985993 
L 254.196364 54.144 
L 250.917025 54.985993 
L 247.637686 54.985993 
L 244.358347 55.827987 
L 241.079008 54.985993 
L 237.799669 54.985993 
L 234.520331 54.985993 
L 231.240992 54.985993 
L 227.961653 54.144 
L 224.682314 54.985993 
L 221.402975 54.144 
L 218.123636 54.985993 
L 214.844298 54.144 
L 211.564959 54.985993 
L 208.28562 54.985993 
L 205.006281 54.144 
L 201.726942 54.144 
L 198.447603 54.985993 
L 195.168264 55.827987 
L 191.888926 54.985993 
L 188.609587 54.144 
L 185.330248 54.144 
L 182.050909 54.985993 
L 178.77157 54.985993 
L 175.492231 54.985993 
L 172.212893 54.985993 
L 168.933554 54.985993 
L 165.654215 54.985993 
L 162.374876 54.985993 
L 159.095537 55.827987 
L 155.816198 54.985993 
L 152.53686 54.985993 
L 149.257521 55.827987 
L 145.978182 55.827987 
L 142.698843 55.827987 
L 139.419504 54.985993 
L 136.140165 54.985993 
L 132.860826 55.827987 
L 129.581488 55.827987 
L 126.302149 54.985993 
L 123.02281 54.985993 
L 119.743471 54.144 
L 116.464132 54.985993 
L 113.184793 54.144 
L 109.905455 54.144 
L 106.626116 54.985993 
L 103.346777 54.144 
L 100.067438 54.144 
L 96.788099 54.144 
L 93.50876 54.144 
L 90.229421 54.985993 
L 86.950083 54.144 
L 83.670744 54.985993 
L 80.391405 54.985993 
L 77.112066 54.985993 
L 73.832727 54.985993 
z
" style="fill:#bcbd22;"/>
   </g>
   <g id="PolyCollection_10">
    <path clip-path="url(#p5913225316)" d="M 73.832727 54.985993 
L 73.832727 54.985993 
L 77.112066 54.985993 
L 80.391405 54.985993 
L 83.670744 54.985993 
L 86.950083 54.144 
L 90.229421 54.985993 
L 93.50876 54.144 
L 96.788099 54.144 
L 100.067438 54.144 
L 103.346777 54.144 
L 106.626116 54.985993 
L 109.905455 54.144 
L 113.184793 54.144 
L 116.464132 54.985993 
L 119.743471 54.144 
L 123.02281 54.985993 
L 126.302149 54.985993 
L 129.581488 55.827987 
L 132.860826 55.827987 
L 136.140165 54.985993 
L 139.419504 54.985993 
L 142.698843 55.827987 
L 145.978182 55.827987 
L 149.257521 55.827987 
L 152.53686 54.985993 
L 155.816198 54.985993 
L 159.095537 55.827987 
L 162.374876 54.985993 
L 165.654215 54.985993 
L 168.933554 54.985993 
L 172.212893 54.985993 
L 175.492231 54.985993 
L 178.77157 54.985993 
L 182.050909 54.985993 
L 185.330248 54.144 
L 188.609587 54.144 
L 191.888926 54.985993 
L 195.168264 55.827987 
L 198.447603 54.985993 
L 201.726942 54.144 
L 205.006281 54.144 
L 208.28562 54.985993 
L 211.564959 54.985993 
L 214.844298 54.144 
L 218.123636 54.985993 
L 221.402975 54.144 
L 224.682314 54.985993 
L 227.961653 54.144 
L 231.240992 54.985993 
L 234.520331 54.985993 
L 237.799669 54.985993 
L 241.079008 54.985993 
L 244.358347 55.827987 
L 247.637686 54.985993 
L 250.917025 54.985993 
L 254.196364 54.144 
L 257.475702 54.985993 
L 260.755041 54.985993 
L 264.03438 54.985993 
L 267.313719 54.985993 
L 270.593058 54.985993 
L 273.872397 54.985993 
L 277.151736 54.985993 
L 280.431074 54.985993 
L 283.710413 80.245794 
L 286.989752 96.243668 
L 290.269091 86.139748 
L 293.54843 125.713435 
L 296.827769 108.873568 
L 300.107107 96.243668 
L 303.386446 92.033701 
L 306.665785 94.559681 
L 309.945124 96.243668 
L 313.224463 139.185329 
L 316.503802 138.343336 
L 319.78314 152.657223 
L 323.062479 158.551176 
L 326.341818 194.75689 
L 329.621157 175.391043 
L 332.900496 219.174698 
L 336.179835 227.594631 
L 339.459174 193.072904 
L 342.738512 215.806724 
L 346.017851 173.707056 
L 349.29719 176.233037 
L 352.576529 188.020944 
L 355.855868 176.233037 
L 359.135207 227.594631 
L 362.414545 231.804598 
L 365.693884 246.960478 
L 368.973223 253.696425 
L 372.252562 248.644465 
L 375.531901 250.328452 
L 378.81124 249.486458 
L 382.090579 254.538419 
L 385.369917 257.906392 
L 388.649256 307.584 
L 391.928595 307.584 
L 395.207934 307.584 
L 398.487273 307.584 
L 398.487273 228.436625 
L 398.487273 228.436625 
L 395.207934 221.700678 
L 391.928595 218.332704 
L 388.649256 227.594631 
L 385.369917 226.752638 
L 382.090579 184.65297 
L 378.81124 196.440877 
L 375.531901 188.020944 
L 372.252562 167.813103 
L 368.973223 177.07503 
L 365.693884 162.761143 
L 362.414545 150.131243 
L 359.135207 153.499216 
L 355.855868 109.715561 
L 352.576529 127.397422 
L 349.29719 108.031575 
L 346.017851 99.611641 
L 342.738512 158.551176 
L 339.459174 161.077156 
L 336.179835 158.551176 
L 332.900496 161.91915 
L 329.621157 139.185329 
L 326.341818 149.289249 
L 323.062479 145.921276 
L 319.78314 87.823734 
L 316.503802 83.613767 
L 313.224463 59.19596 
L 309.945124 54.144 
L 306.665785 54.144 
L 303.386446 54.985993 
L 300.107107 54.985993 
L 296.827769 54.985993 
L 293.54843 54.144 
L 290.269091 54.985993 
L 286.989752 54.985993 
L 283.710413 54.985993 
L 280.431074 54.985993 
L 277.151736 54.985993 
L 273.872397 54.985993 
L 270.593058 54.985993 
L 267.313719 54.985993 
L 264.03438 54.985993 
L 260.755041 54.985993 
L 257.475702 54.985993 
L 254.196364 54.144 
L 250.917025 54.985993 
L 247.637686 54.985993 
L 244.358347 55.827987 
L 241.079008 54.985993 
L 237.799669 54.985993 
L 234.520331 54.985993 
L 231.240992 54.985993 
L 227.961653 54.144 
L 224.682314 54.985993 
L 221.402975 54.144 
L 218.123636 54.985993 
L 214.844298 54.144 
L 211.564959 54.985993 
L 208.28562 54.985993 
L 205.006281 54.144 
L 201.726942 54.144 
L 198.447603 54.985993 
L 195.168264 55.827987 
L 191.888926 54.985993 
L 188.609587 54.144 
L 185.330248 54.144 
L 182.050909 54.985993 
L 178.77157 54.985993 
L 175.492231 54.985993 
L 172.212893 54.985993 
L 168.933554 54.985993 
L 165.654215 54.985993 
L 162.374876 54.985993 
L 159.095537 55.827987 
L 155.816198 54.985993 
L 152.53686 54.985993 
L 149.257521 55.827987 
L 145.978182 55.827987 
L 142.698843 55.827987 
L 139.419504 54.985993 
L 136.140165 54.985993 
L 132.860826 55.827987 
L 129.581488 55.827987 
L 126.302149 54.985993 
L 123.02281 54.985993 
L 119.743471 54.144 
L 116.464132 54.985993 
L 113.184793 54.144 
L 109.905455 54.144 
L 106.626116 54.985993 
L 103.346777 54.144 
L 100.067438 54.144 
L 96.788099 54.144 
L 93.50876 54.144 
L 90.229421 54.985993 
L 86.950083 54.144 
L 83.670744 54.985993 
L 80.391405 54.985993 
L 77.112066 54.985993 
L 73.832727 54.985993 
z
" style="fill:#17becf;"/>
   </g>
   <g id="PolyCollection_11">
    <path clip-path="url(#p5913225316)" d="M 73.832727 54.985993 
L 73.832727 54.985993 
L 77.112066 54.985993 
L 80.391405 54.985993 
L 83.670744 54.985993 
L 86.950083 54.144 
L 90.229421 54.985993 
L 93.50876 54.144 
L 96.788099 54.144 
L 100.067438 54.144 
L 103.346777 54.144 
L 106.626116 54.985993 
L 109.905455 54.144 
L 113.184793 54.144 
L 116.464132 54.985993 
L 119.743471 54.144 
L 123.02281 54.985993 
L 126.302149 54.985993 
L 129.581488 55.827987 
L 132.860826 55.827987 
L 136.140165 54.985993 
L 139.419504 54.985993 
L 142.698843 55.827987 
L 145.978182 55.827987 
L 149.257521 55.827987 
L 152.53686 54.985993 
L 155.816198 54.985993 
L 159.095537 55.827987 
L 162.374876 54.985993 
L 165.654215 54.985993 
L 168.933554 54.985993 
L 172.212893 54.985993 
L 175.492231 54.985993 
L 178.77157 54.985993 
L 182.050909 54.985993 
L 185.330248 54.144 
L 188.609587 54.144 
L 191.888926 54.985993 
L 195.168264 55.827987 
L 198.447603 54.985993 
L 201.726942 54.144 
L 205.006281 54.144 
L 208.28562 54.985993 
L 211.564959 54.985993 
L 214.844298 54.144 
L 218.123636 54.985993 
L 221.402975 54.144 
L 224.682314 54.985993 
L 227.961653 54.144 
L 231.240992 54.985993 
L 234.520331 54.985993 
L 237.799669 54.985993 
L 241.079008 54.985993 
L 244.358347 55.827987 
L 247.637686 54.985993 
L 250.917025 54.985993 
L 254.196364 54.144 
L 257.475702 54.985993 
L 260.755041 54.985993 
L 264.03438 54.985993 
L 267.313719 54.985993 
L 270.593058 54.985993 
L 273.872397 54.985993 
L 277.151736 54.985993 
L 280.431074 54.985993 
L 283.710413 54.985993 
L 286.989752 54.985993 
L 290.269091 54.985993 
L 293.54843 54.144 
L 296.827769 54.985993 
L 300.107107 54.985993 
L 303.386446 54.985993 
L 306.665785 54.144 
L 309.945124 54.144 
L 313.224463 59.19596 
L 316.503802 83.613767 
L 319.78314 87.823734 
L 323.062479 145.921276 
L 326.341818 149.289249 
L 329.621157 139.185329 
L 332.900496 161.91915 
L 336.179835 158.551176 
L 339.459174 161.077156 
L 342.738512 158.551176 
L 346.017851 99.611641 
L 349.29719 108.031575 
L 352.576529 127.397422 
L 355.855868 109.715561 
L 359.135207 153.499216 
L 362.414545 150.131243 
L 365.693884 162.761143 
L 368.973223 177.07503 
L 372.252562 167.813103 
L 375.531901 188.020944 
L 378.81124 196.440877 
L 382.090579 184.65297 
L 385.369917 226.752638 
L 388.649256 227.594631 
L 391.928595 218.332704 
L 395.207934 221.700678 
L 398.487273 228.436625 
L 398.487273 150.131243 
L 398.487273 150.131243 
L 395.207934 134.975362 
L 391.928595 138.343336 
L 388.649256 103.821608 
L 385.369917 108.031575 
L 382.090579 117.293502 
L 378.81124 134.975362 
L 375.531901 129.081409 
L 372.252562 120.661475 
L 368.973223 134.133369 
L 365.693884 113.083535 
L 362.414545 65.089914 
L 359.135207 54.985993 
L 355.855868 54.985993 
L 352.576529 54.985993 
L 349.29719 54.144 
L 346.017851 54.144 
L 342.738512 54.985993 
L 339.459174 54.144 
L 336.179835 54.985993 
L 332.900496 55.827987 
L 329.621157 55.827987 
L 326.341818 55.827987 
L 323.062479 54.985993 
L 319.78314 54.985993 
L 316.503802 54.985993 
L 313.224463 54.985993 
L 309.945124 54.144 
L 306.665785 54.144 
L 303.386446 54.985993 
L 300.107107 54.985993 
L 296.827769 54.985993 
L 293.54843 54.144 
L 290.269091 54.985993 
L 286.989752 54.985993 
L 283.710413 54.985993 
L 280.431074 54.985993 
L 277.151736 54.985993 
L 273.872397 54.985993 
L 270.593058 54.985993 
L 267.313719 54.985993 
L 264.03438 54.985993 
L 260.755041 54.985993 
L 257.475702 54.985993 
L 254.196364 54.144 
L 250.917025 54.985993 
L 247.637686 54.985993 
L 244.358347 55.827987 
L 241.079008 54.985993 
L 237.799669 54.985993 
L 234.520331 54.985993 
L 231.240992 54.985993 
L 227.961653 54.144 
L 224.682314 54.985993 
L 221.402975 54.144 
L 218.123636 54.985993 
L 214.844298 54.144 
L 211.564959 54.985993 
L 208.28562 54.985993 
L 205.006281 54.144 
L 201.726942 54.144 
L 198.447603 54.985993 
L 195.168264 55.827987 
L 191.888926 54.985993 
L 188.609587 54.144 
L 185.330248 54.144 
L 182.050909 54.985993 
L 178.77157 54.985993 
L 175.492231 54.985993 
L 172.212893 54.985993 
L 168.933554 54.985993 
L 165.654215 54.985993 
L 162.374876 54.985993 
L 159.095537 55.827987 
L 155.816198 54.985993 
L 152.53686 54.985993 
L 149.257521 55.827987 
L 145.978182 55.827987 
L 142.698843 55.827987 
L 139.419504 54.985993 
L 136.140165 54.985993 
L 132.860826 55.827987 
L 129.581488 55.827987 
L 126.302149 54.985993 
L 123.02281 54.985993 
L 119.743471 54.144 
L 116.464132 54.985993 
L 113.184793 54.144 
L 109.905455 54.144 
L 106.626116 54.985993 
L 103.346777 54.144 
L 100.067438 54.144 
L 96.788099 54.144 
L 93.50876 54.144 
L 90.229421 54.985993 
L 86.950083 54.144 
L 83.670744 54.985993 
L 80.391405 54.985993 
L 77.112066 54.985993 
L 73.832727 54.985993 
z
" style="fill:#1f77b4;"/>
   </g>
   <g id="PolyCollection_12">
    <path clip-path="url(#p5913225316)" d="M 73.832727 54.985993 
L 73.832727 54.985993 
L 77.112066 54.985993 
L 80.391405 54.985993 
L 83.670744 54.985993 
L 86.950083 54.144 
L 90.229421 54.985993 
L 93.50876 54.144 
L 96.788099 54.144 
L 100.067438 54.144 
L 103.346777 54.144 
L 106.626116 54.985993 
L 109.905455 54.144 
L 113.184793 54.144 
L 116.464132 54.985993 
L 119.743471 54.144 
L 123.02281 54.985993 
L 126.302149 54.985993 
L 129.581488 55.827987 
L 132.860826 55.827987 
L 136.140165 54.985993 
L 139.419504 54.985993 
L 142.698843 55.827987 
L 145.978182 55.827987 
L 149.257521 55.827987 
L 152.53686 54.985993 
L 155.816198 54.985993 
L 159.095537 55.827987 
L 162.374876 54.985993 
L 165.654215 54.985993 
L 168.933554 54.985993 
L 172.212893 54.985993 
L 175.492231 54.985993 
L 178.77157 54.985993 
L 182.050909 54.985993 
L 185.330248 54.144 
L 188.609587 54.144 
L 191.888926 54.985993 
L 195.168264 55.827987 
L 198.447603 54.985993 
L 201.726942 54.144 
L 205.006281 54.144 
L 208.28562 54.985993 
L 211.564959 54.985993 
L 214.844298 54.144 
L 218.123636 54.985993 
L 221.402975 54.144 
L 224.682314 54.985993 
L 227.961653 54.144 
L 231.240992 54.985993 
L 234.520331 54.985993 
L 237.799669 54.985993 
L 241.079008 54.985993 
L 244.358347 55.827987 
L 247.637686 54.985993 
L 250.917025 54.985993 
L 254.196364 54.144 
L 257.475702 54.985993 
L 260.755041 54.985993 
L 264.03438 54.985993 
L 267.313719 54.985993 
L 270.593058 54.985993 
L 273.872397 54.985993 
L 277.151736 54.985993 
L 280.431074 54.985993 
L 283.710413 54.985993 
L 286.989752 54.985993 
L 290.269091 54.985993 
L 293.54843 54.144 
L 296.827769 54.985993 
L 300.107107 54.985993 
L 303.386446 54.985993 
L 306.665785 54.144 
L 309.945124 54.144 
L 313.224463 54.985993 
L 316.503802 54.985993 
L 319.78314 54.985993 
L 323.062479 54.985993 
L 326.341818 55.827987 
L 329.621157 55.827987 
L 332.900496 55.827987 
L 336.179835 54.985993 
L 339.459174 54.144 
L 342.738512 54.985993 
L 346.017851 54.144 
L 349.29719 54.144 
L 352.576529 54.985993 
L 355.855868 54.985993 
L 359.135207 54.985993 
L 362.414545 65.089914 
L 365.693884 113.083535 
L 368.973223 134.133369 
L 372.252562 120.661475 
L 375.531901 129.081409 
L 378.81124 134.975362 
L 382.090579 117.293502 
L 385.369917 108.031575 
L 388.649256 103.821608 
L 391.928595 138.343336 
L 395.207934 134.975362 
L 398.487273 150.131243 
L 398.487273 54.985993 
L 398.487273 54.985993 
L 395.207934 54.985993 
L 391.928595 54.985993 
L 388.649256 54.985993 
L 385.369917 55.827987 
L 382.090579 54.985993 
L 378.81124 54.144 
L 375.531901 54.985993 
L 372.252562 54.985993 
L 368.973223 54.985993 
L 365.693884 55.827987 
L 362.414545 54.985993 
L 359.135207 54.985993 
L 355.855868 54.985993 
L 352.576529 54.985993 
L 349.29719 54.144 
L 346.017851 54.144 
L 342.738512 54.985993 
L 339.459174 54.144 
L 336.179835 54.985993 
L 332.900496 55.827987 
L 329.621157 55.827987 
L 326.341818 55.827987 
L 323.062479 54.985993 
L 319.78314 54.985993 
L 316.503802 54.985993 
L 313.224463 54.985993 
L 309.945124 54.144 
L 306.665785 54.144 
L 303.386446 54.985993 
L 300.107107 54.985993 
L 296.827769 54.985993 
L 293.54843 54.144 
L 290.269091 54.985993 
L 286.989752 54.985993 
L 283.710413 54.985993 
L 280.431074 54.985993 
L 277.151736 54.985993 
L 273.872397 54.985993 
L 270.593058 54.985993 
L 267.313719 54.985993 
L 264.03438 54.985993 
L 260.755041 54.985993 
L 257.475702 54.985993 
L 254.196364 54.144 
L 250.917025 54.985993 
L 247.637686 54.985993 
L 244.358347 55.827987 
L 241.079008 54.985993 
L 237.799669 54.985993 
L 234.520331 54.985993 
L 231.240992 54.985993 
L 227.961653 54.144 
L 224.682314 54.985993 
L 221.402975 54.144 
L 218.123636 54.985993 
L 214.844298 54.144 
L 211.564959 54.985993 
L 208.28562 54.985993 
L 205.006281 54.144 
L 201.726942 54.144 
L 198.447603 54.985993 
L 195.168264 55.827987 
L 191.888926 54.985993 
L 188.609587 54.144 
L 185.330248 54.144 
L 182.050909 54.985993 
L 178.77157 54.985993 
L 175.492231 54.985993 
L 172.212893 54.985993 
L 168.933554 54.985993 
L 165.654215 54.985993 
L 162.374876 54.985993 
L 159.095537 55.827987 
L 155.816198 54.985993 
L 152.53686 54.985993 
L 149.257521 55.827987 
L 145.978182 55.827987 
L 142.698843 55.827987 
L 139.419504 54.985993 
L 136.140165 54.985993 
L 132.860826 55.827987 
L 129.581488 55.827987 
L 126.302149 54.985993 
L 123.02281 54.985993 
L 119.743471 54.144 
L 116.464132 54.985993 
L 113.184793 54.144 
L 109.905455 54.144 
L 106.626116 54.985993 
L 103.346777 54.144 
L 100.067438 54.144 
L 96.788099 54.144 
L 93.50876 54.144 
L 90.229421 54.985993 
L 86.950083 54.144 
L 83.670744 54.985993 
L 80.391405 54.985993 
L 77.112066 54.985993 
L 73.832727 54.985993 
z
" style="fill:#ff7f0e;"/>
   </g>
   <g id="matplotlib.axis_1">
    <g id="xtick_1">
     <g id="line2d_1">
      <defs>
       <path d="M 0 0 
L 0 3.5 
" id="m94ea271593" style="stroke:#000000;stroke-width:0.8;"/>
      </defs>
      <g>
       <use style="stroke:#000000;stroke-width:0.8;" x="73.832727" xlink:href="#m94ea271593" y="307.584"/>
      </g>
     </g>
     <g id="text_1">
      <!-- 0 -->
      <defs>
       <path d="M 31.78125 66.40625 
Q 24.171875 66.40625 20.328125 58.90625 
Q 16.5 51.421875 16.5 36.375 
Q 16.5 21.390625 20.328125 13.890625 
Q 24.171875 6.390625 31.78125 6.390625 
Q 39.453125 6.390625 43.28125 13.890625 
Q 47.125 21.390625 47.125 36.375 
Q 47.125 51.421875 43.28125 58.90625 
Q 39.453125 66.40625 31.78125 66.40625 
z
M 31.78125 74.21875 
Q 44.046875 74.21875 50.515625 64.515625 
Q 56.984375 54.828125 56.984375 36.375 
Q 56.984375 17.96875 50.515625 8.265625 
Q 44.046875 -1.421875 31.78125 -1.421875 
Q 19.53125 -1.421875 13.0625 8.265625 
Q 6.59375 17.96875 6.59375 36.375 
Q 6.59375 54.828125 13.0625 64.515625 
Q 19.53125 74.21875 31.78125 74.21875 
z
" id="DejaVuSans-48"/>
      </defs>
      <g transform="translate(70.651477 322.182437)scale(0.1 -0.1)">
       <use xlink:href="#DejaVuSans-48"/>
      </g>
     </g>
    </g>
    <g id="xtick_2">
     <g id="line2d_2">
      <g>
       <use style="stroke:#000000;stroke-width:0.8;" x="139.419504" xlink:href="#m94ea271593" y="307.584"/>
      </g>
     </g>
     <g id="text_2">
      <!-- 20 -->
      <defs>
       <path d="M 19.1875 8.296875 
L 53.609375 8.296875 
L 53.609375 0 
L 7.328125 0 
L 7.328125 8.296875 
Q 12.9375 14.109375 22.625 23.890625 
Q 32.328125 33.6875 34.8125 36.53125 
Q 39.546875 41.84375 41.421875 45.53125 
Q 43.3125 49.21875 43.3125 52.78125 
Q 43.3125 58.59375 39.234375 62.25 
Q 35.15625 65.921875 28.609375 65.921875 
Q 23.96875 65.921875 18.8125 64.3125 
Q 13.671875 62.703125 7.8125 59.421875 
L 7.8125 69.390625 
Q 13.765625 71.78125 18.9375 73 
Q 24.125 74.21875 28.421875 74.21875 
Q 39.75 74.21875 46.484375 68.546875 
Q 53.21875 62.890625 53.21875 53.421875 
Q 53.21875 48.921875 51.53125 44.890625 
Q 49.859375 40.875 45.40625 35.40625 
Q 44.1875 33.984375 37.640625 27.21875 
Q 31.109375 20.453125 19.1875 8.296875 
z
" id="DejaVuSans-50"/>
      </defs>
      <g transform="translate(133.057004 322.182437)scale(0.1 -0.1)">
       <use xlink:href="#DejaVuSans-50"/>
       <use x="63.623047" xlink:href="#DejaVuSans-48"/>
      </g>
     </g>
    </g>
    <g id="xtick_3">
     <g id="line2d_3">
      <g>
       <use style="stroke:#000000;stroke-width:0.8;" x="205.006281" xlink:href="#m94ea271593" y="307.584"/>
      </g>
     </g>
     <g id="text_3">
      <!-- 40 -->
      <defs>
       <path d="M 37.796875 64.3125 
L 12.890625 25.390625 
L 37.796875 25.390625 
z
M 35.203125 72.90625 
L 47.609375 72.90625 
L 47.609375 25.390625 
L 58.015625 25.390625 
L 58.015625 17.1875 
L 47.609375 17.1875 
L 47.609375 0 
L 37.796875 0 
L 37.796875 17.1875 
L 4.890625 17.1875 
L 4.890625 26.703125 
z
" id="DejaVuSans-52"/>
      </defs>
      <g transform="translate(198.643781 322.182437)scale(0.1 -0.1)">
       <use xlink:href="#DejaVuSans-52"/>
       <use x="63.623047" xlink:href="#DejaVuSans-48"/>
      </g>
     </g>
    </g>
    <g id="xtick_4">
     <g id="line2d_4">
      <g>
       <use style="stroke:#000000;stroke-width:0.8;" x="270.593058" xlink:href="#m94ea271593" y="307.584"/>
      </g>
     </g>
     <g id="text_4">
      <!-- 60 -->
      <defs>
       <path d="M 33.015625 40.375 
Q 26.375 40.375 22.484375 35.828125 
Q 18.609375 31.296875 18.609375 23.390625 
Q 18.609375 15.53125 22.484375 10.953125 
Q 26.375 6.390625 33.015625 6.390625 
Q 39.65625 6.390625 43.53125 10.953125 
Q 47.40625 15.53125 47.40625 23.390625 
Q 47.40625 31.296875 43.53125 35.828125 
Q 39.65625 40.375 33.015625 40.375 
z
M 52.59375 71.296875 
L 52.59375 62.3125 
Q 48.875 64.0625 45.09375 64.984375 
Q 41.3125 65.921875 37.59375 65.921875 
Q 27.828125 65.921875 22.671875 59.328125 
Q 17.53125 52.734375 16.796875 39.40625 
Q 19.671875 43.65625 24.015625 45.921875 
Q 28.375 48.1875 33.59375 48.1875 
Q 44.578125 48.1875 50.953125 41.515625 
Q 57.328125 34.859375 57.328125 23.390625 
Q 57.328125 12.15625 50.6875 5.359375 
Q 44.046875 -1.421875 33.015625 -1.421875 
Q 20.359375 -1.421875 13.671875 8.265625 
Q 6.984375 17.96875 6.984375 36.375 
Q 6.984375 53.65625 15.1875 63.9375 
Q 23.390625 74.21875 37.203125 74.21875 
Q 40.921875 74.21875 44.703125 73.484375 
Q 48.484375 72.75 52.59375 71.296875 
z
" id="DejaVuSans-54"/>
      </defs>
      <g transform="translate(264.230558 322.182437)scale(0.1 -0.1)">
       <use xlink:href="#DejaVuSans-54"/>
       <use x="63.623047" xlink:href="#DejaVuSans-48"/>
      </g>
     </g>
    </g>
    <g id="xtick_5">
     <g id="line2d_5">
      <g>
       <use style="stroke:#000000;stroke-width:0.8;" x="336.179835" xlink:href="#m94ea271593" y="307.584"/>
      </g>
     </g>
     <g id="text_5">
      <!-- 80 -->
      <defs>
       <path d="M 31.78125 34.625 
Q 24.75 34.625 20.71875 30.859375 
Q 16.703125 27.09375 16.703125 20.515625 
Q 16.703125 13.921875 20.71875 10.15625 
Q 24.75 6.390625 31.78125 6.390625 
Q 38.8125 6.390625 42.859375 10.171875 
Q 46.921875 13.96875 46.921875 20.515625 
Q 46.921875 27.09375 42.890625 30.859375 
Q 38.875 34.625 31.78125 34.625 
z
M 21.921875 38.8125 
Q 15.578125 40.375 12.03125 44.71875 
Q 8.5 49.078125 8.5 55.328125 
Q 8.5 64.0625 14.71875 69.140625 
Q 20.953125 74.21875 31.78125 74.21875 
Q 42.671875 74.21875 48.875 69.140625 
Q 55.078125 64.0625 55.078125 55.328125 
Q 55.078125 49.078125 51.53125 44.71875 
Q 48 40.375 41.703125 38.8125 
Q 48.828125 37.15625 52.796875 32.3125 
Q 56.78125 27.484375 56.78125 20.515625 
Q 56.78125 9.90625 50.3125 4.234375 
Q 43.84375 -1.421875 31.78125 -1.421875 
Q 19.734375 -1.421875 13.25 4.234375 
Q 6.78125 9.90625 6.78125 20.515625 
Q 6.78125 27.484375 10.78125 32.3125 
Q 14.796875 37.15625 21.921875 38.8125 
z
M 18.3125 54.390625 
Q 18.3125 48.734375 21.84375 45.5625 
Q 25.390625 42.390625 31.78125 42.390625 
Q 38.140625 42.390625 41.71875 45.5625 
Q 45.3125 48.734375 45.3125 54.390625 
Q 45.3125 60.0625 41.71875 63.234375 
Q 38.140625 66.40625 31.78125 66.40625 
Q 25.390625 66.40625 21.84375 63.234375 
Q 18.3125 60.0625 18.3125 54.390625 
z
" id="DejaVuSans-56"/>
      </defs>
      <g transform="translate(329.817335 322.182437)scale(0.1 -0.1)">
       <use xlink:href="#DejaVuSans-56"/>
       <use x="63.623047" xlink:href="#DejaVuSans-48"/>
      </g>
     </g>
    </g>
    <g id="xtick_6">
     <g id="line2d_6">
      <g>
       <use style="stroke:#000000;stroke-width:0.8;" x="401.766612" xlink:href="#m94ea271593" y="307.584"/>
      </g>
     </g>
     <g id="text_6">
      <!-- 100 -->
      <defs>
       <path d="M 12.40625 8.296875 
L 28.515625 8.296875 
L 28.515625 63.921875 
L 10.984375 60.40625 
L 10.984375 69.390625 
L 28.421875 72.90625 
L 38.28125 72.90625 
L 38.28125 8.296875 
L 54.390625 8.296875 
L 54.390625 0 
L 12.40625 0 
z
" id="DejaVuSans-49"/>
      </defs>
      <g transform="translate(392.222862 322.182437)scale(0.1 -0.1)">
       <use xlink:href="#DejaVuSans-49"/>
       <use x="63.623047" xlink:href="#DejaVuSans-48"/>
       <use x="127.246094" xlink:href="#DejaVuSans-48"/>
      </g>
     </g>
    </g>
    <g id="text_7">
     <!-- Generations -->
     <defs>
      <path d="M 59.515625 10.40625 
L 59.515625 29.984375 
L 43.40625 29.984375 
L 43.40625 38.09375 
L 69.28125 38.09375 
L 69.28125 6.78125 
Q 63.578125 2.734375 56.6875 0.65625 
Q 49.8125 -1.421875 42 -1.421875 
Q 24.90625 -1.421875 15.25 8.5625 
Q 5.609375 18.5625 5.609375 36.375 
Q 5.609375 54.25 15.25 64.234375 
Q 24.90625 74.21875 42 74.21875 
Q 49.125 74.21875 55.546875 72.453125 
Q 61.96875 70.703125 67.390625 67.28125 
L 67.390625 56.78125 
Q 61.921875 61.421875 55.765625 63.765625 
Q 49.609375 66.109375 42.828125 66.109375 
Q 29.4375 66.109375 22.71875 58.640625 
Q 16.015625 51.171875 16.015625 36.375 
Q 16.015625 21.625 22.71875 14.15625 
Q 29.4375 6.6875 42.828125 6.6875 
Q 48.046875 6.6875 52.140625 7.59375 
Q 56.25 8.5 59.515625 10.40625 
z
" id="DejaVuSans-71"/>
      <path d="M 56.203125 29.59375 
L 56.203125 25.203125 
L 14.890625 25.203125 
Q 15.484375 15.921875 20.484375 11.0625 
Q 25.484375 6.203125 34.421875 6.203125 
Q 39.59375 6.203125 44.453125 7.46875 
Q 49.3125 8.734375 54.109375 11.28125 
L 54.109375 2.78125 
Q 49.265625 0.734375 44.1875 -0.34375 
Q 39.109375 -1.421875 33.890625 -1.421875 
Q 20.796875 -1.421875 13.15625 6.1875 
Q 5.515625 13.8125 5.515625 26.8125 
Q 5.515625 40.234375 12.765625 48.109375 
Q 20.015625 56 32.328125 56 
Q 43.359375 56 49.78125 48.890625 
Q 56.203125 41.796875 56.203125 29.59375 
z
M 47.21875 32.234375 
Q 47.125 39.59375 43.09375 43.984375 
Q 39.0625 48.390625 32.421875 48.390625 
Q 24.90625 48.390625 20.390625 44.140625 
Q 15.875 39.890625 15.1875 32.171875 
z
" id="DejaVuSans-101"/>
      <path d="M 54.890625 33.015625 
L 54.890625 0 
L 45.90625 0 
L 45.90625 32.71875 
Q 45.90625 40.484375 42.875 44.328125 
Q 39.84375 48.1875 33.796875 48.1875 
Q 26.515625 48.1875 22.3125 43.546875 
Q 18.109375 38.921875 18.109375 30.90625 
L 18.109375 0 
L 9.078125 0 
L 9.078125 54.6875 
L 18.109375 54.6875 
L 18.109375 46.1875 
Q 21.34375 51.125 25.703125 53.5625 
Q 30.078125 56 35.796875 56 
Q 45.21875 56 50.046875 50.171875 
Q 54.890625 44.34375 54.890625 33.015625 
z
" id="DejaVuSans-110"/>
      <path d="M 41.109375 46.296875 
Q 39.59375 47.171875 37.8125 47.578125 
Q 36.03125 48 33.890625 48 
Q 26.265625 48 22.1875 43.046875 
Q 18.109375 38.09375 18.109375 28.8125 
L 18.109375 0 
L 9.078125 0 
L 9.078125 54.6875 
L 18.109375 54.6875 
L 18.109375 46.1875 
Q 20.953125 51.171875 25.484375 53.578125 
Q 30.03125 56 36.53125 56 
Q 37.453125 56 38.578125 55.875 
Q 39.703125 55.765625 41.0625 55.515625 
z
" id="DejaVuSans-114"/>
      <path d="M 34.28125 27.484375 
Q 23.390625 27.484375 19.1875 25 
Q 14.984375 22.515625 14.984375 16.5 
Q 14.984375 11.71875 18.140625 8.90625 
Q 21.296875 6.109375 26.703125 6.109375 
Q 34.1875 6.109375 38.703125 11.40625 
Q 43.21875 16.703125 43.21875 25.484375 
L 43.21875 27.484375 
z
M 52.203125 31.203125 
L 52.203125 0 
L 43.21875 0 
L 43.21875 8.296875 
Q 40.140625 3.328125 35.546875 0.953125 
Q 30.953125 -1.421875 24.3125 -1.421875 
Q 15.921875 -1.421875 10.953125 3.296875 
Q 6 8.015625 6 15.921875 
Q 6 25.140625 12.171875 29.828125 
Q 18.359375 34.515625 30.609375 34.515625 
L 43.21875 34.515625 
L 43.21875 35.40625 
Q 43.21875 41.609375 39.140625 45 
Q 35.0625 48.390625 27.6875 48.390625 
Q 23 48.390625 18.546875 47.265625 
Q 14.109375 46.140625 10.015625 43.890625 
L 10.015625 52.203125 
Q 14.9375 54.109375 19.578125 55.046875 
Q 24.21875 56 28.609375 56 
Q 40.484375 56 46.34375 49.84375 
Q 52.203125 43.703125 52.203125 31.203125 
z
" id="DejaVuSans-97"/>
      <path d="M 18.3125 70.21875 
L 18.3125 54.6875 
L 36.8125 54.6875 
L 36.8125 47.703125 
L 18.3125 47.703125 
L 18.3125 18.015625 
Q 18.3125 11.328125 20.140625 9.421875 
Q 21.96875 7.515625 27.59375 7.515625 
L 36.8125 7.515625 
L 36.8125 0 
L 27.59375 0 
Q 17.1875 0 13.234375 3.875 
Q 9.28125 7.765625 9.28125 18.015625 
L 9.28125 47.703125 
L 2.6875 47.703125 
L 2.6875 54.6875 
L 9.28125 54.6875 
L 9.28125 70.21875 
z
" id="DejaVuSans-116"/>
      <path d="M 9.421875 54.6875 
L 18.40625 54.6875 
L 18.40625 0 
L 9.421875 0 
z
M 9.421875 75.984375 
L 18.40625 75.984375 
L 18.40625 64.59375 
L 9.421875 64.59375 
z
" id="DejaVuSans-105"/>
      <path d="M 30.609375 48.390625 
Q 23.390625 48.390625 19.1875 42.75 
Q 14.984375 37.109375 14.984375 27.296875 
Q 14.984375 17.484375 19.15625 11.84375 
Q 23.34375 6.203125 30.609375 6.203125 
Q 37.796875 6.203125 41.984375 11.859375 
Q 46.1875 17.53125 46.1875 27.296875 
Q 46.1875 37.015625 41.984375 42.703125 
Q 37.796875 48.390625 30.609375 48.390625 
z
M 30.609375 56 
Q 42.328125 56 49.015625 48.375 
Q 55.71875 40.765625 55.71875 27.296875 
Q 55.71875 13.875 49.015625 6.21875 
Q 42.328125 -1.421875 30.609375 -1.421875 
Q 18.84375 -1.421875 12.171875 6.21875 
Q 5.515625 13.875 5.515625 27.296875 
Q 5.515625 40.765625 12.171875 48.375 
Q 18.84375 56 30.609375 56 
z
" id="DejaVuSans-111"/>
      <path d="M 44.28125 53.078125 
L 44.28125 44.578125 
Q 40.484375 46.53125 36.375 47.5 
Q 32.28125 48.484375 27.875 48.484375 
Q 21.1875 48.484375 17.84375 46.4375 
Q 14.5 44.390625 14.5 40.28125 
Q 14.5 37.15625 16.890625 35.375 
Q 19.28125 33.59375 26.515625 31.984375 
L 29.59375 31.296875 
Q 39.15625 29.25 43.1875 25.515625 
Q 47.21875 21.78125 47.21875 15.09375 
Q 47.21875 7.46875 41.1875 3.015625 
Q 35.15625 -1.421875 24.609375 -1.421875 
Q 20.21875 -1.421875 15.453125 -0.5625 
Q 10.6875 0.296875 5.421875 2 
L 5.421875 11.28125 
Q 10.40625 8.6875 15.234375 7.390625 
Q 20.0625 6.109375 24.8125 6.109375 
Q 31.15625 6.109375 34.5625 8.28125 
Q 37.984375 10.453125 37.984375 14.40625 
Q 37.984375 18.0625 35.515625 20.015625 
Q 33.0625 21.96875 24.703125 23.78125 
L 21.578125 24.515625 
Q 13.234375 26.265625 9.515625 29.90625 
Q 5.8125 33.546875 5.8125 39.890625 
Q 5.8125 47.609375 11.28125 51.796875 
Q 16.75 56 26.8125 56 
Q 31.78125 56 36.171875 55.265625 
Q 40.578125 54.546875 44.28125 53.078125 
z
" id="DejaVuSans-115"/>
     </defs>
     <g transform="translate(205.662344 335.860562)scale(0.1 -0.1)">
      <use xlink:href="#DejaVuSans-71"/>
      <use x="77.490234" xlink:href="#DejaVuSans-101"/>
      <use x="139.013672" xlink:href="#DejaVuSans-110"/>
      <use x="202.392578" xlink:href="#DejaVuSans-101"/>
      <use x="263.916016" xlink:href="#DejaVuSans-114"/>
      <use x="305.029297" xlink:href="#DejaVuSans-97"/>
      <use x="366.308594" xlink:href="#DejaVuSans-116"/>
      <use x="405.517578" xlink:href="#DejaVuSans-105"/>
      <use x="433.300781" xlink:href="#DejaVuSans-111"/>
      <use x="494.482422" xlink:href="#DejaVuSans-110"/>
      <use x="557.861328" xlink:href="#DejaVuSans-115"/>
     </g>
    </g>
   </g>
   <g id="matplotlib.axis_2">
    <g id="ytick_1">
     <g id="line2d_7">
      <defs>
       <path d="M 0 0 
L -3.5 0 
" id="m132beb6e57" style="stroke:#000000;stroke-width:0.8;"/>
      </defs>
      <g>
       <use style="stroke:#000000;stroke-width:0.8;" x="57.6" xlink:href="#m132beb6e57" y="307.584"/>
      </g>
     </g>
     <g id="text_8">
      <!-- 0 -->
      <g transform="translate(44.2375 311.383219)scale(0.1 -0.1)">
       <use xlink:href="#DejaVuSans-48"/>
      </g>
     </g>
    </g>
    <g id="ytick_2">
     <g id="line2d_8">
      <g>
       <use style="stroke:#000000;stroke-width:0.8;" x="57.6" xlink:href="#m132beb6e57" y="265.484332"/>
      </g>
     </g>
     <g id="text_9">
      <!-- 50 -->
      <defs>
       <path d="M 10.796875 72.90625 
L 49.515625 72.90625 
L 49.515625 64.59375 
L 19.828125 64.59375 
L 19.828125 46.734375 
Q 21.96875 47.46875 24.109375 47.828125 
Q 26.265625 48.1875 28.421875 48.1875 
Q 40.625 48.1875 47.75 41.5 
Q 54.890625 34.8125 54.890625 23.390625 
Q 54.890625 11.625 47.5625 5.09375 
Q 40.234375 -1.421875 26.90625 -1.421875 
Q 22.3125 -1.421875 17.546875 -0.640625 
Q 12.796875 0.140625 7.71875 1.703125 
L 7.71875 11.625 
Q 12.109375 9.234375 16.796875 8.0625 
Q 21.484375 6.890625 26.703125 6.890625 
Q 35.15625 6.890625 40.078125 11.328125 
Q 45.015625 15.765625 45.015625 23.390625 
Q 45.015625 31 40.078125 35.4375 
Q 35.15625 39.890625 26.703125 39.890625 
Q 22.75 39.890625 18.8125 39.015625 
Q 14.890625 38.140625 10.796875 36.28125 
z
" id="DejaVuSans-53"/>
      </defs>
      <g transform="translate(37.875 269.283551)scale(0.1 -0.1)">
       <use xlink:href="#DejaVuSans-53"/>
       <use x="63.623047" xlink:href="#DejaVuSans-48"/>
      </g>
     </g>
    </g>
    <g id="ytick_3">
     <g id="line2d_9">
      <g>
       <use style="stroke:#000000;stroke-width:0.8;" x="57.6" xlink:href="#m132beb6e57" y="223.384664"/>
      </g>
     </g>
     <g id="text_10">
      <!-- 100 -->
      <g transform="translate(31.5125 227.183883)scale(0.1 -0.1)">
       <use xlink:href="#DejaVuSans-49"/>
       <use x="63.623047" xlink:href="#DejaVuSans-48"/>
       <use x="127.246094" xlink:href="#DejaVuSans-48"/>
      </g>
     </g>
    </g>
    <g id="ytick_4">
     <g id="line2d_10">
      <g>
       <use style="stroke:#000000;stroke-width:0.8;" x="57.6" xlink:href="#m132beb6e57" y="181.284997"/>
      </g>
     </g>
     <g id="text_11">
      <!-- 150 -->
      <g transform="translate(31.5125 185.084215)scale(0.1 -0.1)">
       <use xlink:href="#DejaVuSans-49"/>
       <use x="63.623047" xlink:href="#DejaVuSans-53"/>
       <use x="127.246094" xlink:href="#DejaVuSans-48"/>
      </g>
     </g>
    </g>
    <g id="ytick_5">
     <g id="line2d_11">
      <g>
       <use style="stroke:#000000;stroke-width:0.8;" x="57.6" xlink:href="#m132beb6e57" y="139.185329"/>
      </g>
     </g>
     <g id="text_12">
      <!-- 200 -->
      <g transform="translate(31.5125 142.984548)scale(0.1 -0.1)">
       <use xlink:href="#DejaVuSans-50"/>
       <use x="63.623047" xlink:href="#DejaVuSans-48"/>
       <use x="127.246094" xlink:href="#DejaVuSans-48"/>
      </g>
     </g>
    </g>
    <g id="ytick_6">
     <g id="line2d_12">
      <g>
       <use style="stroke:#000000;stroke-width:0.8;" x="57.6" xlink:href="#m132beb6e57" y="97.085661"/>
      </g>
     </g>
     <g id="text_13">
      <!-- 250 -->
      <g transform="translate(31.5125 100.88488)scale(0.1 -0.1)">
       <use xlink:href="#DejaVuSans-50"/>
       <use x="63.623047" xlink:href="#DejaVuSans-53"/>
       <use x="127.246094" xlink:href="#DejaVuSans-48"/>
      </g>
     </g>
    </g>
    <g id="ytick_7">
     <g id="line2d_13">
      <g>
       <use style="stroke:#000000;stroke-width:0.8;" x="57.6" xlink:href="#m132beb6e57" y="54.985993"/>
      </g>
     </g>
     <g id="text_14">
      <!-- 300 -->
      <defs>
       <path d="M 40.578125 39.3125 
Q 47.65625 37.796875 51.625 33 
Q 55.609375 28.21875 55.609375 21.1875 
Q 55.609375 10.40625 48.1875 4.484375 
Q 40.765625 -1.421875 27.09375 -1.421875 
Q 22.515625 -1.421875 17.65625 -0.515625 
Q 12.796875 0.390625 7.625 2.203125 
L 7.625 11.71875 
Q 11.71875 9.328125 16.59375 8.109375 
Q 21.484375 6.890625 26.8125 6.890625 
Q 36.078125 6.890625 40.9375 10.546875 
Q 45.796875 14.203125 45.796875 21.1875 
Q 45.796875 27.640625 41.28125 31.265625 
Q 36.765625 34.90625 28.71875 34.90625 
L 20.21875 34.90625 
L 20.21875 43.015625 
L 29.109375 43.015625 
Q 36.375 43.015625 40.234375 45.921875 
Q 44.09375 48.828125 44.09375 54.296875 
Q 44.09375 59.90625 40.109375 62.90625 
Q 36.140625 65.921875 28.71875 65.921875 
Q 24.65625 65.921875 20.015625 65.03125 
Q 15.375 64.15625 9.8125 62.3125 
L 9.8125 71.09375 
Q 15.4375 72.65625 20.34375 73.4375 
Q 25.25 74.21875 29.59375 74.21875 
Q 40.828125 74.21875 47.359375 69.109375 
Q 53.90625 64.015625 53.90625 55.328125 
Q 53.90625 49.265625 50.4375 45.09375 
Q 46.96875 40.921875 40.578125 39.3125 
z
" id="DejaVuSans-51"/>
      </defs>
      <g transform="translate(31.5125 58.785212)scale(0.1 -0.1)">
       <use xlink:href="#DejaVuSans-51"/>
       <use x="63.623047" xlink:href="#DejaVuSans-48"/>
       <use x="127.246094" xlink:href="#DejaVuSans-48"/>
      </g>
     </g>
    </g>
    <g id="text_15">
     <!-- Size per Species -->
     <defs>
      <path d="M 53.515625 70.515625 
L 53.515625 60.890625 
Q 47.90625 63.578125 42.921875 64.890625 
Q 37.9375 66.21875 33.296875 66.21875 
Q 25.25 66.21875 20.875 63.09375 
Q 16.5 59.96875 16.5 54.203125 
Q 16.5 49.359375 19.40625 46.890625 
Q 22.3125 44.4375 30.421875 42.921875 
L 36.375 41.703125 
Q 47.40625 39.59375 52.65625 34.296875 
Q 57.90625 29 57.90625 20.125 
Q 57.90625 9.515625 50.796875 4.046875 
Q 43.703125 -1.421875 29.984375 -1.421875 
Q 24.8125 -1.421875 18.96875 -0.25 
Q 13.140625 0.921875 6.890625 3.21875 
L 6.890625 13.375 
Q 12.890625 10.015625 18.65625 8.296875 
Q 24.421875 6.59375 29.984375 6.59375 
Q 38.421875 6.59375 43.015625 9.90625 
Q 47.609375 13.234375 47.609375 19.390625 
Q 47.609375 24.75 44.3125 27.78125 
Q 41.015625 30.8125 33.5 32.328125 
L 27.484375 33.5 
Q 16.453125 35.6875 11.515625 40.375 
Q 6.59375 45.0625 6.59375 53.421875 
Q 6.59375 63.09375 13.40625 68.65625 
Q 20.21875 74.21875 32.171875 74.21875 
Q 37.3125 74.21875 42.625 73.28125 
Q 47.953125 72.359375 53.515625 70.515625 
z
" id="DejaVuSans-83"/>
      <path d="M 5.515625 54.6875 
L 48.1875 54.6875 
L 48.1875 46.484375 
L 14.40625 7.171875 
L 48.1875 7.171875 
L 48.1875 0 
L 4.296875 0 
L 4.296875 8.203125 
L 38.09375 47.515625 
L 5.515625 47.515625 
z
" id="DejaVuSans-122"/>
      <path id="DejaVuSans-32"/>
      <path d="M 18.109375 8.203125 
L 18.109375 -20.796875 
L 9.078125 -20.796875 
L 9.078125 54.6875 
L 18.109375 54.6875 
L 18.109375 46.390625 
Q 20.953125 51.265625 25.265625 53.625 
Q 29.59375 56 35.59375 56 
Q 45.5625 56 51.78125 48.09375 
Q 58.015625 40.1875 58.015625 27.296875 
Q 58.015625 14.40625 51.78125 6.484375 
Q 45.5625 -1.421875 35.59375 -1.421875 
Q 29.59375 -1.421875 25.265625 0.953125 
Q 20.953125 3.328125 18.109375 8.203125 
z
M 48.6875 27.296875 
Q 48.6875 37.203125 44.609375 42.84375 
Q 40.53125 48.484375 33.40625 48.484375 
Q 26.265625 48.484375 22.1875 42.84375 
Q 18.109375 37.203125 18.109375 27.296875 
Q 18.109375 17.390625 22.1875 11.75 
Q 26.265625 6.109375 33.40625 6.109375 
Q 40.53125 6.109375 44.609375 11.75 
Q 48.6875 17.390625 48.6875 27.296875 
z
" id="DejaVuSans-112"/>
      <path d="M 48.78125 52.59375 
L 48.78125 44.1875 
Q 44.96875 46.296875 41.140625 47.34375 
Q 37.3125 48.390625 33.40625 48.390625 
Q 24.65625 48.390625 19.8125 42.84375 
Q 14.984375 37.3125 14.984375 27.296875 
Q 14.984375 17.28125 19.8125 11.734375 
Q 24.65625 6.203125 33.40625 6.203125 
Q 37.3125 6.203125 41.140625 7.25 
Q 44.96875 8.296875 48.78125 10.40625 
L 48.78125 2.09375 
Q 45.015625 0.34375 40.984375 -0.53125 
Q 36.96875 -1.421875 32.421875 -1.421875 
Q 20.0625 -1.421875 12.78125 6.34375 
Q 5.515625 14.109375 5.515625 27.296875 
Q 5.515625 40.671875 12.859375 48.328125 
Q 20.21875 56 33.015625 56 
Q 37.15625 56 41.109375 55.140625 
Q 45.0625 54.296875 48.78125 52.59375 
z
" id="DejaVuSans-99"/>
     </defs>
     <g transform="translate(25.432812 215.520969)rotate(-90)scale(0.1 -0.1)">
      <use xlink:href="#DejaVuSans-83"/>
      <use x="63.476562" xlink:href="#DejaVuSans-105"/>
      <use x="91.259766" xlink:href="#DejaVuSans-122"/>
      <use x="143.75" xlink:href="#DejaVuSans-101"/>
      <use x="205.273438" xlink:href="#DejaVuSans-32"/>
      <use x="237.060547" xlink:href="#DejaVuSans-112"/>
      <use x="300.537109" xlink:href="#DejaVuSans-101"/>
      <use x="362.060547" xlink:href="#DejaVuSans-114"/>
      <use x="403.173828" xlink:href="#DejaVuSans-32"/>
      <use x="434.960938" xlink:href="#DejaVuSans-83"/>
      <use x="498.4375" xlink:href="#DejaVuSans-112"/>
      <use x="561.914062" xlink:href="#DejaVuSans-101"/>
      <use x="623.4375" xlink:href="#DejaVuSans-99"/>
      <use x="678.417969" xlink:href="#DejaVuSans-105"/>
      <use x="706.201172" xlink:href="#DejaVuSans-101"/>
      <use x="767.724609" xlink:href="#DejaVuSans-115"/>
     </g>
    </g>
   </g>
   <g id="patch_3">
    <path d="M 57.6 307.584 
L 57.6 41.472 
" style="fill:none;stroke:#000000;stroke-linecap:square;stroke-linejoin:miter;stroke-width:0.8;"/>
   </g>
   <g id="patch_4">
    <path d="M 414.72 307.584 
L 414.72 41.472 
" style="fill:none;stroke:#000000;stroke-linecap:square;stroke-linejoin:miter;stroke-width:0.8;"/>
   </g>
   <g id="patch_5">
    <path d="M 57.6 307.584 
L 414.72 307.584 
" style="fill:none;stroke:#000000;stroke-linecap:square;stroke-linejoin:miter;stroke-width:0.8;"/>
   </g>
   <g id="patch_6">
    <path d="M 57.6 41.472 
L 414.72 41.472 
" style="fill:none;stroke:#000000;stroke-linecap:square;stroke-linejoin:miter;stroke-width:0.8;"/>
   </g>
   <g id="text_16">
    <!-- Speciation -->
    <g transform="translate(204.714375 35.472)scale(0.12 -0.12)">
     <use xlink:href="#DejaVuSans-83"/>
     <use x="63.476562" xlink:href="#DejaVuSans-112"/>
     <use x="126.953125" xlink:href="#DejaVuSans-101"/>
     <use x="188.476562" xlink:href="#DejaVuSans-99"/>
     <use x="243.457031" xlink:href="#DejaVuSans-105"/>
     <use x="271.240234" xlink:href="#DejaVuSans-97"/>
     <use x="332.519531" xlink:href="#DejaVuSans-116"/>
     <use x="371.728516" xlink:href="#DejaVuSans-105"/>
     <use x="399.511719" xlink:href="#DejaVuSans-111"/>
     <use x="460.693359" xlink:href="#DejaVuSans-110"/>
    </g>
   </g>
  </g>
 </g>
 <defs>
  <clipPath id="p5913225316">
   <rect height="266.112" width="357.12" x="57.6" y="41.472"/>
  </clipPath>
 </defs>
</svg>
