<?xml version="1.0" encoding="utf-8" standalone="no"?>
<!DOCTYPE svg PUBLIC "-//W3C//DTD SVG 1.1//EN"
  "http://www.w3.org/Graphics/SVG/1.1/DTD/svg11.dtd">
<!-- Created with matplotlib (https://matplotlib.org/) -->
<svg height="345.6pt" version="1.1" viewBox="0 0 460.8 345.6" width="460.8pt" xmlns="http://www.w3.org/2000/svg" xmlns:xlink="http://www.w3.org/1999/xlink">
 <defs>
  <style type="text/css">
*{stroke-linecap:butt;stroke-linejoin:round;}
  </style>
 </defs>
 <g id="figure_1">
  <g id="patch_1">
   <path d="M 0 345.6 
L 460.8 345.6 
L 460.8 0 
L 0 0 
z
" style="fill:#ffffff;"/>
  </g>
  <g id="axes_1">
   <g id="patch_2">
    <path d="M 57.6 307.584 
L 414.72 307.584 
L 414.72 41.472 
L 57.6 41.472 
z
" style="fill:#ffffff;"/>
   </g>
   <g id="PolyCollection_1">
    <path clip-path="url(#p2485373c94)" d="M 73.832727 53.568 
L 73.832727 295.488 
L 75.136561 295.488 
L 76.440394 295.488 
L 77.744228 295.488 
L 79.048061 295.488 
L 80.351895 295.488 
L 81.655728 295.488 
L 82.959562 295.488 
L 84.263395 295.488 
L 85.567229 295.488 
L 86.871062 295.488 
L 88.174896 295.488 
L 89.478729 295.488 
L 90.782563 295.488 
L 92.086396 295.488 
L 93.39023 295.488 
L 94.694064 295.488 
L 95.997897 295.488 
L 97.301731 295.488 
L 98.605564 295.488 
L 99.909398 295.488 
L 101.213231 295.488 
L 102.517065 295.488 
L 103.820898 295.488 
L 105.124732 295.488 
L 106.428565 295.488 
L 107.732399 295.488 
L 109.036232 295.488 
L 110.340066 295.488 
L 111.643899 295.488 
L 112.947733 295.488 
L 114.251566 295.488 
L 115.5554 295.488 
L 116.859233 295.488 
L 118.163067 295.488 
L 119.4669 295.488 
L 120.770734 295.488 
L 122.074567 295.488 
L 123.378401 295.488 
L 124.682234 295.488 
L 125.986068 295.488 
L 127.289901 295.488 
L 128.593735 295.488 
L 129.897568 295.488 
L 131.201402 295.488 
L 132.505235 295.488 
L 133.809069 295.488 
L 135.112903 295.488 
L 136.416736 295.488 
L 137.72057 295.488 
L 139.024403 295.488 
L 140.328237 295.488 
L 141.63207 295.488 
L 142.935904 295.488 
L 144.239737 295.488 
L 145.543571 295.488 
L 146.847404 295.488 
L 148.151238 295.488 
L 149.455071 295.488 
L 150.758905 295.488 
L 152.062738 295.488 
L 153.366572 295.488 
L 154.670405 295.488 
L 155.974239 295.488 
L 157.278072 295.488 
L 158.581906 295.488 
L 159.885739 295.488 
L 161.189573 295.488 
L 162.493406 295.488 
L 163.79724 295.488 
L 165.101073 295.488 
L 166.404907 295.488 
L 167.70874 295.488 
L 169.012574 295.488 
L 170.316407 295.488 
L 171.620241 295.488 
L 172.924074 295.488 
L 174.227908 295.488 
L 175.531742 295.488 
L 176.835575 295.488 
L 178.139409 295.488 
L 179.443242 295.488 
L 180.747076 295.488 
L 182.050909 295.488 
L 183.354743 295.488 
L 184.658576 295.488 
L 185.96241 295.488 
L 187.266243 295.488 
L 188.570077 295.488 
L 189.87391 295.488 
L 191.177744 295.488 
L 192.481577 295.488 
L 193.785411 295.488 
L 195.089244 295.488 
L 196.393078 295.488 
L 197.696911 295.488 
L 199.000745 295.488 
L 200.304578 295.488 
L 201.608412 295.488 
L 202.912245 295.488 
L 204.216079 295.488 
L 205.519912 295.488 
L 206.823746 295.488 
L 208.127579 295.488 
L 209.431413 295.488 
L 210.735246 295.488 
L 212.03908 295.488 
L 213.342913 295.488 
L 214.646747 295.488 
L 215.950581 295.488 
L 217.254414 295.488 
L 218.558248 295.488 
L 219.862081 295.488 
L 221.165915 295.488 
L 222.469748 295.488 
L 223.773582 295.488 
L 225.077415 295.488 
L 226.381249 295.488 
L 227.685082 295.488 
L 228.988916 295.488 
L 230.292749 295.488 
L 231.596583 295.488 
L 232.900416 295.488 
L 234.20425 295.488 
L 235.508083 295.488 
L 236.811917 295.488 
L 238.11575 295.488 
L 239.419584 295.488 
L 240.723417 295.488 
L 242.027251 295.488 
L 243.331084 295.488 
L 244.634918 295.488 
L 245.938751 295.488 
L 247.242585 295.488 
L 248.546418 295.488 
L 249.850252 295.488 
L 251.154085 295.488 
L 252.457919 295.488 
L 253.761752 295.488 
L 255.065586 295.488 
L 256.369419 295.488 
L 257.673253 295.488 
L 258.977087 295.488 
L 260.28092 295.488 
L 261.584754 295.488 
L 262.888587 295.488 
L 264.192421 295.488 
L 265.496254 295.488 
L 266.800088 295.488 
L 268.103921 295.488 
L 269.407755 295.488 
L 270.711588 295.488 
L 272.015422 295.488 
L 273.319255 295.488 
L 274.623089 295.488 
L 275.926922 295.488 
L 277.230756 295.488 
L 278.534589 295.488 
L 279.838423 295.488 
L 281.142256 295.488 
L 282.44609 295.488 
L 283.749923 295.488 
L 285.053757 295.488 
L 286.35759 295.488 
L 287.661424 295.488 
L 288.965257 295.488 
L 290.269091 295.488 
L 291.572924 295.488 
L 292.876758 295.488 
L 294.180591 295.488 
L 295.484425 295.488 
L 296.788258 295.488 
L 298.092092 295.488 
L 299.395926 295.488 
L 300.699759 295.488 
L 302.003593 295.488 
L 303.307426 295.488 
L 304.61126 295.488 
L 305.915093 295.488 
L 307.218927 295.488 
L 308.52276 295.488 
L 309.826594 295.488 
L 311.130427 295.488 
L 312.434261 295.488 
L 313.738094 295.488 
L 315.041928 295.488 
L 316.345761 295.488 
L 317.649595 295.488 
L 318.953428 295.488 
L 320.257262 295.488 
L 321.561095 295.488 
L 322.864929 295.488 
L 324.168762 295.488 
L 325.472596 295.488 
L 326.776429 295.488 
L 328.080263 295.488 
L 329.384096 295.488 
L 330.68793 295.488 
L 331.991763 295.488 
L 333.295597 295.488 
L 334.59943 295.488 
L 335.903264 295.488 
L 337.207097 295.488 
L 338.510931 295.488 
L 339.814765 295.488 
L 341.118598 295.488 
L 342.422432 295.488 
L 343.726265 295.488 
L 345.030099 295.488 
L 346.333932 295.488 
L 347.637766 295.488 
L 348.941599 295.488 
L 350.245433 295.488 
L 351.549266 295.488 
L 352.8531 295.488 
L 354.156933 295.488 
L 355.460767 295.488 
L 356.7646 295.488 
L 358.068434 295.488 
L 359.372267 295.488 
L 360.676101 295.488 
L 361.979934 295.488 
L 363.283768 295.488 
L 364.587601 295.488 
L 365.891435 295.488 
L 367.195268 295.488 
L 368.499102 295.488 
L 369.802935 295.488 
L 371.106769 295.488 
L 372.410602 295.488 
L 373.714436 295.488 
L 375.018269 295.488 
L 376.322103 295.488 
L 377.625936 295.488 
L 378.92977 295.488 
L 380.233604 295.488 
L 381.537437 295.488 
L 382.841271 295.488 
L 384.145104 295.488 
L 385.448938 295.488 
L 386.752771 295.488 
L 388.056605 295.488 
L 389.360438 295.488 
L 390.664272 295.488 
L 391.968105 295.488 
L 393.271939 295.488 
L 394.575772 295.488 
L 395.879606 295.488 
L 397.183439 295.488 
L 398.487273 295.488 
L 398.487273 53.568 
L 398.487273 53.568 
L 397.183439 53.568 
L 395.879606 53.568 
L 394.575772 53.568 
L 393.271939 53.568 
L 391.968105 53.568 
L 390.664272 53.568 
L 389.360438 53.568 
L 388.056605 53.568 
L 386.752771 53.568 
L 385.448938 53.568 
L 384.145104 53.568 
L 382.841271 53.568 
L 381.537437 53.568 
L 380.233604 53.568 
L 378.92977 53.568 
L 377.625936 53.568 
L 376.322103 53.568 
L 375.018269 53.568 
L 373.714436 53.568 
L 372.410602 53.568 
L 371.106769 53.568 
L 369.802935 53.568 
L 368.499102 53.568 
L 367.195268 53.568 
L 365.891435 53.568 
L 364.587601 53.568 
L 363.283768 53.568 
L 361.979934 53.568 
L 360.676101 53.568 
L 359.372267 53.568 
L 358.068434 53.568 
L 356.7646 53.568 
L 355.460767 53.568 
L 354.156933 53.568 
L 352.8531 53.568 
L 351.549266 53.568 
L 350.245433 53.568 
L 348.941599 53.568 
L 347.637766 53.568 
L 346.333932 53.568 
L 345.030099 53.568 
L 343.726265 53.568 
L 342.422432 53.568 
L 341.118598 53.568 
L 339.814765 53.568 
L 338.510931 53.568 
L 337.207097 53.568 
L 335.903264 53.568 
L 334.59943 53.568 
L 333.295597 53.568 
L 331.991763 53.568 
L 330.68793 53.568 
L 329.384096 53.568 
L 328.080263 53.568 
L 326.776429 53.568 
L 325.472596 53.568 
L 324.168762 53.568 
L 322.864929 53.568 
L 321.561095 53.568 
L 320.257262 53.568 
L 318.953428 53.568 
L 317.649595 53.568 
L 316.345761 53.568 
L 315.041928 53.568 
L 313.738094 53.568 
L 312.434261 53.568 
L 311.130427 53.568 
L 309.826594 53.568 
L 308.52276 53.568 
L 307.218927 53.568 
L 305.915093 53.568 
L 304.61126 53.568 
L 303.307426 53.568 
L 302.003593 53.568 
L 300.699759 53.568 
L 299.395926 53.568 
L 298.092092 53.568 
L 296.788258 53.568 
L 295.484425 53.568 
L 294.180591 53.568 
L 292.876758 53.568 
L 291.572924 53.568 
L 290.269091 53.568 
L 288.965257 53.568 
L 287.661424 53.568 
L 286.35759 53.568 
L 285.053757 53.568 
L 283.749923 53.568 
L 282.44609 53.568 
L 281.142256 53.568 
L 279.838423 53.568 
L 278.534589 53.568 
L 277.230756 53.568 
L 275.926922 53.568 
L 274.623089 53.568 
L 273.319255 53.568 
L 272.015422 53.568 
L 270.711588 53.568 
L 269.407755 53.568 
L 268.103921 53.568 
L 266.800088 53.568 
L 265.496254 53.568 
L 264.192421 53.568 
L 262.888587 53.568 
L 261.584754 53.568 
L 260.28092 53.568 
L 258.977087 53.568 
L 257.673253 53.568 
L 256.369419 53.568 
L 255.065586 53.568 
L 253.761752 53.568 
L 252.457919 53.568 
L 251.154085 53.568 
L 249.850252 53.568 
L 248.546418 53.568 
L 247.242585 53.568 
L 245.938751 53.568 
L 244.634918 53.568 
L 243.331084 53.568 
L 242.027251 53.568 
L 240.723417 53.568 
L 239.419584 53.568 
L 238.11575 53.568 
L 236.811917 53.568 
L 235.508083 53.568 
L 234.20425 53.568 
L 232.900416 53.568 
L 231.596583 53.568 
L 230.292749 53.568 
L 228.988916 53.568 
L 227.685082 53.568 
L 226.381249 53.568 
L 225.077415 53.568 
L 223.773582 53.568 
L 222.469748 53.568 
L 221.165915 53.568 
L 219.862081 53.568 
L 218.558248 53.568 
L 217.254414 53.568 
L 215.950581 53.568 
L 214.646747 53.568 
L 213.342913 53.568 
L 212.03908 53.568 
L 210.735246 53.568 
L 209.431413 53.568 
L 208.127579 53.568 
L 206.823746 53.568 
L 205.519912 53.568 
L 204.216079 53.568 
L 202.912245 53.568 
L 201.608412 53.568 
L 200.304578 53.568 
L 199.000745 53.568 
L 197.696911 53.568 
L 196.393078 53.568 
L 195.089244 53.568 
L 193.785411 53.568 
L 192.481577 53.568 
L 191.177744 53.568 
L 189.87391 53.568 
L 188.570077 53.568 
L 187.266243 53.568 
L 185.96241 53.568 
L 184.658576 53.568 
L 183.354743 53.568 
L 182.050909 53.568 
L 180.747076 53.568 
L 179.443242 53.568 
L 178.139409 53.568 
L 176.835575 53.568 
L 175.531742 53.568 
L 174.227908 53.568 
L 172.924074 53.568 
L 171.620241 53.568 
L 170.316407 53.568 
L 169.012574 53.568 
L 167.70874 53.568 
L 166.404907 53.568 
L 165.101073 53.568 
L 163.79724 53.568 
L 162.493406 53.568 
L 161.189573 53.568 
L 159.885739 53.568 
L 158.581906 53.568 
L 157.278072 53.568 
L 155.974239 53.568 
L 154.670405 53.568 
L 153.366572 53.568 
L 152.062738 53.568 
L 150.758905 53.568 
L 149.455071 53.568 
L 148.151238 53.568 
L 146.847404 53.568 
L 145.543571 53.568 
L 144.239737 53.568 
L 142.935904 53.568 
L 141.63207 53.568 
L 140.328237 53.568 
L 139.024403 53.568 
L 137.72057 53.568 
L 136.416736 53.568 
L 135.112903 53.568 
L 133.809069 53.568 
L 132.505235 53.568 
L 131.201402 53.568 
L 129.897568 53.568 
L 128.593735 53.568 
L 127.289901 53.568 
L 125.986068 53.568 
L 124.682234 53.568 
L 123.378401 53.568 
L 122.074567 53.568 
L 120.770734 53.568 
L 119.4669 53.568 
L 118.163067 53.568 
L 116.859233 53.568 
L 115.5554 53.568 
L 114.251566 53.568 
L 112.947733 53.568 
L 111.643899 53.568 
L 110.340066 53.568 
L 109.036232 53.568 
L 107.732399 53.568 
L 106.428565 53.568 
L 105.124732 53.568 
L 103.820898 53.568 
L 102.517065 53.568 
L 101.213231 53.568 
L 99.909398 53.568 
L 98.605564 53.568 
L 97.301731 53.568 
L 95.997897 53.568 
L 94.694064 53.568 
L 93.39023 53.568 
L 92.086396 53.568 
L 90.782563 53.568 
L 89.478729 53.568 
L 88.174896 53.568 
L 86.871062 53.568 
L 85.567229 53.568 
L 84.263395 53.568 
L 82.959562 53.568 
L 81.655728 53.568 
L 80.351895 53.568 
L 79.048061 53.568 
L 77.744228 53.568 
L 76.440394 53.568 
L 75.136561 53.568 
L 73.832727 53.568 
z
" style="fill:#1f77b4;"/>
   </g>
   <g id="matplotlib.axis_1">
    <g id="xtick_1">
     <g id="line2d_1">
      <defs>
       <path d="M 0 0 
L 0 3.5 
" id="m12f2a12a87" style="stroke:#000000;stroke-width:0.8;"/>
      </defs>
      <g>
       <use style="stroke:#000000;stroke-width:0.8;" x="73.832727" xlink:href="#m12f2a12a87" y="307.584"/>
      </g>
     </g>
     <g id="text_1">
      <!-- 0 -->
      <defs>
       <path d="M 31.78125 66.40625 
Q 24.171875 66.40625 20.328125 58.90625 
Q 16.5 51.421875 16.5 36.375 
Q 16.5 21.390625 20.328125 13.890625 
Q 24.171875 6.390625 31.78125 6.390625 
Q 39.453125 6.390625 43.28125 13.890625 
Q 47.125 21.390625 47.125 36.375 
Q 47.125 51.421875 43.28125 58.90625 
Q 39.453125 66.40625 31.78125 66.40625 
z
M 31.78125 74.21875 
Q 44.046875 74.21875 50.515625 64.515625 
Q 56.984375 54.828125 56.984375 36.375 
Q 56.984375 17.96875 50.515625 8.265625 
Q 44.046875 -1.421875 31.78125 -1.421875 
Q 19.53125 -1.421875 13.0625 8.265625 
Q 6.59375 17.96875 6.59375 36.375 
Q 6.59375 54.828125 13.0625 64.515625 
Q 19.53125 74.21875 31.78125 74.21875 
z
" id="DejaVuSans-48"/>
      </defs>
      <g transform="translate(70.651477 322.182437)scale(0.1 -0.1)">
       <use xlink:href="#DejaVuSans-48"/>
      </g>
     </g>
    </g>
    <g id="xtick_2">
     <g id="line2d_2">
      <g>
       <use style="stroke:#000000;stroke-width:0.8;" x="139.024403" xlink:href="#m12f2a12a87" y="307.584"/>
      </g>
     </g>
     <g id="text_2">
      <!-- 50 -->
      <defs>
       <path d="M 10.796875 72.90625 
L 49.515625 72.90625 
L 49.515625 64.59375 
L 19.828125 64.59375 
L 19.828125 46.734375 
Q 21.96875 47.46875 24.109375 47.828125 
Q 26.265625 48.1875 28.421875 48.1875 
Q 40.625 48.1875 47.75 41.5 
Q 54.890625 34.8125 54.890625 23.390625 
Q 54.890625 11.625 47.5625 5.09375 
Q 40.234375 -1.421875 26.90625 -1.421875 
Q 22.3125 -1.421875 17.546875 -0.640625 
Q 12.796875 0.140625 7.71875 1.703125 
L 7.71875 11.625 
Q 12.109375 9.234375 16.796875 8.0625 
Q 21.484375 6.890625 26.703125 6.890625 
Q 35.15625 6.890625 40.078125 11.328125 
Q 45.015625 15.765625 45.015625 23.390625 
Q 45.015625 31 40.078125 35.4375 
Q 35.15625 39.890625 26.703125 39.890625 
Q 22.75 39.890625 18.8125 39.015625 
Q 14.890625 38.140625 10.796875 36.28125 
z
" id="DejaVuSans-53"/>
      </defs>
      <g transform="translate(132.661903 322.182437)scale(0.1 -0.1)">
       <use xlink:href="#DejaVuSans-53"/>
       <use x="63.623047" xlink:href="#DejaVuSans-48"/>
      </g>
     </g>
    </g>
    <g id="xtick_3">
     <g id="line2d_3">
      <g>
       <use style="stroke:#000000;stroke-width:0.8;" x="204.216079" xlink:href="#m12f2a12a87" y="307.584"/>
      </g>
     </g>
     <g id="text_3">
      <!-- 100 -->
      <defs>
       <path d="M 12.40625 8.296875 
L 28.515625 8.296875 
L 28.515625 63.921875 
L 10.984375 60.40625 
L 10.984375 69.390625 
L 28.421875 72.90625 
L 38.28125 72.90625 
L 38.28125 8.296875 
L 54.390625 8.296875 
L 54.390625 0 
L 12.40625 0 
z
" id="DejaVuSans-49"/>
      </defs>
      <g transform="translate(194.672329 322.182437)scale(0.1 -0.1)">
       <use xlink:href="#DejaVuSans-49"/>
       <use x="63.623047" xlink:href="#DejaVuSans-48"/>
       <use x="127.246094" xlink:href="#DejaVuSans-48"/>
      </g>
     </g>
    </g>
    <g id="xtick_4">
     <g id="line2d_4">
      <g>
       <use style="stroke:#000000;stroke-width:0.8;" x="269.407755" xlink:href="#m12f2a12a87" y="307.584"/>
      </g>
     </g>
     <g id="text_4">
      <!-- 150 -->
      <g transform="translate(259.864005 322.182437)scale(0.1 -0.1)">
       <use xlink:href="#DejaVuSans-49"/>
       <use x="63.623047" xlink:href="#DejaVuSans-53"/>
       <use x="127.246094" xlink:href="#DejaVuSans-48"/>
      </g>
     </g>
    </g>
    <g id="xtick_5">
     <g id="line2d_5">
      <g>
       <use style="stroke:#000000;stroke-width:0.8;" x="334.59943" xlink:href="#m12f2a12a87" y="307.584"/>
      </g>
     </g>
     <g id="text_5">
      <!-- 200 -->
      <defs>
       <path d="M 19.1875 8.296875 
L 53.609375 8.296875 
L 53.609375 0 
L 7.328125 0 
L 7.328125 8.296875 
Q 12.9375 14.109375 22.625 23.890625 
Q 32.328125 33.6875 34.8125 36.53125 
Q 39.546875 41.84375 41.421875 45.53125 
Q 43.3125 49.21875 43.3125 52.78125 
Q 43.3125 58.59375 39.234375 62.25 
Q 35.15625 65.921875 28.609375 65.921875 
Q 23.96875 65.921875 18.8125 64.3125 
Q 13.671875 62.703125 7.8125 59.421875 
L 7.8125 69.390625 
Q 13.765625 71.78125 18.9375 73 
Q 24.125 74.21875 28.421875 74.21875 
Q 39.75 74.21875 46.484375 68.546875 
Q 53.21875 62.890625 53.21875 53.421875 
Q 53.21875 48.921875 51.53125 44.890625 
Q 49.859375 40.875 45.40625 35.40625 
Q 44.1875 33.984375 37.640625 27.21875 
Q 31.109375 20.453125 19.1875 8.296875 
z
" id="DejaVuSans-50"/>
      </defs>
      <g transform="translate(325.05568 322.182437)scale(0.1 -0.1)">
       <use xlink:href="#DejaVuSans-50"/>
       <use x="63.623047" xlink:href="#DejaVuSans-48"/>
       <use x="127.246094" xlink:href="#DejaVuSans-48"/>
      </g>
     </g>
    </g>
    <g id="xtick_6">
     <g id="line2d_6">
      <g>
       <use style="stroke:#000000;stroke-width:0.8;" x="399.791106" xlink:href="#m12f2a12a87" y="307.584"/>
      </g>
     </g>
     <g id="text_6">
      <!-- 250 -->
      <g transform="translate(390.247356 322.182437)scale(0.1 -0.1)">
       <use xlink:href="#DejaVuSans-50"/>
       <use x="63.623047" xlink:href="#DejaVuSans-53"/>
       <use x="127.246094" xlink:href="#DejaVuSans-48"/>
      </g>
     </g>
    </g>
    <g id="text_7">
     <!-- Generations -->
     <defs>
      <path d="M 59.515625 10.40625 
L 59.515625 29.984375 
L 43.40625 29.984375 
L 43.40625 38.09375 
L 69.28125 38.09375 
L 69.28125 6.78125 
Q 63.578125 2.734375 56.6875 0.65625 
Q 49.8125 -1.421875 42 -1.421875 
Q 24.90625 -1.421875 15.25 8.5625 
Q 5.609375 18.5625 5.609375 36.375 
Q 5.609375 54.25 15.25 64.234375 
Q 24.90625 74.21875 42 74.21875 
Q 49.125 74.21875 55.546875 72.453125 
Q 61.96875 70.703125 67.390625 67.28125 
L 67.390625 56.78125 
Q 61.921875 61.421875 55.765625 63.765625 
Q 49.609375 66.109375 42.828125 66.109375 
Q 29.4375 66.109375 22.71875 58.640625 
Q 16.015625 51.171875 16.015625 36.375 
Q 16.015625 21.625 22.71875 14.15625 
Q 29.4375 6.6875 42.828125 6.6875 
Q 48.046875 6.6875 52.140625 7.59375 
Q 56.25 8.5 59.515625 10.40625 
z
" id="DejaVuSans-71"/>
      <path d="M 56.203125 29.59375 
L 56.203125 25.203125 
L 14.890625 25.203125 
Q 15.484375 15.921875 20.484375 11.0625 
Q 25.484375 6.203125 34.421875 6.203125 
Q 39.59375 6.203125 44.453125 7.46875 
Q 49.3125 8.734375 54.109375 11.28125 
L 54.109375 2.78125 
Q 49.265625 0.734375 44.1875 -0.34375 
Q 39.109375 -1.421875 33.890625 -1.421875 
Q 20.796875 -1.421875 13.15625 6.1875 
Q 5.515625 13.8125 5.515625 26.8125 
Q 5.515625 40.234375 12.765625 48.109375 
Q 20.015625 56 32.328125 56 
Q 43.359375 56 49.78125 48.890625 
Q 56.203125 41.796875 56.203125 29.59375 
z
M 47.21875 32.234375 
Q 47.125 39.59375 43.09375 43.984375 
Q 39.0625 48.390625 32.421875 48.390625 
Q 24.90625 48.390625 20.390625 44.140625 
Q 15.875 39.890625 15.1875 32.171875 
z
" id="DejaVuSans-101"/>
      <path d="M 54.890625 33.015625 
L 54.890625 0 
L 45.90625 0 
L 45.90625 32.71875 
Q 45.90625 40.484375 42.875 44.328125 
Q 39.84375 48.1875 33.796875 48.1875 
Q 26.515625 48.1875 22.3125 43.546875 
Q 18.109375 38.921875 18.109375 30.90625 
L 18.109375 0 
L 9.078125 0 
L 9.078125 54.6875 
L 18.109375 54.6875 
L 18.109375 46.1875 
Q 21.34375 51.125 25.703125 53.5625 
Q 30.078125 56 35.796875 56 
Q 45.21875 56 50.046875 50.171875 
Q 54.890625 44.34375 54.890625 33.015625 
z
" id="DejaVuSans-110"/>
      <path d="M 41.109375 46.296875 
Q 39.59375 47.171875 37.8125 47.578125 
Q 36.03125 48 33.890625 48 
Q 26.265625 48 22.1875 43.046875 
Q 18.109375 38.09375 18.109375 28.8125 
L 18.109375 0 
L 9.078125 0 
L 9.078125 54.6875 
L 18.109375 54.6875 
L 18.109375 46.1875 
Q 20.953125 51.171875 25.484375 53.578125 
Q 30.03125 56 36.53125 56 
Q 37.453125 56 38.578125 55.875 
Q 39.703125 55.765625 41.0625 55.515625 
z
" id="DejaVuSans-114"/>
      <path d="M 34.28125 27.484375 
Q 23.390625 27.484375 19.1875 25 
Q 14.984375 22.515625 14.984375 16.5 
Q 14.984375 11.71875 18.140625 8.90625 
Q 21.296875 6.109375 26.703125 6.109375 
Q 34.1875 6.109375 38.703125 11.40625 
Q 43.21875 16.703125 43.21875 25.484375 
L 43.21875 27.484375 
z
M 52.203125 31.203125 
L 52.203125 0 
L 43.21875 0 
L 43.21875 8.296875 
Q 40.140625 3.328125 35.546875 0.953125 
Q 30.953125 -1.421875 24.3125 -1.421875 
Q 15.921875 -1.421875 10.953125 3.296875 
Q 6 8.015625 6 15.921875 
Q 6 25.140625 12.171875 29.828125 
Q 18.359375 34.515625 30.609375 34.515625 
L 43.21875 34.515625 
L 43.21875 35.40625 
Q 43.21875 41.609375 39.140625 45 
Q 35.0625 48.390625 27.6875 48.390625 
Q 23 48.390625 18.546875 47.265625 
Q 14.109375 46.140625 10.015625 43.890625 
L 10.015625 52.203125 
Q 14.9375 54.109375 19.578125 55.046875 
Q 24.21875 56 28.609375 56 
Q 40.484375 56 46.34375 49.84375 
Q 52.203125 43.703125 52.203125 31.203125 
z
" id="DejaVuSans-97"/>
      <path d="M 18.3125 70.21875 
L 18.3125 54.6875 
L 36.8125 54.6875 
L 36.8125 47.703125 
L 18.3125 47.703125 
L 18.3125 18.015625 
Q 18.3125 11.328125 20.140625 9.421875 
Q 21.96875 7.515625 27.59375 7.515625 
L 36.8125 7.515625 
L 36.8125 0 
L 27.59375 0 
Q 17.1875 0 13.234375 3.875 
Q 9.28125 7.765625 9.28125 18.015625 
L 9.28125 47.703125 
L 2.6875 47.703125 
L 2.6875 54.6875 
L 9.28125 54.6875 
L 9.28125 70.21875 
z
" id="DejaVuSans-116"/>
      <path d="M 9.421875 54.6875 
L 18.40625 54.6875 
L 18.40625 0 
L 9.421875 0 
z
M 9.421875 75.984375 
L 18.40625 75.984375 
L 18.40625 64.59375 
L 9.421875 64.59375 
z
" id="DejaVuSans-105"/>
      <path d="M 30.609375 48.390625 
Q 23.390625 48.390625 19.1875 42.75 
Q 14.984375 37.109375 14.984375 27.296875 
Q 14.984375 17.484375 19.15625 11.84375 
Q 23.34375 6.203125 30.609375 6.203125 
Q 37.796875 6.203125 41.984375 11.859375 
Q 46.1875 17.53125 46.1875 27.296875 
Q 46.1875 37.015625 41.984375 42.703125 
Q 37.796875 48.390625 30.609375 48.390625 
z
M 30.609375 56 
Q 42.328125 56 49.015625 48.375 
Q 55.71875 40.765625 55.71875 27.296875 
Q 55.71875 13.875 49.015625 6.21875 
Q 42.328125 -1.421875 30.609375 -1.421875 
Q 18.84375 -1.421875 12.171875 6.21875 
Q 5.515625 13.875 5.515625 27.296875 
Q 5.515625 40.765625 12.171875 48.375 
Q 18.84375 56 30.609375 56 
z
" id="DejaVuSans-111"/>
      <path d="M 44.28125 53.078125 
L 44.28125 44.578125 
Q 40.484375 46.53125 36.375 47.5 
Q 32.28125 48.484375 27.875 48.484375 
Q 21.1875 48.484375 17.84375 46.4375 
Q 14.5 44.390625 14.5 40.28125 
Q 14.5 37.15625 16.890625 35.375 
Q 19.28125 33.59375 26.515625 31.984375 
L 29.59375 31.296875 
Q 39.15625 29.25 43.1875 25.515625 
Q 47.21875 21.78125 47.21875 15.09375 
Q 47.21875 7.46875 41.1875 3.015625 
Q 35.15625 -1.421875 24.609375 -1.421875 
Q 20.21875 -1.421875 15.453125 -0.5625 
Q 10.6875 0.296875 5.421875 2 
L 5.421875 11.28125 
Q 10.40625 8.6875 15.234375 7.390625 
Q 20.0625 6.109375 24.8125 6.109375 
Q 31.15625 6.109375 34.5625 8.28125 
Q 37.984375 10.453125 37.984375 14.40625 
Q 37.984375 18.0625 35.515625 20.015625 
Q 33.0625 21.96875 24.703125 23.78125 
L 21.578125 24.515625 
Q 13.234375 26.265625 9.515625 29.90625 
Q 5.8125 33.546875 5.8125 39.890625 
Q 5.8125 47.609375 11.28125 51.796875 
Q 16.75 56 26.8125 56 
Q 31.78125 56 36.171875 55.265625 
Q 40.578125 54.546875 44.28125 53.078125 
z
" id="DejaVuSans-115"/>
     </defs>
     <g transform="translate(205.662344 335.860562)scale(0.1 -0.1)">
      <use xlink:href="#DejaVuSans-71"/>
      <use x="77.490234" xlink:href="#DejaVuSans-101"/>
      <use x="139.013672" xlink:href="#DejaVuSans-110"/>
      <use x="202.392578" xlink:href="#DejaVuSans-101"/>
      <use x="263.916016" xlink:href="#DejaVuSans-114"/>
      <use x="305.029297" xlink:href="#DejaVuSans-97"/>
      <use x="366.308594" xlink:href="#DejaVuSans-116"/>
      <use x="405.517578" xlink:href="#DejaVuSans-105"/>
      <use x="433.300781" xlink:href="#DejaVuSans-111"/>
      <use x="494.482422" xlink:href="#DejaVuSans-110"/>
      <use x="557.861328" xlink:href="#DejaVuSans-115"/>
     </g>
    </g>
   </g>
   <g id="matplotlib.axis_2">
    <g id="ytick_1">
     <g id="line2d_7">
      <defs>
       <path d="M 0 0 
L -3.5 0 
" id="m9303b6fba8" style="stroke:#000000;stroke-width:0.8;"/>
      </defs>
      <g>
       <use style="stroke:#000000;stroke-width:0.8;" x="57.6" xlink:href="#m9303b6fba8" y="295.488"/>
      </g>
     </g>
     <g id="text_8">
      <!-- 0.0 -->
      <defs>
       <path d="M 10.6875 12.40625 
L 21 12.40625 
L 21 0 
L 10.6875 0 
z
" id="DejaVuSans-46"/>
      </defs>
      <g transform="translate(34.696875 299.287219)scale(0.1 -0.1)">
       <use xlink:href="#DejaVuSans-48"/>
       <use x="63.623047" xlink:href="#DejaVuSans-46"/>
       <use x="95.410156" xlink:href="#DejaVuSans-48"/>
      </g>
     </g>
    </g>
    <g id="ytick_2">
     <g id="line2d_8">
      <g>
       <use style="stroke:#000000;stroke-width:0.8;" x="57.6" xlink:href="#m9303b6fba8" y="265.248"/>
      </g>
     </g>
     <g id="text_9">
      <!-- 2.5 -->
      <g transform="translate(34.696875 269.047219)scale(0.1 -0.1)">
       <use xlink:href="#DejaVuSans-50"/>
       <use x="63.623047" xlink:href="#DejaVuSans-46"/>
       <use x="95.410156" xlink:href="#DejaVuSans-53"/>
      </g>
     </g>
    </g>
    <g id="ytick_3">
     <g id="line2d_9">
      <g>
       <use style="stroke:#000000;stroke-width:0.8;" x="57.6" xlink:href="#m9303b6fba8" y="235.008"/>
      </g>
     </g>
     <g id="text_10">
      <!-- 5.0 -->
      <g transform="translate(34.696875 238.807219)scale(0.1 -0.1)">
       <use xlink:href="#DejaVuSans-53"/>
       <use x="63.623047" xlink:href="#DejaVuSans-46"/>
       <use x="95.410156" xlink:href="#DejaVuSans-48"/>
      </g>
     </g>
    </g>
    <g id="ytick_4">
     <g id="line2d_10">
      <g>
       <use style="stroke:#000000;stroke-width:0.8;" x="57.6" xlink:href="#m9303b6fba8" y="204.768"/>
      </g>
     </g>
     <g id="text_11">
      <!-- 7.5 -->
      <defs>
       <path d="M 8.203125 72.90625 
L 55.078125 72.90625 
L 55.078125 68.703125 
L 28.609375 0 
L 18.3125 0 
L 43.21875 64.59375 
L 8.203125 64.59375 
z
" id="DejaVuSans-55"/>
      </defs>
      <g transform="translate(34.696875 208.567219)scale(0.1 -0.1)">
       <use xlink:href="#DejaVuSans-55"/>
       <use x="63.623047" xlink:href="#DejaVuSans-46"/>
       <use x="95.410156" xlink:href="#DejaVuSans-53"/>
      </g>
     </g>
    </g>
    <g id="ytick_5">
     <g id="line2d_11">
      <g>
       <use style="stroke:#000000;stroke-width:0.8;" x="57.6" xlink:href="#m9303b6fba8" y="174.528"/>
      </g>
     </g>
     <g id="text_12">
      <!-- 10.0 -->
      <g transform="translate(28.334375 178.327219)scale(0.1 -0.1)">
       <use xlink:href="#DejaVuSans-49"/>
       <use x="63.623047" xlink:href="#DejaVuSans-48"/>
       <use x="127.246094" xlink:href="#DejaVuSans-46"/>
       <use x="159.033203" xlink:href="#DejaVuSans-48"/>
      </g>
     </g>
    </g>
    <g id="ytick_6">
     <g id="line2d_12">
      <g>
       <use style="stroke:#000000;stroke-width:0.8;" x="57.6" xlink:href="#m9303b6fba8" y="144.288"/>
      </g>
     </g>
     <g id="text_13">
      <!-- 12.5 -->
      <g transform="translate(28.334375 148.087219)scale(0.1 -0.1)">
       <use xlink:href="#DejaVuSans-49"/>
       <use x="63.623047" xlink:href="#DejaVuSans-50"/>
       <use x="127.246094" xlink:href="#DejaVuSans-46"/>
       <use x="159.033203" xlink:href="#DejaVuSans-53"/>
      </g>
     </g>
    </g>
    <g id="ytick_7">
     <g id="line2d_13">
      <g>
       <use style="stroke:#000000;stroke-width:0.8;" x="57.6" xlink:href="#m9303b6fba8" y="114.048"/>
      </g>
     </g>
     <g id="text_14">
      <!-- 15.0 -->
      <g transform="translate(28.334375 117.847219)scale(0.1 -0.1)">
       <use xlink:href="#DejaVuSans-49"/>
       <use x="63.623047" xlink:href="#DejaVuSans-53"/>
       <use x="127.246094" xlink:href="#DejaVuSans-46"/>
       <use x="159.033203" xlink:href="#DejaVuSans-48"/>
      </g>
     </g>
    </g>
    <g id="ytick_8">
     <g id="line2d_14">
      <g>
       <use style="stroke:#000000;stroke-width:0.8;" x="57.6" xlink:href="#m9303b6fba8" y="83.808"/>
      </g>
     </g>
     <g id="text_15">
      <!-- 17.5 -->
      <g transform="translate(28.334375 87.607219)scale(0.1 -0.1)">
       <use xlink:href="#DejaVuSans-49"/>
       <use x="63.623047" xlink:href="#DejaVuSans-55"/>
       <use x="127.246094" xlink:href="#DejaVuSans-46"/>
       <use x="159.033203" xlink:href="#DejaVuSans-53"/>
      </g>
     </g>
    </g>
    <g id="ytick_9">
     <g id="line2d_15">
      <g>
       <use style="stroke:#000000;stroke-width:0.8;" x="57.6" xlink:href="#m9303b6fba8" y="53.568"/>
      </g>
     </g>
     <g id="text_16">
      <!-- 20.0 -->
      <g transform="translate(28.334375 57.367219)scale(0.1 -0.1)">
       <use xlink:href="#DejaVuSans-50"/>
       <use x="63.623047" xlink:href="#DejaVuSans-48"/>
       <use x="127.246094" xlink:href="#DejaVuSans-46"/>
       <use x="159.033203" xlink:href="#DejaVuSans-48"/>
      </g>
     </g>
    </g>
    <g id="text_17">
     <!-- Size per Species -->
     <defs>
      <path d="M 53.515625 70.515625 
L 53.515625 60.890625 
Q 47.90625 63.578125 42.921875 64.890625 
Q 37.9375 66.21875 33.296875 66.21875 
Q 25.25 66.21875 20.875 63.09375 
Q 16.5 59.96875 16.5 54.203125 
Q 16.5 49.359375 19.40625 46.890625 
Q 22.3125 44.4375 30.421875 42.921875 
L 36.375 41.703125 
Q 47.40625 39.59375 52.65625 34.296875 
Q 57.90625 29 57.90625 20.125 
Q 57.90625 9.515625 50.796875 4.046875 
Q 43.703125 -1.421875 29.984375 -1.421875 
Q 24.8125 -1.421875 18.96875 -0.25 
Q 13.140625 0.921875 6.890625 3.21875 
L 6.890625 13.375 
Q 12.890625 10.015625 18.65625 8.296875 
Q 24.421875 6.59375 29.984375 6.59375 
Q 38.421875 6.59375 43.015625 9.90625 
Q 47.609375 13.234375 47.609375 19.390625 
Q 47.609375 24.75 44.3125 27.78125 
Q 41.015625 30.8125 33.5 32.328125 
L 27.484375 33.5 
Q 16.453125 35.6875 11.515625 40.375 
Q 6.59375 45.0625 6.59375 53.421875 
Q 6.59375 63.09375 13.40625 68.65625 
Q 20.21875 74.21875 32.171875 74.21875 
Q 37.3125 74.21875 42.625 73.28125 
Q 47.953125 72.359375 53.515625 70.515625 
z
" id="DejaVuSans-83"/>
      <path d="M 5.515625 54.6875 
L 48.1875 54.6875 
L 48.1875 46.484375 
L 14.40625 7.171875 
L 48.1875 7.171875 
L 48.1875 0 
L 4.296875 0 
L 4.296875 8.203125 
L 38.09375 47.515625 
L 5.515625 47.515625 
z
" id="DejaVuSans-122"/>
      <path id="DejaVuSans-32"/>
      <path d="M 18.109375 8.203125 
L 18.109375 -20.796875 
L 9.078125 -20.796875 
L 9.078125 54.6875 
L 18.109375 54.6875 
L 18.109375 46.390625 
Q 20.953125 51.265625 25.265625 53.625 
Q 29.59375 56 35.59375 56 
Q 45.5625 56 51.78125 48.09375 
Q 58.015625 40.1875 58.015625 27.296875 
Q 58.015625 14.40625 51.78125 6.484375 
Q 45.5625 -1.421875 35.59375 -1.421875 
Q 29.59375 -1.421875 25.265625 0.953125 
Q 20.953125 3.328125 18.109375 8.203125 
z
M 48.6875 27.296875 
Q 48.6875 37.203125 44.609375 42.84375 
Q 40.53125 48.484375 33.40625 48.484375 
Q 26.265625 48.484375 22.1875 42.84375 
Q 18.109375 37.203125 18.109375 27.296875 
Q 18.109375 17.390625 22.1875 11.75 
Q 26.265625 6.109375 33.40625 6.109375 
Q 40.53125 6.109375 44.609375 11.75 
Q 48.6875 17.390625 48.6875 27.296875 
z
" id="DejaVuSans-112"/>
      <path d="M 48.78125 52.59375 
L 48.78125 44.1875 
Q 44.96875 46.296875 41.140625 47.34375 
Q 37.3125 48.390625 33.40625 48.390625 
Q 24.65625 48.390625 19.8125 42.84375 
Q 14.984375 37.3125 14.984375 27.296875 
Q 14.984375 17.28125 19.8125 11.734375 
Q 24.65625 6.203125 33.40625 6.203125 
Q 37.3125 6.203125 41.140625 7.25 
Q 44.96875 8.296875 48.78125 10.40625 
L 48.78125 2.09375 
Q 45.015625 0.34375 40.984375 -0.53125 
Q 36.96875 -1.421875 32.421875 -1.421875 
Q 20.0625 -1.421875 12.78125 6.34375 
Q 5.515625 14.109375 5.515625 27.296875 
Q 5.515625 40.671875 12.859375 48.328125 
Q 20.21875 56 33.015625 56 
Q 37.15625 56 41.109375 55.140625 
Q 45.0625 54.296875 48.78125 52.59375 
z
" id="DejaVuSans-99"/>
     </defs>
     <g transform="translate(22.254687 215.520969)rotate(-90)scale(0.1 -0.1)">
      <use xlink:href="#DejaVuSans-83"/>
      <use x="63.476562" xlink:href="#DejaVuSans-105"/>
      <use x="91.259766" xlink:href="#DejaVuSans-122"/>
      <use x="143.75" xlink:href="#DejaVuSans-101"/>
      <use x="205.273438" xlink:href="#DejaVuSans-32"/>
      <use x="237.060547" xlink:href="#DejaVuSans-112"/>
      <use x="300.537109" xlink:href="#DejaVuSans-101"/>
      <use x="362.060547" xlink:href="#DejaVuSans-114"/>
      <use x="403.173828" xlink:href="#DejaVuSans-32"/>
      <use x="434.960938" xlink:href="#DejaVuSans-83"/>
      <use x="498.4375" xlink:href="#DejaVuSans-112"/>
      <use x="561.914062" xlink:href="#DejaVuSans-101"/>
      <use x="623.4375" xlink:href="#DejaVuSans-99"/>
      <use x="678.417969" xlink:href="#DejaVuSans-105"/>
      <use x="706.201172" xlink:href="#DejaVuSans-101"/>
      <use x="767.724609" xlink:href="#DejaVuSans-115"/>
     </g>
    </g>
   </g>
   <g id="patch_3">
    <path d="M 57.6 307.584 
L 57.6 41.472 
" style="fill:none;stroke:#000000;stroke-linecap:square;stroke-linejoin:miter;stroke-width:0.8;"/>
   </g>
   <g id="patch_4">
    <path d="M 414.72 307.584 
L 414.72 41.472 
" style="fill:none;stroke:#000000;stroke-linecap:square;stroke-linejoin:miter;stroke-width:0.8;"/>
   </g>
   <g id="patch_5">
    <path d="M 57.6 307.584 
L 414.72 307.584 
" style="fill:none;stroke:#000000;stroke-linecap:square;stroke-linejoin:miter;stroke-width:0.8;"/>
   </g>
   <g id="patch_6">
    <path d="M 57.6 41.472 
L 414.72 41.472 
" style="fill:none;stroke:#000000;stroke-linecap:square;stroke-linejoin:miter;stroke-width:0.8;"/>
   </g>
   <g id="text_18">
    <!-- Speciation -->
    <g transform="translate(204.714375 35.472)scale(0.12 -0.12)">
     <use xlink:href="#DejaVuSans-83"/>
     <use x="63.476562" xlink:href="#DejaVuSans-112"/>
     <use x="126.953125" xlink:href="#DejaVuSans-101"/>
     <use x="188.476562" xlink:href="#DejaVuSans-99"/>
     <use x="243.457031" xlink:href="#DejaVuSans-105"/>
     <use x="271.240234" xlink:href="#DejaVuSans-97"/>
     <use x="332.519531" xlink:href="#DejaVuSans-116"/>
     <use x="371.728516" xlink:href="#DejaVuSans-105"/>
     <use x="399.511719" xlink:href="#DejaVuSans-111"/>
     <use x="460.693359" xlink:href="#DejaVuSans-110"/>
    </g>
   </g>
  </g>
 </g>
 <defs>
  <clipPath id="p2485373c94">
   <rect height="266.112" width="357.12" x="57.6" y="41.472"/>
  </clipPath>
 </defs>
</svg>
