<?xml version="1.0" encoding="UTF-8" standalone="no"?>
<!DOCTYPE svg PUBLIC "-//W3C//DTD SVG 1.1//EN"
 "http://www.w3.org/Graphics/SVG/1.1/DTD/svg11.dtd">
<!-- Generated by graphviz version 2.38.0 (20140413.2041)
 -->
<!-- Title: %3 Pages: 1 -->
<svg width="318pt" height="340pt"
 viewBox="0.00 0.00 318.21 339.71" xmlns="http://www.w3.org/2000/svg" xmlns:xlink="http://www.w3.org/1999/xlink">
<g id="graph0" class="graph" transform="scale(1 1) rotate(0) translate(4 335.706)">
<title>%3</title>
<polygon fill="white" stroke="none" points="-4,4 -4,-335.706 314.213,-335.706 314.213,4 -4,4"/>
<!-- IA -->
<g id="node1" class="node"><title>IA</title>
<polygon fill="lightgray" stroke="black" points="26,-265.492 0,-265.492 0,-247.492 26,-247.492 26,-265.492"/>
<text text-anchor="middle" x="13" y="-254.292" font-family="Times,serif" font-size="9.00">IA</text>
</g>
<!-- 879 -->
<g id="node5" class="node"><title>879</title>
<ellipse fill="white" stroke="black" cx="37" cy="-21.2132" rx="21.4286" ry="21.4286"/>
<text text-anchor="middle" x="37" y="-19.0132" font-family="Times,serif" font-size="9.00">879</text>
</g>
<!-- IA&#45;&gt;879 -->
<g id="edge13" class="edge"><title>IA&#45;&gt;879</title>
<path fill="none" stroke="red" stroke-width="0.25271" d="M11.8269,-247.134C10.3532,-236.173 7.90753,-216.333 7,-199.279 5.99795,-180.45 4.93716,-175.596 7,-156.853 11.0244,-120.287 21.0205,-79.1267 28.3729,-52.0509"/>
<polygon fill="red" stroke="red" stroke-width="0.25271" points="31.8448,-52.6281 31.141,-42.0567 25.0987,-50.7597 31.8448,-52.6281"/>
</g>
<!-- 568 -->
<g id="node7" class="node"><title>568</title>
<ellipse fill="white" stroke="black" cx="37" cy="-178.066" rx="21.4286" ry="21.4286"/>
<text text-anchor="middle" x="37" y="-175.866" font-family="Times,serif" font-size="9.00">568</text>
</g>
<!-- IA&#45;&gt;568 -->
<g id="edge5" class="edge"><title>IA&#45;&gt;568</title>
<path fill="none" stroke="green" stroke-width="0.314502" d="M15.5684,-247.313C18.4876,-238.017 23.4185,-222.316 27.815,-208.315"/>
<polygon fill="green" stroke="green" stroke-width="0.314502" points="31.2287,-209.126 30.8856,-198.537 24.5503,-207.029 31.2287,-209.126"/>
</g>
<!-- IB -->
<g id="node2" class="node"><title>IB</title>
<polygon fill="lightgray" stroke="black" points="186,-331.706 160,-331.706 160,-313.706 186,-313.706 186,-331.706"/>
<text text-anchor="middle" x="173" y="-320.506" font-family="Times,serif" font-size="9.00">IB</text>
</g>
<!-- OA -->
<g id="node3" class="node"><title>OA</title>
<ellipse fill="lightblue" stroke="black" cx="86" cy="-99.6396" rx="21.4286" ry="21.4286"/>
<text text-anchor="middle" x="86" y="-97.4396" font-family="Times,serif" font-size="9.00">OA</text>
</g>
<!-- IB&#45;&gt;OA -->
<g id="edge1" class="edge"><title>IB&#45;&gt;OA</title>
<path fill="none" stroke="red" stroke-width="2.76534" d="M162.743,-313.657C153.036,-305.54 138.695,-292.169 130,-277.706 102.15,-231.376 91.8781,-168.13 88.1243,-131.109"/>
<polygon fill="red" stroke="red" stroke-width="2.76534" points="91.5917,-130.593 87.1926,-120.954 84.621,-131.232 91.5917,-130.593"/>
</g>
<!-- 553 -->
<g id="node4" class="node"><title>553</title>
<ellipse fill="white" stroke="black" cx="135" cy="-178.066" rx="21.4286" ry="21.4286"/>
<text text-anchor="middle" x="135" y="-175.866" font-family="Times,serif" font-size="9.00">553</text>
</g>
<!-- IB&#45;&gt;553 -->
<g id="edge10" class="edge"><title>IB&#45;&gt;553</title>
<path fill="none" stroke="green" stroke-width="0.571474" d="M165.587,-313.668C158.415,-305.354 147.929,-291.653 143,-277.706 135.236,-255.735 133.453,-229.358 133.493,-209.411"/>
<polygon fill="green" stroke="green" stroke-width="0.571474" points="136.994,-209.401 133.667,-199.342 129.995,-209.28 136.994,-209.401"/>
</g>
<!-- 693 -->
<g id="node6" class="node"><title>693</title>
<ellipse fill="white" stroke="black" cx="173" cy="-256.492" rx="21.4286" ry="21.4286"/>
<text text-anchor="middle" x="173" y="-254.292" font-family="Times,serif" font-size="9.00">693</text>
</g>
<!-- IB&#45;&gt;693 -->
<g id="edge6" class="edge"><title>IB&#45;&gt;693</title>
<path fill="none" stroke="green" stroke-width="0.321979" d="M173,-313.573C173,-307.03 173,-297.401 173,-287.962"/>
<polygon fill="green" stroke="green" stroke-width="0.321979" points="176.5,-287.948 173,-277.948 169.5,-287.948 176.5,-287.948"/>
</g>
<!-- 731 -->
<g id="node8" class="node"><title>731</title>
<ellipse fill="white" stroke="black" cx="218" cy="-178.066" rx="21.4286" ry="21.4286"/>
<text text-anchor="middle" x="218" y="-175.866" font-family="Times,serif" font-size="9.00">731</text>
</g>
<!-- IB&#45;&gt;731 -->
<g id="edge11" class="edge"><title>IB&#45;&gt;731</title>
<path fill="none" stroke="red" stroke-width="0.102331" d="M186.449,-313.906C198.044,-306.327 213.99,-293.641 221,-277.706 230.517,-256.071 228.906,-229.109 225.396,-208.844"/>
<polygon fill="red" stroke="red" stroke-width="0.102331" points="228.808,-208.054 223.437,-198.921 221.94,-209.41 228.808,-208.054"/>
</g>
<!-- 158 -->
<g id="node9" class="node"><title>158</title>
<ellipse fill="white" stroke="black" cx="289" cy="-256.492" rx="21.4286" ry="21.4286"/>
<text text-anchor="middle" x="289" y="-254.292" font-family="Times,serif" font-size="9.00">158</text>
</g>
<!-- IB&#45;&gt;158 -->
<g id="edge3" class="edge"><title>IB&#45;&gt;158</title>
<path fill="none" stroke="green" stroke-width="0.522633" stroke-dasharray="1,5" d="M186.246,-314.647C202.334,-306.043 230.265,-291.003 254,-277.706 256.669,-276.211 259.443,-274.638 262.211,-273.059"/>
<polygon fill="green" stroke="green" stroke-width="0.522633" points="263.959,-276.091 270.886,-268.074 260.472,-270.022 263.959,-276.091"/>
</g>
<!-- OA&#45;&gt;879 -->
<g id="edge7" class="edge"><title>OA&#45;&gt;879</title>
<path fill="none" stroke="green" stroke-width="0.508798" d="M74.8811,-81.2973C68.6162,-71.5257 60.6673,-59.1276 53.6704,-48.2145"/>
<polygon fill="green" stroke="green" stroke-width="0.508798" points="56.4187,-46.0162 48.0749,-39.4869 50.5258,-49.7944 56.4187,-46.0162"/>
</g>
<!-- 553&#45;&gt;OA -->
<g id="edge9" class="edge"><title>553&#45;&gt;OA</title>
<path fill="none" stroke="red" stroke-width="0.438511" stroke-dasharray="1,5" d="M123.881,-159.724C117.616,-149.952 109.667,-137.554 102.67,-126.641"/>
<polygon fill="red" stroke="red" stroke-width="0.438511" points="105.419,-124.443 97.0749,-117.913 99.5258,-128.221 105.419,-124.443"/>
</g>
<!-- 879&#45;&gt;879 -->
<g id="edge12" class="edge"><title>879&#45;&gt;879</title>
<path fill="none" stroke="green" stroke-width="0.248552" d="M53.9286,-34.5492C65.2212,-38.3031 76.2132,-33.8577 76.2132,-21.2132 76.2132,-12.5201 71.0178,-7.70237 64.1011,-6.76005"/>
<polygon fill="green" stroke="green" stroke-width="0.248552" points="63.4868,-3.30638 53.9286,-7.87717 64.2509,-10.2645 63.4868,-3.30638"/>
</g>
<!-- 693&#45;&gt;553 -->
<g id="edge14" class="edge"><title>693&#45;&gt;553</title>
<path fill="none" stroke="red" stroke-width="0.343836" d="M163.801,-236.992C159.274,-227.886 153.724,-216.723 148.708,-206.636"/>
<polygon fill="red" stroke="red" stroke-width="0.343836" points="151.7,-204.792 144.114,-197.396 145.432,-207.909 151.7,-204.792"/>
</g>
<!-- 693&#45;&gt;693 -->
<g id="edge4" class="edge"><title>693&#45;&gt;693</title>
<path fill="none" stroke="green" stroke-width="0.20193" d="M191.151,-268.094C202.001,-270.672 212.213,-266.805 212.213,-256.492 212.213,-249.564 207.603,-245.545 201.288,-244.435"/>
<polygon fill="green" stroke="green" stroke-width="0.20193" points="200.984,-240.945 191.151,-244.891 201.299,-247.938 200.984,-240.945"/>
</g>
<!-- 568&#45;&gt;OA -->
<g id="edge2" class="edge"><title>568&#45;&gt;OA</title>
<path fill="none" stroke="green" stroke-width="2.3848" d="M48.1189,-159.724C54.3838,-149.952 62.3327,-137.554 69.3296,-126.641"/>
<polygon fill="green" stroke="green" stroke-width="2.3848" points="72.4742,-128.221 74.9251,-117.913 66.5813,-124.443 72.4742,-128.221"/>
</g>
<!-- 731&#45;&gt;OA -->
<g id="edge8" class="edge"><title>731&#45;&gt;OA</title>
<path fill="none" stroke="green" stroke-width="0.22441" d="M199.923,-166.6C177.535,-153.638 139.188,-131.435 113.232,-116.407"/>
<polygon fill="green" stroke="green" stroke-width="0.22441" points="114.69,-113.207 104.283,-111.225 111.183,-119.265 114.69,-113.207"/>
</g>
</g>
</svg>
