<?xml version="1.0" encoding="utf-8" standalone="no"?>
<!DOCTYPE svg PUBLIC "-//W3C//DTD SVG 1.1//EN"
  "http://www.w3.org/Graphics/SVG/1.1/DTD/svg11.dtd">
<!-- Created with matplotlib (https://matplotlib.org/) -->
<svg height="345.6pt" version="1.1" viewBox="0 0 460.8 345.6" width="460.8pt" xmlns="http://www.w3.org/2000/svg" xmlns:xlink="http://www.w3.org/1999/xlink">
 <defs>
  <style type="text/css">
*{stroke-linecap:butt;stroke-linejoin:round;}
  </style>
 </defs>
 <g id="figure_1">
  <g id="patch_1">
   <path d="M 0 345.6 
L 460.8 345.6 
L 460.8 0 
L 0 0 
z
" style="fill:#ffffff;"/>
  </g>
  <g id="axes_1">
   <g id="patch_2">
    <path d="M 57.6 307.584 
L 414.72 307.584 
L 414.72 41.472 
L 57.6 41.472 
z
" style="fill:#ffffff;"/>
   </g>
   <g id="PolyCollection_1">
    <path clip-path="url(#pdb4ff082c1)" d="M 73.832727 53.568 
L 73.832727 295.488 
L 74.157707 295.488 
L 74.482686 295.488 
L 74.807666 295.488 
L 75.132645 295.488 
L 75.457625 295.488 
L 75.782604 295.488 
L 76.107584 295.488 
L 76.432563 295.488 
L 76.757543 295.488 
L 77.082523 295.488 
L 77.407502 295.488 
L 77.732482 295.488 
L 78.057461 295.488 
L 78.382441 295.488 
L 78.70742 295.488 
L 79.0324 295.488 
L 79.357379 295.488 
L 79.682359 295.488 
L 80.007338 295.488 
L 80.332318 295.488 
L 80.657297 295.488 
L 80.982277 295.488 
L 81.307256 295.488 
L 81.632236 295.488 
L 81.957215 295.488 
L 82.282195 295.488 
L 82.607174 295.488 
L 82.932154 295.488 
L 83.257133 295.488 
L 83.582113 295.488 
L 83.907093 295.488 
L 84.232072 295.488 
L 84.557052 295.488 
L 84.882031 295.488 
L 85.207011 295.488 
L 85.53199 295.488 
L 85.85697 295.488 
L 86.181949 295.488 
L 86.506929 295.488 
L 86.831908 295.488 
L 87.156888 295.488 
L 87.481867 295.488 
L 87.806847 295.488 
L 88.131826 295.488 
L 88.456806 295.488 
L 88.781785 295.488 
L 89.106765 295.488 
L 89.431744 295.488 
L 89.756724 295.488 
L 90.081704 295.488 
L 90.406683 295.488 
L 90.731663 295.488 
L 91.056642 295.488 
L 91.381622 295.488 
L 91.706601 295.488 
L 92.031581 295.488 
L 92.35656 295.488 
L 92.68154 295.488 
L 93.006519 295.488 
L 93.331499 295.488 
L 93.656478 295.488 
L 93.981458 295.488 
L 94.306437 295.488 
L 94.631417 295.488 
L 94.956396 295.488 
L 95.281376 295.488 
L 95.606355 295.488 
L 95.931335 295.488 
L 96.256314 295.488 
L 96.581294 295.488 
L 96.906274 295.488 
L 97.231253 295.488 
L 97.556233 295.488 
L 97.881212 295.488 
L 98.206192 295.488 
L 98.531171 295.488 
L 98.856151 295.488 
L 99.18113 295.488 
L 99.50611 295.488 
L 99.831089 295.488 
L 100.156069 295.488 
L 100.481048 295.488 
L 100.806028 295.488 
L 101.131007 295.488 
L 101.455987 295.488 
L 101.780966 295.488 
L 102.105946 295.488 
L 102.430925 295.488 
L 102.755905 295.488 
L 103.080885 295.488 
L 103.405864 295.488 
L 103.730844 295.488 
L 104.055823 295.488 
L 104.380803 295.488 
L 104.705782 295.488 
L 105.030762 295.488 
L 105.355741 295.488 
L 105.680721 295.488 
L 106.0057 295.488 
L 106.33068 295.488 
L 106.655659 295.488 
L 106.980639 295.488 
L 107.305618 295.488 
L 107.630598 295.488 
L 107.955577 295.488 
L 108.280557 295.488 
L 108.605536 295.488 
L 108.930516 295.488 
L 109.255495 295.488 
L 109.580475 295.488 
L 109.905455 295.488 
L 110.230434 295.488 
L 110.555414 295.488 
L 110.880393 295.488 
L 111.205373 295.488 
L 111.530352 295.488 
L 111.855332 295.488 
L 112.180311 295.488 
L 112.505291 295.488 
L 112.83027 295.488 
L 113.15525 295.488 
L 113.480229 295.488 
L 113.805209 295.488 
L 114.130188 295.488 
L 114.455168 295.488 
L 114.780147 295.488 
L 115.105127 295.488 
L 115.430106 295.488 
L 115.755086 295.488 
L 116.080066 295.488 
L 116.405045 295.488 
L 116.730025 295.488 
L 117.055004 295.488 
L 117.379984 295.488 
L 117.704963 295.488 
L 118.029943 295.488 
L 118.354922 295.488 
L 118.679902 295.488 
L 119.004881 295.488 
L 119.329861 295.488 
L 119.65484 295.488 
L 119.97982 295.488 
L 120.304799 295.488 
L 120.629779 295.488 
L 120.954758 295.488 
L 121.279738 295.488 
L 121.604717 295.488 
L 121.929697 295.488 
L 122.254676 295.488 
L 122.579656 295.488 
L 122.904636 295.488 
L 123.229615 295.488 
L 123.554595 295.488 
L 123.879574 295.488 
L 124.204554 295.488 
L 124.529533 295.488 
L 124.854513 295.488 
L 125.179492 295.488 
L 125.504472 295.488 
L 125.829451 295.488 
L 126.154431 295.488 
L 126.47941 295.488 
L 126.80439 295.488 
L 127.129369 295.488 
L 127.454349 295.488 
L 127.779328 295.488 
L 128.104308 295.488 
L 128.429287 295.488 
L 128.754267 295.488 
L 129.079247 295.488 
L 129.404226 295.488 
L 129.729206 295.488 
L 130.054185 295.488 
L 130.379165 295.488 
L 130.704144 295.488 
L 131.029124 295.488 
L 131.354103 295.488 
L 131.679083 295.488 
L 132.004062 295.488 
L 132.329042 295.488 
L 132.654021 295.488 
L 132.979001 295.488 
L 133.30398 295.488 
L 133.62896 295.488 
L 133.953939 295.488 
L 134.278919 295.488 
L 134.603898 295.488 
L 134.928878 295.488 
L 135.253857 295.488 
L 135.578837 295.488 
L 135.903817 295.488 
L 136.228796 295.488 
L 136.553776 295.488 
L 136.878755 295.488 
L 137.203735 295.488 
L 137.528714 295.488 
L 137.853694 295.488 
L 138.178673 295.488 
L 138.503653 295.488 
L 138.828632 295.488 
L 139.153612 295.488 
L 139.478591 295.488 
L 139.803571 295.488 
L 140.12855 295.488 
L 140.45353 295.488 
L 140.778509 295.488 
L 141.103489 295.488 
L 141.428468 295.488 
L 141.753448 295.488 
L 142.078428 295.488 
L 142.403407 295.488 
L 142.728387 295.488 
L 143.053366 295.488 
L 143.378346 295.488 
L 143.703325 295.488 
L 144.028305 295.488 
L 144.353284 295.488 
L 144.678264 295.488 
L 145.003243 295.488 
L 145.328223 295.488 
L 145.653202 295.488 
L 145.978182 295.488 
L 146.303161 295.488 
L 146.628141 295.488 
L 146.95312 295.488 
L 147.2781 295.488 
L 147.603079 295.488 
L 147.928059 295.488 
L 148.253038 295.488 
L 148.578018 295.488 
L 148.902998 295.488 
L 149.227977 295.488 
L 149.552957 295.488 
L 149.877936 295.488 
L 150.202916 295.488 
L 150.527895 295.488 
L 150.852875 295.488 
L 151.177854 295.488 
L 151.502834 295.488 
L 151.827813 295.488 
L 152.152793 295.488 
L 152.477772 295.488 
L 152.802752 295.488 
L 153.127731 295.488 
L 153.452711 295.488 
L 153.77769 295.488 
L 154.10267 295.488 
L 154.427649 295.488 
L 154.752629 295.488 
L 155.077609 295.488 
L 155.402588 295.488 
L 155.727568 295.488 
L 156.052547 295.488 
L 156.377527 295.488 
L 156.702506 295.488 
L 157.027486 295.488 
L 157.352465 295.488 
L 157.677445 295.488 
L 158.002424 295.488 
L 158.327404 295.488 
L 158.652383 295.488 
L 158.977363 295.488 
L 159.302342 295.488 
L 159.627322 295.488 
L 159.952301 295.488 
L 160.277281 295.488 
L 160.60226 295.488 
L 160.92724 295.488 
L 161.252219 295.488 
L 161.577199 295.488 
L 161.902179 295.488 
L 162.227158 295.488 
L 162.552138 295.488 
L 162.877117 295.488 
L 163.202097 295.488 
L 163.527076 295.488 
L 163.852056 295.488 
L 164.177035 295.488 
L 164.502015 295.488 
L 164.826994 295.488 
L 165.151974 295.488 
L 165.476953 295.488 
L 165.801933 295.488 
L 166.126912 295.488 
L 166.451892 295.488 
L 166.776871 295.488 
L 167.101851 295.488 
L 167.42683 295.488 
L 167.75181 295.488 
L 168.07679 295.488 
L 168.401769 295.488 
L 168.726749 295.488 
L 169.051728 295.488 
L 169.376708 295.488 
L 169.701687 295.488 
L 170.026667 295.488 
L 170.351646 295.488 
L 170.676626 295.488 
L 171.001605 295.488 
L 171.326585 295.488 
L 171.651564 295.488 
L 171.976544 295.488 
L 172.301523 295.488 
L 172.626503 295.488 
L 172.951482 295.488 
L 173.276462 295.488 
L 173.601441 295.488 
L 173.926421 295.488 
L 174.2514 295.488 
L 174.57638 295.488 
L 174.90136 295.488 
L 175.226339 295.488 
L 175.551319 295.488 
L 175.876298 295.488 
L 176.201278 295.488 
L 176.526257 295.488 
L 176.851237 295.488 
L 177.176216 295.488 
L 177.501196 295.488 
L 177.826175 295.488 
L 178.151155 295.488 
L 178.476134 295.488 
L 178.801114 295.488 
L 179.126093 295.488 
L 179.451073 295.488 
L 179.776052 295.488 
L 180.101032 295.488 
L 180.426011 295.488 
L 180.750991 295.488 
L 181.075971 295.488 
L 181.40095 295.488 
L 181.72593 295.488 
L 182.050909 295.488 
L 182.375889 295.488 
L 182.700868 295.488 
L 183.025848 295.488 
L 183.350827 295.488 
L 183.675807 295.488 
L 184.000786 295.488 
L 184.325766 295.488 
L 184.650745 295.488 
L 184.975725 295.488 
L 185.300704 295.488 
L 185.625684 295.488 
L 185.950663 295.488 
L 186.275643 295.488 
L 186.600622 295.488 
L 186.925602 295.488 
L 187.250581 295.488 
L 187.575561 295.488 
L 187.900541 295.488 
L 188.22552 295.488 
L 188.5505 295.488 
L 188.875479 295.488 
L 189.200459 295.488 
L 189.525438 295.488 
L 189.850418 295.488 
L 190.175397 295.488 
L 190.500377 295.488 
L 190.825356 295.488 
L 191.150336 295.488 
L 191.475315 295.488 
L 191.800295 295.488 
L 192.125274 295.488 
L 192.450254 295.488 
L 192.775233 295.488 
L 193.100213 295.488 
L 193.425192 295.488 
L 193.750172 295.488 
L 194.075152 295.488 
L 194.400131 295.488 
L 194.725111 295.488 
L 195.05009 295.488 
L 195.37507 295.488 
L 195.700049 295.488 
L 196.025029 295.488 
L 196.350008 295.488 
L 196.674988 295.488 
L 196.999967 295.488 
L 197.324947 295.488 
L 197.649926 295.488 
L 197.974906 295.488 
L 198.299885 295.488 
L 198.624865 295.488 
L 198.949844 295.488 
L 199.274824 295.488 
L 199.599803 295.488 
L 199.924783 295.488 
L 200.249762 295.488 
L 200.574742 295.488 
L 200.899722 295.488 
L 201.224701 295.488 
L 201.549681 295.488 
L 201.87466 295.488 
L 202.19964 295.488 
L 202.524619 295.488 
L 202.849599 295.488 
L 203.174578 295.488 
L 203.499558 295.488 
L 203.824537 295.488 
L 204.149517 295.488 
L 204.474496 295.488 
L 204.799476 295.488 
L 205.124455 295.488 
L 205.449435 295.488 
L 205.774414 295.488 
L 206.099394 295.488 
L 206.424373 295.488 
L 206.749353 295.488 
L 207.074333 295.488 
L 207.399312 295.488 
L 207.724292 295.488 
L 208.049271 295.488 
L 208.374251 295.488 
L 208.69923 295.488 
L 209.02421 295.488 
L 209.349189 295.488 
L 209.674169 295.488 
L 209.999148 295.488 
L 210.324128 295.488 
L 210.649107 295.488 
L 210.974087 295.488 
L 211.299066 295.488 
L 211.624046 295.488 
L 211.949025 295.488 
L 212.274005 295.488 
L 212.598984 295.488 
L 212.923964 295.488 
L 213.248943 295.488 
L 213.573923 295.488 
L 213.898903 295.488 
L 214.223882 295.488 
L 214.548862 295.488 
L 214.873841 295.488 
L 215.198821 295.488 
L 215.5238 295.488 
L 215.84878 295.488 
L 216.173759 295.488 
L 216.498739 295.488 
L 216.823718 295.488 
L 217.148698 295.488 
L 217.473677 295.488 
L 217.798657 295.488 
L 218.123636 295.488 
L 218.448616 295.488 
L 218.773595 295.488 
L 219.098575 295.488 
L 219.423554 295.488 
L 219.748534 295.488 
L 220.073514 295.488 
L 220.398493 295.488 
L 220.723473 295.488 
L 221.048452 295.488 
L 221.373432 295.488 
L 221.698411 295.488 
L 222.023391 295.488 
L 222.34837 295.488 
L 222.67335 295.488 
L 222.998329 295.488 
L 223.323309 295.488 
L 223.648288 295.488 
L 223.973268 295.488 
L 224.298247 295.488 
L 224.623227 295.488 
L 224.948206 295.488 
L 225.273186 295.488 
L 225.598165 295.488 
L 225.923145 295.488 
L 226.248124 295.488 
L 226.573104 295.488 
L 226.898084 295.488 
L 227.223063 295.488 
L 227.548043 295.488 
L 227.873022 295.488 
L 228.198002 295.488 
L 228.522981 295.488 
L 228.847961 295.488 
L 229.17294 295.488 
L 229.49792 295.488 
L 229.822899 295.488 
L 230.147879 295.488 
L 230.472858 295.488 
L 230.797838 295.488 
L 231.122817 295.488 
L 231.447797 295.488 
L 231.772776 295.488 
L 232.097756 295.488 
L 232.422735 295.488 
L 232.747715 295.488 
L 233.072695 295.488 
L 233.397674 295.488 
L 233.722654 295.488 
L 234.047633 295.488 
L 234.372613 295.488 
L 234.697592 295.488 
L 235.022572 295.488 
L 235.347551 295.488 
L 235.672531 295.488 
L 235.99751 295.488 
L 236.32249 295.488 
L 236.647469 295.488 
L 236.972449 295.488 
L 237.297428 295.488 
L 237.622408 295.488 
L 237.947387 295.488 
L 238.272367 295.488 
L 238.597346 295.488 
L 238.922326 295.488 
L 239.247305 295.488 
L 239.572285 295.488 
L 239.897265 295.488 
L 240.222244 295.488 
L 240.547224 295.488 
L 240.872203 295.488 
L 241.197183 295.488 
L 241.522162 295.488 
L 241.847142 295.488 
L 242.172121 295.488 
L 242.497101 295.488 
L 242.82208 295.488 
L 243.14706 295.488 
L 243.472039 295.488 
L 243.797019 295.488 
L 244.121998 295.488 
L 244.446978 295.488 
L 244.771957 295.488 
L 245.096937 295.488 
L 245.421916 295.488 
L 245.746896 295.488 
L 246.071876 295.488 
L 246.396855 295.488 
L 246.721835 295.488 
L 247.046814 295.488 
L 247.371794 295.488 
L 247.696773 295.488 
L 248.021753 295.488 
L 248.346732 295.488 
L 248.671712 295.488 
L 248.996691 295.488 
L 249.321671 295.488 
L 249.64665 295.488 
L 249.97163 295.488 
L 250.296609 295.488 
L 250.621589 295.488 
L 250.946568 295.488 
L 251.271548 295.488 
L 251.596527 295.488 
L 251.921507 295.488 
L 252.246486 295.488 
L 252.571466 295.488 
L 252.896446 295.488 
L 253.221425 295.488 
L 253.546405 295.488 
L 253.871384 295.488 
L 254.196364 295.488 
L 254.521343 295.488 
L 254.846323 295.488 
L 255.171302 295.488 
L 255.496282 295.488 
L 255.821261 295.488 
L 256.146241 295.488 
L 256.47122 295.488 
L 256.7962 295.488 
L 257.121179 295.488 
L 257.446159 295.488 
L 257.771138 295.488 
L 258.096118 295.488 
L 258.421097 295.488 
L 258.746077 295.488 
L 259.071057 295.488 
L 259.396036 295.488 
L 259.721016 295.488 
L 260.045995 295.488 
L 260.370975 295.488 
L 260.695954 295.488 
L 261.020934 295.488 
L 261.345913 295.488 
L 261.670893 295.488 
L 261.995872 295.488 
L 262.320852 295.488 
L 262.645831 295.488 
L 262.970811 295.488 
L 263.29579 295.488 
L 263.62077 295.488 
L 263.945749 295.488 
L 264.270729 295.488 
L 264.595708 295.488 
L 264.920688 295.488 
L 265.245667 295.488 
L 265.570647 295.488 
L 265.895627 295.488 
L 266.220606 295.488 
L 266.545586 295.488 
L 266.870565 295.488 
L 267.195545 295.488 
L 267.520524 295.488 
L 267.845504 295.488 
L 268.170483 295.488 
L 268.495463 295.488 
L 268.820442 295.488 
L 269.145422 295.488 
L 269.470401 295.488 
L 269.795381 295.488 
L 270.12036 295.488 
L 270.44534 295.488 
L 270.770319 295.488 
L 271.095299 295.488 
L 271.420278 295.488 
L 271.745258 295.488 
L 272.070238 295.488 
L 272.395217 295.488 
L 272.720197 295.488 
L 273.045176 295.488 
L 273.370156 295.488 
L 273.695135 295.488 
L 274.020115 295.488 
L 274.345094 295.488 
L 274.670074 295.488 
L 274.995053 295.488 
L 275.320033 295.488 
L 275.645012 295.488 
L 275.969992 295.488 
L 276.294971 295.488 
L 276.619951 295.488 
L 276.94493 295.488 
L 277.26991 295.488 
L 277.594889 295.488 
L 277.919869 295.488 
L 278.244848 295.488 
L 278.569828 295.488 
L 278.894808 295.488 
L 279.219787 295.488 
L 279.544767 295.488 
L 279.869746 295.488 
L 280.194726 295.488 
L 280.519705 295.488 
L 280.844685 295.488 
L 281.169664 295.488 
L 281.494644 295.488 
L 281.819623 295.488 
L 282.144603 295.488 
L 282.469582 295.488 
L 282.794562 295.488 
L 283.119541 295.488 
L 283.444521 295.488 
L 283.7695 295.488 
L 284.09448 295.488 
L 284.419459 295.488 
L 284.744439 295.488 
L 285.069419 295.488 
L 285.394398 295.488 
L 285.719378 295.488 
L 286.044357 295.488 
L 286.369337 295.488 
L 286.694316 295.488 
L 287.019296 295.488 
L 287.344275 295.488 
L 287.669255 295.488 
L 287.994234 295.488 
L 288.319214 295.488 
L 288.644193 295.488 
L 288.969173 295.488 
L 289.294152 295.488 
L 289.619132 295.488 
L 289.944111 295.488 
L 290.269091 295.488 
L 290.59407 295.488 
L 290.91905 295.488 
L 291.244029 295.488 
L 291.569009 295.488 
L 291.893989 295.488 
L 292.218968 295.488 
L 292.543948 295.488 
L 292.868927 295.488 
L 293.193907 295.488 
L 293.518886 295.488 
L 293.843866 295.488 
L 294.168845 295.488 
L 294.493825 295.488 
L 294.818804 295.488 
L 295.143784 295.488 
L 295.468763 295.488 
L 295.793743 295.488 
L 296.118722 295.488 
L 296.443702 295.488 
L 296.768681 295.488 
L 297.093661 295.488 
L 297.41864 295.488 
L 297.74362 295.488 
L 298.0686 295.488 
L 298.393579 295.488 
L 298.718559 295.488 
L 299.043538 295.488 
L 299.368518 295.488 
L 299.693497 295.488 
L 300.018477 295.488 
L 300.343456 295.488 
L 300.668436 295.488 
L 300.993415 295.488 
L 301.318395 295.488 
L 301.643374 295.488 
L 301.968354 295.488 
L 302.293333 295.488 
L 302.618313 295.488 
L 302.943292 295.488 
L 303.268272 295.488 
L 303.593251 295.488 
L 303.918231 295.488 
L 304.24321 295.488 
L 304.56819 295.488 
L 304.89317 295.488 
L 305.218149 295.488 
L 305.543129 295.488 
L 305.868108 295.488 
L 306.193088 295.488 
L 306.518067 295.488 
L 306.843047 295.488 
L 307.168026 295.488 
L 307.493006 295.488 
L 307.817985 295.488 
L 308.142965 295.488 
L 308.467944 295.488 
L 308.792924 295.488 
L 309.117903 295.488 
L 309.442883 295.488 
L 309.767862 295.488 
L 310.092842 295.488 
L 310.417821 295.488 
L 310.742801 295.488 
L 311.067781 295.488 
L 311.39276 295.488 
L 311.71774 295.488 
L 312.042719 295.488 
L 312.367699 295.488 
L 312.692678 295.488 
L 313.017658 295.488 
L 313.342637 295.488 
L 313.667617 295.488 
L 313.992596 295.488 
L 314.317576 295.488 
L 314.642555 295.488 
L 314.967535 295.488 
L 315.292514 295.488 
L 315.617494 295.488 
L 315.942473 295.488 
L 316.267453 295.488 
L 316.592432 295.488 
L 316.917412 295.488 
L 317.242391 295.488 
L 317.567371 295.488 
L 317.892351 295.488 
L 318.21733 295.488 
L 318.54231 295.488 
L 318.867289 295.488 
L 319.192269 295.488 
L 319.517248 295.488 
L 319.842228 295.488 
L 320.167207 295.488 
L 320.492187 295.488 
L 320.817166 295.488 
L 321.142146 295.488 
L 321.467125 295.488 
L 321.792105 295.488 
L 322.117084 295.488 
L 322.442064 295.488 
L 322.767043 295.488 
L 323.092023 295.488 
L 323.417002 295.488 
L 323.741982 295.488 
L 324.066962 295.488 
L 324.391941 295.488 
L 324.716921 295.488 
L 325.0419 295.488 
L 325.36688 295.488 
L 325.691859 295.488 
L 326.016839 295.488 
L 326.341818 295.488 
L 326.666798 295.488 
L 326.991777 295.488 
L 327.316757 295.488 
L 327.641736 295.488 
L 327.966716 295.488 
L 328.291695 295.488 
L 328.616675 295.488 
L 328.941654 295.488 
L 329.266634 295.488 
L 329.591613 295.488 
L 329.916593 295.488 
L 330.241572 295.488 
L 330.566552 295.488 
L 330.891532 295.488 
L 331.216511 295.488 
L 331.541491 295.488 
L 331.86647 295.488 
L 332.19145 295.488 
L 332.516429 295.488 
L 332.841409 295.488 
L 333.166388 295.488 
L 333.491368 295.488 
L 333.816347 295.488 
L 334.141327 295.488 
L 334.466306 295.488 
L 334.791286 295.488 
L 335.116265 295.488 
L 335.441245 295.488 
L 335.766224 295.488 
L 336.091204 295.488 
L 336.416183 295.488 
L 336.741163 295.488 
L 337.066143 295.488 
L 337.391122 295.488 
L 337.716102 295.488 
L 338.041081 295.488 
L 338.366061 295.488 
L 338.69104 295.488 
L 339.01602 295.488 
L 339.340999 295.488 
L 339.665979 295.488 
L 339.990958 295.488 
L 340.315938 295.488 
L 340.640917 295.488 
L 340.965897 295.488 
L 341.290876 295.488 
L 341.615856 295.488 
L 341.940835 295.488 
L 342.265815 295.488 
L 342.590794 295.488 
L 342.915774 295.488 
L 343.240753 295.488 
L 343.565733 295.488 
L 343.890713 295.488 
L 344.215692 295.488 
L 344.540672 295.488 
L 344.865651 295.488 
L 345.190631 295.488 
L 345.51561 295.488 
L 345.84059 295.488 
L 346.165569 295.488 
L 346.490549 295.488 
L 346.815528 295.488 
L 347.140508 295.488 
L 347.465487 295.488 
L 347.790467 295.488 
L 348.115446 295.488 
L 348.440426 295.488 
L 348.765405 295.488 
L 349.090385 295.488 
L 349.415364 295.488 
L 349.740344 295.488 
L 350.065324 295.488 
L 350.390303 295.488 
L 350.715283 295.488 
L 351.040262 295.488 
L 351.365242 295.488 
L 351.690221 295.488 
L 352.015201 295.488 
L 352.34018 295.488 
L 352.66516 295.488 
L 352.990139 295.488 
L 353.315119 295.488 
L 353.640098 295.488 
L 353.965078 295.488 
L 354.290057 295.488 
L 354.615037 295.488 
L 354.940016 295.488 
L 355.264996 295.488 
L 355.589975 295.488 
L 355.914955 295.488 
L 356.239934 295.488 
L 356.564914 295.488 
L 356.889894 295.488 
L 357.214873 295.488 
L 357.539853 295.488 
L 357.864832 295.488 
L 358.189812 295.488 
L 358.514791 295.488 
L 358.839771 295.488 
L 359.16475 295.488 
L 359.48973 295.488 
L 359.814709 295.488 
L 360.139689 295.488 
L 360.464668 295.488 
L 360.789648 295.488 
L 361.114627 295.488 
L 361.439607 295.488 
L 361.764586 295.488 
L 362.089566 295.488 
L 362.414545 295.488 
L 362.739525 295.488 
L 363.064505 295.488 
L 363.389484 295.488 
L 363.714464 295.488 
L 364.039443 295.488 
L 364.364423 295.488 
L 364.689402 295.488 
L 365.014382 295.488 
L 365.339361 295.488 
L 365.664341 295.488 
L 365.98932 295.488 
L 366.3143 295.488 
L 366.639279 295.488 
L 366.964259 295.488 
L 367.289238 295.488 
L 367.614218 295.488 
L 367.939197 295.488 
L 368.264177 295.488 
L 368.589156 295.488 
L 368.914136 295.488 
L 369.239115 295.488 
L 369.564095 295.488 
L 369.889075 295.488 
L 370.214054 295.488 
L 370.539034 295.488 
L 370.864013 295.488 
L 371.188993 295.488 
L 371.513972 295.488 
L 371.838952 295.488 
L 372.163931 295.488 
L 372.488911 295.488 
L 372.81389 295.488 
L 373.13887 295.488 
L 373.463849 295.488 
L 373.788829 295.488 
L 374.113808 295.488 
L 374.438788 295.488 
L 374.763767 295.488 
L 375.088747 295.488 
L 375.413726 295.488 
L 375.738706 295.488 
L 376.063686 295.488 
L 376.388665 295.488 
L 376.713645 295.488 
L 377.038624 295.488 
L 377.363604 295.488 
L 377.688583 295.488 
L 378.013563 295.488 
L 378.338542 295.488 
L 378.663522 295.488 
L 378.988501 295.488 
L 379.313481 295.488 
L 379.63846 295.488 
L 379.96344 295.488 
L 380.288419 295.488 
L 380.613399 295.488 
L 380.938378 295.488 
L 381.263358 295.488 
L 381.588337 295.488 
L 381.913317 295.488 
L 382.238296 295.488 
L 382.563276 295.488 
L 382.888256 295.488 
L 383.213235 295.488 
L 383.538215 295.488 
L 383.863194 295.488 
L 384.188174 295.488 
L 384.513153 295.488 
L 384.838133 295.488 
L 385.163112 295.488 
L 385.488092 295.488 
L 385.813071 295.488 
L 386.138051 295.488 
L 386.46303 295.488 
L 386.78801 295.488 
L 387.112989 295.488 
L 387.437969 295.488 
L 387.762948 295.488 
L 388.087928 295.488 
L 388.412907 295.488 
L 388.737887 295.488 
L 389.062867 295.488 
L 389.387846 295.488 
L 389.712826 295.488 
L 390.037805 295.488 
L 390.362785 295.488 
L 390.687764 295.488 
L 391.012744 295.488 
L 391.337723 295.488 
L 391.662703 295.488 
L 391.987682 295.488 
L 392.312662 295.488 
L 392.637641 295.488 
L 392.962621 295.488 
L 393.2876 295.488 
L 393.61258 295.488 
L 393.937559 295.488 
L 394.262539 295.488 
L 394.587518 295.488 
L 394.912498 295.488 
L 395.237477 295.488 
L 395.562457 295.488 
L 395.887437 295.488 
L 396.212416 295.488 
L 396.537396 295.488 
L 396.862375 295.488 
L 397.187355 295.488 
L 397.512334 295.488 
L 397.837314 295.488 
L 398.162293 295.488 
L 398.487273 295.488 
L 398.487273 53.568 
L 398.487273 53.568 
L 398.162293 53.568 
L 397.837314 53.568 
L 397.512334 53.568 
L 397.187355 53.568 
L 396.862375 53.568 
L 396.537396 53.568 
L 396.212416 53.568 
L 395.887437 53.568 
L 395.562457 53.568 
L 395.237477 53.568 
L 394.912498 53.568 
L 394.587518 53.568 
L 394.262539 53.568 
L 393.937559 53.568 
L 393.61258 53.568 
L 393.2876 53.568 
L 392.962621 53.568 
L 392.637641 53.568 
L 392.312662 53.568 
L 391.987682 53.568 
L 391.662703 53.568 
L 391.337723 53.568 
L 391.012744 53.568 
L 390.687764 53.568 
L 390.362785 53.568 
L 390.037805 53.568 
L 389.712826 53.568 
L 389.387846 53.568 
L 389.062867 53.568 
L 388.737887 53.568 
L 388.412907 53.568 
L 388.087928 53.568 
L 387.762948 53.568 
L 387.437969 53.568 
L 387.112989 53.568 
L 386.78801 53.568 
L 386.46303 53.568 
L 386.138051 53.568 
L 385.813071 53.568 
L 385.488092 53.568 
L 385.163112 53.568 
L 384.838133 53.568 
L 384.513153 53.568 
L 384.188174 53.568 
L 383.863194 53.568 
L 383.538215 53.568 
L 383.213235 53.568 
L 382.888256 53.568 
L 382.563276 53.568 
L 382.238296 53.568 
L 381.913317 53.568 
L 381.588337 53.568 
L 381.263358 53.568 
L 380.938378 53.568 
L 380.613399 53.568 
L 380.288419 53.568 
L 379.96344 53.568 
L 379.63846 53.568 
L 379.313481 53.568 
L 378.988501 53.568 
L 378.663522 53.568 
L 378.338542 53.568 
L 378.013563 53.568 
L 377.688583 53.568 
L 377.363604 53.568 
L 377.038624 53.568 
L 376.713645 53.568 
L 376.388665 53.568 
L 376.063686 53.568 
L 375.738706 53.568 
L 375.413726 53.568 
L 375.088747 53.568 
L 374.763767 53.568 
L 374.438788 53.568 
L 374.113808 53.568 
L 373.788829 53.568 
L 373.463849 53.568 
L 373.13887 53.568 
L 372.81389 53.568 
L 372.488911 53.568 
L 372.163931 53.568 
L 371.838952 53.568 
L 371.513972 53.568 
L 371.188993 53.568 
L 370.864013 53.568 
L 370.539034 53.568 
L 370.214054 53.568 
L 369.889075 53.568 
L 369.564095 53.568 
L 369.239115 53.568 
L 368.914136 53.568 
L 368.589156 53.568 
L 368.264177 53.568 
L 367.939197 53.568 
L 367.614218 53.568 
L 367.289238 53.568 
L 366.964259 53.568 
L 366.639279 53.568 
L 366.3143 53.568 
L 365.98932 53.568 
L 365.664341 53.568 
L 365.339361 53.568 
L 365.014382 53.568 
L 364.689402 53.568 
L 364.364423 53.568 
L 364.039443 53.568 
L 363.714464 53.568 
L 363.389484 53.568 
L 363.064505 53.568 
L 362.739525 53.568 
L 362.414545 53.568 
L 362.089566 53.568 
L 361.764586 53.568 
L 361.439607 53.568 
L 361.114627 53.568 
L 360.789648 53.568 
L 360.464668 53.568 
L 360.139689 53.568 
L 359.814709 53.568 
L 359.48973 53.568 
L 359.16475 53.568 
L 358.839771 53.568 
L 358.514791 53.568 
L 358.189812 53.568 
L 357.864832 53.568 
L 357.539853 53.568 
L 357.214873 53.568 
L 356.889894 53.568 
L 356.564914 53.568 
L 356.239934 53.568 
L 355.914955 53.568 
L 355.589975 53.568 
L 355.264996 53.568 
L 354.940016 53.568 
L 354.615037 53.568 
L 354.290057 53.568 
L 353.965078 53.568 
L 353.640098 53.568 
L 353.315119 53.568 
L 352.990139 53.568 
L 352.66516 53.568 
L 352.34018 53.568 
L 352.015201 53.568 
L 351.690221 53.568 
L 351.365242 53.568 
L 351.040262 53.568 
L 350.715283 53.568 
L 350.390303 53.568 
L 350.065324 53.568 
L 349.740344 53.568 
L 349.415364 53.568 
L 349.090385 53.568 
L 348.765405 53.568 
L 348.440426 53.568 
L 348.115446 53.568 
L 347.790467 53.568 
L 347.465487 53.568 
L 347.140508 53.568 
L 346.815528 53.568 
L 346.490549 53.568 
L 346.165569 53.568 
L 345.84059 53.568 
L 345.51561 53.568 
L 345.190631 53.568 
L 344.865651 53.568 
L 344.540672 53.568 
L 344.215692 53.568 
L 343.890713 53.568 
L 343.565733 53.568 
L 343.240753 53.568 
L 342.915774 53.568 
L 342.590794 53.568 
L 342.265815 53.568 
L 341.940835 53.568 
L 341.615856 53.568 
L 341.290876 53.568 
L 340.965897 53.568 
L 340.640917 53.568 
L 340.315938 53.568 
L 339.990958 53.568 
L 339.665979 53.568 
L 339.340999 53.568 
L 339.01602 53.568 
L 338.69104 53.568 
L 338.366061 53.568 
L 338.041081 53.568 
L 337.716102 53.568 
L 337.391122 53.568 
L 337.066143 53.568 
L 336.741163 53.568 
L 336.416183 53.568 
L 336.091204 53.568 
L 335.766224 53.568 
L 335.441245 53.568 
L 335.116265 53.568 
L 334.791286 53.568 
L 334.466306 53.568 
L 334.141327 53.568 
L 333.816347 53.568 
L 333.491368 53.568 
L 333.166388 53.568 
L 332.841409 53.568 
L 332.516429 53.568 
L 332.19145 53.568 
L 331.86647 53.568 
L 331.541491 53.568 
L 331.216511 53.568 
L 330.891532 53.568 
L 330.566552 53.568 
L 330.241572 53.568 
L 329.916593 53.568 
L 329.591613 53.568 
L 329.266634 53.568 
L 328.941654 53.568 
L 328.616675 53.568 
L 328.291695 53.568 
L 327.966716 53.568 
L 327.641736 53.568 
L 327.316757 53.568 
L 326.991777 53.568 
L 326.666798 53.568 
L 326.341818 53.568 
L 326.016839 53.568 
L 325.691859 53.568 
L 325.36688 53.568 
L 325.0419 53.568 
L 324.716921 53.568 
L 324.391941 53.568 
L 324.066962 53.568 
L 323.741982 53.568 
L 323.417002 53.568 
L 323.092023 53.568 
L 322.767043 53.568 
L 322.442064 53.568 
L 322.117084 53.568 
L 321.792105 53.568 
L 321.467125 53.568 
L 321.142146 53.568 
L 320.817166 53.568 
L 320.492187 53.568 
L 320.167207 53.568 
L 319.842228 53.568 
L 319.517248 53.568 
L 319.192269 53.568 
L 318.867289 53.568 
L 318.54231 53.568 
L 318.21733 53.568 
L 317.892351 53.568 
L 317.567371 53.568 
L 317.242391 53.568 
L 316.917412 53.568 
L 316.592432 53.568 
L 316.267453 53.568 
L 315.942473 53.568 
L 315.617494 53.568 
L 315.292514 53.568 
L 314.967535 53.568 
L 314.642555 53.568 
L 314.317576 53.568 
L 313.992596 53.568 
L 313.667617 53.568 
L 313.342637 53.568 
L 313.017658 53.568 
L 312.692678 53.568 
L 312.367699 53.568 
L 312.042719 53.568 
L 311.71774 53.568 
L 311.39276 53.568 
L 311.067781 53.568 
L 310.742801 53.568 
L 310.417821 53.568 
L 310.092842 53.568 
L 309.767862 53.568 
L 309.442883 53.568 
L 309.117903 53.568 
L 308.792924 53.568 
L 308.467944 53.568 
L 308.142965 53.568 
L 307.817985 53.568 
L 307.493006 53.568 
L 307.168026 53.568 
L 306.843047 53.568 
L 306.518067 53.568 
L 306.193088 53.568 
L 305.868108 53.568 
L 305.543129 53.568 
L 305.218149 53.568 
L 304.89317 53.568 
L 304.56819 53.568 
L 304.24321 53.568 
L 303.918231 53.568 
L 303.593251 53.568 
L 303.268272 53.568 
L 302.943292 53.568 
L 302.618313 53.568 
L 302.293333 53.568 
L 301.968354 53.568 
L 301.643374 53.568 
L 301.318395 53.568 
L 300.993415 53.568 
L 300.668436 53.568 
L 300.343456 53.568 
L 300.018477 53.568 
L 299.693497 53.568 
L 299.368518 53.568 
L 299.043538 53.568 
L 298.718559 53.568 
L 298.393579 53.568 
L 298.0686 53.568 
L 297.74362 53.568 
L 297.41864 53.568 
L 297.093661 53.568 
L 296.768681 53.568 
L 296.443702 53.568 
L 296.118722 53.568 
L 295.793743 53.568 
L 295.468763 53.568 
L 295.143784 53.568 
L 294.818804 53.568 
L 294.493825 53.568 
L 294.168845 53.568 
L 293.843866 53.568 
L 293.518886 53.568 
L 293.193907 53.568 
L 292.868927 53.568 
L 292.543948 53.568 
L 292.218968 53.568 
L 291.893989 53.568 
L 291.569009 53.568 
L 291.244029 53.568 
L 290.91905 53.568 
L 290.59407 53.568 
L 290.269091 53.568 
L 289.944111 53.568 
L 289.619132 53.568 
L 289.294152 53.568 
L 288.969173 53.568 
L 288.644193 53.568 
L 288.319214 53.568 
L 287.994234 53.568 
L 287.669255 53.568 
L 287.344275 53.568 
L 287.019296 53.568 
L 286.694316 53.568 
L 286.369337 53.568 
L 286.044357 53.568 
L 285.719378 53.568 
L 285.394398 53.568 
L 285.069419 53.568 
L 284.744439 53.568 
L 284.419459 53.568 
L 284.09448 53.568 
L 283.7695 53.568 
L 283.444521 53.568 
L 283.119541 53.568 
L 282.794562 53.568 
L 282.469582 53.568 
L 282.144603 53.568 
L 281.819623 53.568 
L 281.494644 53.568 
L 281.169664 53.568 
L 280.844685 53.568 
L 280.519705 53.568 
L 280.194726 53.568 
L 279.869746 53.568 
L 279.544767 53.568 
L 279.219787 53.568 
L 278.894808 53.568 
L 278.569828 53.568 
L 278.244848 53.568 
L 277.919869 53.568 
L 277.594889 53.568 
L 277.26991 53.568 
L 276.94493 53.568 
L 276.619951 53.568 
L 276.294971 53.568 
L 275.969992 53.568 
L 275.645012 53.568 
L 275.320033 53.568 
L 274.995053 53.568 
L 274.670074 53.568 
L 274.345094 53.568 
L 274.020115 53.568 
L 273.695135 53.568 
L 273.370156 53.568 
L 273.045176 53.568 
L 272.720197 53.568 
L 272.395217 53.568 
L 272.070238 53.568 
L 271.745258 53.568 
L 271.420278 53.568 
L 271.095299 53.568 
L 270.770319 53.568 
L 270.44534 53.568 
L 270.12036 53.568 
L 269.795381 53.568 
L 269.470401 53.568 
L 269.145422 53.568 
L 268.820442 53.568 
L 268.495463 53.568 
L 268.170483 53.568 
L 267.845504 53.568 
L 267.520524 53.568 
L 267.195545 53.568 
L 266.870565 53.568 
L 266.545586 53.568 
L 266.220606 53.568 
L 265.895627 53.568 
L 265.570647 53.568 
L 265.245667 53.568 
L 264.920688 53.568 
L 264.595708 53.568 
L 264.270729 53.568 
L 263.945749 53.568 
L 263.62077 53.568 
L 263.29579 53.568 
L 262.970811 53.568 
L 262.645831 53.568 
L 262.320852 53.568 
L 261.995872 53.568 
L 261.670893 53.568 
L 261.345913 53.568 
L 261.020934 53.568 
L 260.695954 53.568 
L 260.370975 53.568 
L 260.045995 53.568 
L 259.721016 53.568 
L 259.396036 53.568 
L 259.071057 53.568 
L 258.746077 53.568 
L 258.421097 53.568 
L 258.096118 53.568 
L 257.771138 53.568 
L 257.446159 53.568 
L 257.121179 53.568 
L 256.7962 53.568 
L 256.47122 53.568 
L 256.146241 53.568 
L 255.821261 53.568 
L 255.496282 53.568 
L 255.171302 53.568 
L 254.846323 53.568 
L 254.521343 53.568 
L 254.196364 53.568 
L 253.871384 53.568 
L 253.546405 53.568 
L 253.221425 53.568 
L 252.896446 53.568 
L 252.571466 53.568 
L 252.246486 53.568 
L 251.921507 53.568 
L 251.596527 53.568 
L 251.271548 53.568 
L 250.946568 53.568 
L 250.621589 53.568 
L 250.296609 53.568 
L 249.97163 53.568 
L 249.64665 53.568 
L 249.321671 53.568 
L 248.996691 53.568 
L 248.671712 53.568 
L 248.346732 53.568 
L 248.021753 53.568 
L 247.696773 53.568 
L 247.371794 53.568 
L 247.046814 53.568 
L 246.721835 53.568 
L 246.396855 53.568 
L 246.071876 53.568 
L 245.746896 53.568 
L 245.421916 53.568 
L 245.096937 53.568 
L 244.771957 53.568 
L 244.446978 53.568 
L 244.121998 53.568 
L 243.797019 53.568 
L 243.472039 53.568 
L 243.14706 53.568 
L 242.82208 53.568 
L 242.497101 53.568 
L 242.172121 53.568 
L 241.847142 53.568 
L 241.522162 53.568 
L 241.197183 53.568 
L 240.872203 53.568 
L 240.547224 53.568 
L 240.222244 53.568 
L 239.897265 53.568 
L 239.572285 53.568 
L 239.247305 53.568 
L 238.922326 53.568 
L 238.597346 53.568 
L 238.272367 53.568 
L 237.947387 53.568 
L 237.622408 53.568 
L 237.297428 53.568 
L 236.972449 53.568 
L 236.647469 53.568 
L 236.32249 53.568 
L 235.99751 53.568 
L 235.672531 53.568 
L 235.347551 53.568 
L 235.022572 53.568 
L 234.697592 53.568 
L 234.372613 53.568 
L 234.047633 53.568 
L 233.722654 53.568 
L 233.397674 53.568 
L 233.072695 53.568 
L 232.747715 53.568 
L 232.422735 53.568 
L 232.097756 53.568 
L 231.772776 53.568 
L 231.447797 53.568 
L 231.122817 53.568 
L 230.797838 53.568 
L 230.472858 53.568 
L 230.147879 53.568 
L 229.822899 53.568 
L 229.49792 53.568 
L 229.17294 53.568 
L 228.847961 53.568 
L 228.522981 53.568 
L 228.198002 53.568 
L 227.873022 53.568 
L 227.548043 53.568 
L 227.223063 53.568 
L 226.898084 53.568 
L 226.573104 53.568 
L 226.248124 53.568 
L 225.923145 53.568 
L 225.598165 53.568 
L 225.273186 53.568 
L 224.948206 53.568 
L 224.623227 53.568 
L 224.298247 53.568 
L 223.973268 53.568 
L 223.648288 53.568 
L 223.323309 53.568 
L 222.998329 53.568 
L 222.67335 53.568 
L 222.34837 53.568 
L 222.023391 53.568 
L 221.698411 53.568 
L 221.373432 53.568 
L 221.048452 53.568 
L 220.723473 53.568 
L 220.398493 53.568 
L 220.073514 53.568 
L 219.748534 53.568 
L 219.423554 53.568 
L 219.098575 53.568 
L 218.773595 53.568 
L 218.448616 53.568 
L 218.123636 53.568 
L 217.798657 53.568 
L 217.473677 53.568 
L 217.148698 53.568 
L 216.823718 53.568 
L 216.498739 53.568 
L 216.173759 53.568 
L 215.84878 53.568 
L 215.5238 53.568 
L 215.198821 53.568 
L 214.873841 53.568 
L 214.548862 53.568 
L 214.223882 53.568 
L 213.898903 53.568 
L 213.573923 53.568 
L 213.248943 53.568 
L 212.923964 53.568 
L 212.598984 53.568 
L 212.274005 53.568 
L 211.949025 53.568 
L 211.624046 53.568 
L 211.299066 53.568 
L 210.974087 53.568 
L 210.649107 53.568 
L 210.324128 53.568 
L 209.999148 53.568 
L 209.674169 53.568 
L 209.349189 53.568 
L 209.02421 53.568 
L 208.69923 53.568 
L 208.374251 53.568 
L 208.049271 53.568 
L 207.724292 53.568 
L 207.399312 53.568 
L 207.074333 53.568 
L 206.749353 53.568 
L 206.424373 53.568 
L 206.099394 53.568 
L 205.774414 53.568 
L 205.449435 53.568 
L 205.124455 53.568 
L 204.799476 53.568 
L 204.474496 53.568 
L 204.149517 53.568 
L 203.824537 53.568 
L 203.499558 53.568 
L 203.174578 53.568 
L 202.849599 53.568 
L 202.524619 53.568 
L 202.19964 53.568 
L 201.87466 53.568 
L 201.549681 53.568 
L 201.224701 53.568 
L 200.899722 53.568 
L 200.574742 53.568 
L 200.249762 53.568 
L 199.924783 53.568 
L 199.599803 53.568 
L 199.274824 53.568 
L 198.949844 53.568 
L 198.624865 53.568 
L 198.299885 53.568 
L 197.974906 53.568 
L 197.649926 53.568 
L 197.324947 53.568 
L 196.999967 53.568 
L 196.674988 53.568 
L 196.350008 53.568 
L 196.025029 53.568 
L 195.700049 53.568 
L 195.37507 53.568 
L 195.05009 53.568 
L 194.725111 53.568 
L 194.400131 53.568 
L 194.075152 53.568 
L 193.750172 53.568 
L 193.425192 53.568 
L 193.100213 53.568 
L 192.775233 53.568 
L 192.450254 53.568 
L 192.125274 53.568 
L 191.800295 53.568 
L 191.475315 53.568 
L 191.150336 53.568 
L 190.825356 53.568 
L 190.500377 53.568 
L 190.175397 53.568 
L 189.850418 53.568 
L 189.525438 53.568 
L 189.200459 53.568 
L 188.875479 53.568 
L 188.5505 53.568 
L 188.22552 53.568 
L 187.900541 53.568 
L 187.575561 53.568 
L 187.250581 53.568 
L 186.925602 53.568 
L 186.600622 53.568 
L 186.275643 53.568 
L 185.950663 53.568 
L 185.625684 53.568 
L 185.300704 53.568 
L 184.975725 53.568 
L 184.650745 53.568 
L 184.325766 53.568 
L 184.000786 53.568 
L 183.675807 53.568 
L 183.350827 53.568 
L 183.025848 53.568 
L 182.700868 53.568 
L 182.375889 53.568 
L 182.050909 53.568 
L 181.72593 53.568 
L 181.40095 53.568 
L 181.075971 53.568 
L 180.750991 53.568 
L 180.426011 53.568 
L 180.101032 53.568 
L 179.776052 53.568 
L 179.451073 53.568 
L 179.126093 53.568 
L 178.801114 53.568 
L 178.476134 53.568 
L 178.151155 53.568 
L 177.826175 53.568 
L 177.501196 53.568 
L 177.176216 53.568 
L 176.851237 53.568 
L 176.526257 53.568 
L 176.201278 53.568 
L 175.876298 53.568 
L 175.551319 53.568 
L 175.226339 53.568 
L 174.90136 53.568 
L 174.57638 53.568 
L 174.2514 53.568 
L 173.926421 53.568 
L 173.601441 53.568 
L 173.276462 53.568 
L 172.951482 53.568 
L 172.626503 53.568 
L 172.301523 53.568 
L 171.976544 53.568 
L 171.651564 53.568 
L 171.326585 53.568 
L 171.001605 53.568 
L 170.676626 53.568 
L 170.351646 53.568 
L 170.026667 53.568 
L 169.701687 53.568 
L 169.376708 53.568 
L 169.051728 53.568 
L 168.726749 53.568 
L 168.401769 53.568 
L 168.07679 53.568 
L 167.75181 53.568 
L 167.42683 53.568 
L 167.101851 53.568 
L 166.776871 53.568 
L 166.451892 53.568 
L 166.126912 53.568 
L 165.801933 53.568 
L 165.476953 53.568 
L 165.151974 53.568 
L 164.826994 53.568 
L 164.502015 53.568 
L 164.177035 53.568 
L 163.852056 53.568 
L 163.527076 53.568 
L 163.202097 53.568 
L 162.877117 53.568 
L 162.552138 53.568 
L 162.227158 53.568 
L 161.902179 53.568 
L 161.577199 53.568 
L 161.252219 53.568 
L 160.92724 53.568 
L 160.60226 53.568 
L 160.277281 53.568 
L 159.952301 53.568 
L 159.627322 53.568 
L 159.302342 53.568 
L 158.977363 53.568 
L 158.652383 53.568 
L 158.327404 53.568 
L 158.002424 53.568 
L 157.677445 53.568 
L 157.352465 53.568 
L 157.027486 53.568 
L 156.702506 53.568 
L 156.377527 53.568 
L 156.052547 53.568 
L 155.727568 53.568 
L 155.402588 53.568 
L 155.077609 53.568 
L 154.752629 53.568 
L 154.427649 53.568 
L 154.10267 53.568 
L 153.77769 53.568 
L 153.452711 53.568 
L 153.127731 53.568 
L 152.802752 53.568 
L 152.477772 53.568 
L 152.152793 53.568 
L 151.827813 53.568 
L 151.502834 53.568 
L 151.177854 53.568 
L 150.852875 53.568 
L 150.527895 53.568 
L 150.202916 53.568 
L 149.877936 53.568 
L 149.552957 53.568 
L 149.227977 53.568 
L 148.902998 53.568 
L 148.578018 53.568 
L 148.253038 53.568 
L 147.928059 53.568 
L 147.603079 53.568 
L 147.2781 53.568 
L 146.95312 53.568 
L 146.628141 53.568 
L 146.303161 53.568 
L 145.978182 53.568 
L 145.653202 53.568 
L 145.328223 53.568 
L 145.003243 53.568 
L 144.678264 53.568 
L 144.353284 53.568 
L 144.028305 53.568 
L 143.703325 53.568 
L 143.378346 53.568 
L 143.053366 53.568 
L 142.728387 53.568 
L 142.403407 53.568 
L 142.078428 53.568 
L 141.753448 53.568 
L 141.428468 53.568 
L 141.103489 53.568 
L 140.778509 53.568 
L 140.45353 53.568 
L 140.12855 53.568 
L 139.803571 53.568 
L 139.478591 53.568 
L 139.153612 53.568 
L 138.828632 53.568 
L 138.503653 53.568 
L 138.178673 53.568 
L 137.853694 53.568 
L 137.528714 53.568 
L 137.203735 53.568 
L 136.878755 53.568 
L 136.553776 53.568 
L 136.228796 53.568 
L 135.903817 53.568 
L 135.578837 53.568 
L 135.253857 53.568 
L 134.928878 53.568 
L 134.603898 53.568 
L 134.278919 53.568 
L 133.953939 53.568 
L 133.62896 53.568 
L 133.30398 53.568 
L 132.979001 53.568 
L 132.654021 53.568 
L 132.329042 53.568 
L 132.004062 53.568 
L 131.679083 53.568 
L 131.354103 53.568 
L 131.029124 53.568 
L 130.704144 53.568 
L 130.379165 53.568 
L 130.054185 53.568 
L 129.729206 53.568 
L 129.404226 53.568 
L 129.079247 53.568 
L 128.754267 53.568 
L 128.429287 53.568 
L 128.104308 53.568 
L 127.779328 53.568 
L 127.454349 53.568 
L 127.129369 53.568 
L 126.80439 53.568 
L 126.47941 53.568 
L 126.154431 53.568 
L 125.829451 53.568 
L 125.504472 53.568 
L 125.179492 53.568 
L 124.854513 53.568 
L 124.529533 53.568 
L 124.204554 53.568 
L 123.879574 53.568 
L 123.554595 53.568 
L 123.229615 53.568 
L 122.904636 53.568 
L 122.579656 53.568 
L 122.254676 53.568 
L 121.929697 53.568 
L 121.604717 53.568 
L 121.279738 53.568 
L 120.954758 53.568 
L 120.629779 53.568 
L 120.304799 53.568 
L 119.97982 53.568 
L 119.65484 53.568 
L 119.329861 53.568 
L 119.004881 53.568 
L 118.679902 53.568 
L 118.354922 53.568 
L 118.029943 53.568 
L 117.704963 53.568 
L 117.379984 53.568 
L 117.055004 53.568 
L 116.730025 53.568 
L 116.405045 53.568 
L 116.080066 53.568 
L 115.755086 53.568 
L 115.430106 53.568 
L 115.105127 53.568 
L 114.780147 53.568 
L 114.455168 53.568 
L 114.130188 53.568 
L 113.805209 53.568 
L 113.480229 53.568 
L 113.15525 53.568 
L 112.83027 53.568 
L 112.505291 53.568 
L 112.180311 53.568 
L 111.855332 53.568 
L 111.530352 53.568 
L 111.205373 53.568 
L 110.880393 53.568 
L 110.555414 53.568 
L 110.230434 53.568 
L 109.905455 53.568 
L 109.580475 53.568 
L 109.255495 53.568 
L 108.930516 53.568 
L 108.605536 53.568 
L 108.280557 53.568 
L 107.955577 53.568 
L 107.630598 53.568 
L 107.305618 53.568 
L 106.980639 53.568 
L 106.655659 53.568 
L 106.33068 53.568 
L 106.0057 53.568 
L 105.680721 53.568 
L 105.355741 53.568 
L 105.030762 53.568 
L 104.705782 53.568 
L 104.380803 53.568 
L 104.055823 53.568 
L 103.730844 53.568 
L 103.405864 53.568 
L 103.080885 53.568 
L 102.755905 53.568 
L 102.430925 53.568 
L 102.105946 53.568 
L 101.780966 53.568 
L 101.455987 53.568 
L 101.131007 53.568 
L 100.806028 53.568 
L 100.481048 53.568 
L 100.156069 53.568 
L 99.831089 53.568 
L 99.50611 53.568 
L 99.18113 53.568 
L 98.856151 53.568 
L 98.531171 53.568 
L 98.206192 53.568 
L 97.881212 53.568 
L 97.556233 53.568 
L 97.231253 53.568 
L 96.906274 53.568 
L 96.581294 53.568 
L 96.256314 53.568 
L 95.931335 53.568 
L 95.606355 53.568 
L 95.281376 53.568 
L 94.956396 53.568 
L 94.631417 53.568 
L 94.306437 53.568 
L 93.981458 53.568 
L 93.656478 53.568 
L 93.331499 53.568 
L 93.006519 53.568 
L 92.68154 53.568 
L 92.35656 53.568 
L 92.031581 53.568 
L 91.706601 53.568 
L 91.381622 53.568 
L 91.056642 53.568 
L 90.731663 53.568 
L 90.406683 53.568 
L 90.081704 53.568 
L 89.756724 53.568 
L 89.431744 53.568 
L 89.106765 53.568 
L 88.781785 53.568 
L 88.456806 53.568 
L 88.131826 53.568 
L 87.806847 53.568 
L 87.481867 53.568 
L 87.156888 53.568 
L 86.831908 53.568 
L 86.506929 53.568 
L 86.181949 53.568 
L 85.85697 53.568 
L 85.53199 53.568 
L 85.207011 53.568 
L 84.882031 53.568 
L 84.557052 53.568 
L 84.232072 53.568 
L 83.907093 53.568 
L 83.582113 53.568 
L 83.257133 53.568 
L 82.932154 53.568 
L 82.607174 53.568 
L 82.282195 53.568 
L 81.957215 53.568 
L 81.632236 53.568 
L 81.307256 53.568 
L 80.982277 53.568 
L 80.657297 53.568 
L 80.332318 53.568 
L 80.007338 53.568 
L 79.682359 53.568 
L 79.357379 53.568 
L 79.0324 53.568 
L 78.70742 53.568 
L 78.382441 53.568 
L 78.057461 53.568 
L 77.732482 53.568 
L 77.407502 53.568 
L 77.082523 53.568 
L 76.757543 53.568 
L 76.432563 53.568 
L 76.107584 53.568 
L 75.782604 53.568 
L 75.457625 53.568 
L 75.132645 53.568 
L 74.807666 53.568 
L 74.482686 53.568 
L 74.157707 53.568 
L 73.832727 53.568 
z
" style="fill:#1f77b4;"/>
   </g>
   <g id="matplotlib.axis_1">
    <g id="xtick_1">
     <g id="line2d_1">
      <defs>
       <path d="M 0 0 
L 0 3.5 
" id="mf482ac38fb" style="stroke:#000000;stroke-width:0.8;"/>
      </defs>
      <g>
       <use style="stroke:#000000;stroke-width:0.8;" x="73.832727" xlink:href="#mf482ac38fb" y="307.584"/>
      </g>
     </g>
     <g id="text_1">
      <!-- 0 -->
      <defs>
       <path d="M 31.78125 66.40625 
Q 24.171875 66.40625 20.328125 58.90625 
Q 16.5 51.421875 16.5 36.375 
Q 16.5 21.390625 20.328125 13.890625 
Q 24.171875 6.390625 31.78125 6.390625 
Q 39.453125 6.390625 43.28125 13.890625 
Q 47.125 21.390625 47.125 36.375 
Q 47.125 51.421875 43.28125 58.90625 
Q 39.453125 66.40625 31.78125 66.40625 
z
M 31.78125 74.21875 
Q 44.046875 74.21875 50.515625 64.515625 
Q 56.984375 54.828125 56.984375 36.375 
Q 56.984375 17.96875 50.515625 8.265625 
Q 44.046875 -1.421875 31.78125 -1.421875 
Q 19.53125 -1.421875 13.0625 8.265625 
Q 6.59375 17.96875 6.59375 36.375 
Q 6.59375 54.828125 13.0625 64.515625 
Q 19.53125 74.21875 31.78125 74.21875 
z
" id="DejaVuSans-48"/>
      </defs>
      <g transform="translate(70.651477 322.182437)scale(0.1 -0.1)">
       <use xlink:href="#DejaVuSans-48"/>
      </g>
     </g>
    </g>
    <g id="xtick_2">
     <g id="line2d_2">
      <g>
       <use style="stroke:#000000;stroke-width:0.8;" x="138.828632" xlink:href="#mf482ac38fb" y="307.584"/>
      </g>
     </g>
     <g id="text_2">
      <!-- 200 -->
      <defs>
       <path d="M 19.1875 8.296875 
L 53.609375 8.296875 
L 53.609375 0 
L 7.328125 0 
L 7.328125 8.296875 
Q 12.9375 14.109375 22.625 23.890625 
Q 32.328125 33.6875 34.8125 36.53125 
Q 39.546875 41.84375 41.421875 45.53125 
Q 43.3125 49.21875 43.3125 52.78125 
Q 43.3125 58.59375 39.234375 62.25 
Q 35.15625 65.921875 28.609375 65.921875 
Q 23.96875 65.921875 18.8125 64.3125 
Q 13.671875 62.703125 7.8125 59.421875 
L 7.8125 69.390625 
Q 13.765625 71.78125 18.9375 73 
Q 24.125 74.21875 28.421875 74.21875 
Q 39.75 74.21875 46.484375 68.546875 
Q 53.21875 62.890625 53.21875 53.421875 
Q 53.21875 48.921875 51.53125 44.890625 
Q 49.859375 40.875 45.40625 35.40625 
Q 44.1875 33.984375 37.640625 27.21875 
Q 31.109375 20.453125 19.1875 8.296875 
z
" id="DejaVuSans-50"/>
      </defs>
      <g transform="translate(129.284882 322.182437)scale(0.1 -0.1)">
       <use xlink:href="#DejaVuSans-50"/>
       <use x="63.623047" xlink:href="#DejaVuSans-48"/>
       <use x="127.246094" xlink:href="#DejaVuSans-48"/>
      </g>
     </g>
    </g>
    <g id="xtick_3">
     <g id="line2d_3">
      <g>
       <use style="stroke:#000000;stroke-width:0.8;" x="203.824537" xlink:href="#mf482ac38fb" y="307.584"/>
      </g>
     </g>
     <g id="text_3">
      <!-- 400 -->
      <defs>
       <path d="M 37.796875 64.3125 
L 12.890625 25.390625 
L 37.796875 25.390625 
z
M 35.203125 72.90625 
L 47.609375 72.90625 
L 47.609375 25.390625 
L 58.015625 25.390625 
L 58.015625 17.1875 
L 47.609375 17.1875 
L 47.609375 0 
L 37.796875 0 
L 37.796875 17.1875 
L 4.890625 17.1875 
L 4.890625 26.703125 
z
" id="DejaVuSans-52"/>
      </defs>
      <g transform="translate(194.280787 322.182437)scale(0.1 -0.1)">
       <use xlink:href="#DejaVuSans-52"/>
       <use x="63.623047" xlink:href="#DejaVuSans-48"/>
       <use x="127.246094" xlink:href="#DejaVuSans-48"/>
      </g>
     </g>
    </g>
    <g id="xtick_4">
     <g id="line2d_4">
      <g>
       <use style="stroke:#000000;stroke-width:0.8;" x="268.820442" xlink:href="#mf482ac38fb" y="307.584"/>
      </g>
     </g>
     <g id="text_4">
      <!-- 600 -->
      <defs>
       <path d="M 33.015625 40.375 
Q 26.375 40.375 22.484375 35.828125 
Q 18.609375 31.296875 18.609375 23.390625 
Q 18.609375 15.53125 22.484375 10.953125 
Q 26.375 6.390625 33.015625 6.390625 
Q 39.65625 6.390625 43.53125 10.953125 
Q 47.40625 15.53125 47.40625 23.390625 
Q 47.40625 31.296875 43.53125 35.828125 
Q 39.65625 40.375 33.015625 40.375 
z
M 52.59375 71.296875 
L 52.59375 62.3125 
Q 48.875 64.0625 45.09375 64.984375 
Q 41.3125 65.921875 37.59375 65.921875 
Q 27.828125 65.921875 22.671875 59.328125 
Q 17.53125 52.734375 16.796875 39.40625 
Q 19.671875 43.65625 24.015625 45.921875 
Q 28.375 48.1875 33.59375 48.1875 
Q 44.578125 48.1875 50.953125 41.515625 
Q 57.328125 34.859375 57.328125 23.390625 
Q 57.328125 12.15625 50.6875 5.359375 
Q 44.046875 -1.421875 33.015625 -1.421875 
Q 20.359375 -1.421875 13.671875 8.265625 
Q 6.984375 17.96875 6.984375 36.375 
Q 6.984375 53.65625 15.1875 63.9375 
Q 23.390625 74.21875 37.203125 74.21875 
Q 40.921875 74.21875 44.703125 73.484375 
Q 48.484375 72.75 52.59375 71.296875 
z
" id="DejaVuSans-54"/>
      </defs>
      <g transform="translate(259.276692 322.182437)scale(0.1 -0.1)">
       <use xlink:href="#DejaVuSans-54"/>
       <use x="63.623047" xlink:href="#DejaVuSans-48"/>
       <use x="127.246094" xlink:href="#DejaVuSans-48"/>
      </g>
     </g>
    </g>
    <g id="xtick_5">
     <g id="line2d_5">
      <g>
       <use style="stroke:#000000;stroke-width:0.8;" x="333.816347" xlink:href="#mf482ac38fb" y="307.584"/>
      </g>
     </g>
     <g id="text_5">
      <!-- 800 -->
      <defs>
       <path d="M 31.78125 34.625 
Q 24.75 34.625 20.71875 30.859375 
Q 16.703125 27.09375 16.703125 20.515625 
Q 16.703125 13.921875 20.71875 10.15625 
Q 24.75 6.390625 31.78125 6.390625 
Q 38.8125 6.390625 42.859375 10.171875 
Q 46.921875 13.96875 46.921875 20.515625 
Q 46.921875 27.09375 42.890625 30.859375 
Q 38.875 34.625 31.78125 34.625 
z
M 21.921875 38.8125 
Q 15.578125 40.375 12.03125 44.71875 
Q 8.5 49.078125 8.5 55.328125 
Q 8.5 64.0625 14.71875 69.140625 
Q 20.953125 74.21875 31.78125 74.21875 
Q 42.671875 74.21875 48.875 69.140625 
Q 55.078125 64.0625 55.078125 55.328125 
Q 55.078125 49.078125 51.53125 44.71875 
Q 48 40.375 41.703125 38.8125 
Q 48.828125 37.15625 52.796875 32.3125 
Q 56.78125 27.484375 56.78125 20.515625 
Q 56.78125 9.90625 50.3125 4.234375 
Q 43.84375 -1.421875 31.78125 -1.421875 
Q 19.734375 -1.421875 13.25 4.234375 
Q 6.78125 9.90625 6.78125 20.515625 
Q 6.78125 27.484375 10.78125 32.3125 
Q 14.796875 37.15625 21.921875 38.8125 
z
M 18.3125 54.390625 
Q 18.3125 48.734375 21.84375 45.5625 
Q 25.390625 42.390625 31.78125 42.390625 
Q 38.140625 42.390625 41.71875 45.5625 
Q 45.3125 48.734375 45.3125 54.390625 
Q 45.3125 60.0625 41.71875 63.234375 
Q 38.140625 66.40625 31.78125 66.40625 
Q 25.390625 66.40625 21.84375 63.234375 
Q 18.3125 60.0625 18.3125 54.390625 
z
" id="DejaVuSans-56"/>
      </defs>
      <g transform="translate(324.272597 322.182437)scale(0.1 -0.1)">
       <use xlink:href="#DejaVuSans-56"/>
       <use x="63.623047" xlink:href="#DejaVuSans-48"/>
       <use x="127.246094" xlink:href="#DejaVuSans-48"/>
      </g>
     </g>
    </g>
    <g id="xtick_6">
     <g id="line2d_6">
      <g>
       <use style="stroke:#000000;stroke-width:0.8;" x="398.812252" xlink:href="#mf482ac38fb" y="307.584"/>
      </g>
     </g>
     <g id="text_6">
      <!-- 1000 -->
      <defs>
       <path d="M 12.40625 8.296875 
L 28.515625 8.296875 
L 28.515625 63.921875 
L 10.984375 60.40625 
L 10.984375 69.390625 
L 28.421875 72.90625 
L 38.28125 72.90625 
L 38.28125 8.296875 
L 54.390625 8.296875 
L 54.390625 0 
L 12.40625 0 
z
" id="DejaVuSans-49"/>
      </defs>
      <g transform="translate(386.087252 322.182437)scale(0.1 -0.1)">
       <use xlink:href="#DejaVuSans-49"/>
       <use x="63.623047" xlink:href="#DejaVuSans-48"/>
       <use x="127.246094" xlink:href="#DejaVuSans-48"/>
       <use x="190.869141" xlink:href="#DejaVuSans-48"/>
      </g>
     </g>
    </g>
    <g id="text_7">
     <!-- Generations -->
     <defs>
      <path d="M 59.515625 10.40625 
L 59.515625 29.984375 
L 43.40625 29.984375 
L 43.40625 38.09375 
L 69.28125 38.09375 
L 69.28125 6.78125 
Q 63.578125 2.734375 56.6875 0.65625 
Q 49.8125 -1.421875 42 -1.421875 
Q 24.90625 -1.421875 15.25 8.5625 
Q 5.609375 18.5625 5.609375 36.375 
Q 5.609375 54.25 15.25 64.234375 
Q 24.90625 74.21875 42 74.21875 
Q 49.125 74.21875 55.546875 72.453125 
Q 61.96875 70.703125 67.390625 67.28125 
L 67.390625 56.78125 
Q 61.921875 61.421875 55.765625 63.765625 
Q 49.609375 66.109375 42.828125 66.109375 
Q 29.4375 66.109375 22.71875 58.640625 
Q 16.015625 51.171875 16.015625 36.375 
Q 16.015625 21.625 22.71875 14.15625 
Q 29.4375 6.6875 42.828125 6.6875 
Q 48.046875 6.6875 52.140625 7.59375 
Q 56.25 8.5 59.515625 10.40625 
z
" id="DejaVuSans-71"/>
      <path d="M 56.203125 29.59375 
L 56.203125 25.203125 
L 14.890625 25.203125 
Q 15.484375 15.921875 20.484375 11.0625 
Q 25.484375 6.203125 34.421875 6.203125 
Q 39.59375 6.203125 44.453125 7.46875 
Q 49.3125 8.734375 54.109375 11.28125 
L 54.109375 2.78125 
Q 49.265625 0.734375 44.1875 -0.34375 
Q 39.109375 -1.421875 33.890625 -1.421875 
Q 20.796875 -1.421875 13.15625 6.1875 
Q 5.515625 13.8125 5.515625 26.8125 
Q 5.515625 40.234375 12.765625 48.109375 
Q 20.015625 56 32.328125 56 
Q 43.359375 56 49.78125 48.890625 
Q 56.203125 41.796875 56.203125 29.59375 
z
M 47.21875 32.234375 
Q 47.125 39.59375 43.09375 43.984375 
Q 39.0625 48.390625 32.421875 48.390625 
Q 24.90625 48.390625 20.390625 44.140625 
Q 15.875 39.890625 15.1875 32.171875 
z
" id="DejaVuSans-101"/>
      <path d="M 54.890625 33.015625 
L 54.890625 0 
L 45.90625 0 
L 45.90625 32.71875 
Q 45.90625 40.484375 42.875 44.328125 
Q 39.84375 48.1875 33.796875 48.1875 
Q 26.515625 48.1875 22.3125 43.546875 
Q 18.109375 38.921875 18.109375 30.90625 
L 18.109375 0 
L 9.078125 0 
L 9.078125 54.6875 
L 18.109375 54.6875 
L 18.109375 46.1875 
Q 21.34375 51.125 25.703125 53.5625 
Q 30.078125 56 35.796875 56 
Q 45.21875 56 50.046875 50.171875 
Q 54.890625 44.34375 54.890625 33.015625 
z
" id="DejaVuSans-110"/>
      <path d="M 41.109375 46.296875 
Q 39.59375 47.171875 37.8125 47.578125 
Q 36.03125 48 33.890625 48 
Q 26.265625 48 22.1875 43.046875 
Q 18.109375 38.09375 18.109375 28.8125 
L 18.109375 0 
L 9.078125 0 
L 9.078125 54.6875 
L 18.109375 54.6875 
L 18.109375 46.1875 
Q 20.953125 51.171875 25.484375 53.578125 
Q 30.03125 56 36.53125 56 
Q 37.453125 56 38.578125 55.875 
Q 39.703125 55.765625 41.0625 55.515625 
z
" id="DejaVuSans-114"/>
      <path d="M 34.28125 27.484375 
Q 23.390625 27.484375 19.1875 25 
Q 14.984375 22.515625 14.984375 16.5 
Q 14.984375 11.71875 18.140625 8.90625 
Q 21.296875 6.109375 26.703125 6.109375 
Q 34.1875 6.109375 38.703125 11.40625 
Q 43.21875 16.703125 43.21875 25.484375 
L 43.21875 27.484375 
z
M 52.203125 31.203125 
L 52.203125 0 
L 43.21875 0 
L 43.21875 8.296875 
Q 40.140625 3.328125 35.546875 0.953125 
Q 30.953125 -1.421875 24.3125 -1.421875 
Q 15.921875 -1.421875 10.953125 3.296875 
Q 6 8.015625 6 15.921875 
Q 6 25.140625 12.171875 29.828125 
Q 18.359375 34.515625 30.609375 34.515625 
L 43.21875 34.515625 
L 43.21875 35.40625 
Q 43.21875 41.609375 39.140625 45 
Q 35.0625 48.390625 27.6875 48.390625 
Q 23 48.390625 18.546875 47.265625 
Q 14.109375 46.140625 10.015625 43.890625 
L 10.015625 52.203125 
Q 14.9375 54.109375 19.578125 55.046875 
Q 24.21875 56 28.609375 56 
Q 40.484375 56 46.34375 49.84375 
Q 52.203125 43.703125 52.203125 31.203125 
z
" id="DejaVuSans-97"/>
      <path d="M 18.3125 70.21875 
L 18.3125 54.6875 
L 36.8125 54.6875 
L 36.8125 47.703125 
L 18.3125 47.703125 
L 18.3125 18.015625 
Q 18.3125 11.328125 20.140625 9.421875 
Q 21.96875 7.515625 27.59375 7.515625 
L 36.8125 7.515625 
L 36.8125 0 
L 27.59375 0 
Q 17.1875 0 13.234375 3.875 
Q 9.28125 7.765625 9.28125 18.015625 
L 9.28125 47.703125 
L 2.6875 47.703125 
L 2.6875 54.6875 
L 9.28125 54.6875 
L 9.28125 70.21875 
z
" id="DejaVuSans-116"/>
      <path d="M 9.421875 54.6875 
L 18.40625 54.6875 
L 18.40625 0 
L 9.421875 0 
z
M 9.421875 75.984375 
L 18.40625 75.984375 
L 18.40625 64.59375 
L 9.421875 64.59375 
z
" id="DejaVuSans-105"/>
      <path d="M 30.609375 48.390625 
Q 23.390625 48.390625 19.1875 42.75 
Q 14.984375 37.109375 14.984375 27.296875 
Q 14.984375 17.484375 19.15625 11.84375 
Q 23.34375 6.203125 30.609375 6.203125 
Q 37.796875 6.203125 41.984375 11.859375 
Q 46.1875 17.53125 46.1875 27.296875 
Q 46.1875 37.015625 41.984375 42.703125 
Q 37.796875 48.390625 30.609375 48.390625 
z
M 30.609375 56 
Q 42.328125 56 49.015625 48.375 
Q 55.71875 40.765625 55.71875 27.296875 
Q 55.71875 13.875 49.015625 6.21875 
Q 42.328125 -1.421875 30.609375 -1.421875 
Q 18.84375 -1.421875 12.171875 6.21875 
Q 5.515625 13.875 5.515625 27.296875 
Q 5.515625 40.765625 12.171875 48.375 
Q 18.84375 56 30.609375 56 
z
" id="DejaVuSans-111"/>
      <path d="M 44.28125 53.078125 
L 44.28125 44.578125 
Q 40.484375 46.53125 36.375 47.5 
Q 32.28125 48.484375 27.875 48.484375 
Q 21.1875 48.484375 17.84375 46.4375 
Q 14.5 44.390625 14.5 40.28125 
Q 14.5 37.15625 16.890625 35.375 
Q 19.28125 33.59375 26.515625 31.984375 
L 29.59375 31.296875 
Q 39.15625 29.25 43.1875 25.515625 
Q 47.21875 21.78125 47.21875 15.09375 
Q 47.21875 7.46875 41.1875 3.015625 
Q 35.15625 -1.421875 24.609375 -1.421875 
Q 20.21875 -1.421875 15.453125 -0.5625 
Q 10.6875 0.296875 5.421875 2 
L 5.421875 11.28125 
Q 10.40625 8.6875 15.234375 7.390625 
Q 20.0625 6.109375 24.8125 6.109375 
Q 31.15625 6.109375 34.5625 8.28125 
Q 37.984375 10.453125 37.984375 14.40625 
Q 37.984375 18.0625 35.515625 20.015625 
Q 33.0625 21.96875 24.703125 23.78125 
L 21.578125 24.515625 
Q 13.234375 26.265625 9.515625 29.90625 
Q 5.8125 33.546875 5.8125 39.890625 
Q 5.8125 47.609375 11.28125 51.796875 
Q 16.75 56 26.8125 56 
Q 31.78125 56 36.171875 55.265625 
Q 40.578125 54.546875 44.28125 53.078125 
z
" id="DejaVuSans-115"/>
     </defs>
     <g transform="translate(205.662344 335.860562)scale(0.1 -0.1)">
      <use xlink:href="#DejaVuSans-71"/>
      <use x="77.490234" xlink:href="#DejaVuSans-101"/>
      <use x="139.013672" xlink:href="#DejaVuSans-110"/>
      <use x="202.392578" xlink:href="#DejaVuSans-101"/>
      <use x="263.916016" xlink:href="#DejaVuSans-114"/>
      <use x="305.029297" xlink:href="#DejaVuSans-97"/>
      <use x="366.308594" xlink:href="#DejaVuSans-116"/>
      <use x="405.517578" xlink:href="#DejaVuSans-105"/>
      <use x="433.300781" xlink:href="#DejaVuSans-111"/>
      <use x="494.482422" xlink:href="#DejaVuSans-110"/>
      <use x="557.861328" xlink:href="#DejaVuSans-115"/>
     </g>
    </g>
   </g>
   <g id="matplotlib.axis_2">
    <g id="ytick_1">
     <g id="line2d_7">
      <defs>
       <path d="M 0 0 
L -3.5 0 
" id="m338fe73eac" style="stroke:#000000;stroke-width:0.8;"/>
      </defs>
      <g>
       <use style="stroke:#000000;stroke-width:0.8;" x="57.6" xlink:href="#m338fe73eac" y="295.488"/>
      </g>
     </g>
     <g id="text_8">
      <!-- 0 -->
      <g transform="translate(44.2375 299.287219)scale(0.1 -0.1)">
       <use xlink:href="#DejaVuSans-48"/>
      </g>
     </g>
    </g>
    <g id="ytick_2">
     <g id="line2d_8">
      <g>
       <use style="stroke:#000000;stroke-width:0.8;" x="57.6" xlink:href="#m338fe73eac" y="255.168"/>
      </g>
     </g>
     <g id="text_9">
      <!-- 50 -->
      <defs>
       <path d="M 10.796875 72.90625 
L 49.515625 72.90625 
L 49.515625 64.59375 
L 19.828125 64.59375 
L 19.828125 46.734375 
Q 21.96875 47.46875 24.109375 47.828125 
Q 26.265625 48.1875 28.421875 48.1875 
Q 40.625 48.1875 47.75 41.5 
Q 54.890625 34.8125 54.890625 23.390625 
Q 54.890625 11.625 47.5625 5.09375 
Q 40.234375 -1.421875 26.90625 -1.421875 
Q 22.3125 -1.421875 17.546875 -0.640625 
Q 12.796875 0.140625 7.71875 1.703125 
L 7.71875 11.625 
Q 12.109375 9.234375 16.796875 8.0625 
Q 21.484375 6.890625 26.703125 6.890625 
Q 35.15625 6.890625 40.078125 11.328125 
Q 45.015625 15.765625 45.015625 23.390625 
Q 45.015625 31 40.078125 35.4375 
Q 35.15625 39.890625 26.703125 39.890625 
Q 22.75 39.890625 18.8125 39.015625 
Q 14.890625 38.140625 10.796875 36.28125 
z
" id="DejaVuSans-53"/>
      </defs>
      <g transform="translate(37.875 258.967219)scale(0.1 -0.1)">
       <use xlink:href="#DejaVuSans-53"/>
       <use x="63.623047" xlink:href="#DejaVuSans-48"/>
      </g>
     </g>
    </g>
    <g id="ytick_3">
     <g id="line2d_9">
      <g>
       <use style="stroke:#000000;stroke-width:0.8;" x="57.6" xlink:href="#m338fe73eac" y="214.848"/>
      </g>
     </g>
     <g id="text_10">
      <!-- 100 -->
      <g transform="translate(31.5125 218.647219)scale(0.1 -0.1)">
       <use xlink:href="#DejaVuSans-49"/>
       <use x="63.623047" xlink:href="#DejaVuSans-48"/>
       <use x="127.246094" xlink:href="#DejaVuSans-48"/>
      </g>
     </g>
    </g>
    <g id="ytick_4">
     <g id="line2d_10">
      <g>
       <use style="stroke:#000000;stroke-width:0.8;" x="57.6" xlink:href="#m338fe73eac" y="174.528"/>
      </g>
     </g>
     <g id="text_11">
      <!-- 150 -->
      <g transform="translate(31.5125 178.327219)scale(0.1 -0.1)">
       <use xlink:href="#DejaVuSans-49"/>
       <use x="63.623047" xlink:href="#DejaVuSans-53"/>
       <use x="127.246094" xlink:href="#DejaVuSans-48"/>
      </g>
     </g>
    </g>
    <g id="ytick_5">
     <g id="line2d_11">
      <g>
       <use style="stroke:#000000;stroke-width:0.8;" x="57.6" xlink:href="#m338fe73eac" y="134.208"/>
      </g>
     </g>
     <g id="text_12">
      <!-- 200 -->
      <g transform="translate(31.5125 138.007219)scale(0.1 -0.1)">
       <use xlink:href="#DejaVuSans-50"/>
       <use x="63.623047" xlink:href="#DejaVuSans-48"/>
       <use x="127.246094" xlink:href="#DejaVuSans-48"/>
      </g>
     </g>
    </g>
    <g id="ytick_6">
     <g id="line2d_12">
      <g>
       <use style="stroke:#000000;stroke-width:0.8;" x="57.6" xlink:href="#m338fe73eac" y="93.888"/>
      </g>
     </g>
     <g id="text_13">
      <!-- 250 -->
      <g transform="translate(31.5125 97.687219)scale(0.1 -0.1)">
       <use xlink:href="#DejaVuSans-50"/>
       <use x="63.623047" xlink:href="#DejaVuSans-53"/>
       <use x="127.246094" xlink:href="#DejaVuSans-48"/>
      </g>
     </g>
    </g>
    <g id="ytick_7">
     <g id="line2d_13">
      <g>
       <use style="stroke:#000000;stroke-width:0.8;" x="57.6" xlink:href="#m338fe73eac" y="53.568"/>
      </g>
     </g>
     <g id="text_14">
      <!-- 300 -->
      <defs>
       <path d="M 40.578125 39.3125 
Q 47.65625 37.796875 51.625 33 
Q 55.609375 28.21875 55.609375 21.1875 
Q 55.609375 10.40625 48.1875 4.484375 
Q 40.765625 -1.421875 27.09375 -1.421875 
Q 22.515625 -1.421875 17.65625 -0.515625 
Q 12.796875 0.390625 7.625 2.203125 
L 7.625 11.71875 
Q 11.71875 9.328125 16.59375 8.109375 
Q 21.484375 6.890625 26.8125 6.890625 
Q 36.078125 6.890625 40.9375 10.546875 
Q 45.796875 14.203125 45.796875 21.1875 
Q 45.796875 27.640625 41.28125 31.265625 
Q 36.765625 34.90625 28.71875 34.90625 
L 20.21875 34.90625 
L 20.21875 43.015625 
L 29.109375 43.015625 
Q 36.375 43.015625 40.234375 45.921875 
Q 44.09375 48.828125 44.09375 54.296875 
Q 44.09375 59.90625 40.109375 62.90625 
Q 36.140625 65.921875 28.71875 65.921875 
Q 24.65625 65.921875 20.015625 65.03125 
Q 15.375 64.15625 9.8125 62.3125 
L 9.8125 71.09375 
Q 15.4375 72.65625 20.34375 73.4375 
Q 25.25 74.21875 29.59375 74.21875 
Q 40.828125 74.21875 47.359375 69.109375 
Q 53.90625 64.015625 53.90625 55.328125 
Q 53.90625 49.265625 50.4375 45.09375 
Q 46.96875 40.921875 40.578125 39.3125 
z
" id="DejaVuSans-51"/>
      </defs>
      <g transform="translate(31.5125 57.367219)scale(0.1 -0.1)">
       <use xlink:href="#DejaVuSans-51"/>
       <use x="63.623047" xlink:href="#DejaVuSans-48"/>
       <use x="127.246094" xlink:href="#DejaVuSans-48"/>
      </g>
     </g>
    </g>
    <g id="text_15">
     <!-- Size per Species -->
     <defs>
      <path d="M 53.515625 70.515625 
L 53.515625 60.890625 
Q 47.90625 63.578125 42.921875 64.890625 
Q 37.9375 66.21875 33.296875 66.21875 
Q 25.25 66.21875 20.875 63.09375 
Q 16.5 59.96875 16.5 54.203125 
Q 16.5 49.359375 19.40625 46.890625 
Q 22.3125 44.4375 30.421875 42.921875 
L 36.375 41.703125 
Q 47.40625 39.59375 52.65625 34.296875 
Q 57.90625 29 57.90625 20.125 
Q 57.90625 9.515625 50.796875 4.046875 
Q 43.703125 -1.421875 29.984375 -1.421875 
Q 24.8125 -1.421875 18.96875 -0.25 
Q 13.140625 0.921875 6.890625 3.21875 
L 6.890625 13.375 
Q 12.890625 10.015625 18.65625 8.296875 
Q 24.421875 6.59375 29.984375 6.59375 
Q 38.421875 6.59375 43.015625 9.90625 
Q 47.609375 13.234375 47.609375 19.390625 
Q 47.609375 24.75 44.3125 27.78125 
Q 41.015625 30.8125 33.5 32.328125 
L 27.484375 33.5 
Q 16.453125 35.6875 11.515625 40.375 
Q 6.59375 45.0625 6.59375 53.421875 
Q 6.59375 63.09375 13.40625 68.65625 
Q 20.21875 74.21875 32.171875 74.21875 
Q 37.3125 74.21875 42.625 73.28125 
Q 47.953125 72.359375 53.515625 70.515625 
z
" id="DejaVuSans-83"/>
      <path d="M 5.515625 54.6875 
L 48.1875 54.6875 
L 48.1875 46.484375 
L 14.40625 7.171875 
L 48.1875 7.171875 
L 48.1875 0 
L 4.296875 0 
L 4.296875 8.203125 
L 38.09375 47.515625 
L 5.515625 47.515625 
z
" id="DejaVuSans-122"/>
      <path id="DejaVuSans-32"/>
      <path d="M 18.109375 8.203125 
L 18.109375 -20.796875 
L 9.078125 -20.796875 
L 9.078125 54.6875 
L 18.109375 54.6875 
L 18.109375 46.390625 
Q 20.953125 51.265625 25.265625 53.625 
Q 29.59375 56 35.59375 56 
Q 45.5625 56 51.78125 48.09375 
Q 58.015625 40.1875 58.015625 27.296875 
Q 58.015625 14.40625 51.78125 6.484375 
Q 45.5625 -1.421875 35.59375 -1.421875 
Q 29.59375 -1.421875 25.265625 0.953125 
Q 20.953125 3.328125 18.109375 8.203125 
z
M 48.6875 27.296875 
Q 48.6875 37.203125 44.609375 42.84375 
Q 40.53125 48.484375 33.40625 48.484375 
Q 26.265625 48.484375 22.1875 42.84375 
Q 18.109375 37.203125 18.109375 27.296875 
Q 18.109375 17.390625 22.1875 11.75 
Q 26.265625 6.109375 33.40625 6.109375 
Q 40.53125 6.109375 44.609375 11.75 
Q 48.6875 17.390625 48.6875 27.296875 
z
" id="DejaVuSans-112"/>
      <path d="M 48.78125 52.59375 
L 48.78125 44.1875 
Q 44.96875 46.296875 41.140625 47.34375 
Q 37.3125 48.390625 33.40625 48.390625 
Q 24.65625 48.390625 19.8125 42.84375 
Q 14.984375 37.3125 14.984375 27.296875 
Q 14.984375 17.28125 19.8125 11.734375 
Q 24.65625 6.203125 33.40625 6.203125 
Q 37.3125 6.203125 41.140625 7.25 
Q 44.96875 8.296875 48.78125 10.40625 
L 48.78125 2.09375 
Q 45.015625 0.34375 40.984375 -0.53125 
Q 36.96875 -1.421875 32.421875 -1.421875 
Q 20.0625 -1.421875 12.78125 6.34375 
Q 5.515625 14.109375 5.515625 27.296875 
Q 5.515625 40.671875 12.859375 48.328125 
Q 20.21875 56 33.015625 56 
Q 37.15625 56 41.109375 55.140625 
Q 45.0625 54.296875 48.78125 52.59375 
z
" id="DejaVuSans-99"/>
     </defs>
     <g transform="translate(25.432812 215.520969)rotate(-90)scale(0.1 -0.1)">
      <use xlink:href="#DejaVuSans-83"/>
      <use x="63.476562" xlink:href="#DejaVuSans-105"/>
      <use x="91.259766" xlink:href="#DejaVuSans-122"/>
      <use x="143.75" xlink:href="#DejaVuSans-101"/>
      <use x="205.273438" xlink:href="#DejaVuSans-32"/>
      <use x="237.060547" xlink:href="#DejaVuSans-112"/>
      <use x="300.537109" xlink:href="#DejaVuSans-101"/>
      <use x="362.060547" xlink:href="#DejaVuSans-114"/>
      <use x="403.173828" xlink:href="#DejaVuSans-32"/>
      <use x="434.960938" xlink:href="#DejaVuSans-83"/>
      <use x="498.4375" xlink:href="#DejaVuSans-112"/>
      <use x="561.914062" xlink:href="#DejaVuSans-101"/>
      <use x="623.4375" xlink:href="#DejaVuSans-99"/>
      <use x="678.417969" xlink:href="#DejaVuSans-105"/>
      <use x="706.201172" xlink:href="#DejaVuSans-101"/>
      <use x="767.724609" xlink:href="#DejaVuSans-115"/>
     </g>
    </g>
   </g>
   <g id="patch_3">
    <path d="M 57.6 307.584 
L 57.6 41.472 
" style="fill:none;stroke:#000000;stroke-linecap:square;stroke-linejoin:miter;stroke-width:0.8;"/>
   </g>
   <g id="patch_4">
    <path d="M 414.72 307.584 
L 414.72 41.472 
" style="fill:none;stroke:#000000;stroke-linecap:square;stroke-linejoin:miter;stroke-width:0.8;"/>
   </g>
   <g id="patch_5">
    <path d="M 57.6 307.584 
L 414.72 307.584 
" style="fill:none;stroke:#000000;stroke-linecap:square;stroke-linejoin:miter;stroke-width:0.8;"/>
   </g>
   <g id="patch_6">
    <path d="M 57.6 41.472 
L 414.72 41.472 
" style="fill:none;stroke:#000000;stroke-linecap:square;stroke-linejoin:miter;stroke-width:0.8;"/>
   </g>
   <g id="text_16">
    <!-- Speciation -->
    <g transform="translate(204.714375 35.472)scale(0.12 -0.12)">
     <use xlink:href="#DejaVuSans-83"/>
     <use x="63.476562" xlink:href="#DejaVuSans-112"/>
     <use x="126.953125" xlink:href="#DejaVuSans-101"/>
     <use x="188.476562" xlink:href="#DejaVuSans-99"/>
     <use x="243.457031" xlink:href="#DejaVuSans-105"/>
     <use x="271.240234" xlink:href="#DejaVuSans-97"/>
     <use x="332.519531" xlink:href="#DejaVuSans-116"/>
     <use x="371.728516" xlink:href="#DejaVuSans-105"/>
     <use x="399.511719" xlink:href="#DejaVuSans-111"/>
     <use x="460.693359" xlink:href="#DejaVuSans-110"/>
    </g>
   </g>
  </g>
 </g>
 <defs>
  <clipPath id="pdb4ff082c1">
   <rect height="266.112" width="357.12" x="57.6" y="41.472"/>
  </clipPath>
 </defs>
</svg>
