<?xml version="1.0" encoding="UTF-8" standalone="no"?>
<!DOCTYPE svg PUBLIC "-//W3C//DTD SVG 1.1//EN"
 "http://www.w3.org/Graphics/SVG/1.1/DTD/svg11.dtd">
<!-- Generated by graphviz version 2.38.0 (20140413.2041)
 -->
<!-- Title: %3 Pages: 1 -->
<svg width="488pt" height="190pt"
 viewBox="0.00 0.00 487.69 189.92" xmlns="http://www.w3.org/2000/svg" xmlns:xlink="http://www.w3.org/1999/xlink">
<g id="graph0" class="graph" transform="scale(1 1) rotate(0) translate(4 185.924)">
<title>%3</title>
<polygon fill="white" stroke="none" points="-4,4 -4,-185.924 483.689,-185.924 483.689,4 -4,4"/>
<!-- inA -->
<g id="node1" class="node"><title>inA</title>
<polygon fill="lightgray" stroke="black" points="288.101,-181.924 258.101,-181.924 258.101,-163.924 288.101,-163.924 288.101,-181.924"/>
<text text-anchor="middle" x="273.101" y="-170.724" font-family="Times,serif" font-size="9.00">inA</text>
</g>
<!-- outA -->
<g id="node3" class="node"><title>outA</title>
<ellipse fill="lightblue" stroke="black" cx="191.101" cy="-24.7487" rx="25" ry="25"/>
<text text-anchor="middle" x="191.101" y="-22.5487" font-family="Times,serif" font-size="9.00">outA</text>
</g>
<!-- inA&#45;&gt;outA -->
<g id="edge4" class="edge"><title>inA&#45;&gt;outA</title>
<path fill="none" stroke="red" stroke-width="0.296255" d="M288.39,-171.834C315.952,-170.741 373.481,-164.009 399.101,-127.924 410.018,-112.549 410.84,-100.254 399.101,-85.4975 354.803,-29.8126 310.472,-72.3938 243.101,-49.4975 236.22,-47.1587 229.02,-44.2145 222.247,-41.2027"/>
<polygon fill="red" stroke="red" stroke-width="0.296255" points="223.262,-37.8167 212.716,-36.8043 220.329,-44.1725 223.262,-37.8167"/>
</g>
<!-- outB -->
<g id="node4" class="node"><title>outB</title>
<ellipse fill="lightblue" stroke="black" cx="276.101" cy="-24.7487" rx="24.0833" ry="24.0833"/>
<text text-anchor="middle" x="276.101" y="-22.5487" font-family="Times,serif" font-size="9.00">outB</text>
</g>
<!-- inA&#45;&gt;outB -->
<g id="edge22" class="edge"><title>inA&#45;&gt;outB</title>
<path fill="none" stroke="red" stroke-width="0.303818" d="M288.268,-170.909C330.389,-167.744 447.202,-156.502 470.101,-127.924 516.872,-69.5549 377.56,-40.5941 310.262,-30.2835"/>
<polygon fill="red" stroke="red" stroke-width="0.303818" points="310.522,-26.7842 300.118,-28.7872 309.501,-33.7092 310.522,-26.7842"/>
</g>
<!-- 727 -->
<g id="node5" class="node"><title>727</title>
<ellipse fill="white" stroke="black" cx="39.1014" cy="-106.711" rx="21.4286" ry="21.4286"/>
<text text-anchor="middle" x="39.1014" y="-104.511" font-family="Times,serif" font-size="9.00">727</text>
</g>
<!-- inA&#45;&gt;727 -->
<g id="edge7" class="edge"><title>inA&#45;&gt;727</title>
<path fill="none" stroke="red" stroke-width="0.373076" d="M257.919,-169.221C225.892,-163.327 149.247,-148.203 87.1014,-127.924 80.6705,-125.825 73.899,-123.227 67.5352,-120.6"/>
<polygon fill="red" stroke="red" stroke-width="0.373076" points="68.549,-117.228 57.978,-116.517 65.7987,-123.665 68.549,-117.228"/>
</g>
<!-- 728 -->
<g id="node6" class="node"><title>728</title>
<ellipse fill="white" stroke="black" cx="117.101" cy="-106.711" rx="21.4286" ry="21.4286"/>
<text text-anchor="middle" x="117.101" y="-104.511" font-family="Times,serif" font-size="9.00">728</text>
</g>
<!-- inA&#45;&gt;728 -->
<g id="edge21" class="edge"><title>inA&#45;&gt;728</title>
<path fill="none" stroke="green" stroke-width="1.10472" d="M258.053,-165.858C237.164,-157.422 198.209,-141.639 165.101,-127.924 158.961,-125.38 152.39,-122.631 146.142,-120.004"/>
<polygon fill="green" stroke="green" stroke-width="1.10472" points="147.271,-116.682 136.697,-116.024 144.553,-123.133 147.271,-116.682"/>
</g>
<!-- 729 -->
<g id="node7" class="node"><title>729</title>
<ellipse fill="white" stroke="black" cx="195.101" cy="-106.711" rx="21.4286" ry="21.4286"/>
<text text-anchor="middle" x="195.101" y="-104.511" font-family="Times,serif" font-size="9.00">729</text>
</g>
<!-- inA&#45;&gt;729 -->
<g id="edge29" class="edge"><title>inA&#45;&gt;729</title>
<path fill="none" stroke="green" stroke-width="3.70223" d="M263.223,-163.791C252.154,-154.679 233.816,-139.582 218.953,-127.346"/>
<polygon fill="green" stroke="green" stroke-width="3.70223" points="221.066,-124.553 211.121,-120.899 216.617,-129.957 221.066,-124.553"/>
</g>
<!-- 730 -->
<g id="node8" class="node"><title>730</title>
<ellipse fill="white" stroke="black" cx="273.101" cy="-106.711" rx="21.4286" ry="21.4286"/>
<text text-anchor="middle" x="273.101" y="-104.511" font-family="Times,serif" font-size="9.00">730</text>
</g>
<!-- inA&#45;&gt;730 -->
<g id="edge17" class="edge"><title>inA&#45;&gt;730</title>
<path fill="none" stroke="red" stroke-width="1.02875" d="M273.101,-163.791C273.101,-157.248 273.101,-147.619 273.101,-138.18"/>
<polygon fill="red" stroke="red" stroke-width="1.02875" points="276.601,-138.166 273.101,-128.166 269.601,-138.166 276.601,-138.166"/>
</g>
<!-- 731 -->
<g id="node9" class="node"><title>731</title>
<ellipse fill="white" stroke="black" cx="351.101" cy="-106.711" rx="21.4286" ry="21.4286"/>
<text text-anchor="middle" x="351.101" y="-104.511" font-family="Times,serif" font-size="9.00">731</text>
</g>
<!-- inA&#45;&gt;731 -->
<g id="edge1" class="edge"><title>inA&#45;&gt;731</title>
<path fill="none" stroke="red" stroke-width="0.211572" d="M282.98,-163.791C294.048,-154.679 312.387,-139.582 327.25,-127.346"/>
<polygon fill="red" stroke="red" stroke-width="0.211572" points="329.586,-129.957 335.082,-120.899 325.137,-124.553 329.586,-129.957"/>
</g>
<!-- inB -->
<g id="node2" class="node"><title>inB</title>
<polygon fill="lightgray" stroke="black" points="209.601,-181.924 180.601,-181.924 180.601,-163.924 209.601,-163.924 209.601,-181.924"/>
<text text-anchor="middle" x="195.101" y="-170.724" font-family="Times,serif" font-size="9.00">inB</text>
</g>
<!-- inB&#45;&gt;outA -->
<g id="edge14" class="edge"><title>inB&#45;&gt;outA</title>
<path fill="none" stroke="green" stroke-width="0.441156" d="M180.484,-170.744C140.446,-167.179 30.563,-155.055 9.10138,-127.924 -34.4476,-72.8711 92.1236,-42.6301 156.29,-31.1738"/>
<polygon fill="green" stroke="green" stroke-width="0.441156" points="157.126,-34.5814 166.387,-29.4341 155.937,-27.6831 157.126,-34.5814"/>
</g>
<!-- inB&#45;&gt;outB -->
<g id="edge16" class="edge"><title>inB&#45;&gt;outB</title>
<path fill="none" stroke="red" stroke-width="1.06701" d="M209.723,-169.842C254.43,-163.331 387.011,-142.9 399.101,-127.924 410.946,-113.252 409.106,-101.48 399.101,-85.4975 379.664,-54.4466 338.971,-39.1203 309.708,-31.8436"/>
<polygon fill="red" stroke="red" stroke-width="1.06701" points="310.416,-28.4154 299.887,-29.5929 308.852,-35.2385 310.416,-28.4154"/>
</g>
<!-- inB&#45;&gt;727 -->
<g id="edge6" class="edge"><title>inB&#45;&gt;727</title>
<path fill="none" stroke="red" stroke-width="1.48914" d="M180.405,-166C159.604,-157.601 120.396,-141.716 87.1014,-127.924 80.9614,-125.38 74.3904,-122.631 68.142,-120.004"/>
<polygon fill="red" stroke="red" stroke-width="1.48914" points="69.2713,-116.682 58.6969,-116.024 66.5526,-123.133 69.2713,-116.682"/>
</g>
<!-- inB&#45;&gt;728 -->
<g id="edge30" class="edge"><title>inB&#45;&gt;728</title>
<path fill="none" stroke="green" stroke-width="0.422915" d="M185.223,-163.791C174.154,-154.679 155.816,-139.582 140.953,-127.346"/>
<polygon fill="green" stroke="green" stroke-width="0.422915" points="143.066,-124.553 133.121,-120.899 138.617,-129.957 143.066,-124.553"/>
</g>
<!-- inB&#45;&gt;729 -->
<g id="edge28" class="edge"><title>inB&#45;&gt;729</title>
<path fill="none" stroke="green" stroke-width="0.2966" d="M195.101,-163.791C195.101,-157.248 195.101,-147.619 195.101,-138.18"/>
<polygon fill="green" stroke="green" stroke-width="0.2966" points="198.601,-138.166 195.101,-128.166 191.601,-138.166 198.601,-138.166"/>
</g>
<!-- inB&#45;&gt;730 -->
<g id="edge13" class="edge"><title>inB&#45;&gt;730</title>
<path fill="none" stroke="green" stroke-width="0.256811" d="M204.98,-163.791C216.048,-154.679 234.387,-139.582 249.25,-127.346"/>
<polygon fill="green" stroke="green" stroke-width="0.256811" points="251.586,-129.957 257.082,-120.899 247.137,-124.553 251.586,-129.957"/>
</g>
<!-- inB&#45;&gt;731 -->
<g id="edge2" class="edge"><title>inB&#45;&gt;731</title>
<path fill="none" stroke="red" stroke-width="0.223551" d="M209.957,-168.078C234.042,-161.552 282.777,-147.124 321.101,-127.924 322.646,-127.15 324.204,-126.31 325.756,-125.425"/>
<polygon fill="red" stroke="red" stroke-width="0.223551" points="327.777,-128.291 334.429,-120.045 324.086,-122.342 327.777,-128.291"/>
</g>
<!-- outA&#45;&gt;outA -->
<g id="edge9" class="edge"><title>outA&#45;&gt;outA</title>
<path fill="none" stroke="red" stroke-width="0.86392" d="M211.775,-39.031C223.267,-41.697 233.85,-36.9362 233.85,-24.7487 233.85,-16.3698 228.848,-11.5012 221.987,-10.1429"/>
<polygon fill="red" stroke="red" stroke-width="0.86392" points="221.659,-6.65148 211.775,-10.4665 221.881,-13.648 221.659,-6.65148"/>
</g>
<!-- outB&#45;&gt;outB -->
<g id="edge31" class="edge"><title>outB&#45;&gt;outB</title>
<path fill="none" stroke="green" stroke-width="0.679385" d="M295.998,-38.9248C307.467,-41.8178 318.143,-37.0925 318.143,-24.7487 318.143,-16.2624 313.097,-11.377 306.216,-10.0924"/>
<polygon fill="green" stroke="green" stroke-width="0.679385" points="305.823,-6.60696 295.998,-10.5727 306.151,-13.5992 305.823,-6.60696"/>
</g>
<!-- 727&#45;&gt;outA -->
<g id="edge25" class="edge"><title>727&#45;&gt;outA</title>
<path fill="none" stroke="red" stroke-width="0.327321" d="M57.7396,-95.9058C83.3872,-82.4134 129.872,-57.9594 160.619,-41.7843"/>
<polygon fill="red" stroke="red" stroke-width="0.327321" points="162.395,-44.8049 169.616,-37.0516 159.136,-38.6098 162.395,-44.8049"/>
</g>
<!-- 727&#45;&gt;outB -->
<g id="edge11" class="edge"><title>727&#45;&gt;outB</title>
<path fill="none" stroke="red" stroke-width="0.103972" d="M57.9699,-96.8794C66.7019,-93.0235 77.2932,-88.6683 87.1014,-85.4975 154.807,-63.609 178.285,-78.8557 243.101,-49.4975 245.191,-48.551 247.282,-47.462 249.34,-46.2821"/>
<polygon fill="red" stroke="red" stroke-width="0.103972" points="251.528,-49.0364 258.049,-40.6857 247.744,-43.1475 251.528,-49.0364"/>
</g>
<!-- 727&#45;&gt;727 -->
<g id="edge20" class="edge"><title>727&#45;&gt;727</title>
<path fill="none" stroke="red" stroke-width="0.65059" d="M57.2528,-118.312C68.1028,-120.89 78.3146,-117.023 78.3146,-106.711 78.3146,-99.782 73.7048,-95.7628 67.3889,-94.6531"/>
<polygon fill="red" stroke="red" stroke-width="0.65059" points="67.0854,-91.1631 57.2528,-95.1091 67.4,-98.156 67.0854,-91.1631"/>
</g>
<!-- 728&#45;&gt;outA -->
<g id="edge12" class="edge"><title>728&#45;&gt;outA</title>
<path fill="none" stroke="green" stroke-width="0.361635" d="M131.02,-90.6704C141.38,-79.4763 155.759,-63.939 167.852,-50.871"/>
<polygon fill="green" stroke="green" stroke-width="0.361635" points="170.438,-53.2302 174.661,-43.5135 165.3,-48.4756 170.438,-53.2302"/>
</g>
<!-- 728&#45;&gt;outB -->
<g id="edge27" class="edge"><title>728&#45;&gt;outB</title>
<path fill="none" stroke="green" stroke-width="0.63319" d="M136.368,-97.6855C166.645,-84.9788 223.892,-60.5397 243.101,-49.4975 245.04,-48.3828 247.005,-47.1802 248.959,-45.9285"/>
<polygon fill="green" stroke="green" stroke-width="0.63319" points="251.031,-48.7528 257.348,-40.2472 247.106,-42.9569 251.031,-48.7528"/>
</g>
<!-- 728&#45;&gt;728 -->
<g id="edge24" class="edge"><title>728&#45;&gt;728</title>
<path fill="none" stroke="red" stroke-width="0.218368" d="M135.253,-118.312C146.103,-120.89 156.315,-117.023 156.315,-106.711 156.315,-99.782 151.705,-95.7628 145.389,-94.6531"/>
<polygon fill="red" stroke="red" stroke-width="0.218368" points="145.085,-91.1631 135.253,-95.1091 145.4,-98.156 145.085,-91.1631"/>
</g>
<!-- 729&#45;&gt;outA -->
<g id="edge23" class="edge"><title>729&#45;&gt;outA</title>
<path fill="none" stroke="green" stroke-width="5.20069" d="M194.071,-85.1185C193.686,-77.4204 193.238,-68.457 192.808,-59.8632"/>
<polygon fill="green" stroke="green" stroke-width="5.20069" points="197.343,-59.4341 192.298,-49.6739 188.253,-59.8888 197.343,-59.4341"/>
</g>
<!-- 729&#45;&gt;outB -->
<g id="edge10" class="edge"><title>729&#45;&gt;outB</title>
<path fill="none" stroke="green" stroke-width="2.46146" d="M209.958,-91.0444C221.75,-79.4036 238.469,-62.899 252.147,-49.3961"/>
<polygon fill="green" stroke="green" stroke-width="2.46146" points="254.725,-51.7694 259.383,-42.2533 249.807,-46.7878 254.725,-51.7694"/>
</g>
<!-- 729&#45;&gt;729 -->
<g id="edge8" class="edge"><title>729&#45;&gt;729</title>
<path fill="none" stroke="red" stroke-width="0.931888" d="M213.253,-118.312C224.103,-120.89 234.315,-117.023 234.315,-106.711 234.315,-99.782 229.705,-95.7628 223.389,-94.6531"/>
<polygon fill="red" stroke="red" stroke-width="0.931888" points="223.085,-91.1631 213.253,-95.1091 223.4,-98.156 223.085,-91.1631"/>
</g>
<!-- 730&#45;&gt;outA -->
<g id="edge26" class="edge"><title>730&#45;&gt;outA</title>
<path fill="none" stroke="red" stroke-width="0.433004" d="M258.061,-91.0444C246.202,-79.4797 229.42,-63.1146 215.623,-49.6612"/>
<polygon fill="red" stroke="red" stroke-width="0.433004" points="217.919,-47.0115 208.316,-42.5357 213.032,-52.0231 217.919,-47.0115"/>
</g>
<!-- 730&#45;&gt;outB -->
<g id="edge19" class="edge"><title>730&#45;&gt;outB</title>
<path fill="none" stroke="green" stroke-width="0.495719" d="M273.874,-85.1185C274.173,-77.1363 274.524,-67.7936 274.857,-58.9132"/>
<polygon fill="green" stroke="green" stroke-width="0.495719" points="278.359,-58.9342 275.236,-48.81 271.364,-58.6717 278.359,-58.9342"/>
</g>
<!-- 730&#45;&gt;730 -->
<g id="edge5" class="edge"><title>730&#45;&gt;730</title>
<path fill="none" stroke="red" stroke-width="0.654525" d="M291.253,-118.312C302.103,-120.89 312.315,-117.023 312.315,-106.711 312.315,-99.782 307.705,-95.7628 301.389,-94.6531"/>
<polygon fill="red" stroke="red" stroke-width="0.654525" points="301.085,-91.1631 291.253,-95.1091 301.4,-98.156 301.085,-91.1631"/>
</g>
<!-- 731&#45;&gt;outA -->
<g id="edge15" class="edge"><title>731&#45;&gt;outA</title>
<path fill="none" stroke="red" stroke-width="0.263256" d="M334.27,-93.675C330.054,-90.8551 325.482,-87.9583 321.101,-85.4975 318.762,-84.1831 260.315,-57.4044 222.595,-40.1477"/>
<polygon fill="red" stroke="red" stroke-width="0.263256" points="224.048,-36.9637 213.498,-35.9868 221.136,-43.3294 224.048,-36.9637"/>
</g>
<!-- 731&#45;&gt;outB -->
<g id="edge3" class="edge"><title>731&#45;&gt;outB</title>
<path fill="none" stroke="red" stroke-width="0.254855" d="M336.994,-90.6704C326.353,-79.325 311.527,-63.5183 299.169,-50.3425"/>
<polygon fill="red" stroke="red" stroke-width="0.254855" points="301.622,-47.8418 292.228,-42.9425 296.517,-52.6307 301.622,-47.8418"/>
</g>
<!-- 731&#45;&gt;731 -->
<g id="edge18" class="edge"><title>731&#45;&gt;731</title>
<path fill="none" stroke="green" stroke-width="0.5644" d="M369.253,-118.312C380.103,-120.89 390.315,-117.023 390.315,-106.711 390.315,-99.782 385.705,-95.7628 379.389,-94.6531"/>
<polygon fill="green" stroke="green" stroke-width="0.5644" points="379.085,-91.1631 369.253,-95.1091 379.4,-98.156 379.085,-91.1631"/>
</g>
</g>
</svg>
