<?xml version="1.0" encoding="utf-8" standalone="no"?>
<!DOCTYPE svg PUBLIC "-//W3C//DTD SVG 1.1//EN"
  "http://www.w3.org/Graphics/SVG/1.1/DTD/svg11.dtd">
<!-- Created with matplotlib (https://matplotlib.org/) -->
<svg height="345.6pt" version="1.1" viewBox="0 0 460.8 345.6" width="460.8pt" xmlns="http://www.w3.org/2000/svg" xmlns:xlink="http://www.w3.org/1999/xlink">
 <defs>
  <style type="text/css">
*{stroke-linecap:butt;stroke-linejoin:round;}
  </style>
 </defs>
 <g id="figure_1">
  <g id="patch_1">
   <path d="M 0 345.6 
L 460.8 345.6 
L 460.8 0 
L 0 0 
z
" style="fill:#ffffff;"/>
  </g>
  <g id="axes_1">
   <g id="patch_2">
    <path d="M 29.08774 325.921635 
L 457.79976 325.921635 
L 457.79976 17.90649 
L 29.08774 17.90649 
z
" style="fill:#ffffff;"/>
   </g>
   <g id="matplotlib.axis_1">
    <g id="xtick_1">
     <g id="line2d_1">
      <defs>
       <path d="M 0 0 
L 0 3.5 
" id="m38898e6abd" style="stroke:#000000;stroke-width:0.8;"/>
      </defs>
      <g>
       <use style="stroke:#000000;stroke-width:0.8;" x="76.663328" xlink:href="#m38898e6abd" y="325.921635"/>
      </g>
     </g>
     <g id="text_1">
      <!-- −0.75 -->
      <defs>
       <path d="M 10.59375 35.5 
L 73.1875 35.5 
L 73.1875 27.203125 
L 10.59375 27.203125 
z
" id="DejaVuSans-8722"/>
       <path d="M 31.78125 66.40625 
Q 24.171875 66.40625 20.328125 58.90625 
Q 16.5 51.421875 16.5 36.375 
Q 16.5 21.390625 20.328125 13.890625 
Q 24.171875 6.390625 31.78125 6.390625 
Q 39.453125 6.390625 43.28125 13.890625 
Q 47.125 21.390625 47.125 36.375 
Q 47.125 51.421875 43.28125 58.90625 
Q 39.453125 66.40625 31.78125 66.40625 
z
M 31.78125 74.21875 
Q 44.046875 74.21875 50.515625 64.515625 
Q 56.984375 54.828125 56.984375 36.375 
Q 56.984375 17.96875 50.515625 8.265625 
Q 44.046875 -1.421875 31.78125 -1.421875 
Q 19.53125 -1.421875 13.0625 8.265625 
Q 6.59375 17.96875 6.59375 36.375 
Q 6.59375 54.828125 13.0625 64.515625 
Q 19.53125 74.21875 31.78125 74.21875 
z
" id="DejaVuSans-48"/>
       <path d="M 10.6875 12.40625 
L 21 12.40625 
L 21 0 
L 10.6875 0 
z
" id="DejaVuSans-46"/>
       <path d="M 8.203125 72.90625 
L 55.078125 72.90625 
L 55.078125 68.703125 
L 28.609375 0 
L 18.3125 0 
L 43.21875 64.59375 
L 8.203125 64.59375 
z
" id="DejaVuSans-55"/>
       <path d="M 10.796875 72.90625 
L 49.515625 72.90625 
L 49.515625 64.59375 
L 19.828125 64.59375 
L 19.828125 46.734375 
Q 21.96875 47.46875 24.109375 47.828125 
Q 26.265625 48.1875 28.421875 48.1875 
Q 40.625 48.1875 47.75 41.5 
Q 54.890625 34.8125 54.890625 23.390625 
Q 54.890625 11.625 47.5625 5.09375 
Q 40.234375 -1.421875 26.90625 -1.421875 
Q 22.3125 -1.421875 17.546875 -0.640625 
Q 12.796875 0.140625 7.71875 1.703125 
L 7.71875 11.625 
Q 12.109375 9.234375 16.796875 8.0625 
Q 21.484375 6.890625 26.703125 6.890625 
Q 35.15625 6.890625 40.078125 11.328125 
Q 45.015625 15.765625 45.015625 23.390625 
Q 45.015625 31 40.078125 35.4375 
Q 35.15625 39.890625 26.703125 39.890625 
Q 22.75 39.890625 18.8125 39.015625 
Q 14.890625 38.140625 10.796875 36.28125 
z
" id="DejaVuSans-53"/>
      </defs>
      <g transform="translate(61.340672 340.520072)scale(0.1 -0.1)">
       <use xlink:href="#DejaVuSans-8722"/>
       <use x="83.789062" xlink:href="#DejaVuSans-48"/>
       <use x="147.412109" xlink:href="#DejaVuSans-46"/>
       <use x="179.199219" xlink:href="#DejaVuSans-55"/>
       <use x="242.822266" xlink:href="#DejaVuSans-53"/>
      </g>
     </g>
    </g>
    <g id="xtick_2">
     <g id="line2d_2">
      <g>
       <use style="stroke:#000000;stroke-width:0.8;" x="131.997051" xlink:href="#m38898e6abd" y="325.921635"/>
      </g>
     </g>
     <g id="text_2">
      <!-- −0.50 -->
      <g transform="translate(116.674395 340.520072)scale(0.1 -0.1)">
       <use xlink:href="#DejaVuSans-8722"/>
       <use x="83.789062" xlink:href="#DejaVuSans-48"/>
       <use x="147.412109" xlink:href="#DejaVuSans-46"/>
       <use x="179.199219" xlink:href="#DejaVuSans-53"/>
       <use x="242.822266" xlink:href="#DejaVuSans-48"/>
      </g>
     </g>
    </g>
    <g id="xtick_3">
     <g id="line2d_3">
      <g>
       <use style="stroke:#000000;stroke-width:0.8;" x="187.330774" xlink:href="#m38898e6abd" y="325.921635"/>
      </g>
     </g>
     <g id="text_3">
      <!-- −0.25 -->
      <defs>
       <path d="M 19.1875 8.296875 
L 53.609375 8.296875 
L 53.609375 0 
L 7.328125 0 
L 7.328125 8.296875 
Q 12.9375 14.109375 22.625 23.890625 
Q 32.328125 33.6875 34.8125 36.53125 
Q 39.546875 41.84375 41.421875 45.53125 
Q 43.3125 49.21875 43.3125 52.78125 
Q 43.3125 58.59375 39.234375 62.25 
Q 35.15625 65.921875 28.609375 65.921875 
Q 23.96875 65.921875 18.8125 64.3125 
Q 13.671875 62.703125 7.8125 59.421875 
L 7.8125 69.390625 
Q 13.765625 71.78125 18.9375 73 
Q 24.125 74.21875 28.421875 74.21875 
Q 39.75 74.21875 46.484375 68.546875 
Q 53.21875 62.890625 53.21875 53.421875 
Q 53.21875 48.921875 51.53125 44.890625 
Q 49.859375 40.875 45.40625 35.40625 
Q 44.1875 33.984375 37.640625 27.21875 
Q 31.109375 20.453125 19.1875 8.296875 
z
" id="DejaVuSans-50"/>
      </defs>
      <g transform="translate(172.008118 340.520072)scale(0.1 -0.1)">
       <use xlink:href="#DejaVuSans-8722"/>
       <use x="83.789062" xlink:href="#DejaVuSans-48"/>
       <use x="147.412109" xlink:href="#DejaVuSans-46"/>
       <use x="179.199219" xlink:href="#DejaVuSans-50"/>
       <use x="242.822266" xlink:href="#DejaVuSans-53"/>
      </g>
     </g>
    </g>
    <g id="xtick_4">
     <g id="line2d_4">
      <g>
       <use style="stroke:#000000;stroke-width:0.8;" x="242.664497" xlink:href="#m38898e6abd" y="325.921635"/>
      </g>
     </g>
     <g id="text_4">
      <!-- 0.00 -->
      <g transform="translate(231.531684 340.520072)scale(0.1 -0.1)">
       <use xlink:href="#DejaVuSans-48"/>
       <use x="63.623047" xlink:href="#DejaVuSans-46"/>
       <use x="95.410156" xlink:href="#DejaVuSans-48"/>
       <use x="159.033203" xlink:href="#DejaVuSans-48"/>
      </g>
     </g>
    </g>
    <g id="xtick_5">
     <g id="line2d_5">
      <g>
       <use style="stroke:#000000;stroke-width:0.8;" x="297.99822" xlink:href="#m38898e6abd" y="325.921635"/>
      </g>
     </g>
     <g id="text_5">
      <!-- 0.25 -->
      <g transform="translate(286.865407 340.520072)scale(0.1 -0.1)">
       <use xlink:href="#DejaVuSans-48"/>
       <use x="63.623047" xlink:href="#DejaVuSans-46"/>
       <use x="95.410156" xlink:href="#DejaVuSans-50"/>
       <use x="159.033203" xlink:href="#DejaVuSans-53"/>
      </g>
     </g>
    </g>
    <g id="xtick_6">
     <g id="line2d_6">
      <g>
       <use style="stroke:#000000;stroke-width:0.8;" x="353.331942" xlink:href="#m38898e6abd" y="325.921635"/>
      </g>
     </g>
     <g id="text_6">
      <!-- 0.50 -->
      <g transform="translate(342.19913 340.520072)scale(0.1 -0.1)">
       <use xlink:href="#DejaVuSans-48"/>
       <use x="63.623047" xlink:href="#DejaVuSans-46"/>
       <use x="95.410156" xlink:href="#DejaVuSans-53"/>
       <use x="159.033203" xlink:href="#DejaVuSans-48"/>
      </g>
     </g>
    </g>
    <g id="xtick_7">
     <g id="line2d_7">
      <g>
       <use style="stroke:#000000;stroke-width:0.8;" x="408.665665" xlink:href="#m38898e6abd" y="325.921635"/>
      </g>
     </g>
     <g id="text_7">
      <!-- 0.75 -->
      <g transform="translate(397.532853 340.520072)scale(0.1 -0.1)">
       <use xlink:href="#DejaVuSans-48"/>
       <use x="63.623047" xlink:href="#DejaVuSans-46"/>
       <use x="95.410156" xlink:href="#DejaVuSans-55"/>
       <use x="159.033203" xlink:href="#DejaVuSans-53"/>
      </g>
     </g>
    </g>
   </g>
   <g id="matplotlib.axis_2">
    <g id="ytick_1">
     <g id="line2d_8">
      <defs>
       <path d="M 0 0 
L -3.5 0 
" id="mb6ffadd496" style="stroke:#000000;stroke-width:0.8;"/>
      </defs>
      <g>
       <use style="stroke:#000000;stroke-width:0.8;" x="29.08774" xlink:href="#mb6ffadd496" y="281.178356"/>
      </g>
     </g>
     <g id="text_8">
      <!-- 280 -->
      <defs>
       <path d="M 31.78125 34.625 
Q 24.75 34.625 20.71875 30.859375 
Q 16.703125 27.09375 16.703125 20.515625 
Q 16.703125 13.921875 20.71875 10.15625 
Q 24.75 6.390625 31.78125 6.390625 
Q 38.8125 6.390625 42.859375 10.171875 
Q 46.921875 13.96875 46.921875 20.515625 
Q 46.921875 27.09375 42.890625 30.859375 
Q 38.875 34.625 31.78125 34.625 
z
M 21.921875 38.8125 
Q 15.578125 40.375 12.03125 44.71875 
Q 8.5 49.078125 8.5 55.328125 
Q 8.5 64.0625 14.71875 69.140625 
Q 20.953125 74.21875 31.78125 74.21875 
Q 42.671875 74.21875 48.875 69.140625 
Q 55.078125 64.0625 55.078125 55.328125 
Q 55.078125 49.078125 51.53125 44.71875 
Q 48 40.375 41.703125 38.8125 
Q 48.828125 37.15625 52.796875 32.3125 
Q 56.78125 27.484375 56.78125 20.515625 
Q 56.78125 9.90625 50.3125 4.234375 
Q 43.84375 -1.421875 31.78125 -1.421875 
Q 19.734375 -1.421875 13.25 4.234375 
Q 6.78125 9.90625 6.78125 20.515625 
Q 6.78125 27.484375 10.78125 32.3125 
Q 14.796875 37.15625 21.921875 38.8125 
z
M 18.3125 54.390625 
Q 18.3125 48.734375 21.84375 45.5625 
Q 25.390625 42.390625 31.78125 42.390625 
Q 38.140625 42.390625 41.71875 45.5625 
Q 45.3125 48.734375 45.3125 54.390625 
Q 45.3125 60.0625 41.71875 63.234375 
Q 38.140625 66.40625 31.78125 66.40625 
Q 25.390625 66.40625 21.84375 63.234375 
Q 18.3125 60.0625 18.3125 54.390625 
z
" id="DejaVuSans-56"/>
      </defs>
      <g transform="translate(3.00024 284.977575)scale(0.1 -0.1)">
       <use xlink:href="#DejaVuSans-50"/>
       <use x="63.623047" xlink:href="#DejaVuSans-56"/>
       <use x="127.246094" xlink:href="#DejaVuSans-48"/>
      </g>
     </g>
    </g>
    <g id="ytick_2">
     <g id="line2d_9">
      <g>
       <use style="stroke:#000000;stroke-width:0.8;" x="29.08774" xlink:href="#mb6ffadd496" y="219.693175"/>
      </g>
     </g>
     <g id="text_9">
      <!-- 300 -->
      <defs>
       <path d="M 40.578125 39.3125 
Q 47.65625 37.796875 51.625 33 
Q 55.609375 28.21875 55.609375 21.1875 
Q 55.609375 10.40625 48.1875 4.484375 
Q 40.765625 -1.421875 27.09375 -1.421875 
Q 22.515625 -1.421875 17.65625 -0.515625 
Q 12.796875 0.390625 7.625 2.203125 
L 7.625 11.71875 
Q 11.71875 9.328125 16.59375 8.109375 
Q 21.484375 6.890625 26.8125 6.890625 
Q 36.078125 6.890625 40.9375 10.546875 
Q 45.796875 14.203125 45.796875 21.1875 
Q 45.796875 27.640625 41.28125 31.265625 
Q 36.765625 34.90625 28.71875 34.90625 
L 20.21875 34.90625 
L 20.21875 43.015625 
L 29.109375 43.015625 
Q 36.375 43.015625 40.234375 45.921875 
Q 44.09375 48.828125 44.09375 54.296875 
Q 44.09375 59.90625 40.109375 62.90625 
Q 36.140625 65.921875 28.71875 65.921875 
Q 24.65625 65.921875 20.015625 65.03125 
Q 15.375 64.15625 9.8125 62.3125 
L 9.8125 71.09375 
Q 15.4375 72.65625 20.34375 73.4375 
Q 25.25 74.21875 29.59375 74.21875 
Q 40.828125 74.21875 47.359375 69.109375 
Q 53.90625 64.015625 53.90625 55.328125 
Q 53.90625 49.265625 50.4375 45.09375 
Q 46.96875 40.921875 40.578125 39.3125 
z
" id="DejaVuSans-51"/>
      </defs>
      <g transform="translate(3.00024 223.492393)scale(0.1 -0.1)">
       <use xlink:href="#DejaVuSans-51"/>
       <use x="63.623047" xlink:href="#DejaVuSans-48"/>
       <use x="127.246094" xlink:href="#DejaVuSans-48"/>
      </g>
     </g>
    </g>
    <g id="ytick_3">
     <g id="line2d_10">
      <g>
       <use style="stroke:#000000;stroke-width:0.8;" x="29.08774" xlink:href="#mb6ffadd496" y="158.207993"/>
      </g>
     </g>
     <g id="text_10">
      <!-- 320 -->
      <g transform="translate(3.00024 162.007212)scale(0.1 -0.1)">
       <use xlink:href="#DejaVuSans-51"/>
       <use x="63.623047" xlink:href="#DejaVuSans-50"/>
       <use x="127.246094" xlink:href="#DejaVuSans-48"/>
      </g>
     </g>
    </g>
    <g id="ytick_4">
     <g id="line2d_11">
      <g>
       <use style="stroke:#000000;stroke-width:0.8;" x="29.08774" xlink:href="#mb6ffadd496" y="96.722812"/>
      </g>
     </g>
     <g id="text_11">
      <!-- 340 -->
      <defs>
       <path d="M 37.796875 64.3125 
L 12.890625 25.390625 
L 37.796875 25.390625 
z
M 35.203125 72.90625 
L 47.609375 72.90625 
L 47.609375 25.390625 
L 58.015625 25.390625 
L 58.015625 17.1875 
L 47.609375 17.1875 
L 47.609375 0 
L 37.796875 0 
L 37.796875 17.1875 
L 4.890625 17.1875 
L 4.890625 26.703125 
z
" id="DejaVuSans-52"/>
      </defs>
      <g transform="translate(3.00024 100.522031)scale(0.1 -0.1)">
       <use xlink:href="#DejaVuSans-51"/>
       <use x="63.623047" xlink:href="#DejaVuSans-52"/>
       <use x="127.246094" xlink:href="#DejaVuSans-48"/>
      </g>
     </g>
    </g>
    <g id="ytick_5">
     <g id="line2d_12">
      <g>
       <use style="stroke:#000000;stroke-width:0.8;" x="29.08774" xlink:href="#mb6ffadd496" y="35.237631"/>
      </g>
     </g>
     <g id="text_12">
      <!-- 360 -->
      <defs>
       <path d="M 33.015625 40.375 
Q 26.375 40.375 22.484375 35.828125 
Q 18.609375 31.296875 18.609375 23.390625 
Q 18.609375 15.53125 22.484375 10.953125 
Q 26.375 6.390625 33.015625 6.390625 
Q 39.65625 6.390625 43.53125 10.953125 
Q 47.40625 15.53125 47.40625 23.390625 
Q 47.40625 31.296875 43.53125 35.828125 
Q 39.65625 40.375 33.015625 40.375 
z
M 52.59375 71.296875 
L 52.59375 62.3125 
Q 48.875 64.0625 45.09375 64.984375 
Q 41.3125 65.921875 37.59375 65.921875 
Q 27.828125 65.921875 22.671875 59.328125 
Q 17.53125 52.734375 16.796875 39.40625 
Q 19.671875 43.65625 24.015625 45.921875 
Q 28.375 48.1875 33.59375 48.1875 
Q 44.578125 48.1875 50.953125 41.515625 
Q 57.328125 34.859375 57.328125 23.390625 
Q 57.328125 12.15625 50.6875 5.359375 
Q 44.046875 -1.421875 33.015625 -1.421875 
Q 20.359375 -1.421875 13.671875 8.265625 
Q 6.984375 17.96875 6.984375 36.375 
Q 6.984375 53.65625 15.1875 63.9375 
Q 23.390625 74.21875 37.203125 74.21875 
Q 40.921875 74.21875 44.703125 73.484375 
Q 48.484375 72.75 52.59375 71.296875 
z
" id="DejaVuSans-54"/>
      </defs>
      <g transform="translate(3.00024 39.03685)scale(0.1 -0.1)">
       <use xlink:href="#DejaVuSans-51"/>
       <use x="63.623047" xlink:href="#DejaVuSans-54"/>
       <use x="127.246094" xlink:href="#DejaVuSans-48"/>
      </g>
     </g>
    </g>
   </g>
   <g id="line2d_13">
    <defs>
     <path d="M 0 3 
C 0.795609 3 1.55874 2.683901 2.12132 2.12132 
C 2.683901 1.55874 3 0.795609 3 0 
C 3 -0.795609 2.683901 -1.55874 2.12132 -2.12132 
C 1.55874 -2.683901 0.795609 -3 0 -3 
C -0.795609 -3 -1.55874 -2.683901 -2.12132 -2.12132 
C -2.683901 -1.55874 -3 -0.795609 -3 0 
C -3 0.795609 -2.683901 1.55874 -2.12132 2.12132 
C -1.55874 2.683901 -0.795609 3 0 3 
z
" id="m5bd9930e2c" style="stroke:#1f77b4;"/>
    </defs>
    <g clip-path="url(#p25dc57370a)">
     <use style="fill:#1f77b4;stroke:#1f77b4;" x="167.8195" xlink:href="#m5bd9930e2c" y="139.762439"/>
     <use style="fill:#1f77b4;stroke:#1f77b4;" x="349.11112" xlink:href="#m5bd9930e2c" y="139.762439"/>
     <use style="fill:#1f77b4;stroke:#1f77b4;" x="230.239331" xlink:href="#m5bd9930e2c" y="139.762439"/>
     <use style="fill:#1f77b4;stroke:#1f77b4;" x="372.853402" xlink:href="#m5bd9930e2c" y="145.910957"/>
     <use style="fill:#1f77b4;stroke:#1f77b4;" x="251.955888" xlink:href="#m5bd9930e2c" y="139.762439"/>
     <use style="fill:#1f77b4;stroke:#1f77b4;" x="399.365291" xlink:href="#m5bd9930e2c" y="139.762439"/>
     <use style="fill:#1f77b4;stroke:#1f77b4;" x="63.938973" xlink:href="#m5bd9930e2c" y="139.762439"/>
     <use style="fill:#1f77b4;stroke:#1f77b4;" x="78.404606" xlink:href="#m5bd9930e2c" y="311.920947"/>
     <use style="fill:#1f77b4;stroke:#1f77b4;" x="438.31285" xlink:href="#m5bd9930e2c" y="139.762439"/>
     <use style="fill:#1f77b4;stroke:#1f77b4;" x="429.927854" xlink:href="#m5bd9930e2c" y="139.762439"/>
     <use style="fill:#1f77b4;stroke:#1f77b4;" x="197.542059" xlink:href="#m5bd9930e2c" y="148.985216"/>
     <use style="fill:#1f77b4;stroke:#1f77b4;" x="317.067857" xlink:href="#m5bd9930e2c" y="139.762439"/>
     <use style="fill:#1f77b4;stroke:#1f77b4;" x="233.633568" xlink:href="#m5bd9930e2c" y="139.762439"/>
     <use style="fill:#1f77b4;stroke:#1f77b4;" x="352.31026" xlink:href="#m5bd9930e2c" y="139.762439"/>
     <use style="fill:#1f77b4;stroke:#1f77b4;" x="244.163915" xlink:href="#m5bd9930e2c" y="139.762439"/>
     <use style="fill:#1f77b4;stroke:#1f77b4;" x="151.535093" xlink:href="#m5bd9930e2c" y="139.762439"/>
     <use style="fill:#1f77b4;stroke:#1f77b4;" x="349.319695" xlink:href="#m5bd9930e2c" y="139.762439"/>
     <use style="fill:#1f77b4;stroke:#1f77b4;" x="48.57465" xlink:href="#m5bd9930e2c" y="139.762439"/>
     <use style="fill:#1f77b4;stroke:#1f77b4;" x="205.32229" xlink:href="#m5bd9930e2c" y="139.762439"/>
     <use style="fill:#1f77b4;stroke:#1f77b4;" x="185.300547" xlink:href="#m5bd9930e2c" y="145.910957"/>
     <use style="fill:#1f77b4;stroke:#1f77b4;" x="173.268198" xlink:href="#m5bd9930e2c" y="139.762439"/>
     <use style="fill:#1f77b4;stroke:#1f77b4;" x="243.784389" xlink:href="#m5bd9930e2c" y="148.985216"/>
     <use style="fill:#1f77b4;stroke:#1f77b4;" x="122.133658" xlink:href="#m5bd9930e2c" y="139.762439"/>
     <use style="fill:#1f77b4;stroke:#1f77b4;" x="168.709078" xlink:href="#m5bd9930e2c" y="139.762439"/>
     <use style="fill:#1f77b4;stroke:#1f77b4;" x="398.556148" xlink:href="#m5bd9930e2c" y="139.762439"/>
     <use style="fill:#1f77b4;stroke:#1f77b4;" x="290.893885" xlink:href="#m5bd9930e2c" y="158.207993"/>
     <use style="fill:#1f77b4;stroke:#1f77b4;" x="243.558998" xlink:href="#m5bd9930e2c" y="139.762439"/>
     <use style="fill:#1f77b4;stroke:#1f77b4;" x="296.628046" xlink:href="#m5bd9930e2c" y="139.762439"/>
     <use style="fill:#1f77b4;stroke:#1f77b4;" x="173.060161" xlink:href="#m5bd9930e2c" y="139.762439"/>
     <use style="fill:#1f77b4;stroke:#1f77b4;" x="77.93554" xlink:href="#m5bd9930e2c" y="139.762439"/>
    </g>
   </g>
   <g id="line2d_14">
    <path clip-path="url(#p25dc57370a)" d="M 242.664497 31.907178 
L 243.252029 50.71867 
L 243.839562 76.96249 
L 244.622939 124.794815 
L 245.014627 148.492143 
L 245.210471 147.264518 
L 246.581381 92.710309 
L 247.168913 78.543638 
L 247.756446 69.636076 
L 248.148134 66.340477 
L 248.539823 64.963833 
L 248.735667 64.942815 
L 248.931511 65.338772 
L 249.323199 67.297925 
L 249.714888 70.67392 
L 250.30242 78.028368 
L 251.085797 91.231119 
L 252.260862 115.594369 
L 254.610993 165.163179 
L 256.177746 192.895243 
L 257.548656 213.649646 
L 258.919565 231.301718 
L 260.290475 246.018257 
L 261.46554 256.422427 
L 262.640605 264.897466 
L 263.619826 270.562139 
L 264.599047 275.020869 
L 265.382424 277.760424 
L 266.1658 279.798202 
L 266.949177 281.165327 
L 267.53671 281.769277 
L 268.124242 282.026622 
L 268.711775 281.95049 
L 269.299308 281.554013 
L 269.88684 280.85032 
L 270.670217 279.456866 
L 271.453594 277.571716 
L 272.432815 274.571245 
L 273.60788 270.106336 
L 274.978789 263.838289 
L 276.545543 255.482584 
L 278.503985 243.614344 
L 281.049959 226.572106 
L 288.100351 178.294261 
L 290.058793 166.800769 
L 291.625546 158.836326 
L 292.996455 152.971952 
L 294.367365 148.168688 
L 295.54243 144.801583 
L 296.717495 142.038819 
L 297.89256 139.797079 
L 299.067626 137.996196 
L 300.242691 136.581089 
L 301.417756 135.50866 
L 302.592821 134.735888 
L 303.767886 134.219749 
L 305.138796 133.884547 
L 306.705549 133.769839 
L 308.663991 133.87964 
L 312.776719 134.183091 
L 314.343473 134.024298 
L 315.714382 133.635686 
L 316.889448 133.062747 
L 318.064513 132.223 
L 319.239578 131.075104 
L 320.414643 129.619379 
L 321.981397 127.275516 
L 323.743994 124.212563 
L 326.289969 119.294796 
L 330.99023 110.126163 
L 332.948672 106.835915 
L 334.515425 104.641786 
L 335.690491 103.322927 
L 336.865556 102.334984 
L 337.844777 101.797502 
L 338.628153 101.573659 
L 339.41153 101.547745 
L 340.194907 101.733321 
L 340.978284 102.14395 
L 341.761661 102.793191 
L 342.545037 103.694608 
L 343.524258 105.196659 
L 344.503479 107.14041 
L 345.4827 109.552347 
L 346.657766 113.101973 
L 347.832831 117.409699 
L 349.007896 122.521296 
L 350.378805 129.561888 
L 351.358026 134.739851 
L 351.749715 135.756919 
L 352.141403 136.103615 
L 352.337247 136.065289 
L 352.728936 135.644723 
L 353.316468 134.392389 
L 355.27491 129.469152 
L 356.254131 127.835198 
L 357.037508 126.927562 
L 357.820885 126.346741 
L 358.604262 126.066591 
L 359.387638 126.060968 
L 360.171015 126.303729 
L 360.954392 126.76873 
L 361.933613 127.622678 
L 363.108678 128.97997 
L 364.479588 130.910481 
L 366.633874 134.375632 
L 369.571537 139.07453 
L 371.13829 141.142275 
L 372.313355 142.327126 
L 373.292576 143.003741 
L 374.075953 143.304862 
L 374.85933 143.364191 
L 375.642707 143.167192 
L 376.426084 142.731364 
L 377.405305 141.885738 
L 378.384526 140.747744 
L 379.559591 139.05943 
L 381.126344 136.388067 
L 383.476475 131.853915 
L 386.805826 125.439566 
L 388.37258 122.867633 
L 389.743489 121.052758 
L 390.72271 120.077138 
L 391.701931 119.419661 
L 392.485308 119.152908 
L 393.268685 119.14148 
L 394.052061 119.408362 
L 394.835438 119.976536 
L 395.618815 120.868987 
L 396.402192 122.108699 
L 397.185569 123.718656 
L 398.16479 126.286774 
L 399.144011 129.514202 
L 400.123231 133.445831 
L 403.844271 149.633633 
L 405.019336 153.343682 
L 406.194402 156.366326 
L 407.369467 158.743211 
L 408.348688 160.260708 
L 409.327909 161.382786 
L 410.30713 162.133544 
L 411.090507 162.482999 
L 411.873883 162.622574 
L 412.65726 162.564611 
L 413.636481 162.233167 
L 414.615702 161.636452 
L 415.790767 160.604171 
L 416.965832 159.266252 
L 418.336742 157.374618 
L 420.09934 154.52097 
L 422.253626 150.580032 
L 429.499861 136.919158 
L 431.262459 134.260168 
L 432.633368 132.562432 
L 433.808433 131.420309 
L 434.787654 130.721115 
L 435.766875 130.277244 
L 436.550252 130.122174 
L 437.333629 130.158276 
L 438.117006 130.397889 
L 438.31285 130.491037 
L 438.31285 130.491037 
" style="fill:none;stroke:#ff7f0e;stroke-dasharray:5.55,2.4;stroke-dashoffset:0;stroke-width:1.5;"/>
   </g>
   <g id="patch_3">
    <path d="M 29.08774 325.921635 
L 29.08774 17.90649 
" style="fill:none;stroke:#000000;stroke-linecap:square;stroke-linejoin:miter;stroke-width:0.8;"/>
   </g>
   <g id="patch_4">
    <path d="M 457.79976 325.921635 
L 457.79976 17.90649 
" style="fill:none;stroke:#000000;stroke-linecap:square;stroke-linejoin:miter;stroke-width:0.8;"/>
   </g>
   <g id="patch_5">
    <path d="M 29.08774 325.921635 
L 457.79976 325.921635 
" style="fill:none;stroke:#000000;stroke-linecap:square;stroke-linejoin:miter;stroke-width:0.8;"/>
   </g>
   <g id="patch_6">
    <path d="M 29.08774 17.90649 
L 457.79976 17.90649 
" style="fill:none;stroke:#000000;stroke-linecap:square;stroke-linejoin:miter;stroke-width:0.8;"/>
   </g>
   <g id="text_13">
    <!-- tau_m=22.451486200747645 -->
    <defs>
     <path d="M 18.3125 70.21875 
L 18.3125 54.6875 
L 36.8125 54.6875 
L 36.8125 47.703125 
L 18.3125 47.703125 
L 18.3125 18.015625 
Q 18.3125 11.328125 20.140625 9.421875 
Q 21.96875 7.515625 27.59375 7.515625 
L 36.8125 7.515625 
L 36.8125 0 
L 27.59375 0 
Q 17.1875 0 13.234375 3.875 
Q 9.28125 7.765625 9.28125 18.015625 
L 9.28125 47.703125 
L 2.6875 47.703125 
L 2.6875 54.6875 
L 9.28125 54.6875 
L 9.28125 70.21875 
z
" id="DejaVuSans-116"/>
     <path d="M 34.28125 27.484375 
Q 23.390625 27.484375 19.1875 25 
Q 14.984375 22.515625 14.984375 16.5 
Q 14.984375 11.71875 18.140625 8.90625 
Q 21.296875 6.109375 26.703125 6.109375 
Q 34.1875 6.109375 38.703125 11.40625 
Q 43.21875 16.703125 43.21875 25.484375 
L 43.21875 27.484375 
z
M 52.203125 31.203125 
L 52.203125 0 
L 43.21875 0 
L 43.21875 8.296875 
Q 40.140625 3.328125 35.546875 0.953125 
Q 30.953125 -1.421875 24.3125 -1.421875 
Q 15.921875 -1.421875 10.953125 3.296875 
Q 6 8.015625 6 15.921875 
Q 6 25.140625 12.171875 29.828125 
Q 18.359375 34.515625 30.609375 34.515625 
L 43.21875 34.515625 
L 43.21875 35.40625 
Q 43.21875 41.609375 39.140625 45 
Q 35.0625 48.390625 27.6875 48.390625 
Q 23 48.390625 18.546875 47.265625 
Q 14.109375 46.140625 10.015625 43.890625 
L 10.015625 52.203125 
Q 14.9375 54.109375 19.578125 55.046875 
Q 24.21875 56 28.609375 56 
Q 40.484375 56 46.34375 49.84375 
Q 52.203125 43.703125 52.203125 31.203125 
z
" id="DejaVuSans-97"/>
     <path d="M 8.5 21.578125 
L 8.5 54.6875 
L 17.484375 54.6875 
L 17.484375 21.921875 
Q 17.484375 14.15625 20.5 10.265625 
Q 23.53125 6.390625 29.59375 6.390625 
Q 36.859375 6.390625 41.078125 11.03125 
Q 45.3125 15.671875 45.3125 23.6875 
L 45.3125 54.6875 
L 54.296875 54.6875 
L 54.296875 0 
L 45.3125 0 
L 45.3125 8.40625 
Q 42.046875 3.421875 37.71875 1 
Q 33.40625 -1.421875 27.6875 -1.421875 
Q 18.265625 -1.421875 13.375 4.4375 
Q 8.5 10.296875 8.5 21.578125 
z
M 31.109375 56 
z
" id="DejaVuSans-117"/>
     <path d="M 50.984375 -16.609375 
L 50.984375 -23.578125 
L -0.984375 -23.578125 
L -0.984375 -16.609375 
z
" id="DejaVuSans-95"/>
     <path d="M 52 44.1875 
Q 55.375 50.25 60.0625 53.125 
Q 64.75 56 71.09375 56 
Q 79.640625 56 84.28125 50.015625 
Q 88.921875 44.046875 88.921875 33.015625 
L 88.921875 0 
L 79.890625 0 
L 79.890625 32.71875 
Q 79.890625 40.578125 77.09375 44.375 
Q 74.3125 48.1875 68.609375 48.1875 
Q 61.625 48.1875 57.5625 43.546875 
Q 53.515625 38.921875 53.515625 30.90625 
L 53.515625 0 
L 44.484375 0 
L 44.484375 32.71875 
Q 44.484375 40.625 41.703125 44.40625 
Q 38.921875 48.1875 33.109375 48.1875 
Q 26.21875 48.1875 22.15625 43.53125 
Q 18.109375 38.875 18.109375 30.90625 
L 18.109375 0 
L 9.078125 0 
L 9.078125 54.6875 
L 18.109375 54.6875 
L 18.109375 46.1875 
Q 21.1875 51.21875 25.484375 53.609375 
Q 29.78125 56 35.6875 56 
Q 41.65625 56 45.828125 52.96875 
Q 50 49.953125 52 44.1875 
z
" id="DejaVuSans-109"/>
     <path d="M 10.59375 45.40625 
L 73.1875 45.40625 
L 73.1875 37.203125 
L 10.59375 37.203125 
z
M 10.59375 25.484375 
L 73.1875 25.484375 
L 73.1875 17.1875 
L 10.59375 17.1875 
z
" id="DejaVuSans-61"/>
     <path d="M 12.40625 8.296875 
L 28.515625 8.296875 
L 28.515625 63.921875 
L 10.984375 60.40625 
L 10.984375 69.390625 
L 28.421875 72.90625 
L 38.28125 72.90625 
L 38.28125 8.296875 
L 54.390625 8.296875 
L 54.390625 0 
L 12.40625 0 
z
" id="DejaVuSans-49"/>
    </defs>
    <g transform="translate(152.935625 11.90649)scale(0.12 -0.12)">
     <use xlink:href="#DejaVuSans-116"/>
     <use x="39.208984" xlink:href="#DejaVuSans-97"/>
     <use x="100.488281" xlink:href="#DejaVuSans-117"/>
     <use x="163.867188" xlink:href="#DejaVuSans-95"/>
     <use x="213.867188" xlink:href="#DejaVuSans-109"/>
     <use x="311.279297" xlink:href="#DejaVuSans-61"/>
     <use x="395.068359" xlink:href="#DejaVuSans-50"/>
     <use x="458.691406" xlink:href="#DejaVuSans-50"/>
     <use x="522.314453" xlink:href="#DejaVuSans-46"/>
     <use x="554.101562" xlink:href="#DejaVuSans-52"/>
     <use x="617.724609" xlink:href="#DejaVuSans-53"/>
     <use x="681.347656" xlink:href="#DejaVuSans-49"/>
     <use x="744.970703" xlink:href="#DejaVuSans-52"/>
     <use x="808.59375" xlink:href="#DejaVuSans-56"/>
     <use x="872.216797" xlink:href="#DejaVuSans-54"/>
     <use x="935.839844" xlink:href="#DejaVuSans-50"/>
     <use x="999.462891" xlink:href="#DejaVuSans-48"/>
     <use x="1063.085938" xlink:href="#DejaVuSans-48"/>
     <use x="1126.708984" xlink:href="#DejaVuSans-55"/>
     <use x="1190.332031" xlink:href="#DejaVuSans-52"/>
     <use x="1253.955078" xlink:href="#DejaVuSans-55"/>
     <use x="1317.578125" xlink:href="#DejaVuSans-54"/>
     <use x="1381.201172" xlink:href="#DejaVuSans-52"/>
     <use x="1444.824219" xlink:href="#DejaVuSans-53"/>
    </g>
   </g>
   <g id="legend_1">
    <g id="patch_7">
     <path d="M 396.27476 55.26274 
L 450.79976 55.26274 
Q 452.79976 55.26274 452.79976 53.26274 
L 452.79976 24.90649 
Q 452.79976 22.90649 450.79976 22.90649 
L 396.27476 22.90649 
Q 394.27476 22.90649 394.27476 24.90649 
L 394.27476 53.26274 
Q 394.27476 55.26274 396.27476 55.26274 
z
" style="fill:#ffffff;opacity:0.8;stroke:#cccccc;stroke-linejoin:miter;"/>
    </g>
    <g id="line2d_15"/>
    <g id="line2d_16">
     <g>
      <use style="fill:#1f77b4;stroke:#1f77b4;" x="408.27476" xlink:href="#m5bd9930e2c" y="31.004927"/>
     </g>
    </g>
    <g id="text_14">
     <!-- data -->
     <defs>
      <path d="M 45.40625 46.390625 
L 45.40625 75.984375 
L 54.390625 75.984375 
L 54.390625 0 
L 45.40625 0 
L 45.40625 8.203125 
Q 42.578125 3.328125 38.25 0.953125 
Q 33.9375 -1.421875 27.875 -1.421875 
Q 17.96875 -1.421875 11.734375 6.484375 
Q 5.515625 14.40625 5.515625 27.296875 
Q 5.515625 40.1875 11.734375 48.09375 
Q 17.96875 56 27.875 56 
Q 33.9375 56 38.25 53.625 
Q 42.578125 51.265625 45.40625 46.390625 
z
M 14.796875 27.296875 
Q 14.796875 17.390625 18.875 11.75 
Q 22.953125 6.109375 30.078125 6.109375 
Q 37.203125 6.109375 41.296875 11.75 
Q 45.40625 17.390625 45.40625 27.296875 
Q 45.40625 37.203125 41.296875 42.84375 
Q 37.203125 48.484375 30.078125 48.484375 
Q 22.953125 48.484375 18.875 42.84375 
Q 14.796875 37.203125 14.796875 27.296875 
z
" id="DejaVuSans-100"/>
     </defs>
     <g transform="translate(426.27476 34.504927)scale(0.1 -0.1)">
      <use xlink:href="#DejaVuSans-100"/>
      <use x="63.476562" xlink:href="#DejaVuSans-97"/>
      <use x="124.755859" xlink:href="#DejaVuSans-116"/>
      <use x="163.964844" xlink:href="#DejaVuSans-97"/>
     </g>
    </g>
    <g id="line2d_17">
     <path d="M 398.27476 45.683052 
L 418.27476 45.683052 
" style="fill:none;stroke:#ff7f0e;stroke-dasharray:5.55,2.4;stroke-dashoffset:0;stroke-width:1.5;"/>
    </g>
    <g id="line2d_18"/>
    <g id="text_15">
     <!-- cs -->
     <defs>
      <path d="M 48.78125 52.59375 
L 48.78125 44.1875 
Q 44.96875 46.296875 41.140625 47.34375 
Q 37.3125 48.390625 33.40625 48.390625 
Q 24.65625 48.390625 19.8125 42.84375 
Q 14.984375 37.3125 14.984375 27.296875 
Q 14.984375 17.28125 19.8125 11.734375 
Q 24.65625 6.203125 33.40625 6.203125 
Q 37.3125 6.203125 41.140625 7.25 
Q 44.96875 8.296875 48.78125 10.40625 
L 48.78125 2.09375 
Q 45.015625 0.34375 40.984375 -0.53125 
Q 36.96875 -1.421875 32.421875 -1.421875 
Q 20.0625 -1.421875 12.78125 6.34375 
Q 5.515625 14.109375 5.515625 27.296875 
Q 5.515625 40.671875 12.859375 48.328125 
Q 20.21875 56 33.015625 56 
Q 37.15625 56 41.109375 55.140625 
Q 45.0625 54.296875 48.78125 52.59375 
z
" id="DejaVuSans-99"/>
      <path d="M 44.28125 53.078125 
L 44.28125 44.578125 
Q 40.484375 46.53125 36.375 47.5 
Q 32.28125 48.484375 27.875 48.484375 
Q 21.1875 48.484375 17.84375 46.4375 
Q 14.5 44.390625 14.5 40.28125 
Q 14.5 37.15625 16.890625 35.375 
Q 19.28125 33.59375 26.515625 31.984375 
L 29.59375 31.296875 
Q 39.15625 29.25 43.1875 25.515625 
Q 47.21875 21.78125 47.21875 15.09375 
Q 47.21875 7.46875 41.1875 3.015625 
Q 35.15625 -1.421875 24.609375 -1.421875 
Q 20.21875 -1.421875 15.453125 -0.5625 
Q 10.6875 0.296875 5.421875 2 
L 5.421875 11.28125 
Q 10.40625 8.6875 15.234375 7.390625 
Q 20.0625 6.109375 24.8125 6.109375 
Q 31.15625 6.109375 34.5625 8.28125 
Q 37.984375 10.453125 37.984375 14.40625 
Q 37.984375 18.0625 35.515625 20.015625 
Q 33.0625 21.96875 24.703125 23.78125 
L 21.578125 24.515625 
Q 13.234375 26.265625 9.515625 29.90625 
Q 5.8125 33.546875 5.8125 39.890625 
Q 5.8125 47.609375 11.28125 51.796875 
Q 16.75 56 26.8125 56 
Q 31.78125 56 36.171875 55.265625 
Q 40.578125 54.546875 44.28125 53.078125 
z
" id="DejaVuSans-115"/>
     </defs>
     <g transform="translate(426.27476 49.183052)scale(0.1 -0.1)">
      <use xlink:href="#DejaVuSans-99"/>
      <use x="54.980469" xlink:href="#DejaVuSans-115"/>
     </g>
    </g>
   </g>
  </g>
 </g>
 <defs>
  <clipPath id="p25dc57370a">
   <rect height="308.015145" width="428.71202" x="29.08774" y="17.90649"/>
  </clipPath>
 </defs>
</svg>
