<?xml version="1.0" encoding="utf-8" standalone="no"?>
<!DOCTYPE svg PUBLIC "-//W3C//DTD SVG 1.1//EN"
  "http://www.w3.org/Graphics/SVG/1.1/DTD/svg11.dtd">
<!-- Created with matplotlib (https://matplotlib.org/) -->
<svg height="345.6pt" version="1.1" viewBox="0 0 460.8 345.6" width="460.8pt" xmlns="http://www.w3.org/2000/svg" xmlns:xlink="http://www.w3.org/1999/xlink">
 <defs>
  <style type="text/css">
*{stroke-linecap:butt;stroke-linejoin:round;}
  </style>
 </defs>
 <g id="figure_1">
  <g id="patch_1">
   <path d="M 0 345.6 
L 460.8 345.6 
L 460.8 0 
L 0 0 
z
" style="fill:#ffffff;"/>
  </g>
  <g id="axes_1">
   <g id="patch_2">
    <path d="M 48.17524 325.921635 
L 457.79976 325.921635 
L 457.79976 17.90649 
L 48.17524 17.90649 
z
" style="fill:#ffffff;"/>
   </g>
   <g id="matplotlib.axis_1">
    <g id="xtick_1">
     <g id="line2d_1">
      <defs>
       <path d="M 0 0 
L 0 3.5 
" id="m64c3780b0f" style="stroke:#000000;stroke-width:0.8;"/>
      </defs>
      <g>
       <use style="stroke:#000000;stroke-width:0.8;" x="115.366614" xlink:href="#m64c3780b0f" y="325.921635"/>
      </g>
     </g>
     <g id="text_1">
      <!-- −10 -->
      <defs>
       <path d="M 10.59375 35.5 
L 73.1875 35.5 
L 73.1875 27.203125 
L 10.59375 27.203125 
z
" id="DejaVuSans-8722"/>
       <path d="M 12.40625 8.296875 
L 28.515625 8.296875 
L 28.515625 63.921875 
L 10.984375 60.40625 
L 10.984375 69.390625 
L 28.421875 72.90625 
L 38.28125 72.90625 
L 38.28125 8.296875 
L 54.390625 8.296875 
L 54.390625 0 
L 12.40625 0 
z
" id="DejaVuSans-49"/>
       <path d="M 31.78125 66.40625 
Q 24.171875 66.40625 20.328125 58.90625 
Q 16.5 51.421875 16.5 36.375 
Q 16.5 21.390625 20.328125 13.890625 
Q 24.171875 6.390625 31.78125 6.390625 
Q 39.453125 6.390625 43.28125 13.890625 
Q 47.125 21.390625 47.125 36.375 
Q 47.125 51.421875 43.28125 58.90625 
Q 39.453125 66.40625 31.78125 66.40625 
z
M 31.78125 74.21875 
Q 44.046875 74.21875 50.515625 64.515625 
Q 56.984375 54.828125 56.984375 36.375 
Q 56.984375 17.96875 50.515625 8.265625 
Q 44.046875 -1.421875 31.78125 -1.421875 
Q 19.53125 -1.421875 13.0625 8.265625 
Q 6.59375 17.96875 6.59375 36.375 
Q 6.59375 54.828125 13.0625 64.515625 
Q 19.53125 74.21875 31.78125 74.21875 
z
" id="DejaVuSans-48"/>
      </defs>
      <g transform="translate(104.81427 340.520072)scale(0.1 -0.1)">
       <use xlink:href="#DejaVuSans-8722"/>
       <use x="83.789062" xlink:href="#DejaVuSans-49"/>
       <use x="147.412109" xlink:href="#DejaVuSans-48"/>
      </g>
     </g>
    </g>
    <g id="xtick_2">
     <g id="line2d_2">
      <g>
       <use style="stroke:#000000;stroke-width:0.8;" x="196.320076" xlink:href="#m64c3780b0f" y="325.921635"/>
      </g>
     </g>
     <g id="text_2">
      <!-- −5 -->
      <defs>
       <path d="M 10.796875 72.90625 
L 49.515625 72.90625 
L 49.515625 64.59375 
L 19.828125 64.59375 
L 19.828125 46.734375 
Q 21.96875 47.46875 24.109375 47.828125 
Q 26.265625 48.1875 28.421875 48.1875 
Q 40.625 48.1875 47.75 41.5 
Q 54.890625 34.8125 54.890625 23.390625 
Q 54.890625 11.625 47.5625 5.09375 
Q 40.234375 -1.421875 26.90625 -1.421875 
Q 22.3125 -1.421875 17.546875 -0.640625 
Q 12.796875 0.140625 7.71875 1.703125 
L 7.71875 11.625 
Q 12.109375 9.234375 16.796875 8.0625 
Q 21.484375 6.890625 26.703125 6.890625 
Q 35.15625 6.890625 40.078125 11.328125 
Q 45.015625 15.765625 45.015625 23.390625 
Q 45.015625 31 40.078125 35.4375 
Q 35.15625 39.890625 26.703125 39.890625 
Q 22.75 39.890625 18.8125 39.015625 
Q 14.890625 38.140625 10.796875 36.28125 
z
" id="DejaVuSans-53"/>
      </defs>
      <g transform="translate(188.948983 340.520072)scale(0.1 -0.1)">
       <use xlink:href="#DejaVuSans-8722"/>
       <use x="83.789062" xlink:href="#DejaVuSans-53"/>
      </g>
     </g>
    </g>
    <g id="xtick_3">
     <g id="line2d_3">
      <g>
       <use style="stroke:#000000;stroke-width:0.8;" x="277.273539" xlink:href="#m64c3780b0f" y="325.921635"/>
      </g>
     </g>
     <g id="text_3">
      <!-- 0 -->
      <g transform="translate(274.092289 340.520072)scale(0.1 -0.1)">
       <use xlink:href="#DejaVuSans-48"/>
      </g>
     </g>
    </g>
    <g id="xtick_4">
     <g id="line2d_4">
      <g>
       <use style="stroke:#000000;stroke-width:0.8;" x="358.227001" xlink:href="#m64c3780b0f" y="325.921635"/>
      </g>
     </g>
     <g id="text_4">
      <!-- 5 -->
      <g transform="translate(355.045751 340.520072)scale(0.1 -0.1)">
       <use xlink:href="#DejaVuSans-53"/>
      </g>
     </g>
    </g>
    <g id="xtick_5">
     <g id="line2d_5">
      <g>
       <use style="stroke:#000000;stroke-width:0.8;" x="439.180464" xlink:href="#m64c3780b0f" y="325.921635"/>
      </g>
     </g>
     <g id="text_5">
      <!-- 10 -->
      <g transform="translate(432.817964 340.520072)scale(0.1 -0.1)">
       <use xlink:href="#DejaVuSans-49"/>
       <use x="63.623047" xlink:href="#DejaVuSans-48"/>
      </g>
     </g>
    </g>
   </g>
   <g id="matplotlib.axis_2">
    <g id="ytick_1">
     <g id="line2d_6">
      <defs>
       <path d="M 0 0 
L -3.5 0 
" id="m92f8159e90" style="stroke:#000000;stroke-width:0.8;"/>
      </defs>
      <g>
       <use style="stroke:#000000;stroke-width:0.8;" x="48.17524" xlink:href="#m92f8159e90" y="280.434547"/>
      </g>
     </g>
     <g id="text_6">
      <!-- 0 -->
      <g transform="translate(34.81274 284.233765)scale(0.1 -0.1)">
       <use xlink:href="#DejaVuSans-48"/>
      </g>
     </g>
    </g>
    <g id="ytick_2">
     <g id="line2d_7">
      <g>
       <use style="stroke:#000000;stroke-width:0.8;" x="48.17524" xlink:href="#m92f8159e90" y="218.883896"/>
      </g>
     </g>
     <g id="text_7">
      <!-- 50000 -->
      <g transform="translate(9.36274 222.683114)scale(0.1 -0.1)">
       <use xlink:href="#DejaVuSans-53"/>
       <use x="63.623047" xlink:href="#DejaVuSans-48"/>
       <use x="127.246094" xlink:href="#DejaVuSans-48"/>
       <use x="190.869141" xlink:href="#DejaVuSans-48"/>
       <use x="254.492188" xlink:href="#DejaVuSans-48"/>
      </g>
     </g>
    </g>
    <g id="ytick_3">
     <g id="line2d_8">
      <g>
       <use style="stroke:#000000;stroke-width:0.8;" x="48.17524" xlink:href="#m92f8159e90" y="157.333245"/>
      </g>
     </g>
     <g id="text_8">
      <!-- 100000 -->
      <g transform="translate(3.00024 161.132464)scale(0.1 -0.1)">
       <use xlink:href="#DejaVuSans-49"/>
       <use x="63.623047" xlink:href="#DejaVuSans-48"/>
       <use x="127.246094" xlink:href="#DejaVuSans-48"/>
       <use x="190.869141" xlink:href="#DejaVuSans-48"/>
       <use x="254.492188" xlink:href="#DejaVuSans-48"/>
       <use x="318.115234" xlink:href="#DejaVuSans-48"/>
      </g>
     </g>
    </g>
    <g id="ytick_4">
     <g id="line2d_9">
      <g>
       <use style="stroke:#000000;stroke-width:0.8;" x="48.17524" xlink:href="#m92f8159e90" y="95.782594"/>
      </g>
     </g>
     <g id="text_9">
      <!-- 150000 -->
      <g transform="translate(3.00024 99.581813)scale(0.1 -0.1)">
       <use xlink:href="#DejaVuSans-49"/>
       <use x="63.623047" xlink:href="#DejaVuSans-53"/>
       <use x="127.246094" xlink:href="#DejaVuSans-48"/>
       <use x="190.869141" xlink:href="#DejaVuSans-48"/>
       <use x="254.492188" xlink:href="#DejaVuSans-48"/>
       <use x="318.115234" xlink:href="#DejaVuSans-48"/>
      </g>
     </g>
    </g>
    <g id="ytick_5">
     <g id="line2d_10">
      <g>
       <use style="stroke:#000000;stroke-width:0.8;" x="48.17524" xlink:href="#m92f8159e90" y="34.231943"/>
      </g>
     </g>
     <g id="text_10">
      <!-- 200000 -->
      <defs>
       <path d="M 19.1875 8.296875 
L 53.609375 8.296875 
L 53.609375 0 
L 7.328125 0 
L 7.328125 8.296875 
Q 12.9375 14.109375 22.625 23.890625 
Q 32.328125 33.6875 34.8125 36.53125 
Q 39.546875 41.84375 41.421875 45.53125 
Q 43.3125 49.21875 43.3125 52.78125 
Q 43.3125 58.59375 39.234375 62.25 
Q 35.15625 65.921875 28.609375 65.921875 
Q 23.96875 65.921875 18.8125 64.3125 
Q 13.671875 62.703125 7.8125 59.421875 
L 7.8125 69.390625 
Q 13.765625 71.78125 18.9375 73 
Q 24.125 74.21875 28.421875 74.21875 
Q 39.75 74.21875 46.484375 68.546875 
Q 53.21875 62.890625 53.21875 53.421875 
Q 53.21875 48.921875 51.53125 44.890625 
Q 49.859375 40.875 45.40625 35.40625 
Q 44.1875 33.984375 37.640625 27.21875 
Q 31.109375 20.453125 19.1875 8.296875 
z
" id="DejaVuSans-50"/>
      </defs>
      <g transform="translate(3.00024 38.031162)scale(0.1 -0.1)">
       <use xlink:href="#DejaVuSans-50"/>
       <use x="63.623047" xlink:href="#DejaVuSans-48"/>
       <use x="127.246094" xlink:href="#DejaVuSans-48"/>
       <use x="190.869141" xlink:href="#DejaVuSans-48"/>
       <use x="254.492188" xlink:href="#DejaVuSans-48"/>
       <use x="318.115234" xlink:href="#DejaVuSans-48"/>
      </g>
     </g>
    </g>
   </g>
   <g id="line2d_11">
    <defs>
     <path d="M 0 3 
C 0.795609 3 1.55874 2.683901 2.12132 2.12132 
C 2.683901 1.55874 3 0.795609 3 0 
C 3 -0.795609 2.683901 -1.55874 2.12132 -2.12132 
C 1.55874 -2.683901 0.795609 -3 0 -3 
C -0.795609 -3 -1.55874 -2.683901 -2.12132 -2.12132 
C -2.683901 -1.55874 -3 -0.795609 -3 0 
C -3 0.795609 -2.683901 1.55874 -2.12132 2.12132 
C -1.55874 2.683901 -0.795609 3 0 3 
z
" id="m5e019dd7cf" style="stroke:#1f77b4;"/>
    </defs>
    <g clip-path="url(#pf02f0a9c1f)">
     <use style="fill:#1f77b4;stroke:#1f77b4;" x="369.020796" xlink:href="#m5e019dd7cf" y="280.233891"/>
     <use style="fill:#1f77b4;stroke:#1f77b4;" x="271.876641" xlink:href="#m5e019dd7cf" y="280.233891"/>
     <use style="fill:#1f77b4;stroke:#1f77b4;" x="239.495256" xlink:href="#m5e019dd7cf" y="280.233891"/>
     <use style="fill:#1f77b4;stroke:#1f77b4;" x="234.098359" xlink:href="#m5e019dd7cf" y="280.434547"/>
     <use style="fill:#1f77b4;stroke:#1f77b4;" x="363.623899" xlink:href="#m5e019dd7cf" y="280.233891"/>
     <use style="fill:#1f77b4;stroke:#1f77b4;" x="212.510769" xlink:href="#m5e019dd7cf" y="280.233891"/>
     <use style="fill:#1f77b4;stroke:#1f77b4;" x="293.464231" xlink:href="#m5e019dd7cf" y="280.233891"/>
     <use style="fill:#1f77b4;stroke:#1f77b4;" x="234.098359" xlink:href="#m5e019dd7cf" y="280.233891"/>
     <use style="fill:#1f77b4;stroke:#1f77b4;" x="282.670436" xlink:href="#m5e019dd7cf" y="280.233891"/>
     <use style="fill:#1f77b4;stroke:#1f77b4;" x="342.036309" xlink:href="#m5e019dd7cf" y="280.434547"/>
     <use style="fill:#1f77b4;stroke:#1f77b4;" x="136.954204" xlink:href="#m5e019dd7cf" y="280.233891"/>
     <use style="fill:#1f77b4;stroke:#1f77b4;" x="277.273539" xlink:href="#m5e019dd7cf" y="280.233891"/>
     <use style="fill:#1f77b4;stroke:#1f77b4;" x="325.845616" xlink:href="#m5e019dd7cf" y="280.233891"/>
     <use style="fill:#1f77b4;stroke:#1f77b4;" x="309.654924" xlink:href="#m5e019dd7cf" y="280.233891"/>
     <use style="fill:#1f77b4;stroke:#1f77b4;" x="250.289051" xlink:href="#m5e019dd7cf" y="280.252357"/>
     <use style="fill:#1f77b4;stroke:#1f77b4;" x="428.386669" xlink:href="#m5e019dd7cf" y="280.233891"/>
     <use style="fill:#1f77b4;stroke:#1f77b4;" x="277.273539" xlink:href="#m5e019dd7cf" y="280.233891"/>
     <use style="fill:#1f77b4;stroke:#1f77b4;" x="288.067334" xlink:href="#m5e019dd7cf" y="280.233891"/>
     <use style="fill:#1f77b4;stroke:#1f77b4;" x="153.144896" xlink:href="#m5e019dd7cf" y="280.233891"/>
     <use style="fill:#1f77b4;stroke:#1f77b4;" x="190.923179" xlink:href="#m5e019dd7cf" y="280.233891"/>
     <use style="fill:#1f77b4;stroke:#1f77b4;" x="126.160409" xlink:href="#m5e019dd7cf" y="280.233891"/>
     <use style="fill:#1f77b4;stroke:#1f77b4;" x="325.845616" xlink:href="#m5e019dd7cf" y="280.233891"/>
     <use style="fill:#1f77b4;stroke:#1f77b4;" x="185.526281" xlink:href="#m5e019dd7cf" y="280.233891"/>
     <use style="fill:#1f77b4;stroke:#1f77b4;" x="298.861129" xlink:href="#m5e019dd7cf" y="280.233891"/>
     <use style="fill:#1f77b4;stroke:#1f77b4;" x="396.005284" xlink:href="#m5e019dd7cf" y="280.233891"/>
     <use style="fill:#1f77b4;stroke:#1f77b4;" x="336.639411" xlink:href="#m5e019dd7cf" y="280.233891"/>
     <use style="fill:#1f77b4;stroke:#1f77b4;" x="342.036309" xlink:href="#m5e019dd7cf" y="280.233891"/>
     <use style="fill:#1f77b4;stroke:#1f77b4;" x="261.082846" xlink:href="#m5e019dd7cf" y="280.233891"/>
     <use style="fill:#1f77b4;stroke:#1f77b4;" x="217.907666" xlink:href="#m5e019dd7cf" y="280.233891"/>
     <use style="fill:#1f77b4;stroke:#1f77b4;" x="169.335589" xlink:href="#m5e019dd7cf" y="280.233891"/>
     <use style="fill:#1f77b4;stroke:#1f77b4;" x="309.654924" xlink:href="#m5e019dd7cf" y="280.233891"/>
     <use style="fill:#1f77b4;stroke:#1f77b4;" x="298.861129" xlink:href="#m5e019dd7cf" y="280.233891"/>
     <use style="fill:#1f77b4;stroke:#1f77b4;" x="120.763511" xlink:href="#m5e019dd7cf" y="280.233891"/>
     <use style="fill:#1f77b4;stroke:#1f77b4;" x="261.082846" xlink:href="#m5e019dd7cf" y="280.233891"/>
     <use style="fill:#1f77b4;stroke:#1f77b4;" x="266.479744" xlink:href="#m5e019dd7cf" y="280.233891"/>
     <use style="fill:#1f77b4;stroke:#1f77b4;" x="439.180464" xlink:href="#m5e019dd7cf" y="280.233891"/>
     <use style="fill:#1f77b4;stroke:#1f77b4;" x="304.258026" xlink:href="#m5e019dd7cf" y="280.233891"/>
     <use style="fill:#1f77b4;stroke:#1f77b4;" x="66.794536" xlink:href="#m5e019dd7cf" y="280.233891"/>
     <use style="fill:#1f77b4;stroke:#1f77b4;" x="228.701461" xlink:href="#m5e019dd7cf" y="280.233891"/>
     <use style="fill:#1f77b4;stroke:#1f77b4;" x="298.861129" xlink:href="#m5e019dd7cf" y="280.233891"/>
     <use style="fill:#1f77b4;stroke:#1f77b4;" x="277.273539" xlink:href="#m5e019dd7cf" y="280.233891"/>
     <use style="fill:#1f77b4;stroke:#1f77b4;" x="277.273539" xlink:href="#m5e019dd7cf" y="280.233891"/>
     <use style="fill:#1f77b4;stroke:#1f77b4;" x="331.242514" xlink:href="#m5e019dd7cf" y="280.233891"/>
     <use style="fill:#1f77b4;stroke:#1f77b4;" x="293.464231" xlink:href="#m5e019dd7cf" y="280.233891"/>
     <use style="fill:#1f77b4;stroke:#1f77b4;" x="298.861129" xlink:href="#m5e019dd7cf" y="280.233891"/>
     <use style="fill:#1f77b4;stroke:#1f77b4;" x="196.320076" xlink:href="#m5e019dd7cf" y="280.233891"/>
     <use style="fill:#1f77b4;stroke:#1f77b4;" x="207.113871" xlink:href="#m5e019dd7cf" y="280.233891"/>
     <use style="fill:#1f77b4;stroke:#1f77b4;" x="239.495256" xlink:href="#m5e019dd7cf" y="280.233891"/>
     <use style="fill:#1f77b4;stroke:#1f77b4;" x="325.845616" xlink:href="#m5e019dd7cf" y="280.233891"/>
     <use style="fill:#1f77b4;stroke:#1f77b4;" x="304.258026" xlink:href="#m5e019dd7cf" y="280.233891"/>
     <use style="fill:#1f77b4;stroke:#1f77b4;" x="282.670436" xlink:href="#m5e019dd7cf" y="280.233891"/>
     <use style="fill:#1f77b4;stroke:#1f77b4;" x="271.876641" xlink:href="#m5e019dd7cf" y="280.233891"/>
     <use style="fill:#1f77b4;stroke:#1f77b4;" x="261.082846" xlink:href="#m5e019dd7cf" y="280.233891"/>
     <use style="fill:#1f77b4;stroke:#1f77b4;" x="336.639411" xlink:href="#m5e019dd7cf" y="280.233891"/>
     <use style="fill:#1f77b4;stroke:#1f77b4;" x="196.320076" xlink:href="#m5e019dd7cf" y="280.233891"/>
     <use style="fill:#1f77b4;stroke:#1f77b4;" x="180.129384" xlink:href="#m5e019dd7cf" y="280.233891"/>
     <use style="fill:#1f77b4;stroke:#1f77b4;" x="298.861129" xlink:href="#m5e019dd7cf" y="280.233891"/>
     <use style="fill:#1f77b4;stroke:#1f77b4;" x="390.608386" xlink:href="#m5e019dd7cf" y="280.233891"/>
     <use style="fill:#1f77b4;stroke:#1f77b4;" x="401.402181" xlink:href="#m5e019dd7cf" y="280.233891"/>
     <use style="fill:#1f77b4;stroke:#1f77b4;" x="417.592874" xlink:href="#m5e019dd7cf" y="280.233891"/>
    </g>
   </g>
   <g id="line2d_12">
    <path clip-path="url(#pf02f0a9c1f)" d="M 277.273539 280.230486 
L 282.856536 280.264121 
L 288.439534 280.209642 
L 294.022531 280.240447 
L 299.605528 280.090773 
L 305.188526 280.266371 
L 310.771523 280.189167 
L 316.354521 279.738776 
L 321.937518 279.610532 
L 327.520515 280.218989 
L 333.103513 280.479921 
L 338.68651 311.920947 
L 344.269508 153.887229 
L 349.852505 31.907178 
L 355.435502 108.553627 
L 361.0185 239.670437 
L 366.601497 288.305063 
L 372.184495 272.210435 
L 377.767492 268.43217 
L 383.35049 273.07587 
L 388.933487 279.128888 
L 394.516484 280.458539 
L 400.099482 280.168924 
L 405.682479 280.337845 
L 411.265477 280.322405 
L 416.848474 280.243595 
L 422.431471 280.212914 
L 428.014469 280.230713 
L 433.597466 280.252685 
L 439.180464 280.234401 
" style="fill:none;stroke:#ff7f0e;stroke-dasharray:5.55,2.4;stroke-dashoffset:0;stroke-width:1.5;"/>
   </g>
   <g id="patch_3">
    <path d="M 48.17524 325.921635 
L 48.17524 17.90649 
" style="fill:none;stroke:#000000;stroke-linecap:square;stroke-linejoin:miter;stroke-width:0.8;"/>
   </g>
   <g id="patch_4">
    <path d="M 457.79976 325.921635 
L 457.79976 17.90649 
" style="fill:none;stroke:#000000;stroke-linecap:square;stroke-linejoin:miter;stroke-width:0.8;"/>
   </g>
   <g id="patch_5">
    <path d="M 48.17524 325.921635 
L 457.79976 325.921635 
" style="fill:none;stroke:#000000;stroke-linecap:square;stroke-linejoin:miter;stroke-width:0.8;"/>
   </g>
   <g id="patch_6">
    <path d="M 48.17524 17.90649 
L 457.79976 17.90649 
" style="fill:none;stroke:#000000;stroke-linecap:square;stroke-linejoin:miter;stroke-width:0.8;"/>
   </g>
   <g id="text_11">
    <!-- tau_m=0.5095339947101265 -->
    <defs>
     <path d="M 18.3125 70.21875 
L 18.3125 54.6875 
L 36.8125 54.6875 
L 36.8125 47.703125 
L 18.3125 47.703125 
L 18.3125 18.015625 
Q 18.3125 11.328125 20.140625 9.421875 
Q 21.96875 7.515625 27.59375 7.515625 
L 36.8125 7.515625 
L 36.8125 0 
L 27.59375 0 
Q 17.1875 0 13.234375 3.875 
Q 9.28125 7.765625 9.28125 18.015625 
L 9.28125 47.703125 
L 2.6875 47.703125 
L 2.6875 54.6875 
L 9.28125 54.6875 
L 9.28125 70.21875 
z
" id="DejaVuSans-116"/>
     <path d="M 34.28125 27.484375 
Q 23.390625 27.484375 19.1875 25 
Q 14.984375 22.515625 14.984375 16.5 
Q 14.984375 11.71875 18.140625 8.90625 
Q 21.296875 6.109375 26.703125 6.109375 
Q 34.1875 6.109375 38.703125 11.40625 
Q 43.21875 16.703125 43.21875 25.484375 
L 43.21875 27.484375 
z
M 52.203125 31.203125 
L 52.203125 0 
L 43.21875 0 
L 43.21875 8.296875 
Q 40.140625 3.328125 35.546875 0.953125 
Q 30.953125 -1.421875 24.3125 -1.421875 
Q 15.921875 -1.421875 10.953125 3.296875 
Q 6 8.015625 6 15.921875 
Q 6 25.140625 12.171875 29.828125 
Q 18.359375 34.515625 30.609375 34.515625 
L 43.21875 34.515625 
L 43.21875 35.40625 
Q 43.21875 41.609375 39.140625 45 
Q 35.0625 48.390625 27.6875 48.390625 
Q 23 48.390625 18.546875 47.265625 
Q 14.109375 46.140625 10.015625 43.890625 
L 10.015625 52.203125 
Q 14.9375 54.109375 19.578125 55.046875 
Q 24.21875 56 28.609375 56 
Q 40.484375 56 46.34375 49.84375 
Q 52.203125 43.703125 52.203125 31.203125 
z
" id="DejaVuSans-97"/>
     <path d="M 8.5 21.578125 
L 8.5 54.6875 
L 17.484375 54.6875 
L 17.484375 21.921875 
Q 17.484375 14.15625 20.5 10.265625 
Q 23.53125 6.390625 29.59375 6.390625 
Q 36.859375 6.390625 41.078125 11.03125 
Q 45.3125 15.671875 45.3125 23.6875 
L 45.3125 54.6875 
L 54.296875 54.6875 
L 54.296875 0 
L 45.3125 0 
L 45.3125 8.40625 
Q 42.046875 3.421875 37.71875 1 
Q 33.40625 -1.421875 27.6875 -1.421875 
Q 18.265625 -1.421875 13.375 4.4375 
Q 8.5 10.296875 8.5 21.578125 
z
M 31.109375 56 
z
" id="DejaVuSans-117"/>
     <path d="M 50.984375 -16.609375 
L 50.984375 -23.578125 
L -0.984375 -23.578125 
L -0.984375 -16.609375 
z
" id="DejaVuSans-95"/>
     <path d="M 52 44.1875 
Q 55.375 50.25 60.0625 53.125 
Q 64.75 56 71.09375 56 
Q 79.640625 56 84.28125 50.015625 
Q 88.921875 44.046875 88.921875 33.015625 
L 88.921875 0 
L 79.890625 0 
L 79.890625 32.71875 
Q 79.890625 40.578125 77.09375 44.375 
Q 74.3125 48.1875 68.609375 48.1875 
Q 61.625 48.1875 57.5625 43.546875 
Q 53.515625 38.921875 53.515625 30.90625 
L 53.515625 0 
L 44.484375 0 
L 44.484375 32.71875 
Q 44.484375 40.625 41.703125 44.40625 
Q 38.921875 48.1875 33.109375 48.1875 
Q 26.21875 48.1875 22.15625 43.53125 
Q 18.109375 38.875 18.109375 30.90625 
L 18.109375 0 
L 9.078125 0 
L 9.078125 54.6875 
L 18.109375 54.6875 
L 18.109375 46.1875 
Q 21.1875 51.21875 25.484375 53.609375 
Q 29.78125 56 35.6875 56 
Q 41.65625 56 45.828125 52.96875 
Q 50 49.953125 52 44.1875 
z
" id="DejaVuSans-109"/>
     <path d="M 10.59375 45.40625 
L 73.1875 45.40625 
L 73.1875 37.203125 
L 10.59375 37.203125 
z
M 10.59375 25.484375 
L 73.1875 25.484375 
L 73.1875 17.1875 
L 10.59375 17.1875 
z
" id="DejaVuSans-61"/>
     <path d="M 10.6875 12.40625 
L 21 12.40625 
L 21 0 
L 10.6875 0 
z
" id="DejaVuSans-46"/>
     <path d="M 10.984375 1.515625 
L 10.984375 10.5 
Q 14.703125 8.734375 18.5 7.8125 
Q 22.3125 6.890625 25.984375 6.890625 
Q 35.75 6.890625 40.890625 13.453125 
Q 46.046875 20.015625 46.78125 33.40625 
Q 43.953125 29.203125 39.59375 26.953125 
Q 35.25 24.703125 29.984375 24.703125 
Q 19.046875 24.703125 12.671875 31.3125 
Q 6.296875 37.9375 6.296875 49.421875 
Q 6.296875 60.640625 12.9375 67.421875 
Q 19.578125 74.21875 30.609375 74.21875 
Q 43.265625 74.21875 49.921875 64.515625 
Q 56.59375 54.828125 56.59375 36.375 
Q 56.59375 19.140625 48.40625 8.859375 
Q 40.234375 -1.421875 26.421875 -1.421875 
Q 22.703125 -1.421875 18.890625 -0.6875 
Q 15.09375 0.046875 10.984375 1.515625 
z
M 30.609375 32.421875 
Q 37.25 32.421875 41.125 36.953125 
Q 45.015625 41.5 45.015625 49.421875 
Q 45.015625 57.28125 41.125 61.84375 
Q 37.25 66.40625 30.609375 66.40625 
Q 23.96875 66.40625 20.09375 61.84375 
Q 16.21875 57.28125 16.21875 49.421875 
Q 16.21875 41.5 20.09375 36.953125 
Q 23.96875 32.421875 30.609375 32.421875 
z
" id="DejaVuSans-57"/>
     <path d="M 40.578125 39.3125 
Q 47.65625 37.796875 51.625 33 
Q 55.609375 28.21875 55.609375 21.1875 
Q 55.609375 10.40625 48.1875 4.484375 
Q 40.765625 -1.421875 27.09375 -1.421875 
Q 22.515625 -1.421875 17.65625 -0.515625 
Q 12.796875 0.390625 7.625 2.203125 
L 7.625 11.71875 
Q 11.71875 9.328125 16.59375 8.109375 
Q 21.484375 6.890625 26.8125 6.890625 
Q 36.078125 6.890625 40.9375 10.546875 
Q 45.796875 14.203125 45.796875 21.1875 
Q 45.796875 27.640625 41.28125 31.265625 
Q 36.765625 34.90625 28.71875 34.90625 
L 20.21875 34.90625 
L 20.21875 43.015625 
L 29.109375 43.015625 
Q 36.375 43.015625 40.234375 45.921875 
Q 44.09375 48.828125 44.09375 54.296875 
Q 44.09375 59.90625 40.109375 62.90625 
Q 36.140625 65.921875 28.71875 65.921875 
Q 24.65625 65.921875 20.015625 65.03125 
Q 15.375 64.15625 9.8125 62.3125 
L 9.8125 71.09375 
Q 15.4375 72.65625 20.34375 73.4375 
Q 25.25 74.21875 29.59375 74.21875 
Q 40.828125 74.21875 47.359375 69.109375 
Q 53.90625 64.015625 53.90625 55.328125 
Q 53.90625 49.265625 50.4375 45.09375 
Q 46.96875 40.921875 40.578125 39.3125 
z
" id="DejaVuSans-51"/>
     <path d="M 37.796875 64.3125 
L 12.890625 25.390625 
L 37.796875 25.390625 
z
M 35.203125 72.90625 
L 47.609375 72.90625 
L 47.609375 25.390625 
L 58.015625 25.390625 
L 58.015625 17.1875 
L 47.609375 17.1875 
L 47.609375 0 
L 37.796875 0 
L 37.796875 17.1875 
L 4.890625 17.1875 
L 4.890625 26.703125 
z
" id="DejaVuSans-52"/>
     <path d="M 8.203125 72.90625 
L 55.078125 72.90625 
L 55.078125 68.703125 
L 28.609375 0 
L 18.3125 0 
L 43.21875 64.59375 
L 8.203125 64.59375 
z
" id="DejaVuSans-55"/>
     <path d="M 33.015625 40.375 
Q 26.375 40.375 22.484375 35.828125 
Q 18.609375 31.296875 18.609375 23.390625 
Q 18.609375 15.53125 22.484375 10.953125 
Q 26.375 6.390625 33.015625 6.390625 
Q 39.65625 6.390625 43.53125 10.953125 
Q 47.40625 15.53125 47.40625 23.390625 
Q 47.40625 31.296875 43.53125 35.828125 
Q 39.65625 40.375 33.015625 40.375 
z
M 52.59375 71.296875 
L 52.59375 62.3125 
Q 48.875 64.0625 45.09375 64.984375 
Q 41.3125 65.921875 37.59375 65.921875 
Q 27.828125 65.921875 22.671875 59.328125 
Q 17.53125 52.734375 16.796875 39.40625 
Q 19.671875 43.65625 24.015625 45.921875 
Q 28.375 48.1875 33.59375 48.1875 
Q 44.578125 48.1875 50.953125 41.515625 
Q 57.328125 34.859375 57.328125 23.390625 
Q 57.328125 12.15625 50.6875 5.359375 
Q 44.046875 -1.421875 33.015625 -1.421875 
Q 20.359375 -1.421875 13.671875 8.265625 
Q 6.984375 17.96875 6.984375 36.375 
Q 6.984375 53.65625 15.1875 63.9375 
Q 23.390625 74.21875 37.203125 74.21875 
Q 40.921875 74.21875 44.703125 73.484375 
Q 48.484375 72.75 52.59375 71.296875 
z
" id="DejaVuSans-54"/>
    </defs>
    <g transform="translate(162.479375 11.90649)scale(0.12 -0.12)">
     <use xlink:href="#DejaVuSans-116"/>
     <use x="39.208984" xlink:href="#DejaVuSans-97"/>
     <use x="100.488281" xlink:href="#DejaVuSans-117"/>
     <use x="163.867188" xlink:href="#DejaVuSans-95"/>
     <use x="213.867188" xlink:href="#DejaVuSans-109"/>
     <use x="311.279297" xlink:href="#DejaVuSans-61"/>
     <use x="395.068359" xlink:href="#DejaVuSans-48"/>
     <use x="458.691406" xlink:href="#DejaVuSans-46"/>
     <use x="490.478516" xlink:href="#DejaVuSans-53"/>
     <use x="554.101562" xlink:href="#DejaVuSans-48"/>
     <use x="617.724609" xlink:href="#DejaVuSans-57"/>
     <use x="681.347656" xlink:href="#DejaVuSans-53"/>
     <use x="744.970703" xlink:href="#DejaVuSans-51"/>
     <use x="808.59375" xlink:href="#DejaVuSans-51"/>
     <use x="872.216797" xlink:href="#DejaVuSans-57"/>
     <use x="935.839844" xlink:href="#DejaVuSans-57"/>
     <use x="999.462891" xlink:href="#DejaVuSans-52"/>
     <use x="1063.085938" xlink:href="#DejaVuSans-55"/>
     <use x="1126.708984" xlink:href="#DejaVuSans-49"/>
     <use x="1190.332031" xlink:href="#DejaVuSans-48"/>
     <use x="1253.955078" xlink:href="#DejaVuSans-49"/>
     <use x="1317.578125" xlink:href="#DejaVuSans-50"/>
     <use x="1381.201172" xlink:href="#DejaVuSans-54"/>
     <use x="1444.824219" xlink:href="#DejaVuSans-53"/>
    </g>
   </g>
   <g id="legend_1">
    <g id="patch_7">
     <path d="M 396.27476 55.26274 
L 450.79976 55.26274 
Q 452.79976 55.26274 452.79976 53.26274 
L 452.79976 24.90649 
Q 452.79976 22.90649 450.79976 22.90649 
L 396.27476 22.90649 
Q 394.27476 22.90649 394.27476 24.90649 
L 394.27476 53.26274 
Q 394.27476 55.26274 396.27476 55.26274 
z
" style="fill:#ffffff;opacity:0.8;stroke:#cccccc;stroke-linejoin:miter;"/>
    </g>
    <g id="line2d_13"/>
    <g id="line2d_14">
     <g>
      <use style="fill:#1f77b4;stroke:#1f77b4;" x="408.27476" xlink:href="#m5e019dd7cf" y="31.004927"/>
     </g>
    </g>
    <g id="text_12">
     <!-- data -->
     <defs>
      <path d="M 45.40625 46.390625 
L 45.40625 75.984375 
L 54.390625 75.984375 
L 54.390625 0 
L 45.40625 0 
L 45.40625 8.203125 
Q 42.578125 3.328125 38.25 0.953125 
Q 33.9375 -1.421875 27.875 -1.421875 
Q 17.96875 -1.421875 11.734375 6.484375 
Q 5.515625 14.40625 5.515625 27.296875 
Q 5.515625 40.1875 11.734375 48.09375 
Q 17.96875 56 27.875 56 
Q 33.9375 56 38.25 53.625 
Q 42.578125 51.265625 45.40625 46.390625 
z
M 14.796875 27.296875 
Q 14.796875 17.390625 18.875 11.75 
Q 22.953125 6.109375 30.078125 6.109375 
Q 37.203125 6.109375 41.296875 11.75 
Q 45.40625 17.390625 45.40625 27.296875 
Q 45.40625 37.203125 41.296875 42.84375 
Q 37.203125 48.484375 30.078125 48.484375 
Q 22.953125 48.484375 18.875 42.84375 
Q 14.796875 37.203125 14.796875 27.296875 
z
" id="DejaVuSans-100"/>
     </defs>
     <g transform="translate(426.27476 34.504927)scale(0.1 -0.1)">
      <use xlink:href="#DejaVuSans-100"/>
      <use x="63.476562" xlink:href="#DejaVuSans-97"/>
      <use x="124.755859" xlink:href="#DejaVuSans-116"/>
      <use x="163.964844" xlink:href="#DejaVuSans-97"/>
     </g>
    </g>
    <g id="line2d_15">
     <path d="M 398.27476 45.683052 
L 418.27476 45.683052 
" style="fill:none;stroke:#ff7f0e;stroke-dasharray:5.55,2.4;stroke-dashoffset:0;stroke-width:1.5;"/>
    </g>
    <g id="line2d_16"/>
    <g id="text_13">
     <!-- cs -->
     <defs>
      <path d="M 48.78125 52.59375 
L 48.78125 44.1875 
Q 44.96875 46.296875 41.140625 47.34375 
Q 37.3125 48.390625 33.40625 48.390625 
Q 24.65625 48.390625 19.8125 42.84375 
Q 14.984375 37.3125 14.984375 27.296875 
Q 14.984375 17.28125 19.8125 11.734375 
Q 24.65625 6.203125 33.40625 6.203125 
Q 37.3125 6.203125 41.140625 7.25 
Q 44.96875 8.296875 48.78125 10.40625 
L 48.78125 2.09375 
Q 45.015625 0.34375 40.984375 -0.53125 
Q 36.96875 -1.421875 32.421875 -1.421875 
Q 20.0625 -1.421875 12.78125 6.34375 
Q 5.515625 14.109375 5.515625 27.296875 
Q 5.515625 40.671875 12.859375 48.328125 
Q 20.21875 56 33.015625 56 
Q 37.15625 56 41.109375 55.140625 
Q 45.0625 54.296875 48.78125 52.59375 
z
" id="DejaVuSans-99"/>
      <path d="M 44.28125 53.078125 
L 44.28125 44.578125 
Q 40.484375 46.53125 36.375 47.5 
Q 32.28125 48.484375 27.875 48.484375 
Q 21.1875 48.484375 17.84375 46.4375 
Q 14.5 44.390625 14.5 40.28125 
Q 14.5 37.15625 16.890625 35.375 
Q 19.28125 33.59375 26.515625 31.984375 
L 29.59375 31.296875 
Q 39.15625 29.25 43.1875 25.515625 
Q 47.21875 21.78125 47.21875 15.09375 
Q 47.21875 7.46875 41.1875 3.015625 
Q 35.15625 -1.421875 24.609375 -1.421875 
Q 20.21875 -1.421875 15.453125 -0.5625 
Q 10.6875 0.296875 5.421875 2 
L 5.421875 11.28125 
Q 10.40625 8.6875 15.234375 7.390625 
Q 20.0625 6.109375 24.8125 6.109375 
Q 31.15625 6.109375 34.5625 8.28125 
Q 37.984375 10.453125 37.984375 14.40625 
Q 37.984375 18.0625 35.515625 20.015625 
Q 33.0625 21.96875 24.703125 23.78125 
L 21.578125 24.515625 
Q 13.234375 26.265625 9.515625 29.90625 
Q 5.8125 33.546875 5.8125 39.890625 
Q 5.8125 47.609375 11.28125 51.796875 
Q 16.75 56 26.8125 56 
Q 31.78125 56 36.171875 55.265625 
Q 40.578125 54.546875 44.28125 53.078125 
z
" id="DejaVuSans-115"/>
     </defs>
     <g transform="translate(426.27476 49.183052)scale(0.1 -0.1)">
      <use xlink:href="#DejaVuSans-99"/>
      <use x="54.980469" xlink:href="#DejaVuSans-115"/>
     </g>
    </g>
   </g>
  </g>
 </g>
 <defs>
  <clipPath id="pf02f0a9c1f">
   <rect height="308.015145" width="409.62452" x="48.17524" y="17.90649"/>
  </clipPath>
 </defs>
</svg>
