<?xml version="1.0" encoding="utf-8" standalone="no"?>
<!DOCTYPE svg PUBLIC "-//W3C//DTD SVG 1.1//EN"
  "http://www.w3.org/Graphics/SVG/1.1/DTD/svg11.dtd">
<!-- Created with matplotlib (https://matplotlib.org/) -->
<svg height="345.6pt" version="1.1" viewBox="0 0 460.8 345.6" width="460.8pt" xmlns="http://www.w3.org/2000/svg" xmlns:xlink="http://www.w3.org/1999/xlink">
 <defs>
  <style type="text/css">
*{stroke-linecap:butt;stroke-linejoin:round;}
  </style>
 </defs>
 <g id="figure_1">
  <g id="patch_1">
   <path d="M 0 345.6 
L 460.8 345.6 
L 460.8 0 
L 0 0 
z
" style="fill:#ffffff;"/>
  </g>
  <g id="axes_1">
   <g id="patch_2">
    <path d="M 37.467427 325.921635 
L 457.79976 325.921635 
L 457.79976 17.90649 
L 37.467427 17.90649 
z
" style="fill:#ffffff;"/>
   </g>
   <g id="matplotlib.axis_1">
    <g id="xtick_1">
     <g id="line2d_1">
      <defs>
       <path d="M 0 0 
L 0 3.5 
" id="m9d0f036395" style="stroke:#000000;stroke-width:0.8;"/>
      </defs>
      <g>
       <use style="stroke:#000000;stroke-width:0.8;" x="48.612603" xlink:href="#m9d0f036395" y="325.921635"/>
      </g>
     </g>
     <g id="text_1">
      <!-- −10 -->
      <defs>
       <path d="M 10.59375 35.5 
L 73.1875 35.5 
L 73.1875 27.203125 
L 10.59375 27.203125 
z
" id="DejaVuSans-8722"/>
       <path d="M 12.40625 8.296875 
L 28.515625 8.296875 
L 28.515625 63.921875 
L 10.984375 60.40625 
L 10.984375 69.390625 
L 28.421875 72.90625 
L 38.28125 72.90625 
L 38.28125 8.296875 
L 54.390625 8.296875 
L 54.390625 0 
L 12.40625 0 
z
" id="DejaVuSans-49"/>
       <path d="M 31.78125 66.40625 
Q 24.171875 66.40625 20.328125 58.90625 
Q 16.5 51.421875 16.5 36.375 
Q 16.5 21.390625 20.328125 13.890625 
Q 24.171875 6.390625 31.78125 6.390625 
Q 39.453125 6.390625 43.28125 13.890625 
Q 47.125 21.390625 47.125 36.375 
Q 47.125 51.421875 43.28125 58.90625 
Q 39.453125 66.40625 31.78125 66.40625 
z
M 31.78125 74.21875 
Q 44.046875 74.21875 50.515625 64.515625 
Q 56.984375 54.828125 56.984375 36.375 
Q 56.984375 17.96875 50.515625 8.265625 
Q 44.046875 -1.421875 31.78125 -1.421875 
Q 19.53125 -1.421875 13.0625 8.265625 
Q 6.59375 17.96875 6.59375 36.375 
Q 6.59375 54.828125 13.0625 64.515625 
Q 19.53125 74.21875 31.78125 74.21875 
z
" id="DejaVuSans-48"/>
      </defs>
      <g transform="translate(38.060259 340.520072)scale(0.1 -0.1)">
       <use xlink:href="#DejaVuSans-8722"/>
       <use x="83.789062" xlink:href="#DejaVuSans-49"/>
       <use x="147.412109" xlink:href="#DejaVuSans-48"/>
      </g>
     </g>
    </g>
    <g id="xtick_2">
     <g id="line2d_2">
      <g>
       <use style="stroke:#000000;stroke-width:0.8;" x="96.377641" xlink:href="#m9d0f036395" y="325.921635"/>
      </g>
     </g>
     <g id="text_2">
      <!-- −8 -->
      <defs>
       <path d="M 31.78125 34.625 
Q 24.75 34.625 20.71875 30.859375 
Q 16.703125 27.09375 16.703125 20.515625 
Q 16.703125 13.921875 20.71875 10.15625 
Q 24.75 6.390625 31.78125 6.390625 
Q 38.8125 6.390625 42.859375 10.171875 
Q 46.921875 13.96875 46.921875 20.515625 
Q 46.921875 27.09375 42.890625 30.859375 
Q 38.875 34.625 31.78125 34.625 
z
M 21.921875 38.8125 
Q 15.578125 40.375 12.03125 44.71875 
Q 8.5 49.078125 8.5 55.328125 
Q 8.5 64.0625 14.71875 69.140625 
Q 20.953125 74.21875 31.78125 74.21875 
Q 42.671875 74.21875 48.875 69.140625 
Q 55.078125 64.0625 55.078125 55.328125 
Q 55.078125 49.078125 51.53125 44.71875 
Q 48 40.375 41.703125 38.8125 
Q 48.828125 37.15625 52.796875 32.3125 
Q 56.78125 27.484375 56.78125 20.515625 
Q 56.78125 9.90625 50.3125 4.234375 
Q 43.84375 -1.421875 31.78125 -1.421875 
Q 19.734375 -1.421875 13.25 4.234375 
Q 6.78125 9.90625 6.78125 20.515625 
Q 6.78125 27.484375 10.78125 32.3125 
Q 14.796875 37.15625 21.921875 38.8125 
z
M 18.3125 54.390625 
Q 18.3125 48.734375 21.84375 45.5625 
Q 25.390625 42.390625 31.78125 42.390625 
Q 38.140625 42.390625 41.71875 45.5625 
Q 45.3125 48.734375 45.3125 54.390625 
Q 45.3125 60.0625 41.71875 63.234375 
Q 38.140625 66.40625 31.78125 66.40625 
Q 25.390625 66.40625 21.84375 63.234375 
Q 18.3125 60.0625 18.3125 54.390625 
z
" id="DejaVuSans-56"/>
      </defs>
      <g transform="translate(89.006547 340.520072)scale(0.1 -0.1)">
       <use xlink:href="#DejaVuSans-8722"/>
       <use x="83.789062" xlink:href="#DejaVuSans-56"/>
      </g>
     </g>
    </g>
    <g id="xtick_3">
     <g id="line2d_3">
      <g>
       <use style="stroke:#000000;stroke-width:0.8;" x="144.142679" xlink:href="#m9d0f036395" y="325.921635"/>
      </g>
     </g>
     <g id="text_3">
      <!-- −6 -->
      <defs>
       <path d="M 33.015625 40.375 
Q 26.375 40.375 22.484375 35.828125 
Q 18.609375 31.296875 18.609375 23.390625 
Q 18.609375 15.53125 22.484375 10.953125 
Q 26.375 6.390625 33.015625 6.390625 
Q 39.65625 6.390625 43.53125 10.953125 
Q 47.40625 15.53125 47.40625 23.390625 
Q 47.40625 31.296875 43.53125 35.828125 
Q 39.65625 40.375 33.015625 40.375 
z
M 52.59375 71.296875 
L 52.59375 62.3125 
Q 48.875 64.0625 45.09375 64.984375 
Q 41.3125 65.921875 37.59375 65.921875 
Q 27.828125 65.921875 22.671875 59.328125 
Q 17.53125 52.734375 16.796875 39.40625 
Q 19.671875 43.65625 24.015625 45.921875 
Q 28.375 48.1875 33.59375 48.1875 
Q 44.578125 48.1875 50.953125 41.515625 
Q 57.328125 34.859375 57.328125 23.390625 
Q 57.328125 12.15625 50.6875 5.359375 
Q 44.046875 -1.421875 33.015625 -1.421875 
Q 20.359375 -1.421875 13.671875 8.265625 
Q 6.984375 17.96875 6.984375 36.375 
Q 6.984375 53.65625 15.1875 63.9375 
Q 23.390625 74.21875 37.203125 74.21875 
Q 40.921875 74.21875 44.703125 73.484375 
Q 48.484375 72.75 52.59375 71.296875 
z
" id="DejaVuSans-54"/>
      </defs>
      <g transform="translate(136.771585 340.520072)scale(0.1 -0.1)">
       <use xlink:href="#DejaVuSans-8722"/>
       <use x="83.789062" xlink:href="#DejaVuSans-54"/>
      </g>
     </g>
    </g>
    <g id="xtick_4">
     <g id="line2d_4">
      <g>
       <use style="stroke:#000000;stroke-width:0.8;" x="191.907716" xlink:href="#m9d0f036395" y="325.921635"/>
      </g>
     </g>
     <g id="text_4">
      <!-- −4 -->
      <defs>
       <path d="M 37.796875 64.3125 
L 12.890625 25.390625 
L 37.796875 25.390625 
z
M 35.203125 72.90625 
L 47.609375 72.90625 
L 47.609375 25.390625 
L 58.015625 25.390625 
L 58.015625 17.1875 
L 47.609375 17.1875 
L 47.609375 0 
L 37.796875 0 
L 37.796875 17.1875 
L 4.890625 17.1875 
L 4.890625 26.703125 
z
" id="DejaVuSans-52"/>
      </defs>
      <g transform="translate(184.536623 340.520072)scale(0.1 -0.1)">
       <use xlink:href="#DejaVuSans-8722"/>
       <use x="83.789062" xlink:href="#DejaVuSans-52"/>
      </g>
     </g>
    </g>
    <g id="xtick_5">
     <g id="line2d_5">
      <g>
       <use style="stroke:#000000;stroke-width:0.8;" x="239.672754" xlink:href="#m9d0f036395" y="325.921635"/>
      </g>
     </g>
     <g id="text_5">
      <!-- −2 -->
      <defs>
       <path d="M 19.1875 8.296875 
L 53.609375 8.296875 
L 53.609375 0 
L 7.328125 0 
L 7.328125 8.296875 
Q 12.9375 14.109375 22.625 23.890625 
Q 32.328125 33.6875 34.8125 36.53125 
Q 39.546875 41.84375 41.421875 45.53125 
Q 43.3125 49.21875 43.3125 52.78125 
Q 43.3125 58.59375 39.234375 62.25 
Q 35.15625 65.921875 28.609375 65.921875 
Q 23.96875 65.921875 18.8125 64.3125 
Q 13.671875 62.703125 7.8125 59.421875 
L 7.8125 69.390625 
Q 13.765625 71.78125 18.9375 73 
Q 24.125 74.21875 28.421875 74.21875 
Q 39.75 74.21875 46.484375 68.546875 
Q 53.21875 62.890625 53.21875 53.421875 
Q 53.21875 48.921875 51.53125 44.890625 
Q 49.859375 40.875 45.40625 35.40625 
Q 44.1875 33.984375 37.640625 27.21875 
Q 31.109375 20.453125 19.1875 8.296875 
z
" id="DejaVuSans-50"/>
      </defs>
      <g transform="translate(232.30166 340.520072)scale(0.1 -0.1)">
       <use xlink:href="#DejaVuSans-8722"/>
       <use x="83.789062" xlink:href="#DejaVuSans-50"/>
      </g>
     </g>
    </g>
    <g id="xtick_6">
     <g id="line2d_6">
      <g>
       <use style="stroke:#000000;stroke-width:0.8;" x="287.437792" xlink:href="#m9d0f036395" y="325.921635"/>
      </g>
     </g>
     <g id="text_6">
      <!-- 0 -->
      <g transform="translate(284.256542 340.520072)scale(0.1 -0.1)">
       <use xlink:href="#DejaVuSans-48"/>
      </g>
     </g>
    </g>
    <g id="xtick_7">
     <g id="line2d_7">
      <g>
       <use style="stroke:#000000;stroke-width:0.8;" x="335.20283" xlink:href="#m9d0f036395" y="325.921635"/>
      </g>
     </g>
     <g id="text_7">
      <!-- 2 -->
      <g transform="translate(332.02158 340.520072)scale(0.1 -0.1)">
       <use xlink:href="#DejaVuSans-50"/>
      </g>
     </g>
    </g>
    <g id="xtick_8">
     <g id="line2d_8">
      <g>
       <use style="stroke:#000000;stroke-width:0.8;" x="382.967867" xlink:href="#m9d0f036395" y="325.921635"/>
      </g>
     </g>
     <g id="text_8">
      <!-- 4 -->
      <g transform="translate(379.786617 340.520072)scale(0.1 -0.1)">
       <use xlink:href="#DejaVuSans-52"/>
      </g>
     </g>
    </g>
    <g id="xtick_9">
     <g id="line2d_9">
      <g>
       <use style="stroke:#000000;stroke-width:0.8;" x="430.732905" xlink:href="#m9d0f036395" y="325.921635"/>
      </g>
     </g>
     <g id="text_9">
      <!-- 6 -->
      <g transform="translate(427.551655 340.520072)scale(0.1 -0.1)">
       <use xlink:href="#DejaVuSans-54"/>
      </g>
     </g>
    </g>
   </g>
   <g id="matplotlib.axis_2">
    <g id="ytick_1">
     <g id="line2d_10">
      <defs>
       <path d="M 0 0 
L -3.5 0 
" id="mb12483e5bc" style="stroke:#000000;stroke-width:0.8;"/>
      </defs>
      <g>
       <use style="stroke:#000000;stroke-width:0.8;" x="37.467427" xlink:href="#mb12483e5bc" y="318.503804"/>
      </g>
     </g>
     <g id="text_10">
      <!-- −800 -->
      <g transform="translate(3.00024 322.303023)scale(0.1 -0.1)">
       <use xlink:href="#DejaVuSans-8722"/>
       <use x="83.789062" xlink:href="#DejaVuSans-56"/>
       <use x="147.412109" xlink:href="#DejaVuSans-48"/>
       <use x="211.035156" xlink:href="#DejaVuSans-48"/>
      </g>
     </g>
    </g>
    <g id="ytick_2">
     <g id="line2d_11">
      <g>
       <use style="stroke:#000000;stroke-width:0.8;" x="37.467427" xlink:href="#mb12483e5bc" y="281.183846"/>
      </g>
     </g>
     <g id="text_11">
      <!-- −600 -->
      <g transform="translate(3.00024 284.983064)scale(0.1 -0.1)">
       <use xlink:href="#DejaVuSans-8722"/>
       <use x="83.789062" xlink:href="#DejaVuSans-54"/>
       <use x="147.412109" xlink:href="#DejaVuSans-48"/>
       <use x="211.035156" xlink:href="#DejaVuSans-48"/>
      </g>
     </g>
    </g>
    <g id="ytick_3">
     <g id="line2d_12">
      <g>
       <use style="stroke:#000000;stroke-width:0.8;" x="37.467427" xlink:href="#mb12483e5bc" y="243.863887"/>
      </g>
     </g>
     <g id="text_12">
      <!-- −400 -->
      <g transform="translate(3.00024 247.663106)scale(0.1 -0.1)">
       <use xlink:href="#DejaVuSans-8722"/>
       <use x="83.789062" xlink:href="#DejaVuSans-52"/>
       <use x="147.412109" xlink:href="#DejaVuSans-48"/>
       <use x="211.035156" xlink:href="#DejaVuSans-48"/>
      </g>
     </g>
    </g>
    <g id="ytick_4">
     <g id="line2d_13">
      <g>
       <use style="stroke:#000000;stroke-width:0.8;" x="37.467427" xlink:href="#mb12483e5bc" y="206.543929"/>
      </g>
     </g>
     <g id="text_13">
      <!-- −200 -->
      <g transform="translate(3.00024 210.343147)scale(0.1 -0.1)">
       <use xlink:href="#DejaVuSans-8722"/>
       <use x="83.789062" xlink:href="#DejaVuSans-50"/>
       <use x="147.412109" xlink:href="#DejaVuSans-48"/>
       <use x="211.035156" xlink:href="#DejaVuSans-48"/>
      </g>
     </g>
    </g>
    <g id="ytick_5">
     <g id="line2d_14">
      <g>
       <use style="stroke:#000000;stroke-width:0.8;" x="37.467427" xlink:href="#mb12483e5bc" y="169.22397"/>
      </g>
     </g>
     <g id="text_14">
      <!-- 0 -->
      <g transform="translate(24.104927 173.023189)scale(0.1 -0.1)">
       <use xlink:href="#DejaVuSans-48"/>
      </g>
     </g>
    </g>
    <g id="ytick_6">
     <g id="line2d_15">
      <g>
       <use style="stroke:#000000;stroke-width:0.8;" x="37.467427" xlink:href="#mb12483e5bc" y="131.904012"/>
      </g>
     </g>
     <g id="text_15">
      <!-- 200 -->
      <g transform="translate(11.379927 135.70323)scale(0.1 -0.1)">
       <use xlink:href="#DejaVuSans-50"/>
       <use x="63.623047" xlink:href="#DejaVuSans-48"/>
       <use x="127.246094" xlink:href="#DejaVuSans-48"/>
      </g>
     </g>
    </g>
    <g id="ytick_7">
     <g id="line2d_16">
      <g>
       <use style="stroke:#000000;stroke-width:0.8;" x="37.467427" xlink:href="#mb12483e5bc" y="94.584053"/>
      </g>
     </g>
     <g id="text_16">
      <!-- 400 -->
      <g transform="translate(11.379927 98.383272)scale(0.1 -0.1)">
       <use xlink:href="#DejaVuSans-52"/>
       <use x="63.623047" xlink:href="#DejaVuSans-48"/>
       <use x="127.246094" xlink:href="#DejaVuSans-48"/>
      </g>
     </g>
    </g>
    <g id="ytick_8">
     <g id="line2d_17">
      <g>
       <use style="stroke:#000000;stroke-width:0.8;" x="37.467427" xlink:href="#mb12483e5bc" y="57.264095"/>
      </g>
     </g>
     <g id="text_17">
      <!-- 600 -->
      <g transform="translate(11.379927 61.063313)scale(0.1 -0.1)">
       <use xlink:href="#DejaVuSans-54"/>
       <use x="63.623047" xlink:href="#DejaVuSans-48"/>
       <use x="127.246094" xlink:href="#DejaVuSans-48"/>
      </g>
     </g>
    </g>
    <g id="ytick_9">
     <g id="line2d_18">
      <g>
       <use style="stroke:#000000;stroke-width:0.8;" x="37.467427" xlink:href="#mb12483e5bc" y="19.944136"/>
      </g>
     </g>
     <g id="text_18">
      <!-- 800 -->
      <g transform="translate(11.379927 23.743355)scale(0.1 -0.1)">
       <use xlink:href="#DejaVuSans-56"/>
       <use x="63.623047" xlink:href="#DejaVuSans-48"/>
       <use x="127.246094" xlink:href="#DejaVuSans-48"/>
      </g>
     </g>
    </g>
   </g>
   <g id="line2d_19">
    <defs>
     <path d="M 0 3 
C 0.795609 3 1.55874 2.683901 2.12132 2.12132 
C 2.683901 1.55874 3 0.795609 3 0 
C 3 -0.795609 2.683901 -1.55874 2.12132 -2.12132 
C 1.55874 -2.683901 0.795609 -3 0 -3 
C -0.795609 -3 -1.55874 -2.683901 -2.12132 -2.12132 
C -2.683901 -1.55874 -3 -0.795609 -3 0 
C -3 0.795609 -2.683901 1.55874 -2.12132 2.12132 
C -1.55874 2.683901 -0.795609 3 0 3 
z
" id="m3b45103720" style="stroke:#1f77b4;"/>
    </defs>
    <g clip-path="url(#pa6f754aac6)">
     <use style="fill:#1f77b4;stroke:#1f77b4;" x="319.28115" xlink:href="#m3b45103720" y="138.808204"/>
     <use style="fill:#1f77b4;stroke:#1f77b4;" x="351.124509" xlink:href="#m3b45103720" y="138.808204"/>
     <use style="fill:#1f77b4;stroke:#1f77b4;" x="327.24199" xlink:href="#m3b45103720" y="138.808204"/>
     <use style="fill:#1f77b4;stroke:#1f77b4;" x="335.20283" xlink:href="#m3b45103720" y="138.808204"/>
     <use style="fill:#1f77b4;stroke:#1f77b4;" x="351.124509" xlink:href="#m3b45103720" y="138.808204"/>
     <use style="fill:#1f77b4;stroke:#1f77b4;" x="398.889547" xlink:href="#m3b45103720" y="138.808204"/>
     <use style="fill:#1f77b4;stroke:#1f77b4;" x="255.594433" xlink:href="#m3b45103720" y="138.808204"/>
     <use style="fill:#1f77b4;stroke:#1f77b4;" x="215.790235" xlink:href="#m3b45103720" y="138.808204"/>
     <use style="fill:#1f77b4;stroke:#1f77b4;" x="351.124509" xlink:href="#m3b45103720" y="138.808204"/>
     <use style="fill:#1f77b4;stroke:#1f77b4;" x="359.085349" xlink:href="#m3b45103720" y="138.808204"/>
     <use style="fill:#1f77b4;stroke:#1f77b4;" x="343.163669" xlink:href="#m3b45103720" y="138.808204"/>
     <use style="fill:#1f77b4;stroke:#1f77b4;" x="112.29932" xlink:href="#m3b45103720" y="138.808204"/>
     <use style="fill:#1f77b4;stroke:#1f77b4;" x="327.24199" xlink:href="#m3b45103720" y="138.808204"/>
     <use style="fill:#1f77b4;stroke:#1f77b4;" x="327.24199" xlink:href="#m3b45103720" y="138.808204"/>
     <use style="fill:#1f77b4;stroke:#1f77b4;" x="80.455962" xlink:href="#m3b45103720" y="138.808204"/>
     <use style="fill:#1f77b4;stroke:#1f77b4;" x="152.103518" xlink:href="#m3b45103720" y="138.808204"/>
     <use style="fill:#1f77b4;stroke:#1f77b4;" x="311.320311" xlink:href="#m3b45103720" y="138.808204"/>
     <use style="fill:#1f77b4;stroke:#1f77b4;" x="287.437792" xlink:href="#m3b45103720" y="138.808204"/>
     <use style="fill:#1f77b4;stroke:#1f77b4;" x="438.693745" xlink:href="#m3b45103720" y="138.808204"/>
     <use style="fill:#1f77b4;stroke:#1f77b4;" x="239.672754" xlink:href="#m3b45103720" y="138.808204"/>
     <use style="fill:#1f77b4;stroke:#1f77b4;" x="168.025197" xlink:href="#m3b45103720" y="138.808204"/>
     <use style="fill:#1f77b4;stroke:#1f77b4;" x="390.928707" xlink:href="#m3b45103720" y="138.808204"/>
     <use style="fill:#1f77b4;stroke:#1f77b4;" x="56.573443" xlink:href="#m3b45103720" y="138.808204"/>
     <use style="fill:#1f77b4;stroke:#1f77b4;" x="351.124509" xlink:href="#m3b45103720" y="138.808204"/>
     <use style="fill:#1f77b4;stroke:#1f77b4;" x="414.811226" xlink:href="#m3b45103720" y="138.808204"/>
     <use style="fill:#1f77b4;stroke:#1f77b4;" x="215.790235" xlink:href="#m3b45103720" y="138.808204"/>
     <use style="fill:#1f77b4;stroke:#1f77b4;" x="390.928707" xlink:href="#m3b45103720" y="138.808204"/>
     <use style="fill:#1f77b4;stroke:#1f77b4;" x="335.20283" xlink:href="#m3b45103720" y="138.808204"/>
     <use style="fill:#1f77b4;stroke:#1f77b4;" x="152.103518" xlink:href="#m3b45103720" y="138.808204"/>
     <use style="fill:#1f77b4;stroke:#1f77b4;" x="295.398632" xlink:href="#m3b45103720" y="138.808204"/>
    </g>
   </g>
   <g id="line2d_20">
    <path clip-path="url(#pa6f754aac6)" d="M 287.437792 138.402016 
L 290.768754 137.077283 
L 291.980013 136.874931 
L 293.039864 136.94415 
L 293.948308 137.238735 
L 294.856753 137.794159 
L 295.765197 138.651266 
L 296.825048 140.02835 
L 298.187714 142.22636 
L 302.729935 149.946379 
L 303.789787 151.15299 
L 304.546824 151.732871 
L 305.30386 152.029122 
L 305.90949 152.033068 
L 306.515119 151.806048 
L 307.120749 151.326086 
L 307.726378 150.571208 
L 308.483415 149.207533 
L 309.240452 147.337046 
L 309.997489 144.916828 
L 310.905933 141.226489 
L 311.814377 136.619092 
L 314.691117 120.993594 
L 315.296746 118.915038 
L 315.750968 117.924315 
L 316.053783 117.582496 
L 316.356598 117.52553 
L 316.659412 117.779068 
L 316.962227 118.368759 
L 317.416449 119.939693 
L 317.870671 122.411251 
L 318.476301 127.257257 
L 319.08193 134.06347 
L 319.838967 145.569408 
L 321.050226 168.643682 
L 322.5643 196.698874 
L 323.321336 206.680385 
L 323.775558 210.443455 
L 324.078373 211.809205 
L 324.22978 212.110396 
L 324.381188 212.139888 
L 324.532595 211.884751 
L 324.83541 210.468856 
L 325.138225 207.759259 
L 325.592447 201.042863 
L 326.046669 190.833703 
L 326.652298 171.184817 
L 327.409335 139.652686 
L 328.014964 155.200532 
L 328.469187 161.309693 
L 328.772001 163.102657 
L 328.923409 163.387971 
L 329.074816 163.298182 
L 329.377631 162.090331 
L 329.680445 159.673166 
L 330.134668 154.204472 
L 330.891704 141.79265 
L 332.405778 115.520085 
L 333.011407 108.771869 
L 333.314222 106.979903 
L 333.465629 106.564359 
L 333.617037 106.50145 
L 333.768444 106.815435 
L 334.071259 108.67112 
L 334.374074 112.325476 
L 334.828296 121.604033 
L 335.282518 136.021207 
L 336.039555 161.823576 
L 336.645184 175.854277 
L 337.250813 184.685785 
L 337.705036 188.3119 
L 338.00785 189.463395 
L 338.159258 189.691663 
L 338.310665 189.702632 
L 338.462072 189.507066 
L 338.764887 188.539391 
L 339.219109 185.807994 
L 339.824739 180.229143 
L 340.733183 169.109628 
L 342.701478 143.884067 
L 343.307108 138.616436 
L 343.76133 136.119143 
L 344.215552 134.803496 
L 344.518367 134.498936 
L 344.821181 134.593655 
L 345.123996 135.037293 
L 345.578218 136.246814 
L 346.183848 138.61071 
L 348.454958 148.543308 
L 348.90918 149.485797 
L 349.211995 149.710954 
L 349.51481 149.554824 
L 349.817624 148.967047 
L 350.120439 147.897266 
L 350.574661 145.278673 
L 351.028883 141.292298 
L 351.331698 137.069445 
L 352.088735 90.426984 
L 352.694364 63.837479 
L 353.299994 45.815228 
L 353.754216 37.384611 
L 354.208438 32.895674 
L 354.511253 31.907178 
L 354.66266 31.972388 
L 354.814067 32.392001 
L 355.116882 34.238726 
L 355.571104 39.318657 
L 356.176733 49.818675 
L 356.93377 67.679732 
L 358.145029 103.099104 
L 360.41614 170.783955 
L 361.778806 204.607442 
L 363.141472 233.22886 
L 364.352731 254.530665 
L 365.56399 272.142587 
L 366.623841 284.681685 
L 367.683693 294.679715 
L 368.592137 301.327433 
L 369.500581 306.289075 
L 370.257618 309.196014 
L 370.863247 310.752715 
L 371.31747 311.487973 
L 371.771692 311.864307 
L 372.225914 311.89215 
L 372.680136 311.581935 
L 373.134358 310.944094 
L 373.739987 309.602031 
L 374.345617 307.720797 
L 375.102654 304.648721 
L 376.011098 299.969199 
L 377.070949 293.246065 
L 378.282208 284.058361 
L 379.644874 272.040908 
L 381.310355 255.332073 
L 383.430058 231.617655 
L 386.609613 193.081231 
L 391.151834 138.262392 
L 391.908871 130.971714 
L 392.5145 126.867165 
L 393.120129 124.134789 
L 393.574352 122.895027 
L 394.028574 122.278255 
L 394.331388 122.181675 
L 394.634203 122.314724 
L 395.088425 122.903501 
L 395.542647 123.902615 
L 396.148277 125.762806 
L 397.056721 129.377437 
L 400.387683 143.581325 
L 401.447534 146.736072 
L 402.355978 148.852007 
L 403.264423 150.457008 
L 404.172867 151.581352 
L 404.929904 152.172979 
L 405.68694 152.469361 
L 406.443977 152.488021 
L 407.201014 152.246478 
L 407.958051 151.762255 
L 408.866495 150.885516 
L 409.926346 149.493255 
L 411.137605 147.473848 
L 412.500272 144.741779 
L 414.165753 140.884709 
L 416.436863 135.0259 
L 421.736121 121.160585 
L 423.401601 117.467669 
L 424.764268 114.913943 
L 425.975527 113.086335 
L 427.035378 111.887585 
L 427.943822 111.195795 
L 428.700859 110.87915 
L 429.457896 110.817419 
L 430.214933 111.028121 
L 430.97197 111.528779 
L 431.729006 112.336913 
L 432.486043 113.470044 
L 433.394487 115.283467 
L 434.302931 117.620392 
L 435.362783 121.048844 
L 436.422634 125.279127 
L 437.633893 131.157244 
L 438.693745 137.26763 
L 438.693745 137.26763 
" style="fill:none;stroke:#ff7f0e;stroke-dasharray:5.55,2.4;stroke-dashoffset:0;stroke-width:1.5;"/>
   </g>
   <g id="patch_3">
    <path d="M 37.467427 325.921635 
L 37.467427 17.90649 
" style="fill:none;stroke:#000000;stroke-linecap:square;stroke-linejoin:miter;stroke-width:0.8;"/>
   </g>
   <g id="patch_4">
    <path d="M 457.79976 325.921635 
L 457.79976 17.90649 
" style="fill:none;stroke:#000000;stroke-linecap:square;stroke-linejoin:miter;stroke-width:0.8;"/>
   </g>
   <g id="patch_5">
    <path d="M 37.467428 325.921635 
L 457.79976 325.921635 
" style="fill:none;stroke:#000000;stroke-linecap:square;stroke-linejoin:miter;stroke-width:0.8;"/>
   </g>
   <g id="patch_6">
    <path d="M 37.467428 17.90649 
L 457.79976 17.90649 
" style="fill:none;stroke:#000000;stroke-linecap:square;stroke-linejoin:miter;stroke-width:0.8;"/>
   </g>
   <g id="text_19">
    <!-- tau_m=19.80321811126392 -->
    <defs>
     <path d="M 18.3125 70.21875 
L 18.3125 54.6875 
L 36.8125 54.6875 
L 36.8125 47.703125 
L 18.3125 47.703125 
L 18.3125 18.015625 
Q 18.3125 11.328125 20.140625 9.421875 
Q 21.96875 7.515625 27.59375 7.515625 
L 36.8125 7.515625 
L 36.8125 0 
L 27.59375 0 
Q 17.1875 0 13.234375 3.875 
Q 9.28125 7.765625 9.28125 18.015625 
L 9.28125 47.703125 
L 2.6875 47.703125 
L 2.6875 54.6875 
L 9.28125 54.6875 
L 9.28125 70.21875 
z
" id="DejaVuSans-116"/>
     <path d="M 34.28125 27.484375 
Q 23.390625 27.484375 19.1875 25 
Q 14.984375 22.515625 14.984375 16.5 
Q 14.984375 11.71875 18.140625 8.90625 
Q 21.296875 6.109375 26.703125 6.109375 
Q 34.1875 6.109375 38.703125 11.40625 
Q 43.21875 16.703125 43.21875 25.484375 
L 43.21875 27.484375 
z
M 52.203125 31.203125 
L 52.203125 0 
L 43.21875 0 
L 43.21875 8.296875 
Q 40.140625 3.328125 35.546875 0.953125 
Q 30.953125 -1.421875 24.3125 -1.421875 
Q 15.921875 -1.421875 10.953125 3.296875 
Q 6 8.015625 6 15.921875 
Q 6 25.140625 12.171875 29.828125 
Q 18.359375 34.515625 30.609375 34.515625 
L 43.21875 34.515625 
L 43.21875 35.40625 
Q 43.21875 41.609375 39.140625 45 
Q 35.0625 48.390625 27.6875 48.390625 
Q 23 48.390625 18.546875 47.265625 
Q 14.109375 46.140625 10.015625 43.890625 
L 10.015625 52.203125 
Q 14.9375 54.109375 19.578125 55.046875 
Q 24.21875 56 28.609375 56 
Q 40.484375 56 46.34375 49.84375 
Q 52.203125 43.703125 52.203125 31.203125 
z
" id="DejaVuSans-97"/>
     <path d="M 8.5 21.578125 
L 8.5 54.6875 
L 17.484375 54.6875 
L 17.484375 21.921875 
Q 17.484375 14.15625 20.5 10.265625 
Q 23.53125 6.390625 29.59375 6.390625 
Q 36.859375 6.390625 41.078125 11.03125 
Q 45.3125 15.671875 45.3125 23.6875 
L 45.3125 54.6875 
L 54.296875 54.6875 
L 54.296875 0 
L 45.3125 0 
L 45.3125 8.40625 
Q 42.046875 3.421875 37.71875 1 
Q 33.40625 -1.421875 27.6875 -1.421875 
Q 18.265625 -1.421875 13.375 4.4375 
Q 8.5 10.296875 8.5 21.578125 
z
M 31.109375 56 
z
" id="DejaVuSans-117"/>
     <path d="M 50.984375 -16.609375 
L 50.984375 -23.578125 
L -0.984375 -23.578125 
L -0.984375 -16.609375 
z
" id="DejaVuSans-95"/>
     <path d="M 52 44.1875 
Q 55.375 50.25 60.0625 53.125 
Q 64.75 56 71.09375 56 
Q 79.640625 56 84.28125 50.015625 
Q 88.921875 44.046875 88.921875 33.015625 
L 88.921875 0 
L 79.890625 0 
L 79.890625 32.71875 
Q 79.890625 40.578125 77.09375 44.375 
Q 74.3125 48.1875 68.609375 48.1875 
Q 61.625 48.1875 57.5625 43.546875 
Q 53.515625 38.921875 53.515625 30.90625 
L 53.515625 0 
L 44.484375 0 
L 44.484375 32.71875 
Q 44.484375 40.625 41.703125 44.40625 
Q 38.921875 48.1875 33.109375 48.1875 
Q 26.21875 48.1875 22.15625 43.53125 
Q 18.109375 38.875 18.109375 30.90625 
L 18.109375 0 
L 9.078125 0 
L 9.078125 54.6875 
L 18.109375 54.6875 
L 18.109375 46.1875 
Q 21.1875 51.21875 25.484375 53.609375 
Q 29.78125 56 35.6875 56 
Q 41.65625 56 45.828125 52.96875 
Q 50 49.953125 52 44.1875 
z
" id="DejaVuSans-109"/>
     <path d="M 10.59375 45.40625 
L 73.1875 45.40625 
L 73.1875 37.203125 
L 10.59375 37.203125 
z
M 10.59375 25.484375 
L 73.1875 25.484375 
L 73.1875 17.1875 
L 10.59375 17.1875 
z
" id="DejaVuSans-61"/>
     <path d="M 10.984375 1.515625 
L 10.984375 10.5 
Q 14.703125 8.734375 18.5 7.8125 
Q 22.3125 6.890625 25.984375 6.890625 
Q 35.75 6.890625 40.890625 13.453125 
Q 46.046875 20.015625 46.78125 33.40625 
Q 43.953125 29.203125 39.59375 26.953125 
Q 35.25 24.703125 29.984375 24.703125 
Q 19.046875 24.703125 12.671875 31.3125 
Q 6.296875 37.9375 6.296875 49.421875 
Q 6.296875 60.640625 12.9375 67.421875 
Q 19.578125 74.21875 30.609375 74.21875 
Q 43.265625 74.21875 49.921875 64.515625 
Q 56.59375 54.828125 56.59375 36.375 
Q 56.59375 19.140625 48.40625 8.859375 
Q 40.234375 -1.421875 26.421875 -1.421875 
Q 22.703125 -1.421875 18.890625 -0.6875 
Q 15.09375 0.046875 10.984375 1.515625 
z
M 30.609375 32.421875 
Q 37.25 32.421875 41.125 36.953125 
Q 45.015625 41.5 45.015625 49.421875 
Q 45.015625 57.28125 41.125 61.84375 
Q 37.25 66.40625 30.609375 66.40625 
Q 23.96875 66.40625 20.09375 61.84375 
Q 16.21875 57.28125 16.21875 49.421875 
Q 16.21875 41.5 20.09375 36.953125 
Q 23.96875 32.421875 30.609375 32.421875 
z
" id="DejaVuSans-57"/>
     <path d="M 10.6875 12.40625 
L 21 12.40625 
L 21 0 
L 10.6875 0 
z
" id="DejaVuSans-46"/>
     <path d="M 40.578125 39.3125 
Q 47.65625 37.796875 51.625 33 
Q 55.609375 28.21875 55.609375 21.1875 
Q 55.609375 10.40625 48.1875 4.484375 
Q 40.765625 -1.421875 27.09375 -1.421875 
Q 22.515625 -1.421875 17.65625 -0.515625 
Q 12.796875 0.390625 7.625 2.203125 
L 7.625 11.71875 
Q 11.71875 9.328125 16.59375 8.109375 
Q 21.484375 6.890625 26.8125 6.890625 
Q 36.078125 6.890625 40.9375 10.546875 
Q 45.796875 14.203125 45.796875 21.1875 
Q 45.796875 27.640625 41.28125 31.265625 
Q 36.765625 34.90625 28.71875 34.90625 
L 20.21875 34.90625 
L 20.21875 43.015625 
L 29.109375 43.015625 
Q 36.375 43.015625 40.234375 45.921875 
Q 44.09375 48.828125 44.09375 54.296875 
Q 44.09375 59.90625 40.109375 62.90625 
Q 36.140625 65.921875 28.71875 65.921875 
Q 24.65625 65.921875 20.015625 65.03125 
Q 15.375 64.15625 9.8125 62.3125 
L 9.8125 71.09375 
Q 15.4375 72.65625 20.34375 73.4375 
Q 25.25 74.21875 29.59375 74.21875 
Q 40.828125 74.21875 47.359375 69.109375 
Q 53.90625 64.015625 53.90625 55.328125 
Q 53.90625 49.265625 50.4375 45.09375 
Q 46.96875 40.921875 40.578125 39.3125 
z
" id="DejaVuSans-51"/>
    </defs>
    <g transform="translate(160.942969 11.90649)scale(0.12 -0.12)">
     <use xlink:href="#DejaVuSans-116"/>
     <use x="39.208984" xlink:href="#DejaVuSans-97"/>
     <use x="100.488281" xlink:href="#DejaVuSans-117"/>
     <use x="163.867188" xlink:href="#DejaVuSans-95"/>
     <use x="213.867188" xlink:href="#DejaVuSans-109"/>
     <use x="311.279297" xlink:href="#DejaVuSans-61"/>
     <use x="395.068359" xlink:href="#DejaVuSans-49"/>
     <use x="458.691406" xlink:href="#DejaVuSans-57"/>
     <use x="522.314453" xlink:href="#DejaVuSans-46"/>
     <use x="554.101562" xlink:href="#DejaVuSans-56"/>
     <use x="617.724609" xlink:href="#DejaVuSans-48"/>
     <use x="681.347656" xlink:href="#DejaVuSans-51"/>
     <use x="744.970703" xlink:href="#DejaVuSans-50"/>
     <use x="808.59375" xlink:href="#DejaVuSans-49"/>
     <use x="872.216797" xlink:href="#DejaVuSans-56"/>
     <use x="935.839844" xlink:href="#DejaVuSans-49"/>
     <use x="999.462891" xlink:href="#DejaVuSans-49"/>
     <use x="1063.085938" xlink:href="#DejaVuSans-49"/>
     <use x="1126.708984" xlink:href="#DejaVuSans-50"/>
     <use x="1190.332031" xlink:href="#DejaVuSans-54"/>
     <use x="1253.955078" xlink:href="#DejaVuSans-51"/>
     <use x="1317.578125" xlink:href="#DejaVuSans-57"/>
     <use x="1381.201172" xlink:href="#DejaVuSans-50"/>
    </g>
   </g>
   <g id="legend_1">
    <g id="patch_7">
     <path d="M 396.27476 55.26274 
L 450.79976 55.26274 
Q 452.79976 55.26274 452.79976 53.26274 
L 452.79976 24.90649 
Q 452.79976 22.90649 450.79976 22.90649 
L 396.27476 22.90649 
Q 394.27476 22.90649 394.27476 24.90649 
L 394.27476 53.26274 
Q 394.27476 55.26274 396.27476 55.26274 
z
" style="fill:#ffffff;opacity:0.8;stroke:#cccccc;stroke-linejoin:miter;"/>
    </g>
    <g id="line2d_21"/>
    <g id="line2d_22">
     <g>
      <use style="fill:#1f77b4;stroke:#1f77b4;" x="408.27476" xlink:href="#m3b45103720" y="31.004927"/>
     </g>
    </g>
    <g id="text_20">
     <!-- data -->
     <defs>
      <path d="M 45.40625 46.390625 
L 45.40625 75.984375 
L 54.390625 75.984375 
L 54.390625 0 
L 45.40625 0 
L 45.40625 8.203125 
Q 42.578125 3.328125 38.25 0.953125 
Q 33.9375 -1.421875 27.875 -1.421875 
Q 17.96875 -1.421875 11.734375 6.484375 
Q 5.515625 14.40625 5.515625 27.296875 
Q 5.515625 40.1875 11.734375 48.09375 
Q 17.96875 56 27.875 56 
Q 33.9375 56 38.25 53.625 
Q 42.578125 51.265625 45.40625 46.390625 
z
M 14.796875 27.296875 
Q 14.796875 17.390625 18.875 11.75 
Q 22.953125 6.109375 30.078125 6.109375 
Q 37.203125 6.109375 41.296875 11.75 
Q 45.40625 17.390625 45.40625 27.296875 
Q 45.40625 37.203125 41.296875 42.84375 
Q 37.203125 48.484375 30.078125 48.484375 
Q 22.953125 48.484375 18.875 42.84375 
Q 14.796875 37.203125 14.796875 27.296875 
z
" id="DejaVuSans-100"/>
     </defs>
     <g transform="translate(426.27476 34.504927)scale(0.1 -0.1)">
      <use xlink:href="#DejaVuSans-100"/>
      <use x="63.476562" xlink:href="#DejaVuSans-97"/>
      <use x="124.755859" xlink:href="#DejaVuSans-116"/>
      <use x="163.964844" xlink:href="#DejaVuSans-97"/>
     </g>
    </g>
    <g id="line2d_23">
     <path d="M 398.27476 45.683052 
L 418.27476 45.683052 
" style="fill:none;stroke:#ff7f0e;stroke-dasharray:5.55,2.4;stroke-dashoffset:0;stroke-width:1.5;"/>
    </g>
    <g id="line2d_24"/>
    <g id="text_21">
     <!-- cs -->
     <defs>
      <path d="M 48.78125 52.59375 
L 48.78125 44.1875 
Q 44.96875 46.296875 41.140625 47.34375 
Q 37.3125 48.390625 33.40625 48.390625 
Q 24.65625 48.390625 19.8125 42.84375 
Q 14.984375 37.3125 14.984375 27.296875 
Q 14.984375 17.28125 19.8125 11.734375 
Q 24.65625 6.203125 33.40625 6.203125 
Q 37.3125 6.203125 41.140625 7.25 
Q 44.96875 8.296875 48.78125 10.40625 
L 48.78125 2.09375 
Q 45.015625 0.34375 40.984375 -0.53125 
Q 36.96875 -1.421875 32.421875 -1.421875 
Q 20.0625 -1.421875 12.78125 6.34375 
Q 5.515625 14.109375 5.515625 27.296875 
Q 5.515625 40.671875 12.859375 48.328125 
Q 20.21875 56 33.015625 56 
Q 37.15625 56 41.109375 55.140625 
Q 45.0625 54.296875 48.78125 52.59375 
z
" id="DejaVuSans-99"/>
      <path d="M 44.28125 53.078125 
L 44.28125 44.578125 
Q 40.484375 46.53125 36.375 47.5 
Q 32.28125 48.484375 27.875 48.484375 
Q 21.1875 48.484375 17.84375 46.4375 
Q 14.5 44.390625 14.5 40.28125 
Q 14.5 37.15625 16.890625 35.375 
Q 19.28125 33.59375 26.515625 31.984375 
L 29.59375 31.296875 
Q 39.15625 29.25 43.1875 25.515625 
Q 47.21875 21.78125 47.21875 15.09375 
Q 47.21875 7.46875 41.1875 3.015625 
Q 35.15625 -1.421875 24.609375 -1.421875 
Q 20.21875 -1.421875 15.453125 -0.5625 
Q 10.6875 0.296875 5.421875 2 
L 5.421875 11.28125 
Q 10.40625 8.6875 15.234375 7.390625 
Q 20.0625 6.109375 24.8125 6.109375 
Q 31.15625 6.109375 34.5625 8.28125 
Q 37.984375 10.453125 37.984375 14.40625 
Q 37.984375 18.0625 35.515625 20.015625 
Q 33.0625 21.96875 24.703125 23.78125 
L 21.578125 24.515625 
Q 13.234375 26.265625 9.515625 29.90625 
Q 5.8125 33.546875 5.8125 39.890625 
Q 5.8125 47.609375 11.28125 51.796875 
Q 16.75 56 26.8125 56 
Q 31.78125 56 36.171875 55.265625 
Q 40.578125 54.546875 44.28125 53.078125 
z
" id="DejaVuSans-115"/>
     </defs>
     <g transform="translate(426.27476 49.183052)scale(0.1 -0.1)">
      <use xlink:href="#DejaVuSans-99"/>
      <use x="54.980469" xlink:href="#DejaVuSans-115"/>
     </g>
    </g>
   </g>
  </g>
 </g>
 <defs>
  <clipPath id="pa6f754aac6">
   <rect height="308.015145" width="420.332333" x="37.467427" y="17.90649"/>
  </clipPath>
 </defs>
</svg>
