<?xml version="1.0" encoding="utf-8" standalone="no"?>
<!DOCTYPE svg PUBLIC "-//W3C//DTD SVG 1.1//EN"
  "http://www.w3.org/Graphics/SVG/1.1/DTD/svg11.dtd">
<!-- Created with matplotlib (https://matplotlib.org/) -->
<svg height="345.6pt" version="1.1" viewBox="0 0 460.8 345.6" width="460.8pt" xmlns="http://www.w3.org/2000/svg" xmlns:xlink="http://www.w3.org/1999/xlink">
 <defs>
  <style type="text/css">
*{stroke-linecap:butt;stroke-linejoin:round;}
  </style>
 </defs>
 <g id="figure_1">
  <g id="patch_1">
   <path d="M 0 345.6 
L 460.8 345.6 
L 460.8 0 
L 0 0 
z
" style="fill:#ffffff;"/>
  </g>
  <g id="axes_1">
   <g id="patch_2">
    <path d="M 29.08774 325.921635 
L 457.79976 325.921635 
L 457.79976 17.90649 
L 29.08774 17.90649 
z
" style="fill:#ffffff;"/>
   </g>
   <g id="matplotlib.axis_1">
    <g id="xtick_1">
     <g id="line2d_1">
      <defs>
       <path d="M 0 0 
L 0 3.5 
" id="m80228e8e5b" style="stroke:#000000;stroke-width:0.8;"/>
      </defs>
      <g>
       <use style="stroke:#000000;stroke-width:0.8;" x="69.775461" xlink:href="#m80228e8e5b" y="325.921635"/>
      </g>
     </g>
     <g id="text_1">
      <!-- −7.5 -->
      <defs>
       <path d="M 10.59375 35.5 
L 73.1875 35.5 
L 73.1875 27.203125 
L 10.59375 27.203125 
z
" id="DejaVuSans-8722"/>
       <path d="M 8.203125 72.90625 
L 55.078125 72.90625 
L 55.078125 68.703125 
L 28.609375 0 
L 18.3125 0 
L 43.21875 64.59375 
L 8.203125 64.59375 
z
" id="DejaVuSans-55"/>
       <path d="M 10.6875 12.40625 
L 21 12.40625 
L 21 0 
L 10.6875 0 
z
" id="DejaVuSans-46"/>
       <path d="M 10.796875 72.90625 
L 49.515625 72.90625 
L 49.515625 64.59375 
L 19.828125 64.59375 
L 19.828125 46.734375 
Q 21.96875 47.46875 24.109375 47.828125 
Q 26.265625 48.1875 28.421875 48.1875 
Q 40.625 48.1875 47.75 41.5 
Q 54.890625 34.8125 54.890625 23.390625 
Q 54.890625 11.625 47.5625 5.09375 
Q 40.234375 -1.421875 26.90625 -1.421875 
Q 22.3125 -1.421875 17.546875 -0.640625 
Q 12.796875 0.140625 7.71875 1.703125 
L 7.71875 11.625 
Q 12.109375 9.234375 16.796875 8.0625 
Q 21.484375 6.890625 26.703125 6.890625 
Q 35.15625 6.890625 40.078125 11.328125 
Q 45.015625 15.765625 45.015625 23.390625 
Q 45.015625 31 40.078125 35.4375 
Q 35.15625 39.890625 26.703125 39.890625 
Q 22.75 39.890625 18.8125 39.015625 
Q 14.890625 38.140625 10.796875 36.28125 
z
" id="DejaVuSans-53"/>
      </defs>
      <g transform="translate(57.634054 340.520072)scale(0.1 -0.1)">
       <use xlink:href="#DejaVuSans-8722"/>
       <use x="83.789062" xlink:href="#DejaVuSans-55"/>
       <use x="147.412109" xlink:href="#DejaVuSans-46"/>
       <use x="179.199219" xlink:href="#DejaVuSans-53"/>
      </g>
     </g>
    </g>
    <g id="xtick_2">
     <g id="line2d_2">
      <g>
       <use style="stroke:#000000;stroke-width:0.8;" x="121.111069" xlink:href="#m80228e8e5b" y="325.921635"/>
      </g>
     </g>
     <g id="text_2">
      <!-- −5.0 -->
      <defs>
       <path d="M 31.78125 66.40625 
Q 24.171875 66.40625 20.328125 58.90625 
Q 16.5 51.421875 16.5 36.375 
Q 16.5 21.390625 20.328125 13.890625 
Q 24.171875 6.390625 31.78125 6.390625 
Q 39.453125 6.390625 43.28125 13.890625 
Q 47.125 21.390625 47.125 36.375 
Q 47.125 51.421875 43.28125 58.90625 
Q 39.453125 66.40625 31.78125 66.40625 
z
M 31.78125 74.21875 
Q 44.046875 74.21875 50.515625 64.515625 
Q 56.984375 54.828125 56.984375 36.375 
Q 56.984375 17.96875 50.515625 8.265625 
Q 44.046875 -1.421875 31.78125 -1.421875 
Q 19.53125 -1.421875 13.0625 8.265625 
Q 6.59375 17.96875 6.59375 36.375 
Q 6.59375 54.828125 13.0625 64.515625 
Q 19.53125 74.21875 31.78125 74.21875 
z
" id="DejaVuSans-48"/>
      </defs>
      <g transform="translate(108.969663 340.520072)scale(0.1 -0.1)">
       <use xlink:href="#DejaVuSans-8722"/>
       <use x="83.789062" xlink:href="#DejaVuSans-53"/>
       <use x="147.412109" xlink:href="#DejaVuSans-46"/>
       <use x="179.199219" xlink:href="#DejaVuSans-48"/>
      </g>
     </g>
    </g>
    <g id="xtick_3">
     <g id="line2d_3">
      <g>
       <use style="stroke:#000000;stroke-width:0.8;" x="172.446678" xlink:href="#m80228e8e5b" y="325.921635"/>
      </g>
     </g>
     <g id="text_3">
      <!-- −2.5 -->
      <defs>
       <path d="M 19.1875 8.296875 
L 53.609375 8.296875 
L 53.609375 0 
L 7.328125 0 
L 7.328125 8.296875 
Q 12.9375 14.109375 22.625 23.890625 
Q 32.328125 33.6875 34.8125 36.53125 
Q 39.546875 41.84375 41.421875 45.53125 
Q 43.3125 49.21875 43.3125 52.78125 
Q 43.3125 58.59375 39.234375 62.25 
Q 35.15625 65.921875 28.609375 65.921875 
Q 23.96875 65.921875 18.8125 64.3125 
Q 13.671875 62.703125 7.8125 59.421875 
L 7.8125 69.390625 
Q 13.765625 71.78125 18.9375 73 
Q 24.125 74.21875 28.421875 74.21875 
Q 39.75 74.21875 46.484375 68.546875 
Q 53.21875 62.890625 53.21875 53.421875 
Q 53.21875 48.921875 51.53125 44.890625 
Q 49.859375 40.875 45.40625 35.40625 
Q 44.1875 33.984375 37.640625 27.21875 
Q 31.109375 20.453125 19.1875 8.296875 
z
" id="DejaVuSans-50"/>
      </defs>
      <g transform="translate(160.305271 340.520072)scale(0.1 -0.1)">
       <use xlink:href="#DejaVuSans-8722"/>
       <use x="83.789062" xlink:href="#DejaVuSans-50"/>
       <use x="147.412109" xlink:href="#DejaVuSans-46"/>
       <use x="179.199219" xlink:href="#DejaVuSans-53"/>
      </g>
     </g>
    </g>
    <g id="xtick_4">
     <g id="line2d_4">
      <g>
       <use style="stroke:#000000;stroke-width:0.8;" x="223.782286" xlink:href="#m80228e8e5b" y="325.921635"/>
      </g>
     </g>
     <g id="text_4">
      <!-- 0.0 -->
      <g transform="translate(215.830724 340.520072)scale(0.1 -0.1)">
       <use xlink:href="#DejaVuSans-48"/>
       <use x="63.623047" xlink:href="#DejaVuSans-46"/>
       <use x="95.410156" xlink:href="#DejaVuSans-48"/>
      </g>
     </g>
    </g>
    <g id="xtick_5">
     <g id="line2d_5">
      <g>
       <use style="stroke:#000000;stroke-width:0.8;" x="275.117895" xlink:href="#m80228e8e5b" y="325.921635"/>
      </g>
     </g>
     <g id="text_5">
      <!-- 2.5 -->
      <g transform="translate(267.166332 340.520072)scale(0.1 -0.1)">
       <use xlink:href="#DejaVuSans-50"/>
       <use x="63.623047" xlink:href="#DejaVuSans-46"/>
       <use x="95.410156" xlink:href="#DejaVuSans-53"/>
      </g>
     </g>
    </g>
    <g id="xtick_6">
     <g id="line2d_6">
      <g>
       <use style="stroke:#000000;stroke-width:0.8;" x="326.453503" xlink:href="#m80228e8e5b" y="325.921635"/>
      </g>
     </g>
     <g id="text_6">
      <!-- 5.0 -->
      <g transform="translate(318.501941 340.520072)scale(0.1 -0.1)">
       <use xlink:href="#DejaVuSans-53"/>
       <use x="63.623047" xlink:href="#DejaVuSans-46"/>
       <use x="95.410156" xlink:href="#DejaVuSans-48"/>
      </g>
     </g>
    </g>
    <g id="xtick_7">
     <g id="line2d_7">
      <g>
       <use style="stroke:#000000;stroke-width:0.8;" x="377.789112" xlink:href="#m80228e8e5b" y="325.921635"/>
      </g>
     </g>
     <g id="text_7">
      <!-- 7.5 -->
      <g transform="translate(369.837549 340.520072)scale(0.1 -0.1)">
       <use xlink:href="#DejaVuSans-55"/>
       <use x="63.623047" xlink:href="#DejaVuSans-46"/>
       <use x="95.410156" xlink:href="#DejaVuSans-53"/>
      </g>
     </g>
    </g>
    <g id="xtick_8">
     <g id="line2d_8">
      <g>
       <use style="stroke:#000000;stroke-width:0.8;" x="429.12472" xlink:href="#m80228e8e5b" y="325.921635"/>
      </g>
     </g>
     <g id="text_8">
      <!-- 10.0 -->
      <defs>
       <path d="M 12.40625 8.296875 
L 28.515625 8.296875 
L 28.515625 63.921875 
L 10.984375 60.40625 
L 10.984375 69.390625 
L 28.421875 72.90625 
L 38.28125 72.90625 
L 38.28125 8.296875 
L 54.390625 8.296875 
L 54.390625 0 
L 12.40625 0 
z
" id="DejaVuSans-49"/>
      </defs>
      <g transform="translate(417.991908 340.520072)scale(0.1 -0.1)">
       <use xlink:href="#DejaVuSans-49"/>
       <use x="63.623047" xlink:href="#DejaVuSans-48"/>
       <use x="127.246094" xlink:href="#DejaVuSans-46"/>
       <use x="159.033203" xlink:href="#DejaVuSans-48"/>
      </g>
     </g>
    </g>
   </g>
   <g id="matplotlib.axis_2">
    <g id="ytick_1">
     <g id="line2d_9">
      <defs>
       <path d="M 0 0 
L -3.5 0 
" id="m958b745d18" style="stroke:#000000;stroke-width:0.8;"/>
      </defs>
      <g>
       <use style="stroke:#000000;stroke-width:0.8;" x="29.08774" xlink:href="#m958b745d18" y="283.856916"/>
      </g>
     </g>
     <g id="text_9">
      <!-- 162 -->
      <defs>
       <path d="M 33.015625 40.375 
Q 26.375 40.375 22.484375 35.828125 
Q 18.609375 31.296875 18.609375 23.390625 
Q 18.609375 15.53125 22.484375 10.953125 
Q 26.375 6.390625 33.015625 6.390625 
Q 39.65625 6.390625 43.53125 10.953125 
Q 47.40625 15.53125 47.40625 23.390625 
Q 47.40625 31.296875 43.53125 35.828125 
Q 39.65625 40.375 33.015625 40.375 
z
M 52.59375 71.296875 
L 52.59375 62.3125 
Q 48.875 64.0625 45.09375 64.984375 
Q 41.3125 65.921875 37.59375 65.921875 
Q 27.828125 65.921875 22.671875 59.328125 
Q 17.53125 52.734375 16.796875 39.40625 
Q 19.671875 43.65625 24.015625 45.921875 
Q 28.375 48.1875 33.59375 48.1875 
Q 44.578125 48.1875 50.953125 41.515625 
Q 57.328125 34.859375 57.328125 23.390625 
Q 57.328125 12.15625 50.6875 5.359375 
Q 44.046875 -1.421875 33.015625 -1.421875 
Q 20.359375 -1.421875 13.671875 8.265625 
Q 6.984375 17.96875 6.984375 36.375 
Q 6.984375 53.65625 15.1875 63.9375 
Q 23.390625 74.21875 37.203125 74.21875 
Q 40.921875 74.21875 44.703125 73.484375 
Q 48.484375 72.75 52.59375 71.296875 
z
" id="DejaVuSans-54"/>
      </defs>
      <g transform="translate(3.00024 287.656135)scale(0.1 -0.1)">
       <use xlink:href="#DejaVuSans-49"/>
       <use x="63.623047" xlink:href="#DejaVuSans-54"/>
       <use x="127.246094" xlink:href="#DejaVuSans-50"/>
      </g>
     </g>
    </g>
    <g id="ytick_2">
     <g id="line2d_10">
      <g>
       <use style="stroke:#000000;stroke-width:0.8;" x="29.08774" xlink:href="#m958b745d18" y="226.332463"/>
      </g>
     </g>
     <g id="text_10">
      <!-- 164 -->
      <defs>
       <path d="M 37.796875 64.3125 
L 12.890625 25.390625 
L 37.796875 25.390625 
z
M 35.203125 72.90625 
L 47.609375 72.90625 
L 47.609375 25.390625 
L 58.015625 25.390625 
L 58.015625 17.1875 
L 47.609375 17.1875 
L 47.609375 0 
L 37.796875 0 
L 37.796875 17.1875 
L 4.890625 17.1875 
L 4.890625 26.703125 
z
" id="DejaVuSans-52"/>
      </defs>
      <g transform="translate(3.00024 230.131682)scale(0.1 -0.1)">
       <use xlink:href="#DejaVuSans-49"/>
       <use x="63.623047" xlink:href="#DejaVuSans-54"/>
       <use x="127.246094" xlink:href="#DejaVuSans-52"/>
      </g>
     </g>
    </g>
    <g id="ytick_3">
     <g id="line2d_11">
      <g>
       <use style="stroke:#000000;stroke-width:0.8;" x="29.08774" xlink:href="#m958b745d18" y="168.808011"/>
      </g>
     </g>
     <g id="text_11">
      <!-- 166 -->
      <g transform="translate(3.00024 172.607229)scale(0.1 -0.1)">
       <use xlink:href="#DejaVuSans-49"/>
       <use x="63.623047" xlink:href="#DejaVuSans-54"/>
       <use x="127.246094" xlink:href="#DejaVuSans-54"/>
      </g>
     </g>
    </g>
    <g id="ytick_4">
     <g id="line2d_12">
      <g>
       <use style="stroke:#000000;stroke-width:0.8;" x="29.08774" xlink:href="#m958b745d18" y="111.283558"/>
      </g>
     </g>
     <g id="text_12">
      <!-- 168 -->
      <defs>
       <path d="M 31.78125 34.625 
Q 24.75 34.625 20.71875 30.859375 
Q 16.703125 27.09375 16.703125 20.515625 
Q 16.703125 13.921875 20.71875 10.15625 
Q 24.75 6.390625 31.78125 6.390625 
Q 38.8125 6.390625 42.859375 10.171875 
Q 46.921875 13.96875 46.921875 20.515625 
Q 46.921875 27.09375 42.890625 30.859375 
Q 38.875 34.625 31.78125 34.625 
z
M 21.921875 38.8125 
Q 15.578125 40.375 12.03125 44.71875 
Q 8.5 49.078125 8.5 55.328125 
Q 8.5 64.0625 14.71875 69.140625 
Q 20.953125 74.21875 31.78125 74.21875 
Q 42.671875 74.21875 48.875 69.140625 
Q 55.078125 64.0625 55.078125 55.328125 
Q 55.078125 49.078125 51.53125 44.71875 
Q 48 40.375 41.703125 38.8125 
Q 48.828125 37.15625 52.796875 32.3125 
Q 56.78125 27.484375 56.78125 20.515625 
Q 56.78125 9.90625 50.3125 4.234375 
Q 43.84375 -1.421875 31.78125 -1.421875 
Q 19.734375 -1.421875 13.25 4.234375 
Q 6.78125 9.90625 6.78125 20.515625 
Q 6.78125 27.484375 10.78125 32.3125 
Q 14.796875 37.15625 21.921875 38.8125 
z
M 18.3125 54.390625 
Q 18.3125 48.734375 21.84375 45.5625 
Q 25.390625 42.390625 31.78125 42.390625 
Q 38.140625 42.390625 41.71875 45.5625 
Q 45.3125 48.734375 45.3125 54.390625 
Q 45.3125 60.0625 41.71875 63.234375 
Q 38.140625 66.40625 31.78125 66.40625 
Q 25.390625 66.40625 21.84375 63.234375 
Q 18.3125 60.0625 18.3125 54.390625 
z
" id="DejaVuSans-56"/>
      </defs>
      <g transform="translate(3.00024 115.082777)scale(0.1 -0.1)">
       <use xlink:href="#DejaVuSans-49"/>
       <use x="63.623047" xlink:href="#DejaVuSans-54"/>
       <use x="127.246094" xlink:href="#DejaVuSans-56"/>
      </g>
     </g>
    </g>
    <g id="ytick_5">
     <g id="line2d_13">
      <g>
       <use style="stroke:#000000;stroke-width:0.8;" x="29.08774" xlink:href="#m958b745d18" y="53.759106"/>
      </g>
     </g>
     <g id="text_13">
      <!-- 170 -->
      <g transform="translate(3.00024 57.558324)scale(0.1 -0.1)">
       <use xlink:href="#DejaVuSans-49"/>
       <use x="63.623047" xlink:href="#DejaVuSans-55"/>
       <use x="127.246094" xlink:href="#DejaVuSans-48"/>
      </g>
     </g>
    </g>
   </g>
   <g id="line2d_14">
    <defs>
     <path d="M 0 3 
C 0.795609 3 1.55874 2.683901 2.12132 2.12132 
C 2.683901 1.55874 3 0.795609 3 0 
C 3 -0.795609 2.683901 -1.55874 2.12132 -2.12132 
C 1.55874 -2.683901 0.795609 -3 0 -3 
C -0.795609 -3 -1.55874 -2.683901 -2.12132 -2.12132 
C -2.683901 -1.55874 -3 -0.795609 -3 0 
C -3 0.795609 -2.683901 1.55874 -2.12132 2.12132 
C -1.55874 2.683901 -0.795609 3 0 3 
z
" id="me90aa28c31" style="stroke:#1f77b4;"/>
    </defs>
    <g clip-path="url(#p2d2215aef7)">
     <use style="fill:#1f77b4;stroke:#1f77b4;" x="164.264632" xlink:href="#me90aa28c31" y="255.09469"/>
     <use style="fill:#1f77b4;stroke:#1f77b4;" x="430.190654" xlink:href="#me90aa28c31" y="255.09469"/>
     <use style="fill:#1f77b4;stroke:#1f77b4;" x="48.57465" xlink:href="#me90aa28c31" y="255.09469"/>
     <use style="fill:#1f77b4;stroke:#1f77b4;" x="180.594264" xlink:href="#me90aa28c31" y="255.09469"/>
     <use style="fill:#1f77b4;stroke:#1f77b4;" x="103.050408" xlink:href="#me90aa28c31" y="255.09469"/>
     <use style="fill:#1f77b4;stroke:#1f77b4;" x="129.464021" xlink:href="#me90aa28c31" y="255.09469"/>
     <use style="fill:#1f77b4;stroke:#1f77b4;" x="395.6813" xlink:href="#me90aa28c31" y="255.09469"/>
     <use style="fill:#1f77b4;stroke:#1f77b4;" x="438.31285" xlink:href="#me90aa28c31" y="255.09469"/>
     <use style="fill:#1f77b4;stroke:#1f77b4;" x="192.593626" xlink:href="#me90aa28c31" y="255.09469"/>
     <use style="fill:#1f77b4;stroke:#1f77b4;" x="336.824518" xlink:href="#me90aa28c31" y="255.09469"/>
     <use style="fill:#1f77b4;stroke:#1f77b4;" x="84.580972" xlink:href="#me90aa28c31" y="255.09469"/>
     <use style="fill:#1f77b4;stroke:#1f77b4;" x="158.79076" xlink:href="#me90aa28c31" y="255.09469"/>
     <use style="fill:#1f77b4;stroke:#1f77b4;" x="169.516239" xlink:href="#me90aa28c31" y="255.09469"/>
     <use style="fill:#1f77b4;stroke:#1f77b4;" x="392.059755" xlink:href="#me90aa28c31" y="255.09469"/>
     <use style="fill:#1f77b4;stroke:#1f77b4;" x="132.210392" xlink:href="#me90aa28c31" y="255.09469"/>
     <use style="fill:#1f77b4;stroke:#1f77b4;" x="187.341521" xlink:href="#me90aa28c31" y="255.09469"/>
     <use style="fill:#1f77b4;stroke:#1f77b4;" x="209.716062" xlink:href="#me90aa28c31" y="255.09469"/>
     <use style="fill:#1f77b4;stroke:#1f77b4;" x="275.31202" xlink:href="#me90aa28c31" y="255.09469"/>
     <use style="fill:#1f77b4;stroke:#1f77b4;" x="362.893194" xlink:href="#me90aa28c31" y="255.09469"/>
     <use style="fill:#1f77b4;stroke:#1f77b4;" x="211.868308" xlink:href="#me90aa28c31" y="255.09469"/>
     <use style="fill:#1f77b4;stroke:#1f77b4;" x="407.055041" xlink:href="#me90aa28c31" y="255.09469"/>
     <use style="fill:#1f77b4;stroke:#1f77b4;" x="250.719308" xlink:href="#me90aa28c31" y="255.09469"/>
     <use style="fill:#1f77b4;stroke:#1f77b4;" x="180.06954" xlink:href="#me90aa28c31" y="255.09469"/>
     <use style="fill:#1f77b4;stroke:#1f77b4;" x="139.986544" xlink:href="#me90aa28c31" y="255.09469"/>
     <use style="fill:#1f77b4;stroke:#1f77b4;" x="224.41863" xlink:href="#me90aa28c31" y="255.09469"/>
     <use style="fill:#1f77b4;stroke:#1f77b4;" x="144.153236" xlink:href="#me90aa28c31" y="255.09469"/>
     <use style="fill:#1f77b4;stroke:#1f77b4;" x="391.337515" xlink:href="#me90aa28c31" y="255.09469"/>
     <use style="fill:#1f77b4;stroke:#1f77b4;" x="257.707939" xlink:href="#me90aa28c31" y="255.09469"/>
     <use style="fill:#1f77b4;stroke:#1f77b4;" x="325.65621" xlink:href="#me90aa28c31" y="255.09469"/>
     <use style="fill:#1f77b4;stroke:#1f77b4;" x="383.117267" xlink:href="#me90aa28c31" y="255.09469"/>
    </g>
   </g>
   <g id="line2d_15">
    <path clip-path="url(#p2d2215aef7)" d="M 223.782286 252.734422 
L 225.714994 256.534058 
L 228.291938 262.226022 
L 232.157353 270.755583 
L 233.875316 274.022769 
L 235.163788 276.08464 
L 236.452259 277.718668 
L 237.525986 278.69196 
L 238.384967 279.18081 
L 239.243948 279.38468 
L 239.888184 279.335352 
L 240.53242 279.10083 
L 241.176656 278.670446 
L 242.035637 277.773488 
L 242.894619 276.484077 
L 243.7536 274.776928 
L 244.612581 272.626751 
L 245.686308 269.2775 
L 246.760034 265.147118 
L 247.833761 260.186216 
L 249.122233 253.067306 
L 250.410704 244.595982 
L 251.913922 232.971253 
L 256.638318 194.686553 
L 257.712045 188.30319 
L 258.571026 184.437911 
L 259.430007 181.693634 
L 260.074243 180.328326 
L 260.718479 179.523539 
L 261.14797 179.283575 
L 261.577461 179.270469 
L 262.006951 179.475318 
L 262.436442 179.889217 
L 263.080678 180.882554 
L 263.724914 182.296165 
L 264.583895 184.782794 
L 265.657621 188.758105 
L 266.946093 194.616457 
L 268.44931 202.647422 
L 270.382018 214.278161 
L 276.394887 251.41379 
L 278.327595 261.270039 
L 280.045557 268.928005 
L 281.76352 275.595651 
L 283.481482 281.318996 
L 284.984699 285.588473 
L 286.487916 289.201028 
L 287.991134 292.187486 
L 289.279605 294.272354 
L 290.568077 295.939294 
L 291.856549 297.207721 
L 292.930276 297.974328 
L 294.004002 298.488906 
L 295.077729 298.762687 
L 296.151455 298.806908 
L 297.225182 298.632802 
L 298.298908 298.251603 
L 299.58738 297.536621 
L 300.875852 296.559017 
L 302.379069 295.112453 
L 303.882286 293.365682 
L 305.600249 291.041316 
L 307.532957 288.063138 
L 309.895155 283.993071 
L 312.686844 278.727297 
L 317.196496 269.659491 
L 322.350383 259.385175 
L 325.142072 254.277401 
L 327.719016 250.021421 
L 331.799177 243.362395 
L 333.731884 239.737889 
L 335.449847 236.016782 
L 336.953064 232.248918 
L 338.671027 227.286527 
L 341.033225 219.689876 
L 345.542876 205.006801 
L 347.260839 200.147174 
L 348.764056 196.551479 
L 349.837783 194.461213 
L 350.911509 192.842281 
L 351.77049 191.929737 
L 352.414726 191.490134 
L 353.058962 191.275808 
L 353.703198 191.300658 
L 354.347434 191.578584 
L 354.99167 192.123483 
L 355.635906 192.949256 
L 356.494887 194.511224 
L 357.353868 196.630178 
L 358.21285 199.339064 
L 359.286576 203.604956 
L 360.360303 208.908443 
L 361.434029 215.313874 
L 362.722501 224.545559 
L 364.010973 235.512147 
L 365.943681 254.183197 
L 369.16486 285.462542 
L 370.453332 296.010789 
L 371.527059 303.179804 
L 372.38604 307.565329 
L 373.030276 309.9325 
L 373.674512 311.413227 
L 374.104003 311.865162 
L 374.318748 311.920947 
L 374.533493 311.859001 
L 374.962984 311.369096 
L 375.392474 310.369797 
L 375.821965 308.835457 
L 376.466201 305.474637 
L 377.110437 300.765702 
L 377.754673 294.622087 
L 378.613654 284.04926 
L 379.472635 270.566813 
L 380.331617 253.969558 
L 381.405343 228.530201 
L 382.47907 197.502592 
L 383.552796 160.504759 
L 386.12974 66.251714 
L 386.988721 44.376349 
L 387.418212 37.094272 
L 387.847702 32.80228 
L 388.062448 31.907178 
L 388.277193 31.915133 
L 388.491938 32.877989 
L 388.706684 34.847592 
L 389.136174 42.014416 
L 389.565665 53.830367 
L 390.209901 81.178693 
L 390.854137 121.320581 
L 391.498373 175.655846 
L 392.572099 271.068542 
L 393.00159 291.20507 
L 393.43108 301.063059 
L 393.645826 302.700176 
L 393.860571 302.442749 
L 394.075316 300.515808 
L 394.504807 292.553502 
L 395.149043 273.71444 
L 396.437515 232.750434 
L 397.296496 212.713165 
L 398.155477 198.545575 
L 398.799713 191.399364 
L 399.443949 186.945309 
L 399.87344 185.342578 
L 400.30293 184.742858 
L 400.517676 184.794938 
L 400.732421 185.068746 
L 401.161912 186.24284 
L 401.591402 188.187739 
L 402.235638 192.38103 
L 403.094619 199.947487 
L 404.168346 211.709542 
L 408.248507 259.344103 
L 409.322233 268.370139 
L 410.39596 275.597473 
L 411.469686 281.148621 
L 412.328668 284.465016 
L 413.187649 286.849792 
L 413.831885 288.064733 
L 414.476121 288.817387 
L 414.905611 289.075398 
L 415.335102 289.14755 
L 415.764593 289.041685 
L 416.408828 288.566256 
L 417.053064 287.734395 
L 417.912046 286.116533 
L 418.771027 283.974787 
L 419.844753 280.656454 
L 421.133225 275.895824 
L 422.851188 268.574624 
L 425.857622 254.493646 
L 428.434566 242.871754 
L 429.937783 237.000053 
L 431.226255 232.818066 
L 432.299981 230.094792 
L 433.158963 228.502962 
L 433.803199 227.692549 
L 434.447434 227.240219 
L 434.876925 227.15067 
L 435.306416 227.239871 
L 435.735906 227.515664 
L 436.380142 228.296366 
L 437.024378 229.541005 
L 437.668614 231.276046 
L 438.31285 233.527952 
L 438.31285 233.527952 
" style="fill:none;stroke:#ff7f0e;stroke-dasharray:5.55,2.4;stroke-dashoffset:0;stroke-width:1.5;"/>
   </g>
   <g id="patch_3">
    <path d="M 29.08774 325.921635 
L 29.08774 17.90649 
" style="fill:none;stroke:#000000;stroke-linecap:square;stroke-linejoin:miter;stroke-width:0.8;"/>
   </g>
   <g id="patch_4">
    <path d="M 457.79976 325.921635 
L 457.79976 17.90649 
" style="fill:none;stroke:#000000;stroke-linecap:square;stroke-linejoin:miter;stroke-width:0.8;"/>
   </g>
   <g id="patch_5">
    <path d="M 29.08774 325.921635 
L 457.79976 325.921635 
" style="fill:none;stroke:#000000;stroke-linecap:square;stroke-linejoin:miter;stroke-width:0.8;"/>
   </g>
   <g id="patch_6">
    <path d="M 29.08774 17.90649 
L 457.79976 17.90649 
" style="fill:none;stroke:#000000;stroke-linecap:square;stroke-linejoin:miter;stroke-width:0.8;"/>
   </g>
   <g id="text_14">
    <!-- tau_m=12.888573858155747 -->
    <defs>
     <path d="M 18.3125 70.21875 
L 18.3125 54.6875 
L 36.8125 54.6875 
L 36.8125 47.703125 
L 18.3125 47.703125 
L 18.3125 18.015625 
Q 18.3125 11.328125 20.140625 9.421875 
Q 21.96875 7.515625 27.59375 7.515625 
L 36.8125 7.515625 
L 36.8125 0 
L 27.59375 0 
Q 17.1875 0 13.234375 3.875 
Q 9.28125 7.765625 9.28125 18.015625 
L 9.28125 47.703125 
L 2.6875 47.703125 
L 2.6875 54.6875 
L 9.28125 54.6875 
L 9.28125 70.21875 
z
" id="DejaVuSans-116"/>
     <path d="M 34.28125 27.484375 
Q 23.390625 27.484375 19.1875 25 
Q 14.984375 22.515625 14.984375 16.5 
Q 14.984375 11.71875 18.140625 8.90625 
Q 21.296875 6.109375 26.703125 6.109375 
Q 34.1875 6.109375 38.703125 11.40625 
Q 43.21875 16.703125 43.21875 25.484375 
L 43.21875 27.484375 
z
M 52.203125 31.203125 
L 52.203125 0 
L 43.21875 0 
L 43.21875 8.296875 
Q 40.140625 3.328125 35.546875 0.953125 
Q 30.953125 -1.421875 24.3125 -1.421875 
Q 15.921875 -1.421875 10.953125 3.296875 
Q 6 8.015625 6 15.921875 
Q 6 25.140625 12.171875 29.828125 
Q 18.359375 34.515625 30.609375 34.515625 
L 43.21875 34.515625 
L 43.21875 35.40625 
Q 43.21875 41.609375 39.140625 45 
Q 35.0625 48.390625 27.6875 48.390625 
Q 23 48.390625 18.546875 47.265625 
Q 14.109375 46.140625 10.015625 43.890625 
L 10.015625 52.203125 
Q 14.9375 54.109375 19.578125 55.046875 
Q 24.21875 56 28.609375 56 
Q 40.484375 56 46.34375 49.84375 
Q 52.203125 43.703125 52.203125 31.203125 
z
" id="DejaVuSans-97"/>
     <path d="M 8.5 21.578125 
L 8.5 54.6875 
L 17.484375 54.6875 
L 17.484375 21.921875 
Q 17.484375 14.15625 20.5 10.265625 
Q 23.53125 6.390625 29.59375 6.390625 
Q 36.859375 6.390625 41.078125 11.03125 
Q 45.3125 15.671875 45.3125 23.6875 
L 45.3125 54.6875 
L 54.296875 54.6875 
L 54.296875 0 
L 45.3125 0 
L 45.3125 8.40625 
Q 42.046875 3.421875 37.71875 1 
Q 33.40625 -1.421875 27.6875 -1.421875 
Q 18.265625 -1.421875 13.375 4.4375 
Q 8.5 10.296875 8.5 21.578125 
z
M 31.109375 56 
z
" id="DejaVuSans-117"/>
     <path d="M 50.984375 -16.609375 
L 50.984375 -23.578125 
L -0.984375 -23.578125 
L -0.984375 -16.609375 
z
" id="DejaVuSans-95"/>
     <path d="M 52 44.1875 
Q 55.375 50.25 60.0625 53.125 
Q 64.75 56 71.09375 56 
Q 79.640625 56 84.28125 50.015625 
Q 88.921875 44.046875 88.921875 33.015625 
L 88.921875 0 
L 79.890625 0 
L 79.890625 32.71875 
Q 79.890625 40.578125 77.09375 44.375 
Q 74.3125 48.1875 68.609375 48.1875 
Q 61.625 48.1875 57.5625 43.546875 
Q 53.515625 38.921875 53.515625 30.90625 
L 53.515625 0 
L 44.484375 0 
L 44.484375 32.71875 
Q 44.484375 40.625 41.703125 44.40625 
Q 38.921875 48.1875 33.109375 48.1875 
Q 26.21875 48.1875 22.15625 43.53125 
Q 18.109375 38.875 18.109375 30.90625 
L 18.109375 0 
L 9.078125 0 
L 9.078125 54.6875 
L 18.109375 54.6875 
L 18.109375 46.1875 
Q 21.1875 51.21875 25.484375 53.609375 
Q 29.78125 56 35.6875 56 
Q 41.65625 56 45.828125 52.96875 
Q 50 49.953125 52 44.1875 
z
" id="DejaVuSans-109"/>
     <path d="M 10.59375 45.40625 
L 73.1875 45.40625 
L 73.1875 37.203125 
L 10.59375 37.203125 
z
M 10.59375 25.484375 
L 73.1875 25.484375 
L 73.1875 17.1875 
L 10.59375 17.1875 
z
" id="DejaVuSans-61"/>
     <path d="M 40.578125 39.3125 
Q 47.65625 37.796875 51.625 33 
Q 55.609375 28.21875 55.609375 21.1875 
Q 55.609375 10.40625 48.1875 4.484375 
Q 40.765625 -1.421875 27.09375 -1.421875 
Q 22.515625 -1.421875 17.65625 -0.515625 
Q 12.796875 0.390625 7.625 2.203125 
L 7.625 11.71875 
Q 11.71875 9.328125 16.59375 8.109375 
Q 21.484375 6.890625 26.8125 6.890625 
Q 36.078125 6.890625 40.9375 10.546875 
Q 45.796875 14.203125 45.796875 21.1875 
Q 45.796875 27.640625 41.28125 31.265625 
Q 36.765625 34.90625 28.71875 34.90625 
L 20.21875 34.90625 
L 20.21875 43.015625 
L 29.109375 43.015625 
Q 36.375 43.015625 40.234375 45.921875 
Q 44.09375 48.828125 44.09375 54.296875 
Q 44.09375 59.90625 40.109375 62.90625 
Q 36.140625 65.921875 28.71875 65.921875 
Q 24.65625 65.921875 20.015625 65.03125 
Q 15.375 64.15625 9.8125 62.3125 
L 9.8125 71.09375 
Q 15.4375 72.65625 20.34375 73.4375 
Q 25.25 74.21875 29.59375 74.21875 
Q 40.828125 74.21875 47.359375 69.109375 
Q 53.90625 64.015625 53.90625 55.328125 
Q 53.90625 49.265625 50.4375 45.09375 
Q 46.96875 40.921875 40.578125 39.3125 
z
" id="DejaVuSans-51"/>
    </defs>
    <g transform="translate(152.935625 11.90649)scale(0.12 -0.12)">
     <use xlink:href="#DejaVuSans-116"/>
     <use x="39.208984" xlink:href="#DejaVuSans-97"/>
     <use x="100.488281" xlink:href="#DejaVuSans-117"/>
     <use x="163.867188" xlink:href="#DejaVuSans-95"/>
     <use x="213.867188" xlink:href="#DejaVuSans-109"/>
     <use x="311.279297" xlink:href="#DejaVuSans-61"/>
     <use x="395.068359" xlink:href="#DejaVuSans-49"/>
     <use x="458.691406" xlink:href="#DejaVuSans-50"/>
     <use x="522.314453" xlink:href="#DejaVuSans-46"/>
     <use x="554.101562" xlink:href="#DejaVuSans-56"/>
     <use x="617.724609" xlink:href="#DejaVuSans-56"/>
     <use x="681.347656" xlink:href="#DejaVuSans-56"/>
     <use x="744.970703" xlink:href="#DejaVuSans-53"/>
     <use x="808.59375" xlink:href="#DejaVuSans-55"/>
     <use x="872.216797" xlink:href="#DejaVuSans-51"/>
     <use x="935.839844" xlink:href="#DejaVuSans-56"/>
     <use x="999.462891" xlink:href="#DejaVuSans-53"/>
     <use x="1063.085938" xlink:href="#DejaVuSans-56"/>
     <use x="1126.708984" xlink:href="#DejaVuSans-49"/>
     <use x="1190.332031" xlink:href="#DejaVuSans-53"/>
     <use x="1253.955078" xlink:href="#DejaVuSans-53"/>
     <use x="1317.578125" xlink:href="#DejaVuSans-55"/>
     <use x="1381.201172" xlink:href="#DejaVuSans-52"/>
     <use x="1444.824219" xlink:href="#DejaVuSans-55"/>
    </g>
   </g>
   <g id="legend_1">
    <g id="patch_7">
     <path d="M 396.27476 55.26274 
L 450.79976 55.26274 
Q 452.79976 55.26274 452.79976 53.26274 
L 452.79976 24.90649 
Q 452.79976 22.90649 450.79976 22.90649 
L 396.27476 22.90649 
Q 394.27476 22.90649 394.27476 24.90649 
L 394.27476 53.26274 
Q 394.27476 55.26274 396.27476 55.26274 
z
" style="fill:#ffffff;opacity:0.8;stroke:#cccccc;stroke-linejoin:miter;"/>
    </g>
    <g id="line2d_16"/>
    <g id="line2d_17">
     <g>
      <use style="fill:#1f77b4;stroke:#1f77b4;" x="408.27476" xlink:href="#me90aa28c31" y="31.004927"/>
     </g>
    </g>
    <g id="text_15">
     <!-- data -->
     <defs>
      <path d="M 45.40625 46.390625 
L 45.40625 75.984375 
L 54.390625 75.984375 
L 54.390625 0 
L 45.40625 0 
L 45.40625 8.203125 
Q 42.578125 3.328125 38.25 0.953125 
Q 33.9375 -1.421875 27.875 -1.421875 
Q 17.96875 -1.421875 11.734375 6.484375 
Q 5.515625 14.40625 5.515625 27.296875 
Q 5.515625 40.1875 11.734375 48.09375 
Q 17.96875 56 27.875 56 
Q 33.9375 56 38.25 53.625 
Q 42.578125 51.265625 45.40625 46.390625 
z
M 14.796875 27.296875 
Q 14.796875 17.390625 18.875 11.75 
Q 22.953125 6.109375 30.078125 6.109375 
Q 37.203125 6.109375 41.296875 11.75 
Q 45.40625 17.390625 45.40625 27.296875 
Q 45.40625 37.203125 41.296875 42.84375 
Q 37.203125 48.484375 30.078125 48.484375 
Q 22.953125 48.484375 18.875 42.84375 
Q 14.796875 37.203125 14.796875 27.296875 
z
" id="DejaVuSans-100"/>
     </defs>
     <g transform="translate(426.27476 34.504927)scale(0.1 -0.1)">
      <use xlink:href="#DejaVuSans-100"/>
      <use x="63.476562" xlink:href="#DejaVuSans-97"/>
      <use x="124.755859" xlink:href="#DejaVuSans-116"/>
      <use x="163.964844" xlink:href="#DejaVuSans-97"/>
     </g>
    </g>
    <g id="line2d_18">
     <path d="M 398.27476 45.683052 
L 418.27476 45.683052 
" style="fill:none;stroke:#ff7f0e;stroke-dasharray:5.55,2.4;stroke-dashoffset:0;stroke-width:1.5;"/>
    </g>
    <g id="line2d_19"/>
    <g id="text_16">
     <!-- cs -->
     <defs>
      <path d="M 48.78125 52.59375 
L 48.78125 44.1875 
Q 44.96875 46.296875 41.140625 47.34375 
Q 37.3125 48.390625 33.40625 48.390625 
Q 24.65625 48.390625 19.8125 42.84375 
Q 14.984375 37.3125 14.984375 27.296875 
Q 14.984375 17.28125 19.8125 11.734375 
Q 24.65625 6.203125 33.40625 6.203125 
Q 37.3125 6.203125 41.140625 7.25 
Q 44.96875 8.296875 48.78125 10.40625 
L 48.78125 2.09375 
Q 45.015625 0.34375 40.984375 -0.53125 
Q 36.96875 -1.421875 32.421875 -1.421875 
Q 20.0625 -1.421875 12.78125 6.34375 
Q 5.515625 14.109375 5.515625 27.296875 
Q 5.515625 40.671875 12.859375 48.328125 
Q 20.21875 56 33.015625 56 
Q 37.15625 56 41.109375 55.140625 
Q 45.0625 54.296875 48.78125 52.59375 
z
" id="DejaVuSans-99"/>
      <path d="M 44.28125 53.078125 
L 44.28125 44.578125 
Q 40.484375 46.53125 36.375 47.5 
Q 32.28125 48.484375 27.875 48.484375 
Q 21.1875 48.484375 17.84375 46.4375 
Q 14.5 44.390625 14.5 40.28125 
Q 14.5 37.15625 16.890625 35.375 
Q 19.28125 33.59375 26.515625 31.984375 
L 29.59375 31.296875 
Q 39.15625 29.25 43.1875 25.515625 
Q 47.21875 21.78125 47.21875 15.09375 
Q 47.21875 7.46875 41.1875 3.015625 
Q 35.15625 -1.421875 24.609375 -1.421875 
Q 20.21875 -1.421875 15.453125 -0.5625 
Q 10.6875 0.296875 5.421875 2 
L 5.421875 11.28125 
Q 10.40625 8.6875 15.234375 7.390625 
Q 20.0625 6.109375 24.8125 6.109375 
Q 31.15625 6.109375 34.5625 8.28125 
Q 37.984375 10.453125 37.984375 14.40625 
Q 37.984375 18.0625 35.515625 20.015625 
Q 33.0625 21.96875 24.703125 23.78125 
L 21.578125 24.515625 
Q 13.234375 26.265625 9.515625 29.90625 
Q 5.8125 33.546875 5.8125 39.890625 
Q 5.8125 47.609375 11.28125 51.796875 
Q 16.75 56 26.8125 56 
Q 31.78125 56 36.171875 55.265625 
Q 40.578125 54.546875 44.28125 53.078125 
z
" id="DejaVuSans-115"/>
     </defs>
     <g transform="translate(426.27476 49.183052)scale(0.1 -0.1)">
      <use xlink:href="#DejaVuSans-99"/>
      <use x="54.980469" xlink:href="#DejaVuSans-115"/>
     </g>
    </g>
   </g>
  </g>
 </g>
 <defs>
  <clipPath id="p2d2215aef7">
   <rect height="308.015145" width="428.71202" x="29.08774" y="17.90649"/>
  </clipPath>
 </defs>
</svg>
