<?xml version="1.0" encoding="utf-8" standalone="no"?>
<!DOCTYPE svg PUBLIC "-//W3C//DTD SVG 1.1//EN"
  "http://www.w3.org/Graphics/SVG/1.1/DTD/svg11.dtd">
<!-- Created with matplotlib (https://matplotlib.org/) -->
<svg height="345.6pt" version="1.1" viewBox="0 0 460.8 345.6" width="460.8pt" xmlns="http://www.w3.org/2000/svg" xmlns:xlink="http://www.w3.org/1999/xlink">
 <defs>
  <style type="text/css">
*{stroke-linecap:butt;stroke-linejoin:round;}
  </style>
 </defs>
 <g id="figure_1">
  <g id="patch_1">
   <path d="M 0 345.6 
L 460.8 345.6 
L 460.8 0 
L 0 0 
z
" style="fill:#ffffff;"/>
  </g>
  <g id="axes_1">
   <g id="patch_2">
    <path d="M 29.08774 325.921635 
L 457.79976 325.921635 
L 457.79976 17.90649 
L 29.08774 17.90649 
z
" style="fill:#ffffff;"/>
   </g>
   <g id="matplotlib.axis_1">
    <g id="xtick_1">
     <g id="line2d_1">
      <defs>
       <path d="M 0 0 
L 0 3.5 
" id="mccc6ad1696" style="stroke:#000000;stroke-width:0.8;"/>
      </defs>
      <g>
       <use style="stroke:#000000;stroke-width:0.8;" x="93.341876" xlink:href="#mccc6ad1696" y="325.921635"/>
      </g>
     </g>
     <g id="text_1">
      <!-- −2 -->
      <defs>
       <path d="M 10.59375 35.5 
L 73.1875 35.5 
L 73.1875 27.203125 
L 10.59375 27.203125 
z
" id="DejaVuSans-8722"/>
       <path d="M 19.1875 8.296875 
L 53.609375 8.296875 
L 53.609375 0 
L 7.328125 0 
L 7.328125 8.296875 
Q 12.9375 14.109375 22.625 23.890625 
Q 32.328125 33.6875 34.8125 36.53125 
Q 39.546875 41.84375 41.421875 45.53125 
Q 43.3125 49.21875 43.3125 52.78125 
Q 43.3125 58.59375 39.234375 62.25 
Q 35.15625 65.921875 28.609375 65.921875 
Q 23.96875 65.921875 18.8125 64.3125 
Q 13.671875 62.703125 7.8125 59.421875 
L 7.8125 69.390625 
Q 13.765625 71.78125 18.9375 73 
Q 24.125 74.21875 28.421875 74.21875 
Q 39.75 74.21875 46.484375 68.546875 
Q 53.21875 62.890625 53.21875 53.421875 
Q 53.21875 48.921875 51.53125 44.890625 
Q 49.859375 40.875 45.40625 35.40625 
Q 44.1875 33.984375 37.640625 27.21875 
Q 31.109375 20.453125 19.1875 8.296875 
z
" id="DejaVuSans-50"/>
      </defs>
      <g transform="translate(85.970782 340.520072)scale(0.1 -0.1)">
       <use xlink:href="#DejaVuSans-8722"/>
       <use x="83.789062" xlink:href="#DejaVuSans-50"/>
      </g>
     </g>
    </g>
    <g id="xtick_2">
     <g id="line2d_2">
      <g>
       <use style="stroke:#000000;stroke-width:0.8;" x="177.609595" xlink:href="#mccc6ad1696" y="325.921635"/>
      </g>
     </g>
     <g id="text_2">
      <!-- −1 -->
      <defs>
       <path d="M 12.40625 8.296875 
L 28.515625 8.296875 
L 28.515625 63.921875 
L 10.984375 60.40625 
L 10.984375 69.390625 
L 28.421875 72.90625 
L 38.28125 72.90625 
L 38.28125 8.296875 
L 54.390625 8.296875 
L 54.390625 0 
L 12.40625 0 
z
" id="DejaVuSans-49"/>
      </defs>
      <g transform="translate(170.238501 340.520072)scale(0.1 -0.1)">
       <use xlink:href="#DejaVuSans-8722"/>
       <use x="83.789062" xlink:href="#DejaVuSans-49"/>
      </g>
     </g>
    </g>
    <g id="xtick_3">
     <g id="line2d_3">
      <g>
       <use style="stroke:#000000;stroke-width:0.8;" x="261.877314" xlink:href="#mccc6ad1696" y="325.921635"/>
      </g>
     </g>
     <g id="text_3">
      <!-- 0 -->
      <defs>
       <path d="M 31.78125 66.40625 
Q 24.171875 66.40625 20.328125 58.90625 
Q 16.5 51.421875 16.5 36.375 
Q 16.5 21.390625 20.328125 13.890625 
Q 24.171875 6.390625 31.78125 6.390625 
Q 39.453125 6.390625 43.28125 13.890625 
Q 47.125 21.390625 47.125 36.375 
Q 47.125 51.421875 43.28125 58.90625 
Q 39.453125 66.40625 31.78125 66.40625 
z
M 31.78125 74.21875 
Q 44.046875 74.21875 50.515625 64.515625 
Q 56.984375 54.828125 56.984375 36.375 
Q 56.984375 17.96875 50.515625 8.265625 
Q 44.046875 -1.421875 31.78125 -1.421875 
Q 19.53125 -1.421875 13.0625 8.265625 
Q 6.59375 17.96875 6.59375 36.375 
Q 6.59375 54.828125 13.0625 64.515625 
Q 19.53125 74.21875 31.78125 74.21875 
z
" id="DejaVuSans-48"/>
      </defs>
      <g transform="translate(258.696064 340.520072)scale(0.1 -0.1)">
       <use xlink:href="#DejaVuSans-48"/>
      </g>
     </g>
    </g>
    <g id="xtick_4">
     <g id="line2d_4">
      <g>
       <use style="stroke:#000000;stroke-width:0.8;" x="346.145032" xlink:href="#mccc6ad1696" y="325.921635"/>
      </g>
     </g>
     <g id="text_4">
      <!-- 1 -->
      <g transform="translate(342.963782 340.520072)scale(0.1 -0.1)">
       <use xlink:href="#DejaVuSans-49"/>
      </g>
     </g>
    </g>
    <g id="xtick_5">
     <g id="line2d_5">
      <g>
       <use style="stroke:#000000;stroke-width:0.8;" x="430.412751" xlink:href="#mccc6ad1696" y="325.921635"/>
      </g>
     </g>
     <g id="text_5">
      <!-- 2 -->
      <g transform="translate(427.231501 340.520072)scale(0.1 -0.1)">
       <use xlink:href="#DejaVuSans-50"/>
      </g>
     </g>
    </g>
   </g>
   <g id="matplotlib.axis_2">
    <g id="ytick_1">
     <g id="line2d_6">
      <defs>
       <path d="M 0 0 
L -3.5 0 
" id="mb8bbbf907c" style="stroke:#000000;stroke-width:0.8;"/>
      </defs>
      <g>
       <use style="stroke:#000000;stroke-width:0.8;" x="29.08774" xlink:href="#mb8bbbf907c" y="311.920947"/>
      </g>
     </g>
     <g id="text_6">
      <!-- 0 -->
      <g transform="translate(15.72524 315.720165)scale(0.1 -0.1)">
       <use xlink:href="#DejaVuSans-48"/>
      </g>
     </g>
    </g>
    <g id="ytick_2">
     <g id="line2d_7">
      <g>
       <use style="stroke:#000000;stroke-width:0.8;" x="29.08774" xlink:href="#mb8bbbf907c" y="269.162016"/>
      </g>
     </g>
     <g id="text_7">
      <!-- 50 -->
      <defs>
       <path d="M 10.796875 72.90625 
L 49.515625 72.90625 
L 49.515625 64.59375 
L 19.828125 64.59375 
L 19.828125 46.734375 
Q 21.96875 47.46875 24.109375 47.828125 
Q 26.265625 48.1875 28.421875 48.1875 
Q 40.625 48.1875 47.75 41.5 
Q 54.890625 34.8125 54.890625 23.390625 
Q 54.890625 11.625 47.5625 5.09375 
Q 40.234375 -1.421875 26.90625 -1.421875 
Q 22.3125 -1.421875 17.546875 -0.640625 
Q 12.796875 0.140625 7.71875 1.703125 
L 7.71875 11.625 
Q 12.109375 9.234375 16.796875 8.0625 
Q 21.484375 6.890625 26.703125 6.890625 
Q 35.15625 6.890625 40.078125 11.328125 
Q 45.015625 15.765625 45.015625 23.390625 
Q 45.015625 31 40.078125 35.4375 
Q 35.15625 39.890625 26.703125 39.890625 
Q 22.75 39.890625 18.8125 39.015625 
Q 14.890625 38.140625 10.796875 36.28125 
z
" id="DejaVuSans-53"/>
      </defs>
      <g transform="translate(9.36274 272.961234)scale(0.1 -0.1)">
       <use xlink:href="#DejaVuSans-53"/>
       <use x="63.623047" xlink:href="#DejaVuSans-48"/>
      </g>
     </g>
    </g>
    <g id="ytick_3">
     <g id="line2d_8">
      <g>
       <use style="stroke:#000000;stroke-width:0.8;" x="29.08774" xlink:href="#mb8bbbf907c" y="226.403085"/>
      </g>
     </g>
     <g id="text_8">
      <!-- 100 -->
      <g transform="translate(3.00024 230.202303)scale(0.1 -0.1)">
       <use xlink:href="#DejaVuSans-49"/>
       <use x="63.623047" xlink:href="#DejaVuSans-48"/>
       <use x="127.246094" xlink:href="#DejaVuSans-48"/>
      </g>
     </g>
    </g>
    <g id="ytick_4">
     <g id="line2d_9">
      <g>
       <use style="stroke:#000000;stroke-width:0.8;" x="29.08774" xlink:href="#mb8bbbf907c" y="183.644154"/>
      </g>
     </g>
     <g id="text_9">
      <!-- 150 -->
      <g transform="translate(3.00024 187.443372)scale(0.1 -0.1)">
       <use xlink:href="#DejaVuSans-49"/>
       <use x="63.623047" xlink:href="#DejaVuSans-53"/>
       <use x="127.246094" xlink:href="#DejaVuSans-48"/>
      </g>
     </g>
    </g>
    <g id="ytick_5">
     <g id="line2d_10">
      <g>
       <use style="stroke:#000000;stroke-width:0.8;" x="29.08774" xlink:href="#mb8bbbf907c" y="140.885223"/>
      </g>
     </g>
     <g id="text_10">
      <!-- 200 -->
      <g transform="translate(3.00024 144.684441)scale(0.1 -0.1)">
       <use xlink:href="#DejaVuSans-50"/>
       <use x="63.623047" xlink:href="#DejaVuSans-48"/>
       <use x="127.246094" xlink:href="#DejaVuSans-48"/>
      </g>
     </g>
    </g>
    <g id="ytick_6">
     <g id="line2d_11">
      <g>
       <use style="stroke:#000000;stroke-width:0.8;" x="29.08774" xlink:href="#mb8bbbf907c" y="98.126292"/>
      </g>
     </g>
     <g id="text_11">
      <!-- 250 -->
      <g transform="translate(3.00024 101.925511)scale(0.1 -0.1)">
       <use xlink:href="#DejaVuSans-50"/>
       <use x="63.623047" xlink:href="#DejaVuSans-53"/>
       <use x="127.246094" xlink:href="#DejaVuSans-48"/>
      </g>
     </g>
    </g>
    <g id="ytick_7">
     <g id="line2d_12">
      <g>
       <use style="stroke:#000000;stroke-width:0.8;" x="29.08774" xlink:href="#mb8bbbf907c" y="55.367361"/>
      </g>
     </g>
     <g id="text_12">
      <!-- 300 -->
      <defs>
       <path d="M 40.578125 39.3125 
Q 47.65625 37.796875 51.625 33 
Q 55.609375 28.21875 55.609375 21.1875 
Q 55.609375 10.40625 48.1875 4.484375 
Q 40.765625 -1.421875 27.09375 -1.421875 
Q 22.515625 -1.421875 17.65625 -0.515625 
Q 12.796875 0.390625 7.625 2.203125 
L 7.625 11.71875 
Q 11.71875 9.328125 16.59375 8.109375 
Q 21.484375 6.890625 26.8125 6.890625 
Q 36.078125 6.890625 40.9375 10.546875 
Q 45.796875 14.203125 45.796875 21.1875 
Q 45.796875 27.640625 41.28125 31.265625 
Q 36.765625 34.90625 28.71875 34.90625 
L 20.21875 34.90625 
L 20.21875 43.015625 
L 29.109375 43.015625 
Q 36.375 43.015625 40.234375 45.921875 
Q 44.09375 48.828125 44.09375 54.296875 
Q 44.09375 59.90625 40.109375 62.90625 
Q 36.140625 65.921875 28.71875 65.921875 
Q 24.65625 65.921875 20.015625 65.03125 
Q 15.375 64.15625 9.8125 62.3125 
L 9.8125 71.09375 
Q 15.4375 72.65625 20.34375 73.4375 
Q 25.25 74.21875 29.59375 74.21875 
Q 40.828125 74.21875 47.359375 69.109375 
Q 53.90625 64.015625 53.90625 55.328125 
Q 53.90625 49.265625 50.4375 45.09375 
Q 46.96875 40.921875 40.578125 39.3125 
z
" id="DejaVuSans-51"/>
      </defs>
      <g transform="translate(3.00024 59.16658)scale(0.1 -0.1)">
       <use xlink:href="#DejaVuSans-51"/>
       <use x="63.623047" xlink:href="#DejaVuSans-48"/>
       <use x="127.246094" xlink:href="#DejaVuSans-48"/>
      </g>
     </g>
    </g>
   </g>
   <g id="line2d_13">
    <defs>
     <path d="M 0 3 
C 0.795609 3 1.55874 2.683901 2.12132 2.12132 
C 2.683901 1.55874 3 0.795609 3 0 
C 3 -0.795609 2.683901 -1.55874 2.12132 -2.12132 
C 1.55874 -2.683901 0.795609 -3 0 -3 
C -0.795609 -3 -1.55874 -2.683901 -2.12132 -2.12132 
C -2.683901 -1.55874 -3 -0.795609 -3 0 
C -3 0.795609 -2.683901 1.55874 -2.12132 2.12132 
C -1.55874 2.683901 -0.795609 3 0 3 
z
" id="m89b7b671fb" style="stroke:#1f77b4;"/>
    </defs>
    <g clip-path="url(#p948ba8d895)">
     <use style="fill:#1f77b4;stroke:#1f77b4;" x="135.475735" xlink:href="#m89b7b671fb" y="172.526832"/>
     <use style="fill:#1f77b4;stroke:#1f77b4;" x="219.743454" xlink:href="#m89b7b671fb" y="311.920947"/>
     <use style="fill:#1f77b4;stroke:#1f77b4;" x="246.077116" xlink:href="#m89b7b671fb" y="33.132717"/>
     <use style="fill:#1f77b4;stroke:#1f77b4;" x="293.477708" xlink:href="#m89b7b671fb" y="311.920947"/>
     <use style="fill:#1f77b4;stroke:#1f77b4;" x="272.410778" xlink:href="#m89b7b671fb" y="33.132717"/>
     <use style="fill:#1f77b4;stroke:#1f77b4;" x="169.709496" xlink:href="#m89b7b671fb" y="311.920947"/>
     <use style="fill:#1f77b4;stroke:#1f77b4;" x="164.442764" xlink:href="#m89b7b671fb" y="311.920947"/>
     <use style="fill:#1f77b4;stroke:#1f77b4;" x="317.178004" xlink:href="#m89b7b671fb" y="311.920947"/>
     <use style="fill:#1f77b4;stroke:#1f77b4;" x="319.81137" xlink:href="#m89b7b671fb" y="311.920947"/>
     <use style="fill:#1f77b4;stroke:#1f77b4;" x="193.409792" xlink:href="#m89b7b671fb" y="311.920947"/>
     <use style="fill:#1f77b4;stroke:#1f77b4;" x="64.374847" xlink:href="#m89b7b671fb" y="239.230764"/>
     <use style="fill:#1f77b4;stroke:#1f77b4;" x="114.408805" xlink:href="#m89b7b671fb" y="311.920947"/>
     <use style="fill:#1f77b4;stroke:#1f77b4;" x="298.744441" xlink:href="#m89b7b671fb" y="311.920947"/>
     <use style="fill:#1f77b4;stroke:#1f77b4;" x="230.276919" xlink:href="#m89b7b671fb" y="172.526832"/>
     <use style="fill:#1f77b4;stroke:#1f77b4;" x="230.276919" xlink:href="#m89b7b671fb" y="109.243614"/>
     <use style="fill:#1f77b4;stroke:#1f77b4;" x="269.777412" xlink:href="#m89b7b671fb" y="214.430584"/>
     <use style="fill:#1f77b4;stroke:#1f77b4;" x="138.109101" xlink:href="#m89b7b671fb" y="311.920947"/>
     <use style="fill:#1f77b4;stroke:#1f77b4;" x="190.776426" xlink:href="#m89b7b671fb" y="33.132717"/>
     <use style="fill:#1f77b4;stroke:#1f77b4;" x="190.776426" xlink:href="#m89b7b671fb" y="33.132717"/>
     <use style="fill:#1f77b4;stroke:#1f77b4;" x="117.042172" xlink:href="#m89b7b671fb" y="311.920947"/>
     <use style="fill:#1f77b4;stroke:#1f77b4;" x="169.709496" xlink:href="#m89b7b671fb" y="239.230764"/>
     <use style="fill:#1f77b4;stroke:#1f77b4;" x="61.741481" xlink:href="#m89b7b671fb" y="311.920947"/>
     <use style="fill:#1f77b4;stroke:#1f77b4;" x="193.409792" xlink:href="#m89b7b671fb" y="311.920947"/>
     <use style="fill:#1f77b4;stroke:#1f77b4;" x="174.976228" xlink:href="#m89b7b671fb" y="311.920947"/>
     <use style="fill:#1f77b4;stroke:#1f77b4;" x="98.608608" xlink:href="#m89b7b671fb" y="311.920947"/>
     <use style="fill:#1f77b4;stroke:#1f77b4;" x="146.0092" xlink:href="#m89b7b671fb" y="311.920947"/>
     <use style="fill:#1f77b4;stroke:#1f77b4;" x="256.610581" xlink:href="#m89b7b671fb" y="311.920947"/>
     <use style="fill:#1f77b4;stroke:#1f77b4;" x="122.308904" xlink:href="#m89b7b671fb" y="33.132717"/>
     <use style="fill:#1f77b4;stroke:#1f77b4;" x="48.57465" xlink:href="#m89b7b671fb" y="311.920947"/>
     <use style="fill:#1f77b4;stroke:#1f77b4;" x="259.243947" xlink:href="#m89b7b671fb" y="311.920947"/>
     <use style="fill:#1f77b4;stroke:#1f77b4;" x="311.911272" xlink:href="#m89b7b671fb" y="311.920947"/>
     <use style="fill:#1f77b4;stroke:#1f77b4;" x="225.010186" xlink:href="#m89b7b671fb" y="311.920947"/>
     <use style="fill:#1f77b4;stroke:#1f77b4;" x="282.944243" xlink:href="#m89b7b671fb" y="234.099692"/>
     <use style="fill:#1f77b4;stroke:#1f77b4;" x="48.57465" xlink:href="#m89b7b671fb" y="311.920947"/>
     <use style="fill:#1f77b4;stroke:#1f77b4;" x="98.608608" xlink:href="#m89b7b671fb" y="311.920947"/>
     <use style="fill:#1f77b4;stroke:#1f77b4;" x="238.177018" xlink:href="#m89b7b671fb" y="311.920947"/>
     <use style="fill:#1f77b4;stroke:#1f77b4;" x="209.209989" xlink:href="#m89b7b671fb" y="205.023619"/>
     <use style="fill:#1f77b4;stroke:#1f77b4;" x="282.944243" xlink:href="#m89b7b671fb" y="172.526832"/>
     <use style="fill:#1f77b4;stroke:#1f77b4;" x="77.541678" xlink:href="#m89b7b671fb" y="258.899872"/>
     <use style="fill:#1f77b4;stroke:#1f77b4;" x="356.678497" xlink:href="#m89b7b671fb" y="211.865048"/>
     <use style="fill:#1f77b4;stroke:#1f77b4;" x="277.677511" xlink:href="#m89b7b671fb" y="311.920947"/>
     <use style="fill:#1f77b4;stroke:#1f77b4;" x="290.844342" xlink:href="#m89b7b671fb" y="311.920947"/>
     <use style="fill:#1f77b4;stroke:#1f77b4;" x="438.31285" xlink:href="#m89b7b671fb" y="33.132717"/>
     <use style="fill:#1f77b4;stroke:#1f77b4;" x="311.911272" xlink:href="#m89b7b671fb" y="311.920947"/>
     <use style="fill:#1f77b4;stroke:#1f77b4;" x="248.710482" xlink:href="#m89b7b671fb" y="311.920947"/>
     <use style="fill:#1f77b4;stroke:#1f77b4;" x="206.576623" xlink:href="#m89b7b671fb" y="205.878798"/>
     <use style="fill:#1f77b4;stroke:#1f77b4;" x="106.508707" xlink:href="#m89b7b671fb" y="311.920947"/>
     <use style="fill:#1f77b4;stroke:#1f77b4;" x="209.209989" xlink:href="#m89b7b671fb" y="172.526832"/>
     <use style="fill:#1f77b4;stroke:#1f77b4;" x="319.81137" xlink:href="#m89b7b671fb" y="311.920947"/>
     <use style="fill:#1f77b4;stroke:#1f77b4;" x="188.143059" xlink:href="#m89b7b671fb" y="311.920947"/>
     <use style="fill:#1f77b4;stroke:#1f77b4;" x="124.94227" xlink:href="#m89b7b671fb" y="311.920947"/>
     <use style="fill:#1f77b4;stroke:#1f77b4;" x="372.478695" xlink:href="#m89b7b671fb" y="311.920947"/>
     <use style="fill:#1f77b4;stroke:#1f77b4;" x="109.142073" xlink:href="#m89b7b671fb" y="311.920947"/>
     <use style="fill:#1f77b4;stroke:#1f77b4;" x="325.078103" xlink:href="#m89b7b671fb" y="172.526832"/>
     <use style="fill:#1f77b4;stroke:#1f77b4;" x="301.377807" xlink:href="#m89b7b671fb" y="311.920947"/>
     <use style="fill:#1f77b4;stroke:#1f77b4;" x="148.642566" xlink:href="#m89b7b671fb" y="311.920947"/>
     <use style="fill:#1f77b4;stroke:#1f77b4;" x="209.209989" xlink:href="#m89b7b671fb" y="214.430584"/>
     <use style="fill:#1f77b4;stroke:#1f77b4;" x="288.210976" xlink:href="#m89b7b671fb" y="311.920947"/>
     <use style="fill:#1f77b4;stroke:#1f77b4;" x="98.608608" xlink:href="#m89b7b671fb" y="215.285763"/>
     <use style="fill:#1f77b4;stroke:#1f77b4;" x="248.710482" xlink:href="#m89b7b671fb" y="214.430584"/>
    </g>
   </g>
   <g id="line2d_14">
    <path clip-path="url(#p948ba8d895)" d="M 261.877314 291.125121 
L 270.354697 213.019386 
L 273.003879 31.907178 
L 274.240164 96.171585 
L 278.302243 309.314569 
L 283.423996 236.149686 
L 283.600608 172.082679 
L 288.898972 310.255028 
L 291.548154 309.516408 
L 294.373949 310.916324 
L 300.555374 310.651778 
L 302.498108 310.517847 
L 312.565 311.53379 
L 312.741612 309.748846 
L 318.923038 311.022504 
L 320.512547 311.203883 
L 320.865771 303.618758 
L 325.810911 172.241899 
L 325.987523 170.596977 
L 357.424486 209.495979 
L 357.77771 211.393467 
L 373.319579 310.104871 
L 438.31285 35.313067 
L 438.31285 35.313067 
" style="fill:none;stroke:#ff7f0e;stroke-dasharray:5.55,2.4;stroke-dashoffset:0;stroke-width:1.5;"/>
   </g>
   <g id="patch_3">
    <path d="M 29.08774 325.921635 
L 29.08774 17.90649 
" style="fill:none;stroke:#000000;stroke-linecap:square;stroke-linejoin:miter;stroke-width:0.8;"/>
   </g>
   <g id="patch_4">
    <path d="M 457.79976 325.921635 
L 457.79976 17.90649 
" style="fill:none;stroke:#000000;stroke-linecap:square;stroke-linejoin:miter;stroke-width:0.8;"/>
   </g>
   <g id="patch_5">
    <path d="M 29.08774 325.921635 
L 457.79976 325.921635 
" style="fill:none;stroke:#000000;stroke-linecap:square;stroke-linejoin:miter;stroke-width:0.8;"/>
   </g>
   <g id="patch_6">
    <path d="M 29.08774 17.90649 
L 457.79976 17.90649 
" style="fill:none;stroke:#000000;stroke-linecap:square;stroke-linejoin:miter;stroke-width:0.8;"/>
   </g>
   <g id="text_13">
    <!-- tau_m=20.0 -->
    <defs>
     <path d="M 18.3125 70.21875 
L 18.3125 54.6875 
L 36.8125 54.6875 
L 36.8125 47.703125 
L 18.3125 47.703125 
L 18.3125 18.015625 
Q 18.3125 11.328125 20.140625 9.421875 
Q 21.96875 7.515625 27.59375 7.515625 
L 36.8125 7.515625 
L 36.8125 0 
L 27.59375 0 
Q 17.1875 0 13.234375 3.875 
Q 9.28125 7.765625 9.28125 18.015625 
L 9.28125 47.703125 
L 2.6875 47.703125 
L 2.6875 54.6875 
L 9.28125 54.6875 
L 9.28125 70.21875 
z
" id="DejaVuSans-116"/>
     <path d="M 34.28125 27.484375 
Q 23.390625 27.484375 19.1875 25 
Q 14.984375 22.515625 14.984375 16.5 
Q 14.984375 11.71875 18.140625 8.90625 
Q 21.296875 6.109375 26.703125 6.109375 
Q 34.1875 6.109375 38.703125 11.40625 
Q 43.21875 16.703125 43.21875 25.484375 
L 43.21875 27.484375 
z
M 52.203125 31.203125 
L 52.203125 0 
L 43.21875 0 
L 43.21875 8.296875 
Q 40.140625 3.328125 35.546875 0.953125 
Q 30.953125 -1.421875 24.3125 -1.421875 
Q 15.921875 -1.421875 10.953125 3.296875 
Q 6 8.015625 6 15.921875 
Q 6 25.140625 12.171875 29.828125 
Q 18.359375 34.515625 30.609375 34.515625 
L 43.21875 34.515625 
L 43.21875 35.40625 
Q 43.21875 41.609375 39.140625 45 
Q 35.0625 48.390625 27.6875 48.390625 
Q 23 48.390625 18.546875 47.265625 
Q 14.109375 46.140625 10.015625 43.890625 
L 10.015625 52.203125 
Q 14.9375 54.109375 19.578125 55.046875 
Q 24.21875 56 28.609375 56 
Q 40.484375 56 46.34375 49.84375 
Q 52.203125 43.703125 52.203125 31.203125 
z
" id="DejaVuSans-97"/>
     <path d="M 8.5 21.578125 
L 8.5 54.6875 
L 17.484375 54.6875 
L 17.484375 21.921875 
Q 17.484375 14.15625 20.5 10.265625 
Q 23.53125 6.390625 29.59375 6.390625 
Q 36.859375 6.390625 41.078125 11.03125 
Q 45.3125 15.671875 45.3125 23.6875 
L 45.3125 54.6875 
L 54.296875 54.6875 
L 54.296875 0 
L 45.3125 0 
L 45.3125 8.40625 
Q 42.046875 3.421875 37.71875 1 
Q 33.40625 -1.421875 27.6875 -1.421875 
Q 18.265625 -1.421875 13.375 4.4375 
Q 8.5 10.296875 8.5 21.578125 
z
M 31.109375 56 
z
" id="DejaVuSans-117"/>
     <path d="M 50.984375 -16.609375 
L 50.984375 -23.578125 
L -0.984375 -23.578125 
L -0.984375 -16.609375 
z
" id="DejaVuSans-95"/>
     <path d="M 52 44.1875 
Q 55.375 50.25 60.0625 53.125 
Q 64.75 56 71.09375 56 
Q 79.640625 56 84.28125 50.015625 
Q 88.921875 44.046875 88.921875 33.015625 
L 88.921875 0 
L 79.890625 0 
L 79.890625 32.71875 
Q 79.890625 40.578125 77.09375 44.375 
Q 74.3125 48.1875 68.609375 48.1875 
Q 61.625 48.1875 57.5625 43.546875 
Q 53.515625 38.921875 53.515625 30.90625 
L 53.515625 0 
L 44.484375 0 
L 44.484375 32.71875 
Q 44.484375 40.625 41.703125 44.40625 
Q 38.921875 48.1875 33.109375 48.1875 
Q 26.21875 48.1875 22.15625 43.53125 
Q 18.109375 38.875 18.109375 30.90625 
L 18.109375 0 
L 9.078125 0 
L 9.078125 54.6875 
L 18.109375 54.6875 
L 18.109375 46.1875 
Q 21.1875 51.21875 25.484375 53.609375 
Q 29.78125 56 35.6875 56 
Q 41.65625 56 45.828125 52.96875 
Q 50 49.953125 52 44.1875 
z
" id="DejaVuSans-109"/>
     <path d="M 10.59375 45.40625 
L 73.1875 45.40625 
L 73.1875 37.203125 
L 10.59375 37.203125 
z
M 10.59375 25.484375 
L 73.1875 25.484375 
L 73.1875 17.1875 
L 10.59375 17.1875 
z
" id="DejaVuSans-61"/>
     <path d="M 10.6875 12.40625 
L 21 12.40625 
L 21 0 
L 10.6875 0 
z
" id="DejaVuSans-46"/>
    </defs>
    <g transform="translate(206.380625 11.90649)scale(0.12 -0.12)">
     <use xlink:href="#DejaVuSans-116"/>
     <use x="39.208984" xlink:href="#DejaVuSans-97"/>
     <use x="100.488281" xlink:href="#DejaVuSans-117"/>
     <use x="163.867188" xlink:href="#DejaVuSans-95"/>
     <use x="213.867188" xlink:href="#DejaVuSans-109"/>
     <use x="311.279297" xlink:href="#DejaVuSans-61"/>
     <use x="395.068359" xlink:href="#DejaVuSans-50"/>
     <use x="458.691406" xlink:href="#DejaVuSans-48"/>
     <use x="522.314453" xlink:href="#DejaVuSans-46"/>
     <use x="554.101562" xlink:href="#DejaVuSans-48"/>
    </g>
   </g>
   <g id="legend_1">
    <g id="patch_7">
     <path d="M 36.08774 55.26274 
L 90.61274 55.26274 
Q 92.61274 55.26274 92.61274 53.26274 
L 92.61274 24.90649 
Q 92.61274 22.90649 90.61274 22.90649 
L 36.08774 22.90649 
Q 34.08774 22.90649 34.08774 24.90649 
L 34.08774 53.26274 
Q 34.08774 55.26274 36.08774 55.26274 
z
" style="fill:#ffffff;opacity:0.8;stroke:#cccccc;stroke-linejoin:miter;"/>
    </g>
    <g id="line2d_15"/>
    <g id="line2d_16">
     <g>
      <use style="fill:#1f77b4;stroke:#1f77b4;" x="48.08774" xlink:href="#m89b7b671fb" y="31.004927"/>
     </g>
    </g>
    <g id="text_14">
     <!-- data -->
     <defs>
      <path d="M 45.40625 46.390625 
L 45.40625 75.984375 
L 54.390625 75.984375 
L 54.390625 0 
L 45.40625 0 
L 45.40625 8.203125 
Q 42.578125 3.328125 38.25 0.953125 
Q 33.9375 -1.421875 27.875 -1.421875 
Q 17.96875 -1.421875 11.734375 6.484375 
Q 5.515625 14.40625 5.515625 27.296875 
Q 5.515625 40.1875 11.734375 48.09375 
Q 17.96875 56 27.875 56 
Q 33.9375 56 38.25 53.625 
Q 42.578125 51.265625 45.40625 46.390625 
z
M 14.796875 27.296875 
Q 14.796875 17.390625 18.875 11.75 
Q 22.953125 6.109375 30.078125 6.109375 
Q 37.203125 6.109375 41.296875 11.75 
Q 45.40625 17.390625 45.40625 27.296875 
Q 45.40625 37.203125 41.296875 42.84375 
Q 37.203125 48.484375 30.078125 48.484375 
Q 22.953125 48.484375 18.875 42.84375 
Q 14.796875 37.203125 14.796875 27.296875 
z
" id="DejaVuSans-100"/>
     </defs>
     <g transform="translate(66.08774 34.504927)scale(0.1 -0.1)">
      <use xlink:href="#DejaVuSans-100"/>
      <use x="63.476562" xlink:href="#DejaVuSans-97"/>
      <use x="124.755859" xlink:href="#DejaVuSans-116"/>
      <use x="163.964844" xlink:href="#DejaVuSans-97"/>
     </g>
    </g>
    <g id="line2d_17">
     <path d="M 38.08774 45.683052 
L 58.08774 45.683052 
" style="fill:none;stroke:#ff7f0e;stroke-dasharray:5.55,2.4;stroke-dashoffset:0;stroke-width:1.5;"/>
    </g>
    <g id="line2d_18"/>
    <g id="text_15">
     <!-- cs -->
     <defs>
      <path d="M 48.78125 52.59375 
L 48.78125 44.1875 
Q 44.96875 46.296875 41.140625 47.34375 
Q 37.3125 48.390625 33.40625 48.390625 
Q 24.65625 48.390625 19.8125 42.84375 
Q 14.984375 37.3125 14.984375 27.296875 
Q 14.984375 17.28125 19.8125 11.734375 
Q 24.65625 6.203125 33.40625 6.203125 
Q 37.3125 6.203125 41.140625 7.25 
Q 44.96875 8.296875 48.78125 10.40625 
L 48.78125 2.09375 
Q 45.015625 0.34375 40.984375 -0.53125 
Q 36.96875 -1.421875 32.421875 -1.421875 
Q 20.0625 -1.421875 12.78125 6.34375 
Q 5.515625 14.109375 5.515625 27.296875 
Q 5.515625 40.671875 12.859375 48.328125 
Q 20.21875 56 33.015625 56 
Q 37.15625 56 41.109375 55.140625 
Q 45.0625 54.296875 48.78125 52.59375 
z
" id="DejaVuSans-99"/>
      <path d="M 44.28125 53.078125 
L 44.28125 44.578125 
Q 40.484375 46.53125 36.375 47.5 
Q 32.28125 48.484375 27.875 48.484375 
Q 21.1875 48.484375 17.84375 46.4375 
Q 14.5 44.390625 14.5 40.28125 
Q 14.5 37.15625 16.890625 35.375 
Q 19.28125 33.59375 26.515625 31.984375 
L 29.59375 31.296875 
Q 39.15625 29.25 43.1875 25.515625 
Q 47.21875 21.78125 47.21875 15.09375 
Q 47.21875 7.46875 41.1875 3.015625 
Q 35.15625 -1.421875 24.609375 -1.421875 
Q 20.21875 -1.421875 15.453125 -0.5625 
Q 10.6875 0.296875 5.421875 2 
L 5.421875 11.28125 
Q 10.40625 8.6875 15.234375 7.390625 
Q 20.0625 6.109375 24.8125 6.109375 
Q 31.15625 6.109375 34.5625 8.28125 
Q 37.984375 10.453125 37.984375 14.40625 
Q 37.984375 18.0625 35.515625 20.015625 
Q 33.0625 21.96875 24.703125 23.78125 
L 21.578125 24.515625 
Q 13.234375 26.265625 9.515625 29.90625 
Q 5.8125 33.546875 5.8125 39.890625 
Q 5.8125 47.609375 11.28125 51.796875 
Q 16.75 56 26.8125 56 
Q 31.78125 56 36.171875 55.265625 
Q 40.578125 54.546875 44.28125 53.078125 
z
" id="DejaVuSans-115"/>
     </defs>
     <g transform="translate(66.08774 49.183052)scale(0.1 -0.1)">
      <use xlink:href="#DejaVuSans-99"/>
      <use x="54.980469" xlink:href="#DejaVuSans-115"/>
     </g>
    </g>
   </g>
  </g>
 </g>
 <defs>
  <clipPath id="p948ba8d895">
   <rect height="308.015145" width="428.71202" x="29.08774" y="17.90649"/>
  </clipPath>
 </defs>
</svg>
