<?xml version="1.0" encoding="utf-8" standalone="no"?>
<!DOCTYPE svg PUBLIC "-//W3C//DTD SVG 1.1//EN"
  "http://www.w3.org/Graphics/SVG/1.1/DTD/svg11.dtd">
<!-- Created with matplotlib (https://matplotlib.org/) -->
<svg height="345.6pt" version="1.1" viewBox="0 0 460.8 345.6" width="460.8pt" xmlns="http://www.w3.org/2000/svg" xmlns:xlink="http://www.w3.org/1999/xlink">
 <defs>
  <style type="text/css">
*{stroke-linecap:butt;stroke-linejoin:round;}
  </style>
 </defs>
 <g id="figure_1">
  <g id="patch_1">
   <path d="M 0 345.6 
L 460.8 345.6 
L 460.8 0 
L 0 0 
z
" style="fill:#ffffff;"/>
  </g>
  <g id="axes_1">
   <g id="patch_2">
    <path d="M 50.192428 325.921635 
L 457.79976 325.921635 
L 457.79976 17.90649 
L 50.192428 17.90649 
z
" style="fill:#ffffff;"/>
   </g>
   <g id="matplotlib.axis_1">
    <g id="xtick_1">
     <g id="line2d_1">
      <defs>
       <path d="M 0 0 
L 0 3.5 
" id="mf4510f2b21" style="stroke:#000000;stroke-width:0.8;"/>
      </defs>
      <g>
       <use style="stroke:#000000;stroke-width:0.8;" x="70.591509" xlink:href="#mf4510f2b21" y="325.921635"/>
      </g>
     </g>
     <g id="text_1">
      <!-- −4 -->
      <defs>
       <path d="M 10.59375 35.5 
L 73.1875 35.5 
L 73.1875 27.203125 
L 10.59375 27.203125 
z
" id="DejaVuSans-8722"/>
       <path d="M 37.796875 64.3125 
L 12.890625 25.390625 
L 37.796875 25.390625 
z
M 35.203125 72.90625 
L 47.609375 72.90625 
L 47.609375 25.390625 
L 58.015625 25.390625 
L 58.015625 17.1875 
L 47.609375 17.1875 
L 47.609375 0 
L 37.796875 0 
L 37.796875 17.1875 
L 4.890625 17.1875 
L 4.890625 26.703125 
z
" id="DejaVuSans-52"/>
      </defs>
      <g transform="translate(63.220415 340.520072)scale(0.1 -0.1)">
       <use xlink:href="#DejaVuSans-8722"/>
       <use x="83.789062" xlink:href="#DejaVuSans-52"/>
      </g>
     </g>
    </g>
    <g id="xtick_2">
     <g id="line2d_2">
      <g>
       <use style="stroke:#000000;stroke-width:0.8;" x="130.47872" xlink:href="#mf4510f2b21" y="325.921635"/>
      </g>
     </g>
     <g id="text_2">
      <!-- −3 -->
      <defs>
       <path d="M 40.578125 39.3125 
Q 47.65625 37.796875 51.625 33 
Q 55.609375 28.21875 55.609375 21.1875 
Q 55.609375 10.40625 48.1875 4.484375 
Q 40.765625 -1.421875 27.09375 -1.421875 
Q 22.515625 -1.421875 17.65625 -0.515625 
Q 12.796875 0.390625 7.625 2.203125 
L 7.625 11.71875 
Q 11.71875 9.328125 16.59375 8.109375 
Q 21.484375 6.890625 26.8125 6.890625 
Q 36.078125 6.890625 40.9375 10.546875 
Q 45.796875 14.203125 45.796875 21.1875 
Q 45.796875 27.640625 41.28125 31.265625 
Q 36.765625 34.90625 28.71875 34.90625 
L 20.21875 34.90625 
L 20.21875 43.015625 
L 29.109375 43.015625 
Q 36.375 43.015625 40.234375 45.921875 
Q 44.09375 48.828125 44.09375 54.296875 
Q 44.09375 59.90625 40.109375 62.90625 
Q 36.140625 65.921875 28.71875 65.921875 
Q 24.65625 65.921875 20.015625 65.03125 
Q 15.375 64.15625 9.8125 62.3125 
L 9.8125 71.09375 
Q 15.4375 72.65625 20.34375 73.4375 
Q 25.25 74.21875 29.59375 74.21875 
Q 40.828125 74.21875 47.359375 69.109375 
Q 53.90625 64.015625 53.90625 55.328125 
Q 53.90625 49.265625 50.4375 45.09375 
Q 46.96875 40.921875 40.578125 39.3125 
z
" id="DejaVuSans-51"/>
      </defs>
      <g transform="translate(123.107627 340.520072)scale(0.1 -0.1)">
       <use xlink:href="#DejaVuSans-8722"/>
       <use x="83.789062" xlink:href="#DejaVuSans-51"/>
      </g>
     </g>
    </g>
    <g id="xtick_3">
     <g id="line2d_3">
      <g>
       <use style="stroke:#000000;stroke-width:0.8;" x="190.365932" xlink:href="#mf4510f2b21" y="325.921635"/>
      </g>
     </g>
     <g id="text_3">
      <!-- −2 -->
      <defs>
       <path d="M 19.1875 8.296875 
L 53.609375 8.296875 
L 53.609375 0 
L 7.328125 0 
L 7.328125 8.296875 
Q 12.9375 14.109375 22.625 23.890625 
Q 32.328125 33.6875 34.8125 36.53125 
Q 39.546875 41.84375 41.421875 45.53125 
Q 43.3125 49.21875 43.3125 52.78125 
Q 43.3125 58.59375 39.234375 62.25 
Q 35.15625 65.921875 28.609375 65.921875 
Q 23.96875 65.921875 18.8125 64.3125 
Q 13.671875 62.703125 7.8125 59.421875 
L 7.8125 69.390625 
Q 13.765625 71.78125 18.9375 73 
Q 24.125 74.21875 28.421875 74.21875 
Q 39.75 74.21875 46.484375 68.546875 
Q 53.21875 62.890625 53.21875 53.421875 
Q 53.21875 48.921875 51.53125 44.890625 
Q 49.859375 40.875 45.40625 35.40625 
Q 44.1875 33.984375 37.640625 27.21875 
Q 31.109375 20.453125 19.1875 8.296875 
z
" id="DejaVuSans-50"/>
      </defs>
      <g transform="translate(182.994838 340.520072)scale(0.1 -0.1)">
       <use xlink:href="#DejaVuSans-8722"/>
       <use x="83.789062" xlink:href="#DejaVuSans-50"/>
      </g>
     </g>
    </g>
    <g id="xtick_4">
     <g id="line2d_4">
      <g>
       <use style="stroke:#000000;stroke-width:0.8;" x="250.253143" xlink:href="#mf4510f2b21" y="325.921635"/>
      </g>
     </g>
     <g id="text_4">
      <!-- −1 -->
      <defs>
       <path d="M 12.40625 8.296875 
L 28.515625 8.296875 
L 28.515625 63.921875 
L 10.984375 60.40625 
L 10.984375 69.390625 
L 28.421875 72.90625 
L 38.28125 72.90625 
L 38.28125 8.296875 
L 54.390625 8.296875 
L 54.390625 0 
L 12.40625 0 
z
" id="DejaVuSans-49"/>
      </defs>
      <g transform="translate(242.882049 340.520072)scale(0.1 -0.1)">
       <use xlink:href="#DejaVuSans-8722"/>
       <use x="83.789062" xlink:href="#DejaVuSans-49"/>
      </g>
     </g>
    </g>
    <g id="xtick_5">
     <g id="line2d_5">
      <g>
       <use style="stroke:#000000;stroke-width:0.8;" x="310.140354" xlink:href="#mf4510f2b21" y="325.921635"/>
      </g>
     </g>
     <g id="text_5">
      <!-- 0 -->
      <defs>
       <path d="M 31.78125 66.40625 
Q 24.171875 66.40625 20.328125 58.90625 
Q 16.5 51.421875 16.5 36.375 
Q 16.5 21.390625 20.328125 13.890625 
Q 24.171875 6.390625 31.78125 6.390625 
Q 39.453125 6.390625 43.28125 13.890625 
Q 47.125 21.390625 47.125 36.375 
Q 47.125 51.421875 43.28125 58.90625 
Q 39.453125 66.40625 31.78125 66.40625 
z
M 31.78125 74.21875 
Q 44.046875 74.21875 50.515625 64.515625 
Q 56.984375 54.828125 56.984375 36.375 
Q 56.984375 17.96875 50.515625 8.265625 
Q 44.046875 -1.421875 31.78125 -1.421875 
Q 19.53125 -1.421875 13.0625 8.265625 
Q 6.59375 17.96875 6.59375 36.375 
Q 6.59375 54.828125 13.0625 64.515625 
Q 19.53125 74.21875 31.78125 74.21875 
z
" id="DejaVuSans-48"/>
      </defs>
      <g transform="translate(306.959104 340.520072)scale(0.1 -0.1)">
       <use xlink:href="#DejaVuSans-48"/>
      </g>
     </g>
    </g>
    <g id="xtick_6">
     <g id="line2d_6">
      <g>
       <use style="stroke:#000000;stroke-width:0.8;" x="370.027566" xlink:href="#mf4510f2b21" y="325.921635"/>
      </g>
     </g>
     <g id="text_6">
      <!-- 1 -->
      <g transform="translate(366.846316 340.520072)scale(0.1 -0.1)">
       <use xlink:href="#DejaVuSans-49"/>
      </g>
     </g>
    </g>
    <g id="xtick_7">
     <g id="line2d_7">
      <g>
       <use style="stroke:#000000;stroke-width:0.8;" x="429.914777" xlink:href="#mf4510f2b21" y="325.921635"/>
      </g>
     </g>
     <g id="text_7">
      <!-- 2 -->
      <g transform="translate(426.733527 340.520072)scale(0.1 -0.1)">
       <use xlink:href="#DejaVuSans-50"/>
      </g>
     </g>
    </g>
   </g>
   <g id="matplotlib.axis_2">
    <g id="ytick_1">
     <g id="line2d_8">
      <defs>
       <path d="M 0 0 
L -3.5 0 
" id="mb90e90fe03" style="stroke:#000000;stroke-width:0.8;"/>
      </defs>
      <g>
       <use style="stroke:#000000;stroke-width:0.8;" x="50.192428" xlink:href="#mb90e90fe03" y="295.142871"/>
      </g>
     </g>
     <g id="text_8">
      <!-- −80000 -->
      <defs>
       <path d="M 31.78125 34.625 
Q 24.75 34.625 20.71875 30.859375 
Q 16.703125 27.09375 16.703125 20.515625 
Q 16.703125 13.921875 20.71875 10.15625 
Q 24.75 6.390625 31.78125 6.390625 
Q 38.8125 6.390625 42.859375 10.171875 
Q 46.921875 13.96875 46.921875 20.515625 
Q 46.921875 27.09375 42.890625 30.859375 
Q 38.875 34.625 31.78125 34.625 
z
M 21.921875 38.8125 
Q 15.578125 40.375 12.03125 44.71875 
Q 8.5 49.078125 8.5 55.328125 
Q 8.5 64.0625 14.71875 69.140625 
Q 20.953125 74.21875 31.78125 74.21875 
Q 42.671875 74.21875 48.875 69.140625 
Q 55.078125 64.0625 55.078125 55.328125 
Q 55.078125 49.078125 51.53125 44.71875 
Q 48 40.375 41.703125 38.8125 
Q 48.828125 37.15625 52.796875 32.3125 
Q 56.78125 27.484375 56.78125 20.515625 
Q 56.78125 9.90625 50.3125 4.234375 
Q 43.84375 -1.421875 31.78125 -1.421875 
Q 19.734375 -1.421875 13.25 4.234375 
Q 6.78125 9.90625 6.78125 20.515625 
Q 6.78125 27.484375 10.78125 32.3125 
Q 14.796875 37.15625 21.921875 38.8125 
z
M 18.3125 54.390625 
Q 18.3125 48.734375 21.84375 45.5625 
Q 25.390625 42.390625 31.78125 42.390625 
Q 38.140625 42.390625 41.71875 45.5625 
Q 45.3125 48.734375 45.3125 54.390625 
Q 45.3125 60.0625 41.71875 63.234375 
Q 38.140625 66.40625 31.78125 66.40625 
Q 25.390625 66.40625 21.84375 63.234375 
Q 18.3125 60.0625 18.3125 54.390625 
z
" id="DejaVuSans-56"/>
      </defs>
      <g transform="translate(3.00024 298.94209)scale(0.1 -0.1)">
       <use xlink:href="#DejaVuSans-8722"/>
       <use x="83.789062" xlink:href="#DejaVuSans-56"/>
       <use x="147.412109" xlink:href="#DejaVuSans-48"/>
       <use x="211.035156" xlink:href="#DejaVuSans-48"/>
       <use x="274.658203" xlink:href="#DejaVuSans-48"/>
       <use x="338.28125" xlink:href="#DejaVuSans-48"/>
      </g>
     </g>
    </g>
    <g id="ytick_2">
     <g id="line2d_9">
      <g>
       <use style="stroke:#000000;stroke-width:0.8;" x="50.192428" xlink:href="#mb90e90fe03" y="255.742379"/>
      </g>
     </g>
     <g id="text_9">
      <!-- −60000 -->
      <defs>
       <path d="M 33.015625 40.375 
Q 26.375 40.375 22.484375 35.828125 
Q 18.609375 31.296875 18.609375 23.390625 
Q 18.609375 15.53125 22.484375 10.953125 
Q 26.375 6.390625 33.015625 6.390625 
Q 39.65625 6.390625 43.53125 10.953125 
Q 47.40625 15.53125 47.40625 23.390625 
Q 47.40625 31.296875 43.53125 35.828125 
Q 39.65625 40.375 33.015625 40.375 
z
M 52.59375 71.296875 
L 52.59375 62.3125 
Q 48.875 64.0625 45.09375 64.984375 
Q 41.3125 65.921875 37.59375 65.921875 
Q 27.828125 65.921875 22.671875 59.328125 
Q 17.53125 52.734375 16.796875 39.40625 
Q 19.671875 43.65625 24.015625 45.921875 
Q 28.375 48.1875 33.59375 48.1875 
Q 44.578125 48.1875 50.953125 41.515625 
Q 57.328125 34.859375 57.328125 23.390625 
Q 57.328125 12.15625 50.6875 5.359375 
Q 44.046875 -1.421875 33.015625 -1.421875 
Q 20.359375 -1.421875 13.671875 8.265625 
Q 6.984375 17.96875 6.984375 36.375 
Q 6.984375 53.65625 15.1875 63.9375 
Q 23.390625 74.21875 37.203125 74.21875 
Q 40.921875 74.21875 44.703125 73.484375 
Q 48.484375 72.75 52.59375 71.296875 
z
" id="DejaVuSans-54"/>
      </defs>
      <g transform="translate(3.00024 259.541598)scale(0.1 -0.1)">
       <use xlink:href="#DejaVuSans-8722"/>
       <use x="83.789062" xlink:href="#DejaVuSans-54"/>
       <use x="147.412109" xlink:href="#DejaVuSans-48"/>
       <use x="211.035156" xlink:href="#DejaVuSans-48"/>
       <use x="274.658203" xlink:href="#DejaVuSans-48"/>
       <use x="338.28125" xlink:href="#DejaVuSans-48"/>
      </g>
     </g>
    </g>
    <g id="ytick_3">
     <g id="line2d_10">
      <g>
       <use style="stroke:#000000;stroke-width:0.8;" x="50.192428" xlink:href="#mb90e90fe03" y="216.341887"/>
      </g>
     </g>
     <g id="text_10">
      <!-- −40000 -->
      <g transform="translate(3.00024 220.141106)scale(0.1 -0.1)">
       <use xlink:href="#DejaVuSans-8722"/>
       <use x="83.789062" xlink:href="#DejaVuSans-52"/>
       <use x="147.412109" xlink:href="#DejaVuSans-48"/>
       <use x="211.035156" xlink:href="#DejaVuSans-48"/>
       <use x="274.658203" xlink:href="#DejaVuSans-48"/>
       <use x="338.28125" xlink:href="#DejaVuSans-48"/>
      </g>
     </g>
    </g>
    <g id="ytick_4">
     <g id="line2d_11">
      <g>
       <use style="stroke:#000000;stroke-width:0.8;" x="50.192428" xlink:href="#mb90e90fe03" y="176.941395"/>
      </g>
     </g>
     <g id="text_11">
      <!-- −20000 -->
      <g transform="translate(3.00024 180.740614)scale(0.1 -0.1)">
       <use xlink:href="#DejaVuSans-8722"/>
       <use x="83.789062" xlink:href="#DejaVuSans-50"/>
       <use x="147.412109" xlink:href="#DejaVuSans-48"/>
       <use x="211.035156" xlink:href="#DejaVuSans-48"/>
       <use x="274.658203" xlink:href="#DejaVuSans-48"/>
       <use x="338.28125" xlink:href="#DejaVuSans-48"/>
      </g>
     </g>
    </g>
    <g id="ytick_5">
     <g id="line2d_12">
      <g>
       <use style="stroke:#000000;stroke-width:0.8;" x="50.192428" xlink:href="#mb90e90fe03" y="137.540904"/>
      </g>
     </g>
     <g id="text_12">
      <!-- 0 -->
      <g transform="translate(36.829927 141.340122)scale(0.1 -0.1)">
       <use xlink:href="#DejaVuSans-48"/>
      </g>
     </g>
    </g>
    <g id="ytick_6">
     <g id="line2d_13">
      <g>
       <use style="stroke:#000000;stroke-width:0.8;" x="50.192428" xlink:href="#mb90e90fe03" y="98.140412"/>
      </g>
     </g>
     <g id="text_13">
      <!-- 20000 -->
      <g transform="translate(11.379928 101.939631)scale(0.1 -0.1)">
       <use xlink:href="#DejaVuSans-50"/>
       <use x="63.623047" xlink:href="#DejaVuSans-48"/>
       <use x="127.246094" xlink:href="#DejaVuSans-48"/>
       <use x="190.869141" xlink:href="#DejaVuSans-48"/>
       <use x="254.492188" xlink:href="#DejaVuSans-48"/>
      </g>
     </g>
    </g>
    <g id="ytick_7">
     <g id="line2d_14">
      <g>
       <use style="stroke:#000000;stroke-width:0.8;" x="50.192428" xlink:href="#mb90e90fe03" y="58.73992"/>
      </g>
     </g>
     <g id="text_14">
      <!-- 40000 -->
      <g transform="translate(11.379928 62.539139)scale(0.1 -0.1)">
       <use xlink:href="#DejaVuSans-52"/>
       <use x="63.623047" xlink:href="#DejaVuSans-48"/>
       <use x="127.246094" xlink:href="#DejaVuSans-48"/>
       <use x="190.869141" xlink:href="#DejaVuSans-48"/>
       <use x="254.492188" xlink:href="#DejaVuSans-48"/>
      </g>
     </g>
    </g>
    <g id="ytick_8">
     <g id="line2d_15">
      <g>
       <use style="stroke:#000000;stroke-width:0.8;" x="50.192428" xlink:href="#mb90e90fe03" y="19.339428"/>
      </g>
     </g>
     <g id="text_15">
      <!-- 60000 -->
      <g transform="translate(11.379928 23.138647)scale(0.1 -0.1)">
       <use xlink:href="#DejaVuSans-54"/>
       <use x="63.623047" xlink:href="#DejaVuSans-48"/>
       <use x="127.246094" xlink:href="#DejaVuSans-48"/>
       <use x="190.869141" xlink:href="#DejaVuSans-48"/>
       <use x="254.492188" xlink:href="#DejaVuSans-48"/>
      </g>
     </g>
    </g>
   </g>
   <g id="line2d_16">
    <defs>
     <path d="M 0 3 
C 0.795609 3 1.55874 2.683901 2.12132 2.12132 
C 2.683901 1.55874 3 0.795609 3 0 
C 3 -0.795609 2.683901 -1.55874 2.12132 -2.12132 
C 1.55874 -2.683901 0.795609 -3 0 -3 
C -0.795609 -3 -1.55874 -2.683901 -2.12132 -2.12132 
C -2.683901 -1.55874 -3 -0.795609 -3 0 
C -3 0.795609 -2.683901 1.55874 -2.12132 2.12132 
C -1.55874 2.683901 -0.795609 3 0 3 
z
" id="m586ceee1af" style="stroke:#1f77b4;"/>
    </defs>
    <g clip-path="url(#p42d197a9dc)">
     <use style="fill:#1f77b4;stroke:#1f77b4;" x="210.952161" xlink:href="#m586ceee1af" y="137.540904"/>
     <use style="fill:#1f77b4;stroke:#1f77b4;" x="414.942974" xlink:href="#m586ceee1af" y="137.21979"/>
     <use style="fill:#1f77b4;stroke:#1f77b4;" x="287.68265" xlink:href="#m586ceee1af" y="137.316321"/>
     <use style="fill:#1f77b4;stroke:#1f77b4;" x="214.695111" xlink:href="#m586ceee1af" y="137.540904"/>
     <use style="fill:#1f77b4;stroke:#1f77b4;" x="205.337734" xlink:href="#m586ceee1af" y="137.540904"/>
     <use style="fill:#1f77b4;stroke:#1f77b4;" x="209.080685" xlink:href="#m586ceee1af" y="136.898676"/>
     <use style="fill:#1f77b4;stroke:#1f77b4;" x="214.695111" xlink:href="#m586ceee1af" y="137.540904"/>
     <use style="fill:#1f77b4;stroke:#1f77b4;" x="173.522653" xlink:href="#m586ceee1af" y="137.540904"/>
     <use style="fill:#1f77b4;stroke:#1f77b4;" x="351.312812" xlink:href="#m586ceee1af" y="137.540904"/>
     <use style="fill:#1f77b4;stroke:#1f77b4;" x="190.365932" xlink:href="#m586ceee1af" y="137.540904"/>
     <use style="fill:#1f77b4;stroke:#1f77b4;" x="298.911502" xlink:href="#m586ceee1af" y="137.385272"/>
     <use style="fill:#1f77b4;stroke:#1f77b4;" x="195.980358" xlink:href="#m586ceee1af" y="137.540904"/>
     <use style="fill:#1f77b4;stroke:#1f77b4;" x="332.598059" xlink:href="#m586ceee1af" y="137.540904"/>
     <use style="fill:#1f77b4;stroke:#1f77b4;" x="293.297076" xlink:href="#m586ceee1af" y="137.540904"/>
     <use style="fill:#1f77b4;stroke:#1f77b4;" x="313.883305" xlink:href="#m586ceee1af" y="137.540904"/>
     <use style="fill:#1f77b4;stroke:#1f77b4;" x="295.168552" xlink:href="#m586ceee1af" y="137.21979"/>
     <use style="fill:#1f77b4;stroke:#1f77b4;" x="239.024291" xlink:href="#m586ceee1af" y="137.540904"/>
     <use style="fill:#1f77b4;stroke:#1f77b4;" x="255.867569" xlink:href="#m586ceee1af" y="137.540904"/>
     <use style="fill:#1f77b4;stroke:#1f77b4;" x="349.441337" xlink:href="#m586ceee1af" y="137.324201"/>
     <use style="fill:#1f77b4;stroke:#1f77b4;" x="220.309537" xlink:href="#m586ceee1af" y="137.540904"/>
     <use style="fill:#1f77b4;stroke:#1f77b4;" x="276.453798" xlink:href="#m586ceee1af" y="137.21979"/>
     <use style="fill:#1f77b4;stroke:#1f77b4;" x="291.425601" xlink:href="#m586ceee1af" y="137.540904"/>
     <use style="fill:#1f77b4;stroke:#1f77b4;" x="413.071499" xlink:href="#m586ceee1af" y="137.21979"/>
     <use style="fill:#1f77b4;stroke:#1f77b4;" x="240.895766" xlink:href="#m586ceee1af" y="137.540904"/>
     <use style="fill:#1f77b4;stroke:#1f77b4;" x="282.068224" xlink:href="#m586ceee1af" y="137.540904"/>
     <use style="fill:#1f77b4;stroke:#1f77b4;" x="321.369207" xlink:href="#m586ceee1af" y="137.540904"/>
     <use style="fill:#1f77b4;stroke:#1f77b4;" x="325.112157" xlink:href="#m586ceee1af" y="137.310411"/>
     <use style="fill:#1f77b4;stroke:#1f77b4;" x="326.983633" xlink:href="#m586ceee1af" y="137.540904"/>
     <use style="fill:#1f77b4;stroke:#1f77b4;" x="203.466259" xlink:href="#m586ceee1af" y="137.540904"/>
     <use style="fill:#1f77b4;stroke:#1f77b4;" x="289.554126" xlink:href="#m586ceee1af" y="137.21979"/>
     <use style="fill:#1f77b4;stroke:#1f77b4;" x="218.438062" xlink:href="#m586ceee1af" y="137.540904"/>
     <use style="fill:#1f77b4;stroke:#1f77b4;" x="283.939699" xlink:href="#m586ceee1af" y="137.540904"/>
     <use style="fill:#1f77b4;stroke:#1f77b4;" x="237.152816" xlink:href="#m586ceee1af" y="137.540904"/>
     <use style="fill:#1f77b4;stroke:#1f77b4;" x="115.506917" xlink:href="#m586ceee1af" y="137.540904"/>
     <use style="fill:#1f77b4;stroke:#1f77b4;" x="439.272154" xlink:href="#m586ceee1af" y="137.28874"/>
     <use style="fill:#1f77b4;stroke:#1f77b4;" x="349.441337" xlink:href="#m586ceee1af" y="137.540904"/>
     <use style="fill:#1f77b4;stroke:#1f77b4;" x="231.538389" xlink:href="#m586ceee1af" y="137.330111"/>
     <use style="fill:#1f77b4;stroke:#1f77b4;" x="355.055763" xlink:href="#m586ceee1af" y="137.540904"/>
     <use style="fill:#1f77b4;stroke:#1f77b4;" x="239.024291" xlink:href="#m586ceee1af" y="137.540904"/>
     <use style="fill:#1f77b4;stroke:#1f77b4;" x="349.441337" xlink:href="#m586ceee1af" y="137.540904"/>
     <use style="fill:#1f77b4;stroke:#1f77b4;" x="227.795439" xlink:href="#m586ceee1af" y="137.21979"/>
     <use style="fill:#1f77b4;stroke:#1f77b4;" x="366.284615" xlink:href="#m586ceee1af" y="137.540904"/>
     <use style="fill:#1f77b4;stroke:#1f77b4;" x="181.008555" xlink:href="#m586ceee1af" y="137.540904"/>
     <use style="fill:#1f77b4;stroke:#1f77b4;" x="210.952161" xlink:href="#m586ceee1af" y="137.540904"/>
     <use style="fill:#1f77b4;stroke:#1f77b4;" x="317.626256" xlink:href="#m586ceee1af" y="137.540904"/>
     <use style="fill:#1f77b4;stroke:#1f77b4;" x="343.826911" xlink:href="#m586ceee1af" y="136.898676"/>
     <use style="fill:#1f77b4;stroke:#1f77b4;" x="364.41314" xlink:href="#m586ceee1af" y="137.540904"/>
     <use style="fill:#1f77b4;stroke:#1f77b4;" x="274.582323" xlink:href="#m586ceee1af" y="137.540904"/>
     <use style="fill:#1f77b4;stroke:#1f77b4;" x="343.826911" xlink:href="#m586ceee1af" y="137.540904"/>
     <use style="fill:#1f77b4;stroke:#1f77b4;" x="265.224946" xlink:href="#m586ceee1af" y="137.298591"/>
     <use style="fill:#1f77b4;stroke:#1f77b4;" x="403.714122" xlink:href="#m586ceee1af" y="137.399062"/>
     <use style="fill:#1f77b4;stroke:#1f77b4;" x="272.710847" xlink:href="#m586ceee1af" y="137.21979"/>
     <use style="fill:#1f77b4;stroke:#1f77b4;" x="302.654453" xlink:href="#m586ceee1af" y="137.21979"/>
     <use style="fill:#1f77b4;stroke:#1f77b4;" x="306.397404" xlink:href="#m586ceee1af" y="137.540904"/>
     <use style="fill:#1f77b4;stroke:#1f77b4;" x="340.08396" xlink:href="#m586ceee1af" y="137.540904"/>
     <use style="fill:#1f77b4;stroke:#1f77b4;" x="334.469534" xlink:href="#m586ceee1af" y="137.312381"/>
     <use style="fill:#1f77b4;stroke:#1f77b4;" x="231.538389" xlink:href="#m586ceee1af" y="137.540904"/>
     <use style="fill:#1f77b4;stroke:#1f77b4;" x="276.453798" xlink:href="#m586ceee1af" y="137.146899"/>
     <use style="fill:#1f77b4;stroke:#1f77b4;" x="233.409865" xlink:href="#m586ceee1af" y="137.540904"/>
     <use style="fill:#1f77b4;stroke:#1f77b4;" x="278.325273" xlink:href="#m586ceee1af" y="137.540904"/>
     <use style="fill:#1f77b4;stroke:#1f77b4;" x="306.397404" xlink:href="#m586ceee1af" y="137.21979"/>
     <use style="fill:#1f77b4;stroke:#1f77b4;" x="235.28134" xlink:href="#m586ceee1af" y="137.540904"/>
     <use style="fill:#1f77b4;stroke:#1f77b4;" x="347.569862" xlink:href="#m586ceee1af" y="137.21979"/>
     <use style="fill:#1f77b4;stroke:#1f77b4;" x="338.212485" xlink:href="#m586ceee1af" y="137.540904"/>
     <use style="fill:#1f77b4;stroke:#1f77b4;" x="278.325273" xlink:href="#m586ceee1af" y="136.898676"/>
     <use style="fill:#1f77b4;stroke:#1f77b4;" x="239.024291" xlink:href="#m586ceee1af" y="137.540904"/>
     <use style="fill:#1f77b4;stroke:#1f77b4;" x="375.641992" xlink:href="#m586ceee1af" y="137.540904"/>
     <use style="fill:#1f77b4;stroke:#1f77b4;" x="225.923963" xlink:href="#m586ceee1af" y="137.383302"/>
     <use style="fill:#1f77b4;stroke:#1f77b4;" x="253.996094" xlink:href="#m586ceee1af" y="137.540904"/>
     <use style="fill:#1f77b4;stroke:#1f77b4;" x="218.438062" xlink:href="#m586ceee1af" y="137.540904"/>
     <use style="fill:#1f77b4;stroke:#1f77b4;" x="304.525928" xlink:href="#m586ceee1af" y="137.540904"/>
     <use style="fill:#1f77b4;stroke:#1f77b4;" x="298.911502" xlink:href="#m586ceee1af" y="137.540904"/>
     <use style="fill:#1f77b4;stroke:#1f77b4;" x="270.839372" xlink:href="#m586ceee1af" y="137.540904"/>
     <use style="fill:#1f77b4;stroke:#1f77b4;" x="313.883305" xlink:href="#m586ceee1af" y="137.540904"/>
     <use style="fill:#1f77b4;stroke:#1f77b4;" x="341.955435" xlink:href="#m586ceee1af" y="137.21979"/>
     <use style="fill:#1f77b4;stroke:#1f77b4;" x="169.779703" xlink:href="#m586ceee1af" y="137.21979"/>
     <use style="fill:#1f77b4;stroke:#1f77b4;" x="68.720034" xlink:href="#m586ceee1af" y="137.540904"/>
     <use style="fill:#1f77b4;stroke:#1f77b4;" x="181.008555" xlink:href="#m586ceee1af" y="137.540904"/>
     <use style="fill:#1f77b4;stroke:#1f77b4;" x="201.594784" xlink:href="#m586ceee1af" y="137.540904"/>
     <use style="fill:#1f77b4;stroke:#1f77b4;" x="358.798714" xlink:href="#m586ceee1af" y="137.540904"/>
     <use style="fill:#1f77b4;stroke:#1f77b4;" x="384.999369" xlink:href="#m586ceee1af" y="137.21979"/>
     <use style="fill:#1f77b4;stroke:#1f77b4;" x="298.911502" xlink:href="#m586ceee1af" y="137.540904"/>
     <use style="fill:#1f77b4;stroke:#1f77b4;" x="188.494456" xlink:href="#m586ceee1af" y="137.373452"/>
     <use style="fill:#1f77b4;stroke:#1f77b4;" x="270.839372" xlink:href="#m586ceee1af" y="137.339961"/>
     <use style="fill:#1f77b4;stroke:#1f77b4;" x="274.582323" xlink:href="#m586ceee1af" y="137.540904"/>
     <use style="fill:#1f77b4;stroke:#1f77b4;" x="386.870844" xlink:href="#m586ceee1af" y="137.21979"/>
     <use style="fill:#1f77b4;stroke:#1f77b4;" x="186.622981" xlink:href="#m586ceee1af" y="137.540904"/>
     <use style="fill:#1f77b4;stroke:#1f77b4;" x="420.5574" xlink:href="#m586ceee1af" y="137.540904"/>
     <use style="fill:#1f77b4;stroke:#1f77b4;" x="282.068224" xlink:href="#m586ceee1af" y="137.540904"/>
     <use style="fill:#1f77b4;stroke:#1f77b4;" x="130.47872" xlink:href="#m586ceee1af" y="137.540904"/>
     <use style="fill:#1f77b4;stroke:#1f77b4;" x="267.096421" xlink:href="#m586ceee1af" y="137.540904"/>
     <use style="fill:#1f77b4;stroke:#1f77b4;" x="291.425601" xlink:href="#m586ceee1af" y="137.540904"/>
     <use style="fill:#1f77b4;stroke:#1f77b4;" x="267.096421" xlink:href="#m586ceee1af" y="137.540904"/>
     <use style="fill:#1f77b4;stroke:#1f77b4;" x="257.739044" xlink:href="#m586ceee1af" y="137.306471"/>
     <use style="fill:#1f77b4;stroke:#1f77b4;" x="323.240682" xlink:href="#m586ceee1af" y="137.540904"/>
     <use style="fill:#1f77b4;stroke:#1f77b4;" x="312.01183" xlink:href="#m586ceee1af" y="137.540904"/>
     <use style="fill:#1f77b4;stroke:#1f77b4;" x="225.923963" xlink:href="#m586ceee1af" y="137.540904"/>
     <use style="fill:#1f77b4;stroke:#1f77b4;" x="276.453798" xlink:href="#m586ceee1af" y="137.540904"/>
     <use style="fill:#1f77b4;stroke:#1f77b4;" x="310.140354" xlink:href="#m586ceee1af" y="137.540904"/>
     <use style="fill:#1f77b4;stroke:#1f77b4;" x="315.75478" xlink:href="#m586ceee1af" y="137.21979"/>
     <use style="fill:#1f77b4;stroke:#1f77b4;" x="280.196749" xlink:href="#m586ceee1af" y="137.23949"/>
     <use style="fill:#1f77b4;stroke:#1f77b4;" x="197.851833" xlink:href="#m586ceee1af" y="137.540904"/>
     <use style="fill:#1f77b4;stroke:#1f77b4;" x="265.224946" xlink:href="#m586ceee1af" y="137.21979"/>
     <use style="fill:#1f77b4;stroke:#1f77b4;" x="231.538389" xlink:href="#m586ceee1af" y="137.540904"/>
     <use style="fill:#1f77b4;stroke:#1f77b4;" x="192.237407" xlink:href="#m586ceee1af" y="137.540904"/>
     <use style="fill:#1f77b4;stroke:#1f77b4;" x="222.181013" xlink:href="#m586ceee1af" y="137.330111"/>
     <use style="fill:#1f77b4;stroke:#1f77b4;" x="304.525928" xlink:href="#m586ceee1af" y="137.540904"/>
     <use style="fill:#1f77b4;stroke:#1f77b4;" x="282.068224" xlink:href="#m586ceee1af" y="137.540904"/>
     <use style="fill:#1f77b4;stroke:#1f77b4;" x="308.268879" xlink:href="#m586ceee1af" y="137.540904"/>
     <use style="fill:#1f77b4;stroke:#1f77b4;" x="373.770517" xlink:href="#m586ceee1af" y="137.21979"/>
     <use style="fill:#1f77b4;stroke:#1f77b4;" x="297.040027" xlink:href="#m586ceee1af" y="137.540904"/>
     <use style="fill:#1f77b4;stroke:#1f77b4;" x="209.080685" xlink:href="#m586ceee1af" y="137.540904"/>
     <use style="fill:#1f77b4;stroke:#1f77b4;" x="181.008555" xlink:href="#m586ceee1af" y="137.540904"/>
     <use style="fill:#1f77b4;stroke:#1f77b4;" x="222.181013" xlink:href="#m586ceee1af" y="137.540904"/>
     <use style="fill:#1f77b4;stroke:#1f77b4;" x="239.024291" xlink:href="#m586ceee1af" y="136.898676"/>
     <use style="fill:#1f77b4;stroke:#1f77b4;" x="330.726583" xlink:href="#m586ceee1af" y="137.540904"/>
     <use style="fill:#1f77b4;stroke:#1f77b4;" x="229.666914" xlink:href="#m586ceee1af" y="137.341931"/>
     <use style="fill:#1f77b4;stroke:#1f77b4;" x="282.068224" xlink:href="#m586ceee1af" y="137.540904"/>
     <use style="fill:#1f77b4;stroke:#1f77b4;" x="358.798714" xlink:href="#m586ceee1af" y="137.540904"/>
     <use style="fill:#1f77b4;stroke:#1f77b4;" x="362.541664" xlink:href="#m586ceee1af" y="137.540904"/>
     <use style="fill:#1f77b4;stroke:#1f77b4;" x="218.438062" xlink:href="#m586ceee1af" y="137.21979"/>
     <use style="fill:#1f77b4;stroke:#1f77b4;" x="237.152816" xlink:href="#m586ceee1af" y="137.540904"/>
     <use style="fill:#1f77b4;stroke:#1f77b4;" x="227.795439" xlink:href="#m586ceee1af" y="137.312381"/>
     <use style="fill:#1f77b4;stroke:#1f77b4;" x="128.607245" xlink:href="#m586ceee1af" y="137.540904"/>
     <use style="fill:#1f77b4;stroke:#1f77b4;" x="252.124618" xlink:href="#m586ceee1af" y="137.540904"/>
     <use style="fill:#1f77b4;stroke:#1f77b4;" x="263.353471" xlink:href="#m586ceee1af" y="137.540904"/>
     <use style="fill:#1f77b4;stroke:#1f77b4;" x="312.01183" xlink:href="#m586ceee1af" y="137.21979"/>
     <use style="fill:#1f77b4;stroke:#1f77b4;" x="291.425601" xlink:href="#m586ceee1af" y="137.540904"/>
     <use style="fill:#1f77b4;stroke:#1f77b4;" x="253.996094" xlink:href="#m586ceee1af" y="137.540904"/>
     <use style="fill:#1f77b4;stroke:#1f77b4;" x="268.967897" xlink:href="#m586ceee1af" y="137.139019"/>
     <use style="fill:#1f77b4;stroke:#1f77b4;" x="158.550851" xlink:href="#m586ceee1af" y="137.540904"/>
     <use style="fill:#1f77b4;stroke:#1f77b4;" x="343.826911" xlink:href="#m586ceee1af" y="137.540904"/>
     <use style="fill:#1f77b4;stroke:#1f77b4;" x="283.939699" xlink:href="#m586ceee1af" y="137.034607"/>
     <use style="fill:#1f77b4;stroke:#1f77b4;" x="310.140354" xlink:href="#m586ceee1af" y="137.21979"/>
     <use style="fill:#1f77b4;stroke:#1f77b4;" x="283.939699" xlink:href="#m586ceee1af" y="137.540904"/>
     <use style="fill:#1f77b4;stroke:#1f77b4;" x="411.200024" xlink:href="#m586ceee1af" y="137.540904"/>
     <use style="fill:#1f77b4;stroke:#1f77b4;" x="313.883305" xlink:href="#m586ceee1af" y="136.999147"/>
     <use style="fill:#1f77b4;stroke:#1f77b4;" x="268.967897" xlink:href="#m586ceee1af" y="137.21979"/>
     <use style="fill:#1f77b4;stroke:#1f77b4;" x="240.895766" xlink:href="#m586ceee1af" y="137.540904"/>
     <use style="fill:#1f77b4;stroke:#1f77b4;" x="351.312812" xlink:href="#m586ceee1af" y="137.540904"/>
     <use style="fill:#1f77b4;stroke:#1f77b4;" x="310.140354" xlink:href="#m586ceee1af" y="137.363601"/>
     <use style="fill:#1f77b4;stroke:#1f77b4;" x="225.923963" xlink:href="#m586ceee1af" y="137.540904"/>
     <use style="fill:#1f77b4;stroke:#1f77b4;" x="177.265604" xlink:href="#m586ceee1af" y="136.898676"/>
     <use style="fill:#1f77b4;stroke:#1f77b4;" x="250.253143" xlink:href="#m586ceee1af" y="137.540904"/>
     <use style="fill:#1f77b4;stroke:#1f77b4;" x="235.28134" xlink:href="#m586ceee1af" y="137.540904"/>
     <use style="fill:#1f77b4;stroke:#1f77b4;" x="308.268879" xlink:href="#m586ceee1af" y="137.540904"/>
     <use style="fill:#1f77b4;stroke:#1f77b4;" x="205.337734" xlink:href="#m586ceee1af" y="137.540904"/>
     <use style="fill:#1f77b4;stroke:#1f77b4;" x="386.870844" xlink:href="#m586ceee1af" y="137.540904"/>
     <use style="fill:#1f77b4;stroke:#1f77b4;" x="388.742319" xlink:href="#m586ceee1af" y="137.540904"/>
     <use style="fill:#1f77b4;stroke:#1f77b4;" x="328.855108" xlink:href="#m586ceee1af" y="137.357691"/>
     <use style="fill:#1f77b4;stroke:#1f77b4;" x="235.28134" xlink:href="#m586ceee1af" y="137.144929"/>
     <use style="fill:#1f77b4;stroke:#1f77b4;" x="340.08396" xlink:href="#m586ceee1af" y="137.540904"/>
     <use style="fill:#1f77b4;stroke:#1f77b4;" x="328.855108" xlink:href="#m586ceee1af" y="137.540904"/>
     <use style="fill:#1f77b4;stroke:#1f77b4;" x="332.598059" xlink:href="#m586ceee1af" y="137.2848"/>
     <use style="fill:#1f77b4;stroke:#1f77b4;" x="298.911502" xlink:href="#m586ceee1af" y="137.21979"/>
     <use style="fill:#1f77b4;stroke:#1f77b4;" x="222.181013" xlink:href="#m586ceee1af" y="137.540904"/>
     <use style="fill:#1f77b4;stroke:#1f77b4;" x="289.554126" xlink:href="#m586ceee1af" y="137.540904"/>
     <use style="fill:#1f77b4;stroke:#1f77b4;" x="341.955435" xlink:href="#m586ceee1af" y="137.540904"/>
     <use style="fill:#1f77b4;stroke:#1f77b4;" x="373.770517" xlink:href="#m586ceee1af" y="137.540904"/>
     <use style="fill:#1f77b4;stroke:#1f77b4;" x="167.908227" xlink:href="#m586ceee1af" y="137.540904"/>
     <use style="fill:#1f77b4;stroke:#1f77b4;" x="353.184288" xlink:href="#m586ceee1af" y="137.21979"/>
     <use style="fill:#1f77b4;stroke:#1f77b4;" x="267.096421" xlink:href="#m586ceee1af" y="137.540904"/>
     <use style="fill:#1f77b4;stroke:#1f77b4;" x="278.325273" xlink:href="#m586ceee1af" y="137.158719"/>
     <use style="fill:#1f77b4;stroke:#1f77b4;" x="267.096421" xlink:href="#m586ceee1af" y="137.540904"/>
     <use style="fill:#1f77b4;stroke:#1f77b4;" x="240.895766" xlink:href="#m586ceee1af" y="137.21979"/>
     <use style="fill:#1f77b4;stroke:#1f77b4;" x="184.751506" xlink:href="#m586ceee1af" y="137.540904"/>
     <use style="fill:#1f77b4;stroke:#1f77b4;" x="317.626256" xlink:href="#m586ceee1af" y="137.540904"/>
     <use style="fill:#1f77b4;stroke:#1f77b4;" x="325.112157" xlink:href="#m586ceee1af" y="137.540904"/>
     <use style="fill:#1f77b4;stroke:#1f77b4;" x="282.068224" xlink:href="#m586ceee1af" y="137.540904"/>
     <use style="fill:#1f77b4;stroke:#1f77b4;" x="300.782978" xlink:href="#m586ceee1af" y="136.898676"/>
     <use style="fill:#1f77b4;stroke:#1f77b4;" x="276.453798" xlink:href="#m586ceee1af" y="137.540904"/>
     <use style="fill:#1f77b4;stroke:#1f77b4;" x="267.096421" xlink:href="#m586ceee1af" y="137.540904"/>
     <use style="fill:#1f77b4;stroke:#1f77b4;" x="295.168552" xlink:href="#m586ceee1af" y="137.310411"/>
     <use style="fill:#1f77b4;stroke:#1f77b4;" x="437.400679" xlink:href="#m586ceee1af" y="136.898676"/>
     <use style="fill:#1f77b4;stroke:#1f77b4;" x="252.124618" xlink:href="#m586ceee1af" y="137.540904"/>
     <use style="fill:#1f77b4;stroke:#1f77b4;" x="366.284615" xlink:href="#m586ceee1af" y="137.540904"/>
     <use style="fill:#1f77b4;stroke:#1f77b4;" x="248.381668" xlink:href="#m586ceee1af" y="137.540904"/>
     <use style="fill:#1f77b4;stroke:#1f77b4;" x="225.923963" xlink:href="#m586ceee1af" y="137.540904"/>
     <use style="fill:#1f77b4;stroke:#1f77b4;" x="164.165277" xlink:href="#m586ceee1af" y="137.540904"/>
     <use style="fill:#1f77b4;stroke:#1f77b4;" x="283.939699" xlink:href="#m586ceee1af" y="136.898676"/>
    </g>
   </g>
   <g id="line2d_17">
    <path clip-path="url(#p42d197a9dc)" d="M 310.140354 156.943611 
L 310.398877 147.303819 
L 310.528138 138.928583 
L 310.915921 162.841827 
L 311.045182 163.30556 
L 311.174443 160.565516 
L 311.562226 141.488834 
L 311.950009 123.696176 
L 312.07927 121.954818 
L 312.208531 123.702577 
L 312.467054 140.638182 
L 312.725576 155.940176 
L 312.854837 158.792904 
L 312.984098 159.127514 
L 313.113359 157.454555 
L 313.501142 145.495733 
L 313.888925 133.848483 
L 314.018186 132.417858 
L 314.147447 133.064042 
L 314.276708 136.29758 
L 314.793753 78.295269 
L 315.052275 72.798123 
L 315.181536 75.046179 
L 315.440058 86.715525 
L 316.474146 147.65259 
L 316.732669 151.187249 
L 316.86193 151.321243 
L 316.991191 150.618393 
L 317.249713 147.458302 
L 317.896018 138.145747 
L 318.025279 137.553401 
L 318.283801 137.750728 
L 318.800845 138.621773 
L 320.093456 141.094024 
L 320.481239 141.331207 
L 320.739761 141.227263 
L 320.998284 140.864122 
L 321.386067 139.74052 
L 321.77385 137.79485 
L 322.807938 131.409564 
L 322.937199 131.238094 
L 323.06646 131.360374 
L 323.324983 132.671582 
L 323.583505 135.713972 
L 323.971288 143.930104 
L 324.617593 158.212075 
L 324.876115 159.787245 
L 325.005376 158.941476 
L 325.263899 153.049826 
L 325.522421 140.313491 
L 325.910204 119.784631 
L 326.168726 113.980301 
L 326.297987 113.055815 
L 326.427248 113.257707 
L 326.68577 116.464391 
L 327.073553 126.120811 
L 328.107642 154.224763 
L 328.366164 157.207553 
L 328.495425 157.626782 
L 328.624686 157.22048 
L 328.883208 153.59902 
L 329.14173 145.678652 
L 329.788036 120.443945 
L 330.046558 117.214667 
L 330.175819 116.978304 
L 330.30508 117.558365 
L 330.563602 120.860486 
L 330.951385 130.01638 
L 332.114735 163.13014 
L 332.243996 164.196724 
L 332.373257 164.140355 
L 332.502518 162.796693 
L 332.76104 155.590132 
L 333.148823 131.815294 
L 333.536606 114.690914 
L 333.795129 111.648691 
L 333.92439 112.077753 
L 334.182912 115.899496 
L 334.699956 130.151783 
L 335.217 143.536248 
L 335.604783 149.583933 
L 335.992567 152.666013 
L 336.251089 153.345254 
L 336.38035 153.33345 
L 336.638872 152.709019 
L 337.026655 150.576409 
L 337.67296 145.193221 
L 338.448527 138.858332 
L 338.83631 137.019331 
L 339.094832 136.491401 
L 339.353354 136.387316 
L 339.611876 136.57219 
L 340.645965 137.800283 
L 340.904487 142.196563 
L 341.809314 164.379727 
L 341.938575 163.652298 
L 342.067836 160.879877 
L 342.326359 147.772221 
L 342.584881 128.630795 
L 342.714142 127.579105 
L 342.843403 132.177835 
L 343.231186 165.810802 
L 343.618969 199.660852 
L 343.74823 204.428425 
L 343.877491 203.593818 
L 344.006752 195.750456 
L 344.265274 153.411164 
L 344.394535 154.855511 
L 344.91158 259.955408 
L 345.299363 299.530688 
L 345.557885 310.452667 
L 345.687146 311.920947 
L 345.816407 311.014421 
L 346.074929 302.937958 
L 346.462712 278.393499 
L 347.238279 205.867269 
L 348.013845 140.836464 
L 348.401628 124.745198 
L 348.66015 120.572102 
L 348.789412 120.044491 
L 348.918673 120.374461 
L 349.177195 123.062018 
L 349.8235 135.248833 
L 349.952761 137.533295 
L 350.340544 117.551005 
L 350.599066 114.64161 
L 350.728327 115.479436 
L 350.98685 120.229015 
L 351.762416 137.309098 
L 351.891677 137.532614 
L 352.925765 137.325967 
L 353.830593 137.221999 
L 354.864681 137.430987 
L 355.769509 137.532004 
L 356.674336 137.332718 
L 357.966947 137.021082 
L 358.613252 137.095389 
L 359.130296 137.365622 
L 360.035124 137.994761 
L 360.681429 138.116385 
L 361.456995 138.009348 
L 363.783695 137.472841 
L 365.72261 137.583909 
L 366.756699 137.548729 
L 366.88596 137.499805 
L 367.015221 137.114455 
L 367.273743 135.188827 
L 367.661526 129.741691 
L 368.178571 118.622789 
L 368.954137 96.529619 
L 370.634531 47.114144 
L 371.151575 37.194419 
L 371.539358 32.92039 
L 371.79788 31.907178 
L 371.927141 32.017141 
L 372.185664 33.579749 
L 372.444186 37.078658 
L 372.831969 46.340994 
L 373.219752 60.945908 
L 373.736796 89.752219 
L 374.383102 142.414466 
L 374.770885 165.414081 
L 375.029407 170.636996 
L 375.158668 170.786553 
L 375.287929 169.548688 
L 375.546451 163.672218 
L 376.063495 143.647047 
L 377.097584 102.676109 
L 378.002411 74.806546 
L 378.777978 56.889027 
L 379.424283 46.177618 
L 379.941327 40.375905 
L 380.32911 37.641431 
L 380.716894 36.294571 
L 380.975416 36.168349 
L 381.233938 36.660027 
L 381.49246 37.77008 
L 381.880243 40.595645 
L 382.397287 46.531793 
L 383.043593 57.442759 
L 383.689898 72.239275 
L 384.465464 95.134435 
L 385.370292 128.947671 
L 386.40438 168.216619 
L 386.662902 170.947893 
L 386.792163 170.199527 
L 387.050685 163.515524 
L 387.309208 148.636134 
L 387.826252 111.500399 
L 388.084774 104.697453 
L 388.214035 103.90269 
L 388.343296 104.587375 
L 388.601818 109.620004 
L 388.989601 123.420547 
L 390.282212 174.183835 
L 391.187039 200.462295 
L 391.962606 217.289225 
L 392.738172 229.325494 
L 393.384477 236.016421 
L 393.901522 239.36839 
L 394.289305 240.80156 
L 394.547827 241.273161 
L 394.806349 241.376865 
L 395.064871 241.129112 
L 395.323393 240.546343 
L 395.711177 239.079995 
L 396.228221 236.105746 
L 396.874526 230.935013 
L 397.779354 221.444184 
L 398.942703 206.417172 
L 403.46684 144.671946 
L 404.242407 137.77154 
L 404.888712 133.652583 
L 405.535017 130.928292 
L 406.052061 129.622467 
L 406.439845 129.087414 
L 406.827628 128.886567 
L 407.215411 128.977956 
L 407.603194 129.319609 
L 408.120238 130.091903 
L 408.895805 131.727021 
L 411.093243 136.73107 
L 411.610287 137.400641 
L 411.99807 137.64843 
L 412.515114 137.671554 
L 413.290681 137.368625 
L 414.066247 137.124261 
L 414.971075 137.135783 
L 418.848906 137.521865 
L 421.69265 137.519282 
L 425.182698 137.266777 
L 433.067623 136.605195 
L 435.782105 136.650349 
L 438.108804 136.91331 
L 439.272154 137.141193 
L 439.272154 137.141193 
" style="fill:none;stroke:#ff7f0e;stroke-dasharray:5.55,2.4;stroke-dashoffset:0;stroke-width:1.5;"/>
   </g>
   <g id="patch_3">
    <path d="M 50.192428 325.921635 
L 50.192428 17.90649 
" style="fill:none;stroke:#000000;stroke-linecap:square;stroke-linejoin:miter;stroke-width:0.8;"/>
   </g>
   <g id="patch_4">
    <path d="M 457.79976 325.921635 
L 457.79976 17.90649 
" style="fill:none;stroke:#000000;stroke-linecap:square;stroke-linejoin:miter;stroke-width:0.8;"/>
   </g>
   <g id="patch_5">
    <path d="M 50.192428 325.921635 
L 457.79976 325.921635 
" style="fill:none;stroke:#000000;stroke-linecap:square;stroke-linejoin:miter;stroke-width:0.8;"/>
   </g>
   <g id="patch_6">
    <path d="M 50.192428 17.90649 
L 457.79976 17.90649 
" style="fill:none;stroke:#000000;stroke-linecap:square;stroke-linejoin:miter;stroke-width:0.8;"/>
   </g>
   <g id="text_16">
    <!-- tau_m=20.0 -->
    <defs>
     <path d="M 18.3125 70.21875 
L 18.3125 54.6875 
L 36.8125 54.6875 
L 36.8125 47.703125 
L 18.3125 47.703125 
L 18.3125 18.015625 
Q 18.3125 11.328125 20.140625 9.421875 
Q 21.96875 7.515625 27.59375 7.515625 
L 36.8125 7.515625 
L 36.8125 0 
L 27.59375 0 
Q 17.1875 0 13.234375 3.875 
Q 9.28125 7.765625 9.28125 18.015625 
L 9.28125 47.703125 
L 2.6875 47.703125 
L 2.6875 54.6875 
L 9.28125 54.6875 
L 9.28125 70.21875 
z
" id="DejaVuSans-116"/>
     <path d="M 34.28125 27.484375 
Q 23.390625 27.484375 19.1875 25 
Q 14.984375 22.515625 14.984375 16.5 
Q 14.984375 11.71875 18.140625 8.90625 
Q 21.296875 6.109375 26.703125 6.109375 
Q 34.1875 6.109375 38.703125 11.40625 
Q 43.21875 16.703125 43.21875 25.484375 
L 43.21875 27.484375 
z
M 52.203125 31.203125 
L 52.203125 0 
L 43.21875 0 
L 43.21875 8.296875 
Q 40.140625 3.328125 35.546875 0.953125 
Q 30.953125 -1.421875 24.3125 -1.421875 
Q 15.921875 -1.421875 10.953125 3.296875 
Q 6 8.015625 6 15.921875 
Q 6 25.140625 12.171875 29.828125 
Q 18.359375 34.515625 30.609375 34.515625 
L 43.21875 34.515625 
L 43.21875 35.40625 
Q 43.21875 41.609375 39.140625 45 
Q 35.0625 48.390625 27.6875 48.390625 
Q 23 48.390625 18.546875 47.265625 
Q 14.109375 46.140625 10.015625 43.890625 
L 10.015625 52.203125 
Q 14.9375 54.109375 19.578125 55.046875 
Q 24.21875 56 28.609375 56 
Q 40.484375 56 46.34375 49.84375 
Q 52.203125 43.703125 52.203125 31.203125 
z
" id="DejaVuSans-97"/>
     <path d="M 8.5 21.578125 
L 8.5 54.6875 
L 17.484375 54.6875 
L 17.484375 21.921875 
Q 17.484375 14.15625 20.5 10.265625 
Q 23.53125 6.390625 29.59375 6.390625 
Q 36.859375 6.390625 41.078125 11.03125 
Q 45.3125 15.671875 45.3125 23.6875 
L 45.3125 54.6875 
L 54.296875 54.6875 
L 54.296875 0 
L 45.3125 0 
L 45.3125 8.40625 
Q 42.046875 3.421875 37.71875 1 
Q 33.40625 -1.421875 27.6875 -1.421875 
Q 18.265625 -1.421875 13.375 4.4375 
Q 8.5 10.296875 8.5 21.578125 
z
M 31.109375 56 
z
" id="DejaVuSans-117"/>
     <path d="M 50.984375 -16.609375 
L 50.984375 -23.578125 
L -0.984375 -23.578125 
L -0.984375 -16.609375 
z
" id="DejaVuSans-95"/>
     <path d="M 52 44.1875 
Q 55.375 50.25 60.0625 53.125 
Q 64.75 56 71.09375 56 
Q 79.640625 56 84.28125 50.015625 
Q 88.921875 44.046875 88.921875 33.015625 
L 88.921875 0 
L 79.890625 0 
L 79.890625 32.71875 
Q 79.890625 40.578125 77.09375 44.375 
Q 74.3125 48.1875 68.609375 48.1875 
Q 61.625 48.1875 57.5625 43.546875 
Q 53.515625 38.921875 53.515625 30.90625 
L 53.515625 0 
L 44.484375 0 
L 44.484375 32.71875 
Q 44.484375 40.625 41.703125 44.40625 
Q 38.921875 48.1875 33.109375 48.1875 
Q 26.21875 48.1875 22.15625 43.53125 
Q 18.109375 38.875 18.109375 30.90625 
L 18.109375 0 
L 9.078125 0 
L 9.078125 54.6875 
L 18.109375 54.6875 
L 18.109375 46.1875 
Q 21.1875 51.21875 25.484375 53.609375 
Q 29.78125 56 35.6875 56 
Q 41.65625 56 45.828125 52.96875 
Q 50 49.953125 52 44.1875 
z
" id="DejaVuSans-109"/>
     <path d="M 10.59375 45.40625 
L 73.1875 45.40625 
L 73.1875 37.203125 
L 10.59375 37.203125 
z
M 10.59375 25.484375 
L 73.1875 25.484375 
L 73.1875 17.1875 
L 10.59375 17.1875 
z
" id="DejaVuSans-61"/>
     <path d="M 10.6875 12.40625 
L 21 12.40625 
L 21 0 
L 10.6875 0 
z
" id="DejaVuSans-46"/>
    </defs>
    <g transform="translate(216.932969 11.90649)scale(0.12 -0.12)">
     <use xlink:href="#DejaVuSans-116"/>
     <use x="39.208984" xlink:href="#DejaVuSans-97"/>
     <use x="100.488281" xlink:href="#DejaVuSans-117"/>
     <use x="163.867188" xlink:href="#DejaVuSans-95"/>
     <use x="213.867188" xlink:href="#DejaVuSans-109"/>
     <use x="311.279297" xlink:href="#DejaVuSans-61"/>
     <use x="395.068359" xlink:href="#DejaVuSans-50"/>
     <use x="458.691406" xlink:href="#DejaVuSans-48"/>
     <use x="522.314453" xlink:href="#DejaVuSans-46"/>
     <use x="554.101562" xlink:href="#DejaVuSans-48"/>
    </g>
   </g>
   <g id="legend_1">
    <g id="patch_7">
     <path d="M 396.27476 55.26274 
L 450.79976 55.26274 
Q 452.79976 55.26274 452.79976 53.26274 
L 452.79976 24.90649 
Q 452.79976 22.90649 450.79976 22.90649 
L 396.27476 22.90649 
Q 394.27476 22.90649 394.27476 24.90649 
L 394.27476 53.26274 
Q 394.27476 55.26274 396.27476 55.26274 
z
" style="fill:#ffffff;opacity:0.8;stroke:#cccccc;stroke-linejoin:miter;"/>
    </g>
    <g id="line2d_18"/>
    <g id="line2d_19">
     <g>
      <use style="fill:#1f77b4;stroke:#1f77b4;" x="408.27476" xlink:href="#m586ceee1af" y="31.004927"/>
     </g>
    </g>
    <g id="text_17">
     <!-- data -->
     <defs>
      <path d="M 45.40625 46.390625 
L 45.40625 75.984375 
L 54.390625 75.984375 
L 54.390625 0 
L 45.40625 0 
L 45.40625 8.203125 
Q 42.578125 3.328125 38.25 0.953125 
Q 33.9375 -1.421875 27.875 -1.421875 
Q 17.96875 -1.421875 11.734375 6.484375 
Q 5.515625 14.40625 5.515625 27.296875 
Q 5.515625 40.1875 11.734375 48.09375 
Q 17.96875 56 27.875 56 
Q 33.9375 56 38.25 53.625 
Q 42.578125 51.265625 45.40625 46.390625 
z
M 14.796875 27.296875 
Q 14.796875 17.390625 18.875 11.75 
Q 22.953125 6.109375 30.078125 6.109375 
Q 37.203125 6.109375 41.296875 11.75 
Q 45.40625 17.390625 45.40625 27.296875 
Q 45.40625 37.203125 41.296875 42.84375 
Q 37.203125 48.484375 30.078125 48.484375 
Q 22.953125 48.484375 18.875 42.84375 
Q 14.796875 37.203125 14.796875 27.296875 
z
" id="DejaVuSans-100"/>
     </defs>
     <g transform="translate(426.27476 34.504927)scale(0.1 -0.1)">
      <use xlink:href="#DejaVuSans-100"/>
      <use x="63.476562" xlink:href="#DejaVuSans-97"/>
      <use x="124.755859" xlink:href="#DejaVuSans-116"/>
      <use x="163.964844" xlink:href="#DejaVuSans-97"/>
     </g>
    </g>
    <g id="line2d_20">
     <path d="M 398.27476 45.683052 
L 418.27476 45.683052 
" style="fill:none;stroke:#ff7f0e;stroke-dasharray:5.55,2.4;stroke-dashoffset:0;stroke-width:1.5;"/>
    </g>
    <g id="line2d_21"/>
    <g id="text_18">
     <!-- cs -->
     <defs>
      <path d="M 48.78125 52.59375 
L 48.78125 44.1875 
Q 44.96875 46.296875 41.140625 47.34375 
Q 37.3125 48.390625 33.40625 48.390625 
Q 24.65625 48.390625 19.8125 42.84375 
Q 14.984375 37.3125 14.984375 27.296875 
Q 14.984375 17.28125 19.8125 11.734375 
Q 24.65625 6.203125 33.40625 6.203125 
Q 37.3125 6.203125 41.140625 7.25 
Q 44.96875 8.296875 48.78125 10.40625 
L 48.78125 2.09375 
Q 45.015625 0.34375 40.984375 -0.53125 
Q 36.96875 -1.421875 32.421875 -1.421875 
Q 20.0625 -1.421875 12.78125 6.34375 
Q 5.515625 14.109375 5.515625 27.296875 
Q 5.515625 40.671875 12.859375 48.328125 
Q 20.21875 56 33.015625 56 
Q 37.15625 56 41.109375 55.140625 
Q 45.0625 54.296875 48.78125 52.59375 
z
" id="DejaVuSans-99"/>
      <path d="M 44.28125 53.078125 
L 44.28125 44.578125 
Q 40.484375 46.53125 36.375 47.5 
Q 32.28125 48.484375 27.875 48.484375 
Q 21.1875 48.484375 17.84375 46.4375 
Q 14.5 44.390625 14.5 40.28125 
Q 14.5 37.15625 16.890625 35.375 
Q 19.28125 33.59375 26.515625 31.984375 
L 29.59375 31.296875 
Q 39.15625 29.25 43.1875 25.515625 
Q 47.21875 21.78125 47.21875 15.09375 
Q 47.21875 7.46875 41.1875 3.015625 
Q 35.15625 -1.421875 24.609375 -1.421875 
Q 20.21875 -1.421875 15.453125 -0.5625 
Q 10.6875 0.296875 5.421875 2 
L 5.421875 11.28125 
Q 10.40625 8.6875 15.234375 7.390625 
Q 20.0625 6.109375 24.8125 6.109375 
Q 31.15625 6.109375 34.5625 8.28125 
Q 37.984375 10.453125 37.984375 14.40625 
Q 37.984375 18.0625 35.515625 20.015625 
Q 33.0625 21.96875 24.703125 23.78125 
L 21.578125 24.515625 
Q 13.234375 26.265625 9.515625 29.90625 
Q 5.8125 33.546875 5.8125 39.890625 
Q 5.8125 47.609375 11.28125 51.796875 
Q 16.75 56 26.8125 56 
Q 31.78125 56 36.171875 55.265625 
Q 40.578125 54.546875 44.28125 53.078125 
z
" id="DejaVuSans-115"/>
     </defs>
     <g transform="translate(426.27476 49.183052)scale(0.1 -0.1)">
      <use xlink:href="#DejaVuSans-99"/>
      <use x="54.980469" xlink:href="#DejaVuSans-115"/>
     </g>
    </g>
   </g>
  </g>
 </g>
 <defs>
  <clipPath id="p42d197a9dc">
   <rect height="308.015145" width="407.607333" x="50.192428" y="17.90649"/>
  </clipPath>
 </defs>
</svg>
