<?xml version="1.0" encoding="utf-8" standalone="no"?>
<!DOCTYPE svg PUBLIC "-//W3C//DTD SVG 1.1//EN"
  "http://www.w3.org/Graphics/SVG/1.1/DTD/svg11.dtd">
<!-- Created with matplotlib (https://matplotlib.org/) -->
<svg height="345.6pt" version="1.1" viewBox="0 0 460.8 345.6" width="460.8pt" xmlns="http://www.w3.org/2000/svg" xmlns:xlink="http://www.w3.org/1999/xlink">
 <defs>
  <style type="text/css">
*{stroke-linecap:butt;stroke-linejoin:round;}
  </style>
 </defs>
 <g id="figure_1">
  <g id="patch_1">
   <path d="M 0 345.6 
L 460.8 345.6 
L 460.8 0 
L 0 0 
z
" style="fill:#ffffff;"/>
  </g>
  <g id="axes_1">
   <g id="patch_2">
    <path d="M 50.192428 325.921635 
L 220.230182 325.921635 
L 220.230182 17.90649 
L 50.192428 17.90649 
z
" style="fill:#ffffff;"/>
   </g>
   <g id="matplotlib.axis_1">
    <g id="xtick_1">
     <g id="line2d_1">
      <defs>
       <path d="M 0 0 
L 0 3.5 
" id="ma861e27b27" style="stroke:#000000;stroke-width:0.8;"/>
      </defs>
      <g>
       <use style="stroke:#000000;stroke-width:0.8;" x="77.371852" xlink:href="#ma861e27b27" y="325.921635"/>
      </g>
     </g>
     <g id="text_1">
      <!-- −2 -->
      <defs>
       <path d="M 10.59375 35.5 
L 73.1875 35.5 
L 73.1875 27.203125 
L 10.59375 27.203125 
z
" id="DejaVuSans-8722"/>
       <path d="M 19.1875 8.296875 
L 53.609375 8.296875 
L 53.609375 0 
L 7.328125 0 
L 7.328125 8.296875 
Q 12.9375 14.109375 22.625 23.890625 
Q 32.328125 33.6875 34.8125 36.53125 
Q 39.546875 41.84375 41.421875 45.53125 
Q 43.3125 49.21875 43.3125 52.78125 
Q 43.3125 58.59375 39.234375 62.25 
Q 35.15625 65.921875 28.609375 65.921875 
Q 23.96875 65.921875 18.8125 64.3125 
Q 13.671875 62.703125 7.8125 59.421875 
L 7.8125 69.390625 
Q 13.765625 71.78125 18.9375 73 
Q 24.125 74.21875 28.421875 74.21875 
Q 39.75 74.21875 46.484375 68.546875 
Q 53.21875 62.890625 53.21875 53.421875 
Q 53.21875 48.921875 51.53125 44.890625 
Q 49.859375 40.875 45.40625 35.40625 
Q 44.1875 33.984375 37.640625 27.21875 
Q 31.109375 20.453125 19.1875 8.296875 
z
" id="DejaVuSans-50"/>
      </defs>
      <g transform="translate(70.000758 340.520072)scale(0.1 -0.1)">
       <use xlink:href="#DejaVuSans-8722"/>
       <use x="83.789062" xlink:href="#DejaVuSans-50"/>
      </g>
     </g>
    </g>
    <g id="xtick_2">
     <g id="line2d_2">
      <g>
       <use style="stroke:#000000;stroke-width:0.8;" x="142.889108" xlink:href="#ma861e27b27" y="325.921635"/>
      </g>
     </g>
     <g id="text_2">
      <!-- 0 -->
      <defs>
       <path d="M 31.78125 66.40625 
Q 24.171875 66.40625 20.328125 58.90625 
Q 16.5 51.421875 16.5 36.375 
Q 16.5 21.390625 20.328125 13.890625 
Q 24.171875 6.390625 31.78125 6.390625 
Q 39.453125 6.390625 43.28125 13.890625 
Q 47.125 21.390625 47.125 36.375 
Q 47.125 51.421875 43.28125 58.90625 
Q 39.453125 66.40625 31.78125 66.40625 
z
M 31.78125 74.21875 
Q 44.046875 74.21875 50.515625 64.515625 
Q 56.984375 54.828125 56.984375 36.375 
Q 56.984375 17.96875 50.515625 8.265625 
Q 44.046875 -1.421875 31.78125 -1.421875 
Q 19.53125 -1.421875 13.0625 8.265625 
Q 6.59375 17.96875 6.59375 36.375 
Q 6.59375 54.828125 13.0625 64.515625 
Q 19.53125 74.21875 31.78125 74.21875 
z
" id="DejaVuSans-48"/>
      </defs>
      <g transform="translate(139.707858 340.520072)scale(0.1 -0.1)">
       <use xlink:href="#DejaVuSans-48"/>
      </g>
     </g>
    </g>
    <g id="xtick_3">
     <g id="line2d_3">
      <g>
       <use style="stroke:#000000;stroke-width:0.8;" x="208.406365" xlink:href="#ma861e27b27" y="325.921635"/>
      </g>
     </g>
     <g id="text_3">
      <!-- 2 -->
      <g transform="translate(205.225115 340.520072)scale(0.1 -0.1)">
       <use xlink:href="#DejaVuSans-50"/>
      </g>
     </g>
    </g>
   </g>
   <g id="matplotlib.axis_2">
    <g id="ytick_1">
     <g id="line2d_4">
      <defs>
       <path d="M 0 0 
L -3.5 0 
" id="mb7374a384b" style="stroke:#000000;stroke-width:0.8;"/>
      </defs>
      <g>
       <use style="stroke:#000000;stroke-width:0.8;" x="50.192428" xlink:href="#mb7374a384b" y="296.49943"/>
      </g>
     </g>
     <g id="text_4">
      <!-- −60000 -->
      <defs>
       <path d="M 33.015625 40.375 
Q 26.375 40.375 22.484375 35.828125 
Q 18.609375 31.296875 18.609375 23.390625 
Q 18.609375 15.53125 22.484375 10.953125 
Q 26.375 6.390625 33.015625 6.390625 
Q 39.65625 6.390625 43.53125 10.953125 
Q 47.40625 15.53125 47.40625 23.390625 
Q 47.40625 31.296875 43.53125 35.828125 
Q 39.65625 40.375 33.015625 40.375 
z
M 52.59375 71.296875 
L 52.59375 62.3125 
Q 48.875 64.0625 45.09375 64.984375 
Q 41.3125 65.921875 37.59375 65.921875 
Q 27.828125 65.921875 22.671875 59.328125 
Q 17.53125 52.734375 16.796875 39.40625 
Q 19.671875 43.65625 24.015625 45.921875 
Q 28.375 48.1875 33.59375 48.1875 
Q 44.578125 48.1875 50.953125 41.515625 
Q 57.328125 34.859375 57.328125 23.390625 
Q 57.328125 12.15625 50.6875 5.359375 
Q 44.046875 -1.421875 33.015625 -1.421875 
Q 20.359375 -1.421875 13.671875 8.265625 
Q 6.984375 17.96875 6.984375 36.375 
Q 6.984375 53.65625 15.1875 63.9375 
Q 23.390625 74.21875 37.203125 74.21875 
Q 40.921875 74.21875 44.703125 73.484375 
Q 48.484375 72.75 52.59375 71.296875 
z
" id="DejaVuSans-54"/>
      </defs>
      <g transform="translate(3.00024 300.298648)scale(0.1 -0.1)">
       <use xlink:href="#DejaVuSans-8722"/>
       <use x="83.789062" xlink:href="#DejaVuSans-54"/>
       <use x="147.412109" xlink:href="#DejaVuSans-48"/>
       <use x="211.035156" xlink:href="#DejaVuSans-48"/>
       <use x="274.658203" xlink:href="#DejaVuSans-48"/>
       <use x="338.28125" xlink:href="#DejaVuSans-48"/>
      </g>
     </g>
    </g>
    <g id="ytick_2">
     <g id="line2d_5">
      <g>
       <use style="stroke:#000000;stroke-width:0.8;" x="50.192428" xlink:href="#mb7374a384b" y="247.83971"/>
      </g>
     </g>
     <g id="text_5">
      <!-- −40000 -->
      <defs>
       <path d="M 37.796875 64.3125 
L 12.890625 25.390625 
L 37.796875 25.390625 
z
M 35.203125 72.90625 
L 47.609375 72.90625 
L 47.609375 25.390625 
L 58.015625 25.390625 
L 58.015625 17.1875 
L 47.609375 17.1875 
L 47.609375 0 
L 37.796875 0 
L 37.796875 17.1875 
L 4.890625 17.1875 
L 4.890625 26.703125 
z
" id="DejaVuSans-52"/>
      </defs>
      <g transform="translate(3.00024 251.638929)scale(0.1 -0.1)">
       <use xlink:href="#DejaVuSans-8722"/>
       <use x="83.789062" xlink:href="#DejaVuSans-52"/>
       <use x="147.412109" xlink:href="#DejaVuSans-48"/>
       <use x="211.035156" xlink:href="#DejaVuSans-48"/>
       <use x="274.658203" xlink:href="#DejaVuSans-48"/>
       <use x="338.28125" xlink:href="#DejaVuSans-48"/>
      </g>
     </g>
    </g>
    <g id="ytick_3">
     <g id="line2d_6">
      <g>
       <use style="stroke:#000000;stroke-width:0.8;" x="50.192428" xlink:href="#mb7374a384b" y="199.179991"/>
      </g>
     </g>
     <g id="text_6">
      <!-- −20000 -->
      <g transform="translate(3.00024 202.979209)scale(0.1 -0.1)">
       <use xlink:href="#DejaVuSans-8722"/>
       <use x="83.789062" xlink:href="#DejaVuSans-50"/>
       <use x="147.412109" xlink:href="#DejaVuSans-48"/>
       <use x="211.035156" xlink:href="#DejaVuSans-48"/>
       <use x="274.658203" xlink:href="#DejaVuSans-48"/>
       <use x="338.28125" xlink:href="#DejaVuSans-48"/>
      </g>
     </g>
    </g>
    <g id="ytick_4">
     <g id="line2d_7">
      <g>
       <use style="stroke:#000000;stroke-width:0.8;" x="50.192428" xlink:href="#mb7374a384b" y="150.520271"/>
      </g>
     </g>
     <g id="text_7">
      <!-- 0 -->
      <g transform="translate(36.829928 154.31949)scale(0.1 -0.1)">
       <use xlink:href="#DejaVuSans-48"/>
      </g>
     </g>
    </g>
    <g id="ytick_5">
     <g id="line2d_8">
      <g>
       <use style="stroke:#000000;stroke-width:0.8;" x="50.192428" xlink:href="#mb7374a384b" y="101.860552"/>
      </g>
     </g>
     <g id="text_8">
      <!-- 20000 -->
      <g transform="translate(11.379928 105.65977)scale(0.1 -0.1)">
       <use xlink:href="#DejaVuSans-50"/>
       <use x="63.623047" xlink:href="#DejaVuSans-48"/>
       <use x="127.246094" xlink:href="#DejaVuSans-48"/>
       <use x="190.869141" xlink:href="#DejaVuSans-48"/>
       <use x="254.492188" xlink:href="#DejaVuSans-48"/>
      </g>
     </g>
    </g>
    <g id="ytick_6">
     <g id="line2d_9">
      <g>
       <use style="stroke:#000000;stroke-width:0.8;" x="50.192428" xlink:href="#mb7374a384b" y="53.200832"/>
      </g>
     </g>
     <g id="text_9">
      <!-- 40000 -->
      <g transform="translate(11.379928 57.000051)scale(0.1 -0.1)">
       <use xlink:href="#DejaVuSans-52"/>
       <use x="63.623047" xlink:href="#DejaVuSans-48"/>
       <use x="127.246094" xlink:href="#DejaVuSans-48"/>
       <use x="190.869141" xlink:href="#DejaVuSans-48"/>
       <use x="254.492188" xlink:href="#DejaVuSans-48"/>
      </g>
     </g>
    </g>
   </g>
   <g id="line2d_10">
    <defs>
     <path d="M 0 3 
C 0.795609 3 1.55874 2.683901 2.12132 2.12132 
C 2.683901 1.55874 3 0.795609 3 0 
C 3 -0.795609 2.683901 -1.55874 2.12132 -2.12132 
C 1.55874 -2.683901 0.795609 -3 0 -3 
C -0.795609 -3 -1.55874 -2.683901 -2.12132 -2.12132 
C -2.683901 -1.55874 -3 -0.795609 -3 0 
C -3 0.795609 -2.683901 1.55874 -2.12132 2.12132 
C -1.55874 2.683901 -0.795609 3 0 3 
z
" id="m6514ecb1ae" style="stroke:#1f77b4;"/>
    </defs>
    <g clip-path="url(#pd534914358)">
     <use style="fill:#1f77b4;stroke:#1f77b4;" x="100.917116" xlink:href="#m6514ecb1ae" y="150.133426"/>
     <use style="fill:#1f77b4;stroke:#1f77b4;" x="164.386958" xlink:href="#m6514ecb1ae" y="150.179653"/>
     <use style="fill:#1f77b4;stroke:#1f77b4;" x="212.501193" xlink:href="#m6514ecb1ae" y="150.520271"/>
     <use style="fill:#1f77b4;stroke:#1f77b4;" x="88.63263" xlink:href="#m6514ecb1ae" y="150.123694"/>
     <use style="fill:#1f77b4;stroke:#1f77b4;" x="135.723158" xlink:href="#m6514ecb1ae" y="150.520271"/>
     <use style="fill:#1f77b4;stroke:#1f77b4;" x="108.083066" xlink:href="#m6514ecb1ae" y="150.520271"/>
     <use style="fill:#1f77b4;stroke:#1f77b4;" x="78.395559" xlink:href="#m6514ecb1ae" y="150.520271"/>
     <use style="fill:#1f77b4;stroke:#1f77b4;" x="65.087366" xlink:href="#m6514ecb1ae" y="150.520271"/>
     <use style="fill:#1f77b4;stroke:#1f77b4;" x="141.865401" xlink:href="#m6514ecb1ae" y="150.123694"/>
     <use style="fill:#1f77b4;stroke:#1f77b4;" x="167.458079" xlink:href="#m6514ecb1ae" y="150.123694"/>
     <use style="fill:#1f77b4;stroke:#1f77b4;" x="126.509794" xlink:href="#m6514ecb1ae" y="150.520271"/>
     <use style="fill:#1f77b4;stroke:#1f77b4;" x="192.02705" xlink:href="#m6514ecb1ae" y="149.727118"/>
     <use style="fill:#1f77b4;stroke:#1f77b4;" x="111.154187" xlink:href="#m6514ecb1ae" y="150.520271"/>
     <use style="fill:#1f77b4;stroke:#1f77b4;" x="118.320137" xlink:href="#m6514ecb1ae" y="150.520271"/>
     <use style="fill:#1f77b4;stroke:#1f77b4;" x="77.371852" xlink:href="#m6514ecb1ae" y="150.520271"/>
     <use style="fill:#1f77b4;stroke:#1f77b4;" x="122.414966" xlink:href="#m6514ecb1ae" y="150.520271"/>
     <use style="fill:#1f77b4;stroke:#1f77b4;" x="155.173594" xlink:href="#m6514ecb1ae" y="150.520271"/>
     <use style="fill:#1f77b4;stroke:#1f77b4;" x="141.865401" xlink:href="#m6514ecb1ae" y="150.520271"/>
     <use style="fill:#1f77b4;stroke:#1f77b4;" x="86.585216" xlink:href="#m6514ecb1ae" y="150.520271"/>
     <use style="fill:#1f77b4;stroke:#1f77b4;" x="67.134781" xlink:href="#m6514ecb1ae" y="150.520271"/>
     <use style="fill:#1f77b4;stroke:#1f77b4;" x="167.458079" xlink:href="#m6514ecb1ae" y="150.520271"/>
     <use style="fill:#1f77b4;stroke:#1f77b4;" x="57.921416" xlink:href="#m6514ecb1ae" y="150.123694"/>
     <use style="fill:#1f77b4;stroke:#1f77b4;" x="94.774873" xlink:href="#m6514ecb1ae" y="150.520271"/>
     <use style="fill:#1f77b4;stroke:#1f77b4;" x="118.320137" xlink:href="#m6514ecb1ae" y="150.123694"/>
     <use style="fill:#1f77b4;stroke:#1f77b4;" x="92.727459" xlink:href="#m6514ecb1ae" y="149.727118"/>
     <use style="fill:#1f77b4;stroke:#1f77b4;" x="73.277023" xlink:href="#m6514ecb1ae" y="150.520271"/>
     <use style="fill:#1f77b4;stroke:#1f77b4;" x="76.348145" xlink:href="#m6514ecb1ae" y="150.520271"/>
     <use style="fill:#1f77b4;stroke:#1f77b4;" x="120.367551" xlink:href="#m6514ecb1ae" y="150.184519"/>
     <use style="fill:#1f77b4;stroke:#1f77b4;" x="85.561509" xlink:href="#m6514ecb1ae" y="150.520271"/>
     <use style="fill:#1f77b4;stroke:#1f77b4;" x="108.083066" xlink:href="#m6514ecb1ae" y="149.727118"/>
    </g>
   </g>
   <g id="line2d_11">
    <path clip-path="url(#pd534914358)" d="M 142.889108 125.879323 
L 143.794971 103.3067 
L 144.631152 87.930677 
L 145.32797 78.774317 
L 145.955106 73.137058 
L 146.51256 70.031184 
L 146.930651 68.791299 
L 147.209378 68.451065 
L 147.418423 68.438915 
L 147.627468 68.626959 
L 147.906195 69.176471 
L 148.324286 70.605824 
L 148.812058 73.121366 
L 149.439194 77.554621 
L 150.275375 85.245708 
L 151.320602 97.06301 
L 152.992964 118.910724 
L 155.362144 149.564973 
L 156.546734 161.960819 
L 157.522279 170.003468 
L 158.35846 175.17986 
L 159.055278 178.187927 
L 159.612732 179.688171 
L 160.030823 180.260633 
L 160.30955 180.370467 
L 160.588277 180.257501 
L 160.936686 179.795987 
L 161.354776 178.760553 
L 161.842549 176.86892 
L 162.400003 173.775445 
L 163.096821 168.457395 
L 163.86332 160.665084 
L 164.699501 149.73471 
L 165.884091 133.576018 
L 166.302182 130.731969 
L 166.511227 130.377977 
L 166.650591 130.617256 
L 166.859636 131.776033 
L 167.138363 134.996735 
L 167.486772 142.106926 
L 167.974544 157.820753 
L 169.298498 199.190435 
L 170.55277 231.719703 
L 171.73736 256.833337 
L 172.852268 275.781328 
L 173.827813 288.842955 
L 174.733676 298.193405 
L 175.569857 304.575426 
L 176.266674 308.326898 
L 176.89381 310.542133 
L 177.381583 311.535816 
L 177.729992 311.868408 
L 178.008719 311.914343 
L 178.287446 311.769058 
L 178.635854 311.324816 
L 179.053945 310.417136 
L 179.611399 308.594031 
L 180.238535 305.743526 
L 181.005035 301.175958 
L 181.910898 294.351482 
L 182.956124 284.732394 
L 184.210396 271.01478 
L 185.673713 252.486332 
L 187.555121 225.585672 
L 190.203028 184.134679 
L 194.941388 109.75286 
L 196.892477 82.907674 
L 198.425476 64.753824 
L 199.679748 52.348874 
L 200.724975 43.986276 
L 201.630837 38.370331 
L 202.397337 34.912088 
L 203.024473 33.028342 
L 203.512245 32.18406 
L 203.860654 31.927104 
L 204.139381 31.935372 
L 204.418108 32.138171 
L 204.766517 32.671498 
L 205.184608 33.732515 
L 205.67238 35.56842 
L 206.299516 38.909185 
L 206.996334 43.967554 
L 207.762833 51.242962 
L 208.599014 61.321922 
L 209.504877 74.888624 
L 210.550104 94.144339 
L 211.665012 119.171206 
L 212.501193 141.136048 
L 212.501193 141.136048 
" style="fill:none;stroke:#ff7f0e;stroke-dasharray:5.55,2.4;stroke-dashoffset:0;stroke-width:1.5;"/>
   </g>
   <g id="line2d_12">
    <defs>
     <path d="M 0 3 
C 0.795609 3 1.55874 2.683901 2.12132 2.12132 
C 2.683901 1.55874 3 0.795609 3 0 
C 3 -0.795609 2.683901 -1.55874 2.12132 -2.12132 
C 1.55874 -2.683901 0.795609 -3 0 -3 
C -0.795609 -3 -1.55874 -2.683901 -2.12132 -2.12132 
C -2.683901 -1.55874 -3 -0.795609 -3 0 
C -3 0.795609 -2.683901 1.55874 -2.12132 2.12132 
C -1.55874 2.683901 -0.795609 3 0 3 
z
" id="med6d1ec5bb" style="stroke:#2ca02c;"/>
    </defs>
    <g clip-path="url(#pd534914358)">
     <use style="fill:#2ca02c;stroke:#2ca02c;" x="125.486087" xlink:href="#med6d1ec5bb" y="150.167488"/>
     <use style="fill:#2ca02c;stroke:#2ca02c;" x="97.845994" xlink:href="#med6d1ec5bb" y="149.727118"/>
     <use style="fill:#2ca02c;stroke:#2ca02c;" x="59.968831" xlink:href="#med6d1ec5bb" y="150.272107"/>
     <use style="fill:#2ca02c;stroke:#2ca02c;" x="125.486087" xlink:href="#med6d1ec5bb" y="150.123694"/>
     <use style="fill:#2ca02c;stroke:#2ca02c;" x="119.343844" xlink:href="#med6d1ec5bb" y="150.520271"/>
     <use style="fill:#2ca02c;stroke:#2ca02c;" x="135.723158" xlink:href="#med6d1ec5bb" y="150.520271"/>
     <use style="fill:#2ca02c;stroke:#2ca02c;" x="112.177894" xlink:href="#med6d1ec5bb" y="150.520271"/>
     <use style="fill:#2ca02c;stroke:#2ca02c;" x="130.604623" xlink:href="#med6d1ec5bb" y="150.520271"/>
     <use style="fill:#2ca02c;stroke:#2ca02c;" x="172.576615" xlink:href="#med6d1ec5bb" y="150.520271"/>
     <use style="fill:#2ca02c;stroke:#2ca02c;" x="91.703752" xlink:href="#med6d1ec5bb" y="150.520271"/>
     <use style="fill:#2ca02c;stroke:#2ca02c;" x="127.533501" xlink:href="#med6d1ec5bb" y="150.123694"/>
     <use style="fill:#2ca02c;stroke:#2ca02c;" x="175.647736" xlink:href="#med6d1ec5bb" y="150.520271"/>
     <use style="fill:#2ca02c;stroke:#2ca02c;" x="194.074465" xlink:href="#med6d1ec5bb" y="150.123694"/>
     <use style="fill:#2ca02c;stroke:#2ca02c;" x="95.79858" xlink:href="#med6d1ec5bb" y="150.520271"/>
     <use style="fill:#2ca02c;stroke:#2ca02c;" x="152.102472" xlink:href="#med6d1ec5bb" y="150.123694"/>
     <use style="fill:#2ca02c;stroke:#2ca02c;" x="88.63263" xlink:href="#med6d1ec5bb" y="150.520271"/>
     <use style="fill:#2ca02c;stroke:#2ca02c;" x="160.292129" xlink:href="#med6d1ec5bb" y="150.520271"/>
     <use style="fill:#2ca02c;stroke:#2ca02c;" x="143.912815" xlink:href="#med6d1ec5bb" y="150.520271"/>
     <use style="fill:#2ca02c;stroke:#2ca02c;" x="110.13048" xlink:href="#med6d1ec5bb" y="150.218581"/>
     <use style="fill:#2ca02c;stroke:#2ca02c;" x="134.699451" xlink:href="#med6d1ec5bb" y="149.727118"/>
     <use style="fill:#2ca02c;stroke:#2ca02c;" x="169.505494" xlink:href="#med6d1ec5bb" y="150.34023"/>
     <use style="fill:#2ca02c;stroke:#2ca02c;" x="189.979636" xlink:href="#med6d1ec5bb" y="150.520271"/>
     <use style="fill:#2ca02c;stroke:#2ca02c;" x="77.371852" xlink:href="#med6d1ec5bb" y="150.520271"/>
     <use style="fill:#2ca02c;stroke:#2ca02c;" x="122.414966" xlink:href="#med6d1ec5bb" y="150.520271"/>
     <use style="fill:#2ca02c;stroke:#2ca02c;" x="201.240415" xlink:href="#med6d1ec5bb" y="150.123694"/>
     <use style="fill:#2ca02c;stroke:#2ca02c;" x="85.561509" xlink:href="#med6d1ec5bb" y="150.520271"/>
     <use style="fill:#2ca02c;stroke:#2ca02c;" x="84.537802" xlink:href="#med6d1ec5bb" y="150.520271"/>
     <use style="fill:#2ca02c;stroke:#2ca02c;" x="159.268422" xlink:href="#med6d1ec5bb" y="150.520271"/>
     <use style="fill:#2ca02c;stroke:#2ca02c;" x="95.79858" xlink:href="#med6d1ec5bb" y="150.520271"/>
     <use style="fill:#2ca02c;stroke:#2ca02c;" x="125.486087" xlink:href="#med6d1ec5bb" y="149.977715"/>
    </g>
   </g>
   <g id="line2d_13">
    <path clip-path="url(#pd534914358)" d="M 142.889108 150.91204 
L 145.050268 150.298858 
L 146.860969 150.035534 
L 149.022128 149.956525 
L 152.001024 150.096331 
L 159.477468 150.518497 
L 163.15728 150.447588 
L 169.17348 150.316506 
L 185.236152 150.667869 
L 189.383242 150.575294 
L 193.004645 150.259686 
L 197.560603 149.890902 
L 199.896991 149.927591 
L 201.240415 150.06953 
L 201.240415 150.06953 
" style="fill:none;stroke:#d62728;stroke-dasharray:5.55,2.4;stroke-dashoffset:0;stroke-width:1.5;"/>
   </g>
   <g id="line2d_14">
    <defs>
     <path d="M 0 3 
C 0.795609 3 1.55874 2.683901 2.12132 2.12132 
C 2.683901 1.55874 3 0.795609 3 0 
C 3 -0.795609 2.683901 -1.55874 2.12132 -2.12132 
C 1.55874 -2.683901 0.795609 -3 0 -3 
C -0.795609 -3 -1.55874 -2.683901 -2.12132 -2.12132 
C -2.683901 -1.55874 -3 -0.795609 -3 0 
C -3 0.795609 -2.683901 1.55874 -2.12132 2.12132 
C -1.55874 2.683901 -0.795609 3 0 3 
z
" id="m3ef532dd06" style="stroke:#9467bd;"/>
    </defs>
    <g clip-path="url(#pd534914358)">
     <use style="fill:#9467bd;stroke:#9467bd;" x="175.647736" xlink:href="#m3ef532dd06" y="150.520271"/>
     <use style="fill:#9467bd;stroke:#9467bd;" x="174.624029" xlink:href="#m3ef532dd06" y="149.727118"/>
     <use style="fill:#9467bd;stroke:#9467bd;" x="117.29643" xlink:href="#m3ef532dd06" y="150.520271"/>
     <use style="fill:#9467bd;stroke:#9467bd;" x="137.770573" xlink:href="#m3ef532dd06" y="150.123694"/>
     <use style="fill:#9467bd;stroke:#9467bd;" x="165.410665" xlink:href="#m3ef532dd06" y="150.342663"/>
     <use style="fill:#9467bd;stroke:#9467bd;" x="152.102472" xlink:href="#m3ef532dd06" y="150.123694"/>
     <use style="fill:#9467bd;stroke:#9467bd;" x="150.055058" xlink:href="#m3ef532dd06" y="150.325632"/>
     <use style="fill:#9467bd;stroke:#9467bd;" x="149.031351" xlink:href="#m3ef532dd06" y="150.520271"/>
     <use style="fill:#9467bd;stroke:#9467bd;" x="140.841694" xlink:href="#m3ef532dd06" y="150.520271"/>
     <use style="fill:#9467bd;stroke:#9467bd;" x="115.249016" xlink:href="#m3ef532dd06" y="150.520271"/>
     <use style="fill:#9467bd;stroke:#9467bd;" x="125.486087" xlink:href="#m3ef532dd06" y="150.123694"/>
     <use style="fill:#9467bd;stroke:#9467bd;" x="94.774873" xlink:href="#m3ef532dd06" y="150.194251"/>
     <use style="fill:#9467bd;stroke:#9467bd;" x="155.173594" xlink:href="#m3ef532dd06" y="150.520271"/>
     <use style="fill:#9467bd;stroke:#9467bd;" x="145.96023" xlink:href="#m3ef532dd06" y="150.362127"/>
     <use style="fill:#9467bd;stroke:#9467bd;" x="102.96453" xlink:href="#m3ef532dd06" y="150.520271"/>
     <use style="fill:#9467bd;stroke:#9467bd;" x="85.561509" xlink:href="#m3ef532dd06" y="150.352395"/>
     <use style="fill:#9467bd;stroke:#9467bd;" x="60.992538" xlink:href="#m3ef532dd06" y="150.520271"/>
     <use style="fill:#9467bd;stroke:#9467bd;" x="171.552908" xlink:href="#m3ef532dd06" y="150.520271"/>
     <use style="fill:#9467bd;stroke:#9467bd;" x="68.158488" xlink:href="#m3ef532dd06" y="150.520271"/>
     <use style="fill:#9467bd;stroke:#9467bd;" x="101.940823" xlink:href="#m3ef532dd06" y="150.520271"/>
     <use style="fill:#9467bd;stroke:#9467bd;" x="170.529201" xlink:href="#m3ef532dd06" y="150.349962"/>
     <use style="fill:#9467bd;stroke:#9467bd;" x="133.675744" xlink:href="#m3ef532dd06" y="150.520271"/>
     <use style="fill:#9467bd;stroke:#9467bd;" x="131.62833" xlink:href="#m3ef532dd06" y="150.123694"/>
     <use style="fill:#9467bd;stroke:#9467bd;" x="146.983937" xlink:href="#m3ef532dd06" y="150.520271"/>
     <use style="fill:#9467bd;stroke:#9467bd;" x="94.774873" xlink:href="#m3ef532dd06" y="150.38889"/>
     <use style="fill:#9467bd;stroke:#9467bd;" x="94.774873" xlink:href="#m3ef532dd06" y="150.520271"/>
     <use style="fill:#9467bd;stroke:#9467bd;" x="118.320137" xlink:href="#m3ef532dd06" y="150.332931"/>
     <use style="fill:#9467bd;stroke:#9467bd;" x="163.363251" xlink:href="#m3ef532dd06" y="150.160189"/>
     <use style="fill:#9467bd;stroke:#9467bd;" x="184.861101" xlink:href="#m3ef532dd06" y="150.520271"/>
     <use style="fill:#9467bd;stroke:#9467bd;" x="78.395559" xlink:href="#m3ef532dd06" y="150.520271"/>
    </g>
   </g>
   <g id="line2d_15">
    <path clip-path="url(#pd534914358)" d="M 142.889108 150.474606 
L 145.830089 150.32766 
L 149.401279 150.490447 
L 152.216218 150.116143 
L 153.560666 150.237286 
L 156.54366 150.576903 
L 158.518319 150.478259 
L 163.307915 150.139913 
L 168.18154 150.230031 
L 169.988142 150.220612 
L 171.206548 150.438761 
L 172.004815 150.506761 
L 172.719053 150.290159 
L 174.441627 149.658557 
L 174.987809 149.745839 
L 175.533991 150.087304 
L 176.206215 150.809345 
L 177.088509 152.125928 
L 178.937126 155.428772 
L 180.113518 157.255796 
L 180.86977 158.055741 
L 181.457966 158.380853 
L 181.962134 158.404422 
L 182.424288 158.186292 
L 182.886442 157.709954 
L 183.39061 156.862872 
L 183.978806 155.395467 
L 184.609017 153.18801 
L 184.861101 152.10554 
L 184.861101 152.10554 
" style="fill:none;stroke:#8c564b;stroke-dasharray:5.55,2.4;stroke-dashoffset:0;stroke-width:1.5;"/>
   </g>
   <g id="line2d_16">
    <defs>
     <path d="M 0 3 
C 0.795609 3 1.55874 2.683901 2.12132 2.12132 
C 2.683901 1.55874 3 0.795609 3 0 
C 3 -0.795609 2.683901 -1.55874 2.12132 -2.12132 
C 1.55874 -2.683901 0.795609 -3 0 -3 
C -0.795609 -3 -1.55874 -2.683901 -2.12132 -2.12132 
C -2.683901 -1.55874 -3 -0.795609 -3 0 
C -3 0.795609 -2.683901 1.55874 -2.12132 2.12132 
C -1.55874 2.683901 -0.795609 3 0 3 
z
" id="mc0936058f9" style="stroke:#e377c2;"/>
    </defs>
    <g clip-path="url(#pd534914358)">
     <use style="fill:#e377c2;stroke:#e377c2;" x="99.893409" xlink:href="#mc0936058f9" y="150.520271"/>
     <use style="fill:#e377c2;stroke:#e377c2;" x="116.272723" xlink:href="#mc0936058f9" y="150.520271"/>
     <use style="fill:#e377c2;stroke:#e377c2;" x="142.889108" xlink:href="#mc0936058f9" y="150.123694"/>
     <use style="fill:#e377c2;stroke:#e377c2;" x="92.727459" xlink:href="#mc0936058f9" y="150.520271"/>
     <use style="fill:#e377c2;stroke:#e377c2;" x="115.249016" xlink:href="#mc0936058f9" y="150.520271"/>
     <use style="fill:#e377c2;stroke:#e377c2;" x="167.458079" xlink:href="#mc0936058f9" y="150.520271"/>
     <use style="fill:#e377c2;stroke:#e377c2;" x="130.604623" xlink:href="#mc0936058f9" y="150.520271"/>
     <use style="fill:#e377c2;stroke:#e377c2;" x="143.912815" xlink:href="#mc0936058f9" y="149.727118"/>
     <use style="fill:#e377c2;stroke:#e377c2;" x="154.149887" xlink:href="#mc0936058f9" y="150.520271"/>
     <use style="fill:#e377c2;stroke:#e377c2;" x="92.727459" xlink:href="#mc0936058f9" y="150.520271"/>
     <use style="fill:#e377c2;stroke:#e377c2;" x="176.671444" xlink:href="#mc0936058f9" y="150.520271"/>
     <use style="fill:#e377c2;stroke:#e377c2;" x="169.505494" xlink:href="#mc0936058f9" y="150.483776"/>
     <use style="fill:#e377c2;stroke:#e377c2;" x="154.149887" xlink:href="#mc0936058f9" y="150.520271"/>
     <use style="fill:#e377c2;stroke:#e377c2;" x="165.410665" xlink:href="#mc0936058f9" y="150.520271"/>
     <use style="fill:#e377c2;stroke:#e377c2;" x="85.561509" xlink:href="#mc0936058f9" y="150.520271"/>
     <use style="fill:#e377c2;stroke:#e377c2;" x="113.201601" xlink:href="#mc0936058f9" y="150.403488"/>
     <use style="fill:#e377c2;stroke:#e377c2;" x="166.434372" xlink:href="#mc0936058f9" y="149.727118"/>
     <use style="fill:#e377c2;stroke:#e377c2;" x="122.414966" xlink:href="#mc0936058f9" y="150.520271"/>
     <use style="fill:#e377c2;stroke:#e377c2;" x="125.486087" xlink:href="#mc0936058f9" y="150.439983"/>
     <use style="fill:#e377c2;stroke:#e377c2;" x="119.343844" xlink:href="#mc0936058f9" y="150.41322"/>
     <use style="fill:#e377c2;stroke:#e377c2;" x="141.865401" xlink:href="#mc0936058f9" y="150.520271"/>
     <use style="fill:#e377c2;stroke:#e377c2;" x="138.79428" xlink:href="#mc0936058f9" y="150.123694"/>
     <use style="fill:#e377c2;stroke:#e377c2;" x="117.29643" xlink:href="#mc0936058f9" y="150.123694"/>
     <use style="fill:#e377c2;stroke:#e377c2;" x="96.822287" xlink:href="#mc0936058f9" y="150.520271"/>
     <use style="fill:#e377c2;stroke:#e377c2;" x="90.680045" xlink:href="#mc0936058f9" y="150.520271"/>
     <use style="fill:#e377c2;stroke:#e377c2;" x="126.509794" xlink:href="#mc0936058f9" y="150.520271"/>
     <use style="fill:#e377c2;stroke:#e377c2;" x="79.419266" xlink:href="#mc0936058f9" y="150.520271"/>
     <use style="fill:#e377c2;stroke:#e377c2;" x="164.386958" xlink:href="#mc0936058f9" y="150.520271"/>
     <use style="fill:#e377c2;stroke:#e377c2;" x="108.083066" xlink:href="#mc0936058f9" y="150.123694"/>
     <use style="fill:#e377c2;stroke:#e377c2;" x="176.671444" xlink:href="#mc0936058f9" y="150.123694"/>
    </g>
   </g>
   <g id="line2d_17">
    <path clip-path="url(#pd534914358)" d="M 142.889108 150.213805 
L 144.444651 149.643036 
L 145.459136 149.532235 
L 146.642701 149.633761 
L 148.198244 150.007616 
L 151.579859 150.883417 
L 152.763424 150.925888 
L 153.777909 150.746291 
L 154.927658 150.287255 
L 156.449385 149.801077 
L 158.004928 149.538128 
L 159.628103 149.490181 
L 161.352727 149.66248 
L 163.246431 150.078366 
L 165.512114 150.60993 
L 165.884091 150.344446 
L 166.628047 149.726015 
L 166.898576 149.808349 
L 167.47345 150.375929 
L 167.811612 150.515123 
L 168.082141 150.36075 
L 168.690832 149.631011 
L 169.096626 149.33875 
L 169.333339 149.415706 
L 169.570052 149.765952 
L 169.840581 150.595083 
L 170.212559 152.577358 
L 170.753617 156.912117 
L 171.565205 165.508019 
L 173.289828 184.071092 
L 173.864703 187.89021 
L 174.236681 189.167912 
L 174.473394 189.390813 
L 174.642474 189.237091 
L 174.845371 188.680934 
L 175.149717 187.024014 
L 175.521694 183.526003 
L 175.961304 177.065183 
L 176.468547 166.099537 
L 176.671444 160.561 
L 176.671444 160.561 
" style="fill:none;stroke:#7f7f7f;stroke-dasharray:5.55,2.4;stroke-dashoffset:0;stroke-width:1.5;"/>
   </g>
   <g id="patch_3">
    <path d="M 50.192428 325.921635 
L 50.192428 17.90649 
" style="fill:none;stroke:#000000;stroke-linecap:square;stroke-linejoin:miter;stroke-width:0.8;"/>
   </g>
   <g id="patch_4">
    <path d="M 220.230182 325.921635 
L 220.230182 17.90649 
" style="fill:none;stroke:#000000;stroke-linecap:square;stroke-linejoin:miter;stroke-width:0.8;"/>
   </g>
   <g id="patch_5">
    <path d="M 50.192428 325.921635 
L 220.230182 325.921635 
" style="fill:none;stroke:#000000;stroke-linecap:square;stroke-linejoin:miter;stroke-width:0.8;"/>
   </g>
   <g id="patch_6">
    <path d="M 50.192428 17.90649 
L 220.230182 17.90649 
" style="fill:none;stroke:#000000;stroke-linecap:square;stroke-linejoin:miter;stroke-width:0.8;"/>
   </g>
   <g id="text_10">
    <!-- tau_m=6.522977622582197 -->
    <defs>
     <path d="M 18.3125 70.21875 
L 18.3125 54.6875 
L 36.8125 54.6875 
L 36.8125 47.703125 
L 18.3125 47.703125 
L 18.3125 18.015625 
Q 18.3125 11.328125 20.140625 9.421875 
Q 21.96875 7.515625 27.59375 7.515625 
L 36.8125 7.515625 
L 36.8125 0 
L 27.59375 0 
Q 17.1875 0 13.234375 3.875 
Q 9.28125 7.765625 9.28125 18.015625 
L 9.28125 47.703125 
L 2.6875 47.703125 
L 2.6875 54.6875 
L 9.28125 54.6875 
L 9.28125 70.21875 
z
" id="DejaVuSans-116"/>
     <path d="M 34.28125 27.484375 
Q 23.390625 27.484375 19.1875 25 
Q 14.984375 22.515625 14.984375 16.5 
Q 14.984375 11.71875 18.140625 8.90625 
Q 21.296875 6.109375 26.703125 6.109375 
Q 34.1875 6.109375 38.703125 11.40625 
Q 43.21875 16.703125 43.21875 25.484375 
L 43.21875 27.484375 
z
M 52.203125 31.203125 
L 52.203125 0 
L 43.21875 0 
L 43.21875 8.296875 
Q 40.140625 3.328125 35.546875 0.953125 
Q 30.953125 -1.421875 24.3125 -1.421875 
Q 15.921875 -1.421875 10.953125 3.296875 
Q 6 8.015625 6 15.921875 
Q 6 25.140625 12.171875 29.828125 
Q 18.359375 34.515625 30.609375 34.515625 
L 43.21875 34.515625 
L 43.21875 35.40625 
Q 43.21875 41.609375 39.140625 45 
Q 35.0625 48.390625 27.6875 48.390625 
Q 23 48.390625 18.546875 47.265625 
Q 14.109375 46.140625 10.015625 43.890625 
L 10.015625 52.203125 
Q 14.9375 54.109375 19.578125 55.046875 
Q 24.21875 56 28.609375 56 
Q 40.484375 56 46.34375 49.84375 
Q 52.203125 43.703125 52.203125 31.203125 
z
" id="DejaVuSans-97"/>
     <path d="M 8.5 21.578125 
L 8.5 54.6875 
L 17.484375 54.6875 
L 17.484375 21.921875 
Q 17.484375 14.15625 20.5 10.265625 
Q 23.53125 6.390625 29.59375 6.390625 
Q 36.859375 6.390625 41.078125 11.03125 
Q 45.3125 15.671875 45.3125 23.6875 
L 45.3125 54.6875 
L 54.296875 54.6875 
L 54.296875 0 
L 45.3125 0 
L 45.3125 8.40625 
Q 42.046875 3.421875 37.71875 1 
Q 33.40625 -1.421875 27.6875 -1.421875 
Q 18.265625 -1.421875 13.375 4.4375 
Q 8.5 10.296875 8.5 21.578125 
z
M 31.109375 56 
z
" id="DejaVuSans-117"/>
     <path d="M 50.984375 -16.609375 
L 50.984375 -23.578125 
L -0.984375 -23.578125 
L -0.984375 -16.609375 
z
" id="DejaVuSans-95"/>
     <path d="M 52 44.1875 
Q 55.375 50.25 60.0625 53.125 
Q 64.75 56 71.09375 56 
Q 79.640625 56 84.28125 50.015625 
Q 88.921875 44.046875 88.921875 33.015625 
L 88.921875 0 
L 79.890625 0 
L 79.890625 32.71875 
Q 79.890625 40.578125 77.09375 44.375 
Q 74.3125 48.1875 68.609375 48.1875 
Q 61.625 48.1875 57.5625 43.546875 
Q 53.515625 38.921875 53.515625 30.90625 
L 53.515625 0 
L 44.484375 0 
L 44.484375 32.71875 
Q 44.484375 40.625 41.703125 44.40625 
Q 38.921875 48.1875 33.109375 48.1875 
Q 26.21875 48.1875 22.15625 43.53125 
Q 18.109375 38.875 18.109375 30.90625 
L 18.109375 0 
L 9.078125 0 
L 9.078125 54.6875 
L 18.109375 54.6875 
L 18.109375 46.1875 
Q 21.1875 51.21875 25.484375 53.609375 
Q 29.78125 56 35.6875 56 
Q 41.65625 56 45.828125 52.96875 
Q 50 49.953125 52 44.1875 
z
" id="DejaVuSans-109"/>
     <path d="M 10.59375 45.40625 
L 73.1875 45.40625 
L 73.1875 37.203125 
L 10.59375 37.203125 
z
M 10.59375 25.484375 
L 73.1875 25.484375 
L 73.1875 17.1875 
L 10.59375 17.1875 
z
" id="DejaVuSans-61"/>
     <path d="M 10.6875 12.40625 
L 21 12.40625 
L 21 0 
L 10.6875 0 
z
" id="DejaVuSans-46"/>
     <path d="M 10.796875 72.90625 
L 49.515625 72.90625 
L 49.515625 64.59375 
L 19.828125 64.59375 
L 19.828125 46.734375 
Q 21.96875 47.46875 24.109375 47.828125 
Q 26.265625 48.1875 28.421875 48.1875 
Q 40.625 48.1875 47.75 41.5 
Q 54.890625 34.8125 54.890625 23.390625 
Q 54.890625 11.625 47.5625 5.09375 
Q 40.234375 -1.421875 26.90625 -1.421875 
Q 22.3125 -1.421875 17.546875 -0.640625 
Q 12.796875 0.140625 7.71875 1.703125 
L 7.71875 11.625 
Q 12.109375 9.234375 16.796875 8.0625 
Q 21.484375 6.890625 26.703125 6.890625 
Q 35.15625 6.890625 40.078125 11.328125 
Q 45.015625 15.765625 45.015625 23.390625 
Q 45.015625 31 40.078125 35.4375 
Q 35.15625 39.890625 26.703125 39.890625 
Q 22.75 39.890625 18.8125 39.015625 
Q 14.890625 38.140625 10.796875 36.28125 
z
" id="DejaVuSans-53"/>
     <path d="M 10.984375 1.515625 
L 10.984375 10.5 
Q 14.703125 8.734375 18.5 7.8125 
Q 22.3125 6.890625 25.984375 6.890625 
Q 35.75 6.890625 40.890625 13.453125 
Q 46.046875 20.015625 46.78125 33.40625 
Q 43.953125 29.203125 39.59375 26.953125 
Q 35.25 24.703125 29.984375 24.703125 
Q 19.046875 24.703125 12.671875 31.3125 
Q 6.296875 37.9375 6.296875 49.421875 
Q 6.296875 60.640625 12.9375 67.421875 
Q 19.578125 74.21875 30.609375 74.21875 
Q 43.265625 74.21875 49.921875 64.515625 
Q 56.59375 54.828125 56.59375 36.375 
Q 56.59375 19.140625 48.40625 8.859375 
Q 40.234375 -1.421875 26.421875 -1.421875 
Q 22.703125 -1.421875 18.890625 -0.6875 
Q 15.09375 0.046875 10.984375 1.515625 
z
M 30.609375 32.421875 
Q 37.25 32.421875 41.125 36.953125 
Q 45.015625 41.5 45.015625 49.421875 
Q 45.015625 57.28125 41.125 61.84375 
Q 37.25 66.40625 30.609375 66.40625 
Q 23.96875 66.40625 20.09375 61.84375 
Q 16.21875 57.28125 16.21875 49.421875 
Q 16.21875 41.5 20.09375 36.953125 
Q 23.96875 32.421875 30.609375 32.421875 
z
" id="DejaVuSans-57"/>
     <path d="M 8.203125 72.90625 
L 55.078125 72.90625 
L 55.078125 68.703125 
L 28.609375 0 
L 18.3125 0 
L 43.21875 64.59375 
L 8.203125 64.59375 
z
" id="DejaVuSans-55"/>
     <path d="M 31.78125 34.625 
Q 24.75 34.625 20.71875 30.859375 
Q 16.703125 27.09375 16.703125 20.515625 
Q 16.703125 13.921875 20.71875 10.15625 
Q 24.75 6.390625 31.78125 6.390625 
Q 38.8125 6.390625 42.859375 10.171875 
Q 46.921875 13.96875 46.921875 20.515625 
Q 46.921875 27.09375 42.890625 30.859375 
Q 38.875 34.625 31.78125 34.625 
z
M 21.921875 38.8125 
Q 15.578125 40.375 12.03125 44.71875 
Q 8.5 49.078125 8.5 55.328125 
Q 8.5 64.0625 14.71875 69.140625 
Q 20.953125 74.21875 31.78125 74.21875 
Q 42.671875 74.21875 48.875 69.140625 
Q 55.078125 64.0625 55.078125 55.328125 
Q 55.078125 49.078125 51.53125 44.71875 
Q 48 40.375 41.703125 38.8125 
Q 48.828125 37.15625 52.796875 32.3125 
Q 56.78125 27.484375 56.78125 20.515625 
Q 56.78125 9.90625 50.3125 4.234375 
Q 43.84375 -1.421875 31.78125 -1.421875 
Q 19.734375 -1.421875 13.25 4.234375 
Q 6.78125 9.90625 6.78125 20.515625 
Q 6.78125 27.484375 10.78125 32.3125 
Q 14.796875 37.15625 21.921875 38.8125 
z
M 18.3125 54.390625 
Q 18.3125 48.734375 21.84375 45.5625 
Q 25.390625 42.390625 31.78125 42.390625 
Q 38.140625 42.390625 41.71875 45.5625 
Q 45.3125 48.734375 45.3125 54.390625 
Q 45.3125 60.0625 41.71875 63.234375 
Q 38.140625 66.40625 31.78125 66.40625 
Q 25.390625 66.40625 21.84375 63.234375 
Q 18.3125 60.0625 18.3125 54.390625 
z
" id="DejaVuSans-56"/>
     <path d="M 12.40625 8.296875 
L 28.515625 8.296875 
L 28.515625 63.921875 
L 10.984375 60.40625 
L 10.984375 69.390625 
L 28.421875 72.90625 
L 38.28125 72.90625 
L 38.28125 8.296875 
L 54.390625 8.296875 
L 54.390625 0 
L 12.40625 0 
z
" id="DejaVuSans-49"/>
    </defs>
    <g transform="translate(48.52068 11.90649)scale(0.12 -0.12)">
     <use xlink:href="#DejaVuSans-116"/>
     <use x="39.208984" xlink:href="#DejaVuSans-97"/>
     <use x="100.488281" xlink:href="#DejaVuSans-117"/>
     <use x="163.867188" xlink:href="#DejaVuSans-95"/>
     <use x="213.867188" xlink:href="#DejaVuSans-109"/>
     <use x="311.279297" xlink:href="#DejaVuSans-61"/>
     <use x="395.068359" xlink:href="#DejaVuSans-54"/>
     <use x="458.691406" xlink:href="#DejaVuSans-46"/>
     <use x="490.478516" xlink:href="#DejaVuSans-53"/>
     <use x="554.101562" xlink:href="#DejaVuSans-50"/>
     <use x="617.724609" xlink:href="#DejaVuSans-50"/>
     <use x="681.347656" xlink:href="#DejaVuSans-57"/>
     <use x="744.970703" xlink:href="#DejaVuSans-55"/>
     <use x="808.59375" xlink:href="#DejaVuSans-55"/>
     <use x="872.216797" xlink:href="#DejaVuSans-54"/>
     <use x="935.839844" xlink:href="#DejaVuSans-50"/>
     <use x="999.462891" xlink:href="#DejaVuSans-50"/>
     <use x="1063.085938" xlink:href="#DejaVuSans-53"/>
     <use x="1126.708984" xlink:href="#DejaVuSans-56"/>
     <use x="1190.332031" xlink:href="#DejaVuSans-50"/>
     <use x="1253.955078" xlink:href="#DejaVuSans-49"/>
     <use x="1317.578125" xlink:href="#DejaVuSans-57"/>
     <use x="1381.201172" xlink:href="#DejaVuSans-55"/>
    </g>
   </g>
   <g id="legend_1">
    <g id="patch_7">
     <path d="M 57.192428 55.26274 
L 111.717428 55.26274 
Q 113.717428 55.26274 113.717428 53.26274 
L 113.717428 24.90649 
Q 113.717428 22.90649 111.717428 22.90649 
L 57.192428 22.90649 
Q 55.192428 22.90649 55.192428 24.90649 
L 55.192428 53.26274 
Q 55.192428 55.26274 57.192428 55.26274 
z
" style="fill:#ffffff;opacity:0.8;stroke:#cccccc;stroke-linejoin:miter;"/>
    </g>
    <g id="line2d_18"/>
    <g id="line2d_19">
     <g>
      <use style="fill:#1f77b4;stroke:#1f77b4;" x="69.192428" xlink:href="#m6514ecb1ae" y="31.004927"/>
     </g>
    </g>
    <g id="text_11">
     <!-- data -->
     <defs>
      <path d="M 45.40625 46.390625 
L 45.40625 75.984375 
L 54.390625 75.984375 
L 54.390625 0 
L 45.40625 0 
L 45.40625 8.203125 
Q 42.578125 3.328125 38.25 0.953125 
Q 33.9375 -1.421875 27.875 -1.421875 
Q 17.96875 -1.421875 11.734375 6.484375 
Q 5.515625 14.40625 5.515625 27.296875 
Q 5.515625 40.1875 11.734375 48.09375 
Q 17.96875 56 27.875 56 
Q 33.9375 56 38.25 53.625 
Q 42.578125 51.265625 45.40625 46.390625 
z
M 14.796875 27.296875 
Q 14.796875 17.390625 18.875 11.75 
Q 22.953125 6.109375 30.078125 6.109375 
Q 37.203125 6.109375 41.296875 11.75 
Q 45.40625 17.390625 45.40625 27.296875 
Q 45.40625 37.203125 41.296875 42.84375 
Q 37.203125 48.484375 30.078125 48.484375 
Q 22.953125 48.484375 18.875 42.84375 
Q 14.796875 37.203125 14.796875 27.296875 
z
" id="DejaVuSans-100"/>
     </defs>
     <g transform="translate(87.192428 34.504927)scale(0.1 -0.1)">
      <use xlink:href="#DejaVuSans-100"/>
      <use x="63.476562" xlink:href="#DejaVuSans-97"/>
      <use x="124.755859" xlink:href="#DejaVuSans-116"/>
      <use x="163.964844" xlink:href="#DejaVuSans-97"/>
     </g>
    </g>
    <g id="line2d_20">
     <path d="M 59.192428 45.683052 
L 79.192428 45.683052 
" style="fill:none;stroke:#ff7f0e;stroke-dasharray:5.55,2.4;stroke-dashoffset:0;stroke-width:1.5;"/>
    </g>
    <g id="line2d_21"/>
    <g id="text_12">
     <!-- cs -->
     <defs>
      <path d="M 48.78125 52.59375 
L 48.78125 44.1875 
Q 44.96875 46.296875 41.140625 47.34375 
Q 37.3125 48.390625 33.40625 48.390625 
Q 24.65625 48.390625 19.8125 42.84375 
Q 14.984375 37.3125 14.984375 27.296875 
Q 14.984375 17.28125 19.8125 11.734375 
Q 24.65625 6.203125 33.40625 6.203125 
Q 37.3125 6.203125 41.140625 7.25 
Q 44.96875 8.296875 48.78125 10.40625 
L 48.78125 2.09375 
Q 45.015625 0.34375 40.984375 -0.53125 
Q 36.96875 -1.421875 32.421875 -1.421875 
Q 20.0625 -1.421875 12.78125 6.34375 
Q 5.515625 14.109375 5.515625 27.296875 
Q 5.515625 40.671875 12.859375 48.328125 
Q 20.21875 56 33.015625 56 
Q 37.15625 56 41.109375 55.140625 
Q 45.0625 54.296875 48.78125 52.59375 
z
" id="DejaVuSans-99"/>
      <path d="M 44.28125 53.078125 
L 44.28125 44.578125 
Q 40.484375 46.53125 36.375 47.5 
Q 32.28125 48.484375 27.875 48.484375 
Q 21.1875 48.484375 17.84375 46.4375 
Q 14.5 44.390625 14.5 40.28125 
Q 14.5 37.15625 16.890625 35.375 
Q 19.28125 33.59375 26.515625 31.984375 
L 29.59375 31.296875 
Q 39.15625 29.25 43.1875 25.515625 
Q 47.21875 21.78125 47.21875 15.09375 
Q 47.21875 7.46875 41.1875 3.015625 
Q 35.15625 -1.421875 24.609375 -1.421875 
Q 20.21875 -1.421875 15.453125 -0.5625 
Q 10.6875 0.296875 5.421875 2 
L 5.421875 11.28125 
Q 10.40625 8.6875 15.234375 7.390625 
Q 20.0625 6.109375 24.8125 6.109375 
Q 31.15625 6.109375 34.5625 8.28125 
Q 37.984375 10.453125 37.984375 14.40625 
Q 37.984375 18.0625 35.515625 20.015625 
Q 33.0625 21.96875 24.703125 23.78125 
L 21.578125 24.515625 
Q 13.234375 26.265625 9.515625 29.90625 
Q 5.8125 33.546875 5.8125 39.890625 
Q 5.8125 47.609375 11.28125 51.796875 
Q 16.75 56 26.8125 56 
Q 31.78125 56 36.171875 55.265625 
Q 40.578125 54.546875 44.28125 53.078125 
z
" id="DejaVuSans-115"/>
     </defs>
     <g transform="translate(87.192428 49.183052)scale(0.1 -0.1)">
      <use xlink:href="#DejaVuSans-99"/>
      <use x="54.980469" xlink:href="#DejaVuSans-115"/>
     </g>
    </g>
   </g>
  </g>
  <g id="axes_2">
   <g id="patch_8">
    <path d="M 280.987677 325.921635 
L 451.025432 325.921635 
L 451.025432 17.90649 
L 280.987677 17.90649 
z
" style="fill:#ffffff;"/>
   </g>
   <g id="matplotlib.axis_3">
    <g id="xtick_4">
     <g id="line2d_22">
      <g>
       <use style="stroke:#000000;stroke-width:0.8;" x="325.644057" xlink:href="#ma861e27b27" y="325.921635"/>
      </g>
     </g>
     <g id="text_13">
      <!-- −2 -->
      <g transform="translate(318.272964 340.520072)scale(0.1 -0.1)">
       <use xlink:href="#DejaVuSans-8722"/>
       <use x="83.789062" xlink:href="#DejaVuSans-50"/>
      </g>
     </g>
    </g>
    <g id="xtick_5">
     <g id="line2d_23">
      <g>
       <use style="stroke:#000000;stroke-width:0.8;" x="380.605756" xlink:href="#ma861e27b27" y="325.921635"/>
      </g>
     </g>
     <g id="text_14">
      <!-- 0 -->
      <g transform="translate(377.424506 340.520072)scale(0.1 -0.1)">
       <use xlink:href="#DejaVuSans-48"/>
      </g>
     </g>
    </g>
    <g id="xtick_6">
     <g id="line2d_24">
      <g>
       <use style="stroke:#000000;stroke-width:0.8;" x="435.567454" xlink:href="#ma861e27b27" y="325.921635"/>
      </g>
     </g>
     <g id="text_15">
      <!-- 2 -->
      <g transform="translate(432.386204 340.520072)scale(0.1 -0.1)">
       <use xlink:href="#DejaVuSans-50"/>
      </g>
     </g>
    </g>
   </g>
   <g id="matplotlib.axis_4">
    <g id="ytick_7">
     <g id="line2d_25">
      <g>
       <use style="stroke:#000000;stroke-width:0.8;" x="280.987677" xlink:href="#mb7374a384b" y="310.22731"/>
      </g>
     </g>
     <g id="text_16">
      <!-- −10000 -->
      <g transform="translate(233.79549 314.026529)scale(0.1 -0.1)">
       <use xlink:href="#DejaVuSans-8722"/>
       <use x="83.789062" xlink:href="#DejaVuSans-49"/>
       <use x="147.412109" xlink:href="#DejaVuSans-48"/>
       <use x="211.035156" xlink:href="#DejaVuSans-48"/>
       <use x="274.658203" xlink:href="#DejaVuSans-48"/>
       <use x="338.28125" xlink:href="#DejaVuSans-48"/>
      </g>
     </g>
    </g>
    <g id="ytick_8">
     <g id="line2d_26">
      <g>
       <use style="stroke:#000000;stroke-width:0.8;" x="280.987677" xlink:href="#mb7374a384b" y="270.128303"/>
      </g>
     </g>
     <g id="text_17">
      <!-- 0 -->
      <g transform="translate(267.625177 273.927521)scale(0.1 -0.1)">
       <use xlink:href="#DejaVuSans-48"/>
      </g>
     </g>
    </g>
    <g id="ytick_9">
     <g id="line2d_27">
      <g>
       <use style="stroke:#000000;stroke-width:0.8;" x="280.987677" xlink:href="#mb7374a384b" y="230.029295"/>
      </g>
     </g>
     <g id="text_18">
      <!-- 10000 -->
      <g transform="translate(242.175177 233.828514)scale(0.1 -0.1)">
       <use xlink:href="#DejaVuSans-49"/>
       <use x="63.623047" xlink:href="#DejaVuSans-48"/>
       <use x="127.246094" xlink:href="#DejaVuSans-48"/>
       <use x="190.869141" xlink:href="#DejaVuSans-48"/>
       <use x="254.492188" xlink:href="#DejaVuSans-48"/>
      </g>
     </g>
    </g>
    <g id="ytick_10">
     <g id="line2d_28">
      <g>
       <use style="stroke:#000000;stroke-width:0.8;" x="280.987677" xlink:href="#mb7374a384b" y="189.930288"/>
      </g>
     </g>
     <g id="text_19">
      <!-- 20000 -->
      <g transform="translate(242.175177 193.729507)scale(0.1 -0.1)">
       <use xlink:href="#DejaVuSans-50"/>
       <use x="63.623047" xlink:href="#DejaVuSans-48"/>
       <use x="127.246094" xlink:href="#DejaVuSans-48"/>
       <use x="190.869141" xlink:href="#DejaVuSans-48"/>
       <use x="254.492188" xlink:href="#DejaVuSans-48"/>
      </g>
     </g>
    </g>
    <g id="ytick_11">
     <g id="line2d_29">
      <g>
       <use style="stroke:#000000;stroke-width:0.8;" x="280.987677" xlink:href="#mb7374a384b" y="149.831281"/>
      </g>
     </g>
     <g id="text_20">
      <!-- 30000 -->
      <defs>
       <path d="M 40.578125 39.3125 
Q 47.65625 37.796875 51.625 33 
Q 55.609375 28.21875 55.609375 21.1875 
Q 55.609375 10.40625 48.1875 4.484375 
Q 40.765625 -1.421875 27.09375 -1.421875 
Q 22.515625 -1.421875 17.65625 -0.515625 
Q 12.796875 0.390625 7.625 2.203125 
L 7.625 11.71875 
Q 11.71875 9.328125 16.59375 8.109375 
Q 21.484375 6.890625 26.8125 6.890625 
Q 36.078125 6.890625 40.9375 10.546875 
Q 45.796875 14.203125 45.796875 21.1875 
Q 45.796875 27.640625 41.28125 31.265625 
Q 36.765625 34.90625 28.71875 34.90625 
L 20.21875 34.90625 
L 20.21875 43.015625 
L 29.109375 43.015625 
Q 36.375 43.015625 40.234375 45.921875 
Q 44.09375 48.828125 44.09375 54.296875 
Q 44.09375 59.90625 40.109375 62.90625 
Q 36.140625 65.921875 28.71875 65.921875 
Q 24.65625 65.921875 20.015625 65.03125 
Q 15.375 64.15625 9.8125 62.3125 
L 9.8125 71.09375 
Q 15.4375 72.65625 20.34375 73.4375 
Q 25.25 74.21875 29.59375 74.21875 
Q 40.828125 74.21875 47.359375 69.109375 
Q 53.90625 64.015625 53.90625 55.328125 
Q 53.90625 49.265625 50.4375 45.09375 
Q 46.96875 40.921875 40.578125 39.3125 
z
" id="DejaVuSans-51"/>
      </defs>
      <g transform="translate(242.175177 153.6305)scale(0.1 -0.1)">
       <use xlink:href="#DejaVuSans-51"/>
       <use x="63.623047" xlink:href="#DejaVuSans-48"/>
       <use x="127.246094" xlink:href="#DejaVuSans-48"/>
       <use x="190.869141" xlink:href="#DejaVuSans-48"/>
       <use x="254.492188" xlink:href="#DejaVuSans-48"/>
      </g>
     </g>
    </g>
    <g id="ytick_12">
     <g id="line2d_30">
      <g>
       <use style="stroke:#000000;stroke-width:0.8;" x="280.987677" xlink:href="#mb7374a384b" y="109.732274"/>
      </g>
     </g>
     <g id="text_21">
      <!-- 40000 -->
      <g transform="translate(242.175177 113.531493)scale(0.1 -0.1)">
       <use xlink:href="#DejaVuSans-52"/>
       <use x="63.623047" xlink:href="#DejaVuSans-48"/>
       <use x="127.246094" xlink:href="#DejaVuSans-48"/>
       <use x="190.869141" xlink:href="#DejaVuSans-48"/>
       <use x="254.492188" xlink:href="#DejaVuSans-48"/>
      </g>
     </g>
    </g>
    <g id="ytick_13">
     <g id="line2d_31">
      <g>
       <use style="stroke:#000000;stroke-width:0.8;" x="280.987677" xlink:href="#mb7374a384b" y="69.633267"/>
      </g>
     </g>
     <g id="text_22">
      <!-- 50000 -->
      <g transform="translate(242.175177 73.432485)scale(0.1 -0.1)">
       <use xlink:href="#DejaVuSans-53"/>
       <use x="63.623047" xlink:href="#DejaVuSans-48"/>
       <use x="127.246094" xlink:href="#DejaVuSans-48"/>
       <use x="190.869141" xlink:href="#DejaVuSans-48"/>
       <use x="254.492188" xlink:href="#DejaVuSans-48"/>
      </g>
     </g>
    </g>
    <g id="ytick_14">
     <g id="line2d_32">
      <g>
       <use style="stroke:#000000;stroke-width:0.8;" x="280.987677" xlink:href="#mb7374a384b" y="29.534259"/>
      </g>
     </g>
     <g id="text_23">
      <!-- 60000 -->
      <g transform="translate(242.175177 33.333478)scale(0.1 -0.1)">
       <use xlink:href="#DejaVuSans-54"/>
       <use x="63.623047" xlink:href="#DejaVuSans-48"/>
       <use x="127.246094" xlink:href="#DejaVuSans-48"/>
       <use x="190.869141" xlink:href="#DejaVuSans-48"/>
       <use x="254.492188" xlink:href="#DejaVuSans-48"/>
      </g>
     </g>
    </g>
   </g>
   <g id="line2d_33">
    <g clip-path="url(#p782f1a266b)">
     <use style="fill:#1f77b4;stroke:#1f77b4;" x="383.182085" xlink:href="#m6514ecb1ae" y="270.128303"/>
     <use style="fill:#1f77b4;stroke:#1f77b4;" x="338.525706" xlink:href="#m6514ecb1ae" y="270.128303"/>
     <use style="fill:#1f77b4;stroke:#1f77b4;" x="411.521711" xlink:href="#m6514ecb1ae" y="270.128303"/>
     <use style="fill:#1f77b4;stroke:#1f77b4;" x="409.804158" xlink:href="#m6514ecb1ae" y="270.128303"/>
     <use style="fill:#1f77b4;stroke:#1f77b4;" x="320.491398" xlink:href="#m6514ecb1ae" y="270.128303"/>
     <use style="fill:#1f77b4;stroke:#1f77b4;" x="343.678365" xlink:href="#m6514ecb1ae" y="269.502758"/>
     <use style="fill:#1f77b4;stroke:#1f77b4;" x="345.395918" xlink:href="#m6514ecb1ae" y="270.128303"/>
     <use style="fill:#1f77b4;stroke:#1f77b4;" x="357.418789" xlink:href="#m6514ecb1ae" y="270.128303"/>
     <use style="fill:#1f77b4;stroke:#1f77b4;" x="390.052298" xlink:href="#m6514ecb1ae" y="270.128303"/>
     <use style="fill:#1f77b4;stroke:#1f77b4;" x="367.724108" xlink:href="#m6514ecb1ae" y="270.128303"/>
     <use style="fill:#1f77b4;stroke:#1f77b4;" x="372.01799" xlink:href="#m6514ecb1ae" y="269.474689"/>
     <use style="fill:#1f77b4;stroke:#1f77b4;" x="352.26613" xlink:href="#m6514ecb1ae" y="270.128303"/>
     <use style="fill:#1f77b4;stroke:#1f77b4;" x="364.289002" xlink:href="#m6514ecb1ae" y="269.522808"/>
     <use style="fill:#1f77b4;stroke:#1f77b4;" x="348.831024" xlink:href="#m6514ecb1ae" y="270.128303"/>
     <use style="fill:#1f77b4;stroke:#1f77b4;" x="355.701236" xlink:href="#m6514ecb1ae" y="270.128303"/>
     <use style="fill:#1f77b4;stroke:#1f77b4;" x="343.678365" xlink:href="#m6514ecb1ae" y="270.128303"/>
     <use style="fill:#1f77b4;stroke:#1f77b4;" x="370.300437" xlink:href="#m6514ecb1ae" y="269.562907"/>
     <use style="fill:#1f77b4;stroke:#1f77b4;" x="395.204957" xlink:href="#m6514ecb1ae" y="269.474689"/>
     <use style="fill:#1f77b4;stroke:#1f77b4;" x="365.147778" xlink:href="#m6514ecb1ae" y="270.128303"/>
     <use style="fill:#1f77b4;stroke:#1f77b4;" x="350.548577" xlink:href="#m6514ecb1ae" y="270.128303"/>
     <use style="fill:#1f77b4;stroke:#1f77b4;" x="385.758415" xlink:href="#m6514ecb1ae" y="270.128303"/>
     <use style="fill:#1f77b4;stroke:#1f77b4;" x="365.147778" xlink:href="#m6514ecb1ae" y="270.128303"/>
     <use style="fill:#1f77b4;stroke:#1f77b4;" x="388.334745" xlink:href="#m6514ecb1ae" y="269.474689"/>
     <use style="fill:#1f77b4;stroke:#1f77b4;" x="381.464532" xlink:href="#m6514ecb1ae" y="269.474689"/>
     <use style="fill:#1f77b4;stroke:#1f77b4;" x="356.560013" xlink:href="#m6514ecb1ae" y="270.128303"/>
     <use style="fill:#1f77b4;stroke:#1f77b4;" x="362.571449" xlink:href="#m6514ecb1ae" y="270.128303"/>
     <use style="fill:#1f77b4;stroke:#1f77b4;" x="352.26613" xlink:href="#m6514ecb1ae" y="268.989491"/>
     <use style="fill:#1f77b4;stroke:#1f77b4;" x="384.899639" xlink:href="#m6514ecb1ae" y="270.128303"/>
     <use style="fill:#1f77b4;stroke:#1f77b4;" x="359.136342" xlink:href="#m6514ecb1ae" y="269.510778"/>
     <use style="fill:#1f77b4;stroke:#1f77b4;" x="328.220387" xlink:href="#m6514ecb1ae" y="270.128303"/>
    </g>
   </g>
   <g id="line2d_34">
    <path clip-path="url(#p782f1a266b)" d="M 380.605756 269.137792 
L 381.843632 269.547375 
L 383.483818 270.133818 
L 384.412225 270.148376 
L 386.826083 269.902001 
L 388.311535 269.461646 
L 388.930473 269.540126 
L 389.85888 269.93629 
L 390.84918 270.286849 
L 391.777588 270.362425 
L 392.860729 270.219792 
L 394.562809 269.73429 
L 396.574357 269.217897 
L 398.369278 269.010276 
L 400.380826 269.006485 
L 402.887525 269.234703 
L 410.902773 270.1376 
L 411.521711 270.130348 
L 411.521711 270.130348 
" style="fill:none;stroke:#ff7f0e;stroke-dasharray:5.55,2.4;stroke-dashoffset:0;stroke-width:1.5;"/>
   </g>
   <g id="line2d_35">
    <g clip-path="url(#p782f1a266b)">
     <use style="fill:#2ca02c;stroke:#2ca02c;" x="366.865331" xlink:href="#med6d1ec5bb" y="269.939837"/>
     <use style="fill:#2ca02c;stroke:#2ca02c;" x="366.006555" xlink:href="#med6d1ec5bb" y="269.771422"/>
     <use style="fill:#2ca02c;stroke:#2ca02c;" x="407.227829" xlink:href="#med6d1ec5bb" y="269.771422"/>
     <use style="fill:#2ca02c;stroke:#2ca02c;" x="335.949376" xlink:href="#med6d1ec5bb" y="270.128303"/>
     <use style="fill:#2ca02c;stroke:#2ca02c;" x="399.49884" xlink:href="#med6d1ec5bb" y="269.474689"/>
     <use style="fill:#2ca02c;stroke:#2ca02c;" x="288.716666" xlink:href="#med6d1ec5bb" y="270.128303"/>
     <use style="fill:#2ca02c;stroke:#2ca02c;" x="378.029426" xlink:href="#med6d1ec5bb" y="270.128303"/>
     <use style="fill:#2ca02c;stroke:#2ca02c;" x="371.159214" xlink:href="#med6d1ec5bb" y="270.128303"/>
     <use style="fill:#2ca02c;stroke:#2ca02c;" x="420.968253" xlink:href="#med6d1ec5bb" y="269.711273"/>
     <use style="fill:#2ca02c;stroke:#2ca02c;" x="409.804158" xlink:href="#med6d1ec5bb" y="270.128303"/>
     <use style="fill:#2ca02c;stroke:#2ca02c;" x="356.560013" xlink:href="#med6d1ec5bb" y="269.43058"/>
     <use style="fill:#2ca02c;stroke:#2ca02c;" x="329.93794" xlink:href="#med6d1ec5bb" y="270.128303"/>
     <use style="fill:#2ca02c;stroke:#2ca02c;" x="393.487404" xlink:href="#med6d1ec5bb" y="270.128303"/>
     <use style="fill:#2ca02c;stroke:#2ca02c;" x="344.537141" xlink:href="#med6d1ec5bb" y="270.128303"/>
     <use style="fill:#2ca02c;stroke:#2ca02c;" x="396.063734" xlink:href="#med6d1ec5bb" y="270.128303"/>
     <use style="fill:#2ca02c;stroke:#2ca02c;" x="305.892197" xlink:href="#med6d1ec5bb" y="270.128303"/>
     <use style="fill:#2ca02c;stroke:#2ca02c;" x="420.968253" xlink:href="#med6d1ec5bb" y="269.474689"/>
     <use style="fill:#2ca02c;stroke:#2ca02c;" x="359.136342" xlink:href="#med6d1ec5bb" y="270.128303"/>
     <use style="fill:#2ca02c;stroke:#2ca02c;" x="384.040862" xlink:href="#med6d1ec5bb" y="268.821075"/>
     <use style="fill:#2ca02c;stroke:#2ca02c;" x="329.93794" xlink:href="#med6d1ec5bb" y="270.128303"/>
     <use style="fill:#2ca02c;stroke:#2ca02c;" x="345.395918" xlink:href="#med6d1ec5bb" y="270.128303"/>
     <use style="fill:#2ca02c;stroke:#2ca02c;" x="367.724108" xlink:href="#med6d1ec5bb" y="270.128303"/>
     <use style="fill:#2ca02c;stroke:#2ca02c;" x="434.708678" xlink:href="#med6d1ec5bb" y="270.128303"/>
     <use style="fill:#2ca02c;stroke:#2ca02c;" x="398.640063" xlink:href="#med6d1ec5bb" y="269.474689"/>
     <use style="fill:#2ca02c;stroke:#2ca02c;" x="330.796717" xlink:href="#med6d1ec5bb" y="270.128303"/>
     <use style="fill:#2ca02c;stroke:#2ca02c;" x="372.01799" xlink:href="#med6d1ec5bb" y="270.128303"/>
     <use style="fill:#2ca02c;stroke:#2ca02c;" x="365.147778" xlink:href="#med6d1ec5bb" y="270.128303"/>
     <use style="fill:#2ca02c;stroke:#2ca02c;" x="402.075169" xlink:href="#med6d1ec5bb" y="268.821075"/>
     <use style="fill:#2ca02c;stroke:#2ca02c;" x="403.792722" xlink:href="#med6d1ec5bb" y="269.743352"/>
     <use style="fill:#2ca02c;stroke:#2ca02c;" x="386.617192" xlink:href="#med6d1ec5bb" y="270.128303"/>
    </g>
   </g>
   <g id="line2d_36">
    <path clip-path="url(#p782f1a266b)" d="M 380.605756 269.25184 
L 382.230468 268.752625 
L 383.259453 268.66055 
L 384.125966 268.797333 
L 385.046636 269.189558 
L 387.483705 270.36929 
L 388.566846 270.545472 
L 389.866616 270.522855 
L 394.957382 270.181984 
L 396.202995 270.131707 
L 397.286136 269.832626 
L 398.69422 269.473807 
L 400.589718 269.21637 
L 401.943645 268.802407 
L 402.539373 268.880899 
L 403.243415 269.236397 
L 404.976441 270.200893 
L 405.788798 270.356163 
L 406.49284 270.272987 
L 407.196882 269.9525 
L 407.955081 269.334932 
L 408.659123 268.835673 
L 409.038222 268.783118 
L 409.363165 268.938908 
L 409.688107 269.33428 
L 410.067207 270.166847 
L 410.554621 271.896659 
L 411.204505 275.211592 
L 412.071019 280.977422 
L 413.641574 293.342649 
L 415.049658 303.788826 
L 415.862014 308.379346 
L 416.457742 310.676822 
L 416.890999 311.64026 
L 417.215941 311.915246 
L 417.43257 311.866015 
L 417.703355 311.52465 
L 418.028297 310.6779 
L 418.407397 309.043172 
L 418.894811 305.832354 
L 419.436381 300.668266 
L 420.086266 292.032352 
L 420.790308 279.367463 
L 421.548508 261.501977 
L 422.523335 232.611116 
L 423.931419 183.431402 
L 426.639273 87.985194 
L 427.668257 59.738854 
L 428.426457 44.315819 
L 429.022184 36.214728 
L 429.455441 32.878554 
L 429.726226 31.990524 
L 429.888698 31.925367 
L 430.051169 32.224188 
L 430.267797 33.207516 
L 430.59274 35.987993 
L 430.971839 41.315255 
L 431.459253 51.673072 
L 432.000824 68.141142 
L 432.650709 95.340693 
L 433.354751 134.723528 
L 434.11295 189.654848 
L 434.708678 242.621307 
L 434.708678 242.621307 
" style="fill:none;stroke:#d62728;stroke-dasharray:5.55,2.4;stroke-dashoffset:0;stroke-width:1.5;"/>
   </g>
   <g id="line2d_37">
    <g clip-path="url(#p782f1a266b)">
     <use style="fill:#9467bd;stroke:#9467bd;" x="386.617192" xlink:href="#m3ef532dd06" y="268.821075"/>
     <use style="fill:#9467bd;stroke:#9467bd;" x="315.338739" xlink:href="#m3ef532dd06" y="270.128303"/>
     <use style="fill:#9467bd;stroke:#9467bd;" x="408.945382" xlink:href="#m3ef532dd06" y="270.128303"/>
     <use style="fill:#9467bd;stroke:#9467bd;" x="393.487404" xlink:href="#m3ef532dd06" y="270.128303"/>
     <use style="fill:#9467bd;stroke:#9467bd;" x="340.243259" xlink:href="#m3ef532dd06" y="270.128303"/>
     <use style="fill:#9467bd;stroke:#9467bd;" x="373.735544" xlink:href="#m3ef532dd06" y="270.128303"/>
     <use style="fill:#9467bd;stroke:#9467bd;" x="359.136342" xlink:href="#m3ef532dd06" y="270.128303"/>
     <use style="fill:#9467bd;stroke:#9467bd;" x="358.277566" xlink:href="#m3ef532dd06" y="270.128303"/>
     <use style="fill:#9467bd;stroke:#9467bd;" x="443.296443" xlink:href="#m3ef532dd06" y="269.474689"/>
     <use style="fill:#9467bd;stroke:#9467bd;" x="384.040862" xlink:href="#m3ef532dd06" y="270.128303"/>
     <use style="fill:#9467bd;stroke:#9467bd;" x="380.605756" xlink:href="#m3ef532dd06" y="270.128303"/>
     <use style="fill:#9467bd;stroke:#9467bd;" x="366.006555" xlink:href="#m3ef532dd06" y="269.474689"/>
     <use style="fill:#9467bd;stroke:#9467bd;" x="395.204957" xlink:href="#m3ef532dd06" y="269.474689"/>
     <use style="fill:#9467bd;stroke:#9467bd;" x="377.17065" xlink:href="#m3ef532dd06" y="270.128303"/>
     <use style="fill:#9467bd;stroke:#9467bd;" x="385.758415" xlink:href="#m3ef532dd06" y="270.128303"/>
     <use style="fill:#9467bd;stroke:#9467bd;" x="352.26613" xlink:href="#m3ef532dd06" y="270.128303"/>
     <use style="fill:#9467bd;stroke:#9467bd;" x="402.933946" xlink:href="#m3ef532dd06" y="270.128303"/>
     <use style="fill:#9467bd;stroke:#9467bd;" x="370.300437" xlink:href="#m3ef532dd06" y="270.128303"/>
     <use style="fill:#9467bd;stroke:#9467bd;" x="348.831024" xlink:href="#m3ef532dd06" y="270.128303"/>
     <use style="fill:#9467bd;stroke:#9467bd;" x="313.621186" xlink:href="#m3ef532dd06" y="270.128303"/>
     <use style="fill:#9467bd;stroke:#9467bd;" x="376.311873" xlink:href="#m3ef532dd06" y="270.128303"/>
     <use style="fill:#9467bd;stroke:#9467bd;" x="396.063734" xlink:href="#m3ef532dd06" y="268.821075"/>
     <use style="fill:#9467bd;stroke:#9467bd;" x="365.147778" xlink:href="#m3ef532dd06" y="270.128303"/>
     <use style="fill:#9467bd;stroke:#9467bd;" x="335.949376" xlink:href="#m3ef532dd06" y="270.128303"/>
     <use style="fill:#9467bd;stroke:#9467bd;" x="376.311873" xlink:href="#m3ef532dd06" y="270.128303"/>
     <use style="fill:#9467bd;stroke:#9467bd;" x="360.853895" xlink:href="#m3ef532dd06" y="270.128303"/>
     <use style="fill:#9467bd;stroke:#9467bd;" x="334.231823" xlink:href="#m3ef532dd06" y="270.128303"/>
     <use style="fill:#9467bd;stroke:#9467bd;" x="368.582884" xlink:href="#m3ef532dd06" y="270.128303"/>
     <use style="fill:#9467bd;stroke:#9467bd;" x="372.01799" xlink:href="#m3ef532dd06" y="270.128303"/>
     <use style="fill:#9467bd;stroke:#9467bd;" x="345.395918" xlink:href="#m3ef532dd06" y="270.128303"/>
    </g>
   </g>
   <g id="line2d_38">
    <path clip-path="url(#p782f1a266b)" d="M 380.605756 270.132862 
L 383.931688 270.026589 
L 385.626031 270.379912 
L 386.002552 270.08565 
L 386.567333 269.240883 
L 387.320374 268.192892 
L 387.947908 267.711305 
L 388.512689 267.53918 
L 389.140224 267.585222 
L 389.893265 267.891395 
L 390.960074 268.608622 
L 392.779923 269.854328 
L 393.532965 270.103265 
L 394.160499 270.089119 
L 394.850787 269.842615 
L 395.666582 269.303983 
L 396.858897 268.511683 
L 397.674692 268.277067 
L 398.55324 268.269264 
L 399.557295 268.498304 
L 400.937871 269.07397 
L 403.761775 270.309967 
L 405.079598 270.583565 
L 406.460173 270.637048 
L 407.903503 270.463649 
L 409.472339 270.040982 
L 411.166681 269.350215 
L 413.112038 268.313363 
L 415.559422 266.738716 
L 419.575643 263.835347 
L 423.340849 261.210417 
L 425.662726 259.856426 
L 427.545329 259.003126 
L 429.239672 258.476948 
L 430.745755 258.238931 
L 432.126331 258.238523 
L 433.444153 258.455271 
L 434.761975 258.905398 
L 436.017044 259.570237 
L 437.272113 260.483869 
L 438.589935 261.730756 
L 439.907757 263.292853 
L 441.288333 265.290255 
L 442.668909 267.6807 
L 443.296443 268.903714 
L 443.296443 268.903714 
" style="fill:none;stroke:#8c564b;stroke-dasharray:5.55,2.4;stroke-dashoffset:0;stroke-width:1.5;"/>
   </g>
   <g id="line2d_39">
    <g clip-path="url(#p782f1a266b)">
     <use style="fill:#e377c2;stroke:#e377c2;" x="345.395918" xlink:href="#mc0936058f9" y="269.811521"/>
     <use style="fill:#e377c2;stroke:#e377c2;" x="388.334745" xlink:href="#mc0936058f9" y="270.128303"/>
     <use style="fill:#e377c2;stroke:#e377c2;" x="384.040862" xlink:href="#mc0936058f9" y="270.128303"/>
     <use style="fill:#e377c2;stroke:#e377c2;" x="429.556018" xlink:href="#mc0936058f9" y="270.128303"/>
     <use style="fill:#e377c2;stroke:#e377c2;" x="340.243259" xlink:href="#mc0936058f9" y="270.128303"/>
     <use style="fill:#e377c2;stroke:#e377c2;" x="323.926504" xlink:href="#mc0936058f9" y="270.128303"/>
     <use style="fill:#e377c2;stroke:#e377c2;" x="330.796717" xlink:href="#mc0936058f9" y="270.128303"/>
     <use style="fill:#e377c2;stroke:#e377c2;" x="359.995119" xlink:href="#mc0936058f9" y="270.128303"/>
     <use style="fill:#e377c2;stroke:#e377c2;" x="347.972247" xlink:href="#mc0936058f9" y="270.128303"/>
     <use style="fill:#e377c2;stroke:#e377c2;" x="367.724108" xlink:href="#mc0936058f9" y="270.003996"/>
     <use style="fill:#e377c2;stroke:#e377c2;" x="351.407354" xlink:href="#mc0936058f9" y="270.128303"/>
     <use style="fill:#e377c2;stroke:#e377c2;" x="395.204957" xlink:href="#mc0936058f9" y="269.995976"/>
     <use style="fill:#e377c2;stroke:#e377c2;" x="353.124907" xlink:href="#mc0936058f9" y="270.128303"/>
     <use style="fill:#e377c2;stroke:#e377c2;" x="380.605756" xlink:href="#mc0936058f9" y="270.128303"/>
     <use style="fill:#e377c2;stroke:#e377c2;" x="386.617192" xlink:href="#mc0936058f9" y="270.128303"/>
     <use style="fill:#e377c2;stroke:#e377c2;" x="388.334745" xlink:href="#mc0936058f9" y="269.995976"/>
     <use style="fill:#e377c2;stroke:#e377c2;" x="348.831024" xlink:href="#mc0936058f9" y="270.128303"/>
     <use style="fill:#e377c2;stroke:#e377c2;" x="364.289002" xlink:href="#mc0936058f9" y="270.128303"/>
     <use style="fill:#e377c2;stroke:#e377c2;" x="382.323309" xlink:href="#mc0936058f9" y="268.821075"/>
     <use style="fill:#e377c2;stroke:#e377c2;" x="347.113471" xlink:href="#mc0936058f9" y="270.128303"/>
     <use style="fill:#e377c2;stroke:#e377c2;" x="381.464532" xlink:href="#mc0936058f9" y="270.128303"/>
     <use style="fill:#e377c2;stroke:#e377c2;" x="388.334745" xlink:href="#mc0936058f9" y="270.128303"/>
     <use style="fill:#e377c2;stroke:#e377c2;" x="370.300437" xlink:href="#mc0936058f9" y="270.128303"/>
     <use style="fill:#e377c2;stroke:#e377c2;" x="314.479962" xlink:href="#mc0936058f9" y="270.128303"/>
     <use style="fill:#e377c2;stroke:#e377c2;" x="353.983683" xlink:href="#mc0936058f9" y="269.474689"/>
     <use style="fill:#e377c2;stroke:#e377c2;" x="328.220387" xlink:href="#mc0936058f9" y="270.128303"/>
     <use style="fill:#e377c2;stroke:#e377c2;" x="396.063734" xlink:href="#mc0936058f9" y="270.128303"/>
     <use style="fill:#e377c2;stroke:#e377c2;" x="360.853895" xlink:href="#mc0936058f9" y="270.128303"/>
     <use style="fill:#e377c2;stroke:#e377c2;" x="325.644057" xlink:href="#mc0936058f9" y="270.128303"/>
     <use style="fill:#e377c2;stroke:#e377c2;" x="334.231823" xlink:href="#mc0936058f9" y="270.128303"/>
    </g>
   </g>
   <g id="line2d_40">
    <path clip-path="url(#p782f1a266b)" d="M 380.605756 270.041941 
L 381.389744 270.270296 
L 381.68374 270.097674 
L 382.075734 269.520841 
L 382.663725 268.679684 
L 383.00672 268.557452 
L 383.349715 268.709224 
L 383.741709 269.167356 
L 384.2807 270.188458 
L 385.505682 272.679263 
L 385.799678 272.836613 
L 386.044674 272.711051 
L 386.28967 272.301046 
L 386.583666 271.366137 
L 386.97566 269.244823 
L 387.710649 264.935839 
L 387.906646 264.659735 
L 388.004644 264.779392 
L 388.151642 265.345233 
L 388.396638 267.508857 
L 388.592636 270.077692 
L 388.641635 269.896827 
L 389.278625 267.966068 
L 389.866616 266.814164 
L 390.405608 266.216552 
L 390.895601 265.997918 
L 391.385593 266.038588 
L 391.924585 266.325206 
L 392.610575 266.957916 
L 393.933555 268.562388 
L 394.96254 269.657356 
L 395.59953 270.051401 
L 396.138522 270.143968 
L 396.677514 270.01921 
L 397.265505 269.64754 
L 397.951495 268.92088 
L 398.735483 267.730377 
L 399.617469 265.970481 
L 400.695453 263.27927 
L 401.969434 259.440461 
L 403.488411 254.114159 
L 405.497381 246.196763 
L 411.965283 220.053751 
L 413.484261 215.119397 
L 414.758241 211.701172 
L 415.787226 209.520793 
L 416.669213 208.124522 
L 417.404202 207.329223 
L 418.041192 206.932691 
L 418.629183 206.823633 
L 419.168175 206.952302 
L 419.707167 207.310442 
L 420.295158 207.975139 
L 420.932148 209.033191 
L 421.667137 210.712771 
L 422.451126 213.074663 
L 423.333112 216.474783 
L 424.264098 220.966056 
L 425.293083 227.071977 
L 426.371066 234.831432 
L 427.547049 244.983532 
L 428.77203 257.544687 
L 429.556018 266.703208 
L 429.556018 266.703208 
" style="fill:none;stroke:#7f7f7f;stroke-dasharray:5.55,2.4;stroke-dashoffset:0;stroke-width:1.5;"/>
   </g>
   <g id="patch_9">
    <path d="M 280.987677 325.921635 
L 280.987677 17.90649 
" style="fill:none;stroke:#000000;stroke-linecap:square;stroke-linejoin:miter;stroke-width:0.8;"/>
   </g>
   <g id="patch_10">
    <path d="M 451.025432 325.921635 
L 451.025432 17.90649 
" style="fill:none;stroke:#000000;stroke-linecap:square;stroke-linejoin:miter;stroke-width:0.8;"/>
   </g>
   <g id="patch_11">
    <path d="M 280.987677 325.921635 
L 451.025432 325.921635 
" style="fill:none;stroke:#000000;stroke-linecap:square;stroke-linejoin:miter;stroke-width:0.8;"/>
   </g>
   <g id="patch_12">
    <path d="M 280.987677 17.90649 
L 451.025432 17.90649 
" style="fill:none;stroke:#000000;stroke-linecap:square;stroke-linejoin:miter;stroke-width:0.8;"/>
   </g>
   <g id="text_24">
    <!-- tau_m=4.9409870582925866 -->
    <g transform="translate(275.49843 11.90649)scale(0.12 -0.12)">
     <use xlink:href="#DejaVuSans-116"/>
     <use x="39.208984" xlink:href="#DejaVuSans-97"/>
     <use x="100.488281" xlink:href="#DejaVuSans-117"/>
     <use x="163.867188" xlink:href="#DejaVuSans-95"/>
     <use x="213.867188" xlink:href="#DejaVuSans-109"/>
     <use x="311.279297" xlink:href="#DejaVuSans-61"/>
     <use x="395.068359" xlink:href="#DejaVuSans-52"/>
     <use x="458.691406" xlink:href="#DejaVuSans-46"/>
     <use x="490.478516" xlink:href="#DejaVuSans-57"/>
     <use x="554.101562" xlink:href="#DejaVuSans-52"/>
     <use x="617.724609" xlink:href="#DejaVuSans-48"/>
     <use x="681.347656" xlink:href="#DejaVuSans-57"/>
     <use x="744.970703" xlink:href="#DejaVuSans-56"/>
     <use x="808.59375" xlink:href="#DejaVuSans-55"/>
     <use x="872.216797" xlink:href="#DejaVuSans-48"/>
     <use x="935.839844" xlink:href="#DejaVuSans-53"/>
     <use x="999.462891" xlink:href="#DejaVuSans-56"/>
     <use x="1063.085938" xlink:href="#DejaVuSans-50"/>
     <use x="1126.708984" xlink:href="#DejaVuSans-57"/>
     <use x="1190.332031" xlink:href="#DejaVuSans-50"/>
     <use x="1253.955078" xlink:href="#DejaVuSans-53"/>
     <use x="1317.578125" xlink:href="#DejaVuSans-56"/>
     <use x="1381.201172" xlink:href="#DejaVuSans-54"/>
     <use x="1444.824219" xlink:href="#DejaVuSans-54"/>
    </g>
   </g>
   <g id="legend_2">
    <g id="patch_13">
     <path d="M 287.987677 55.26274 
L 342.512677 55.26274 
Q 344.512677 55.26274 344.512677 53.26274 
L 344.512677 24.90649 
Q 344.512677 22.90649 342.512677 22.90649 
L 287.987677 22.90649 
Q 285.987677 22.90649 285.987677 24.90649 
L 285.987677 53.26274 
Q 285.987677 55.26274 287.987677 55.26274 
z
" style="fill:#ffffff;opacity:0.8;stroke:#cccccc;stroke-linejoin:miter;"/>
    </g>
    <g id="line2d_41"/>
    <g id="line2d_42">
     <g>
      <use style="fill:#1f77b4;stroke:#1f77b4;" x="299.987677" xlink:href="#m6514ecb1ae" y="31.004927"/>
     </g>
    </g>
    <g id="text_25">
     <!-- data -->
     <g transform="translate(317.987677 34.504927)scale(0.1 -0.1)">
      <use xlink:href="#DejaVuSans-100"/>
      <use x="63.476562" xlink:href="#DejaVuSans-97"/>
      <use x="124.755859" xlink:href="#DejaVuSans-116"/>
      <use x="163.964844" xlink:href="#DejaVuSans-97"/>
     </g>
    </g>
    <g id="line2d_43">
     <path d="M 289.987677 45.683052 
L 309.987677 45.683052 
" style="fill:none;stroke:#ff7f0e;stroke-dasharray:5.55,2.4;stroke-dashoffset:0;stroke-width:1.5;"/>
    </g>
    <g id="line2d_44"/>
    <g id="text_26">
     <!-- cs -->
     <g transform="translate(317.987677 49.183052)scale(0.1 -0.1)">
      <use xlink:href="#DejaVuSans-99"/>
      <use x="54.980469" xlink:href="#DejaVuSans-115"/>
     </g>
    </g>
   </g>
  </g>
 </g>
 <defs>
  <clipPath id="pd534914358">
   <rect height="308.015145" width="170.037754" x="50.192428" y="17.90649"/>
  </clipPath>
  <clipPath id="p782f1a266b">
   <rect height="308.015145" width="170.037754" x="280.987677" y="17.90649"/>
  </clipPath>
 </defs>
</svg>
