<?xml version="1.0" encoding="utf-8" standalone="no"?>
<!DOCTYPE svg PUBLIC "-//W3C//DTD SVG 1.1//EN"
  "http://www.w3.org/Graphics/SVG/1.1/DTD/svg11.dtd">
<!-- Created with matplotlib (https://matplotlib.org/) -->
<svg height="345.6pt" version="1.1" viewBox="0 0 460.8 345.6" width="460.8pt" xmlns="http://www.w3.org/2000/svg" xmlns:xlink="http://www.w3.org/1999/xlink">
 <defs>
  <style type="text/css">
*{stroke-linecap:butt;stroke-linejoin:round;}
  </style>
 </defs>
 <g id="figure_1">
  <g id="patch_1">
   <path d="M 0 345.6 
L 460.8 345.6 
L 460.8 0 
L 0 0 
z
" style="fill:#ffffff;"/>
  </g>
  <g id="axes_1">
   <g id="patch_2">
    <path d="M 50.192428 325.921635 
L 220.230182 325.921635 
L 220.230182 17.90649 
L 50.192428 17.90649 
z
" style="fill:#ffffff;"/>
   </g>
   <g id="matplotlib.axis_1">
    <g id="xtick_1">
     <g id="line2d_1">
      <defs>
       <path d="M 0 0 
L 0 3.5 
" id="mec41554f36" style="stroke:#000000;stroke-width:0.8;"/>
      </defs>
      <g>
       <use style="stroke:#000000;stroke-width:0.8;" x="77.243888" xlink:href="#mec41554f36" y="325.921635"/>
      </g>
     </g>
     <g id="text_1">
      <!-- −2 -->
      <defs>
       <path d="M 10.59375 35.5 
L 73.1875 35.5 
L 73.1875 27.203125 
L 10.59375 27.203125 
z
" id="DejaVuSans-8722"/>
       <path d="M 19.1875 8.296875 
L 53.609375 8.296875 
L 53.609375 0 
L 7.328125 0 
L 7.328125 8.296875 
Q 12.9375 14.109375 22.625 23.890625 
Q 32.328125 33.6875 34.8125 36.53125 
Q 39.546875 41.84375 41.421875 45.53125 
Q 43.3125 49.21875 43.3125 52.78125 
Q 43.3125 58.59375 39.234375 62.25 
Q 35.15625 65.921875 28.609375 65.921875 
Q 23.96875 65.921875 18.8125 64.3125 
Q 13.671875 62.703125 7.8125 59.421875 
L 7.8125 69.390625 
Q 13.765625 71.78125 18.9375 73 
Q 24.125 74.21875 28.421875 74.21875 
Q 39.75 74.21875 46.484375 68.546875 
Q 53.21875 62.890625 53.21875 53.421875 
Q 53.21875 48.921875 51.53125 44.890625 
Q 49.859375 40.875 45.40625 35.40625 
Q 44.1875 33.984375 37.640625 27.21875 
Q 31.109375 20.453125 19.1875 8.296875 
z
" id="DejaVuSans-50"/>
      </defs>
      <g transform="translate(69.872795 340.520072)scale(0.1 -0.1)">
       <use xlink:href="#DejaVuSans-8722"/>
       <use x="83.789062" xlink:href="#DejaVuSans-50"/>
      </g>
     </g>
    </g>
    <g id="xtick_2">
     <g id="line2d_2">
      <g>
       <use style="stroke:#000000;stroke-width:0.8;" x="142.33011" xlink:href="#mec41554f36" y="325.921635"/>
      </g>
     </g>
     <g id="text_2">
      <!-- 0 -->
      <defs>
       <path d="M 31.78125 66.40625 
Q 24.171875 66.40625 20.328125 58.90625 
Q 16.5 51.421875 16.5 36.375 
Q 16.5 21.390625 20.328125 13.890625 
Q 24.171875 6.390625 31.78125 6.390625 
Q 39.453125 6.390625 43.28125 13.890625 
Q 47.125 21.390625 47.125 36.375 
Q 47.125 51.421875 43.28125 58.90625 
Q 39.453125 66.40625 31.78125 66.40625 
z
M 31.78125 74.21875 
Q 44.046875 74.21875 50.515625 64.515625 
Q 56.984375 54.828125 56.984375 36.375 
Q 56.984375 17.96875 50.515625 8.265625 
Q 44.046875 -1.421875 31.78125 -1.421875 
Q 19.53125 -1.421875 13.0625 8.265625 
Q 6.59375 17.96875 6.59375 36.375 
Q 6.59375 54.828125 13.0625 64.515625 
Q 19.53125 74.21875 31.78125 74.21875 
z
" id="DejaVuSans-48"/>
      </defs>
      <g transform="translate(139.14886 340.520072)scale(0.1 -0.1)">
       <use xlink:href="#DejaVuSans-48"/>
      </g>
     </g>
    </g>
    <g id="xtick_3">
     <g id="line2d_3">
      <g>
       <use style="stroke:#000000;stroke-width:0.8;" x="207.416332" xlink:href="#mec41554f36" y="325.921635"/>
      </g>
     </g>
     <g id="text_3">
      <!-- 2 -->
      <g transform="translate(204.235082 340.520072)scale(0.1 -0.1)">
       <use xlink:href="#DejaVuSans-50"/>
      </g>
     </g>
    </g>
   </g>
   <g id="matplotlib.axis_2">
    <g id="ytick_1">
     <g id="line2d_4">
      <defs>
       <path d="M 0 0 
L -3.5 0 
" id="mf65eb3ce9b" style="stroke:#000000;stroke-width:0.8;"/>
      </defs>
      <g>
       <use style="stroke:#000000;stroke-width:0.8;" x="50.192428" xlink:href="#mf65eb3ce9b" y="296.785962"/>
      </g>
     </g>
     <g id="text_4">
      <!-- −15000 -->
      <defs>
       <path d="M 12.40625 8.296875 
L 28.515625 8.296875 
L 28.515625 63.921875 
L 10.984375 60.40625 
L 10.984375 69.390625 
L 28.421875 72.90625 
L 38.28125 72.90625 
L 38.28125 8.296875 
L 54.390625 8.296875 
L 54.390625 0 
L 12.40625 0 
z
" id="DejaVuSans-49"/>
       <path d="M 10.796875 72.90625 
L 49.515625 72.90625 
L 49.515625 64.59375 
L 19.828125 64.59375 
L 19.828125 46.734375 
Q 21.96875 47.46875 24.109375 47.828125 
Q 26.265625 48.1875 28.421875 48.1875 
Q 40.625 48.1875 47.75 41.5 
Q 54.890625 34.8125 54.890625 23.390625 
Q 54.890625 11.625 47.5625 5.09375 
Q 40.234375 -1.421875 26.90625 -1.421875 
Q 22.3125 -1.421875 17.546875 -0.640625 
Q 12.796875 0.140625 7.71875 1.703125 
L 7.71875 11.625 
Q 12.109375 9.234375 16.796875 8.0625 
Q 21.484375 6.890625 26.703125 6.890625 
Q 35.15625 6.890625 40.078125 11.328125 
Q 45.015625 15.765625 45.015625 23.390625 
Q 45.015625 31 40.078125 35.4375 
Q 35.15625 39.890625 26.703125 39.890625 
Q 22.75 39.890625 18.8125 39.015625 
Q 14.890625 38.140625 10.796875 36.28125 
z
" id="DejaVuSans-53"/>
      </defs>
      <g transform="translate(3.00024 300.585181)scale(0.1 -0.1)">
       <use xlink:href="#DejaVuSans-8722"/>
       <use x="83.789062" xlink:href="#DejaVuSans-49"/>
       <use x="147.412109" xlink:href="#DejaVuSans-53"/>
       <use x="211.035156" xlink:href="#DejaVuSans-48"/>
       <use x="274.658203" xlink:href="#DejaVuSans-48"/>
       <use x="338.28125" xlink:href="#DejaVuSans-48"/>
      </g>
     </g>
    </g>
    <g id="ytick_2">
     <g id="line2d_5">
      <g>
       <use style="stroke:#000000;stroke-width:0.8;" x="50.192428" xlink:href="#mf65eb3ce9b" y="260.695711"/>
      </g>
     </g>
     <g id="text_5">
      <!-- −10000 -->
      <g transform="translate(3.00024 264.49493)scale(0.1 -0.1)">
       <use xlink:href="#DejaVuSans-8722"/>
       <use x="83.789062" xlink:href="#DejaVuSans-49"/>
       <use x="147.412109" xlink:href="#DejaVuSans-48"/>
       <use x="211.035156" xlink:href="#DejaVuSans-48"/>
       <use x="274.658203" xlink:href="#DejaVuSans-48"/>
       <use x="338.28125" xlink:href="#DejaVuSans-48"/>
      </g>
     </g>
    </g>
    <g id="ytick_3">
     <g id="line2d_6">
      <g>
       <use style="stroke:#000000;stroke-width:0.8;" x="50.192428" xlink:href="#mf65eb3ce9b" y="224.605459"/>
      </g>
     </g>
     <g id="text_6">
      <!-- −5000 -->
      <g transform="translate(9.36274 228.404678)scale(0.1 -0.1)">
       <use xlink:href="#DejaVuSans-8722"/>
       <use x="83.789062" xlink:href="#DejaVuSans-53"/>
       <use x="147.412109" xlink:href="#DejaVuSans-48"/>
       <use x="211.035156" xlink:href="#DejaVuSans-48"/>
       <use x="274.658203" xlink:href="#DejaVuSans-48"/>
      </g>
     </g>
    </g>
    <g id="ytick_4">
     <g id="line2d_7">
      <g>
       <use style="stroke:#000000;stroke-width:0.8;" x="50.192428" xlink:href="#mf65eb3ce9b" y="188.515208"/>
      </g>
     </g>
     <g id="text_7">
      <!-- 0 -->
      <g transform="translate(36.829928 192.314427)scale(0.1 -0.1)">
       <use xlink:href="#DejaVuSans-48"/>
      </g>
     </g>
    </g>
    <g id="ytick_5">
     <g id="line2d_8">
      <g>
       <use style="stroke:#000000;stroke-width:0.8;" x="50.192428" xlink:href="#mf65eb3ce9b" y="152.424957"/>
      </g>
     </g>
     <g id="text_8">
      <!-- 5000 -->
      <g transform="translate(17.742428 156.224175)scale(0.1 -0.1)">
       <use xlink:href="#DejaVuSans-53"/>
       <use x="63.623047" xlink:href="#DejaVuSans-48"/>
       <use x="127.246094" xlink:href="#DejaVuSans-48"/>
       <use x="190.869141" xlink:href="#DejaVuSans-48"/>
      </g>
     </g>
    </g>
    <g id="ytick_6">
     <g id="line2d_9">
      <g>
       <use style="stroke:#000000;stroke-width:0.8;" x="50.192428" xlink:href="#mf65eb3ce9b" y="116.334705"/>
      </g>
     </g>
     <g id="text_9">
      <!-- 10000 -->
      <g transform="translate(11.379928 120.133924)scale(0.1 -0.1)">
       <use xlink:href="#DejaVuSans-49"/>
       <use x="63.623047" xlink:href="#DejaVuSans-48"/>
       <use x="127.246094" xlink:href="#DejaVuSans-48"/>
       <use x="190.869141" xlink:href="#DejaVuSans-48"/>
       <use x="254.492188" xlink:href="#DejaVuSans-48"/>
      </g>
     </g>
    </g>
    <g id="ytick_7">
     <g id="line2d_10">
      <g>
       <use style="stroke:#000000;stroke-width:0.8;" x="50.192428" xlink:href="#mf65eb3ce9b" y="80.244454"/>
      </g>
     </g>
     <g id="text_10">
      <!-- 15000 -->
      <g transform="translate(11.379928 84.043673)scale(0.1 -0.1)">
       <use xlink:href="#DejaVuSans-49"/>
       <use x="63.623047" xlink:href="#DejaVuSans-53"/>
       <use x="127.246094" xlink:href="#DejaVuSans-48"/>
       <use x="190.869141" xlink:href="#DejaVuSans-48"/>
       <use x="254.492188" xlink:href="#DejaVuSans-48"/>
      </g>
     </g>
    </g>
    <g id="ytick_8">
     <g id="line2d_11">
      <g>
       <use style="stroke:#000000;stroke-width:0.8;" x="50.192428" xlink:href="#mf65eb3ce9b" y="44.154202"/>
      </g>
     </g>
     <g id="text_11">
      <!-- 20000 -->
      <g transform="translate(11.379928 47.953421)scale(0.1 -0.1)">
       <use xlink:href="#DejaVuSans-50"/>
       <use x="63.623047" xlink:href="#DejaVuSans-48"/>
       <use x="127.246094" xlink:href="#DejaVuSans-48"/>
       <use x="190.869141" xlink:href="#DejaVuSans-48"/>
       <use x="254.492188" xlink:href="#DejaVuSans-48"/>
      </g>
     </g>
    </g>
   </g>
   <g id="line2d_12">
    <defs>
     <path d="M 0 3 
C 0.795609 3 1.55874 2.683901 2.12132 2.12132 
C 2.683901 1.55874 3 0.795609 3 0 
C 3 -0.795609 2.683901 -1.55874 2.12132 -2.12132 
C 1.55874 -2.683901 0.795609 -3 0 -3 
C -0.795609 -3 -1.55874 -2.683901 -2.12132 -2.12132 
C -2.683901 -1.55874 -3 -0.795609 -3 0 
C -3 0.795609 -2.683901 1.55874 -2.12132 2.12132 
C -1.55874 2.683901 -0.795609 3 0 3 
z
" id="m92d9b2c70b" style="stroke:#1f77b4;"/>
    </defs>
    <g clip-path="url(#pf995d712e3)">
     <use style="fill:#1f77b4;stroke:#1f77b4;" x="134.194333" xlink:href="#m92d9b2c70b" y="186.162124"/>
     <use style="fill:#1f77b4;stroke:#1f77b4;" x="106.736083" xlink:href="#m92d9b2c70b" y="186.162124"/>
     <use style="fill:#1f77b4;stroke:#1f77b4;" x="126.058555" xlink:href="#m92d9b2c70b" y="186.162124"/>
     <use style="fill:#1f77b4;stroke:#1f77b4;" x="140.296166" xlink:href="#m92d9b2c70b" y="186.162124"/>
     <use style="fill:#1f77b4;stroke:#1f77b4;" x="131.143416" xlink:href="#m92d9b2c70b" y="186.162124"/>
     <use style="fill:#1f77b4;stroke:#1f77b4;" x="166.737443" xlink:href="#m92d9b2c70b" y="186.162124"/>
     <use style="fill:#1f77b4;stroke:#1f77b4;" x="156.567721" xlink:href="#m92d9b2c70b" y="186.162124"/>
     <use style="fill:#1f77b4;stroke:#1f77b4;" x="134.194333" xlink:href="#m92d9b2c70b" y="186.162124"/>
     <use style="fill:#1f77b4;stroke:#1f77b4;" x="113.854888" xlink:href="#m92d9b2c70b" y="186.162124"/>
     <use style="fill:#1f77b4;stroke:#1f77b4;" x="162.669555" xlink:href="#m92d9b2c70b" y="186.162124"/>
     <use style="fill:#1f77b4;stroke:#1f77b4;" x="145.381027" xlink:href="#m92d9b2c70b" y="186.162124"/>
     <use style="fill:#1f77b4;stroke:#1f77b4;" x="101.651222" xlink:href="#m92d9b2c70b" y="188.515208"/>
     <use style="fill:#1f77b4;stroke:#1f77b4;" x="64.02325" xlink:href="#m92d9b2c70b" y="186.162124"/>
     <use style="fill:#1f77b4;stroke:#1f77b4;" x="76.226916" xlink:href="#m92d9b2c70b" y="187.338666"/>
     <use style="fill:#1f77b4;stroke:#1f77b4;" x="144.364055" xlink:href="#m92d9b2c70b" y="186.162124"/>
     <use style="fill:#1f77b4;stroke:#1f77b4;" x="133.17736" xlink:href="#m92d9b2c70b" y="186.162124"/>
     <use style="fill:#1f77b4;stroke:#1f77b4;" x="92.498472" xlink:href="#m92d9b2c70b" y="186.162124"/>
     <use style="fill:#1f77b4;stroke:#1f77b4;" x="107.753055" xlink:href="#m92d9b2c70b" y="187.338666"/>
     <use style="fill:#1f77b4;stroke:#1f77b4;" x="126.058555" xlink:href="#m92d9b2c70b" y="186.162124"/>
     <use style="fill:#1f77b4;stroke:#1f77b4;" x="143.347082" xlink:href="#m92d9b2c70b" y="186.162124"/>
     <use style="fill:#1f77b4;stroke:#1f77b4;" x="105.71911" xlink:href="#m92d9b2c70b" y="186.162124"/>
     <use style="fill:#1f77b4;stroke:#1f77b4;" x="107.753055" xlink:href="#m92d9b2c70b" y="186.162124"/>
     <use style="fill:#1f77b4;stroke:#1f77b4;" x="125.041583" xlink:href="#m92d9b2c70b" y="186.162124"/>
     <use style="fill:#1f77b4;stroke:#1f77b4;" x="155.550749" xlink:href="#m92d9b2c70b" y="186.162124"/>
     <use style="fill:#1f77b4;stroke:#1f77b4;" x="102.668194" xlink:href="#m92d9b2c70b" y="188.515208"/>
     <use style="fill:#1f77b4;stroke:#1f77b4;" x="115.888833" xlink:href="#m92d9b2c70b" y="186.219868"/>
     <use style="fill:#1f77b4;stroke:#1f77b4;" x="142.33011" xlink:href="#m92d9b2c70b" y="186.162124"/>
     <use style="fill:#1f77b4;stroke:#1f77b4;" x="138.262221" xlink:href="#m92d9b2c70b" y="186.162124"/>
     <use style="fill:#1f77b4;stroke:#1f77b4;" x="134.194333" xlink:href="#m92d9b2c70b" y="186.162124"/>
     <use style="fill:#1f77b4;stroke:#1f77b4;" x="94.532416" xlink:href="#m92d9b2c70b" y="187.338666"/>
    </g>
   </g>
   <g id="line2d_13">
    <path clip-path="url(#pf995d712e3)" d="M 142.33011 186.141747 
L 153.373268 186.159655 
L 166.737443 186.157636 
L 166.737443 186.157636 
" style="fill:none;stroke:#ff7f0e;stroke-dasharray:5.55,2.4;stroke-dashoffset:0;stroke-width:1.5;"/>
   </g>
   <g id="line2d_14">
    <defs>
     <path d="M 0 3 
C 0.795609 3 1.55874 2.683901 2.12132 2.12132 
C 2.683901 1.55874 3 0.795609 3 0 
C 3 -0.795609 2.683901 -1.55874 2.12132 -2.12132 
C 1.55874 -2.683901 0.795609 -3 0 -3 
C -0.795609 -3 -1.55874 -2.683901 -2.12132 -2.12132 
C -2.683901 -1.55874 -3 -0.795609 -3 0 
C -3 0.795609 -2.683901 1.55874 -2.12132 2.12132 
C -1.55874 2.683901 -0.795609 3 0 3 
z
" id="m4c4fe41814" style="stroke:#2ca02c;"/>
    </defs>
    <g clip-path="url(#pf995d712e3)">
     <use style="fill:#2ca02c;stroke:#2ca02c;" x="126.058555" xlink:href="#m4c4fe41814" y="186.162124"/>
     <use style="fill:#2ca02c;stroke:#2ca02c;" x="71.142055" xlink:href="#m4c4fe41814" y="186.162124"/>
     <use style="fill:#2ca02c;stroke:#2ca02c;" x="133.17736" xlink:href="#m4c4fe41814" y="187.338666"/>
     <use style="fill:#2ca02c;stroke:#2ca02c;" x="150.465888" xlink:href="#m4c4fe41814" y="188.515208"/>
     <use style="fill:#2ca02c;stroke:#2ca02c;" x="87.413611" xlink:href="#m4c4fe41814" y="187.338666"/>
     <use style="fill:#2ca02c;stroke:#2ca02c;" x="90.464527" xlink:href="#m4c4fe41814" y="186.162124"/>
     <use style="fill:#2ca02c;stroke:#2ca02c;" x="127.075527" xlink:href="#m4c4fe41814" y="186.162124"/>
     <use style="fill:#2ca02c;stroke:#2ca02c;" x="212.501193" xlink:href="#m4c4fe41814" y="186.162124"/>
     <use style="fill:#2ca02c;stroke:#2ca02c;" x="83.345722" xlink:href="#m4c4fe41814" y="188.515208"/>
     <use style="fill:#2ca02c;stroke:#2ca02c;" x="146.397999" xlink:href="#m4c4fe41814" y="186.162124"/>
     <use style="fill:#2ca02c;stroke:#2ca02c;" x="163.686527" xlink:href="#m4c4fe41814" y="186.162124"/>
     <use style="fill:#2ca02c;stroke:#2ca02c;" x="109.786999" xlink:href="#m4c4fe41814" y="186.162124"/>
     <use style="fill:#2ca02c;stroke:#2ca02c;" x="167.754416" xlink:href="#m4c4fe41814" y="186.530244"/>
     <use style="fill:#2ca02c;stroke:#2ca02c;" x="84.362694" xlink:href="#m4c4fe41814" y="187.338666"/>
     <use style="fill:#2ca02c;stroke:#2ca02c;" x="105.71911" xlink:href="#m4c4fe41814" y="186.162124"/>
     <use style="fill:#2ca02c;stroke:#2ca02c;" x="140.296166" xlink:href="#m4c4fe41814" y="188.515208"/>
     <use style="fill:#2ca02c;stroke:#2ca02c;" x="185.042943" xlink:href="#m4c4fe41814" y="186.162124"/>
     <use style="fill:#2ca02c;stroke:#2ca02c;" x="103.685166" xlink:href="#m4c4fe41814" y="186.162124"/>
     <use style="fill:#2ca02c;stroke:#2ca02c;" x="109.786999" xlink:href="#m4c4fe41814" y="186.162124"/>
     <use style="fill:#2ca02c;stroke:#2ca02c;" x="152.499832" xlink:href="#m4c4fe41814" y="186.162124"/>
     <use style="fill:#2ca02c;stroke:#2ca02c;" x="85.379666" xlink:href="#m4c4fe41814" y="186.162124"/>
     <use style="fill:#2ca02c;stroke:#2ca02c;" x="105.71911" xlink:href="#m4c4fe41814" y="186.162124"/>
     <use style="fill:#2ca02c;stroke:#2ca02c;" x="118.939749" xlink:href="#m4c4fe41814" y="188.515208"/>
     <use style="fill:#2ca02c;stroke:#2ca02c;" x="143.347082" xlink:href="#m4c4fe41814" y="186.162124"/>
     <use style="fill:#2ca02c;stroke:#2ca02c;" x="158.601666" xlink:href="#m4c4fe41814" y="186.162124"/>
     <use style="fill:#2ca02c;stroke:#2ca02c;" x="109.786999" xlink:href="#m4c4fe41814" y="186.162124"/>
     <use style="fill:#2ca02c;stroke:#2ca02c;" x="154.533777" xlink:href="#m4c4fe41814" y="186.162124"/>
     <use style="fill:#2ca02c;stroke:#2ca02c;" x="109.786999" xlink:href="#m4c4fe41814" y="186.162124"/>
     <use style="fill:#2ca02c;stroke:#2ca02c;" x="105.71911" xlink:href="#m4c4fe41814" y="186.162124"/>
     <use style="fill:#2ca02c;stroke:#2ca02c;" x="111.820944" xlink:href="#m4c4fe41814" y="186.162124"/>
    </g>
   </g>
   <g id="line2d_15">
    <path clip-path="url(#pf995d712e3)" d="M 142.33011 187.086313 
L 143.664695 186.091395 
L 144.507591 185.732055 
L 145.280246 185.645814 
L 145.982659 185.79398 
L 146.685072 186.180051 
L 147.59821 186.999521 
L 149.143519 188.421766 
L 149.775691 188.712496 
L 150.26738 188.716388 
L 150.688828 188.522471 
L 151.250758 187.964547 
L 152.93655 186.029904 
L 153.428239 185.883031 
L 154.060411 185.946757 
L 156.09741 186.349025 
L 157.572478 186.289442 
L 161.225026 186.050311 
L 163.964438 186.157734 
L 173.376776 186.745711 
L 177.87222 186.653105 
L 183.632009 186.296275 
L 198.944618 185.229703 
L 203.440062 185.21055 
L 207.303335 185.410323 
L 210.815401 185.80948 
L 212.501193 186.086054 
L 212.501193 186.086054 
" style="fill:none;stroke:#d62728;stroke-dasharray:5.55,2.4;stroke-dashoffset:0;stroke-width:1.5;"/>
   </g>
   <g id="line2d_16">
    <defs>
     <path d="M 0 3 
C 0.795609 3 1.55874 2.683901 2.12132 2.12132 
C 2.683901 1.55874 3 0.795609 3 0 
C 3 -0.795609 2.683901 -1.55874 2.12132 -2.12132 
C 1.55874 -2.683901 0.795609 -3 0 -3 
C -0.795609 -3 -1.55874 -2.683901 -2.12132 -2.12132 
C -2.683901 -1.55874 -3 -0.795609 -3 0 
C -3 0.795609 -2.683901 1.55874 -2.12132 2.12132 
C -1.55874 2.683901 -0.795609 3 0 3 
z
" id="m29c902229a" style="stroke:#9467bd;"/>
    </defs>
    <g clip-path="url(#pf995d712e3)">
     <use style="fill:#9467bd;stroke:#9467bd;" x="64.02325" xlink:href="#m29c902229a" y="186.162124"/>
     <use style="fill:#9467bd;stroke:#9467bd;" x="96.566361" xlink:href="#m29c902229a" y="186.162124"/>
     <use style="fill:#9467bd;stroke:#9467bd;" x="85.379666" xlink:href="#m29c902229a" y="186.162124"/>
     <use style="fill:#9467bd;stroke:#9467bd;" x="84.362694" xlink:href="#m29c902229a" y="186.162124"/>
     <use style="fill:#9467bd;stroke:#9467bd;" x="123.007638" xlink:href="#m29c902229a" y="186.162124"/>
     <use style="fill:#9467bd;stroke:#9467bd;" x="169.78836" xlink:href="#m29c902229a" y="186.162124"/>
     <use style="fill:#9467bd;stroke:#9467bd;" x="179.958082" xlink:href="#m29c902229a" y="186.162124"/>
     <use style="fill:#9467bd;stroke:#9467bd;" x="60.972333" xlink:href="#m29c902229a" y="186.162124"/>
     <use style="fill:#9467bd;stroke:#9467bd;" x="130.126444" xlink:href="#m29c902229a" y="186.162124"/>
     <use style="fill:#9467bd;stroke:#9467bd;" x="75.209944" xlink:href="#m29c902229a" y="186.162124"/>
     <use style="fill:#9467bd;stroke:#9467bd;" x="132.160388" xlink:href="#m29c902229a" y="186.162124"/>
     <use style="fill:#9467bd;stroke:#9467bd;" x="89.447555" xlink:href="#m29c902229a" y="186.162124"/>
     <use style="fill:#9467bd;stroke:#9467bd;" x="142.33011" xlink:href="#m29c902229a" y="187.338666"/>
     <use style="fill:#9467bd;stroke:#9467bd;" x="108.770027" xlink:href="#m29c902229a" y="188.515208"/>
     <use style="fill:#9467bd;stroke:#9467bd;" x="176.907166" xlink:href="#m29c902229a" y="186.162124"/>
     <use style="fill:#9467bd;stroke:#9467bd;" x="166.737443" xlink:href="#m29c902229a" y="186.162124"/>
     <use style="fill:#9467bd;stroke:#9467bd;" x="140.296166" xlink:href="#m29c902229a" y="186.4725"/>
     <use style="fill:#9467bd;stroke:#9467bd;" x="73.176" xlink:href="#m29c902229a" y="187.338666"/>
     <use style="fill:#9467bd;stroke:#9467bd;" x="169.78836" xlink:href="#m29c902229a" y="186.162124"/>
     <use style="fill:#9467bd;stroke:#9467bd;" x="159.618638" xlink:href="#m29c902229a" y="186.162124"/>
     <use style="fill:#9467bd;stroke:#9467bd;" x="149.448916" xlink:href="#m29c902229a" y="186.162124"/>
     <use style="fill:#9467bd;stroke:#9467bd;" x="142.33011" xlink:href="#m29c902229a" y="186.162124"/>
     <use style="fill:#9467bd;stroke:#9467bd;" x="106.736083" xlink:href="#m29c902229a" y="187.338666"/>
     <use style="fill:#9467bd;stroke:#9467bd;" x="163.686527" xlink:href="#m29c902229a" y="186.162124"/>
     <use style="fill:#9467bd;stroke:#9467bd;" x="171.822304" xlink:href="#m29c902229a" y="186.162124"/>
     <use style="fill:#9467bd;stroke:#9467bd;" x="155.550749" xlink:href="#m29c902229a" y="186.393101"/>
     <use style="fill:#9467bd;stroke:#9467bd;" x="119.956721" xlink:href="#m29c902229a" y="186.162124"/>
     <use style="fill:#9467bd;stroke:#9467bd;" x="100.634249" xlink:href="#m29c902229a" y="186.162124"/>
     <use style="fill:#9467bd;stroke:#9467bd;" x="83.345722" xlink:href="#m29c902229a" y="187.338666"/>
     <use style="fill:#9467bd;stroke:#9467bd;" x="129.109471" xlink:href="#m29c902229a" y="188.515208"/>
    </g>
   </g>
   <g id="line2d_17">
    <path clip-path="url(#pf995d712e3)" d="M 142.33011 168.403168 
L 142.782098 210.775844 
L 143.422414 260.16273 
L 143.987398 288.934567 
L 144.477052 304.00248 
L 144.853708 310.083411 
L 145.117367 311.785616 
L 145.230364 311.920947 
L 145.26803 311.890483 
L 145.418693 311.40404 
L 145.644686 309.635379 
L 145.983677 304.857503 
L 146.47333 294.119076 
L 147.151312 273.616464 
L 148.507275 223.791847 
L 149.561913 189.103899 
L 150.202228 174.611184 
L 150.767213 166.37258 
L 151.256866 162.211837 
L 151.633523 160.641845 
L 151.897182 160.283564 
L 152.08551 160.36306 
L 152.311504 160.793153 
L 152.650495 162.045054 
L 153.140148 164.907899 
L 153.855795 170.615141 
L 155.701412 185.899014 
L 156.228731 188.39847 
L 156.680718 189.619234 
L 157.057375 190.092135 
L 157.3587 190.171803 
L 157.660025 190.030442 
L 158.074347 189.550519 
L 158.714663 188.387292 
L 160.03296 185.910225 
L 160.597944 185.362425 
L 161.125263 185.144155 
L 161.690248 185.151599 
L 162.405895 185.401704 
L 164.515171 186.288066 
L 165.456812 186.303256 
L 168.58306 186.171875 
L 170.240348 186.143305 
L 171.709308 186.14024 
L 175.325209 186.182558 
L 179.958082 186.146339 
L 179.958082 186.146339 
" style="fill:none;stroke:#8c564b;stroke-dasharray:5.55,2.4;stroke-dashoffset:0;stroke-width:1.5;"/>
   </g>
   <g id="line2d_18">
    <defs>
     <path d="M 0 3 
C 0.795609 3 1.55874 2.683901 2.12132 2.12132 
C 2.683901 1.55874 3 0.795609 3 0 
C 3 -0.795609 2.683901 -1.55874 2.12132 -2.12132 
C 1.55874 -2.683901 0.795609 -3 0 -3 
C -0.795609 -3 -1.55874 -2.683901 -2.12132 -2.12132 
C -2.683901 -1.55874 -3 -0.795609 -3 0 
C -3 0.795609 -2.683901 1.55874 -2.12132 2.12132 
C -1.55874 2.683901 -0.795609 3 0 3 
z
" id="m21364a808e" style="stroke:#e377c2;"/>
    </defs>
    <g clip-path="url(#pf995d712e3)">
     <use style="fill:#e377c2;stroke:#e377c2;" x="66.057194" xlink:href="#m21364a808e" y="186.162124"/>
     <use style="fill:#e377c2;stroke:#e377c2;" x="138.262221" xlink:href="#m21364a808e" y="186.162124"/>
     <use style="fill:#e377c2;stroke:#e377c2;" x="96.566361" xlink:href="#m21364a808e" y="186.162124"/>
     <use style="fill:#e377c2;stroke:#e377c2;" x="160.63561" xlink:href="#m21364a808e" y="186.162124"/>
     <use style="fill:#e377c2;stroke:#e377c2;" x="133.17736" xlink:href="#m21364a808e" y="187.338666"/>
     <use style="fill:#e377c2;stroke:#e377c2;" x="144.364055" xlink:href="#m21364a808e" y="186.162124"/>
     <use style="fill:#e377c2;stroke:#e377c2;" x="103.685166" xlink:href="#m21364a808e" y="186.162124"/>
     <use style="fill:#e377c2;stroke:#e377c2;" x="69.108111" xlink:href="#m21364a808e" y="186.162124"/>
     <use style="fill:#e377c2;stroke:#e377c2;" x="135.211305" xlink:href="#m21364a808e" y="186.162124"/>
     <use style="fill:#e377c2;stroke:#e377c2;" x="71.142055" xlink:href="#m21364a808e" y="186.162124"/>
     <use style="fill:#e377c2;stroke:#e377c2;" x="121.990666" xlink:href="#m21364a808e" y="186.162124"/>
     <use style="fill:#e377c2;stroke:#e377c2;" x="125.041583" xlink:href="#m21364a808e" y="186.162124"/>
     <use style="fill:#e377c2;stroke:#e377c2;" x="138.262221" xlink:href="#m21364a808e" y="188.515208"/>
     <use style="fill:#e377c2;stroke:#e377c2;" x="114.87186" xlink:href="#m21364a808e" y="188.515208"/>
     <use style="fill:#e377c2;stroke:#e377c2;" x="85.379666" xlink:href="#m21364a808e" y="186.162124"/>
     <use style="fill:#e377c2;stroke:#e377c2;" x="57.921416" xlink:href="#m21364a808e" y="186.162124"/>
     <use style="fill:#e377c2;stroke:#e377c2;" x="177.924138" xlink:href="#m21364a808e" y="187.338666"/>
     <use style="fill:#e377c2;stroke:#e377c2;" x="76.226916" xlink:href="#m21364a808e" y="186.162124"/>
     <use style="fill:#e377c2;stroke:#e377c2;" x="167.754416" xlink:href="#m21364a808e" y="186.162124"/>
     <use style="fill:#e377c2;stroke:#e377c2;" x="110.803972" xlink:href="#m21364a808e" y="186.162124"/>
     <use style="fill:#e377c2;stroke:#e377c2;" x="98.600305" xlink:href="#m21364a808e" y="186.162124"/>
     <use style="fill:#e377c2;stroke:#e377c2;" x="152.499832" xlink:href="#m21364a808e" y="186.162124"/>
     <use style="fill:#e377c2;stroke:#e377c2;" x="96.566361" xlink:href="#m21364a808e" y="186.162124"/>
     <use style="fill:#e377c2;stroke:#e377c2;" x="109.786999" xlink:href="#m21364a808e" y="186.162124"/>
     <use style="fill:#e377c2;stroke:#e377c2;" x="105.71911" xlink:href="#m21364a808e" y="188.515208"/>
     <use style="fill:#e377c2;stroke:#e377c2;" x="148.431944" xlink:href="#m21364a808e" y="186.162124"/>
     <use style="fill:#e377c2;stroke:#e377c2;" x="99.617277" xlink:href="#m21364a808e" y="186.162124"/>
     <use style="fill:#e377c2;stroke:#e377c2;" x="90.464527" xlink:href="#m21364a808e" y="186.162124"/>
     <use style="fill:#e377c2;stroke:#e377c2;" x="115.888833" xlink:href="#m21364a808e" y="186.162124"/>
     <use style="fill:#e377c2;stroke:#e377c2;" x="132.160388" xlink:href="#m21364a808e" y="186.162124"/>
    </g>
   </g>
   <g id="line2d_19">
    <path clip-path="url(#pf995d712e3)" d="M 142.33011 31.907178 
L 143.43463 111.143564 
L 144.43226 176.221379 
L 145.002335 200.487984 
L 145.46552 211.946209 
L 145.857446 216.781499 
L 146.106854 217.891196 
L 146.213743 217.955197 
L 146.249373 217.925622 
L 146.391891 217.567207 
L 146.641299 216.098881 
L 147.033225 212.021574 
L 147.674559 202.378375 
L 148.850337 184.524503 
L 149.384782 179.87808 
L 149.812338 177.859708 
L 150.133005 177.186283 
L 150.382413 177.091084 
L 150.596191 177.269978 
L 150.881228 177.830487 
L 151.308784 179.223102 
L 152.021377 182.449124 
L 153.232785 187.893649 
L 153.945378 190.028275 
L 154.586712 191.287451 
L 155.156787 191.943346 
L 155.655602 192.202823 
L 156.154417 192.205891 
L 156.688862 191.964834 
L 157.330196 191.4019 
L 158.149678 190.361608 
L 159.646124 188.019563 
L 160.964421 186.12331 
L 161.819533 185.262016 
L 162.639015 184.728945 
L 163.458497 184.450335 
L 164.313609 184.397161 
L 165.23998 184.572765 
L 166.30887 185.019319 
L 167.627167 185.831479 
L 169.907465 187.555995 
L 171.902726 188.946371 
L 173.114134 189.535119 
L 174.111764 189.787517 
L 175.002506 189.786183 
L 175.821988 189.560215 
L 176.60584 189.112917 
L 177.425323 188.373546 
L 177.924138 187.77443 
L 177.924138 187.77443 
" style="fill:none;stroke:#7f7f7f;stroke-dasharray:5.55,2.4;stroke-dashoffset:0;stroke-width:1.5;"/>
   </g>
   <g id="patch_3">
    <path d="M 50.192428 325.921635 
L 50.192428 17.90649 
" style="fill:none;stroke:#000000;stroke-linecap:square;stroke-linejoin:miter;stroke-width:0.8;"/>
   </g>
   <g id="patch_4">
    <path d="M 220.230182 325.921635 
L 220.230182 17.90649 
" style="fill:none;stroke:#000000;stroke-linecap:square;stroke-linejoin:miter;stroke-width:0.8;"/>
   </g>
   <g id="patch_5">
    <path d="M 50.192428 325.921635 
L 220.230182 325.921635 
" style="fill:none;stroke:#000000;stroke-linecap:square;stroke-linejoin:miter;stroke-width:0.8;"/>
   </g>
   <g id="patch_6">
    <path d="M 50.192428 17.90649 
L 220.230182 17.90649 
" style="fill:none;stroke:#000000;stroke-linecap:square;stroke-linejoin:miter;stroke-width:0.8;"/>
   </g>
   <g id="text_12">
    <!-- tau_m=19.54332939896296 -->
    <defs>
     <path d="M 18.3125 70.21875 
L 18.3125 54.6875 
L 36.8125 54.6875 
L 36.8125 47.703125 
L 18.3125 47.703125 
L 18.3125 18.015625 
Q 18.3125 11.328125 20.140625 9.421875 
Q 21.96875 7.515625 27.59375 7.515625 
L 36.8125 7.515625 
L 36.8125 0 
L 27.59375 0 
Q 17.1875 0 13.234375 3.875 
Q 9.28125 7.765625 9.28125 18.015625 
L 9.28125 47.703125 
L 2.6875 47.703125 
L 2.6875 54.6875 
L 9.28125 54.6875 
L 9.28125 70.21875 
z
" id="DejaVuSans-116"/>
     <path d="M 34.28125 27.484375 
Q 23.390625 27.484375 19.1875 25 
Q 14.984375 22.515625 14.984375 16.5 
Q 14.984375 11.71875 18.140625 8.90625 
Q 21.296875 6.109375 26.703125 6.109375 
Q 34.1875 6.109375 38.703125 11.40625 
Q 43.21875 16.703125 43.21875 25.484375 
L 43.21875 27.484375 
z
M 52.203125 31.203125 
L 52.203125 0 
L 43.21875 0 
L 43.21875 8.296875 
Q 40.140625 3.328125 35.546875 0.953125 
Q 30.953125 -1.421875 24.3125 -1.421875 
Q 15.921875 -1.421875 10.953125 3.296875 
Q 6 8.015625 6 15.921875 
Q 6 25.140625 12.171875 29.828125 
Q 18.359375 34.515625 30.609375 34.515625 
L 43.21875 34.515625 
L 43.21875 35.40625 
Q 43.21875 41.609375 39.140625 45 
Q 35.0625 48.390625 27.6875 48.390625 
Q 23 48.390625 18.546875 47.265625 
Q 14.109375 46.140625 10.015625 43.890625 
L 10.015625 52.203125 
Q 14.9375 54.109375 19.578125 55.046875 
Q 24.21875 56 28.609375 56 
Q 40.484375 56 46.34375 49.84375 
Q 52.203125 43.703125 52.203125 31.203125 
z
" id="DejaVuSans-97"/>
     <path d="M 8.5 21.578125 
L 8.5 54.6875 
L 17.484375 54.6875 
L 17.484375 21.921875 
Q 17.484375 14.15625 20.5 10.265625 
Q 23.53125 6.390625 29.59375 6.390625 
Q 36.859375 6.390625 41.078125 11.03125 
Q 45.3125 15.671875 45.3125 23.6875 
L 45.3125 54.6875 
L 54.296875 54.6875 
L 54.296875 0 
L 45.3125 0 
L 45.3125 8.40625 
Q 42.046875 3.421875 37.71875 1 
Q 33.40625 -1.421875 27.6875 -1.421875 
Q 18.265625 -1.421875 13.375 4.4375 
Q 8.5 10.296875 8.5 21.578125 
z
M 31.109375 56 
z
" id="DejaVuSans-117"/>
     <path d="M 50.984375 -16.609375 
L 50.984375 -23.578125 
L -0.984375 -23.578125 
L -0.984375 -16.609375 
z
" id="DejaVuSans-95"/>
     <path d="M 52 44.1875 
Q 55.375 50.25 60.0625 53.125 
Q 64.75 56 71.09375 56 
Q 79.640625 56 84.28125 50.015625 
Q 88.921875 44.046875 88.921875 33.015625 
L 88.921875 0 
L 79.890625 0 
L 79.890625 32.71875 
Q 79.890625 40.578125 77.09375 44.375 
Q 74.3125 48.1875 68.609375 48.1875 
Q 61.625 48.1875 57.5625 43.546875 
Q 53.515625 38.921875 53.515625 30.90625 
L 53.515625 0 
L 44.484375 0 
L 44.484375 32.71875 
Q 44.484375 40.625 41.703125 44.40625 
Q 38.921875 48.1875 33.109375 48.1875 
Q 26.21875 48.1875 22.15625 43.53125 
Q 18.109375 38.875 18.109375 30.90625 
L 18.109375 0 
L 9.078125 0 
L 9.078125 54.6875 
L 18.109375 54.6875 
L 18.109375 46.1875 
Q 21.1875 51.21875 25.484375 53.609375 
Q 29.78125 56 35.6875 56 
Q 41.65625 56 45.828125 52.96875 
Q 50 49.953125 52 44.1875 
z
" id="DejaVuSans-109"/>
     <path d="M 10.59375 45.40625 
L 73.1875 45.40625 
L 73.1875 37.203125 
L 10.59375 37.203125 
z
M 10.59375 25.484375 
L 73.1875 25.484375 
L 73.1875 17.1875 
L 10.59375 17.1875 
z
" id="DejaVuSans-61"/>
     <path d="M 10.984375 1.515625 
L 10.984375 10.5 
Q 14.703125 8.734375 18.5 7.8125 
Q 22.3125 6.890625 25.984375 6.890625 
Q 35.75 6.890625 40.890625 13.453125 
Q 46.046875 20.015625 46.78125 33.40625 
Q 43.953125 29.203125 39.59375 26.953125 
Q 35.25 24.703125 29.984375 24.703125 
Q 19.046875 24.703125 12.671875 31.3125 
Q 6.296875 37.9375 6.296875 49.421875 
Q 6.296875 60.640625 12.9375 67.421875 
Q 19.578125 74.21875 30.609375 74.21875 
Q 43.265625 74.21875 49.921875 64.515625 
Q 56.59375 54.828125 56.59375 36.375 
Q 56.59375 19.140625 48.40625 8.859375 
Q 40.234375 -1.421875 26.421875 -1.421875 
Q 22.703125 -1.421875 18.890625 -0.6875 
Q 15.09375 0.046875 10.984375 1.515625 
z
M 30.609375 32.421875 
Q 37.25 32.421875 41.125 36.953125 
Q 45.015625 41.5 45.015625 49.421875 
Q 45.015625 57.28125 41.125 61.84375 
Q 37.25 66.40625 30.609375 66.40625 
Q 23.96875 66.40625 20.09375 61.84375 
Q 16.21875 57.28125 16.21875 49.421875 
Q 16.21875 41.5 20.09375 36.953125 
Q 23.96875 32.421875 30.609375 32.421875 
z
" id="DejaVuSans-57"/>
     <path d="M 10.6875 12.40625 
L 21 12.40625 
L 21 0 
L 10.6875 0 
z
" id="DejaVuSans-46"/>
     <path d="M 37.796875 64.3125 
L 12.890625 25.390625 
L 37.796875 25.390625 
z
M 35.203125 72.90625 
L 47.609375 72.90625 
L 47.609375 25.390625 
L 58.015625 25.390625 
L 58.015625 17.1875 
L 47.609375 17.1875 
L 47.609375 0 
L 37.796875 0 
L 37.796875 17.1875 
L 4.890625 17.1875 
L 4.890625 26.703125 
z
" id="DejaVuSans-52"/>
     <path d="M 40.578125 39.3125 
Q 47.65625 37.796875 51.625 33 
Q 55.609375 28.21875 55.609375 21.1875 
Q 55.609375 10.40625 48.1875 4.484375 
Q 40.765625 -1.421875 27.09375 -1.421875 
Q 22.515625 -1.421875 17.65625 -0.515625 
Q 12.796875 0.390625 7.625 2.203125 
L 7.625 11.71875 
Q 11.71875 9.328125 16.59375 8.109375 
Q 21.484375 6.890625 26.8125 6.890625 
Q 36.078125 6.890625 40.9375 10.546875 
Q 45.796875 14.203125 45.796875 21.1875 
Q 45.796875 27.640625 41.28125 31.265625 
Q 36.765625 34.90625 28.71875 34.90625 
L 20.21875 34.90625 
L 20.21875 43.015625 
L 29.109375 43.015625 
Q 36.375 43.015625 40.234375 45.921875 
Q 44.09375 48.828125 44.09375 54.296875 
Q 44.09375 59.90625 40.109375 62.90625 
Q 36.140625 65.921875 28.71875 65.921875 
Q 24.65625 65.921875 20.015625 65.03125 
Q 15.375 64.15625 9.8125 62.3125 
L 9.8125 71.09375 
Q 15.4375 72.65625 20.34375 73.4375 
Q 25.25 74.21875 29.59375 74.21875 
Q 40.828125 74.21875 47.359375 69.109375 
Q 53.90625 64.015625 53.90625 55.328125 
Q 53.90625 49.265625 50.4375 45.09375 
Q 46.96875 40.921875 40.578125 39.3125 
z
" id="DejaVuSans-51"/>
     <path d="M 31.78125 34.625 
Q 24.75 34.625 20.71875 30.859375 
Q 16.703125 27.09375 16.703125 20.515625 
Q 16.703125 13.921875 20.71875 10.15625 
Q 24.75 6.390625 31.78125 6.390625 
Q 38.8125 6.390625 42.859375 10.171875 
Q 46.921875 13.96875 46.921875 20.515625 
Q 46.921875 27.09375 42.890625 30.859375 
Q 38.875 34.625 31.78125 34.625 
z
M 21.921875 38.8125 
Q 15.578125 40.375 12.03125 44.71875 
Q 8.5 49.078125 8.5 55.328125 
Q 8.5 64.0625 14.71875 69.140625 
Q 20.953125 74.21875 31.78125 74.21875 
Q 42.671875 74.21875 48.875 69.140625 
Q 55.078125 64.0625 55.078125 55.328125 
Q 55.078125 49.078125 51.53125 44.71875 
Q 48 40.375 41.703125 38.8125 
Q 48.828125 37.15625 52.796875 32.3125 
Q 56.78125 27.484375 56.78125 20.515625 
Q 56.78125 9.90625 50.3125 4.234375 
Q 43.84375 -1.421875 31.78125 -1.421875 
Q 19.734375 -1.421875 13.25 4.234375 
Q 6.78125 9.90625 6.78125 20.515625 
Q 6.78125 27.484375 10.78125 32.3125 
Q 14.796875 37.15625 21.921875 38.8125 
z
M 18.3125 54.390625 
Q 18.3125 48.734375 21.84375 45.5625 
Q 25.390625 42.390625 31.78125 42.390625 
Q 38.140625 42.390625 41.71875 45.5625 
Q 45.3125 48.734375 45.3125 54.390625 
Q 45.3125 60.0625 41.71875 63.234375 
Q 38.140625 66.40625 31.78125 66.40625 
Q 25.390625 66.40625 21.84375 63.234375 
Q 18.3125 60.0625 18.3125 54.390625 
z
" id="DejaVuSans-56"/>
     <path d="M 33.015625 40.375 
Q 26.375 40.375 22.484375 35.828125 
Q 18.609375 31.296875 18.609375 23.390625 
Q 18.609375 15.53125 22.484375 10.953125 
Q 26.375 6.390625 33.015625 6.390625 
Q 39.65625 6.390625 43.53125 10.953125 
Q 47.40625 15.53125 47.40625 23.390625 
Q 47.40625 31.296875 43.53125 35.828125 
Q 39.65625 40.375 33.015625 40.375 
z
M 52.59375 71.296875 
L 52.59375 62.3125 
Q 48.875 64.0625 45.09375 64.984375 
Q 41.3125 65.921875 37.59375 65.921875 
Q 27.828125 65.921875 22.671875 59.328125 
Q 17.53125 52.734375 16.796875 39.40625 
Q 19.671875 43.65625 24.015625 45.921875 
Q 28.375 48.1875 33.59375 48.1875 
Q 44.578125 48.1875 50.953125 41.515625 
Q 57.328125 34.859375 57.328125 23.390625 
Q 57.328125 12.15625 50.6875 5.359375 
Q 44.046875 -1.421875 33.015625 -1.421875 
Q 20.359375 -1.421875 13.671875 8.265625 
Q 6.984375 17.96875 6.984375 36.375 
Q 6.984375 53.65625 15.1875 63.9375 
Q 23.390625 74.21875 37.203125 74.21875 
Q 40.921875 74.21875 44.703125 73.484375 
Q 48.484375 72.75 52.59375 71.296875 
z
" id="DejaVuSans-54"/>
    </defs>
    <g transform="translate(48.52068 11.90649)scale(0.12 -0.12)">
     <use xlink:href="#DejaVuSans-116"/>
     <use x="39.208984" xlink:href="#DejaVuSans-97"/>
     <use x="100.488281" xlink:href="#DejaVuSans-117"/>
     <use x="163.867188" xlink:href="#DejaVuSans-95"/>
     <use x="213.867188" xlink:href="#DejaVuSans-109"/>
     <use x="311.279297" xlink:href="#DejaVuSans-61"/>
     <use x="395.068359" xlink:href="#DejaVuSans-49"/>
     <use x="458.691406" xlink:href="#DejaVuSans-57"/>
     <use x="522.314453" xlink:href="#DejaVuSans-46"/>
     <use x="554.101562" xlink:href="#DejaVuSans-53"/>
     <use x="617.724609" xlink:href="#DejaVuSans-52"/>
     <use x="681.347656" xlink:href="#DejaVuSans-51"/>
     <use x="744.970703" xlink:href="#DejaVuSans-51"/>
     <use x="808.59375" xlink:href="#DejaVuSans-50"/>
     <use x="872.216797" xlink:href="#DejaVuSans-57"/>
     <use x="935.839844" xlink:href="#DejaVuSans-51"/>
     <use x="999.462891" xlink:href="#DejaVuSans-57"/>
     <use x="1063.085938" xlink:href="#DejaVuSans-56"/>
     <use x="1126.708984" xlink:href="#DejaVuSans-57"/>
     <use x="1190.332031" xlink:href="#DejaVuSans-54"/>
     <use x="1253.955078" xlink:href="#DejaVuSans-50"/>
     <use x="1317.578125" xlink:href="#DejaVuSans-57"/>
     <use x="1381.201172" xlink:href="#DejaVuSans-54"/>
    </g>
   </g>
   <g id="legend_1">
    <g id="patch_7">
     <path d="M 158.705182 55.26274 
L 213.230182 55.26274 
Q 215.230182 55.26274 215.230182 53.26274 
L 215.230182 24.90649 
Q 215.230182 22.90649 213.230182 22.90649 
L 158.705182 22.90649 
Q 156.705182 22.90649 156.705182 24.90649 
L 156.705182 53.26274 
Q 156.705182 55.26274 158.705182 55.26274 
z
" style="fill:#ffffff;opacity:0.8;stroke:#cccccc;stroke-linejoin:miter;"/>
    </g>
    <g id="line2d_20"/>
    <g id="line2d_21">
     <g>
      <use style="fill:#1f77b4;stroke:#1f77b4;" x="170.705182" xlink:href="#m92d9b2c70b" y="31.004927"/>
     </g>
    </g>
    <g id="text_13">
     <!-- data -->
     <defs>
      <path d="M 45.40625 46.390625 
L 45.40625 75.984375 
L 54.390625 75.984375 
L 54.390625 0 
L 45.40625 0 
L 45.40625 8.203125 
Q 42.578125 3.328125 38.25 0.953125 
Q 33.9375 -1.421875 27.875 -1.421875 
Q 17.96875 -1.421875 11.734375 6.484375 
Q 5.515625 14.40625 5.515625 27.296875 
Q 5.515625 40.1875 11.734375 48.09375 
Q 17.96875 56 27.875 56 
Q 33.9375 56 38.25 53.625 
Q 42.578125 51.265625 45.40625 46.390625 
z
M 14.796875 27.296875 
Q 14.796875 17.390625 18.875 11.75 
Q 22.953125 6.109375 30.078125 6.109375 
Q 37.203125 6.109375 41.296875 11.75 
Q 45.40625 17.390625 45.40625 27.296875 
Q 45.40625 37.203125 41.296875 42.84375 
Q 37.203125 48.484375 30.078125 48.484375 
Q 22.953125 48.484375 18.875 42.84375 
Q 14.796875 37.203125 14.796875 27.296875 
z
" id="DejaVuSans-100"/>
     </defs>
     <g transform="translate(188.705182 34.504927)scale(0.1 -0.1)">
      <use xlink:href="#DejaVuSans-100"/>
      <use x="63.476562" xlink:href="#DejaVuSans-97"/>
      <use x="124.755859" xlink:href="#DejaVuSans-116"/>
      <use x="163.964844" xlink:href="#DejaVuSans-97"/>
     </g>
    </g>
    <g id="line2d_22">
     <path d="M 160.705182 45.683052 
L 180.705182 45.683052 
" style="fill:none;stroke:#ff7f0e;stroke-dasharray:5.55,2.4;stroke-dashoffset:0;stroke-width:1.5;"/>
    </g>
    <g id="line2d_23"/>
    <g id="text_14">
     <!-- cs -->
     <defs>
      <path d="M 48.78125 52.59375 
L 48.78125 44.1875 
Q 44.96875 46.296875 41.140625 47.34375 
Q 37.3125 48.390625 33.40625 48.390625 
Q 24.65625 48.390625 19.8125 42.84375 
Q 14.984375 37.3125 14.984375 27.296875 
Q 14.984375 17.28125 19.8125 11.734375 
Q 24.65625 6.203125 33.40625 6.203125 
Q 37.3125 6.203125 41.140625 7.25 
Q 44.96875 8.296875 48.78125 10.40625 
L 48.78125 2.09375 
Q 45.015625 0.34375 40.984375 -0.53125 
Q 36.96875 -1.421875 32.421875 -1.421875 
Q 20.0625 -1.421875 12.78125 6.34375 
Q 5.515625 14.109375 5.515625 27.296875 
Q 5.515625 40.671875 12.859375 48.328125 
Q 20.21875 56 33.015625 56 
Q 37.15625 56 41.109375 55.140625 
Q 45.0625 54.296875 48.78125 52.59375 
z
" id="DejaVuSans-99"/>
      <path d="M 44.28125 53.078125 
L 44.28125 44.578125 
Q 40.484375 46.53125 36.375 47.5 
Q 32.28125 48.484375 27.875 48.484375 
Q 21.1875 48.484375 17.84375 46.4375 
Q 14.5 44.390625 14.5 40.28125 
Q 14.5 37.15625 16.890625 35.375 
Q 19.28125 33.59375 26.515625 31.984375 
L 29.59375 31.296875 
Q 39.15625 29.25 43.1875 25.515625 
Q 47.21875 21.78125 47.21875 15.09375 
Q 47.21875 7.46875 41.1875 3.015625 
Q 35.15625 -1.421875 24.609375 -1.421875 
Q 20.21875 -1.421875 15.453125 -0.5625 
Q 10.6875 0.296875 5.421875 2 
L 5.421875 11.28125 
Q 10.40625 8.6875 15.234375 7.390625 
Q 20.0625 6.109375 24.8125 6.109375 
Q 31.15625 6.109375 34.5625 8.28125 
Q 37.984375 10.453125 37.984375 14.40625 
Q 37.984375 18.0625 35.515625 20.015625 
Q 33.0625 21.96875 24.703125 23.78125 
L 21.578125 24.515625 
Q 13.234375 26.265625 9.515625 29.90625 
Q 5.8125 33.546875 5.8125 39.890625 
Q 5.8125 47.609375 11.28125 51.796875 
Q 16.75 56 26.8125 56 
Q 31.78125 56 36.171875 55.265625 
Q 40.578125 54.546875 44.28125 53.078125 
z
" id="DejaVuSans-115"/>
     </defs>
     <g transform="translate(188.705182 49.183052)scale(0.1 -0.1)">
      <use xlink:href="#DejaVuSans-99"/>
      <use x="54.980469" xlink:href="#DejaVuSans-115"/>
     </g>
    </g>
   </g>
  </g>
  <g id="axes_2">
   <g id="patch_8">
    <path d="M 280.987677 325.921635 
L 451.025432 325.921635 
L 451.025432 17.90649 
L 280.987677 17.90649 
z
" style="fill:#ffffff;"/>
   </g>
   <g id="matplotlib.axis_3">
    <g id="xtick_4">
     <g id="line2d_24">
      <g>
       <use style="stroke:#000000;stroke-width:0.8;" x="324.241211" xlink:href="#mec41554f36" y="325.921635"/>
      </g>
     </g>
     <g id="text_15">
      <!-- −2 -->
      <g transform="translate(316.870118 340.520072)scale(0.1 -0.1)">
       <use xlink:href="#DejaVuSans-8722"/>
       <use x="83.789062" xlink:href="#DejaVuSans-50"/>
      </g>
     </g>
    </g>
    <g id="xtick_5">
     <g id="line2d_25">
      <g>
       <use style="stroke:#000000;stroke-width:0.8;" x="385.689073" xlink:href="#mec41554f36" y="325.921635"/>
      </g>
     </g>
     <g id="text_16">
      <!-- 0 -->
      <g transform="translate(382.507823 340.520072)scale(0.1 -0.1)">
       <use xlink:href="#DejaVuSans-48"/>
      </g>
     </g>
    </g>
    <g id="xtick_6">
     <g id="line2d_26">
      <g>
       <use style="stroke:#000000;stroke-width:0.8;" x="447.136934" xlink:href="#mec41554f36" y="325.921635"/>
      </g>
     </g>
     <g id="text_17">
      <!-- 2 -->
      <g transform="translate(443.955684 340.520072)scale(0.1 -0.1)">
       <use xlink:href="#DejaVuSans-50"/>
      </g>
     </g>
    </g>
   </g>
   <g id="matplotlib.axis_4">
    <g id="ytick_9">
     <g id="line2d_27">
      <g>
       <use style="stroke:#000000;stroke-width:0.8;" x="280.987677" xlink:href="#mf65eb3ce9b" y="319.114955"/>
      </g>
     </g>
     <g id="text_18">
      <!-- −30000 -->
      <g transform="translate(233.79549 322.914173)scale(0.1 -0.1)">
       <use xlink:href="#DejaVuSans-8722"/>
       <use x="83.789062" xlink:href="#DejaVuSans-51"/>
       <use x="147.412109" xlink:href="#DejaVuSans-48"/>
       <use x="211.035156" xlink:href="#DejaVuSans-48"/>
       <use x="274.658203" xlink:href="#DejaVuSans-48"/>
       <use x="338.28125" xlink:href="#DejaVuSans-48"/>
      </g>
     </g>
    </g>
    <g id="ytick_10">
     <g id="line2d_28">
      <g>
       <use style="stroke:#000000;stroke-width:0.8;" x="280.987677" xlink:href="#mf65eb3ce9b" y="263.800963"/>
      </g>
     </g>
     <g id="text_19">
      <!-- −20000 -->
      <g transform="translate(233.79549 267.600181)scale(0.1 -0.1)">
       <use xlink:href="#DejaVuSans-8722"/>
       <use x="83.789062" xlink:href="#DejaVuSans-50"/>
       <use x="147.412109" xlink:href="#DejaVuSans-48"/>
       <use x="211.035156" xlink:href="#DejaVuSans-48"/>
       <use x="274.658203" xlink:href="#DejaVuSans-48"/>
       <use x="338.28125" xlink:href="#DejaVuSans-48"/>
      </g>
     </g>
    </g>
    <g id="ytick_11">
     <g id="line2d_29">
      <g>
       <use style="stroke:#000000;stroke-width:0.8;" x="280.987677" xlink:href="#mf65eb3ce9b" y="208.486971"/>
      </g>
     </g>
     <g id="text_20">
      <!-- −10000 -->
      <g transform="translate(233.79549 212.286189)scale(0.1 -0.1)">
       <use xlink:href="#DejaVuSans-8722"/>
       <use x="83.789062" xlink:href="#DejaVuSans-49"/>
       <use x="147.412109" xlink:href="#DejaVuSans-48"/>
       <use x="211.035156" xlink:href="#DejaVuSans-48"/>
       <use x="274.658203" xlink:href="#DejaVuSans-48"/>
       <use x="338.28125" xlink:href="#DejaVuSans-48"/>
      </g>
     </g>
    </g>
    <g id="ytick_12">
     <g id="line2d_30">
      <g>
       <use style="stroke:#000000;stroke-width:0.8;" x="280.987677" xlink:href="#mf65eb3ce9b" y="153.172979"/>
      </g>
     </g>
     <g id="text_21">
      <!-- 0 -->
      <g transform="translate(267.625177 156.972198)scale(0.1 -0.1)">
       <use xlink:href="#DejaVuSans-48"/>
      </g>
     </g>
    </g>
    <g id="ytick_13">
     <g id="line2d_31">
      <g>
       <use style="stroke:#000000;stroke-width:0.8;" x="280.987677" xlink:href="#mf65eb3ce9b" y="97.858987"/>
      </g>
     </g>
     <g id="text_22">
      <!-- 10000 -->
      <g transform="translate(242.175177 101.658206)scale(0.1 -0.1)">
       <use xlink:href="#DejaVuSans-49"/>
       <use x="63.623047" xlink:href="#DejaVuSans-48"/>
       <use x="127.246094" xlink:href="#DejaVuSans-48"/>
       <use x="190.869141" xlink:href="#DejaVuSans-48"/>
       <use x="254.492188" xlink:href="#DejaVuSans-48"/>
      </g>
     </g>
    </g>
    <g id="ytick_14">
     <g id="line2d_32">
      <g>
       <use style="stroke:#000000;stroke-width:0.8;" x="280.987677" xlink:href="#mf65eb3ce9b" y="42.544995"/>
      </g>
     </g>
     <g id="text_23">
      <!-- 20000 -->
      <g transform="translate(242.175177 46.344214)scale(0.1 -0.1)">
       <use xlink:href="#DejaVuSans-50"/>
       <use x="63.623047" xlink:href="#DejaVuSans-48"/>
       <use x="127.246094" xlink:href="#DejaVuSans-48"/>
       <use x="190.869141" xlink:href="#DejaVuSans-48"/>
       <use x="254.492188" xlink:href="#DejaVuSans-48"/>
      </g>
     </g>
    </g>
   </g>
   <g id="line2d_33">
    <g clip-path="url(#p532052560d)">
     <use style="fill:#1f77b4;stroke:#1f77b4;" x="387.609319" xlink:href="#m92d9b2c70b" y="151.369743"/>
     <use style="fill:#1f77b4;stroke:#1f77b4;" x="395.290301" xlink:href="#m92d9b2c70b" y="151.369743"/>
     <use style="fill:#1f77b4;stroke:#1f77b4;" x="387.609319" xlink:href="#m92d9b2c70b" y="153.172979"/>
     <use style="fill:#1f77b4;stroke:#1f77b4;" x="382.808704" xlink:href="#m92d9b2c70b" y="153.172979"/>
     <use style="fill:#1f77b4;stroke:#1f77b4;" x="345.363914" xlink:href="#m92d9b2c70b" y="152.271361"/>
     <use style="fill:#1f77b4;stroke:#1f77b4;" x="370.327107" xlink:href="#m92d9b2c70b" y="153.172979"/>
     <use style="fill:#1f77b4;stroke:#1f77b4;" x="421.213618" xlink:href="#m92d9b2c70b" y="151.369743"/>
     <use style="fill:#1f77b4;stroke:#1f77b4;" x="357.845511" xlink:href="#m92d9b2c70b" y="151.369743"/>
     <use style="fill:#1f77b4;stroke:#1f77b4;" x="378.968213" xlink:href="#m92d9b2c70b" y="151.369743"/>
     <use style="fill:#1f77b4;stroke:#1f77b4;" x="412.572512" xlink:href="#m92d9b2c70b" y="151.369743"/>
     <use style="fill:#1f77b4;stroke:#1f77b4;" x="443.296443" xlink:href="#m92d9b2c70b" y="151.369743"/>
     <use style="fill:#1f77b4;stroke:#1f77b4;" x="337.682931" xlink:href="#m92d9b2c70b" y="151.369743"/>
     <use style="fill:#1f77b4;stroke:#1f77b4;" x="357.845511" xlink:href="#m92d9b2c70b" y="151.369743"/>
     <use style="fill:#1f77b4;stroke:#1f77b4;" x="360.725879" xlink:href="#m92d9b2c70b" y="151.369743"/>
     <use style="fill:#1f77b4;stroke:#1f77b4;" x="355.925265" xlink:href="#m92d9b2c70b" y="151.369743"/>
     <use style="fill:#1f77b4;stroke:#1f77b4;" x="381.848582" xlink:href="#m92d9b2c70b" y="151.369743"/>
     <use style="fill:#1f77b4;stroke:#1f77b4;" x="377.047967" xlink:href="#m92d9b2c70b" y="151.369743"/>
     <use style="fill:#1f77b4;stroke:#1f77b4;" x="368.406862" xlink:href="#m92d9b2c70b" y="151.369743"/>
     <use style="fill:#1f77b4;stroke:#1f77b4;" x="387.609319" xlink:href="#m92d9b2c70b" y="151.369743"/>
     <use style="fill:#1f77b4;stroke:#1f77b4;" x="378.968213" xlink:href="#m92d9b2c70b" y="151.369743"/>
     <use style="fill:#1f77b4;stroke:#1f77b4;" x="334.802563" xlink:href="#m92d9b2c70b" y="151.369743"/>
     <use style="fill:#1f77b4;stroke:#1f77b4;" x="346.324037" xlink:href="#m92d9b2c70b" y="151.369743"/>
     <use style="fill:#1f77b4;stroke:#1f77b4;" x="410.652267" xlink:href="#m92d9b2c70b" y="151.369743"/>
     <use style="fill:#1f77b4;stroke:#1f77b4;" x="347.284159" xlink:href="#m92d9b2c70b" y="151.369743"/>
     <use style="fill:#1f77b4;stroke:#1f77b4;" x="365.526493" xlink:href="#m92d9b2c70b" y="151.369743"/>
     <use style="fill:#1f77b4;stroke:#1f77b4;" x="360.725879" xlink:href="#m92d9b2c70b" y="151.369743"/>
     <use style="fill:#1f77b4;stroke:#1f77b4;" x="400.090915" xlink:href="#m92d9b2c70b" y="151.402931"/>
     <use style="fill:#1f77b4;stroke:#1f77b4;" x="389.529564" xlink:href="#m92d9b2c70b" y="151.369743"/>
     <use style="fill:#1f77b4;stroke:#1f77b4;" x="378.00809" xlink:href="#m92d9b2c70b" y="151.369743"/>
     <use style="fill:#1f77b4;stroke:#1f77b4;" x="353.044896" xlink:href="#m92d9b2c70b" y="151.369743"/>
    </g>
   </g>
   <g id="line2d_34">
    <path clip-path="url(#p532052560d)" d="M 385.689073 304.559795 
L 385.977398 311.008612 
L 386.150393 311.920947 
L 386.265723 311.141122 
L 386.438718 307.702136 
L 386.669378 298.487814 
L 387.015369 273.530368 
L 387.419024 225.11076 
L 387.822679 152.847707 
L 387.938009 155.067965 
L 388.283999 163.673548 
L 388.51466 165.851428 
L 388.62999 166.063514 
L 388.74532 165.775876 
L 388.97598 163.955955 
L 389.379635 158.104876 
L 390.302276 144.082785 
L 390.878926 138.908863 
L 391.340246 136.568568 
L 391.686237 135.721419 
L 391.916897 135.538621 
L 392.147557 135.630007 
L 392.435882 136.088824 
L 392.839537 137.280221 
L 393.416188 139.831351 
L 394.454158 145.704854 
L 395.492129 151.137431 
L 396.068779 153.13171 
L 396.587765 154.229366 
L 397.049085 154.731252 
L 397.45274 154.860001 
L 397.856395 154.746443 
L 398.317716 154.378007 
L 399.009696 153.490513 
L 401.258632 150.318499 
L 402.123608 149.626238 
L 402.988583 149.224635 
L 403.853559 149.069171 
L 404.833865 149.13432 
L 405.987165 149.45466 
L 407.717116 150.208193 
L 409.966053 151.151039 
L 411.119353 151.387768 
L 412.387984 151.38877 
L 416.770527 151.246425 
L 421.326065 151.357929 
L 437.010954 151.94589 
L 440.586186 151.738925 
L 443.296443 151.409753 
L 443.296443 151.409753 
" style="fill:none;stroke:#ff7f0e;stroke-dasharray:5.55,2.4;stroke-dashoffset:0;stroke-width:1.5;"/>
   </g>
   <g id="line2d_35">
    <g clip-path="url(#p532052560d)">
     <use style="fill:#2ca02c;stroke:#2ca02c;" x="376.087845" xlink:href="#m4c4fe41814" y="151.369743"/>
     <use style="fill:#2ca02c;stroke:#2ca02c;" x="335.762685" xlink:href="#m4c4fe41814" y="151.369743"/>
     <use style="fill:#2ca02c;stroke:#2ca02c;" x="386.649196" xlink:href="#m4c4fe41814" y="151.369743"/>
     <use style="fill:#2ca02c;stroke:#2ca02c;" x="375.127722" xlink:href="#m4c4fe41814" y="151.369743"/>
     <use style="fill:#2ca02c;stroke:#2ca02c;" x="354.005019" xlink:href="#m4c4fe41814" y="152.547931"/>
     <use style="fill:#2ca02c;stroke:#2ca02c;" x="411.612389" xlink:href="#m4c4fe41814" y="151.369743"/>
     <use style="fill:#2ca02c;stroke:#2ca02c;" x="377.047967" xlink:href="#m4c4fe41814" y="151.369743"/>
     <use style="fill:#2ca02c;stroke:#2ca02c;" x="345.363914" xlink:href="#m4c4fe41814" y="151.369743"/>
     <use style="fill:#2ca02c;stroke:#2ca02c;" x="354.005019" xlink:href="#m4c4fe41814" y="151.369743"/>
     <use style="fill:#2ca02c;stroke:#2ca02c;" x="316.560229" xlink:href="#m4c4fe41814" y="153.172979"/>
     <use style="fill:#2ca02c;stroke:#2ca02c;" x="377.047967" xlink:href="#m4c4fe41814" y="153.172979"/>
     <use style="fill:#2ca02c;stroke:#2ca02c;" x="326.161457" xlink:href="#m4c4fe41814" y="151.369743"/>
     <use style="fill:#2ca02c;stroke:#2ca02c;" x="339.603177" xlink:href="#m4c4fe41814" y="151.369743"/>
     <use style="fill:#2ca02c;stroke:#2ca02c;" x="308.879246" xlink:href="#m4c4fe41814" y="151.369743"/>
     <use style="fill:#2ca02c;stroke:#2ca02c;" x="376.087845" xlink:href="#m4c4fe41814" y="152.271361"/>
     <use style="fill:#2ca02c;stroke:#2ca02c;" x="372.247353" xlink:href="#m4c4fe41814" y="151.369743"/>
     <use style="fill:#2ca02c;stroke:#2ca02c;" x="288.716666" xlink:href="#m4c4fe41814" y="151.369743"/>
     <use style="fill:#2ca02c;stroke:#2ca02c;" x="357.845511" xlink:href="#m4c4fe41814" y="151.850974"/>
     <use style="fill:#2ca02c;stroke:#2ca02c;" x="303.118509" xlink:href="#m4c4fe41814" y="151.369743"/>
     <use style="fill:#2ca02c;stroke:#2ca02c;" x="336.722808" xlink:href="#m4c4fe41814" y="151.369743"/>
     <use style="fill:#2ca02c;stroke:#2ca02c;" x="385.689073" xlink:href="#m4c4fe41814" y="151.369743"/>
     <use style="fill:#2ca02c;stroke:#2ca02c;" x="330.001948" xlink:href="#m4c4fe41814" y="151.369743"/>
     <use style="fill:#2ca02c;stroke:#2ca02c;" x="343.443668" xlink:href="#m4c4fe41814" y="153.172979"/>
     <use style="fill:#2ca02c;stroke:#2ca02c;" x="382.808704" xlink:href="#m4c4fe41814" y="151.369743"/>
     <use style="fill:#2ca02c;stroke:#2ca02c;" x="358.805633" xlink:href="#m4c4fe41814" y="151.369743"/>
     <use style="fill:#2ca02c;stroke:#2ca02c;" x="357.845511" xlink:href="#m4c4fe41814" y="151.369743"/>
     <use style="fill:#2ca02c;stroke:#2ca02c;" x="372.247353" xlink:href="#m4c4fe41814" y="151.369743"/>
     <use style="fill:#2ca02c;stroke:#2ca02c;" x="383.768827" xlink:href="#m4c4fe41814" y="151.369743"/>
     <use style="fill:#2ca02c;stroke:#2ca02c;" x="314.639983" xlink:href="#m4c4fe41814" y="151.369743"/>
     <use style="fill:#2ca02c;stroke:#2ca02c;" x="357.845511" xlink:href="#m4c4fe41814" y="151.369743"/>
    </g>
   </g>
   <g id="line2d_36">
    <path clip-path="url(#p532052560d)" d="M 385.689073 150.930042 
L 386.182109 151.560369 
L 386.4935 151.650016 
L 386.804891 151.499335 
L 387.168181 151.031607 
L 387.609319 150.060344 
L 388.154253 148.285292 
L 388.828934 145.273499 
L 389.659311 140.455423 
L 390.671332 133.154904 
L 391.916897 122.439756 
L 393.603599 105.840587 
L 398.559909 55.853415 
L 399.831423 45.801728 
L 400.843444 39.428289 
L 401.673821 35.508671 
L 402.348502 33.318321 
L 402.867487 32.301354 
L 403.256726 31.947131 
L 403.568117 31.928863 
L 403.879508 32.155842 
L 404.242798 32.74243 
L 404.683935 33.939943 
L 405.202921 36.062362 
L 405.799754 39.507514 
L 406.474435 44.770918 
L 407.226964 52.461689 
L 408.05734 63.320529 
L 408.965564 78.23979 
L 409.951636 98.285614 
L 411.015556 124.722143 
L 411.612389 141.865745 
L 411.612389 141.865745 
" style="fill:none;stroke:#d62728;stroke-dasharray:5.55,2.4;stroke-dashoffset:0;stroke-width:1.5;"/>
   </g>
   <g id="line2d_37">
    <g clip-path="url(#p532052560d)">
     <use style="fill:#9467bd;stroke:#9467bd;" x="326.161457" xlink:href="#m29c902229a" y="151.369743"/>
     <use style="fill:#9467bd;stroke:#9467bd;" x="393.370056" xlink:href="#m29c902229a" y="151.369743"/>
     <use style="fill:#9467bd;stroke:#9467bd;" x="314.639983" xlink:href="#m29c902229a" y="151.369743"/>
     <use style="fill:#9467bd;stroke:#9467bd;" x="326.161457" xlink:href="#m29c902229a" y="151.369743"/>
     <use style="fill:#9467bd;stroke:#9467bd;" x="385.689073" xlink:href="#m29c902229a" y="152.271361"/>
     <use style="fill:#9467bd;stroke:#9467bd;" x="360.725879" xlink:href="#m29c902229a" y="151.369743"/>
     <use style="fill:#9467bd;stroke:#9467bd;" x="402.011161" xlink:href="#m29c902229a" y="151.369743"/>
     <use style="fill:#9467bd;stroke:#9467bd;" x="350.164528" xlink:href="#m29c902229a" y="151.369743"/>
     <use style="fill:#9467bd;stroke:#9467bd;" x="331.922194" xlink:href="#m29c902229a" y="151.369743"/>
     <use style="fill:#9467bd;stroke:#9467bd;" x="347.284159" xlink:href="#m29c902229a" y="151.369743"/>
     <use style="fill:#9467bd;stroke:#9467bd;" x="328.081703" xlink:href="#m29c902229a" y="151.369743"/>
     <use style="fill:#9467bd;stroke:#9467bd;" x="320.40072" xlink:href="#m29c902229a" y="151.369743"/>
     <use style="fill:#9467bd;stroke:#9467bd;" x="377.047967" xlink:href="#m29c902229a" y="151.369743"/>
     <use style="fill:#9467bd;stroke:#9467bd;" x="332.882317" xlink:href="#m29c902229a" y="153.172979"/>
     <use style="fill:#9467bd;stroke:#9467bd;" x="390.489687" xlink:href="#m29c902229a" y="151.369743"/>
     <use style="fill:#9467bd;stroke:#9467bd;" x="382.808704" xlink:href="#m29c902229a" y="151.369743"/>
     <use style="fill:#9467bd;stroke:#9467bd;" x="340.5633" xlink:href="#m29c902229a" y="151.369743"/>
     <use style="fill:#9467bd;stroke:#9467bd;" x="335.762685" xlink:href="#m29c902229a" y="151.369743"/>
     <use style="fill:#9467bd;stroke:#9467bd;" x="354.005019" xlink:href="#m29c902229a" y="152.271361"/>
     <use style="fill:#9467bd;stroke:#9467bd;" x="388.569441" xlink:href="#m29c902229a" y="151.369743"/>
     <use style="fill:#9467bd;stroke:#9467bd;" x="323.281088" xlink:href="#m29c902229a" y="151.369743"/>
     <use style="fill:#9467bd;stroke:#9467bd;" x="335.762685" xlink:href="#m29c902229a" y="151.369743"/>
     <use style="fill:#9467bd;stroke:#9467bd;" x="369.366985" xlink:href="#m29c902229a" y="151.369743"/>
     <use style="fill:#9467bd;stroke:#9467bd;" x="347.284159" xlink:href="#m29c902229a" y="151.369743"/>
     <use style="fill:#9467bd;stroke:#9467bd;" x="354.005019" xlink:href="#m29c902229a" y="151.718221"/>
     <use style="fill:#9467bd;stroke:#9467bd;" x="348.244282" xlink:href="#m29c902229a" y="151.369743"/>
     <use style="fill:#9467bd;stroke:#9467bd;" x="332.882317" xlink:href="#m29c902229a" y="151.369743"/>
     <use style="fill:#9467bd;stroke:#9467bd;" x="365.526493" xlink:href="#m29c902229a" y="151.369743"/>
     <use style="fill:#9467bd;stroke:#9467bd;" x="360.725879" xlink:href="#m29c902229a" y="151.369743"/>
     <use style="fill:#9467bd;stroke:#9467bd;" x="371.28723" xlink:href="#m29c902229a" y="152.271361"/>
    </g>
   </g>
   <g id="line2d_38">
    <path clip-path="url(#p532052560d)" d="M 385.689073 152.253135 
L 386.424302 152.1885 
L 387.437285 151.843863 
L 388.973097 151.335007 
L 389.920725 151.302515 
L 393.368133 151.373309 
L 400.704087 151.098434 
L 402.011161 151.298681 
L 402.011161 151.298681 
" style="fill:none;stroke:#8c564b;stroke-dasharray:5.55,2.4;stroke-dashoffset:0;stroke-width:1.5;"/>
   </g>
   <g id="line2d_39">
    <g clip-path="url(#p532052560d)">
     <use style="fill:#e377c2;stroke:#e377c2;" x="388.569441" xlink:href="#m21364a808e" y="151.369743"/>
     <use style="fill:#e377c2;stroke:#e377c2;" x="400.090915" xlink:href="#m21364a808e" y="152.271361"/>
     <use style="fill:#e377c2;stroke:#e377c2;" x="375.127722" xlink:href="#m21364a808e" y="151.369743"/>
     <use style="fill:#e377c2;stroke:#e377c2;" x="408.732021" xlink:href="#m21364a808e" y="151.369743"/>
     <use style="fill:#e377c2;stroke:#e377c2;" x="348.244282" xlink:href="#m21364a808e" y="151.369743"/>
     <use style="fill:#e377c2;stroke:#e377c2;" x="373.207476" xlink:href="#m21364a808e" y="151.369743"/>
     <use style="fill:#e377c2;stroke:#e377c2;" x="361.686002" xlink:href="#m21364a808e" y="151.369743"/>
     <use style="fill:#e377c2;stroke:#e377c2;" x="322.320966" xlink:href="#m21364a808e" y="151.369743"/>
     <use style="fill:#e377c2;stroke:#e377c2;" x="354.965142" xlink:href="#m21364a808e" y="152.90194"/>
     <use style="fill:#e377c2;stroke:#e377c2;" x="375.127722" xlink:href="#m21364a808e" y="152.271361"/>
     <use style="fill:#e377c2;stroke:#e377c2;" x="379.928336" xlink:href="#m21364a808e" y="151.369743"/>
     <use style="fill:#e377c2;stroke:#e377c2;" x="403.931407" xlink:href="#m21364a808e" y="151.369743"/>
     <use style="fill:#e377c2;stroke:#e377c2;" x="394.330178" xlink:href="#m21364a808e" y="151.369743"/>
     <use style="fill:#e377c2;stroke:#e377c2;" x="364.56637" xlink:href="#m21364a808e" y="151.369743"/>
     <use style="fill:#e377c2;stroke:#e377c2;" x="392.409933" xlink:href="#m21364a808e" y="151.369743"/>
     <use style="fill:#e377c2;stroke:#e377c2;" x="354.965142" xlink:href="#m21364a808e" y="151.369743"/>
     <use style="fill:#e377c2;stroke:#e377c2;" x="354.965142" xlink:href="#m21364a808e" y="151.369743"/>
     <use style="fill:#e377c2;stroke:#e377c2;" x="328.081703" xlink:href="#m21364a808e" y="151.369743"/>
     <use style="fill:#e377c2;stroke:#e377c2;" x="328.081703" xlink:href="#m21364a808e" y="151.369743"/>
     <use style="fill:#e377c2;stroke:#e377c2;" x="410.652267" xlink:href="#m21364a808e" y="151.369743"/>
     <use style="fill:#e377c2;stroke:#e377c2;" x="417.373126" xlink:href="#m21364a808e" y="151.369743"/>
     <use style="fill:#e377c2;stroke:#e377c2;" x="337.682931" xlink:href="#m21364a808e" y="151.369743"/>
     <use style="fill:#e377c2;stroke:#e377c2;" x="344.403791" xlink:href="#m21364a808e" y="151.369743"/>
     <use style="fill:#e377c2;stroke:#e377c2;" x="333.84244" xlink:href="#m21364a808e" y="151.369743"/>
     <use style="fill:#e377c2;stroke:#e377c2;" x="334.802563" xlink:href="#m21364a808e" y="151.369743"/>
     <use style="fill:#e377c2;stroke:#e377c2;" x="375.127722" xlink:href="#m21364a808e" y="153.172979"/>
     <use style="fill:#e377c2;stroke:#e377c2;" x="351.124651" xlink:href="#m21364a808e" y="153.172979"/>
     <use style="fill:#e377c2;stroke:#e377c2;" x="380.888459" xlink:href="#m21364a808e" y="151.369743"/>
     <use style="fill:#e377c2;stroke:#e377c2;" x="384.72895" xlink:href="#m21364a808e" y="153.172979"/>
     <use style="fill:#e377c2;stroke:#e377c2;" x="340.5633" xlink:href="#m21364a808e" y="151.369743"/>
    </g>
   </g>
   <g id="line2d_40">
    <path clip-path="url(#p532052560d)" d="M 385.689073 154.386341 
L 386.069662 154.528125 
L 386.450251 154.410802 
L 386.925988 153.985814 
L 387.655451 152.97155 
L 388.892366 151.262494 
L 389.463249 150.85918 
L 390.065849 150.70568 
L 390.763596 150.77568 
L 391.968795 151.179118 
L 392.951984 151.40476 
L 394.093752 151.379605 
L 395.394098 151.413541 
L 396.916455 151.714927 
L 399.548864 152.249234 
L 400.690632 152.229434 
L 401.990978 151.951714 
L 404.877113 151.26446 
L 406.431186 151.22433 
L 412.298603 151.30361 
L 416.104496 151.224297 
L 417.373126 151.324764 
L 417.373126 151.324764 
" style="fill:none;stroke:#7f7f7f;stroke-dasharray:5.55,2.4;stroke-dashoffset:0;stroke-width:1.5;"/>
   </g>
   <g id="patch_9">
    <path d="M 280.987677 325.921635 
L 280.987677 17.90649 
" style="fill:none;stroke:#000000;stroke-linecap:square;stroke-linejoin:miter;stroke-width:0.8;"/>
   </g>
   <g id="patch_10">
    <path d="M 451.025432 325.921635 
L 451.025432 17.90649 
" style="fill:none;stroke:#000000;stroke-linecap:square;stroke-linejoin:miter;stroke-width:0.8;"/>
   </g>
   <g id="patch_11">
    <path d="M 280.987677 325.921635 
L 451.025432 325.921635 
" style="fill:none;stroke:#000000;stroke-linecap:square;stroke-linejoin:miter;stroke-width:0.8;"/>
   </g>
   <g id="patch_12">
    <path d="M 280.987677 17.90649 
L 451.025432 17.90649 
" style="fill:none;stroke:#000000;stroke-linecap:square;stroke-linejoin:miter;stroke-width:0.8;"/>
   </g>
   <g id="text_24">
    <!-- tau_m=29.818331833692987 -->
    <defs>
     <path d="M 8.203125 72.90625 
L 55.078125 72.90625 
L 55.078125 68.703125 
L 28.609375 0 
L 18.3125 0 
L 43.21875 64.59375 
L 8.203125 64.59375 
z
" id="DejaVuSans-55"/>
    </defs>
    <g transform="translate(275.49843 11.90649)scale(0.12 -0.12)">
     <use xlink:href="#DejaVuSans-116"/>
     <use x="39.208984" xlink:href="#DejaVuSans-97"/>
     <use x="100.488281" xlink:href="#DejaVuSans-117"/>
     <use x="163.867188" xlink:href="#DejaVuSans-95"/>
     <use x="213.867188" xlink:href="#DejaVuSans-109"/>
     <use x="311.279297" xlink:href="#DejaVuSans-61"/>
     <use x="395.068359" xlink:href="#DejaVuSans-50"/>
     <use x="458.691406" xlink:href="#DejaVuSans-57"/>
     <use x="522.314453" xlink:href="#DejaVuSans-46"/>
     <use x="554.101562" xlink:href="#DejaVuSans-56"/>
     <use x="617.724609" xlink:href="#DejaVuSans-49"/>
     <use x="681.347656" xlink:href="#DejaVuSans-56"/>
     <use x="744.970703" xlink:href="#DejaVuSans-51"/>
     <use x="808.59375" xlink:href="#DejaVuSans-51"/>
     <use x="872.216797" xlink:href="#DejaVuSans-49"/>
     <use x="935.839844" xlink:href="#DejaVuSans-56"/>
     <use x="999.462891" xlink:href="#DejaVuSans-51"/>
     <use x="1063.085938" xlink:href="#DejaVuSans-51"/>
     <use x="1126.708984" xlink:href="#DejaVuSans-54"/>
     <use x="1190.332031" xlink:href="#DejaVuSans-57"/>
     <use x="1253.955078" xlink:href="#DejaVuSans-50"/>
     <use x="1317.578125" xlink:href="#DejaVuSans-57"/>
     <use x="1381.201172" xlink:href="#DejaVuSans-56"/>
     <use x="1444.824219" xlink:href="#DejaVuSans-55"/>
    </g>
   </g>
   <g id="legend_2">
    <g id="patch_13">
     <path d="M 287.987677 55.26274 
L 342.512677 55.26274 
Q 344.512677 55.26274 344.512677 53.26274 
L 344.512677 24.90649 
Q 344.512677 22.90649 342.512677 22.90649 
L 287.987677 22.90649 
Q 285.987677 22.90649 285.987677 24.90649 
L 285.987677 53.26274 
Q 285.987677 55.26274 287.987677 55.26274 
z
" style="fill:#ffffff;opacity:0.8;stroke:#cccccc;stroke-linejoin:miter;"/>
    </g>
    <g id="line2d_41"/>
    <g id="line2d_42">
     <g>
      <use style="fill:#1f77b4;stroke:#1f77b4;" x="299.987677" xlink:href="#m92d9b2c70b" y="31.004927"/>
     </g>
    </g>
    <g id="text_25">
     <!-- data -->
     <g transform="translate(317.987677 34.504927)scale(0.1 -0.1)">
      <use xlink:href="#DejaVuSans-100"/>
      <use x="63.476562" xlink:href="#DejaVuSans-97"/>
      <use x="124.755859" xlink:href="#DejaVuSans-116"/>
      <use x="163.964844" xlink:href="#DejaVuSans-97"/>
     </g>
    </g>
    <g id="line2d_43">
     <path d="M 289.987677 45.683052 
L 309.987677 45.683052 
" style="fill:none;stroke:#ff7f0e;stroke-dasharray:5.55,2.4;stroke-dashoffset:0;stroke-width:1.5;"/>
    </g>
    <g id="line2d_44"/>
    <g id="text_26">
     <!-- cs -->
     <g transform="translate(317.987677 49.183052)scale(0.1 -0.1)">
      <use xlink:href="#DejaVuSans-99"/>
      <use x="54.980469" xlink:href="#DejaVuSans-115"/>
     </g>
    </g>
   </g>
  </g>
 </g>
 <defs>
  <clipPath id="pf995d712e3">
   <rect height="308.015145" width="170.037754" x="50.192428" y="17.90649"/>
  </clipPath>
  <clipPath id="p532052560d">
   <rect height="308.015145" width="170.037754" x="280.987677" y="17.90649"/>
  </clipPath>
 </defs>
</svg>
